<svg xmlns="http://www.w3.org/2000/svg" width="339.16" height="46.288" viewBox="0 0 339.16 46.288">
  <g id="Сгруппировать_115" data-name="Сгруппировать 115" transform="translate(0)">
    <g id="Сгруппировать_77" data-name="Сгруппировать 77" transform="translate(185.282 0)">
      <path id="Контур_115" data-name="Контур 115" d="M2.192.993a16.264,16.264,0,0,1,8.871-2.662A21.488,21.488,0,0,1,21.531.543q-.9,3.331-1.814,6.65a17.216,17.216,0,0,0-8.459-2.146A7.71,7.71,0,0,0,6.31,6.707a5.106,5.106,0,0,0-1.6,4.752,5.418,5.418,0,0,0,2.345,3.512c2.633,1.91,5.769,2.7,8.561,4.269A15.472,15.472,0,0,1,21.2,24a13.213,13.213,0,0,1,1.846,9.135,12.389,12.389,0,0,1-3.757,7.492A14.409,14.409,0,0,1,12.429,44.1a23.265,23.265,0,0,1-8.815.19,21.284,21.284,0,0,1-7.305-2.474c.48-2.31,1.111-4.584,1.661-6.878A19.738,19.738,0,0,0,8,37.816a8.3,8.3,0,0,0,5.879-2.029,5.889,5.889,0,0,0,1.543-4.948,5.748,5.748,0,0,0-2.168-3.818c-2.329-1.938-5.247-2.648-7.873-3.959a15.735,15.735,0,0,1-7.025-6.129A12.431,12.431,0,0,1-2.835,8.786,12.011,12.011,0,0,1,2.192.993" transform="translate(3.691 1.672)" fill="#fff"/>
    </g>
    <g id="Сгруппировать_78" data-name="Сгруппировать 78" transform="translate(0 0.49)">
      <path id="Контур_116" data-name="Контур 116" d="M0,0Q20.065-.014,40.125,0q-.007,6.635,0,13.272c-3.84.01-7.678,0-11.515,0q0,15.912,0,31.829c-5.571-.006-11.144,0-16.715-.006q.019-15.907.008-31.818c-3.967-.014-7.933,0-11.9-.008C0,8.847.011,4.424,0,0" transform="translate(0 0.004)" fill="#fff"/>
    </g>
    <g id="Сгруппировать_79" data-name="Сгруппировать 79" transform="translate(35.939 0.48)">
      <path id="Контур_117" data-name="Контур 117" d="M5.874,0C11.686.029,17.5.008,23.306.008q8.065,22.561,16.141,45.115c-5.424-.019-10.852-.01-16.276,0q-4.277-13.33-8.5-26.679a2.21,2.21,0,0,0-.32.7Q10.283,32.126,6.193,45.108c-5.361.014-10.721,0-16.082,0Q-2.047,22.54,5.874,0" transform="translate(9.889)" fill="#fff"/>
    </g>
    <g id="Сгруппировать_80" data-name="Сгруппировать 80" transform="translate(81.406 0.48)">
      <path id="Контур_118" data-name="Контур 118" d="M.009,0C13.383.029,26.755,0,40.128.013q0,6.635,0,13.273-5.757,0-11.513,0,0,15.914,0,31.827c-5.571.008-11.139-.014-16.711.011-.045-10.61,0-21.224-.019-31.837q-5.949-.007-11.9,0C0,8.856-.04,4.428.009,0" transform="translate(0.016)" fill="#fff"/>
    </g>
    <g id="Сгруппировать_81" data-name="Сгруппировать 81" transform="translate(117.318 0.486)">
      <path id="Контур_119" data-name="Контур 119" d="M5.877,0Q14.59.019,23.3,0q8.086,22.549,16.144,45.113c-5.428-.021-10.853,0-16.281-.008Q18.9,31.719,14.631,18.332C11.779,27.244,9.015,36.188,6.185,45.11c-5.359,0-10.718-.013-16.079.006Q-2.021,22.552,5.877,0" transform="translate(9.894)" fill="#fff"/>
    </g>
    <g id="Сгруппировать_82" data-name="Сгруппировать 82" transform="translate(212.892 0.695)">
      <path id="Контур_120" data-name="Контур 120" d="M0,0Q15.651,0,31.3,0c.024,2.3,0,4.6.01,6.9-3.974,0-7.946.011-11.92-.008-.035,12.669,0,25.34-.016,38.01-2.523-.011-5.043.01-7.565-.011q.022-19,0-37.988Q5.907,6.89,0,6.9C0,4.6-.008,2.3,0,0" transform="translate(0.003 0.002)" fill="#fff"/>
    </g>
    <g id="Сгруппировать_83" data-name="Сгруппировать 83" transform="translate(248.928 0.686)">
      <path id="Контур_121" data-name="Контур 121" d="M.011,0C8.04.041,16.069-.013,24.1.027c-.021,2.241-.011,4.481-.006,6.722-5.5,0-10.992.016-16.485-.008-.054,3.846,0,7.693-.027,11.54,5.2.037,10.4-.021,15.608.029-.049,2.238.04,4.479-.046,6.715-5.185-.053-10.372-.01-15.557-.021-.006,4.36.008,8.721-.006,13.08,5.808.03,11.619,0,17.427.016.013,2.255-.027,4.513.021,6.771-8.341.088-16.686,0-25.03.041-.022-11.933,0-23.864-.01-35.8C0,6.078-.049,3.038.011,0" transform="translate(0.019)" fill="#fff"/>
    </g>
    <g id="Сгруппировать_84" data-name="Сгруппировать 84" transform="translate(281.726 0.694)">
      <path id="Контур_122" data-name="Контур 122" d="M0,.016C8.04-.064,16.087,0,24.128-.014c-.014,2.244-.01,4.485,0,6.73-5.5,0-10.994.014-16.488-.008-.049,3.846,0,7.693-.027,11.537,5.2.033,10.4,0,15.6.019,0,2.227-.019,4.45.01,6.677-5.2.065-10.4.008-15.605.03,0,4.361,0,8.722,0,13.085,5.808.021,11.617,0,17.425.01.01,2.26-.019,4.521.016,6.781-8.337.07-16.676-.01-25.011.04C-.024,29.93.064,14.971,0,.016" transform="translate(0 0.027)" fill="#fff"/>
    </g>
    <g id="Сгруппировать_85" data-name="Сгруппировать 85" transform="translate(314.556 0.69)">
      <path id="Контур_123" data-name="Контур 123" d="M.008,0C2.536.027,5.066,0,7.6.014q-.019,19,0,37.993,8.5.01,17,0,0,3.45,0,6.9c-8.191,0-16.381-.018-24.574.01Q-.045,22.457.008,0" transform="translate(0.013)" fill="#fff"/>
    </g>
  </g>
</svg>
