<svg xmlns="http://www.w3.org/2000/svg" width="157.836" height="161.804" viewBox="0 0 157.836 161.804">
  <g id="Сгруппировать_5781" data-name="Сгруппировать 5781" transform="translate(0 0)">
    <path id="Контур_98" data-name="Контур 98" d="M130.827,320.34l-90.534,55.7,32,7.625,31.7,51.527,70.721-43.506ZM66.754,371.8l60.712-37.349,24.665,40.093H78.273Zm18.282,13h73.4l2.167,3.522-53.252,32.76Z" transform="translate(-16.879 -320.34)" fill="#3575f2"/>
    <path id="Контур_99" data-name="Контур 99" d="M58.795,482.536c-1.047-28.18-24.637-53.414-24.637-53.414s-23.59,25.234-24.636,53.414c-.03.495-.051.991-.051,1.493,0,.073.005.144.005.216s-.005.139-.005.21l.011,0a24.256,24.256,0,0,0,24.25,23.832h.852a24.256,24.256,0,0,0,24.25-23.832l.011,0c0-.071-.005-.14-.006-.21s.006-.144.006-.216C58.846,483.527,58.825,483.03,58.795,482.536Zm-10.209,1.555c0,.062,0,.125-.005.189a14.065,14.065,0,0,1-14,13.756h-.852a14.065,14.065,0,0,1-14-13.756c0-.064,0-.126-.005-.189s0-.113,0-.17c0-.216.013-.467.031-.762,0-.081.008-.162.011-.242.534-14.371,8.263-28.3,14.388-37.169,6.126,8.871,13.855,22.8,14.389,37.169,0,.081.007.162.011.242.018.295.028.545.031.761C48.588,483.977,48.587,484.034,48.586,484.091Z" transform="translate(-9.471 -346.486)" fill="#3575f2"/>
  </g>
</svg>
