<?xml version="1.0" encoding="utf-8"?>
<!-- Generator: Adobe Illustrator 24.1.0, SVG Export Plug-In . SVG Version: 6.00 Build 0)  -->
<svg version="1.1" id="Layer_1" xmlns="http://www.w3.org/2000/svg" xmlns:xlink="http://www.w3.org/1999/xlink" x="0px" y="0px"
	 viewBox="0 0 40 40" style="enable-background:new 0 0 40 40;" xml:space="preserve">
<style type="text/css">
	.st0{fill:#1A171B;}
	.st1{fill:#F2F1EE;}
</style>
<circle class="st0" cx="20" cy="20" r="19"/>
<g>
	<path class="st1" d="M16.556,28.497c-1.537,0-2.768-0.461-3.662-1.366c-1.401-1.424-1.396-3.419-1.394-3.503l0.002-7.627
		c0.289-3.804,3.453-4.593,5.107-4.493l6.876-0.002c1.571,0.014,2.81,0.499,3.692,1.443c1.416,1.51,1.325,3.633,1.321,3.724
		l0.001,6.877c-0.041,3.794-3.31,4.897-5.032,4.95h-6.91V28.497z M13.073,16.091v7.545c0,0.019,0.009,1.447,0.949,2.393
		c0.587,0.591,1.44,0.889,2.535,0.889h6.884c0.329-0.012,3.451-0.224,3.485-3.378V16.63c0.001-0.052,0.055-1.597-0.903-2.609
		c-0.576-0.612-1.433-0.925-2.546-0.936h-6.922C16.182,13.066,13.326,12.992,13.073,16.091z"/>
	<path class="st1" d="M19.977,24.364c-2.419,0-4.387-1.977-4.387-4.41c0-2.43,1.967-4.407,4.387-4.407s4.388,1.977,4.388,4.407
		C24.364,22.387,22.396,24.364,19.977,24.364z M19.977,17.099c-1.567,0-2.843,1.282-2.843,2.856c0,1.576,1.275,2.858,2.843,2.858
		c1.569,0,2.844-1.282,2.844-2.858C22.821,18.381,21.545,17.099,19.977,17.099z"/>
	<ellipse class="st1" cx="24.487" cy="15.447" rx="1.003" ry="1.007"/>
</g>
</svg>
