<?xml version="1.0" encoding="utf-8"?>
<!-- Generator: Adobe Illustrator 24.1.0, SVG Export Plug-In . SVG Version: 6.00 Build 0)  -->
<svg version="1.1" id="Layer_1" xmlns="http://www.w3.org/2000/svg" xmlns:xlink="http://www.w3.org/1999/xlink" x="0px" y="0px"
	 viewBox="0 0 40 40" style="enable-background:new 0 0 40 40;" xml:space="preserve">
<style type="text/css">
	.st0{fill:#1A171B;}
	.st1{fill:#F2F1EE;}
</style>
<circle class="st0" cx="20" cy="20" r="19"/>
<path class="st1" d="M26.9,20.5C26.9,20.5,26.9,20.5,26.9,20.5c-1.4,5.9-11.1,8.3-15.6,2.3c0,0,0,0,0,0c1.7,1.6,4.7,1.8,6.6-0.2
	c-1.1,0.2-1.9-0.9-0.6-1.5c-1.2,0.1-1.9-0.5-2.2-1.1c0.3-0.3,0.6-0.4,1.2-0.5c-1.3-0.3-1.8-1-2-1.8c0.4-0.1,0.8-0.2,1.1-0.1
	c-1.2-0.6-1.6-1.5-1.5-2.2c2.1,0.8,3.4,1.4,4.5,2c0.4,0.2,0.8,0.6,1.3,1.1c0.6-1.7,1.4-3.4,2.8-4.3c0,0.2-0.1,0.4-0.3,0.5
	c0.4-0.3,0.9-0.6,1.4-0.7c-0.1,0.4-0.6,0.6-0.9,0.7c0.2-0.1,1.6-0.7,1.7-0.3c0.2,0.4-0.9,0.6-1.1,0.6c-0.1,0-0.3,0.1-0.4,0.2
	c1.7-0.2,3.3,1.2,3.8,2.9c0,0.1,0.1,0.3,0.1,0.4c0.6,0.2,1.7,0,2.1-0.2c-0.3,0.6-0.9,1.1-1.9,1.1c0.5,0.2,1.4,0.3,2,0.2
	C28.6,20.1,28,20.5,26.9,20.5z"/>
</svg>
