<svg width="16" height="17" viewBox="0 0 16 17" fill="none" xmlns="http://www.w3.org/2000/svg">
<path fill-rule="evenodd" clip-rule="evenodd" d="M11.6941 13.3231C10.4624 14.3084 8.90001 14.8976 7.2 14.8976C3.22355 14.8976 0 11.674 0 7.69756C0 3.72111 3.22355 0.497559 7.2 0.497559C11.1765 0.497559 14.4 3.72111 14.4 7.69756C14.4 9.39757 13.8108 10.96 12.8255 12.1917L15.7657 15.1319C16.0781 15.4443 16.0781 15.9508 15.7657 16.2632C15.4533 16.5757 14.9467 16.5757 14.6343 16.2632L11.6941 13.3231ZM12.8 7.69756C12.8 10.7904 10.2928 13.2976 7.2 13.2976C4.10721 13.2976 1.6 10.7904 1.6 7.69756C1.6 4.60476 4.10721 2.09756 7.2 2.09756C10.2928 2.09756 12.8 4.60476 12.8 7.69756Z" fill="#868686"/>
</svg>
