<svg width="16" height="21" viewBox="0 0 16 21" fill="none" xmlns="http://www.w3.org/2000/svg">
<path d="M3.19997 6.0823C3.19997 8.89043 5.34909 11.167 7.99997 11.167C10.6509 11.167 12.8 8.89043 12.8 6.0823C12.8 3.27417 10.6509 0.997559 7.99997 0.997559C5.34909 0.997559 3.19997 3.27417 3.19997 6.0823Z" fill="#333333"/>
<path d="M0.64 20.9975C0.64 20.9975 0 21.0128 0 20.3196V16.9297C0 16.2101 0.41056 15.5094 1.02272 14.8958C1.02272 14.8958 1.89472 14.1762 2.27296 13.9223C3.3264 13.2752 4.5392 12.8619 5.44 12.8619C5.44 12.8619 6.08992 12.8647 6.19232 13.2013C6.456 13.9894 7.16576 14.5538 8 14.5538C8.83232 14.5538 9.5408 13.9921 9.80576 13.2067C9.9408 12.8518 10.56 12.8619 10.56 12.8619C11.4608 12.8619 12.6733 13.2752 13.7264 13.9219C14.3354 14.3657 14.9773 14.8958 14.9773 14.8958C15.5894 15.5094 16 16.2101 16 16.9297V20.3196C16 21.0128 15.36 20.9975 15.36 20.9975H0.64Z" fill="#333333"/>
</svg>
