<svg id="Layer_1" enable-background="new 0 0 512 512" height="512" viewBox="0 0 512 512" width="512" xmlns="http://www.w3.org/2000/svg"><g><path d="m485.669 227.955 24.564-29.135c1.339-1.588 1.959-3.661 1.713-5.723l-11.411-95.625c-.347-2.909-2.357-5.35-5.146-6.25-2.788-.897-5.845-.092-7.827 2.066l-51.67 56.284-94.428 9.617c-4.121.419-7.121 4.101-6.702 8.221.42 4.121 4.108 7.125 8.221 6.702l97.265-9.906c1.828-.186 3.523-1.036 4.765-2.389l42.56-46.361 9.091 76.185-21.792 25.847-44.096 29.745c-2.216 1.496-3.47 4.058-3.289 6.726l3.427 50.503c.249 3.665 3.115 6.61 6.772 6.958l31.403 2.99 16.095 40.975-7.354 18.948-21.435-28.604c-1.667-2.224-4.424-3.344-7.172-2.911l-32.559 5.142c-2.684.424-4.928 2.266-5.868 4.815l-10.55 28.637-60.89 12.343c-4.06.823-6.683 4.781-5.86 8.841.721 3.557 3.849 6.011 7.343 6.011.494 0 .995-.049 1.498-.151l64.991-13.175c2.549-.517 4.648-2.317 5.547-4.758l10.476-28.434 23.75-3.751 26.83 35.803c1.634 2.18 4.32 3.305 7.022 2.933 2.7-.371 4.986-2.176 5.972-4.716l13.303-34.276c.682-1.756.678-3.703-.011-5.456l-18.85-47.988c-1.033-2.63-3.457-4.456-6.27-4.724l-29.647-2.823-2.704-39.839 41.381-27.913c.578-.388 1.096-.854 1.542-1.384z"/><path d="m306.455 400.426-24.859 5.039-59.215-62.126c-1.865-1.957-4.638-2.76-7.262-2.098l-42.965 10.827-19.263-23.708c-1.268-1.56-3.108-2.546-5.11-2.737l-71.976-6.855c-2.099-.201-4.193.495-5.756 1.917-1.563 1.421-2.455 3.436-2.455 5.549v15.794l-28.473 29.112-9.332-40.933 12.086-31.751c.729-1.916.643-4.047-.24-5.897-.882-1.851-2.484-3.259-4.432-3.897l-20.765-6.81 25.228-103.082 47.622-29.134 40.407 18.795c3.756 1.748 8.216.119 9.963-3.637s.119-8.216-3.637-9.963l-44.053-20.491c-2.277-1.059-4.935-.908-7.077.402l-53.689 32.846c-1.688 1.033-2.9 2.692-3.371 4.614l-27.615 112.83c-.932 3.807 1.225 7.689 4.948 8.91l19.895 6.524-10.098 26.527c-.527 1.383-.632 2.892-.303 4.335l12.894 56.556c.61 2.676 2.634 4.806 5.275 5.551 2.641.744 5.479-.012 7.399-1.974l40.23-41.131c1.371-1.401 2.138-3.284 2.138-5.244v-10.604l60.637 5.776 20.297 24.981c1.839 2.264 4.826 3.256 7.653 2.543l43.36-10.926 59.055 61.958c1.43 1.5 3.399 2.325 5.429 2.325.495 0 .994-.049 1.49-.149l28.919-5.862c4.06-.823 6.683-4.781 5.86-8.841-.821-4.06-4.775-6.687-8.839-5.861z"/><path d="m313.301 138.449c-36.814 0-54.708-4.294-73.652-8.841-17.69-4.246-35.943-8.626-69.654-9.193v-8.562c0-4.142-3.358-7.5-7.5-7.5s-7.5 3.358-7.5 7.5v173.564c0 4.142 3.358 7.5 7.5 7.5s7.5-3.358 7.5-7.5v-37.43c31.839.543 48.542 4.552 66.153 8.779 18.959 4.55 38.564 9.255 77.153 9.255 4.142 0 7.5-3.358 7.5-7.5v-112.572c0-4.143-3.358-7.5-7.5-7.5zm-77.153 5.744c17.69 4.246 35.943 8.626 69.653 9.193v22.844c-31.838-.543-48.541-4.552-66.152-8.779-17.69-4.246-35.943-8.626-69.654-9.193v-22.844c31.839.544 48.542 4.552 66.153 8.779zm3.501 97.987c-17.69-4.246-35.943-8.626-69.654-9.193v-22.748c31.838.543 48.541 4.552 66.152 8.778 2.474.594 4.947 1.187 7.463 1.771.57.132 1.14.195 1.701.195 3.411 0 6.496-2.342 7.3-5.807.936-4.035-1.576-8.065-5.611-9.001-2.478-.575-4.915-1.16-7.352-1.745-17.69-4.245-35.942-8.625-69.652-9.193v-21.979c31.839.543 48.542 4.552 66.153 8.779 17.69 4.246 35.943 8.626 69.653 9.193v21.978c-9.538-.165-18.206-.653-26.323-1.478-4.129-.42-7.801 2.582-8.221 6.702-.419 4.121 2.582 7.801 6.702 8.221 8.612.876 17.778 1.39 27.842 1.558v22.747c-31.841-.543-48.542-4.552-66.153-8.778z"/></g></svg>