<svg id="Layer_1" enable-background="new 0 0 511.981 511.981" height="512" viewBox="0 0 511.981 511.981" width="512" xmlns="http://www.w3.org/2000/svg" fill="#45b8bd"><g><g><path d="m495.502 236.263c0-13.943-5.405-26.767-15.219-36.109-9.477-9.021-22.134-13.988-35.641-13.988l-162.409.005c-16.464-17.908-21.958-44.092-13.27-65.004 13.031-31.362 12.298-56.688-2.45-84.684-11.503-21.836-40.53-39.068-60.886-36.162-12.265 1.752-20.815 10.203-23.461 23.186-.871 4.273-1.131 9.309-1.434 15.14-.838 16.181-1.987 38.342-16.159 65.492-8.273 15.85-11.13 32.729-13.651 47.623-4.637 27.396-7.396 43.662-34.698 46.645v-2.718c0-5.523-4.477-10-10-10h-79.745c-5.523 0-10 4.477-10 10v294.035c0 5.523 4.477 10 10 10h79.747c5.523 0 10-4.477 10-10v-2.805c18.363 1.452 36.906 6.572 56.363 11.959 23.27 6.443 47.331 13.105 71.701 13.105h112.143c30.679 0 55.501-16.171 66.4-43.259 6.207-15.427 6.479-31.339 1.319-43.197 7.605-5.464 13.936-13.05 18.544-22.471 8.322-17.01 9.151-36.271 2.793-51.103 10.897-8.542 17.625-20.821 20.692-32.648 3.592-13.852 2.572-27.342-2.22-37.645 18.45-7.413 31.541-25.096 31.541-45.397zm-50.079 29.099-50 1.087c-5.521.12-9.9 4.693-9.78 10.215.12 5.521 4.698 9.88 10.215 9.78l46.76-1.017c5.417 4.956 7.292 16.949 4.204 28.856-1.755 6.769-9.489 28.854-35.313 28.854-5.523 0-10 4.477-10 10s4.477 10 10 10c5.839 0 11.188-.757 16.062-2.124 3.48 9.364 2.561 22.216-2.839 33.252-2.771 5.665-8.338 14.068-18.253 18.42-.29.106-.577.227-.857.362-3.794 1.536-8.202 2.481-13.301 2.481-5.523 0-10 4.477-10 10s4.477 10 10 10c4.732 0 9.298-.551 13.651-1.624 2.543 6.26 2.738 16.342-1.692 27.353-3.717 9.238-15.819 30.724-47.845 30.724h-112.145c-21.652 0-43.37-6.014-66.363-12.38-20.081-5.56-40.752-11.273-61.701-12.737v-79.162c0-5.523-4.477-10-10-10s-10 4.477-10 10v92.021h-59.747v-274.035h59.747v92.014c0 5.523 4.477 10 10 10s10-4.477 10-10v-79.225c44.37-4.023 49.689-35.446 54.417-63.377 2.385-14.089 4.851-28.657 11.661-41.706 16.189-31.015 17.521-56.709 18.402-73.712.261-5.03.486-9.374 1.058-12.182 1.244-6.104 4.107-7.01 6.692-7.379 11.005-1.571 32.208 10.207 40.363 25.685 11.989 22.757 12.459 41.735 1.675 67.688-9.547 22.979-6.491 50.531 6.882 72.679h-12.329c-5.522 0-10 4.478-10 10s4.478 10 10 10l199.595-.006c8.349 0 16.109 3.009 21.85 8.474 5.81 5.53 9.009 13.209 9.009 21.623.001 15.684-13.492 28.737-30.078 29.098z"/><path d="m106.226 332.702c-5.523 0-10 4.48-10 10.003s4.477 10 10 10 10-4.477 10-10v-.007c0-5.523-4.477-9.996-10-9.996z"/></g></g></svg>