<svg xmlns="http://www.w3.org/2000/svg" viewBox="0 0 1195.93 369.62"><defs><style>.cls-1,.cls-3{fill:none;stroke:#d2d4d6;stroke-linecap:round;stroke-linejoin:round;stroke-width:3.67px;}.cls-2{fill:#00205c;}.cls-3{stroke-dasharray:18.36 36.72;}</style></defs><g id="Слой_2" data-name="Слой 2"><g id="_Layer_" data-name="&lt;Layer&gt;"><polyline class="cls-1" points="1001.09 172.62 1052.08 202.06 1139.2 151.44 1139.26 312.35 862.31 312.35 948.58 262.21 891.71 229.38"/><path class="cls-2" d="M578.77,359.12l1.92-1.06q2.79-1.65,2.25-3t-4.44-3.9l-34.89-22.37,35.65-19.82,46.39,24.13,5.16-2.87L651,340.68l-10.92,6.08-7-3.63-30.86,17.15,7,3.63-10.26,5.71Zm-10.06-29.94L592.3,344c3.44,2.05,5.13,3.78,5,5.16l15.21-8.45-33.36-17.36Z"/><path class="cls-2" d="M677.26,286.5q13.62,7.1,14.84,15.71t-10.52,15.14a46.56,46.56,0,0,1-11.89,4.51,65.61,65.61,0,0,1-14.12,1.71,64.41,64.41,0,0,1-15.65-1.79A66.36,66.36,0,0,1,624.26,316q-9.87-5.13-13.16-11.05t-.69-11q2.58-5.06,9.52-8.91a44.94,44.94,0,0,1,11.7-4.36A67,67,0,0,1,645.79,279a66.21,66.21,0,0,1,15.73,1.75A65.16,65.16,0,0,1,677.26,286.5Zm-39.5,22a34.5,34.5,0,0,0,15.72,4q8.13.11,13.45-2.85t4.82-7.3q-.42-4.39-8-8.34A34.71,34.71,0,0,0,648,290q-8.13-.11-13.31,2.77-5.46,3-5.08,7.36T637.76,308.46Z"/><path class="cls-2" d="M686.72,281.34q-7.41-3.85-11.11-8.21t-3.6-8.35a12.84,12.84,0,0,1,2.84-7.58,24.75,24.75,0,0,1,7.83-6.41,47.87,47.87,0,0,1,12.8-4.74,60.71,60.71,0,0,1,34,3l-13,7.22q-11.1-3-19.81,1.86-5.84,3.24-4.91,7.53t8.33,8.15a36.7,36.7,0,0,0,15,3.94q8.34.5,14.1-2.71c2.91-1.61,4.57-3.39,5-5.34s-.57-3.93-3-5.93l13-7.23q7.13,4.74,8.78,9.73a9.74,9.74,0,0,1-1,9,24.25,24.25,0,0,1-8.52,7.21,45.8,45.8,0,0,1-11.66,4.38,67.35,67.35,0,0,1-14.07,1.77,64.08,64.08,0,0,1-15.59-1.63A63.35,63.35,0,0,1,686.72,281.34Z"/><path class="cls-2" d="M741.48,233.39l-12.7,7.06-13.62-7.08L753.55,212l13.62,7.08-12.63,7,46,23.91-13.06,7.27Z"/><path class="cls-2" d="M846.32,216.6,827,227.35l4.45,5.5-14.1,7.84-2.12-1.11L780.86,196.2l6.2-3.45,81.52,17.16,2.13,1.1-14,7.76Zm-37.07-8.88,9.06,10.44L829,212.21Z"/><path class="cls-2" d="M876.78,162.93a13.47,13.47,0,0,1,4.48,3.6,6.08,6.08,0,0,1,1.54,4.14,30.56,30.56,0,0,1,10,.05,31.29,31.29,0,0,1,9.23,3q7.92,4.13,8.7,9.18t-7,9.37l-24.88,13.83-59.49-31,22.81-12.68a33.34,33.34,0,0,1,16.8-3.93A38.86,38.86,0,0,1,876.78,162.93Zm-22,7.12-8.35,4.64,10,5.18,8.34-4.63c1.23-.69,1.74-1.46,1.52-2.31a4.15,4.15,0,0,0-2.21-2.35,11.62,11.62,0,0,0-4.7-1.37A7.82,7.82,0,0,0,854.75,170.05Zm24.54,10.63L869,186.43l9.87,5.14,10.41-5.79q3.54-2-.61-4.61a10.37,10.37,0,0,0-4.7-1.37A8.28,8.28,0,0,0,879.29,180.68Z"/><path class="cls-2" d="M963.79,159.26l-34.27-5.68a64.13,64.13,0,0,1-6.17,3.71l22.73,11.82-13.51,7.51-59.58-31,13.51-7.51,23.32,12.13q6-3.31,6.59-4.67c.46-.93.15-2-.94-3.19A62.71,62.71,0,0,0,909,136.7q-4.8-3.93-3.4-8T917.44,121l10.47,5.45q-5.67,2.69-2,5.7,8.49,7.28,9.48,11.77l41.4,5.65,2.3,1.19Z"/><path class="cls-2" d="M1012.19,124.38l-19.34,10.75,4.46,5.5-14.1,7.84-2.13-1.11L946.73,104l6.2-3.45,81.52,17.16,2.13,1.1-13.95,7.76Zm-37.07-8.88,9.07,10.44,10.7-6Z"/><path class="cls-2" d="M1064,58.85a13.33,13.33,0,0,1,4.48,3.6,6.13,6.13,0,0,1,1.54,4.14,30.49,30.49,0,0,1,10,0,31,31,0,0,1,9.24,3c5.27,2.75,8.18,5.81,8.7,9.18s-1.8,6.49-7,9.36L1066.06,102l-59.49-31,22.81-12.68a33.43,33.43,0,0,1,16.79-3.94A38.88,38.88,0,0,1,1064,58.85ZM1042,66l-8.34,4.64,10,5.18,8.34-4.64c1.23-.68,1.74-1.45,1.52-2.3a4.14,4.14,0,0,0-2.22-2.35,11.52,11.52,0,0,0-4.69-1.37A7.86,7.86,0,0,0,1042,66ZM1066.5,76.6l-10.34,5.75,9.88,5.13,10.41-5.78q3.54-2-.62-4.61a11.08,11.08,0,0,0-6.52-1.41A9.72,9.72,0,0,0,1066.5,76.6Z"/><path class="cls-2" d="M1086.57,40.25c-1.38.71-2,1.59-1.94,2.64s1.06,2.06,2.93,3l-11.14,6.19q-9.26-4.65-10-9.79t7.11-9.5a30.59,30.59,0,0,1,11.73-3.54,40.36,40.36,0,0,1,12.63.53,33.85,33.85,0,0,1,11,4.4,18.79,18.79,0,0,1,7.23,7.61q.68.36,6.55,14.22L1137.28,48l13.79,7.18L1117.19,74l-3.32-1.73-12.36-25.74a15.57,15.57,0,0,0-3.59-4.65,11,11,0,0,0-5.33-2.53A9,9,0,0,0,1086.57,40.25Z"/><path class="cls-2" d="M1162,4.39a13.33,13.33,0,0,1,4.48,3.6,6.16,6.16,0,0,1,1.54,4.14,30.22,30.22,0,0,1,10,0,30.69,30.69,0,0,1,9.24,3q7.9,4.11,8.7,9.17t-7,9.37L1164,47.57l-59.49-30.95,22.81-12.69A33.33,33.33,0,0,1,1144.13,0,38.75,38.75,0,0,1,1162,4.39Zm-22,7.12-8.34,4.64,10,5.18,8.34-4.64c1.23-.68,1.73-1.45,1.52-2.31a4.16,4.16,0,0,0-2.22-2.34,11.53,11.53,0,0,0-4.7-1.37A7.84,7.84,0,0,0,1139.91,11.51Zm24.55,10.63-10.34,5.74L1164,33l10.4-5.79q3.55-2-.61-4.6a11.1,11.1,0,0,0-6.52-1.41A9.42,9.42,0,0,0,1164.46,22.14Z"/><path class="cls-3" d="M1.84,194.33,184.11,299.64a105.33,105.33,0,0,0,113.51-5.19h0l79.95-54.6,97.57-69C600.83,91.73,767,69.33,898.5,115.52"/><path class="cls-3" d="M485.28,296.56C593.45,217.71,677.05,180.3,766.73,188.12"/></g></g></svg>