<svg xmlns="http://www.w3.org/2000/svg" viewBox="0 0 1032.91 565.66"><defs><style>.cls-1,.cls-2{fill:none;stroke:#d2d4d6;stroke-linecap:round;stroke-linejoin:round;stroke-width:3.67px;}.cls-2{stroke-dasharray:18.36 36.72;}.cls-3{fill:#00205c;}</style></defs><g id="Слой_2" data-name="Слой 2"><g id="_Layer_" data-name="&lt;Layer&gt;"><polyline class="cls-1" points="652.41 284.54 756.63 344.71 843.75 294.09 843.8 455 566.85 455 653.12 404.87 548.9 344.69"/><line class="cls-2" x1="305.3" y1="79.54" x2="409.52" y2="139.71"/><path class="cls-3" d="M183.6,367.59l2-1.11q3-1.71,2.43-3.21T183.53,359l-35.81-24.55,37.71-20.63,47.74,26.64,5.47-3,20.76,11.59-11.55,6.32-7.19-4L208,369.24l7.18,4-10.85,5.94Zm-9.72-32.25,24.23,16.28c3.53,2.26,5.24,4.14,5.12,5.62l16.08-8.8L185,329.28Z"/><path class="cls-3" d="M288.23,291.47q14,7.83,15.07,17.08T291.93,324.6a48.47,48.47,0,0,1-12.52,4.62,66.28,66.28,0,0,1-14.77,1.59,64.63,64.63,0,0,1-16.28-2.18,68,68,0,0,1-16.19-6.49q-10.15-5.67-13.42-12.07t-.44-11.76q2.82-5.37,10.16-9.38a46.58,46.58,0,0,1,12.33-4.47,68,68,0,0,1,14.81-1.57,69,69,0,0,1,32.62,8.58Zm-41.77,22.85a35,35,0,0,0,16.28,4.6q8.49.25,14.11-2.82t5.22-7.75q-.33-4.71-8.12-9.06a35.21,35.21,0,0,0-16.29-4.6q-8.48-.24-14,2.74-5.78,3.17-5.5,7.81T246.46,314.32Z"/><path class="cls-3" d="M298.24,286.1q-7.62-4.26-11.38-9t-3.53-9a14.08,14.08,0,0,1,3.16-8.08,26.35,26.35,0,0,1,8.33-6.73,49.13,49.13,0,0,1,13.49-4.86,61.74,61.74,0,0,1,35.42,3.76L330,259.73q-11.5-3.39-20.71,1.64-6.16,3.38-5.32,8t8.48,8.87A37.1,37.1,0,0,0,328,282.71q8.7.68,14.79-2.66,4.61-2.52,5.35-5.64t-3-6.41l13.75-7.52q7.31,5.2,8.89,10.58a10.7,10.7,0,0,1-1.31,9.58,25.83,25.83,0,0,1-9.07,7.57,47.47,47.47,0,0,1-12.28,4.5,69.79,69.79,0,0,1-14.73,1.66,66.94,66.94,0,0,1-32.13-8.27Z"/><path class="cls-3" d="M356.61,235.67,343.18,243l-14-7.82L369.77,213l14,7.82-13.35,7.3,47.31,26.4-13.82,7.56Z"/><path class="cls-3" d="M466.41,219.47,446,230.66l4.5,6-14.92,8.16-2.19-1.23L398.67,196.5l6.55-3.59,84.58,19.76L492,213.9,477.24,222ZM428,209.32l9.19,11.34,11.32-6.2Z"/><path class="cls-3" d="M499.6,162.49a14.1,14.1,0,0,1,4.58,3.93,6.61,6.61,0,0,1,1.49,4.46,32.35,32.35,0,0,1,19.94,3.62q8.14,4.55,8.83,10t-7.51,9.92l-26.31,14.39-61.24-34.17,24.13-13.2a34.23,34.23,0,0,1,17.62-3.93A39.43,39.43,0,0,1,499.6,162.49Zm-23.18,7.26-8.82,4.82,10.25,5.72,8.82-4.82c1.3-.72,1.85-1.53,1.65-2.45a4.37,4.37,0,0,0-2.25-2.55,11.74,11.74,0,0,0-4.86-1.55A8.06,8.06,0,0,0,476.42,169.75Zm25.33,11.8-10.93,6L501,193.2l11-6q3.75-2.06-.52-5a10.46,10.46,0,0,0-4.86-1.55A8.44,8.44,0,0,0,501.75,181.55Z"/><path class="cls-3" d="M590.45,160l-35.6-6.67a65.81,65.81,0,0,1-6.53,3.86l23.39,13.06-14.29,7.81-61.33-34.22,14.29-7.81,24,13.39c4.21-2.31,6.55-3.94,7-4.89s.2-2.13-.9-3.43a63.83,63.83,0,0,0-6.62-6.21q-4.9-4.29-3.34-8.63t12.58-8l10.77,6q-6,2.79-2.25,6.08,8.65,8,9.58,12.77l43,6.76,2.37,1.32Z"/><path class="cls-3" d="M641.85,123.49l-20.45,11.2,4.5,6L611,148.8l-2.19-1.22L574.1,100.53l6.56-3.59,84.58,19.76,2.19,1.22L652.68,126Zm-38.44-10.14,9.19,11.34,11.32-6.2Z"/><path class="cls-3" d="M94.35,547.6l-35.6-6.67a63.36,63.36,0,0,1-6.53,3.86l23.4,13.06-14.29,7.81L0,531.44l14.29-7.81,24,13.39c4.22-2.3,6.55-3.94,7-4.89s.21-2.13-.89-3.43a65.36,65.36,0,0,0-6.63-6.21q-4.91-4.28-3.33-8.63t12.57-8l10.78,6q-6,2.78-2.26,6.07,8.67,8,9.58,12.77l43,6.76,2.37,1.32Z"/><path class="cls-3" d="M127.84,515l6.95-3.8,13,7.23L119.57,533.8l-13-7.23,7-3.8L78.16,503l-6.32,3.46-13-7.23L85.81,484.5l13,7.24-6.32,3.46Z"/><path class="cls-3" d="M206.78,486.09l-14.28,7.82L168,480.22,151,489.49l24.53,13.69L161.27,511,99.94,476.77,114.23,469l22.16,12.37,16.94-9.27-22.16-12.37,14.29-7.82Z"/><path class="cls-3" d="M260.89,456.5,222.4,477.55l-61.33-34.22,14.29-7.82,46.87,26.16L238,453l-46.87-26.15L205.5,419l47.74,26.64,5.55-3,20.5,11.44-11.48,6.28Z"/><path class="cls-3" d="M258.67,389.94l13.93,7.78-19.84,10.84,8.77,4.89,18.27-10,14,7.82-18.27,10,10,5.57,20.54-11.23,14.63,8.16-34.83,19.05-61.32-34.22Z"/><path class="cls-3" d="M333.14,369.73a13.76,13.76,0,0,1,4.58,3.93,6.6,6.6,0,0,1,1.49,4.46,30.79,30.79,0,0,1,10.39.23,31.31,31.31,0,0,1,9.55,3.39q8.14,4.54,8.84,10t-7.51,9.91L334.17,416l-61.25-34.18,24.13-13.2a34.15,34.15,0,0,1,17.62-3.92A39.4,39.4,0,0,1,333.14,369.73ZM310,377l-8.83,4.83,10.25,5.72,8.83-4.83c1.3-.71,1.85-1.52,1.64-2.45a4.35,4.35,0,0,0-2.25-2.54,11.7,11.7,0,0,0-4.86-1.55A8,8,0,0,0,310,377Zm25.32,11.81-10.93,6,10.16,5.68,11-6q3.75-2-.51-4.94a10.54,10.54,0,0,0-4.87-1.55A8.36,8.36,0,0,0,335.29,388.79Z"/><path class="cls-3" d="M392.29,349.67l3.07,33.46-4.22,2.31-61.5-34.32,14.28-7.82,30,16.72-1.73-32.45,4.45-2.44L438.2,359.5l-14.29,7.82Z"/><path class="cls-3" d="M454,351.06l-61.5-34.32,14.29-7.82,30,16.72L435,293.18l4.45-2.43,61.59,34.37-14.29,7.81-31.62-17.64,3.07,33.46Zm-51.9-47.17a25.33,25.33,0,0,0,13.08-3.14q6.24-3.42,5.93-7.26c-.21-2.57-2.58-5.19-7.1-7.89q-5.92,2.47-8.6,3.74,4,2.94-.9,5.63a9.9,9.9,0,0,1-9.72.18l-6.85,4.72A31.78,31.78,0,0,0,402.09,303.89Z"/><path class="cls-3" d="M505.85,288.71q-7.64-4.26-11.38-9t-3.54-9a14.16,14.16,0,0,1,3.17-8.08,26.35,26.35,0,0,1,8.33-6.73,49.18,49.18,0,0,1,13.48-4.86,61.54,61.54,0,0,1,35.43,3.76l-13.75,7.52Q526.1,259,516.89,264q-6.17,3.38-5.32,8t8.48,8.87a37.1,37.1,0,0,0,15.52,4.48q8.7.68,14.78-2.66c3.08-1.68,4.86-3.56,5.36-5.64s-.49-4.22-3-6.41l13.74-7.52q7.32,5.21,8.9,10.58a10.7,10.7,0,0,1-1.31,9.58,25.83,25.83,0,0,1-9.07,7.57,47,47,0,0,1-12.29,4.49A69,69,0,0,1,538,297a66.94,66.94,0,0,1-32.13-8.27Z"/><path class="cls-3" d="M541.15,235.42l45.44-24.86,61.33,34.22-14.29,7.82-46.87-26.16-16.87,9.23,46.87,26.15-14.29,7.82Z"/><path class="cls-3" d="M686,190q14,7.83,15.06,17.08t-11.37,16a48,48,0,0,1-12.51,4.62,67,67,0,0,1-14.78,1.6,65.48,65.48,0,0,1-16.27-2.18A67.79,67.79,0,0,1,630,220.71q-10.17-5.67-13.43-12.07t-.44-11.76q2.82-5.37,10.16-9.39A46.93,46.93,0,0,1,638.6,183a66.92,66.92,0,0,1,31.17.56A66.38,66.38,0,0,1,686,190Zm-41.77,22.85a35,35,0,0,0,16.28,4.6c5.65.17,10.36-.78,14.1-2.83s5.44-4.6,5.22-7.74-2.92-6.16-8.12-9.06a35.09,35.09,0,0,0-16.28-4.6q-8.49-.25-14,2.74-5.79,3.17-5.5,7.8T644.27,212.89Z"/><path class="cls-3" d="M804.46,159.14,788.3,168l-35.44-6.66c-2.06,1.38-3.47,2.29-4.25,2.71l23.21,13-14.13,7.73-23.22-13c-.83.46-2.45,1.22-4.88,2.29l11.63,19.68-16.09,8.8-2.36-1.32L711,177.38q-7.8-.39-22.88-5.79-6.52-2.34-11.14,1.64l-10.77-6q12.71-11.81,30.26-4.94,11.54,4.53,17.48,3.8a17,17,0,0,0,6.28-2.28l-23.83-13.29,14.13-7.73,23.83,13.29q3.82-2.08,4.26-3.49a4.1,4.1,0,0,0-.6-3.4A12.74,12.74,0,0,0,735.5,146c-.91-.82-2.12-1.86-3.62-3.1q-12.39-9.67,9.16-16.63l10.78,6q-7.17,2.47-3.08,6.14,9.63,8.39,10.32,12.66l43,6.75Z"/><path class="cls-3" d="M817,117.32l3.07,33.47-4.21,2.3-61.51-34.32L768.66,111l30,16.72L796.9,95.22l4.45-2.43,61.59,34.36L848.65,135Z"/><path class="cls-3" d="M877.26,72.08A13.82,13.82,0,0,1,881.83,76a6.56,6.56,0,0,1,1.5,4.46,30.73,30.73,0,0,1,10.38.23,31.22,31.22,0,0,1,9.55,3.39q8.16,4.55,8.84,10T904.59,104l-26.31,14.39L817,84.2,841.17,71a34.13,34.13,0,0,1,17.62-3.92A39.31,39.31,0,0,1,877.26,72.08Zm-23.18,7.25-8.82,4.83,10.25,5.72,8.82-4.83c1.3-.71,1.85-1.52,1.64-2.45a4.3,4.3,0,0,0-2.24-2.54,11.6,11.6,0,0,0-4.87-1.55A8,8,0,0,0,854.08,79.33Zm25.33,11.8-10.93,6,10.16,5.67,11-6q3.75-2-.52-4.94a10.5,10.5,0,0,0-4.86-1.55A8.44,8.44,0,0,0,879.41,91.13Z"/><path class="cls-3" d="M959.16,66.1,938.7,77.29l4.5,6-14.91,8.16-2.19-1.23L891.41,43.13,898,39.54,982.55,59.3l2.19,1.23L970,68.6ZM920.72,56l9.18,11.34,11.32-6.2Z"/><path class="cls-3" d="M1032.91,34.17l-14.13,7.73L997.4,30q-13.44,9.57-27,9.27T938.26,28.64l-9.38-5.23,14.37-7.86,9.38,5.23c2.16,1.2,4,2.17,5.41,2.89s3,1.4,4.51,2a17,17,0,0,0,4.08,1.2,22.2,22.2,0,0,0,3.7.21,11.74,11.74,0,0,0,3.8-.73,29.24,29.24,0,0,0,3.94-1.81,49.41,49.41,0,0,0,4.53-2.87l-25.06-14L971.67,0Z"/></g></g></svg>