<svg xmlns="http://www.w3.org/2000/svg" viewBox="0 0 1168.33 666.63"><defs><style>.cls-1,.cls-2{fill:none;stroke:#d2d4d6;stroke-linecap:round;stroke-linejoin:round;stroke-width:3.67px;}.cls-1{stroke-dasharray:26.42 52.83;}.cls-3{fill:#00205c;}</style></defs><g id="Слой_2" data-name="Слой 2"><g id="_Layer_" data-name="&lt;Layer&gt;"><line class="cls-1" x1="274.45" y1="419.55" x2="423.39" y2="333"/><polyline class="cls-2" points="424.39 506.12 275.45 592.67 400.37 664.8 1.84 664.8 1.84 434.7 125.51 506.11 274.45 419.55"/><line class="cls-1" x1="573.32" y1="419.57" x2="424.39" y2="506.12"/><path class="cls-3" d="M95.23,581.77l29.54,18.36q9.35,5.85,11.62,9.9t-1.84,7.87q-4.1,3.83-14.88,8l-12.79-7.09c3.88-1.78,5.82-3.29,5.82-4.51s-1.74-3-5.23-5.22L64.3,581.24l45.32-25,69.81,37.07-16.7,9.22-53.55-28.43Z"/><path class="cls-3" d="M225.36,530.11q16,8.48,16.86,18.94t-13.69,18.52a59.81,59.81,0,0,1-14.63,5.6,80.12,80.12,0,0,1-17.14,2.22,74.83,74.83,0,0,1-18.76-2,75.75,75.75,0,0,1-18.52-6.9q-11.56-6.15-15.13-13.3t-.12-13.33q3.45-6.18,12.08-10.94a57.68,57.68,0,0,1,14.4-5.41,81.5,81.5,0,0,1,17.2-2.2,77.72,77.72,0,0,1,18.85,2A73.87,73.87,0,0,1,225.36,530.11Zm-49.09,27.11A39.73,39.73,0,0,0,195,562q9.79,0,16.41-3.61t6.3-8.93q-.22-5.34-9.1-10a39.7,39.7,0,0,0-18.68-4.75q-9.81,0-16.23,3.51-6.79,3.75-6.63,9T176.27,557.22Z"/><path class="cls-3" d="M261.37,489.7l-23.3,12.87,53.85,28.59-16.7,9.23-69.81-37.07,40-22.09Z"/><path class="cls-3" d="M335.79,491l8.17-4.5,14.75,7.83-33.12,18.29-14.76-7.83,8.17-4.51-40.29-21.39-7.43,4.1-14.76-7.84,31.65-17.48,14.76,7.84-7.43,4.1Z"/><path class="cls-3" d="M336.48,468.86q-8.69-4.61-12.86-9.86t-3.79-10.11a16.69,16.69,0,0,1,3.93-9.24,32.78,32.78,0,0,1,9.86-7.88,61,61,0,0,1,15.76-5.89,69.58,69.58,0,0,1,19.79-1.42,66,66,0,0,1,21.07,4.67l-16.15,8.92q-13.18-3.53-24,2.46c-4.83,2.66-7,5.74-6.42,9.21s3.73,6.75,9.51,9.82A42.12,42.12,0,0,0,371,464.18q10,.51,17.19-3.45,5.41-3,6.39-6.55T391.33,447l16.15-8.91q8.28,5.69,9.94,11.73a12.24,12.24,0,0,1-1.84,10.9q-3.51,4.86-10.75,8.85A58.39,58.39,0,0,1,390.47,475a83.76,83.76,0,0,1-17.09,2.31,75.43,75.43,0,0,1-18.69-1.83A71,71,0,0,1,336.48,468.86Z"/><path class="cls-3" d="M405.7,410l-15.78,8.72-16-8.48,47.71-26.34,16,8.47L421.94,401l53.85,28.6-16.24,9Z"/><path class="cls-3" d="M507.41,373.18l2.44,37.87-5,2.73-70-37.17,16.79-9.27,34.11,18.11-.92-36.76,5.23-2.89L560.2,383l-16.79,9.27Z"/><path class="cls-3" d="M624.7,347.41l-16.6,9.17-24.34-12.92q-15.87,11.25-31.6,11.29t-36.78-11.12l-10.67-5.67,16.89-9.32,10.67,5.67c2.46,1.3,4.51,2.34,6.17,3.12s3.37,1.51,5.14,2.19a19.78,19.78,0,0,0,4.69,1.24,25.89,25.89,0,0,0,4.26.13,14.44,14.44,0,0,0,4.43-.93,35.4,35.4,0,0,0,4.61-2.17,58.73,58.73,0,0,0,5.34-3.38l-28.52-15.14L555,310.4Z"/><path class="cls-3" d="M696.64,307.69,679.85,317l-27.93-14.82-19.91,11L659.93,328l-16.79,9.27-69.81-37.07,16.8-9.27,25.23,13.4,19.91-11L610,279.9l16.79-9.27Z"/><path class="cls-3" d="M717.7,257.06l2.44,37.87-5,2.73-70-37.17L662,251.22l34.1,18.11-.91-36.76,5.23-2.89,70.11,37.23-16.8,9.27Z"/><path class="cls-3" d="M789,256.88l-70-37.17,16.79-9.27,34.1,18.11L769,191.79l5.23-2.89,70.1,37.22-16.79,9.27-36-19.11L794,254.14Zm-58.47-52a30.75,30.75,0,0,0,15.24-3.93q7.34-4.05,7.1-8.4T745,183.79q-6.94,3-10.08,4.48,4.54,3.22-1.23,6.41a11.66,11.66,0,0,1-11.25.48l-8.09,5.55A35.81,35.81,0,0,0,730.57,204.86Z"/><path class="cls-3" d="M934.45,176.37l-45.23,25-69.81-37.07L836.2,155l53.36,28.33,18.53-10.23-53.35-28.33,16.88-9.32L926,164.31l6.51-3.59,23.34,12.39-13.49,7.44Z"/><path class="cls-3" d="M934.1,101,950,109.37l-23.31,12.87,10,5.3,21.47-11.86,15.95,8.47L952.58,136l11.37,6,24.13-13.33,16.66,8.84-40.93,22.6L894,123.1Z"/><path class="cls-3" d="M1074.38,99.11l-16.8,9.27-27.92-14.82-19.91,11,27.92,14.83-16.79,9.27L951.07,91.58l16.79-9.27,25.24,13.4,19.91-11L987.78,71.32l16.79-9.27Z"/><path class="cls-3" d="M1049.52,54.51l-15.79,8.71-16-8.47,47.71-26.34,16,8.47-15.69,8.66,53.85,28.59-16.24,9Z"/><path class="cls-3" d="M1165.29,48.8l-16.79,9.27L1078.69,21,1107,5.35q10.92-6,24.9-5.26t24.36,6.47q10.38,5.51,11.85,12.9t-9.35,13.37l-11.56,6.39ZM1131.11,31,1143,24.41c2.07-1.14,2.75-2.61,2-4.4s-2.48-3.4-5.2-4.85A24.37,24.37,0,0,0,1131,12.5a13.28,13.28,0,0,0-8.08,1.27l-11.83,6.54Z"/></g></g></svg>