<svg xmlns="http://www.w3.org/2000/svg" viewBox="0 0 980.53 566.42"><defs><style>.cls-1{fill:none;stroke:#d2d4d6;stroke-linecap:round;stroke-linejoin:round;stroke-width:3.67px;}.cls-2{fill:#00205c;}</style></defs><g id="Слой_2" data-name="Слой 2"><g id="_Layer_" data-name="&lt;Layer&gt;"><polyline class="cls-1" points="587.63 304.63 637.43 333.39 724.77 282.63 724.82 443.95 447.17 443.95 533.66 393.69 481.46 363.55"/><path class="cls-2" d="M19.81,533.63,7,541Q-1,535.82.14,530t9.11-10.35A32.68,32.68,0,0,1,28,515.36q10,.64,16.84,5.39a16.28,16.28,0,0,1,4.71,4.88,7.26,7.26,0,0,1,1.16,5.44,31.55,31.55,0,0,1,22.53,5.36q8.07,5.6,7.57,12.35t-11,12.76a35.85,35.85,0,0,1-20,4.83,38.55,38.55,0,0,1-20.23-7.24l12.67-7.23a14.23,14.23,0,0,0,7.56,2.52,13.28,13.28,0,0,0,7.42-1.6q3.42-2,3.38-4.4t-2.79-4.36A12.78,12.78,0,0,0,51.25,542,12.65,12.65,0,0,0,44,543.64l-4.31,2.45L27.5,537.66l4.15-2.36c1.69-1,2.5-2.09,2.4-3.37a4.54,4.54,0,0,0-2.23-3.36,9.82,9.82,0,0,0-5.34-1.74A9.58,9.58,0,0,0,21.24,528a5.34,5.34,0,0,0-2.63,2.81C18.24,531.88,18.64,532.82,19.81,533.63Z"/><path class="cls-2" d="M128.46,517.53l-20.88,11.91,4,6.85L96.41,545l-2.08-1.44-31.18-54,6.69-3.82,82.1,24.93L154,512.1,139,520.69ZM91.22,504.89l8.32,13,11.56-6.6Z"/><path class="cls-2" d="M164.81,454.59a13.79,13.79,0,0,1,4.26,4.57,8,8,0,0,1,1.19,5.06,26.57,26.57,0,0,1,10.22.59,27.94,27.94,0,0,1,9.2,4.12q7.74,5.37,8.07,11.49t-8,10.9l-26.85,15.32-58.18-40.37,24.63-14a30.89,30.89,0,0,1,17.62-3.84A34.62,34.62,0,0,1,164.81,454.59ZM141.51,462l-9,5.14,9.74,6.75,9-5.14c1.33-.75,1.92-1.65,1.78-2.69a4.62,4.62,0,0,0-2.05-2.94,10.46,10.46,0,0,0-4.7-1.9A7.17,7.17,0,0,0,141.51,462Zm24.2,14.07-11.16,6.37,9.66,6.7,11.24-6.41c2.55-1.46,2.48-3.31-.2-5.58a9.27,9.27,0,0,0-4.69-1.89A7.56,7.56,0,0,0,165.71,476.07Z"/><path class="cls-2" d="M246,422.83q13.32,9.24,13.76,19.67t-12.24,17.66A45.28,45.28,0,0,1,234.84,465a58.58,58.58,0,0,1-14.66,1.31,56,56,0,0,1-15.91-3,60.77,60.77,0,0,1-15.54-7.81q-9.64-6.71-12.46-14t.32-13.23q3.12-5.94,10.62-10.21a43.81,43.81,0,0,1,12.43-4.62,60,60,0,0,1,14.71-1.29,57.76,57.76,0,0,1,16,2.93A59.24,59.24,0,0,1,246,422.83Zm-42.63,24.32a30.71,30.71,0,0,0,15.75,5.69q8.34.56,14.08-2.72t5.64-8.53c0-3.53-2.48-7-7.42-10.44a30.85,30.85,0,0,0-15.76-5.7c-5.56-.36-10.2.51-13.92,2.64q-5.9,3.36-5.92,8.58T203.32,447.15Z"/><path class="cls-2" d="M271.5,428.77l2.08-1.18q3-1.83,2.6-3.54c-.28-1.13-1.68-2.78-4.19-4.92l-33.73-28.74,38.49-22,45.36,31.47,5.58-3.18,19.72,13.69-11.79,6.72-6.83-4.73-33.31,19,6.83,4.74-11.08,6.32ZM264,392.22l22.83,19.07c3.34,2.66,4.91,4.82,4.69,6.48l16.42-9.36-32.62-22.64Z"/><path class="cls-2" d="M358,357.77l.89,37.7-4.31,2.45-58.42-40.54,14.58-8.32,28.47,19.75.37-36.52,4.54-2.59,58.51,40.6L388,378.62Z"/><path class="cls-2" d="M443.27,295.74a14,14,0,0,1,4.26,4.57,8,8,0,0,1,1.18,5.06,26.57,26.57,0,0,1,10.22.59,27.85,27.85,0,0,1,9.2,4.12q7.74,5.37,8.07,11.49t-8,10.9l-26.85,15.32-58.18-40.37,24.63-14.05a30.89,30.89,0,0,1,17.62-3.84A34.65,34.65,0,0,1,443.27,295.74ZM420,303.15l-9,5.14,9.74,6.75,9-5.14c1.33-.75,1.92-1.65,1.78-2.69a4.62,4.62,0,0,0-2.05-2.94,10.29,10.29,0,0,0-4.7-1.89A7.11,7.11,0,0,0,420,303.15Zm24.2,14.07L433,323.59l9.65,6.7,11.24-6.41c2.55-1.46,2.48-3.31-.19-5.58a9.3,9.3,0,0,0-4.7-1.89A7.56,7.56,0,0,0,444.16,317.22Z"/><path class="cls-2" d="M502.85,275.12l.88,37.69-4.3,2.46L441,274.73l14.59-8.32,28.46,19.75.38-36.52,4.54-2.59,58.5,40.6L532.89,296Z"/><path class="cls-2" d="M578,270.13l-14.58,8.32L505.15,238l24.63-14a33.53,33.53,0,0,1,21.35-3.93,44.1,44.1,0,0,1,20.54,7.7q8.66,6,9.68,13.42T573,254l-10,5.73Zm-28.53-19.5,10.28-5.86c1.8-1,2.42-2.45,1.84-4.26a10.27,10.27,0,0,0-4.27-5.09,19.33,19.33,0,0,0-7.38-3.1,9.79,9.79,0,0,0-6.92.84L532.73,239Z"/><path class="cls-2" d="M645,195.19q13.32,9.24,13.75,19.67T646.5,232.52a45,45,0,0,1-12.63,4.79,58.12,58.12,0,0,1-14.66,1.31,56,56,0,0,1-15.91-3,60.93,60.93,0,0,1-15.54-7.81q-9.66-6.71-12.46-14t.32-13.23q3.12-5.94,10.62-10.22a43.69,43.69,0,0,1,12.43-4.62,59.52,59.52,0,0,1,14.7-1.28,57.76,57.76,0,0,1,16,2.93A59.2,59.2,0,0,1,645,195.19Zm-42.64,24.33a30.92,30.92,0,0,0,15.76,5.69q8.34.56,14.08-2.72t5.64-8.53q0-5.31-7.42-10.45a30.92,30.92,0,0,0-15.76-5.69c-5.56-.37-10.21.51-13.92,2.63q-5.91,3.36-5.93,8.59T602.34,219.52Z"/><path class="cls-2" d="M656.42,168.67l7.58,5.26,10.28-5.87a35.41,35.41,0,0,1,19.94-4.95,34.93,34.93,0,0,1,18.29,6.19q8.15,5.65,8.42,12.45T711.64,194L687.1,208l-58.26-40.43,40.09-22.87,13.31,9.24Zm30.43,8.22-10.2,5.81,11.4,7.92,10.2-5.82q2.79-1.59,2.64-3.66a5,5,0,0,0-2.49-3.69,11,11,0,0,0-5.59-1.92A10.22,10.22,0,0,0,686.85,176.89Z"/><path class="cls-2" d="M790.62,148.94,776,157.26l-23.31-16.17L735.44,151l23.3,16.17-14.58,8.32L685.9,135l14.59-8.32,21,14.61,17.3-9.87-21.06-14.61,14.58-8.32Z"/><path class="cls-2" d="M810.14,99.81l.89,37.7L806.72,140,748.3,99.42l14.59-8.32,28.46,19.75.37-36.52,4.55-2.59,58.5,40.6-14.58,8.32Z"/><path class="cls-2" d="M904.42,84l-34.66-8.64a68,68,0,0,1-6.69,4.13l22.22,15.42-14.58,8.32L812.45,62.82,827,54.5l22.8,15.83q6.46-3.69,7.21-5.28t-.66-3.88A65.21,65.21,0,0,0,850.26,54q-4.56-5-2.73-9.81t12.9-8.62l10.24,7.1q-6.07,2.94-2.61,6.75,8,9.21,8.62,14.65l42,9,2.25,1.56Z"/><path class="cls-2" d="M935.9,28.07l.88,37.7-4.3,2.45L874.06,27.68l14.58-8.32L917.1,39.11l.38-36.52L922,0l58.51,40.6L966,48.92Z"/></g></g></svg>