<svg width="21" height="17" viewBox="0 0 21 17" fill="none" xmlns="http://www.w3.org/2000/svg">
<path d="M20.9961 1.89639C20.2606 2.21719 19.4705 2.43395 18.6399 2.53192C19.4872 2.03252 20.1373 1.24006 20.4438 0.29674C19.6511 0.759729 18.7729 1.09613 17.8383 1.27647C17.0896 0.492687 16.0238 0.00195312 14.8435 0.00195312C12.5781 0.00195312 10.7407 1.81056 10.7407 4.04227C10.7407 4.35787 10.7776 4.66479 10.8464 4.96131C7.43492 4.79224 4.41281 3.18392 2.38868 0.740655C2.03635 1.3389 1.83376 2.03252 1.83376 2.77122C1.83376 4.17232 2.55868 5.40956 3.65883 6.13352C2.98588 6.11185 2.35344 5.93064 1.80029 5.62805V5.68007C1.80029 7.63694 3.21401 9.26954 5.09193 9.64062C4.74664 9.73253 4.38463 9.78108 4.01116 9.78108C3.74691 9.78108 3.48883 9.7568 3.23867 9.70999C3.761 11.314 5.27602 12.4827 7.07202 12.5139C5.66711 13.5977 3.89753 14.2436 1.97557 14.2436C1.64438 14.2436 1.31759 14.2246 0.996094 14.1873C2.81235 15.3343 4.96861 16.002 7.28518 16.002C14.8338 16.002 18.9605 9.84784 18.9605 4.51046C18.9605 4.33706 18.9561 4.16192 18.9482 3.98851C19.7497 3.41801 20.4456 2.70793 20.9943 1.89899L20.9961 1.89639Z" fill="#789384"/>
</svg>
