<?xml version="1.0" encoding="UTF-8"?>
<svg id="SVGDoc" width="32" height="32" xmlns="http://www.w3.org/2000/svg" version="1.1" xmlns:xlink="http://www.w3.org/1999/xlink" xmlns:avocode="https://avocode.com/" viewBox="0 0 32 32"><defs></defs><desc>Generated with Avocode.</desc><g><g><title>Shape</title><path d="M1.87541,9.375h3.86501v3.74714h-1.05976c-0.43881,0 -0.81868,0.30568 -0.91317,0.73504l-1.89208,8.59304zM9.13712,5.63503h-1.14844l0.57422,-1.73292zM13.24045,9.375v3.75h-1.86503v-3.75zM17.93765,5.625c0,1.03394 -0.84106,1.875 -1.875,1.875c-1.03369,0 -1.875,-0.84106 -1.875,-1.875c0,-0.59741 0.8811,-1.99292 1.87476,-3.23535c0.99633,1.24927 1.87524,2.65454 1.87524,3.23535zM19.09121,13.125h-0.21606v-3.75h2.02026zM26.31534,2.43433l3.37915,1.62725l-0.81274,1.69128l-1.6897,-0.81375c-0.46655,-0.22457 -1.02686,-0.0281 -1.25122,0.43889c-0.22461,0.46699 -0.02832,1.02757 0.43823,1.25239l1.6897,0.8135l-0.81299,1.69128l-1.68945,-0.81375c-0.46656,-0.22457 -1.02686,-0.0281 -1.25147,0.43889c-0.22436,0.46699 -0.02807,1.02781 0.43848,1.25239l1.6897,0.81375l-1.10987,2.30855h-4.16113zM15.12518,9.25635c0.29821,0.07739 0.61074,0.11865 0.93251,0.11865c0.32201,0 0.63455,-0.04126 0.93251,-0.11865v3.86865h-1.86503zM7.62542,7.5h1.86503v5.625h-1.86503zM26.56828,30.11476h-24.46363l3.33763,-15.11549h24.46363zM0.93862,31.99951c0.0066,0 26.37403,-0.00024 26.37403,-0.00024c0.43994,0 0.8208,-0.30542 0.91553,-0.73511l3.75,-16.99976c0.06127,-0.27758 -0.0066,-0.56762 -0.18482,-0.78906c-0.17798,-0.22143 -0.44653,-0.35034 -0.73071,-0.35034h-3.64868l4.37671,-9.09692c0.22436,-0.46656 0.02807,-1.02662 -0.43848,-1.25122l-5.06885,-2.43873c-0.22412,-0.10766 -0.48169,-0.12207 -0.71631,-0.03979c-0.23462,0.08203 -0.427,0.25415 -0.53491,0.47827l-3.23462,6.72339h-2.48926c0.32007,-0.552 0.5044,-1.19214 0.5044,-1.875c0,-1.62012 -2.0459,-4.19238 -3.05225,-5.31372c-0.17773,-0.198 -0.43139,-0.31128 -0.69775,-0.31128c-0.26612,0 -0.51978,0.11328 -0.69776,0.31128c-1.01489,1.1311 -3.052,3.68652 -3.052,5.31372c0,0.68286 0.18408,1.323 0.5044,1.875h-1.4419v-0.9375c0,-0.09863 -0.01928,-0.20923 -0.04834,-0.29639l-1.875,-5.625c-0.12744,-0.38281 -0.48584,-0.64111 -0.88916,-0.64111c-0.40356,0 -0.76172,0.2583 -0.8894,0.64111l-1.875,5.625c-0.00073,0.0022 -0.00122,0.0044 -0.00196,0.00684c-0.02783,0.08545 -0.04614,0.19214 -0.04614,0.28955v0.9375h-4.8125c-0.51782,0 -0.9375,0.41968 -0.9375,0.9375v22.60645c-0.01074,0.51928 0.40772,0.95556 0.93823,0.95556z" fill="#c0bca1" fill-opacity="1"></path></g><g><title>Shape</title><path d="M22.622,26.37976h-5.619v-1.875h5.619zM16.0675,22.63c-0.51758,0 -0.9375,0.41968 -0.9375,0.93726v3.75c0,0.51782 0.41992,0.9375 0.9375,0.9375h7.49999c0.51782,0 0.9375,-0.41968 0.9375,-0.9375v-3.75c0,-0.51758 -0.41968,-0.93726 -0.9375,-0.93726z" fill="#c0bca1" fill-opacity="1"></path></g></g></svg>