<?xml version="1.0" encoding="UTF-8"?>
<svg id="SVGDoc" width="32" height="34" xmlns="http://www.w3.org/2000/svg" version="1.1" xmlns:xlink="http://www.w3.org/1999/xlink" xmlns:avocode="https://avocode.com/" viewBox="0 0 32 34"><defs></defs><desc>Generated with Avocode.</desc><g><g><title>Path</title><path d="M16.18288,25.13006l-0.02788,-0.00006c-0.34513,0 -0.625,0.27988 -0.625,0.625c0,0.34513 0.27987,0.625 0.625,0.625l0.02788,0.00006c0.34512,0 0.625,-0.27987 0.625,-0.625c0,-0.34512 -0.27988,-0.625 -0.625,-0.625z" fill="#c0bca1" fill-opacity="1"></path><path d="M16.18288,25.13006l-0.02788,-0.00006c-0.34513,0 -0.625,0.27988 -0.625,0.625c0,0.34513 0.27987,0.625 0.625,0.625l0.02788,0.00006c0.34512,0 0.625,-0.27987 0.625,-0.625c0,-0.34512 -0.27988,-0.625 -0.625,-0.625z" fill-opacity="0" fill="#ffffff" stroke-linejoin="miter" stroke-linecap="butt" stroke-opacity="1" stroke="#c0bca1" stroke-miterlimit="20" stroke-width="0.5"></path></g><g><title>Shape</title><path d="M16.18263,20.86519c-1.08769,0 -1.97263,-0.88487 -1.97263,-1.97262c0,-1.08775 0.88488,-1.97263 1.97263,-1.97263c1.08775,0 1.97262,0.88488 1.97262,1.97263c0,1.08775 -0.88494,1.97262 -1.97262,1.97262zM16.18263,15.67c-1.77694,0 -3.22263,1.44569 -3.22263,3.22263c0,1.77693 1.44569,3.22256 3.22263,3.22256c1.77693,0 3.22262,-1.44569 3.22262,-3.22263c0,-1.77694 -1.44575,-3.22256 -3.22262,-3.22256z" fill="#c0bca1" fill-opacity="1"></path><path d="M16.18263,20.86519c-1.08769,0 -1.97263,-0.88487 -1.97263,-1.97262c0,-1.08775 0.88488,-1.97263 1.97263,-1.97263c1.08775,0 1.97262,0.88488 1.97262,1.97263c0,1.08775 -0.88494,1.97262 -1.97262,1.97262zM16.18263,15.67c-1.77694,0 -3.22263,1.44569 -3.22263,3.22263c0,1.77693 1.44569,3.22256 3.22263,3.22256c1.77693,0 3.22262,-1.44569 3.22262,-3.22263c0,-1.77694 -1.44575,-3.22256 -3.22262,-3.22256z" fill-opacity="0" fill="#ffffff" stroke-linejoin="miter" stroke-linecap="butt" stroke-opacity="1" stroke="#c0bca1" stroke-miterlimit="20" stroke-width="0.5"></path></g><g><title>Shape</title><path d="M23.64017,18.27054c-0.31851,-3.83237 -3.53936,-6.85337 -7.45259,-6.85337c-3.91325,0 -7.13415,3.021 -7.4526,6.85331h-6.4415c0.11981,-2.69975 1.01384,-5.20119 2.46376,-7.28887c0.01462,-0.01082 0.02612,-0.027 0.0345,-0.04944c2.51727,-3.59131 6.68664,-5.94419 11.39584,-5.94419c7.45966,0 13.56647,5.90244 13.89411,13.28256zM16.18758,28.09929c-4.86598,0 -8.86159,-3.79418 -9.1841,-8.57875h1.72912c0.24318,2.88375 2.15252,5.41213 4.90549,6.40963c0.07033,0.0255 0.14222,0.03762 0.21292,0.03762c0.25568,0 0.49568,-0.158 0.58776,-0.41225c0.11765,-0.3245 -0.05014,-0.68293 -0.37471,-0.80056c-2.44796,-0.887 -4.09519,-3.22737 -4.10763,-5.82987c0.00044,-0.00988 0.0015,-0.01957 0.0015,-0.02957c0,-3.43431 2.7946,-6.22831 6.22959,-6.22831c3.43499,0 6.22959,2.794 6.22959,6.22831c0,0.34513 0.27994,0.625 0.62513,0.625h2.32938c-0.32245,4.7845 -4.31806,8.57875 -9.18403,8.57875zM9.11497,5.48451c-1.32602,0.69897 -2.55422,1.59884 -3.64532,2.68492c-0.22978,0.22871 -0.45034,0.46415 -0.66345,0.70458v-2.37473l3.91279,-1.4124zM9.26699,2.33567l2.4024,2.08669c-0.46109,0.14344 -0.91449,0.30869 -1.35882,0.49562l-0.98679,-0.99493c-0.17163,-0.17307 -0.42825,-0.23069 -0.65748,-0.14763l-4.69607,1.70175c-0.24743,0.08975 -0.41224,0.32456 -0.41224,0.58756v4.44225c-0.49693,0.74432 -0.92374,1.52807 -1.27832,2.34269l-0.00006,-8.04475zM26.90557,8.17748c-2.86294,-2.86281 -6.66931,-4.4395 -10.718,-4.4395c-1.03787,0 -2.05968,0.10432 -3.05387,0.30663l-3.32631,-2.89131c-0.16994,-0.14769 -0.40625,-0.19257 -0.61844,-0.11757l-7.74232,2.73807c-0.24968,0.08831 -0.41662,0.32437 -0.41662,0.58925v14.53256c0,0.34512 0.27987,0.625 0.625,0.625h4.09794c0.32444,5.47431 4.88025,9.82875 10.43456,9.82875c5.55431,0 10.11012,-4.35444 10.43456,-9.82875h4.09794c0.34513,0 0.625,-0.27988 0.625,-0.625c0.00006,-4.04888 -1.57656,-7.85519 -4.43944,-10.71813z" fill="#c0bca1" fill-opacity="1"></path><path d="M23.64017,18.27054c-0.31851,-3.83237 -3.53936,-6.85337 -7.45259,-6.85337c-3.91325,0 -7.13415,3.021 -7.4526,6.85331h-6.4415c0.11981,-2.69975 1.01384,-5.20119 2.46376,-7.28887c0.01462,-0.01082 0.02612,-0.027 0.0345,-0.04944c2.51727,-3.59131 6.68664,-5.94419 11.39584,-5.94419c7.45966,0 13.56647,5.90244 13.89411,13.28256zM16.18758,28.09929c-4.86598,0 -8.86159,-3.79418 -9.1841,-8.57875h1.72912c0.24318,2.88375 2.15252,5.41213 4.90549,6.40963c0.07033,0.0255 0.14222,0.03762 0.21292,0.03762c0.25568,0 0.49568,-0.158 0.58776,-0.41225c0.11765,-0.3245 -0.05014,-0.68293 -0.37471,-0.80056c-2.44796,-0.887 -4.09519,-3.22737 -4.10763,-5.82987c0.00044,-0.00988 0.0015,-0.01957 0.0015,-0.02957c0,-3.43431 2.7946,-6.22831 6.22959,-6.22831c3.43499,0 6.22959,2.794 6.22959,6.22831c0,0.34513 0.27994,0.625 0.62513,0.625h2.32938c-0.32245,4.7845 -4.31806,8.57875 -9.18403,8.57875zM9.11497,5.48451c-1.32602,0.69897 -2.55422,1.59884 -3.64532,2.68492c-0.22978,0.22871 -0.45034,0.46415 -0.66345,0.70458v-2.37473l3.91279,-1.4124zM9.26699,2.33567l2.4024,2.08669c-0.46109,0.14344 -0.91449,0.30869 -1.35882,0.49562l-0.98679,-0.99493c-0.17163,-0.17307 -0.42825,-0.23069 -0.65748,-0.14763l-4.69607,1.70175c-0.24743,0.08975 -0.41224,0.32456 -0.41224,0.58756v4.44225c-0.49693,0.74432 -0.92374,1.52807 -1.27832,2.34269l-0.00006,-8.04475zM26.90557,8.17748c-2.86294,-2.86281 -6.66931,-4.4395 -10.718,-4.4395c-1.03787,0 -2.05968,0.10432 -3.05387,0.30663l-3.32631,-2.89131c-0.16994,-0.14769 -0.40625,-0.19257 -0.61844,-0.11757l-7.74232,2.73807c-0.24968,0.08831 -0.41662,0.32437 -0.41662,0.58925v14.53256c0,0.34512 0.27987,0.625 0.625,0.625h4.09794c0.32444,5.47431 4.88025,9.82875 10.43456,9.82875c5.55431,0 10.11012,-4.35444 10.43456,-9.82875h4.09794c0.34513,0 0.625,-0.27988 0.625,-0.625c0.00006,-4.04888 -1.57656,-7.85519 -4.43944,-10.71813z" fill-opacity="0" fill="#ffffff" stroke-linejoin="miter" stroke-linecap="butt" stroke-opacity="1" stroke="#c0bca1" stroke-miterlimit="20" stroke-width="0.5"></path></g><g><title>Path</title><path d="M29.74142,22.06058l-1.15238,-1.92619c-0.17706,-0.29619 -0.56093,-0.39281 -0.85718,-0.21544c-0.29619,0.17719 -0.39269,0.561 -0.21544,0.85719l0.82144,1.37306v0l-1.39788,0.77838c-0.25344,0.14118 -0.37644,0.43818 -0.29706,0.71725l0.43806,1.53881v0l-1.55169,0.39006c-0.28137,0.07075 -0.47712,0.32581 -0.47262,0.61588l0.02487,1.59981v0l-1.59987,-0.02481c-0.28719,-0.00344 -0.54519,0.19118 -0.61588,0.47262l-0.39,1.55169v0l-1.53887,-0.43813c-0.27925,-0.07943 -0.57606,0.04363 -0.71725,0.29707l-0.77838,1.39781v0l-1.373,-0.82144c-0.249,-0.14919 -0.56775,-0.107 -0.76956,0.10131l-1.11369,1.14882v0l-1.11368,-1.14882c-0.20188,-0.20831 -0.52063,-0.25031 -0.76957,-0.10131l-1.373,0.82144v0l-0.77837,-1.39794c-0.14113,-0.25344 -0.43788,-0.37656 -0.71725,-0.29706l-1.53888,0.43812v0l-0.39,-1.55168c-0.06993,-0.27819 -0.32,-0.47269 -0.606,-0.47269c-0.00331,0 -0.00656,0 -0.00981,0.00006l-1.59987,0.02481v0l0.02487,-1.59981c0.0045,-0.29006 -0.19125,-0.54512 -0.47262,-0.61587l-1.55169,-0.39007v0l0.43806,-1.53881c0.07944,-0.27906 -0.04362,-0.57606 -0.29706,-0.71725l-1.39788,-0.77837v0l0.82144,-1.37307c0.17725,-0.29618 0.08075,-0.68 -0.21544,-0.85718c-0.29625,-0.17738 -0.68,-0.08075 -0.85718,0.21543l-1.15244,1.92632c-0.08688,0.14512 -0.11113,0.31925 -0.06738,0.48262c0.04375,0.16338 0.15188,0.302 0.29963,0.38431l1.52856,0.85113v0l-0.479,1.68262c-0.04625,0.16275 -0.02475,0.33719 0.05988,0.48363c0.08456,0.1465 0.22487,0.25244 0.38893,0.29362l1.69669,0.4265v0l-0.02725,1.74932c-0.00262,0.16906 0.06344,0.33206 0.183,0.45168c0.11956,0.11957 0.28188,0.18525 0.45169,0.183l1.74937,-0.02718v0l0.42644,1.69668c0.04119,0.16407 0.14713,0.30438 0.29363,0.38894c0.14656,0.08463 0.32125,0.10619 0.48362,0.05988l1.68269,-0.47907v0l0.85112,1.52863c0.08225,0.14775 0.22094,0.25587 0.38432,0.29962c0.16312,0.04375 0.33743,0.0195 0.48262,-0.06737l1.50131,-0.89819v0l1.21775,1.25619c0.11769,0.12144 0.27963,0.19 0.44875,0.19c0.16913,0 0.33107,-0.06856 0.44875,-0.19l1.21775,-1.25619v0l1.50132,0.89819c0.14512,0.08694 0.31931,0.11125 0.48262,0.06737c0.16338,-0.04375 0.30206,-0.15187 0.38431,-0.29962l0.85113,-1.52863v0l1.68269,0.47907c0.16275,0.04625 0.33718,0.02475 0.48362,-0.05988c0.1465,-0.08456 0.25244,-0.22487 0.29363,-0.38894l0.42643,-1.69668v0l1.74938,0.02718c0.16694,0.00219 0.33206,-0.06343 0.45169,-0.183c0.11956,-0.11962 0.18562,-0.28256 0.183,-0.45168l-0.02725,-1.74932v0l1.69668,-0.4265c0.16407,-0.04118 0.30438,-0.14712 0.38894,-0.29362c0.08463,-0.1465 0.10613,-0.32094 0.05988,-0.48363l-0.479,-1.68262v0l1.52856,-0.85113c0.14775,-0.08231 0.25587,-0.22093 0.29962,-0.38431c0.04375,-0.16331 0.0195,-0.33744 -0.06737,-0.48262z" fill="#c0bca1" fill-opacity="1"></path><path d="M29.74142,22.06058l-1.15238,-1.92619c-0.17706,-0.29619 -0.56093,-0.39281 -0.85718,-0.21544c-0.29619,0.17719 -0.39269,0.561 -0.21544,0.85719l0.82144,1.37306v0l-1.39788,0.77838c-0.25344,0.14118 -0.37644,0.43818 -0.29706,0.71725l0.43806,1.53881v0l-1.55169,0.39006c-0.28137,0.07075 -0.47712,0.32581 -0.47262,0.61588l0.02487,1.59981v0l-1.59987,-0.02481c-0.28719,-0.00344 -0.54519,0.19118 -0.61588,0.47262l-0.39,1.55169v0l-1.53887,-0.43813c-0.27925,-0.07943 -0.57606,0.04363 -0.71725,0.29707l-0.77838,1.39781v0l-1.373,-0.82144c-0.249,-0.14919 -0.56775,-0.107 -0.76956,0.10131l-1.11369,1.14882v0l-1.11368,-1.14882c-0.20188,-0.20831 -0.52063,-0.25031 -0.76957,-0.10131l-1.373,0.82144v0l-0.77837,-1.39794c-0.14113,-0.25344 -0.43788,-0.37656 -0.71725,-0.29706l-1.53888,0.43812v0l-0.39,-1.55168c-0.06993,-0.27819 -0.32,-0.47269 -0.606,-0.47269c-0.00331,0 -0.00656,0 -0.00981,0.00006l-1.59987,0.02481v0l0.02487,-1.59981c0.0045,-0.29006 -0.19125,-0.54512 -0.47262,-0.61587l-1.55169,-0.39007v0l0.43806,-1.53881c0.07944,-0.27906 -0.04362,-0.57606 -0.29706,-0.71725l-1.39788,-0.77837v0l0.82144,-1.37307c0.17725,-0.29618 0.08075,-0.68 -0.21544,-0.85718c-0.29625,-0.17738 -0.68,-0.08075 -0.85718,0.21543l-1.15244,1.92632c-0.08688,0.14512 -0.11113,0.31925 -0.06738,0.48262c0.04375,0.16338 0.15188,0.302 0.29963,0.38431l1.52856,0.85113v0l-0.479,1.68262c-0.04625,0.16275 -0.02475,0.33719 0.05988,0.48363c0.08456,0.1465 0.22487,0.25244 0.38893,0.29362l1.69669,0.4265v0l-0.02725,1.74932c-0.00262,0.16906 0.06344,0.33206 0.183,0.45168c0.11956,0.11957 0.28188,0.18525 0.45169,0.183l1.74937,-0.02718v0l0.42644,1.69668c0.04119,0.16407 0.14713,0.30438 0.29363,0.38894c0.14656,0.08463 0.32125,0.10619 0.48362,0.05988l1.68269,-0.47907v0l0.85112,1.52863c0.08225,0.14775 0.22094,0.25587 0.38432,0.29962c0.16312,0.04375 0.33743,0.0195 0.48262,-0.06737l1.50131,-0.89819v0l1.21775,1.25619c0.11769,0.12144 0.27963,0.19 0.44875,0.19c0.16913,0 0.33107,-0.06856 0.44875,-0.19l1.21775,-1.25619v0l1.50132,0.89819c0.14512,0.08694 0.31931,0.11125 0.48262,0.06737c0.16338,-0.04375 0.30206,-0.15187 0.38431,-0.29962l0.85113,-1.52863v0l1.68269,0.47907c0.16275,0.04625 0.33718,0.02475 0.48362,-0.05988c0.1465,-0.08456 0.25244,-0.22487 0.29363,-0.38894l0.42643,-1.69668v0l1.74938,0.02718c0.16694,0.00219 0.33206,-0.06343 0.45169,-0.183c0.11956,-0.11962 0.18562,-0.28256 0.183,-0.45168l-0.02725,-1.74932v0l1.69668,-0.4265c0.16407,-0.04118 0.30438,-0.14712 0.38894,-0.29362c0.08463,-0.1465 0.10613,-0.32094 0.05988,-0.48363l-0.479,-1.68262v0l1.52856,-0.85113c0.14775,-0.08231 0.25587,-0.22093 0.29962,-0.38431c0.04375,-0.16331 0.0195,-0.33744 -0.06737,-0.48262z" fill-opacity="0" fill="#ffffff" stroke-linejoin="miter" stroke-linecap="butt" stroke-opacity="1" stroke="#c0bca1" stroke-miterlimit="20" stroke-width="0.5"></path></g><g><title>Path</title><path d="M5.46689,15.85319c-0.11626,-0.11631 -0.27751,-0.18319 -0.44188,-0.18319c-0.165,0 -0.32562,0.06688 -0.44181,0.18319c-0.11625,0.11619 -0.18319,0.27687 -0.18319,0.44181c0,0.16437 0.06688,0.32562 0.18319,0.44188c0.11619,0.11625 0.27687,0.18312 0.44181,0.18312c0.16437,0 0.32562,-0.06681 0.44188,-0.18312c0.11625,-0.11632 0.18312,-0.27751 0.18312,-0.44188c0,-0.165 -0.06681,-0.32562 -0.18312,-0.44181z" fill="#c0bca1" fill-opacity="1"></path><path d="M5.46689,15.85319c-0.11626,-0.11631 -0.27751,-0.18319 -0.44188,-0.18319c-0.165,0 -0.32562,0.06688 -0.44181,0.18319c-0.11625,0.11619 -0.18319,0.27687 -0.18319,0.44181c0,0.16437 0.06688,0.32562 0.18319,0.44188c0.11619,0.11625 0.27687,0.18312 0.44181,0.18312c0.16437,0 0.32562,-0.06681 0.44188,-0.18312c0.11625,-0.11632 0.18312,-0.27751 0.18312,-0.44188c0,-0.165 -0.06681,-0.32562 -0.18312,-0.44181z" fill-opacity="0" fill="#ffffff" stroke-linejoin="miter" stroke-linecap="butt" stroke-opacity="1" stroke="#c0bca1" stroke-miterlimit="20" stroke-width="0.5"></path></g><g><title>Path</title><path d="M26.28859,13.06364c-1.52987,-2.64482 -3.98493,-4.55894 -6.91281,-5.38975c-0.33187,-0.09419 -0.67756,0.09856 -0.77187,0.43068c-0.09425,0.33207 0.09856,0.67763 0.43068,0.77188c2.57582,0.73094 4.82544,2.48525 6.172,4.81306c0.11588,0.20025 0.32575,0.31219 0.54163,0.31219c0.10612,0 0.21381,-0.02713 0.31231,-0.08413c0.29881,-0.17287 0.40094,-0.55518 0.22806,-0.85393z" fill="#c0bca1" fill-opacity="1"></path><path d="M26.28859,13.06364c-1.52987,-2.64482 -3.98493,-4.55894 -6.91281,-5.38975c-0.33187,-0.09419 -0.67756,0.09856 -0.77187,0.43068c-0.09425,0.33207 0.09856,0.67763 0.43068,0.77188c2.57582,0.73094 4.82544,2.48525 6.172,4.81306c0.11588,0.20025 0.32575,0.31219 0.54163,0.31219c0.10612,0 0.21381,-0.02713 0.31231,-0.08413c0.29881,-0.17287 0.40094,-0.55518 0.22806,-0.85393z" fill-opacity="0" fill="#ffffff" stroke-linejoin="miter" stroke-linecap="butt" stroke-opacity="1" stroke="#c0bca1" stroke-miterlimit="20" stroke-width="0.5"></path></g><g><title>Path</title><path d="M16.10644,7.23c-0.00313,0 -0.00631,0 -0.00944,0.00006l-0.022,0.00007c-0.34512,0 -0.625,0.27987 -0.625,0.625c0,0.34512 0.27988,0.625 0.625,0.625l0.0405,-0.00019c0.34506,-0.00513 0.62081,-0.28906 0.61569,-0.63419c-0.00506,-0.342 -0.28388,-0.61575 -0.62475,-0.61575z" fill="#c0bca1" fill-opacity="1"></path><path d="M16.10644,7.23c-0.00313,0 -0.00631,0 -0.00944,0.00006l-0.022,0.00007c-0.34512,0 -0.625,0.27987 -0.625,0.625c0,0.34512 0.27988,0.625 0.625,0.625l0.0405,-0.00019c0.34506,-0.00513 0.62081,-0.28906 0.61569,-0.63419c-0.00506,-0.342 -0.28388,-0.61575 -0.62475,-0.61575z" fill-opacity="0" fill="#ffffff" stroke-linejoin="miter" stroke-linecap="butt" stroke-opacity="1" stroke="#c0bca1" stroke-miterlimit="20" stroke-width="0.5"></path></g></g></svg>