<?xml version="1.0" encoding="UTF-8"?>
<svg id="SVGDoc" width="46" height="27" xmlns="http://www.w3.org/2000/svg" version="1.1" xmlns:xlink="http://www.w3.org/1999/xlink" xmlns:avocode="https://avocode.com/" viewBox="0 0 46 27"><defs></defs><desc>Generated with Avocode.</desc><g><g><title>Shape</title><path d="M2.51981,5.65542v-3.11561h40.65487v3.11561zM40.35307,24.729h-1.73779v-17.55378h1.73779zM37.01946,10.5848h-13.90625v-3.4098h5.24334v0.8335h3.41957v-0.90927h5.24334zM37.01946,15.53417h-13.90625v-3.41957h5.24334v0.7599h3.41957v-0.7599h5.24334zM7.15522,24.729h-1.74778v-17.55378h1.74778zM44.01057,1.02h-42.25067c-0.45594,0 -0.7599,0.30396 -0.7599,0.7599v4.63542c0,0.45594 0.30396,0.7599 0.7599,0.7599h2.12774v18.38968c0,0.45594 0.30396,0.75991 0.7599,0.75991h3.26759c0.45594,0 0.7599,-0.30397 0.7599,-0.75991v-18.38968h12.91837v9.11885c0,0.45594 0.30396,0.75991 0.75991,0.75991h14.66614v8.51092c0,0.45594 0.30397,0.75991 0.75991,0.75991h3.34358c0.45594,0 0.7599,-0.30397 0.7599,-0.75991v-18.38968h2.12773c0.45594,0 0.75991,-0.30396 0.75991,-0.7599v-4.63542c0,-0.45594 -0.37996,-0.7599 -0.75991,-0.7599z" fill="#c0bca1" fill-opacity="1"></path><path d="M2.51981,5.65542v-3.11561h40.65487v3.11561zM40.35307,24.729h-1.73779v-17.55378h1.73779zM37.01946,10.5848h-13.90625v-3.4098h5.24334v0.8335h3.41957v-0.90927h5.24334zM37.01946,15.53417h-13.90625v-3.41957h5.24334v0.7599h3.41957v-0.7599h5.24334zM7.15522,24.729h-1.74778v-17.55378h1.74778zM44.01057,1.02h-42.25067c-0.45594,0 -0.7599,0.30396 -0.7599,0.7599v4.63542c0,0.45594 0.30396,0.7599 0.7599,0.7599h2.12774v18.38968c0,0.45594 0.30396,0.75991 0.7599,0.75991h3.26759c0.45594,0 0.7599,-0.30397 0.7599,-0.75991v-18.38968h12.91837v9.11885c0,0.45594 0.30396,0.75991 0.75991,0.75991h14.66614v8.51092c0,0.45594 0.30397,0.75991 0.75991,0.75991h3.34358c0.45594,0 0.7599,-0.30397 0.7599,-0.75991v-18.38968h2.12773c0.45594,0 0.75991,-0.30396 0.75991,-0.7599v-4.63542c0,-0.45594 -0.37996,-0.7599 -0.75991,-0.7599z" fill-opacity="0" fill="#ffffff" stroke-linejoin="miter" stroke-linecap="butt" stroke-opacity="1" stroke="#c0bca1" stroke-miterlimit="20" stroke-width="0.6"></path></g></g></svg>