<?xml version="1.0" encoding="UTF-8"?>
<svg id="SVGDoc" width="34" height="31" xmlns="http://www.w3.org/2000/svg" version="1.1" xmlns:xlink="http://www.w3.org/1999/xlink" xmlns:avocode="https://avocode.com/" viewBox="0 0 34 31"><defs></defs><desc>Generated with Avocode.</desc><g><g><title>Shape</title><path d="M31.67669,26.35333h-29.34338v-4.66669c0,-0.368 0.3001,-0.66669 0.66692,-0.66669h28.00955c0.36681,0 0.66692,0.29869 0.66692,0.66669zM30.33341,29.01995v-1.33331h1.34333v1.33331zM2.33333,29.01995v-1.33331h1.34333v1.33331zM4.82459,13.01995h2.00599c0.07067,0.2 0.16263,0.392 0.29721,0.56531c0.38387,0.488 0.95835,0.768 1.57814,0.768h4.95695c0.8677,0 1.60075,-0.56 1.87665,-1.33331h2.91098c0.2759,0.77469 1.00896,1.33331 1.87665,1.33331h4.95695c0.61978,0 1.19289,-0.28 1.57676,-0.768c0.13464,-0.172 0.22661,-0.36531 0.29721,-0.56531h2.0073l2.05796,6.69069c-0.07728,-0.00931 -0.15326,-0.024 -0.23323,-0.024h-27.99017c-0.07997,0 -0.15595,0.01469 -0.23192,0.024zM14.33469,9.68664v2.66c0,0.00268 -0.00131,0.004 -0.00131,0.00668c0,0.00132 0,0.00269 0,0.00269c-0.00131,0.36669 -0.3,0.664 -0.66531,0.664h-4.95869c-0.208,0 -0.39869,-0.09331 -0.52669,-0.256c-0.128,-0.164 -0.172,-0.37331 -0.12131,-0.57331l0.66669,-2.66669c0.07468,-0.296 0.34,-0.504 0.648,-0.504h4.292c0.36662,-0.00006 0.66662,0.29863 0.66662,0.66663zM25.81869,12.76395c-0.128,0.16269 -0.32,0.256 -0.52668,0.256h-4.95869c-0.36669,0 -0.66669,-0.29869 -0.66669,-0.66669v-2.66662c0,-0.368 0.3,-0.66669 0.66669,-0.66669h4.29331c0.30669,0 0.572,0.20669 0.64669,0.504l0.66669,2.66669c0.05068,0.20131 0.00668,0.40931 -0.12132,0.57331zM5,4.35547c0,-1.10387 0.89731,-2.00214 2,-2.00214h20c1.10269,0 2,0.89827 2,2.00214v7.34117h-1.812l-0.62131,-2.48797c-0.224,-0.89296 -1.02269,-1.51631 -1.94138,-1.51631h-4.292c-1.10268,0 -2,0.89828 -2,2.00214v2.00214h-2.66668v-2.00082c0,-1.10387 -0.89732,-2.00214 -2,-2.00214h-4.292c-0.91869,0 -1.71732,0.62467 -1.94132,1.5163l-0.62131,2.48666h-1.812zM32.948,21.24795c0.04931,-0.132 0.06669,-0.27731 0.02131,-0.424l-2.636,-8.56669v-7.90394c0,-1.83731 -1.49468,-3.33331 -3.33331,-3.33331h-20c-1.83869,0 -3.33331,1.496 -3.33331,3.33331v7.904l-2.636,8.56663c-0.04531,0.14531 -0.028,0.29069 0.02131,0.424c-0.032,0.14137 -0.052,0.28669 -0.052,0.43869v8c0,0.36799 0.29869,0.66668 0.66669,0.66668h2.66669c0.36793,0 0.66662,-0.29869 0.66662,-0.66668v-2h24v2c0,0.36799 0.29869,0.66668 0.66669,0.66668h2.66669c0.368,0 0.66668,-0.29869 0.66668,-0.66668v-8c-0.00006,-0.152 -0.02006,-0.29732 -0.05206,-0.43869z" fill="#c0bca1" fill-opacity="1"></path><path d="M31.67669,26.35333h-29.34338v-4.66669c0,-0.368 0.3001,-0.66669 0.66692,-0.66669h28.00955c0.36681,0 0.66692,0.29869 0.66692,0.66669zM30.33341,29.01995v-1.33331h1.34333v1.33331zM2.33333,29.01995v-1.33331h1.34333v1.33331zM4.82459,13.01995h2.00599c0.07067,0.2 0.16263,0.392 0.29721,0.56531c0.38387,0.488 0.95835,0.768 1.57814,0.768h4.95695c0.8677,0 1.60075,-0.56 1.87665,-1.33331h2.91098c0.2759,0.77469 1.00896,1.33331 1.87665,1.33331h4.95695c0.61978,0 1.19289,-0.28 1.57676,-0.768c0.13464,-0.172 0.22661,-0.36531 0.29721,-0.56531h2.0073l2.05796,6.69069c-0.07728,-0.00931 -0.15326,-0.024 -0.23323,-0.024h-27.99017c-0.07997,0 -0.15595,0.01469 -0.23192,0.024zM14.33469,9.68664v2.66c0,0.00268 -0.00131,0.004 -0.00131,0.00668c0,0.00132 0,0.00269 0,0.00269c-0.00131,0.36669 -0.3,0.664 -0.66531,0.664h-4.95869c-0.208,0 -0.39869,-0.09331 -0.52669,-0.256c-0.128,-0.164 -0.172,-0.37331 -0.12131,-0.57331l0.66669,-2.66669c0.07468,-0.296 0.34,-0.504 0.648,-0.504h4.292c0.36662,-0.00006 0.66662,0.29863 0.66662,0.66663zM25.81869,12.76395c-0.128,0.16269 -0.32,0.256 -0.52668,0.256h-4.95869c-0.36669,0 -0.66669,-0.29869 -0.66669,-0.66669v-2.66662c0,-0.368 0.3,-0.66669 0.66669,-0.66669h4.29331c0.30669,0 0.572,0.20669 0.64669,0.504l0.66669,2.66669c0.05068,0.20131 0.00668,0.40931 -0.12132,0.57331zM5,4.35547c0,-1.10387 0.89731,-2.00214 2,-2.00214h20c1.10269,0 2,0.89827 2,2.00214v7.34117h-1.812l-0.62131,-2.48797c-0.224,-0.89296 -1.02269,-1.51631 -1.94138,-1.51631h-4.292c-1.10268,0 -2,0.89828 -2,2.00214v2.00214h-2.66668v-2.00082c0,-1.10387 -0.89732,-2.00214 -2,-2.00214h-4.292c-0.91869,0 -1.71732,0.62467 -1.94132,1.5163l-0.62131,2.48666h-1.812zM32.948,21.24795c0.04931,-0.132 0.06669,-0.27731 0.02131,-0.424l-2.636,-8.56669v-7.90394c0,-1.83731 -1.49468,-3.33331 -3.33331,-3.33331h-20c-1.83869,0 -3.33331,1.496 -3.33331,3.33331v7.904l-2.636,8.56663c-0.04531,0.14531 -0.028,0.29069 0.02131,0.424c-0.032,0.14137 -0.052,0.28669 -0.052,0.43869v8c0,0.36799 0.29869,0.66668 0.66669,0.66668h2.66669c0.36793,0 0.66662,-0.29869 0.66662,-0.66668v-2h24v2c0,0.36799 0.29869,0.66668 0.66669,0.66668h2.66669c0.368,0 0.66668,-0.29869 0.66668,-0.66668v-8c-0.00006,-0.152 -0.02006,-0.29732 -0.05206,-0.43869z" fill-opacity="0" fill="#ffffff" stroke-linejoin="miter" stroke-linecap="butt" stroke-opacity="1" stroke="#c0bca1" stroke-miterlimit="20" stroke-width="0.6"></path></g></g></svg>