<svg xmlns="http://www.w3.org/2000/svg" width="24.96" height="20.627" viewBox="0 0 24.96 20.627">
  <path id="Mask" d="M12.12,5.487l.054.892-.9-.109A14.668,14.668,0,0,1,2.687,2.046L1.5.862l-.307.874A5.255,5.255,0,0,0,2.308,7.126c.721.765.559.874-.685.419a2.127,2.127,0,0,0-.848-.2,6.524,6.524,0,0,0,.649,2.44A5.824,5.824,0,0,0,3.9,12.115l.884.419-1.046.018c-1.01,0-1.046.018-.938.4a5.452,5.452,0,0,0,3.373,2.986l1.118.382-.974.583A10.154,10.154,0,0,1,1.479,18.25,5.34,5.34,0,0,0,0,18.4,13.721,13.721,0,0,0,3.481,20a15.234,15.234,0,0,0,11.831-1.347,15.833,15.833,0,0,0,6.006-7.064,18.78,18.78,0,0,0,1.226-5.462c0-.838.054-.947,1.064-1.948a11.889,11.889,0,0,0,1.262-1.4c.18-.346.162-.346-.757-.036-1.533.546-1.749.473-.992-.346A5.3,5.3,0,0,0,24.347.444c0-.055-.271.036-.577.2a10.061,10.061,0,0,1-1.587.619l-.974.31-.884-.6a7.341,7.341,0,0,0-1.533-.8,6.161,6.161,0,0,0-3.156.073A5.213,5.213,0,0,0,12.12,5.487Z" transform="translate(0 0)" fill="#21a1f1"/>
</svg>
