<svg width="24" height="24" fill="none" xmlns="http://www.w3.org/2000/svg" aria-hidden="true" class="styles__StyledInlineSvg-sc-ijha6n-0 NsJFg"><path fill-rule="evenodd" clip-rule="evenodd" d="M12 13a2.25 2.25 0 1 0 0-4.5 2.25 2.25 0 0 0 0 4.5Zm0 2a4.25 4.25 0 1 0 0-8.5 4.25 4.25 0 0 0 0 8.5Z" fill="#494949"/><path fill-rule="evenodd" clip-rule="evenodd" d="M12 22c5.523 0 10-4.477 10-10S17.523 2 12 2 2 6.477 2 12s4.477 10 10 10Zm0-18a8 8 0 0 1 5.687 13.626C16.411 16.646 14.566 16 12 16c-2.566 0-4.41.645-5.687 1.626A8 8 0 0 1 12 4Zm4.027 14.914C15.142 18.384 13.86 18 12 18s-3.142.384-4.027.914A7.963 7.963 0 0 0 12 20a7.963 7.963 0 0 0 4.027-1.086Z" fill="#494949"/></svg>