<svg width="267" height="37" fill="none" xmlns="http://www.w3.org/2000/svg"><path d="M45.83 29c-.5 0-.87-.2-1.11-.6-.22-.42-.24-.84-.06-1.26l8.7-20.7c.26-.58.68-.87 1.26-.87s.98.29 1.2.87l8.73 20.73c.2.44.17.86-.09 1.26-.24.38-.59.57-1.05.57-.26 0-.5-.07-.72-.21-.22-.14-.39-.33-.51-.57L54.2 8.66h.9L47 28.22c-.1.26-.26.46-.48.6-.22.12-.45.18-.69.18zm1.86-5.46l.99-2.19h12.03l1.02 2.19H47.69zM71.454 29c-.84 0-1.58-.22-2.22-.66-.64-.46-1.14-1.09-1.5-1.89-.36-.8-.54-1.72-.54-2.76V6.83c0-.38.11-.68.33-.9.24-.24.55-.36.93-.36.36 0 .65.12.87.36.24.22.36.52.36.9v16.86c0 .82.16 1.5.48 2.04.34.52.77.78 1.29.78h.75c.32 0 .58.12.78.36.2.22.3.51.3.87 0 .38-.15.69-.45.93-.28.22-.65.33-1.11.33h-.27zm8.642 0c-.84 0-1.58-.22-2.22-.66-.64-.46-1.14-1.09-1.5-1.89-.36-.8-.54-1.72-.54-2.76V6.83c0-.38.11-.68.33-.9.24-.24.55-.36.93-.36.36 0 .65.12.87.36.24.22.36.52.36.9v16.86c0 .82.16 1.5.48 2.04.34.52.77.78 1.29.78h.75c.32 0 .58.12.78.36.2.22.3.51.3.87 0 .38-.15.69-.45.93-.28.22-.65.33-1.11.33h-.27zm133.968.15c-1.52 0-2.88-.36-4.08-1.08a8.055 8.055 0 01-2.85-3c-.7-1.26-1.05-2.68-1.05-4.26 0-1.6.36-3.03 1.08-4.29a8.065 8.065 0 013-2.97c1.26-.74 2.68-1.11 4.26-1.11 1.56 0 2.96.37 4.2 1.11 1.26.72 2.25 1.71 2.97 2.97.74 1.26 1.12 2.69 1.14 4.29l-1.02.51c0 1.48-.34 2.81-1.02 3.99a7.539 7.539 0 01-2.73 2.82c-1.14.68-2.44 1.02-3.9 1.02zm.36-2.28c1.12 0 2.11-.26 2.97-.78.88-.54 1.57-1.27 2.07-2.19.52-.92.78-1.95.78-3.09 0-1.16-.26-2.19-.78-3.09-.5-.92-1.19-1.65-2.07-2.19-.86-.54-1.85-.81-2.97-.81-1.1 0-2.1.27-3 .81-.88.54-1.58 1.27-2.1 2.19-.52.9-.78 1.93-.78 3.09 0 1.14.26 2.17.78 3.09.52.92 1.22 1.65 2.1 2.19.9.52 1.9.78 3 .78zm7.02 2.13c-.36 0-.67-.11-.93-.33-.24-.24-.36-.55-.36-.93v-4.95l.57-2.61 2.01.63v6.93c0 .38-.12.69-.36.93-.24.22-.55.33-.93.33zm7.073 7.02c-.4 0-.72-.12-.96-.36-.22-.22-.33-.53-.33-.93V20.72c.02-1.56.39-2.96 1.11-4.2a8.134 8.134 0 012.97-2.97c1.24-.74 2.64-1.11 4.2-1.11 1.6 0 3.02.37 4.26 1.11 1.26.72 2.25 1.71 2.97 2.97.74 1.26 1.11 2.69 1.11 4.29 0 1.58-.35 3-1.05 4.26a7.825 7.825 0 01-2.82 3c-1.2.72-2.56 1.08-4.08 1.08-1.3 0-2.48-.27-3.54-.81-1.06-.56-1.92-1.29-2.58-2.19v8.58c0 .4-.12.71-.36.93-.24.24-.54.36-.9.36zm6.99-9.15c1.12 0 2.12-.26 3-.78.9-.54 1.6-1.27 2.1-2.19.52-.92.78-1.95.78-3.09 0-1.16-.26-2.19-.78-3.09-.5-.92-1.2-1.65-2.1-2.19-.88-.54-1.88-.81-3-.81-1.08 0-2.07.27-2.97.81-.88.54-1.57 1.27-2.07 2.19-.5.9-.75 1.93-.75 3.09 0 1.14.25 2.17.75 3.09.5.92 1.19 1.65 2.07 2.19.88.52 1.87.78 2.97.78zm14.192 9.15c-.4 0-.72-.12-.96-.36-.22-.22-.33-.53-.33-.93V20.72c.02-1.56.39-2.96 1.11-4.2a8.134 8.134 0 012.97-2.97c1.24-.74 2.64-1.11 4.2-1.11 1.6 0 3.02.37 4.26 1.11 1.26.72 2.25 1.71 2.97 2.97.74 1.26 1.11 2.69 1.11 4.29 0 1.58-.35 3-1.05 4.26a7.825 7.825 0 01-2.82 3c-1.2.72-2.56 1.08-4.08 1.08-1.3 0-2.48-.27-3.54-.81-1.06-.56-1.92-1.29-2.58-2.19v8.58c0 .4-.12.71-.36.93-.24.24-.54.36-.9.36zm6.99-9.15c1.12 0 2.12-.26 3-.78.9-.54 1.6-1.27 2.1-2.19.52-.92.78-1.95.78-3.09 0-1.16-.26-2.19-.78-3.09-.5-.92-1.2-1.65-2.1-2.19-.88-.54-1.88-.81-3-.81-1.08 0-2.07.27-2.97.81-.88.54-1.57 1.27-2.07 2.19-.5.9-.75 1.93-.75 3.09 0 1.14.25 2.17.75 3.09.5.92 1.19 1.65 2.07 2.19.88.52 1.87.78 2.97.78z" fill="#142328"/><path d="M92.549 29.15c-1.58 0-3-.36-4.26-1.08a8.297 8.297 0 01-3-3c-.72-1.26-1.08-2.69-1.08-4.29 0-1.58.35-3 1.05-4.26.7-1.26 1.65-2.25 2.85-2.97 1.2-.74 2.56-1.11 4.08-1.11 1.3 0 2.47.28 3.51.84 1.06.54 1.92 1.26 2.58 2.16V6.86c0-.4.12-.71.36-.93.26-.24.57-.36.93-.36.38 0 .69.12.93.36.24.22.36.53.36.93v14.01c-.04 1.56-.43 2.97-1.17 4.23a8.206 8.206 0 01-2.94 2.97c-1.24.72-2.64 1.08-4.2 1.08zm0-2.28c1.12 0 2.11-.27 2.97-.81.88-.54 1.57-1.26 2.07-2.16.52-.92.78-1.96.78-3.12 0-1.14-.26-2.17-.78-3.09-.5-.92-1.19-1.64-2.07-2.16-.86-.54-1.85-.81-2.97-.81-1.1 0-2.1.27-3 .81-.88.52-1.58 1.24-2.1 2.16-.52.92-.78 1.95-.78 3.09 0 1.16.26 2.2.78 3.12.52.9 1.22 1.62 2.1 2.16.9.54 1.9.81 3 .81zm21.242 2.28c-1.64 0-3.09-.35-4.35-1.05a7.844 7.844 0 01-2.97-2.97c-.72-1.26-1.08-2.7-1.08-4.32 0-1.64.34-3.08 1.02-4.32.68-1.26 1.61-2.25 2.79-2.97 1.2-.72 2.58-1.08 4.14-1.08 1.52 0 2.84.35 3.96 1.05 1.14.68 2.01 1.63 2.61 2.85.62 1.22.93 2.61.93 4.17 0 .34-.11.62-.33.84-.22.2-.5.3-.84.3h-12.54v-2.07h12.69l-1.29.9c.02-1.1-.18-2.09-.6-2.97-.42-.88-1.02-1.57-1.8-2.07-.78-.5-1.71-.75-2.79-.75-1.14 0-2.14.26-3 .78-.84.52-1.49 1.25-1.95 2.19-.44.92-.66 1.97-.66 3.15s.26 2.23.78 3.15c.52.92 1.23 1.64 2.13 2.16.92.52 1.97.78 3.15.78.68 0 1.37-.12 2.07-.36.72-.24 1.29-.54 1.71-.9.24-.18.51-.27.81-.27.32-.02.58.06.78.24.3.26.45.54.45.84.02.3-.11.56-.39.78-.66.56-1.5 1.02-2.52 1.38-1.02.36-1.99.54-2.91.54zm14.616-.15c-.84 0-1.58-.22-2.22-.66-.64-.46-1.14-1.09-1.5-1.89-.36-.8-.54-1.72-.54-2.76V6.83c0-.38.11-.68.33-.9.24-.24.55-.36.93-.36.36 0 .65.12.87.36.24.22.36.52.36.9v16.86c0 .82.16 1.5.48 2.04.34.52.77.78 1.29.78h.75c.32 0 .58.12.78.36.2.22.3.51.3.87 0 .38-.15.69-.45.93-.28.22-.65.33-1.11.33h-.27zm6.692 0c-.38 0-.69-.11-.93-.33-.24-.24-.36-.56-.36-.96V13.88c0-.4.12-.71.36-.93.24-.24.55-.36.93-.36s.68.12.9.36c.24.22.36.53.36.93v13.83c0 .4-.12.72-.36.96-.22.22-.52.33-.9.33zm-.03-19.38c-.48 0-.89-.17-1.23-.51-.34-.36-.51-.78-.51-1.26 0-.5.17-.91.51-1.23a1.8 1.8 0 011.23-.48c.46 0 .86.16 1.2.48.36.32.54.73.54 1.23 0 .48-.17.9-.51 1.26-.34.34-.75.51-1.23.51zM147.759 29c-.52 0-.91-.28-1.17-.84l-6.57-13.92c-.14-.28-.16-.56-.06-.84.12-.28.34-.5.66-.66.3-.16.59-.18.87-.06.3.1.53.29.69.57l6.24 13.53h-1.29l6.18-13.53c.12-.3.34-.5.66-.6.32-.1.63-.08.93.06.32.16.53.39.63.69.1.28.09.55-.03.81l-6.51 13.95c-.26.56-.67.84-1.23.84zm17.887.15c-1.64 0-3.09-.35-4.35-1.05a7.844 7.844 0 01-2.97-2.97c-.72-1.26-1.08-2.7-1.08-4.32 0-1.64.34-3.08 1.02-4.32.68-1.26 1.61-2.25 2.79-2.97 1.2-.72 2.58-1.08 4.14-1.08 1.52 0 2.84.35 3.96 1.05 1.14.68 2.01 1.63 2.61 2.85.62 1.22.93 2.61.93 4.17 0 .34-.11.62-.33.84-.22.2-.5.3-.84.3h-12.54v-2.07h12.69l-1.29.9c.02-1.1-.18-2.09-.6-2.97-.42-.88-1.02-1.57-1.8-2.07-.78-.5-1.71-.75-2.79-.75-1.14 0-2.14.26-3 .78-.84.52-1.49 1.25-1.95 2.19-.44.92-.66 1.97-.66 3.15s.26 2.23.78 3.15c.52.92 1.23 1.64 2.13 2.16.92.52 1.97.78 3.15.78.68 0 1.37-.12 2.07-.36.72-.24 1.29-.54 1.71-.9.24-.18.51-.27.81-.27.32-.02.58.06.78.24.3.26.45.54.45.84.02.3-.11.56-.39.78-.66.56-1.5 1.02-2.52 1.38-1.02.36-1.99.54-2.91.54zm12.066-10.32c.04-1.22.35-2.31.93-3.27.6-.98 1.38-1.75 2.34-2.31.98-.56 2.05-.84 3.21-.84 1.02 0 1.79.15 2.31.45.54.3.74.71.6 1.23-.06.28-.19.48-.39.6-.18.12-.4.18-.66.18-.24 0-.52-.02-.84-.06-1.18-.14-2.23-.06-3.15.24-.9.28-1.62.75-2.16 1.41-.54.66-.81 1.45-.81 2.37h-1.38zm.15 10.17c-.4 0-.71-.11-.93-.33-.22-.22-.33-.53-.33-.93V13.85c0-.4.11-.71.33-.93.22-.22.53-.33.93-.33s.7.11.9.33c.22.22.33.53.33.93v13.89c0 .4-.11.71-.33.93-.2.22-.5.33-.9.33zm15.594 7.17c-.16 0-.36-.05-.6-.15-.74-.34-.94-.87-.6-1.59l9.51-21.15c.34-.7.87-.89 1.59-.57.74.3.95.82.63 1.56l-9.57 21.12c-.2.52-.52.78-.96.78zm3.39-7.74c-.32.16-.62.19-.9.09s-.51-.32-.69-.66l-6.72-13.59c-.16-.34-.19-.65-.09-.93.12-.28.34-.5.66-.66.34-.14.65-.16.93-.06s.5.31.66.63l6.57 13.62c.16.32.21.63.15.93-.04.28-.23.49-.57.63zM30.366 4.92v12.377c0 .314-.063 1.131-.063 1.445v.126c-.44 7.037-5.277 11.372-12.69 11.372a11.737 11.737 0 01-8.671-3.519 11.598 11.598 0 01-3.079-8.544c.252-5.906 5.34-10.241 11.75-10.241 1.28-.052 2.56.14 3.769.565v6.032l-.314-.126a6.334 6.334 0 00-2.828-.502c-2.01-.063-3.832.628-4.837 1.822a5.165 5.165 0 00-1.194 3.33 5.29 5.29 0 001.194 3.392 6.001 6.001 0 004.837 1.822c4.273-.188 5.404-3.644 5.718-5.717.125-1.005.188-3.016.188-3.267V1.069A17.309 17.309 0 0018.178 0a18 18 0 1012.188 4.92z" fill="#06C167"/></svg>