<svg width="24" height="24" fill="none" xmlns="http://www.w3.org/2000/svg" aria-hidden="true" class="styles__StyledInlineSvg-sc-ijha6n-0 NsJFg"><path fill-rule="evenodd" clip-rule="evenodd" d="M14.414 2H19a3 3 0 0 1 3 3v4.586a3 3 0 0 1-.879 2.121l-9 9a3 3 0 0 1-4.242 0l-4.586-4.586a3 3 0 0 1 0-4.242l9-9A3 3 0 0 1 14.414 2Zm0 2H19a1 1 0 0 1 1 1v4.586a1 1 0 0 1-.293.707l-9 9a1 1 0 0 1-1.414 0l-4.586-4.586a1 1 0 0 1 0-1.414l9-9A1 1 0 0 1 14.414 4Z" fill="#494949"/><path d="M18 7.5a1.5 1.5 0 1 1-3 0 1.5 1.5 0 0 1 3 0Z" fill="#494949"/></svg>