<svg width="24" height="24" fill="none" xmlns="http://www.w3.org/2000/svg" aria-hidden="true" class="styles__StyledInlineSvg-sc-ijha6n-0 NsJFg"><path fill-rule="evenodd" clip-rule="evenodd" d="M23 7.272c0-.111 0-.294-.013-.463a2.504 2.504 0 0 0-.26-.944 2.5 2.5 0 0 0-1.092-1.092 2.505 2.505 0 0 0-.944-.26 5.8 5.8 0 0 0-.463-.013H7.272c-.111 0-.294 0-.463.013a2.505 2.505 0 0 0-.944.26 2.5 2.5 0 0 0-1.092 1.092 2.505 2.505 0 0 0-.26.944 5.798 5.798 0 0 0-.013.463v.729L3.772 8a5.8 5.8 0 0 0-.463.014 2.505 2.505 0 0 0-.944.259 2.5 2.5 0 0 0-1.092 1.092 2.505 2.505 0 0 0-.26.944 5.803 5.803 0 0 0-.013.463v6.456c0 .111 0 .294.014.463.016.207.064.562.259.944a2.5 2.5 0 0 0 1.092 1.093c.382.194.737.242.944.259.169.013.352.013.463.013H3.8l12.928.009c.111 0 .294 0 .463-.014.207-.017.562-.064.944-.259a2.5 2.5 0 0 0 1.093-1.092c.194-.383.242-.737.259-.944.013-.169.013-.352.013-.464V16.5h.728c.111 0 .294 0 .463-.014.207-.016.562-.064.944-.259a2.5 2.5 0 0 0 1.092-1.092c.195-.383.243-.737.26-.944a5.76 5.76 0 0 0 .013-.463V7.272ZM4.5 10.001V11.5H3v-.7c0-.28 0-.42.055-.527a.5.5 0 0 1 .218-.218C3.38 10 3.52 10 3.8 10h.7ZM3 13.5h1.5v.228c0 .111 0 .294.013.463.017.207.065.561.26.944a2.5 2.5 0 0 0 1.092 1.092c.382.195.737.243.944.26.169.013.352.013.463.013H17.5v.709c0 .28 0 .42-.055.527a.5.5 0 0 1-.218.218c-.107.055-.247.055-.527.055L3.8 18c-.28 0-.42 0-.527-.055a.5.5 0 0 1-.218-.218C3 17.62 3 17.48 3 17.2v-3.7ZM6.5 7a.5.5 0 0 1 .5-.5h2a.5.5 0 0 1 .5.5v.5A.5.5 0 0 1 9 8H7a.5.5 0 0 1-.5-.5V7Zm9.75 3.5c0 1.933-1.12 3.5-2.5 3.5s-2.5-1.567-2.5-3.5S12.37 7 13.75 7s2.5 1.567 2.5 3.5ZM18.5 13a.5.5 0 0 0-.5.5v.5a.5.5 0 0 0 .5.5h2a.5.5 0 0 0 .5-.5v-.5a.5.5 0 0 0-.5-.5h-2Z" fill="#494949"/></svg>