<svg width="24" height="24" fill="none" xmlns="http://www.w3.org/2000/svg" aria-hidden="true" class="styles__StyledInlineSvg-sc-ijha6n-0 NsJFg"><path fill-rule="evenodd" clip-rule="evenodd" d="M6 5h2v-.5A2.5 2.5 0 0 1 10.5 2h3A2.5 2.5 0 0 1 16 4.5V5h2a2 2 0 0 1 2 2v9.864c0 .505 0 .996-.034 1.412-.037.458-.125.997-.402 1.54a4 4 0 0 1-1.748 1.748c-.543.277-1.082.365-1.54.402-.416.034-.907.034-1.412.034H9.136c-.505 0-.996 0-1.412-.034-.458-.037-.997-.125-1.54-.402a4 4 0 0 1-1.748-1.748c-.277-.543-.365-1.082-.402-1.54C4 17.86 4 17.37 4 16.864V7a2 2 0 0 1 2-2Zm7.5-1a.5.5 0 0 1 .5.5V5h-4v-.5a.5.5 0 0 1 .5-.5h3ZM7.092 19.782A2 2 0 0 1 6.268 19h11.464a2 2 0 0 1-.824.782C16.48 20 15.92 20 14.8 20H9.2c-1.12 0-1.68 0-2.108-.218ZM18 17H6V7h12v10Z" fill="#494949"/></svg>