<svg width="24" height="24" fill="none" xmlns="http://www.w3.org/2000/svg" aria-hidden="true" class="styles__StyledInlineSvg-sc-ijha6n-0 NsJFg"><path fill-rule="evenodd" clip-rule="evenodd" d="M19.071 19.071c-3.905 3.905-10.237 3.905-14.142 0-3.905-3.905-3.905-10.237 0-14.142 3.905-3.905 10.237-3.905 14.142 0 3.905 3.905 3.905 10.237 0 14.142ZM5.68 16.906l2.148-2.148a5.006 5.006 0 0 1 0-5.516L5.68 7.094a8.004 8.004 0 0 0 0 9.812Zm9.078-9.078a5.006 5.006 0 0 0-5.516 0L7.094 5.68a8.004 8.004 0 0 1 9.812 0l-2.148 2.148Zm-5.516 8.344L7.094 18.32a8.004 8.004 0 0 0 9.812 0l-2.148-2.148a5.006 5.006 0 0 1-5.516 0Zm6.93-1.414 2.148 2.148a8.004 8.004 0 0 0 0-9.812l-2.148 2.148a5.006 5.006 0 0 1 0 5.516Zm-2.05-.637A3 3 0 1 1 9.878 9.88a3 3 0 0 1 4.242 4.242Z" fill="#494949"/></svg>