<svg width="24" height="24" fill="none" xmlns="http://www.w3.org/2000/svg" aria-hidden="true" class="styles__StyledInlineSvg-sc-ijha6n-0 NsJFg"><path d="M16.207 7.793a1 1 0 0 1 0 1.414L13.414 12l2.793 2.793a1 1 0 0 1-1.414 1.414L12 13.414l-2.793 2.793a1 1 0 0 1-1.414-1.414L10.586 12 7.793 9.207a1 1 0 0 1 1.414-1.414L12 10.586l2.793-2.793a1 1 0 0 1 1.414 0Z" fill="#494949"/><path fill-rule="evenodd" clip-rule="evenodd" d="M12 22c5.523 0 10-4.477 10-10S17.523 2 12 2 2 6.477 2 12s4.477 10 10 10Zm0-2a8 8 0 1 0 0-16 8 8 0 0 0 0 16Z" fill="#494949"/></svg>