<svg width="91" height="121" viewBox="0 0 91 121" fill="none" xmlns="http://www.w3.org/2000/svg">
<path d="M84.7914 82.7426H91L82.4854 121H0C0 112.933 1.35997 106.053 4.07992 100.359C6.91813 94.5461 10.525 89.5044 14.9006 85.2338C19.2762 80.8446 23.8882 76.8113 28.7368 73.1338C33.7037 69.3377 38.3749 65.4824 42.7505 61.5676C47.1261 57.6529 50.6738 53.2044 53.3938 48.2221C56.232 43.2397 57.6511 37.3083 57.6511 30.4279C57.6511 23.3103 55.9955 17.6755 52.6842 13.5235C49.4912 9.25293 44.5835 7.11764 37.961 7.11764C32.7576 7.11764 27.8499 8.48186 23.2378 11.2103C18.6257 13.9387 15.3145 17.4975 13.3041 21.8868L0.88694 34.5206C0.88694 29.1824 2.48343 23.8441 5.67641 18.5059C8.8694 13.1676 13.718 8.77842 20.2222 5.33823C26.7264 1.77941 34.8863 0 44.7018 0C48.8408 0 53.3346 0.474507 58.1832 1.42352C63.0318 2.25392 67.6439 3.85539 72.0195 6.22794C76.3951 8.48186 79.9428 11.6848 82.6628 15.8368C85.501 19.9887 86.9201 25.327 86.9201 31.8515C86.9201 37.7828 85.6192 42.7652 83.0176 46.7985C80.5341 50.8319 77.1638 54.3314 72.9064 57.2971C68.6491 60.1441 63.9188 62.8725 58.7154 65.4824C53.512 67.9735 48.1904 70.6426 42.7505 73.4897C37.4289 76.3368 32.3437 79.7176 27.4951 83.6324C22.7648 87.4284 18.6849 92.1735 15.2554 97.8676H51.2651C58.1241 97.8676 63.6823 97.5711 67.9396 96.9779C72.3152 96.2662 75.8038 94.8427 78.4055 92.7074C81.0072 90.4534 83.1358 87.1319 84.7914 82.7426ZM15.078 49.4676C11.2937 49.4676 7.98246 48.1034 5.14425 45.375C2.30604 42.5279 0.88694 38.9098 0.88694 34.5206L13.3041 21.8868C16.9701 21.2936 19.9266 21.6495 22.1735 22.9544C24.5387 24.1407 26.3125 25.8608 27.4951 28.1147C28.6777 30.3686 29.269 32.7412 29.269 35.2323C29.269 39.2657 27.909 42.6466 25.1891 45.375C22.4691 48.1034 19.0988 49.4676 15.078 49.4676Z" fill="#F2DCCB" fill-opacity="0.2"/>
</svg>
