<svg width="90" height="121" viewBox="0 0 90 121" fill="none" xmlns="http://www.w3.org/2000/svg">
<path d="M41.8359 121C33.75 121 26.543 119.948 20.2148 117.843C13.8867 115.622 8.90625 112.583 5.27344 108.725C1.75781 104.75 0 100.132 0 94.871L14.9414 107.322C17.8711 109.309 21.0352 110.946 24.4336 112.232C27.9492 113.401 31.7578 113.986 35.8594 113.986C43.8281 113.986 49.9805 111.823 54.3164 107.497C58.7695 103.055 60.9961 96.5662 60.9961 88.0319C60.9961 83.7063 60.2344 79.4976 58.7109 75.4058C57.1875 71.1971 54.375 67.7483 50.2734 65.0594C46.2891 62.3705 40.4883 61.0261 32.8711 61.0261V56.642C42.0117 56.642 50.0977 57.3435 57.1289 58.7464C64.2773 60.0324 70.2539 62.0198 75.0586 64.7087C79.9805 67.2807 83.6719 70.5541 86.1328 74.529C88.7109 78.5039 90 83.1217 90 88.3826C90 94.1111 88.6523 99.0213 85.957 103.113C83.2617 107.205 79.6289 110.595 75.0586 113.284C70.4883 115.856 65.332 117.785 59.5898 119.071C53.8477 120.357 47.9297 121 41.8359 121ZM14.9414 107.322L0 94.871C0 90.5454 1.40625 87.0382 4.21875 84.3493C7.03125 81.5435 10.3125 80.1406 14.0625 80.1406C18.0469 80.1406 21.3867 81.485 24.082 84.1739C26.7773 86.8628 28.125 90.1947 28.125 94.1696C28.125 97.7937 26.9531 100.892 24.6094 103.464C22.2656 106.036 19.043 107.322 14.9414 107.322ZM15.293 46.9971C11.543 46.9971 8.26172 45.6527 5.44922 42.9638C2.63672 40.158 1.23047 36.5923 1.23047 32.2667L13.1836 19.8159C16.8164 19.2314 19.8047 19.5821 22.1484 20.8681C24.4922 22.0372 26.25 23.7324 27.4219 25.9536C28.7109 28.1749 29.3555 30.513 29.3555 32.9681C29.3555 36.943 28.0078 40.2749 25.3125 42.9638C22.6172 45.6527 19.2773 46.9971 15.293 46.9971ZM32.8711 59.0971V54.8884C38.1445 54.8884 42.3633 54.1285 45.5273 52.6087C48.8086 50.972 51.3281 48.9261 53.0859 46.471C54.8437 43.899 56.0156 41.1517 56.6016 38.229C57.1875 35.3063 57.4805 32.5589 57.4805 29.987C57.4805 23.0894 55.8398 17.5362 52.5586 13.3275C49.3945 9.11883 44.3555 7.01449 37.4414 7.01449C32.5195 7.01449 27.8906 8.12511 23.5547 10.3464C19.3359 12.5676 15.8789 15.7241 13.1836 19.8159L1.23047 32.2667C1.23047 27.0058 2.8125 21.9203 5.97656 17.0101C9.25781 11.9831 14.0039 7.8913 20.2148 4.73477C26.543 1.57826 34.3359 0 43.5937 0C47.9297 0 52.5 0.46763 57.3047 1.40289C62.2266 2.33816 66.7969 3.85797 71.0156 5.96232C75.3516 8.06666 78.8672 10.9309 81.5625 14.5551C84.2578 18.0623 85.6055 22.5048 85.6055 27.8826C85.6055 32.7927 84.3164 37.1184 81.7383 40.8594C79.2773 44.6005 75.7031 47.757 71.0156 50.329C66.4453 52.7841 60.9375 54.7715 54.4922 56.2913C48.0469 57.6942 40.8398 58.6295 32.8711 59.0971Z" fill="#F2DCCB" fill-opacity="0.2"/>
</svg>
