<svg width="78" height="70" viewBox="0 0 78 70" fill="none" xmlns="http://www.w3.org/2000/svg">
<path d="M0.567273 70L13.0473 18.2731L15.3164 30.0803C10.9673 30.0803 7.28 28.7684 4.25455 26.1446C1.41818 23.3333 0 19.6787 0 15.1807C0 10.6827 1.41818 7.02812 4.25455 4.21686C7.28 1.40562 10.8727 0 15.0327 0C19.3818 0 22.88 1.49933 25.5273 4.498C28.3636 7.30924 29.7818 10.8702 29.7818 15.1807C29.7818 16.68 29.6873 18.1794 29.4982 19.6787C29.3091 21.178 28.9309 22.8648 28.3636 24.739C27.9855 26.4257 27.3236 28.581 26.3782 31.2048L14.1818 70H0.567273ZM48.7855 70L61.2655 18.2731L63.5345 30.0803C59.1855 30.0803 55.4982 28.7684 52.4727 26.1446C49.6364 23.3333 48.2182 19.6787 48.2182 15.1807C48.2182 10.6827 49.6364 7.02812 52.4727 4.21686C55.4982 1.40562 59.0909 0 63.2509 0C67.6 0 71.0982 1.49933 73.7455 4.498C76.5818 7.30924 78 10.8702 78 15.1807C78 16.68 77.9055 18.1794 77.7164 19.6787C77.5273 21.178 77.1491 22.8648 76.5818 24.739C76.2036 26.4257 75.5418 28.581 74.5964 31.2048L62.4 70H48.7855Z" fill="#F2DCCB"/>
</svg>
