<svg width="298" height="298" viewBox="0 0 298 298" fill="none" xmlns="http://www.w3.org/2000/svg">
<circle cx="149" cy="149" r="148" stroke="url(#paint0_linear_1576_2826)" stroke-linecap="round" stroke-linejoin="round" stroke-dasharray="8 8"/>
<rect x="90" y="90" width="118" height="118" rx="56" fill="url(#paint1_linear_1576_2826)"/>
<path d="M165.893 176.986C165.42 176.987 164.954 176.876 164.533 176.661L149.456 168.796L134.378 176.661C133.889 176.918 133.337 177.033 132.785 176.992C132.234 176.952 131.704 176.758 131.258 176.432C130.811 176.107 130.465 175.663 130.259 175.152C130.053 174.64 129.995 174.081 130.092 173.539L133.048 156.953L120.868 145.169C120.488 144.791 120.218 144.317 120.088 143.798C119.958 143.279 119.972 142.735 120.129 142.223C120.3 141.7 120.616 141.234 121.039 140.88C121.462 140.526 121.976 140.297 122.524 140.22L139.375 137.775L146.795 122.662C147.037 122.164 147.415 121.744 147.886 121.45C148.356 121.156 148.9 121 149.456 121C150.011 121 150.555 121.156 151.026 121.45C151.496 121.744 151.874 122.164 152.116 122.662L159.625 137.745L176.476 140.19C177.024 140.268 177.538 140.497 177.961 140.851C178.384 141.205 178.7 141.67 178.871 142.194C179.028 142.705 179.042 143.25 178.912 143.769C178.782 144.288 178.512 144.762 178.132 145.14L165.952 156.923L168.908 173.509C169.014 174.062 168.959 174.632 168.749 175.154C168.539 175.676 168.184 176.128 167.726 176.455C167.19 176.829 166.546 177.016 165.893 176.986V176.986Z" fill="white"/>
<defs>
<linearGradient id="paint0_linear_1576_2826" x1="149" y1="1" x2="149" y2="297" gradientUnits="userSpaceOnUse">
<stop stop-opacity="0.39"/>
<stop offset="1"/>
</linearGradient>
<linearGradient id="paint1_linear_1576_2826" x1="149" y1="90" x2="149" y2="208" gradientUnits="userSpaceOnUse">
<stop stop-opacity="0.39"/>
<stop offset="1"/>
</linearGradient>
</defs>
</svg>
