<svg width="230" height="164" viewBox="0 0 230 164" fill="none" xmlns="http://www.w3.org/2000/svg">
<path d="M204.349 92.2824C255.49 66.8336 187.415 0.227773 164.877 22.2293C138.318 51.2476 91.7939 1.5006 67.6471 29.9799C45.6254 55.9309 69.5877 71.4085 43.2304 81.6503C3.61352 93.4117 50.1599 155.095 79.9413 163.7C99.5395 163.541 156.194 164.3 200.171 162.773C224.689 133.814 163.581 112.569 204.349 92.2824Z" fill="#E6F5F8"/>
<path d="M186.315 41.2671C173.633 42.8504 140.835 42.8151 127.983 43.4273C122.553 43.6863 96.3671 42.7151 92.2754 45.1519C90.2673 82.7462 90.6515 120.882 85.6983 158.365C85.5587 159.406 86.4899 160.837 88.1196 160.843C119.777 160.919 157.982 159.889 189.627 160.531C191.326 160.566 191.519 159.542 191.39 158.465C189.08 138.994 189.103 119.734 187.834 99.9748C187.153 89.3269 187.508 80.9333 187.2 68.0958C187.13 65.0704 187.019 46.3527 186.315 46.2232V41.2671Z" fill="white"/>
<path d="M157.923 94.9371C157.982 99.0927 156.684 103.372 153.966 107.174C150.997 111.33 146.847 113.419 141.696 113.266C133.152 113.013 126.162 109.852 121.68 102.33C120.044 99.5871 119.084 96.6088 119.235 93.395C119.317 91.6645 119.817 89.9693 120.621 88.4448C122.955 84.0008 125.888 80.0042 130.183 77.1906C133.437 75.054 137.063 74.3653 140.899 75.0599C149.42 76.602 156.294 82.3527 157.755 91.1053C157.941 92.2178 157.842 93.3185 157.923 94.9371Z" fill="#FF0000"/>
<path d="M127.076 89.8815C127.757 91.147 127.564 92.0064 128.676 93.0482C129.788 94.09 130.451 94.714 131.103 94.6963C131.755 94.6786 135.853 94.143 138.233 94.0842C140.614 94.0194 142.564 93.9723 142.808 95.0318C143.052 96.0972 143.07 96.7388 141.347 96.9978C139.624 97.2567 135.934 97.139 135.294 97.3686C134.648 97.5981 132.262 97.4451 133.373 98.4869C134.485 99.5288 136.959 102.148 137.64 102.066C138.775 101.93 142.983 101.789 144.502 101.618C147.039 101.336 149.094 97.1155 148.873 95.0848C148.658 93.0659 146.562 89.5813 144.176 89.4342C141.789 89.2811 134.863 89.4636 133.35 89.5048C131.831 89.5401 127.076 89.8815 127.076 89.8815Z" fill="white"/>
<path d="M158.057 50.6082C157.999 50.1373 151.818 3.33128 134.578 4.34957C120.528 5.17362 115.778 47.3061 115.732 47.7358L114.573 47.6063C114.585 47.5004 115.784 36.67 118.77 25.8808C122.838 11.1892 128.135 3.54907 134.508 3.17236C142.278 2.72502 148.803 10.5888 153.896 26.5695C157.638 38.3122 159.192 50.3374 159.21 50.4552L158.057 50.6082Z" fill="white"/>
<path d="M111.896 134.214C113.607 131.542 116.535 126.709 114.952 124.302C113.368 121.894 112.46 122.618 111.192 122.883C109.923 123.142 108.357 124.331 108.357 124.331C108.357 124.331 109.364 121.765 106.617 120.335C103.87 118.91 100.43 121.182 100.43 121.182C100.43 121.182 100.924 118.616 97.8804 117.603C94.8305 116.591 92.5664 119.934 92.5664 119.934C92.5664 119.934 92.2928 114.549 88.9927 114.307C85.6925 114.066 83.8766 116.02 83.8766 116.02C83.8766 116.02 83.8649 112.43 80.1573 112.394C76.4498 112.359 73.7316 116.061 73.7316 116.061C73.7316 116.061 75.3963 113.03 73.0099 112.577C70.6236 112.124 67.2885 115.114 67.2943 116.65C67.3001 118.186 67.7716 121.93 68.2372 123.625C68.7028 125.314 68.3536 127.421 70.1288 127.669C71.9041 127.916 75.3497 127.186 76.4148 126.515C77.48 125.844 77.3403 130.412 78.8652 130.406C80.3843 130.4 85.9544 126.786 85.9544 126.786C85.9544 126.786 85.0057 131.253 87.0894 131.601C89.1731 131.954 94.1786 129.005 94.1786 129.005C94.1786 129.005 92.9796 134.243 95.2146 134.644C97.4497 135.044 101.396 132.772 101.396 132.772C101.396 132.772 98.6778 138.016 102.176 137.64C105.674 137.263 109.207 132.636 109.207 132.636L111.896 134.214Z" fill="#FAC875"/>
<path d="M101.501 132.866L101.274 132.677C101.309 132.636 104.696 128.457 108.241 124.237L108.462 124.425C104.923 128.645 101.536 132.819 101.501 132.866Z" fill="#ED9400"/>
<path d="M92.9623 130.752L92.6479 130.446C92.7003 130.393 97.7641 125.114 100.244 121.064L100.616 121.294C98.1133 125.384 93.0146 130.699 92.9623 130.752Z" fill="#ED9400"/>
<path d="M86.1116 126.921L85.774 126.639C85.8031 126.603 88.9054 122.83 92.4151 119.764L92.7003 120.099C89.2197 123.142 86.1466 126.88 86.1116 126.921Z" fill="#ED9400"/>
<path d="M76.3392 127.921L75.9841 127.668C76.0423 127.586 81.6473 119.61 83.6845 115.914L84.0686 116.125C82.0199 119.845 76.3916 127.839 76.3392 127.921Z" fill="#ED9400"/>
<path d="M73.2719 124.919L72.8412 124.843C72.847 124.796 73.6269 120.299 73.5105 116.061L73.9471 116.049C74.0635 120.334 73.2777 124.872 73.2719 124.919Z" fill="#ED9400"/>
<path d="M66.8053 147.476C66.8053 147.476 89.7026 121.653 120.917 126.839C152.132 132.025 165.641 146.911 165.641 146.911L66.8053 147.476Z" fill="#FF2A14"/>
<path d="M145.165 142.013C147.383 140.235 151.242 136.975 150.578 134.467C149.914 131.965 148.937 132.313 147.784 132.166C146.632 132.018 144.961 132.572 144.961 132.572C144.961 132.572 146.544 130.676 144.612 128.669C142.68 126.662 139.112 127.592 139.112 127.592C139.112 127.592 140.264 125.556 137.959 123.807C135.655 122.059 132.773 124.249 132.773 124.249C132.773 124.249 134.066 119.587 131.33 118.428C128.594 117.262 126.493 118.398 126.493 118.398C126.493 118.398 127.5 115.337 124.363 114.237C121.226 113.13 117.856 115.49 117.856 115.49C117.856 115.49 120.132 113.395 118.228 112.318C116.325 111.241 112.641 112.812 112.21 114.125C111.779 115.437 111.116 118.757 111.034 120.329C110.947 121.9 110.057 123.59 111.494 124.319C112.932 125.049 116.075 125.426 117.169 125.161C118.263 124.896 116.855 128.746 118.147 129.181C119.445 129.617 125.201 128.157 125.201 128.157C125.201 128.157 123.129 131.683 124.8 132.584C126.47 133.484 131.569 132.436 131.569 132.436C131.569 132.436 129.066 136.545 130.853 137.534C132.64 138.523 136.638 137.734 136.638 137.734C136.638 137.734 132.837 141.407 135.922 142.101C139.001 142.802 143.32 139.882 143.32 139.882L145.165 142.013Z" fill="#FAC875"/>
<path d="M136.72 137.864L136.568 137.617C136.609 137.594 140.678 135.021 144.891 132.461L145.043 132.714C140.823 135.269 136.76 137.835 136.72 137.864Z" fill="#ED9400"/>
<path d="M130.026 133.532L129.892 133.267C129.951 133.238 135.759 130.212 139.019 127.487L139.205 127.716C135.922 130.465 130.084 133.502 130.026 133.532Z" fill="#ED9400"/>
<path d="M125.323 128.346L125.096 127.969C125.131 127.946 128.839 125.639 132.698 124.049L132.861 124.455C129.037 126.039 125.358 128.328 125.323 128.346Z" fill="#ED9400"/>
<path d="M116.721 126.363L116.465 126.003C116.535 125.95 123.571 120.794 126.348 118.24L126.639 118.563C123.845 121.142 116.797 126.31 116.721 126.363Z" fill="#ED9400"/>
<path d="M114.905 122.878L114.649 122.737C114.666 122.701 116.61 119.093 117.716 115.456L117.995 115.544C116.884 119.211 114.928 122.843 114.905 122.878Z" fill="#ED9400"/>
<path d="M161.573 136.986C161.445 133.802 161.078 128.151 158.412 127.11C155.746 126.068 155.415 127.192 154.53 128.14C153.645 129.093 153.04 130.977 153.04 130.977C153.04 130.977 152.394 128.293 149.338 128.728C146.283 129.164 144.769 133.025 144.769 133.025C144.769 133.025 143.71 130.641 140.643 131.589C137.575 132.537 137.628 136.592 137.628 136.592C137.628 136.592 134.333 132.354 131.499 134.079C128.664 135.803 128.298 138.464 128.298 138.464C128.298 138.464 126.237 135.538 123.193 137.669C120.149 139.8 120.038 144.415 120.038 144.415C120.038 144.415 119.666 140.965 117.46 141.99C115.254 143.014 114.236 147.399 115.114 148.653C115.999 149.906 118.519 152.69 119.858 153.797C121.203 154.909 122.116 156.828 123.711 155.998C125.306 155.168 127.704 152.555 128.187 151.39C128.67 150.224 131.167 154.027 132.407 153.138C133.647 152.243 136.132 146.045 136.132 146.045C136.132 146.045 137.907 150.248 139.804 149.318C141.702 148.388 144.117 143.061 144.117 143.061C144.117 143.061 146.125 148.035 148.18 147.063C150.235 146.086 152.161 141.931 152.161 141.931C152.161 141.931 152.935 147.799 155.578 145.451C158.22 143.102 158.465 137.263 158.465 137.263L161.573 136.986Z" fill="#FAC875"/>
<path d="M152.388 141.954L151.952 141.924C151.957 141.871 152.342 136.48 152.825 130.964L153.261 131.006C152.778 136.509 152.394 141.901 152.388 141.954Z" fill="#ED9400"/>
<path d="M144.141 145.203L143.71 145.133C143.722 145.062 144.845 137.793 144.56 133.043L144.996 133.019C145.281 137.816 144.152 145.133 144.141 145.203Z" fill="#ED9400"/>
<path d="M136.359 146.074L135.922 146.039C135.928 145.992 136.306 141.1 137.424 136.55L137.849 136.656C136.737 141.171 136.359 146.021 136.359 146.074Z" fill="#ED9400"/>
<path d="M128.944 152.595H128.507C128.507 152.495 128.536 142.707 128.088 138.498L128.525 138.451C128.973 142.683 128.944 152.495 128.944 152.595Z" fill="#ED9400"/>
<path d="M124.398 152.089C124.38 152.048 122.448 147.91 119.928 144.514L120.161 144.337C122.693 147.757 124.642 151.925 124.66 151.966L124.398 152.089Z" fill="#ED9400"/>
<path d="M118.362 112.477C117.093 111.182 99.19 118.104 104.44 131.618C117.233 131.13 122.419 116.615 118.362 112.477Z" fill="#456657"/>
<path d="M106.576 131.936L106.419 131.912C102.798 131.318 94.324 128.528 93.7827 115.526C93.6256 111.782 94.3648 108.15 95.3309 107.909L95.3833 108.121L95.3309 107.909C97.9152 107.256 101.407 109.116 104.219 112.653C107.757 117.103 110.254 124.472 106.652 131.801L106.576 131.936ZM96.3844 108.215C96.0527 108.215 95.7384 108.25 95.4357 108.327C94.9177 108.456 94.0447 111.352 94.2193 115.496C94.3939 119.699 95.9246 129.629 106.331 131.442C109.742 124.349 107.309 117.233 103.881 112.918C101.547 109.993 98.666 108.215 96.3844 108.215Z" fill="#24372B"/>
<path d="M111.518 142.943C112.292 139.723 113.514 133.972 111.145 132.165C108.776 130.358 108.13 131.383 106.978 132.077C105.825 132.772 104.69 134.479 104.69 134.479C104.69 134.479 104.801 131.612 101.629 131.165C98.4566 130.717 95.8549 134.143 95.8549 134.143C95.8549 134.143 95.4707 131.453 92.1415 131.518C88.8122 131.583 87.718 135.65 87.718 135.65C87.718 135.65 85.6227 130.464 82.3051 131.371C78.9875 132.277 77.8699 134.826 77.8699 134.826C77.8699 134.826 76.636 131.312 72.9925 132.56C69.3489 133.808 67.9346 138.387 67.9346 138.387C67.9346 138.387 68.5341 134.838 66.0429 135.22C63.5518 135.603 61.2935 139.694 61.8232 141.201C62.3528 142.707 64.0873 146.21 65.1117 147.711C66.1419 149.206 66.5144 151.389 68.342 151.019C70.1696 150.648 73.2951 148.729 74.11 147.705C74.9248 146.68 76.345 151.201 77.835 150.665C79.325 150.13 83.5564 144.656 83.5564 144.656C83.5564 144.656 84.1443 149.365 86.3037 148.982C88.463 148.605 92.3743 143.979 92.3743 143.979C92.3743 143.979 92.9796 149.529 95.3078 149.147C97.6359 148.764 100.732 145.168 100.732 145.168C100.732 145.168 99.8477 151.254 103.148 149.671C106.448 148.087 108.34 142.325 108.34 142.325L111.518 142.943Z" fill="#FAC875"/>
<path d="M100.93 145.25L100.523 145.097C100.54 145.044 102.449 139.77 104.487 134.402L104.894 134.561C102.857 139.929 100.954 145.197 100.93 145.25Z" fill="#ED9400"/>
<path d="M91.7748 146.122L91.379 145.934C91.414 145.863 94.5802 138.929 95.6395 134.103L96.0644 134.197C94.9993 139.07 91.8097 146.051 91.7748 146.122Z" fill="#ED9400"/>
<path d="M83.7602 144.744L83.3528 144.591C83.3702 144.544 85.128 139.771 87.5318 135.544L87.9101 135.762C85.5238 139.959 83.7777 144.697 83.7602 144.744Z" fill="#ED9400"/>
<path d="M74.5175 149.118L74.0984 148.994C74.1275 148.894 76.9154 139.129 77.6546 134.791L78.0853 134.868C77.3403 139.229 74.5407 149.024 74.5175 149.118Z" fill="#ED9400"/>
<path d="M70.059 147.316C70.0532 147.269 69.2907 142.584 67.7367 138.475L68.1441 138.316C69.7156 142.472 70.4839 147.198 70.4897 147.246L70.059 147.316Z" fill="#ED9400"/>
<path d="M42.482 145.715H184.522L183.999 151.054L41.9524 150.518L42.482 145.715Z" fill="#FFDFDA"/>
<path d="M51.7249 147.317C51.7249 147.317 59.6464 158.53 61.7592 159.601C63.872 160.666 159.71 161.202 162.877 159.601C166.043 158 171.852 149.454 171.852 149.454L51.7249 147.317Z" fill="#FFDFDA"/>
<path d="M54.0821 150.566L170.757 151.007C171.427 150.077 171.852 149.454 171.852 149.454L51.7249 147.317C51.7249 147.317 52.7143 148.718 54.0821 150.566Z" fill="#EDB9B6"/>
<path d="M55.0598 116.797L77.8931 89.3028L72.0029 62.9391L45.2991 59.0366L20.6323 87.5723L55.0598 116.797Z" fill="#810B00"/>
<path d="M43.4133 91.0632C43.0525 90.816 42.8022 90.5453 42.6741 90.404C42.645 90.3687 42.6218 90.3451 42.6101 90.3334C42.4646 90.2039 41.7429 89.5093 41.6672 88.2556C41.5857 86.9194 42.2493 85.4479 43.6403 83.8822C46.8706 80.2446 48.4596 80.2799 50.2988 81.6102C51.0846 82.1811 51.5153 82.8522 51.6142 83.6585C51.783 85.0653 50.9507 86.8488 49.0707 89.1032C47.7146 90.7277 46.3934 91.5694 45.1478 91.5989C44.4202 91.6106 43.8382 91.3516 43.4133 91.0632ZM49.7925 81.8633C48.477 80.9627 47.1209 80.7096 44.007 84.2177C42.7091 85.6775 42.0863 87.0254 42.1619 88.2261C42.226 89.3033 42.8662 89.8919 42.9361 89.9566C42.9593 89.9743 42.9943 90.0155 43.0408 90.0626C43.3086 90.351 44.0128 91.1221 45.1303 91.0927C46.2304 91.0632 47.4294 90.2863 48.6866 88.7735C50.4502 86.6604 51.2708 84.9594 51.1195 83.7174C51.038 83.0523 50.683 82.5108 50.0078 82.0163C49.938 81.9634 49.8623 81.9104 49.7925 81.8633Z" fill="white"/>
<path d="M45.0722 91.8873C44.4319 91.8873 43.8208 91.693 43.2504 91.3046C42.8604 91.0397 42.5869 90.7454 42.4588 90.6041L42.4064 90.5511C42.2551 90.4158 41.4519 89.6447 41.3704 88.2732C41.2831 86.8547 41.9699 85.3125 43.4192 83.688C46.7892 79.8974 48.4946 79.9503 50.4677 81.3748C51.3233 81.9987 51.7947 82.7344 51.8995 83.6232C52.0799 85.1183 51.2243 86.9724 49.2861 89.2915C47.8718 90.9867 46.4807 91.8578 45.1478 91.8932C45.1246 91.8873 45.0955 91.8873 45.0722 91.8873ZM48.2385 81.5808C47.3363 81.5808 46.1489 82.2459 44.2224 84.412C42.9768 85.8128 42.3832 87.0901 42.4472 88.2026C42.5054 89.162 43.0583 89.6741 43.1224 89.733C43.1515 89.7565 43.1922 89.8036 43.2504 89.8625C43.489 90.1273 44.1351 90.8396 45.1187 90.7984C46.1315 90.7748 47.2548 90.0273 48.4596 88.5852C50.1708 86.5368 50.9682 84.9123 50.8227 83.7527C50.7529 83.1759 50.4386 82.6991 49.8274 82.2577C49.7576 82.2047 49.6877 82.1576 49.6179 82.1105C49.2046 81.8162 48.7681 81.5808 48.2385 81.5808Z" fill="white"/>
<path d="M47.6853 94.5711C47.7842 94.3239 51.9225 89.4973 54.3787 86.6426C54.466 86.5366 54.629 86.5249 54.728 86.619L59.1864 90.5392L58.8604 90.9159L54.5941 87.1605C52.0389 90.133 48.3255 94.4887 48.1393 94.7889L47.6853 94.5711Z" fill="white"/>
<path d="M48.2442 95.1595L47.313 94.7181L47.4178 94.4591C47.4585 94.359 47.5516 94.1353 54.1577 86.4481C54.2509 86.3363 54.3906 86.2715 54.5361 86.2598C54.6758 86.2539 54.8213 86.301 54.926 86.3952L59.5998 90.5036L58.8897 91.3277L54.6234 87.5724C51.6957 90.9863 48.5585 94.671 48.3839 94.9417L48.2442 95.1595Z" fill="white"/>
<path d="M51.5274 90.6043L51.2028 90.9819L54.7169 94.0714L55.0415 93.6938L51.5274 90.6043Z" fill="white"/>
<path d="M51.499 90.1884L50.7925 91.0103L54.7459 94.4859L55.4523 93.6641L51.499 90.1884Z" fill="white"/>
<path d="M54.152 100.257C54.2509 100.01 58.3892 95.1832 60.8454 92.3284C60.8861 92.2755 60.9502 92.246 61.0142 92.2402C61.0782 92.2343 61.1481 92.2578 61.1946 92.299L65.653 96.2191L65.3271 96.5959L61.0608 92.8405C58.5056 95.813 54.7922 100.169 54.606 100.469L54.152 100.257Z" fill="white"/>
<path d="M54.7108 100.846L53.7795 100.404L53.8843 100.145C53.9251 100.045 54.0182 99.8215 60.6243 92.1343C60.7174 92.0284 60.8513 91.9577 60.991 91.946C61.1365 91.9342 61.282 91.9872 61.3868 92.0813L66.0605 96.1898L65.3504 97.0139L61.0841 93.2586C58.1565 96.6725 55.0193 100.357 54.8505 100.628L54.7108 100.846Z" fill="white"/>
<path d="M57.9834 96.2801L57.6588 96.6577L61.1729 99.7467L61.4975 99.3691L57.9834 96.2801Z" fill="white"/>
<path d="M57.9647 95.8661L57.2583 96.688L61.2122 100.163L61.9186 99.3412L57.9647 95.8661Z" fill="white"/>
<path d="M35.8702 82.994C35.6898 82.8704 35.5152 82.7291 35.3347 82.5702C34.8284 82.117 33.2801 80.463 34.7993 78.3557L35.2009 78.6501C33.9669 80.3629 35.1136 81.699 35.6607 82.1935C36.5221 82.9645 37.3311 83.2118 38.2158 82.9763C39.0831 82.7468 39.537 81.8109 39.4032 80.5336C39.345 80.0156 39.054 79.4094 38.7455 78.7619C38.2275 77.6906 37.6454 76.4781 38.1285 75.4245C38.3846 74.8712 38.8153 74.1178 39.6302 73.9353C40.3403 73.7764 41.19 74.106 42.1504 74.9124C42.9245 75.5599 43.3203 76.2662 43.3377 77.0196C43.361 78.1203 42.5462 78.8796 42.5113 78.909L42.1795 78.5382C42.1853 78.5323 42.8663 77.8966 42.843 77.0255C42.8314 76.431 42.488 75.8483 41.8361 75.3009C40.998 74.5945 40.2937 74.3061 39.7408 74.4297C39.2868 74.5357 38.9143 74.9183 38.5825 75.6423C38.1925 76.4781 38.7047 77.5258 39.1936 78.5441C39.5254 79.2269 39.8339 79.8744 39.9037 80.4806C40.0667 81.9992 39.4556 83.1706 38.3497 83.4649C37.4825 83.7003 36.6792 83.5473 35.8702 82.994Z" fill="white"/>
<path d="M37.5813 83.8644C36.9411 83.8644 36.3241 83.6584 35.713 83.2405C35.5268 83.111 35.3347 82.9639 35.1484 82.7932C34.0018 81.769 33.251 80.0208 34.5722 78.1844L34.741 77.9489L35.6141 78.5905L35.4453 78.826C34.3918 80.2916 35.2532 81.4276 35.8643 81.975C36.6559 82.6872 37.366 82.905 38.1517 82.699C38.8735 82.5047 39.246 81.6925 39.1237 80.5741C39.0714 80.1091 38.792 79.5205 38.4893 78.9025C37.9422 77.7723 37.3252 76.4892 37.8724 75.312C38.1517 74.7057 38.6348 73.8758 39.5777 73.6639C40.3809 73.4814 41.3122 73.8287 42.3482 74.6998C43.1864 75.4061 43.6229 76.189 43.6404 77.0248C43.6636 78.2315 42.8139 79.0496 42.7149 79.1379L42.4996 79.338L41.772 78.5258L41.9932 78.3315C41.9932 78.3315 42.5752 77.7723 42.5578 77.0484C42.5461 76.5422 42.2435 76.036 41.6556 75.5415C40.899 74.9117 40.2645 74.6233 39.8105 74.7292C39.4497 74.8116 39.147 75.1413 38.8502 75.777C38.5242 76.4833 38.9957 77.4722 39.4555 78.4257C39.7989 79.1379 40.119 79.803 40.1947 80.4623C40.3751 82.1339 39.6767 83.4289 38.4253 83.7585C38.1343 83.8291 37.8549 83.8644 37.5813 83.8644Z" fill="white"/>
<path d="M35.3972 82.2657L34.3284 83.3408L34.6773 83.6955L35.7461 82.6205L35.3972 82.2657Z" fill="white"/>
<path d="M35.3945 81.8577L33.9128 83.3477L34.6721 84.1198L36.1537 82.6299L35.3945 81.8577Z" fill="white"/>
<path d="M43.0542 73.5212L41.8081 74.9448L42.1786 75.2764L43.4246 73.8528L43.0542 73.5212Z" fill="white"/>
<path d="M43.0318 73.1019L41.4005 74.9668L42.207 75.6883L43.8383 73.8234L43.0318 73.1019Z" fill="white"/>
<path d="M64.9429 71.3211C64.9429 71.0798 64.9254 65.3879 69.506 62.4037C74.1041 59.4077 81.5251 60.2965 91.5536 65.0466C97.7057 67.9602 102.787 68.1603 106.663 65.6352C111.197 62.6862 113.299 56.4882 114.259 51.8029C115.312 46.6938 115.277 42.2321 115.277 42.1909L115.859 42.1851C115.859 42.2321 115.894 46.7468 114.835 51.9147C113.846 56.7119 111.686 63.0747 106.983 66.1355C102.927 68.7783 97.6534 68.59 91.3092 65.5881C81.4727 60.9322 74.2496 60.0257 69.8262 62.904C65.5191 65.7058 65.5249 71.2681 65.5249 71.3211H64.9429Z" fill="#810B00"/>
<path d="M209.946 160.054H19.4916V160.642H209.946V160.054Z" fill="#D59394"/>
<path d="M64.4075 74.0114C62.8243 74.0114 62.2015 73.158 61.9571 72.5693C61.3925 71.2038 62.0502 69.3732 62.9698 68.7787C63.8836 68.1842 65.2689 68.2431 66.3456 68.92C67.2769 69.5086 67.7425 70.415 67.6261 71.4157C67.3642 73.6583 65.8858 73.8466 65.653 73.8584C65.1816 73.9702 64.7683 74.0114 64.4075 74.0114ZM64.4482 68.814C63.9884 68.814 63.546 68.9259 63.2026 69.1495C62.4285 69.6557 61.8814 71.2568 62.3529 72.4045C62.7778 73.4346 63.9244 73.7995 65.5715 73.4287L65.6181 73.4228C65.6821 73.4228 66.951 73.3757 67.1896 71.3686C67.2885 70.5445 66.8928 69.7911 66.1128 69.2967C65.6123 68.9788 65.0128 68.814 64.4482 68.814Z" fill="white"/>
<path d="M114.585 43.5208C110.051 43.5208 104.067 40.4777 102.717 37.2169C102.251 36.0926 102.118 34.4445 104.131 32.973C105.191 32.196 106.343 31.9724 107.548 32.3079C112.158 33.5852 116.092 42.6085 116.255 42.997C116.29 43.0794 116.284 43.1736 116.244 43.256C116.203 43.3384 116.127 43.3913 116.034 43.409C115.574 43.4796 115.085 43.5208 114.585 43.5208ZM106.471 32.7434C105.779 32.7434 105.115 32.9789 104.469 33.4498C103.101 34.4504 102.694 35.6394 103.253 36.9932C104.632 40.3188 111.157 43.3972 115.557 42.8793C114.777 41.1841 111.238 33.9442 107.391 32.8788C107.077 32.7905 106.768 32.7434 106.471 32.7434Z" fill="#810B00"/>
<path d="M116.063 43.4211C115.982 43.4211 115.9 43.3858 115.842 43.3211C115.784 43.2563 115.76 43.1621 115.778 43.0738C116.849 37.2349 125.061 28.3234 131.679 27.5464C134.607 27.205 136.813 28.5411 138.076 31.4194C138.873 33.2382 138.815 34.9158 137.901 36.399C134.112 42.5676 116.814 43.3917 116.081 43.4211C116.069 43.4211 116.063 43.4211 116.063 43.4211ZM132.57 28.082C132.302 28.082 132.028 28.0997 131.743 28.135C125.643 28.8531 117.728 37.2231 116.424 42.8207C119.002 42.6618 134.071 41.5199 137.401 36.0989C138.215 34.7745 138.262 33.3206 137.534 31.6666C136.498 29.2828 134.828 28.082 132.57 28.082Z" fill="#810B00"/>
<path d="M127.686 54.9228C125.894 54.9228 123.798 54.6403 121.918 53.9516C118.525 52.7097 114.707 49.8196 115.784 43.0859L116.36 43.1801C115.184 50.52 120.265 52.9804 123.397 53.7986C127.407 54.8404 131.254 54.1047 131.476 53.5808C131.47 53.5808 131.458 53.5573 131.429 53.5337L131.813 53.0923C132.069 53.3218 132.133 53.6161 131.982 53.881C131.615 54.499 129.875 54.9228 127.686 54.9228Z" fill="#810B00"/>
</svg>
