<svg width="215" height="165" viewBox="0 0 215 165" fill="none" xmlns="http://www.w3.org/2000/svg">
<path d="M20.5347 81.1572C-35.8626 53.4589 39.1345 -19.1899 63.9972 4.7731C93.2973 36.3809 144.549 -17.8762 171.19 13.1459C195.486 41.4141 169.081 58.3021 198.145 69.4448C241.828 82.2335 190.561 149.501 157.736 158.903C136.13 158.744 73.6747 159.615 25.1925 157.985C-1.8574 126.44 65.4921 103.237 20.5347 81.1572Z" fill="#FFF6F5"/>
<path d="M106.218 38.1304C106.218 38.1304 106.598 40.1483 106.056 41.021C105.513 41.8936 103.453 44.8933 103.073 47.0203C102.694 49.1473 101.393 71.6721 101.881 72.4356C102.531 73.4174 115.924 74.3991 117.551 73.6901C118.419 73.3083 119.557 47.5111 119.503 46.4749C119.449 45.4386 117.334 42.9298 117.171 41.5118C117.009 40.0938 117.226 38.7303 117.226 38.7303L106.218 38.1304Z" fill="#E3F4F7"/>
<path d="M105.026 33.9303C104.646 34.0394 104.646 37.639 104.917 37.8572C105.188 38.0753 117.497 38.948 118.039 38.7843C118.69 38.5662 118.798 35.1302 118.581 34.912C118.31 34.6939 105.242 33.8758 105.026 33.9303Z" fill="#345848"/>
<path d="M106.923 39.4932C106.977 39.8204 106.598 41.7293 106.001 42.711C105.351 43.6927 104.049 45.6016 103.832 46.7469C103.561 47.8922 102.151 69.5444 103.019 70.0898C103.887 70.6352 115.87 72.435 116.575 71.835C117.28 71.2351 118.744 47.8377 118.527 46.5833C118.364 45.6016 116.466 43.0928 116.466 42.2747C116.466 41.402 116.575 40.584 116.521 40.2567C116.466 39.8749 106.923 39.4932 106.923 39.4932Z" fill="#E5BBB7"/>
<path d="M110.123 34.748C109.96 35.5661 109.309 41.7291 109.797 42.0563C110.285 42.3836 112.834 42.6017 113.051 42.1109C113.268 41.62 113.593 34.8026 113.593 34.8026L110.123 34.748Z" fill="#63796D"/>
<path d="M113.593 34.8571L110.068 34.748C109.96 35.1298 109.797 36.7115 109.688 38.3477C110.881 38.4567 112.183 38.5113 113.376 38.6204C113.538 36.7115 113.593 34.8571 113.593 34.8571Z" fill="#24372B"/>
<path d="M140.27 41.2368C137.884 41.1277 137.234 41.4004 135.824 43.6911C134.468 46.0363 130.944 78.6508 132.082 79.5235C133.221 80.3961 133.818 79.9052 134.251 79.4689C134.685 78.9781 144.391 52.1992 144.933 49.4177C145.476 46.6362 144.825 43.2002 143.361 42.273C141.843 41.3459 140.27 41.2368 140.27 41.2368Z" fill="#E1833B"/>
<path d="M119.72 38.0743L124.112 43.1465C124.112 43.1465 125.143 42.2193 125.034 41.9466C124.926 41.6739 121.51 37.4198 121.13 37.2017C120.75 36.9835 119.558 37.7471 119.72 38.0743Z" stroke="#345848" stroke-width="0.455137" stroke-miterlimit="10"/>
<path d="M121.727 32.2924C122.269 32.1288 123.245 31.6924 123.407 32.0742C123.57 32.5105 125.631 39.8734 125.197 40.146C124.763 40.4187 123.679 40.2551 123.462 39.9824C123.299 39.7643 121.727 32.2924 121.727 32.2924Z" stroke="#345848" stroke-width="0.455137" stroke-miterlimit="10"/>
<path d="M138.97 33.3296C138.482 34.0932 138.59 42.4377 139.078 42.7104C139.566 42.9831 140.379 42.4922 140.379 42.4922C140.379 42.4922 140.976 33.8205 140.651 33.4387C140.325 33.0569 139.186 33.0024 138.97 33.3296Z" stroke="#345848" stroke-width="0.455137" stroke-miterlimit="10"/>
<path d="M144.772 36.6567C144.446 37.2567 141.518 42.4379 141.735 42.7106C141.952 42.9833 142.874 43.4196 142.874 43.4196C142.874 43.4196 146.452 37.8021 146.181 37.3112C145.91 36.8204 144.772 36.6567 144.772 36.6567Z" stroke="#345848" stroke-width="0.455137" stroke-miterlimit="10"/>
<path d="M124.113 39.2738C122.106 39.8737 120.914 42.328 120.751 44.1278C120.588 45.9276 127.42 60.5987 129.101 64.1983C130.728 67.7979 135.12 79.4693 136.909 79.633C138.699 79.7966 132.246 44.455 130.891 42.2735C129.535 40.0919 127.203 38.4012 124.113 39.2738Z" fill="#E1833B"/>
<path d="M124.871 46.8002C125.142 46.4185 131.541 44.6187 131.541 44.6187" stroke="#EAAC81" stroke-width="0.455137" stroke-miterlimit="10"/>
<path d="M124.059 52.7989L130.023 51.2173" stroke="#EAAC81" stroke-width="0.455137" stroke-miterlimit="10"/>
<path d="M130.293 55.9086L133.709 54.9814" stroke="#EAAC81" stroke-width="0.455137" stroke-miterlimit="10"/>
<path d="M135.12 47.6724L141.844 49.3085" stroke="#EAAC81" stroke-width="0.455137" stroke-miterlimit="10"/>
<path d="M138.915 51.8726L143.849 53.0724" stroke="#EAAC81" stroke-width="0.455137" stroke-miterlimit="10"/>
<path d="M133.764 55.1997L139.674 56.7814" stroke="#EAAC81" stroke-width="0.455137" stroke-miterlimit="10"/>
<path d="M150.031 44.4009C150.031 44.4009 149.869 45.8189 149.272 45.9825C148.676 46.1461 146.127 46.5279 145.585 47.5642C145.043 48.6004 139.783 61.4172 139.62 62.4534C139.512 63.4897 140.217 65.5076 141.301 66.2166C142.386 66.9257 157.622 72.8159 158.707 73.1977C159.737 73.5795 162.231 72.3796 162.882 71.3979C163.533 70.4162 168.142 57.9812 168.304 56.8359C168.467 55.6905 166.678 53.3453 166.895 52.7454C167.112 52.1455 167.545 51.0001 167.545 51.0001L150.031 44.4009Z" fill="#528C8F"/>
<path d="M144.012 49.9653L167.87 59.0734L164.563 67.7452L140.759 58.8007L144.012 49.9653Z" stroke="white" stroke-width="0.455137" stroke-miterlimit="10"/>
<path d="M150.194 39.8746C149.76 39.8201 148.621 43.5288 148.73 43.7469C148.838 43.9651 167.925 51.2734 168.359 51.1097C168.738 51.0007 170.419 47.5647 170.256 47.2374C170.094 46.9102 151.061 39.9292 150.194 39.8746Z" stroke="#3B646E" stroke-width="0.455137" stroke-miterlimit="10"/>
<path d="M148.405 44.5107C148.731 44.5653 168.088 52.0917 168.088 52.0917" stroke="white" stroke-width="0.455137" stroke-miterlimit="10"/>
<path d="M101.338 47.6739C98.7357 48.4374 86.3728 127.247 87.8368 128.665C89.3008 130.083 156.483 139.191 157.676 136.573C158.869 133.955 171.937 57.9273 169.443 55.9093C168.304 54.9822 164.291 56.6729 162.99 56.4547C162.014 56.2911 159.845 54.0005 158.978 53.8368C158.11 53.7278 155.995 55.473 154.802 55.3094C153.555 55.1458 151.82 52.6915 151.007 52.7461C150.193 52.8006 147.97 54.2732 146.723 54.1095C145.422 53.9459 143.795 51.4916 142.928 51.4916C142.06 51.4371 139.349 53.1824 138.752 53.0188C138.156 52.8551 135.716 50.7826 135.119 50.5645C134.577 50.3463 132.3 52.4734 130.998 52.3097C129.86 52.2007 127.474 49.5828 126.661 49.2555C125.901 48.9283 123.407 51.1099 122.269 51.0008C121.13 50.8372 119.666 48.3829 119.069 48.2738C118.473 48.2193 115.762 49.91 114.894 49.8009C113.593 49.6919 112.834 47.3467 111.695 47.183C110.177 46.9649 108.333 48.9283 107.086 48.7101C105.947 48.492 105.297 46.2013 104.483 46.0377C103.019 45.6559 101.61 47.5648 101.338 47.6739Z" fill="#8F7C6A"/>
<path d="M59.9113 47.5073L59.4775 87.1029L81.3295 87.7574L78.8352 47.5619L59.9113 47.5073Z" fill="#E3F4F7"/>
<path d="M79.8119 86.7221L89.789 81.5954L89.9517 48.6536L84.6378 41.7271L78.8359 47.5628L79.8119 86.7221Z" fill="#A9D7E0"/>
<path d="M66.5806 41.0176C66.5806 41.0176 59.2605 47.5078 60.1281 47.835C61.0499 48.1077 78.7809 47.5623 78.7809 47.5623C78.7809 47.5623 85.1792 41.4539 84.3658 41.2357C83.5525 41.0176 66.5806 41.0176 66.5806 41.0176Z" stroke="#74A3A5" stroke-width="0.455137" stroke-miterlimit="10"/>
<path d="M66.8516 41.0171L67.1227 37.9083L84.5283 37.4175L84.4199 41.2352" stroke="#74A3A5" stroke-width="0.455137" stroke-miterlimit="10"/>
<path d="M44.2412 62.7242C44.2412 62.7242 58.5019 90.9211 59.3695 91.4119C60.237 91.9028 76.5582 82.0857 76.5582 82.0857C76.5582 82.0857 62.1891 54.2161 61.3215 53.7797C60.4539 53.2889 44.2412 62.7242 44.2412 62.7242Z" fill="#528C8F"/>
<path d="M46.1943 63.8701L63.4915 54.1621" stroke="#3B646E" stroke-width="0.455137" stroke-miterlimit="10"/>
<path d="M47.4951 65.0698L64.2501 56.2344" stroke="#3B646E" stroke-width="0.455137" stroke-miterlimit="10"/>
<path d="M48.2002 66.7052L65.6601 57.9243" stroke="#3B646E" stroke-width="0.455137" stroke-miterlimit="10"/>
<path d="M55.3574 86.6675L72.6546 76.9595" stroke="#3B646E" stroke-width="0.455137" stroke-miterlimit="10"/>
<path d="M56.6592 87.9233L73.4141 79.0879" stroke="#3B646E" stroke-width="0.455137" stroke-miterlimit="10"/>
<path d="M57.1465 89.2852L74.6064 80.5044" stroke="#3B646E" stroke-width="0.455137" stroke-miterlimit="10"/>
<path d="M50.3145 74.7781C50.5313 74.3963 54.9776 66.8699 55.3572 66.6517C56.5501 65.9973 68.7503 66.8153 68.7503 66.8153L70.5939 70.524C70.5939 70.524 63.1111 79.0322 62.352 79.1413C60.9422 79.414 53.2967 79.6321 52.8629 79.3594C52.4292 79.0322 50.3145 74.7781 50.3145 74.7781Z" fill="#74A3A5"/>
<path d="M43.6992 62.2883L44.133 63.4881L62.1351 53.562L61.6471 52.4712C61.7013 52.5257 44.5668 61.7974 43.6992 62.2883Z" fill="#3B646E" fill-opacity="0.79"/>
<path d="M58.665 91.2482L59.0988 92.4481L77.1009 82.5219L76.6129 81.4312C76.6671 81.4857 59.5326 90.7574 58.665 91.2482Z" fill="#3B646E" fill-opacity="0.79"/>
<path opacity="0.84" d="M101.176 53.8368C104.158 55.0912 105.947 57.7091 106.923 60.8724C108.008 64.1993 107.845 67.4716 106.219 70.5804C104.538 73.7437 101.826 75.8162 98.4104 76.5252C94.0184 77.4523 90.4396 75.7071 87.3489 72.6529C86.156 71.453 85.4511 69.8168 85.3427 68.1261C85.2342 65.5082 85.18 62.7812 86.3729 60.3815C88.0538 57.0001 90.9819 55.3639 94.181 52.9642C94.9944 52.3642 95.1028 51.0553 95.1028 51.0553C95.7535 49.9099 96.4584 49.5282 97.4886 50.2372C97.5429 50.2372 98.5731 52.6915 101.176 53.8368Z" fill="#FF3008"/>
<path d="M75.7995 68.0714C76.6128 69.1076 77.7515 69.5439 78.836 70.0893C83.1738 72.2709 88.813 69.1621 89.6806 64.3081C90.1686 61.5812 89.5721 59.1269 87.8912 56.8908C86.1019 54.491 82.252 53.2912 79.3782 54.8183C77.4262 55.8545 76.179 57.5453 75.203 59.4541C75.203 59.4541 74.9319 60.5995 74.7692 60.8176C74.6065 61.0358 74.3896 63.0537 74.3896 63.0537C74.3896 63.0537 74.8234 66.8715 75.7995 68.0714Z" fill="#FF3008"/>
<path d="M86.4266 60.3261C85.2337 62.7258 85.2879 65.4528 85.3964 68.0707C85.3964 68.6706 85.5048 69.2705 85.7217 69.8705C87.728 68.7797 89.3547 66.7617 89.7342 64.362C90.168 61.9077 89.7342 59.6716 88.3786 57.5991C87.5653 58.3627 86.9146 59.2898 86.4266 60.3261Z" fill="#DA260D"/>
<path d="M95.428 50.8911C95.1569 50.2366 93.8013 49.5821 93.3133 48.9822C93.2049 48.8731 93.1506 48.7641 93.2049 48.655C93.2591 48.4368 93.6929 48.3277 94.0182 48.3823C94.3436 48.4368 94.6147 48.6004 94.8858 48.8186C95.1569 49.0368 95.6991 49.5276 96.1871 49.4185C96.5667 49.364 96.6751 48.8186 96.7294 48.6004C96.7836 48.3277 96.892 48.055 96.9463 47.7824C97.0005 47.6187 97.0547 47.4551 97.2174 47.4006C97.38 47.346 97.6512 47.346 97.8138 47.4551C97.9765 47.5642 98.0849 47.6733 98.1934 47.7824C98.3561 48.0005 98.4103 48.2732 98.3561 48.5459C98.3018 48.7641 98.1934 48.9822 98.0849 49.2004C97.9765 49.4185 98.0307 49.6912 98.3018 49.8548C98.5729 49.8003 98.7356 49.6367 98.9525 49.5276C99.1694 49.4185 99.4405 49.3095 99.7116 49.364C100.091 49.4185 100.254 49.8003 100.091 50.073C99.9285 50.2912 99.6032 50.4548 99.2778 50.6184C98.7356 50.8911 97.9223 51.1638 97.7596 51.6546C97.7054 51.6546 96.7294 54.1089 95.428 50.8911Z" fill="#345848"/>
<path d="M46.4644 68.2876C44.5666 69.3784 62.406 147.479 64.1411 148.406C65.8763 149.333 133.005 139.134 133.438 136.298C133.872 133.462 122.919 58.5251 121.292 56.5071C121.075 56.2344 118.31 56.0708 118.31 56.0708C118.31 56.0708 116.141 57.4888 114.948 57.9797C114.46 58.1433 111.858 56.8889 111.858 56.8889C111.858 56.8889 109.201 58.5796 108.496 58.7432C107.628 58.9614 105.676 57.9251 105.676 57.9251C105.676 57.9251 102.911 59.6159 102.314 59.7249C102.152 59.7249 99.7657 58.6887 99.4404 58.7432C98.7355 58.8523 97.8137 60.5976 96.7835 60.7612C96.0786 60.8703 93.8012 59.6704 93.8012 59.6704C93.8012 59.6704 91.578 61.4157 90.8189 61.5247C89.8971 61.6884 88.1078 60.5976 87.7282 60.5976C86.8606 60.5976 85.1255 62.6155 85.1255 62.6155L82.089 61.5247L78.4018 63.6518L74.2266 62.9973L70.6479 65.0698L67.1776 64.2517L64.1411 66.106C64.1411 66.106 61.7011 65.288 60.6166 65.4516C59.2068 65.7243 57.0379 67.7422 57.0379 67.7422C57.0379 67.7422 54.1641 66.6514 53.0796 66.8696C51.7782 67.1423 50.1515 68.6694 50.1515 68.6694C50.1515 68.6694 46.6813 68.1785 46.4644 68.2876Z" fill="#BFA48D"/>
<path d="M48.145 87.1584C46.8436 88.9036 58.0136 158.496 61.267 161.114C64.5746 163.732 152.741 164.223 155.398 161.55C158.001 158.932 169.822 88.031 168.954 86.2312C168.087 84.4314 49.4463 85.4131 48.145 87.1584Z" fill="#FF4F2D"/>
<path d="M57.3633 89.395C57.3633 89.395 66.2017 161.714 69.1839 163.241C71.2444 164.278 78.673 164.278 80.8419 163.078C83.3362 161.769 83.6073 89.395 83.6073 89.395" stroke="#FF6E52" stroke-width="0.910275" stroke-miterlimit="10"/>
<path d="M155.833 89.395C155.833 89.395 147.211 161.442 144.175 162.805C141.084 164.114 134.089 164.005 132.354 162.205C130.619 160.46 129.589 89.395 129.589 89.395" stroke="#FF6E52" stroke-width="0.910275" stroke-miterlimit="10"/>
<path d="M43.7533 84.5394C42.2893 86.1756 43.7533 90.866 44.6209 91.1387C45.4885 91.4114 170.419 90.866 171.124 90.2661C171.828 89.6661 172.75 84.3758 171.991 83.2305C171.34 82.0306 45.2173 82.9032 43.7533 84.5394Z" stroke="#FF6E52" stroke-width="0.910275" stroke-miterlimit="10"/>
<path d="M97.2178 95.8843L97.4347 107.665C97.4347 107.665 98.4649 107.937 98.5734 107.774C98.6818 107.61 98.5734 95.8843 98.5734 95.8843H97.2178V95.8843Z" fill="#24372B"/>
<path d="M107.357 95.8853L107.629 107.666C107.629 107.666 108.93 107.938 109.093 107.775C109.255 107.611 109.093 95.8853 109.093 95.8853H107.357V95.8853Z" fill="#24372B"/>
<path d="M102.966 95.8853L103.237 107.666C103.237 107.666 104.43 107.938 104.593 107.775C104.755 107.611 104.593 95.8853 104.593 95.8853H102.966V95.8853Z" fill="#24372B"/>
<path d="M118.148 107.829L117.877 96.0486C117.877 96.0486 116.684 95.7759 116.522 95.9395C116.359 96.1031 116.522 107.829 116.522 107.829H118.148V107.829Z" fill="#24372B"/>
<path d="M100.146 107.775L100.092 95.9943L99.6042 95.8853C99.6042 95.8853 99.55 107.666 99.6042 107.775C99.6042 107.884 100.146 107.775 100.146 107.775Z" fill="#24372B"/>
<path d="M115.654 107.775L115.6 95.9943L115.112 95.8853C115.112 95.8853 115.058 107.666 115.112 107.775C115.166 107.884 115.654 107.775 115.654 107.775Z" fill="#24372B"/>
<path d="M106.49 107.775L106.381 95.9943L105.676 95.8853C105.676 95.8853 105.622 107.666 105.676 107.775C105.731 107.884 106.49 107.775 106.49 107.775Z" fill="#24372B"/>
<path d="M112.888 107.775L112.78 95.9943L112.075 95.8853C112.075 95.8853 112.021 107.666 112.075 107.775C112.129 107.884 112.888 107.775 112.888 107.775Z" fill="#24372B"/>
<path d="M101.881 107.774L101.827 103.029V96.0483C101.827 96.0483 101.447 95.9392 101.339 95.9938C101.231 96.1029 101.393 101.83 101.393 101.83V107.774H101.881Z" fill="#24372B"/>
<path d="M114.407 107.774L114.352 103.029V96.0483C114.352 96.0483 113.973 95.9392 113.864 95.9938C113.756 96.1029 113.919 101.83 113.919 101.83V107.774H114.407Z" fill="#24372B"/>
<path d="M110.99 107.774L110.935 103.029V96.0483C110.935 96.0483 110.556 95.9392 110.447 95.9938C110.339 96.0483 110.502 101.83 110.502 101.83V107.774H110.99Z" fill="#24372B"/>
<path d="M101.989 110.065C102.043 110.011 102.043 109.956 102.098 109.956C102.098 109.902 102.152 109.847 102.152 109.847C102.152 109.683 102.152 109.574 102.043 109.465C101.989 109.356 101.881 109.302 101.772 109.302C101.718 109.247 101.61 109.247 101.555 109.247C101.501 109.247 101.393 109.302 101.339 109.302C101.176 109.356 101.067 109.465 101.013 109.629C100.959 109.683 100.959 109.738 101.013 109.847C101.067 109.956 101.122 110.065 101.176 110.174C101.067 110.283 100.959 110.392 100.905 110.556C100.851 110.72 100.851 110.829 100.959 110.938C101.013 110.992 101.067 111.047 101.122 111.101C101.23 111.156 101.339 111.21 101.501 111.21C101.718 111.21 101.935 111.156 102.098 110.938C102.26 110.72 102.315 110.556 102.152 110.338C102.098 110.229 102.043 110.12 101.989 110.065ZM101.501 109.629C101.61 109.629 101.664 109.683 101.664 109.738C101.664 109.847 101.61 109.902 101.501 109.902C101.393 109.902 101.339 109.847 101.339 109.792C101.393 109.738 101.447 109.629 101.501 109.629ZM101.61 110.72C101.555 110.774 101.447 110.72 101.393 110.665C101.339 110.665 101.339 110.611 101.339 110.556C101.339 110.447 101.447 110.338 101.555 110.338C101.664 110.338 101.718 110.392 101.718 110.501C101.664 110.556 101.664 110.665 101.61 110.72Z" fill="#24372B"/>
<path d="M107.954 109.629V109.574C107.9 109.411 107.792 109.302 107.683 109.247C107.629 109.247 107.575 109.193 107.575 109.193C107.412 109.138 107.249 109.138 107.087 109.247C106.978 109.302 106.924 109.411 106.816 109.52C106.653 109.738 106.599 109.956 106.599 110.229C106.599 110.392 106.653 110.556 106.761 110.665C106.816 110.72 106.87 110.774 106.924 110.829C107.032 110.992 107.195 111.047 107.412 111.047C107.575 111.047 107.737 110.938 107.846 110.829C107.9 110.774 107.954 110.72 108.008 110.665C108.117 110.502 108.171 110.338 108.117 110.174V110.12C108.063 109.956 108.008 109.792 107.954 109.629ZM107.575 110.447C107.52 110.556 107.466 110.611 107.358 110.611C107.304 110.611 107.249 110.611 107.195 110.556C107.087 110.502 107.032 110.392 107.032 110.283C106.978 110.12 106.978 109.956 107.032 109.792C107.032 109.683 107.141 109.629 107.195 109.574C107.195 109.574 107.195 109.574 107.249 109.574C107.304 109.574 107.412 109.574 107.466 109.574C107.575 109.574 107.575 109.683 107.629 109.738C107.683 109.847 107.683 109.902 107.683 109.956C107.629 110.174 107.629 110.338 107.575 110.447Z" fill="#24372B"/>
<path d="M114.84 109.738V109.683C114.786 109.52 114.677 109.411 114.569 109.356C114.515 109.356 114.46 109.301 114.46 109.301C114.298 109.247 114.135 109.247 113.972 109.356C113.864 109.411 113.81 109.52 113.701 109.629C113.539 109.847 113.484 110.065 113.484 110.338C113.484 110.501 113.539 110.665 113.647 110.774C113.701 110.829 113.755 110.883 113.81 110.938C113.918 111.101 114.081 111.156 114.298 111.156C114.46 111.156 114.623 111.047 114.732 110.938C114.786 110.883 114.84 110.829 114.894 110.774C115.003 110.61 115.057 110.447 115.003 110.283V110.229C114.894 110.01 114.894 109.847 114.84 109.738ZM114.46 110.501C114.406 110.61 114.352 110.665 114.243 110.665C114.189 110.665 114.135 110.665 114.081 110.61C113.972 110.556 113.918 110.447 113.918 110.338C113.864 110.174 113.864 110.01 113.918 109.847C113.918 109.738 114.027 109.683 114.081 109.629C114.081 109.629 114.081 109.629 114.135 109.629C114.189 109.629 114.298 109.629 114.352 109.629C114.46 109.629 114.46 109.738 114.515 109.792C114.569 109.901 114.569 109.956 114.569 110.01C114.515 110.229 114.515 110.392 114.46 110.501Z" fill="#24372B"/>
<path d="M117.335 110.283C117.335 110.228 117.335 110.228 117.28 110.228C117.226 110.228 117.226 110.228 117.172 110.228V110.174C117.172 110.01 117.172 109.901 117.172 109.738C117.172 109.629 117.172 109.519 117.172 109.41C117.172 109.356 117.172 109.356 117.118 109.301H117.063C117.009 109.301 116.955 109.301 116.847 109.301C116.792 109.301 116.738 109.301 116.684 109.356C116.63 109.41 116.63 109.41 116.575 109.465C116.521 109.574 116.413 109.683 116.304 109.792C116.25 109.901 116.142 109.956 116.087 110.065C116.033 110.119 116.033 110.174 115.979 110.228C115.925 110.283 115.925 110.338 115.925 110.392C115.925 110.501 115.925 110.556 115.925 110.665V110.719C115.979 110.719 115.979 110.774 116.033 110.774C116.196 110.774 116.304 110.774 116.467 110.774C116.521 110.774 116.63 110.774 116.684 110.774C116.738 110.774 116.738 110.774 116.738 110.828C116.738 110.883 116.738 110.937 116.738 110.992C116.738 111.047 116.792 111.101 116.847 111.101C116.901 111.101 116.955 111.101 117.009 111.101C117.172 111.101 117.172 111.101 117.172 110.937V110.883V110.828C117.226 110.828 117.28 110.828 117.335 110.774C117.389 110.774 117.389 110.774 117.389 110.665C117.335 110.501 117.335 110.392 117.335 110.283ZM116.359 110.283C116.467 110.119 116.575 110.01 116.684 109.847C116.684 109.956 116.684 110.119 116.684 110.228C116.575 110.283 116.467 110.283 116.359 110.283Z" fill="#24372B"/>
<path d="M104.971 110.065C104.917 110.01 104.809 109.956 104.754 109.901C104.646 109.847 104.537 109.847 104.429 109.847C104.375 109.847 104.321 109.847 104.266 109.847C104.266 109.792 104.266 109.738 104.266 109.683C104.321 109.683 104.375 109.683 104.429 109.683C104.592 109.683 104.754 109.683 104.917 109.683C104.971 109.683 104.971 109.683 104.971 109.629C104.971 109.519 104.971 109.41 104.971 109.356C104.971 109.301 104.917 109.301 104.917 109.301C104.863 109.301 104.809 109.301 104.754 109.301C104.592 109.301 104.429 109.301 104.266 109.301C104.158 109.301 104.049 109.301 103.941 109.301C103.887 109.301 103.887 109.301 103.833 109.301C103.833 109.519 103.833 109.738 103.833 109.956C103.833 110.065 103.833 110.174 103.833 110.283C103.833 110.392 103.887 110.392 103.941 110.392C103.941 110.392 103.941 110.392 103.995 110.392C104.104 110.338 104.158 110.338 104.266 110.283C104.375 110.228 104.483 110.228 104.537 110.338C104.592 110.392 104.646 110.447 104.592 110.556C104.537 110.774 104.321 110.828 104.212 110.774C104.158 110.719 104.104 110.719 103.995 110.665C103.941 110.665 103.941 110.665 103.887 110.665C103.778 110.774 103.778 110.883 103.67 110.992V111.047C103.724 111.101 103.778 111.101 103.833 111.156C103.887 111.156 103.941 111.21 103.941 111.21C104.104 111.265 104.212 111.265 104.375 111.265C104.537 111.265 104.646 111.21 104.754 111.101C104.917 110.937 105.026 110.774 104.971 110.556C105.08 110.283 105.026 110.174 104.971 110.065Z" fill="#24372B"/>
<path d="M99.4405 110.174C99.3863 110.011 99.2778 109.902 99.1151 109.847C99.0609 109.792 98.9525 109.792 98.8983 109.792C98.9525 109.738 98.9525 109.683 99.0067 109.629C99.0609 109.52 99.1151 109.411 99.2236 109.356C99.2778 109.302 99.2778 109.302 99.2236 109.247C99.1151 109.247 98.9525 109.247 98.844 109.247C98.844 109.302 98.844 109.302 98.7898 109.356C98.7356 109.465 98.6271 109.629 98.5729 109.738C98.4645 109.902 98.4102 110.065 98.3018 110.229C98.2476 110.338 98.1934 110.447 98.1934 110.611C98.1934 110.774 98.2476 110.883 98.3018 110.992C98.356 111.101 98.4645 111.156 98.5729 111.21H98.6271C98.7356 111.265 98.8983 111.265 99.0067 111.21C99.1151 111.156 99.2236 111.156 99.2778 111.047C99.332 110.992 99.332 110.938 99.3863 110.938C99.4947 110.774 99.5489 110.665 99.4947 110.447C99.4947 110.283 99.4947 110.229 99.4405 110.174ZM98.844 110.665C98.6814 110.665 98.5729 110.556 98.5729 110.447C98.5729 110.338 98.6814 110.174 98.7898 110.174C98.9525 110.174 99.0609 110.283 99.0609 110.392C99.0609 110.556 98.9525 110.665 98.844 110.665Z" fill="#24372B"/>
<path d="M112.183 109.356C111.966 109.356 111.803 109.356 111.587 109.356C111.478 109.356 111.37 109.356 111.315 109.356H111.261C111.207 109.356 111.207 109.356 111.207 109.41C111.207 109.52 111.207 109.574 111.207 109.683C111.207 109.738 111.207 109.738 111.261 109.738C111.478 109.738 111.641 109.738 111.858 109.738H111.912C111.858 109.847 111.803 109.901 111.803 110.01C111.695 110.229 111.587 110.501 111.478 110.719C111.424 110.829 111.37 110.938 111.37 111.047V111.101C111.532 111.101 111.641 111.101 111.749 111.101C111.804 110.992 111.858 110.883 111.912 110.774C112.02 110.61 112.075 110.392 112.183 110.229C112.292 110.065 112.346 109.901 112.454 109.683C112.454 109.629 112.508 109.574 112.508 109.52C112.508 109.465 112.508 109.41 112.454 109.356C112.346 109.356 112.346 109.356 112.183 109.356Z" fill="#24372B"/>
<path d="M109.635 109.52C109.635 109.411 109.635 109.356 109.58 109.247C109.472 109.247 109.363 109.192 109.309 109.356C109.201 109.411 109.147 109.52 108.984 109.52C108.93 109.52 108.93 109.52 108.93 109.574C108.93 109.629 108.93 109.738 108.93 109.792C109.038 109.847 109.092 109.792 109.201 109.792V109.847C109.201 110.065 109.201 110.229 109.201 110.447C109.201 110.61 109.201 110.72 109.201 110.883C109.201 110.938 109.201 110.992 109.201 111.047C109.201 111.101 109.201 111.101 109.255 111.101C109.363 111.101 109.472 111.101 109.58 111.101L109.635 111.047C109.635 110.992 109.635 110.938 109.635 110.938C109.635 110.829 109.635 110.72 109.635 110.556C109.635 110.447 109.635 110.338 109.635 110.174C109.689 109.956 109.689 109.738 109.635 109.52Z" fill="#24372B"/>
</svg>
