<svg width="230" height="164" viewBox="0 0 230 164" fill="none" xmlns="http://www.w3.org/2000/svg">
<g clip-path="url(#clip0_321_19503)">
<path d="M32.783 84.1037C-26.4194 60.6675 51.5044 -17.2622 76.7194 6.98727C106.447 38.9635 158.307 -15.7862 185.354 15.6026C210.018 44.205 183.284 61.2248 212.758 72.5212C257.037 85.5044 205.907 152.063 172.665 161.506C150.786 161.311 88.411 162.546 39.2767 160.844C11.8127 128.943 96.1408 109.182 32.783 84.1037Z" fill="#E6F5F8"/>
<path d="M98.8359 75.0365C98.8359 80.6546 99.2678 72.7471 95.0082 73.1086C90.7486 73.4701 86.9507 78.3802 86.5933 72.2802C86.2358 66.1802 89.8699 65.7434 89.0656 60.9236C88.4103 56.9172 88.5741 56.5858 82.6316 51.9016C76.4954 47.0818 79.5337 39.0539 82.9592 36.0415C86.7571 32.6978 88.4103 32.6225 88.4103 29.0227C88.4103 25.4229 87.6656 18.7506 90.555 15.9942C95.5742 11.2197 99.655 14.217 102.44 13.8253C111.853 12.4848 112.538 5.94802 118.287 5.31542C128.847 4.1406 126.821 12.0481 131.855 13.2681C137.604 14.6688 142.34 13.0873 145.036 17.6661C148.67 23.8414 142.325 26.6881 145.2 30.5289C148.343 34.701 149.981 32.8635 152.796 36.7042C155.923 40.9818 154.613 45.2141 151.977 48.5579C149.266 51.9769 146.421 51.6907 147.836 58.1522C149.251 64.6137 147.672 69.0871 141.074 71.256C137.023 72.5814 132.481 70.4125 130.336 72.9279C128.206 75.4432 127.134 79.0279 127.134 79.0279C127.134 79.0279 122.264 69.9908 119.062 72.5061C115.859 75.0215 113.03 82.2059 110.185 78.9676C107.355 75.7595 98.8359 73.6056 98.8359 75.0365Z" fill="#15231A"/>
<path d="M149.504 80.8045C148.878 84.4796 139.555 140.359 138.929 141.383C138.304 142.407 94.6802 133.702 94.6802 133.702C94.6802 133.702 84.9397 79.9911 84.7312 76.1052C84.5227 72.2193 85.8184 66.8874 85.8184 66.8874C85.8184 66.8874 92.5206 62.6399 98.3291 62.0827C99.4313 61.9772 102.514 63.0918 106.372 61.7513C107.444 61.3748 111.138 67.8513 114.682 67.8061C117.17 67.776 124.185 61.5555 124.974 61.5706C133.821 61.6157 134.014 61.3446 135.236 61.7814C137.902 62.7153 147.106 71.3607 147.106 71.3607L149.504 80.8045Z" fill="#EE0000"/>
<path d="M89.9738 161.762C89.9143 152.183 89.6462 143.492 90.3611 140.916C91.627 136.322 96.6909 130.373 96.6909 130.373L135.623 130.584C135.623 130.584 142.027 145.811 148.163 161.521C139.763 161.446 104.733 161.762 89.9738 161.762Z" fill="#21545B"/>
<path d="M159.438 118.791C158.813 110.507 150.815 79.2543 148.03 73.0036C145.96 68.3495 138.408 63.8611 138.408 63.8611L135.162 61.7524C135.162 61.7524 136.279 97.0573 139.377 117.993C140.285 124.199 141.342 129.214 142.549 131.79C148.894 145.345 159.438 118.791 159.438 118.791Z" fill="#EE0000"/>
<path d="M90.1827 109.785L94.9487 90.8074L96.8997 62.2954C90.5699 63.5907 85.8337 66.8893 85.8337 66.8893C85.8337 66.8893 84.538 72.2211 84.7465 76.1071C84.8656 78.3212 87.7252 95.4013 90.1827 109.785Z" fill="#D30202"/>
<path d="M141.402 65.8487C139.511 64.4028 137.545 63.0623 136.294 62.3092C135.489 61.8272 134.894 61.6465 134.894 61.6465C134.894 61.6465 136.279 97.0417 139.377 117.978C139.6 119.484 139.823 120.915 140.062 122.255C143.726 106.772 144.009 80.3984 144.441 77.9283C144.441 77.9132 142.058 66.7675 141.402 65.8487Z" fill="#D30202"/>
<path d="M128.296 61.2701C127.611 61.3906 124.14 60.8333 122.785 60.5773C121.862 60.4116 121.638 59.3271 121.638 59.3271C121.638 59.3271 121.713 49.6123 121.713 49.1905C121.713 48.7688 110.87 46.0577 107.921 41.3584C108.606 48.9345 108.845 54.5977 108.428 57.4143C108.115 59.4928 107.742 60.8936 107.742 60.8936C107.742 60.8936 104.168 61.4358 101.711 61.6768C100.415 61.7973 99.4169 61.9027 97.5403 62.2039C97.5403 62.2039 101.264 75.8499 112.494 76.121C123.723 76.3922 132.213 63.3486 132.213 63.3486L133.657 61.5412L128.296 61.2701Z" fill="#AA8E79"/>
<path d="M128.757 30.9208C128.34 29.4749 127.715 28.0139 126.061 27.0951C122.01 24.881 121.623 26.0106 117.066 27.4114C112.508 28.8121 112.627 28.1946 108.07 27.7277C105.717 27.4867 104.883 28.1344 104.093 30.5442C103.289 32.9391 103.944 43.4673 104.421 45.9073C104.898 48.3473 111.004 54.854 114.4 55.0498C120.327 55.4113 125.168 48.5732 126.732 45.9826C127.849 44.1149 129.844 34.7766 128.757 30.9208Z" fill="#B29780"/>
<path d="M145.587 63.5752L145.155 63.289C148.119 58.8006 149.251 54.7188 148.507 51.1492C147.792 47.6398 145.364 44.5822 141.104 41.7958C135.296 37.9852 137.336 32.2466 138.975 27.6377C139.764 25.4236 140.509 23.33 140.241 21.8389C138.811 13.9164 126.285 15.272 126.166 15.287L126.106 14.7599C126.136 14.7599 129.413 14.3833 132.809 15.046C137.381 15.9347 140.121 18.2391 140.747 21.7335C141.045 23.3601 140.27 25.514 139.451 27.8034C137.783 32.4725 135.906 37.7743 141.372 41.3439C145.766 44.2207 148.268 47.3837 149.013 51.0437C149.787 54.7339 148.626 58.9512 145.587 63.5752Z" fill="#345848"/>
<path d="M83.8527 64.3425L83.7186 63.8304C88.9314 62.3845 93.057 59.2215 93.9655 55.938C94.4421 54.221 94.0102 52.5792 92.6995 51.1785C91.3442 49.7325 86.9506 44.5513 87.2335 39.0387C87.4867 34.1586 92.5655 31.8391 97.3017 30.0468C100.876 28.6912 101.502 26.0253 102.112 23.4346C102.485 21.823 102.842 20.2867 103.885 19.142C109.395 13.0269 116.485 15.9941 116.559 16.0242L116.351 16.5062C116.276 16.4761 109.514 13.6445 104.257 19.4884C103.304 20.5428 102.961 22.0038 102.604 23.5551C101.993 26.1458 101.308 29.0828 97.4655 30.5287C91.7761 32.6826 87.9484 34.9569 87.725 39.0537C87.442 44.3705 91.7314 49.4012 93.0421 50.817C94.4868 52.3533 94.9634 54.1758 94.4272 56.0886C93.5038 59.598 89.3335 62.8363 83.8527 64.3425Z" fill="#345848"/>
<path d="M157.1 42.0825L156.578 42.0072C157.144 37.9706 156.489 35.1992 154.419 33.0454C152.631 31.1777 149.459 29.8222 147.568 29.0088L147.776 28.5269C149.712 29.3553 152.944 30.7409 154.791 32.6839C156.951 34.9432 157.695 37.9254 157.1 42.0825Z" fill="#24372B"/>
<path d="M111.019 82.5687C103.334 82.5687 98.6571 75.2637 98.6124 75.1884L99.0592 74.9022C99.1039 74.9775 103.825 82.3277 111.51 82.0265C120.387 81.6499 129.234 76.1222 136.413 66.4375L136.83 66.7538C129.562 76.559 120.581 82.1771 111.54 82.5536C111.361 82.5536 111.198 82.5687 111.019 82.5687Z" fill="#A00505"/>
<path d="M135.638 130.569L96.7057 130.358C96.7057 130.358 95.7525 131.473 94.5908 133.1C94.6653 133.491 94.6951 133.702 94.6951 133.702C94.6951 133.702 138.304 142.408 138.944 141.384C139.004 141.278 139.168 140.6 139.391 139.486C137.127 134.079 135.638 130.569 135.638 130.569Z" fill="#D30202"/>
<path d="M31.7842 92.4187C29.1778 91.5451 19.6756 87.6441 17.5011 87.9755C15.6096 89.1051 14.8054 93.9701 17.8139 97.9464C21.5671 102.902 34.8076 107.526 34.8076 107.526L31.7842 92.4187Z" fill="#B59B88"/>
<path d="M87.6204 89.0443C90.1225 86.6646 98.8502 77.1455 101.501 76.3623C104.242 76.6485 107.712 81.7544 106.372 87.8846C104.703 95.536 92.1183 107.872 92.1183 107.872L87.6204 89.0443Z" fill="#B59B88"/>
<path d="M31.6651 108.234C30.98 107.978 21.4332 104.694 19.2587 105.041C17.3672 106.17 16.5629 111.035 19.5715 115.012C23.3247 119.967 36.5652 124.591 36.5652 124.591L31.6651 108.234Z" fill="#B59B88"/>
<path d="M34.7931 125.977C34.4803 125.977 24.5462 129.893 24.3675 130.736C24.1888 131.58 27.5845 138.885 37.0271 139.668C36.1186 135.179 34.7931 125.977 34.7931 125.977Z" fill="#B59B88"/>
<path d="M26.4812 19.5345L33.4068 135.119C33.9727 142.107 38.6196 145.542 43.0728 145.692L88.4688 142.8C94.456 142.499 99.2667 138.749 98.9241 132.679L92.0432 15.3624C91.7007 9.33769 86.8007 5.12038 80.873 5.51199L35.8345 8.34361C29.8174 8.70509 26.1089 13.4194 26.4812 19.5345Z" fill="#3F737D"/>
<path d="M42.1645 11.9589C42.1645 11.9589 42.9092 17.0046 47.0496 17.0046C49.4922 17.0046 62.1816 16.0105 64.9816 15.8599C67.7817 15.6942 73.0987 15.5135 74.171 14.2483C75.6306 12.5312 74.32 10.6485 75.303 10.272C76.1221 9.95566 83.3902 9.03689 85.52 10.6334C87.7392 12.3053 88.3945 14.5344 88.5435 18.5409C88.6924 22.6076 94.2626 115.795 94.3222 121.036C94.3818 126.263 95.0669 131.083 94.8733 132.348C94.6052 134.11 93.7265 137.484 89.3328 138.222C84.9243 138.945 47.1241 140.617 44.339 140.978C40.6751 141.46 36.8921 138.583 36.9368 135.014C36.9815 131.444 30.1751 24.2192 30.0113 21.1466C29.8325 18.0589 29.9964 14.0073 34.8517 12.9228C39.2453 11.9589 42.1645 11.9589 42.1645 11.9589Z" fill="white"/>
<path d="M56.12 137.379L56.0753 136.716L78.2818 135.149L78.3414 135.812L56.12 137.379Z" fill="#C7C6B5"/>
<path d="M49.3285 13.0582C48.7327 13.0883 48.9859 13.8715 49.4476 13.9468C49.9093 14.0222 65.6371 12.772 66.1732 12.6967C66.7094 12.6214 66.7839 12.0792 66.1137 11.9286C65.5626 11.8231 50.6987 12.998 49.3285 13.0582Z" fill="#22545B"/>
<path d="M70.0153 11.5077C69.7919 11.6734 69.8366 12.1855 70.0302 12.3813C70.2387 12.5771 70.8047 12.4867 70.8643 12.0349C70.9536 11.5378 70.3728 11.2517 70.0153 11.5077Z" fill="#22545B"/>
<path d="M52.1141 23.7963C52.5609 24.5645 52.4716 25.1067 53.1865 25.7092C53.8865 26.3267 54.3184 26.6882 54.7056 26.658C55.0929 26.6279 57.5652 26.1761 59.0099 26.0556C60.4546 25.9501 61.6312 25.8598 61.8099 26.5074C61.9887 27.1551 62.0184 27.5618 60.9759 27.7726C59.9333 27.9835 57.6993 28.0287 57.312 28.1943C56.9248 28.36 55.4801 28.3299 56.1801 28.9474C56.8801 29.565 58.4588 31.1163 58.8759 31.041C59.561 30.9205 62.1078 30.7097 63.0163 30.5591C64.5504 30.303 65.6674 27.622 65.4738 26.3719C65.2802 25.1217 63.9099 23.0281 62.4504 22.998C60.9908 22.9679 56.8057 23.2993 55.8822 23.3746C54.9886 23.4499 52.1141 23.7963 52.1141 23.7963Z" fill="#FF1700"/>
<path d="M83.1376 106.953C82.3333 107.887 27.6586 110.628 27.6586 110.628C27.6586 110.628 27.7032 78.6219 28.5075 78.1249C29.0586 77.7935 51.8161 76.197 68.0354 75.218C75.5269 74.7661 83.2865 74.1184 83.9716 74.4498C84.6716 74.7812 83.4652 106.577 83.1376 106.953Z" fill="#5D7A6C"/>
<path d="M56.5675 102.977C51.2653 102.977 47.0951 98.9552 46.7376 93.3673C46.544 90.4603 47.3632 87.689 49.0164 85.5653C50.6845 83.4114 53.0526 82.1312 55.6887 81.9504C58.4292 81.7697 61.0505 82.6734 63.0611 84.4808C65.0271 86.2581 66.1888 88.7734 66.3228 91.5448C66.6058 97.5846 62.6292 102.6 57.2675 102.947C57.0292 102.977 56.7909 102.977 56.5675 102.977ZM55.6887 82.1764L55.7036 82.4023C53.2015 82.568 50.9377 83.788 49.344 85.8364C47.7504 87.8848 46.9759 90.5507 47.1696 93.3372C47.527 98.91 51.8611 102.871 57.2228 102.51C62.3313 102.178 66.1292 97.3737 65.8611 91.5749C65.742 88.9241 64.6398 86.5292 62.7483 84.8272C60.8271 83.0951 58.3249 82.2366 55.7036 82.4023L55.6887 82.1764Z" fill="#345848"/>
<path d="M0.224828 89.0292C0.105679 89.0292 0.0163165 88.9388 0.00142284 88.8183C-0.0134708 88.6978 0.0907851 88.5924 0.209935 88.5773L28.5228 86.6494C28.6569 86.6645 28.7462 86.7398 28.7611 86.8603C28.776 86.9808 28.6718 87.0862 28.5526 87.1013L0.239722 89.0292H0.224828Z" fill="#24372B"/>
<path d="M3.79961 106.743C3.68046 106.743 3.5911 106.652 3.5762 106.532C3.56131 106.411 3.65067 106.306 3.78471 106.291L29.7593 104.182C29.8934 104.182 29.9827 104.257 29.9976 104.393C30.0125 104.513 29.9231 104.619 29.7891 104.634L3.8145 106.743C3.8145 106.743 3.8145 106.743 3.79961 106.743Z" fill="#24372B"/>
<path d="M7.92473 97.5844C7.80558 97.5844 7.71622 97.4941 7.70133 97.3736C7.68643 97.2531 7.77579 97.1476 7.90984 97.1326L29.0291 95.4155C29.1631 95.4155 29.2674 95.4908 29.2674 95.6264C29.2823 95.7469 29.1929 95.8523 29.0589 95.8674L7.93962 97.5844C7.92473 97.5844 7.92473 97.5844 7.92473 97.5844Z" fill="#24372B"/>
<path d="M38.9486 107.315C38.889 107.315 38.8294 107.284 38.7847 107.239C38.7401 107.194 38.7252 107.119 38.7252 107.043C38.7252 107.028 39.0975 104.875 37.4741 103.218C35.8358 101.531 33.006 101.516 32.9911 101.531C32.9315 101.531 32.872 101.501 32.8273 101.471C32.7826 101.44 32.7677 101.365 32.7677 101.305L33.0209 86.1226C33.0209 86.0624 33.0507 86.0021 33.0954 85.957C33.14 85.9118 33.1996 85.8967 33.2592 85.8967C33.2741 85.8967 36.1784 85.9419 37.7422 84.27C39.0528 82.8693 39.306 80.2787 39.306 80.2636C39.3209 80.1582 39.4103 80.0678 39.5145 80.0527L75.0062 77.7935C75.0658 77.7935 75.1402 77.8085 75.1849 77.8688C75.2296 77.914 75.2594 77.9893 75.2445 78.0495C75.2445 78.0796 74.9466 80.7305 76.5105 82.4626C77.5977 83.6676 79.2211 84.3152 79.236 84.3303C79.3254 84.3604 79.3849 84.4508 79.3849 84.5411L78.9679 98.3076C78.9679 98.3679 78.9381 98.4281 78.8935 98.4733C78.8488 98.5185 78.7892 98.5336 78.7296 98.5336C78.6998 98.5336 76.6743 98.4131 74.8722 100.778C73.3977 102.721 73.6807 104.844 73.6807 104.875C73.6956 104.935 73.6658 104.995 73.636 105.055C73.6062 105.116 73.5317 105.131 73.4722 105.131C73.4722 105.131 58.0423 106.095 53.6635 106.381C49.2848 106.667 38.9635 107.3 38.9486 107.315ZM33.2145 101.094C33.9592 101.124 36.2826 101.35 37.8018 102.901C39.2316 104.378 39.2613 106.155 39.2018 106.848C40.855 106.742 49.672 106.2 53.6338 105.944C57.6997 105.673 71.2828 104.829 73.219 104.709C73.1892 104.061 73.219 102.239 74.5296 100.522C76.1381 98.398 77.9105 98.1269 78.536 98.0968L78.9381 84.6918C78.4913 84.496 77.1658 83.8634 76.1977 82.7789C74.7828 81.2125 74.753 79.0285 74.7977 78.2754L39.7528 80.5046C39.6635 81.1522 39.306 83.291 38.0847 84.5863C36.6401 86.1377 34.2422 86.3335 33.4975 86.3486L33.2145 101.094Z" fill="#345848"/>
<path d="M61.2583 43.9338C66.4116 44.1899 70.6265 48.6482 70.3882 53.9198C70.135 59.2065 65.7562 62.746 60.603 62.49C55.4498 62.2339 51.4583 58.2877 51.7115 53.0161C51.9498 47.7445 56.1051 43.6778 61.2583 43.9338Z" fill="#73ADAE"/>
<path d="M60.3209 58.1669L56.4038 55.3805L56.657 55.019L60.157 57.4891L64.7443 48.3315L65.1464 48.5424L60.3209 58.1669Z" fill="white"/>
<path d="M44.1064 43.7129L43.9275 44.127L49.4955 46.5881L49.6744 46.1741L44.1064 43.7129Z" fill="#3F737D"/>
<path d="M42.1802 55.1409L42.1504 54.6891L48.2121 54.2222L48.2419 54.659L42.1802 55.1409Z" fill="#3F737D"/>
<path d="M50.8155 62.0157L45.9998 65.7637L46.2723 66.1218L51.088 62.3738L50.8155 62.0157Z" fill="#3F737D"/>
<path d="M72.4889 45.1396L72.2655 44.748L77.6123 41.7959L77.8208 42.1875L72.4889 45.1396Z" fill="#3F737D"/>
<path d="M74.4404 53.0614V52.6096L80.5171 52.5493V53.0012L74.4404 53.0614Z" fill="#3F737D"/>
<path d="M72.5379 60.615L72.2977 60.9961L77.4222 64.2992L77.6623 63.9181L72.5379 60.615Z" fill="#3F737D"/>
<path d="M59.248 112.39C59.1289 112.39 59.0395 112.299 59.0246 112.179C59.0097 112.058 59.114 111.953 59.2331 111.938L87.2631 109.95L88.246 77.0997L84.2843 77.3407C84.1652 77.3407 84.0609 77.2503 84.046 77.1298C84.0311 77.0094 84.1354 76.9039 84.2545 76.8889L88.4694 76.6328C88.529 76.6328 88.5886 76.6479 88.6333 76.6931C88.678 76.7382 88.7077 76.7985 88.7077 76.8587L87.7099 110.16C87.7099 110.281 87.6205 110.371 87.5014 110.371L59.2778 112.374C59.2629 112.39 59.248 112.39 59.248 112.39Z" fill="#345848"/>
<path d="M156.967 98.7746C156.967 98.7746 158.605 64.4939 159.275 64.5391C159.945 64.5843 186.277 66.1055 186.277 66.1055L183.999 98.5938L156.967 98.7746Z" fill="#344C3F"/>
<path d="M169.655 55.7271L197.834 59.372L182.836 116.983L157.74 114.001L169.655 55.7271Z" fill="#345848"/>
<path d="M162.179 107.284L161.747 107.179L172.084 59.1318L193.754 61.8128L190.105 79.7213L189.658 79.631L193.218 62.2044L172.441 59.6439L162.179 107.284Z" fill="#24372B"/>
<path d="M177.013 69.3435C176.447 70.7744 177.058 74.9917 179.917 75.9556C182.986 76.9949 185.89 74.4344 186.515 70.5033C187.022 67.3403 179.634 62.6259 177.013 69.3435Z" fill="#4C6C5E"/>
<path d="M181.392 77.8081C180.915 77.8081 180.424 77.7327 179.932 77.5671C178.83 77.1905 177.937 76.3169 177.356 75.0517C176.626 73.4552 176.552 71.5574 176.894 70.6537C177.996 67.8371 180.186 66.587 182.762 67.2949C185.175 67.9727 187.126 70.1717 186.843 71.934C186.471 74.2685 185.324 76.1663 183.715 77.1453C182.971 77.5821 182.181 77.8081 181.392 77.8081ZM181.377 67.566C180.081 67.566 178.354 68.1534 177.311 70.8344C176.998 71.6327 177.088 73.3949 177.758 74.871C178.13 75.6843 178.83 76.7236 180.081 77.1453C181.243 77.5369 182.42 77.4014 183.477 76.7537C184.952 75.85 186.039 74.0275 186.396 71.8586C186.635 70.3525 184.818 68.3342 182.643 67.7317C182.315 67.6564 181.884 67.566 181.377 67.566Z" fill="#24372B"/>
<path d="M195.913 55.2451L219.385 70.7136L177.162 128.626L155.73 113.685L195.913 55.2451Z" fill="#5D7A6C" fill-opacity="0.94"/>
<path d="M196.017 69.9611C195.317 71.3317 195.51 75.5791 198.266 76.8292C201.23 78.1697 204.357 75.9105 205.37 72.0546C206.174 68.982 199.278 63.5598 196.017 69.9611Z" fill="#81978C"/>
<path d="M166.096 104.287L165.739 104.031L196.851 58.981L211.492 68.7862L211.254 69.1627L196.971 59.5985L166.096 104.287Z" fill="#345848"/>
<path d="M199.577 78.7871C198.951 78.7871 198.341 78.6515 197.73 78.3804C196.673 77.8985 195.868 76.9496 195.407 75.6241C194.826 73.9523 194.945 72.0695 195.377 71.196C196.747 68.4999 199.056 67.4757 201.543 68.4396C203.881 69.3584 205.594 71.7382 205.147 73.4552C204.551 75.7296 203.226 77.5069 201.528 78.3202C200.888 78.6365 200.232 78.7871 199.577 78.7871ZM195.779 71.4068C195.392 72.175 195.303 73.9372 195.839 75.4735C196.122 76.317 196.732 77.4315 197.924 77.9738C199.041 78.4859 200.232 78.4708 201.349 77.9286C202.898 77.1755 204.164 75.4735 204.73 73.3498C205.117 71.8737 203.509 69.6898 201.394 68.8764C200.307 68.4396 197.596 67.8372 195.779 71.4068Z" fill="#345848"/>
<path d="M154.896 83.8181C153.511 92.7347 150.934 114.454 149.847 123.687C149.534 126.338 152.826 128.371 152.826 128.371L200.336 133.899C200.336 133.899 204.239 133.1 204.462 130.992C205.385 122.361 208.171 98.7142 208.871 89.6771C209.034 87.5534 207.754 85.5803 205.609 85.2339C190.551 82.7487 173.796 81.6944 159.007 80.1731C156.951 79.9623 155.268 81.4082 154.896 83.8181Z" fill="#B5E0EB"/>
<path d="M199.904 132.076L198.385 131.91L198.43 131.458L199.934 131.624C199.964 131.624 200.023 131.624 200.068 131.624L200.098 132.076C200.038 132.076 199.964 132.076 199.904 132.076ZM196.881 131.744L195.391 131.579L195.436 131.127L196.926 131.292L196.881 131.744ZM201.587 131.518L201.304 131.157C201.632 130.901 201.9 130.524 202.109 130.042L202.526 130.223C202.287 130.78 201.975 131.217 201.587 131.518ZM193.917 131.398L192.428 131.232L192.472 130.78L193.962 130.946L193.917 131.398ZM190.938 131.052L189.449 130.886L189.494 130.434L190.983 130.6L190.938 131.052ZM187.974 130.72L186.485 130.554L186.545 130.103L188.034 130.268L187.974 130.72ZM185.011 130.374L183.521 130.193L183.581 129.741L185.07 129.922L185.011 130.374ZM182.047 130.027L180.557 129.847L180.617 129.395L182.106 129.575L182.047 130.027ZM179.083 129.681L177.594 129.5L177.653 129.048L179.142 129.229L179.083 129.681ZM176.104 129.319L174.615 129.139L174.674 128.687L176.164 128.868L176.104 129.319ZM173.14 128.973L171.651 128.792L171.711 128.34L173.185 128.521L173.14 128.973ZM202.943 128.732L202.511 128.657C202.585 128.265 202.615 127.904 202.645 127.587L202.689 127.166L203.136 127.211L203.092 127.632C203.062 127.919 203.017 128.325 202.943 128.732ZM170.176 128.611L168.687 128.431L168.747 127.979L170.221 128.16L170.176 128.611ZM167.213 128.25L165.723 128.069L165.783 127.617L167.272 127.798L167.213 128.25ZM164.249 127.889L162.759 127.708L162.819 127.256L164.308 127.437L164.249 127.889ZM161.285 127.512C160.764 127.452 160.272 127.376 159.796 127.316L159.855 126.864C160.332 126.925 160.823 126.985 161.33 127.06L161.285 127.512ZM158.321 127.105C157.785 127.03 157.293 126.97 156.832 126.894L156.891 126.443C157.338 126.503 157.83 126.578 158.366 126.653L158.321 127.105ZM155.357 126.684C154.583 126.563 154.106 126.473 153.913 126.397L153.972 125.946C154.002 125.946 154.032 125.961 154.047 125.976C154.151 126.006 154.493 126.096 155.417 126.232L155.357 126.684ZM203.3 125.705L202.853 125.659L203.017 124.153L203.464 124.198L203.3 125.705ZM152.498 125.569C152.11 125.208 151.813 124.771 151.604 124.259L152.021 124.093C152.2 124.545 152.453 124.936 152.796 125.238L152.498 125.569ZM203.628 122.707L203.181 122.662L203.345 121.156L203.792 121.201L203.628 122.707ZM151.306 122.707V122.662C151.306 122.481 151.321 122.301 151.336 122.15L151.455 121.171L151.902 121.231L151.783 122.21C151.768 122.361 151.753 122.511 151.753 122.677L151.306 122.707ZM152.096 119.725L151.649 119.665L151.827 118.159L152.274 118.219L152.096 119.725ZM203.955 119.695L203.509 119.65L203.672 118.144L204.119 118.189L203.955 119.695ZM152.468 116.713L152.021 116.652L152.2 115.146L152.647 115.206L152.468 116.713ZM204.283 116.698L203.836 116.652L204 115.146L204.447 115.191L204.283 116.698ZM152.825 113.715L152.379 113.655L152.572 112.149L153.019 112.209L152.825 113.715ZM204.611 113.7L204.164 113.655L204.328 112.149L204.775 112.194L204.611 113.7ZM153.213 110.718L152.766 110.658L152.959 109.152L153.406 109.212L153.213 110.718ZM204.938 110.688L204.492 110.643L204.655 109.137L205.102 109.182L204.938 110.688ZM153.585 107.721L153.138 107.661L153.332 106.169L153.779 106.23L153.585 107.721ZM205.266 107.691L204.819 107.645L204.983 106.139L205.43 106.184L205.266 107.691ZM153.957 104.739L153.51 104.678L153.704 103.172L154.151 103.232L153.957 104.739ZM205.579 104.693L205.132 104.648L205.296 103.142L205.743 103.187L205.579 104.693ZM154.33 101.741L153.883 101.681L154.076 100.19L154.523 100.25L154.33 101.741ZM205.906 101.696L205.46 101.651L205.623 100.145L206.07 100.19L205.906 101.696ZM154.717 98.7439L154.27 98.6837L154.464 97.1926L154.91 97.2528L154.717 98.7439ZM206.219 98.6837L205.772 98.6385L205.936 97.1323L206.383 97.1775L206.219 98.6837ZM155.104 95.7466L154.657 95.6864L154.851 94.1953L155.298 94.2555L155.104 95.7466ZM206.532 95.6864L206.085 95.6412C206.145 95.099 206.189 94.6019 206.234 94.135L206.681 94.1802C206.651 94.6321 206.592 95.1442 206.532 95.6864ZM155.506 92.7493L155.059 92.6891C155.134 92.177 155.193 91.6649 155.253 91.1829L155.7 91.2432C155.64 91.7402 155.566 92.2372 155.506 92.7493ZM206.845 92.674L206.398 92.6288C206.457 91.9962 206.502 91.5293 206.532 91.2281V91.1227L206.979 91.1678V91.2582C206.949 91.5595 206.904 92.0414 206.845 92.674ZM155.908 89.7671L155.461 89.7068C155.536 89.1646 155.61 88.6676 155.67 88.2007L156.117 88.2609C156.057 88.7278 155.983 89.2249 155.908 89.7671ZM206.487 89.6767C206.398 89.1496 206.234 88.7278 205.981 88.3965L206.338 88.1254C206.636 88.517 206.83 89.014 206.934 89.6014L206.487 89.6767ZM204.879 87.7187C204.789 87.7036 204.715 87.7036 204.7 87.7036L204.477 87.6735C204.268 87.6434 203.896 87.5982 203.389 87.538L203.449 87.0861C204.134 87.1765 204.506 87.2217 204.7 87.2668V87.2518C204.715 87.2518 204.819 87.2518 204.953 87.2819L204.923 87.4325C204.923 87.4476 204.923 87.4626 204.923 87.4777H204.909L204.879 87.7187ZM201.9 87.3723L200.411 87.1915L200.47 86.7397L201.96 86.9204L201.9 87.3723ZM198.936 87.0108L197.447 86.83L197.506 86.3782L198.996 86.5589L198.936 87.0108ZM156.34 86.7698L155.893 86.6945C156.013 85.8962 156.102 85.3992 156.161 85.1883L156.593 85.2937C156.549 85.5046 156.459 86.0016 156.34 86.7698ZM195.972 86.6493L194.483 86.4686L194.543 86.0167L196.032 86.1974L195.972 86.6493ZM193.009 86.2878L191.519 86.1071L191.579 85.6552L193.068 85.836L193.009 86.2878ZM190.045 85.9263L188.555 85.7456L188.615 85.2937L190.104 85.4745L190.045 85.9263ZM187.081 85.5649L185.606 85.3841L185.666 84.9323L187.155 85.113L187.081 85.5649ZM184.117 85.2034L182.628 85.0226L182.687 84.5708L184.177 84.7515L184.117 85.2034ZM181.153 84.8419L179.679 84.6611L179.738 84.2093L181.213 84.39L181.153 84.8419ZM178.189 84.4804L176.7 84.2997L176.759 83.8478L178.249 84.0286L178.189 84.4804ZM175.225 84.134L173.751 83.9532L173.811 83.5014L175.3 83.6821L175.225 84.134ZM156.966 83.8478L156.534 83.7273C156.683 83.2152 156.876 82.7031 157.368 82.3416L157.636 82.7031C157.323 82.929 157.13 83.2604 156.966 83.8478ZM172.262 83.7725C171.755 83.7123 171.264 83.652 170.772 83.5918L170.832 83.1399C171.323 83.2002 171.815 83.2604 172.321 83.3206L172.262 83.7725ZM169.298 83.411L167.808 83.2303L167.868 82.7784L169.357 82.9592L169.298 83.411ZM166.319 83.0646L164.83 82.8839L164.889 82.432L166.379 82.6127L166.319 83.0646ZM163.355 82.7182L161.866 82.5525L161.91 82.1006L163.4 82.2663L163.355 82.7182ZM160.376 82.3868C160.257 82.3718 160.168 82.3718 160.108 82.3567C159.647 82.3266 159.259 82.3115 158.917 82.3416L158.887 81.8898C159.244 81.8747 159.647 81.8747 160.138 81.9048C160.198 81.9048 160.287 81.9199 160.421 81.935L160.376 82.3868Z" fill="white"/>
<path d="M173.974 100.974L173.304 110.312C173.2 111.668 171.487 112.798 170.132 112.722L149.117 110.553C149.117 110.553 148.744 110.448 149.117 107.737L150.055 96.7417C150.055 96.7417 151.396 96.7718 152.661 96.8471L170.519 98.6244C171.934 98.7148 174.079 99.5733 173.974 100.974Z" fill="#D2EDF3"/>
<path d="M167.526 110.041C167.004 110.041 166.483 109.935 165.992 109.709C165.143 109.318 164.487 108.55 164.13 107.495C163.668 106.17 163.757 104.649 164.115 103.956C165.187 101.847 166.9 101.019 168.792 101.666C170.668 102.299 172.202 104.302 171.934 105.763C171.636 107.465 170.698 108.851 169.358 109.574C168.762 109.875 168.136 110.041 167.526 110.041ZM167.555 101.892C166.602 101.892 165.426 102.344 164.517 104.152C164.219 104.739 164.145 106.125 164.562 107.33C164.785 107.992 165.262 108.866 166.185 109.288C167.138 109.724 168.196 109.679 169.149 109.167C170.355 108.52 171.234 107.224 171.502 105.673C171.726 104.423 170.311 102.645 168.658 102.088C168.345 101.983 167.972 101.892 167.555 101.892Z" fill="#B7D4D5"/>
<path d="M204.744 117.076C201.348 117.377 198.265 117.859 195.748 119.561C193.216 121.263 190.297 124.516 191.414 127.453C192.069 129.2 195.003 127.468 199.516 125.465C204.729 123.146 204.744 117.076 204.744 117.076Z" fill="#B29780"/>
<path d="M208.021 94.1962C206.948 97.1633 204.461 96.3651 200.291 96.1994C195.719 96.0186 190.878 95.8228 187.631 96.7868C183.923 97.8863 181.584 101.32 184.474 102.239C187.363 103.143 198.28 103.444 200.604 103.7C203.612 104.032 208.959 104.077 210.523 102.254C213.427 98.8201 208.333 93.3075 208.021 94.1962Z" fill="#B29780"/>
<path d="M208.869 104.257C206.293 103.444 195.912 103.851 192.874 103.745C189.508 103.625 185.531 103.444 183.133 104.574C176.342 107.767 177.697 110.734 182.091 110.824C185.888 110.915 206.74 112.21 209.316 110.885C213.367 108.806 210.314 104.709 208.869 104.257Z" fill="#B29780"/>
<path d="M207.201 116.699C204.133 118.431 201.259 117.949 196.016 118.19C191.235 118.401 184.652 118.943 181.957 117.437C179.871 116.262 183.908 111.503 188.063 111.021C192.218 110.539 206.814 110.855 207.618 111.021C210.418 111.593 209.272 115.509 207.201 116.699Z" fill="#B29780"/>
</g>
<defs>
<clipPath id="clip0_321_19503">
<rect width="230" height="164" fill="white"/>
</clipPath>
</defs>
</svg>
