<svg width="230" height="164" viewBox="0 0 230 164" fill="none" xmlns="http://www.w3.org/2000/svg">
<path d="M56.9251 27.5036C60.5583 18.6942 73.5319 11.4193 87.8542 11.6997C103.284 11.9957 108.882 20.291 116.039 21.288C129.005 23.1028 140.863 15.7422 158.905 21.288C167.894 24.0531 174.459 39.9349 175.153 50.9875C175.574 57.7328 174.623 79.0981 182.801 91.1399C190.013 101.756 189.031 120.785 177.757 133.232C169.29 142.579 150.461 155.166 129.691 148.054C108.921 140.943 94.4424 143.015 87.558 143.015C69.158 143.015 51.062 129.08 50.1732 113.962C49.0193 94.3646 74.9742 86.9494 64.1915 73.6068C53.2919 60.1396 53.2373 36.4532 56.9251 27.5036Z" fill="#FFF6F5"/>
<path d="M152.893 151.615C147.724 150.688 140.614 147.861 136.107 139.651C132.505 133.077 131.554 126.13 133.363 119.548C134.735 114.555 137.752 109.812 141.424 106.844C149.572 100.27 159.45 100.963 162.28 101.337L162.265 101.446L162.28 101.337C168.463 102.139 181.647 108.184 182.91 121.713C184.181 135.375 179.48 144.613 168.525 149.972C166.124 151.148 162.257 152.067 157.961 152.067C156.316 152.059 154.608 151.927 152.893 151.615Z" stroke="#E6E5D7" stroke-width="0.651468" stroke-miterlimit="10" stroke-linejoin="bevel"/>
<path d="M65.5793 151.569C60.5661 150.587 53.6427 147.682 49.1441 139.41C44.6143 131.091 45.4251 123.513 46.9065 118.613C48.8478 112.172 52.6448 107.771 55.3034 105.948C60.4804 102.404 65.4234 101.33 68.659 101.049C72.1051 100.753 74.3973 101.267 74.5065 101.291C80.3695 102.334 94.1851 106.416 95.9238 121.784C97.3973 134.729 91.9085 145.306 81.2427 150.089C78.9193 151.133 75.1692 152.075 70.8966 152.075C69.197 152.083 67.396 151.927 65.5793 151.569Z" stroke="#E6E5D7" stroke-width="0.651468" stroke-miterlimit="10" stroke-linejoin="bevel"/>
<path d="M135.008 75.9049C135.008 75.9049 137.464 79.8072 138.048 80.2434C138.625 80.6796 144.847 81.3961 145.572 81.108C146.297 80.8198 147.74 80.2434 147.311 79.0828C146.874 77.93 144.995 75.3207 144.27 75.1805C143.545 75.0403 135.008 75.9049 135.008 75.9049Z" fill="#77564A"/>
<path d="M97.8574 125.849C97.8574 120.903 101.958 116.884 106.995 116.884C112.032 116.884 116.133 120.903 116.133 125.849C116.133 130.795 112.032 134.814 106.995 134.814C101.958 134.814 97.8574 130.787 97.8574 125.849ZM98.8788 125.849C98.8788 130.234 102.52 133.802 106.995 133.802C111.47 133.802 115.111 130.234 115.111 125.849C115.111 121.464 111.47 117.897 106.995 117.897C102.52 117.897 98.8788 121.464 98.8788 125.849Z" fill="#C7C6B5"/>
<path d="M119.485 33.0824C121.933 31.2753 127.056 27.5522 127.578 27.6145C128.264 27.7002 129.527 27.1939 129.293 28.409C129.06 29.624 128.366 34.5701 128.366 34.5701C128.366 34.5701 125.434 39.0955 123.789 41.8918C123.274 42.7641 121.731 39.7342 120.444 37.896C120.359 37.7714 121.325 36.751 121.013 35.7073C120.678 34.5701 119.08 33.3861 119.485 33.0824Z" fill="#7A594D"/>
<path d="M136.949 21.9283C136.949 21.9283 137.596 31.7581 137.261 32.1164C136.933 32.4669 136.045 32.4591 136.045 32.4591C136.045 32.4591 135.53 33.8066 135.093 34.897C134.524 36.3146 133.651 37.335 132.521 37.3038C131.008 37.2571 128.622 34.6789 127.024 33.051C126.018 32.0307 126.969 25.449 127.281 24.3896C127.593 23.3303 136.949 21.9283 136.949 21.9283Z" fill="#846758"/>
<path d="M123.835 25.4406L124.053 25.3938C123.89 24.5682 124.35 23.1739 125.27 22.4885C125.761 22.1224 126.587 21.8109 127.726 22.4028L127.827 22.2081C126.595 21.5616 125.683 21.9043 125.137 22.3094C124.131 23.0571 123.656 24.537 123.835 25.4406Z" fill="#345848"/>
<path d="M106.238 132.049C106.862 131.363 136.513 99.0386 141.331 91.5456" stroke="#28362C" stroke-width="0.868625" stroke-miterlimit="10"/>
<path d="M96.7582 89.2166L70.6162 125.88L110.083 126.931L110.09 126.713" stroke="#28362C" stroke-width="0.868625" stroke-miterlimit="10" stroke-linejoin="bevel"/>
<path d="M141.012 91.2187L94.9336 91.5536" stroke="#28362C" stroke-width="0.868625" stroke-miterlimit="10"/>
<path d="M142.61 81.0311C142.969 81.0311 143.273 80.7429 143.288 80.3846C143.304 80.0107 143.015 79.6991 142.641 79.6836L137.503 79.4655C137.129 79.4421 136.817 79.7381 136.801 80.1119C136.786 80.4858 137.074 80.7974 137.448 80.813L142.586 81.0311C142.586 81.0233 142.594 81.0311 142.61 81.0311Z" fill="#28362C"/>
<path d="M137.651 80.5642L137.877 81.2652C139.616 86.7253 143.694 99.5227 146.181 104.118C149.526 110.318 159.685 128.171 159.685 128.171" stroke="#28362C" stroke-width="0.868625" stroke-miterlimit="10"/>
<path d="M49.6509 146.123C42.5638 137.952 41.6282 129.307 42.1038 123.488C42.7198 115.839 45.9242 109.982 48.4892 107.295C57.7594 97.5586 68.0587 97.4808 68.9008 97.4885C76.5336 97.0134 92.3842 100.098 97.8886 115.216C102.824 128.769 99.3465 140.967 87.8465 150.508C84.8059 153.024 78.5608 155.976 70.9513 156C70.9201 156 70.8889 156 70.8577 156C65.0648 156.007 56.7303 154.286 49.6509 146.123ZM68.9709 99.1865H68.932H68.893C68.7916 99.1788 58.656 99.0619 49.7055 108.463C44.3181 114.126 38.9384 131.199 50.9296 145.017C57.5879 152.697 65.4235 154.317 70.8499 154.317C70.8811 154.317 70.9123 154.317 70.9357 154.317C78.093 154.294 83.9326 151.552 86.755 149.215C97.6547 140.18 100.953 128.621 96.2903 115.808C91.4486 102.512 78.0384 99.1398 70.4445 99.1398C69.9221 99.1398 69.4309 99.1554 68.9709 99.1865Z" fill="#28362C"/>
<path d="M68.0588 127.352C66.9127 125.241 68.09 123.184 68.9398 122.6C70.351 121.634 71.6219 121.93 71.6764 121.946C72.7134 122.203 74.491 122.935 74.7093 124.867C74.9198 126.705 74.1402 128.201 72.6198 128.878C72.269 129.034 71.7388 129.159 71.1463 129.159C70.0781 129.159 68.8151 128.746 68.0588 127.352ZM69.0646 122.779C68.2615 123.325 67.17 125.256 68.2537 127.25C69.3608 129.283 71.6141 129.088 72.5341 128.676C73.9608 128.037 74.6859 126.619 74.491 124.882C74.2883 123.083 72.6042 122.398 71.6219 122.156C71.5985 122.148 70.3822 121.884 69.0646 122.779Z" fill="#28362C"/>
<path d="M156.356 129.635C155.21 127.524 156.387 125.468 157.237 124.883C158.64 123.918 159.919 124.214 159.973 124.221C161.01 124.478 162.788 125.211 163.006 127.142C163.217 128.98 162.437 130.476 160.917 131.161C160.566 131.317 160.036 131.45 159.443 131.45C158.375 131.434 157.112 131.021 156.356 129.635ZM157.361 125.055C156.558 125.6 155.467 127.532 156.551 129.526C157.658 131.559 159.911 131.364 160.831 130.951C162.258 130.312 162.991 128.895 162.788 127.158C162.585 125.359 160.901 124.673 159.919 124.432C159.895 124.424 158.679 124.159 157.361 125.055Z" fill="#28362C"/>
<path d="M136.56 146.123C129.473 137.953 128.538 129.307 129.005 123.488C129.621 115.84 132.826 109.982 135.391 107.295C144.723 97.4886 155.116 97.4809 155.818 97.4886C159.786 97.3796 165.696 97.8002 171.341 100.433C177.641 103.369 182.163 108.339 184.79 115.209C189.881 128.567 186.396 141.349 175.216 150.283C171.559 153.203 164.948 155.852 157.658 155.852C150.563 155.86 142.821 153.344 136.56 146.123ZM155.849 99.1866H155.826H155.802C155.771 99.1866 153.214 99.1477 149.581 100.277C146.236 101.313 141.277 103.572 136.615 108.471C131.227 114.134 125.848 131.207 137.831 145.025C149.768 158.788 167.372 154.387 174.148 148.974C184.868 140.406 188.08 128.637 183.2 115.824C180.806 109.546 174.249 99.1789 157.058 99.1789C156.668 99.1711 156.254 99.1789 155.849 99.1866Z" fill="#28362C"/>
<path d="M97.4443 69.2383L109.981 79.621L102.489 91.2189L105.529 106.337C105.529 106.337 119.057 90.4244 122.518 86.0626C126.042 81.6228 128.607 80.3376 126.097 75.3293C124.195 71.5282 104.251 57.7962 104.251 57.7962L98.5047 62.6643L97.4443 69.2383Z" fill="#083439"/>
<path d="M114.597 52.3043C114.597 52.3043 122.136 61.6278 123.142 62.6404C124.303 63.8009 130.354 61.363 130.034 60.5685C129.714 59.774 124.303 49.2744 122.713 48.6435C121.122 48.0126 114.597 52.3043 114.597 52.3043Z" fill="#91C9D0"/>
<path d="M141.659 76.6379C141.659 76.6379 138.314 79.66 137.199 79.1849C136.084 78.7097 123.43 63.2953 122.424 61.6362C121.98 60.904 129.878 61.052 130.042 60.5769C130.198 60.094 141.659 76.6379 141.659 76.6379Z" fill="#91C9D0"/>
<path d="M134.938 20.689C138.197 20.58 139.257 24.3187 136.31 24.1941C135.008 24.1395 133.309 24.2642 133.418 25.783C133.519 27.2006 133.309 30.1215 130.814 28.4936C129.917 27.9094 128.638 26.928 127.391 28.2989C126.143 29.6697 127.102 32.1389 126.338 32.2323C125.574 32.3258 121.964 32.7152 121.489 31.4378C121.013 30.1604 122.354 29.7944 121.107 29.1479C119.859 28.5092 118.511 28.6572 118.885 27.52C119.462 25.7674 122.822 27.0838 122.245 25.7986C121.668 24.5212 121.037 23.0491 122.097 22.0365C123.15 21.0317 123.469 20.9772 124.233 20.7903C124.99 20.6111 134.938 20.689 134.938 20.689Z" fill="#24372B"/>
<path d="M118.019 27.154C119.602 25.2145 121.45 26.3673 121.528 26.4218L121.645 26.2349C121.621 26.2193 119.555 24.9263 117.848 27.0138L118.019 27.154Z" fill="#24372B"/>
<path d="M127.125 30.5576C127.125 30.5576 124.521 27.5199 124.958 26.001C125.394 24.4821 127.452 23.7266 127.998 24.155C128.544 24.5912 130.735 28.3299 131.148 29.0309C131.304 29.3269 127.125 30.5576 127.125 30.5576Z" fill="#846758"/>
<path d="M132.334 25.6757C132.334 25.6757 132.989 24.0478 133.745 24.1569C134.502 24.2659 135.001 26.1041 137.94 26.034C141.051 25.9639 141.776 23.9388 140.692 22.529C139.609 21.1192 137.542 21.9838 136.459 22.3109C135.375 22.638 132.443 23.0664 132.007 23.1755C131.57 23.2923 132.334 25.6757 132.334 25.6757Z" fill="#24372B"/>
<path d="M128.318 35.185L128.537 35.1772L128.49 31.5553L124.155 27.7231L124.015 27.8945L128.272 31.6566L128.318 35.185Z" fill="white"/>
<path d="M128.474 31.6724C129.675 29.8965 130.041 26.5161 130.057 26.3759L129.839 26.3525C129.839 26.3837 129.464 29.8186 128.295 31.5478L128.474 31.6724Z" fill="white"/>
<path d="M137.557 21.5852C137.565 21.5696 138.555 20.3311 140.208 20.4713L140.224 20.2532C138.446 20.1053 137.425 21.3982 137.378 21.4528L137.557 21.5852Z" fill="#24372B"/>
<path d="M103.899 119.743C103.899 119.743 106.94 127.407 106.067 133.187C105.435 137.369 116.156 139.948 114.316 135.391C112.468 130.834 111.563 120.685 110.846 119.673C110.121 118.66 103.899 119.743 103.899 119.743Z" fill="#F6B5B3"/>
<path d="M86.3186 54.9454C86.3186 54.9454 82.3034 56.2461 82.0851 56.5733C80.8844 58.3803 78.8573 62.1814 79.2627 66.442C79.5512 69.4875 80.1671 72.6342 83.8237 80.1039C91.3085 95.386 100.438 115.567 102.543 119.618C102.692 119.906 104.173 121.027 104.173 121.027C104.173 121.027 105.202 124.011 105.381 124.603L111.931 123.902L111.33 120.217L111.876 118.589C111.876 118.589 100.189 74.9008 97.8264 69.5887C97.6393 69.1603 97.8342 68.3035 98.1617 67.3922C98.723 65.8111 99.6742 64.0585 99.6742 64.0585L86.3186 54.9454Z" fill="#215A61"/>
<path d="M104.118 121.075L104.929 123.412L111.657 122.594L111.392 120.21L104.118 121.075Z" fill="#28362C"/>
<path d="M145.315 91.8657C148.668 91.8657 150.999 91.2348 152.238 89.9963C154.71 87.5272 154.57 83.9676 153.01 81.9503C151.864 80.4703 150.5 79.7771 148.137 79.4889C147.771 79.4422 147.428 79.707 147.381 80.0809C147.334 80.4548 147.599 80.7897 147.974 80.8364C149.954 81.0779 151.03 81.6075 151.942 82.7837C153.455 84.7387 152.776 87.5583 151.279 89.046C150.726 89.5991 149.221 90.5182 145.315 90.5182C144.941 90.5182 144.637 90.8219 144.637 91.1958C144.637 91.5619 144.941 91.8657 145.315 91.8657Z" fill="#28362C"/>
<path d="M98.84 67.7034L105.366 58.0294C105.366 58.0294 125.738 50.8713 125.902 49.7575C126.058 48.6436 117.786 31.4688 117.786 31.4688C117.786 31.4688 108.71 29.4047 99.9549 35.1297C91.1993 40.8546 82.124 56.4404 82.124 56.4404L98.84 67.7034Z" fill="#B1D9DE"/>
<path d="M104.882 142.214L104.586 144.239L118.768 146.989L118.986 144.605L104.882 142.214Z" fill="#C7C6B5"/>
<path d="M86.7526 73.1158L86.5508 73.1989L105.747 119.71L105.949 119.627L86.7526 73.1158Z" fill="#3B8E90"/>
<path d="M114.855 132.951C114.426 132.102 113.818 130.988 113.389 131.214C112.96 131.439 112.025 132.748 111.884 133.317C111.744 133.885 113.077 133.589 113.654 133.449C114.239 133.317 114.855 132.951 114.855 132.951Z" fill="#345848"/>
<path d="M127.259 143.077C127.259 143.077 127.259 142.01 126.487 141.582C125.715 141.146 122.059 139.144 118.667 136.114C117.022 134.649 115.236 133.022 114.745 132.578C114.254 132.134 112.024 133.52 111.767 133.715C111.51 133.91 110.208 134.034 109.389 133.886C108.57 133.738 108.266 133.567 107.947 133.099C107.627 132.632 108.149 131.121 107.385 130.989C106.621 130.856 105.935 130.973 105.725 131.23C105.514 131.487 104.493 133.738 104.228 134.696C103.963 135.654 103.315 137.617 103.3 137.734C103.284 137.851 105.631 138.918 110.613 140.032C115.073 141.029 122.947 142.781 124.374 142.992C126.331 143.272 127.259 143.077 127.259 143.077Z" fill="#24372B"/>
<path d="M118.636 144.814C117.662 144.643 116.141 144.378 114.457 144.082C110.536 143.404 105.655 142.555 104.953 142.4L104.836 142.376C103.597 142.096 102.419 141.831 102.178 141.333C101.78 140.53 103.043 137.968 103.183 137.679L103.222 137.594L103.308 137.617C103.378 137.64 110.364 139.689 114.434 140.53C116.149 140.881 118.176 141.364 119.962 141.792C122.542 142.407 124.772 142.937 125.568 142.976C126.901 143.038 127.205 142.984 127.22 142.976L127.283 142.96L127.33 143.007C127.345 143.023 127.649 143.334 127.665 144.027C127.68 144.954 127.369 145.484 126.729 145.648C126.667 145.663 126.55 145.671 126.371 145.671C125.154 145.663 121.389 145.297 118.636 144.814ZM125.575 143.194C124.757 143.155 122.519 142.625 119.923 142.01C118.137 141.59 116.118 141.107 114.403 140.756C110.575 139.969 104.174 138.108 103.347 137.866C102.95 138.684 102.1 140.663 102.38 141.239C102.575 141.644 103.807 141.917 104.891 142.166L105.008 142.189C105.702 142.345 110.582 143.194 114.496 143.872C116.18 144.168 117.701 144.425 118.675 144.604C121.903 145.172 126.254 145.539 126.675 145.43C127.22 145.297 127.454 144.861 127.446 144.027C127.439 143.56 127.283 143.295 127.213 143.202C127.064 143.217 126.628 143.241 125.575 143.194Z" fill="#E6E5D7"/>
<path d="M115.454 134.734C115.47 134.734 115.485 134.734 115.501 134.726C116.242 134.376 116.452 133.69 116.46 133.659C116.475 133.605 116.444 133.542 116.382 133.519C116.327 133.503 116.265 133.534 116.242 133.597C116.242 133.605 116.047 134.22 115.4 134.531C115.345 134.555 115.322 134.625 115.345 134.679C115.368 134.711 115.415 134.734 115.454 134.734Z" fill="#E6E5D7"/>
<path d="M116.904 136.058C116.919 136.058 116.943 136.05 116.958 136.042C117.52 135.738 117.785 134.749 117.793 134.702C117.808 134.64 117.769 134.586 117.715 134.57C117.652 134.554 117.598 134.593 117.582 134.648C117.582 134.656 117.333 135.59 116.857 135.847C116.803 135.879 116.787 135.941 116.81 135.995C116.826 136.034 116.865 136.058 116.904 136.058Z" fill="#E6E5D7"/>
<path d="M118.237 137.35C118.268 137.35 118.292 137.342 118.315 137.319C118.861 136.75 119.04 135.823 119.048 135.784C119.056 135.722 119.017 135.668 118.962 135.652C118.9 135.644 118.845 135.683 118.83 135.738C118.83 135.745 118.65 136.641 118.151 137.163C118.112 137.21 118.112 137.28 118.159 137.319C118.183 137.342 118.214 137.35 118.237 137.35Z" fill="#E6E5D7"/>
<path d="M119.54 138.597C119.571 138.597 119.594 138.589 119.618 138.565C120.164 137.997 120.343 137.07 120.351 137.031C120.359 136.969 120.32 136.914 120.265 136.899C120.203 136.883 120.148 136.93 120.132 136.984C120.132 136.992 119.953 137.888 119.454 138.41C119.415 138.456 119.415 138.526 119.462 138.565C119.485 138.581 119.516 138.597 119.54 138.597Z" fill="#E6E5D7"/>
<path d="M120.959 139.579C120.99 139.579 121.013 139.571 121.037 139.547C121.59 138.963 121.567 138.395 121.559 138.371C121.559 138.309 121.505 138.27 121.442 138.27C121.38 138.27 121.333 138.325 121.341 138.387C121.341 138.395 121.356 138.885 120.873 139.399C120.834 139.446 120.834 139.516 120.881 139.555C120.904 139.571 120.935 139.579 120.959 139.579Z" fill="#E6E5D7"/>
<path d="M139.928 77.5636C139.928 77.5636 142.384 81.4659 142.968 81.9021C143.545 82.3382 149.767 83.0548 150.492 82.7666C151.217 82.4785 152.66 81.9021 152.231 80.7415C151.794 79.5887 149.915 76.9794 149.19 76.8392C148.465 76.699 139.928 77.5636 139.928 77.5636Z" fill="#846758"/>
<path d="M126.697 61.0522C126.697 61.0522 133.223 70.1186 135.928 73.7717C137.293 75.6177 142.392 81.218 142.392 81.218C142.392 81.218 145.479 78.227 145.004 77.2689C144.528 76.3187 135.235 58.809 134.502 57.3913C133.925 56.2931 126.697 61.0522 126.697 61.0522Z" fill="#B1D9DE"/>
<path d="M148.902 89.9633L149.518 91.5912C149.518 91.5912 151.951 91.1083 153.097 89.605C154.726 87.4708 154.617 85.7027 154.251 84.2929L152.59 84.62C152.59 84.62 153.097 86.6452 151.865 88.164C150.844 89.4181 148.902 89.9633 148.902 89.9633Z" fill="#E6E5D7"/>
<path d="M150.448 89.3175L150.252 89.4126L151.067 91.0952L151.264 91.0001L150.448 89.3175Z" fill="#C7C6B5"/>
<path d="M151.679 88.4681L151.513 88.6094L152.745 90.0574L152.911 89.9161L151.679 88.4681Z" fill="#C7C6B5"/>
<path d="M152.386 87.3092L152.33 87.5201L154.177 88.0078L154.233 87.797L152.386 87.3092Z" fill="#C7C6B5"/>
<path d="M154.585 85.8449H152.628V86.063H154.585V85.8449Z" fill="#C7C6B5"/>
<path d="M102.488 91.2108L105.529 106.329C105.529 106.329 106.426 105.27 107.821 103.626C106.574 99.0777 105.17 94.007 103.806 89.1701L102.488 91.2108Z" fill="#3B8E90"/>
<path d="M82.1943 56.4876L98.2008 67.2754C98.7699 65.7254 99.6665 64.0585 99.6665 64.0585L86.3187 54.9454C86.3187 54.9454 82.8648 56.067 82.1943 56.4876Z" fill="#9ACED4"/>
<path d="M118.081 48.909C118.081 48.909 97.8179 53.2475 96.8277 53.4967C95.2684 53.894 94.5043 57.0797 95.1904 57.586C95.8843 58.0922 114.315 52.9593 114.315 52.9593L120.249 50.9341L118.081 48.909Z" fill="#FF0000"/>
<path d="M100.204 29.8573C100.204 29.8573 106.605 28.8993 112.187 31.1269C113.599 31.6878 115.906 32.6536 118.604 35.7848C119.563 36.8986 120.499 37.6619 120.436 40.7074C120.374 44.0411 118.503 47.2658 118.456 47.3281C118.121 47.85 119.438 51.8068 120.678 50.21C121.738 48.8392 123.157 44.9758 123.719 42.3353C125.278 34.6008 119.501 30.5506 117.123 28.837C113.848 26.4847 108.258 26.1264 104.812 27.5907C103.884 27.988 100.204 29.8573 100.204 29.8573Z" fill="#FF0000"/>
<path d="M98.2946 9.29398C97.9282 9.51207 67.8333 39.5232 68.2855 40.3955C68.9794 41.7197 72.137 45.3805 75.9885 49.0959C80.1831 53.1462 84.9312 56.9238 85.3445 56.8148C86.1475 56.6123 116.671 26.0637 116.671 26.0637L98.2946 9.29398Z" fill="#FF0000"/>
<path d="M81.3206 34.0403C81.4531 34.3908 90.965 43.5663 91.464 43.4027C91.963 43.2391 103.923 30.2471 103.923 30.2471C103.923 30.2471 93.4131 21.4065 93.2572 21.648C93.1013 21.8817 81.188 33.6898 81.3206 34.0403Z" fill="#FF2626"/>
<path d="M95.0585 19.739C94.6999 20.1596 90.747 22.5353 91.7606 24.1865C92.7741 25.8378 99.2531 31.6251 100.142 32.108C101.031 32.5909 101.538 33.0505 102.598 32.1781C103.658 31.3057 105.397 29.6466 105.397 29.6466L95.0585 19.739Z" fill="#FF3838"/>
<path d="M91.3009 27.9404C91.1528 28.5402 90.8409 28.766 90.8955 29.4203C90.9501 30.0746 90.9735 30.464 91.184 30.6432C91.3945 30.8223 92.8447 31.8038 93.6087 32.458C94.3806 33.1123 95.0043 33.642 94.7782 34.0626C94.5521 34.4832 94.3728 34.6857 93.7491 34.2807C93.1254 33.8756 92.0026 32.793 91.7298 32.6917C91.4569 32.5827 90.7474 31.8583 90.802 32.5126C90.8565 33.1668 90.8799 34.7091 91.1138 34.8804C91.5114 35.153 92.8759 36.298 93.406 36.6797C94.287 37.3028 96.1504 36.5161 96.665 35.7995C97.1796 35.0829 97.5226 33.3616 96.8132 32.6372C96.1037 31.9128 93.866 30.0123 93.3748 29.5995C92.8837 29.1866 91.3009 27.9404 91.3009 27.9404Z" fill="white"/>
<path d="M99.1599 8.00104C98.7155 8.1023 96.626 9.66789 96.1115 11.4048C95.7996 12.4486 96.3064 13.3833 97.3667 14.5672C100.189 17.7217 111.026 27.1387 112.562 28.86C114.106 30.5814 117.155 28.7432 118.106 27.8786C119.057 27.0218 119.057 27.0218 119.057 27.0218C119.057 27.0218 99.8694 7.83747 99.1599 8.00104Z" fill="#FF2626"/>
<path d="M98.4888 54.8919L88.9847 51.5193L87.6982 54.113L97.7403 56.6055L98.4888 54.8919Z" fill="#24372B"/>
<path d="M120.725 30.5973C120.725 30.5973 136.084 59.9385 136.084 60.8888C136.084 61.839 129.083 63.5916 128.124 62.7971C127.173 62.0026 114.277 45.1472 113.482 41.3305C112.686 37.5139 114.121 33.2222 114.916 32.5835C115.712 31.9525 120.725 30.5973 120.725 30.5973Z" fill="#B1D9DE"/>
<path d="M117.754 31.4702C116.515 31.8597 115.275 32.2959 114.916 32.5919C114.121 33.2306 112.686 37.5223 113.482 41.3389C113.864 43.1538 116.975 47.9207 120.249 52.5084C123.415 51.2388 125.847 50.1483 125.902 49.7667C126.058 48.6528 117.785 31.478 117.785 31.478C117.785 31.478 117.77 31.4702 117.754 31.4702Z" fill="#9ACED4"/>
<path d="M137.02 30.7523L133.379 29.5762C133.34 29.5606 133.317 29.5373 133.309 29.4983L132.935 27.7847C132.927 27.7536 132.935 27.7146 132.958 27.6913C132.981 27.6679 133.005 27.6523 133.044 27.6523L138.813 27.8704C138.852 27.8704 138.891 27.8938 138.907 27.9327C138.922 27.9717 138.922 28.0106 138.899 28.0418L137.145 30.7212C137.121 30.7523 137.09 30.7679 137.051 30.7679C137.043 30.7523 137.028 30.7523 137.02 30.7523ZM133.176 27.8704L133.512 29.3815L137.012 30.5187L138.618 28.0729L133.176 27.8704Z" fill="#FF0000"/>
<path d="M133.036 27.8632C133.091 27.8632 133.138 27.8242 133.145 27.7697C133.153 27.7074 133.114 27.6529 133.052 27.6451L129.824 27.2401C129.762 27.2323 129.707 27.2712 129.699 27.3335C129.691 27.3958 129.73 27.4504 129.793 27.4582L133.021 27.8632C133.028 27.8632 133.036 27.8632 133.036 27.8632Z" fill="#FF0000"/>
<path d="M122.105 28.9001C122.176 29.1182 124.694 29.5933 125.154 29.1649C125.614 28.7365 125.583 26.2674 127.025 26.0104C129.029 25.6599 129.161 27.7629 130.385 27.5293C131.609 27.2956 133.348 25.4963 133.348 25.4963C133.348 25.4963 138.166 25.0757 138.198 24.7018C138.229 24.328 138.486 21.0488 136.171 18.5563C133.005 15.1447 128.499 15.3005 125.029 17.1075C121.349 19.0236 120.109 22.6767 122.105 28.9001Z" fill="#E6E5D7"/>
<path d="M136.926 23.3374L137.145 23.314C136.42 17.223 130.159 16.6466 130.097 16.6389L130.081 16.8569C130.143 16.8647 136.225 17.4333 136.926 23.3374Z" fill="#C7C6B5"/>
</svg>
