<svg width="47" height="50" viewBox="0 0 47 50" fill="none" xmlns="http://www.w3.org/2000/svg">
<path d="M17.9276 0C17.6597 0 17.4028 0.105357 17.2134 0.292893C17.024 0.48043 16.9176 0.734784 16.9176 1V3C16.9176 3.26522 17.024 3.51957 17.2134 3.70711C17.4028 3.89464 17.6597 4 17.9276 4H19.4426V6.6475C8.51636 7.8925 0 17.1045 0 28.25C0 40.2415 9.85613 50 21.9676 50C34.0791 50 43.9352 40.2415 43.9352 28.25C43.9387 24.1457 42.7616 20.1252 40.5416 16.659L42.6818 14.9435L43.6352 16.1095C43.7186 16.2116 43.8216 16.2965 43.9381 16.3592C44.0546 16.4219 44.1825 16.4613 44.3144 16.4751C44.4464 16.4889 44.5797 16.4768 44.7069 16.4395C44.8341 16.4023 44.9527 16.3406 45.0558 16.258L46.6263 14.999C46.8343 14.832 46.9667 14.5901 46.9945 14.3264C47.0224 14.0628 46.9433 13.799 46.7748 13.593L41.6905 7.375C41.607 7.27289 41.5041 7.18805 41.3876 7.12532C41.271 7.0626 41.1431 7.02321 41.0112 7.00942C40.8793 6.99563 40.7459 7.00771 40.6187 7.04495C40.4915 7.0822 40.373 7.14389 40.2699 7.2265L38.6993 8.4855C38.4914 8.65251 38.359 8.89443 38.3311 9.15807C38.3033 9.42172 38.3823 9.68552 38.5509 9.8915L39.5048 11.0575L37.3737 12.7645C33.9715 9.4455 29.4835 7.2175 24.4926 6.6485V4H26.0076C26.2755 4 26.5324 3.89464 26.7218 3.70711C26.9112 3.51957 27.0176 3.26522 27.0176 3V1C27.0176 0.734784 26.9112 0.48043 26.7218 0.292893C26.5324 0.105357 26.2755 0 26.0076 0L17.9276 0ZM21.9676 10C32.1686 10 40.4002 18.15 40.4002 28.25C40.4002 38.35 32.1686 46.5 21.9676 46.5C11.7665 46.5 3.53502 38.35 3.53502 28.25C3.53502 18.15 11.7665 10 21.9676 10ZM21.9686 13.7215L21.9676 28.25L33.7008 36.9735C35.3375 34.8155 36.3347 32.2488 36.5807 29.5612C36.8267 26.8735 36.3118 24.1711 35.0936 21.757C33.8755 19.3429 32.0023 17.3125 29.6841 15.8933C27.3658 14.4741 24.6942 13.7222 21.9686 13.722V13.7215Z" fill="white"/>
</svg>
