<svg width="46" height="45" viewBox="0 0 46 45" fill="none" xmlns="http://www.w3.org/2000/svg">
<path d="M11.75 1.40625C11.75 1.03329 11.6018 0.675604 11.3381 0.411881C11.0744 0.148158 10.7167 0 10.3438 0C9.97079 0 9.6131 0.148158 9.34938 0.411881C9.08566 0.675604 8.9375 1.03329 8.9375 1.40625V2.8125H6.125C4.63316 2.8125 3.20242 3.40513 2.14752 4.46002C1.09263 5.51492 0.5 6.94566 0.5 8.4375L0.5 11.25H45.5V8.4375C45.5 6.94566 44.9074 5.51492 43.8525 4.46002C42.7976 3.40513 41.3668 2.8125 39.875 2.8125H37.0625V1.40625C37.0625 1.03329 36.9143 0.675604 36.6506 0.411881C36.3869 0.148158 36.0292 0 35.6562 0C35.2833 0 34.9256 0.148158 34.6619 0.411881C34.3982 0.675604 34.25 1.03329 34.25 1.40625V2.8125H11.75V1.40625ZM45.5 39.375V14.0625H0.5V39.375C0.5 40.8668 1.09263 42.2976 2.14752 43.3525C3.20242 44.4074 4.63316 45 6.125 45H39.875C41.3668 45 42.7976 44.4074 43.8525 43.3525C44.9074 42.2976 45.5 40.8668 45.5 39.375ZM31.0269 24.9019L22.5894 33.3394C22.4587 33.4703 22.3036 33.5742 22.1327 33.6451C21.9619 33.716 21.7787 33.7525 21.5938 33.7525C21.4088 33.7525 21.2256 33.716 21.0548 33.6451C20.8839 33.5742 20.7288 33.4703 20.5981 33.3394L16.3794 29.1206C16.1153 28.8566 15.967 28.4984 15.967 28.125C15.967 27.7516 16.1153 27.3934 16.3794 27.1294C16.6434 26.8653 17.0016 26.717 17.375 26.717C17.7484 26.717 18.1066 26.8653 18.3706 27.1294L21.5938 30.3553L29.0356 22.9106C29.2997 22.6466 29.6578 22.4982 30.0312 22.4982C30.4047 22.4982 30.7628 22.6466 31.0269 22.9106C31.2909 23.1747 31.4393 23.5328 31.4393 23.9062C31.4393 24.2797 31.2909 24.6378 31.0269 24.9019Z" fill="white"/>
</svg>
