<svg width="28" height="27" viewBox="0 0 28 27" fill="none" xmlns="http://www.w3.org/2000/svg">
<path d="M0.27451 27V7.71429H5.4902V27H0.27451Z" fill="white"/>
<path d="M9.88235 27V7.71429H15.098V10.1939C20.0392 3.58163 28 8.26531 28 12.949V27H22.5098V15.9796C22.6013 14.5102 22.0706 11.5163 19.2157 11.2959C16.3608 11.0755 15.281 14.3265 15.098 15.9796V27H9.88235Z" fill="white"/>
<path d="M5.4902 2.47959C5.4902 3.84903 4.26117 4.95918 2.7451 4.95918C1.22902 4.95918 0 3.84903 0 2.47959C0 1.11015 1.22902 0 2.7451 0C4.26117 0 5.4902 1.11015 5.4902 2.47959Z" fill="white"/>
</svg>
