<svg width="20" height="25" viewBox="0 0 20 25" fill="none" xmlns="http://www.w3.org/2000/svg">
<path d="M4.57231 25C5.3189 25 5.92975 24.375 5.92975 23.6111V20.8333H10.0021C10.7486 20.8333 11.3595 20.2083 11.3595 19.4444C11.3595 18.6806 10.7486 18.0556 10.0021 18.0556H5.92975V15.2778H12.0382C16.4092 15.2778 19.8978 11.4444 19.4634 6.88889C19.0969 2.91667 15.6218 0 11.7124 0H4.57231C3.82572 0 3.21487 0.625 3.21487 1.38889V12.5H1.85744C1.11085 12.5 0.5 13.125 0.5 13.8889C0.5 14.6528 1.11085 15.2778 1.85744 15.2778H3.21487V18.0556H1.85744C1.11085 18.0556 0.5 18.6806 0.5 19.4444C0.5 20.2083 1.11085 20.8333 1.85744 20.8333H3.21487V23.6111C3.21487 24.375 3.82572 25 4.57231 25ZM12.0382 12.5H5.92975V2.77778H12.0382C14.6581 2.77778 16.7892 4.95833 16.7892 7.63889C16.7892 10.3194 14.6581 12.5 12.0382 12.5Z" fill="white"/>
</svg>
