<svg width="21" height="21" viewBox="0 0 21 21" fill="none" xmlns="http://www.w3.org/2000/svg">
<path d="M20.8087 19.8792L14.4534 13.4616C15.6379 12.0378 16.3518 10.2059 16.3518 8.20572C16.3518 3.67386 12.6913 0 8.17591 0C3.66052 0 0 3.67386 0 8.20572C0 12.7376 3.66052 16.4114 8.17591 16.4114C10.2274 16.4114 12.1013 15.6513 13.537 14.3981L19.8835 20.8077C20.1389 21.0641 20.5533 21.0641 20.8087 20.8077C21.0638 20.5514 21.0638 20.1358 20.8087 19.8792H20.8087ZM8.17591 15.1093C4.37705 15.1093 1.29735 12.0184 1.29735 8.20572C1.29735 4.39301 4.37705 1.30208 8.17591 1.30208C11.9748 1.30208 15.0545 4.39301 15.0545 8.20572C15.0545 12.0184 11.9748 15.1093 8.17591 15.1093Z" fill="#1F1D1D"/>
</svg>
