<svg width="46" height="33" viewBox="0 0 46 33" fill="none" xmlns="http://www.w3.org/2000/svg">
<path d="M23 4.09521C30.4328 4.09521 37.3675 6.86563 42.5286 11.8945L45.5 8.99923C39.5466 3.19632 31.5549 0 23 0C14.4451 0.00204761 6.45335 3.19632 0.5 8.99923L3.47142 11.8945C8.63253 6.86563 15.5672 4.09521 23 4.09521ZM34.9172 21.1047C28.4574 14.8103 17.5426 14.8103 11.0828 21.1047L14.0542 24C18.9022 19.2762 27.0978 19.2762 31.9458 24L34.9172 21.1047Z" fill="white"/>
<path d="M39.5 15.0812C30.0162 5.63959 13.9838 5.63959 4.5 15.0812L7.43309 18C15.33 10.1416 28.67 10.1416 36.5669 18L39.5 15.0812Z" fill="white"/>
<path d="M22.5 33C24.7091 33 26.5 31.2091 26.5 29C26.5 26.7909 24.7091 25 22.5 25C20.2909 25 18.5 26.7909 18.5 29C18.5 31.2091 20.2909 33 22.5 33Z" fill="white"/>
</svg>
