<svg xmlns="http://www.w3.org/2000/svg" width="491.048" height="71.942" viewBox="0 0 491.048 71.942">
  <g id="Сгруппировать_249" data-name="Сгруппировать 249" transform="translate(-755 -2924)">
    <g id="Сгруппировать_21" data-name="Сгруппировать 21" transform="translate(755 2924)">
      <path id="Контур_48" data-name="Контур 48" d="M206.575,119l9.838,17.04L186.9,119h19.675m2.946-5.1H167.943l62.409,36.08L209.521,113.9Z" transform="translate(-147.198 -113.895)" fill="#bcaf99"/>
      <path id="Контур_49" data-name="Контур 49" d="M216.811,235.995l-9.8,16.971h-19.6l29.393-16.971m13.882-13.882h0Zm0,0-62.239,35.934h41.493l20.746-35.934Z" transform="translate(-147.539 -186.104)" fill="#bcaf99"/>
      <path id="Контур_50" data-name="Контур 50" d="M121.2,132.877l.16,33.975-9.888-16.941,9.728-17.034m-15.6,17.061,20.772,35.872-.028-71.92Z" transform="translate(-105.595 -113.891)" fill="#bcaf99"/>
    </g>
    <path id="Контур_51" data-name="Контур 51" d="M407.1,168.4a11.768,11.768,0,0,0,0,23.534,14.75,14.75,0,0,0,9.937-4.477l5.078,5.515a22.379,22.379,0,0,1-15.453,6.825c-11.412,0-20.04-8.463-20.04-19.547,0-11.03,8.791-19.33,20.367-19.33a21.752,21.752,0,0,1,15.07,6.334l-5.024,6.116A13.836,13.836,0,0,0,407.1,168.4Z" transform="translate(461.884 2778.727)"/>
    <path id="Контур_52" data-name="Контур 52" d="M528.915,199.964l-6.061-10.921h-8.791v10.921h-8.627V161.742h16.6c9.992,0,15.671,4.8,15.671,13.268,0,5.9-2.512,10.157-7.153,12.341l8.135,12.613Zm-14.852-18.128h7.972c4.75,0,7.48-2.184,7.48-6.552,0-4.259-2.73-6.389-7.48-6.389h-7.972Z" transform="translate(382.604 2778.179)"/>
    <path id="Контур_53" data-name="Контур 53" d="M640.717,192.538H623.026l-3,7.426h-8.9l16.6-38.222h8.9l16.326,38.222h-9.227Zm-2.785-6.934-6.006-14.852L625.865,185.6Z" transform="translate(312.082 2778.179)"/>
    <path id="Контур_54" data-name="Контур 54" d="M774.239,161.742v5.788l-21.35,25.227h21.678l-.055,7.208H741.259v-5.842l21.4-25.172H741.969v-7.208Z" transform="translate(225.246 2778.179)"/>
    <path id="Контур_55" data-name="Контур 55" d="M868.731,187.623v12.341H860.1V187.843l-14.142-26.1h8.682l9.774,17.145,9.556-17.145h8.682Z" transform="translate(155.381 2778.179)"/>
    <path id="Контур_56" data-name="Контур 56" d="M1003.574,180.141h7.481V194.83a28.285,28.285,0,0,1-15.507,4.969c-11.576,0-20.367-8.408-20.367-19.493,0-11.03,8.955-19.385,20.859-19.385a24.088,24.088,0,0,1,15.344,5.57l-4.86,6.169a16,16,0,0,0-10.484-4.259,11.931,11.931,0,1,0,.055,23.862,17.4,17.4,0,0,0,7.48-2.075Z" transform="translate(69.158 2778.727)"/>
    <path id="Контур_57" data-name="Контур 57" d="M1135.221,180.306c0,11.03-8.845,19.493-20.531,19.493s-20.531-8.408-20.531-19.493c0-11.139,8.846-19.385,20.531-19.385S1135.221,169.221,1135.221,180.306Zm-32.215,0a11.885,11.885,0,0,0,11.794,11.958,11.9,11.9,0,1,0-11.794-11.958Z" transform="translate(-10.234 2778.727)"/>
    <path id="Контур_58" data-name="Контур 58" d="M1244.7,192.538h-17.692l-3,7.426h-8.9l16.6-38.222h8.9l16.326,38.222h-9.227Zm-2.785-6.934-6.006-14.852-6.062,14.852Z" transform="translate(-90.94 2778.179)"/>
    <path id="Контур_59" data-name="Контур 59" d="M1358.154,161.742v7.317h-11.686v30.905h-8.627V169.059h-11.631v-7.317Z" transform="translate(-165.074 2778.179)"/>
    <path id="Контур_60" data-name="Контур 60" d="M1449.08,167.727a5.6,5.6,0,0,0-5.5,5.929c0,3.392,2.372,5.962,5.5,5.962a8.355,8.355,0,0,0,5.5-2.669l3.953,4.216a13.958,13.958,0,0,1-9.783,4.447c-7.015,0-12.187-5.073-12.187-11.891,0-6.72,5.271-11.694,12.418-11.694a13.574,13.574,0,0,1,9.552,4.085l-3.953,4.677A7.52,7.52,0,0,0,1449.08,167.727Z" transform="translate(-238.709 2777.989)"/>
    <path id="Контур_61" data-name="Контур 61" d="M1530.938,173.755c0,6.785-5.336,11.859-12.582,11.859s-12.583-5.04-12.583-11.859c0-6.785,5.336-11.727,12.583-11.727S1530.938,167,1530.938,173.755Zm-18.149.033a5.875,5.875,0,0,0,5.666,6.094c3.031,0,5.468-2.6,5.468-6.094s-2.437-6.028-5.468-6.028A5.8,5.8,0,0,0,1512.788,173.788Z" transform="translate(-284.889 2777.989)"/>
  </g>
</svg>
