<svg width="18" height="20" viewBox="0 0 18 20" fill="none" xmlns="http://www.w3.org/2000/svg">
<path d="M16.0601 1.74112C15.5885 1.30238 13.563 0.0462532 9.3305 0.0162024C9.3305 0.0162024 4.30595 -0.302337 1.86925 1.88536C0.514859 3.23164 0.0734724 5.19095 0.0130085 7.61305C-0.0172235 10.0412 -0.283265 14.657 4.15479 15.883C4.15479 15.883 4.12455 19.3269 4.12455 19.6214C4.12455 19.8257 4.15479 19.9699 4.26967 20C4.36036 20 4.47524 19.9699 4.59013 19.8558C5.32779 19.1225 7.58914 16.4119 7.58914 16.4119C10.6426 16.5862 13.0551 16.0032 13.3211 15.9131C13.9378 15.7388 17.2573 15.4443 17.8196 10.9186C18.3819 6.27278 17.5838 3.0874 16.0601 1.74112ZM14.0285 12.7578C13.823 13.1364 13.5267 13.491 13.1458 13.8095C12.8495 14.074 12.5593 14.1882 12.263 14.2483H12.1481C12.0332 14.2483 11.8821 14.2182 11.7672 14.1882C11.3258 14.074 10.5942 13.7494 9.3305 13.0763C8.53842 12.6375 7.86122 12.1688 7.30496 11.73C7.00868 11.4956 6.68822 11.2312 6.39195 10.9126L6.27707 10.7984C5.95661 10.4799 5.69057 10.1854 5.45476 9.8909C5.01337 9.33797 4.54176 8.66483 4.10037 7.8775C3.42317 6.65142 3.10271 5.91818 2.98179 5.4554C2.95155 5.34121 2.92132 5.221 2.92132 5.07676V4.96257C2.95155 4.66807 3.09667 4.37958 3.36271 4.08508C3.68921 3.73048 4.0399 3.43599 4.42083 3.20159C4.83198 2.99724 5.2129 3.05735 5.47895 3.37588C5.47895 3.37588 6.00498 4.01897 6.24079 4.33751C6.44637 4.63201 6.74264 5.09479 6.91799 5.35924C7.18403 5.82803 7.00868 6.32086 6.77287 6.52521L6.24684 6.9339C5.9808 7.13825 6.01103 7.54694 6.01103 7.54694C6.01103 7.54694 6.74869 10.4378 9.657 11.2011C9.657 11.2011 10.0682 11.2312 10.2737 10.9667L10.6849 10.4438C10.8905 10.1794 11.3621 10.0051 11.8579 10.2695C12.1239 10.4138 12.5955 10.7083 12.8858 10.9427C13.2062 11.1771 13.8532 11.7 13.8532 11.7C14.1797 11.9704 14.2341 12.3491 14.0285 12.7578ZM11.7007 5.47944C11.096 4.82433 10.2737 4.46372 9.19748 4.37958C9.08259 4.36756 8.9919 4.2714 9.00399 4.1512C9.01608 4.037 9.11283 3.94685 9.23375 3.95887C10.4128 4.04902 11.3439 4.46973 12.0151 5.19696C12.6802 5.91818 13.0127 6.85577 12.9825 7.91356C12.9765 8.02775 12.8858 8.1179 12.7709 8.1179H12.7648C12.65 8.11189 12.5532 8.01573 12.5593 7.90154C12.5835 6.95794 12.2872 6.11652 11.7007 5.47944ZM11.5072 7.42673C11.5132 7.54093 11.4225 7.6431 11.3077 7.64911C11.3016 7.64911 11.3016 7.64911 11.2956 7.64911C11.1867 7.64911 11.09 7.56497 11.084 7.45078C11.0295 6.44107 10.5519 5.94823 9.5784 5.90015C9.46352 5.89414 9.37282 5.79197 9.37887 5.67778C9.38491 5.56358 9.4877 5.47343 9.60258 5.47944C10.8058 5.53954 11.4467 6.20066 11.5072 7.42673ZM14.2341 8.70089C14.1192 8.70089 14.0225 8.60473 14.0225 8.49053C14.0225 6.79567 13.5025 5.43136 12.4686 4.43367C11.4528 3.44801 10.1649 2.94916 8.6533 2.94916C8.53842 2.94916 8.44168 2.853 8.44168 2.73881C8.44168 2.62461 8.53842 2.52845 8.6533 2.52845C10.2798 2.52845 11.6644 3.06937 12.7709 4.13316C13.8834 5.20898 14.4518 6.67546 14.4518 8.49053C14.4457 8.60473 14.355 8.70089 14.2341 8.70089Z" fill="white"/>
</svg>
