<svg width="360" height="288" viewBox="0 0 360 288" fill="none" xmlns="http://www.w3.org/2000/svg">
<g clip-path="url(#clip0_683_8057)">
<path d="M16.6345 191.257C16.6345 191.257 13.2536 288.087 149.437 280.378C211.24 275.374 329.166 274.157 329.166 155.149C329.166 91.8582 301.443 -6.9998 186.492 8.82289C119.279 18.019 17.9869 90.2354 16.6345 191.257Z" fill="#FFFEFC"/>
<path d="M192.848 48.312C188.115 34.2474 191.901 24.2399 203.532 24.2399C210.834 24.2399 220.03 28.1617 228.956 34.6531C229.903 31.0017 232.743 28.8379 237.341 28.8379C245.32 28.8379 256.409 35.5997 265.064 45.2015C267.093 43.0378 270.203 41.8206 274.125 41.5502C281.834 41.1444 291.03 45.0663 299.144 51.2872C299.82 50.2053 301.037 49.5291 302.66 49.5291C307.123 49.2586 313.073 53.1805 316.048 58.3195C316.184 58.59 316.454 58.9957 316.589 59.2662H307.393H300.091H274.801H262.359H252.622H237.746H235.042H197.987H190.684C190.143 54.6681 190.955 51.0167 192.848 48.312Z" fill="#D2D2D9"/>
<path d="M1.7587 190.716C-1.62222 180.844 1.08251 173.947 9.33195 173.947C14.4709 173.947 20.8271 176.652 27.048 181.114C27.7241 178.545 29.7527 177.057 32.8631 177.057C38.4078 177.057 46.1163 181.791 52.202 188.417C53.6896 186.93 55.7181 185.983 58.5581 185.848C63.9676 185.577 70.4589 188.282 76.0036 192.745C76.5446 192.069 77.356 191.528 78.4379 191.528C81.5483 191.392 85.7407 194.097 87.7692 197.613C87.9044 197.884 88.0397 198.019 88.1749 198.29H81.8188H76.6798H58.8286H50.1734H43.4116H32.9984H31.1051H5.13961H0.000621002C-0.134616 195.044 0.406331 192.474 1.7587 190.716Z" fill="#D2D2D9"/>
<path d="M19.8793 276.997C20.1498 276.997 20.5555 276.997 20.8259 276.862L62.2084 260.498C63.5607 259.957 64.2369 258.334 63.696 256.982C63.155 255.63 61.5322 254.954 60.1798 255.494L18.7974 271.858C17.445 272.399 16.7688 274.022 17.3098 275.374C17.7155 276.321 18.7974 276.997 19.8793 276.997Z" fill="#D2D2D9"/>
<path d="M22.3129 253.195C22.5834 253.195 22.9891 253.195 23.2595 253.06L45.5736 244.27C46.9259 243.729 47.6021 242.106 47.0612 240.754C46.5202 239.401 44.8974 238.725 43.545 239.266L21.231 248.056C19.8786 248.597 19.2024 250.22 19.7434 251.573C20.1491 252.654 21.231 253.195 22.3129 253.195Z" fill="#D2D2D9"/>
<path d="M68.8344 276.591C69.1048 276.591 69.5105 276.591 69.781 276.456L110.217 260.498C111.569 259.957 112.245 258.334 111.704 256.982C111.163 255.63 109.541 254.954 108.188 255.494L67.7525 271.452C66.4001 271.993 65.7239 273.616 66.2649 274.969C66.6706 275.915 67.7525 276.591 68.8344 276.591Z" fill="#D2D2D9"/>
<path d="M359.999 135.404L51.6598 179.762L10.2773 221.55L359.999 135.404Z" fill="#FF879B"/>
<path d="M360 135.404L51.6602 179.762L65.9952 240.213L360 135.404Z" fill="#BB1733"/>
<path d="M90.8777 77.5231L85.333 163.128C85.0625 167.726 88.5787 171.783 93.1767 172.053L256.137 182.737C260.735 183.008 264.792 179.492 265.062 174.893L270.607 89.2887C270.742 86.8544 269.931 84.5554 268.308 82.9325C266.956 81.4449 264.927 80.4983 262.763 80.2278L99.9385 69.6793C97.7747 69.5441 95.611 70.2203 93.9881 71.5726C92.23 73.0603 91.0129 75.0888 90.8777 77.5231Z" fill="#FF879B"/>
<path d="M93.9883 71.5726L156.197 128.643C168.098 139.597 185.949 140.679 199.202 131.482L268.444 82.9325C267.091 81.4449 265.063 80.4983 262.899 80.2278L99.9387 69.6793C97.6397 69.5441 95.6111 70.2203 93.9883 71.5726Z" fill="#FF2E51"/>
<path d="M359.999 135.404L105.754 195.855L65.9941 240.213L359.999 135.404Z" fill="#FF879B"/>
<path d="M267.177 193.627L238.939 210.171L239.623 211.338L267.86 194.794L267.177 193.627Z" fill="#D2D2D9"/>
<path d="M226.433 217.602L216.281 223.55L216.965 224.717L227.116 218.769L226.433 217.602Z" fill="#D2D2D9"/>
<path d="M359.999 135.404L105.754 195.855L155.115 255.359L359.999 135.404Z" fill="#FF2E51"/>
</g>
<defs>
<clipPath id="clip0_683_8057">
<rect width="360" height="288" fill="white"/>
</clipPath>
</defs>
</svg>
