<svg width="100" height="100" viewBox="0 0 100 100" fill="none" xmlns="http://www.w3.org/2000/svg">
<path d="M96 6C96 4.89543 95.1046 4 94 4L66 4C64.8954 4 64 4.89543 64 6V34C64 35.1046 64.8954 36 66 36H74V40H66C62.6863 40 60 37.3137 60 34V6C60 2.68629 62.6863 0 66 0H94C97.3137 0 100 2.68629 100 6V34C100 37.3137 97.3137 40 94 40H86V36H94C95.1046 36 96 35.1046 96 34V6Z" fill="#2F4F3E"/>
<path d="M78 28.8754L78 54C78 54 78 56 80 56C82 56 82 54 82 54L82 28.8757L84.4328 31.2868C85.2488 32.0956 86.5719 32.0956 87.388 31.2868C88.204 30.4781 88.204 29.1668 87.388 28.358L81.4987 22.5212L81.4776 22.5C80.6615 21.6912 79.3384 21.6912 78.5224 22.5L72.612 28.3577C71.796 29.1665 71.796 30.4777 72.612 31.2865C73.4281 32.0953 74.7512 32.0953 75.5672 31.2865L78 28.8754Z" fill="#2F4F3E"/>
<path d="M33.4855 30.6569L51.2512 48.4226L51.2666 44.9975C51.2717 43.8485 52.2073 42.913 53.3562 42.9078C54.5051 42.9027 55.4323 43.8299 55.4272 44.9788L55.3899 53.3001C55.3848 54.449 54.4492 55.3846 53.3003 55.3897L53.2704 55.3897L44.9788 55.4268C43.8299 55.4319 42.9027 54.5047 42.9078 53.3558C42.913 52.2068 43.8485 51.2713 44.9974 51.2661L48.4226 51.2508L30.657 33.4853C30.657 33.4853 29.2428 32.0711 30.657 30.6569C32.0712 29.2426 33.4855 30.6569 33.4855 30.6569Z" fill="#2F4F3E"/>
<path fill-rule="evenodd" clip-rule="evenodd" d="M60 66C60 62.6863 62.6863 60 66 60H94C97.3137 60 100 62.6863 100 66V94C100 97.3137 97.3137 100 94 100H66C62.6863 100 60 97.3137 60 94V66ZM64 66C64 64.8954 64.8954 64 66 64H94C95.1046 64 96 64.8954 96 66V94C96 95.1046 95.1046 96 94 96H66C64.8954 96 64 95.1046 64 94V66Z" fill="#2F4F3E"/>
<path d="M6 64C4.89543 64 4 64.8955 4 66V94C4 95.1046 4.89543 96 6 96H34C35.1046 96 36 95.1046 36 94V86H40V94C40 97.3137 37.3137 100 34 100H6C2.68629 100 0 97.3137 0 94V66C0 62.6863 2.68629 60 6 60H34C37.3137 60 40 62.6863 40 66V74H36V66C36 64.8955 35.1046 64 34 64H6Z" fill="#2F4F3E"/>
<path d="M28.8754 82L54 82C54 82 56 82 56 80C56 78 54 78 54 78L28.8757 78L31.2868 75.5672C32.0956 74.7512 32.0956 73.4281 31.2868 72.6121C30.4781 71.796 29.1668 71.796 28.358 72.6121L22.5212 78.5013L22.5 78.5224C21.6912 79.3385 21.6912 80.6616 22.5 81.4776L28.3577 87.388C29.1665 88.204 30.4777 88.204 31.2865 87.388C32.0953 86.5719 32.0953 85.2489 31.2865 84.4328L28.8754 82Z" fill="#2F4F3E"/>
<path d="M6 4.00002C4.89543 4.00002 4 4.89545 4 6.00002V34C4 35.1046 4.89543 36 6 36H28L32 40H6C2.68629 40 0 37.3137 0 34V6.00002C0 2.68631 2.68629 1.54972e-05 6 1.54972e-05H34C37.3137 1.54972e-05 40 2.68631 40 6.00002V32L36 28V6.00002C36 4.89545 35.1046 4.00002 34 4.00002H6Z" fill="#2F4F3E"/>
</svg>
