<svg width="100" height="96" viewBox="0 0 100 96" fill="none" xmlns="http://www.w3.org/2000/svg">
<path fill-rule="evenodd" clip-rule="evenodd" d="M92.7454 1.71952C90.4527 -0.573174 86.7355 -0.573174 84.4428 1.71952L52.1513 34.0111L48.7673 48.6749C47.9393 48.2437 46.9981 48 46 48H29.6586C29.8797 47.3744 30 46.7013 30 46V32C30 28.6863 27.3137 26 24 26H6C2.68629 26 0 28.6863 0 32V46C0 47.5367 0.577702 48.9385 1.52777 50C0.577702 51.0615 0 52.4633 0 54V68C0 69.5367 0.577709 70.9385 1.52779 72C0.577709 73.0615 0 74.4633 0 76V90C0 93.3137 2.68629 96 6 96H20C21.5367 96 22.9385 95.4223 24 94.4722C25.0615 95.4223 26.4633 96 28 96H68C69.5367 96 70.9385 95.4223 72 94.4722C73.0615 95.4223 74.4633 96 76 96H94C97.3137 96 100 93.3137 100 90V76C100 72.6863 97.3137 70 94 70H76C74.4633 70 73.0615 70.5777 72 71.5278C70.9385 70.5777 69.5367 70 68 70H51.6586C51.8797 69.3744 52 68.7012 52 68V54C52 53.0019 51.7563 52.0607 51.3251 51.2327L65.9889 47.8487L98.2805 15.5572C100.573 13.2645 100.573 9.54728 98.2805 7.25458L92.7454 1.71952ZM28 74C26.8954 74 26 74.8954 26 76V90C26 91.1045 26.8954 92 28 92H68C69.1046 92 70 91.1045 70 90V76C70 74.8954 69.1046 74 68 74H28ZM20 74H6C4.89543 74 4 74.8954 4 76V90C4 91.1045 4.89543 92 6 92H20C21.1046 92 22 91.1045 22 90V76C22 74.8954 21.1046 74 20 74ZM46 70C47.1046 70 48 69.1045 48 68V54C48 52.8954 47.1046 52 46 52H24.0193C24.0129 52 24.0065 52 24 52H6C5.99678 52 5.99355 52 5.99033 52C4.89021 52.0052 4 52.8986 4 54V68C4 69.1045 4.89543 70 6 70L46 70ZM24.0112 48H6C5.99678 48 5.99355 48 5.99033 48C4.89021 47.9948 4 47.1013 4 46V32C4 30.8954 4.89543 30 6 30H24C25.1046 30 26 30.8954 26 32V46C26 47.1008 25.1106 47.994 24.0112 48ZM89.9779 4.48705C89.2137 3.72282 87.9746 3.72282 87.2104 4.48705L59.0695 32.6279L67.3714 40.9299L64.6039 43.6974L56.3023 35.3959L53.5351 46.4649L64.6052 43.6974L91.3618 16.9408L83.0594 8.63836L85.8269 5.87083L94.1293 14.1733L95.513 12.7896C96.2772 12.0254 96.2772 10.7863 95.513 10.0221L89.9779 4.48705ZM76 74C74.8954 74 74 74.8954 74 76V90C74 91.1045 74.8954 92 76 92H94C95.1046 92 96 91.1045 96 90V76C96 74.8954 95.1046 74 94 74H76Z" fill="#2F4F3E"/>
</svg>
