<svg width="100" height="100" viewBox="0 0 100 100" fill="none" xmlns="http://www.w3.org/2000/svg">
<path fill-rule="evenodd" clip-rule="evenodd" d="M36 0C32.6863 0 30 2.68629 30 6V20C30 23.3137 32.6863 26 36 26H64C67.3137 26 70 23.3137 70 20V6C70 2.68629 67.3137 0 64 0H36ZM36 4C34.8954 4 34 4.89543 34 6V20C34 21.1046 34.8954 22 36 22H64C65.1046 22 66 21.1046 66 20V6C66 4.89543 65.1046 4 64 4H36Z" fill="#2F4F3E"/>
<path d="M96 17C96 15.8954 95.1046 15 94 15H76C76 15 74 15 74 13C74 11 76 11 76 11H94C97.3137 11 100 13.6863 100 17V46C100 49.3137 97.3137 52 94 52H80.982L83.3931 54.4328C84.2019 55.2488 84.2019 56.5719 83.3931 57.388C82.5843 58.204 81.273 58.204 80.4643 57.388L74.6066 51.4776C73.7978 50.6615 73.7978 49.3385 74.6066 48.5224L74.6278 48.5013L80.4646 42.612C81.2734 41.796 82.5846 41.796 83.3934 42.612C84.2022 43.4281 84.2022 44.7512 83.3934 45.5672L80.9823 48H94C95.1046 48 96 47.1046 96 46V17Z" fill="#2F4F3E"/>
<path d="M4 54C4 52.8954 4.89543 52 6 52H24C24 52 26 52 26 50C26 48 24 48 24 48H6C2.68629 48 0 50.6863 0 54V83C0 86.3137 2.68629 89 6 89H19.018L16.6069 91.4328C15.7981 92.2488 15.7981 93.5719 16.6069 94.388C17.4157 95.204 18.727 95.204 19.5357 94.388L25.3934 88.4776C26.2022 87.6615 26.2022 86.3385 25.3934 85.5224L25.3722 85.5013L19.5354 79.612C18.7266 78.796 17.4154 78.796 16.6066 79.612C15.7978 80.4281 15.7978 81.7512 16.6066 82.5672L19.0177 85H6C4.89543 85 4 84.1046 4 83V54Z" fill="#2F4F3E"/>
<path fill-rule="evenodd" clip-rule="evenodd" d="M30 43C30 39.6863 32.6863 37 36 37H64C67.3137 37 70 39.6863 70 43V57C70 60.3137 67.3137 63 64 63H36C32.6863 63 30 60.3137 30 57V43ZM34 43C34 41.8954 34.8954 41 36 41H64C65.1046 41 66 41.8954 66 43V57C66 58.1046 65.1046 59 64 59H36C34.8954 59 34 58.1046 34 57V43Z" fill="#2F4F3E"/>
<path fill-rule="evenodd" clip-rule="evenodd" d="M36 74C32.6863 74 30 76.6863 30 80V94C30 97.3137 32.6863 100 36 100H64C67.3137 100 70 97.3137 70 94V80C70 76.6863 67.3137 74 64 74H36ZM36 78C34.8954 78 34 78.8954 34 80V94C34 95.1046 34.8954 96 36 96H64C65.1046 96 66 95.1046 66 94V80C66 78.8954 65.1046 78 64 78H36Z" fill="#2F4F3E"/>
</svg>
