<svg width="94" height="100" viewBox="0 0 94 100" fill="none" xmlns="http://www.w3.org/2000/svg">
<path d="M34 51C34.5523 51 35 51.4477 35 52V54C35 54.5523 34.5523 55 34 55H32C31.4477 55 31 54.5523 31 54V52C31 51.4477 31.4477 51 32 51H34Z" fill="#2F4F3E"/>
<path d="M50 51C50.5523 51 51 51.4477 51 52V54C51 54.5523 50.5523 55 50 55H48C47.4477 55 47 54.5523 47 54V52C47 51.4477 47.4477 51 48 51H50Z" fill="#2F4F3E"/>
<path d="M55 60C55 59.4477 55.4477 59 56 59H58C58.5523 59 59 59.4477 59 60V62C59 62.5523 58.5523 63 58 63H56C55.4477 63 55 62.5523 55 62V60Z" fill="#2F4F3E"/>
<path d="M48 71C47.4477 71 47 70.5523 47 70V68C47 67.4477 47.4477 67 48 67H50C50.5523 67 51 67.4477 51 68V70C51 70.5523 50.5523 71 50 71H48Z" fill="#2F4F3E"/>
<path d="M31 70C31 70.5523 31.4477 71 32 71H34C34.5523 71 35 70.5523 35 70V68C35 67.4477 34.5523 67 34 67H32C31.4477 67 31 67.4477 31 68V70Z" fill="#2F4F3E"/>
<path d="M26 63C26.5523 63 27 62.5523 27 62V60C27 59.4477 26.5523 59 26 59H24C23.4477 59 23 59.4477 23 60V62C23 62.5523 23.4477 63 24 63H26Z" fill="#2F4F3E"/>
<path fill-rule="evenodd" clip-rule="evenodd" d="M16 70C16 72.7614 13.7614 75 11 75C8.23858 75 6 72.7614 6 70C6 67.2386 8.23858 65 11 65C13.7614 65 16 67.2386 16 70ZM12 70C12 70.5523 11.5523 71 11 71C10.4477 71 10 70.5523 10 70C10 69.4477 10.4477 69 11 69C11.5523 69 12 69.4477 12 70Z" fill="#2F4F3E"/>
<path fill-rule="evenodd" clip-rule="evenodd" d="M70 75C67.2386 75 65 72.7614 65 70C65 67.2386 67.2386 65 70 65C72.7614 65 75 67.2386 75 70C75 72.7614 72.7614 75 70 75ZM70 71C69.4477 71 69 70.5523 69 70C69 69.4477 69.4477 69 70 69C70.5523 69 71 69.4477 71 70C71 70.5523 70.5523 71 70 71Z" fill="#2F4F3E"/>
<path fill-rule="evenodd" clip-rule="evenodd" d="M38 6V13H29V9C29 7.89543 28.1046 7 27 7C25.8954 7 25 7.89543 25 9V13H13.7561C12.7515 13 11.9028 13.7452 11.7729 14.7413L9.29461 33.7413C9.13846 34.9385 10.0705 36 11.2778 36H25V42H16C12.6863 42 10 44.6863 10 48V59.0448C4.3935 59.5501 0 64.262 0 70C0 75.738 4.3935 80.4499 10 80.9552V87C10 90.3137 12.6863 93 16 93V98C16 99.1046 16.8954 100 18 100H21.8676C22.5701 100 23.2212 99.6314 23.5826 99.029L27.2 93H55.8L59.4174 99.029C59.7788 99.6314 60.4299 100 61.1324 100H65C66.1046 100 67 99.1046 67 98V93H76.8L80.4174 99.029C80.7788 99.6314 81.4299 100 82.1324 100H86C87.1046 100 88 99.1046 88 98V93C91.3137 93 94 90.3137 94 87V6C94 2.68629 91.3137 0 88 0H44C40.6863 0 38 2.68629 38 6ZM88 4H68V42.083C70.8377 42.559 73 45.027 73 48V59.4141C77.617 60.7199 81 64.9649 81 70C81 75.0351 77.617 79.2801 73 80.5859V87C73 87.7013 72.8797 88.3744 72.6586 89H88C89.1046 89 90 88.1046 90 87V6C90 4.89543 89.1046 4 88 4ZM64 4V42H42V36H41.7222C42.9295 36 43.8615 34.9385 43.7054 33.7413L42 20.6667V6C42 4.89543 42.8954 4 44 4H64ZM38 36H29V42H38V36ZM38 21V20.9264L37.4879 17H15.5121L13.5556 32H39.4444L38.0096 21H38ZM69 87C69 88.1046 68.1046 89 67 89H16C14.8954 89 14 88.1046 14 87V81.3369C18.9344 79.5612 28.2597 77 41 77C54.6604 77 64.3948 79.9445 69 81.708V87ZM83.2648 96L82.0648 94H84V96H83.2648ZM16 46H67C68.1046 46 69 46.8954 69 48V59.0448C63.3935 59.5501 59 64.262 59 70V75.1031C53.8476 73.955 47.583 73 41 73C33.9849 73 27.3314 74.0845 22 75.3314V70C22 64.9649 18.617 60.7199 14 59.4141V48C14 46.8954 14.8954 46 16 46ZM18 76.3559C17.7394 76.4285 17.484 76.5008 17.234 76.5726C15.7383 76.7113 12.4494 77 11 77C7.13401 77 4 73.866 4 70C4 66.134 7.13401 63 11 63C14.866 63 18 66.134 18 70V76.3559ZM65.211 76.7016C66.8291 76.8405 68.9227 77 70 77C73.866 77 77 73.866 77 70C77 66.134 73.866 63 70 63C66.134 63 63 66.134 63 70V76.083C63.7787 76.2911 64.5171 76.4986 65.211 76.7016ZM21.9352 94L20.7352 96H20V94H21.9352ZM61.0648 94L62.2648 96H63V94H61.0648Z" fill="#2F4F3E"/>
</svg>
