<svg width="100" height="86" viewBox="0 0 100 86" fill="none" xmlns="http://www.w3.org/2000/svg">
<path fill-rule="evenodd" clip-rule="evenodd" d="M97.8712 17.3208C100.71 19.301 100.71 22.9448 97.8712 25.05L53.9247 41.5219C51.3396 42.5289 48.6134 42.5289 46.1694 41.5219L2.22287 25.05C-0.740858 22.9448 -0.740827 19.3012 2.22287 17.3208L46.1694 0.848933C48.6134 -0.282978 51.3553 -0.282978 53.9247 0.848933L97.8712 17.3208ZM95.2861 19.8972C96.1397 20.2122 96.1397 22.0339 95.2861 22.4736L51.3396 38.9455C50.4414 39.3408 49.5274 39.3408 48.7545 38.9455L4.80796 22.4736C3.82898 22.034 3.82898 20.2122 4.80796 19.8972L48.7545 3.42532C49.5274 2.90514 50.4414 2.90514 51.3396 3.42532L95.2861 19.8972Z" fill="#2F4F3E"/>
<path d="M22.8813 64.25C22.8813 65.2562 22.0629 66.0718 21.0534 66.0718C20.0438 66.0718 19.2254 65.2562 19.2254 64.25C19.2254 63.2439 20.0438 62.4282 21.0534 62.4282C22.0629 62.4282 22.8813 63.2439 22.8813 64.25Z" fill="#2F4F3E"/>
<path d="M33.8489 71.5371C34.8584 71.5371 35.6768 70.7215 35.6768 69.7153C35.6768 68.7092 34.8584 67.8935 33.8489 67.8935C32.8393 67.8935 32.0209 68.7092 32.0209 69.7153C32.0209 70.7215 32.8393 71.5371 33.8489 71.5371Z" fill="#2F4F3E"/>
<path d="M53.0422 75.1807C53.0422 76.1868 52.2238 77.0025 51.2142 77.0025C50.2047 77.0025 49.3863 76.1868 49.3863 75.1807C49.3863 74.1745 50.2047 73.3589 51.2142 73.3589C52.2238 73.3589 53.0422 74.1745 53.0422 75.1807Z" fill="#2F4F3E"/>
<path d="M82.2893 66.0716C83.2988 66.0716 84.1172 65.256 84.1172 64.2498C84.1172 63.2437 83.2988 62.4281 82.2893 62.4281C81.2797 62.4281 80.4613 63.2437 80.4613 64.2498C80.4613 65.256 81.2797 66.0716 82.2893 66.0716Z" fill="#2F4F3E"/>
<path d="M69.4936 69.7153C69.4936 70.7215 68.6752 71.5371 67.6656 71.5371C66.6561 71.5371 65.8377 70.7215 65.8377 69.7153C65.8377 68.7092 66.6561 67.8935 67.6656 67.8935C68.6752 67.8935 69.4936 68.7092 69.4936 69.7153Z" fill="#2F4F3E"/>
<path fill-rule="evenodd" clip-rule="evenodd" d="M97.8712 61.0436C100.71 63.0239 100.71 66.6676 97.8712 68.7728L53.9247 85.2447C51.3396 86.2518 48.6135 86.2518 46.1694 85.2447L2.2229 68.7728C-0.74082 66.6677 -0.740792 63.024 2.2229 61.0437L16.2145 55.7994L2.22278 50.555C0.686649 49.4639 -0.0532775 47.9595 0.00298146 46.4876L0.00297345 39.6559L0.0115183 39.6635C-0.102778 38.1394 0.634317 36.6002 2.22279 35.5387L16.2141 30.2946L20.9436 32.0672L4.80788 38.1151C3.8289 38.4301 3.8289 40.2519 4.80788 40.6915L14.9743 44.5021C17.0862 41.6097 20.4337 38.9003 24.1716 36.4596C25.2028 35.7863 26.2763 35.1255 27.379 34.4793L31.8372 36.1503C29.8545 37.2294 27.9433 38.3528 26.1751 39.5073C22.9274 41.6279 20.2927 43.7716 18.5572 45.845L32.2879 50.9915C34.5916 46.4401 37.4731 42.6211 40.5834 39.4285L44.3444 40.8383C41.1102 43.9371 38.0993 47.7098 35.7313 52.2822L48.7544 57.1634C49.5273 57.5587 50.4413 57.5587 51.3395 57.1634L52.8332 56.6036C54.771 48.7512 59.1194 42.52 63.5107 37.9292L73.2488 34.2792C71.841 35.2984 70.2283 36.5714 68.5609 38.0951C64.1807 42.0978 59.5075 47.7518 57.0973 55.0053L95.286 40.6915C96.1396 40.2519 96.1396 38.4301 95.286 38.1151L79.1503 32.0672L83.8797 30.2945L97.8711 35.5387C99.2383 36.4926 99.947 37.8325 99.997 39.2004C100.001 39.3041 100.001 39.4084 99.997 39.5123L99.997 46.4876C100.051 47.9595 99.3422 49.4639 97.8711 50.5551L83.8795 55.7993L97.8712 61.0436ZM79.1501 57.572L53.9246 67.0269C51.3395 68.034 48.6133 68.034 46.1693 67.0269L20.9439 57.572L4.80799 63.62C3.82901 63.935 3.82901 65.7568 4.80799 66.1964L48.7545 82.6683C49.5274 83.0636 50.4414 83.0636 51.3396 82.6683L95.2861 66.1964C96.1397 65.7568 96.1397 63.935 95.2861 63.62L79.1501 57.572ZM4.08027 43.9641L4.08028 46.4876C4.02929 47.0828 4.27182 47.7379 4.80787 47.9787L48.4724 64.3449L48.4724 60.3802C47.6865 60.2605 46.9148 60.047 46.1693 59.7398L4.08027 43.9641ZM52.1283 60.2739L52.1283 64.1549L95.286 47.9787C95.7534 47.7379 95.9649 47.0828 95.9204 46.4876L95.9204 43.9991L53.9246 59.7398C53.3315 59.9709 52.7311 60.1489 52.1283 60.2739Z" fill="#2F4F3E"/>
</svg>
