<svg xmlns="http://www.w3.org/2000/svg" width="77.072" height="72.888" viewBox="0 0 77.072 72.888">
  <g id="Group_2" data-name="Group 2" transform="translate(-0.464 52.301) rotate(-160)">
    <path id="Path" d="M-30.978,27.51C-7.892,16.706,3.59,21.136-.995,7.277-9.208-7.734-43.508,1.864-53.318,23.411-58.334,34.429-61.755,42.467-62,54.925-59.762,56.307-54.064,38.315-30.978,27.51Z" transform="translate(-0.225 0.739)" fill="#ff7c3b"/>
    <path id="Path-2" data-name="Path" d="M-37.5,32.556a.464.464,0,0,0,.423-.276,63.281,63.281,0,0,1,8.845-14.162C-22.774,11.442-13.487,3.038-.373.888A.454.454,0,0,0-.005.373.455.455,0,0,0-.52.005C-13.928,2.192-23.381,10.762-28.953,17.566A63.6,63.6,0,0,0-37.908,31.93a.461.461,0,0,0,.239.589A.367.367,0,0,0-37.5,32.556Z" transform="translate(-9.84 10.167) rotate(9)" fill="#ffd194"/>
    <path id="Path-3" data-name="Path" d="M-.442,3.736a.431.431,0,0,0,.423-.331.446.446,0,0,0-.313-.552L-10.522.019a.445.445,0,0,0-.552.313.446.446,0,0,0,.313.552L-.571,3.718C-.516,3.718-.479,3.736-.442,3.736Z" transform="translate(-9.724 13.056) rotate(9)" fill="#ffd194"/>
    <path id="Path-4" data-name="Path" d="M-.442,3.884a.431.431,0,0,0,.423-.331A.446.446,0,0,0-.332,3L-10.743.019a.445.445,0,0,0-.552.313.446.446,0,0,0,.313.552L-.571,3.865C-.534,3.865-.479,3.884-.442,3.884Z" transform="translate(-14.337 14.672) rotate(9)" fill="#ffd194"/>
    <path id="Path-5" data-name="Path" d="M-.442,3.939a.436.436,0,0,0,.423-.313.45.45,0,0,0-.294-.552L-10.6.019a.449.449,0,0,0-.552.294.45.45,0,0,0,.294.552L-.571,3.92C-.534,3.92-.479,3.939-.442,3.939Z" transform="translate(-19.266 16.87) rotate(9)" fill="#ffd194"/>
  </g>
</svg>
