<svg xmlns="http://www.w3.org/2000/svg" width="40" height="40" viewBox="0 0 40 40">
  <g id="Сгруппировать_4" data-name="Сгруппировать 4" transform="translate(-1240 -56)">
    <rect id="Rectangle" width="40" height="40" rx="8" transform="translate(1240 56)" fill="#fff" opacity="0.346"/>
    <path id="_" data-name="" d="M15.714,14.286A4.268,4.268,0,0,1,20,18.571a4.268,4.268,0,0,1-4.286,4.286,4.268,4.268,0,0,1-4.286-4.286,4.772,4.772,0,0,1,.089-.937L6.964,14.777a4.141,4.141,0,0,1-2.679.938,4.133,4.133,0,0,1-3.036-1.25A4.133,4.133,0,0,1,0,11.429,4.133,4.133,0,0,1,1.25,8.393a4.133,4.133,0,0,1,3.036-1.25,4.141,4.141,0,0,1,2.679.938l4.554-2.857a4.772,4.772,0,0,1-.089-.937,4.133,4.133,0,0,1,1.25-3.036,4.311,4.311,0,0,1,6.071,0A4.133,4.133,0,0,1,20,4.286a4.133,4.133,0,0,1-1.25,3.036,4.3,4.3,0,0,1-5.714.313L8.482,10.491a4.966,4.966,0,0,1,0,1.875l4.554,2.857A4.141,4.141,0,0,1,15.714,14.286Z" transform="translate(1249 65)" fill="#ff5347"/>
  </g>
</svg>
