<svg width="55" height="25" viewBox="0 0 55 25" fill="none" xmlns="http://www.w3.org/2000/svg">
<g clip-path="url(#clip0)">
<path d="M16.7812 8.07657H12.2045C9.25595 8.07657 7.62783 9.76487 7.62783 12.6533C7.62783 15.5417 9.25595 17.23 12.2045 17.23H16.7812C17.1669 17.23 18.3068 17.6077 18.3068 17.23V5.02544C18.3127 2.40437 20.2078 0.442932 22.8835 0.448743C24.6218 0.448743 26.5999 2.02371 27.4602 3.49988L32.0369 11.1277V5.02544C32.0428 2.40437 33.9379 0.442932 36.6136 0.448743C38.3519 0.448743 40.33 2.02371 41.1903 3.49988L45.767 11.1277V0.448743H48.8181H50.3437H53.3948V20.2811C53.3889 22.9022 51.4938 24.8636 48.8181 24.8578C47.0798 24.8578 45.1017 23.2828 44.2414 21.8067L39.6647 14.1788V20.2811C39.6588 22.9022 36.2381 24.8636 33.5625 24.8578C31.8242 24.8578 31.3716 23.2828 30.5113 21.8067L24.4091 14.1788V20.2811C24.4091 22.9022 22.508 24.8578 19.8324 24.8578H12.2045C5.32253 24.8578 0 19.3948 0 12.6533C0 5.91172 5.32253 0.448743 12.2045 0.448743H16.7812V3.49988V5.02544V8.07657Z" fill="#CC0000"/>
<path d="M19.8325 21.8067H12.2047C6.99197 21.8067 3.05127 17.7109 3.05127 12.6533C3.05127 7.59564 6.99197 3.49986 12.2047 3.49986H16.7814V5.02543H12.2047C7.64208 5.02543 4.57684 8.22641 4.57684 12.6533C4.57684 17.0801 7.64208 20.2811 12.2047 20.2811H19.8325C20.2167 20.2811 21.3581 20.6538 21.3581 20.2811V5.02543C21.3581 4.53802 21.0035 3.84392 21.3581 3.49986C21.7127 3.15581 22.3813 3.49986 22.8836 3.49986C22.8836 3.49986 22.8777 3.49986 22.8836 3.49986C23.5515 3.49986 24.0782 2.93791 24.4092 3.49986L33.5626 20.2811C33.6512 20.4359 33.3853 20.2352 33.5626 20.2811C33.7399 20.327 34.9286 20.3728 35.0882 20.2811C35.3009 20.1607 35.0822 20.5162 35.0882 20.2811V5.02543C35.0882 4.53802 34.7335 3.84392 35.0882 3.49986C35.4428 3.15581 36.1114 3.49986 36.6137 3.49986C36.6137 3.49986 36.6078 3.49986 36.6137 3.49986C37.2816 3.49986 37.8083 2.93791 38.1393 3.49986L47.2927 20.2811C47.3813 20.4359 48.6409 20.2352 48.8182 20.2811C48.9956 20.327 48.6587 20.3728 48.8182 20.2811C49.031 20.1607 48.8123 20.5162 48.8182 20.2811V0.44873H50.3438V20.2811C50.3438 20.9291 49.3974 21.4855 48.8182 21.8067C48.3868 22.0475 47.7773 21.9271 47.2927 21.8067C46.8081 21.6805 47.5409 20.7054 47.2927 20.2811L38.1393 5.02543C38.0152 4.81899 36.8619 5.02543 36.6137 5.02543C36.4305 5.02543 36.7497 4.89927 36.6137 5.02543C36.4837 5.15158 36.6137 4.84193 36.6137 5.02543V20.2811C36.6137 20.9291 35.6673 21.4855 35.0882 21.8067C34.6567 22.0475 34.0472 21.9271 33.5626 21.8067C33.078 21.6805 32.2852 20.7054 32.037 20.2811L22.8836 5.02543C22.7595 4.81899 23.1319 5.02543 22.8836 5.02543C22.7004 5.02543 23.0196 4.89927 22.8836 5.02543C22.7536 5.15158 21.3581 4.84193 21.3581 5.02543V20.2811C21.3462 21.2731 20.8668 21.8067 19.8325 21.8067Z" fill="white"/>
</g>
<defs>
<clipPath id="clip0">
<rect width="53.3948" height="24.4091" fill="white" transform="translate(0 0.44873)"/>
</clipPath>
</defs>
</svg>
