<svg width="97" height="33" viewBox="0 0 97 33" fill="none" xmlns="http://www.w3.org/2000/svg">
<path fill-rule="evenodd" clip-rule="evenodd" d="M19.0791 28.8576C19.4604 28.8576 19.1739 28.4407 19.0791 28.8576C19.0314 29.3213 19.6034 30.3831 19.0791 30.3831C18.7454 30.3831 18.9843 30.5679 19.0791 30.3831V28.8576ZM19.0791 30.3831C19.5081 30.3831 18.8413 30.5684 19.0791 30.3831C19.3651 30.1979 20.6046 30.6621 20.6046 30.3831C20.7 29.8737 19.3651 28.9034 19.0791 28.8576C19.6511 28.8118 20.5093 27.7025 20.6046 27.332C20.6046 27.0999 20.7476 27.4704 20.6046 27.332C20.4616 27.1925 19.5081 27.332 19.0791 27.332H17.5535H19.0791C19.2221 27.3778 19.1744 27.1473 19.0791 27.332L17.5535 30.3831C17.5058 30.5226 17.6971 30.3831 17.5535 30.3831H19.0791ZM19.0791 28.8576V27.332C19.1267 27.1925 18.8884 27.332 19.0791 27.332C19.4128 27.332 20.6523 26.962 20.6046 27.332C20.6046 27.5641 19.2221 28.7181 19.0791 28.8576C19.3174 28.8576 18.9361 28.9971 19.0791 28.8576ZM20.6046 28.8576C20.7476 28.3012 21.8448 28.8576 22.1302 28.8576C22.2732 28.8576 22.1302 28.7181 22.1302 28.8576C22.0831 29.2276 21.2249 28.7186 20.6046 28.8576ZM22.1302 30.3831C21.8919 30.7074 20.8912 30.3831 20.6046 30.3831C20.3186 30.3831 20.557 30.6621 20.6046 30.3831C21.3197 30.2437 21.8919 29.0886 22.1302 28.8576C22.2732 28.7181 22.0825 28.9971 22.1302 28.8576C22.1779 28.5334 22.4639 28.8576 22.1302 28.8576C21.7012 28.8576 20.8906 28.5334 20.6046 28.8576C20.3186 29.1818 20.6523 29.9663 20.6046 30.3831C20.5093 31.0321 20.3186 30.3831 20.6046 30.3831C20.9383 30.3831 21.7489 30.9853 22.1302 30.3831ZM23.6558 30.3831C23.2744 31.031 23.9894 30.3831 23.6558 30.3831C23.3221 30.3831 22.0354 30.9847 22.1302 30.3831C22.2255 29.5958 22.7978 28.8576 23.6558 28.8576C24.0371 28.8576 25.229 28.5802 25.1813 28.8576C25.1337 29.0428 23.7988 28.8576 23.6558 28.8576C23.5604 28.8576 23.6558 28.9971 23.6558 28.8576C23.6558 28.5802 23.7988 28.8576 23.6558 28.8576C23.3698 28.8576 23.7511 29.7352 23.6558 30.3831C23.4174 30.3831 23.6081 30.7074 23.6558 30.3831C23.4646 30.661 23.9418 30.3831 23.6558 30.3831ZM26.7069 28.8576C26.8022 28.8576 26.6592 28.8107 26.7069 28.8576C26.6116 29.2276 25.4673 30.0115 25.1813 30.3831C24.9425 30.8 25.3726 30.3831 25.1813 30.3831C25.086 30.3831 25.1337 30.5216 25.1813 30.3831C25.229 29.8268 26.1349 28.8576 26.7069 28.8576ZM26.7069 28.8576C26.6592 28.8107 26.8022 28.8576 26.7069 28.8576C25.6577 28.8576 25.229 29.7347 25.1813 30.3831C25.1337 30.7074 24.8477 30.3831 25.1813 30.3831C25.658 30.3831 26.4209 30.8926 26.7069 30.3831H25.1813C25.0383 30.7531 26.4686 30.3831 26.7069 30.3831C27.0882 30.3831 26.5162 30.8005 26.7069 30.3831C26.6116 30.5684 26.8022 30.3831 26.7069 30.3831C26.6116 30.3831 26.6116 30.521 26.7069 30.3831V28.8576ZM28.2325 30.3831C27.8988 30.9853 28.662 30.3831 28.2325 30.3831C27.8511 30.3831 26.5639 30.8005 26.7069 30.3831L28.2325 28.8576C28.3278 28.7181 28.3278 28.8576 28.2325 28.8576V30.3831C28.0895 30.3831 28.1371 30.6142 28.2325 30.3831C28.4714 30.3831 28.0424 29.2744 28.2325 28.8576C28.3755 28.5791 29.5197 29.3671 29.758 28.8576V30.3831C29.7104 30.5216 29.7104 30.3831 29.758 30.3831C29.901 30.3831 29.615 30.5684 29.758 30.3831C29.5197 30.8 28.6138 30.3831 28.2325 30.3831C28.1371 30.7542 27.9941 30.3831 28.2325 30.3831ZM29.758 30.3831C29.758 30.2437 29.615 30.3831 29.758 30.3831C29.8534 30.3831 29.758 30.2905 29.758 30.3831C29.8534 30.7074 31.1406 30.3831 31.2836 30.3831C31.4743 30.3831 31.2359 30.5679 31.2836 30.3831C31.2836 30.151 31.4266 30.5226 31.2836 30.3831C31.0929 30.1979 29.7104 29.1355 29.758 28.8576C29.8057 28.4407 30.8069 28.8576 31.2836 28.8576C31.7603 28.8576 31.3313 28.7192 31.2836 28.8576C31.2836 29.0439 31.3789 28.8576 31.2836 28.8576C31.1883 28.8576 31.3313 28.9502 31.2836 28.8576C31.2359 28.6255 31.4266 28.8576 31.2836 28.8576C31.1883 28.8576 31.2836 28.6718 31.2836 28.8576C31.2359 28.996 31.0929 28.6712 31.2836 28.8576C31.5219 29.0886 31.3313 30.1042 31.2836 30.3831C31.2359 30.8 30.2824 30.3831 29.758 30.3831C29.7104 30.6153 29.2337 30.3826 29.758 30.3831ZM32.8092 28.8576C32.9522 28.3012 32.5232 28.8576 32.8092 28.8576C32.9522 28.8576 32.8568 28.7181 32.8092 28.8576C33.4288 28.7186 32.7621 29.2276 32.8092 28.8576ZM32.8092 30.3831C32.5708 30.7074 33.0952 30.3831 32.8092 30.3831C32.5708 30.3831 32.7615 30.6621 32.8092 30.3831C33.5242 30.2437 34.1441 29.0886 34.3347 28.8576C34.5254 28.7181 34.2871 28.9971 34.3347 28.8576C34.3347 28.5334 33.1905 28.8576 32.8092 28.8576C32.4278 28.8576 33.0952 28.5334 32.8092 28.8576C32.5232 29.1818 31.3318 29.9663 31.2836 30.3831C31.1883 31.0321 32.4761 30.3831 32.8092 30.3831C32.4284 30.9853 33.1428 30.3831 32.8092 30.3831ZM34.3347 30.3831C34.3347 30.2437 34.1917 30.3831 34.3347 30.3831C34.4301 30.3831 35.8603 30.2905 35.8603 30.3831C35.9556 30.7074 35.7173 30.3831 35.8603 30.3831C36.051 30.3831 35.8126 30.5679 35.8603 30.3831C35.8603 30.151 36.0033 30.5226 35.8603 30.3831C35.6696 30.1979 35.8126 29.1355 35.8603 28.8576C35.908 28.4407 35.3836 28.8576 35.8603 28.8576C36.337 28.8576 37.4335 28.7192 37.3859 28.8576C37.3859 29.0439 35.9551 28.8576 35.8603 28.8576C35.7655 28.8576 35.908 28.9502 35.8603 28.8576C35.765 28.6255 36.0033 28.8576 35.8603 28.8576C35.7173 28.8576 35.8603 28.6718 35.8603 28.8576C35.8126 28.996 35.6696 28.6712 35.8603 28.8576C36.0986 29.0886 35.908 30.1042 35.8603 30.3831C35.765 30.8 36.4329 30.3831 35.8603 30.3831C35.3842 30.3826 34.2871 30.6153 34.3347 30.3831ZM38.9114 28.8576C39.1021 28.8576 38.9591 28.626 38.9114 28.8576C38.8638 29.2286 37.9108 30.3831 37.3859 30.3831C37.1952 30.3831 37.3382 30.6616 37.3859 30.3831C37.4335 30.0589 37.1952 29.1818 37.3859 28.8576C37.5765 28.5334 38.6731 28.8576 38.9114 28.8576ZM37.3859 30.3831C37.9108 30.3831 38.6254 30.7547 38.9114 30.3831C39.1503 30.0589 38.9114 29.0881 38.9114 28.8576C39.0068 28.116 39.2928 28.8576 38.9114 28.8576C38.3394 28.8576 37.6237 28.5328 37.3859 28.8576C37.147 29.2286 37.4335 30.1979 37.3859 30.3831C36.8133 30.3831 37.29 30.9395 37.3859 30.3831ZM41.9626 30.3831V28.8576C42.0102 28.6255 42.1056 28.8576 41.9626 28.8576C41.7242 28.8576 40.58 29.9663 40.437 30.3831C40.2541 30.7274 40.5715 30.0184 40.437 30.3831V28.8576C40.4847 28.7181 40.4847 28.8576 40.437 28.8576H41.9626H40.437C40.7707 28.2555 41.5812 28.8576 41.9626 28.8576C42.2962 28.8576 42.1527 28.3944 41.9626 28.8576C42.3439 28.2555 43.1068 28.8576 43.4881 28.8576C43.8695 28.8576 43.6306 28.4402 43.4881 28.8576V30.3831C43.3928 30.5216 43.3928 30.3831 43.4881 30.3831C43.5835 30.3831 43.3928 30.5684 43.4881 30.3831C43.2975 30.8 43.8695 30.3831 43.4881 30.3831C43.2493 30.3831 43.3451 30.7542 43.4881 30.3831V28.8576C43.5835 28.6723 43.6311 28.8576 43.4881 28.8576C43.2021 28.8576 42.1538 30.0131 41.9626 30.3831C42.1532 29.8737 41.8196 30.7074 41.9626 30.3831ZM46.5393 30.3831C46.1579 30.9853 45.4909 30.3831 45.0137 30.3831C44.68 30.3831 44.8707 30.8005 45.0137 30.3831V28.8576C45.0614 28.7181 45.109 28.8576 45.0137 28.8576V30.3831C44.9184 30.6142 44.8707 30.3831 45.0137 30.3831C45.2997 30.3831 46.3009 29.2744 46.5393 28.8576C46.6823 28.5791 46.3486 29.3671 46.5393 28.8576V30.3831C46.4439 30.3831 46.4916 30.5216 46.5393 30.3831C46.3963 30.5684 46.6346 30.3831 46.5393 30.3831C46.9206 30.3831 46.3486 30.8 46.5393 30.3831C46.3009 30.3831 44.8707 30.7542 45.0137 30.3831H46.5393ZM48.0648 30.3831C47.6835 31.031 48.3985 30.3831 48.0648 30.3831C47.7312 30.3831 46.4445 30.9847 46.5393 30.3831C46.6346 29.5958 47.2068 28.8576 48.0648 28.8576C48.4462 28.8576 49.6386 28.5802 49.5904 28.8576C49.5433 29.0428 48.1607 28.8576 48.0648 28.8576C47.9695 28.8576 48.0648 28.9971 48.0648 28.8576C48.0648 28.5802 48.2078 28.8576 48.0648 28.8576C47.7788 28.8576 48.1602 29.7352 48.0648 30.3831C47.8265 30.3831 48.0172 30.7074 48.0648 30.3831C47.8736 30.661 48.3508 30.3831 48.0648 30.3831ZM49.5904 27.332C49.6386 27.1925 49.6868 27.3778 49.5904 27.332H51.116L49.5904 28.8576C49.9241 28.3023 50.6864 28.8576 51.116 28.8576C51.4496 28.8576 51.2579 28.4402 51.116 28.8576V30.3831C51.0678 30.5216 51.0206 30.3831 51.116 30.3831C51.2113 30.3831 50.9724 30.5684 51.116 30.3831C50.9253 30.8 51.4968 30.3831 51.116 30.3831C50.8771 30.3831 50.9741 30.7531 51.116 30.3831V28.8576C51.2113 28.6723 51.2113 28.8576 51.116 28.8576C50.8305 28.8576 49.7805 29.9194 49.5904 30.3831C49.4468 30.6605 49.7805 29.8737 49.5904 30.3831V27.332ZM54.1671 30.3831C53.9282 30.8 53.0234 30.3831 52.6415 30.3831C52.3561 30.3831 52.5467 30.7074 52.6415 30.3831L54.1671 28.8576C54.2153 28.7181 54.2624 28.8576 54.1671 28.8576H52.6415H54.1671V30.3831C54.0718 30.3831 54.12 30.5216 54.1671 30.3831C54.0718 30.5684 54.2624 30.3831 54.1671 30.3831ZM54.1671 27.332C54.1671 27.1457 53.9299 27.332 54.1671 27.332C54.3589 27.332 54.1671 27.1462 54.1671 27.332C54.4054 27.332 54.1189 27.6094 54.1671 27.332C54.2019 27.3503 54.1276 27.3304 54.1671 27.332C54.1901 27.3633 54.1323 27.3137 54.1671 27.332C54.1736 27.3699 54.1441 27.3007 54.1671 27.332C54.1558 27.3688 54.1606 27.2941 54.1671 27.332ZM54.1671 30.3831C54.2153 30.2437 54.0252 30.3831 54.1671 30.3831C54.2624 30.3831 54.1671 30.2905 54.1671 30.3831C54.0241 30.3831 54.2624 30.7074 54.1671 30.3831C54.3096 30.3831 55.6445 30.5679 55.6927 30.3831C55.6927 30.151 55.8357 30.5226 55.6927 30.3831C55.502 30.1979 54.1189 29.1355 54.1671 28.8576C54.2153 28.4407 55.2154 28.8576 55.6927 28.8576C56.1699 28.8576 55.7398 28.7192 55.6927 28.8576C55.6927 29.0439 55.7875 28.8576 55.6927 28.8576C55.5979 28.8576 55.6927 28.9502 55.6927 28.8576C55.5973 28.6255 55.8357 28.8576 55.6927 28.8576C55.5502 28.8576 55.7403 28.6718 55.6927 28.8576C55.6927 28.996 55.5025 28.6712 55.6927 28.8576C55.8844 29.0886 55.7398 30.1042 55.6927 30.3831C55.6445 30.8 54.7397 30.3831 54.1671 30.3831C54.1671 30.6153 53.6904 30.3826 54.1671 30.3831ZM57.2182 28.8576C57.2654 28.7181 57.3136 28.8576 57.2182 28.8576H58.7438C59.0293 28.3939 58.4572 28.8576 58.7438 28.8576C58.8862 28.8576 58.7438 28.6728 58.7438 28.8576C58.6956 29.0428 58.8868 28.8576 58.7438 28.8576C58.6956 28.8576 58.7909 28.9044 58.7438 28.8576C58.6956 28.8118 58.792 28.8576 58.7438 28.8576C58.6002 28.8576 57.4571 29.8268 57.2182 30.3831C57.0758 30.7074 57.3612 30.06 57.2182 30.3831V28.8576ZM60.2694 30.3831C60.0305 30.8 59.1246 30.3831 58.7438 30.3831C58.4572 30.3831 58.6019 30.7074 58.7438 30.3831L60.2694 28.8576C60.3176 28.7181 60.3647 28.8576 60.2694 28.8576H58.7438H60.2694V30.3831C60.174 30.3831 60.2222 30.5216 60.2694 30.3831C60.1258 30.5684 60.3658 30.3831 60.2694 30.3831ZM60.2694 27.332C60.3176 27.1457 60.031 27.332 60.2694 27.332C60.46 27.332 60.2694 27.1462 60.2694 27.332C60.4595 27.332 60.2222 27.6094 60.2694 27.332C60.2222 27.5173 60.0781 27.332 60.2694 27.332ZM61.7949 30.3831C61.6996 30.3831 60.2694 30.5679 60.2694 30.3831C60.3647 29.8737 61.2224 28.8576 61.7949 28.8576C61.8903 28.8576 61.7467 28.8118 61.7949 28.8576C61.6566 29.2894 62.0677 30.0167 61.7949 30.3831C61.9851 30.3831 61.5571 30.7526 61.7949 30.3831ZM63.3205 27.332H61.7949H63.3205C63.3676 27.1925 63.4158 27.3778 63.3205 27.332L61.7949 28.8576C61.7478 28.8107 61.9379 28.8576 61.7949 28.8576C60.7945 28.8576 60.3647 29.7816 60.2694 30.3831C60.2222 30.7074 59.8875 30.3831 60.2694 30.3831C60.7937 30.3831 61.5089 30.8926 61.7949 30.3831C61.6514 30.7542 61.556 30.3831 61.7949 30.3831C62.1768 30.3831 63.0822 30.8005 63.3205 30.3831C63.1769 30.5684 61.9385 30.3831 61.7949 30.3831C61.7478 30.3831 61.7478 30.5216 61.7949 30.3831L63.3205 27.332ZM64.8461 30.3831C64.6072 30.8 63.7024 30.3831 63.3205 30.3831C63.035 30.3831 63.2257 30.7074 63.3205 30.3831V28.8576C63.3687 28.7181 63.4158 28.8576 63.3205 28.8576H64.8461L63.3205 30.3831C63.2734 30.5216 63.2252 30.3831 63.3205 30.3831C63.4158 30.3831 64.7507 30.5684 64.8461 30.3831ZM64.8461 27.332C64.8461 27.1457 64.6077 27.332 64.8461 27.332C65.0367 27.332 64.8461 27.1462 64.8461 27.332C65.0844 27.332 64.7978 27.6094 64.8461 27.332C64.8808 27.3503 64.8066 27.3303 64.8461 27.332C64.869 27.3633 64.8113 27.3137 64.8461 27.332C64.8526 27.3699 64.8231 27.3008 64.8461 27.332C64.8349 27.3688 64.8395 27.2941 64.8461 27.332ZM64.8461 28.8576C64.8932 28.7181 64.9414 28.8576 64.8461 28.8576H66.3716C66.7053 28.2555 65.9421 28.8576 66.3716 28.8576C66.7053 28.8576 66.5146 28.4402 66.3716 28.8576V30.3831C66.3234 30.5216 66.2763 30.3831 66.3716 30.3831C66.467 30.3831 66.2763 30.5684 66.3716 30.3831H67.8972C67.6594 30.8 66.8006 30.3831 66.3716 30.3831C66.1327 30.3831 66.2768 30.7074 66.3716 30.3831V28.8576C66.467 28.7192 66.5141 28.8576 66.3716 28.8576C66.1327 28.8576 65.0373 29.9663 64.8461 30.3831C64.7036 30.6605 65.0373 29.8737 64.8461 30.3831V28.8576ZM69.4228 28.8576C69.5181 28.8576 69.4228 28.5334 69.4228 28.8576C69.3745 29.1349 68.2791 28.8576 67.8972 28.8576C67.7065 28.8576 67.8972 29.0881 67.8972 28.8576C67.9443 28.5334 69.0891 28.8576 69.4228 28.8576ZM69.4228 28.8576C69.3274 28.8118 69.6134 28.8576 69.4228 28.8576C68.6119 28.8576 67.9443 28.4865 67.8972 28.8576C67.849 29.2276 67.7542 30.3363 67.8972 30.3831C67.7065 30.4758 67.9443 30.1516 67.8972 30.3831C67.8972 30.5684 67.6589 30.3374 67.8972 30.3831C67.6106 30.4289 66.4187 31.4919 66.3716 31.9087C66.3234 32.3256 67.3257 31.9087 67.8972 31.9087C68.5651 31.9087 69.3274 30.9395 69.4228 30.3831C69.4699 29.9663 68.4226 30.5226 67.8972 30.3831C67.5646 30.2905 67.8972 30.521 67.8972 30.3831C67.8972 30.2894 67.8501 30.43 67.8972 30.3831C68.0407 30.43 67.8024 30.3831 67.8972 30.3831C68.518 30.3831 69.3756 29.3671 69.4228 28.8576C69.4699 28.9507 69.471 28.7192 69.4228 28.8576ZM67.8972 31.9087C67.5635 31.9087 67.849 32.2798 67.8972 31.9087C67.9443 31.5856 67.8019 30.3831 67.8972 30.3831C68.1826 30.4289 69.4699 31.5387 69.4228 31.9087C69.3745 32.2792 68.1355 31.9087 67.8972 31.9087ZM72.4739 28.8576C72.6646 28.8576 72.5221 28.626 72.4739 28.8576C72.4268 29.2286 71.4727 30.3831 70.9483 30.3831C70.7577 30.3831 70.9018 30.6616 70.9483 30.3831C70.9965 30.0589 72.2827 29.1818 72.4739 28.8576C72.235 28.8576 72.6646 28.5334 72.4739 28.8576ZM70.9483 30.3831C71.4255 30.3831 72.235 30.7547 72.4739 30.3831C72.7128 30.0589 72.4739 29.0881 72.4739 28.8576C72.5692 28.116 72.9034 28.8576 72.4739 28.8576C71.9496 28.8576 71.1861 28.5328 70.9483 28.8576C70.7094 29.2286 70.9965 30.1979 70.9483 30.3831C70.3292 30.3831 70.9018 30.9395 70.9483 30.3831ZM73.9995 28.8576C74.0477 28.7181 74.0948 28.8576 73.9995 28.8576C74.3331 28.2555 75.0955 28.8576 75.525 28.8576C75.8587 28.8576 75.7151 28.4402 75.525 28.8576V30.3831C75.4779 30.5216 75.4297 30.3831 75.525 30.3831C75.6204 30.3831 75.4297 30.5684 75.525 30.3831C75.2861 30.8 75.9069 30.3831 75.525 30.3831C75.2396 30.3831 73.9047 30.7074 73.9995 30.3831L75.525 28.8576C75.5732 28.7192 75.6686 28.8576 75.525 28.8576C75.2861 28.8576 74.1896 29.9663 73.9995 30.3831C73.8559 30.6605 74.1896 29.8737 73.9995 30.3831H72.4739L73.9995 28.8576ZM78.5762 30.3831C78.9087 29.8737 78.4808 29.1818 78.5762 28.8576C78.6715 28.6723 78.5762 29.0428 78.5762 28.8576C78.7186 28.7649 78.4326 28.8576 78.5762 28.8576C78.6233 28.9513 78.5762 28.7655 78.5762 28.8576C78.529 29.0428 78.9104 29.9194 78.5762 30.3831C78.6726 30.1979 78.2425 30.8926 78.5762 30.3831C78.1 31.0779 77.4314 31.9087 77.0506 31.9087C76.8117 31.9087 77.0024 32.0477 77.0506 31.9087C77.0506 31.7234 76.9076 31.9087 77.0506 31.9087C77.1459 31.9087 77.0035 31.8161 77.0506 31.9087C77.0988 32.0482 77.0024 31.9087 77.0506 31.9087C77.1459 31.9087 76.9558 32.1392 77.0506 31.9087C77.1459 31.7224 77.0024 30.5226 77.0506 30.3831C77.0988 29.9205 77.0506 29.2281 77.0506 28.8576C77.0506 28.6255 77.147 28.8576 77.0506 28.8576H78.5762C78.5756 29.1344 78.6709 29.6415 78.5762 30.3831ZM80.1017 28.8576C80.3406 28.8576 81.6273 28.626 81.6273 28.8576C81.5791 29.2286 80.6261 30.3831 80.1017 30.3831C79.9111 30.3831 80.0552 30.6616 80.1017 30.3831C80.1499 30.0589 79.9105 29.1818 80.1017 28.8576C79.8634 28.8576 80.2924 28.5334 80.1017 28.8576ZM80.1017 30.3831C80.6261 30.3831 81.3884 30.7547 81.6273 30.3831C81.8662 30.0589 81.5791 29.0881 81.6273 28.8576C81.7226 28.116 80.5313 28.8576 80.1017 28.8576C79.5774 28.8576 80.3395 28.5328 80.1017 28.8576C79.8628 29.2286 78.6244 30.1979 78.5762 30.3831C78.5279 30.9395 79.482 30.3831 80.1017 30.3831ZM83.1529 30.3831C82.8192 30.9853 82.1045 30.3831 81.6273 30.3831C81.2936 30.3831 81.4843 30.8005 81.6273 30.3831V28.8576C81.6755 28.7181 81.7226 28.8576 81.6273 28.8576H83.1529L81.6273 30.3831C81.532 30.6142 83.0104 30.3831 83.1529 30.3831C83.4394 30.3831 82.9145 29.2744 83.1529 28.8576C83.2953 28.5791 82.9616 29.3671 83.1529 28.8576H84.6784L83.1529 30.3831C83.0575 30.3831 83.1057 30.5216 83.1529 30.3831C83.2482 30.3831 84.5831 30.5684 84.6784 30.3831C84.4395 30.8 83.5347 30.3831 83.1529 30.3831C83.0098 30.7542 82.9622 30.3831 83.1529 30.3831ZM84.6784 28.8576C84.7255 28.7181 84.7738 28.8576 84.6784 28.8576H86.204C86.4894 28.3939 85.9657 28.8576 86.204 28.8576C86.3475 28.8576 86.2522 28.6728 86.204 28.8576C86.204 29.0428 86.347 28.8576 86.204 28.8576C86.1087 28.8576 86.2511 28.9044 86.204 28.8576C86.1558 28.8118 86.2522 28.8576 86.204 28.8576C86.0604 28.8576 84.8702 29.8268 84.6784 30.3831C84.536 30.7074 84.7738 30.06 84.6784 30.3831V28.8576ZM89.2551 30.3831C88.9697 30.8 88.1103 30.3831 87.7296 30.3831C87.4907 30.3831 87.5876 30.7542 87.7296 30.3831V28.8576V27.332H89.2551V28.8576L87.7296 30.3831C87.7296 30.4758 87.6342 30.3831 87.7296 30.3831C87.8731 30.3831 89.1116 30.6147 89.2551 30.3831ZM90.7807 30.3831C90.5418 30.8 89.637 30.3831 89.2551 30.3831C88.9697 30.3831 89.1132 30.7074 89.2551 30.3831V28.8576C89.3033 28.7181 89.3505 28.8576 89.2551 28.8576H90.7807L89.2551 30.3831C89.208 30.5216 89.1598 30.3831 89.2551 30.3831C89.3505 30.3831 90.6853 30.5684 90.7807 30.3831ZM89.2551 27.332C89.2551 27.1457 90.5424 27.332 90.7807 27.332C90.9714 27.332 90.7807 27.1462 90.7807 27.332C90.7336 27.6094 91.019 27.332 90.7807 27.332C90.7412 27.3303 90.8154 27.3503 90.7807 27.332C90.7459 27.3137 89.2781 27.3633 89.2551 27.332C89.2617 27.3699 89.2321 27.3008 89.2551 27.332C89.2439 27.3688 89.2486 27.2941 89.2551 27.332ZM90.7807 28.8576C90.8289 28.7181 90.8771 28.8576 90.7807 28.8576H92.3063H90.7807C91.0661 28.3939 92.0208 28.8576 92.3063 28.8576C92.4498 28.8576 92.3063 28.6728 92.3063 28.8576C92.2591 29.0428 92.4964 28.8576 92.3063 28.8576C92.258 28.8576 92.4016 28.9044 92.3063 28.8576C92.3063 28.8118 92.4016 28.8576 92.3063 28.8576C92.1627 28.8576 91.0196 29.8268 90.7807 30.3831C90.6749 30.745 90.9293 30.0358 90.7807 30.3831V28.8576ZM92.3063 28.8576C92.4498 28.3012 93.5458 28.8576 93.8318 28.8576C93.9282 28.8576 93.88 28.7181 93.8318 28.8576C93.7841 29.2276 92.8788 28.7186 92.3063 28.8576ZM93.8318 30.3831C93.5929 30.7074 94.1184 30.3831 93.8318 30.3831C93.5929 30.3831 92.3063 30.6621 92.3063 30.3831C92.3534 30.3374 92.3063 30.4289 92.3063 30.3831C93.0224 30.2437 93.6412 29.0886 93.8318 28.8576C94.0225 28.7181 93.8318 28.9971 93.8318 28.8576C93.8789 28.5334 94.2126 28.8576 93.8318 28.8576C93.4028 28.8576 92.5928 28.5334 92.3063 28.8576C92.0208 29.1818 92.4016 29.9663 92.3063 30.3831C92.2109 31.0321 92.0202 30.3831 92.3063 30.3831C92.687 30.3831 93.4499 30.9853 93.8318 30.3831ZM93.8318 30.3831C93.88 30.2437 93.6899 30.3831 93.8318 30.3831C93.9272 30.3831 95.3574 30.2905 95.3574 30.3831C95.4527 30.7074 95.2144 30.3831 95.3574 30.3831C95.5004 30.3831 95.3092 30.5679 95.3574 30.3831C95.3574 30.151 95.5004 30.5226 95.3574 30.3831C95.1667 30.1979 95.3103 29.1355 95.3574 28.8576C95.4056 28.4407 94.8813 28.8576 95.3574 28.8576C95.8346 28.8576 96.9301 28.7192 96.8829 28.8576C96.8829 29.0439 95.4533 28.8576 95.3574 28.8576C95.262 28.8576 95.3574 28.9502 95.3574 28.8576C95.262 28.6255 95.5004 28.8576 95.3574 28.8576C95.2149 28.8576 95.4051 28.6718 95.3574 28.8576C95.3574 28.996 95.1673 28.6712 95.3574 28.8576C95.5963 29.0886 95.3574 30.1042 95.3574 30.3831C95.262 30.8 95.9299 30.3831 95.3574 30.3831C94.8813 30.3826 93.8318 30.6153 93.8318 30.3831ZM96.8829 30.3831C96.9301 30.151 96.6917 30.3831 96.8829 30.3831C97.1207 30.3831 96.9312 30.1516 96.8829 30.3831C97.0731 30.3831 96.8347 30.6147 96.8829 30.3831C96.8829 30.5679 96.6928 30.3831 96.8829 30.3831ZM2.29785 25.8064H96.8829V10.5508H2.29785V25.8064Z" fill="#3161A6"/>
<path fill-rule="evenodd" clip-rule="evenodd" d="M78.5762 22.7559H2.29785V24.2814H78.5762V22.7559Z" fill="#F9E740"/>
<path fill-rule="evenodd" clip-rule="evenodd" d="M29.7579 13.6027L28.2323 18.1794C28.2323 18.1794 28.2323 15.6064 28.2323 15.1283C28.2796 14.7462 27.6051 13.6027 26.7068 13.6027H23.6556L20.6045 21.2305H23.6556L25.1812 15.1283V21.2305H28.2323L31.2835 15.1283L29.7579 21.2305H32.809L34.3346 13.6027H29.7579ZM46.5391 21.2305C46.3501 21.2777 46.2899 21.2305 45.0135 21.2305C42.8394 21.326 40.4369 19.756 40.4369 18.1794C40.3896 15.3611 42.9339 13.9848 45.0135 13.6027C45.9113 13.4117 47.8409 13.1729 49.5902 13.6027L48.0647 16.6538C47.7817 15.9852 46.8699 15.1283 46.5391 15.1283C45.8298 15.0805 45.4388 16.4628 45.0135 16.6538C43.9735 17.1314 43.5488 17.5585 45.0135 18.1794C45.8168 18.5137 46.9779 18.3232 48.0647 18.1794L46.5391 21.2305ZM78.576 21.2305H75.5249L77.0504 13.6027H81.6271L78.576 21.2305ZM37.3857 21.2305H34.3346L37.3857 13.6027H40.4369L37.3857 21.2305ZM55.6925 13.6027V16.6538H54.1669V13.6027H51.1158L48.0647 21.2305H51.1158L52.6414 18.1794H54.1669V21.2305H57.2181L58.7436 13.6027H55.6925ZM70.9482 18.1794L73.9993 13.6027H69.4226L67.897 21.2305H73.9993L75.5249 18.1794H70.9482ZM89.255 13.6027L87.7294 18.1794C87.7772 17.7013 87.6827 16.2273 87.7294 15.1283C87.7772 14.6507 87.9657 13.8415 87.7294 13.6027C87.4464 13.3161 86.2038 13.6027 86.2038 13.6027H83.1527L80.1016 21.2305H83.1527L84.6783 15.1283V21.2305H89.255L92.3061 13.6027H89.255ZM63.3203 19.705V18.1794H66.3715L67.897 16.6538H63.3203V15.1283H67.897V13.6027H61.7948L58.7436 21.2305H66.3715V19.705H63.3203Z" fill="white"/>
<path fill-rule="evenodd" clip-rule="evenodd" d="M22.1311 18.179C22.3232 17.8511 22.564 17.1219 22.1311 16.6535C21.7467 16.1845 20.6535 15.3621 20.6055 15.1279C21.134 14.0968 19.8967 12.452 19.0799 12.0768C19.1044 11.8284 19.1807 12.306 19.0799 12.0768C18.9792 11.8475 19.2811 12.2308 19.0799 12.0768C19.2721 11.6552 19.9928 9.72881 19.0799 9.02562C19.4643 7.57294 16.8455 7.5469 16.0288 7.50005C15.6444 7.21899 15.2244 6.02133 14.5032 5.97449C15.0323 5.225 15.1278 5.01104 14.5032 4.44892C14.5513 3.65259 13.795 1.67939 12.9777 1.39779C12.6894 0.741985 11.5962 0.788828 11.4521 1.39779C10.5392 1.72569 9.83043 3.5589 9.92652 4.44892C9.39748 5.01104 9.39748 5.31868 9.92652 5.97449C9.44553 5.92764 8.83335 7.31268 8.40096 7.50005C8.0166 7.31268 7.30779 5.8808 6.87539 5.97449C6.7793 5.8808 7.06757 6.02133 6.87539 5.97449C6.72891 5.73073 5.61085 6.09715 5.34982 5.97449C5.25373 5.5529 5.68613 4.58891 5.34982 4.44892C5.39787 4.12102 5.44591 4.63576 5.34982 4.44892C5.15765 4.16786 5.30178 3.0165 5.34982 2.92336C5.59005 2.6886 5.44591 3.0165 5.34982 2.92336C4.86883 2.45439 3.96839 2.68914 3.82426 2.92336C3.34381 2.08018 2.58751 1.3041 2.29869 1.39779C1.86629 1.06989 0.773126 1.02304 0.773126 1.39779C0.484859 1.58516 0.340174 2.17333 0.773126 2.92336C0.677037 4.46972 1.24116 5.13131 2.29869 5.97449C1.96238 6.30239 2.01043 6.98478 2.29869 7.50005C2.2026 8.24954 1.76965 8.65141 2.29869 9.02562C2.44282 10.1036 4.62916 10.4107 5.34982 10.5512C5.83082 11.2538 6.20277 12.0304 6.87539 12.0768C6.92343 12.4047 6.68321 13.3213 6.87539 13.6023C6.73126 14.2118 6.68321 14.6126 6.87539 15.1279C6.39495 15.6437 6.63517 15.8571 6.87539 16.6535C6.29886 17.3098 6.49048 18.8151 6.87539 19.7046C6.87539 19.7046 5.44591 19.4704 5.34982 19.7046C4.96547 19.892 5.54145 20.6675 5.34982 21.2301C5.15709 21.6517 5.25373 22.2867 5.34982 22.7557C4.72469 23.271 4.24425 24.7763 5.34982 25.8068C5.1096 26.5569 4.44828 26.5361 3.82426 27.3324C3.39186 27.8951 3.29522 28.2016 3.82426 28.858C4.20861 29.3733 4.72469 30.3835 5.34982 30.3835C6.50289 30.4309 6.7793 29.7012 6.87539 28.858C6.97148 28.389 6.87539 27.5672 6.87539 27.3324C6.82735 27.0977 8.16073 26.4169 8.40096 25.8068C9.45793 25.5732 9.83099 25.0313 9.92652 24.2813C10.6958 23.8597 10.2148 23.74 9.92652 22.7557C10.0707 22.6157 11.356 21.4649 11.4521 21.2301C11.4521 21.6517 11.308 22.4752 11.4521 22.7557C11.0197 23.8336 10.7795 25.3853 11.4521 25.8068C10.299 27.4474 12.6408 27.005 12.9777 27.3324C13.4101 27.7077 12.305 28.6232 12.9777 28.858C13.5542 29.0454 15.6925 29.608 16.0288 28.858C16.1249 28.6706 16.1249 27.4735 16.0288 27.3324C16.0288 26.7708 16.6534 27.7072 16.0288 27.3324C15.3076 26.9571 14.8395 26.8379 14.5032 25.8068C15.6088 25.2916 16.0768 23.2247 16.0288 22.7557C16.7975 21.8189 16.4612 21.7454 16.0288 21.2301C16.1729 20.8086 16.1249 20.0314 16.0288 19.7046C16.702 19.1419 17.7946 19.0701 17.5544 18.179C17.9387 17.6169 17.6985 15.8305 17.5544 15.1279C17.8907 15.6432 18.5028 16.6535 19.0799 16.6535C19.0799 16.6535 19.0319 16.5592 19.0799 16.6535C18.8877 16.9814 18.6475 17.8969 19.0799 18.179C19.128 18.3664 18.9838 18.0853 19.0799 18.179C19.0799 18.3201 20.1731 18.5075 20.6055 18.179C20.6535 18.179 20.6055 18.179 20.6055 18.179C21.0379 18.5091 22.2266 18.7874 22.1311 18.179Z" fill="#0C0E0F"/>
<path fill-rule="evenodd" clip-rule="evenodd" d="M17.5535 15.1276C18.4205 15.0111 19.8767 13.3584 19.0791 12.0765C18.9751 12.3684 17.7268 11.9607 17.5535 12.0765C17.5189 12.7178 17.6922 13.3109 17.5535 13.6021C17.5531 13.8357 17.5535 15.0694 17.5535 15.1276Z" fill="white"/>
<path fill-rule="evenodd" clip-rule="evenodd" d="M19.0795 12.0763C18.7994 12.7261 16.9156 13.4802 16.0284 13.6019C15.8883 14.1294 17.8654 15.6144 19.0795 15.1275C19.9673 14.8024 20.2475 12.5227 19.0795 12.0763ZM17.554 15.1275C17.4606 15.2086 17.4139 16.5318 17.554 16.653C17.554 16.6129 19.0328 15.2091 19.0795 15.1275C19.0328 15.0468 17.6007 15.0869 17.554 15.1275ZM19.0795 16.653C19.0328 16.5318 19.313 15.1681 19.0795 15.1275C18.846 15.0463 18.9394 16.6941 19.0795 16.653C18.9394 16.6941 19.1729 16.5719 19.0795 16.653ZM19.0795 16.653C18.7527 16.7342 18.9394 16.4898 19.0795 16.653C19.1262 16.7342 18.8927 16.7753 19.0795 16.653C18.9791 16.7306 19.1964 16.5954 19.0795 16.653C19.0795 16.653 19.0323 16.5322 19.0795 16.653ZM19.0795 15.1275C18.9861 15.0869 19.1729 15.2492 19.0795 15.1275C18.846 15.3308 17.7874 15.0874 17.554 15.1275C17.6007 15.1275 19.0328 15.0463 19.0795 15.1275C18.9861 15.0463 19.1729 15.1275 19.0795 15.1275C18.9856 14.8434 19.1729 15.0869 19.0795 15.1275C19.2196 15.2086 18.9861 16.5724 19.0795 16.653C19.4531 17.0593 20.5112 16.7342 20.6051 16.653C20.932 16.4497 20.8386 15.4111 20.6051 15.1275C20.465 15.0057 19.0795 15.2492 19.0795 15.1275C18.9856 15.0463 19.0795 15.0869 19.0795 15.1275C19.0795 15.1681 20.3249 14.9246 20.6051 15.1275C20.3711 14.4372 19.0795 15.1275 19.0795 15.1275ZM11.4517 13.6019C15.8889 13.5613 16.636 11.444 16.0284 10.5508C14.6742 11.7686 10.6425 12.0933 8.40057 10.5508C7.9803 10.9566 7.34196 11.9952 6.875 12.0763C7.01509 13.213 8.78894 13.6425 11.4517 13.6019Z" fill="white"/>
<path fill-rule="evenodd" clip-rule="evenodd" d="M8.40012 9.0254C8.48771 9.97837 8.5753 10.25 8.40012 10.551C8.79428 10.9021 9.65512 12.0264 11.4512 12.0765C14.1676 12.1267 17.6489 10.0589 16.0279 7.49984C15.3272 8.55311 10.7656 10.1288 8.40012 9.0254ZM5.34898 9.0254C6.00592 8.32322 5.65606 6.6263 5.34898 5.97427C5.26139 5.87396 5.48037 6.07458 5.34898 5.97427C5.2176 7.2789 3.34945 8.35307 2.29785 7.49984C2.69201 9.35676 4.64825 9.77832 5.34898 9.0254Z" fill="white"/>
<path fill-rule="evenodd" clip-rule="evenodd" d="M8.40092 10.5511C9.53226 9.69408 7.38992 7.56853 6.87535 7.5C7.23513 8.76824 5.52093 9.50529 3.82422 9.02557C4.2354 9.81369 7.06399 11.5449 8.40092 10.5511Z" fill="white"/>
<path fill-rule="evenodd" clip-rule="evenodd" d="M5.34863 10.5511C6.22326 11.4484 8.26167 12.6594 8.39977 10.5511C8.49183 9.11589 7.88692 7.76953 6.8742 7.5C8.07053 9.69847 6.91428 10.5063 5.34863 10.5511ZM6.8742 13.6023C6.4599 16.0244 9.47042 16.6982 11.4509 16.6534C14.8124 16.5189 16.2117 14.5438 16.0276 13.6023C13.9095 15.2168 9.03828 15.5312 6.8742 13.6023Z" fill="white"/>
<path fill-rule="evenodd" clip-rule="evenodd" d="M9.92737 18.1786C11.8886 18.4809 12.9785 17.6369 12.9785 16.653C12.0233 16.653 8.33475 16.6411 6.87624 15.1274C5.87077 16.1874 8.16722 17.7997 9.92737 18.1786Z" fill="white"/>
<path fill-rule="evenodd" clip-rule="evenodd" d="M11.4517 18.1789C10.0574 18.9009 7.59226 18.1355 6.87499 16.6533C5.83913 18.2953 8.65086 19.7846 9.92612 19.7045C11.4797 19.6243 11.372 18.8603 11.4517 18.1789Z" fill="white"/>
<path fill-rule="evenodd" clip-rule="evenodd" d="M6.87496 19.7041C6.39083 20.7442 6.22945 22.471 6.87496 22.7552C8.24713 23.3698 10.0063 21.9867 9.9261 21.2297C8.83633 21.5133 7.64151 20.886 6.87496 19.7041ZM5.3494 22.7552C4.70342 23.3698 5.9067 25.4287 6.87496 25.8064C8.24713 26.3742 8.31984 24.8487 8.40053 24.2808C8.03743 24.3754 6.23744 24.7887 5.3494 22.7552Z" fill="white"/>
<path fill-rule="evenodd" clip-rule="evenodd" d="M6.87579 22.756C6.03697 22.3732 5.39682 22.0381 5.35022 21.2305C4.13806 22.3363 5.75736 23.9418 6.87579 24.2816C9.11318 25.0051 10.1133 23.2669 9.92692 22.756C9.0415 23.3099 7.2952 22.9687 6.87579 22.756ZM16.0292 28.8583C15.8428 29.1981 15.0628 29.0715 14.5036 28.8583C13.8507 28.5615 13.3975 27.6725 12.9781 27.3327C12.046 26.5241 11.3127 26.233 11.4525 25.8072C11.4991 25.594 12.7916 26.0193 12.9781 25.8072C13.6305 26.0193 13.9439 25.9353 14.5036 25.8072C14.5036 25.8502 14.457 25.7641 14.5036 25.8072C14.0842 25.8502 12.9781 25.8072 12.9781 25.8072C12.9781 25.8072 14.0837 25.8502 14.5036 25.8072C14.5036 25.8072 14.457 25.7226 14.5036 25.8072C14.1308 25.8072 12.9781 27.3327 12.9781 27.3327C12.9781 27.3327 14.1313 27.2897 14.5036 27.3327C14.8764 27.6305 16.7748 28.1348 16.0292 28.8583C15.7496 29.113 15.0628 28.8583 14.5036 28.8583C14.5968 28.9869 15.47 29.3262 16.0292 28.8583ZM14.5036 24.2816C14.0478 24.5914 13.545 24.3172 12.9781 24.2816C12.1858 24.2816 11.919 23.2249 11.4525 22.756C11.1729 24.0325 11.9994 25.7651 12.9781 25.8072C14.75 25.8932 14.5036 24.4517 14.5036 24.2816Z" fill="white"/>
<path fill-rule="evenodd" clip-rule="evenodd" d="M12.9776 24.2816C14.8437 24.331 16.3922 21.98 16.0287 21.2305C14.9816 22.6296 11.9525 22.9794 11.452 21.2305C10.8144 22.4803 11.4754 24.2816 12.9776 24.2816Z" fill="white"/>
<path fill-rule="evenodd" clip-rule="evenodd" d="M12.9771 21.2295C13.7307 21.2295 14.691 20.6461 14.5026 19.7039C13.6355 20.2698 12.2056 20.269 11.4515 19.7039C11.3761 19.8165 11.5264 19.6286 11.4515 19.7039C11.5645 20.4205 12.2234 21.2295 12.9771 21.2295Z" fill="white"/>
<path fill-rule="evenodd" clip-rule="evenodd" d="M11.4513 19.7043C11.3967 19.7555 11.506 19.7043 11.4513 19.7043C11.4513 20.0587 11.5607 20.9266 11.4513 21.2298C12.9829 22.4461 16.2461 20.6596 16.028 18.1787C14.9333 19.1913 12.7635 20.1605 11.4513 19.7043Z" fill="white"/>
<path fill-rule="evenodd" clip-rule="evenodd" d="M12.9756 16.6527C12.9756 17.0645 11.6772 17.858 11.45 18.1783C13.0863 18.6816 16.1176 17.0955 16.0267 15.1272C15.4809 15.6304 14.6573 16.5612 12.9756 16.6527ZM3.82216 7.49934C5.04955 6.95032 4.54972 4.76899 3.82216 4.4482C3.6404 4.63121 3.82216 5.88227 3.82216 5.97377C3.82216 6.15678 3.8676 6.06527 3.82216 5.97377C3.73128 5.83652 3.95848 4.76847 3.82216 4.4482C3.73128 4.1737 3.82216 4.90625 3.82216 4.4482C3.82216 4.1737 3.82216 3.01414 3.82216 2.92264C3.68584 2.64813 3.6404 3.15192 3.82216 2.92264C3.68584 2.78538 3.95848 2.64813 3.82216 2.92264C3.59496 3.2429 3.68584 2.60238 3.82216 2.92264C3.82216 2.96839 2.38747 4.08219 2.29659 4.4482C2.25116 4.1737 2.20572 3.10565 2.29659 2.92264C2.25116 2.87689 2.29659 3.3344 2.29659 2.92264C2.11431 2.37362 2.56923 1.44282 2.29659 1.39707C2.52379 1.76309 2.25116 2.83114 2.29659 2.92264C2.38747 3.15192 2.29659 2.92264 2.29659 2.92264C1.97852 2.28212 1.04419 1.67158 0.771029 1.39707C0.58927 1.25982 0.861908 1.25982 0.771029 1.39707C0.861908 1.39707 0.680149 1.30557 0.771029 1.39707C1.04367 1.76309 2.29659 2.92264 2.29659 2.92264C2.29659 2.92264 2.38747 2.92264 2.29659 2.92264C2.20572 2.92264 2.43291 3.2429 2.29659 2.92264C2.11431 2.64813 0.907348 1.5338 0.771029 1.39707C0.63471 1.21407 0.861908 1.30557 0.771029 1.39707C0.861908 1.53433 0.771029 2.78538 0.771029 2.92264C0.99875 2.83114 0.726111 2.69388 0.771029 2.92264C0.771029 3.10565 2.15975 2.73963 2.29659 2.92264C2.25116 2.92264 2.29659 4.4482 2.29659 4.4482C2.16028 4.31095 0.815946 3.15192 0.771029 2.92264C0.771029 2.83114 0.907348 2.96839 0.771029 2.92264C0.680149 2.92264 0.771029 2.87689 0.771029 2.92264C0.680149 4.20421 1.16008 3.5784 2.29659 4.4482C2.38747 4.49396 2.20572 5.79076 2.29659 5.97377C2.38747 6.11103 2.02396 6.01952 2.29659 5.97377H3.82216C3.59496 6.20253 2.38747 6.06527 2.29659 5.97377C2.25116 5.88227 2.29659 5.97377 2.29659 5.97377C1.47764 6.79888 2.59529 8.09463 3.82216 7.49934ZM5.34773 24.2806C4.89333 25.2882 4.322 26.5991 3.82216 27.3317C3.45864 27.7897 3.59444 28.537 3.82216 28.8573C4.27656 29.3605 4.75753 29.0397 5.34773 28.8573C4.62069 28.9035 4.14076 27.7887 3.82216 27.3317C4.64008 27.9727 6.46434 29.086 6.87329 28.8573C7.00961 28.811 6.87329 27.469 6.87329 27.3317C6.82785 26.9662 5.39317 27.6525 5.34773 27.3317C5.30229 27.1035 6.6461 26.3557 6.87329 25.8061C6.5103 25.8514 5.57545 24.6008 5.34773 24.2806ZM16.0267 7.49934C16.6174 7.9111 16.0267 8.70464 16.0267 9.0249C16.6179 7.88059 16.4811 7.63659 16.0267 7.49934C16.0721 7.45359 16.1176 7.68234 16.0267 7.49934ZM17.5523 10.5505C18.6882 9.90995 17.734 9.11641 17.5523 9.0249C17.5068 9.16216 16.4356 10.0924 16.0267 10.5505C16.2534 10.8245 17.5523 10.0924 17.5523 10.5505ZM8.39886 7.49934C9.21677 7.86535 10.5866 9.0249 11.45 9.0249C13.8134 9.0249 15.8904 8.18561 16.0267 7.49934C16.1176 6.90404 14.1121 6.06527 12.9756 5.97377C12.7938 6.15678 13.0664 5.97377 12.9756 5.97377C12.9301 5.97377 12.8847 6.01952 12.9756 5.97377C13.1573 5.88227 13.1573 6.29403 12.9756 5.97377C13.1119 5.97377 12.9296 5.18023 12.9756 4.4482C12.9756 3.85343 13.2482 3.10565 12.9756 2.92264C12.9756 2.92264 12.8847 2.92264 12.9756 2.92264C13.0664 2.19009 12.3139 1.58008 11.45 1.39707C11.4954 1.39707 11.45 1.39707 11.45 1.39707C11.4046 1.21407 11.7226 1.16831 11.45 1.39707C11.4046 1.44282 11.4046 1.39707 11.45 1.39707C11.5409 1.39707 11.5409 1.39707 11.45 1.39707C10.9047 1.35132 9.92443 3.21291 9.92443 4.4482C9.96987 4.4482 9.83355 2.92264 9.92443 2.92264C10.0153 2.96839 9.96987 4.4482 9.92443 4.4482C9.06107 4.49396 8.78791 5.4705 9.92443 5.97377C9.92443 5.97377 10.0153 5.92802 9.92443 5.97377C9.78811 6.06527 9.74214 5.83652 9.92443 5.97377C10.0153 5.97377 9.96987 5.92802 9.92443 5.97377C9.92443 6.06527 10.0153 6.06527 9.92443 5.97377C9.33371 5.69926 8.94414 5.79076 8.39886 5.97377C8.80834 6.29456 8.26254 6.90457 8.39886 7.49934Z" fill="white"/>
<path fill-rule="evenodd" clip-rule="evenodd" d="M2.29851 4.44889C2.25334 4.49622 2.43402 4.54355 2.29851 4.44889C2.163 4.40155 2.29851 4.49622 2.29851 4.44889C2.163 4.44889 2.29851 4.44889 2.29851 4.44889C2.20817 4.44889 2.38885 4.44889 2.29851 4.44889C2.34368 4.40155 2.34368 4.54355 2.29851 4.44889ZM5.34964 27.3324C5.07861 27.2377 5.5755 27.3324 5.34964 27.3324C5.62067 27.3792 5.03292 27.2377 5.34964 27.3324ZM6.87521 27.3324C6.46867 27.1909 5.80135 25.8547 5.34964 25.8068C5.84653 25.8068 6.46867 25.6654 6.87521 25.8068V27.3324ZM12.9775 4.44889C12.9323 4.44889 13.0226 4.40155 12.9775 4.44889C12.1644 4.30688 11.9036 4.44889 11.4519 4.44889C11.4519 4.40155 11.5422 4.44889 11.4519 4.44889C11.4519 4.49622 11.4519 4.44889 11.4519 4.44889C11.3164 4.63822 11.4067 5.92712 11.4519 5.97445C11.4971 6.02179 11.4067 6.02179 11.4519 5.97445C11.4971 5.97445 11.2712 5.87978 11.4519 5.97445C11.5874 6.06912 11.1809 6.11645 11.4519 5.97445C11.6778 5.87978 12.842 5.97445 12.9775 5.97445C13.0678 5.97445 12.9775 6.02179 12.9775 5.97445C13.0232 5.975 13.0226 4.40155 12.9775 4.44889ZM11.4519 5.97445C11.1809 6.06912 11.6778 6.06912 11.4519 5.97445C11.6778 5.92712 12.6156 5.92712 12.9775 5.97445C12.8866 6.02179 11.4971 5.92712 11.4519 5.97445ZM12.9775 2.92332C12.7064 2.97065 11.4519 3.97555 11.4519 4.44889C11.4971 4.73289 12.7968 4.30634 12.9775 4.44889C13.0678 4.49622 12.8871 4.44889 12.9775 4.44889C13.2485 4.40155 13.0226 4.92223 12.9775 4.44889C12.9775 4.16488 13.113 3.01853 12.9775 2.92332C13.032 2.94784 12.9379 2.87703 12.9775 2.92332C13.0368 2.92152 12.923 2.89879 12.9775 2.92332Z" fill="#0C0E0F"/>
<path fill-rule="evenodd" clip-rule="evenodd" d="M14.5034 4.44882C14.5805 4.33274 14.5034 4.73904 14.5034 4.44882C14.4263 4.15794 14.7347 3.09738 14.5034 2.92326C14.4263 2.86522 13.0549 2.92326 12.9778 2.92326C12.5924 2.92326 12.9008 3.98382 12.9778 4.44882C13.0549 4.15861 12.6695 2.9813 12.9778 2.92326C13.2862 2.92326 14.5034 4.10057 14.5034 4.44882Z" fill="white"/>
<path fill-rule="evenodd" clip-rule="evenodd" d="M11.4511 2.92315C11.1392 2.9612 11.4511 4.06826 11.4511 4.44872C11.4511 4.67699 11.2432 4.29653 11.4511 4.44872C11.5551 4.48676 12.8207 4.44872 12.9767 4.44872C13.2886 4.44872 12.9767 3.30361 12.9767 2.92315C12.9767 2.69487 13.1846 3.03729 12.9767 2.92315C12.9309 2.88592 13.0396 2.94286 12.9767 2.92315C12.9138 2.90344 11.5196 2.92169 11.4511 2.92315Z" fill="#0C0E0F"/>
<path fill-rule="evenodd" clip-rule="evenodd" d="M12.9765 4.4492C13.0494 4.27418 12.9765 4.62423 12.9765 4.4492C12.9036 4.15683 13.1952 3.09866 12.9765 2.92364C12.9036 2.8653 11.5975 2.8653 11.4509 2.92364C11.1593 2.92364 11.4509 3.98248 11.4509 4.4492C11.4509 4.62423 11.3051 4.33252 11.4509 4.4492C11.378 4.39086 11.4509 4.56589 11.4509 4.4492C11.4509 4.09916 11.1593 2.92364 11.4509 2.92364C11.7425 2.92364 12.9765 4.09916 12.9765 4.4492Z" fill="white"/>
</svg>
