<svg width="24" height="24" fill="none" xmlns="http://www.w3.org/2000/svg" aria-hidden="true" class="styles__StyledInlineSvg-sc-ijha6n-0 NsJFg"><path d="M16 13.5a1 1 0 1 0 0 2h3a1 1 0 1 0 0-2h-3Z" fill="#494949"/><path fill-rule="evenodd" clip-rule="evenodd" d="M.218 5.592C0 6.02 0 6.58 0 7.7v8.6c0 1.12 0 1.68.218 2.108a2 2 0 0 0 .874.874c.428.218.988.218 2.108.218h17.6c1.12 0 1.68 0 2.108-.218a2 2 0 0 0 .874-.874C24 17.98 24 17.42 24 16.3V7.7c0-1.12 0-1.68-.218-2.108a2 2 0 0 0-.874-.874C22.48 4.5 21.92 4.5 20.8 4.5H3.2c-1.12 0-1.68 0-2.108.218a2 2 0 0 0-.874.874ZM20.8 6.5H3.2c-.593 0-.918.002-1.15.02l-.027.003-.002.026C2 6.782 2 7.107 2 7.7v.8h20v-.8c0-.593-.002-.918-.02-1.15l-.003-.027-.026-.002c-.233-.02-.558-.021-1.151-.021ZM2 16.3v-5.8h20v5.8c0 .593-.002.918-.02 1.15l-.003.027-.026.002c-.233.02-.558.021-1.151.021H3.2c-.593 0-.918-.002-1.15-.02l-.027-.003-.002-.026C2 17.218 2 16.893 2 16.3Z" fill="#494949"/></svg>