<svg width="24" height="24" fill="none" xmlns="http://www.w3.org/2000/svg" aria-hidden="true" class="styles__StyledInlineSvg-sc-ijha6n-0 NsJFg"><path d="M21.253 9.084a4.918 4.918 0 0 0-4.36-2.595L2.464 6.5a.477.477 0 0 0-.333.804l9.55 9.535a.19.19 0 0 0 .313-.095l.824-3.896a.17.17 0 0 1 .177-.143l3.355-.01a1.076 1.076 0 0 0 1.11-1.016.933.933 0 0 0-.947-.892l-3.62.011a.356.356 0 0 1-.26-.102l-1.566-1.567a.28.28 0 0 1 .198-.483l5.705-.011a2.724 2.724 0 0 1 2.901 2.786 3.467 3.467 0 0 1-3.494 3.405h-1.859a.178.178 0 0 0-.177.143l-.483 2.296a.184.184 0 0 0 .177.224h2.52c3.916 0 6.899-4.189 4.699-8.405Z" fill="#494949"/></svg>