<svg width="24" height="24" fill="none" xmlns="http://www.w3.org/2000/svg" aria-hidden="true" class="styles__StyledInlineSvg-sc-ijha6n-0 NsJFg"><path d="M9 10a1 1 0 1 0 0 2h6a1 1 0 1 0 0-2H9ZM8 7a1 1 0 0 1 1-1h2a1 1 0 1 1 0 2H9a1 1 0 0 1-1-1ZM9 14a1 1 0 1 0 0 2h3a1 1 0 1 0 0-2H9Z" fill="#494949"/><path fill-rule="evenodd" clip-rule="evenodd" d="M20 21a1 1 0 0 1-1.496.868L15.5 20.152l-3.004 1.716a1 1 0 0 1-.992 0L8.5 20.152l-3.004 1.716A1 1 0 0 1 4 21V5a3 3 0 0 1 3-3h10a3 3 0 0 1 3 3v16ZM6 19.277l2.5-1.429 3.5 2 3.5-2 2.5 1.429V5a1 1 0 0 0-1-1H7a1 1 0 0 0-1 1v14.277Z" fill="#494949"/></svg>