<svg width="24" height="24" fill="none" xmlns="http://www.w3.org/2000/svg" aria-hidden="true" class="styles__StyledInlineSvg-sc-ijha6n-0 NsJFg"><path fill-rule="evenodd" clip-rule="evenodd" d="M4.953 6.06C4.363 6.715 4 7.665 4 8.796c0 1.309.598 2.58 1.873 4.09 1.286 1.523 3.144 3.158 5.482 5.212l.002.001.646.57.641-.562h.001c2.338-2.059 4.196-3.696 5.481-5.22C19.402 11.377 20 10.106 20 8.797c0-1.131-.363-2.08-.953-2.736C18.467 5.417 17.616 5 16.5 5c-.945 0-1.583.388-2.133.949a8.845 8.845 0 0 0-.805.983l-.13.179c-.212.293-.446.615-.68.883a1 1 0 0 1-1.503 0c-.235-.268-.47-.59-.682-.883l-.13-.179a8.848 8.848 0 0 0-.804-.983C9.083 5.388 8.445 5 7.5 5c-1.115 0-1.966.417-2.547 1.06ZM3.468 4.721C4.444 3.638 5.843 3 7.5 3c1.626 0 2.748.72 3.56 1.548.37.376.679.778.94 1.133.261-.355.57-.757.94-1.133C13.752 3.72 14.874 3 16.5 3c1.657 0 3.056.638 4.032 1.721C21.5 5.793 22 7.241 22 8.796c0 1.987-.932 3.706-2.345 5.381-1.386 1.643-3.343 3.366-5.604 5.356l-.085.075-.002.002-1.305 1.143a1 1 0 0 1-1.32-.003l-1.306-1.151-.06-.054c-2.271-1.994-4.237-3.722-5.628-5.369C2.932 12.502 2 10.783 2 8.796c0-1.555.501-3.003 1.468-4.075Z" fill="#494949"/></svg>