<svg id="Сгруппировать_17" data-name="Сгруппировать 17" xmlns="http://www.w3.org/2000/svg" width="308.256" height="60.399" viewBox="0 0 308.256 60.399">
  <g id="Сгруппировать_14" data-name="Сгруппировать 14">
    <path id="Контур_28" data-name="Контур 28" d="M203.03,118.18l8.259,14.306L186.511,118.18H203.03M205.5,113.9H170.6l52.4,30.291L205.5,113.9Z" transform="translate(-153.18 -113.895)" fill="#fff"/>
    <path id="Контур_29" data-name="Контур 29" d="M211.706,233.767l-8.226,14.248H187.028l24.677-14.248m11.655-11.654h0Zm0,0-52.252,30.168h34.835l17.418-30.168Z" transform="translate(-153.549 -191.882)" fill="#fff"/>
    <path id="Контур_30" data-name="Контур 30" d="M121.346,129.83l.134,28.524-8.3-14.223,8.167-14.3m-13.1,14.324,17.44,30.117-.023-60.38Z" transform="translate(-108.248 -113.891)" fill="#fff"/>
  </g>
  <g id="Сгруппировать_15" data-name="Сгруппировать 15" transform="translate(78.567 14.278)">
    <path id="Контур_31" data-name="Контур 31" d="M419.755,181.742c0,9.372-6.96,15.922-17.014,15.922H389.5V165.82h13.511C412.885,165.82,419.755,172.325,419.755,181.742Zm-7.324.046c0-5.869-4.094-9.917-9.553-9.917H396.69v19.743H403.2C408.518,191.613,412.431,187.61,412.431,181.788Z" transform="translate(-389.503 -165.592)" fill="#fff"/>
    <path id="Контур_32" data-name="Контур 32" d="M520.724,171.238a9.8,9.8,0,0,0,0,19.607,12.288,12.288,0,0,0,8.279-3.73l4.231,4.594A18.639,18.639,0,0,1,520.36,197.4c-9.508,0-16.7-7.051-16.7-16.286,0-9.19,7.324-16.1,16.968-16.1a18.123,18.123,0,0,1,12.556,5.277l-4.185,5.1A11.526,11.526,0,0,0,520.724,171.238Z" transform="translate(-471.775 -165.005)" fill="#fff"/>
    <path id="Контур_33" data-name="Контур 33" d="M671.363,181.742c0,9.372-6.96,15.922-17.014,15.922H641.111V165.82h13.511C664.494,165.82,671.363,172.325,671.363,181.742Zm-7.324.046c0-5.869-4.094-9.917-9.553-9.917H648.3v19.743H654.8C660.127,191.613,664.039,187.61,664.039,181.788Z" transform="translate(-570.826 -165.592)" fill="#fff"/>
    <path id="Контур_34" data-name="Контур 34" d="M767.021,165.82v31.844h-7.188V165.82Z" transform="translate(-656.384 -165.592)" fill="#fff"/>
    <path id="Контур_35" data-name="Контур 35" d="M817.339,197.664l-5.049-9.1h-7.324v9.1h-7.187V165.82h13.829c8.325,0,13.056,4,13.056,11.054,0,4.913-2.092,8.462-5.959,10.281l6.778,10.508Zm-12.374-15.1h6.642c3.957,0,6.232-1.82,6.232-5.459,0-3.548-2.275-5.323-6.232-5.323h-6.642Z" transform="translate(-683.729 -165.592)" fill="#fff"/>
    <path id="Контур_36" data-name="Контур 36" d="M933.417,165.82v5.959H916.358v6.915h15.376v5.959H916.358V191.7h17.56v5.959H909.17V165.82Z" transform="translate(-764.005 -165.592)" fill="#fff"/>
    <path id="Контур_37" data-name="Контур 37" d="M1020.359,171.238a9.8,9.8,0,0,0,0,19.607,12.287,12.287,0,0,0,8.28-3.73l4.231,4.594A18.64,18.64,0,0,1,1020,197.4c-9.507,0-16.7-7.051-16.7-16.286,0-9.19,7.324-16.1,16.968-16.1a18.123,18.123,0,0,1,12.556,5.277l-4.185,5.1A11.527,11.527,0,0,0,1020.359,171.238Z" transform="translate(-831.84 -165.005)" fill="#fff"/>
    <path id="Контур_38" data-name="Контур 38" d="M1143.1,165.82v6.1h-9.736v25.748h-7.187V171.916h-9.69v-6.1Z" transform="translate(-913.407 -165.592)" fill="#fff"/>
  </g>
</svg>
