<svg width="240" height="50" viewBox="0 0 240 50" fill="none" xmlns="http://www.w3.org/2000/svg">
<path d="M44.0743 38.2669C41.1418 39.3456 36.4855 40.5106 33.4446 41.2549L32.5015 41.4544C29.4864 42.118 26.4294 42.5757 23.3516 42.8244C21.3081 42.9944 19.2526 42.9619 17.2156 42.7273C14.51 42.4591 11.9081 41.5512 9.62685 40.0791C7.38287 38.6231 5.77858 36.3733 5.13865 33.785C4.57886 31.3703 4.53822 28.8651 5.0194 26.4337C5.5408 23.586 6.38644 20.8067 7.53995 18.1494C7.93466 17.2998 8.17156 16.3862 8.23919 15.4527C8.29909 14.8232 8.15451 14.1911 7.82669 13.6494C7.49887 13.1077 7.00509 12.6849 6.4179 12.4431C5.92521 12.2242 5.40859 12.0632 4.87847 11.9631C3.25231 11.6449 1.62616 11.8067 0 11.6071V11.6611C0.168036 11.7312 0.330651 11.8067 0.498687 11.8714C1.64625 12.2976 2.76361 12.8003 3.84315 13.3762C4.82439 13.86 5.69666 14.5371 6.40705 15.3664C6.73211 15.7302 6.93291 16.1872 6.98063 16.6718C7.02835 17.1563 6.92054 17.6434 6.67266 18.0631C6.0493 19.2173 5.46931 20.3985 4.92184 21.5904C3.49135 24.5878 2.42326 27.7434 1.73998 30.9912C1.30515 33.0136 1.22629 35.0958 1.5069 37.1451C1.8174 39.5199 3.02007 41.6897 4.87305 43.2181C6.29103 44.3394 7.93429 45.145 9.69189 45.5804C12.1176 46.1941 14.6158 46.4771 17.118 46.4218C18.6286 46.4455 20.1378 46.3172 21.6225 46.0389C23.8213 45.5624 25.9926 44.9683 28.1271 44.259C29.6232 43.7736 31.103 43.2504 32.5882 42.7327C35.9543 41.5245 40.7732 39.5398 44.1176 38.2669" fill="#D64E58"/>
<path d="M15.7008 16.5343C16.0076 16.1078 16.1713 15.6064 16.1713 15.0935C16.1713 14.4056 15.8772 13.746 15.3537 13.2596C14.8301 12.7732 14.1201 12.5 13.3797 12.5C12.8276 12.5 12.2879 12.6521 11.8289 12.9371C11.3698 13.2221 11.012 13.6271 10.8007 14.101C10.5894 14.5749 10.5342 15.0963 10.6419 15.5994C10.7496 16.1025 11.0154 16.5646 11.4058 16.9273C11.7962 17.29 12.2937 17.537 12.8352 17.6371C13.3767 17.7372 13.9379 17.6858 14.448 17.4895C14.9581 17.2932 15.3941 16.9608 15.7008 16.5343Z" fill="#2E325C"/>
<path d="M31.2942 30.9903C31.601 30.5638 31.7647 30.0623 31.7647 29.5494C31.7647 28.8616 31.4706 28.2019 30.9471 27.7156C30.4236 27.2292 29.7135 26.9559 28.9732 26.9559C28.4211 26.9559 27.8813 27.108 27.4223 27.393C26.9632 27.678 26.6054 28.083 26.3941 28.5569C26.1829 29.0308 26.1276 29.5523 26.2353 30.0554C26.343 30.5584 26.6089 31.0205 26.9993 31.3832C27.3897 31.7459 27.8871 31.993 28.4286 32.093C28.9701 32.1931 29.5314 32.1417 30.0414 31.9454C30.5515 31.7491 30.9875 31.4167 31.2942 30.9903Z" fill="#2E325C"/>
<path d="M22.3852 15.4462C22.3852 15.9591 22.2215 16.4605 21.9147 16.887C21.608 17.3135 21.172 17.6459 20.6619 17.8422C20.1519 18.0385 19.5906 18.0899 19.0491 17.9898C18.5076 17.8897 18.0102 17.6427 17.6198 17.28C17.2294 16.9173 16.9635 16.4552 16.8558 15.9521C16.7481 15.449 16.8034 14.9276 17.0146 14.4537C17.2259 13.9798 17.5837 13.5748 18.0428 13.2898C18.5019 13.0048 19.0416 12.8527 19.5937 12.8527C20.334 12.8527 21.0441 13.126 21.5676 13.6123C22.0911 14.0987 22.3852 14.7583 22.3852 15.4462Z" fill="#2E325C"/>
<path d="M15.885 22.3073C16.1918 21.8808 16.3555 21.3794 16.3555 20.8665C16.3555 20.1787 16.0614 19.519 15.5379 19.0326C15.0144 18.5463 14.3043 18.273 13.564 18.273C13.0119 18.273 12.4721 18.4251 12.0131 18.7101C11.554 18.9951 11.1962 19.4001 10.9849 19.874C10.7737 20.3479 10.7184 20.8694 10.8261 21.3724C10.9338 21.8755 11.1997 22.3376 11.5901 22.7003C11.9805 23.063 12.4779 23.31 13.0194 23.4101C13.5609 23.5102 14.1222 23.4588 14.6322 23.2625C15.1423 23.0662 15.5783 22.7338 15.885 22.3073Z" fill="#2E325C"/>
<path d="M31.5972 23.8179C31.5972 24.3308 31.4335 24.8322 31.1268 25.2587C30.82 25.6852 30.384 26.0176 29.874 26.2139C29.3639 26.4102 28.8026 26.4615 28.2611 26.3615C27.7196 26.2614 27.2222 26.0144 26.8318 25.6517C26.4414 25.289 26.1755 24.8269 26.0678 24.3238C25.9601 23.8207 26.0154 23.2993 26.2267 22.8254C26.4379 22.3515 26.7957 21.9465 27.2548 21.6615C27.7139 21.3765 28.2536 21.2244 28.8057 21.2244C29.546 21.2244 30.2561 21.4976 30.7796 21.984C31.3031 22.4704 31.5972 23.13 31.5972 23.8179Z" fill="#2E325C"/>
<path d="M25.097 30.6842C25.4038 30.2577 25.5675 29.7563 25.5675 29.2434C25.5675 28.5555 25.2734 27.8959 24.7499 27.4095C24.2264 26.9231 23.5163 26.6499 22.776 26.6499C22.2239 26.6499 21.6842 26.802 21.2251 27.087C20.766 27.372 20.4082 27.777 20.197 28.2509C19.9857 28.7248 19.9304 29.2462 20.0381 29.7493C20.1458 30.2524 20.4117 30.7145 20.8021 31.0772C21.1925 31.4399 21.6899 31.6869 22.2314 31.787C22.7729 31.8871 23.3342 31.8357 23.8443 31.6394C24.3543 31.4431 24.7903 31.1107 25.097 30.6842Z" fill="#2E325C"/>
<path d="M19.5657 26.6758C19.5657 27.1888 19.402 27.6902 19.0953 28.1167C18.7885 28.5432 18.3526 28.8756 17.8425 29.0719C17.3324 29.2682 16.7711 29.3195 16.2296 29.2195C15.6881 29.1194 15.1907 28.8724 14.8003 28.5097C14.4099 28.147 14.144 27.6849 14.0363 27.1818C13.9286 26.6787 13.9839 26.1573 14.1952 25.6834C14.4065 25.2095 14.7643 24.8044 15.2233 24.5195C15.6824 24.2345 16.2221 24.0824 16.7742 24.0824C17.5146 24.0824 18.2246 24.3556 18.7481 24.842C19.2716 25.3284 19.5657 25.988 19.5657 26.6758Z" fill="#2E325C"/>
<path d="M23.6232 23.8894C23.9299 23.4629 24.0936 22.9614 24.0936 22.4485C24.0936 21.7607 23.7995 21.101 23.276 20.6147C22.7525 20.1283 22.0424 19.855 21.3021 19.855C20.75 19.855 20.2103 20.0071 19.7512 20.2921C19.2921 20.5771 18.9343 20.9821 18.7231 21.456C18.5118 21.9299 18.4565 22.4514 18.5642 22.9545C18.6719 23.4576 18.9378 23.9197 19.3282 24.2824C19.7186 24.6451 20.216 24.8921 20.7575 24.9921C21.299 25.0922 21.8603 25.0408 22.3704 24.8445C22.8804 24.6483 23.3164 24.3159 23.6232 23.8894Z" fill="#2E325C"/>
<path d="M28.6103 18.2212C28.6103 18.7341 28.4465 19.2355 28.1398 19.662C27.8331 20.0885 27.3971 20.4209 26.887 20.6172C26.3769 20.8135 25.8156 20.8649 25.2741 20.7648C24.7326 20.6647 24.2352 20.4177 23.8448 20.055C23.4544 19.6923 23.1886 19.2302 23.0809 18.7271C22.9732 18.224 23.0284 17.7026 23.2397 17.2287C23.451 16.7548 23.8088 16.3498 24.2679 16.0648C24.7269 15.7798 25.2666 15.6277 25.8187 15.6277C26.5591 15.6277 27.2691 15.9009 27.7926 16.3873C28.3162 16.8737 28.6103 17.5333 28.6103 18.2212Z" fill="#2E325C"/>
<path d="M28.5247 48.5353C28.1487 49.0636 27.7843 49.5576 27.4403 50L27.3791 49.9458C27.736 49.5024 28.1209 49.0292 28.5247 48.5353Z" fill="#2E325C"/>
<path d="M28.5247 48.5353C29.125 47.8012 29.7672 47.0215 30.4219 46.2267C32.1239 44.1604 33.9106 41.9913 35.2663 40.2513C36.2243 39.011 37.1935 37.7491 38.1182 36.4601C39.4625 34.6357 40.7028 32.7409 41.8334 30.7842C42.5617 29.4498 43.1442 28.0448 43.5712 26.5923C44.3814 24.2196 44.8555 21.7507 44.9805 19.2537C45.0824 17.4476 44.7842 15.6412 44.106 13.9569C43.1555 11.7373 41.3765 9.94949 39.1263 8.95255C37.1948 8.07916 35.1214 7.54033 32.9993 7.36028C29.5877 7.05486 26.1509 7.14576 22.7615 7.63108C21.4135 7.79897 20.0767 8.00476 18.7455 8.25931C18.2588 8.36944 17.7488 8.32774 17.2879 8.14011C16.8269 7.95248 16.4385 7.62846 16.1777 7.21404C15.5719 6.29068 15.1662 5.2568 14.9857 4.1757C14.7453 2.97569 14.5853 1.76176 14.5067 0.541594C14.5018 0.461657 14.4907 0.382741 14.4796 0.304402C14.4652 0.20228 14.451 0.10114 14.451 0H14.4008C14.2782 0.710864 14.0809 1.40912 13.8839 2.10681C13.6335 2.99315 13.3834 3.87856 13.2868 4.78771C13.2181 5.32724 13.2181 5.87296 13.2868 6.41249C13.3465 7.04604 13.6143 7.64407 14.0507 8.11811C14.4871 8.59216 15.0688 8.91702 15.7098 9.04463C16.6512 9.24834 17.622 9.2905 18.5784 9.16921C21.5502 8.85142 24.5495 8.86412 27.5183 9.2071C30.0711 9.45862 32.5396 10.2359 34.7594 11.4872C37.1196 12.8616 38.8539 15.0572 39.6109 17.6289C40.379 20.2422 40.4917 22.9964 39.9396 25.6607C39.5553 27.6739 38.9695 29.6456 38.1906 31.5479C37.0144 34.4155 35.6391 37.2021 34.0743 39.8884C33.9673 40.0929 33.8576 40.2794 33.7471 40.4674C33.6966 40.5533 33.6459 40.6396 33.5953 40.7279C32.2445 42.9228 30.2614 46.0949 28.5247 48.5353Z" fill="#2E325C"/>
<path fill-rule="evenodd" clip-rule="evenodd" d="M73.716 29.1004V25.1105H70.8377V29.1004H65.0033V24.369C64.9624 20.688 65.301 17.0116 66.0146 13.3879C66.5983 10.392 67.8419 7.53381 69.6708 4.98438H74.9217C76.7217 7.55121 77.9576 10.41 78.5613 13.403C79.2869 17.0204 79.6312 20.6923 79.5892 24.369V29.1004H73.716ZM73.2881 14.4119C73.1132 12.9023 72.7744 11.4121 72.2768 9.96293C71.7792 11.4121 71.4405 12.9023 71.2655 14.4119C71.0322 16.1773 70.8895 18.237 70.8377 20.5909H73.716C73.6678 18.237 73.5252 16.1773 73.2881 14.4119Z" fill="#D64E58"/>
<path fill-rule="evenodd" clip-rule="evenodd" d="M103.649 25.2669C103.595 26.0612 103.378 26.8395 103.01 27.5619C102.7 28.1514 102.195 28.6381 101.565 28.9541C100.756 29.3087 99.8622 29.4734 98.9648 29.4333C97.5313 29.4333 96.4755 29.0348 95.8087 28.2328V31.5518H90.3244V28.2177C89.6521 29.0197 88.5852 29.4182 87.135 29.4182C86.2235 29.4566 85.3155 29.2921 84.4901 28.939C83.8512 28.6306 83.3403 28.142 83.0343 27.5468C82.6773 26.827 82.4665 26.0546 82.4119 25.2669C82.3175 24.364 82.273 23.3198 82.273 22.1445V14.2353C82.273 12.1639 82.5842 10.58 83.2065 9.48375C83.8288 8.38749 85.0346 7.84104 86.8238 7.84441C88.3537 7.84441 89.5206 8.20926 90.3244 8.93897V4.98438H95.8087V8.93897C96.6052 8.20589 97.7609 7.84104 99.276 7.84441C101.05 7.84441 102.245 8.39085 102.86 9.48375C103.475 10.5766 103.782 12.1605 103.782 14.2353V22.1445C103.782 23.3198 103.738 24.364 103.649 25.2669ZM90.3133 13.8721C90.3337 13.3226 90.2739 12.7731 90.1355 12.2378C90.0133 11.8747 89.6465 11.6931 89.0242 11.6931C88.4019 11.6931 88.0407 11.8696 87.9129 12.1975C87.7672 12.7385 87.7054 13.2954 87.7295 13.852V23.3703C87.7076 23.9201 87.7693 24.47 87.9129 25.0045C88.0277 25.3677 88.3982 25.5493 89.0242 25.5493C89.641 25.5493 90.0077 25.3728 90.1355 25.0197C90.2764 24.4797 90.3362 23.9248 90.3133 23.3703V13.8721ZM98.2869 13.8721C98.3106 13.3162 98.2527 12.7598 98.1147 12.2177C97.998 11.8696 97.6368 11.7132 97.0423 11.7132C96.4477 11.7132 96.0921 11.8948 95.9754 12.258C95.837 12.7933 95.7773 13.3428 95.7976 13.8923V23.4106C95.7748 23.9652 95.8346 24.52 95.9754 25.06C96.0903 25.3963 96.4459 25.5729 97.0423 25.5897C97.6368 25.5897 97.998 25.4081 98.1147 25.0449C98.2506 24.5093 98.3086 23.9599 98.2869 23.4106V13.8721Z" fill="#D64E58"/>
<path d="M116.968 11.5871V29.1357H122.469V8.09156H108.972V22.4119C108.995 22.9665 108.964 23.5219 108.878 24.0714C108.849 24.4144 108.692 24.7382 108.433 24.9894C108.274 25.0802 108.092 25.1329 107.905 25.1426C107.717 25.1523 107.53 25.1187 107.361 25.0449L106.311 24.7271V29.1407C106.951 29.3408 107.618 29.4596 108.294 29.4938C108.729 29.4785 109.163 29.4431 109.595 29.3879C110.301 29.2915 110.969 29.0367 111.539 28.6464C112.302 28.1146 112.91 27.4221 113.312 26.6288C113.896 25.4054 114.162 24.0765 114.09 22.7448V11.5871H116.968Z" fill="#D64E58"/>
<path fill-rule="evenodd" clip-rule="evenodd" d="M139.1 25.6754C138.935 26.4454 138.563 27.1663 138.016 27.7738C137.461 28.3549 136.737 28.783 135.927 29.0096C133.777 29.5544 131.504 29.5544 129.354 29.0096C128.546 28.7817 127.824 28.3537 127.27 27.7738C126.723 27.1663 126.351 26.4454 126.186 25.6754C125.962 24.6884 125.857 23.6819 125.875 22.6742V14.5178C125.859 13.5218 125.963 12.5271 126.186 11.5518C126.354 10.7768 126.726 10.05 127.27 9.4333C127.821 8.84557 128.543 8.41035 129.354 8.17732C131.505 7.63935 133.776 7.63935 135.927 8.17732C136.734 8.40493 137.456 8.82885 138.016 9.40304C138.562 10.0129 138.934 10.7353 139.1 11.5064C139.321 12.4939 139.426 13.5001 139.411 14.5077V22.6641C139.426 23.6717 139.321 24.6779 139.1 25.6653V25.6754ZM133.927 13.8015C133.951 13.2433 133.889 12.6848 133.743 12.142C133.625 11.7889 133.254 11.6124 132.632 11.6124C132.015 11.6124 131.648 11.794 131.521 12.1571C131.382 12.6958 131.323 13.2487 131.343 13.8015V23.3854C131.32 23.9433 131.38 24.5014 131.521 25.0449C131.643 25.398 132.01 25.5745 132.632 25.5745C133.254 25.5745 133.615 25.3929 133.743 25.0247C133.887 24.4885 133.949 23.9369 133.927 23.3854V13.8015Z" fill="#D64E58"/>
<path d="M161.115 29.1004V32.9844H165.777V25.6048H164.571V8.09157H159.087V25.6048H156.603V8.09157H151.119V29.1004H161.115Z" fill="#D64E58"/>
<path fill-rule="evenodd" clip-rule="evenodd" d="M181.191 25.6754C181.015 26.447 180.633 27.1676 180.079 27.7738C179.517 28.353 178.791 28.7806 177.979 29.0096C175.816 29.5543 173.53 29.5543 171.367 29.0096C170.553 28.7832 169.826 28.3552 169.266 27.7738C168.708 27.1701 168.325 26.4485 168.155 25.6754C167.93 24.6884 167.826 23.6819 167.844 22.6742V14.5178C167.827 13.5218 167.932 12.5271 168.155 11.5519C168.329 10.7738 168.711 10.0464 169.266 9.43331C169.823 8.84425 170.551 8.40905 171.367 8.17732C173.531 7.63937 175.815 7.63937 177.979 8.17732C178.788 8.40723 179.513 8.83064 180.079 9.40305C180.633 10.0117 181.014 10.7337 181.191 11.5065C181.412 12.4939 181.517 13.5001 181.502 14.5077V19.3803H173.367V23.3703C173.343 23.9279 173.401 24.4859 173.539 25.0298C173.654 25.3661 174.037 25.5426 174.689 25.5594C175.334 25.5594 175.717 25.3728 175.834 24.9945C175.97 24.4623 176.03 23.9164 176.012 23.3703V20.5809H181.496V22.6641C181.511 23.6717 181.407 24.6779 181.185 25.6653L181.191 25.6754ZM176.012 13.9428C176.036 13.3431 175.976 12.7431 175.834 12.1571C175.717 11.794 175.334 11.6124 174.689 11.6124C174.045 11.6124 173.656 11.794 173.539 12.1571C173.4 12.7434 173.342 13.3434 173.367 13.9428V15.5317H176.012V13.9428Z" fill="#D64E58"/>
<path d="M192.537 19.4257V29.1004H198.021V8.09157H192.537V15.9302H190.048V8.09157H184.563V29.1004H190.048V19.4257H192.537Z" fill="#D64E58"/>
<path d="M209.418 12.2933V29.1004H203.933V12.2933H200.238V8.09157H213.113V12.2933H209.418Z" fill="#D64E58"/>
<path fill-rule="evenodd" clip-rule="evenodd" d="M228.215 27.5468C228.58 26.8287 228.794 26.0558 228.849 25.2668L228.866 25.2517C228.954 24.3488 228.999 23.3047 228.999 22.1294V14.2202C229.01 13.2985 228.939 12.3775 228.788 11.4661C228.68 10.7609 228.437 10.0782 228.071 9.44843C227.756 8.91471 227.272 8.47895 226.682 8.19748C225.99 7.89386 225.227 7.7484 224.459 7.77378C223.749 7.74844 223.042 7.86497 222.387 8.11513C221.732 8.36528 221.146 8.74296 220.67 9.22146V8.09156H215.524V31.5367H221.014V28.2177C221.677 29.018 222.729 29.4182 224.17 29.4182C225.068 29.4583 225.962 29.2936 226.771 28.939C227.399 28.6217 227.904 28.1353 228.215 27.5468ZM223.342 12.137C223.48 12.6808 223.538 13.2388 223.515 13.7965L223.509 23.3803C223.531 23.9313 223.473 24.4824 223.337 25.0197C223.22 25.3879 222.87 25.5695 222.27 25.5695C221.67 25.5695 221.314 25.3929 221.198 25.0399C221.061 24.4958 221.005 23.9378 221.031 23.3803V13.7965C221.009 13.2439 221.067 12.6911 221.203 12.1521C221.32 11.7889 221.675 11.6073 222.276 11.6073C222.868 11.6073 223.224 11.7839 223.342 12.137Z" fill="#D64E58"/>
<path d="M68.083 44.7964C68.4375 44.7964 68.7472 44.689 69.0122 44.4741C69.2772 44.2593 69.424 43.9907 69.4526 43.6685H70.3926C70.3747 44.0015 70.2601 44.3184 70.0488 44.6191C69.8376 44.9199 69.5547 45.1598 69.2002 45.3389C68.8493 45.5179 68.4769 45.6074 68.083 45.6074C67.2917 45.6074 66.6615 45.3442 66.1924 44.8179C65.7269 44.2879 65.4941 43.5646 65.4941 42.6479V42.4814C65.4941 41.9157 65.598 41.4126 65.8057 40.9722C66.0133 40.5317 66.3105 40.1898 66.6973 39.9463C67.0876 39.7028 67.5477 39.5811 68.0776 39.5811C68.7293 39.5811 69.27 39.7762 69.6997 40.1665C70.133 40.5568 70.3639 41.0635 70.3926 41.6865H69.4526C69.424 41.3105 69.2808 41.0026 69.0229 40.7627C68.7687 40.5192 68.4536 40.3975 68.0776 40.3975C67.5728 40.3975 67.1807 40.5801 66.9014 40.9453C66.6257 41.307 66.4878 41.8315 66.4878 42.519V42.707C66.4878 43.3766 66.6257 43.8923 66.9014 44.2539C67.1771 44.6156 67.571 44.7964 68.083 44.7964ZM73.9214 45.6074C73.1336 45.6074 72.4927 45.3496 71.9985 44.834C71.5044 44.3148 71.2573 43.6219 71.2573 42.7554V42.5728C71.2573 41.9963 71.3665 41.4824 71.585 41.0312C71.807 40.5765 72.1149 40.222 72.5088 39.9678C72.9062 39.71 73.3359 39.5811 73.7979 39.5811C74.5534 39.5811 75.1406 39.8299 75.5596 40.3276C75.9785 40.8254 76.188 41.5379 76.188 42.4653V42.8789H72.251C72.2653 43.4518 72.4318 43.9155 72.7505 44.27C73.0728 44.6209 73.481 44.7964 73.9751 44.7964C74.326 44.7964 74.6232 44.7248 74.8667 44.5815C75.1102 44.4383 75.3232 44.2485 75.5059 44.0122L76.1128 44.4849C75.6258 45.2332 74.8953 45.6074 73.9214 45.6074ZM73.7979 40.3975C73.3968 40.3975 73.0602 40.5443 72.7881 40.8379C72.516 41.1279 72.3477 41.5361 72.2832 42.0625H75.1943V41.9873C75.1657 41.4824 75.0296 41.0921 74.7861 40.8164C74.5426 40.5371 74.2132 40.3975 73.7979 40.3975ZM81.5967 40.4941H79.647V45.5H78.6533V40.4941H76.7412V39.6885H81.5967V40.4941ZM83.6484 41.6919H85.1577C85.8166 41.6991 86.3376 41.8709 86.7207 42.2075C87.1038 42.5441 87.2954 43.0007 87.2954 43.5771C87.2954 44.1572 87.0985 44.6227 86.7046 44.9736C86.3107 45.3245 85.7808 45.5 85.1147 45.5H82.6548V39.6885H83.6484V41.6919ZM83.6484 42.5029V44.689H85.1255C85.4979 44.689 85.7861 44.5941 85.9902 44.4043C86.1943 44.2109 86.2964 43.9478 86.2964 43.6147C86.2964 43.2925 86.1961 43.0293 85.9956 42.8252C85.7987 42.6175 85.5212 42.5101 85.1631 42.5029H83.6484ZM94.6108 44.1841L96.5874 39.6885H97.8281V45.5H96.8345V41.2729L94.9546 45.5H94.2671L92.3496 41.1816V45.5H91.356V39.6885H92.645L94.6108 44.1841ZM104.177 45.5H103.183V43.0186H100.514V45.5H99.5146V39.6885H100.514V42.2075H103.183V39.6885H104.177V45.5ZM105.514 42.5405C105.514 41.9712 105.625 41.4591 105.847 41.0044C106.073 40.5496 106.384 40.1987 106.782 39.9517C107.183 39.7046 107.639 39.5811 108.151 39.5811C108.943 39.5811 109.582 39.855 110.069 40.4028C110.559 40.9507 110.805 41.6794 110.805 42.5889V42.6587C110.805 43.2244 110.695 43.7329 110.477 44.1841C110.262 44.6317 109.952 44.9808 109.548 45.2314C109.147 45.4821 108.685 45.6074 108.162 45.6074C107.374 45.6074 106.735 45.3335 106.245 44.7856C105.758 44.2378 105.514 43.5127 105.514 42.6104V42.5405ZM106.513 42.6587C106.513 43.3032 106.662 43.8206 106.959 44.2109C107.26 44.6012 107.661 44.7964 108.162 44.7964C108.667 44.7964 109.068 44.5994 109.365 44.2056C109.662 43.8081 109.811 43.2531 109.811 42.5405C109.811 41.9032 109.659 41.3875 109.354 40.9937C109.054 40.5962 108.653 40.3975 108.151 40.3975C107.661 40.3975 107.265 40.5926 106.964 40.9829C106.664 41.3732 106.513 41.9318 106.513 42.6587ZM115.805 40.5103H113.125V45.5H112.126V39.6885H115.805V40.5103ZM116.299 42.5405C116.299 41.9712 116.41 41.4591 116.632 41.0044C116.858 40.5496 117.169 40.1987 117.567 39.9517C117.968 39.7046 118.424 39.5811 118.937 39.5811C119.728 39.5811 120.367 39.855 120.854 40.4028C121.345 40.9507 121.59 41.6794 121.59 42.5889V42.6587C121.59 43.2244 121.481 43.7329 121.262 44.1841C121.047 44.6317 120.738 44.9808 120.333 45.2314C119.932 45.4821 119.47 45.6074 118.947 45.6074C118.16 45.6074 117.52 45.3335 117.03 44.7856C116.543 44.2378 116.299 43.5127 116.299 42.6104V42.5405ZM117.298 42.6587C117.298 43.3032 117.447 43.8206 117.744 44.2109C118.045 44.6012 118.446 44.7964 118.947 44.7964C119.452 44.7964 119.853 44.5994 120.15 44.2056C120.448 43.8081 120.596 43.2531 120.596 42.5405C120.596 41.9032 120.444 41.3875 120.14 40.9937C119.839 40.5962 119.438 40.3975 118.937 40.3975C118.446 40.3975 118.05 40.5926 117.75 40.9829C117.449 41.3732 117.298 41.9318 117.298 42.6587ZM127.589 45.5H126.596V40.5103H123.921V45.5H122.922V39.6885H127.589V45.5ZM134.094 42.6587C134.094 43.5431 133.891 44.2557 133.487 44.7964C133.082 45.3371 132.534 45.6074 131.843 45.6074C131.138 45.6074 130.583 45.3836 130.178 44.936V47.7344H129.185V39.6885H130.092L130.141 40.333C130.545 39.8317 131.107 39.5811 131.827 39.5811C132.525 39.5811 133.077 39.8442 133.481 40.3706C133.89 40.897 134.094 41.6292 134.094 42.5674V42.6587ZM133.1 42.5459C133.1 41.8906 132.96 41.3732 132.681 40.9937C132.402 40.6141 132.019 40.4243 131.532 40.4243C130.93 40.4243 130.479 40.6911 130.178 41.2246V44.0015C130.475 44.5314 130.93 44.7964 131.542 44.7964C132.019 44.7964 132.396 44.6084 132.676 44.2324C132.959 43.8529 133.1 43.2907 133.1 42.5459ZM135.098 42.5405C135.098 41.9712 135.209 41.4591 135.431 41.0044C135.657 40.5496 135.968 40.1987 136.366 39.9517C136.767 39.7046 137.223 39.5811 137.735 39.5811C138.527 39.5811 139.166 39.855 139.653 40.4028C140.143 40.9507 140.389 41.6794 140.389 42.5889V42.6587C140.389 43.2244 140.279 43.7329 140.061 44.1841C139.846 44.6317 139.536 44.9808 139.132 45.2314C138.731 45.4821 138.269 45.6074 137.746 45.6074C136.958 45.6074 136.319 45.3335 135.829 44.7856C135.342 44.2378 135.098 43.5127 135.098 42.6104V42.5405ZM136.097 42.6587C136.097 43.3032 136.246 43.8206 136.543 44.2109C136.844 44.6012 137.245 44.7964 137.746 44.7964C138.251 44.7964 138.652 44.5994 138.949 44.2056C139.246 43.8081 139.395 43.2531 139.395 42.5405C139.395 41.9032 139.243 41.3875 138.938 40.9937C138.638 40.5962 138.237 40.3975 137.735 40.3975C137.245 40.3975 136.849 40.5926 136.548 40.9829C136.248 41.3732 136.097 41.9318 136.097 42.6587ZM141.42 42.7017C141.42 41.7313 141.608 40.9686 141.984 40.4136C142.36 39.8586 142.875 39.5811 143.531 39.5811C143.835 39.5811 144.102 39.633 144.331 39.7368V37.25H145.325V39.769C145.575 39.6437 145.869 39.5811 146.206 39.5811C146.864 39.5811 147.382 39.8586 147.758 40.4136C148.134 40.9686 148.322 41.7689 148.322 42.8145C148.322 43.6702 148.134 44.3506 147.758 44.8555C147.385 45.3604 146.872 45.6128 146.216 45.6128C145.869 45.6128 145.572 45.5555 145.325 45.4409V47.7344H144.331V45.457C144.095 45.5609 143.824 45.6128 143.52 45.6128C142.868 45.6128 142.354 45.3604 141.979 44.8555C141.606 44.3506 141.42 43.6595 141.42 42.7822V42.7017ZM147.328 42.7017C147.328 41.9712 147.203 41.4054 146.952 41.0044C146.701 40.5998 146.356 40.3975 145.916 40.3975C145.69 40.3975 145.493 40.4333 145.325 40.5049V44.7104C145.486 44.7713 145.686 44.8018 145.926 44.8018C146.37 44.8018 146.714 44.6299 146.958 44.2861C147.205 43.9424 147.328 43.4142 147.328 42.7017ZM142.414 42.8145C142.414 43.4661 142.53 43.9603 142.763 44.2969C142.995 44.6335 143.33 44.8018 143.767 44.8018C143.975 44.8018 144.163 44.7695 144.331 44.7051V40.4888C144.181 40.4279 143.996 40.3975 143.778 40.3975C143.341 40.3975 143.004 40.5926 142.768 40.9829C142.532 41.3732 142.414 41.9837 142.414 42.8145ZM153.376 39.6885H154.37V45.5H153.376V41.2622L150.696 45.5H149.702V39.6885H150.696V43.9316L153.376 39.6885ZM160.729 39.6885V45.5H159.73V40.5103H157.753L157.635 42.6855C157.571 43.6846 157.403 44.3989 157.13 44.8286C156.862 45.2583 156.434 45.4821 155.847 45.5H155.449V44.6245L155.734 44.603C156.056 44.5672 156.287 44.381 156.427 44.0444C156.566 43.7078 156.656 43.0848 156.695 42.1753L156.803 39.6885H160.729ZM163.409 41.6919H164.918C165.577 41.6991 166.098 41.8709 166.481 42.2075C166.865 42.5441 167.056 43.0007 167.056 43.5771C167.056 44.1572 166.859 44.6227 166.465 44.9736C166.071 45.3245 165.542 45.5 164.875 45.5H162.416V39.6885H163.409V41.6919ZM163.409 42.5029V44.689H164.886C165.259 44.689 165.547 44.5941 165.751 44.4043C165.955 44.2109 166.057 43.9478 166.057 43.6147C166.057 43.2925 165.957 43.0293 165.756 42.8252C165.559 42.6175 165.282 42.5101 164.924 42.5029H163.409ZM173.045 45.5H172.051V43.0186H169.382V45.5H168.383V39.6885H169.382V42.2075H172.051V39.6885H173.045V45.5ZM175.73 41.6919H177.24C177.899 41.6991 178.42 41.8709 178.803 42.2075C179.186 42.5441 179.377 43.0007 179.377 43.5771C179.377 44.1572 179.181 44.6227 178.787 44.9736C178.393 45.3245 177.863 45.5 177.197 45.5H174.737V39.6885H175.73V41.6919ZM181.451 45.5H180.452V39.6885H181.451V45.5ZM175.73 42.5029V44.689H177.208C177.58 44.689 177.868 44.5941 178.072 44.4043C178.276 44.2109 178.378 43.9478 178.378 43.6147C178.378 43.2925 178.278 43.0293 178.078 42.8252C177.881 42.6175 177.603 42.5101 177.245 42.5029H175.73ZM185.135 41.8101L186.424 39.6885H187.584L185.683 42.562L187.644 45.5H186.494L185.151 43.3247L183.809 45.5H182.654L184.614 42.562L182.713 39.6885H183.862L185.135 41.8101ZM193.181 43.0239H192.456V45.5H191.457V39.6885H192.456V42.1484H193.106L195.061 39.6885H196.264L193.965 42.4814L196.458 45.5H195.195L193.181 43.0239ZM202.076 39.6885V45.5H201.077V40.5103H199.1L198.982 42.6855C198.917 43.6846 198.749 44.3989 198.477 44.8286C198.208 45.2583 197.781 45.4821 197.193 45.5H196.796V44.6245L197.081 44.603C197.403 44.5672 197.634 44.381 197.773 44.0444C197.913 43.7078 198.003 43.0848 198.042 42.1753L198.149 39.6885H202.076ZM207.431 39.6885H208.424V45.5H207.431V41.2622L204.75 45.5H203.757V39.6885H204.75V43.9316L207.431 39.6885ZM214.768 45.5H213.774V43.0186H211.104V45.5H210.105V39.6885H211.104V42.2075H213.774V39.6885H214.768V45.5ZM220.128 39.6885H221.122V45.5H220.128V41.2622L217.448 45.5H216.454V39.6885H217.448V43.9316L220.128 39.6885ZM224.527 43.0239H223.802V45.5H222.803V39.6885H223.802V42.1484H224.452L226.407 39.6885H227.61L225.311 42.4814L227.803 45.5H226.541L224.527 43.0239Z" fill="#868686"/>
</svg>
