<svg width="193" height="48" viewBox="0 0 193 48" fill="none" xmlns="http://www.w3.org/2000/svg">
<path d="M24 8V48L0 8H24Z" fill="#00A0E5"/>
<path d="M46 8V48L70 8H46Z" fill="#E0DD00"/>
<path d="M46 8H24L35 28L46 8Z" fill="#BBBCBD"/>
<path d="M24 48L46 48L35 28L24 48Z" fill="#007022"/>
<path d="M24 48V8L35 28L24 48Z" fill="#0076A9"/>
<path d="M46 8L46 48L35 28L46 8Z" fill="#A2A100"/>
<path d="M90.72 9.14L96.56 28.5H99.76L102.88 19.3C103.56 17.22 104.16 15.22 104.64 12.9H104.72C105.2 15.18 105.76 17.1 106.44 19.26L109.4 28.5H112.6L118.84 9.14H115.36L112.6 18.86C111.96 21.14 111.44 23.18 111.12 25.14H111C110.56 23.18 110 21.14 109.28 18.82L106.28 9.14H103.32L100.16 19.02C99.52 21.1 98.88 23.18 98.44 25.14H98.32C97.96 23.14 97.44 21.14 96.88 18.98L94.32 9.14H90.72ZM125.893 28.5V9.14H122.373V28.5H125.893ZM124.133 1.5C122.853 1.5 121.933 2.46 121.933 3.7C121.933 4.9 122.813 5.86 124.053 5.86C125.453 5.86 126.333 4.9 126.293 3.7C126.293 2.46 125.453 1.5 124.133 1.5ZM131.748 28.5H135.268V16.86C135.268 16.26 135.348 15.66 135.508 15.22C136.108 13.26 137.908 11.62 140.228 11.62C143.548 11.62 144.708 14.22 144.708 17.34V28.5H148.228V16.94C148.228 10.3 144.068 8.7 141.388 8.7C138.188 8.7 135.948 10.5 134.988 12.34H134.908L134.708 9.14H131.588C131.708 10.74 131.748 12.38 131.748 14.38V28.5ZM154.579 4.5V9.14H151.579V11.82H154.579V22.38C154.579 24.66 154.939 26.38 155.939 27.42C156.779 28.38 158.099 28.9 159.739 28.9C161.099 28.9 162.179 28.7 162.859 28.42L162.699 25.78C162.259 25.9 161.579 26.02 160.659 26.02C158.699 26.02 158.019 24.66 158.019 22.26V11.82H163.059V9.14H158.019V3.58L154.579 4.5ZM180.942 28.5C180.702 27.18 180.622 25.54 180.622 23.86V16.62C180.622 12.74 179.182 8.7 173.262 8.7C170.822 8.7 168.502 9.38 166.902 10.42L167.702 12.74C169.062 11.86 170.942 11.3 172.742 11.3C176.702 11.3 177.142 14.18 177.142 15.78V16.18C169.662 16.14 165.502 18.7 165.502 23.38C165.502 26.18 167.502 28.94 171.422 28.94C174.182 28.94 176.262 27.58 177.342 26.06H177.462L177.742 28.5H180.942ZM177.222 21.98C177.222 22.34 177.142 22.74 177.022 23.1C176.462 24.74 174.862 26.34 172.342 26.34C170.542 26.34 169.022 25.26 169.022 22.98C169.022 19.22 173.382 18.54 177.222 18.62V21.98ZM186.318 28.5H189.838V0.0999985H186.318V28.5Z" fill="#333333"/>
<path d="M105.998 40.664C106.521 40.7853 106.922 40.9953 107.202 41.294C107.491 41.5927 107.636 41.9567 107.636 42.386C107.636 42.8153 107.487 43.198 107.188 43.534C106.899 43.87 106.502 44.1313 105.998 44.318C105.494 44.4953 104.939 44.584 104.332 44.584C103.8 44.584 103.277 44.5093 102.764 44.36C102.251 44.2013 101.803 43.9727 101.42 43.674L101.756 42.932C102.092 43.184 102.484 43.38 102.932 43.52C103.38 43.66 103.833 43.73 104.29 43.73C104.971 43.73 105.527 43.604 105.956 43.352C106.395 43.0907 106.614 42.7407 106.614 42.302C106.614 41.91 106.437 41.6067 106.082 41.392C105.727 41.168 105.242 41.056 104.626 41.056H103.366V40.328H104.57C105.121 40.328 105.564 40.2253 105.9 40.02C106.236 39.8053 106.404 39.5207 106.404 39.166C106.404 38.774 106.213 38.466 105.83 38.242C105.457 38.018 104.967 37.906 104.36 37.906C103.567 37.906 102.783 38.1067 102.008 38.508L101.728 37.738C102.605 37.2807 103.515 37.052 104.458 37.052C105.018 37.052 105.522 37.136 105.97 37.304C106.427 37.4627 106.782 37.6913 107.034 37.99C107.295 38.2887 107.426 38.634 107.426 39.026C107.426 39.3993 107.295 39.7307 107.034 40.02C106.782 40.3093 106.437 40.524 105.998 40.664ZM112.427 37.08C113.388 37.08 114.125 37.3227 114.639 37.808C115.152 38.284 115.409 38.9933 115.409 39.936V44.5H114.457V43.352C114.233 43.7347 113.901 44.0333 113.463 44.248C113.033 44.4627 112.52 44.57 111.923 44.57C111.101 44.57 110.448 44.374 109.963 43.982C109.477 43.59 109.235 43.072 109.235 42.428C109.235 41.8027 109.459 41.2987 109.907 40.916C110.364 40.5333 111.087 40.342 112.077 40.342H114.415V39.894C114.415 39.2593 114.237 38.7787 113.883 38.452C113.528 38.116 113.01 37.948 112.329 37.948C111.862 37.948 111.414 38.0273 110.985 38.186C110.555 38.3353 110.187 38.5453 109.879 38.816L109.431 38.074C109.804 37.7567 110.252 37.514 110.775 37.346C111.297 37.1687 111.848 37.08 112.427 37.08ZM112.077 43.786C112.637 43.786 113.117 43.66 113.519 43.408C113.92 43.1467 114.219 42.7733 114.415 42.288V41.084H112.105C110.845 41.084 110.215 41.5227 110.215 42.4C110.215 42.8293 110.378 43.17 110.705 43.422C111.031 43.6647 111.489 43.786 112.077 43.786ZM122.745 40.692C123.743 40.9253 124.243 41.5273 124.243 42.498C124.243 43.142 124.005 43.6367 123.529 43.982C123.053 44.3273 122.343 44.5 121.401 44.5H118.055V37.136H121.303C122.143 37.136 122.801 37.2993 123.277 37.626C123.753 37.9527 123.991 38.4193 123.991 39.026C123.991 39.4273 123.879 39.7727 123.655 40.062C123.44 40.342 123.137 40.552 122.745 40.692ZM119.021 40.412H121.233C121.802 40.412 122.236 40.3047 122.535 40.09C122.843 39.8753 122.997 39.5627 122.997 39.152C122.997 38.7413 122.843 38.4333 122.535 38.228C122.236 38.0227 121.802 37.92 121.233 37.92H119.021V40.412ZM121.359 43.716C121.993 43.716 122.469 43.6133 122.787 43.408C123.104 43.2027 123.263 42.8807 123.263 42.442C123.263 42.0033 123.118 41.6813 122.829 41.476C122.539 41.2613 122.082 41.154 121.457 41.154H119.021V43.716H121.359ZM129.61 44.57C128.901 44.57 128.262 44.4113 127.692 44.094C127.123 43.7673 126.675 43.3193 126.348 42.75C126.022 42.1807 125.858 41.5367 125.858 40.818C125.858 40.0993 126.022 39.4553 126.348 38.886C126.675 38.3167 127.123 37.8733 127.692 37.556C128.262 37.2387 128.901 37.08 129.61 37.08C130.32 37.08 130.959 37.2387 131.528 37.556C132.098 37.8733 132.541 38.3167 132.858 38.886C133.185 39.4553 133.348 40.0993 133.348 40.818C133.348 41.5367 133.185 42.1807 132.858 42.75C132.541 43.3193 132.098 43.7673 131.528 44.094C130.959 44.4113 130.32 44.57 129.61 44.57ZM129.61 43.688C130.133 43.688 130.6 43.5713 131.01 43.338C131.43 43.0953 131.757 42.7547 131.99 42.316C132.224 41.8773 132.34 41.378 132.34 40.818C132.34 40.258 132.224 39.7587 131.99 39.32C131.757 38.8813 131.43 38.5453 131.01 38.312C130.6 38.0693 130.133 37.948 129.61 37.948C129.088 37.948 128.616 38.0693 128.196 38.312C127.786 38.5453 127.459 38.8813 127.216 39.32C126.983 39.7587 126.866 40.258 126.866 40.818C126.866 41.378 126.983 41.8773 127.216 42.316C127.459 42.7547 127.786 43.0953 128.196 43.338C128.616 43.5713 129.088 43.688 129.61 43.688ZM142.614 43.632V46.278H141.676V44.5H135.082V46.278H134.144V43.632H134.564C135.058 43.604 135.394 43.24 135.572 42.54C135.749 41.84 135.87 40.86 135.936 39.6L136.034 37.136H141.466V43.632H142.614ZM136.846 39.656C136.799 40.7013 136.71 41.5647 136.58 42.246C136.449 42.918 136.216 43.38 135.88 43.632H140.472V38.018H136.93L136.846 39.656ZM151.253 44.57C150.543 44.57 149.904 44.4113 149.335 44.094C148.765 43.7673 148.317 43.3193 147.991 42.75C147.664 42.1807 147.501 41.5367 147.501 40.818C147.501 40.0993 147.664 39.4553 147.991 38.886C148.317 38.3167 148.765 37.8733 149.335 37.556C149.904 37.2387 150.543 37.08 151.253 37.08C151.962 37.08 152.601 37.2387 153.171 37.556C153.74 37.8733 154.183 38.3167 154.501 38.886C154.827 39.4553 154.991 40.0993 154.991 40.818C154.991 41.5367 154.827 42.1807 154.501 42.75C154.183 43.3193 153.74 43.7673 153.171 44.094C152.601 44.4113 151.962 44.57 151.253 44.57ZM151.253 43.688C151.775 43.688 152.242 43.5713 152.653 43.338C153.073 43.0953 153.399 42.7547 153.633 42.316C153.866 41.8773 153.983 41.378 153.983 40.818C153.983 40.258 153.866 39.7587 153.633 39.32C153.399 38.8813 153.073 38.5453 152.653 38.312C152.242 38.0693 151.775 37.948 151.253 37.948C150.73 37.948 150.259 38.0693 149.839 38.312C149.428 38.5453 149.101 38.8813 148.859 39.32C148.625 39.7587 148.509 40.258 148.509 40.818C148.509 41.378 148.625 41.8773 148.859 42.316C149.101 42.7547 149.428 43.0953 149.839 43.338C150.259 43.5713 150.73 43.688 151.253 43.688ZM159.789 41.224H158.109V44.5H157.115V37.136H158.109V40.37H159.803L162.393 37.136H163.471L160.573 40.706L163.681 44.5H162.505L159.789 41.224ZM168.028 44.57C167.319 44.57 166.68 44.4113 166.11 44.094C165.541 43.7673 165.093 43.3193 164.766 42.75C164.44 42.1807 164.276 41.5367 164.276 40.818C164.276 40.0993 164.44 39.4553 164.766 38.886C165.093 38.3167 165.541 37.8733 166.11 37.556C166.68 37.2387 167.319 37.08 168.028 37.08C168.738 37.08 169.377 37.2387 169.946 37.556C170.516 37.8733 170.959 38.3167 171.276 38.886C171.603 39.4553 171.766 40.0993 171.766 40.818C171.766 41.5367 171.603 42.1807 171.276 42.75C170.959 43.3193 170.516 43.7673 169.946 44.094C169.377 44.4113 168.738 44.57 168.028 44.57ZM168.028 43.688C168.551 43.688 169.018 43.5713 169.428 43.338C169.848 43.0953 170.175 42.7547 170.408 42.316C170.642 41.8773 170.758 41.378 170.758 40.818C170.758 40.258 170.642 39.7587 170.408 39.32C170.175 38.8813 169.848 38.5453 169.428 38.312C169.018 38.0693 168.551 37.948 168.028 37.948C167.506 37.948 167.034 38.0693 166.614 38.312C166.204 38.5453 165.877 38.8813 165.634 39.32C165.401 39.7587 165.284 40.258 165.284 40.818C165.284 41.378 165.401 41.8773 165.634 42.316C165.877 42.7547 166.204 43.0953 166.614 43.338C167.034 43.5713 167.506 43.688 168.028 43.688ZM173.891 37.136H174.885V40.398H179.519V37.136H180.513V44.5H179.519V41.252H174.885V44.5H173.891V37.136Z" fill="#EF1E50"/>
</svg>
