<svg width="48" height="48" viewBox="0 0 48 48" fill="none" xmlns="http://www.w3.org/2000/svg">
<path d="M35.9334 0.0185547H12.0285C5.40523 0.0185547 0 5.42379 0 12.0471V35.99C0 42.5753 5.40523 47.9805 12.0285 47.9805H35.9715C42.5948 47.9805 48 42.5752 48 35.9519V12.0471C47.9619 5.42379 42.5567 0.0185547 35.9334 0.0185547ZM15.9873 38.8449H9.13561V19.0511H15.9873V38.8449ZM12.5234 16.0059C10.5821 16.0059 9.02141 14.4452 9.02141 12.5039C9.02141 10.5626 10.5821 9.0019 12.5234 9.0019C14.4647 9.0019 16.0254 10.5626 16.0254 12.5039C15.9873 14.4452 14.4266 16.0059 12.5234 16.0059ZM38.8644 38.8449H38.8263H33.1166V29.2525C33.1166 26.9305 32.8121 23.9615 29.6527 23.9615C26.4171 23.9615 25.8842 26.4737 25.8842 29.1002V38.8449H20.1745V19.0511H25.5036V21.7156H25.6558C26.4933 20.193 28.4346 19.013 31.4798 19.013C37.7605 19.013 38.8644 22.6292 38.8644 27.9963V38.8449Z" fill="#FFA62B"/>
</svg>
