<svg width="24" height="24" viewBox="0 0 24 24" fill="none" xmlns="http://www.w3.org/2000/svg">
<g clip-path="url(#clip0)">
<path d="M19.1053 4.10964C17.6488 1.59601 15.0616 0.0603418 12.1847 0.0016543C12.0619 -0.000876953 11.9383 -0.000876953 11.8154 0.0016543C8.93851 0.0603418 6.35138 1.59601 4.89479 4.10964C3.40594 6.67895 3.36521 9.7652 4.7858 12.3654L10.7372 23.2585C10.7399 23.2634 10.7425 23.2682 10.7453 23.273C11.0071 23.7281 11.4762 23.9998 12.0001 23.9998C12.524 23.9998 12.9931 23.728 13.2549 23.273C13.2577 23.2682 13.2603 23.2634 13.263 23.2585L19.2144 12.3654C20.6349 9.7652 20.5942 6.67895 19.1053 4.10964ZM12.0001 10.8748C10.1391 10.8748 8.62505 9.36076 8.62505 7.49978C8.62505 5.63879 10.1391 4.12478 12.0001 4.12478C13.861 4.12478 15.3751 5.63879 15.3751 7.49978C15.3751 9.36076 13.8611 10.8748 12.0001 10.8748Z" fill="#FFA62B"/>
</g>
<defs>
<clipPath id="clip0">
<rect width="24" height="24" fill="white"/>
</clipPath>
</defs>
</svg>
