<svg width="48" height="48" viewBox="0 0 48 48" fill="none" xmlns="http://www.w3.org/2000/svg">
<path d="M35.9334 0.0185547H12.0285C5.40523 0.0185547 0 5.42379 0 12.0471V35.99C0 42.5753 5.40523 47.9805 12.0285 47.9805H35.9715C42.5948 47.9805 48 42.5752 48 35.9519V12.0471C47.9619 5.42379 42.5567 0.0185547 35.9334 0.0185547ZM35.8953 17.9852C35.8953 18.2517 35.8953 18.5182 35.8953 18.7846C35.8953 26.7783 29.7288 35.99 18.4235 35.99C14.9596 35.99 11.724 35.0003 9.02141 33.2874C9.51626 33.3255 9.97304 33.3635 10.4679 33.3635C13.3608 33.3635 15.9873 32.4119 18.0809 30.7751C15.3783 30.737 13.1324 28.986 12.3331 26.5879C12.7137 26.6641 13.0944 26.7021 13.475 26.7021C14.046 26.7021 14.617 26.626 15.1118 26.4737C12.3711 25.9028 10.2776 23.4666 10.2776 20.5356V20.4595C11.0389 20.9163 12.0285 21.1827 13.0182 21.2208C11.3814 20.155 10.2776 18.2898 10.2776 16.1962C10.2776 15.0923 10.5821 14.0645 11.115 13.151C14.1602 16.8052 18.6519 19.2033 23.7526 19.4698C23.6384 19.013 23.6003 18.5562 23.6003 18.0994C23.6003 14.7497 26.341 12.0471 29.7288 12.0471C31.4798 12.0471 33.0785 12.7703 34.2205 13.9504C35.6289 13.6839 36.9231 13.1891 38.1031 12.4658C37.6463 13.8742 36.6566 15.0542 35.4005 15.8155C36.6566 15.6633 37.8366 15.3588 38.9405 14.8639C38.1031 16.082 37.0753 17.1478 35.8953 17.9852Z" fill="#FFA62B"/>
</svg>
