<svg width="45" height="88" viewBox="0 0 45 88" fill="none" xmlns="http://www.w3.org/2000/svg">
<path d="M22.5751 87.982C34.4907 87.982 44.1502 82.39 44.1502 75.491C44.1502 68.593 34.4907 63 22.5751 63C10.6595 63 1 68.593 1 75.491C1 82.39 10.6595 87.982 22.5751 87.982Z" fill="url(#paint0_linear)"/>
<path d="M44.1502 68.536H1V74.639V74.781C1 81.737 10.652 87.272 22.5751 87.272C34.4982 87.272 44.1502 81.595 44.1502 74.781V74.639V68.536Z" fill="url(#paint1_linear)"/>
<path d="M29.2466 86.705C29.3885 86.705 29.6724 86.563 29.8143 86.563V70.666H29.2466V86.705Z" fill="#FDD65B"/>
<path d="M31.9434 86.137C32.0853 86.137 32.3692 85.995 32.5111 85.995V70.808H31.9434V86.137Z" fill="#FDD65B"/>
<path d="M34.6401 85.286C34.7821 85.144 35.066 85.144 35.2079 85.002V70.666H34.6401V85.286Z" fill="#FDD65B"/>
<path d="M26.5496 87.131C26.6915 87.131 26.9754 87.131 27.1174 87.131V70.808H26.5496V87.131Z" fill="#FDD65B"/>
<path d="M40.0339 82.163C40.1758 82.021 40.4597 81.879 40.6017 81.595V70.666H40.0339V82.163Z" fill="#FDD65B"/>
<path d="M42.7307 79.182C43.0146 78.898 43.1565 78.472 43.2985 78.047V70.524H42.7307V79.182Z" fill="#FDD65B"/>
<path d="M37.3369 84.008C37.4788 83.866 37.7627 83.724 37.9047 83.724V70.808H37.3369V84.008Z" fill="#FDD65B"/>
<path d="M23.7107 87.273C23.8527 87.273 24.1366 87.273 24.2785 87.273V70.666H23.7107V87.273Z" fill="#FDD65B"/>
<path d="M21.0139 87.273C21.1558 87.273 21.4397 87.273 21.5816 87.273V70.666H21.0139V87.273Z" fill="#FDD65B"/>
<path d="M15.6201 86.705C15.762 86.705 16.0459 86.847 16.1879 86.847V70.808H15.6201V86.705Z" fill="#FDD65B"/>
<path d="M18.3169 87.131C18.4588 87.131 18.7427 87.131 18.8846 87.131V70.666H18.3169V87.131Z" fill="#FDD65B"/>
<path d="M12.9231 85.995C13.0651 85.995 13.3489 86.137 13.4909 86.137V70.666H12.9231V85.995Z" fill="#FDD65B"/>
<path d="M2.13574 78.756C2.27764 79.04 2.56154 79.466 2.70344 79.75V70.808H2.13574V78.756Z" fill="#FDD65B"/>
<path d="M4.83252 81.879C4.97452 82.021 5.25832 82.163 5.40032 82.305V70.666H4.83252V81.879Z" fill="#FDD65B"/>
<path d="M10.2263 85.144C10.3682 85.286 10.6522 85.286 10.7941 85.428V70.808H10.2263V85.144Z" fill="#FDD65B"/>
<path d="M7.5293 83.724C7.6713 83.866 7.9551 84.008 8.0971 84.008V70.666H7.5293V83.724Z" fill="#FDD65B"/>
<path d="M22.5752 80.8851C10.936 80.8851 1.42599 75.4911 1.14209 68.8201C1.14209 68.9621 1.14209 69.1041 1.14209 69.2461C1.14209 76.2011 10.7941 81.7371 22.7172 81.7371C34.6403 81.7371 44.2922 76.0591 44.2922 69.2461C44.2922 69.1041 44.2922 68.9621 44.2922 68.8201C43.7245 75.4911 34.2144 80.8851 22.5752 80.8851Z" fill="url(#paint2_linear)"/>
<path d="M22.7643 80.982C34.6799 80.982 44.3394 75.39 44.3394 68.491C44.3394 61.593 34.6799 56 22.7643 56C10.8487 56 1.18921 61.593 1.18921 68.491C1.18921 75.39 10.8487 80.982 22.7643 80.982Z" fill="url(#paint3_linear)"/>
<path d="M44.3394 61.536H1.18921V67.639V67.781C1.18921 74.737 10.8412 80.272 22.7643 80.272C34.6874 80.272 44.3394 74.595 44.3394 67.781V67.639V61.536Z" fill="url(#paint4_linear)"/>
<path d="M29.4358 79.705C29.5777 79.705 29.8616 79.563 30.0035 79.563V63.666H29.4358V79.705Z" fill="#FDD65B"/>
<path d="M32.1326 79.137C32.2745 79.137 32.5584 78.995 32.7003 78.995V63.808H32.1326V79.137Z" fill="#FDD65B"/>
<path d="M34.8293 78.286C34.9713 78.144 35.2552 78.144 35.3971 78.002V63.666H34.8293V78.286Z" fill="#FDD65B"/>
<path d="M26.7388 80.131C26.8807 80.131 27.1646 80.131 27.3066 80.131V63.808H26.7388V80.131Z" fill="#FDD65B"/>
<path d="M40.2231 75.163C40.365 75.021 40.6489 74.879 40.7909 74.595V63.666H40.2231V75.163Z" fill="#FDD65B"/>
<path d="M42.9199 72.182C43.2038 71.898 43.3457 71.472 43.4877 71.047V63.524H42.9199V72.182Z" fill="#FDD65B"/>
<path d="M37.5261 77.008C37.668 76.866 37.9519 76.724 38.0939 76.724V63.808H37.5261V77.008Z" fill="#FDD65B"/>
<path d="M23.8999 80.273C24.0419 80.273 24.3258 80.273 24.4677 80.273V63.666H23.8999V80.273Z" fill="#FDD65B"/>
<path d="M21.2031 80.273C21.345 80.273 21.6289 80.273 21.7708 80.273V63.666H21.2031V80.273Z" fill="#FDD65B"/>
<path d="M15.8093 79.705C15.9512 79.705 16.2351 79.847 16.3771 79.847V63.808H15.8093V79.705Z" fill="#FDD65B"/>
<path d="M18.5061 80.131C18.648 80.131 18.9319 80.131 19.0738 80.131V63.666H18.5061V80.131Z" fill="#FDD65B"/>
<path d="M13.1123 78.995C13.2543 78.995 13.5381 79.137 13.6801 79.137V63.666H13.1123V78.995Z" fill="#FDD65B"/>
<path d="M2.32495 71.756C2.46685 72.04 2.75075 72.466 2.89265 72.75V63.808H2.32495V71.756Z" fill="#FDD65B"/>
<path d="M5.02173 74.879C5.16373 75.021 5.44753 75.163 5.58953 75.305V63.666H5.02173V74.879Z" fill="#FDD65B"/>
<path d="M10.4155 78.144C10.5574 78.286 10.8414 78.286 10.9833 78.428V63.808H10.4155V78.144Z" fill="#FDD65B"/>
<path d="M7.71851 76.724C7.86051 76.866 8.14431 77.008 8.28631 77.008V63.666H7.71851V76.724Z" fill="#FDD65B"/>
<path d="M22.7644 73.8851C11.1252 73.8851 1.6152 68.4911 1.3313 61.8201C1.3313 61.9621 1.3313 62.1041 1.3313 62.2461C1.3313 69.2011 10.9833 74.7371 22.9064 74.7371C34.8295 74.7371 44.4814 69.0591 44.4814 62.2461C44.4814 62.1041 44.4814 61.9621 44.4814 61.8201C43.9137 68.4911 34.4036 73.8851 22.7644 73.8851Z" fill="url(#paint5_linear)"/>
<path d="M22.7643 74.982C34.6799 74.982 44.3394 69.39 44.3394 62.491C44.3394 55.593 34.6799 50 22.7643 50C10.8487 50 1.18921 55.593 1.18921 62.491C1.18921 69.39 10.8487 74.982 22.7643 74.982Z" fill="url(#paint6_linear)"/>
<path d="M44.3394 55.536H1.18921V61.639V61.781C1.18921 68.737 10.8412 74.272 22.7643 74.272C34.6874 74.272 44.3394 68.595 44.3394 61.781V61.639V55.536Z" fill="url(#paint7_linear)"/>
<path d="M29.4358 73.705C29.5777 73.705 29.8616 73.563 30.0035 73.563V57.666H29.4358V73.705Z" fill="#FDD65B"/>
<path d="M32.1326 73.137C32.2745 73.137 32.5584 72.995 32.7003 72.995V57.808H32.1326V73.137Z" fill="#FDD65B"/>
<path d="M34.8293 72.286C34.9713 72.144 35.2552 72.144 35.3971 72.002V57.666H34.8293V72.286Z" fill="#FDD65B"/>
<path d="M26.7388 74.131C26.8807 74.131 27.1646 74.131 27.3066 74.131V57.808H26.7388V74.131Z" fill="#FDD65B"/>
<path d="M40.2231 69.163C40.365 69.021 40.6489 68.879 40.7909 68.595V57.666H40.2231V69.163Z" fill="#FDD65B"/>
<path d="M42.9199 66.182C43.2038 65.898 43.3457 65.472 43.4877 65.047V57.524H42.9199V66.182Z" fill="#FDD65B"/>
<path d="M37.5261 71.008C37.668 70.866 37.9519 70.724 38.0939 70.724V57.808H37.5261V71.008Z" fill="#FDD65B"/>
<path d="M23.8999 74.273C24.0419 74.273 24.3258 74.273 24.4677 74.273V57.666H23.8999V74.273Z" fill="#FDD65B"/>
<path d="M21.2031 74.273C21.345 74.273 21.6289 74.273 21.7708 74.273V57.666H21.2031V74.273Z" fill="#FDD65B"/>
<path d="M15.8093 73.705C15.9512 73.705 16.2351 73.847 16.3771 73.847V57.808H15.8093V73.705Z" fill="#FDD65B"/>
<path d="M18.5061 74.131C18.648 74.131 18.9319 74.131 19.0738 74.131V57.666H18.5061V74.131Z" fill="#FDD65B"/>
<path d="M13.1123 72.995C13.2543 72.995 13.5381 73.137 13.6801 73.137V57.666H13.1123V72.995Z" fill="#FDD65B"/>
<path d="M2.32495 65.756C2.46685 66.04 2.75075 66.466 2.89265 66.75V57.808H2.32495V65.756Z" fill="#FDD65B"/>
<path d="M5.02173 68.879C5.16373 69.021 5.44753 69.163 5.58953 69.305V57.666H5.02173V68.879Z" fill="#FDD65B"/>
<path d="M10.4155 72.144C10.5574 72.286 10.8414 72.286 10.9833 72.428V57.808H10.4155V72.144Z" fill="#FDD65B"/>
<path d="M7.71851 70.724C7.86051 70.866 8.14431 71.008 8.28631 71.008V57.666H7.71851V70.724Z" fill="#FDD65B"/>
<path d="M22.7644 67.8851C11.1252 67.8851 1.6152 62.4911 1.3313 55.8201C1.3313 55.9621 1.3313 56.1041 1.3313 56.2461C1.3313 63.2011 10.9833 68.7371 22.9064 68.7371C34.8295 68.7371 44.4814 63.0591 44.4814 56.2461C44.4814 56.1041 44.4814 55.9621 44.4814 55.8201C43.9137 62.4911 34.4036 67.8851 22.7644 67.8851Z" fill="url(#paint8_linear)"/>
<path d="M22.7643 67.982C34.6799 67.982 44.3394 62.39 44.3394 55.491C44.3394 48.593 34.6799 43 22.7643 43C10.8487 43 1.18921 48.593 1.18921 55.491C1.18921 62.39 10.8487 67.982 22.7643 67.982Z" fill="url(#paint9_linear)"/>
<path d="M44.3394 48.536H1.18921V54.639V54.781C1.18921 61.737 10.8412 67.272 22.7643 67.272C34.6874 67.272 44.3394 61.595 44.3394 54.781V54.639V48.536Z" fill="url(#paint10_linear)"/>
<path d="M29.4358 66.705C29.5777 66.705 29.8616 66.563 30.0035 66.563V50.666H29.4358V66.705Z" fill="#FDD65B"/>
<path d="M32.1326 66.137C32.2745 66.137 32.5584 65.995 32.7003 65.995V50.808H32.1326V66.137Z" fill="#FDD65B"/>
<path d="M34.8293 65.286C34.9713 65.144 35.2552 65.144 35.3971 65.002V50.666H34.8293V65.286Z" fill="#FDD65B"/>
<path d="M26.7388 67.131C26.8807 67.131 27.1646 67.131 27.3066 67.131V50.808H26.7388V67.131Z" fill="#FDD65B"/>
<path d="M40.2231 62.163C40.365 62.021 40.6489 61.879 40.7909 61.595V50.666H40.2231V62.163Z" fill="#FDD65B"/>
<path d="M42.9199 59.182C43.2038 58.898 43.3457 58.472 43.4877 58.047V50.524H42.9199V59.182Z" fill="#FDD65B"/>
<path d="M37.5261 64.008C37.668 63.866 37.9519 63.724 38.0939 63.724V50.808H37.5261V64.008Z" fill="#FDD65B"/>
<path d="M23.8999 67.273C24.0419 67.273 24.3258 67.273 24.4677 67.273V50.666H23.8999V67.273Z" fill="#FDD65B"/>
<path d="M21.2031 67.273C21.345 67.273 21.6289 67.273 21.7708 67.273V50.666H21.2031V67.273Z" fill="#FDD65B"/>
<path d="M15.8093 66.705C15.9512 66.705 16.2351 66.847 16.3771 66.847V50.808H15.8093V66.705Z" fill="#FDD65B"/>
<path d="M18.5061 67.131C18.648 67.131 18.9319 67.131 19.0738 67.131V50.666H18.5061V67.131Z" fill="#FDD65B"/>
<path d="M13.1123 65.995C13.2543 65.995 13.5381 66.137 13.6801 66.137V50.666H13.1123V65.995Z" fill="#FDD65B"/>
<path d="M2.32495 58.756C2.46685 59.04 2.75075 59.466 2.89265 59.75V50.808H2.32495V58.756Z" fill="#FDD65B"/>
<path d="M5.02173 61.879C5.16373 62.021 5.44753 62.163 5.58953 62.305V50.666H5.02173V61.879Z" fill="#FDD65B"/>
<path d="M10.4155 65.144C10.5574 65.286 10.8414 65.286 10.9833 65.428V50.808H10.4155V65.144Z" fill="#FDD65B"/>
<path d="M7.71851 63.724C7.86051 63.866 8.14431 64.008 8.28631 64.008V50.666H7.71851V63.724Z" fill="#FDD65B"/>
<path d="M22.7644 60.8851C11.1252 60.8851 1.6152 55.4911 1.3313 48.8201C1.3313 48.9621 1.3313 49.1041 1.3313 49.2461C1.3313 56.2011 10.9833 61.7371 22.9064 61.7371C34.8295 61.7371 44.4814 56.0591 44.4814 49.2461C44.4814 49.1041 44.4814 48.9621 44.4814 48.8201C43.9137 55.4911 34.4036 60.8851 22.7644 60.8851Z" fill="url(#paint11_linear)"/>
<path d="M22.7643 60.982C34.6799 60.982 44.3394 55.39 44.3394 48.491C44.3394 41.593 34.6799 36 22.7643 36C10.8487 36 1.18921 41.593 1.18921 48.491C1.18921 55.39 10.8487 60.982 22.7643 60.982Z" fill="url(#paint12_linear)"/>
<path d="M44.3394 41.536H1.18921V47.639V47.781C1.18921 54.737 10.8412 60.272 22.7643 60.272C34.6874 60.272 44.3394 54.595 44.3394 47.781V47.639V41.536Z" fill="url(#paint13_linear)"/>
<path d="M29.4358 59.705C29.5777 59.705 29.8616 59.563 30.0035 59.563V43.666H29.4358V59.705Z" fill="#FDD65B"/>
<path d="M32.1326 59.137C32.2745 59.137 32.5584 58.995 32.7003 58.995V43.808H32.1326V59.137Z" fill="#FDD65B"/>
<path d="M34.8293 58.286C34.9713 58.144 35.2552 58.144 35.3971 58.002V43.666H34.8293V58.286Z" fill="#FDD65B"/>
<path d="M26.7388 60.131C26.8807 60.131 27.1646 60.131 27.3066 60.131V43.808H26.7388V60.131Z" fill="#FDD65B"/>
<path d="M40.2231 55.163C40.365 55.021 40.6489 54.879 40.7909 54.595V43.666H40.2231V55.163Z" fill="#FDD65B"/>
<path d="M42.9199 52.182C43.2038 51.898 43.3457 51.472 43.4877 51.047V43.524H42.9199V52.182Z" fill="#FDD65B"/>
<path d="M37.5261 57.008C37.668 56.866 37.9519 56.724 38.0939 56.724V43.808H37.5261V57.008Z" fill="#FDD65B"/>
<path d="M23.8999 60.273C24.0419 60.273 24.3258 60.273 24.4677 60.273V43.666H23.8999V60.273Z" fill="#FDD65B"/>
<path d="M21.2031 60.273C21.345 60.273 21.6289 60.273 21.7708 60.273V43.666H21.2031V60.273Z" fill="#FDD65B"/>
<path d="M15.8093 59.705C15.9512 59.705 16.2351 59.847 16.3771 59.847V43.808H15.8093V59.705Z" fill="#FDD65B"/>
<path d="M18.5061 60.131C18.648 60.131 18.9319 60.131 19.0738 60.131V43.666H18.5061V60.131Z" fill="#FDD65B"/>
<path d="M13.1123 58.995C13.2543 58.995 13.5381 59.137 13.6801 59.137V43.666H13.1123V58.995Z" fill="#FDD65B"/>
<path d="M2.32495 51.756C2.46685 52.04 2.75075 52.466 2.89265 52.75V43.808H2.32495V51.756Z" fill="#FDD65B"/>
<path d="M5.02173 54.879C5.16373 55.021 5.44753 55.163 5.58953 55.305V43.666H5.02173V54.879Z" fill="#FDD65B"/>
<path d="M10.4155 58.144C10.5574 58.286 10.8414 58.286 10.9833 58.428V43.808H10.4155V58.144Z" fill="#FDD65B"/>
<path d="M7.71851 56.724C7.86051 56.866 8.14431 57.008 8.28631 57.008V43.666H7.71851V56.724Z" fill="#FDD65B"/>
<path d="M22.7644 53.8851C11.1252 53.8851 1.6152 48.4911 1.3313 41.8201C1.3313 41.9621 1.3313 42.1041 1.3313 42.2461C1.3313 49.2011 10.9833 54.7371 22.9064 54.7371C34.8295 54.7371 44.4814 49.0591 44.4814 42.2461C44.4814 42.1041 44.4814 41.9621 44.4814 41.8201C43.9137 48.4911 34.4036 53.8851 22.7644 53.8851Z" fill="url(#paint14_linear)"/>
<path d="M22.7643 53.982C34.6799 53.982 44.3394 48.39 44.3394 41.491C44.3394 34.593 34.6799 29 22.7643 29C10.8487 29 1.18921 34.593 1.18921 41.491C1.18921 48.39 10.8487 53.982 22.7643 53.982Z" fill="url(#paint15_linear)"/>
<path d="M44.3394 34.536H1.18921V40.639V40.781C1.18921 47.737 10.8412 53.272 22.7643 53.272C34.6874 53.272 44.3394 47.595 44.3394 40.781V40.639V34.536Z" fill="url(#paint16_linear)"/>
<path d="M29.4358 52.705C29.5777 52.705 29.8616 52.563 30.0035 52.563V36.666H29.4358V52.705Z" fill="#FDD65B"/>
<path d="M32.1326 52.137C32.2745 52.137 32.5584 51.995 32.7003 51.995V36.808H32.1326V52.137Z" fill="#FDD65B"/>
<path d="M34.8293 51.286C34.9713 51.144 35.2552 51.144 35.3971 51.002V36.666H34.8293V51.286Z" fill="#FDD65B"/>
<path d="M26.7388 53.131C26.8807 53.131 27.1646 53.131 27.3066 53.131V36.808H26.7388V53.131Z" fill="#FDD65B"/>
<path d="M40.2231 48.163C40.365 48.021 40.6489 47.879 40.7909 47.595V36.666H40.2231V48.163Z" fill="#FDD65B"/>
<path d="M42.9199 45.182C43.2038 44.898 43.3457 44.472 43.4877 44.047V36.524H42.9199V45.182Z" fill="#FDD65B"/>
<path d="M37.5261 50.008C37.668 49.866 37.9519 49.724 38.0939 49.724V36.808H37.5261V50.008Z" fill="#FDD65B"/>
<path d="M23.8999 53.273C24.0419 53.273 24.3258 53.273 24.4677 53.273V36.666H23.8999V53.273Z" fill="#FDD65B"/>
<path d="M21.2031 53.273C21.345 53.273 21.6289 53.273 21.7708 53.273V36.666H21.2031V53.273Z" fill="#FDD65B"/>
<path d="M15.8093 52.705C15.9512 52.705 16.2351 52.847 16.3771 52.847V36.808H15.8093V52.705Z" fill="#FDD65B"/>
<path d="M18.5061 53.131C18.648 53.131 18.9319 53.131 19.0738 53.131V36.666H18.5061V53.131Z" fill="#FDD65B"/>
<path d="M13.1123 51.995C13.2543 51.995 13.5381 52.137 13.6801 52.137V36.666H13.1123V51.995Z" fill="#FDD65B"/>
<path d="M2.32495 44.756C2.46685 45.04 2.75075 45.466 2.89265 45.75V36.808H2.32495V44.756Z" fill="#FDD65B"/>
<path d="M5.02173 47.879C5.16373 48.021 5.44753 48.163 5.58953 48.305V36.666H5.02173V47.879Z" fill="#FDD65B"/>
<path d="M10.4155 51.144C10.5574 51.286 10.8414 51.286 10.9833 51.428V36.808H10.4155V51.144Z" fill="#FDD65B"/>
<path d="M7.71851 49.724C7.86051 49.866 8.14431 50.008 8.28631 50.008V36.666H7.71851V49.724Z" fill="#FDD65B"/>
<path d="M22.7644 46.8851C11.1252 46.8851 1.6152 41.4911 1.3313 34.8201C1.3313 34.9621 1.3313 35.1041 1.3313 35.2461C1.3313 42.2011 10.9833 47.7371 22.9064 47.7371C34.8295 47.7371 44.4814 42.0591 44.4814 35.2461C44.4814 35.1041 44.4814 34.9621 44.4814 34.8201C43.9137 41.4911 34.4036 46.8851 22.7644 46.8851Z" fill="url(#paint17_linear)"/>
<path d="M23.3321 32.611C31.9905 32.611 38.9457 36.586 39.3715 41.554C39.3715 41.412 39.3715 41.27 39.3715 40.986C39.3715 35.876 32.1324 31.618 23.3321 31.618C14.3898 31.618 7.29272 35.876 7.29272 40.986C7.29272 41.128 7.29272 41.27 7.29272 41.554C7.71852 36.586 14.6737 32.611 23.3321 32.611Z" fill="url(#paint18_radial)"/>
<path d="M22.7644 33.179C31.4229 33.179 38.378 37.1531 38.8038 42.1211C38.8038 41.9791 38.8038 41.837 38.8038 41.554C38.8038 36.444 31.5648 32.1851 22.7644 32.1851C13.8221 32.1851 6.7251 36.444 6.7251 41.554C6.7251 41.696 6.7251 41.8371 6.7251 42.1211C7.1509 37.0111 14.2479 33.179 22.7644 33.179Z" fill="url(#paint19_linear)"/>
<path d="M22.7643 46.947C34.6799 46.947 44.3394 41.355 44.3394 34.456C44.3394 27.558 34.6799 21.965 22.7643 21.965C10.8487 21.965 1.18921 27.558 1.18921 34.456C1.18921 41.355 10.8487 46.947 22.7643 46.947Z" fill="url(#paint20_linear)"/>
<path d="M38.9457 34.456C38.9457 39.566 31.7067 43.824 22.9063 43.824C13.964 43.824 6.86694 39.566 6.86694 34.456C6.86694 29.346 14.106 25.088 22.9063 25.088C31.7067 25.088 38.9457 29.204 38.9457 34.456Z" fill="url(#paint21_linear)"/>
<path d="M23.3321 25.514C31.9905 25.514 38.9457 29.488 39.3715 34.456C39.3715 34.314 39.3715 34.173 39.3715 33.889C39.3715 28.779 32.1324 24.521 23.3321 24.521C14.3898 24.521 7.29272 28.779 7.29272 33.889C7.29272 34.031 7.29272 34.173 7.29272 34.456C7.71852 29.488 14.6737 25.514 23.3321 25.514Z" fill="url(#paint22_radial)"/>
<path d="M22.7644 26.082C31.4229 26.082 38.378 30.056 38.8038 35.024C38.8038 34.882 38.8038 34.74 38.8038 34.456C38.8038 29.346 31.5648 25.088 22.7644 25.088C13.8221 25.088 6.7251 29.346 6.7251 34.456C6.7251 34.598 6.7251 34.74 6.7251 35.024C7.1509 29.914 14.2479 26.082 22.7644 26.082Z" fill="url(#paint23_linear)"/>
<path d="M44.3394 27.501H1.18921V33.604V33.746C1.18921 40.702 10.8412 46.237 22.7643 46.237C34.6874 46.237 44.3394 40.56 44.3394 33.746V33.604V27.501Z" fill="url(#paint24_linear)"/>
<path d="M22.7643 44.96C10.8412 44.96 1.18921 39.282 1.18921 32.469V33.604V33.746C1.18921 40.701 10.8412 46.237 22.7643 46.237C34.6874 46.237 44.3394 40.56 44.3394 33.746V33.604V32.469C44.3394 39.424 34.6874 44.96 22.7643 44.96Z" fill="url(#paint25_linear)"/>
<path d="M29.4358 45.67C29.5777 45.67 29.8616 45.528 30.0035 45.528V29.631H29.4358V45.67Z" fill="#FDD65B"/>
<path d="M32.1326 45.1019C32.2745 45.1019 32.5584 44.9599 32.7003 44.9599V29.7729H32.1326V45.1019Z" fill="#FDD65B"/>
<path d="M34.8293 44.251C34.9713 44.109 35.2552 44.109 35.3971 43.967V29.631H34.8293V44.251Z" fill="#FDD65B"/>
<path d="M26.7388 46.0959C26.8807 46.0959 27.1646 46.0959 27.3066 46.0959V29.7729H26.7388V46.0959Z" fill="#FDD65B"/>
<path d="M40.2231 41.128C40.365 40.986 40.6489 40.844 40.7909 40.56V29.631H40.2231V41.128Z" fill="#FDD65B"/>
<path d="M42.9199 38.147C43.2038 37.863 43.3457 37.437 43.4877 37.012V29.489H42.9199V38.147Z" fill="#FDD65B"/>
<path d="M37.5261 42.9729C37.668 42.8309 37.9519 42.6889 38.0939 42.6889V29.7729H37.5261V42.9729Z" fill="#FDD65B"/>
<path d="M23.8999 46.238C24.0419 46.238 24.3258 46.238 24.4677 46.238V29.631H23.8999V46.238Z" fill="#FDD65B"/>
<path d="M21.2031 46.238C21.345 46.238 21.6289 46.238 21.7708 46.238V29.631H21.2031V46.238Z" fill="#FDD65B"/>
<path d="M15.8093 45.67C15.9512 45.67 16.2351 45.812 16.3771 45.812V29.7729H15.8093V45.67Z" fill="#FDD65B"/>
<path d="M18.5061 46.096C18.648 46.096 18.9319 46.096 19.0738 46.096V29.631H18.5061V46.096Z" fill="#FDD65B"/>
<path d="M13.1123 44.96C13.2543 44.96 13.5381 45.102 13.6801 45.102V29.631H13.1123V44.96Z" fill="#FDD65B"/>
<path d="M2.32495 37.7209C2.46685 38.0049 2.75075 38.4309 2.89265 38.7149V29.7729H2.32495V37.7209Z" fill="#FDD65B"/>
<path d="M5.02173 40.844C5.16373 40.986 5.44753 41.128 5.58953 41.27V29.631H5.02173V40.844Z" fill="#FDD65B"/>
<path d="M10.4155 44.1089C10.5574 44.2509 10.8414 44.2509 10.9833 44.3929V29.7729H10.4155V44.1089Z" fill="#FDD65B"/>
<path d="M7.71851 42.689C7.86051 42.831 8.14431 42.973 8.28631 42.973V29.631H7.71851V42.689Z" fill="#FDD65B"/>
<path d="M22.7643 40.134C34.6799 40.134 44.3394 34.542 44.3394 27.643C44.3394 20.745 34.6799 15.152 22.7643 15.152C10.8487 15.152 1.18921 20.745 1.18921 27.643C1.18921 34.542 10.8487 40.134 22.7643 40.134Z" fill="url(#paint26_linear)"/>
<path d="M22.7644 39.85C11.1252 39.85 1.6152 34.456 1.3313 27.785C1.3313 27.927 1.3313 28.069 1.3313 28.211C1.3313 35.166 10.9833 40.702 22.9064 40.702C34.8295 40.702 44.4814 35.024 44.4814 28.211C44.4814 28.069 44.4814 27.927 44.4814 27.785C43.9137 34.456 34.4036 39.85 22.7644 39.85Z" fill="url(#paint27_linear)"/>
<path d="M38.9457 27.643C38.9457 32.753 31.7067 37.011 22.9063 37.011C13.964 37.011 6.86694 32.753 6.86694 27.643C6.86694 22.533 14.106 18.275 22.9063 18.275C31.7067 18.275 38.9457 22.391 38.9457 27.643Z" fill="url(#paint28_linear)"/>
<path d="M23.3321 18.701C31.9905 18.701 38.9457 22.675 39.3715 27.643C39.3715 27.501 39.3715 27.359 39.3715 27.075C39.3715 21.965 32.1324 17.707 23.3321 17.707C14.3898 17.707 7.29272 21.965 7.29272 27.075C7.29272 27.217 7.29272 27.359 7.29272 27.643C7.71852 22.675 14.6737 18.701 23.3321 18.701Z" fill="url(#paint29_radial)"/>
<path d="M22.7644 19.268C31.4229 19.268 38.378 23.243 38.8038 28.211C38.8038 28.069 38.8038 27.927 38.8038 27.643C38.8038 22.533 31.5648 18.275 22.7644 18.275C13.8221 18.275 6.7251 22.533 6.7251 27.643C6.7251 27.785 6.7251 27.927 6.7251 28.211C7.1509 23.243 14.2479 19.268 22.7644 19.268Z" fill="url(#paint30_linear)"/>
<path d="M44.3394 20.405H1.18921V26.508V26.65C1.18921 33.605 10.8412 39.141 22.7643 39.141C34.6874 39.141 44.3394 33.463 44.3394 26.65V26.508V20.405Z" fill="url(#paint31_linear)"/>
<path d="M22.7643 37.863C10.8412 37.863 1.18921 32.186 1.18921 25.373V26.508V26.65C1.18921 33.605 10.8412 39.141 22.7643 39.141C34.6874 39.141 44.3394 33.463 44.3394 26.65V26.508V25.231C44.3394 32.186 34.6874 37.863 22.7643 37.863Z" fill="url(#paint32_linear)"/>
<path d="M29.4358 38.5729C29.5777 38.5729 29.8616 38.4309 30.0035 38.4309V22.5339H29.4358V38.5729Z" fill="#FDD65B"/>
<path d="M32.1326 37.8629C32.2745 37.8629 32.5584 37.7219 32.7003 37.7219V22.5339H32.1326V37.8629Z" fill="#FDD65B"/>
<path d="M34.8293 37.011C34.9713 36.869 35.2552 36.87 35.3971 36.728V22.391H34.8293V37.011Z" fill="#FDD65B"/>
<path d="M26.7388 38.9991C26.8807 38.9991 27.1646 38.9991 27.3066 38.9991V22.675H26.7388V38.9991Z" fill="#FDD65B"/>
<path d="M40.2231 34.0309C40.365 33.8889 40.6489 33.747 40.7909 33.463V22.5339H40.2231V34.0309Z" fill="#FDD65B"/>
<path d="M42.9199 31.05C43.2038 30.766 43.3457 30.34 43.4877 29.914V22.391H42.9199V31.05Z" fill="#FDD65B"/>
<path d="M37.5261 35.7339C37.668 35.5919 37.9519 35.45 38.0939 35.45V22.5339H37.5261V35.7339Z" fill="#FDD65B"/>
<path d="M23.8999 39.1409C24.0419 39.1409 24.3258 39.1409 24.4677 39.1409V22.5339H23.8999V39.1409Z" fill="#FDD65B"/>
<path d="M21.2031 39.1409C21.345 39.1409 21.6289 39.1409 21.7708 39.1409V22.5339H21.2031V39.1409Z" fill="#FDD65B"/>
<path d="M15.8093 38.4309C15.9512 38.4309 16.2351 38.5729 16.3771 38.5729V22.5339H15.8093V38.4309Z" fill="#FDD65B"/>
<path d="M18.5061 38.857C18.648 38.857 18.9319 38.857 19.0738 38.857V22.391H18.5061V38.857Z" fill="#FDD65B"/>
<path d="M13.1123 37.8629C13.2543 37.8629 13.5381 38.0049 13.6801 38.0049V22.5339H13.1123V37.8629Z" fill="#FDD65B"/>
<path d="M2.32495 30.482C2.46685 30.766 2.75075 31.191 2.89265 31.475V22.533H2.32495V30.482Z" fill="#FDD65B"/>
<path d="M5.02173 33.7469C5.16373 33.8889 5.44753 34.0309 5.58953 34.1729V22.5339H5.02173V33.7469Z" fill="#FDD65B"/>
<path d="M10.4155 36.8699C10.5574 37.0119 10.8414 37.0119 10.9833 37.1539V22.5339H10.4155V36.8699Z" fill="#FDD65B"/>
<path d="M7.71851 35.5919C7.86051 35.7339 8.14431 35.8759 8.28631 35.8759V22.5339H7.71851V35.5919Z" fill="#FDD65B"/>
<path d="M22.7643 32.8951C34.6799 32.8951 44.3394 27.3031 44.3394 20.4051C44.3394 13.5061 34.6799 7.91406 22.7643 7.91406C10.8487 7.91406 1.18921 13.5061 1.18921 20.4051C1.18921 27.3031 10.8487 32.8951 22.7643 32.8951Z" fill="url(#paint33_linear)"/>
<path d="M22.7644 32.611C11.1252 32.611 1.6152 27.218 1.3313 20.546C1.3313 20.688 1.3313 20.83 1.3313 20.972C1.3313 27.927 10.9833 33.463 22.9064 33.463C34.8295 33.463 44.4814 27.785 44.4814 20.972C44.4814 20.83 44.4814 20.688 44.4814 20.546C43.9137 27.218 34.4036 32.611 22.7644 32.611Z" fill="url(#paint34_linear)"/>
<path d="M22.7644 29.773C31.6227 29.773 38.8038 25.579 38.8038 20.405C38.8038 15.231 31.6227 11.036 22.7644 11.036C13.9061 11.036 6.7251 15.231 6.7251 20.405C6.7251 25.579 13.9061 29.773 22.7644 29.773Z" fill="url(#paint35_linear)"/>
<path d="M23.3321 11.604C31.9905 11.604 38.9457 15.579 39.3715 20.546C39.3715 20.405 39.3715 20.263 39.3715 19.979C39.3715 14.869 32.1324 10.611 23.3321 10.611C14.3898 10.611 7.29272 14.869 7.29272 19.979C7.29272 20.121 7.29272 20.263 7.29272 20.546C7.71852 15.437 14.6737 11.604 23.3321 11.604Z" fill="url(#paint36_radial)"/>
<path d="M22.7644 12.03C31.4229 12.03 38.378 16.004 38.8038 20.972C38.8038 20.83 38.8038 20.689 38.8038 20.405C38.8038 15.295 31.5648 11.036 22.7644 11.036C13.8221 11.036 6.7251 15.295 6.7251 20.405C6.7251 20.547 6.7251 20.689 6.7251 20.972C7.1509 16.004 14.2479 12.03 22.7644 12.03Z" fill="url(#paint37_linear)"/>
<path d="M44.3394 13.165H1.18921V19.269V19.411C1.18921 26.366 10.8412 31.902 22.7643 31.902C34.6874 31.902 44.3394 26.224 44.3394 19.411V19.269V13.165Z" fill="url(#paint38_linear)"/>
<path d="M22.7643 30.6241C10.8412 30.6241 1.18921 24.9471 1.18921 18.1331V19.2691V19.4111C1.18921 26.3661 10.8412 31.9021 22.7643 31.9021C34.6874 31.9021 44.3394 26.2241 44.3394 19.4111V19.2691V18.1331C44.3394 24.9471 34.6874 30.6241 22.7643 30.6241Z" fill="url(#paint39_linear)"/>
<path d="M29.4358 31.334C29.5777 31.334 29.8616 31.192 30.0035 31.192V15.295H29.4358V31.334Z" fill="#FDD65B"/>
<path d="M32.1326 30.624C32.2745 30.624 32.5584 30.483 32.7003 30.483V15.295H32.1326V30.624Z" fill="#FDD65B"/>
<path d="M34.8293 29.773C34.9713 29.631 35.2552 29.631 35.3971 29.489V15.295H34.8293V29.773Z" fill="#FDD65B"/>
<path d="M26.7388 31.618C26.8807 31.618 27.1646 31.618 27.3066 31.618V15.295H26.7388V31.618Z" fill="#FDD65B"/>
<path d="M40.2231 26.65C40.365 26.508 40.6489 26.366 40.7909 26.082V15.295H40.2231V26.65Z" fill="#FDD65B"/>
<path d="M42.9199 23.811C43.2038 23.527 43.3457 23.102 43.4877 22.676V15.295H42.9199V23.811Z" fill="#FDD65B"/>
<path d="M37.5261 28.495C37.668 28.353 37.9519 28.211 38.0939 28.211V15.295H37.5261V28.495Z" fill="#FDD65B"/>
<path d="M23.8999 31.902C24.0419 31.902 24.3258 31.902 24.4677 31.902V15.295H23.8999V31.902Z" fill="#FDD65B"/>
<path d="M21.2031 31.902C21.345 31.902 21.6289 31.902 21.7708 31.902V15.295H21.2031V31.902Z" fill="#FDD65B"/>
<path d="M15.8093 31.192C15.9512 31.192 16.2351 31.334 16.3771 31.334V15.295H15.8093V31.192Z" fill="#FDD65B"/>
<path d="M18.5061 31.618C18.648 31.618 18.9319 31.618 19.0738 31.618V15.295H18.5061V31.618Z" fill="#FDD65B"/>
<path d="M13.1123 30.624C13.2543 30.624 13.5381 30.766 13.6801 30.766V15.295H13.1123V30.624Z" fill="#FDD65B"/>
<path d="M2.32495 23.244C2.46685 23.528 2.75075 23.953 2.89265 24.237V15.295H2.32495V23.244Z" fill="#FDD65B"/>
<path d="M5.02173 26.508C5.16373 26.65 5.44753 26.792 5.58953 26.934V15.295H5.02173V26.508Z" fill="#FDD65B"/>
<path d="M10.4155 29.631C10.5574 29.773 10.8414 29.773 10.9833 29.915V15.295H10.4155V29.631Z" fill="#FDD65B"/>
<path d="M7.71851 28.353C7.86051 28.495 8.14431 28.637 8.28631 28.637V15.295H7.71851V28.353Z" fill="#FDD65B"/>
<path d="M22.7643 25.6561C34.6799 25.6561 44.3394 20.0641 44.3394 13.1651C44.3394 6.26707 34.6799 0.675049 22.7643 0.675049C10.8487 0.675049 1.18921 6.26707 1.18921 13.1651C1.18921 20.0641 10.8487 25.6561 22.7643 25.6561Z" fill="url(#paint40_linear)"/>
<path d="M22.7645 25.373C11.1253 25.373 1.6152 19.979 1.3313 13.308C1.3313 13.45 1.3313 13.591 1.3313 13.733C1.3313 20.689 10.9834 26.224 22.9064 26.224C34.8295 26.224 44.4815 20.547 44.4815 13.733C44.4815 13.591 44.4815 13.45 44.4815 13.308C43.9137 19.979 34.4037 25.373 22.7645 25.373Z" fill="url(#paint41_linear)"/>
<path d="M38.9457 13.165C38.9457 18.275 31.7067 22.534 22.9063 22.534C13.964 22.534 6.86694 18.275 6.86694 13.165C6.86694 8.05501 14.106 3.797 22.9063 3.797C31.7067 3.797 38.9457 8.05501 38.9457 13.165Z" fill="url(#paint42_linear)"/>
<path d="M23.3321 4.22299C31.9905 4.22299 38.9457 8.19701 39.3715 13.165C39.3715 13.023 39.3715 12.881 39.3715 12.598C39.3715 7.48799 32.1324 3.229 23.3321 3.229C14.3898 3.229 7.29272 7.48799 7.29272 12.598C7.29272 12.739 7.29272 12.881 7.29272 13.165C7.71852 8.19701 14.6737 4.22299 23.3321 4.22299Z" fill="url(#paint43_linear)"/>
<path d="M22.7645 4.79099C31.4229 4.79099 38.378 8.765 38.8039 13.733C38.8039 13.591 38.8039 13.449 38.8039 13.165C38.8039 8.05501 31.5649 3.797 22.7645 3.797C13.8222 3.797 6.7251 8.05501 6.7251 13.165C6.7251 13.307 6.7251 13.449 6.7251 13.733C7.151 8.765 14.248 4.79099 22.7645 4.79099Z" fill="url(#paint44_linear)"/>
<path style="mix-blend-mode:color-dodge" d="M12.8285 14.585C17.2287 15.437 19.216 23.811 17.3707 33.321C15.5255 42.831 10.4156 49.928 6.01537 49.077C1.61517 48.225 -0.372026 39.851 1.47327 30.34C3.31847 20.83 8.42827 13.733 12.8285 14.585Z" fill="url(#paint45_radial)"/>
<path style="mix-blend-mode:color-dodge" d="M34.1198 1.10003C38.9458 2.80403 42.2104 6.06801 41.3588 8.48101C40.5071 10.894 35.965 11.462 31.139 9.90102C26.313 8.19802 23.0483 4.93301 23.9 2.52001C24.7516 0.10701 29.2937 -0.602973 34.1198 1.10003Z" fill="url(#paint46_radial)"/>
<path d="M28.0164 11.179L33.4101 12.172C34.2618 12.314 34.5457 13.024 33.694 13.308L29.0099 15.153C28.726 15.295 28.5841 15.437 28.5841 15.721L28.7261 18.985C28.7261 19.553 27.5905 19.837 26.8808 19.553L22.3387 17.566C22.0548 17.424 21.629 17.424 21.3451 17.424L15.9513 18.418C15.0997 18.559 14.248 18.134 14.5319 17.566L16.3771 14.443C16.5191 14.301 16.3771 14.017 16.2352 13.875L12.8286 11.179C12.2608 10.753 12.8286 10.043 13.8222 10.185H19.4999C19.9257 10.185 20.2096 10.043 20.4934 9.90099L23.7581 7.204C24.3259 6.778 25.4614 6.91999 25.7453 7.34599L27.4486 10.469C27.3066 10.895 27.5905 11.037 28.0164 11.179Z" fill="url(#paint47_linear)"/>
<path d="M28.0164 10.469L33.4101 11.4621C34.2618 11.6041 34.5457 12.314 33.694 12.598L29.0099 14.443C28.726 14.585 28.5841 14.727 28.5841 15.011L28.7261 18.275C28.7261 18.843 27.5905 19.127 26.8808 18.843L22.3387 16.856C22.0548 16.714 21.629 16.714 21.3451 16.714L15.9513 17.7081C15.0997 17.8501 14.248 17.424 14.5319 16.856L16.3771 13.733C16.5191 13.591 16.3771 13.307 16.2352 13.166L12.8286 10.469C12.2608 10.043 12.8286 9.33305 13.8222 9.47505H19.4999C19.9257 9.47505 20.2096 9.33306 20.4934 9.19106L23.7581 6.49403C24.3259 6.06803 25.4614 6.21003 25.7453 6.63603L27.4486 9.75905C27.3066 10.327 27.5905 10.469 28.0164 10.469Z" fill="url(#paint48_linear)"/>
<path d="M28.0164 10.469L33.4101 11.4621C34.2618 11.6041 34.5457 12.314 33.694 12.598L29.0099 14.443C28.726 14.585 28.5841 14.727 28.5841 15.011L28.7261 18.275C28.7261 18.843 27.5905 19.127 26.8808 18.843L22.3387 16.856C22.0548 16.714 21.629 16.714 21.3451 16.714L15.9513 17.7081C15.0997 17.8501 14.248 17.424 14.5319 16.856L16.3771 13.733C16.5191 13.591 16.3771 13.307 16.2352 13.166L12.8286 10.469C12.2608 10.043 12.8286 9.33305 13.8222 9.47505H19.4999C19.9257 9.47505 20.2096 9.33306 20.4934 9.19106L23.7581 6.49403C24.3259 6.06803 25.4614 6.21003 25.7453 6.63603L27.4486 9.75905C27.3066 10.327 27.5905 10.469 28.0164 10.469Z" fill="url(#paint49_linear)"/>
<defs>
<linearGradient id="paint0_linear" x1="62.3888" y1="35.395" x2="20.2562" y2="77.796" gradientUnits="userSpaceOnUse">
<stop offset="0.0353535" stop-color="#FFBA78"/>
<stop offset="0.395" stop-color="#FFC987"/>
<stop offset="1" stop-color="#FEECA8"/>
</linearGradient>
<linearGradient id="paint1_linear" x1="1.2548" y1="77.96" x2="43.6527" y2="77.96" gradientUnits="userSpaceOnUse">
<stop stop-color="#FFBB96"/>
<stop offset="0.2273" stop-color="#FFFBC9"/>
<stop offset="0.5404" stop-color="#F9B673"/>
<stop offset="0.6391" stop-color="#F9B876"/>
<stop offset="0.7249" stop-color="#FABE81"/>
<stop offset="0.8057" stop-color="#FCC993"/>
<stop offset="0.8586" stop-color="#FED2A3"/>
<stop offset="0.9697" stop-color="#FFC28C"/>
</linearGradient>
<linearGradient id="paint2_linear" x1="1.39689" y1="75.2561" x2="43.7947" y2="75.2561" gradientUnits="userSpaceOnUse">
<stop stop-color="#FFBB96"/>
<stop offset="0.2273" stop-color="#FFFBC9"/>
<stop offset="0.5404" stop-color="#F9B673"/>
<stop offset="0.6391" stop-color="#F9B876"/>
<stop offset="0.7249" stop-color="#FABE81"/>
<stop offset="0.8057" stop-color="#FCC993"/>
<stop offset="0.8586" stop-color="#FED2A3"/>
<stop offset="0.9697" stop-color="#FFC28C"/>
</linearGradient>
<linearGradient id="paint3_linear" x1="62.578" y1="28.395" x2="20.4454" y2="70.796" gradientUnits="userSpaceOnUse">
<stop offset="0.0353535" stop-color="#FFBA78"/>
<stop offset="0.395" stop-color="#FFC987"/>
<stop offset="1" stop-color="#FEECA8"/>
</linearGradient>
<linearGradient id="paint4_linear" x1="1.44401" y1="70.96" x2="43.8419" y2="70.96" gradientUnits="userSpaceOnUse">
<stop stop-color="#FFBB96"/>
<stop offset="0.2273" stop-color="#FFFBC9"/>
<stop offset="0.5404" stop-color="#F9B673"/>
<stop offset="0.6391" stop-color="#F9B876"/>
<stop offset="0.7249" stop-color="#FABE81"/>
<stop offset="0.8057" stop-color="#FCC993"/>
<stop offset="0.8586" stop-color="#FED2A3"/>
<stop offset="0.9697" stop-color="#FFC28C"/>
</linearGradient>
<linearGradient id="paint5_linear" x1="1.5861" y1="68.2561" x2="43.9839" y2="68.2561" gradientUnits="userSpaceOnUse">
<stop stop-color="#FFBB96"/>
<stop offset="0.2273" stop-color="#FFFBC9"/>
<stop offset="0.5404" stop-color="#F9B673"/>
<stop offset="0.6391" stop-color="#F9B876"/>
<stop offset="0.7249" stop-color="#FABE81"/>
<stop offset="0.8057" stop-color="#FCC993"/>
<stop offset="0.8586" stop-color="#FED2A3"/>
<stop offset="0.9697" stop-color="#FFC28C"/>
</linearGradient>
<linearGradient id="paint6_linear" x1="62.578" y1="22.395" x2="20.4454" y2="64.796" gradientUnits="userSpaceOnUse">
<stop offset="0.0353535" stop-color="#FFBA78"/>
<stop offset="0.395" stop-color="#FFC987"/>
<stop offset="1" stop-color="#FEECA8"/>
</linearGradient>
<linearGradient id="paint7_linear" x1="1.44401" y1="64.96" x2="43.8419" y2="64.96" gradientUnits="userSpaceOnUse">
<stop stop-color="#FFBB96"/>
<stop offset="0.2273" stop-color="#FFFBC9"/>
<stop offset="0.5404" stop-color="#F9B673"/>
<stop offset="0.6391" stop-color="#F9B876"/>
<stop offset="0.7249" stop-color="#FABE81"/>
<stop offset="0.8057" stop-color="#FCC993"/>
<stop offset="0.8586" stop-color="#FED2A3"/>
<stop offset="0.9697" stop-color="#FFC28C"/>
</linearGradient>
<linearGradient id="paint8_linear" x1="1.5861" y1="62.2561" x2="43.9839" y2="62.2561" gradientUnits="userSpaceOnUse">
<stop stop-color="#FFBB96"/>
<stop offset="0.2273" stop-color="#FFFBC9"/>
<stop offset="0.5404" stop-color="#F9B673"/>
<stop offset="0.6391" stop-color="#F9B876"/>
<stop offset="0.7249" stop-color="#FABE81"/>
<stop offset="0.8057" stop-color="#FCC993"/>
<stop offset="0.8586" stop-color="#FED2A3"/>
<stop offset="0.9697" stop-color="#FFC28C"/>
</linearGradient>
<linearGradient id="paint9_linear" x1="62.578" y1="15.395" x2="20.4454" y2="57.796" gradientUnits="userSpaceOnUse">
<stop offset="0.0353535" stop-color="#FFBA78"/>
<stop offset="0.395" stop-color="#FFC987"/>
<stop offset="1" stop-color="#FEECA8"/>
</linearGradient>
<linearGradient id="paint10_linear" x1="1.44401" y1="57.96" x2="43.8419" y2="57.96" gradientUnits="userSpaceOnUse">
<stop stop-color="#FFBB96"/>
<stop offset="0.2273" stop-color="#FFFBC9"/>
<stop offset="0.5404" stop-color="#F9B673"/>
<stop offset="0.6391" stop-color="#F9B876"/>
<stop offset="0.7249" stop-color="#FABE81"/>
<stop offset="0.8057" stop-color="#FCC993"/>
<stop offset="0.8586" stop-color="#FED2A3"/>
<stop offset="0.9697" stop-color="#FFC28C"/>
</linearGradient>
<linearGradient id="paint11_linear" x1="1.5861" y1="55.2561" x2="43.9839" y2="55.2561" gradientUnits="userSpaceOnUse">
<stop stop-color="#FFBB96"/>
<stop offset="0.2273" stop-color="#FFFBC9"/>
<stop offset="0.5404" stop-color="#F9B673"/>
<stop offset="0.6391" stop-color="#F9B876"/>
<stop offset="0.7249" stop-color="#FABE81"/>
<stop offset="0.8057" stop-color="#FCC993"/>
<stop offset="0.8586" stop-color="#FED2A3"/>
<stop offset="0.9697" stop-color="#FFC28C"/>
</linearGradient>
<linearGradient id="paint12_linear" x1="62.578" y1="8.39501" x2="20.4454" y2="50.796" gradientUnits="userSpaceOnUse">
<stop offset="0.0353535" stop-color="#FFBA78"/>
<stop offset="0.395" stop-color="#FFC987"/>
<stop offset="1" stop-color="#FEECA8"/>
</linearGradient>
<linearGradient id="paint13_linear" x1="1.44401" y1="50.96" x2="43.8419" y2="50.96" gradientUnits="userSpaceOnUse">
<stop stop-color="#FFBB96"/>
<stop offset="0.2273" stop-color="#FFFBC9"/>
<stop offset="0.5404" stop-color="#F9B673"/>
<stop offset="0.6391" stop-color="#F9B876"/>
<stop offset="0.7249" stop-color="#FABE81"/>
<stop offset="0.8057" stop-color="#FCC993"/>
<stop offset="0.8586" stop-color="#FED2A3"/>
<stop offset="0.9697" stop-color="#FFC28C"/>
</linearGradient>
<linearGradient id="paint14_linear" x1="1.5861" y1="48.2561" x2="43.9839" y2="48.2561" gradientUnits="userSpaceOnUse">
<stop stop-color="#FFBB96"/>
<stop offset="0.2273" stop-color="#FFFBC9"/>
<stop offset="0.5404" stop-color="#F9B673"/>
<stop offset="0.6391" stop-color="#F9B876"/>
<stop offset="0.7249" stop-color="#FABE81"/>
<stop offset="0.8057" stop-color="#FCC993"/>
<stop offset="0.8586" stop-color="#FED2A3"/>
<stop offset="0.9697" stop-color="#FFC28C"/>
</linearGradient>
<linearGradient id="paint15_linear" x1="62.578" y1="1.39501" x2="20.4454" y2="43.796" gradientUnits="userSpaceOnUse">
<stop offset="0.0353535" stop-color="#FFBA78"/>
<stop offset="0.395" stop-color="#FFC987"/>
<stop offset="1" stop-color="#FEECA8"/>
</linearGradient>
<linearGradient id="paint16_linear" x1="1.44401" y1="43.96" x2="43.8419" y2="43.96" gradientUnits="userSpaceOnUse">
<stop stop-color="#FFBB96"/>
<stop offset="0.2273" stop-color="#FFFBC9"/>
<stop offset="0.5404" stop-color="#F9B673"/>
<stop offset="0.6391" stop-color="#F9B876"/>
<stop offset="0.7249" stop-color="#FABE81"/>
<stop offset="0.8057" stop-color="#FCC993"/>
<stop offset="0.8586" stop-color="#FED2A3"/>
<stop offset="0.9697" stop-color="#FFC28C"/>
</linearGradient>
<linearGradient id="paint17_linear" x1="1.5861" y1="41.2561" x2="43.9839" y2="41.2561" gradientUnits="userSpaceOnUse">
<stop stop-color="#FFBB96"/>
<stop offset="0.2273" stop-color="#FFFBC9"/>
<stop offset="0.5404" stop-color="#F9B673"/>
<stop offset="0.6391" stop-color="#F9B876"/>
<stop offset="0.7249" stop-color="#FABE81"/>
<stop offset="0.8057" stop-color="#FCC993"/>
<stop offset="0.8586" stop-color="#FED2A3"/>
<stop offset="0.9697" stop-color="#FFC28C"/>
</linearGradient>
<radialGradient id="paint18_radial" cx="0" cy="0" r="1" gradientUnits="userSpaceOnUse" gradientTransform="translate(30.3599 31.243) scale(11.9093)">
<stop stop-color="white"/>
<stop offset="1"/>
</radialGradient>
<linearGradient id="paint19_linear" x1="45.885" y1="17.2331" x2="16.1624" y2="47.1451" gradientUnits="userSpaceOnUse">
<stop stop-color="#FFBB96"/>
<stop offset="0.2273" stop-color="#FFFBC9"/>
<stop offset="0.5404" stop-color="#F9B673"/>
<stop offset="0.6391" stop-color="#F9B876"/>
<stop offset="0.7249" stop-color="#FABE81"/>
<stop offset="0.8057" stop-color="#FCC993"/>
<stop offset="0.8586" stop-color="#FED2A3"/>
<stop offset="0.9697" stop-color="#FFC28C"/>
</linearGradient>
<linearGradient id="paint20_linear" x1="62.578" y1="-5.64002" x2="20.4454" y2="36.761" gradientUnits="userSpaceOnUse">
<stop offset="0.0353535" stop-color="#FFBA78"/>
<stop offset="0.395" stop-color="#FFC987"/>
<stop offset="1" stop-color="#FEECA8"/>
</linearGradient>
<linearGradient id="paint21_linear" x1="40.0879" y1="16.994" x2="8.59256" y2="48.69" gradientUnits="userSpaceOnUse">
<stop offset="0.0353535" stop-color="#FFBA78"/>
<stop offset="0.395" stop-color="#FFC987"/>
<stop offset="1" stop-color="#FEECA8"/>
</linearGradient>
<radialGradient id="paint22_radial" cx="0" cy="0" r="1" gradientUnits="userSpaceOnUse" gradientTransform="translate(30.3599 24.14) scale(11.9093)">
<stop stop-color="white"/>
<stop offset="1"/>
</radialGradient>
<linearGradient id="paint23_linear" x1="45.885" y1="10.1291" x2="16.1628" y2="40.0411" gradientUnits="userSpaceOnUse">
<stop stop-color="#FFBB96"/>
<stop offset="0.2273" stop-color="#FFFBC9"/>
<stop offset="0.5404" stop-color="#F9B673"/>
<stop offset="0.6391" stop-color="#F9B876"/>
<stop offset="0.7249" stop-color="#FABE81"/>
<stop offset="0.8057" stop-color="#FCC993"/>
<stop offset="0.8586" stop-color="#FED2A3"/>
<stop offset="0.9697" stop-color="#FFC28C"/>
</linearGradient>
<linearGradient id="paint24_linear" x1="1.44401" y1="36.925" x2="43.8419" y2="36.925" gradientUnits="userSpaceOnUse">
<stop stop-color="#FFBB96"/>
<stop offset="0.2273" stop-color="#FFFBC9"/>
<stop offset="0.5404" stop-color="#F9B673"/>
<stop offset="0.6391" stop-color="#F9B876"/>
<stop offset="0.7249" stop-color="#FABE81"/>
<stop offset="0.8057" stop-color="#FCC993"/>
<stop offset="0.8586" stop-color="#FED2A3"/>
<stop offset="0.9697" stop-color="#FFC28C"/>
</linearGradient>
<linearGradient id="paint25_linear" x1="1.44411" y1="39.379" x2="43.8419" y2="39.379" gradientUnits="userSpaceOnUse">
<stop stop-color="#FFBB96"/>
<stop offset="0.2273" stop-color="#FFFBC9"/>
<stop offset="0.5404" stop-color="#F9B673"/>
<stop offset="0.6391" stop-color="#F9B876"/>
<stop offset="0.7249" stop-color="#FABE81"/>
<stop offset="0.8057" stop-color="#FCC993"/>
<stop offset="0.8586" stop-color="#FED2A3"/>
<stop offset="0.9697" stop-color="#FFC28C"/>
</linearGradient>
<linearGradient id="paint26_linear" x1="62.578" y1="-12.438" x2="20.4453" y2="29.963" gradientUnits="userSpaceOnUse">
<stop offset="0.0353535" stop-color="#FFBA78"/>
<stop offset="0.395" stop-color="#FFC987"/>
<stop offset="1" stop-color="#FEECA8"/>
</linearGradient>
<linearGradient id="paint27_linear" x1="1.5861" y1="34.221" x2="43.9839" y2="34.221" gradientUnits="userSpaceOnUse">
<stop stop-color="#FFBB96"/>
<stop offset="0.2273" stop-color="#FFFBC9"/>
<stop offset="0.5404" stop-color="#F9B673"/>
<stop offset="0.6391" stop-color="#F9B876"/>
<stop offset="0.7249" stop-color="#FABE81"/>
<stop offset="0.8057" stop-color="#FCC993"/>
<stop offset="0.8586" stop-color="#FED2A3"/>
<stop offset="0.9697" stop-color="#FFC28C"/>
</linearGradient>
<linearGradient id="paint28_linear" x1="40.0879" y1="10.195" x2="8.59266" y2="41.891" gradientUnits="userSpaceOnUse">
<stop offset="0.0353535" stop-color="#FFBA78"/>
<stop offset="0.395" stop-color="#FFC987"/>
<stop offset="1" stop-color="#FEECA8"/>
</linearGradient>
<radialGradient id="paint29_radial" cx="0" cy="0" r="1" gradientUnits="userSpaceOnUse" gradientTransform="translate(30.3599 17.341) scale(11.9095)">
<stop stop-color="white"/>
<stop offset="1"/>
</radialGradient>
<linearGradient id="paint30_linear" x1="45.885" y1="3.33002" x2="16.1624" y2="33.242" gradientUnits="userSpaceOnUse">
<stop stop-color="#FFBB96"/>
<stop offset="0.2273" stop-color="#FFFBC9"/>
<stop offset="0.5404" stop-color="#F9B673"/>
<stop offset="0.6391" stop-color="#F9B876"/>
<stop offset="0.7249" stop-color="#FABE81"/>
<stop offset="0.8057" stop-color="#FCC993"/>
<stop offset="0.8586" stop-color="#FED2A3"/>
<stop offset="0.9697" stop-color="#FFC28C"/>
</linearGradient>
<linearGradient id="paint31_linear" x1="1.44401" y1="29.769" x2="43.8419" y2="29.769" gradientUnits="userSpaceOnUse">
<stop stop-color="#FFBB96"/>
<stop offset="0.2273" stop-color="#FFFBC9"/>
<stop offset="0.5404" stop-color="#F9B673"/>
<stop offset="0.6391" stop-color="#F9B876"/>
<stop offset="0.7249" stop-color="#FABE81"/>
<stop offset="0.8057" stop-color="#FCC993"/>
<stop offset="0.8586" stop-color="#FED2A3"/>
<stop offset="0.9697" stop-color="#FFC28C"/>
</linearGradient>
<linearGradient id="paint32_linear" x1="1.44411" y1="32.223" x2="43.8419" y2="32.223" gradientUnits="userSpaceOnUse">
<stop stop-color="#FFBB96"/>
<stop offset="0.2273" stop-color="#FFFBC9"/>
<stop offset="0.5404" stop-color="#F9B673"/>
<stop offset="0.6391" stop-color="#F9B876"/>
<stop offset="0.7249" stop-color="#FABE81"/>
<stop offset="0.8057" stop-color="#FCC993"/>
<stop offset="0.8586" stop-color="#FED2A3"/>
<stop offset="0.9697" stop-color="#FFC28C"/>
</linearGradient>
<linearGradient id="paint33_linear" x1="62.578" y1="-19.5939" x2="20.4453" y2="22.8071" gradientUnits="userSpaceOnUse">
<stop offset="0.0353535" stop-color="#FFBA78"/>
<stop offset="0.395" stop-color="#FFC987"/>
<stop offset="1" stop-color="#FEECA8"/>
</linearGradient>
<linearGradient id="paint34_linear" x1="1.5861" y1="26.982" x2="43.9839" y2="26.982" gradientUnits="userSpaceOnUse">
<stop stop-color="#FFBB96"/>
<stop offset="0.2273" stop-color="#FFFBC9"/>
<stop offset="0.5404" stop-color="#F9B673"/>
<stop offset="0.6391" stop-color="#F9B876"/>
<stop offset="0.7249" stop-color="#FABE81"/>
<stop offset="0.8057" stop-color="#FCC993"/>
<stop offset="0.8586" stop-color="#FED2A3"/>
<stop offset="0.9697" stop-color="#FFC28C"/>
</linearGradient>
<linearGradient id="paint35_linear" x1="40.0879" y1="3.04001" x2="8.5922" y2="34.736" gradientUnits="userSpaceOnUse">
<stop offset="0.0353535" stop-color="#FFBA78"/>
<stop offset="0.395" stop-color="#FFC987"/>
<stop offset="1" stop-color="#FEECA8"/>
</linearGradient>
<radialGradient id="paint36_radial" cx="0" cy="0" r="1" gradientUnits="userSpaceOnUse" gradientTransform="translate(30.3599 10.185) scale(11.9095)">
<stop stop-color="white"/>
<stop offset="1"/>
</radialGradient>
<linearGradient id="paint37_linear" x1="45.885" y1="-3.82495" x2="16.1628" y2="26.0871" gradientUnits="userSpaceOnUse">
<stop stop-color="#FFBB96"/>
<stop offset="0.2273" stop-color="#FFFBC9"/>
<stop offset="0.5404" stop-color="#F9B673"/>
<stop offset="0.6391" stop-color="#F9B876"/>
<stop offset="0.7249" stop-color="#FABE81"/>
<stop offset="0.8057" stop-color="#FCC993"/>
<stop offset="0.8586" stop-color="#FED2A3"/>
<stop offset="0.9697" stop-color="#FFC28C"/>
</linearGradient>
<linearGradient id="paint38_linear" x1="1.44401" y1="22.501" x2="43.8419" y2="22.501" gradientUnits="userSpaceOnUse">
<stop stop-color="#FFBB96"/>
<stop offset="0.2273" stop-color="#FFFBC9"/>
<stop offset="0.5404" stop-color="#F9B673"/>
<stop offset="0.6391" stop-color="#F9B876"/>
<stop offset="0.7249" stop-color="#FABE81"/>
<stop offset="0.8057" stop-color="#FCC993"/>
<stop offset="0.8586" stop-color="#FED2A3"/>
<stop offset="0.9697" stop-color="#FFC28C"/>
</linearGradient>
<linearGradient id="paint39_linear" x1="1.44411" y1="24.9551" x2="43.8419" y2="24.9551" gradientUnits="userSpaceOnUse">
<stop stop-color="#FFBB96"/>
<stop offset="0.2273" stop-color="#FFFBC9"/>
<stop offset="0.5404" stop-color="#F9B673"/>
<stop offset="0.6391" stop-color="#F9B876"/>
<stop offset="0.7249" stop-color="#FABE81"/>
<stop offset="0.8057" stop-color="#FCC993"/>
<stop offset="0.8586" stop-color="#FED2A3"/>
<stop offset="0.9697" stop-color="#FFC28C"/>
</linearGradient>
<linearGradient id="paint40_linear" x1="62.578" y1="-26.862" x2="20.4454" y2="15.539" gradientUnits="userSpaceOnUse">
<stop offset="0.0353535" stop-color="#FFBA78"/>
<stop offset="0.395" stop-color="#FFC987"/>
<stop offset="1" stop-color="#FEECA8"/>
</linearGradient>
<linearGradient id="paint41_linear" x1="1.5861" y1="19.744" x2="43.984" y2="19.744" gradientUnits="userSpaceOnUse">
<stop stop-color="#FFBB96"/>
<stop offset="0.2273" stop-color="#FFFBC9"/>
<stop offset="0.5404" stop-color="#F9B673"/>
<stop offset="0.6391" stop-color="#F9B876"/>
<stop offset="0.7249" stop-color="#FABE81"/>
<stop offset="0.8057" stop-color="#FCC993"/>
<stop offset="0.8586" stop-color="#FED2A3"/>
<stop offset="0.9697" stop-color="#FFC28C"/>
</linearGradient>
<linearGradient id="paint42_linear" x1="40.0879" y1="-4.229" x2="8.59225" y2="27.468" gradientUnits="userSpaceOnUse">
<stop offset="0.0353535" stop-color="#FFBA78"/>
<stop offset="0.395" stop-color="#FFC987"/>
<stop offset="1" stop-color="#FEECA8"/>
</linearGradient>
<linearGradient id="paint43_linear" x1="7.48212" y1="8.18001" x2="39.0017" y2="8.18001" gradientUnits="userSpaceOnUse">
<stop stop-color="#FFBB96"/>
<stop offset="0.2273" stop-color="#FFFBC9"/>
<stop offset="0.5404" stop-color="#F9B673"/>
<stop offset="0.6391" stop-color="#F9B876"/>
<stop offset="0.7249" stop-color="#FABE81"/>
<stop offset="0.8057" stop-color="#FCC993"/>
<stop offset="0.8586" stop-color="#FED2A3"/>
<stop offset="0.9697" stop-color="#FFC28C"/>
</linearGradient>
<linearGradient id="paint44_linear" x1="45.885" y1="-11.093" x2="16.1625" y2="18.819" gradientUnits="userSpaceOnUse">
<stop stop-color="#FFBB96"/>
<stop offset="0.2273" stop-color="#FFFBC9"/>
<stop offset="0.5404" stop-color="#F9B673"/>
<stop offset="0.6391" stop-color="#F9B876"/>
<stop offset="0.7249" stop-color="#FABE81"/>
<stop offset="0.8057" stop-color="#FCC993"/>
<stop offset="0.8586" stop-color="#FED2A3"/>
<stop offset="0.9697" stop-color="#FFC28C"/>
</linearGradient>
<radialGradient id="paint45_radial" cx="0" cy="0" r="1" gradientUnits="userSpaceOnUse" gradientTransform="translate(9.47967 31.815) rotate(-67.5164) scale(16.6038 8.48459)">
<stop stop-color="white"/>
<stop offset="1" stop-color="white" stop-opacity="0"/>
</radialGradient>
<radialGradient id="paint46_radial" cx="0" cy="0" r="1" gradientUnits="userSpaceOnUse" gradientTransform="translate(32.6887 5.46402) rotate(-35.7973) scale(8.03535 5.51299)">
<stop stop-color="white"/>
<stop offset="1" stop-color="white" stop-opacity="0"/>
</radialGradient>
<linearGradient id="paint47_linear" x1="12.398" y1="13.383" x2="34.2852" y2="13.383" gradientUnits="userSpaceOnUse">
<stop stop-color="#FFBB96"/>
<stop offset="0.2273" stop-color="#FFFBC9"/>
<stop offset="0.5404" stop-color="#F9B673"/>
<stop offset="0.6391" stop-color="#F9B876"/>
<stop offset="0.7249" stop-color="#FABE81"/>
<stop offset="0.8057" stop-color="#FCC993"/>
<stop offset="0.8586" stop-color="#FED2A3"/>
<stop offset="0.9697" stop-color="#FFC28C"/>
</linearGradient>
<linearGradient id="paint48_linear" x1="1.20759" y1="31.043" x2="26.6821" y2="9.10904" gradientUnits="userSpaceOnUse">
<stop offset="0.0353535" stop-color="#FFBA78"/>
<stop offset="0.395" stop-color="#FFC987"/>
<stop offset="1" stop-color="#FEECA8"/>
</linearGradient>
<linearGradient id="paint49_linear" x1="43.3402" y1="-7.78197" x2="21.8916" y2="13.447" gradientUnits="userSpaceOnUse">
<stop offset="0.0353535" stop-color="#FFBA78"/>
<stop offset="0.395" stop-color="#FFC987"/>
<stop offset="1" stop-color="#FEECA8"/>
</linearGradient>
</defs>
</svg>
