<svg width="199" height="45" viewBox="0 0 199 45" fill="none" xmlns="http://www.w3.org/2000/svg">
<path d="M85.6311 26.2991C84.8517 26.6188 83.9525 26.9385 82.9533 27.2183C81.9541 27.4981 80.9349 27.638 79.9357 27.638C79.2362 27.638 78.5568 27.558 77.9373 27.3782C77.3178 27.1983 76.7582 26.9186 76.2986 26.5389C75.819 26.1592 75.4593 25.6396 75.1795 25.0001C74.8997 24.3606 74.7798 23.6012 74.7798 22.702V13.0297H72.4017V8.75317H74.7798V2.85791H80.4353V8.75317H84.2122V13.0297H80.4353V20.7435C80.4353 21.363 80.5951 21.8027 80.8949 22.0625C81.1947 22.3422 81.5943 22.4622 82.054 22.4622C82.4736 22.4622 82.9133 22.3822 83.3729 22.2423C83.8126 22.1024 84.2122 21.9426 84.532 21.7827L85.6311 26.2991Z" fill="#161616"/>
<path d="M99.6199 13.6091C98.261 13.6291 97.022 13.8489 95.9029 14.2885C94.7838 14.7082 93.9844 15.3477 93.5048 16.187V27.2981H87.8494V8.79296H93.0452V12.53C93.6847 11.291 94.504 10.3117 95.5032 9.6123C96.5024 8.91286 97.5815 8.53317 98.7006 8.51318C98.9604 8.51318 99.1403 8.51318 99.2602 8.51318C99.3801 8.51318 99.5 8.53317 99.6199 8.55315V13.6091Z" fill="#161616"/>
<path d="M109.952 27.6379C108.393 27.6379 106.994 27.3781 105.755 26.8785C104.516 26.3789 103.457 25.6795 102.597 24.8201C101.738 23.9408 101.079 22.9417 100.639 21.8026C100.199 20.6635 99.9596 19.4644 99.9596 18.2254C99.9596 16.8865 100.179 15.6275 100.639 14.4285C101.079 13.2494 101.738 12.2103 102.577 11.311C103.417 10.4117 104.476 9.71228 105.715 9.1927C106.954 8.67312 108.373 8.41333 109.952 8.41333C111.53 8.41333 112.929 8.67312 114.168 9.1927C115.387 9.71228 116.426 10.4117 117.286 11.291C118.145 12.1703 118.784 13.1895 119.224 14.3486C119.664 15.5076 119.884 16.7067 119.884 17.9856C119.884 18.3054 119.864 18.6451 119.844 18.9649C119.824 19.2846 119.784 19.5644 119.744 19.7842H106.015C106.115 21.0232 106.554 21.9824 107.374 22.6219C108.193 23.2614 109.112 23.6011 110.151 23.6011C110.971 23.6011 111.77 23.4013 112.549 23.0016C113.309 22.6019 113.828 22.0624 114.088 21.3829L118.904 22.7218C118.165 24.1807 117.046 25.3597 115.507 26.279C113.928 27.1782 112.09 27.6379 109.952 27.6379ZM113.868 16.287C113.749 15.1079 113.329 14.1887 112.589 13.5092C111.85 12.8298 110.951 12.4901 109.872 12.4901C108.753 12.4901 107.853 12.8298 107.134 13.5292C106.414 14.2287 105.995 15.1479 105.875 16.307H113.868V16.287Z" fill="#161616"/>
<path d="M130.155 27.6379C128.876 27.6379 127.717 27.3981 126.638 26.9185C125.559 26.4389 124.64 25.7594 123.86 24.9001C123.081 24.0208 122.481 23.0216 122.042 21.8426C121.602 20.6835 121.382 19.4045 121.382 18.0256C121.382 16.6867 121.582 15.4277 121.982 14.2487C122.382 13.0696 122.941 12.0504 123.68 11.1911C124.42 10.3318 125.279 9.65237 126.278 9.17275C127.278 8.67315 128.377 8.43334 129.596 8.43334C130.895 8.43334 132.074 8.7331 133.113 9.35261C134.172 9.97211 134.971 10.7914 135.531 11.8306V1.57886H141.186V20.9833C141.186 21.5428 141.266 21.9425 141.446 22.1623C141.626 22.3821 141.926 22.522 142.385 22.562V27.3182C141.866 27.4381 141.426 27.518 141.047 27.538C140.667 27.5779 140.307 27.5979 139.987 27.5979C138.988 27.5979 138.189 27.3981 137.589 26.9784C136.97 26.5588 136.63 25.9792 136.53 25.1999L136.43 24.2406C135.771 25.3997 134.871 26.259 133.752 26.8186C132.633 27.3581 131.434 27.6379 130.155 27.6379ZM131.674 22.8817C132.453 22.8817 133.193 22.6619 133.912 22.2023C134.632 21.7426 135.171 21.1231 135.551 20.3238V16.4469C135.191 15.5077 134.632 14.7283 133.832 14.1288C133.033 13.5292 132.214 13.2295 131.374 13.2295C130.755 13.2295 130.195 13.3694 129.696 13.6292C129.196 13.9089 128.736 14.2487 128.377 14.7083C127.997 15.1479 127.717 15.6675 127.517 16.267C127.318 16.8466 127.218 17.4861 127.218 18.1455C127.218 18.825 127.338 19.4645 127.557 20.044C127.777 20.6235 128.097 21.1431 128.477 21.5628C128.856 21.9825 129.336 22.3222 129.895 22.542C130.455 22.7618 131.035 22.8817 131.674 22.8817Z" fill="#161616"/>
<path d="M154.476 27.6379C152.917 27.6379 151.518 27.3781 150.279 26.8785C149.04 26.3789 147.981 25.6795 147.122 24.8201C146.262 23.9408 145.603 22.9417 145.163 21.8026C144.724 20.6635 144.484 19.4644 144.484 18.2254C144.484 16.8865 144.704 15.6275 145.163 14.4285C145.603 13.2494 146.262 12.2103 147.102 11.311C147.941 10.4117 149 9.71228 150.239 9.1927C151.478 8.67312 152.897 8.41333 154.476 8.41333C156.054 8.41333 157.453 8.67312 158.692 9.1927C159.911 9.71228 160.951 10.4117 161.81 11.291C162.669 12.1703 163.309 13.1895 163.748 14.3486C164.188 15.5076 164.408 16.7067 164.408 17.9856C164.408 18.3054 164.388 18.6451 164.368 18.9649C164.348 19.2846 164.308 19.5644 164.268 19.7842H150.539C150.639 21.0232 151.078 21.9824 151.898 22.6219C152.717 23.2614 153.636 23.6011 154.676 23.6011C155.495 23.6011 156.294 23.4013 157.074 23.0016C157.833 22.6019 158.353 22.0624 158.612 21.3829L163.429 22.7218C162.689 24.1807 161.57 25.3597 160.031 26.279C158.453 27.1782 156.614 27.6379 154.476 27.6379ZM158.393 16.287C158.273 15.1079 157.853 14.1887 157.114 13.5092C156.374 12.8298 155.475 12.4901 154.396 12.4901C153.277 12.4901 152.377 12.8298 151.658 13.5292C150.939 14.2287 150.519 15.1479 150.399 16.307H158.393V16.287Z" fill="#161616"/>
<path d="M178.756 13.6091C177.397 13.6291 176.158 13.8489 175.039 14.2885C173.92 14.7082 173.121 15.3477 172.641 16.187V27.2981H166.986V8.79296H172.182V12.53C172.821 11.291 173.64 10.3117 174.64 9.6123C175.639 8.91286 176.718 8.53317 177.837 8.51318C178.097 8.51318 178.277 8.51318 178.397 8.51318C178.516 8.51318 178.636 8.53317 178.756 8.55315V13.6091Z" fill="#161616"/>
<path d="M189.048 27.638C187.469 27.638 186.05 27.3783 184.811 26.8587C183.572 26.3391 182.533 25.6397 181.674 24.7604C180.835 23.8811 180.175 22.8619 179.735 21.6828C179.296 20.5238 179.076 19.3047 179.076 18.0258C179.076 16.7468 179.296 15.5478 179.735 14.3687C180.175 13.2096 180.815 12.1905 181.674 11.2912C182.513 10.4119 183.572 9.71246 184.811 9.17289C186.05 8.63333 187.469 8.37354 189.048 8.37354C190.627 8.37354 192.026 8.63333 193.265 9.17289C194.484 9.69247 195.523 10.4119 196.382 11.2912C197.241 12.1705 197.881 13.1897 198.32 14.3687C198.76 15.5278 199 16.7468 199 18.0258C199 19.3047 198.78 20.5038 198.34 21.6828C197.901 22.8419 197.261 23.8611 196.402 24.7604C195.563 25.6397 194.504 26.3391 193.265 26.8587C192.045 27.3783 190.627 27.638 189.048 27.638ZM184.911 18.0458C184.911 19.5046 185.291 20.6637 186.07 21.5629C186.85 22.4422 187.849 22.8819 189.048 22.8819C189.627 22.8819 190.187 22.762 190.667 22.5222C191.166 22.2824 191.586 21.9626 191.966 21.5429C192.325 21.1233 192.625 20.6037 192.825 20.0042C193.045 19.4047 193.145 18.7452 193.145 18.0458C193.145 16.5869 192.765 15.4279 191.986 14.5286C191.206 13.6293 190.227 13.2096 189.048 13.2096C188.448 13.2096 187.909 13.3296 187.409 13.5694C186.91 13.8092 186.47 14.1289 186.09 14.5486C185.731 14.9682 185.431 15.4878 185.231 16.0873C185.011 16.6868 184.911 17.3463 184.911 18.0458Z" fill="#161616"/>
<path d="M54.5162 6.95441C51.7384 8.93282 48.521 10.2518 45.1437 10.7913C43.9846 10.9712 42.8056 11.0711 41.6265 11.0711C38.6689 11.0711 35.7313 10.4716 32.9935 9.31251L31.8344 8.81292L30.6753 9.29253C27.9375 10.4516 24.9999 11.0511 22.0423 11.0511C20.6034 11.0511 19.1446 10.9112 17.7257 10.6315C14.3285 9.952 11.1111 8.49318 8.37327 6.35489L0 0L3.61709 10.3117C6.49478 18.5451 14.5283 26.8784 22.0822 30.2557C24.7801 33.8728 26.139 40.3476 29.9959 42.4259L31.3948 43.1853L32.7936 42.4259C36.5906 40.3875 38.1293 33.9727 40.7672 30.4156C48.2412 27.1782 56.1149 19.0647 59.1125 11.0311L62.8495 1.09912L54.5162 6.95441ZM38.9087 19.844C37.0902 20.1838 35.4515 20.2038 34.1525 20.1038C34.0127 22.362 33.7928 24.7801 33.4531 27.318C32.9735 30.7952 32.354 33.9727 31.6545 36.8504C30.9551 33.9727 30.3156 30.7753 29.856 27.318C29.5163 24.7801 29.2964 22.362 29.1566 20.1038C27.8576 20.2038 26.2389 20.2038 24.4004 19.844C20.2038 19.0447 17.3061 16.9064 15.8473 15.6474C17.9456 16.0071 20.3237 16.3069 22.9416 16.4268C26.3188 16.5867 29.3364 16.4268 31.9143 16.147C34.3324 16.4268 37.1701 16.5667 40.3476 16.4268C42.9854 16.3069 45.3635 16.0071 47.4419 15.6474C46.003 16.9264 43.1053 19.0447 38.9087 19.844Z" fill="#F6A433"/>
<path d="M75.0796 42.9057C75.0396 42.9257 74.9797 42.9457 74.8997 42.9856C74.8198 43.0256 74.7199 43.0456 74.62 43.0855C74.52 43.1255 74.4001 43.1455 74.2602 43.1855C74.1204 43.2054 73.9805 43.2254 73.8406 43.2254C73.6807 43.2254 73.5408 43.2054 73.4009 43.1655C73.261 43.1255 73.1411 43.0656 73.0412 42.9656C72.9413 42.8857 72.8614 42.7658 72.7814 42.6259C72.7215 42.486 72.6815 42.3461 72.6815 42.1663V38.2694H71.9221V37.7099H72.6815V35.8713H73.4009V37.7099H74.6599V38.2694H73.4009V41.9864C73.4209 42.1863 73.4809 42.3461 73.6208 42.4261C73.7407 42.526 73.9005 42.566 74.0604 42.566C74.2602 42.566 74.4401 42.526 74.6 42.466C74.7598 42.4061 74.8598 42.3461 74.8997 42.3261L75.0796 42.9057Z" fill="#161616"/>
<path d="M78.6967 38.3292C78.217 38.3492 77.7974 38.4691 77.4377 38.7289C77.078 38.9886 76.8182 39.3284 76.6783 39.768V43.1653H75.9589V37.7097H76.6383V39.0286C76.8382 38.6089 77.1179 38.2892 77.4577 38.0494C77.7974 37.8096 78.1771 37.6897 78.5568 37.6897C78.6167 37.6897 78.6567 37.6897 78.6967 37.7097V38.3292Z" fill="#161616"/>
<path d="M80.9549 43.2653C80.6951 43.2653 80.4553 43.2253 80.2355 43.1254C80.0156 43.0255 79.8158 42.9255 79.6559 42.7657C79.4961 42.6058 79.3562 42.4259 79.2762 42.2261C79.1763 42.0263 79.1364 41.8064 79.1364 41.5666C79.1364 41.3268 79.1963 41.107 79.2962 40.9072C79.4161 40.7073 79.556 40.5275 79.7758 40.3876C79.9757 40.2477 80.2155 40.1278 80.4953 40.0479C80.775 39.9679 81.0748 39.928 81.4145 39.928C81.6943 39.928 81.9741 39.9479 82.2738 40.0079C82.5536 40.0479 82.8134 40.1278 83.0332 40.2077V39.7081C83.0332 39.2285 82.8933 38.8488 82.6136 38.569C82.3338 38.2893 81.9541 38.1494 81.4745 38.1494C81.1947 38.1494 80.9149 38.2093 80.6152 38.3093C80.3154 38.4292 80.0156 38.589 79.7159 38.7889L79.4561 38.3093C80.1555 37.8296 80.855 37.5898 81.5144 37.5898C82.1939 37.5898 82.7335 37.7897 83.1331 38.1694C83.5328 38.5491 83.7127 39.0886 83.7127 39.7681V42.2261C83.7127 42.4259 83.7926 42.5259 83.9725 42.5259V43.1454C83.8526 43.1654 83.7526 43.1853 83.6927 43.1853C83.5128 43.1853 83.3729 43.1454 83.273 43.0455C83.1731 42.9455 83.1132 42.8256 83.1132 42.6658L83.0932 42.2461C82.8334 42.5658 82.5336 42.8256 82.1339 43.0055C81.8142 43.1853 81.3945 43.2653 80.9549 43.2653ZM81.1347 42.7257C81.5144 42.7257 81.8542 42.6658 82.1539 42.5259C82.4737 42.386 82.6935 42.2061 82.8734 41.9663C82.9333 41.9064 82.9933 41.8264 83.0132 41.7665C83.0532 41.6865 83.0532 41.6266 83.0532 41.5666V40.6674C82.8134 40.5674 82.5736 40.5075 82.3138 40.4675C82.054 40.4276 81.7942 40.3876 81.5344 40.3876C81.0348 40.3876 80.6152 40.4875 80.2954 40.7073C79.9757 40.9072 79.8158 41.1869 79.8158 41.5267C79.8158 41.6865 79.8558 41.8464 79.9157 42.0063C79.9757 42.1462 80.0756 42.2861 80.1955 42.386C80.3154 42.4859 80.4553 42.5858 80.6152 42.6458C80.775 42.7057 80.9549 42.7257 81.1347 42.7257Z" fill="#161616"/>
<path d="M87.5695 43.2652C87.1898 43.2652 86.8501 43.1853 86.5104 43.0254C86.1906 42.8656 85.9109 42.6657 85.671 42.4059C85.4312 42.1461 85.2514 41.8464 85.1315 41.5067C85.0116 41.1669 84.9316 40.8072 84.9316 40.4475C84.9316 40.0678 84.9916 39.7081 85.1115 39.3484C85.2314 38.9887 85.4113 38.7089 85.6311 38.4491C85.8509 38.1893 86.1107 37.9895 86.4105 37.8296C86.7102 37.6697 87.0499 37.6098 87.4096 37.6098C87.8693 37.6098 88.2889 37.7297 88.6487 37.9695C89.0084 38.2093 89.2881 38.5091 89.488 38.8488V35.5115H90.2074V42.2261C90.2074 42.4259 90.2873 42.5258 90.4672 42.5258V43.1453C90.3673 43.1653 90.2873 43.1853 90.2074 43.1853C90.0475 43.1853 89.8877 43.1253 89.7678 43.0254C89.6479 42.9255 89.5879 42.7856 89.5879 42.6258V42.1062C89.3681 42.4659 89.0683 42.7457 88.7086 42.9455C88.3489 43.1653 87.9692 43.2652 87.5695 43.2652ZM87.7294 42.6457C87.9092 42.6457 88.0891 42.6058 88.2889 42.5458C88.4888 42.4859 88.6686 42.3859 88.8485 42.266C89.0283 42.1461 89.1682 42.0063 89.2881 41.8464C89.408 41.6865 89.488 41.5066 89.508 41.3268V39.6482C89.428 39.4683 89.3281 39.2884 89.2082 39.1286C89.0683 38.9687 88.9284 38.8288 88.7486 38.6889C88.5687 38.569 88.3889 38.4691 88.189 38.3892C87.9892 38.3292 87.8093 38.2892 87.6095 38.2892C87.3097 38.2892 87.0499 38.3492 86.8101 38.4691C86.5703 38.589 86.3705 38.7689 86.1906 38.9687C86.0108 39.1685 85.8909 39.4083 85.7909 39.6681C85.691 39.9279 85.6511 40.2077 85.6511 40.4875C85.6511 40.7872 85.711 41.067 85.8109 41.3268C85.9109 41.5866 86.0507 41.8264 86.2506 42.0262C86.4504 42.2261 86.6503 42.3859 86.8901 42.5059C87.1698 42.5858 87.4296 42.6457 87.7294 42.6457Z" fill="#161616"/>
<path d="M94.2241 43.2654C93.8245 43.2654 93.4647 43.1854 93.125 43.0455C92.7853 42.8857 92.5055 42.6858 92.2657 42.426C92.0259 42.1662 91.8261 41.8665 91.6862 41.5267C91.5463 41.187 91.4863 40.8273 91.4863 40.4276C91.4863 40.0479 91.5463 39.6882 91.6862 39.3485C91.8261 39.0088 92.0059 38.709 92.2457 38.4492C92.4855 38.1894 92.7853 37.9896 93.105 37.8497C93.4448 37.6898 93.8045 37.6299 94.2041 37.6299C94.6038 37.6299 94.9635 37.7098 95.3033 37.8497C95.643 38.0096 95.9228 38.2094 96.1626 38.4692C96.4024 38.729 96.5822 39.0288 96.7221 39.3685C96.862 39.7082 96.922 40.0679 96.922 40.4276C96.922 40.4876 96.922 40.5475 96.922 40.5875C96.922 40.6475 96.922 40.6874 96.902 40.7074H92.2058C92.2257 41.0072 92.2857 41.267 92.4056 41.5267C92.5255 41.7666 92.6654 41.9864 92.8452 42.1662C93.0251 42.3461 93.2449 42.486 93.4647 42.5859C93.6846 42.6858 93.9444 42.7458 94.2241 42.7458C94.404 42.7458 94.5838 42.7258 94.7437 42.6658C94.9236 42.6259 95.0834 42.5459 95.2233 42.466C95.3632 42.3861 95.5031 42.2861 95.623 42.1662C95.7429 42.0463 95.8428 41.9064 95.9028 41.7666L96.5223 41.9264C96.4423 42.1263 96.3224 42.3061 96.1626 42.486C96.0027 42.6459 95.8228 42.7857 95.623 42.9056C95.4232 43.0255 95.2033 43.1255 94.9436 43.1854C94.7437 43.2454 94.4839 43.2654 94.2241 43.2654ZM96.2425 40.1479C96.2225 39.8481 96.1626 39.5883 96.0427 39.3485C95.9228 39.1087 95.7829 38.9089 95.603 38.729C95.4232 38.5491 95.2233 38.4093 94.9835 38.3293C94.7437 38.2294 94.5039 38.1894 94.2241 38.1894C93.9643 38.1894 93.7045 38.2294 93.4647 38.3293C93.2249 38.4292 93.0251 38.5691 92.8452 38.729C92.6654 38.8889 92.5255 39.1087 92.4056 39.3485C92.3057 39.5883 92.2257 39.8681 92.2058 40.1479H96.2425Z" fill="#161616"/>
<path d="M107.314 37.7097H108.013L105.655 43.1653H105.075L103.896 40.3876L102.737 43.1653H102.158L99.7797 37.7097H100.479L102.477 42.4259L103.517 39.9279L102.577 37.7097H103.177L103.896 39.4883L104.616 37.7097H105.235L104.296 39.9279L105.335 42.4259L107.314 37.7097Z" fill="#F7A432"/>
<path d="M113.569 43.1653H112.849V40.1078C112.849 39.4883 112.749 39.0286 112.529 38.7089C112.31 38.4091 112.01 38.2493 111.59 38.2493C111.39 38.2493 111.191 38.2892 110.991 38.3692C110.791 38.4491 110.611 38.569 110.431 38.7089C110.251 38.8488 110.111 39.0087 109.971 39.2085C109.852 39.3884 109.752 39.6082 109.692 39.828V43.1653H108.972V35.5115H109.692V38.9287C109.912 38.5091 110.211 38.1893 110.591 37.9495C110.971 37.7097 111.39 37.5898 111.85 37.5898C112.17 37.5898 112.43 37.6498 112.649 37.7697C112.869 37.8896 113.049 38.0494 113.189 38.2493C113.329 38.4491 113.429 38.7089 113.489 38.9887C113.549 39.2685 113.589 39.5882 113.589 39.9479V43.1653H113.569Z" fill="#F7A432"/>
<path d="M117.465 43.2654C117.066 43.2654 116.706 43.1854 116.366 43.0455C116.027 42.8857 115.747 42.6858 115.507 42.426C115.267 42.1662 115.067 41.8665 114.928 41.5267C114.788 41.187 114.728 40.8273 114.728 40.4276C114.728 40.0479 114.788 39.6882 114.928 39.3485C115.067 39.0088 115.247 38.709 115.487 38.4492C115.727 38.1894 116.027 37.9896 116.346 37.8497C116.686 37.6898 117.046 37.6299 117.445 37.6299C117.845 37.6299 118.205 37.7098 118.545 37.8497C118.884 38.0096 119.164 38.2094 119.404 38.4692C119.644 38.729 119.824 39.0288 119.963 39.3685C120.103 39.7082 120.163 40.0679 120.163 40.4276C120.163 40.4876 120.163 40.5475 120.163 40.5875C120.163 40.6475 120.163 40.6874 120.143 40.7074H115.447C115.467 41.0072 115.527 41.267 115.647 41.5267C115.767 41.7666 115.907 41.9864 116.087 42.1662C116.266 42.3461 116.486 42.486 116.706 42.5859C116.926 42.6858 117.186 42.7458 117.465 42.7458C117.645 42.7458 117.825 42.7258 117.985 42.6658C118.165 42.6259 118.325 42.5459 118.465 42.466C118.605 42.3861 118.744 42.2861 118.864 42.1662C118.984 42.0463 119.084 41.9064 119.144 41.7666L119.764 41.9264C119.684 42.1263 119.564 42.3061 119.404 42.486C119.244 42.6459 119.064 42.7857 118.864 42.9056C118.664 43.0255 118.445 43.1255 118.185 43.1854C117.985 43.2454 117.725 43.2654 117.465 43.2654ZM119.484 40.1479C119.464 39.8481 119.404 39.5883 119.284 39.3485C119.164 39.1087 119.024 38.9089 118.844 38.729C118.665 38.5491 118.465 38.4093 118.225 38.3293C117.985 38.2294 117.745 38.1894 117.465 38.1894C117.206 38.1894 116.946 38.2294 116.706 38.3293C116.466 38.4292 116.266 38.5691 116.087 38.729C115.907 38.8889 115.767 39.1087 115.647 39.3485C115.547 39.5883 115.467 39.8681 115.447 40.1479H119.484Z" fill="#F7A432"/>
<path d="M124 38.3292C123.521 38.3492 123.101 38.4691 122.741 38.7289C122.382 38.9886 122.122 39.3284 121.982 39.768V43.1653H121.262V37.7097H121.942V39.0286C122.142 38.6089 122.422 38.2892 122.761 38.0494C123.101 37.8096 123.481 37.6897 123.86 37.6897C123.92 37.6897 123.96 37.6897 124 37.7097V38.3292Z" fill="#F7A432"/>
<path d="M127.038 43.2654C126.638 43.2654 126.278 43.1854 125.939 43.0455C125.599 42.8857 125.319 42.6858 125.079 42.426C124.84 42.1662 124.64 41.8665 124.5 41.5267C124.36 41.187 124.3 40.8273 124.3 40.4276C124.3 40.0479 124.36 39.6882 124.5 39.3485C124.64 39.0088 124.82 38.709 125.059 38.4492C125.299 38.1894 125.599 37.9896 125.919 37.8497C126.258 37.6898 126.618 37.6299 127.018 37.6299C127.418 37.6299 127.777 37.7098 128.117 37.8497C128.457 38.0096 128.736 38.2094 128.976 38.4692C129.216 38.729 129.396 39.0288 129.536 39.3685C129.676 39.7082 129.736 40.0679 129.736 40.4276C129.736 40.4876 129.736 40.5475 129.736 40.5875C129.736 40.6475 129.736 40.6874 129.716 40.7074H125.019C125.039 41.0072 125.099 41.267 125.219 41.5267C125.339 41.7666 125.479 41.9864 125.659 42.1662C125.839 42.3461 126.059 42.486 126.278 42.5859C126.498 42.6858 126.758 42.7458 127.038 42.7458C127.218 42.7458 127.398 42.7258 127.557 42.6658C127.737 42.6259 127.897 42.5459 128.037 42.466C128.177 42.3861 128.317 42.2861 128.437 42.1662C128.557 42.0463 128.657 41.9064 128.716 41.7666L129.336 41.9264C129.256 42.1263 129.136 42.3061 128.976 42.486C128.816 42.6459 128.637 42.7857 128.437 42.9056C128.237 43.0255 128.017 43.1255 127.757 43.1854C127.557 43.2454 127.318 43.2654 127.038 43.2654ZM129.056 40.1479C129.036 39.8481 128.976 39.5883 128.856 39.3485C128.736 39.1087 128.597 38.9089 128.417 38.729C128.237 38.5491 128.037 38.4093 127.797 38.3293C127.557 38.2294 127.318 38.1894 127.038 38.1894C126.778 38.1894 126.518 38.2294 126.278 38.3293C126.039 38.4292 125.839 38.5691 125.659 38.729C125.479 38.8889 125.339 39.1087 125.219 39.3485C125.119 39.5883 125.039 39.8681 125.019 40.1479H129.056Z" fill="#F7A432"/>
<path d="M132.334 43.1653L130.115 37.7097H130.855L132.733 42.5059L134.632 37.7097H135.331L133.093 43.1653H132.334Z" fill="#F7A432"/>
<path d="M138.489 43.2654C138.089 43.2654 137.729 43.1854 137.389 43.0455C137.05 42.8857 136.77 42.6858 136.53 42.426C136.29 42.1662 136.09 41.8665 135.951 41.5267C135.811 41.187 135.751 40.8273 135.751 40.4276C135.751 40.0479 135.811 39.6882 135.951 39.3485C136.09 39.0088 136.27 38.709 136.51 38.4492C136.75 38.1894 137.05 37.9896 137.369 37.8497C137.709 37.6898 138.069 37.6299 138.469 37.6299C138.868 37.6299 139.228 37.7098 139.568 37.8497C139.907 38.0096 140.187 38.2094 140.427 38.4692C140.667 38.729 140.847 39.0288 140.987 39.3685C141.126 39.7082 141.186 40.0679 141.186 40.4276C141.186 40.4876 141.186 40.5475 141.186 40.5875C141.186 40.6475 141.186 40.6874 141.166 40.7074H136.49C136.51 41.0072 136.57 41.267 136.69 41.5267C136.81 41.7666 136.95 41.9864 137.13 42.1662C137.309 42.3461 137.529 42.486 137.749 42.5859C137.969 42.6858 138.229 42.7458 138.509 42.7458C138.688 42.7458 138.868 42.7258 139.028 42.6658C139.208 42.6259 139.368 42.5459 139.508 42.466C139.648 42.3861 139.787 42.2861 139.907 42.1662C140.027 42.0463 140.127 41.9064 140.187 41.7666L140.807 41.9264C140.727 42.1263 140.607 42.3061 140.447 42.486C140.287 42.6459 140.107 42.7857 139.907 42.9056C139.708 43.0255 139.488 43.1255 139.228 43.1854C139.008 43.2454 138.748 43.2654 138.489 43.2654ZM140.507 40.1479C140.487 39.8481 140.427 39.5883 140.307 39.3485C140.187 39.1087 140.047 38.9089 139.867 38.729C139.688 38.5491 139.488 38.4093 139.248 38.3293C139.008 38.2294 138.768 38.1894 138.489 38.1894C138.229 38.1894 137.969 38.2294 137.729 38.3293C137.489 38.4292 137.289 38.5691 137.11 38.729C136.93 38.8889 136.79 39.1087 136.67 39.3485C136.57 39.5883 136.49 39.8681 136.47 40.1479H140.507Z" fill="#F7A432"/>
<path d="M145.023 38.3292C144.544 38.3492 144.124 38.4691 143.764 38.7289C143.405 38.9886 143.145 39.3284 143.005 39.768V43.1653H142.286V37.7097H142.965V39.0286C143.165 38.6089 143.445 38.2892 143.784 38.0494C144.124 37.8096 144.504 37.6897 144.883 37.6897C144.943 37.6897 144.983 37.6897 145.023 37.7097V38.3292Z" fill="#F7A432"/>
<path d="M145.603 44.0247L145.783 43.1454H145.543V42.1462H146.242V43.1454L145.983 44.0247H145.603Z" fill="#161616"/>
<path d="M157.154 37.7097H157.853L155.495 43.1653H154.915L153.736 40.3876L152.577 43.1653H151.998L149.62 37.7097H150.319L152.317 42.4259L153.357 39.9279L152.417 37.7097H153.017L153.736 39.4883L154.456 37.7097H155.075L154.136 39.9279L155.175 42.4259L157.154 37.7097Z" fill="#161616"/>
<path d="M163.409 43.1653H162.689V40.1078C162.689 39.4883 162.589 39.0286 162.369 38.7089C162.15 38.4091 161.85 38.2493 161.43 38.2493C161.23 38.2493 161.03 38.2892 160.831 38.3692C160.631 38.4491 160.451 38.569 160.271 38.7089C160.091 38.8488 159.951 39.0087 159.811 39.2085C159.692 39.3884 159.592 39.6082 159.532 39.828V43.1653H158.812V35.5115H159.532V38.9287C159.751 38.5091 160.051 38.1893 160.431 37.9495C160.811 37.7097 161.23 37.5898 161.69 37.5898C162.01 37.5898 162.269 37.6498 162.489 37.7697C162.709 37.8896 162.889 38.0494 163.029 38.2493C163.169 38.4491 163.269 38.7089 163.329 38.9887C163.389 39.2685 163.429 39.5882 163.429 39.9479V43.1653H163.409Z" fill="#161616"/>
<path d="M167.285 43.2654C166.886 43.2654 166.526 43.1854 166.186 43.0455C165.847 42.8857 165.567 42.6858 165.327 42.426C165.087 42.1662 164.887 41.8665 164.747 41.5267C164.608 41.187 164.548 40.8273 164.548 40.4276C164.548 40.0479 164.608 39.6882 164.747 39.3485C164.887 39.0088 165.067 38.709 165.307 38.4492C165.547 38.1894 165.847 37.9896 166.166 37.8497C166.506 37.6898 166.866 37.6299 167.265 37.6299C167.665 37.6299 168.025 37.7098 168.365 37.8497C168.704 38.0096 168.984 38.2094 169.224 38.4692C169.464 38.729 169.644 39.0288 169.783 39.3685C169.923 39.7082 169.983 40.0679 169.983 40.4276C169.983 40.4876 169.983 40.5475 169.983 40.5875C169.983 40.6475 169.983 40.6874 169.963 40.7074H165.267C165.287 41.0072 165.347 41.267 165.467 41.5267C165.587 41.7666 165.727 41.9864 165.907 42.1662C166.086 42.3461 166.306 42.486 166.526 42.5859C166.746 42.6858 167.006 42.7458 167.285 42.7458C167.465 42.7458 167.645 42.7258 167.805 42.6658C167.985 42.6259 168.145 42.5459 168.285 42.466C168.424 42.3861 168.564 42.2861 168.684 42.1662C168.804 42.0463 168.904 41.9064 168.964 41.7666L169.584 41.9264C169.504 42.1263 169.384 42.3061 169.224 42.486C169.064 42.6459 168.884 42.7857 168.684 42.9056C168.484 43.0255 168.265 43.1255 168.005 43.1854C167.805 43.2454 167.565 43.2654 167.285 43.2654ZM169.304 40.1479C169.284 39.8481 169.224 39.5883 169.104 39.3485C168.984 39.1087 168.844 38.9089 168.664 38.729C168.484 38.5491 168.285 38.4093 168.045 38.3293C167.805 38.2294 167.565 38.1894 167.285 38.1894C167.026 38.1894 166.766 38.2294 166.526 38.3293C166.286 38.4292 166.086 38.5691 165.907 38.729C165.727 38.8889 165.587 39.1087 165.467 39.3485C165.367 39.5883 165.287 39.8681 165.267 40.1479H169.304Z" fill="#161616"/>
<path d="M175.699 43.1654H174.979V40.1079C174.979 39.4684 174.879 38.9888 174.7 38.689C174.5 38.3893 174.22 38.2494 173.82 38.2494C173.6 38.2494 173.401 38.2894 173.181 38.3693C172.961 38.4492 172.781 38.5492 172.601 38.689C172.421 38.8289 172.261 38.9888 172.122 39.1886C171.982 39.3885 171.882 39.5883 171.822 39.8081V43.1455H171.102V37.7098H171.762V38.9488C171.982 38.5492 172.301 38.2294 172.721 37.9896C173.141 37.7498 173.6 37.6299 174.08 37.6299C174.38 37.6299 174.64 37.6898 174.839 37.7898C175.059 37.9097 175.219 38.0495 175.339 38.2694C175.459 38.4692 175.559 38.729 175.619 39.0088C175.679 39.3085 175.699 39.6283 175.699 39.988V43.1654Z" fill="#161616"/>
<path d="M179.596 43.2654C179.196 43.2654 178.836 43.1854 178.496 43.0455C178.157 42.8857 177.877 42.6858 177.637 42.426C177.397 42.1662 177.198 41.8665 177.058 41.5267C176.918 41.187 176.858 40.8273 176.858 40.4276C176.858 40.0479 176.918 39.6882 177.058 39.3485C177.198 39.0088 177.377 38.709 177.617 38.4492C177.857 38.1894 178.157 37.9896 178.476 37.8497C178.816 37.6898 179.176 37.6299 179.576 37.6299C179.975 37.6299 180.335 37.7098 180.675 37.8497C181.014 38.0096 181.294 38.2094 181.534 38.4692C181.774 38.729 181.954 39.0288 182.094 39.3685C182.233 39.7082 182.293 40.0679 182.293 40.4276C182.293 40.4876 182.293 40.5475 182.293 40.5875C182.293 40.6475 182.293 40.6874 182.273 40.7074H177.577C177.597 41.0072 177.657 41.267 177.777 41.5267C177.897 41.7666 178.037 41.9864 178.217 42.1662C178.397 42.3461 178.616 42.486 178.836 42.5859C179.056 42.6858 179.316 42.7458 179.596 42.7458C179.775 42.7458 179.955 42.7258 180.115 42.6658C180.295 42.6259 180.455 42.5459 180.595 42.466C180.735 42.3861 180.875 42.2861 180.994 42.1662C181.114 42.0463 181.214 41.9064 181.274 41.7666L181.894 41.9264C181.814 42.1263 181.694 42.3061 181.534 42.486C181.374 42.6459 181.194 42.7857 180.994 42.9056C180.795 43.0255 180.575 43.1255 180.315 43.1854C180.115 43.2454 179.855 43.2654 179.596 43.2654ZM181.614 40.1479C181.594 39.8481 181.534 39.5883 181.414 39.3485C181.294 39.1087 181.154 38.9089 180.974 38.729C180.795 38.5491 180.595 38.4093 180.355 38.3293C180.115 38.2294 179.875 38.1894 179.596 38.1894C179.336 38.1894 179.076 38.2294 178.836 38.3293C178.596 38.4292 178.397 38.5691 178.217 38.729C178.037 38.8889 177.897 39.1087 177.777 39.3485C177.677 39.5883 177.597 39.8681 177.577 40.1479H181.614Z" fill="#161616"/>
<path d="M184.891 43.1653L182.653 37.7097H183.392L185.271 42.5059L187.169 37.7097H187.869L185.631 43.1653H184.891Z" fill="#161616"/>
<path d="M191.026 43.2654C190.627 43.2654 190.267 43.1854 189.927 43.0455C189.588 42.8857 189.308 42.6858 189.068 42.426C188.828 42.1662 188.628 41.8665 188.488 41.5267C188.349 41.187 188.289 40.8273 188.289 40.4276C188.289 40.0479 188.349 39.6882 188.488 39.3485C188.628 39.0088 188.808 38.709 189.048 38.4492C189.288 38.1894 189.588 37.9896 189.907 37.8497C190.247 37.6898 190.607 37.6299 191.006 37.6299C191.406 37.6299 191.766 37.7098 192.106 37.8497C192.445 38.0096 192.725 38.2094 192.965 38.4692C193.205 38.729 193.384 39.0288 193.524 39.3685C193.664 39.7082 193.724 40.0679 193.724 40.4276C193.724 40.4876 193.724 40.5475 193.724 40.5875C193.724 40.6475 193.724 40.6874 193.704 40.7074H189.008C189.028 41.0072 189.088 41.267 189.208 41.5267C189.328 41.7666 189.468 41.9864 189.647 42.1662C189.827 42.3461 190.047 42.486 190.267 42.5859C190.487 42.6858 190.747 42.7458 191.026 42.7458C191.206 42.7458 191.386 42.7258 191.546 42.6658C191.726 42.6259 191.886 42.5459 192.026 42.466C192.165 42.3861 192.305 42.2861 192.425 42.1662C192.545 42.0463 192.645 41.9064 192.705 41.7666L193.325 41.9264C193.245 42.1263 193.125 42.3061 192.965 42.486C192.805 42.6459 192.625 42.7857 192.425 42.9056C192.225 43.0255 192.006 43.1255 191.746 43.1854C191.546 43.2454 191.286 43.2654 191.026 43.2654ZM193.045 40.1479C193.025 39.8481 192.965 39.5883 192.845 39.3485C192.725 39.1087 192.585 38.9089 192.405 38.729C192.225 38.5491 192.026 38.4093 191.786 38.3293C191.546 38.2294 191.306 38.1894 191.026 38.1894C190.767 38.1894 190.507 38.2294 190.267 38.3293C190.027 38.4292 189.827 38.5691 189.647 38.729C189.468 38.8889 189.328 39.1087 189.208 39.3485C189.108 39.5883 189.028 39.8681 189.008 40.1479H193.045Z" fill="#161616"/>
<path d="M197.561 38.3292C197.081 38.3492 196.662 38.4691 196.302 38.7289C195.942 38.9886 195.683 39.3284 195.543 39.768V43.1653H194.843V37.7097H195.523V39.0286C195.723 38.6089 196.002 38.2892 196.342 38.0494C196.682 37.8096 197.061 37.6897 197.441 37.6897C197.501 37.6897 197.541 37.6897 197.581 37.7097V38.3292H197.561Z" fill="#161616"/>
</svg>
