<svg width="63" height="44" viewBox="0 0 63 44" fill="none" xmlns="http://www.w3.org/2000/svg">
<path d="M54.5162 6.95441C51.7384 8.93282 48.521 10.2518 45.1437 10.7913C43.9846 10.9712 42.8056 11.0711 41.6265 11.0711C38.6689 11.0711 35.7313 10.4716 32.9935 9.31251L31.8344 8.81292L30.6753 9.29253C27.9375 10.4516 24.9999 11.0511 22.0423 11.0511C20.6034 11.0511 19.1446 10.9112 17.7257 10.6315C14.3285 9.952 11.1111 8.49318 8.37327 6.35489L0 0L3.61709 10.3117C6.49478 18.5451 14.5283 26.8784 22.0822 30.2557C24.7801 33.8728 26.139 40.3476 29.9959 42.4259L31.3948 43.1853L32.7936 42.4259C36.5906 40.3875 38.1293 33.9727 40.7672 30.4156C48.2412 27.1782 56.1149 19.0647 59.1125 11.0311L62.8495 1.09912L54.5162 6.95441ZM38.9087 19.844C37.0902 20.1838 35.4515 20.2038 34.1525 20.1038C34.0127 22.362 33.7928 24.7801 33.4531 27.318C32.9735 30.7952 32.354 33.9727 31.6545 36.8504C30.9551 33.9727 30.3156 30.7753 29.856 27.318C29.5163 24.7801 29.2964 22.362 29.1566 20.1038C27.8576 20.2038 26.2389 20.2038 24.4004 19.844C20.2038 19.0447 17.3061 16.9064 15.8473 15.6474C17.9456 16.0071 20.3237 16.3069 22.9416 16.4268C26.3188 16.5867 29.3364 16.4268 31.9143 16.147C34.3324 16.4268 37.1701 16.5667 40.3476 16.4268C42.9854 16.3069 45.3635 16.0071 47.4419 15.6474C46.003 16.9264 43.1053 19.0447 38.9087 19.844Z" fill="#F6A433"/>
</svg>
