<svg width="100" height="100" viewBox="0 0 100 100" fill="none" xmlns="http://www.w3.org/2000/svg">
<g id="Group 2141">
<circle id="Ellipse 589" cx="50" cy="50" r="50" fill="#F6921E"/>
<g id="Group 2113">
<path id="Subtract" fill-rule="evenodd" clip-rule="evenodd" d="M67.1957 52.3046C71.1428 51.4274 73.9935 48.796 74.6513 43.7525C75.7478 36.7355 70.2657 33.0077 62.5908 30.5955L65.0029 21.1664L59.3015 19.6314L57.1087 28.8413C56.3412 28.622 55.5737 28.4575 54.8062 28.2931C54.0387 28.1286 53.2713 27.9641 52.5038 27.7449L54.9159 18.535L49.2145 17L46.8024 26.4292C46.0451 26.303 45.2879 26.1041 44.5724 25.9162C44.0448 25.7777 43.5399 25.6451 43.0746 25.552L35.1804 23.5785L33.6454 29.7184L37.8118 30.8148C40.0046 31.2534 40.4432 32.7884 40.4432 34.1041L37.8118 44.8489L34.084 59.9795C33.8647 60.6373 32.9876 61.7337 31.4526 61.2952L27.2862 60.1987L24.4355 66.7772L31.8912 68.7508C32.5546 68.9403 33.1771 69.0889 33.7763 69.232L33.7764 69.232L33.7764 69.232C34.5636 69.4199 35.3106 69.5982 36.0575 69.8472L33.6454 79.4956L39.3468 81.0306L41.7589 71.6015C43.2939 71.8207 44.8289 72.2593 46.3638 72.6979L43.9517 82.127L49.6531 83.8813L52.0652 74.2328C61.9329 75.9871 69.3885 75.3293 72.4585 66.3387C75.0899 59.1023 72.4585 54.936 67.1957 52.3046ZM46.8021 51.8663L43.7322 64.5847C44.157 64.6791 44.6758 64.8091 45.2656 64.9569C50.156 66.182 59.9286 68.6301 61.4941 62.1726C63.0215 55.6811 53.7436 53.5118 48.7131 52.3356C47.966 52.1609 47.3126 52.0081 46.8021 51.8663ZM48.3393 46.1648L51.1899 34.5428C51.5489 34.6385 51.9915 34.7421 52.4931 34.8595C56.5878 35.8177 64.618 37.6968 63.2505 43.7527C61.8165 49.8986 52.9181 47.4318 49.0719 46.3656C48.8012 46.2906 48.5556 46.2225 48.3393 46.1648Z" fill="#FDFDFD"/>
</g>
</g>
</svg>
