<svg xmlns="http://www.w3.org/2000/svg" width="95.261" height="137.958" viewBox="0 0 95.261 137.958">
  <g id="Сгруппировать_460" data-name="Сгруппировать 460" transform="translate(652.848 -29.205)">
    <path id="Контур_350" data-name="Контур 350" d="M-630.989,163.969l51.31.126,11.8-102.72h-74.617Z" transform="translate(-0.409 -2.141)" fill="none" stroke="#000" stroke-miterlimit="10" stroke-width="10.397"/>
    <path id="Контур_351" data-name="Контур 351" d="M-644,48.03h81.214V60.369h-84.864V48.03Z" transform="translate(0 -1.082)" fill="none" stroke="#000" stroke-miterlimit="10" stroke-width="10.397"/>
    <path id="Контур_352" data-name="Контур 352" d="M-568.435,46.948-575.224,34.4H-634.2l-6.789,12.544" transform="translate(-0.529)" fill="none" stroke="#000" stroke-miterlimit="10" stroke-width="10.397"/>
    <g id="Group_318" data-name="Group 318" transform="translate(-621.791 77.374)">
      <path id="Path_316" data-name="Path 316" d="M-611.506,130.85c.7-1.272,1.2-2.118,1.63-2.994a1.5,1.5,0,0,0,.15-.955c-.792-3.042,1.08-5.163,2.583-7.382.209-.308.911-.405,1.381-.395,2.346.045,4.69.169,7.035.241,1.083.034,2.926,1.6,2.671,2.394-.91,2.822-1.946,5.579-4.571,7.345-.513.344-.979.756-1.467,1.137l.228.627c1.154-.3,2.708-.226,3.38-.962a61.083,61.083,0,0,0,3.947-5.653,13.544,13.544,0,0,1,2.415-2.555,6.125,6.125,0,0,1,1.993-.656c.492,4.186-2.225,6.7-4.142,9.721,1.769.349,3.084.584,3.577-1.409.121-.5.747-.868,1.122-1.312a4.122,4.122,0,0,0,.665-.906c.807-1.791,1.548-3.612,2.379-5.393.469-1.008,1.177-1.913,1.574-2.943.441-1.147.493-2.234-.936-2.977a2.065,2.065,0,0,1-.825-1.807,7.442,7.442,0,0,0-1.013-8.521c1.769-2.22.724-5.072-2.274-6.269.054.34.089.618.144.891.547,2.741-.013,3.359-2.742,3.542-1.443.1-2.85.634-4.293.851a17.735,17.735,0,0,1-4.14.294,2.413,2.413,0,0,1-1.782-1.368,37.192,37.192,0,0,1-.528-4.77.724.724,0,0,1,.469-.732l2.288-.85a.764.764,0,0,1,.936.35l2.234,4.073.516-.218a3.537,3.537,0,0,1-.321-1.555c.233-1.191.808-2.318,1.026-3.51.1-.539-.333-1.172-.5-1.695l1.263-.645a.226.226,0,0,0,.1-.306.184.184,0,0,0-.023-.036c-.4-.516-.749-1.135-1.274-1.371-1.421-.641-2.948-1.042-4.4-1.531.273-.714,1-2.368,1.159-3.09a.194.194,0,0,0-.157-.226.191.191,0,0,0-.109.011,18.51,18.51,0,0,0-3.616,1.626l1.338-7.706a.15.15,0,0,0-.119-.173.15.15,0,0,0-.122.033c-2.9,2.433-3.724,5.676-4.589,9.122-2.406-3.252-4.966-5.871-9.066-7.154a.131.131,0,0,0-.163.087.134.134,0,0,0,.018.113L-610.4,91.8a30.668,30.668,0,0,0-4.531,1.874.226.226,0,0,0-.117.3.229.229,0,0,0,.09.1l2.827,1.63c-3.343,4.484-3.337,9.606-2.615,14.825-1.175.148-2.1.315-3.031.369-1.579.093-2.038.884-1.652,2.348.884,3.354,1.7,6.726,2.646,10.061a9.988,9.988,0,0,0,1.357,2.219c1.419-2.494.242-4.366-.575-6.339a34.2,34.2,0,0,1-1.141-3.984,6.417,6.417,0,0,1,2.416.715c1.19.543,2.939.768,3.441,1.683.593,1.077.121,2.747.089,4.159a11.637,11.637,0,0,1-.145,1.223,13.043,13.043,0,0,1-3.5,8.081Z" transform="translate(619.561 -81.08)"/>
    </g>
  </g>
</svg>
