<?xml version="1.0" standalone="no"?>
<!DOCTYPE svg PUBLIC "-//W3C//DTD SVG 20010904//EN"
 "http://www.w3.org/TR/2001/REC-SVG-20010904/DTD/svg10.dtd">
<svg version="1.0" xmlns="http://www.w3.org/2000/svg"
 width="301.000000pt" height="302.000000pt" viewBox="0 0 301.000000 302.000000"
 preserveAspectRatio="xMidYMid meet">

<g transform="translate(0.000000,302.000000) scale(0.100000,-0.100000)"
fill="#000000" stroke="none">
<path d="M1275 2995 c-447 -72 -850 -351 -1074 -743 -325 -570 -238 -1297 212
-1769 183 -191 381 -318 622 -399 171 -57 320 -77 520 -71 243 8 409 49 620
153 381 188 668 537 781 951 226 831 -295 1681 -1144 1864 -129 27 -408 35
-537 14z m502 -124 c567 -117 999 -559 1098 -1126 23 -131 23 -349 1 -470 -72
-386 -281 -707 -601 -922 -142 -96 -334 -174 -512 -210 -125 -25 -395 -24
-518 1 -268 56 -501 176 -692 359 -128 123 -212 236 -288 392 -102 207 -145
388 -145 615 0 227 43 410 145 615 209 423 597 698 1075 765 102 14 321 5 437
-19z"/>
<path d="M1572 2438 c-16 -16 -15 -50 1 -70 6 -9 50 -25 97 -37 113 -28 268
-105 355 -178 144 -121 252 -285 295 -449 12 -43 26 -91 32 -107 12 -32 47
-44 78 -27 21 11 22 17 17 69 -13 115 -88 292 -177 411 -66 89 -180 198 -266
253 -158 103 -392 175 -432 135z"/>
<path d="M840 2321 c-19 -11 -82 -68 -140 -127 -93 -95 -108 -116 -124 -168
-71 -225 113 -635 434 -970 270 -281 649 -486 899 -486 122 0 165 22 287 147
179 183 178 237 -8 430 -235 242 -286 253 -448 97 l-88 -85 -34 16 c-45 24
-161 111 -232 176 -65 60 -187 211 -218 272 l-20 40 75 76 c41 42 82 87 91
101 18 28 22 114 5 157 -14 37 -274 300 -321 324 -47 24 -112 24 -158 0z m237
-213 c133 -131 158 -166 147 -201 -4 -12 -46 -62 -94 -112 -48 -49 -90 -98
-93 -107 -18 -50 89 -221 225 -364 143 -149 324 -276 394 -276 32 0 46 10 123
85 99 97 120 111 153 98 13 -5 83 -70 156 -143 106 -108 132 -140 132 -163 0
-22 -21 -49 -97 -127 -81 -82 -105 -101 -147 -113 -65 -19 -88 -19 -177 4
-230 60 -487 217 -696 427 -303 304 -497 726 -413 899 11 23 60 80 109 128
123 121 119 122 278 -35z"/>
<path d="M1555 2086 c-12 -17 -13 -30 -6 -48 8 -21 22 -29 79 -42 89 -22 163
-65 233 -136 58 -58 120 -165 134 -230 12 -58 32 -82 67 -78 45 4 55 26 41 93
-20 95 -77 199 -153 278 -76 80 -148 128 -246 163 -85 31 -129 31 -149 0z"/>
</g>
</svg>
