<?xml version="1.0" standalone="no"?>
<!DOCTYPE svg PUBLIC "-//W3C//DTD SVG 20010904//EN"
 "http://www.w3.org/TR/2001/REC-SVG-20010904/DTD/svg10.dtd">
<svg version="1.0" xmlns="http://www.w3.org/2000/svg"
 width="523.000000pt" height="458.000000pt" viewBox="0 0 523.000000 458.000000"
 preserveAspectRatio="xMidYMid meet">

<g transform="translate(0.000000,458.000000) scale(0.100000,-0.100000)"
fill="#000000" stroke="none">
<path d="M5025 4550 c-290 -105 -4919 -1897 -4946 -1915 -42 -27 -69 -78 -69
-129 0 -27 8 -45 32 -72 30 -32 90 -56 647 -264 337 -126 614 -230 616 -232 1
-2 113 -351 248 -777 189 -595 252 -780 270 -799 32 -32 94 -39 138 -17 19 10
185 143 369 295 184 152 349 284 367 294 40 20 122 21 169 1 19 -8 298 -204
621 -436 322 -232 607 -435 633 -451 94 -58 175 -45 210 35 11 23 217 1010
460 2192 453 2206 452 2200 418 2254 -27 44 -98 52 -183 21z m-924 -920 c52
-28 59 -21 -990 -1000 -681 -635 -1015 -953 -1026 -977 -18 -37 -41 -161 -90
-477 -21 -135 -32 -183 -46 -197 -26 -26 -43 -24 -80 9 -28 25 -40 62 -160
480 -86 301 -129 469 -129 500 1 86 45 166 118 215 32 21 2070 1278 2286 1409
86 52 88 53 117 38z"/>
</g>
</svg>
