<svg id="Сгруппировать_20" data-name="Сгруппировать 20" xmlns="http://www.w3.org/2000/svg" width="228.731" height="52.974" viewBox="0 0 228.731 52.974">
  <g id="Сгруппировать_19" data-name="Сгруппировать 19" transform="translate(0 0)">
    <g id="Сгруппировать_18" data-name="Сгруппировать 18">
      <path id="Контур_39" data-name="Контур 39" d="M209,117.654l7.244,12.547-21.732-12.547H209m2.169-3.757H180.556l45.954,26.567L211.172,113.9Z" transform="translate(-165.281 -113.896)" fill="#fff"/>
      <path id="Контур_40" data-name="Контур 40" d="M216.674,232.335l-7.215,12.5H195.03l21.644-12.5M226.9,222.113h0Zm0,0-45.829,26.459H211.62L226.9,222.113Z" transform="translate(-165.666 -195.598)" fill="#fff"/>
      <path id="Контур_41" data-name="Контур 41" d="M129.7,127.871l.118,25.017-7.281-12.475,7.163-12.543m-11.488,12.563,15.3,26.414-.021-52.957Z" transform="translate(-118.208 -113.891)" fill="#fff"/>
    </g>
  </g>
  <path id="Контур_42" data-name="Контур 42" d="M428.612,174.552c0,8.061-6.465,14.247-15.005,14.247S398.6,182.653,398.6,174.552c0-8.142,6.465-14.168,15.005-14.168S428.612,166.45,428.612,174.552Zm-23.546,0a8.687,8.687,0,0,0,8.62,8.74,8.7,8.7,0,1,0-8.62-8.74Z" transform="translate(-329.904 -148.993)" fill="#fff"/>
  <path id="Контур_43" data-name="Контур 43" d="M551.939,189.135l-4.43-7.982h-6.425v7.982h-6.306V161.2H546.91c7.3,0,11.454,3.512,11.454,9.7,0,4.31-1.836,7.423-5.228,9.02l5.946,9.219Zm-10.855-13.249h5.826c3.472,0,5.467-1.6,5.467-4.789,0-3.113-2-4.669-5.467-4.669h-5.826Z" transform="translate(-432.717 -149.608)" fill="#fff"/>
  <path id="Контур_44" data-name="Контур 44" d="M658.055,183.707h-12.93l-2.2,5.428h-6.5L648.557,161.2h6.5l11.933,27.936H660.25Zm-2.035-5.068-4.39-10.855-4.43,10.855Z" transform="translate(-509.46 -149.608)" fill="#fff"/>
  <path id="Контур_45" data-name="Контур 45" d="M773.558,165.851a8.6,8.6,0,0,0,0,17.2,10.782,10.782,0,0,0,7.264-3.272l3.711,4.031a16.354,16.354,0,0,1-11.294,4.988c-8.341,0-14.646-6.186-14.646-14.287,0-8.062,6.425-14.128,14.886-14.128a15.9,15.9,0,0,1,11.014,4.629l-3.671,4.47A10.112,10.112,0,0,0,773.558,165.851Z" transform="translate(-601.697 -148.993)" fill="#fff"/>
  <path id="Контур_46" data-name="Контур 46" d="M882.829,161.2v22.428H894.8v5.508H876.524V161.2Z" transform="translate(-690.735 -149.608)" fill="#fff"/>
  <path id="Контур_47" data-name="Контур 47" d="M984.452,161.2v5.228H969.486v6.066h13.489v5.228H969.486v6.186h15.4v5.228h-21.71V161.2Z" transform="translate(-756.16 -149.608)" fill="#fff"/>
</svg>
