<svg width="48" height="48" viewBox="0 0 48 48" fill="none" xmlns="http://www.w3.org/2000/svg">
<path d="M47.3384 0.987733C47.3321 0.9705 47.3266 0.95405 47.3188 0.936817C47.2827 0.8577 47.2342 0.78485 47.1739 0.7214C47.1621 0.708867 47.1488 0.699467 47.1363 0.6885C47.1096 0.664217 47.0853 0.637583 47.0548 0.616433C47.0188 0.591367 46.9788 0.574133 46.9396 0.556117C46.9271 0.550633 46.9169 0.5428 46.9044 0.537317C46.8182 0.502067 46.7281 0.4864 46.6357 0.483267C46.6263 0.482483 46.6193 0.477783 46.6099 0.477783H1.17652C1.16712 0.477783 1.15851 0.483267 1.14911 0.483267C1.05824 0.4864 0.968155 0.50285 0.882772 0.537317C0.870238 0.542017 0.859272 0.54985 0.846738 0.556117C0.807572 0.574133 0.768405 0.591367 0.732372 0.616433C0.701822 0.637583 0.677538 0.664217 0.650905 0.6885C0.637588 0.70025 0.624272 0.70965 0.612522 0.7214C0.552205 0.785633 0.503638 0.8577 0.467605 0.936817C0.459772 0.95405 0.455072 0.9705 0.448022 0.987733C0.415905 1.07468 0.393188 1.16555 0.393188 1.26112V46.6945C0.393188 46.79 0.415905 46.8809 0.448022 46.9678C0.455072 46.9851 0.459772 47.0015 0.467605 47.0188C0.503638 47.0979 0.552205 47.1707 0.612522 47.2342C0.624272 47.2467 0.637588 47.2561 0.650122 47.2678C0.676755 47.2921 0.701039 47.3188 0.731588 47.3399C0.759788 47.3595 0.792688 47.3689 0.822455 47.3846C0.849088 47.3987 0.874155 47.4128 0.903139 47.4237C0.991655 47.4559 1.08331 47.4778 1.17652 47.4778H46.6099C46.7031 47.4778 46.7947 47.4559 46.8825 47.423C46.9114 47.412 46.9357 47.3979 46.9631 47.3838C46.9937 47.3681 47.0258 47.3587 47.054 47.3391C47.0846 47.318 47.1088 47.2914 47.1355 47.2671C47.148 47.2553 47.1613 47.2459 47.1731 47.2334C47.2342 47.1699 47.282 47.0971 47.318 47.018C47.3258 47.0015 47.3305 46.9843 47.3376 46.9671C47.3705 46.8809 47.3932 46.79 47.3932 46.6945V1.26112C47.3932 1.16555 47.3705 1.07468 47.3384 0.987733ZM1.95986 2.39773L16.8432 8.0675V39.8881L1.95986 45.5578V2.39773ZM5.43316 45.9111L17.9054 41.1602C18.2093 41.0443 18.4099 40.7529 18.4099 40.4278V7.52778C18.4099 7.2027 18.2093 6.9113 17.9054 6.79537L5.43316 2.04445H42.3532L29.881 6.79537C29.5771 6.9113 29.3765 7.2027 29.3765 7.52778V40.4278C29.3765 40.7529 29.5771 41.0443 29.881 41.1602L42.3532 45.9111H5.43316ZM45.8265 45.5578L30.9432 39.8881V8.0675L45.8265 2.39773V45.5578Z" fill="white"/>
</svg>
