<svg width="126" height="122" viewBox="0 0 126 122" fill="none" xmlns="http://www.w3.org/2000/svg">
<mask id="path-1-outside-1" maskUnits="userSpaceOnUse" x="0.590454" y="0" width="125" height="122" fill="black">
<rect fill="white" x="0.590454" width="125" height="122"/>
<path d="M52.0514 108.439L51.6906 110.201L52.0383 108.437C51.0638 108.245 50.1174 108.879 49.9253 109.854C49.7332 110.829 50.3675 111.775 51.343 111.967C51.3458 111.968 51.373 111.972 51.3758 111.973C51.4901 111.995 51.6035 112.006 51.7159 112.006C52.5621 112.006 53.3164 111.406 53.4804 110.544C53.6678 109.568 53.0278 108.625 52.0514 108.439Z"/>
<path d="M65.807 109.017L65.986 110.807L65.8014 109.018C64.8128 109.119 64.0941 110.003 64.1962 110.991C64.2909 111.917 65.0724 112.607 65.9832 112.607C66.045 112.607 66.1078 112.603 66.1696 112.597L66.2193 112.592C67.2032 112.477 67.9013 111.589 67.7916 110.605C67.6811 109.622 66.7909 108.914 65.807 109.017Z"/>
<path d="M58.9198 109.244C58.9198 109.244 58.8945 109.243 58.8936 109.243C57.9022 109.198 57.0739 109.968 57.0289 110.96C56.9849 111.953 57.7645 112.793 58.7568 112.838C58.7849 112.84 58.8121 112.84 58.8402 112.84C59.7959 112.84 60.5924 112.088 60.6355 111.123C60.6805 110.13 59.9131 109.289 58.9198 109.244Z"/>
<path d="M45.406 106.611L45.3835 106.602C44.4483 106.267 43.4288 106.756 43.0934 107.691C42.757 108.626 43.2536 109.661 44.1888 109.997C44.3902 110.069 44.5954 110.103 44.7969 110.103C45.5344 110.103 46.2268 109.647 46.4901 108.912C46.8265 107.977 46.3411 106.946 45.406 106.611Z"/>
<path d="M72.5967 107.758L73.0399 109.501L72.5911 107.76C71.6288 108.007 71.0497 108.988 71.2971 109.95C71.506 110.762 72.2369 111.302 73.0381 111.302C73.187 111.302 73.3379 111.283 73.4888 111.243C73.4963 111.242 73.5281 111.233 73.5366 111.231C74.4914 110.971 75.0499 109.99 74.795 109.033C74.5401 108.077 73.5553 107.508 72.5967 107.758Z"/>
<path d="M79.1006 105.489L79.8137 107.14L79.095 105.491C78.1842 105.888 77.7672 106.948 78.1636 107.859C78.4588 108.536 79.1203 108.94 79.8147 108.94C80.0536 108.94 80.2982 108.892 80.5315 108.79C80.539 108.787 80.568 108.774 80.5755 108.771C81.4779 108.363 81.8761 107.306 81.4732 106.402C81.0703 105.497 80.0077 105.091 79.1006 105.489Z"/>
<path d="M38.5338 23.4765C38.8224 23.4765 39.1157 23.4072 39.3865 23.2629C40.2636 22.7953 40.5943 21.7056 40.1268 20.8285C39.6592 19.9524 38.5703 19.6197 37.6933 20.0882L37.6717 20.0995C36.7956 20.5671 36.4742 21.6512 36.9418 22.5283C37.2641 23.1336 37.8901 23.4765 38.5338 23.4765Z"/>
<path d="M17.7233 43.5711C17.9904 43.7108 18.2761 43.7773 18.5582 43.7773C19.2057 43.7773 19.8316 43.4268 20.153 42.8131L20.1849 42.7503C20.6234 41.8583 20.2561 40.7797 19.364 40.3421C18.4785 39.9055 17.4085 40.2653 16.9643 41.1452C16.5052 42.0241 16.8444 43.1101 17.7233 43.5711Z"/>
<path d="M15.1905 50.3393C15.3817 50.404 15.5756 50.4349 15.7677 50.4349C16.5173 50.4349 17.2173 49.9617 17.4712 49.2121L17.4947 49.1409C17.787 48.1916 17.2539 47.1843 16.3037 46.8929C15.362 46.6024 14.3622 47.1253 14.0614 48.0623C13.7456 49.0022 14.2507 50.0217 15.1905 50.3393Z"/>
<path d="M21.2728 37.2771C21.5923 37.5095 21.9624 37.6219 22.3297 37.6219C22.8854 37.6219 23.4345 37.3643 23.7859 36.8808L23.8093 36.8489C24.3865 36.0412 24.1982 34.9205 23.3923 34.3433C22.5855 33.7651 21.4611 33.9507 20.882 34.7565L22.3316 35.8228L20.8764 34.764C20.2917 35.568 20.4697 36.6933 21.2728 37.2771Z"/>
<path d="M32.4262 27.3624C32.8039 27.3624 33.1843 27.2434 33.5094 26.996C34.3115 26.4094 34.4849 25.2841 33.8983 24.482C33.3108 23.6799 32.1854 23.5065 31.3843 24.0931L31.3393 24.1259C30.5484 24.7265 30.391 25.8575 30.9916 26.6493C31.3458 27.116 31.8828 27.3624 32.4262 27.3624Z"/>
<path d="M13.5844 77.6237C13.8224 78.3968 14.5327 78.8925 15.3011 78.8925C15.4763 78.8925 15.6553 78.8663 15.8314 78.8119C16.776 78.5224 17.3091 77.5216 17.0262 76.5752C16.7554 75.6307 15.7762 75.076 14.8232 75.3355C13.8646 75.5969 13.2996 76.5865 13.561 77.545C13.5666 77.5638 13.5788 77.605 13.5844 77.6237Z"/>
<path d="M26.9915 32.1038C27.459 32.1038 27.9266 31.9229 28.2799 31.5631C28.9817 30.8603 28.9817 29.7209 28.2799 29.0191C27.5771 28.3163 26.4377 28.3163 25.7349 29.0191L25.7049 29.0491C25.0096 29.7584 25.0237 30.8959 25.733 31.5912C26.0825 31.9342 26.537 32.1038 26.9915 32.1038Z"/>
<path d="M15.5728 69.7799C15.4463 68.8025 14.5533 68.1091 13.5751 68.2253C12.5893 68.3434 11.8847 69.2383 12.0018 70.225L12.0121 70.2971C12.1433 71.191 12.9107 71.832 13.7887 71.832C13.8749 71.832 13.963 71.8254 14.052 71.8123C15.0312 71.6699 15.7106 70.7591 15.5728 69.7799Z"/>
<path d="M13.3127 64.6271C13.3314 64.6271 13.3492 64.6281 13.3671 64.6281C14.3359 64.6281 15.1362 63.8569 15.1643 62.8815L15.1662 62.8046C15.1662 61.8104 14.3603 61.0055 13.3671 61.0055C12.3804 61.0055 11.5801 61.7982 11.5679 62.7812C11.5417 63.7726 12.3223 64.5981 13.3127 64.6271Z"/>
<path d="M13.7072 57.412C13.8149 57.4308 13.9208 57.4401 14.0267 57.4401C14.8813 57.4401 15.6393 56.8282 15.7958 55.9577C15.8005 55.9315 15.8043 55.9053 15.808 55.879C15.9533 54.8961 15.2739 53.9815 14.29 53.8372C13.3183 53.6929 12.4085 54.361 12.252 55.3299C12.0814 56.3063 12.7317 57.2368 13.7072 57.412Z"/>
<path d="M98.574 37.845C98.9226 38.351 99.4829 38.6218 100.054 38.6218C100.406 38.6218 100.762 38.5187 101.073 38.3041C101.891 37.7419 102.098 36.6212 101.536 35.8022L100.04 36.803L101.53 35.7938C100.972 34.9711 99.853 34.7565 99.0313 35.314C98.2085 35.8716 97.994 36.9904 98.5515 37.8131L98.574 37.845Z"/>
<path d="M107.762 55.9493C106.774 56.0599 106.064 56.951 106.175 57.9386L106.185 58.0164C106.313 58.9131 107.083 59.5606 107.964 59.5606C108.048 59.5606 108.135 59.555 108.221 59.5428C109.196 59.4032 109.876 58.5046 109.75 57.5301C109.637 56.5453 108.743 55.8387 107.762 55.9493Z"/>
<path d="M104.726 50.8725L104.733 50.8959C104.964 51.6802 105.68 52.1881 106.458 52.1881C106.626 52.1881 106.796 52.1646 106.966 52.114C107.92 51.8339 108.465 50.8341 108.185 49.8802L108.178 49.8567C107.897 48.9028 106.898 48.3575 105.944 48.6386C104.991 48.9188 104.445 49.9186 104.726 50.8725Z"/>
<path d="M102.184 44.1455C102.498 44.7837 103.14 45.1557 103.807 45.1557C104.072 45.1557 104.342 45.0966 104.596 44.9711C105.487 44.5325 105.858 43.4606 105.418 42.5685L103.788 43.3285L105.416 42.5648C104.995 41.6652 103.923 41.2782 103.024 41.6999C102.124 42.1216 101.736 43.1926 102.158 44.0921L102.184 44.1455Z"/>
<path d="M94.0425 32.2265C94.3948 32.5863 94.8605 32.7663 95.3272 32.7663C95.7816 32.7663 96.2361 32.5957 96.5865 32.2518C97.2912 31.5622 97.3071 30.4349 96.6278 29.7246C95.9541 28.9985 94.8184 28.9544 94.0894 29.6272C93.3594 30.3009 93.3144 31.4394 93.9882 32.1694L94.0425 32.2265Z"/>
<path d="M108.346 63.4615C107.358 63.4362 106.53 64.2111 106.496 65.1997C106.451 66.1845 107.207 67.0231 108.193 67.0784C108.227 67.0803 108.26 67.0812 108.295 67.0812C109.242 67.0812 110.036 66.34 110.089 65.3814L110.092 65.3074C110.12 64.3151 109.339 63.4905 108.346 63.4615Z"/>
<path d="M82.5377 23.3922L82.5808 23.4156C82.8488 23.5581 83.1364 23.6255 83.4194 23.6255C84.0594 23.6255 84.6788 23.2807 85.0039 22.6763C85.4724 21.8039 85.1426 20.7132 84.273 20.241L83.4025 21.8152L84.2674 20.2372C83.396 19.7593 82.3025 20.0789 81.8246 20.9503C81.3476 21.8208 81.6662 22.9153 82.5377 23.3922Z"/>
<path d="M88.6227 27.338L88.6508 27.3596C88.976 27.606 89.3574 27.725 89.7369 27.725C90.2803 27.725 90.8173 27.4795 91.1715 27.0129C91.7721 26.2211 91.6165 25.0929 90.8257 24.4923L90.8135 24.4838C90.0255 23.8785 88.8963 24.0266 88.291 24.8146C87.6857 25.6027 87.8347 26.7327 88.6227 27.338Z"/>
<path d="M123.299 90.6983L114.853 82.2378C114.134 81.5182 113.18 81.1218 112.163 81.1218C111.147 81.1218 110.191 81.5182 109.474 82.2378L109.278 82.4337L108.723 81.8789C108.038 81.1921 107.508 80.3928 107.148 79.5223C107.116 79.407 107.074 79.2946 107.02 79.1887C106.744 78.4147 106.601 77.5911 106.601 76.7449V74.3518C106.765 74.438 106.944 74.5007 107.136 74.5335C107.239 74.5513 107.341 74.5598 107.442 74.5598C108.296 74.5598 109.051 73.9507 109.209 73.0849C109.402 72.1123 108.771 71.1668 107.797 70.9719C107.369 70.8866 106.946 70.9606 106.59 71.1537C106.479 68.5975 105.434 66.2099 103.616 64.3883L95.4229 56.1808C93.5845 54.3396 91.1397 53.3257 88.5395 53.3257C86.5267 53.3257 84.6096 53.9357 82.9923 55.0648L82.1227 54.1906V33.6134C82.1227 31.1331 81.2222 28.7399 79.588 26.8761C78.4252 25.5512 77.7852 23.8495 77.7852 22.0841V20.5765H77.9089C80.0059 20.5765 81.7123 18.8701 81.7123 16.7721V4.80435C81.7123 2.70633 80.0059 1 77.9089 1H44.3022C42.2051 1 40.4988 2.70633 40.4988 4.80435V16.7721C40.4988 18.8701 42.2051 20.5765 44.3022 20.5765H44.5796V21.3654C44.5796 23.3051 43.8253 25.1286 42.4563 26.4994L38.829 30.1332C36.9044 32.0617 35.8446 34.6244 35.8446 37.3512V48.9582C35.8446 50.5352 36.2231 52.0242 36.8894 53.3435C34.5037 53.4813 32.2801 54.4754 30.5766 56.1808L22.3832 64.3883C20.4585 66.3167 19.3987 68.8804 19.3987 71.6063V76.7449C19.3987 78.6846 18.6454 80.5081 17.2764 81.8789L16.7282 82.428C16.7254 82.4299 16.7235 82.4318 16.7216 82.4337L16.5267 82.2378C15.808 81.5182 14.8532 81.1218 13.8365 81.1218C12.8208 81.1218 11.865 81.5182 11.1472 82.2378L2.70084 90.6983C1.22033 92.1816 1.22033 94.5954 2.70084 96.0787L5.59345 98.9751C6.29529 99.6788 7.43472 99.6797 8.13749 98.9779C8.84027 98.2751 8.84214 97.1366 8.13937 96.4329L5.24769 93.5356C5.16617 93.4541 5.16617 93.322 5.24769 93.2404L13.6941 84.78C13.7728 84.7013 13.9012 84.7003 13.9799 84.78L15.4482 86.2511H15.4492L37.7449 108.586C37.8264 108.668 37.8264 108.8 37.7449 108.881L29.2994 117.342C29.2198 117.421 29.0914 117.421 29.0127 117.342L13.2331 101.535C12.5312 100.831 11.3918 100.83 10.689 101.532C9.98532 102.235 9.98438 103.373 10.6862 104.077L26.4668 119.884C27.1845 120.604 28.1403 121 29.157 121C30.1727 121 31.1276 120.604 31.8463 119.884L40.2917 111.424C41.7722 109.941 41.7722 107.527 40.2917 106.044L40.1999 105.952L41.2653 104.885C42.5097 103.638 44.1626 102.888 45.9195 102.775C48.3924 102.615 50.719 101.559 52.4703 99.8043L60.229 92.0289C62.4666 91.4413 64.2085 89.6188 64.6817 87.3362C65.4791 87.7157 66.3703 87.9293 67.311 87.9293C70.6947 87.9293 73.4477 85.1735 73.4477 81.7852V77.5133C74.2216 77.8666 75.0809 78.0652 75.9861 78.0652C79.3697 78.0652 82.1218 75.3094 82.1218 71.9211V59.2918L87.6559 64.8531C88.0072 65.2063 88.4692 65.3825 88.9312 65.3825C89.3903 65.3825 89.8495 65.2082 90.2008 64.8587C90.9045 64.1578 90.9074 63.0193 90.2065 62.3147L85.5925 57.6782C86.4855 57.1863 87.4919 56.9239 88.5395 56.9239C90.1774 56.9239 91.7179 57.563 92.8761 58.7239L101.069 66.9305C102.316 68.1795 103.003 69.84 103.003 71.6063V76.7449C103.003 79.6451 104.13 82.3709 106.176 84.4211L106.735 84.9805L88.3418 103.405L87.4619 102.524C87.4525 102.515 87.4441 102.506 87.4347 102.497L87.2801 102.342C85.4173 100.476 82.9426 99.3546 80.3133 99.184C78.7138 99.08 77.2089 98.3979 76.0704 97.2584L70.1587 91.3786C69.454 90.6777 68.3146 90.6805 67.6137 91.3851C66.9137 92.0898 66.9165 93.2292 67.6212 93.9292L73.5292 99.8043C75.2805 101.559 77.6071 102.615 80.0809 102.775C81.8369 102.888 83.4898 103.638 84.7342 104.884L84.8213 104.971C84.8682 105.025 84.9179 105.074 84.9703 105.121L85.7996 105.951L85.7078 106.044C84.2273 107.527 84.2273 109.94 85.7078 111.424L94.1532 119.884C94.8719 120.604 95.8268 121 96.8435 121C97.8592 121 98.815 120.604 99.5337 119.884L123.299 96.0778C124.779 94.5945 124.779 92.1816 123.299 90.6983ZM107.807 72.8085L107.773 72.8028L107.445 72.7363L107.807 72.8085ZM49.9235 97.2622C48.7906 98.3979 47.2857 99.08 45.6872 99.184C43.0569 99.3546 40.5822 100.476 38.7194 102.342L37.6577 103.405L36.702 102.448C36.6898 102.436 36.6776 102.422 36.6654 102.411L19.2647 84.9805L19.8232 84.4211C21.8697 82.3709 22.9969 79.6451 22.9969 76.7449V71.6063C22.9969 69.84 23.6828 68.1795 24.93 66.9305L33.1234 58.7239C34.2816 57.563 35.8221 56.9239 37.46 56.9239C38.5104 56.9239 39.5206 57.1882 40.4164 57.6838L35.7949 62.3128C35.0931 63.0156 35.094 64.155 35.7968 64.8568C36.1482 65.2073 36.6083 65.3825 37.0683 65.3825C37.5294 65.3825 37.9904 65.2063 38.3418 64.8549L43.8618 59.3246V81.7852C43.8618 85.1735 46.6148 87.9293 49.9984 87.9293C50.9523 87.9293 51.8556 87.7101 52.6615 87.3203C53.0269 89.1034 54.1664 90.6064 55.7106 91.4629L49.9235 97.2622ZM78.5245 71.922C78.5245 73.3257 77.3851 74.4679 75.9861 74.4679C74.5861 74.4679 73.4477 73.3257 73.4477 71.922V51.8536C73.4477 50.8604 72.6427 50.0545 71.6486 50.0545C70.6544 50.0545 69.8494 50.8604 69.8494 51.8536V81.7862C69.8494 83.1898 68.711 84.3311 67.311 84.3311C66.0545 84.3311 65.0116 83.411 64.8101 82.2069V51.833C64.8101 50.8388 64.0052 50.0339 63.011 50.0339C62.6915 50.0339 62.3907 50.1183 62.1302 50.2644C61.5614 50.5671 61.1744 51.1649 61.1744 51.8536V81.7852C61.1744 82.0139 61.1875 82.2378 61.2119 82.4599V86.0853C61.2119 87.4889 60.0734 88.6312 58.6735 88.6312C57.2745 88.6312 56.136 87.4889 56.136 86.0853V51.8115C56.136 50.8182 55.3302 50.0124 54.3369 50.0124C53.3427 50.0124 52.5369 50.8182 52.5369 51.8115V81.7852C52.5369 83.1889 51.3984 84.3311 49.9994 84.3311C48.5995 84.3311 47.461 83.1889 47.461 81.7852V48.3192C47.461 47.325 46.6551 46.5191 45.6619 46.5191C44.6677 46.5191 43.8628 47.325 43.8628 48.3192V54.5092C43.7119 54.5579 43.5657 54.6263 43.4298 54.7163C41.1032 53.842 39.4428 51.5913 39.4428 48.9582V37.3512C39.4428 35.5849 40.1296 33.9245 41.3759 32.6754L45.0031 29.0416C47.0505 26.9914 48.1778 24.2656 48.1778 21.3654V20.5765H51.7947C52.7889 20.5765 53.5938 19.7706 53.5938 18.7774C53.5938 17.7832 52.7889 16.9783 51.7947 16.9783H44.3022C44.1888 16.9783 44.097 16.8855 44.097 16.7721V4.80435C44.097 4.69097 44.1888 4.5982 44.3022 4.5982H77.9079C78.0222 4.5982 78.1141 4.69097 78.1141 4.80435V16.7721C78.1141 16.8864 78.0222 16.9783 77.9079 16.9783H60.2411C59.2479 16.9783 58.442 17.7832 58.442 18.7774C58.442 19.7706 59.2479 20.5765 60.2411 20.5765H74.187V22.0841C74.187 24.7228 75.1437 27.2669 76.8819 29.2496C77.9407 30.4565 78.5245 32.0064 78.5245 33.6134V71.922ZM120.752 93.5356L96.9868 117.342C96.9475 117.382 96.8997 117.402 96.8435 117.402C96.7882 117.402 96.7404 117.382 96.7001 117.342L88.2546 108.881C88.1731 108.8 88.1731 108.668 88.2546 108.586L89.6143 107.224L112.02 84.78C112.098 84.7003 112.227 84.7003 112.305 84.78L120.752 93.2404C120.833 93.322 120.833 93.4541 120.752 93.5356Z"/>
<path d="M49.9984 8.86918C48.9423 8.86918 48.0831 9.73031 48.0831 10.7882C48.0831 11.8471 48.9423 12.7073 49.9984 12.7073C51.0553 12.7073 51.9146 11.8471 51.9146 10.7882C51.9146 9.73031 51.0553 8.86918 49.9984 8.86918Z"/>
<path d="M112.751 90.8799C111.694 90.8799 110.835 91.741 110.835 92.7989C110.835 93.8568 111.694 94.718 112.751 94.718C113.807 94.718 114.667 93.8568 114.667 92.7989C114.667 91.741 113.807 90.8799 112.751 90.8799Z"/>
<path d="M31.5717 109.234C31.5717 108.177 30.7124 107.315 29.6564 107.315C28.5994 107.315 27.7401 108.177 27.7401 109.234C27.7401 110.292 28.5994 111.153 29.6564 111.153C30.7124 111.153 31.5717 110.292 31.5717 109.234Z"/>
</mask>
<path d="M52.0514 108.439L51.6906 110.201L52.0383 108.437C51.0638 108.245 50.1174 108.879 49.9253 109.854C49.7332 110.829 50.3675 111.775 51.343 111.967C51.3458 111.968 51.373 111.972 51.3758 111.973C51.4901 111.995 51.6035 112.006 51.7159 112.006C52.5621 112.006 53.3164 111.406 53.4804 110.544C53.6678 109.568 53.0278 108.625 52.0514 108.439Z" fill="#A2C2C6"/>
<path d="M65.807 109.017L65.986 110.807L65.8014 109.018C64.8128 109.119 64.0941 110.003 64.1962 110.991C64.2909 111.917 65.0724 112.607 65.9832 112.607C66.045 112.607 66.1078 112.603 66.1696 112.597L66.2193 112.592C67.2032 112.477 67.9013 111.589 67.7916 110.605C67.6811 109.622 66.7909 108.914 65.807 109.017Z" fill="#A2C2C6"/>
<path d="M58.9198 109.244C58.9198 109.244 58.8945 109.243 58.8936 109.243C57.9022 109.198 57.0739 109.968 57.0289 110.96C56.9849 111.953 57.7645 112.793 58.7568 112.838C58.7849 112.84 58.8121 112.84 58.8402 112.84C59.7959 112.84 60.5924 112.088 60.6355 111.123C60.6805 110.13 59.9131 109.289 58.9198 109.244Z" fill="#A2C2C6"/>
<path d="M45.406 106.611L45.3835 106.602C44.4483 106.267 43.4288 106.756 43.0934 107.691C42.757 108.626 43.2536 109.661 44.1888 109.997C44.3902 110.069 44.5954 110.103 44.7969 110.103C45.5344 110.103 46.2268 109.647 46.4901 108.912C46.8265 107.977 46.3411 106.946 45.406 106.611Z" fill="#A2C2C6"/>
<path d="M72.5967 107.758L73.0399 109.501L72.5911 107.76C71.6288 108.007 71.0497 108.988 71.2971 109.95C71.506 110.762 72.2369 111.302 73.0381 111.302C73.187 111.302 73.3379 111.283 73.4888 111.243C73.4963 111.242 73.5281 111.233 73.5366 111.231C74.4914 110.971 75.0499 109.99 74.795 109.033C74.5401 108.077 73.5553 107.508 72.5967 107.758Z" fill="#A2C2C6"/>
<path d="M79.1006 105.489L79.8137 107.14L79.095 105.491C78.1842 105.888 77.7672 106.948 78.1636 107.859C78.4588 108.536 79.1203 108.94 79.8147 108.94C80.0536 108.94 80.2982 108.892 80.5315 108.79C80.539 108.787 80.568 108.774 80.5755 108.771C81.4779 108.363 81.8761 107.306 81.4732 106.402C81.0703 105.497 80.0077 105.091 79.1006 105.489Z" fill="#A2C2C6"/>
<path d="M38.5338 23.4765C38.8224 23.4765 39.1157 23.4072 39.3865 23.2629C40.2636 22.7953 40.5943 21.7056 40.1268 20.8285C39.6592 19.9524 38.5703 19.6197 37.6933 20.0882L37.6717 20.0995C36.7956 20.5671 36.4742 21.6512 36.9418 22.5283C37.2641 23.1336 37.8901 23.4765 38.5338 23.4765Z" fill="#A2C2C6"/>
<path d="M17.7233 43.5711C17.9904 43.7108 18.2761 43.7773 18.5582 43.7773C19.2057 43.7773 19.8316 43.4268 20.153 42.8131L20.1849 42.7503C20.6234 41.8583 20.2561 40.7797 19.364 40.3421C18.4785 39.9055 17.4085 40.2653 16.9643 41.1452C16.5052 42.0241 16.8444 43.1101 17.7233 43.5711Z" fill="#A2C2C6"/>
<path d="M15.1905 50.3393C15.3817 50.404 15.5756 50.4349 15.7677 50.4349C16.5173 50.4349 17.2173 49.9617 17.4712 49.2121L17.4947 49.1409C17.787 48.1916 17.2539 47.1843 16.3037 46.8929C15.362 46.6024 14.3622 47.1253 14.0614 48.0623C13.7456 49.0022 14.2507 50.0217 15.1905 50.3393Z" fill="#A2C2C6"/>
<path d="M21.2728 37.2771C21.5923 37.5095 21.9624 37.6219 22.3297 37.6219C22.8854 37.6219 23.4345 37.3643 23.7859 36.8808L23.8093 36.8489C24.3865 36.0412 24.1982 34.9205 23.3923 34.3433C22.5855 33.7651 21.4611 33.9507 20.882 34.7565L22.3316 35.8228L20.8764 34.764C20.2917 35.568 20.4697 36.6933 21.2728 37.2771Z" fill="#A2C2C6"/>
<path d="M32.4262 27.3624C32.8039 27.3624 33.1843 27.2434 33.5094 26.996C34.3115 26.4094 34.4849 25.2841 33.8983 24.482C33.3108 23.6799 32.1854 23.5065 31.3843 24.0931L31.3393 24.1259C30.5484 24.7265 30.391 25.8575 30.9916 26.6493C31.3458 27.116 31.8828 27.3624 32.4262 27.3624Z" fill="#A2C2C6"/>
<path d="M13.5844 77.6237C13.8224 78.3968 14.5327 78.8925 15.3011 78.8925C15.4763 78.8925 15.6553 78.8663 15.8314 78.8119C16.776 78.5224 17.3091 77.5216 17.0262 76.5752C16.7554 75.6307 15.7762 75.076 14.8232 75.3355C13.8646 75.5969 13.2996 76.5865 13.561 77.545C13.5666 77.5638 13.5788 77.605 13.5844 77.6237Z" fill="#A2C2C6"/>
<path d="M26.9915 32.1038C27.459 32.1038 27.9266 31.9229 28.2799 31.5631C28.9817 30.8603 28.9817 29.7209 28.2799 29.0191C27.5771 28.3163 26.4377 28.3163 25.7349 29.0191L25.7049 29.0491C25.0096 29.7584 25.0237 30.8959 25.733 31.5912C26.0825 31.9342 26.537 32.1038 26.9915 32.1038Z" fill="#A2C2C6"/>
<path d="M15.5728 69.7799C15.4463 68.8025 14.5533 68.1091 13.5751 68.2253C12.5893 68.3434 11.8847 69.2383 12.0018 70.225L12.0121 70.2971C12.1433 71.191 12.9107 71.832 13.7887 71.832C13.8749 71.832 13.963 71.8254 14.052 71.8123C15.0312 71.6699 15.7106 70.7591 15.5728 69.7799Z" fill="#A2C2C6"/>
<path d="M13.3127 64.6271C13.3314 64.6271 13.3492 64.6281 13.3671 64.6281C14.3359 64.6281 15.1362 63.8569 15.1643 62.8815L15.1662 62.8046C15.1662 61.8104 14.3603 61.0055 13.3671 61.0055C12.3804 61.0055 11.5801 61.7982 11.5679 62.7812C11.5417 63.7726 12.3223 64.5981 13.3127 64.6271Z" fill="#A2C2C6"/>
<path d="M13.7072 57.412C13.8149 57.4308 13.9208 57.4401 14.0267 57.4401C14.8813 57.4401 15.6393 56.8282 15.7958 55.9577C15.8005 55.9315 15.8043 55.9053 15.808 55.879C15.9533 54.8961 15.2739 53.9815 14.29 53.8372C13.3183 53.6929 12.4085 54.361 12.252 55.3299C12.0814 56.3063 12.7317 57.2368 13.7072 57.412Z" fill="#A2C2C6"/>
<path d="M98.574 37.845C98.9226 38.351 99.4829 38.6218 100.054 38.6218C100.406 38.6218 100.762 38.5187 101.073 38.3041C101.891 37.7419 102.098 36.6212 101.536 35.8022L100.04 36.803L101.53 35.7938C100.972 34.9711 99.853 34.7565 99.0313 35.314C98.2085 35.8716 97.994 36.9904 98.5515 37.8131L98.574 37.845Z" fill="#A2C2C6"/>
<path d="M107.762 55.9493C106.774 56.0599 106.064 56.951 106.175 57.9386L106.185 58.0164C106.313 58.9131 107.083 59.5606 107.964 59.5606C108.048 59.5606 108.135 59.555 108.221 59.5428C109.196 59.4032 109.876 58.5046 109.75 57.5301C109.637 56.5453 108.743 55.8387 107.762 55.9493Z" fill="#A2C2C6"/>
<path d="M104.726 50.8725L104.733 50.8959C104.964 51.6802 105.68 52.1881 106.458 52.1881C106.626 52.1881 106.796 52.1646 106.966 52.114C107.92 51.8339 108.465 50.8341 108.185 49.8802L108.178 49.8567C107.897 48.9028 106.898 48.3575 105.944 48.6386C104.991 48.9188 104.445 49.9186 104.726 50.8725Z" fill="#A2C2C6"/>
<path d="M102.184 44.1455C102.498 44.7837 103.14 45.1557 103.807 45.1557C104.072 45.1557 104.342 45.0966 104.596 44.9711C105.487 44.5325 105.858 43.4606 105.418 42.5685L103.788 43.3285L105.416 42.5648C104.995 41.6652 103.923 41.2782 103.024 41.6999C102.124 42.1216 101.736 43.1926 102.158 44.0921L102.184 44.1455Z" fill="#A2C2C6"/>
<path d="M94.0425 32.2265C94.3948 32.5863 94.8605 32.7663 95.3272 32.7663C95.7816 32.7663 96.2361 32.5957 96.5865 32.2518C97.2912 31.5622 97.3071 30.4349 96.6278 29.7246C95.9541 28.9985 94.8184 28.9544 94.0894 29.6272C93.3594 30.3009 93.3144 31.4394 93.9882 32.1694L94.0425 32.2265Z" fill="#A2C2C6"/>
<path d="M108.346 63.4615C107.358 63.4362 106.53 64.2111 106.496 65.1997C106.451 66.1845 107.207 67.0231 108.193 67.0784C108.227 67.0803 108.26 67.0812 108.295 67.0812C109.242 67.0812 110.036 66.34 110.089 65.3814L110.092 65.3074C110.12 64.3151 109.339 63.4905 108.346 63.4615Z" fill="#A2C2C6"/>
<path d="M82.5377 23.3922L82.5808 23.4156C82.8488 23.5581 83.1364 23.6255 83.4194 23.6255C84.0594 23.6255 84.6788 23.2807 85.0039 22.6763C85.4724 21.8039 85.1426 20.7132 84.273 20.241L83.4025 21.8152L84.2674 20.2372C83.396 19.7593 82.3025 20.0789 81.8246 20.9503C81.3476 21.8208 81.6662 22.9153 82.5377 23.3922Z" fill="#A2C2C6"/>
<path d="M88.6227 27.338L88.6508 27.3596C88.976 27.606 89.3574 27.725 89.7369 27.725C90.2803 27.725 90.8173 27.4795 91.1715 27.0129C91.7721 26.2211 91.6165 25.0929 90.8257 24.4923L90.8135 24.4838C90.0255 23.8785 88.8963 24.0266 88.291 24.8146C87.6857 25.6027 87.8347 26.7327 88.6227 27.338Z" fill="#A2C2C6"/>
<path d="M123.299 90.6983L114.853 82.2378C114.134 81.5182 113.18 81.1218 112.163 81.1218C111.147 81.1218 110.191 81.5182 109.474 82.2378L109.278 82.4337L108.723 81.8789C108.038 81.1921 107.508 80.3928 107.148 79.5223C107.116 79.407 107.074 79.2946 107.02 79.1887C106.744 78.4147 106.601 77.5911 106.601 76.7449V74.3518C106.765 74.438 106.944 74.5007 107.136 74.5335C107.239 74.5513 107.341 74.5598 107.442 74.5598C108.296 74.5598 109.051 73.9507 109.209 73.0849C109.402 72.1123 108.771 71.1668 107.797 70.9719C107.369 70.8866 106.946 70.9606 106.59 71.1537C106.479 68.5975 105.434 66.2099 103.616 64.3883L95.4229 56.1808C93.5845 54.3396 91.1397 53.3257 88.5395 53.3257C86.5267 53.3257 84.6096 53.9357 82.9923 55.0648L82.1227 54.1906V33.6134C82.1227 31.1331 81.2222 28.7399 79.588 26.8761C78.4252 25.5512 77.7852 23.8495 77.7852 22.0841V20.5765H77.9089C80.0059 20.5765 81.7123 18.8701 81.7123 16.7721V4.80435C81.7123 2.70633 80.0059 1 77.9089 1H44.3022C42.2051 1 40.4988 2.70633 40.4988 4.80435V16.7721C40.4988 18.8701 42.2051 20.5765 44.3022 20.5765H44.5796V21.3654C44.5796 23.3051 43.8253 25.1286 42.4563 26.4994L38.829 30.1332C36.9044 32.0617 35.8446 34.6244 35.8446 37.3512V48.9582C35.8446 50.5352 36.2231 52.0242 36.8894 53.3435C34.5037 53.4813 32.2801 54.4754 30.5766 56.1808L22.3832 64.3883C20.4585 66.3167 19.3987 68.8804 19.3987 71.6063V76.7449C19.3987 78.6846 18.6454 80.5081 17.2764 81.8789L16.7282 82.428C16.7254 82.4299 16.7235 82.4318 16.7216 82.4337L16.5267 82.2378C15.808 81.5182 14.8532 81.1218 13.8365 81.1218C12.8208 81.1218 11.865 81.5182 11.1472 82.2378L2.70084 90.6983C1.22033 92.1816 1.22033 94.5954 2.70084 96.0787L5.59345 98.9751C6.29529 99.6788 7.43472 99.6797 8.13749 98.9779C8.84027 98.2751 8.84214 97.1366 8.13937 96.4329L5.24769 93.5356C5.16617 93.4541 5.16617 93.322 5.24769 93.2404L13.6941 84.78C13.7728 84.7013 13.9012 84.7003 13.9799 84.78L15.4482 86.2511H15.4492L37.7449 108.586C37.8264 108.668 37.8264 108.8 37.7449 108.881L29.2994 117.342C29.2198 117.421 29.0914 117.421 29.0127 117.342L13.2331 101.535C12.5312 100.831 11.3918 100.83 10.689 101.532C9.98532 102.235 9.98438 103.373 10.6862 104.077L26.4668 119.884C27.1845 120.604 28.1403 121 29.157 121C30.1727 121 31.1276 120.604 31.8463 119.884L40.2917 111.424C41.7722 109.941 41.7722 107.527 40.2917 106.044L40.1999 105.952L41.2653 104.885C42.5097 103.638 44.1626 102.888 45.9195 102.775C48.3924 102.615 50.719 101.559 52.4703 99.8043L60.229 92.0289C62.4666 91.4413 64.2085 89.6188 64.6817 87.3362C65.4791 87.7157 66.3703 87.9293 67.311 87.9293C70.6947 87.9293 73.4477 85.1735 73.4477 81.7852V77.5133C74.2216 77.8666 75.0809 78.0652 75.9861 78.0652C79.3697 78.0652 82.1218 75.3094 82.1218 71.9211V59.2918L87.6559 64.8531C88.0072 65.2063 88.4692 65.3825 88.9312 65.3825C89.3903 65.3825 89.8495 65.2082 90.2008 64.8587C90.9045 64.1578 90.9074 63.0193 90.2065 62.3147L85.5925 57.6782C86.4855 57.1863 87.4919 56.9239 88.5395 56.9239C90.1774 56.9239 91.7179 57.563 92.8761 58.7239L101.069 66.9305C102.316 68.1795 103.003 69.84 103.003 71.6063V76.7449C103.003 79.6451 104.13 82.3709 106.176 84.4211L106.735 84.9805L88.3418 103.405L87.4619 102.524C87.4525 102.515 87.4441 102.506 87.4347 102.497L87.2801 102.342C85.4173 100.476 82.9426 99.3546 80.3133 99.184C78.7138 99.08 77.2089 98.3979 76.0704 97.2584L70.1587 91.3786C69.454 90.6777 68.3146 90.6805 67.6137 91.3851C66.9137 92.0898 66.9165 93.2292 67.6212 93.9292L73.5292 99.8043C75.2805 101.559 77.6071 102.615 80.0809 102.775C81.8369 102.888 83.4898 103.638 84.7342 104.884L84.8213 104.971C84.8682 105.025 84.9179 105.074 84.9703 105.121L85.7996 105.951L85.7078 106.044C84.2273 107.527 84.2273 109.94 85.7078 111.424L94.1532 119.884C94.8719 120.604 95.8268 121 96.8435 121C97.8592 121 98.815 120.604 99.5337 119.884L123.299 96.0778C124.779 94.5945 124.779 92.1816 123.299 90.6983ZM107.807 72.8085L107.773 72.8028L107.445 72.7363L107.807 72.8085ZM49.9235 97.2622C48.7906 98.3979 47.2857 99.08 45.6872 99.184C43.0569 99.3546 40.5822 100.476 38.7194 102.342L37.6577 103.405L36.702 102.448C36.6898 102.436 36.6776 102.422 36.6654 102.411L19.2647 84.9805L19.8232 84.4211C21.8697 82.3709 22.9969 79.6451 22.9969 76.7449V71.6063C22.9969 69.84 23.6828 68.1795 24.93 66.9305L33.1234 58.7239C34.2816 57.563 35.8221 56.9239 37.46 56.9239C38.5104 56.9239 39.5206 57.1882 40.4164 57.6838L35.7949 62.3128C35.0931 63.0156 35.094 64.155 35.7968 64.8568C36.1482 65.2073 36.6083 65.3825 37.0683 65.3825C37.5294 65.3825 37.9904 65.2063 38.3418 64.8549L43.8618 59.3246V81.7852C43.8618 85.1735 46.6148 87.9293 49.9984 87.9293C50.9523 87.9293 51.8556 87.7101 52.6615 87.3203C53.0269 89.1034 54.1664 90.6064 55.7106 91.4629L49.9235 97.2622ZM78.5245 71.922C78.5245 73.3257 77.3851 74.4679 75.9861 74.4679C74.5861 74.4679 73.4477 73.3257 73.4477 71.922V51.8536C73.4477 50.8604 72.6427 50.0545 71.6486 50.0545C70.6544 50.0545 69.8494 50.8604 69.8494 51.8536V81.7862C69.8494 83.1898 68.711 84.3311 67.311 84.3311C66.0545 84.3311 65.0116 83.411 64.8101 82.2069V51.833C64.8101 50.8388 64.0052 50.0339 63.011 50.0339C62.6915 50.0339 62.3907 50.1183 62.1302 50.2644C61.5614 50.5671 61.1744 51.1649 61.1744 51.8536V81.7852C61.1744 82.0139 61.1875 82.2378 61.2119 82.4599V86.0853C61.2119 87.4889 60.0734 88.6312 58.6735 88.6312C57.2745 88.6312 56.136 87.4889 56.136 86.0853V51.8115C56.136 50.8182 55.3302 50.0124 54.3369 50.0124C53.3427 50.0124 52.5369 50.8182 52.5369 51.8115V81.7852C52.5369 83.1889 51.3984 84.3311 49.9994 84.3311C48.5995 84.3311 47.461 83.1889 47.461 81.7852V48.3192C47.461 47.325 46.6551 46.5191 45.6619 46.5191C44.6677 46.5191 43.8628 47.325 43.8628 48.3192V54.5092C43.7119 54.5579 43.5657 54.6263 43.4298 54.7163C41.1032 53.842 39.4428 51.5913 39.4428 48.9582V37.3512C39.4428 35.5849 40.1296 33.9245 41.3759 32.6754L45.0031 29.0416C47.0505 26.9914 48.1778 24.2656 48.1778 21.3654V20.5765H51.7947C52.7889 20.5765 53.5938 19.7706 53.5938 18.7774C53.5938 17.7832 52.7889 16.9783 51.7947 16.9783H44.3022C44.1888 16.9783 44.097 16.8855 44.097 16.7721V4.80435C44.097 4.69097 44.1888 4.5982 44.3022 4.5982H77.9079C78.0222 4.5982 78.1141 4.69097 78.1141 4.80435V16.7721C78.1141 16.8864 78.0222 16.9783 77.9079 16.9783H60.2411C59.2479 16.9783 58.442 17.7832 58.442 18.7774C58.442 19.7706 59.2479 20.5765 60.2411 20.5765H74.187V22.0841C74.187 24.7228 75.1437 27.2669 76.8819 29.2496C77.9407 30.4565 78.5245 32.0064 78.5245 33.6134V71.922ZM120.752 93.5356L96.9868 117.342C96.9475 117.382 96.8997 117.402 96.8435 117.402C96.7882 117.402 96.7404 117.382 96.7001 117.342L88.2546 108.881C88.1731 108.8 88.1731 108.668 88.2546 108.586L89.6143 107.224L112.02 84.78C112.098 84.7003 112.227 84.7003 112.305 84.78L120.752 93.2404C120.833 93.322 120.833 93.4541 120.752 93.5356Z" fill="#A2C2C6"/>
<path d="M49.9984 8.86918C48.9423 8.86918 48.0831 9.73031 48.0831 10.7882C48.0831 11.8471 48.9423 12.7073 49.9984 12.7073C51.0553 12.7073 51.9146 11.8471 51.9146 10.7882C51.9146 9.73031 51.0553 8.86918 49.9984 8.86918Z" fill="#A2C2C6"/>
<path d="M112.751 90.8799C111.694 90.8799 110.835 91.741 110.835 92.7989C110.835 93.8568 111.694 94.718 112.751 94.718C113.807 94.718 114.667 93.8568 114.667 92.7989C114.667 91.741 113.807 90.8799 112.751 90.8799Z" fill="#A2C2C6"/>
<path d="M31.5717 109.234C31.5717 108.177 30.7124 107.315 29.6564 107.315C28.5994 107.315 27.7401 108.177 27.7401 109.234C27.7401 110.292 28.5994 111.153 29.6564 111.153C30.7124 111.153 31.5717 110.292 31.5717 109.234Z" fill="#A2C2C6"/>
<path d="M52.0514 108.439L51.6906 110.201L52.0383 108.437C51.0638 108.245 50.1174 108.879 49.9253 109.854C49.7332 110.829 50.3675 111.775 51.343 111.967C51.3458 111.968 51.373 111.972 51.3758 111.973C51.4901 111.995 51.6035 112.006 51.7159 112.006C52.5621 112.006 53.3164 111.406 53.4804 110.544C53.6678 109.568 53.0278 108.625 52.0514 108.439Z" stroke="#A2C2C6" stroke-width="2" mask="url(#path-1-outside-1)"/>
<path d="M65.807 109.017L65.986 110.807L65.8014 109.018C64.8128 109.119 64.0941 110.003 64.1962 110.991C64.2909 111.917 65.0724 112.607 65.9832 112.607C66.045 112.607 66.1078 112.603 66.1696 112.597L66.2193 112.592C67.2032 112.477 67.9013 111.589 67.7916 110.605C67.6811 109.622 66.7909 108.914 65.807 109.017Z" stroke="#A2C2C6" stroke-width="2" mask="url(#path-1-outside-1)"/>
<path d="M58.9198 109.244C58.9198 109.244 58.8945 109.243 58.8936 109.243C57.9022 109.198 57.0739 109.968 57.0289 110.96C56.9849 111.953 57.7645 112.793 58.7568 112.838C58.7849 112.84 58.8121 112.84 58.8402 112.84C59.7959 112.84 60.5924 112.088 60.6355 111.123C60.6805 110.13 59.9131 109.289 58.9198 109.244Z" stroke="#A2C2C6" stroke-width="2" mask="url(#path-1-outside-1)"/>
<path d="M45.406 106.611L45.3835 106.602C44.4483 106.267 43.4288 106.756 43.0934 107.691C42.757 108.626 43.2536 109.661 44.1888 109.997C44.3902 110.069 44.5954 110.103 44.7969 110.103C45.5344 110.103 46.2268 109.647 46.4901 108.912C46.8265 107.977 46.3411 106.946 45.406 106.611Z" stroke="#A2C2C6" stroke-width="2" mask="url(#path-1-outside-1)"/>
<path d="M72.5967 107.758L73.0399 109.501L72.5911 107.76C71.6288 108.007 71.0497 108.988 71.2971 109.95C71.506 110.762 72.2369 111.302 73.0381 111.302C73.187 111.302 73.3379 111.283 73.4888 111.243C73.4963 111.242 73.5281 111.233 73.5366 111.231C74.4914 110.971 75.0499 109.99 74.795 109.033C74.5401 108.077 73.5553 107.508 72.5967 107.758Z" stroke="#A2C2C6" stroke-width="2" mask="url(#path-1-outside-1)"/>
<path d="M79.1006 105.489L79.8137 107.14L79.095 105.491C78.1842 105.888 77.7672 106.948 78.1636 107.859C78.4588 108.536 79.1203 108.94 79.8147 108.94C80.0536 108.94 80.2982 108.892 80.5315 108.79C80.539 108.787 80.568 108.774 80.5755 108.771C81.4779 108.363 81.8761 107.306 81.4732 106.402C81.0703 105.497 80.0077 105.091 79.1006 105.489Z" stroke="#A2C2C6" stroke-width="2" mask="url(#path-1-outside-1)"/>
<path d="M38.5338 23.4765C38.8224 23.4765 39.1157 23.4072 39.3865 23.2629C40.2636 22.7953 40.5943 21.7056 40.1268 20.8285C39.6592 19.9524 38.5703 19.6197 37.6933 20.0882L37.6717 20.0995C36.7956 20.5671 36.4742 21.6512 36.9418 22.5283C37.2641 23.1336 37.8901 23.4765 38.5338 23.4765Z" stroke="#A2C2C6" stroke-width="2" mask="url(#path-1-outside-1)"/>
<path d="M17.7233 43.5711C17.9904 43.7108 18.2761 43.7773 18.5582 43.7773C19.2057 43.7773 19.8316 43.4268 20.153 42.8131L20.1849 42.7503C20.6234 41.8583 20.2561 40.7797 19.364 40.3421C18.4785 39.9055 17.4085 40.2653 16.9643 41.1452C16.5052 42.0241 16.8444 43.1101 17.7233 43.5711Z" stroke="#A2C2C6" stroke-width="2" mask="url(#path-1-outside-1)"/>
<path d="M15.1905 50.3393C15.3817 50.404 15.5756 50.4349 15.7677 50.4349C16.5173 50.4349 17.2173 49.9617 17.4712 49.2121L17.4947 49.1409C17.787 48.1916 17.2539 47.1843 16.3037 46.8929C15.362 46.6024 14.3622 47.1253 14.0614 48.0623C13.7456 49.0022 14.2507 50.0217 15.1905 50.3393Z" stroke="#A2C2C6" stroke-width="2" mask="url(#path-1-outside-1)"/>
<path d="M21.2728 37.2771C21.5923 37.5095 21.9624 37.6219 22.3297 37.6219C22.8854 37.6219 23.4345 37.3643 23.7859 36.8808L23.8093 36.8489C24.3865 36.0412 24.1982 34.9205 23.3923 34.3433C22.5855 33.7651 21.4611 33.9507 20.882 34.7565L22.3316 35.8228L20.8764 34.764C20.2917 35.568 20.4697 36.6933 21.2728 37.2771Z" stroke="#A2C2C6" stroke-width="2" mask="url(#path-1-outside-1)"/>
<path d="M32.4262 27.3624C32.8039 27.3624 33.1843 27.2434 33.5094 26.996C34.3115 26.4094 34.4849 25.2841 33.8983 24.482C33.3108 23.6799 32.1854 23.5065 31.3843 24.0931L31.3393 24.1259C30.5484 24.7265 30.391 25.8575 30.9916 26.6493C31.3458 27.116 31.8828 27.3624 32.4262 27.3624Z" stroke="#A2C2C6" stroke-width="2" mask="url(#path-1-outside-1)"/>
<path d="M13.5844 77.6237C13.8224 78.3968 14.5327 78.8925 15.3011 78.8925C15.4763 78.8925 15.6553 78.8663 15.8314 78.8119C16.776 78.5224 17.3091 77.5216 17.0262 76.5752C16.7554 75.6307 15.7762 75.076 14.8232 75.3355C13.8646 75.5969 13.2996 76.5865 13.561 77.545C13.5666 77.5638 13.5788 77.605 13.5844 77.6237Z" stroke="#A2C2C6" stroke-width="2" mask="url(#path-1-outside-1)"/>
<path d="M26.9915 32.1038C27.459 32.1038 27.9266 31.9229 28.2799 31.5631C28.9817 30.8603 28.9817 29.7209 28.2799 29.0191C27.5771 28.3163 26.4377 28.3163 25.7349 29.0191L25.7049 29.0491C25.0096 29.7584 25.0237 30.8959 25.733 31.5912C26.0825 31.9342 26.537 32.1038 26.9915 32.1038Z" stroke="#A2C2C6" stroke-width="2" mask="url(#path-1-outside-1)"/>
<path d="M15.5728 69.7799C15.4463 68.8025 14.5533 68.1091 13.5751 68.2253C12.5893 68.3434 11.8847 69.2383 12.0018 70.225L12.0121 70.2971C12.1433 71.191 12.9107 71.832 13.7887 71.832C13.8749 71.832 13.963 71.8254 14.052 71.8123C15.0312 71.6699 15.7106 70.7591 15.5728 69.7799Z" stroke="#A2C2C6" stroke-width="2" mask="url(#path-1-outside-1)"/>
<path d="M13.3127 64.6271C13.3314 64.6271 13.3492 64.6281 13.3671 64.6281C14.3359 64.6281 15.1362 63.8569 15.1643 62.8815L15.1662 62.8046C15.1662 61.8104 14.3603 61.0055 13.3671 61.0055C12.3804 61.0055 11.5801 61.7982 11.5679 62.7812C11.5417 63.7726 12.3223 64.5981 13.3127 64.6271Z" stroke="#A2C2C6" stroke-width="2" mask="url(#path-1-outside-1)"/>
<path d="M13.7072 57.412C13.8149 57.4308 13.9208 57.4401 14.0267 57.4401C14.8813 57.4401 15.6393 56.8282 15.7958 55.9577C15.8005 55.9315 15.8043 55.9053 15.808 55.879C15.9533 54.8961 15.2739 53.9815 14.29 53.8372C13.3183 53.6929 12.4085 54.361 12.252 55.3299C12.0814 56.3063 12.7317 57.2368 13.7072 57.412Z" stroke="#A2C2C6" stroke-width="2" mask="url(#path-1-outside-1)"/>
<path d="M98.574 37.845C98.9226 38.351 99.4829 38.6218 100.054 38.6218C100.406 38.6218 100.762 38.5187 101.073 38.3041C101.891 37.7419 102.098 36.6212 101.536 35.8022L100.04 36.803L101.53 35.7938C100.972 34.9711 99.853 34.7565 99.0313 35.314C98.2085 35.8716 97.994 36.9904 98.5515 37.8131L98.574 37.845Z" stroke="#A2C2C6" stroke-width="2" mask="url(#path-1-outside-1)"/>
<path d="M107.762 55.9493C106.774 56.0599 106.064 56.951 106.175 57.9386L106.185 58.0164C106.313 58.9131 107.083 59.5606 107.964 59.5606C108.048 59.5606 108.135 59.555 108.221 59.5428C109.196 59.4032 109.876 58.5046 109.75 57.5301C109.637 56.5453 108.743 55.8387 107.762 55.9493Z" stroke="#A2C2C6" stroke-width="2" mask="url(#path-1-outside-1)"/>
<path d="M104.726 50.8725L104.733 50.8959C104.964 51.6802 105.68 52.1881 106.458 52.1881C106.626 52.1881 106.796 52.1646 106.966 52.114C107.92 51.8339 108.465 50.8341 108.185 49.8802L108.178 49.8567C107.897 48.9028 106.898 48.3575 105.944 48.6386C104.991 48.9188 104.445 49.9186 104.726 50.8725Z" stroke="#A2C2C6" stroke-width="2" mask="url(#path-1-outside-1)"/>
<path d="M102.184 44.1455C102.498 44.7837 103.14 45.1557 103.807 45.1557C104.072 45.1557 104.342 45.0966 104.596 44.9711C105.487 44.5325 105.858 43.4606 105.418 42.5685L103.788 43.3285L105.416 42.5648C104.995 41.6652 103.923 41.2782 103.024 41.6999C102.124 42.1216 101.736 43.1926 102.158 44.0921L102.184 44.1455Z" stroke="#A2C2C6" stroke-width="2" mask="url(#path-1-outside-1)"/>
<path d="M94.0425 32.2265C94.3948 32.5863 94.8605 32.7663 95.3272 32.7663C95.7816 32.7663 96.2361 32.5957 96.5865 32.2518C97.2912 31.5622 97.3071 30.4349 96.6278 29.7246C95.9541 28.9985 94.8184 28.9544 94.0894 29.6272C93.3594 30.3009 93.3144 31.4394 93.9882 32.1694L94.0425 32.2265Z" stroke="#A2C2C6" stroke-width="2" mask="url(#path-1-outside-1)"/>
<path d="M108.346 63.4615C107.358 63.4362 106.53 64.2111 106.496 65.1997C106.451 66.1845 107.207 67.0231 108.193 67.0784C108.227 67.0803 108.26 67.0812 108.295 67.0812C109.242 67.0812 110.036 66.34 110.089 65.3814L110.092 65.3074C110.12 64.3151 109.339 63.4905 108.346 63.4615Z" stroke="#A2C2C6" stroke-width="2" mask="url(#path-1-outside-1)"/>
<path d="M82.5377 23.3922L82.5808 23.4156C82.8488 23.5581 83.1364 23.6255 83.4194 23.6255C84.0594 23.6255 84.6788 23.2807 85.0039 22.6763C85.4724 21.8039 85.1426 20.7132 84.273 20.241L83.4025 21.8152L84.2674 20.2372C83.396 19.7593 82.3025 20.0789 81.8246 20.9503C81.3476 21.8208 81.6662 22.9153 82.5377 23.3922Z" stroke="#A2C2C6" stroke-width="2" mask="url(#path-1-outside-1)"/>
<path d="M88.6227 27.338L88.6508 27.3596C88.976 27.606 89.3574 27.725 89.7369 27.725C90.2803 27.725 90.8173 27.4795 91.1715 27.0129C91.7721 26.2211 91.6165 25.0929 90.8257 24.4923L90.8135 24.4838C90.0255 23.8785 88.8963 24.0266 88.291 24.8146C87.6857 25.6027 87.8347 26.7327 88.6227 27.338Z" stroke="#A2C2C6" stroke-width="2" mask="url(#path-1-outside-1)"/>
<path d="M123.299 90.6983L114.853 82.2378C114.134 81.5182 113.18 81.1218 112.163 81.1218C111.147 81.1218 110.191 81.5182 109.474 82.2378L109.278 82.4337L108.723 81.8789C108.038 81.1921 107.508 80.3928 107.148 79.5223C107.116 79.407 107.074 79.2946 107.02 79.1887C106.744 78.4147 106.601 77.5911 106.601 76.7449V74.3518C106.765 74.438 106.944 74.5007 107.136 74.5335C107.239 74.5513 107.341 74.5598 107.442 74.5598C108.296 74.5598 109.051 73.9507 109.209 73.0849C109.402 72.1123 108.771 71.1668 107.797 70.9719C107.369 70.8866 106.946 70.9606 106.59 71.1537C106.479 68.5975 105.434 66.2099 103.616 64.3883L95.4229 56.1808C93.5845 54.3396 91.1397 53.3257 88.5395 53.3257C86.5267 53.3257 84.6096 53.9357 82.9923 55.0648L82.1227 54.1906V33.6134C82.1227 31.1331 81.2222 28.7399 79.588 26.8761C78.4252 25.5512 77.7852 23.8495 77.7852 22.0841V20.5765H77.9089C80.0059 20.5765 81.7123 18.8701 81.7123 16.7721V4.80435C81.7123 2.70633 80.0059 1 77.9089 1H44.3022C42.2051 1 40.4988 2.70633 40.4988 4.80435V16.7721C40.4988 18.8701 42.2051 20.5765 44.3022 20.5765H44.5796V21.3654C44.5796 23.3051 43.8253 25.1286 42.4563 26.4994L38.829 30.1332C36.9044 32.0617 35.8446 34.6244 35.8446 37.3512V48.9582C35.8446 50.5352 36.2231 52.0242 36.8894 53.3435C34.5037 53.4813 32.2801 54.4754 30.5766 56.1808L22.3832 64.3883C20.4585 66.3167 19.3987 68.8804 19.3987 71.6063V76.7449C19.3987 78.6846 18.6454 80.5081 17.2764 81.8789L16.7282 82.428C16.7254 82.4299 16.7235 82.4318 16.7216 82.4337L16.5267 82.2378C15.808 81.5182 14.8532 81.1218 13.8365 81.1218C12.8208 81.1218 11.865 81.5182 11.1472 82.2378L2.70084 90.6983C1.22033 92.1816 1.22033 94.5954 2.70084 96.0787L5.59345 98.9751C6.29529 99.6788 7.43472 99.6797 8.13749 98.9779C8.84027 98.2751 8.84214 97.1366 8.13937 96.4329L5.24769 93.5356C5.16617 93.4541 5.16617 93.322 5.24769 93.2404L13.6941 84.78C13.7728 84.7013 13.9012 84.7003 13.9799 84.78L15.4482 86.2511H15.4492L37.7449 108.586C37.8264 108.668 37.8264 108.8 37.7449 108.881L29.2994 117.342C29.2198 117.421 29.0914 117.421 29.0127 117.342L13.2331 101.535C12.5312 100.831 11.3918 100.83 10.689 101.532C9.98532 102.235 9.98438 103.373 10.6862 104.077L26.4668 119.884C27.1845 120.604 28.1403 121 29.157 121C30.1727 121 31.1276 120.604 31.8463 119.884L40.2917 111.424C41.7722 109.941 41.7722 107.527 40.2917 106.044L40.1999 105.952L41.2653 104.885C42.5097 103.638 44.1626 102.888 45.9195 102.775C48.3924 102.615 50.719 101.559 52.4703 99.8043L60.229 92.0289C62.4666 91.4413 64.2085 89.6188 64.6817 87.3362C65.4791 87.7157 66.3703 87.9293 67.311 87.9293C70.6947 87.9293 73.4477 85.1735 73.4477 81.7852V77.5133C74.2216 77.8666 75.0809 78.0652 75.9861 78.0652C79.3697 78.0652 82.1218 75.3094 82.1218 71.9211V59.2918L87.6559 64.8531C88.0072 65.2063 88.4692 65.3825 88.9312 65.3825C89.3903 65.3825 89.8495 65.2082 90.2008 64.8587C90.9045 64.1578 90.9074 63.0193 90.2065 62.3147L85.5925 57.6782C86.4855 57.1863 87.4919 56.9239 88.5395 56.9239C90.1774 56.9239 91.7179 57.563 92.8761 58.7239L101.069 66.9305C102.316 68.1795 103.003 69.84 103.003 71.6063V76.7449C103.003 79.6451 104.13 82.3709 106.176 84.4211L106.735 84.9805L88.3418 103.405L87.4619 102.524C87.4525 102.515 87.4441 102.506 87.4347 102.497L87.2801 102.342C85.4173 100.476 82.9426 99.3546 80.3133 99.184C78.7138 99.08 77.2089 98.3979 76.0704 97.2584L70.1587 91.3786C69.454 90.6777 68.3146 90.6805 67.6137 91.3851C66.9137 92.0898 66.9165 93.2292 67.6212 93.9292L73.5292 99.8043C75.2805 101.559 77.6071 102.615 80.0809 102.775C81.8369 102.888 83.4898 103.638 84.7342 104.884L84.8213 104.971C84.8682 105.025 84.9179 105.074 84.9703 105.121L85.7996 105.951L85.7078 106.044C84.2273 107.527 84.2273 109.94 85.7078 111.424L94.1532 119.884C94.8719 120.604 95.8268 121 96.8435 121C97.8592 121 98.815 120.604 99.5337 119.884L123.299 96.0778C124.779 94.5945 124.779 92.1816 123.299 90.6983ZM107.807 72.8085L107.773 72.8028L107.445 72.7363L107.807 72.8085ZM49.9235 97.2622C48.7906 98.3979 47.2857 99.08 45.6872 99.184C43.0569 99.3546 40.5822 100.476 38.7194 102.342L37.6577 103.405L36.702 102.448C36.6898 102.436 36.6776 102.422 36.6654 102.411L19.2647 84.9805L19.8232 84.4211C21.8697 82.3709 22.9969 79.6451 22.9969 76.7449V71.6063C22.9969 69.84 23.6828 68.1795 24.93 66.9305L33.1234 58.7239C34.2816 57.563 35.8221 56.9239 37.46 56.9239C38.5104 56.9239 39.5206 57.1882 40.4164 57.6838L35.7949 62.3128C35.0931 63.0156 35.094 64.155 35.7968 64.8568C36.1482 65.2073 36.6083 65.3825 37.0683 65.3825C37.5294 65.3825 37.9904 65.2063 38.3418 64.8549L43.8618 59.3246V81.7852C43.8618 85.1735 46.6148 87.9293 49.9984 87.9293C50.9523 87.9293 51.8556 87.7101 52.6615 87.3203C53.0269 89.1034 54.1664 90.6064 55.7106 91.4629L49.9235 97.2622ZM78.5245 71.922C78.5245 73.3257 77.3851 74.4679 75.9861 74.4679C74.5861 74.4679 73.4477 73.3257 73.4477 71.922V51.8536C73.4477 50.8604 72.6427 50.0545 71.6486 50.0545C70.6544 50.0545 69.8494 50.8604 69.8494 51.8536V81.7862C69.8494 83.1898 68.711 84.3311 67.311 84.3311C66.0545 84.3311 65.0116 83.411 64.8101 82.2069V51.833C64.8101 50.8388 64.0052 50.0339 63.011 50.0339C62.6915 50.0339 62.3907 50.1183 62.1302 50.2644C61.5614 50.5671 61.1744 51.1649 61.1744 51.8536V81.7852C61.1744 82.0139 61.1875 82.2378 61.2119 82.4599V86.0853C61.2119 87.4889 60.0734 88.6312 58.6735 88.6312C57.2745 88.6312 56.136 87.4889 56.136 86.0853V51.8115C56.136 50.8182 55.3302 50.0124 54.3369 50.0124C53.3427 50.0124 52.5369 50.8182 52.5369 51.8115V81.7852C52.5369 83.1889 51.3984 84.3311 49.9994 84.3311C48.5995 84.3311 47.461 83.1889 47.461 81.7852V48.3192C47.461 47.325 46.6551 46.5191 45.6619 46.5191C44.6677 46.5191 43.8628 47.325 43.8628 48.3192V54.5092C43.7119 54.5579 43.5657 54.6263 43.4298 54.7163C41.1032 53.842 39.4428 51.5913 39.4428 48.9582V37.3512C39.4428 35.5849 40.1296 33.9245 41.3759 32.6754L45.0031 29.0416C47.0505 26.9914 48.1778 24.2656 48.1778 21.3654V20.5765H51.7947C52.7889 20.5765 53.5938 19.7706 53.5938 18.7774C53.5938 17.7832 52.7889 16.9783 51.7947 16.9783H44.3022C44.1888 16.9783 44.097 16.8855 44.097 16.7721V4.80435C44.097 4.69097 44.1888 4.5982 44.3022 4.5982H77.9079C78.0222 4.5982 78.1141 4.69097 78.1141 4.80435V16.7721C78.1141 16.8864 78.0222 16.9783 77.9079 16.9783H60.2411C59.2479 16.9783 58.442 17.7832 58.442 18.7774C58.442 19.7706 59.2479 20.5765 60.2411 20.5765H74.187V22.0841C74.187 24.7228 75.1437 27.2669 76.8819 29.2496C77.9407 30.4565 78.5245 32.0064 78.5245 33.6134V71.922ZM120.752 93.5356L96.9868 117.342C96.9475 117.382 96.8997 117.402 96.8435 117.402C96.7882 117.402 96.7404 117.382 96.7001 117.342L88.2546 108.881C88.1731 108.8 88.1731 108.668 88.2546 108.586L89.6143 107.224L112.02 84.78C112.098 84.7003 112.227 84.7003 112.305 84.78L120.752 93.2404C120.833 93.322 120.833 93.4541 120.752 93.5356Z" stroke="#A2C2C6" stroke-width="2" mask="url(#path-1-outside-1)"/>
<path d="M49.9984 8.86918C48.9423 8.86918 48.0831 9.73031 48.0831 10.7882C48.0831 11.8471 48.9423 12.7073 49.9984 12.7073C51.0553 12.7073 51.9146 11.8471 51.9146 10.7882C51.9146 9.73031 51.0553 8.86918 49.9984 8.86918Z" stroke="#A2C2C6" stroke-width="2" mask="url(#path-1-outside-1)"/>
<path d="M112.751 90.8799C111.694 90.8799 110.835 91.741 110.835 92.7989C110.835 93.8568 111.694 94.718 112.751 94.718C113.807 94.718 114.667 93.8568 114.667 92.7989C114.667 91.741 113.807 90.8799 112.751 90.8799Z" stroke="#A2C2C6" stroke-width="2" mask="url(#path-1-outside-1)"/>
<path d="M31.5717 109.234C31.5717 108.177 30.7124 107.315 29.6564 107.315C28.5994 107.315 27.7401 108.177 27.7401 109.234C27.7401 110.292 28.5994 111.153 29.6564 111.153C30.7124 111.153 31.5717 110.292 31.5717 109.234Z" stroke="#A2C2C6" stroke-width="2" mask="url(#path-1-outside-1)"/>
</svg>
