<svg xmlns="http://www.w3.org/2000/svg" viewBox="0 0 217 217"><defs><style>.cls-1{fill:#006247;}</style></defs><g id="Oracle"><path class="cls-1" d="M108.5,15.35A62,62,0,0,0,79.19,132v34.65H137.8V132A62,62,0,0,0,108.5,15.35Zm15.91,108.19v29.75h-9.07v-52.6l20-20-9.47-9.48L108.57,88.51,91.28,71.22,81.8,80.7l20,20v52.6H92.59V123.54l-4-1.78a48.63,48.63,0,1,1,39.74,0Z"/><path class="cls-1" d="M79.33,181.45a20.22,20.22,0,0,0,20.2,20.2h18.19a20.22,20.22,0,0,0,20.2-20.2V169H79.33Zm38.39,6.81H99.53a6.83,6.83,0,0,1-6.74-5.84h31.67A6.81,6.81,0,0,1,117.72,188.26Z"/></g></svg>