<svg xmlns="http://www.w3.org/2000/svg" viewBox="0 0 217 217"><defs><style>.cls-1{fill:#006247;}</style></defs><g id="Oracle"><path class="cls-1" d="M108.5,18.59a89.91,89.91,0,1,0,89.91,89.91A90,90,0,0,0,108.5,18.59Zm0,166.42A76.51,76.51,0,1,1,185,108.5,76.59,76.59,0,0,1,108.5,185Z"/><path class="cls-1" d="M138.71,82.59l-9.47,9.47,1.06,1.07a30.83,30.83,0,1,1-43.6,0l1.06-1.07-9.47-9.47-1.06,1.06a44.21,44.21,0,1,0,62.54,0Z"/><rect class="cls-1" x="101.8" y="63.04" width="13.4" height="51.6"/></g></svg>