<svg width="29" height="36" viewBox="0 0 29 36" fill="none" xmlns="http://www.w3.org/2000/svg">
<path d="M0.478516 0.174805V35.7868H19.8667V27.4773H28.1762V0.174805H0.478516ZM6.41387 4.13175C6.93848 4.13175 7.44157 4.34016 7.81255 4.71103C8.18387 5.08201 8.39218 5.58545 8.39218 6.11016C8.39218 6.63477 8.18387 7.1382 7.81255 7.50918C7.44157 7.88016 6.93848 8.08846 6.41387 8.08846C5.88882 8.08846 5.38572 7.88016 5.01474 7.50918C4.64387 7.1382 4.43512 6.63477 4.43512 6.11016C4.43512 5.58545 4.64387 5.08201 5.01474 4.71103C5.38572 4.34016 5.88893 4.13175 6.41387 4.13175ZM6.41387 9.07779C7.20078 9.07779 7.95565 9.39046 8.51206 9.94688C9.06882 10.5036 9.3815 11.2585 9.3815 12.0455H3.44614C3.44614 11.2585 3.75882 10.5036 4.31523 9.94688C4.87176 9.39046 5.62651 9.07779 6.41387 9.07779ZM25.2094 24.9057H3.44614V23.9164H25.2094V24.9057ZM25.2094 20.9486H3.44614V19.9593H25.2094V20.9486ZM25.2094 16.9917H3.44614V16.0027H25.2094V16.9917ZM25.2094 12.0456H11.3605L11.3601 11.0563H25.209L25.2094 12.0456ZM25.2094 8.08858H11.3605L11.3601 7.0996H25.209L25.2094 8.08858Z" fill="white"/>
<path d="M20.8442 35.7862L28.1764 28.4541H20.8442V35.7862Z" fill="white"/>
<path d="M13.3376 12.3098C12.8832 12.0475 12.3433 11.9766 11.8366 12.1124C11.3298 12.2482 10.8976 12.5797 10.6353 13.0341H14.0619C13.888 12.7334 13.6383 12.4837 13.3376 12.3098Z" fill="white"/>
</svg>
