<svg width="37" height="36" viewBox="0 0 37 36" fill="none" xmlns="http://www.w3.org/2000/svg">
<path d="M10.5949 0.675466V10.5416C10.5936 10.6792 10.4822 10.7903 10.3446 10.7918H0.478516V35.5305H26.9169V24.5834L25.3096 27.4948H25.3099C25.2838 27.5377 25.2475 27.5738 25.2043 27.6L20.291 30.88C20.1922 30.9438 20.066 30.9473 19.9637 30.8894C19.8611 30.8311 19.7996 30.7209 19.8037 30.6032L19.962 24.7149H19.9616C19.9631 24.6643 19.9767 24.6146 20.0014 24.5702L26.9171 12.0695V0.674561H10.5955L10.5949 0.675466ZM10.0944 1.01803L0.833422 10.2918H10.0944V1.01803ZM32.1195 3.95543L20.8036 24.4261L21.6204 24.3999L32.7518 4.29811L32.1195 3.95543ZM33.305 4.61407L22.1607 24.7031L22.5427 25.3354L33.8586 4.91735L33.3052 4.61441L33.305 4.61407ZM18.0907 5.22007H18.0904C18.0995 5.22426 18.1083 5.22833 18.1168 5.23332H22.319C22.3915 5.22279 22.4653 5.24418 22.5209 5.29218C22.5765 5.3403 22.6086 5.41003 22.6086 5.4835C22.6086 5.55709 22.5765 5.62705 22.5209 5.67494C22.4653 5.72294 22.3915 5.74467 22.319 5.73381H18.1168C17.9869 5.73437 17.8778 5.63679 17.8643 5.50739C17.8504 5.37833 17.9369 5.25981 18.0642 5.23332C18.0728 5.22833 18.0816 5.22426 18.0904 5.22007H18.0907ZM34.4123 5.22007L23.0836 25.6644L24.0056 25.6774L35.1236 5.61471L34.4124 5.2195L34.4123 5.22007ZM35.677 5.91811L24.5326 26.0199L25.007 26.7444L36.3229 6.27381L35.677 5.91811ZM14.8902 10.2917H14.8898C14.9075 10.29 14.9252 10.29 14.9425 10.2917C14.9513 10.2914 14.9601 10.2914 14.969 10.2917H22.3195C22.4613 10.2917 22.5765 10.4067 22.5765 10.5486C22.5765 10.6904 22.4613 10.8056 22.3195 10.8056H14.969C14.8269 10.8275 14.6943 10.7301 14.6725 10.588C14.6507 10.4464 14.7478 10.3135 14.8898 10.2917H14.8902ZM5.04961 15.3104L5.04927 15.3106C5.05844 15.3144 5.06727 15.3189 5.07576 15.3236H22.3187H22.3184C22.4605 15.3236 22.5754 15.4389 22.5754 15.5806C22.5754 15.7226 22.4605 15.8376 22.3184 15.8376H5.07542H5.07576C4.9338 15.852 4.80701 15.7487 4.79229 15.607C4.77791 15.465 4.88116 15.3382 5.02289 15.3236C5.03138 15.3189 5.04021 15.3144 5.04927 15.3106L5.04961 15.3104ZM4.99697 20.3686L4.99663 20.3689C5.02289 20.3649 5.04961 20.3649 5.07576 20.3689H20.5799C20.7205 20.3708 20.8333 20.4851 20.8333 20.6257C20.8333 20.7665 20.7205 20.8809 20.5799 20.8827H5.07576C4.93437 20.9032 4.80316 20.8059 4.78142 20.6651C4.75969 20.5239 4.8558 20.3919 4.99663 20.3689L4.99697 20.3686ZM21.6212 25.0185L20.5806 25.0582L20.4883 28.3382C20.8841 28.3258 21.1952 28.4252 21.4104 28.6016C21.6099 28.7654 21.7194 28.948 21.8188 29.1021L24.5718 27.258L23.9658 26.3093L22.675 26.2831L22.6748 26.2837C22.5815 26.3323 22.4701 26.3314 22.3775 26.2813C22.2851 26.2311 22.2236 26.1382 22.2137 26.0335L21.6209 25.019L21.6212 25.0185ZM5.04961 25.4137L5.04938 25.414C5.05844 25.4179 5.06727 25.4223 5.07587 25.4269H17.9853C18.0578 25.4164 18.1316 25.4378 18.1872 25.486C18.2428 25.534 18.2749 25.604 18.2749 25.6775C18.2749 25.7507 18.2428 25.8207 18.1872 25.8686C18.1316 25.9168 18.0578 25.9383 17.9853 25.9277H5.07587C4.9458 25.9283 4.83678 25.8304 4.82319 25.7012C4.80972 25.572 4.89587 25.4534 5.02323 25.4269C5.03172 25.4223 5.04055 25.4179 5.04938 25.414L5.04961 25.4137ZM20.6727 28.9572C20.6169 28.953 20.5483 28.9642 20.4752 28.9701L20.4487 30.0107L21.2916 29.4443C21.1929 29.2974 21.1053 29.1627 21.0149 29.0885C20.9338 29.023 20.8403 28.9663 20.6724 28.9569L20.6727 28.9572ZM4.99697 30.472V30.4724C5.01429 30.4706 5.03195 30.4706 5.04961 30.4724C5.05844 30.472 5.06727 30.472 5.0761 30.4724H18.8549H18.8546C18.9967 30.4724 19.1116 30.5873 19.1116 30.7294C19.1116 30.8711 18.9967 30.986 18.8546 30.986H5.07576H5.0761C4.93436 31.0077 4.80168 30.9105 4.77995 30.7687C4.75821 30.627 4.85523 30.4943 4.99697 30.4724V30.472Z" fill="white"/>
</svg>
