<svg width="39" height="39" viewBox="0 0 39 39" fill="none" xmlns="http://www.w3.org/2000/svg">
<path d="M31.8184 34.5866C28.3832 34.5866 25.5728 31.776 25.5728 28.341V26.4673H26.8219V28.341C26.8219 31.0891 29.0703 33.3375 31.8184 33.3375C34.5664 33.3375 36.8148 31.0891 36.8148 28.341V26.4673H38.064V28.341C38.064 31.776 35.2535 34.5866 31.8184 34.5866Z" fill="white"/>
<path d="M31.1938 33.9619H32.4429V38.3339H31.1938V33.9619Z" fill="white"/>
<path d="M33.0678 28.9653V27.7162H35.566V26.467H33.0678V25.2179H35.566V23.9689H33.0678V22.7198H35.5036C35.1912 20.9709 33.6923 19.5969 31.8187 19.5969C29.945 19.5969 28.446 20.9709 28.1338 22.7198H30.5696V23.9689H28.0713V25.2179H30.5696V26.467H28.0713V27.7162H30.5696V28.9653H28.1338C28.446 30.7141 29.945 32.0881 31.8187 32.0881C33.6923 32.0881 35.1912 30.7141 35.5036 28.9653H33.0678Z" fill="white"/>
<path d="M24.9482 0.860107H2.46396C1.4023 0.860107 0.590332 1.67203 0.590332 2.73381V15.8496C0.590332 16.9114 1.4023 17.7233 2.46396 17.7233H18.078L24.3237 22.7822V17.7233H24.9482C26.01 17.7233 26.8219 16.9114 26.8219 15.8496V2.73381C26.8219 1.67203 26.01 0.860107 24.9482 0.860107ZM3.08853 5.85652H13.0816V7.10565H3.08853V5.85652ZM20.5763 14.6004H3.08853V13.3513H20.5763V14.6004ZM23.0745 12.1022H3.08853V10.853H23.0745V12.1022ZM24.3237 9.60392H3.08853V8.35479H24.3237V9.60392ZM14.3307 7.10565V5.85652H23.0745V7.10565H14.3307ZM24.3237 4.6075H3.08853V3.35837H24.3237V4.6075Z" fill="white"/>
</svg>
