<svg width="37" height="37" viewBox="0 0 37 37" fill="none" xmlns="http://www.w3.org/2000/svg">
<path fill-rule="evenodd" clip-rule="evenodd" d="M20.5738 0.487717C25.96 1.18666 30.6358 4.17647 33.5757 8.80111C34.0185 9.49779 34.8804 11.2629 35.1891 12.1053C35.5344 13.0473 35.9023 14.4867 36.0835 15.6036C36.305 16.9707 36.305 19.5664 36.0835 20.9335C35.9023 22.0504 35.5344 23.4899 35.1891 24.4318C34.8804 25.2742 34.0185 27.0393 33.5757 27.736C30.8887 31.9628 26.7127 34.8571 21.9063 35.8235C20.5397 36.0983 19.5453 36.1738 17.847 36.1318C16.1924 36.0909 15.265 35.9666 13.8267 35.5929C7.15352 33.8588 2.00677 28.3189 0.766352 21.5353C0.593144 20.5875 0.472239 19.6096 0.535975 19.6711C0.579786 19.7133 0.783446 20.4931 1.0856 21.775C1.20843 22.2957 1.36658 22.8904 1.43733 23.0965C1.70903 23.8887 2.43752 25.5381 2.61922 25.7723C2.72394 25.9073 2.86613 26.1272 2.93518 26.2609C3.12231 26.6229 4.1422 27.9215 4.36273 28.0785C4.46812 28.1536 4.73473 28.276 4.95514 28.3504L5.35579 28.4856L5.35511 28.3387C5.35477 28.2579 5.2788 28.0293 5.18631 27.8307C5.09382 27.6321 4.98254 27.2375 4.93907 26.9541C4.89548 26.6706 4.79937 26.2334 4.72533 25.9827C4.64065 25.6959 4.56945 25.1499 4.53311 24.51L4.47548 23.4932L4.12952 22.7568C3.8096 22.0758 3.78141 21.9724 3.75526 21.3816C3.71948 20.573 3.81209 20.1348 4.17311 19.4033L4.46111 18.8199L4.33737 18.5455C4.20062 18.2425 4.22496 17.6066 4.38684 17.2515C4.46643 17.077 4.4979 17.0647 4.77028 17.1019C5.06088 17.1418 5.07028 17.1366 5.22978 16.8465C5.44703 16.4517 5.62556 16.4375 6.27265 16.7633C6.73058 16.9941 6.81786 17.015 7.14797 16.9737C7.40914 16.9411 7.58994 16.9594 7.77628 17.0372C8.18677 17.2087 8.38737 17.1761 8.7296 16.8819C8.89896 16.7364 9.15797 16.5281 9.30503 16.4191C9.45209 16.3101 9.62473 16.1056 9.68869 15.9649C9.83133 15.6506 10.4784 14.9332 10.5959 14.9589C10.643 14.9692 10.7009 14.8898 10.7245 14.7822C10.7481 14.6748 10.8096 14.4545 10.8612 14.2927C10.9339 14.0646 10.9382 13.8994 10.8804 13.5564C10.8127 13.1539 10.8227 13.0616 10.9913 12.5319C11.2131 11.8347 11.2203 11.6439 11.036 11.3416C10.959 11.2154 10.896 11.0399 10.896 10.9518C10.896 10.8636 10.8496 10.7303 10.793 10.6555C10.7364 10.5806 10.689 10.4679 10.6879 10.405C10.6866 10.3422 10.5454 10.176 10.3743 10.0355L10.0628 9.78047L10.1014 9.30828C10.1377 8.86564 10.1286 8.82568 9.95699 8.66628C9.8448 8.56191 9.77394 8.42108 9.77394 8.30221C9.77394 8.03945 9.71326 8.01851 9.34024 8.15266C9.0211 8.26745 9.01986 8.26723 8.79639 8.07919C8.55345 7.87474 8.04809 7.71047 7.49711 7.6567C7.16846 7.62466 7.13394 7.63768 6.88352 7.88821C6.71745 8.05417 6.61816 8.21934 6.61816 8.32949C6.61816 8.46942 6.56054 8.52851 6.33628 8.61817C6.18118 8.68021 6.01001 8.73104 5.95579 8.73104C5.90179 8.73104 5.7682 8.80417 5.65929 8.89349C5.55016 8.98281 5.32307 9.12274 5.1545 9.20447L4.84805 9.35289L4.8939 9.00693C4.91926 8.81628 4.91179 8.66085 4.87714 8.66085C4.84273 8.66085 4.62865 8.75515 4.40145 8.8704C3.97216 9.08809 3.81299 9.12761 3.81299 9.01644C3.81299 8.98055 3.75118 8.94104 3.67556 8.92881C3.55114 8.90855 3.57016 8.8507 3.87413 8.32451C4.23016 7.7081 4.44413 7.43708 4.44413 7.60247C4.44413 7.67504 4.46643 7.67775 4.5425 7.6147C4.61801 7.55198 4.64869 7.55402 4.6745 7.62353C4.69579 7.68081 4.87805 7.54802 5.16888 7.26376C5.42224 7.01594 5.60835 6.77923 5.58243 6.73779C5.5565 6.69613 5.52571 6.60104 5.51405 6.52621C5.4819 6.31926 5.4399 6.30817 5.20782 6.44526L4.99409 6.57149L5.10277 6.36149C5.24179 6.09251 5.7348 5.70081 5.9662 5.67534C6.18775 5.651 6.35858 5.50508 6.16545 5.50508C6.03933 5.50508 6.03933 5.50066 6.16714 5.35949C6.24016 5.27877 6.31024 5.24753 6.32416 5.2893C6.33797 5.33085 6.3948 5.36481 6.4505 5.36481C6.60911 5.36481 6.38495 5.74394 5.9619 6.19134C5.62001 6.55281 5.60982 6.57455 5.73854 6.66874C5.8128 6.72308 5.90631 6.76745 5.94628 6.76745C5.98624 6.76745 5.86975 6.90443 5.68737 7.07187C5.33088 7.39926 5.22175 7.68557 5.51303 7.52979C5.59941 7.48349 5.90711 7.20364 6.19669 6.90794C6.69752 6.39647 7.28065 5.95202 7.80299 5.68349C8.02318 5.57028 8.03778 5.56994 7.9959 5.67908C7.97099 5.74394 7.95062 5.80915 7.95062 5.82387C7.95062 5.88364 7.12092 6.40643 6.80575 6.54511C6.61975 6.62708 6.48718 6.72568 6.51107 6.76428C6.53496 6.803 6.51741 6.90625 6.47201 6.99387C6.39537 7.14172 6.40397 7.13991 6.59145 6.9676C6.8088 6.76791 7.62356 6.23277 8.01571 6.03228C8.23624 5.91953 8.26284 5.91874 8.33892 6.02289C8.38907 6.09138 8.52299 6.13621 8.67707 6.13621C8.9653 6.13621 8.96292 6.13281 8.8479 6.38515C8.77613 6.54274 8.78145 6.58055 8.88299 6.63738C9.02394 6.71628 9.03299 6.84851 8.91922 7.16311C8.81496 7.45157 8.94548 7.74919 9.17631 7.74919C9.25884 7.74919 9.38699 7.79357 9.46114 7.84779C9.57707 7.93259 9.62292 7.93259 9.78673 7.84779C9.89156 7.79357 10.0408 7.74919 10.1183 7.74919C10.1959 7.74919 10.2927 7.70979 10.3335 7.66157C10.6249 7.31719 10.6856 7.22198 10.6856 7.10889C10.6856 7.03847 10.7707 6.80753 10.8747 6.5956C10.9786 6.38368 11.0496 6.19632 11.0324 6.17934C11.0153 6.16236 10.767 6.17425 10.4808 6.20572C9.88386 6.27138 9.77394 6.24704 9.77394 6.04938C9.77394 5.86179 10.1506 5.51594 10.6109 5.28047C10.963 5.10047 10.9725 5.08859 10.799 5.04511C10.6986 5.01987 10.6325 4.97334 10.6521 4.94164C10.6717 4.90994 10.6164 4.87383 10.5295 4.86138C10.3962 4.84247 10.3678 4.78949 10.3495 4.52481C10.3376 4.35217 10.2784 4.15621 10.2179 4.08953C10.117 3.97791 10.1293 3.94836 10.3726 3.71889C10.5181 3.58179 10.6157 3.44821 10.5897 3.42217C10.5637 3.39625 10.4078 3.50708 10.2432 3.66862C10.0021 3.90523 9.89416 3.96228 9.68779 3.96228C9.54684 3.96228 9.41077 3.92855 9.38529 3.88734C9.35982 3.84613 9.29484 3.82938 9.24084 3.85009C9.05767 3.9204 9.14099 3.69251 9.35405 3.54092C9.47009 3.45817 9.54933 3.36489 9.52986 3.33342C9.5105 3.30206 9.57062 3.22655 9.66345 3.16575C9.77496 3.09262 9.82035 3.01021 9.79737 2.92236C9.7762 2.84153 9.80609 2.7727 9.87345 2.74689C9.93446 2.72357 9.98428 2.7316 9.98428 2.76477C9.98428 2.87289 10.1914 2.90809 10.388 2.83338C10.4937 2.79319 10.7379 2.64024 10.9309 2.49353C11.2913 2.21934 11.5973 2.03764 11.5973 2.09787C11.5973 2.19274 11.0952 2.59213 10.7558 2.76738C10.3636 2.96968 10.1703 3.143 9.95043 3.48885C9.77348 3.76757 9.95428 3.74583 10.3048 3.44628C10.6364 3.16304 10.89 3.06772 10.9695 3.19643C11.0144 3.26877 11.0823 3.26153 11.3063 3.16043C11.6137 3.02187 11.8597 2.78877 12.0698 2.43704C12.1446 2.31172 12.3213 2.08428 12.4626 1.93157C12.6038 1.77896 12.7194 1.637 12.7194 1.61606C12.7194 1.59511 12.5776 1.57791 12.4045 1.57791C12.0696 1.57791 11.4469 1.78236 11.2562 1.955C11.0716 2.12198 10.7688 2.21685 10.7123 2.12538C10.683 2.07783 10.6957 2.06674 10.7449 2.09719C10.7894 2.1247 10.8259 2.11904 10.8259 2.08474C10.8259 2.05032 11.0862 1.90983 11.4045 1.77262C12.6227 1.247 14.0043 0.846471 15.4894 0.588471C16.5825 0.398509 19.4489 0.341679 20.5738 0.487717ZM17.2239 0.792472C17.2071 0.842623 17.0705 0.961377 16.92 1.05636C16.7685 1.15202 16.6465 1.28492 16.6465 1.35443C16.6465 1.42338 16.6087 1.51757 16.5624 1.56387C16.497 1.6293 16.5398 1.65024 16.7552 1.65794L17.0322 1.66791L16.7525 1.71058L16.4725 1.75326L16.7525 1.86953C17.3271 2.1084 17.8105 2.27968 18.0316 2.32258C18.157 2.34692 18.2595 2.40025 18.2595 2.44111C18.2595 2.48198 18.3271 2.65496 18.4096 2.82557C18.5518 3.11923 18.5727 3.13372 18.7983 3.09715C19.5066 2.98225 20.0659 2.19115 19.6464 1.89749C19.5184 1.80772 19.5122 1.78824 19.6114 1.78824C19.6779 1.78824 19.7322 1.75677 19.7322 1.71817C19.7322 1.67957 19.6613 1.64753 19.5744 1.64696C19.4513 1.64617 19.4389 1.63179 19.5185 1.58141C19.5745 1.54598 19.6468 1.5333 19.679 1.55334C19.7114 1.57338 19.7165 1.50477 19.6905 1.40085C19.6339 1.17545 19.7367 1.08953 20.0653 1.08806C20.4054 1.08647 20.3405 0.97066 19.9601 0.900245C19.777 0.866282 19.6587 0.818509 19.6973 0.794057C19.736 0.769604 20.0042 0.825075 20.2934 0.91734C20.5827 1.0096 20.9199 1.08557 21.043 1.08602C21.1661 1.08659 21.2862 1.11851 21.3101 1.15711C21.3664 1.24824 21.8148 1.24824 21.8712 1.15711C21.897 1.11523 21.8104 1.08704 21.6556 1.08704C21.5133 1.08704 21.2926 1.02262 21.1652 0.943829C20.7976 0.716622 20.4284 0.677113 18.7913 0.689565C17.6001 0.698622 17.2473 0.72183 17.2239 0.792472ZM15.3667 0.852924C15.4148 0.872396 15.4937 0.872396 15.5421 0.852924C15.5902 0.833453 15.5508 0.817603 15.4544 0.817603C15.3579 0.817603 15.3185 0.833453 15.3667 0.852924ZM22.5564 1.12938C22.5796 1.15258 22.6402 1.15519 22.6908 1.13492C22.7467 1.11251 22.7301 1.09587 22.6483 1.09247C22.5744 1.08953 22.5331 1.10606 22.5564 1.12938ZM22.0464 1.15711C22.0464 1.19572 22.0939 1.22719 22.1517 1.22719C22.2096 1.22719 22.2569 1.19572 22.2569 1.15711C22.2569 1.11851 22.2096 1.08704 22.1517 1.08704C22.0939 1.08704 22.0464 1.11851 22.0464 1.15711ZM23.3321 1.32783C23.3321 1.38375 23.5288 1.51621 23.7744 1.6259C24.1961 1.81417 24.3957 1.99474 24.0627 1.88685C23.9758 1.85866 23.8179 1.83002 23.7114 1.82323C23.6051 1.81643 23.3999 1.71681 23.2556 1.60191C23.1114 1.48711 22.9335 1.37085 22.8606 1.34368C22.7423 1.29953 22.7385 1.30757 22.8255 1.41749C22.8792 1.48542 22.9862 1.59545 23.0634 1.66225C23.1655 1.75066 23.1762 1.78417 23.1025 1.78598C23.0293 1.78768 23.0389 1.81734 23.1376 1.89387C23.2645 1.99236 23.2605 1.99474 23.0762 1.92885C22.7484 1.81179 22.6075 1.71828 22.6075 1.61798C22.6075 1.56557 22.5531 1.50194 22.4868 1.47636C22.3833 1.43674 22.3807 1.42077 22.4693 1.36485C22.5294 1.32681 22.5382 1.29907 22.4905 1.2984C22.3404 1.29647 22.187 1.38138 22.2262 1.44477C22.2475 1.47919 22.1822 1.47591 22.081 1.43742C21.845 1.34764 21.6753 1.34775 21.7309 1.43764C21.7547 1.47624 21.7427 1.50772 21.7041 1.50772C21.6656 1.50772 21.6145 1.47624 21.5907 1.43764C21.5668 1.39904 21.5 1.36745 21.4421 1.36745C21.3843 1.36745 21.3563 1.39892 21.3801 1.4373C21.4039 1.47568 21.3425 1.54394 21.2439 1.58877C21.0496 1.67741 21.0191 1.75179 21.1451 1.82968C21.195 1.86058 21.137 1.925 20.9913 2.0004L20.7572 2.12141L20.9809 2.23711C21.19 2.34511 21.2168 2.34477 21.3907 2.23077L21.5768 2.10885L21.5261 2.37908L21.4754 2.64942L21.6877 2.60685C21.8559 2.57323 21.8918 2.58579 21.8605 2.6673C21.8024 2.81877 22.0624 2.79783 22.2705 2.63413C22.3654 2.55941 22.5305 2.47643 22.6371 2.4496C22.821 2.40341 22.8117 2.39413 22.4578 2.26949C22.2526 2.19726 22.0217 2.07534 21.9451 1.99847C21.8165 1.87009 21.8145 1.84994 21.9187 1.74568C22.0133 1.65115 22.0721 1.6456 22.2734 1.71206C22.4062 1.75587 22.6206 1.86987 22.7501 1.9653C22.8922 2.07013 23.0801 2.13896 23.2247 2.13896C23.424 2.13896 23.4561 2.15945 23.4164 2.26168C23.324 2.49874 23.3465 2.52477 23.6594 2.54391C23.9039 2.55885 23.9514 2.54572 23.8699 2.48549C23.7887 2.4256 23.8259 2.41632 24.0327 2.44508C24.468 2.50564 25.436 3.011 25.6473 3.28824C25.87 3.57998 25.8747 3.61168 25.6957 3.61168C25.6199 3.61168 25.5254 3.67213 25.4859 3.74617C25.4463 3.82021 25.3168 3.90206 25.198 3.92809C24.9933 3.97304 24.9882 3.98221 25.0991 4.10481C25.1634 4.17579 25.1953 4.26749 25.1699 4.30847C25.1446 4.34957 25.1731 4.38307 25.2332 4.38307C25.38 4.38307 25.373 4.58617 25.2243 4.64323C25.1403 4.67538 25.0231 4.59568 24.821 4.3687C24.6642 4.19277 24.4031 3.98187 24.2403 3.90013C23.952 3.75523 23.7607 3.53379 23.8481 3.44628C23.872 3.42251 23.7297 3.24115 23.5319 3.04338C23.2315 2.74281 23.1432 2.69107 22.9943 2.72855C22.7226 2.7967 22.3739 3.02798 22.4614 3.08209C22.591 3.16213 22.545 3.33115 22.3936 3.33115C22.3146 3.33115 22.1539 3.28145 22.0365 3.22077C21.9192 3.16009 21.8158 3.12059 21.8069 3.13304C21.798 3.1456 21.7343 3.3084 21.6651 3.49485C21.5809 3.72194 21.4669 3.87817 21.3196 3.96794C21.1987 4.04164 21.1268 4.10209 21.1601 4.10221C21.1933 4.10243 21.1482 4.16096 21.0599 4.23251L20.8995 4.36247L21.048 4.6473C21.2064 4.95115 21.1726 5.01421 20.851 5.01421C20.6788 5.01421 20.5587 5.24515 20.6147 5.46851C20.6616 5.6553 20.7448 5.69572 20.8228 5.5696C20.8488 5.52738 20.9466 5.51311 21.0432 5.53734C21.1548 5.5653 21.2005 5.55477 21.1717 5.50791C21.1427 5.46104 21.2535 5.435 21.4813 5.435C21.6765 5.435 21.8361 5.40998 21.8361 5.37942C21.8361 5.34896 21.6947 5.18515 21.5219 5.01568C21.3492 4.8461 21.2181 4.69711 21.2307 4.68455C21.2432 4.67198 21.3768 4.71624 21.5273 4.78281C21.7033 4.8607 22.0657 4.9173 22.542 4.94153C23.27 4.97855 23.291 4.98443 23.7342 5.27651C24.2568 5.621 24.1863 5.67591 23.6268 5.36017C23.3612 5.21017 23.1757 5.15243 23.0142 5.1693L22.7828 5.19364L23.0283 5.30855C23.1754 5.37749 23.2247 5.42583 23.151 5.42923C23.0634 5.43341 23.0283 5.49364 23.0283 5.6407C23.0283 5.9227 22.8019 5.99221 22.5322 5.79296C22.4224 5.71179 22.2999 5.64534 22.2597 5.64534C22.1582 5.64534 22.1682 5.82443 22.2744 5.90572C22.4131 6.01191 23.4586 6.36058 23.5035 6.31564C23.5258 6.29323 23.4561 6.1833 23.3487 6.07111L23.1533 5.86723L23.7394 6.07836C24.5676 6.37655 24.6654 6.43191 24.7112 6.62821C24.7427 6.76326 24.819 6.81885 25.0505 6.87511C25.2148 6.91508 25.3315 6.96545 25.3101 6.98696C25.2886 7.00836 25.3997 7.08409 25.5572 7.15508C25.7147 7.22606 25.9197 7.38092 26.013 7.49911C26.159 7.68432 26.183 7.69474 26.1861 7.57394C26.1891 7.45643 26.207 7.4656 26.2959 7.62964C26.3544 7.73742 26.3971 7.87949 26.391 7.94526C26.3672 8.19738 26.4915 8.3827 26.8053 8.56281C27.2913 8.84187 27.8528 9.27443 27.9398 9.43689C27.982 9.51579 28.0918 9.91372 28.184 10.3211C28.2759 10.7285 28.3703 11.0809 28.3935 11.1041C28.4797 11.1902 28.5664 10.9293 28.5674 10.5806C28.5693 9.92391 28.6205 9.80096 28.909 9.75998C29.0496 9.73994 29.3145 9.70123 29.4976 9.67406C29.7278 9.63975 29.8308 9.64892 29.8308 9.70372C29.8308 9.7473 29.7992 9.78296 29.7606 9.78296C29.7221 9.78296 29.6905 9.83391 29.6905 9.8964C29.6905 9.98504 29.7324 9.99908 29.8833 9.96081C30.4366 9.82066 30.601 9.83323 30.8971 10.0382C31.0854 10.1688 31.2434 10.3612 31.3496 10.5895C31.4394 10.7822 31.5783 11.0215 31.6582 11.1209C31.8471 11.3556 31.9309 11.7316 31.933 12.3553C31.9349 12.9503 31.8293 13.1175 31.4936 13.0504C31.3795 13.0276 31.2334 13.0089 31.1694 13.0089C31.1054 13.0089 30.9342 12.8499 30.7891 12.6555C30.5368 12.3176 30.0956 12.0195 29.9956 12.1193C29.9302 12.1849 30.1113 12.7089 30.2911 12.9737C30.3728 13.0942 30.4901 13.3407 30.5518 13.5216L30.6638 13.8504H30.2256C29.9698 13.8504 29.7339 13.8896 29.6588 13.9445C29.5345 14.0354 29.5344 14.0496 29.6566 14.3697C29.8381 14.8448 29.834 15.4719 29.6476 15.7223C29.4707 15.9601 29.2676 16.002 29.0337 15.8488C28.8752 15.7449 28.8408 15.7446 28.6482 15.8441C28.5319 15.9043 28.3906 16.0193 28.3343 16.0997C28.2358 16.2403 28.2235 16.2299 28.0047 15.8195C27.8797 15.5851 27.7333 15.3933 27.6793 15.3933C27.6253 15.3933 27.4167 15.2821 27.2157 15.1465C26.8588 14.9054 26.8497 14.9032 26.8259 15.0557C26.8127 15.1415 26.8387 15.3355 26.884 15.4865C26.968 15.767 26.9043 15.9475 26.7538 15.8545C26.7041 15.8238 26.7027 15.7505 26.7493 15.6278C26.823 15.4338 26.7362 15.253 26.5694 15.253C26.5207 15.253 26.4636 15.1867 26.4424 15.1056C26.4046 14.9607 26.3995 14.9615 26.1537 15.149C26.0162 15.2539 25.9035 15.3631 25.9035 15.3915C25.9035 15.4883 25.0152 15.5302 24.7871 15.444C24.6153 15.3793 24.5412 15.3803 24.4467 15.449C24.3801 15.4972 24.2231 15.6023 24.0977 15.6823C23.9724 15.7624 23.8699 15.87 23.8699 15.9214C23.8699 15.9729 23.8032 16.0361 23.7219 16.0619C23.6404 16.0877 23.4213 16.2713 23.2348 16.4699L22.8958 16.8309L22.4185 16.8328C21.5636 16.8361 21.1361 17.1729 20.7444 18.1518C20.6669 18.3459 20.5189 18.5543 20.3985 18.6392C20.2828 18.7207 20.1639 18.8265 20.1345 18.8742C20.1049 18.922 19.9573 18.9593 19.8064 18.9572C19.4568 18.9523 19.0023 19.1704 18.9757 19.3556C18.9574 19.4822 18.8951 19.4975 18.3311 19.5135C17.5936 19.5344 17.4627 19.5771 16.9911 19.9498C16.7947 20.1051 16.5723 20.2321 16.4969 20.2321C16.4214 20.2321 16.2822 20.3097 16.1876 20.4043C16.0468 20.545 16.0154 20.6462 16.0154 20.9599C16.0154 21.3915 16.0691 21.4775 16.8304 22.2659L17.2707 22.7217L17.3419 23.5506C17.41 24.3462 17.4242 24.3969 17.6938 24.8128C18.1528 25.5208 18.1568 25.5252 18.3584 25.5084C18.5957 25.4888 19.485 25.9286 19.7849 26.214C19.9262 26.3486 20.0128 26.4992 20.0128 26.6106C20.0128 26.7093 20.0412 26.8893 20.076 27.0105C20.1503 27.2696 20.7834 28.1496 20.8983 28.1538C20.9419 28.1554 21.0207 28.21 21.0736 28.2751C21.1579 28.3787 21.1546 28.3876 21.0471 28.3474C20.8768 28.2835 20.8937 28.3849 21.0822 28.5566C21.2805 28.7373 21.689 28.8137 21.9424 28.7174C22.2363 28.6056 22.2401 28.6922 21.9543 28.985C21.8121 29.1305 21.6958 29.3028 21.6958 29.3678C21.6958 29.5501 21.969 29.6856 22.4432 29.7383L22.8749 29.7863L22.8027 29.9937C22.7035 30.2781 22.8048 30.3734 23.0977 30.2713C23.3035 30.1996 23.3166 30.2047 23.2959 30.3485C23.2837 30.4333 23.1948 30.5423 23.0985 30.5908C23.002 30.6395 22.9585 30.6797 23.002 30.6803C23.0454 30.6809 23.1003 30.7787 23.1242 30.8975C23.1479 31.0164 23.238 31.171 23.3244 31.241L23.4816 31.3682L23.2198 31.5227C22.9593 31.6764 22.9032 31.7853 23.019 31.9121C23.1149 32.0172 23.1711 32.4247 23.0961 32.471C22.992 32.5353 23.0156 32.645 23.1334 32.645C23.1913 32.645 23.2386 32.6702 23.2386 32.701C23.2386 32.7797 23.0842 32.9255 23.0009 32.9255C22.9626 32.9255 22.9926 32.8791 23.0674 32.8225C23.2674 32.6713 23.104 32.6929 22.5985 32.8844C22.2648 33.011 22.1832 33.0662 22.2762 33.1031C22.4697 33.1795 23.4458 33.009 23.6943 32.8555C24.0698 32.6234 24.6413 31.972 24.6413 31.776C24.6413 31.6792 24.6847 31.5748 24.7379 31.5439C24.8687 31.4681 24.9625 31.032 24.8481 31.032C24.7431 31.032 24.807 30.5555 24.9271 30.442C24.9869 30.3854 24.9959 30.4049 24.9619 30.5177C24.9367 30.6012 24.945 30.6874 24.9802 30.7093C25.0156 30.7311 25.0857 30.5996 25.1362 30.4171C25.1865 30.2346 25.2844 29.959 25.3537 29.8047C25.4482 29.5944 25.4801 29.3435 25.4813 28.8019C25.4823 28.299 25.5148 28.0178 25.5882 27.8759C25.6906 27.6778 25.7811 26.9905 25.9008 25.5049C25.9777 24.5499 26.1306 24.2927 26.9554 23.7304C27.6968 23.225 27.7859 23.1173 28.2641 22.1496C28.4767 21.7193 28.8058 21.1748 28.9952 20.9396C29.3764 20.4667 29.4147 20.2815 29.2279 19.8147C29.1252 19.5581 29.1252 19.5252 29.2279 19.4225C29.4474 19.203 29.292 18.6681 28.8482 18.115C28.533 17.7225 28.5277 17.7072 28.5174 17.1712C28.5065 16.5996 28.6837 16.0059 28.8886 15.9272C28.9883 15.8889 29.1997 16.1296 29.1997 16.2813C29.1997 16.4743 29.3619 16.4417 29.6406 16.193C29.803 16.048 29.9729 15.864 30.0182 15.784C30.0634 15.7041 30.1581 15.6387 30.2285 15.6387C30.3191 15.6387 30.3637 15.5768 30.3802 15.4283C30.393 15.3126 30.4479 15.1685 30.502 15.1081C30.5562 15.0478 30.6199 14.9016 30.6435 14.7833C30.6812 14.5947 30.7307 14.5565 31.0448 14.4724C31.3255 14.3972 31.4373 14.3232 31.5608 14.1309C31.9062 13.5931 31.8971 13.6004 32.1071 13.6961C32.2727 13.7716 32.3304 13.7638 32.5326 13.6389C32.8677 13.4319 33.1777 13.0544 33.2724 12.7382C33.3405 12.5112 33.3337 12.4032 33.2319 12.0968C33.1402 11.8206 33.1189 11.5949 33.147 11.194C33.1747 10.7972 33.1493 10.5185 33.0478 10.1118C32.9727 9.81047 32.9142 9.44764 32.918 9.30534C32.9245 9.05255 32.832 8.62168 32.6831 8.21028C32.4994 7.70334 31.0767 5.97375 30.0261 4.98036C28.7166 3.74209 27.7565 3.08481 26.0342 2.2473C24.9801 1.73481 24.662 1.62862 24.7327 1.81281C24.803 1.99621 24.6517 1.94843 24.3533 1.69292C24.2019 1.56341 23.9286 1.40753 23.746 1.34662C23.3278 1.20715 23.3321 1.20738 23.3321 1.32783ZM25.6932 2.13896C25.751 2.17632 25.7668 2.20689 25.7283 2.20689C25.6897 2.20689 25.6108 2.17632 25.5529 2.13896C25.4951 2.10149 25.4793 2.07092 25.5178 2.07092C25.5564 2.07092 25.6353 2.10149 25.6932 2.13896ZM15.0042 2.2516C14.8177 2.32326 14.8789 2.39719 15.1992 2.48685C15.4727 2.56338 15.5357 2.55681 15.7952 2.42436C15.955 2.34296 16.0855 2.26111 16.0855 2.24266C16.0855 2.19364 15.1349 2.20145 15.0042 2.2516ZM26.6399 2.77009C26.6947 2.85885 26.6019 2.85885 26.4646 2.77009C26.3739 2.71157 26.3758 2.70194 26.4779 2.70104C26.5433 2.70047 26.6161 2.73149 26.6399 2.77009ZM12.3402 3.42387C12.2209 3.51342 11.8858 3.71685 11.5956 3.87591C10.9634 4.22221 10.6708 4.49674 10.8277 4.59602C10.8846 4.63202 11.0153 4.66191 11.1182 4.66247C11.2211 4.66304 11.3607 4.68477 11.4285 4.71081C11.5233 4.74726 11.5412 4.73119 11.5065 4.64074C11.4817 4.57609 11.4907 4.52334 11.5266 4.52334C11.6379 4.52334 11.8694 4.23228 11.8332 4.13787C11.7933 4.03428 12.112 3.79191 12.3694 3.72998C12.4662 3.70655 12.6022 3.59153 12.6715 3.47424C12.789 3.27523 12.7894 3.26096 12.6774 3.26096C12.6113 3.26096 12.4596 3.33432 12.3402 3.42387ZM12.3917 3.97983C12.2646 4.06655 12.1437 4.18111 12.1231 4.23421C12.0696 4.37266 12.2269 4.53364 12.392 4.50919C12.5539 4.48508 12.821 4.06021 12.7154 3.99489C12.6777 3.97157 12.665 3.92323 12.6873 3.88734C12.7558 3.7764 12.6336 3.81477 12.3917 3.97983ZM22.3796 4.1047C22.4664 4.13968 22.5374 4.18202 22.5374 4.19889C22.5374 4.25108 22.257 4.15949 22.2166 4.09406C22.172 4.02183 22.1738 4.02206 22.3796 4.1047ZM27.4464 4.20772C27.5429 4.26285 27.5789 4.30904 27.5266 4.31051C27.4743 4.31176 27.4476 4.3524 27.4673 4.40062C27.6042 4.73572 27.5902 4.75881 27.3827 4.53975C27.1817 4.32749 27.0956 4.09926 27.2184 4.10492C27.2474 4.1064 27.35 4.15259 27.4464 4.20772ZM26.7451 4.94821C26.7451 4.98908 26.7135 5.003 26.675 4.97911C26.6364 4.95534 26.6048 4.92194 26.6048 4.90485C26.6048 4.88787 26.6364 4.87394 26.675 4.87394C26.7135 4.87394 26.7451 4.90734 26.7451 4.94821ZM22.3661 5.07783C22.3445 5.1127 22.39 5.12481 22.4672 5.10466C22.6309 5.06187 22.6516 5.01421 22.5065 5.01421C22.4508 5.01421 22.3877 5.04285 22.3661 5.07783ZM27.2886 5.32983C27.4911 5.42187 27.6568 5.51504 27.6568 5.53677C27.6568 5.55851 27.5227 5.5773 27.3587 5.57832C27.1948 5.57945 26.951 5.58704 26.817 5.5953C26.6312 5.60674 26.5674 5.58036 26.5482 5.48425C26.517 5.327 26.6548 5.15311 26.8062 5.15855C26.8691 5.1607 27.0862 5.23779 27.2886 5.32983ZM5.74148 5.57526C5.67175 5.65236 5.59884 5.71553 5.57948 5.71553C5.56024 5.71553 5.60167 5.65236 5.67141 5.57526C5.74114 5.49806 5.81416 5.435 5.83341 5.435C5.85265 5.435 5.81133 5.49806 5.74148 5.57526ZM22.7127 5.71553C22.6889 5.75402 22.7009 5.7856 22.7395 5.7856C22.7781 5.7856 22.8291 5.75402 22.8529 5.71553C22.8768 5.67692 22.8647 5.64534 22.8262 5.64534C22.7876 5.64534 22.7365 5.67692 22.7127 5.71553ZM26.8854 5.76455C27.2808 5.90764 27.4708 6.04779 27.6242 6.3093C27.7193 6.47164 27.797 6.62911 27.797 6.65934C27.797 6.68957 27.5699 6.50006 27.2925 6.23832C26.8308 5.80281 26.6334 5.72459 26.8033 6.04474C26.8502 6.13315 26.8424 6.19723 26.7775 6.25734C26.7029 6.32628 26.65 6.30217 26.5093 6.13496C26.3976 6.00217 26.2941 5.94183 26.224 5.96877C26.0938 6.0187 26.0787 5.91919 26.1981 5.79964C26.2829 5.71485 26.6903 5.69413 26.8854 5.76455ZM26.1531 6.3093C26.2821 6.40689 26.2777 6.41243 26.0671 6.41459C25.792 6.4173 25.6112 6.35232 25.6627 6.26911C25.7226 6.17209 26.0019 6.19496 26.1531 6.3093ZM8.05296 6.42149C7.97745 6.54353 8.06337 6.56945 8.1596 6.45353C8.21496 6.38685 8.22028 6.34666 8.17364 6.34666C8.13277 6.34666 8.07831 6.38028 8.05296 6.42149ZM5.00518 6.36862C5.00518 6.38062 4.90262 6.4833 4.7773 6.59651L4.54929 6.80243L4.75533 6.57455C4.94733 6.36217 5.00518 6.3144 5.00518 6.36862ZM26.8607 6.55655C27.0687 6.64043 27.1344 6.76745 26.97 6.76745C26.8062 6.76745 26.3839 6.63025 26.2927 6.54749C26.2064 6.46892 26.6614 6.47617 26.8607 6.55655ZM7.66816 6.94643C7.61767 7.04074 7.60024 7.1416 7.62944 7.17047C7.69205 7.23262 8.02782 6.8356 7.97914 6.75704C7.92412 6.66783 7.76552 6.76428 7.66816 6.94643ZM4.27862 7.2187C3.72956 7.89862 2.94152 9.12726 2.45394 10.0635C1.37699 12.1309 0.72571 14.4121 0.521823 16.8309C0.479483 17.3323 0.432503 17.8845 0.417446 18.0582C0.402276 18.2318 0.401144 17.8372 0.414842 17.1815C0.441446 15.9146 0.482313 15.5972 0.776993 14.3764C1.25156 12.4101 2.0345 10.4901 2.97922 8.97647C3.48197 8.17089 4.28745 7.06213 4.48216 6.90772C4.55507 6.84987 4.46348 6.98979 4.27862 7.2187ZM6.26745 7.43368C6.26745 7.63508 6.27084 7.63643 6.5096 7.52753C6.79216 7.39881 6.75413 7.34674 6.32009 7.26783C6.29111 7.26262 6.26745 7.33723 6.26745 7.43368ZM4.93499 8.02972C4.84431 8.08825 4.84624 8.09787 4.94846 8.09877C5.01367 8.09934 5.08658 8.06832 5.11035 8.02972C5.16526 7.94096 5.07231 7.94096 4.93499 8.02972ZM33.3413 10.5917C33.518 11.403 33.5563 11.469 33.5163 10.8927C33.4866 10.4657 33.3085 9.85836 33.2347 9.93217C33.218 9.94904 33.2659 10.2458 33.3413 10.5917ZM2.93688 10.2604C2.83669 10.4652 2.6362 10.828 2.49152 11.0668C2.23941 11.4831 1.65775 12.7452 1.39363 13.4487C1.20401 13.9541 1.19903 13.8058 1.38571 13.2148C1.59979 12.5373 1.90012 11.8856 2.41794 10.9752C2.91526 10.1006 3.2225 9.67757 2.93688 10.2604ZM27.7506 11.4135C27.7701 11.4617 27.7859 11.4222 27.7859 11.3258C27.7859 11.2294 27.7701 11.1899 27.7506 11.2381C27.7311 11.2864 27.7311 11.3653 27.7506 11.4135ZM28.1827 11.9147C27.9899 12.0064 27.6744 12.1954 27.4816 12.3348C27.1622 12.5658 27.1474 12.5881 27.3151 12.5881C27.4162 12.5881 27.5979 12.6079 27.7189 12.6321C27.9173 12.6718 27.9371 12.6604 27.9205 12.5158C27.905 12.3799 27.9663 12.3292 28.3194 12.1857C28.5487 12.0923 28.7737 11.965 28.8193 11.9027C28.8954 11.7986 28.9169 11.7992 29.0835 11.9083C29.3333 12.072 29.4828 12.0538 29.2795 11.8845C29.0533 11.6961 28.6174 11.7079 28.1827 11.9147ZM26.2191 12.7368C26.1034 12.773 25.9485 12.8854 25.875 12.9864L25.7411 13.1699L25.9281 13.123C26.0437 13.0939 26.1938 13.1167 26.3208 13.1824C26.5016 13.2759 26.5711 13.2767 26.8987 13.1885C27.201 13.1072 27.2303 13.0874 27.0548 13.0836C26.7702 13.0775 26.7227 13.0184 26.8482 12.8269C27.0082 12.5827 26.804 12.5535 26.2191 12.7368ZM25.1327 13.0772C25.0537 13.1272 25.0479 13.1631 25.109 13.2242C25.205 13.3202 25.3426 13.2529 25.3426 13.1099C25.3426 12.9933 25.2808 12.9837 25.1327 13.0772ZM27.908 13.1216C27.7352 13.1879 27.7774 13.3047 27.9548 13.2512C28.1663 13.1873 28.2779 13.079 28.1324 13.079C28.07 13.079 27.969 13.0981 27.908 13.1216ZM30.3919 15.0736C30.3919 15.1788 30.266 15.2907 30.2102 15.235C30.1613 15.1861 30.258 14.9725 30.3291 14.9725C30.3637 14.9725 30.3919 15.0179 30.3919 15.0736ZM23.9079 15.5383C23.9738 15.6451 24.0792 15.6125 24.0356 15.4989C24.0134 15.4412 23.9667 15.4119 23.9314 15.4336C23.8964 15.4553 23.8857 15.5024 23.9079 15.5383ZM1.1756 18.3094C1.24454 18.4888 1.22643 19.0063 1.15386 18.9313C1.05695 18.831 0.978049 18.1985 1.0625 18.1985C1.10133 18.1985 1.15228 18.2484 1.1756 18.3094ZM31.6763 18.9129C31.6987 18.9687 31.7154 18.9522 31.7188 18.8705C31.7217 18.7965 31.7052 18.7552 31.6819 18.7784C31.6587 18.8018 31.656 18.8622 31.6763 18.9129ZM1.47514 20.3023C1.47514 20.5916 1.4628 20.71 1.44763 20.5653C1.43258 20.4206 1.43258 20.184 1.44763 20.0393C1.4628 19.8947 1.47514 20.013 1.47514 20.3023ZM1.39352 21.9854C1.4208 22.1832 1.42726 22.3608 1.4079 22.38C1.38865 22.3994 1.35062 22.2532 1.32345 22.0555C1.29616 21.8578 1.28971 21.6801 1.30907 21.6608C1.32831 21.6416 1.36635 21.7876 1.39352 21.9854ZM20.188 34.4683C20.2119 34.5069 20.2908 34.5384 20.3634 34.5384C20.6414 34.5384 20.5694 34.703 20.0867 35.1708C19.5087 35.7306 19.4235 35.7589 18.3296 35.7538C17.7321 35.7511 17.3487 35.6959 16.2959 35.4614C15.5824 35.3023 14.7753 35.123 14.5026 35.0628C14.1704 34.9893 13.9505 34.9741 13.8364 35.0168C13.7345 35.0549 13.4554 35.0548 13.1415 35.0167C12.8531 34.9816 12.5374 34.9624 12.4402 34.9737C12.2071 35.0012 14.673 35.6979 15.4935 35.8365C16.8968 36.0736 19.4647 36.089 20.9945 35.8696C21.7811 35.7567 22.5865 35.5724 22.468 35.5326C22.4056 35.5115 22.4762 35.4625 22.6434 35.4108C22.8989 35.3316 22.8654 35.3267 22.2569 35.3541C21.8904 35.3706 21.4397 35.3976 21.2553 35.4141C20.8949 35.4462 20.8608 35.3504 21.2057 35.2746C21.496 35.2109 21.468 35.1124 21.1523 35.0861L20.8893 35.0644L21.0998 34.9445C21.2367 34.8665 21.2689 34.8236 21.192 34.8218C21.1272 34.8202 21.0543 34.7562 21.0299 34.6796C20.984 34.5351 20.6849 34.4155 20.3417 34.4045C20.227 34.4009 20.1628 34.4275 20.188 34.4683Z" fill="white"/>
</svg>
