<svg width="37" height="37" viewBox="0 0 37 37" fill="none" xmlns="http://www.w3.org/2000/svg">
<path d="M21.104 0.405029C12.7532 0.405029 5.95909 7.1985 5.95909 15.5499C5.95909 16.159 6.0046 16.7567 6.07546 17.3467L0.404785 17.347V36.2344H15.1723V35.4243L17.8738 35.9695L18.3331 33.6959L19.2716 30.5821C19.8729 30.6551 20.4838 30.695 21.1042 30.695C29.4558 30.695 36.2492 23.9015 36.2492 15.5499C36.2492 7.1985 29.4558 0.405029 21.1042 0.405029H21.104ZM14.2549 2.88246C14.197 2.97507 14.1344 3.20148 13.8223 3.33348C13.6668 3.39914 13.4833 3.43073 13.3144 3.44476C13.6212 3.24676 13.9333 3.05737 14.2549 2.88246ZM16.7557 1.81956C16.6683 1.99548 16.2151 2.01461 16.1877 2.06918C16.1603 2.12386 16.482 2.21805 16.5798 2.14741C16.7366 2.0351 17.4563 1.98722 17.7697 1.90514C18.083 1.82318 18.8749 1.53677 18.3837 1.50801C17.8926 1.47903 18.3032 1.6596 17.7429 1.6459C17.5669 1.64148 17.4305 1.64771 17.3107 1.65733C18.5204 1.32688 19.791 1.14654 21.1042 1.14654C23.8992 1.14654 26.5092 1.94963 28.7205 3.33292C28.6273 3.50816 28.4904 3.66824 28.3158 3.60314C27.6707 3.36122 26.4523 2.68175 25.3364 3.64605C25.3364 3.64605 24.307 4.37205 24.5889 4.76182C24.8709 5.15171 25.0874 4.51265 25.3689 4.81582C25.6504 5.11933 25.9795 5.21046 26.0867 4.74416C26.0867 4.74416 26.1534 4.49782 26.073 4.46884C25.8438 4.38665 26.1705 3.92737 26.4955 3.80782C26.8205 3.68873 27.0371 3.77522 26.7447 3.97027C26.4523 4.16533 26.2572 4.37137 26.6148 4.50099C26.9723 4.63107 27.4384 4.24095 27.4815 4.59846C27.525 4.95609 26.8205 4.55499 26.7884 4.8045C26.7558 5.05367 26.4883 4.75922 26.4849 5.2811C26.4841 5.4182 25.7134 5.41276 25.395 5.4045C25.3368 5.40292 25.2952 5.34552 25.3141 5.29061C25.3338 5.23322 25.3407 5.16677 25.2929 5.12918C25.1953 5.05367 25.1086 4.80416 25.0437 4.98824C24.9787 5.17243 25.0545 5.50831 24.9138 5.62729C24.7839 5.73699 23.9497 6.1751 23.5016 6.32793C23.4574 6.34277 23.4483 6.40073 23.4847 6.42971L23.7689 6.65375C23.8196 6.69382 23.8553 6.7502 23.8695 6.81314C23.9044 6.97197 23.9277 7.26076 23.6462 7.28454C23.256 7.31714 22.7685 7.11144 22.758 7.70714C22.7471 8.30329 22.6389 8.67144 23.0506 8.60624C23.4622 8.54103 23.2022 8.87035 23.5922 8.61371C23.9821 8.35707 24.3073 7.94533 24.3397 7.57695C24.3723 7.20846 24.8608 7.18084 25.1089 7.25012C25.2442 7.28793 25.423 7.4145 25.7156 7.63107C26.0083 7.84763 26.16 8.0642 26.1817 8.23775C26.2031 8.41084 26.3719 8.18193 26.3548 8.1079C26.3349 8.02118 26.2862 7.88046 26.4197 7.97771C26.5217 8.05231 26.4846 7.88567 26.4088 7.83156C26.3333 7.77744 26.1703 7.75027 26.1703 7.66367C26.1703 7.57695 26.1161 7.59869 26.0513 7.56609C25.9863 7.53348 25.9159 7.30424 25.6611 7.20846C25.4124 7.11507 25.7695 6.80748 26.2026 7.24107C26.6358 7.67477 26.7333 7.51197 26.7333 7.73975C26.7333 7.96718 26.7982 8.15137 26.8849 8.20571C26.9717 8.25982 27.0039 8.5742 27.1235 8.50922C27.243 8.44424 27.2966 8.24918 27.2102 8.08673C27.1235 7.92416 27.1126 7.70759 27.2102 7.71824C27.3078 7.7291 27.5028 7.90243 27.6761 7.76171C27.8492 7.62065 27.8713 7.40409 27.9036 7.2525C27.9362 7.1008 27.9686 6.69982 28.2827 6.73243C28.5969 6.76503 28.6183 6.8625 28.7593 6.75382C28.9004 6.64548 29.0193 6.59137 29.052 6.64548C29.0846 6.69948 29.0628 6.76446 28.9218 6.86205C28.7808 6.95952 29.4204 7.12209 29.4744 7.25216C29.5286 7.38235 29.7454 7.63129 29.4744 7.73975C29.2035 7.84808 29.0735 7.63129 28.933 7.59869C28.7919 7.56609 28.7378 7.5011 28.4886 7.59869C28.2395 7.69627 28.1177 7.78163 27.958 7.69627C27.7981 7.6108 27.5678 7.91284 27.6219 8.02118C27.6759 8.12963 27.611 8.36793 27.752 8.46552C27.893 8.56299 28.0012 8.49812 28.1096 8.55212C28.2181 8.60624 28.4672 8.67122 28.5756 8.58473C28.644 8.53016 28.8015 8.5485 28.9099 8.56944C28.9845 8.58393 29.0475 8.63544 29.0724 8.70711C29.118 8.83831 29.1526 9.07152 28.9767 9.33224C28.7058 9.73333 29.0308 9.75484 28.5324 9.71137C28.0338 9.6679 27.2756 9.31027 27.1347 9.31027C26.9936 9.31027 26.9071 9.32114 26.9286 9.53771C26.9501 9.75428 26.8419 9.85107 26.6577 9.72688C26.4735 9.60269 25.9426 9.42937 25.9211 9.33178C25.9056 9.26092 25.6369 9.24303 25.4916 9.23861C25.4471 9.23703 25.4171 9.1931 25.4326 9.15122C25.4854 9.00835 25.5824 8.72782 25.5743 8.61711C25.5635 8.46552 25.3684 8.41118 25.2168 8.43292C25.0651 8.45442 24.4693 8.4979 24.3611 8.54125C24.2527 8.58473 24.0795 8.62854 23.8951 8.69295C23.7052 8.75941 23.5458 8.79416 23.4425 8.81171C23.3577 8.8262 23.279 8.86548 23.2175 8.92526L22.9198 9.21303C22.9198 9.21303 22.5827 9.56782 22.5957 9.92895C22.5986 10.0136 22.5692 10.0951 22.507 10.1525C22.3385 10.3081 22.0177 10.6447 21.8471 11.0874C21.7558 11.3241 21.6818 11.4833 21.6341 11.6077L14.944 9.5916L14.2346 11.9467L12.3946 11.5751L11.7374 14.8312C11.697 14.7875 11.6628 14.7445 11.6409 14.7104C11.5586 14.5804 11.735 13.9911 11.7588 13.7198C11.7826 13.4487 11.3697 13.59 11.1456 13.6471C10.9215 13.7043 10.9686 13.2247 11.1104 12.8707C11.2517 12.5172 11.3935 12.3754 11.3935 12.3045C11.3935 12.2336 11.1224 12.2455 10.9572 12.3164C10.7921 12.3873 10.58 12.9999 10.1789 13.059C9.77792 13.118 9.80169 12.1513 10.049 11.1257C10.2964 10.0999 11.3226 10.8544 11.3107 10.6071C11.2987 10.3597 11.4049 10.3007 11.8292 10.2651C12.2535 10.2299 12.2893 10.5243 12.3125 10.6775C12.3364 10.8307 12.4425 11.255 12.6182 11.2317C12.7941 11.2079 12.6427 10.7013 12.6192 10.312C12.5954 9.92295 12.9964 9.61661 13.3856 9.35737C13.7747 9.09801 13.7509 9.07424 13.739 8.79122C13.7272 8.50809 13.8689 8.62616 13.9631 8.39012C14.0573 8.1542 14.8708 7.74167 14.9298 7.47416C14.9887 7.20665 15.5663 6.97559 15.7195 6.88118C15.8727 6.78699 15.8493 7.15231 16.0318 7.1111C16.2148 7.07001 16.5211 6.81076 16.5211 6.7399C16.5211 6.66892 16.2148 6.66892 16.1319 6.57473C16.0492 6.48054 16.2261 6.24461 16.238 6.16231C16.2499 6.08001 16.0258 6.06812 15.8608 6.1742C15.6957 6.28027 15.5307 6.24507 15.4716 6.1742C15.4126 6.10333 16.179 5.82077 16.4855 5.82077C16.7918 5.82077 17.5463 5.40835 17.6291 5.30227C17.712 5.1962 17.1338 4.65382 17.0516 4.54775C16.9693 4.44167 17.0277 4.07624 16.8746 4.03933C16.7214 4.00231 16.5211 4.47733 16.3338 4.53631C16.1467 4.59529 16.3087 4.19431 16.3323 4.03933C16.3561 3.88424 16.1081 3.86409 15.9669 3.89952C15.8256 3.93473 15.5307 3.86431 15.3185 4.03933C15.1063 4.21446 15.1534 4.67759 15.1534 4.86552C15.1534 5.0531 15.0002 5.00805 14.8941 5.07326C14.788 5.13846 14.505 5.10224 14.5288 5.26729C14.5526 5.43235 14.4579 5.85676 14.2929 5.95095C14.1277 6.04514 14.0454 5.54986 14.0568 5.25541C14.0687 4.96039 13.2195 4.87809 12.9484 4.7231C12.6772 4.56812 14.092 3.56963 14.5044 3.54609C14.917 3.52231 14.5515 3.33394 14.9289 3.33156C15.3061 3.32929 15.365 3.29816 15.483 3.1802C15.6011 3.06224 15.6011 3.06224 15.3884 2.99137C15.1759 2.92039 15.082 3.06224 15.0744 3.09767C15.067 3.13333 14.976 3.21518 14.7872 3.16809C14.5984 3.12099 14.6685 3.01559 14.6095 2.84465C14.5875 2.78148 14.5469 2.7362 14.5127 2.74786C15.2294 2.38095 15.9773 2.06635 16.7556 1.81944L16.7557 1.81956ZM16.0553 10.4876L24.0431 12.8948L19.4669 28.0821L22.392 13.5962L15.5137 12.2075L16.0553 10.4876ZM15.0609 12.1161L14.7613 12.0557L15.3026 10.2602L15.6069 10.3518L15.0609 12.1161ZM12.8133 12.208L13.076 12.261L12.0487 17.3476H11.7752L12.8133 12.208ZM7.65607 10.4017C7.90082 10.5815 7.94509 10.9756 7.99818 11.1172C8.05116 11.2583 8.11614 11.6773 8.22222 11.8126C8.32829 11.948 8.34618 12.3019 8.39327 12.5319C8.44037 12.762 8.36939 12.9974 8.46414 13.0564C8.55833 13.1154 8.65841 13.0743 9.01841 13.3925C9.37773 13.7108 9.26577 13.7816 9.82003 13.6874C10.3743 13.5933 10.2622 14.1416 10.8045 14.2179C11.3083 14.289 11.3587 14.8708 11.6594 15.2229L11.2307 17.3472H6.82207C6.7478 16.7577 6.70128 16.1598 6.70128 15.5505C6.70128 14.1038 6.91784 12.7071 7.31656 11.3888C7.33343 11.4296 7.36728 11.4651 7.36728 11.4651C7.36728 11.4651 7.43226 11.5222 7.47935 11.6224C7.54377 11.7593 7.51456 11.8251 7.55622 11.884C7.59731 11.943 7.68607 11.9193 7.71527 12.0491C7.74448 12.179 7.87444 12.291 7.95131 12.2673C8.02818 12.2434 7.88633 11.778 7.78614 11.5717C7.68607 11.3654 7.82135 11.0001 7.58588 10.9763C7.34995 10.9526 7.70316 11.2444 7.45003 11.2654C7.39682 11.2698 7.36524 11.2817 7.34316 11.2962C7.4369 10.9924 7.5432 10.6956 7.65607 10.4016V10.4017ZM10.9634 33.6345H4.61067V33.2401H10.9634V33.6345ZM10.9634 32.8321H4.61067V32.5495H10.9634V32.8321ZM7.78886 30.5831C5.00905 30.5831 2.74784 28.3213 2.74784 25.542C2.74784 22.7622 5.00905 20.5008 7.78897 20.5008C10.5688 20.5008 12.8301 22.762 12.8301 25.542C12.8299 28.3214 10.5682 30.5831 7.78875 30.5831H7.78886ZM17.4558 35.3399L15.1723 34.8788V32.978L17.2161 22.8441L16.692 22.7383L15.1723 30.2736V28.266L16.3017 22.6597L15.7776 22.5539L15.1718 25.5595V18.5236L15.8914 17.7237C16.0427 17.9753 16.6562 18.8408 16.863 19.1047L16.2673 20.3925L16.3579 20.5565L17.3093 19.6341C17.4829 19.8173 17.7005 20.031 17.8172 20.144C17.8428 20.1689 17.8839 20.1464 17.8764 20.1114C17.843 19.9523 17.7786 19.6539 17.7163 19.4097L19.004 19.0968L18.9135 18.9328L17.5061 18.7496C17.393 18.4337 16.9884 17.4528 16.8562 17.191L19.97 16.6564L19.7299 16.2211L16.2601 15.9397C16.0419 15.5177 15.7972 15.0729 15.5138 14.6027C15.5138 14.6027 14.9422 13.7079 14.3984 13.7866C14.3694 13.7908 14.3424 13.8061 14.323 13.8283C13.9665 14.2459 14.4183 15.2071 14.4183 15.2071C14.6645 15.6974 14.9101 16.142 15.1507 16.5514L14.7347 17.347H12.5934L13.5989 12.3664L21.7608 14.0144L17.4558 35.3399ZM35.4782 14.6673C35.4961 14.9596 35.508 15.2533 35.508 15.55C35.508 23.4921 29.0465 29.9531 21.1049 29.9531C20.5583 29.9531 20.022 29.9122 19.4916 29.8522L23.8049 15.5386C23.9907 15.5241 24.1457 15.4873 24.2422 15.3909C24.4481 15.1848 24.7949 14.9465 24.8489 15.2392C24.903 15.5318 25.0549 15.5121 25.3582 15.5489C25.6617 15.5857 25.5098 16.4525 25.2498 16.7233C24.9897 16.9942 26.225 17.525 26.1923 18.6086C26.1597 19.6922 25.4881 19.952 25.8021 20.9596C26.1163 21.9671 26.3328 22.5089 26.3328 22.5089C26.3328 22.5089 26.5983 23.2771 26.677 23.8906C26.6881 23.9781 26.75 24.05 26.8338 24.0772C27.0527 24.148 27.4943 24.2001 27.9689 23.7334C28.5918 23.1209 28.6556 22.2662 29.0243 21.9891C29.0859 21.9428 29.1253 21.8727 29.1348 21.7958L29.2091 21.1953C29.2272 21.0491 29.2922 20.913 29.3946 20.8072L30.0924 20.0853C30.1466 20.0289 30.1707 19.9508 30.1574 19.8739C30.0713 19.3908 29.7877 17.6008 30.18 16.994C30.6195 16.3137 31.8581 15.1677 31.6683 13.9871C31.6582 13.9255 31.5912 13.8918 31.5355 13.9201C31.3997 13.9891 31.1547 14.1033 30.9172 14.1622C30.788 14.194 30.6537 14.1351 30.5893 14.0191C30.1854 13.293 28.6989 10.6047 28.6492 10.2551C28.5912 9.85073 28.7359 10.1757 28.9237 10.2116C29.1113 10.2476 29.4653 10.6882 29.6389 11.1793C29.812 11.6704 29.9784 12.2845 30.1445 12.4362C30.3106 12.5877 30.4985 13.1438 30.4985 13.2308C30.4985 13.3174 30.6501 13.8664 30.8741 13.5919C31.0983 13.3174 31.2786 13.1153 31.5894 12.9925C31.8999 12.8695 32.8751 12.1619 32.5571 11.6633C32.2391 11.1646 32.2246 10.7965 32.0584 11.0275C31.8923 11.2586 31.5743 11.295 31.488 11.1432C31.4012 10.9915 30.5491 9.89341 30.9389 9.90088C31.3288 9.90846 31.452 10.3271 31.6176 10.457C31.721 10.5382 31.9288 10.538 32.0701 10.526C32.1568 10.5191 32.2387 10.5622 32.2838 10.6371C32.3351 10.7216 32.4114 10.8202 32.4988 10.8399C32.6577 10.8759 32.7084 10.7965 32.8745 10.9339C33.0407 11.071 33.5389 10.8979 33.6691 11.0782C33.7991 11.2588 33.7703 11.4033 33.9223 11.5478C34.0738 11.6925 34.0523 11.7209 34.0883 11.9018C34.1243 12.0824 34.4063 11.8006 34.5289 11.9523C34.6519 12.1039 34.6229 12.5807 34.6951 12.7759C34.7676 12.971 34.9262 13.1875 34.991 13.3827C35.055 13.5773 35.1864 14.3726 35.4783 14.6668L35.4782 14.6673Z" fill="white"/>
</svg>
