<svg width="39" height="30" viewBox="0 0 39 30" fill="none" xmlns="http://www.w3.org/2000/svg">
<path fill-rule="evenodd" clip-rule="evenodd" d="M8.36322 25.7532C8.75119 25.7989 10.2521 25.9031 10.7738 24.8596C10.8493 24.7086 11.0329 24.6472 11.184 24.7227C11.335 24.7982 11.3964 24.9818 11.3209 25.1329C10.7872 26.2002 9.5776 26.385 8.82364 26.3884C8.44213 26.39 8.17722 26.3455 8.17496 26.3451C8.00821 26.3187 7.89387 26.1619 7.92081 25.9947C7.94719 25.8276 8.10398 25.7137 8.27119 25.7406C8.27187 25.7406 8.30492 25.7463 8.36357 25.7532H8.36322ZM2.53247 18.1054C2.68745 18.3388 3.69183 19.6744 6.05877 19.0829C6.22326 19.042 6.38968 19.1419 6.43066 19.3061C6.47164 19.4706 6.37168 19.6369 6.20753 19.678C4.45972 20.1149 3.32504 19.62 2.67636 19.1217C2.20066 18.7559 1.9867 18.3883 1.98511 18.3856C1.89851 18.2402 1.94572 18.0524 2.09062 17.9658C2.23587 17.8792 2.42368 17.9263 2.5104 18.0712C2.51073 18.0717 2.51764 18.0839 2.53179 18.1054H2.53247ZM13.9219 18.3795C13.9285 18.3809 16.1294 18.9139 18.2928 16.3733C18.4772 15.5368 18.6868 14.7325 18.8901 13.9535C18.9304 13.7994 18.9702 13.6465 19.0097 13.4942C18.2905 10.704 17.7691 8.22169 18.9816 5.71335C18.4706 4.7615 18.46 4.60279 18.4412 4.31603C18.4319 4.17645 18.4197 3.99701 18.2936 3.57113C18.1517 3.09271 17.9627 2.66558 17.7353 2.28882C17.1381 1.29814 16.2735 0.659428 15.2956 0.347428C14.3078 0.0323713 13.2001 0.0465225 12.129 0.364296C11.6183 0.515768 11.115 0.737314 10.6361 1.02599C10.6358 1.02645 10.635 1.02679 10.6346 1.02713C10.653 1.08079 10.6571 1.13988 10.6427 1.19931C10.6407 1.20656 10.0004 3.77207 11.1839 4.36403C11.335 4.43954 11.3963 4.62316 11.3208 4.77418C11.2453 4.92531 11.0616 4.98656 10.9106 4.91105C9.56696 4.23939 9.85394 2.04724 9.99511 1.30437C9.7559 1.3818 9.49938 1.44622 9.24024 1.51097L9.21998 1.51675V1.5163C8.83575 1.61218 8.44587 1.70954 8.12651 1.8472C7.37085 2.17301 6.67507 2.59901 6.07439 3.07901C5.44836 3.57928 4.92341 4.13943 4.54202 4.70671C3.39953 6.4055 3.22519 7.45279 3.09715 8.22033C3.03081 8.61758 2.9759 8.94724 2.81911 9.26739C3.14968 9.83513 4.53206 11.9172 6.761 11.3598C6.92549 11.3187 7.09179 11.4184 7.13288 11.5828C7.17387 11.7473 7.07379 11.9137 6.90975 11.9547C4.57462 12.5386 3.053 10.7364 2.46794 9.85924C2.28975 9.59196 2.19851 9.41071 2.19738 9.40833C2.14745 9.31211 2.15402 9.20173 2.20462 9.11433L2.07081 9.33362C1.09052 10.9384 0.462153 11.9669 0.612504 14.4589C0.642787 14.9623 0.732119 15.4457 0.857859 15.9053C0.98207 16.3596 1.14193 16.7887 1.31599 17.1889C1.53568 17.6949 1.69779 17.923 1.81824 18.0925C1.98885 18.3325 2.04941 18.418 2.08009 19.5569C2.10919 20.6381 2.38904 21.5697 2.79738 22.3658C3.20368 23.1586 3.73507 23.8142 4.271 24.3495C4.73187 24.8095 5.24402 25.1672 5.80677 25.4497C6.36228 25.7288 6.965 25.9328 7.61402 26.0884C8.04907 26.193 8.15334 26.4085 8.30141 26.7148C8.52715 27.1821 8.82885 27.8067 9.98549 28.5555C11.2027 29.3428 12.6832 29.6545 14.0864 29.4663C15.4346 29.2853 16.7128 28.6443 17.6218 27.5215C19.6848 24.9732 18.9487 22.8509 18.52 21.6145C18.4422 21.3894 18.3751 21.197 18.3444 21.0487C18.3441 19.4596 18.5706 17.9824 18.8727 16.5924C18.8616 16.6341 18.8413 16.6744 18.8117 16.7097C18.5653 17.0044 18.3168 17.2629 18.0695 17.4891C15.8893 19.4834 13.7957 18.9777 13.7888 18.9761C13.624 18.9389 13.5202 18.7752 13.5573 18.61C13.5945 18.4451 13.7582 18.3412 13.9234 18.3784L13.9219 18.3795ZM8.66492 22.0563C8.73772 21.9038 8.92055 21.8394 9.07281 21.9122C9.07621 21.9138 10.2378 22.4968 11.4934 20.6138C11.5873 20.4727 11.7782 20.4344 11.9193 20.5287C12.0604 20.6226 12.0987 20.8135 12.0044 20.9546C10.4518 23.2835 8.81357 22.4666 8.8087 22.4643C8.65609 22.3915 8.59168 22.2086 8.66447 22.0564L8.66492 22.0563ZM13.0115 11.2274C12.8616 11.1491 12.8037 10.9643 12.8819 10.8144C12.8843 10.8098 13.7016 9.17818 16.057 9.96373C16.2173 10.0166 16.3043 10.1895 16.2514 10.3501C16.1985 10.5104 16.0256 10.5975 15.865 10.5445C14.0088 9.92581 13.4256 11.0943 13.4241 11.0977C13.3458 11.2476 13.1611 11.3055 13.0112 11.2274H13.0115Z" fill="white"/>
<path fill-rule="evenodd" clip-rule="evenodd" d="M30.29 25.7535C30.3488 25.7466 30.3817 25.7408 30.3825 25.7408C30.5496 25.7143 30.7064 25.8282 30.7329 25.995C30.7592 26.1622 30.6455 26.319 30.4787 26.3453C30.4763 26.3458 30.2114 26.3906 29.83 26.3887C29.076 26.3853 27.8663 26.2004 27.3328 25.1332C27.2573 24.9821 27.3185 24.7985 27.4697 24.723C27.6207 24.6474 27.8043 24.7088 27.8798 24.8598C28.4016 25.9034 29.9025 25.7991 30.2905 25.7535H30.29ZM36.1208 18.1052C36.1349 18.0838 36.1422 18.0714 36.1422 18.0711C36.2289 17.9257 36.417 17.8787 36.5619 17.9657C36.7073 18.0523 36.7544 18.2406 36.6674 18.3855C36.6659 18.3877 36.4523 18.7558 35.9762 19.1216C35.3279 19.6199 34.1931 20.1148 32.445 19.6777C32.2805 19.6368 32.1808 19.47 32.2219 19.306C32.2629 19.1415 32.4296 19.0417 32.5938 19.0828C34.9611 19.6747 35.9651 18.3387 36.12 18.1052H36.1208ZM20.36 16.3734C22.5229 18.914 24.7243 18.3812 24.7307 18.3796C24.8956 18.3425 25.0597 18.4463 25.0968 18.6112C25.1341 18.776 25.0302 18.9401 24.8653 18.9773C24.8584 18.9788 22.7649 19.4842 20.5846 17.4902C20.3374 17.264 20.0889 17.0057 19.8424 16.7108C19.8129 16.6756 19.7926 16.6353 19.7815 16.5935C20.0836 17.9836 20.3101 19.4607 20.3097 21.0498C20.2787 21.1978 20.212 21.3906 20.1342 21.6156C19.7056 22.8521 18.9695 24.9744 21.0323 27.5227C21.9414 28.6453 23.2195 29.2866 24.5678 29.4675C25.9709 29.6557 27.4516 29.344 28.6686 28.5566C29.8257 27.8079 30.1273 27.1834 30.3528 26.716C30.5008 26.4097 30.6051 26.1942 31.0402 26.0896C31.6896 25.9336 32.2923 25.7296 32.8474 25.4509C33.4102 25.1683 33.9227 24.8107 34.3831 24.3506C34.9191 23.8155 35.4505 23.1599 35.8569 22.3671C36.2651 21.5708 36.5449 20.6392 36.5742 19.5581C36.6048 18.4192 36.6654 18.3336 36.836 18.0936C36.9563 17.9242 37.1186 17.696 37.3382 17.19C37.5119 16.7898 37.6722 16.3608 37.7963 15.9065C37.9221 15.4468 38.0114 14.9634 38.0417 14.4601C38.192 11.9682 37.5636 10.9401 36.5833 9.33477L36.4496 9.11548C36.4998 9.20288 36.5063 9.31326 36.4569 9.40948C36.4557 9.41186 36.3645 9.59322 36.1862 9.86039C35.6011 10.7375 34.0795 12.5398 31.7445 11.956C31.58 11.9149 31.4803 11.7481 31.5214 11.5841C31.5623 11.4196 31.7291 11.3199 31.8933 11.361C34.1221 11.9179 35.5046 9.83628 35.835 9.26854C35.6782 8.94839 35.6234 8.61873 35.5571 8.2216C35.4291 7.45405 35.2543 6.40665 34.1121 4.70798C33.7307 4.14058 33.2058 3.58043 32.5799 3.08016C31.9795 2.60016 31.2833 2.17428 30.5276 1.84835C30.2087 1.71069 29.8188 1.61333 29.4343 1.51756V1.5179L29.4139 1.51213C29.1548 1.44737 28.8983 1.38296 28.659 1.30552C28.7997 2.0485 29.0873 4.24054 27.7436 4.9122C27.5925 4.98782 27.4089 4.92647 27.3334 4.77533C27.2579 4.62432 27.3192 4.44069 27.4702 4.36518C28.6537 3.77367 28.0135 1.20816 28.0116 1.20047C27.9973 1.14148 28.0012 1.08205 28.0196 1.02839C28.0192 1.02794 28.0185 1.0276 28.018 1.02714C27.5393 0.738465 27.0359 0.516918 26.5252 0.365446C25.4541 0.0476724 24.3466 0.0330695 23.3585 0.348579C22.3805 0.660692 21.5161 1.29896 20.9188 2.28998C20.6915 2.66684 20.5029 3.09386 20.3607 3.57228C20.2341 3.99828 20.2222 4.17726 20.2131 4.31718C20.1938 4.6036 20.1832 4.76265 19.6725 5.7145C20.8851 8.22296 20.3641 10.7053 19.6445 13.4954C19.684 13.6476 19.7239 13.8006 19.7641 13.9547C19.9673 14.7337 20.1769 15.538 20.3614 16.3745L20.36 16.3734ZM29.988 22.0566C30.0608 22.2091 29.9963 22.3916 29.8439 22.4645C29.8392 22.4667 28.2011 23.2841 26.6481 20.9547C26.5542 20.8137 26.5921 20.6227 26.7332 20.5288C26.8743 20.4349 27.0652 20.4728 27.1591 20.6139C28.4143 22.4971 29.5762 21.9139 29.5797 21.9124C29.7323 21.8394 29.9148 21.9039 29.9876 22.0565L29.988 22.0566ZM25.6414 11.2275C25.4915 11.3057 25.3066 11.2477 25.2284 11.0979C25.2269 11.0945 24.6438 9.92594 22.7875 10.5447C22.6273 10.5976 22.4543 10.5105 22.4011 10.3504C22.3482 10.19 22.4352 10.0172 22.5955 9.96386C24.9512 9.17877 25.7683 10.81 25.7705 10.8146C25.8488 10.9645 25.7909 11.1493 25.641 11.2275H25.6414Z" fill="white"/>
</svg>
