<svg width="33" height="36" viewBox="0 0 33 36" fill="none" xmlns="http://www.w3.org/2000/svg">
<path d="M12.6158 33.2569L9.55668 18.0891L8.854 18.2308L11.9131 33.3986L12.6158 33.2569Z" fill="white"/>
<path d="M10.9742 33.6616L9.43364 26.0308L8.73096 26.1727L10.2715 33.8036L10.9742 33.6616Z" fill="white"/>
<path d="M13.1262 0.219482L14.0776 3.37695L16.5446 2.87873L18.1065 10.6134H32.62V35.9357H12.8212V34.8494L9.19935 35.5807L8.58361 32.5323L0.0341797 4.16443L13.1262 0.219482ZM12.6467 1.11258L12.239 1.23541L12.9704 3.60054L13.3724 3.51948L12.6467 1.11258ZM15.9841 3.72314L15.6319 3.79446L17.0089 10.6137H17.3753L15.9841 3.72314ZM18.4641 32.4505H26.9817V31.9221H18.4641V32.4505ZM18.4641 31.3748H26.9817V30.9957H18.4641V31.3748ZM22.7203 28.3595C26.447 28.3595 29.4788 25.3274 29.4788 21.6009C29.4788 17.8744 26.447 14.8424 22.7203 14.8424C18.9935 14.8424 15.9617 17.8742 15.9617 21.6009C15.9617 25.3274 18.9937 28.3595 22.7203 28.3595ZM9.75961 34.7368L12.821 34.1185V31.5702L10.081 17.9832L10.7837 17.8415L12.8211 27.9438V25.2523L11.3067 17.7355L12.0094 17.5939L12.8211 21.6234V12.1898L11.8562 11.1179C11.6533 11.4549 10.8309 12.6151 10.5535 12.9695L11.3523 14.6967L11.231 14.9165L9.95512 13.6795C9.72271 13.925 9.43041 14.2114 9.27418 14.3635C9.23976 14.3971 9.18463 14.3668 9.19437 14.3197C9.2392 14.1063 9.32592 13.7065 9.40946 13.3787L7.68282 12.9597L7.80407 12.7398L9.69078 12.4939C9.84248 12.0703 10.3851 10.7555 10.5619 10.4041L6.38761 9.68714L6.70958 9.10379L11.3617 8.72635C11.654 8.16031 11.9826 7.56428 12.3626 6.93416C12.3626 6.93416 13.1292 5.7345 13.8576 5.8399C13.8963 5.84545 13.9328 5.86537 13.9585 5.89537C14.4369 6.45563 13.831 7.74394 13.831 7.74394C13.5008 8.40145 13.1719 8.99703 12.8488 9.5462L13.4067 10.6131H16.2782L14.9298 3.93609L3.98648 6.14567L9.75961 34.7368ZM3.14139 5.58541L12.3628 3.72314L11.6367 1.41688L0.927728 4.6442L7.06369 25.0059L3.14139 5.58541Z" fill="white"/>
<path d="M22.7204 15.2002C26.2494 15.2002 29.1209 18.0711 29.1209 21.6007C29.1209 25.1302 26.2499 28.0013 22.7204 28.0013C19.1909 28.0013 16.3198 25.1297 16.3198 21.6007C16.3198 18.0717 19.1913 15.2002 22.7204 15.2002ZM25.114 21.7853C25.102 22.3826 25.0299 22.9723 24.905 23.5496C25.335 23.6087 25.7621 23.6852 26.1858 23.7795C26.4261 23.1495 26.564 22.4768 26.585 21.7853H25.114ZM26.5848 21.4154C26.5636 20.7247 26.4263 20.053 26.1862 19.4235C25.7631 19.5185 25.336 19.5953 24.9056 19.6551C25.0302 20.2308 25.1018 20.819 25.1138 21.4154H26.5848ZM24.8225 23.9109C24.669 24.5025 24.46 25.078 24.1925 25.6272C24.4461 25.6693 24.6973 25.7207 24.9458 25.7848C25.3969 25.2949 25.765 24.7324 26.0402 24.1253C25.6375 24.0368 25.2313 23.966 24.8225 23.9109ZM26.0404 19.0761C25.7652 18.4685 25.3974 17.9065 24.9461 17.4162C24.6976 17.4802 24.4463 17.5317 24.1927 17.5737C24.4601 18.123 24.6691 18.6984 24.8227 19.2899C25.2313 19.2347 25.6375 19.1638 26.0404 19.0762V19.0761ZM24.6405 17.1079C24.2565 16.7449 23.8232 16.4322 23.3514 16.1762C23.5968 16.5117 23.8114 16.8663 24.0079 17.2301C24.2205 17.1981 24.4315 17.156 24.6405 17.1079ZM23.7102 15.9508C24.2068 16.2416 24.6565 16.5974 25.0556 17.0013C25.3034 16.9308 25.5485 16.85 25.7902 16.7569C25.167 16.3611 24.4644 16.0829 23.7102 15.9509V15.9508ZM26.153 17.0093C25.885 17.1211 25.613 17.22 25.3373 17.3048C25.7761 17.8087 26.1367 18.3774 26.4064 18.99C26.8185 18.8896 27.226 18.7716 27.6284 18.6363C27.2444 18.0034 26.7431 17.4517 26.153 17.0093ZM27.815 18.9642C27.3973 19.1068 26.9747 19.2314 26.5478 19.3377C26.7932 19.9952 26.9339 20.6953 26.9549 21.415H28.4524C28.4241 20.5344 28.1988 19.7029 27.815 18.9643V18.9642ZM28.4522 21.7853H26.9545C26.9337 22.5058 26.7928 23.2066 26.5473 23.8646C26.9747 23.9707 27.3977 24.0948 27.8148 24.237C28.1988 23.4982 28.4241 22.6668 28.4522 21.7853ZM27.6279 24.5647C27.2258 24.4297 26.8182 24.3117 26.4061 24.2111C26.1367 24.8237 25.7761 25.3918 25.3375 25.8956C25.6133 25.9805 25.8852 26.0793 26.1533 26.1913C26.7431 25.7491 27.2441 25.1976 27.6279 24.5647ZM25.7899 26.4439C25.5483 26.3506 25.3031 26.2701 25.0554 26.1994C24.6568 26.6037 24.2069 26.9594 23.71 27.2502C24.4643 27.1182 25.167 26.8399 25.7899 26.4439ZM24.6405 26.0929C24.4315 26.045 24.221 26.0027 24.008 25.9705C23.8114 26.334 23.5966 26.6885 23.3515 27.0246C23.8232 26.7688 24.2565 26.4559 24.6405 26.0929ZM22.9054 26.9918C23.1689 26.6506 23.4062 26.2935 23.6157 25.9206C23.3807 25.8962 23.1437 25.8837 22.9054 25.8791V26.9918ZM22.9054 25.509C23.2071 25.5151 23.5064 25.536 23.803 25.5715C24.0777 25.0263 24.2974 24.4556 24.4537 23.8657C23.9396 23.8083 23.4225 23.7765 22.9052 23.7703L22.9054 25.509ZM22.9054 23.4011C23.4505 23.4072 23.9948 23.4413 24.5368 23.503C24.6606 22.9416 24.7322 22.3671 24.7442 21.785H22.9053L22.9054 23.4011ZM22.9054 21.4154H24.7442C24.7323 20.8349 24.6608 20.2617 24.5376 19.7014C23.998 19.7631 23.4531 19.7976 22.9054 19.8037V21.4154ZM22.9054 19.4301C23.4228 19.424 23.9398 19.392 24.4539 19.3348C24.2971 18.7447 24.0779 18.1738 23.8032 17.6289C23.5068 17.6646 23.2074 17.6856 22.9056 17.6919L22.9054 19.4301ZM22.9054 17.3219C23.1436 17.3168 23.3813 17.3044 23.6159 17.2804C23.4067 16.9073 23.1692 16.5504 22.9054 16.2092V17.3219ZM16.9885 21.4154H18.4862C18.507 20.6957 18.6477 19.9956 18.8929 19.338C18.4658 19.2317 18.0434 19.1069 17.6254 18.9642C17.2421 19.7028 17.0166 20.5339 16.9885 21.4154ZM19.4003 24.1248C19.6755 24.7324 20.0433 25.2943 20.4947 25.7846C20.7432 25.7207 20.9944 25.6692 21.248 25.6272C20.9807 25.0779 20.7717 24.5025 20.618 23.9109C20.2095 23.966 19.8032 24.0368 19.4003 24.1247V24.1248ZM21.2483 17.5737C20.9947 17.5316 20.7434 17.4802 20.4949 17.4162C20.0438 17.9065 19.6753 18.4685 19.4005 19.0761C19.8036 19.1639 20.2097 19.2346 20.6183 19.2902C20.7719 18.6983 20.9809 18.1229 21.2483 17.5736V17.5737ZM20.5359 23.5496C20.4106 22.9726 20.3389 22.3831 20.3269 21.7853H18.8559C18.8771 22.4769 19.015 23.1494 19.2553 23.7794C19.6786 23.6851 20.1057 23.6087 20.5359 23.5496ZM20.3265 21.4154C20.3385 20.819 20.41 20.2309 20.5347 19.6551C20.1042 19.5955 19.677 19.5185 19.2541 19.4235C19.0139 20.0527 18.8766 20.7245 18.8554 21.4154H20.3265ZM17.8128 18.6364C18.215 18.7712 18.6228 18.8893 19.0349 18.9902C19.3042 18.3775 19.6651 17.8094 20.104 17.3051C19.8282 17.2202 19.5563 17.1213 19.2881 17.0095C18.6976 17.4517 18.1964 18.0033 17.8128 18.6365V18.6364ZM19.6508 16.7571C19.8924 16.8504 20.1376 16.9309 20.3853 17.0016C20.7839 16.5979 21.2338 16.2416 21.7302 15.951C20.9766 16.0828 20.2735 16.361 19.6508 16.757V16.7571ZM20.8005 17.1077C21.0094 17.1557 21.22 17.198 21.4325 17.2301C21.629 16.8667 21.8439 16.5122 22.0896 16.176C21.6178 16.4321 21.1844 16.7451 20.8005 17.1077ZM22.5356 16.2086C22.272 16.55 22.0348 16.9069 21.825 17.2798C22.06 17.3043 22.2971 17.3168 22.5356 17.3214V16.2086ZM22.5356 17.6917C22.2339 17.6856 21.9341 17.6646 21.638 17.6287C21.3632 18.1738 21.1436 18.7445 20.9874 19.3345C21.5019 19.3918 22.0185 19.4237 22.5358 19.4299L22.5356 17.6917ZM22.5356 19.8039C21.9877 19.7978 21.4433 19.7634 20.9033 19.7017C20.7796 20.2622 20.7085 20.8351 20.6965 21.4156H22.5354L22.535 19.8039H22.5356ZM22.5356 21.7851H20.6968C20.7088 22.3673 20.7803 22.9414 20.9043 23.5032C21.4457 23.4415 21.9904 23.4073 22.5356 23.4012V21.7851ZM22.5356 23.7705C22.0182 23.7766 21.5011 23.8085 20.9871 23.8658C21.1438 24.4558 21.363 25.0267 21.6377 25.5716C21.9341 25.5359 22.2337 25.515 22.5354 25.5092L22.5356 23.7705ZM22.5356 25.8786C22.2973 25.8837 22.0598 25.8963 21.8253 25.9202C22.0345 26.2928 22.272 26.6501 22.5356 26.9913V25.8786ZM21.4326 25.9704C21.22 26.0025 21.0096 26.0446 20.8006 26.0927C21.1846 26.4556 21.6178 26.7685 22.0897 27.0247C21.8439 26.6888 21.6291 26.3344 21.4326 25.9704ZM21.7302 27.25C21.2338 26.9592 20.7839 26.6035 20.3854 26.1994C20.1376 26.2701 19.8925 26.3509 19.6508 26.4439C20.2735 26.8396 20.9766 27.118 21.7302 27.25ZM19.2877 26.1913C19.5557 26.0792 19.8277 25.98 20.1034 25.8957C19.6647 25.3918 19.304 24.8232 19.0349 24.2106C18.6228 24.311 18.215 24.4296 17.813 24.5643C18.1964 25.1974 18.6976 25.7489 19.2877 26.1914V26.1913ZM17.6258 24.2369C18.043 24.0946 18.4658 23.9705 18.8937 23.8644C18.6477 23.2065 18.5071 22.5056 18.4864 21.7851H16.9889C17.0166 22.6667 17.2422 23.498 17.6258 24.2369Z" fill="white"/>
</svg>
