<svg width="38" height="38" viewBox="0 0 38 38" fill="none" xmlns="http://www.w3.org/2000/svg">
<path d="M10.6369 16.912C10.7365 16.8875 10.8401 16.9148 10.9141 16.9843C11.9076 17.9193 13.6704 18.1844 13.9336 18.2194C14.1966 18.1844 15.9589 17.9195 16.9492 16.985C17.0232 16.9148 17.127 16.8873 17.2268 16.9123C20.0227 17.6082 22.9109 18.3289 24.1654 22.8859C28.9682 17.5077 28.7906 9.22292 23.6293 4.06145C21.0394 1.47137 17.5955 0.0449219 13.9328 0.0449219C10.2698 0.0449219 6.82607 1.47137 4.23622 4.06122C1.64614 6.65164 0.219727 10.0953 0.219727 13.7578C0.219727 17.1573 1.45018 20.3667 3.69724 22.8814C4.95531 18.3274 7.84244 17.607 10.6375 16.9114L10.6369 16.912ZM8.76203 9.64484C8.84614 8.59428 9.17105 7.6405 9.7278 6.81115C10.6988 5.35462 12.2318 4.51915 13.933 4.51915C15.6343 4.51915 17.167 5.35496 18.1388 6.81194C18.6891 7.63292 19.014 8.58601 19.1039 9.6445C19.1064 9.67439 19.1066 9.70201 19.1089 9.73156C19.1089 9.73179 19.1092 9.73213 19.1092 9.73213C19.1092 9.73292 19.1089 9.73382 19.1092 9.73439C19.5449 15.5594 14.7694 16.4418 14.7209 16.4503C14.7044 16.4531 14.6874 16.4545 14.6706 16.4545H13.1955C13.1788 16.4545 13.162 16.4531 13.1451 16.4503C13.0961 16.4418 8.26822 15.552 8.76192 9.64473L8.76203 9.64484Z" fill="white"/>
<path d="M20.6344 21.8842C20.6344 21.719 20.7681 21.585 20.9337 21.585C21.0992 21.585 21.233 21.719 21.233 21.8842V25.3685C22.0902 24.8271 22.895 24.1901 23.6295 23.4556C23.6475 23.4376 23.664 23.4185 23.6818 23.4005C23.6818 23.4002 23.6815 23.3999 23.6815 23.3996C22.5903 18.9417 20.001 18.2213 17.236 17.5315C16.0089 18.5818 14.0515 18.8093 13.9663 18.8185C13.944 18.8208 13.9224 18.8208 13.9001 18.8185C13.8148 18.809 11.8569 18.5818 10.627 17.5312C7.86294 18.2207 5.27354 18.9416 4.17871 23.3968C4.19784 23.4162 4.21562 23.4365 4.23497 23.456C4.96969 24.1907 5.77539 24.8283 6.63316 25.37L6.6335 21.8843C6.6335 21.719 6.7672 21.5851 6.93271 21.5851C7.09822 21.5851 7.23192 21.719 7.23192 21.8843V25.7266C9.2563 26.8639 11.5466 27.4726 13.9322 27.4726C16.0469 27.4726 18.0873 26.9946 19.9337 26.0943C19.9345 26.094 19.9348 26.0931 19.9356 26.0929C19.9365 26.0926 19.9373 26.0926 19.9379 26.0923C20.1735 25.9774 20.4054 25.8544 20.6347 25.7258L20.6344 21.8842Z" fill="white"/>
<path d="M13.2216 15.8566H14.6431C15.011 15.7854 18.7255 14.9442 18.5324 10.1172C18.2892 10.145 18.0515 10.1636 17.8264 10.1636C15.3604 10.1636 13.9565 8.58831 13.2498 7.40869C12.1804 8.09167 11.0592 8.28865 10.1406 8.28865C9.97191 8.28865 9.81342 8.2805 9.66002 8.26952C9.5004 8.71714 9.39817 9.19239 9.35798 9.69401C8.92213 14.9141 12.843 15.7848 13.2216 15.8566Z" fill="white"/>
<path d="M26.9263 20.5447C26.841 20.4597 26.7487 20.3846 26.6521 20.3164C25.9917 21.5998 25.1266 22.8041 24.0526 23.878C23.1715 24.7592 22.1941 25.5089 21.1466 26.1226C21.1123 26.1575 21.0681 26.1798 21.0199 26.1944C20.8466 26.2934 20.6717 26.3894 20.4946 26.481C20.562 26.5759 20.6363 26.6664 20.7201 26.7503C21.8977 27.9279 24.2471 27.4933 25.9568 25.7834C27.6687 24.0721 28.1033 21.7221 26.9263 20.5447Z" fill="white"/>
<path d="M13.7393 7.06274C14.4228 8.21983 15.8663 9.82432 18.487 9.51866C18.3859 8.63383 18.1035 7.83527 17.6404 7.14493C17.0365 6.23927 16.1892 5.607 15.2194 5.31006C14.8061 6.01749 14.3102 6.60561 13.7393 7.06263V7.06274Z" fill="white"/>
<path d="M13.1751 6.74183C13.7241 6.34606 14.2035 5.8176 14.6057 5.17005C14.3853 5.13632 14.161 5.11719 13.9324 5.11719C12.4348 5.11719 11.0835 5.85587 10.2246 7.14349C10.1078 7.31749 10.0034 7.49851 9.90967 7.68451C10.844 7.72006 12.0598 7.55387 13.1751 6.74172V6.74183Z" fill="white"/>
<path d="M36.9652 33.2633L27.7983 24.0957C27.4976 24.8344 27.0233 25.5638 26.3801 26.207C25.737 26.8499 25.008 27.3209 24.2695 27.6213L33.4386 36.7903C34.4103 37.7621 35.9916 37.7623 36.9634 36.7903C37.9359 35.8171 37.9374 34.2348 36.9653 33.2634L36.9652 33.2633ZM36.2769 36.1028C35.9711 36.4085 35.5697 36.5611 35.1683 36.5611C34.7666 36.5611 34.3654 36.4085 34.0596 36.1028C33.7632 35.8067 33.6002 35.4131 33.6002 34.9942C33.6002 34.5756 33.7632 34.1818 34.0596 33.8856C34.3555 33.5895 34.7494 33.4265 35.1683 33.4265C35.5869 33.4265 35.9806 33.5895 36.2769 33.8856C36.888 34.4971 36.888 35.4916 36.2769 36.1028Z" fill="white"/>
</svg>
