<svg xmlns="http://www.w3.org/2000/svg" viewBox="0 0 217 217"><defs><style>.cls-1{fill:#006247;}</style></defs><g id="DIrect"><path class="cls-1" d="M131.77,205.94H85.66V183a78.55,78.55,0,0,1-14.79-6.12l-15,15-32.6-32.6,15-15a79.4,79.4,0,0,1-6.06-14.58H11.06V83.6H32.21A78.71,78.71,0,0,1,38.27,69l-15-15,32.6-32.6,15,15A78.55,78.55,0,0,1,85.66,30.3V11.06h46.11V30.43a78.77,78.77,0,0,1,14.36,6l15-15,32.6,32.6-15,15a78.71,78.71,0,0,1,6.06,14.58h21.15v46.1H184.79a78.71,78.71,0,0,1-6.06,14.58l15,15-32.6,32.6-15-15a78.77,78.77,0,0,1-14.36,6Zm-32.61-13.5h19.11v-20.1l5.22-1.21a65.73,65.73,0,0,0,20.15-8.41l4.56-2.87,12.9,12.91,13.51-13.51-12.91-12.9,2.87-4.56A65.6,65.6,0,0,0,173,121.44l1.2-5.24h18.22V97.1H174.22L173,91.86a65.7,65.7,0,0,0-8.45-20.35L161.7,67l12.91-12.9L161.1,40.54,148.2,53.45l-4.56-2.87a65.71,65.71,0,0,0-20.15-8.4L118.27,41V24.56H99.16V40.9L93.9,42.09a65.44,65.44,0,0,0-20.54,8.49l-4.55,2.87L55.9,40.54,42.39,54.05,55.3,67l-2.87,4.55A65.7,65.7,0,0,0,44,91.86l-1.2,5.24H24.56v19.1H42.78l1.2,5.24a65.84,65.84,0,0,0,8.45,20.35l2.87,4.55L42.39,159.25,55.9,172.76l12.91-12.91,4.55,2.87a65.7,65.7,0,0,0,20.54,8.5l5.26,1.19Zm9.34-38.69a47.1,47.1,0,1,1,47.1-47.1A47.15,47.15,0,0,1,108.5,153.75Zm0-80.7a33.6,33.6,0,1,0,33.6,33.6A33.63,33.63,0,0,0,108.5,73.05Z"/></g></svg>