<svg xmlns="http://www.w3.org/2000/svg" viewBox="0 0 217 217"><defs><style>.cls-1{fill:#006247;}</style></defs><g id="Oracle"><path class="cls-1" d="M41.26,212.34a34.59,34.59,0,1,1,34.59-34.59A34.63,34.63,0,0,1,41.26,212.34Zm0-55.68a21.09,21.09,0,1,0,21.09,21.09A21.11,21.11,0,0,0,41.26,156.66Z"/><path class="cls-1" d="M41.26,11.41A34.63,34.63,0,0,0,6.67,46V177.75l6.75,6.75h4.06c-3.84-4.85-2.26-12.7,2.69-15.91V46a21.09,21.09,0,0,1,42.18,0V167.78c8.42,1,10.62,10.91,6.64,16.72h.11l6.75-6.75V46A34.63,34.63,0,0,0,41.26,11.41Z"/><polygon class="cls-1" points="156.64 212.34 41.26 212.34 41.26 198.84 146.31 198.84 193.39 25.16 41.26 25.16 41.26 11.66 211.03 11.66 156.64 212.34"/></g></svg>