<svg width="189" height="23" viewBox="0 0 189 23" fill="none" xmlns="http://www.w3.org/2000/svg">
<path d="M13.464 14.4H5.664L4.176 18H0.192L7.68 1.2H11.52L19.032 18H14.952L13.464 14.4ZM12.24 11.448L9.576 5.016L6.912 11.448H12.24Z" fill="#E30613"/>
<path d="M27.7639 11.232H25.0759V18H21.2119V1.2H25.0759V7.992H27.8599L32.2759 1.2H36.3799L30.8839 9.312L36.5479 18H32.1319L27.7639 11.232ZM43.9418 18.192C42.5818 18.192 41.3578 17.912 40.2698 17.352C39.1978 16.776 38.3578 15.984 37.7498 14.976C37.1418 13.968 36.8378 12.824 36.8378 11.544C36.8378 10.264 37.1418 9.12 37.7498 8.112C38.3578 7.104 39.1978 6.32 40.2698 5.76C41.3578 5.184 42.5818 4.896 43.9418 4.896C45.3018 4.896 46.5178 5.184 47.5898 5.76C48.6618 6.32 49.5018 7.104 50.1098 8.112C50.7178 9.12 51.0218 10.264 51.0218 11.544C51.0218 12.824 50.7178 13.968 50.1098 14.976C49.5018 15.984 48.6618 16.776 47.5898 17.352C46.5178 17.912 45.3018 18.192 43.9418 18.192ZM43.9418 15.12C44.9018 15.12 45.6858 14.8 46.2938 14.16C46.9178 13.504 47.2298 12.632 47.2298 11.544C47.2298 10.456 46.9178 9.592 46.2938 8.952C45.6858 8.296 44.9018 7.968 43.9418 7.968C42.9818 7.968 42.1898 8.296 41.5658 8.952C40.9418 9.592 40.6298 10.456 40.6298 11.544C40.6298 12.632 40.9418 13.504 41.5658 14.16C42.1898 14.8 42.9818 15.12 43.9418 15.12ZM66.1969 18V10.272L62.3329 16.752H60.7489L56.9809 10.248V18H53.5969V5.088H57.5089L61.6369 12.552L66.0289 5.088H69.5329L69.5809 18H66.1969ZM90.9992 11.496C90.9992 13.496 90.3272 15.08 88.9832 16.248C87.6552 17.4 85.7512 18.064 83.2712 18.24V22.656H79.8392V18.24C77.3592 18.064 75.4472 17.408 74.1032 16.272C72.7752 15.12 72.1112 13.528 72.1112 11.496C72.1112 9.496 72.7672 7.944 74.0792 6.84C75.4072 5.736 77.3272 5.096 79.8392 4.92V0.191999H83.2712V4.92C85.7512 5.096 87.6552 5.744 88.9832 6.864C90.3272 7.984 90.9992 9.528 90.9992 11.496ZM75.7352 11.496C75.7352 12.648 76.0632 13.536 76.7192 14.16C77.3752 14.784 78.4152 15.176 79.8392 15.336V7.824C78.4152 7.968 77.3752 8.344 76.7192 8.952C76.0632 9.544 75.7352 10.392 75.7352 11.496ZM83.2712 15.336C84.6952 15.176 85.7352 14.784 86.3912 14.16C87.0632 13.536 87.3992 12.648 87.3992 11.496C87.3992 10.392 87.0632 9.544 86.3912 8.952C85.7352 8.344 84.6952 7.968 83.2712 7.824V15.336ZM99.5824 18.192C98.2224 18.192 96.9984 17.912 95.9104 17.352C94.8384 16.776 93.9984 15.984 93.3904 14.976C92.7824 13.968 92.4784 12.824 92.4784 11.544C92.4784 10.264 92.7824 9.12 93.3904 8.112C93.9984 7.104 94.8384 6.32 95.9104 5.76C96.9984 5.184 98.2224 4.896 99.5824 4.896C100.942 4.896 102.158 5.184 103.23 5.76C104.302 6.32 105.142 7.104 105.75 8.112C106.358 9.12 106.662 10.264 106.662 11.544C106.662 12.824 106.358 13.968 105.75 14.976C105.142 15.984 104.302 16.776 103.23 17.352C102.158 17.912 100.942 18.192 99.5824 18.192ZM99.5824 15.12C100.542 15.12 101.326 14.8 101.934 14.16C102.558 13.504 102.87 12.632 102.87 11.544C102.87 10.456 102.558 9.592 101.934 8.952C101.326 8.296 100.542 7.968 99.5824 7.968C98.6224 7.968 97.8304 8.296 97.2064 8.952C96.5824 9.592 96.2704 10.456 96.2704 11.544C96.2704 12.632 96.5824 13.504 97.2064 14.16C97.8304 14.8 98.6224 15.12 99.5824 15.12ZM116.846 4.896C118.046 4.896 119.134 5.176 120.109 5.736C121.102 6.28 121.878 7.056 122.438 8.064C122.998 9.056 123.278 10.216 123.278 11.544C123.278 12.872 122.998 14.04 122.438 15.048C121.878 16.04 121.102 16.816 120.109 17.376C119.134 17.92 118.046 18.192 116.846 18.192C115.198 18.192 113.902 17.672 112.958 16.632V22.656H109.214V5.088H112.79V6.576C113.718 5.456 115.07 4.896 116.846 4.896ZM116.198 15.12C117.158 15.12 117.942 14.8 118.55 14.16C119.174 13.504 119.486 12.632 119.486 11.544C119.486 10.456 119.174 9.592 118.55 8.952C117.942 8.296 117.158 7.968 116.198 7.968C115.238 7.968 114.446 8.296 113.822 8.952C113.214 9.592 112.91 10.456 112.91 11.544C112.91 12.632 113.214 13.504 113.822 14.16C114.446 14.8 115.238 15.12 116.198 15.12ZM136.281 8.16H131.913V18H128.193V8.16H123.825V5.088H136.281V8.16ZM154.861 14.832V21.48H151.261V18H139.405V21.48H135.805L135.829 14.832H136.501C137.509 14.8 138.221 14.064 138.637 12.624C139.053 11.184 139.309 9.128 139.405 6.456L139.597 1.2H152.509V14.832H154.861ZM142.837 6.816C142.757 8.816 142.589 10.496 142.333 11.856C142.077 13.2 141.685 14.192 141.157 14.832H148.669V4.368H142.909L142.837 6.816ZM163.075 18.192C161.715 18.192 160.491 17.912 159.403 17.352C158.331 16.776 157.491 15.984 156.883 14.976C156.275 13.968 155.971 12.824 155.971 11.544C155.971 10.264 156.275 9.12 156.883 8.112C157.491 7.104 158.331 6.32 159.403 5.76C160.491 5.184 161.715 4.896 163.075 4.896C164.435 4.896 165.651 5.184 166.723 5.76C167.795 6.32 168.635 7.104 169.243 8.112C169.851 9.12 170.155 10.264 170.155 11.544C170.155 12.824 169.851 13.968 169.243 14.976C168.635 15.984 167.795 16.776 166.723 17.352C165.651 17.912 164.435 18.192 163.075 18.192ZM163.075 15.12C164.035 15.12 164.819 14.8 165.427 14.16C166.051 13.504 166.363 12.632 166.363 11.544C166.363 10.456 166.051 9.592 165.427 8.952C164.819 8.296 164.035 7.968 163.075 7.968C162.115 7.968 161.323 8.296 160.699 8.952C160.075 9.592 159.763 10.456 159.763 11.544C159.763 12.632 160.075 13.504 160.699 14.16C161.323 14.8 162.115 15.12 163.075 15.12ZM185.33 18V10.272L181.466 16.752H179.882L176.114 10.248V18H172.73V5.088H176.642L180.77 12.552L185.162 5.088H188.666L188.714 18H185.33Z" fill="white"/>
</svg>
