<svg width="90" height="21" viewBox="0 0 90 21" fill="none" xmlns="http://www.w3.org/2000/svg">
<path d="M13.464 13.4H5.664L4.176 17H0.192L7.68 0.199999H11.52L19.032 17H14.952L13.464 13.4ZM12.24 10.448L9.576 4.016L6.912 10.448H12.24Z" fill="#E30613"/>
<path d="M27.7639 10.232H25.0759V17H21.2119V0.199999H25.0759V6.992H27.8599L32.2759 0.199999H36.3799L30.8839 8.312L36.5479 17H32.1319L27.7639 10.232ZM56.1191 13.832V20.48H52.5191V17H40.6631V20.48H37.0631L37.0871 13.832H37.7591C38.7671 13.8 39.4791 13.064 39.8951 11.624C40.3111 10.184 40.5671 8.128 40.6631 5.456L40.8551 0.199999H53.7671V13.832H56.1191ZM44.0951 5.816C44.0151 7.816 43.8471 9.496 43.5911 10.856C43.3351 12.2 42.9431 13.192 42.4151 13.832H49.9271V3.368H44.1671L44.0951 5.816ZM64.3324 17.192C62.9724 17.192 61.7484 16.912 60.6604 16.352C59.5884 15.776 58.7484 14.984 58.1404 13.976C57.5324 12.968 57.2284 11.824 57.2284 10.544C57.2284 9.264 57.5324 8.12 58.1404 7.112C58.7484 6.104 59.5884 5.32 60.6604 4.76C61.7484 4.184 62.9724 3.896 64.3324 3.896C65.6924 3.896 66.9084 4.184 67.9804 4.76C69.0524 5.32 69.8924 6.104 70.5004 7.112C71.1084 8.12 71.4124 9.264 71.4124 10.544C71.4124 11.824 71.1084 12.968 70.5004 13.976C69.8924 14.984 69.0524 15.776 67.9804 16.352C66.9084 16.912 65.6924 17.192 64.3324 17.192ZM64.3324 14.12C65.2924 14.12 66.0764 13.8 66.6844 13.16C67.3084 12.504 67.6204 11.632 67.6204 10.544C67.6204 9.456 67.3084 8.592 66.6844 7.952C66.0764 7.296 65.2924 6.968 64.3324 6.968C63.3724 6.968 62.5804 7.296 61.9564 7.952C61.3324 8.592 61.0204 9.456 61.0204 10.544C61.0204 11.632 61.3324 12.504 61.9564 13.16C62.5804 13.8 63.3724 14.12 64.3324 14.12ZM86.5875 17V9.272L82.7235 15.752H81.1395L77.3715 9.248V17H73.9875V4.088H77.8995L82.0275 11.552L86.4195 4.088H89.9235L89.9715 17H86.5875Z" fill="white"/>
</svg>
