<svg xmlns="http://www.w3.org/2000/svg" xmlns:xlink="http://www.w3.org/1999/xlink" width="279.708" height="69.525" viewBox="0 0 279.708 69.525">
  <defs>
    <clipPath id="clip-path">
      <path id="Контур_215" data-name="Контур 215" d="M0,34.256H279.708V-35.269H0Z" transform="translate(0 35.269)" fill="#fff"/>
    </clipPath>
  </defs>
  <g id="Сгруппировать_208" data-name="Сгруппировать 208" transform="translate(0 35.269)">
    <g id="Сгруппировать_207" data-name="Сгруппировать 207" transform="translate(0 -35.269)" clip-path="url(#clip-path)">
      <g id="Сгруппировать_203" data-name="Сгруппировать 203" transform="translate(75.752 0)">
        <path id="Контур_211" data-name="Контур 211" d="M19.79,26.218H-3.292V14.6H20.354l.055.006A5.779,5.779,0,0,1,25.579,20.3a5.98,5.98,0,0,1-5.79,5.918M-3.292-11.9H20.953l.091.016a5.658,5.658,0,0,1,4.725,5.539A5.931,5.931,0,0,1,20.815-.535L-3.268-.491ZM31.036,6.635C39.875,3.7,41.482-3.722,41.456-9.768,41.436-19,34.921-26.989,15.628-26.989l-36,0V42.392H15.54c19.4,0,26.545-9.965,26.545-19.945,0-12.088-11.049-15.812-11.049-15.812" transform="translate(20.375 26.993)" fill="#fff"/>
      </g>
      <g id="Сгруппировать_204" data-name="Сгруппировать 204" transform="translate(218.843 0.011)">
        <path id="Контур_212" data-name="Контур 212" d="M0,0H60.845l-.03,15.143H16.908l.043,11.179H56.534V41.547H16.951V53.652H60.865l-.012,15.861H0Z" fill="#fff"/>
      </g>
      <g id="Сгруппировать_205" data-name="Сгруппировать 205" transform="translate(146.653 0.097)">
        <path id="Контур_213" data-name="Контур 213" d="M22.674,10.61a5.752,5.752,0,0,1-5.435,4.761l-23.746.008V4.265H17.251a5.449,5.449,0,0,1,5.423,4.83ZM13.451-10.924h-36.8V58.485h16.9V30.4l18.607-.018a9.668,9.668,0,0,1,9.472,9.829V58.426l16.541-.012-.026-22.4c0-10.383-10.026-13.442-10.026-13.442S38.366,19.509,38.366,7.241c0-15.015-12.894-18.165-24.915-18.165" transform="translate(23.345 10.924)" fill="#fff"/>
      </g>
      <g id="Сгруппировать_206" data-name="Сгруппировать 206" transform="translate(0.001 0.011)">
        <path id="Контур_214" data-name="Контур 214" d="M31.925,25.978c-.246,0-23.1.447-30.99-.323C-11.77,24.407-16.275,15-16.275,7.314c0-9.584,6.533-16.63,16.647-17.954,4.814-.633,31.13-.333,31.412-.329l.548.006.055-15.782h-.554l-29.786.055A44.174,44.174,0,0,0-12.4-23.856,35.374,35.374,0,0,0-26.027-12.835,34.47,34.47,0,0,0-32.869,7.856,42.2,42.2,0,0,0-32.3,14.8,33.794,33.794,0,0,0-13.369,38.72c3.337,1.469,8.488,3.233,18.875,3.818l5.6.112s20.763.024,20.763.024h.546l.061-16.7Z" transform="translate(32.869 26.746)" fill="#fff"/>
      </g>
    </g>
  </g>
</svg>
