<svg xmlns="http://www.w3.org/2000/svg" width="120.31" height="136.616" viewBox="0 0 120.31 136.616">
  <g id="Сгруппировать_5774" data-name="Сгруппировать 5774" transform="translate(-308.92 -1172.328)">
    <g id="Сгруппировать_199" data-name="Сгруппировать 199" transform="translate(-633 -503)">
      <g id="Сгруппировать_169" data-name="Сгруппировать 169" transform="translate(942.392 1740.544)">
        <g id="Сгруппировать_160" data-name="Сгруппировать 160" transform="translate(8.943 8.216)">
          <path id="Контур_196" data-name="Контур 196" d="M771.527,791.254A26.756,26.756,0,1,1,798.282,764.5,26.787,26.787,0,0,1,771.527,791.254Zm0-44.607a17.851,17.851,0,1,0,17.85,17.851A17.871,17.871,0,0,0,771.527,746.648Z" transform="translate(-744.77 -737.742)" fill="#006247"/>
        </g>
        <g id="Сгруппировать_161" data-name="Сгруппировать 161" transform="translate(31.332 0)">
          <rect id="Прямоугольник_60" data-name="Прямоугольник 60" width="8.906" height="10.931" fill="#006247"/>
        </g>
        <g id="Сгруппировать_162" data-name="Сгруппировать 162" transform="translate(31.332 60.47)">
          <rect id="Прямоугольник_61" data-name="Прямоугольник 61" width="8.906" height="10.93" fill="#006247"/>
        </g>
        <g id="Сгруппировать_163" data-name="Сгруппировать 163" transform="translate(60.469 30.519)">
          <rect id="Прямоугольник_62" data-name="Прямоугольник 62" width="10.931" height="8.906" fill="#006247"/>
        </g>
        <g id="Сгруппировать_164" data-name="Сгруппировать 164" transform="translate(0 30.519)">
          <rect id="Прямоугольник_63" data-name="Прямоугольник 63" width="10.93" height="8.906" fill="#006247"/>
        </g>
        <g id="Сгруппировать_165" data-name="Сгруппировать 165" transform="translate(50.066 49.338)">
          <rect id="Прямоугольник_64" data-name="Прямоугольник 64" width="8.906" height="10.93" transform="matrix(0.707, -0.707, 0.707, 0.707, 0, 6.297)" fill="#006247"/>
        </g>
        <g id="Сгруппировать_166" data-name="Сгруппировать 166" transform="translate(7.307 6.579)">
          <rect id="Прямоугольник_65" data-name="Прямоугольник 65" width="8.906" height="10.931" transform="translate(0 6.297) rotate(-45)" fill="#006247"/>
        </g>
        <g id="Сгруппировать_167" data-name="Сгруппировать 167" transform="translate(50.066 6.58)">
          <rect id="Прямоугольник_66" data-name="Прямоугольник 66" width="10.93" height="8.906" transform="matrix(0.707, -0.707, 0.707, 0.707, 0, 7.729)" fill="#006247"/>
        </g>
        <g id="Сгруппировать_168" data-name="Сгруппировать 168" transform="translate(7.308 49.338)">
          <rect id="Прямоугольник_67" data-name="Прямоугольник 67" width="10.931" height="8.905" transform="matrix(0.707, -0.707, 0.707, 0.707, 0, 7.729)" fill="#006247"/>
        </g>
      </g>
      <g id="Сгруппировать_170" data-name="Сгруппировать 170" transform="translate(941.92 1675.328)">
        <path id="Контур_197" data-name="Контур 197" d="M734.934,668.885l-4.436-7.722,60.472-34.737L850.807,660.8l-4.436,7.722L790.97,636.7Z" transform="translate(-730.498 -626.426)" fill="#006247"/>
      </g>
      <g id="Сгруппировать_171" data-name="Сгруппировать 171" transform="translate(999.674 1706.803)">
        <path id="Контур_198" data-name="Контур 198" d="M867.036,768.684H818.047v-8.906h40.083V674.14h8.906Z" transform="translate(-818.047 -674.14)" fill="#006247"/>
      </g>
      <g id="Сгруппировать_172" data-name="Сгруппировать 172" transform="translate(955.809 1704.665)">
        <rect id="Прямоугольник_68" data-name="Прямоугольник 68" width="8.906" height="56.112" transform="translate(0)" fill="#006247"/>
      </g>
      <g id="Сгруппировать_173" data-name="Сгруппировать 173" transform="translate(965.95 1763.289)">
        <path id="Контур_199" data-name="Контур 199" d="M779.151,784.221a12.227,12.227,0,1,1,12.227-12.227A12.241,12.241,0,0,1,779.151,784.221Zm0-15.548a3.321,3.321,0,1,0,3.321,3.321A3.325,3.325,0,0,0,779.151,768.673Z" transform="translate(-766.924 -759.767)" fill="#006247"/>
      </g>
      <g id="Сгруппировать_174" data-name="Сгруппировать 174" transform="translate(978.092 1707.575)">
        <rect id="Прямоугольник_69" data-name="Прямоугольник 69" width="47.796" height="8.906" transform="translate(0 0)" fill="#006247"/>
      </g>
      <g id="Сгруппировать_175" data-name="Сгруппировать 175" transform="translate(1009.958 1725.182)">
        <path id="Контур_200" data-name="Контур 200" d="M857.6,735.408H833.637V702H857.6ZM842.543,726.5H848.7v-15.6h-6.157Z" transform="translate(-833.637 -702)" fill="#006247"/>
      </g>
    </g>
  </g>
</svg>
