<svg width="100" height="23" viewBox="0 0 100 23" fill="none" xmlns="http://www.w3.org/2000/svg">
<path d="M88.2962 0.296148C88.6865 -0.0945497 89.3256 -0.100762 89.716 0.289935L99.7104 10.2932C99.9116 10.4946 100.007 10.7622 99.9996 11.0277C99.9993 11.0385 99.9989 11.0492 99.9982 11.0598C99.9852 11.2964 99.8896 11.5287 99.7101 11.7084L99.7042 11.7143L89.7157 21.7117C89.3253 22.1024 88.6862 22.0962 88.2959 21.7055C87.9055 21.3148 87.8993 20.6751 88.2897 20.2844L96.5667 12L0.999999 12C0.447714 12 0 11.5523 0 11C0 10.4477 0.447715 10 1 10L96.5654 10L88.29 1.7172C87.8996 1.3265 87.9058 0.686845 88.2962 0.296148Z" fill="#789384"/>
</svg>
