<svg width="18" height="15" viewBox="0 0 18 15" fill="none" xmlns="http://www.w3.org/2000/svg">
<path d="M7.64667 0.295714C7.25782 -0.0966186 6.62736 -0.0966181 6.2385 0.295715L0.40914 6.17718C0.390318 6.19352 0.37196 6.2107 0.354111 6.22869L0.291746 6.29157C-0.0972481 6.68376 -0.0972481 7.31964 0.291746 7.71184L6.23826 13.7073C6.62725 14.0995 7.25793 14.0995 7.64693 13.7073L7.70929 13.6444C8.09829 13.2522 8.09829 12.6163 7.70929 12.2241L3.52544 8.00586H16.9996C17.5521 8.00586 18 7.55814 18 7.00586C18 6.45357 17.5521 6.00586 16.9996 6.00586H3.51997L7.70901 1.77938C8.09787 1.38704 8.09787 0.750945 7.70901 0.358613L7.64667 0.295714Z" fill="white"/>
</svg>
