<svg width="16" height="16" viewBox="0 0 16 16" fill="none" xmlns="http://www.w3.org/2000/svg">
<path d="M7.29289 5.83808C7.68342 6.2286 8.31658 6.2286 8.70711 5.83808L13.8381 0.707107C14.2286 0.316582 14.8618 0.316583 15.2523 0.707107L15.2926 0.747411C15.6831 1.13794 15.6831 1.7711 15.2926 2.16162L10.1616 7.29259C9.7711 7.68312 9.7711 8.31628 10.1616 8.70681L15.2932 13.8383C15.6837 14.2289 15.6837 14.862 15.2932 15.2526L15.2528 15.2929C14.8623 15.6834 14.2292 15.6834 13.8386 15.2929L8.70711 10.1613C8.31658 9.7708 7.68342 9.7708 7.29289 10.1613L2.16162 15.2926C1.7711 15.6831 1.13794 15.6831 0.747411 15.2926L0.707107 15.2523C0.316582 14.8618 0.316582 14.2286 0.707107 13.8381L5.83838 8.70681C6.2289 8.31628 6.2289 7.68312 5.83838 7.29259L0.707667 2.16189C0.317142 1.77136 0.317142 1.1382 0.707667 0.747672L0.747971 0.707367C1.1385 0.316843 1.77166 0.316843 2.16218 0.707367L7.29289 5.83808Z" fill="white"/>
</svg>
