<svg width="22" height="30" viewBox="0 0 22 30" fill="none" xmlns="http://www.w3.org/2000/svg">
<path d="M6 15C6 14.4477 6.44772 14 7 14C7.55228 14 8 14.4477 8 15C8 15.5523 7.55228 16 7 16C6.44772 16 6 15.5523 6 15Z" fill="#789384"/>
<path d="M7 18C6.44772 18 6 18.4477 6 19C6 19.5523 6.44772 20 7 20C7.55228 20 8 19.5523 8 19C8 18.4477 7.55228 18 7 18Z" fill="#789384"/>
<path d="M6 23C6 22.4477 6.44772 22 7 22C7.55228 22 8 22.4477 8 23C8 23.5523 7.55228 24 7 24C6.44772 24 6 23.5523 6 23Z" fill="#789384"/>
<path d="M11 14C10.4477 14 10 14.4477 10 15C10 15.5523 10.4477 16 11 16C11.5523 16 12 15.5523 12 15C12 14.4477 11.5523 14 11 14Z" fill="#789384"/>
<path d="M10 19C10 18.4477 10.4477 18 11 18C11.5523 18 12 18.4477 12 19C12 19.5523 11.5523 20 11 20C10.4477 20 10 19.5523 10 19Z" fill="#789384"/>
<path d="M11 22C10.4477 22 10 22.4477 10 23C10 23.5523 10.4477 24 11 24C11.5523 24 12 23.5523 12 23C12 22.4477 11.5523 22 11 22Z" fill="#789384"/>
<path d="M14 15C14 14.4477 14.4477 14 15 14C15.5523 14 16 14.4477 16 15C16 15.5523 15.5523 16 15 16C14.4477 16 14 15.5523 14 15Z" fill="#789384"/>
<path d="M15 18C14.4477 18 14 18.4477 14 19V23C14 23.5523 14.4477 24 15 24C15.5523 24 16 23.5523 16 23V19C16 18.4477 15.5523 18 15 18Z" fill="#789384"/>
<path fill-rule="evenodd" clip-rule="evenodd" d="M0 3C0 1.34315 1.34315 0 3 0H19C20.6569 0 22 1.34315 22 3V27C22 28.6569 20.6569 30 19 30H3C1.34315 30 0 28.6569 0 27V3ZM3 2H19C19.5523 2 20 2.44772 20 3V8H2V3C2 2.44772 2.44772 2 3 2ZM2 10V27C2 27.5523 2.44772 28 3 28H19C19.5523 28 20 27.5523 20 27V10H2Z" fill="#789384"/>
</svg>
