<svg width="54" height="68" viewBox="0 0 54 68" fill="none" xmlns="http://www.w3.org/2000/svg">
<path d="M26.7101 53.6935C41.4616 53.6935 53.4201 41.735 53.4201 26.9834C53.4201 12.2318 41.4616 0.273346 26.7101 0.273346C11.9585 0.273346 0 12.2318 0 26.9834C0 41.735 11.9585 53.6935 26.7101 53.6935Z" fill="#06C167"/>
<path d="M26.71 43.6077C30.7966 43.6077 34.54 42.1365 37.4496 39.6846L26.71 26.9834V10.3591C17.5233 10.3591 10.0857 17.7967 10.0857 26.9834C10.0857 36.1701 17.5233 43.6077 26.71 43.6077Z" fill="#E8E8E8"/>
<path d="M28.5246 6.59937C28.5409 6.35418 28.7698 6.14168 29.0313 6.17437C29.2929 6.20706 29.4563 6.43591 29.4236 6.69745C29.391 6.94265 29.1621 7.13881 28.9169 7.10611C28.6717 7.07342 28.4919 6.86092 28.5246 6.59937Z" fill="white"/>
<path d="M31.1891 7.02437C31.2382 6.77918 31.4834 6.61571 31.7449 6.6811C31.9901 6.73014 32.1372 7.00803 32.0718 7.23688C32.0064 7.48208 31.7612 7.6292 31.516 7.56381C31.2872 7.51477 31.1401 7.26957 31.1891 7.02437Z" fill="white"/>
<path d="M33.8046 7.77632C33.8863 7.53112 34.1642 7.41669 34.393 7.51477C34.6382 7.61285 34.7363 7.87439 34.6382 8.10324C34.5401 8.33209 34.2786 8.46287 34.0497 8.36479C33.8209 8.28306 33.7065 8.02151 33.8046 7.77632Z" fill="white"/>
<path d="M36.273 8.88787C36.3874 8.65902 36.6817 8.56094 36.8942 8.70806C37.123 8.83883 37.1884 9.11672 37.0576 9.32922C36.9269 9.54173 36.649 9.62346 36.4365 9.50904C36.2403 9.37826 36.1586 9.11672 36.273 8.88787Z" fill="white"/>
<path d="M38.5775 10.31C38.7246 10.0975 39.0189 10.0485 39.215 10.1956C39.4112 10.359 39.4602 10.6369 39.2968 10.8494C39.1333 11.0456 38.8554 11.0946 38.6592 10.9475C38.4631 10.8167 38.4304 10.5225 38.5775 10.31Z" fill="white"/>
<path d="M40.6699 12.0264C40.8498 11.8466 41.1276 11.8302 41.3238 12.01C41.52 12.1898 41.5036 12.4841 41.3238 12.6639C41.144 12.8437 40.8661 12.8437 40.6863 12.6802C40.5065 12.5168 40.5065 12.2225 40.6699 12.0264Z" fill="white"/>
<path d="M42.5335 14.0043C42.7297 13.8408 43.0239 13.8735 43.171 14.0697C43.3345 14.2658 43.2855 14.5601 43.0893 14.7072C42.8768 14.8543 42.5989 14.8216 42.4518 14.6418C42.3047 14.462 42.3374 14.1677 42.5335 14.0043Z" fill="white"/>
<path d="M44.1027 16.2111C44.3152 16.0803 44.6095 16.1457 44.7402 16.3582C44.871 16.587 44.7893 16.8649 44.5604 16.9793C44.3316 17.1101 44.0537 17.0284 43.9393 16.8159C43.8248 16.6197 43.8902 16.3582 44.1027 16.2111Z" fill="white"/>
<path d="M45.3779 18.614C45.6067 18.5159 45.8846 18.614 45.9827 18.8428C46.0808 19.088 45.9663 19.3495 45.7211 19.4476C45.4759 19.5457 45.2144 19.4313 45.1327 19.2024C45.0346 18.9736 45.149 18.712 45.3779 18.614Z" fill="white"/>
<path d="M46.326 21.1477C46.5712 21.066 46.8327 21.2131 46.8981 21.4583C46.9798 21.7035 46.8164 21.9487 46.5712 22.014C46.326 22.0794 46.0808 21.9323 46.0154 21.7035C45.9336 21.4746 46.0808 21.2294 46.326 21.1477Z" fill="white"/>
<path d="M46.9308 23.7958C47.1923 23.7468 47.4212 23.9266 47.4539 24.1881C47.4866 24.4497 47.3067 24.6785 47.0452 24.6949C46.7837 24.7276 46.5548 24.5477 46.5221 24.3025C46.5058 24.0573 46.6692 23.8285 46.9308 23.7958Z" fill="white"/>
<path d="M47.1596 26.493C47.4211 26.493 47.6337 26.6891 47.6337 26.9506C47.6337 27.2122 47.4211 27.4083 47.1596 27.4083C46.8981 27.4083 46.7019 27.1958 46.7019 26.9506C46.7019 26.7055 46.8981 26.5093 47.1596 26.493Z" fill="white"/>
<path d="M47.0453 29.2065C47.3068 29.2391 47.4866 29.468 47.4539 29.7132C47.4212 29.9747 47.176 30.1382 46.9308 30.1055C46.6856 30.0728 46.5058 29.844 46.5385 29.5988C46.5712 29.3536 46.8001 29.1738 47.0453 29.2065Z" fill="white"/>
<path d="M46.5874 31.8709C46.8326 31.9363 46.9797 32.1815 46.9143 32.4267C46.849 32.6719 46.6038 32.819 46.3586 32.7373C46.1134 32.6719 45.9663 32.4103 46.0316 32.1815C46.0807 31.9526 46.3259 31.8219 46.5874 31.8709Z" fill="white"/>
<path d="M45.7537 34.4537C45.9989 34.5518 46.1133 34.8133 46.0152 35.0585C45.9171 35.3037 45.6392 35.4018 45.4104 35.2873C45.1815 35.1729 45.0835 34.9277 45.1652 34.6989C45.2469 34.47 45.5248 34.372 45.7537 34.4537Z" fill="white"/>
<path d="M44.6094 36.9056C44.8383 37.0364 44.92 37.3143 44.7892 37.5268C44.6585 37.7393 44.3806 37.821 44.1517 37.6739C43.9392 37.5432 43.8575 37.2653 43.9883 37.0528C44.1027 36.8729 44.3806 36.7912 44.6094 36.9056Z" fill="white"/>
<path d="M43.122 39.1941C43.3345 39.3413 43.3672 39.6355 43.2037 39.8317C43.0403 40.0278 42.7624 40.0605 42.5662 39.9134C42.3701 39.7499 42.3374 39.4557 42.4845 39.2759C42.6316 39.0634 42.9259 39.0307 43.122 39.1941Z" fill="white"/>
<path d="M41.373 41.2538C41.5528 41.4336 41.5692 41.7278 41.3893 41.9076C41.2095 42.0875 40.9153 42.0711 40.7355 41.8913C40.5557 41.7115 40.572 41.4172 40.7355 41.2538C40.899 41.074 41.1768 41.074 41.373 41.2538Z" fill="white"/>
<path d="M26.7099 41.2048C34.5642 41.2048 40.9313 34.8377 40.9313 26.9834C40.9313 19.1292 34.5642 12.762 26.7099 12.762C18.8557 12.762 12.4885 19.1292 12.4885 26.9834C12.4885 34.8377 18.8557 41.2048 26.7099 41.2048Z" fill="white"/>
<path d="M3.64526 44.9808C9.00689 51.83 17.3436 56.2435 26.7101 56.2435" stroke="#494949" stroke-width="0.490393" stroke-linecap="round" stroke-linejoin="round"/>
<path d="M26.7102 57.633C27.4776 57.633 28.0997 57.0109 28.0997 56.2435C28.0997 55.4762 27.4776 54.8541 26.7102 54.8541C25.9429 54.8541 25.3208 55.4762 25.3208 56.2435C25.3208 57.0109 25.9429 57.633 26.7102 57.633Z" fill="white" stroke="#494949" stroke-width="0.490393"/>
<path d="M26.7102 57.633V66.9668" stroke="#494949" stroke-width="0.490393" stroke-linecap="round" stroke-linejoin="round"/>
<path d="M28.3776 65.2995L26.7103 66.9668L25.043 65.2995" stroke="#494949" stroke-width="0.490393" stroke-linecap="round" stroke-linejoin="round"/>
<path d="M25.9268 32.5952V23.2642C24.1904 24.5972 23.0215 25.2637 22.4199 25.2637C22.1328 25.2637 21.8765 25.1509 21.6509 24.9253C21.4321 24.6929 21.3228 24.4263 21.3228 24.1255C21.3228 23.7769 21.4321 23.5205 21.6509 23.3564C21.8696 23.1924 22.2559 22.9805 22.8096 22.7207C23.6367 22.3311 24.2964 21.9209 24.7886 21.4902C25.2876 21.0596 25.7285 20.5776 26.1113 20.0444C26.4941 19.5112 26.7437 19.1831 26.8599 19.0601C26.9761 18.937 27.1948 18.8755 27.5161 18.8755C27.8784 18.8755 28.1689 19.0156 28.3877 19.2959C28.6064 19.5762 28.7158 19.9624 28.7158 20.4546V32.1953C28.7158 33.5693 28.2476 34.2563 27.311 34.2563C26.894 34.2563 26.5591 34.1162 26.3062 33.8359C26.0532 33.5557 25.9268 33.1421 25.9268 32.5952Z" fill="black"/>
</svg>
