<svg width="54" height="68" viewBox="0 0 54 68" fill="none" xmlns="http://www.w3.org/2000/svg">
<path d="M26.7101 53.6935C41.4616 53.6935 53.4201 41.735 53.4201 26.9834C53.4201 12.2318 41.4616 0.273346 26.7101 0.273346C11.9585 0.273346 0 12.2318 0 26.9834C0 41.735 11.9585 53.6935 26.7101 53.6935Z" fill="#FFB345"/>
<path d="M26.7101 43.6077C30.7967 43.6077 34.5401 42.1365 37.4497 39.6846L26.7101 26.9834V10.3591C17.5234 10.3591 10.0858 17.7967 10.0858 26.9834C10.0858 36.1701 17.5234 43.6077 26.7101 43.6077Z" fill="#E8E8E8"/>
<path d="M28.5245 6.59937C28.5409 6.35418 28.7697 6.14168 29.0313 6.17437C29.2928 6.20706 29.4563 6.43591 29.4236 6.69745C29.3909 6.94265 29.162 7.13881 28.9168 7.10611C28.6716 7.07342 28.4918 6.86092 28.5245 6.59937Z" fill="white"/>
<path d="M31.1891 7.02437C31.2381 6.77918 31.4833 6.61571 31.7448 6.6811C31.99 6.73014 32.1371 7.00803 32.0718 7.23688C32.0064 7.48208 31.7612 7.6292 31.516 7.56381C31.2871 7.51477 31.14 7.26957 31.1891 7.02437Z" fill="white"/>
<path d="M33.8044 7.77632C33.8861 7.53112 34.164 7.41669 34.3928 7.51477C34.638 7.61285 34.7361 7.87439 34.638 8.10324C34.54 8.33209 34.2784 8.46287 34.0496 8.36479C33.8207 8.28306 33.7063 8.02151 33.8044 7.77632Z" fill="white"/>
<path d="M36.2729 8.88787C36.3873 8.65902 36.6815 8.56094 36.894 8.70806C37.1229 8.83883 37.1883 9.11672 37.0575 9.32922C36.9267 9.54173 36.6488 9.62346 36.4363 9.50904C36.2402 9.37826 36.1585 9.11672 36.2729 8.88787Z" fill="white"/>
<path d="M38.5775 10.31C38.7246 10.0975 39.0189 10.0485 39.215 10.1956C39.4112 10.359 39.4602 10.6369 39.2968 10.8494C39.1333 11.0456 38.8554 11.0946 38.6592 10.9475C38.4631 10.8167 38.4304 10.5225 38.5775 10.31Z" fill="white"/>
<path d="M40.6699 12.0264C40.8497 11.8466 41.1276 11.8302 41.3237 12.01C41.5199 12.1898 41.5036 12.4841 41.3237 12.6639C41.1439 12.8437 40.866 12.8437 40.6862 12.6802C40.5064 12.5168 40.5064 12.2225 40.6699 12.0264Z" fill="white"/>
<path d="M42.5335 14.0043C42.7296 13.8408 43.0238 13.8735 43.171 14.0697C43.3344 14.2658 43.2854 14.5601 43.0892 14.7072C42.8767 14.8543 42.5988 14.8216 42.4517 14.6418C42.3046 14.462 42.3373 14.1677 42.5335 14.0043Z" fill="white"/>
<path d="M44.1028 16.2111C44.3153 16.0803 44.6095 16.1457 44.7403 16.3582C44.8711 16.587 44.7893 16.8649 44.5605 16.9793C44.3316 17.1101 44.0537 17.0284 43.9393 16.8159C43.8249 16.6197 43.8903 16.3582 44.1028 16.2111Z" fill="white"/>
<path d="M45.3778 18.614C45.6066 18.5159 45.8845 18.614 45.9826 18.8428C46.0806 19.088 45.9662 19.3495 45.721 19.4476C45.4758 19.5457 45.2143 19.4313 45.1326 19.2024C45.0345 18.9736 45.1489 18.712 45.3778 18.614Z" fill="white"/>
<path d="M46.3259 21.1477C46.5711 21.066 46.8326 21.2131 46.898 21.4583C46.9798 21.7035 46.8163 21.9487 46.5711 22.014C46.3259 22.0794 46.0807 21.9323 46.0153 21.7035C45.9336 21.4746 46.0807 21.2294 46.3259 21.1477Z" fill="white"/>
<path d="M46.9307 23.7958C47.1922 23.7468 47.4211 23.9266 47.4537 24.1881C47.4864 24.4497 47.3066 24.6785 47.0451 24.6949C46.7835 24.7276 46.5547 24.5477 46.522 24.3025C46.5056 24.0573 46.6691 23.8285 46.9307 23.7958Z" fill="white"/>
<path d="M47.1595 26.493C47.421 26.493 47.6335 26.6891 47.6335 26.9506C47.6335 27.2122 47.421 27.4083 47.1595 27.4083C46.8979 27.4083 46.7018 27.1958 46.7018 26.9506C46.7018 26.7055 46.8979 26.5093 47.1595 26.493Z" fill="white"/>
<path d="M47.0451 29.2065C47.3067 29.2391 47.4865 29.468 47.4538 29.7132C47.4211 29.9747 47.1759 30.1382 46.9307 30.1055C46.6855 30.0728 46.5057 29.844 46.5384 29.5988C46.5711 29.3536 46.7999 29.1738 47.0451 29.2065Z" fill="white"/>
<path d="M46.5874 31.8709C46.8326 31.9363 46.9797 32.1815 46.9143 32.4267C46.8489 32.6719 46.6037 32.819 46.3585 32.7373C46.1133 32.6719 45.9662 32.4103 46.0316 32.1815C46.0806 31.9526 46.3258 31.8219 46.5874 31.8709Z" fill="white"/>
<path d="M45.7537 34.4537C45.9989 34.5518 46.1133 34.8133 46.0152 35.0585C45.9171 35.3037 45.6392 35.4018 45.4104 35.2873C45.1815 35.1729 45.0835 34.9277 45.1652 34.6989C45.2469 34.47 45.5248 34.372 45.7537 34.4537Z" fill="white"/>
<path d="M44.6095 36.9056C44.8383 37.0364 44.9201 37.3143 44.7893 37.5268C44.6585 37.7393 44.3806 37.821 44.1518 37.6739C43.9393 37.5432 43.8576 37.2653 43.9883 37.0528C44.1028 36.8729 44.3806 36.7912 44.6095 36.9056Z" fill="white"/>
<path d="M43.1219 39.1941C43.3344 39.3413 43.3671 39.6355 43.2036 39.8317C43.0402 40.0278 42.7623 40.0605 42.5661 39.9134C42.3699 39.7499 42.3373 39.4557 42.4844 39.2759C42.6315 39.0634 42.9257 39.0307 43.1219 39.1941Z" fill="white"/>
<path d="M41.3729 41.2538C41.5527 41.4336 41.569 41.7278 41.3892 41.9076C41.2094 42.0875 40.9152 42.0711 40.7354 41.8913C40.5556 41.7115 40.5719 41.4172 40.7354 41.2538C40.8988 41.074 41.1767 41.074 41.3729 41.2538Z" fill="white"/>
<path d="M26.71 41.2048C34.5642 41.2048 40.9314 34.8377 40.9314 26.9834C40.9314 19.1292 34.5642 12.762 26.71 12.762C18.8557 12.762 12.4886 19.1292 12.4886 26.9834C12.4886 34.8377 18.8557 41.2048 26.71 41.2048Z" fill="white"/>
<path d="M3.64514 44.9808C9.00677 51.83 17.3435 56.2435 26.71 56.2435" stroke="#494949" stroke-width="0.490393" stroke-linecap="round" stroke-linejoin="round"/>
<path d="M26.7101 57.633C27.4775 57.633 28.0996 57.0109 28.0996 56.2435C28.0996 55.4762 27.4775 54.8541 26.7101 54.8541C25.9428 54.8541 25.3207 55.4762 25.3207 56.2435C25.3207 57.0109 25.9428 57.633 26.7101 57.633Z" fill="white" stroke="#494949" stroke-width="0.490393"/>
<path d="M26.7101 57.633V66.9668" stroke="#494949" stroke-width="0.490393" stroke-linecap="round" stroke-linejoin="round"/>
<path d="M28.3775 65.2995L26.7101 66.9668L25.0428 65.2995" stroke="#494949" stroke-width="0.490393" stroke-linecap="round" stroke-linejoin="round"/>
<path d="M25.9268 32.5952V23.2642C24.1904 24.5972 23.0215 25.2637 22.4199 25.2637C22.1328 25.2637 21.8765 25.1509 21.6509 24.9253C21.4321 24.6929 21.3228 24.4263 21.3228 24.1255C21.3228 23.7769 21.4321 23.5205 21.6509 23.3564C21.8696 23.1924 22.2559 22.9805 22.8096 22.7207C23.6367 22.3311 24.2964 21.9209 24.7886 21.4902C25.2876 21.0596 25.7285 20.5776 26.1113 20.0444C26.4941 19.5112 26.7437 19.1831 26.8599 19.0601C26.9761 18.937 27.1948 18.8755 27.5161 18.8755C27.8784 18.8755 28.1689 19.0156 28.3877 19.2959C28.6064 19.5762 28.7158 19.9624 28.7158 20.4546V32.1953C28.7158 33.5693 28.2476 34.2563 27.311 34.2563C26.894 34.2563 26.5591 34.1162 26.3062 33.8359C26.0532 33.5557 25.9268 33.1421 25.9268 32.5952Z" fill="black"/>
</svg>
