<svg width="54" height="67" viewBox="0 0 54 67" fill="none" xmlns="http://www.w3.org/2000/svg">
<path d="M26.7101 -3.05176e-05C41.4616 -3.05176e-05 53.4201 11.9585 53.4201 26.71C53.4201 41.4616 41.4616 53.4201 26.7101 53.4201C11.9585 53.4201 0 41.4616 0 26.71C0 11.9585 11.9585 -3.05176e-05 26.7101 -3.05176e-05Z" fill="#FF8754"/>
<path d="M26.7101 26.71H43.3344C43.3344 35.8967 35.8968 43.3344 26.7101 43.3344C18.9946 43.3344 12.505 38.0872 10.6252 30.9601L26.7101 26.71Z" fill="#E8E8E8"/>
<path d="M47.094 24.8956C47.3392 24.8793 47.5517 24.6504 47.5027 24.3889C47.47 24.1273 47.2412 23.9475 46.9796 23.9966C46.7344 24.0293 46.5383 24.2581 46.571 24.5033C46.62 24.7322 46.8325 24.912 47.094 24.8956Z" fill="white"/>
<path d="M46.6691 22.2148C46.9143 22.1657 47.0778 21.9042 47.0124 21.659C46.9634 21.4138 46.6855 21.2667 46.4403 21.3321C46.1951 21.3975 46.0643 21.6427 46.1134 21.8879C46.1787 22.1167 46.4239 22.2638 46.6691 22.2148Z" fill="white"/>
<path d="M45.9007 19.5994C46.1459 19.5176 46.2603 19.2397 46.1623 19.0109C46.0642 18.7657 45.8026 18.6513 45.5738 18.7657C45.3449 18.8801 45.2142 19.1253 45.3122 19.3542C45.394 19.583 45.6555 19.6974 45.9007 19.5994Z" fill="white"/>
<path d="M44.7892 17.1147C45.018 17.0003 45.0998 16.706 44.969 16.4935C44.8382 16.2647 44.5603 16.1993 44.3315 16.3301C44.119 16.4608 44.0372 16.7387 44.1517 16.9512C44.2988 17.1637 44.5603 17.2455 44.7892 17.1147Z" fill="white"/>
<path d="M43.3507 14.8099C43.5632 14.6628 43.6122 14.3685 43.4487 14.156C43.2853 13.9599 42.991 13.9108 42.7949 14.0743C42.5987 14.2378 42.5497 14.5156 42.7131 14.7118C42.8603 14.9243 43.1381 14.957 43.3507 14.8099Z" fill="white"/>
<path d="M41.6342 12.7175C41.814 12.5377 41.8304 12.2435 41.6506 12.0637C41.4708 11.8675 41.1765 11.8838 40.9967 12.0637C40.8169 12.2435 40.8169 12.5213 40.9804 12.7012C41.1602 12.881 41.4381 12.881 41.6342 12.7175Z" fill="white"/>
<path d="M39.64 10.854C39.8035 10.6579 39.7708 10.3636 39.5746 10.2165C39.3785 10.0531 39.0842 10.1021 38.9371 10.2983C38.79 10.4944 38.8227 10.7887 39.0025 10.9358C39.1987 11.0829 39.4766 11.0502 39.64 10.854Z" fill="white"/>
<path d="M37.4334 9.26842C37.4987 9.15399 37.5151 9.03957 37.4988 8.92515C37.4661 8.81072 37.4007 8.71264 37.2863 8.64725C37.0574 8.51648 36.7795 8.59821 36.6651 8.82706C36.5507 9.05591 36.616 9.33381 36.8286 9.44823C36.9266 9.51362 37.0574 9.51361 37.1718 9.48092C37.2536 9.44823 37.3516 9.38284 37.4334 9.26842Z" fill="white"/>
<path d="M35.0141 8.00973C35.1121 7.78088 35.0141 7.503 34.7852 7.40492C34.54 7.30684 34.2785 7.42126 34.1804 7.66646C34.0823 7.91166 34.1968 8.1732 34.4256 8.25493C34.6545 8.35301 34.916 8.23858 35.0141 8.00973Z" fill="white"/>
<path d="M32.464 7.07799C32.5294 6.8328 32.3986 6.57125 32.1534 6.50587C31.9082 6.42414 31.6467 6.5876 31.5976 6.8328C31.5322 7.07799 31.6794 7.32318 31.9246 7.38857C32.1371 7.4703 32.3986 7.32319 32.464 7.07799Z" fill="white"/>
<path d="M29.8159 6.47322C29.8486 6.22802 29.6851 5.98282 29.4235 5.95013C29.162 5.91744 28.9332 6.09725 28.9168 6.35879C28.8841 6.62033 29.0639 6.84918 29.3091 6.88188C29.538 6.91457 29.7668 6.73476 29.8159 6.47322Z" fill="white"/>
<path d="M27.1025 6.2607C27.1025 5.99916 26.9063 5.78665 26.6448 5.78665C26.3832 5.78665 26.1871 5.99916 26.1871 6.2607C26.1871 6.52224 26.3996 6.7184 26.6448 6.7184C26.89 6.7184 27.1025 6.5059 27.1025 6.2607Z" fill="white"/>
<path d="M24.3888 6.37512C24.3561 6.11358 24.1273 5.93377 23.8821 5.96646C23.6205 5.99916 23.457 6.22801 23.4897 6.48955C23.5224 6.73475 23.7513 6.91456 23.9965 6.88187C24.2417 6.86552 24.4051 6.63667 24.3888 6.37512Z" fill="white"/>
<path d="M21.708 6.86547C21.6753 6.73469 21.5936 6.63662 21.4955 6.58758C21.3974 6.5222 21.2667 6.50584 21.1523 6.53854C20.9071 6.60392 20.7599 6.86547 20.8417 7.11066C20.9234 7.35586 21.1686 7.50298 21.3975 7.43759C21.5119 7.4049 21.61 7.32317 21.659 7.22509C21.7244 7.11066 21.7407 6.99624 21.708 6.86547Z" fill="white"/>
<path d="M19.1253 7.69914C19.0272 7.47029 18.7656 7.33952 18.5204 7.4376C18.2916 7.53567 18.1772 7.81357 18.2916 8.04242C18.3897 8.27127 18.6676 8.38569 18.8801 8.28761C19.1089 8.20588 19.2233 7.94434 19.1253 7.69914Z" fill="white"/>
<path d="M16.6733 8.87615C16.5425 8.6473 16.2646 8.58191 16.0358 8.71268C15.8069 8.84346 15.7579 9.13769 15.8887 9.35019C16.0194 9.56269 16.2973 9.62808 16.5098 9.51365C16.7223 9.38288 16.7877 9.105 16.6733 8.87615Z" fill="white"/>
<path d="M14.4012 10.3636C14.2541 10.1511 13.9598 10.1184 13.7637 10.2819C13.5675 10.4454 13.5348 10.7233 13.6983 10.9194C13.8618 11.1156 14.156 11.1483 14.3358 11.0011C14.5156 10.854 14.5483 10.5761 14.4012 10.3636Z" fill="white"/>
<path d="M12.3416 12.1454C12.2599 12.0473 12.1291 12.0146 12.0147 11.9983C11.9003 11.9983 11.7858 12.0473 11.6878 12.1454C11.5079 12.3252 11.5243 12.6194 11.7041 12.7992C11.8839 12.979 12.1781 12.9627 12.3416 12.7992C12.4233 12.7175 12.4724 12.5867 12.456 12.4723C12.4724 12.3579 12.4233 12.2435 12.3416 12.1454Z" fill="white"/>
<path d="M10.5271 14.1887C10.3309 14.0252 10.0367 14.0579 9.8732 14.2704C9.72608 14.4829 9.77512 14.7608 9.98763 14.9079C10.2001 15.055 10.478 15.006 10.6251 14.8099C10.7722 14.6137 10.7396 14.3358 10.5271 14.1887Z" fill="white"/>
<path d="M9.00688 16.4445C8.79437 16.3138 8.50013 16.3955 8.36936 16.608C8.23859 16.8368 8.33667 17.1147 8.56552 17.2292C8.79437 17.3436 9.05591 17.2619 9.18668 17.0494C9.31746 16.8368 9.23573 16.5753 9.00688 16.4445Z" fill="white"/>
<path d="M7.79726 18.8801C7.56841 18.782 7.29052 18.8965 7.19244 19.1417C7.09436 19.3869 7.20879 19.6484 7.45399 19.7301C7.69918 19.8119 7.96072 19.6974 8.04245 19.4686C8.15688 19.2397 8.04245 18.9782 7.79726 18.8801Z" fill="white"/>
<path d="M6.93084 21.4465C6.80006 21.4138 6.68564 21.4302 6.57121 21.4955C6.47313 21.5609 6.3914 21.659 6.35871 21.7734C6.29333 22.0186 6.45679 22.2638 6.70198 22.3292C6.94718 22.3783 7.19238 22.2311 7.25776 22.0023C7.29046 21.8879 7.25776 21.7571 7.19238 21.659C7.15968 21.5609 7.06161 21.4792 6.93084 21.4465Z" fill="white"/>
<path d="M6.40782 24.1273C6.16262 24.0946 5.91742 24.2745 5.88473 24.536C5.85204 24.7975 6.0482 25.01 6.30974 25.0427C6.57129 25.0591 6.78379 24.8793 6.80014 24.6341C6.84917 24.3725 6.66936 24.16 6.40782 24.1273Z" fill="white"/>
<path d="M6.24432 26.8408C5.98278 26.8408 5.78662 27.0533 5.78662 27.3149C5.78662 27.5764 6.01548 27.7726 6.26067 27.7562C6.52221 27.7399 6.71836 27.5274 6.70202 27.2822C6.70202 27.037 6.50586 26.8408 6.24432 26.8408Z" fill="white"/>
<path d="M6.44041 29.5543C6.19521 29.587 6.0154 29.8159 6.04809 30.0774C6.08079 30.3389 6.32599 30.5024 6.58753 30.4534C6.83273 30.4043 7.01254 30.1755 6.9635 29.9303C6.93081 29.6851 6.70195 29.5053 6.44041 29.5543Z" fill="white"/>
<path d="M40.661 23.9903C42.1635 31.6992 37.1322 39.1666 29.4232 40.6691C21.7143 42.1716 14.2469 37.1403 12.7444 29.4314C11.2418 21.7224 16.2731 14.2551 23.9821 12.7525C31.6911 11.25 39.1584 16.2813 40.661 23.9903Z" fill="white"/>
<path d="M3.64526 44.7075C9.00689 51.5566 17.3436 55.9702 26.7101 55.9702" stroke="#494949" stroke-width="0.490393" stroke-linecap="round" stroke-linejoin="round"/>
<path d="M26.7099 54.5807C27.4773 54.5807 28.0994 55.2028 28.0994 55.9702C28.0994 56.7375 27.4773 57.3596 26.7099 57.3596C25.9426 57.3596 25.3205 56.7375 25.3205 55.9702C25.3205 55.2028 25.9426 54.5807 26.7099 54.5807Z" fill="white" stroke="#494949" stroke-width="0.490393"/>
<path d="M26.71 57.3596V66.6934" stroke="#494949" stroke-width="0.490393" stroke-linecap="round" stroke-linejoin="round"/>
<path d="M28.3774 65.0261L26.7101 66.6934L25.0427 65.0261" stroke="#494949" stroke-width="0.490393" stroke-linecap="round" stroke-linejoin="round"/>
<path d="M24.686 30.5801H30.0386C30.5718 30.5801 30.9785 30.6895 31.2588 30.9082C31.5391 31.127 31.6792 31.4243 31.6792 31.8003C31.6792 32.1353 31.5664 32.4189 31.3408 32.6514C31.1221 32.8838 30.7871 33 30.3359 33H22.7891C22.2764 33 21.8765 32.8599 21.5894 32.5796C21.3022 32.2925 21.1587 31.9575 21.1587 31.5747C21.1587 31.3286 21.251 31.0039 21.4355 30.6006C21.6201 30.1904 21.8218 29.8691 22.0405 29.6367C22.9497 28.6934 23.77 27.8867 24.5015 27.2168C25.2329 26.54 25.7559 26.0957 26.0703 25.8838C26.6309 25.4873 27.0957 25.0908 27.4648 24.6943C27.8408 24.291 28.1245 23.8809 28.3159 23.4639C28.5142 23.04 28.6133 22.6265 28.6133 22.2231C28.6133 21.7856 28.5073 21.396 28.2954 21.0542C28.0903 20.7056 27.8066 20.4355 27.4443 20.2441C27.0889 20.0527 26.6992 19.957 26.2754 19.957C25.3799 19.957 24.6758 20.3501 24.1631 21.1362C24.0947 21.2388 23.9785 21.519 23.8145 21.9771C23.6572 22.4351 23.4761 22.7871 23.271 23.0332C23.0728 23.2793 22.7788 23.4023 22.3892 23.4023C22.0474 23.4023 21.7637 23.2896 21.5381 23.064C21.3125 22.8384 21.1997 22.5308 21.1997 22.1411C21.1997 21.6694 21.3057 21.1772 21.5176 20.6646C21.7295 20.1519 22.0439 19.687 22.4609 19.27C22.8848 18.853 23.418 18.5181 24.0605 18.2651C24.71 18.0054 25.4688 17.8755 26.3369 17.8755C27.3828 17.8755 28.2749 18.0396 29.0132 18.3677C29.4917 18.5864 29.9121 18.8872 30.2744 19.27C30.6367 19.6528 30.917 20.0972 31.1152 20.603C31.3203 21.1021 31.4229 21.6216 31.4229 22.1616C31.4229 23.0093 31.2109 23.7817 30.7871 24.479C30.3701 25.1694 29.9429 25.7129 29.5054 26.1094C29.0679 26.499 28.333 27.1143 27.3008 27.9551C26.2754 28.7959 25.5713 29.4487 25.1885 29.9136C25.0244 30.0981 24.8569 30.3203 24.686 30.5801Z" fill="#494949"/>
</svg>
