<svg width="54" height="67" viewBox="0 0 54 67" fill="none" xmlns="http://www.w3.org/2000/svg">
<path d="M26.7101 53.4202C11.9585 53.4202 2.67029e-05 41.4616 2.67029e-05 26.7101C2.67029e-05 11.9585 11.9585 1.52588e-05 26.7101 1.52588e-05C41.4617 1.52588e-05 53.4202 11.9585 53.4202 26.7101C53.4202 41.4616 41.4617 53.4202 26.7101 53.4202Z" fill="#9ED342"/>
<path d="M26.7099 26.7101L41.5361 34.2458C38.7899 39.6401 33.1831 43.3344 26.7099 43.3344C17.5232 43.3344 10.0856 35.8968 10.0856 26.7101C10.0856 17.5234 17.5232 10.0857 26.7099 10.0857C28.9657 10.0857 31.1235 10.5434 33.1014 11.3608L26.7099 26.7101Z" fill="#E8E8E8"/>
<path d="M45.819 34.0496C46.0642 34.1477 46.3257 34.0169 46.4238 33.7554C46.5055 33.4938 46.3911 33.2323 46.1459 33.1505C45.9007 33.0688 45.6392 33.1996 45.5574 33.4448C45.4593 33.69 45.5738 33.9515 45.819 34.0496Z" fill="white"/>
<path d="M46.6527 31.3361C46.8979 31.4015 47.1431 31.2217 47.2085 30.9601C47.2575 30.6986 47.094 30.4534 46.8488 30.4043C46.6036 30.3553 46.3584 30.5188 46.3094 30.7803C46.244 31.0255 46.3911 31.2707 46.6527 31.3361Z" fill="white"/>
<path d="M47.094 28.5245C47.3555 28.5409 47.568 28.3447 47.5844 28.0832C47.6007 27.8216 47.4046 27.5928 47.143 27.5764C46.8815 27.5601 46.669 27.7726 46.6526 28.0178C46.6526 28.2793 46.8324 28.5082 47.094 28.5245Z" fill="white"/>
<path d="M47.143 25.6802C47.4046 25.6639 47.6007 25.435 47.5844 25.1735C47.568 24.9119 47.3228 24.7158 47.0776 24.7321C46.8161 24.7648 46.6526 24.9773 46.669 25.2389C46.669 25.5004 46.8815 25.6966 47.143 25.6802Z" fill="white"/>
<path d="M46.7997 22.8687C47.0449 22.8196 47.2083 22.5744 47.1593 22.3129C47.1102 22.0514 46.8487 21.8879 46.6035 21.9533C46.3583 22.0187 46.2112 22.2639 46.2602 22.5091C46.3093 22.7543 46.5545 22.9177 46.7997 22.8687Z" fill="white"/>
<path d="M46.0805 20.1224C46.3257 20.0407 46.4401 19.7628 46.3584 19.5176C46.2766 19.2724 46.0151 19.1417 45.7699 19.2234C45.541 19.3215 45.4103 19.583 45.492 19.8282C45.5737 20.0734 45.8353 20.2042 46.0805 20.1224Z" fill="white"/>
<path d="M44.9853 17.507C45.2141 17.3926 45.2959 17.1147 45.1814 16.8695C45.0507 16.6243 44.7728 16.5426 44.5603 16.6734C44.3314 16.8041 44.2497 17.082 44.3641 17.3109C44.4622 17.5234 44.7564 17.6215 44.9853 17.507Z" fill="white"/>
<path d="M43.5305 15.0714C43.743 14.9243 43.792 14.6301 43.6285 14.4176C43.4651 14.2051 43.1872 14.156 42.9747 14.3031C42.7785 14.4666 42.7295 14.7608 42.8766 14.957C43.0237 15.1531 43.3179 15.2022 43.5305 15.0714Z" fill="white"/>
<path d="M41.7488 12.8483C41.9449 12.6685 41.9449 12.3743 41.7488 12.1781C41.5689 11.9819 41.2584 11.9819 41.0949 12.1618C40.9151 12.3416 40.9151 12.6358 41.0949 12.832C41.2747 13.0118 41.5689 13.0118 41.7488 12.8483Z" fill="white"/>
<path d="M39.689 10.9031C39.8524 10.7069 39.8198 10.4127 39.6072 10.2492C39.3947 10.0858 39.1005 10.1185 38.9534 10.3146C38.8063 10.5271 38.839 10.805 39.0351 10.9685C39.2313 11.1319 39.5255 11.0992 39.689 10.9031Z" fill="white"/>
<path d="M37.3678 9.25206C37.4985 9.03956 37.4168 8.74532 37.188 8.61455C36.9591 8.48378 36.6649 8.54916 36.5504 8.77801C36.436 9.00686 36.5014 9.28475 36.7303 9.41553C36.9591 9.52995 37.237 9.46457 37.3678 9.25206Z" fill="white"/>
<path d="M26.71 40.9315C18.8557 40.9315 12.4886 34.5643 12.4886 26.7101C12.4886 18.8558 18.8557 12.4887 26.71 12.4887C34.5643 12.4887 40.9314 18.8558 40.9314 26.7101C40.9314 34.5643 34.5643 40.9315 26.71 40.9315Z" fill="white"/>
<path d="M49.7748 44.7075C44.4132 51.5566 36.0765 55.9538 26.71 55.9538" stroke="#494949" stroke-width="0.490393" stroke-linecap="round" stroke-linejoin="round"/>
<path d="M26.71 57.3596C25.9427 57.3596 25.3206 56.7376 25.3206 55.9702C25.3206 55.2028 25.9427 54.5807 26.71 54.5807C27.4774 54.5807 28.0995 55.2028 28.0995 55.9702C28.0995 56.7376 27.4774 57.3596 26.71 57.3596Z" fill="white" stroke="#494949" stroke-width="0.490393"/>
<path d="M26.7101 57.3596V66.6934" stroke="#494949" stroke-width="0.490393" stroke-linecap="round" stroke-linejoin="round"/>
<path d="M25.0427 65.0261L26.71 66.6935L28.3773 65.0261" stroke="#494949" stroke-width="0.490393" stroke-linecap="round" stroke-linejoin="round"/>
<path d="M24.7524 24.9253C25.3813 24.9253 25.9214 24.7407 26.3726 24.3716C26.8306 24.0024 27.0596 23.4727 27.0596 22.7822C27.0596 22.2559 26.8784 21.8047 26.5161 21.4287C26.1538 21.0459 25.665 20.8545 25.0498 20.8545C24.6328 20.8545 24.2876 20.9126 24.0142 21.0288C23.7476 21.145 23.5356 21.2988 23.3784 21.4902C23.2212 21.6816 23.0708 21.9277 22.9272 22.2285C22.7905 22.5293 22.6641 22.813 22.5479 23.0796C22.4795 23.2231 22.3564 23.3359 22.1787 23.418C22.001 23.5 21.7959 23.541 21.5635 23.541C21.29 23.541 21.0371 23.4316 20.8047 23.2129C20.5791 22.9873 20.4663 22.6899 20.4663 22.3208C20.4663 21.9653 20.5723 21.5928 20.7842 21.2031C21.0029 20.8066 21.3174 20.4307 21.7275 20.0752C22.1445 19.7197 22.6606 19.436 23.2759 19.2241C23.8911 19.0054 24.5781 18.896 25.3369 18.896C26 18.896 26.605 18.9883 27.1519 19.1729C27.6987 19.3506 28.1738 19.6104 28.5771 19.9521C28.9805 20.2939 29.2847 20.6904 29.4897 21.1416C29.6948 21.5928 29.7974 22.0781 29.7974 22.5977C29.7974 23.2812 29.647 23.8691 29.3462 24.3613C29.0522 24.8467 28.6284 25.3218 28.0747 25.7866C28.6079 26.0737 29.0557 26.4019 29.418 26.771C29.7871 27.1401 30.064 27.5503 30.2485 28.0015C30.4331 28.4458 30.5254 28.9277 30.5254 29.4473C30.5254 30.0693 30.3989 30.6709 30.146 31.252C29.8999 31.833 29.5342 32.3525 29.0488 32.8105C28.5635 33.2617 27.9858 33.6172 27.3159 33.877C26.6528 34.1299 25.918 34.2563 25.1113 34.2563C24.291 34.2563 23.5562 34.1094 22.9067 33.8154C22.2573 33.5215 21.7207 33.1558 21.2969 32.7183C20.8799 32.2739 20.562 31.8159 20.3433 31.3442C20.1313 30.8726 20.0254 30.4829 20.0254 30.1753C20.0254 29.7788 20.1519 29.4609 20.4048 29.2217C20.6646 28.9756 20.9858 28.8525 21.3687 28.8525C21.5601 28.8525 21.7446 28.9106 21.9224 29.0269C22.1001 29.1362 22.2163 29.2695 22.271 29.4268C22.6265 30.377 23.0059 31.0845 23.4092 31.5493C23.8193 32.0073 24.3936 32.2363 25.1318 32.2363C25.5557 32.2363 25.9624 32.1338 26.3521 31.9287C26.7485 31.7168 27.0732 31.4058 27.3262 30.9956C27.5859 30.5854 27.7158 30.1104 27.7158 29.5703C27.7158 28.7705 27.4971 28.145 27.0596 27.6938C26.6221 27.2358 26.0137 27.0068 25.2344 27.0068C25.0977 27.0068 24.8857 27.0205 24.5986 27.0479C24.3115 27.0752 24.127 27.0889 24.0449 27.0889C23.6689 27.0889 23.3784 26.9966 23.1733 26.812C22.9683 26.6206 22.8657 26.3574 22.8657 26.0225C22.8657 25.6943 22.9888 25.4312 23.2349 25.2329C23.481 25.0278 23.8467 24.9253 24.332 24.9253H24.7524Z" fill="#494949"/>
</svg>
