<svg width="54" height="67" viewBox="0 0 54 67" fill="none" xmlns="http://www.w3.org/2000/svg">
<path d="M26.7101 -6.10352e-05C41.4616 -6.10352e-05 53.4201 11.9584 53.4201 26.71C53.4201 41.4616 41.4616 53.4201 26.7101 53.4201C11.9585 53.4201 0 41.4616 0 26.71C0 11.9584 11.9585 -6.10352e-05 26.7101 -6.10352e-05Z" fill="#CF6FF1"/>
<path d="M14.1071 37.5477L26.7101 26.71V43.3344C21.6754 43.3344 17.1475 41.0949 14.1071 37.5477Z" fill="#E8E8E8"/>
<path d="M28.5736 47.0777C28.59 47.3228 28.8352 47.5354 29.0967 47.4863C29.3583 47.4536 29.5381 47.2248 29.5054 46.9632C29.4727 46.718 29.2438 46.5382 28.9986 46.5546C28.7371 46.6199 28.5409 46.8325 28.5736 47.0777Z" fill="white"/>
<path d="M31.3198 46.6363C31.3689 46.8815 31.6304 47.045 31.8919 46.9796C32.1535 46.9142 32.3006 46.6526 32.2189 46.4075C32.1535 46.1623 31.892 46.0151 31.6631 46.0805C31.4179 46.1459 31.2708 46.3911 31.3198 46.6363Z" fill="white"/>
<path d="M34.0006 45.8354C34.0987 46.0806 34.3602 46.195 34.6054 46.0969C34.8506 45.9988 34.9651 45.7209 34.867 45.4921C34.7689 45.2632 34.491 45.1488 34.2621 45.2469C34.0169 45.3286 33.9025 45.5902 34.0006 45.8354Z" fill="white"/>
<path d="M36.5343 44.6584C36.6487 44.8873 36.9429 44.9526 37.1718 44.8219C37.4006 44.6911 37.4824 44.4132 37.3516 44.1844C37.2208 43.9719 36.9266 43.8901 36.7141 44.0209C36.4852 44.1517 36.4199 44.4459 36.5343 44.6584Z" fill="white"/>
<path d="M38.8881 43.1545C39.0352 43.367 39.3294 43.3997 39.5419 43.2363C39.7544 43.0728 39.7871 42.7786 39.6236 42.5824C39.4602 42.3862 39.1659 42.3535 38.9698 42.5007C38.7736 42.6641 38.7409 42.9584 38.8881 43.1545Z" fill="white"/>
<path d="M41.0132 41.3401C41.193 41.5199 41.4872 41.5362 41.6671 41.3401C41.8469 41.1439 41.8469 40.8497 41.6507 40.6862C41.4709 40.5064 41.1767 40.5228 40.9969 40.7026C40.8334 40.8824 40.8334 41.1603 41.0132 41.3401Z" fill="white"/>
<path d="M42.8602 39.2641C43.0563 39.4276 43.3669 39.3785 43.514 39.166C43.6611 38.9535 43.6284 38.6593 43.4159 38.5122C43.2034 38.365 42.9256 38.4141 42.7784 38.6102C42.6313 38.8227 42.664 39.1006 42.8602 39.2641Z" fill="white"/>
<path d="M44.4297 36.9429C44.6422 37.0737 44.9364 36.9919 45.0672 36.7631C45.1979 36.5342 45.0999 36.24 44.871 36.1256C44.6422 36.0112 44.3643 36.0929 44.2499 36.3217C44.1354 36.5342 44.2008 36.8121 44.4297 36.9429Z" fill="white"/>
<path d="M45.6557 34.4419C45.8845 34.54 46.1624 34.4256 46.2605 34.1804C46.3586 33.9352 46.2278 33.6573 45.9826 33.5755C45.7374 33.4938 45.4922 33.6082 45.3941 33.8534C45.3124 34.0659 45.4268 34.3438 45.6557 34.4419Z" fill="white"/>
<path d="M46.5383 31.7937C46.7835 31.8591 47.0287 31.6956 47.0941 31.4504C47.1595 31.1889 46.996 30.9437 46.7508 30.8947C46.5056 30.8456 46.2441 30.9928 46.195 31.2379C46.1296 31.4668 46.2931 31.7283 46.5383 31.7937Z" fill="white"/>
<path d="M47.0451 29.0476C47.2903 29.0802 47.5355 28.8841 47.5518 28.6225C47.5681 28.361 47.3883 28.1322 47.1268 28.1158C46.8653 28.0995 46.6527 28.2956 46.6364 28.5408C46.6037 28.786 46.7835 29.0149 47.0451 29.0476Z" fill="white"/>
<path d="M47.1595 26.2523C47.4211 26.2523 47.6172 26.0235 47.6172 25.7619C47.6172 25.5004 47.372 25.3042 47.1268 25.3206C46.8653 25.3369 46.6855 25.5494 46.7018 25.811C46.7018 26.0562 46.9143 26.2523 47.1595 26.2523Z" fill="white"/>
<path d="M46.9143 23.4734C47.1595 23.4407 47.3393 23.1955 47.2903 22.934C47.2412 22.6724 47.0124 22.509 46.7508 22.558C46.5056 22.607 46.3422 22.8523 46.3749 23.0974C46.4239 23.3426 46.6691 23.5061 46.9143 23.4734Z" fill="white"/>
<path d="M46.2932 20.7436C46.4077 20.7109 46.5057 20.6292 46.5711 20.5147C46.6202 20.4166 46.6365 20.2859 46.5875 20.1551C46.5057 19.9099 46.2442 19.7791 45.999 19.8609C45.7538 19.9426 45.623 20.2042 45.7047 20.4493C45.7374 20.5638 45.8355 20.6618 45.9336 20.7109C46.048 20.7763 46.1625 20.7926 46.2932 20.7436Z" fill="white"/>
<path d="M45.2961 18.1445C45.5249 18.0464 45.6393 17.7522 45.5086 17.5233C45.3941 17.2945 45.0999 17.1964 44.8874 17.3108C44.6585 17.4252 44.5768 17.7031 44.6912 17.932C44.7893 18.1445 45.0509 18.2426 45.2961 18.1445Z" fill="white"/>
<path d="M43.9556 15.6925C44.1681 15.5617 44.2335 15.2675 44.0864 15.0387C43.9393 14.8262 43.645 14.7608 43.4325 14.9242C43.22 15.0714 43.171 15.3492 43.3181 15.5617C43.4489 15.7742 43.7431 15.8233 43.9556 15.6925Z" fill="white"/>
<path d="M42.2882 13.4531C42.4843 13.2896 42.5006 12.9954 42.3208 12.7992C42.1574 12.603 41.8468 12.5867 41.667 12.7665C41.4708 12.9463 41.4708 13.2242 41.6343 13.4204C41.7978 13.6002 42.092 13.6165 42.2882 13.4531Z" fill="white"/>
<path d="M40.3432 11.4588C40.5066 11.2626 40.4903 10.9684 40.2941 10.8049C40.196 10.7232 40.0653 10.6742 39.9508 10.6905C39.8364 10.7069 39.722 10.7559 39.6402 10.854C39.5585 10.9521 39.5258 11.0665 39.5422 11.1973C39.5585 11.3117 39.6076 11.4261 39.7056 11.5078C39.8691 11.655 40.1633 11.6386 40.3432 11.4588Z" fill="white"/>
<path d="M38.1363 9.72604C38.2834 9.51353 38.218 9.23565 37.9891 9.08853C37.7603 8.94141 37.4824 9.0068 37.3516 9.2193C37.2209 9.43181 37.2862 9.72605 37.4987 9.85682C37.7113 10.0039 37.9891 9.93854 38.1363 9.72604Z" fill="white"/>
<path d="M35.7171 8.33662C35.7661 8.22219 35.7825 8.09143 35.7334 7.977C35.7007 7.86258 35.6027 7.76449 35.4882 7.71545C35.243 7.60103 34.9652 7.71546 34.8671 7.94431C34.769 8.17316 34.8671 8.45105 35.0959 8.54913C35.2104 8.59817 35.3411 8.59816 35.4556 8.56547C35.57 8.53278 35.6681 8.45104 35.7171 8.33662Z" fill="white"/>
<path d="M33.1342 7.27411C33.2159 7.02892 33.0851 6.76738 32.8236 6.68565C32.5621 6.62026 32.3005 6.75104 32.2351 6.99623C32.1697 7.24143 32.3005 7.50297 32.5457 7.56836C32.7909 7.65009 33.0525 7.51931 33.1342 7.27411Z" fill="white"/>
<path d="M30.4372 6.58759C30.4862 6.34239 30.3064 6.09719 30.0449 6.04815C29.7833 5.99911 29.5381 6.19527 29.5054 6.44047C29.4727 6.70201 29.6526 6.91452 29.8977 6.96356C30.1429 7.0126 30.3881 6.84913 30.4372 6.58759Z" fill="white"/>
<path d="M27.6582 6.27698C27.6745 6.01544 27.462 5.80293 27.2005 5.80293C26.9389 5.80293 26.7264 5.9991 26.7264 6.26064C26.7264 6.52218 26.939 6.73468 27.1841 6.73468C27.4293 6.73468 27.6419 6.52218 27.6582 6.27698Z" fill="white"/>
<path d="M24.8631 6.32598C24.8467 6.08078 24.6015 5.86828 24.34 5.91732C24.0784 5.95001 23.8986 6.17886 23.9313 6.44041C23.964 6.6856 24.1929 6.86541 24.4381 6.84907C24.6996 6.80003 24.8794 6.58752 24.8631 6.32598Z" fill="white"/>
<path d="M22.1005 6.76737C22.0514 6.52217 21.7899 6.35871 21.5284 6.4241C21.2668 6.48948 21.1197 6.75103 21.2014 6.99622C21.2668 7.24142 21.5283 7.38854 21.7572 7.32315C22.0187 7.27411 22.1659 7.02891 22.1005 6.76737Z" fill="white"/>
<path d="M19.4359 7.58467C19.3542 7.33948 19.0763 7.22506 18.8311 7.32313C18.5859 7.42121 18.4715 7.69909 18.5696 7.92794C18.6677 8.15679 18.9456 8.27122 19.1744 8.17314C19.4033 8.09141 19.5177 7.81352 19.4359 7.58467Z" fill="white"/>
<path d="M16.9022 8.74528C16.7878 8.51643 16.4935 8.45104 16.2647 8.58181C16.0358 8.71259 15.9541 8.99048 16.0849 9.21933C16.2156 9.43183 16.5099 9.51356 16.7224 9.38279C16.9512 9.25202 17.0166 8.97413 16.9022 8.74528Z" fill="white"/>
<path d="M14.5482 10.2492C14.4011 10.0367 14.1068 10.004 13.8943 10.1674C13.6818 10.3309 13.6491 10.6251 13.8126 10.8213C13.9761 11.0174 14.2703 11.0501 14.4665 10.903C14.6626 10.7396 14.6953 10.4617 14.5482 10.2492Z" fill="white"/>
<path d="M12.4233 12.0636C12.2435 11.8838 11.9493 11.8674 11.7695 12.0636C11.5897 12.2598 11.5897 12.554 11.7858 12.7175C11.9656 12.8973 12.2599 12.8809 12.4397 12.7011C12.5868 12.5376 12.6031 12.2598 12.4233 12.0636Z" fill="white"/>
<path d="M10.5599 14.156C10.3638 13.9925 10.0695 14.0415 9.90607 14.254C9.75895 14.4665 9.79166 14.7608 10.0042 14.9079C10.2167 15.055 10.4945 15.006 10.6417 14.8098C10.8051 14.5973 10.7561 14.3031 10.5599 14.156Z" fill="white"/>
<path d="M9.00686 16.4608C8.79436 16.33 8.50014 16.4118 8.36937 16.6406C8.23859 16.8695 8.33666 17.1637 8.56551 17.2781C8.79436 17.3925 9.07226 17.3108 9.18669 17.082C9.30111 16.8695 9.21936 16.5916 9.00686 16.4608Z" fill="white"/>
<path d="M7.76471 18.9618C7.53586 18.8637 7.25798 18.9781 7.1599 19.2233C7.06182 19.4685 7.19259 19.7464 7.42144 19.8281C7.66664 19.9099 7.92817 19.7954 8.00991 19.5503C8.12433 19.3377 8.00991 19.0599 7.76471 18.9618Z" fill="white"/>
<path d="M6.88176 21.6099C6.63656 21.5445 6.39138 21.708 6.326 21.9532C6.26061 22.2147 6.42407 22.4599 6.66927 22.509C6.91446 22.558 7.17601 22.4109 7.22505 22.1657C7.29044 21.9369 7.12696 21.6753 6.88176 21.6099Z" fill="white"/>
<path d="M6.39155 24.3561C6.14636 24.3234 5.90117 24.5196 5.88482 24.7811C5.86847 25.0426 6.04828 25.2715 6.30982 25.2878C6.57137 25.3042 6.78387 25.108 6.80022 24.8628C6.81656 24.6176 6.63675 24.3888 6.39155 24.3561Z" fill="white"/>
<path d="M6.26069 27.1513C5.99914 27.1513 5.80298 27.3802 5.80298 27.6417C5.81932 27.9033 6.04817 28.0994 6.29337 28.0831C6.55491 28.0667 6.73472 27.8542 6.71837 27.5927C6.71837 27.3475 6.50588 27.1513 6.26069 27.1513Z" fill="white"/>
<path d="M6.5059 29.9303C6.2607 29.963 6.08088 30.2082 6.12992 30.4697C6.17896 30.7312 6.42416 30.8947 6.6857 30.8457C6.9309 30.7966 7.09436 30.5514 7.04532 30.3062C6.99628 30.061 6.75109 29.8976 6.5059 29.9303Z" fill="white"/>
<path d="M7.12712 32.6601C6.88192 32.7255 6.75117 33.0034 6.81655 33.2486C6.89828 33.4938 7.17617 33.6246 7.40502 33.5428C7.65022 33.4611 7.78098 33.1996 7.6829 32.9544C7.63386 32.7255 7.37231 32.5784 7.12712 32.6601Z" fill="white"/>
<path d="M8.1243 35.2592C7.89545 35.3573 7.78101 35.6515 7.91179 35.8804C8.02621 36.1092 8.30411 36.2073 8.53296 36.0929C8.76181 35.9784 8.84353 35.7006 8.74545 35.4717C8.61468 35.2592 8.35315 35.1611 8.1243 35.2592Z" fill="white"/>
<path d="M9.46451 37.7112C9.25201 37.8419 9.18662 38.1362 9.33374 38.365C9.48085 38.5775 9.77509 38.6429 9.98759 38.4958C10.2001 38.3487 10.2491 38.0544 10.102 37.8583C9.95491 37.6458 9.67702 37.5804 9.46451 37.7112Z" fill="white"/>
<path d="M26.7102 12.4886C34.5644 12.4886 40.9316 18.8558 40.9316 26.71C40.9316 34.5643 34.5644 40.9314 26.7102 40.9314C18.8559 40.9314 12.4888 34.5643 12.4888 26.71C12.4888 18.8558 18.8559 12.4886 26.7102 12.4886Z" fill="white"/>
<path d="M3.64539 44.7074C9.00701 51.5566 17.3437 55.9538 26.7102 55.9538" stroke="#494949" stroke-width="0.490393" stroke-linecap="round" stroke-linejoin="round"/>
<path d="M26.7101 54.5807C27.4775 54.5807 28.0996 55.2028 28.0996 55.9701C28.0996 56.7375 27.4775 57.3596 26.7101 57.3596C25.9428 57.3596 25.3207 56.7375 25.3207 55.9701C25.3207 55.2028 25.9428 54.5807 26.7101 54.5807Z" fill="white" stroke="#494949" stroke-width="0.490393"/>
<path d="M26.7101 57.3596V66.6934" stroke="#494949" stroke-width="0.490393" stroke-linecap="round" stroke-linejoin="round"/>
<path d="M28.3775 65.0261L26.7102 66.6934L25.0428 65.0261" stroke="#494949" stroke-width="0.490393" stroke-linecap="round" stroke-linejoin="round"/>
<path d="M29.7207 21.5005H24.8501L24.2656 24.8228C25.2363 24.3032 26.1318 24.0435 26.9521 24.0435C27.6084 24.0435 28.2202 24.1665 28.7876 24.4126C29.3618 24.6587 29.8643 25.0005 30.2949 25.438C30.7256 25.8687 31.064 26.3813 31.3101 26.9761C31.5562 27.5708 31.6792 28.21 31.6792 28.8936C31.6792 29.8848 31.457 30.7871 31.0127 31.6006C30.5684 32.4141 29.9258 33.0601 29.085 33.5386C28.251 34.0171 27.2871 34.2563 26.1934 34.2563C24.9697 34.2563 23.9751 34.0308 23.2095 33.5796C22.4507 33.1284 21.9106 32.6123 21.5894 32.0312C21.2749 31.4434 21.1177 30.9307 21.1177 30.4932C21.1177 30.2266 21.2271 29.9736 21.4458 29.7344C21.6714 29.4951 21.9517 29.3755 22.2866 29.3755C22.8608 29.3755 23.2881 29.707 23.5684 30.3701C23.8418 30.9785 24.2109 31.4536 24.6758 31.7954C25.1406 32.1304 25.6602 32.2979 26.2344 32.2979C26.7607 32.2979 27.2222 32.1611 27.6187 31.8877C28.0151 31.6143 28.3193 31.2383 28.5312 30.7598C28.75 30.2812 28.8594 29.7378 28.8594 29.1294C28.8594 28.4731 28.7432 27.9126 28.5107 27.4478C28.2783 26.9829 27.9673 26.6377 27.5776 26.4121C27.188 26.1797 26.7539 26.0635 26.2754 26.0635C25.6875 26.0635 25.2671 26.1353 25.0142 26.2788C24.7612 26.4224 24.3955 26.6753 23.917 27.0376C23.4453 27.3931 23.0557 27.5708 22.748 27.5708C22.4131 27.5708 22.1157 27.4512 21.856 27.2119C21.5962 26.9658 21.4663 26.689 21.4663 26.3813C21.4663 26.3472 21.5039 26.1147 21.5791 25.6841L22.4404 20.7725C22.5361 20.1846 22.7139 19.7573 22.9736 19.4907C23.2334 19.2241 23.6572 19.0908 24.2451 19.0908H29.6592C30.7256 19.0908 31.2588 19.4976 31.2588 20.311C31.2588 20.6665 31.1289 20.9536 30.8691 21.1724C30.6094 21.3911 30.2266 21.5005 29.7207 21.5005Z" fill="#494949"/>
</svg>
