<svg width="137" height="128" viewBox="0 0 137 128" fill="none" xmlns="http://www.w3.org/2000/svg">
<path opacity="0.5" d="M121.23 81.7233C128.84 71.7207 128.222 57.7106 119.761 48.4174C111.3 39.123 97.4092 37.1967 86.7384 43.8365C90.2779 31.7773 84.702 18.9102 73.4811 13.247C62.2613 7.58364 48.5975 10.7405 40.9984 20.7513C23.1273 44.2675 28.6563 96.4774 40.1158 105.186C51.5753 113.895 103.359 105.239 121.23 81.7233Z" fill="#06C167"/>
<path opacity="0.5" d="M65.1237 52.1784C64.3598 51.5979 64.2111 50.5078 64.7917 49.7439C66.5333 47.4521 66.0873 44.1819 63.7955 42.4402C61.5037 40.6986 58.2335 41.1446 56.4918 43.4364C55.9113 44.2003 54.8212 44.349 54.0573 43.7685C53.2934 43.1879 53.1447 42.0979 53.7252 41.3339C56.628 37.5143 62.0783 36.7709 65.898 39.6736C69.7176 42.5763 70.461 48.0267 67.5583 51.8463C66.9777 52.6103 65.8877 52.759 65.1237 52.1784Z" fill="white"/>
<g opacity="0.5">
<path d="M60.0895 78.9034C55.4364 75.3673 53.6366 70.1657 55.9947 67.0627C56.5752 66.2988 57.6653 66.1501 58.4292 66.7307C59.1931 67.3112 59.3418 68.4013 58.7613 69.1652C57.7685 70.4715 59.0255 73.7304 62.192 76.1368C65.3585 78.5432 68.835 78.8815 69.8277 77.5752C70.4082 76.8112 71.4983 76.6625 72.2622 77.2431C73.0262 77.8236 73.1748 78.9137 72.5943 79.6776C70.2362 82.7806 64.7426 82.4395 60.0895 78.9034Z" fill="white"/>
<path d="M46.9206 73.26C46.3248 72.8073 46.0861 72.0249 46.3268 71.317C46.5675 70.6092 47.2348 70.1349 47.9825 70.1395C48.0359 70.1407 53.6606 70.1339 55.9946 67.0627C58.307 64.0198 56.8299 58.5787 56.8128 58.5199C56.5501 57.5967 57.0855 56.6355 58.0087 56.3728C58.9307 56.1102 59.8924 56.645 60.1551 57.5681C60.2417 57.8524 62.1516 64.7039 58.7612 69.1651C55.3709 73.6264 48.255 73.6199 47.9606 73.6146C47.585 73.6126 47.2193 73.4881 46.9206 73.26V73.26Z" fill="white"/>
<path d="M69.0534 90.0799C68.7537 89.8532 68.5358 89.5342 68.4332 89.1728C68.3466 88.8886 66.4373 82.0364 69.8277 77.5751C73.218 73.1138 80.3334 73.1211 80.6277 73.1264C81.5875 73.1323 82.3604 73.9156 82.3543 74.8742C82.3484 75.8341 81.5657 76.6074 80.6059 76.6015C80.5487 76.5996 74.9267 76.6084 72.5943 79.6776C70.2813 82.7212 71.7585 88.1623 71.7756 88.2211C71.9802 88.9403 71.702 89.7102 71.0844 90.1316C70.4669 90.5531 69.6492 90.5326 69.0534 90.0799V90.0799Z" fill="white"/>
</g>
<path opacity="0.5" d="M95.5564 75.3057C94.7924 74.7252 94.6437 73.6351 95.2243 72.8712C96.9659 70.5794 96.5199 67.3092 94.2281 65.5675C91.9363 63.8259 88.6661 64.272 86.9245 66.5637C86.3439 67.3277 85.2538 67.4763 84.4899 66.8958C83.726 66.3153 83.5773 65.2252 84.1579 64.4613C87.0606 60.6416 92.511 59.8982 96.3306 62.8009C100.15 65.7037 100.894 71.154 97.9909 74.9737C97.4104 75.7376 96.3203 75.8863 95.5564 75.3057Z" fill="white"/>
</svg>
