<svg xmlns="http://www.w3.org/2000/svg" width="124.397" height="128" viewBox="0 0 124.397 128">
  <g id="Сгруппировать_5775" data-name="Сгруппировать 5775" transform="translate(227.013 -278.115)">
    <g id="Сгруппировать_297" data-name="Сгруппировать 297" transform="translate(-227.013 278.115)">
      <g id="Сгруппировать_294" data-name="Сгруппировать 294" transform="translate(1.501)">
        <path id="Контур_284" data-name="Контур 284" d="M-214.722,350.209l-9.718-.507a57.478,57.478,0,0,1,19.053-39.973,57.452,57.452,0,0,1,30.945-14.363l-9.674-10.738,7.23-6.513,24.462,27.152-11.732-.612a47.811,47.811,0,0,0-34.717,12.3A47.811,47.811,0,0,0-214.722,350.209Z" transform="translate(224.44 -278.115)"/>
      </g>
      <g id="Сгруппировать_295" data-name="Сгруппировать 295" transform="translate(80.892 24.847)">
        <path id="Контур_285" data-name="Контур 285" d="M-80.63,405.28l6.4-9.853a48.179,48.179,0,0,0-14.155-66.57l5.3-8.163a57.953,57.953,0,0,1,22.031,70.474l14.15-3.009,2.024,9.519Z" transform="translate(88.389 -320.695)"/>
      </g>
      <g id="Сгруппировать_296" data-name="Сгруппировать 296" transform="translate(0 80.857)">
        <path id="Контур_286" data-name="Контур 286" d="M-166.852,463.822a57.941,57.941,0,0,1-18.655-3.1,57.445,57.445,0,0,1-27.644-19.993l-4.648,13.686-9.215-3.13,11.751-34.6,5.195,10.536A47.807,47.807,0,0,0-182.378,451.5a47.8,47.8,0,0,0,36.755-2.4l4.3,8.729A57.631,57.631,0,0,1-166.852,463.822Z" transform="translate(227.013 -416.679)"/>
      </g>
    </g>
    <g id="Сгруппировать_298" data-name="Сгруппировать 298" transform="translate(-178.017 341.777)">
      <circle id="Эллипс_8" data-name="Эллипс 8" cx="10.035" cy="10.035" r="10.035"/>
    </g>
    <rect id="Прямоугольник_102" data-name="Прямоугольник 102" width="10.01" height="26.783" transform="translate(-172.987 318.533)"/>
    <g id="Сгруппировать_300" data-name="Сгруппировать 300" transform="translate(-171.006 347.824)">
      <rect id="Прямоугольник_103" data-name="Прямоугольник 103" width="10.01" height="27.938" transform="matrix(0.604, -0.797, 0.797, 0.604, 0, 7.976)"/>
    </g>
  </g>
</svg>
