<svg xmlns="http://www.w3.org/2000/svg" width="116.978" height="116.492" viewBox="0 0 116.978 116.492">
  <g id="Сгруппировать_293" data-name="Сгруппировать 293" transform="translate(-4.257 -4.715)">
    <path id="Контур_282" data-name="Контур 282" d="M121.235,92.176,77.441,59.432,105.776,29.81l-.118-.113,7.279-24.041L89.242,14l-.1-.091-.18.188-.013,0,0,.006L58.874,45.55,4.257,4.715l29.9,66.678L23.907,82.1l-.038-.036L12.762,93.68l16.629,15.906,8.386-8.767.038.036,6.5-6.8,12.171,27.147ZM101.18,17.947l-1.753,5.79-3.954-3.782ZM89.388,24.778,94.9,30.052,71.235,54.792l-6.156-4.6ZM106.16,90.507l-45.8,20.535L23.412,28.64Zm-77.01,8.206-5.513-5.274,3.07-3.21L32.22,95.5Zm8.425-8.731L32.06,84.707l5.489-5.738,3.37,7.516Z"/>
    <path id="Контур_283" data-name="Контур 283" d="M113.634,119.6,74.248,90.151l17.586,39.222ZM98.558,117.93,95.7,119.209l-2.3-5.133Z" transform="translate(-30.118 -36.764)"/>
  </g>
</svg>
