<svg xmlns="http://www.w3.org/2000/svg" width="77.826" height="80.316" viewBox="0 0 77.826 80.316">
  <path id="Контур_366" data-name="Контур 366" d="M230.55,323.536v80.316h77.826V323.536Zm62.7,43a5.164,5.164,0,1,1-10.115-1.46l1-3.41H271.5V348.145l-3.41,1a5.165,5.165,0,1,1,0-9.9l3.41,1v-11.4h31.554v32.806H292.031l1,3.41A5.171,5.171,0,0,1,293.249,366.531Zm-25.156,20.742a5.164,5.164,0,1,1,0-9.9l3.409,1V366.979h6.108a10.483,10.483,0,0,0,20.947,0h4.5v31.554H271.5V386.27Zm-1.908-53.549a10.483,10.483,0,0,0,0,20.947v6.989H235.868V328.854h30.317Zm0,38.125a10.483,10.483,0,0,0,0,20.947v5.737H235.868V366.979h30.317Z" transform="translate(-230.55 -323.536)" fill="#fff"/>
</svg>
