<svg xmlns="http://www.w3.org/2000/svg" viewBox="0 0 217 217"><defs><style>.cls-1{fill:#006247;}</style></defs><g id="Oracle"><path class="cls-1" d="M163.17,219.16l-42.52-27.6,15.94-3.39A66.77,66.77,0,0,0,188,109l13.2-2.81a80.32,80.32,0,0,1-47.5,90.75l16.81,10.92Z"/><path class="cls-1" d="M15.79,117.54A80.38,80.38,0,0,1,63.31,26.8L46.48,15.87,53.83,4.55,96.35,32.16,80.41,35.55A66.84,66.84,0,0,0,29,114.73Z"/><path class="cls-1" d="M174.08,84.13H120.41L132.65,3.5,42.92,122.74H96.43L71.87,213.5ZM111.44,54l-6.61,43.57h41.59l-44.54,56.38,12.06-44.57H69.77Z"/></g></svg>