<svg xmlns="http://www.w3.org/2000/svg" xmlns:xlink="http://www.w3.org/1999/xlink" width="106.86" height="110.3" viewBox="0 0 106.86 110.3">
  <defs>
    <linearGradient id="linear-gradient" x1="0.5" x2="0.5" y2="1" gradientUnits="objectBoundingBox">
      <stop offset="0" stop-color="#483aeb"/>
      <stop offset="1" stop-color="#3575f2"/>
    </linearGradient>
  </defs>
  <g id="Oracle" transform="translate(0 0)">
    <path id="Контур_4017" data-name="Контур 4017" d="M12,8.92v110.3H118.86V8.92ZM98.1,67.965a7.088,7.088,0,0,1-14.175,0,7.219,7.219,0,0,1,.289-2L85.6,61.3H68.243V42.766L63.56,44.146a7.088,7.088,0,1,1,0-13.6l4.683,1.314V16.226h43.333V61.3H96.435l1.379,4.683A7.284,7.284,0,0,1,98.1,67.965ZM63.56,96.452a7.088,7.088,0,1,1,0-13.6l4.683,1.374V68.581h8.385a14.4,14.4,0,0,0,28.77,0h6.177V111.92H68.243V95.073ZM60.937,22.915a14.393,14.393,0,0,0,0,28.765V61.3H19.3V16.226H60.937Zm0,52.339a14.393,14.393,0,0,0,0,28.765V111.9H19.3V68.581H60.937Z" transform="translate(-12 -8.92)" fill="url(#linear-gradient)"/>
  </g>
</svg>
