<svg width="106" height="105" viewBox="0 0 106 105" fill="none" xmlns="http://www.w3.org/2000/svg">
<path d="M9.5 44.0735V100C9.5 101.657 10.8431 103 12.5 103H93.5C95.1569 103 96.5 101.657 96.5 100V43.6471M2 51.5L50.8996 3.07978C52.0646 1.9262 53.94 1.92153 55.1107 3.0693L104 51M39 79C39.4634 76.1037 41.4085 70.5178 45.7758 65.5M53 59.5C50.073 61.2074 47.6914 63.299 45.7758 65.5M45.7758 65.5C44.0172 62.6667 41.3 55.9 44.5 51.5C48.5 46 62.5 43 66 47C69.5 51 67.5 62 64 65.5C60.5 69 53.5516 73.5 45.7758 65.5Z" stroke="#A1A8A1" stroke-width="3"/>
</svg>
