<svg width="164" height="55" viewBox="0 0 164 55" fill="none" xmlns="http://www.w3.org/2000/svg">
<path d="M65.2405 30.1597C65.2405 29.942 65.1501 29.7331 64.989 29.5789C64.8279 29.4248 64.6094 29.3379 64.3814 29.3374H58.1248C57.8968 29.3379 57.6782 29.4248 57.5171 29.5789C57.3561 29.7331 57.2656 29.942 57.2656 30.1597V41.23C57.2656 41.4476 57.3561 41.6563 57.5173 41.8101C57.6784 41.964 57.8969 42.0505 58.1248 42.0505H64.3814C64.6092 42.0505 64.8278 41.964 64.9889 41.8101C65.15 41.6563 65.2405 41.4476 65.2405 41.23C65.2405 41.0124 65.15 40.8037 64.9889 40.6499C64.8278 40.496 64.6092 40.4096 64.3814 40.4096H58.984V30.9896H64.3814C64.495 30.9893 64.6074 30.9676 64.7121 30.9257C64.8169 30.8838 64.912 30.8225 64.9918 30.7454C65.0717 30.6683 65.1348 30.5768 65.1775 30.4763C65.2201 30.3758 65.2416 30.2682 65.2405 30.1597Z" fill="white"/>
<path d="M34.6896 29.8006C34.4019 29.2361 33.4304 29.2361 33.1427 29.8006L27.5246 40.8728C27.4752 40.9694 27.4461 41.0743 27.4391 41.1817C27.4322 41.289 27.4474 41.3966 27.484 41.4983C27.5206 41.6 27.5779 41.6939 27.6525 41.7744C27.727 41.855 27.8175 41.9208 27.9187 41.9679C28.0352 42.0225 28.1633 42.0509 28.2931 42.0507C28.4548 42.0509 28.6132 42.0076 28.7501 41.9257C28.8871 41.8438 28.9972 41.7267 29.0676 41.5878L33.9132 32.0417L37.4603 39.0362L34.3704 37.1996C34.2746 37.1376 34.1668 37.0947 34.0532 37.0736C33.9397 37.0524 33.8228 37.0533 33.7097 37.0762C33.5965 37.0992 33.4894 37.1438 33.3947 37.2072C33.3 37.2707 33.2198 37.3518 33.1587 37.4456C33.0976 37.5394 33.057 37.6441 33.0393 37.7532C33.0216 37.8624 33.0272 37.9738 33.0557 38.0809C33.0842 38.188 33.135 38.2884 33.2052 38.3763C33.2753 38.4641 33.3634 38.5375 33.4639 38.5921L39.084 41.9246C39.2421 42.0179 39.4275 42.0597 39.6126 42.0437C39.7976 42.0278 39.9723 41.9551 40.1104 41.8363C40.2485 41.7176 40.3425 41.5594 40.3785 41.3853C40.4144 41.2112 40.3903 41.0307 40.3097 40.8709L34.6896 29.8006Z" fill="white"/>
<path d="M50.081 29.8006C49.7933 29.2361 48.8218 29.2361 48.5341 29.8006L42.914 40.8728C42.8147 41.0686 42.8009 41.2942 42.8758 41.4997C42.9506 41.7053 43.1079 41.874 43.313 41.9689C43.5182 42.0637 43.7543 42.0768 43.9696 42.0054C44.1849 41.9339 44.3616 41.7837 44.4609 41.5878L49.3065 32.0417L54.1541 41.5878C54.2534 41.7837 54.4302 41.9339 54.6454 42.0054C54.8607 42.0768 55.0969 42.0637 55.302 41.9689C55.5071 41.874 55.6644 41.7053 55.7392 41.4997C55.8141 41.2942 55.8003 41.0686 55.701 40.8728L50.081 29.8006Z" fill="white"/>
<path d="M21.4228 34.8731H17.8265C17.7225 34.8734 17.6195 34.8926 17.523 34.9295V30.1593C17.523 29.9417 17.4325 29.733 17.2714 29.5792C17.1103 29.4253 16.8917 29.3389 16.6639 29.3389C16.436 29.3389 16.2175 29.4253 16.0563 29.5792C15.8952 29.733 15.8047 29.9417 15.8047 30.1593V41.2296C15.8047 41.4472 15.8952 41.6559 16.0563 41.8097C16.2175 41.9636 16.436 42.05 16.6639 42.05C16.8917 42.05 17.1103 41.9636 17.2714 41.8097C17.4325 41.6559 17.523 41.4472 17.523 41.2296V36.4594C17.6199 36.4948 17.7227 36.5133 17.8265 36.514H21.4228C21.6507 36.514 21.8692 36.4275 22.0303 36.2737C22.1914 36.1198 22.282 35.9111 22.282 35.6935C22.282 35.4759 22.1914 35.2672 22.0303 35.1134C21.8692 34.9595 21.6507 34.8731 21.4228 34.8731Z" fill="white"/>
<path d="M24.3123 29.3374C24.0842 29.3379 23.8657 29.4248 23.7047 29.5789C23.5436 29.7331 23.4531 29.942 23.4531 30.1597V41.23C23.4531 41.4476 23.5436 41.6563 23.7048 41.8101C23.8659 41.964 24.0844 42.0505 24.3123 42.0505C24.5402 42.0505 24.7587 41.964 24.9198 41.8101C25.0809 41.6563 25.1715 41.4476 25.1715 41.23V30.1597C25.1715 29.942 25.081 29.7331 24.9199 29.5789C24.7589 29.4248 24.5403 29.3379 24.3123 29.3374Z" fill="white"/>
<path d="M7.299 29.8006C7.0113 29.2361 6.03981 29.2361 5.7521 29.8006L0.133995 40.8728C0.0845268 40.9694 0.0554803 41.0743 0.0485157 41.1817C0.0415511 41.289 0.0568051 41.3966 0.0934058 41.4983C0.130007 41.6 0.187236 41.6939 0.261825 41.7744C0.336414 41.855 0.426899 41.9208 0.52811 41.9679C0.644625 42.0225 0.772723 42.0509 0.902519 42.0507C1.06418 42.0512 1.22267 42.0079 1.3597 41.926C1.49673 41.8441 1.60672 41.7268 1.67696 41.5878L6.5226 32.0417L10.0696 39.0362L6.97977 37.1996C6.88401 37.1376 6.77613 37.0947 6.6626 37.0736C6.54906 37.0524 6.43222 37.0533 6.31907 37.0762C6.20591 37.0992 6.09878 37.1438 6.0041 37.2072C5.90942 37.2707 5.82914 37.3518 5.76806 37.4456C5.70699 37.5394 5.66639 37.6441 5.64869 37.7532C5.63099 37.8624 5.63656 37.9738 5.66506 38.0809C5.69357 38.188 5.74442 38.2884 5.81457 38.3763C5.88472 38.4641 5.97273 38.5375 6.07331 38.5921L11.6934 41.9246C11.8513 42.0195 12.0373 42.0625 12.2232 42.0472C12.409 42.0319 12.5846 41.9592 12.7232 41.84C12.8618 41.7208 12.956 41.5617 12.9913 41.3868C13.0267 41.2119 13.0013 41.0308 12.9191 40.8709L7.299 29.8006Z" fill="white"/>
<path d="M100.285 29.8006C99.9969 29.2361 99.0254 29.2361 98.7377 29.8006L97.516 32.2092C97.4667 32.3062 97.4379 32.4115 97.4312 32.5191C97.4245 32.6268 97.4401 32.7346 97.4771 32.8365C97.514 32.9383 97.5716 33.0323 97.6466 33.1129C97.7216 33.1935 97.8125 33.2592 97.914 33.3063C98.0156 33.3534 98.1259 33.3809 98.2386 33.3872C98.3513 33.3936 98.4642 33.3787 98.5709 33.3434C98.6776 33.3081 98.7759 33.2531 98.8603 33.1815C98.9448 33.1099 99.0136 33.0232 99.0629 32.9262L99.5122 32.0417L104.358 41.5878C104.428 41.7268 104.538 41.8441 104.675 41.926C104.812 42.0079 104.971 42.0512 105.132 42.0507C105.262 42.0509 105.39 42.0225 105.507 41.9679C105.608 41.9208 105.698 41.855 105.773 41.7744C105.848 41.6939 105.905 41.6 105.941 41.4983C105.978 41.3966 105.993 41.289 105.986 41.1817C105.979 41.0743 105.95 40.9694 105.901 40.8728L100.285 29.8006Z" fill="white"/>
<path d="M61.1404 34.8733C60.9126 34.8733 60.694 34.9597 60.5329 35.1136C60.3718 35.2674 60.2812 35.4761 60.2812 35.6937C60.2812 35.9113 60.3718 36.12 60.5329 36.2739C60.694 36.4277 60.9126 36.5142 61.1404 36.5142H62.5198C62.7477 36.5142 62.9662 36.4277 63.1273 36.2739C63.2885 36.12 63.379 35.9113 63.379 35.6937C63.379 35.4761 63.2885 35.2674 63.1273 35.1136C62.9662 34.9597 62.7477 34.8733 62.5198 34.8733H61.1404Z" fill="white"/>
<path d="M120.982 40.8728L115.362 29.8006C115.074 29.2361 114.102 29.2361 113.817 29.8006L108.196 40.8728C108.147 40.9694 108.118 41.0743 108.111 41.1817C108.104 41.289 108.119 41.3966 108.156 41.4983C108.193 41.6 108.25 41.6939 108.324 41.7744C108.399 41.855 108.489 41.9208 108.591 41.9679C108.707 42.0225 108.835 42.0509 108.965 42.0507C109.127 42.0509 109.285 42.0076 109.422 41.9257C109.559 41.8438 109.669 41.7267 109.739 41.5878L114.585 32.0417L118.132 39.0362L115.042 37.1996C114.947 37.1376 114.839 37.0947 114.725 37.0736C114.612 37.0524 114.495 37.0533 114.382 37.0762C114.268 37.0992 114.161 37.1438 114.067 37.2072C113.972 37.2707 113.892 37.3518 113.831 37.4456C113.769 37.5394 113.729 37.6441 113.711 37.7532C113.693 37.8624 113.699 37.9738 113.728 38.0809C113.756 38.188 113.807 38.2884 113.877 38.3763C113.947 38.4641 114.035 38.5375 114.136 38.5921L119.756 41.9246C119.914 42.0195 120.1 42.0625 120.286 42.0472C120.472 42.0319 120.647 41.9592 120.786 41.84C120.924 41.7208 121.018 41.5617 121.054 41.3868C121.089 41.2119 121.064 41.0308 120.982 40.8709V40.8728Z" fill="white"/>
<path d="M94.6747 29.8006C94.387 29.2361 93.4155 29.2361 93.1278 29.8006L87.5077 40.8728C87.4084 41.0686 87.3947 41.2942 87.4695 41.4997C87.5444 41.7053 87.7016 41.874 87.9068 41.9689C88.1119 42.0637 88.3481 42.0768 88.5634 42.0054C88.7786 41.9339 88.9553 41.7837 89.0546 41.5878L93.9003 32.0417L98.7459 41.5878C98.8163 41.7267 98.9264 41.8438 99.0634 41.9257C99.2003 42.0076 99.3587 42.0509 99.5204 42.0507C99.6501 42.0509 99.7783 42.0225 99.8948 41.9679C99.996 41.9208 100.086 41.855 100.161 41.7744C100.236 41.6939 100.293 41.6 100.329 41.4983C100.366 41.3966 100.381 41.289 100.374 41.1817C100.367 41.0743 100.338 40.9694 100.289 40.8728L94.6747 29.8006Z" fill="white"/>
<path d="M73.9716 29.8006C73.6839 29.2361 72.7124 29.2361 72.4247 29.8006L66.8046 40.8728C66.7053 41.0686 66.6916 41.2942 66.7664 41.4997C66.8412 41.7053 66.9985 41.874 67.2036 41.9689C67.4088 42.0637 67.645 42.0768 67.8602 42.0054C68.0755 41.9339 68.2522 41.7837 68.3515 41.5878L73.1972 32.0417L78.0428 41.5878C78.1132 41.7267 78.2232 41.8438 78.3602 41.9257C78.4972 42.0076 78.6556 42.0509 78.8172 42.0507C78.947 42.0509 79.0751 42.0225 79.1916 41.9679C79.2928 41.9208 79.3833 41.855 79.4579 41.7744C79.5325 41.6939 79.5897 41.6 79.6263 41.4983C79.6629 41.3966 79.6782 41.289 79.6712 41.1817C79.6643 41.0743 79.6352 40.9694 79.5858 40.8728L73.9716 29.8006Z" fill="white"/>
<path d="M79.5849 29.8006C79.2972 29.2361 78.3257 29.2361 78.038 29.8006L76.6488 32.5404C76.5492 32.7363 76.5352 32.9619 76.6099 33.1676C76.6845 33.3734 76.8417 33.5424 77.0468 33.6374C77.252 33.7325 77.4883 33.7459 77.7037 33.6746C77.9192 33.6033 78.0961 33.4532 78.1957 33.2573L78.8125 32.0417L83.6581 41.5878C83.7285 41.7267 83.8386 41.8438 83.9756 41.9257C84.1125 42.0076 84.2709 42.0509 84.4326 42.0507C84.5624 42.0509 84.6905 42.0225 84.807 41.9679C84.9082 41.9208 84.9987 41.855 85.0732 41.7744C85.1478 41.6939 85.2051 41.6 85.2417 41.4983C85.2783 41.3966 85.2935 41.289 85.2866 41.1817C85.2796 41.0743 85.2506 40.9694 85.2011 40.8728L79.5849 29.8006Z" fill="white"/>
<path d="M23.8047 49.5379V49.09H26.4315V49.5379H25.3614V53.6777H24.8767V49.5379H23.8047ZM40.4698 49.09H41.4295C41.8001 49.0772 42.1711 49.0999 42.537 49.1578C42.8002 49.2169 43.0361 49.3562 43.2089 49.5548C43.3764 49.7732 43.4667 50.0369 43.4667 50.3075C43.4667 50.5782 43.3764 50.8419 43.2089 51.0602C43.0299 51.2655 42.7833 51.4068 42.5094 51.4611C42.1064 51.525 41.6978 51.5502 41.2896 51.5363H40.9487V53.6646H40.4679L40.4698 49.09ZM40.9507 49.5379V51.0922H41.7606C42.0043 51.1044 42.2484 51.0758 42.4818 51.0075C42.6294 50.9546 42.7552 50.8576 42.8404 50.7309C42.9271 50.604 42.9724 50.4553 42.9705 50.3038C42.9716 50.1547 42.9264 50.0086 42.8404 49.8842C42.7585 49.7607 42.6378 49.6652 42.4956 49.6113C42.2695 49.5469 42.0336 49.5195 41.798 49.5304L40.9507 49.5379ZM57.7794 49.09H60.5263V49.5379H58.2582V50.9737H60.5066V51.4215H58.2582V53.2205H60.5066V53.6683H57.7853L57.7794 49.09ZM78.4704 53.6683H77.9718V50.157L74.8189 53.6683H74.7105V49.09H75.1894V52.6653L78.3719 49.09H78.4763L78.4704 53.6683ZM75.4337 47.9949H75.8633C75.9353 48.1008 76.038 48.1845 76.1589 48.2357C76.2987 48.2935 76.45 48.3217 76.6023 48.3185C76.7466 48.3237 76.8904 48.2993 77.024 48.247C77.1445 48.187 77.2485 48.1006 77.3275 47.9949H77.7452C77.6896 48.1897 77.5586 48.3572 77.3787 48.4634C77.1442 48.5977 76.8735 48.6632 76.6003 48.6516C76.324 48.6633 76.0501 48.5979 75.8121 48.4634C75.6298 48.3584 75.4966 48.1907 75.4396 47.9949H75.4337ZM92.9718 54.3533H92.4989V53.2412H92.893L94.7749 49.09H94.9405L96.9288 53.2412H97.3012V54.3533H96.8302V53.6683H92.9817L92.9718 54.3533ZM93.429 53.2412H96.3573L94.8557 50.0422L93.429 53.2412Z" fill="white"/>
<path d="M155.385 55C155.165 54.9882 154.949 54.935 154.751 54.8434C154.552 54.7518 154.375 54.6236 154.228 54.4663C154.082 54.3089 153.969 54.1254 153.897 53.9263C153.825 53.7273 153.795 53.5166 153.809 53.3064C153.821 53.0961 153.876 52.8901 153.972 52.7004C154.068 52.5106 154.202 52.3409 154.367 52.2009C154.532 52.061 154.724 51.9536 154.933 51.8849C155.141 51.8163 155.362 51.7878 155.582 51.801C155.802 51.8128 156.018 51.866 156.216 51.9576C156.415 52.0492 156.593 52.1773 156.739 52.3347C156.886 52.4921 156.998 52.6756 157.07 52.8747C157.142 53.0737 157.172 53.2844 157.159 53.4946C157.133 53.9016 156.947 54.2841 156.636 54.5639C156.325 54.8438 155.915 54.9997 155.488 55H155.385ZM149.929 53.1935C149.739 53.0868 149.573 52.9453 149.441 52.7773C149.308 52.6093 149.212 52.418 149.157 52.2144C149.102 52.0108 149.09 51.7989 149.121 51.5907C149.152 51.3826 149.225 51.1822 149.337 51.0013C149.566 50.6373 149.935 50.3745 150.366 50.2705C150.797 50.1664 151.253 50.2296 151.635 50.4462C151.825 50.5529 151.991 50.6944 152.123 50.8624C152.255 51.0303 152.352 51.2216 152.407 51.4252C152.462 51.6289 152.474 51.8408 152.443 52.049C152.412 52.2571 152.338 52.4574 152.226 52.6384C152.078 52.8769 151.867 53.0743 151.614 53.2113C151.362 53.3482 151.076 53.4199 150.786 53.4193C150.484 53.4204 150.187 53.3423 149.929 53.1935ZM145.648 50.1206C145.318 49.8376 145.118 49.4407 145.094 49.0173C145.069 48.5938 145.222 48.1785 145.518 47.8625C145.815 47.5464 146.23 47.3556 146.673 47.3319C147.117 47.3083 147.552 47.4538 147.883 47.7365C148.214 48.0195 148.413 48.4164 148.438 48.8398C148.462 49.2632 148.309 49.6786 148.013 49.9945C147.857 50.1627 147.664 50.2972 147.449 50.3893C147.234 50.4814 147.001 50.529 146.766 50.529C146.353 50.5288 145.956 50.3834 145.648 50.1206ZM141.962 46.6074C141.813 46.4525 141.698 46.2711 141.623 46.0736C141.548 45.876 141.515 45.6663 141.525 45.4564C141.535 45.2466 141.589 45.0407 141.683 44.8507C141.777 44.6607 141.909 44.4903 142.072 44.3493C142.234 44.2079 142.424 44.0984 142.631 44.0271C142.838 43.9558 143.057 43.9242 143.277 43.934C143.497 43.9438 143.712 43.9948 143.911 44.0841C144.11 44.1735 144.289 44.2994 144.437 44.4547C144.735 44.7682 144.891 45.1822 144.871 45.6055C144.85 46.0289 144.654 46.4272 144.326 46.7128C144.019 46.9807 143.617 47.129 143.201 47.1287C142.968 47.13 142.737 47.0843 142.523 46.9945C142.309 46.9046 142.118 46.7727 141.962 46.6074ZM138.627 42.8439C138.49 42.6796 138.389 42.491 138.328 42.289C138.268 42.0871 138.249 41.8757 138.274 41.6671C138.299 41.4584 138.367 41.2564 138.474 41.0729C138.581 40.8893 138.725 40.7276 138.897 40.5971C139.07 40.4655 139.269 40.3678 139.481 40.3095C139.694 40.2513 139.916 40.2336 140.136 40.2575C140.355 40.2815 140.568 40.3466 140.761 40.4491C140.954 40.5516 141.125 40.6895 141.262 40.8549C141.538 41.1874 141.665 41.611 141.614 42.0326C141.564 42.4542 141.34 42.8395 140.992 43.1036C140.697 43.3274 140.331 43.4493 139.954 43.4498C139.699 43.4515 139.447 43.3979 139.217 43.2929C138.987 43.1879 138.786 43.0344 138.627 42.8439ZM135.543 38.9318C135.415 38.7607 135.324 38.5671 135.275 38.3622C135.225 38.1573 135.219 37.9451 135.255 37.7378C135.292 37.5304 135.371 37.332 135.488 37.1539C135.605 36.9759 135.758 36.8216 135.937 36.7C136.117 36.5781 136.319 36.4912 136.534 36.4441C136.748 36.3971 136.97 36.3908 137.187 36.4258C137.404 36.4607 137.611 36.5362 137.798 36.6478C137.984 36.7595 138.145 36.9051 138.273 37.0764C138.401 37.2473 138.492 37.4408 138.541 37.6455C138.591 37.8503 138.597 38.0623 138.561 38.2695C138.524 38.4767 138.445 38.6749 138.328 38.8528C138.211 39.0307 138.058 39.1848 137.878 39.3062C137.592 39.5038 137.247 39.6086 136.893 39.6055C136.628 39.6031 136.368 39.5406 136.133 39.4232C135.898 39.3057 135.696 39.1366 135.543 38.9299V38.9318ZM132.654 34.9067C132.411 34.5522 132.325 34.12 132.415 33.7048C132.504 33.2896 132.763 32.9254 133.133 32.6919C133.504 32.459 133.957 32.3762 134.392 32.462C134.827 32.5477 135.209 32.7949 135.453 33.1492C135.697 33.5035 135.783 33.9359 135.694 34.3513C135.604 34.7666 135.345 35.1309 134.974 35.364C134.702 35.5361 134.382 35.6277 134.056 35.6274C133.778 35.6271 133.504 35.561 133.26 35.4349C133.015 35.3087 132.807 35.1266 132.654 34.9049V34.9067ZM129.925 30.7876C129.694 30.425 129.623 29.9896 129.728 29.5771C129.833 29.1646 130.105 28.8088 130.485 28.5878C130.673 28.4787 130.882 28.406 131.099 28.3739C131.316 28.3418 131.538 28.3509 131.752 28.4007C131.966 28.4505 132.167 28.54 132.345 28.6642C132.522 28.7883 132.672 28.9446 132.787 29.1241C132.901 29.3035 132.978 29.5027 133.012 29.7102C133.045 29.9178 133.036 30.1298 132.984 30.3339C132.932 30.5381 132.839 30.7305 132.709 30.9C132.579 31.0696 132.415 31.213 132.227 31.322C131.965 31.4745 131.664 31.5553 131.358 31.5554C131.07 31.5549 130.787 31.4839 130.536 31.3492C130.285 31.2144 130.075 31.0204 129.925 30.7857V30.7876ZM127.346 26.5857C127.238 26.4027 127.168 26.2012 127.142 25.9926C127.115 25.7841 127.132 25.5726 127.191 25.3703C127.25 25.1679 127.351 24.9786 127.486 24.8133C127.622 24.648 127.791 24.5098 127.982 24.4066C128.174 24.3031 128.385 24.2367 128.603 24.2111C128.821 24.1855 129.043 24.2013 129.255 24.2576C129.467 24.3139 129.665 24.4095 129.838 24.5391C130.011 24.6686 130.156 24.8295 130.264 25.0125C130.372 25.1955 130.442 25.397 130.468 25.6056C130.495 25.8141 130.478 26.0256 130.419 26.228C130.36 26.4303 130.259 26.6196 130.124 26.7849C129.988 26.9503 129.819 27.0884 129.628 27.1916C129.378 27.3275 129.095 27.3988 128.808 27.3986C128.511 27.3984 128.218 27.3229 127.962 27.1798C127.705 27.0367 127.492 26.831 127.346 26.5838V26.5857ZM124.522 22.4891C124.42 22.3028 124.358 22.0993 124.339 21.89C124.32 21.6807 124.344 21.4699 124.41 21.2696C124.477 21.0693 124.584 20.8835 124.725 20.7227C124.867 20.5619 125.04 20.4294 125.235 20.3326C125.629 20.1371 126.089 20.099 126.512 20.2267C126.936 20.3545 127.289 20.6376 127.494 21.0138C127.595 21.2002 127.657 21.4039 127.676 21.6133C127.695 21.8226 127.671 22.0335 127.604 22.2338C127.538 22.4341 127.431 22.6199 127.289 22.7806C127.147 22.9413 126.974 23.0737 126.778 23.1703C126.541 23.2917 126.277 23.3562 126.008 23.3585C125.7 23.3577 125.399 23.276 125.137 23.1223C124.874 22.9686 124.662 22.7488 124.522 22.4872V22.4891ZM120.778 13.5678C120.67 13.3844 120.602 13.1827 120.576 12.974C120.55 12.7653 120.568 12.5539 120.628 12.3517C120.688 12.1495 120.789 11.9606 120.925 11.7957C121.061 11.6308 121.23 11.4931 121.422 11.3906C121.614 11.2878 121.825 11.2222 122.044 11.1975C122.262 11.1728 122.483 11.1895 122.695 11.2466C122.907 11.3038 123.104 11.4003 123.277 11.5306C123.449 11.6609 123.593 11.8224 123.7 12.0059C123.808 12.1889 123.877 12.3903 123.903 12.5987C123.929 12.807 123.911 13.0183 123.852 13.2203C123.792 13.4223 123.692 13.6111 123.556 13.776C123.42 13.9409 123.251 14.0786 123.06 14.1812C122.809 14.3155 122.527 14.3861 122.24 14.3863C121.942 14.3862 121.649 14.3101 121.392 14.1659C121.135 14.0217 120.923 13.8145 120.778 13.5659V13.5678ZM117.822 9.77607C117.572 9.42547 117.478 8.99437 117.561 8.57761C117.644 8.16084 117.896 7.79253 118.263 7.55372C118.631 7.31493 119.082 7.22519 119.518 7.30424C119.955 7.38329 120.341 7.62464 120.591 7.97523C120.84 8.32575 120.934 8.75654 120.852 9.17314C120.77 9.58974 120.518 9.95815 120.151 10.1976C119.873 10.3787 119.544 10.4757 119.207 10.4761C118.934 10.4753 118.666 10.4109 118.425 10.2886C118.184 10.1663 117.977 9.98975 117.824 9.77419L117.822 9.77607ZM114.866 6.16311C114.568 5.84959 114.412 5.43594 114.432 5.0127C114.452 4.58947 114.647 4.19116 114.975 3.90502C115.303 3.62075 115.737 3.47229 116.18 3.49203C116.623 3.51178 117.04 3.69813 117.339 4.01041C117.638 4.32346 117.795 4.73709 117.775 5.16047C117.755 5.58385 117.56 5.98237 117.233 6.2685C116.925 6.53866 116.522 6.68843 116.104 6.68812C115.872 6.68626 115.643 6.63847 115.432 6.54777C115.221 6.45708 115.031 6.32546 114.876 6.16125L114.866 6.16311ZM111.431 3.35933C111.05 3.14338 110.773 2.79185 110.663 2.38169C110.552 1.97152 110.616 1.53614 110.84 1.17087C111.067 0.806327 111.435 0.542268 111.865 0.436476C112.295 0.330685 112.751 0.391772 113.134 0.606343C113.516 0.821943 113.793 1.17347 113.904 1.58378C114.014 1.99409 113.95 2.42965 113.725 2.79481C113.577 3.03563 113.366 3.23527 113.112 3.37392C112.858 3.51257 112.571 3.58539 112.279 3.58513C111.983 3.58125 111.694 3.50269 111.441 3.35745L111.431 3.35933Z" fill="#CA9E67"/>
<path d="M116.558 13.6775C116.372 13.9389 116.108 14.1417 115.801 14.2602C115.494 14.3786 115.157 14.4074 114.833 14.343C114.508 14.2785 114.211 14.1236 113.979 13.898C113.747 13.6723 113.59 13.3859 113.528 13.0751C113.467 12.7643 113.503 12.443 113.632 12.1518C113.762 11.8606 113.979 11.6127 114.256 11.4393C114.533 11.2659 114.858 11.1748 115.189 11.1776C115.52 11.1805 115.843 11.277 116.117 11.4551C116.484 11.6939 116.737 12.0622 116.82 12.479C116.903 12.8958 116.809 13.3269 116.558 13.6775ZM120.09 14.0651C119.799 13.9131 119.468 13.8468 119.138 13.8746C118.808 13.9023 118.494 14.0229 118.236 14.221C117.978 14.4192 117.787 14.686 117.687 14.9877C117.588 15.2895 117.584 15.6126 117.677 15.9162C117.77 16.2199 117.955 16.4904 118.209 16.6936C118.463 16.8969 118.774 17.0236 119.103 17.0579C119.433 17.0922 119.765 17.0325 120.059 16.8863C120.353 16.7401 120.595 16.514 120.754 16.2366C120.966 15.8645 121.015 15.4275 120.89 15.021C120.766 14.6145 120.478 14.2715 120.09 14.067V14.0651ZM124.689 15.9807C124.286 15.8088 123.828 15.7957 123.415 15.9443C123.002 16.0928 122.668 16.391 122.483 16.774C122.299 17.157 122.281 17.5939 122.432 17.9897C122.584 18.3856 122.893 18.7084 123.292 18.888C123.511 18.983 123.749 19.0324 123.99 19.0329C124.371 19.0326 124.742 18.9078 125.039 18.6791C125.336 18.4504 125.543 18.1315 125.624 17.7754C125.706 17.4192 125.658 17.0472 125.488 16.7208C125.318 16.3944 125.036 16.1333 124.689 15.9807ZM129.698 17.7044C129.403 17.5616 129.069 17.5058 128.74 17.5439C128.412 17.5821 128.102 17.7125 127.851 17.9187C127.599 18.1249 127.418 18.3976 127.329 18.7023C127.24 19.0071 127.248 19.3302 127.351 19.6307C127.454 19.9313 127.649 20.1959 127.91 20.391C128.17 20.586 128.486 20.7029 128.816 20.7267C129.147 20.7505 129.477 20.6803 129.765 20.5248C130.054 20.3693 130.288 20.1357 130.437 19.8533C130.636 19.4752 130.67 19.037 130.532 18.635C130.393 18.2329 130.094 17.8996 129.698 17.7082V17.7044ZM109.993 8.70589C109.766 8.93714 109.617 9.2273 109.563 9.53965C109.51 9.85199 109.555 10.1725 109.692 10.4606C109.829 10.7486 110.053 10.9913 110.335 11.1579C110.616 11.3245 110.944 11.4075 111.275 11.3965C111.606 11.3854 111.927 11.2807 112.195 11.0957C112.464 10.9107 112.67 10.6537 112.786 10.3571C112.902 10.0606 112.923 9.73793 112.846 9.42992C112.77 9.12191 112.6 8.84244 112.357 8.62687C112.032 8.3393 111.6 8.18656 111.157 8.20208C110.714 8.21759 110.295 8.40009 109.993 8.70965V8.70589ZM106.729 2.92895C106.821 2.98595 106.918 3.03507 107.019 3.07573C107.12 3.11578 107.225 3.14665 107.332 3.16793C107.44 3.1882 107.55 3.19829 107.659 3.19805C107.769 3.19847 107.879 3.18838 107.986 3.16793C108.201 3.12536 108.406 3.04427 108.589 2.92895C108.681 2.8713 108.767 2.80442 108.844 2.72947C108.922 2.65512 108.992 2.57386 109.055 2.48674C109.114 2.39923 109.165 2.30663 109.206 2.21013C109.249 2.11382 109.281 2.01354 109.303 1.91092C109.345 1.70461 109.345 1.4925 109.303 1.28619C109.281 1.18356 109.249 1.08331 109.206 0.986999C109.165 0.890501 109.114 0.797879 109.055 0.710366C108.992 0.62325 108.922 0.541984 108.844 0.467636C108.767 0.392687 108.681 0.325807 108.589 0.268161C108.407 0.152383 108.202 0.0718393 107.986 0.0310593C107.771 -0.0103531 107.548 -0.0103531 107.332 0.0310593C107.225 0.0516999 107.12 0.0819379 107.019 0.121379C106.815 0.200899 106.63 0.318651 106.475 0.467636C106.397 0.542024 106.328 0.623291 106.266 0.710366C106.147 0.886119 106.063 1.08132 106.018 1.28619C105.973 1.49225 105.973 1.70486 106.018 1.91092C106.04 2.01332 106.072 2.11351 106.114 2.21013C106.156 2.30744 106.208 2.40018 106.27 2.48674C106.327 2.57386 106.393 2.65518 106.467 2.72947C106.548 2.80475 106.636 2.8728 106.729 2.93271V2.92895ZM158.778 43.6292C158.926 43.8705 159.138 44.0706 159.392 44.2096C159.646 44.3485 159.934 44.4216 160.226 44.4214C160.484 44.421 160.737 44.3641 160.968 44.255C161.198 44.1459 161.399 43.9877 161.555 43.7925C161.711 43.5973 161.818 43.3705 161.867 43.1295C161.917 42.8885 161.908 42.6399 161.84 42.4029C161.773 42.1659 161.649 41.9469 161.479 41.7628C161.309 41.5788 161.096 41.4347 160.858 41.3416C160.62 41.2486 160.363 41.2092 160.107 41.2263C159.85 41.2435 159.601 41.3169 159.379 41.4407C159.189 41.5467 159.022 41.6875 158.888 41.8552C158.755 42.0228 158.658 42.214 158.602 42.4176C158.546 42.6213 158.533 42.8335 158.563 43.042C158.593 43.2506 158.666 43.4514 158.778 43.6329V43.6292ZM109.472 5.31124C109.308 5.03563 109.063 4.81263 108.766 4.67048C108.469 4.52832 108.135 4.47338 107.806 4.51265C107.477 4.55191 107.167 4.6836 106.916 4.89104C106.665 5.09848 106.484 5.37235 106.397 5.67796C106.309 5.98358 106.318 6.3072 106.423 6.60786C106.528 6.90851 106.724 7.17269 106.986 7.36694C107.248 7.56119 107.565 7.67678 107.896 7.69907C108.227 7.72136 108.557 7.64936 108.846 7.49217C109.037 7.38841 109.205 7.24965 109.34 7.08383C109.475 6.918 109.574 6.72838 109.633 6.5258C109.691 6.32323 109.707 6.11169 109.679 5.90328C109.652 5.69487 109.581 5.49368 109.472 5.31124ZM142.578 25.4233C142.207 25.1954 141.756 25.1166 141.324 25.2042C140.892 25.2917 140.514 25.5385 140.272 25.8909C140.03 26.2433 139.943 26.6727 140.03 27.0859C140.118 27.499 140.373 27.8625 140.739 28.0973C141.011 28.2695 141.33 28.3612 141.656 28.3607C142.017 28.3616 142.368 28.2511 142.658 28.0456C142.948 27.8402 143.161 27.5508 143.264 27.2206C143.368 26.8903 143.357 26.537 143.234 26.2131C143.11 25.8892 142.88 25.6122 142.578 25.4233ZM158.488 37.9011C158.269 37.664 157.981 37.4942 157.661 37.4133C157.341 37.3325 157.003 37.344 156.689 37.4467C156.376 37.5493 156.101 37.7383 155.901 37.9899C155.7 38.2414 155.582 38.5442 155.561 38.8599C155.54 39.1756 155.618 39.49 155.785 39.7635C155.951 40.037 156.199 40.2572 156.496 40.3962C156.794 40.5353 157.128 40.587 157.456 40.5448C157.784 40.5026 158.092 40.3685 158.341 40.1592C158.673 39.8775 158.874 39.4815 158.9 39.0582C158.927 38.6349 158.777 38.2187 158.482 37.9011H158.488ZM152.452 34.4481C152.304 34.6026 152.188 34.7835 152.112 34.9805C152.037 35.1776 152.003 35.387 152.012 35.5967C152.021 35.8064 152.073 36.0123 152.166 36.2027C152.258 36.3931 152.389 36.5642 152.551 36.7062C152.795 36.9207 153.1 37.0613 153.427 37.1103C153.754 37.1592 154.09 37.1144 154.39 36.9813C154.691 36.8483 154.944 36.633 155.116 36.3628C155.289 36.0927 155.373 35.7797 155.36 35.4635C155.346 35.1473 155.234 34.8421 155.039 34.5866C154.843 34.331 154.573 34.1366 154.261 34.0279C153.95 33.9192 153.612 33.9011 153.29 33.9759C152.968 34.0507 152.677 34.2151 152.452 34.4481ZM161.629 51.0451C161.588 50.9486 161.537 50.856 161.478 50.7685C161.416 50.6814 161.345 50.6001 161.267 50.5257C161.19 50.4508 161.105 50.3839 161.013 50.3263C160.921 50.2696 160.825 50.2205 160.725 50.1795C160.624 50.1403 160.519 50.1101 160.412 50.0892C160.195 50.0478 159.972 50.0478 159.755 50.0892C159.648 50.1101 159.543 50.1403 159.442 50.1795C159.342 50.2205 159.246 50.2696 159.154 50.3263C159.063 50.3854 158.977 50.4521 158.898 50.5257C158.824 50.6 158.758 50.6814 158.701 50.7685C158.639 50.8551 158.587 50.9478 158.546 51.0451C158.504 51.1417 158.471 51.2419 158.449 51.3443C158.399 51.5771 158.403 51.8177 158.463 52.0486C158.522 52.2794 158.634 52.4948 158.792 52.6791C158.949 52.8633 159.147 53.0118 159.372 53.1138C159.597 53.2158 159.842 53.2688 160.091 53.2688C160.34 53.2688 160.586 53.2158 160.811 53.1138C161.036 53.0118 161.234 52.8633 161.391 52.6791C161.549 52.4948 161.661 52.2794 161.72 52.0486C161.779 51.8177 161.784 51.5771 161.734 51.3443C161.71 51.2407 161.673 51.1402 161.624 51.0451H161.629ZM163.529 47.2421C163.51 46.9304 163.396 46.6309 163.2 46.3806C163.005 46.1302 162.737 45.9399 162.43 45.8331C162.122 45.7264 161.789 45.7078 161.471 45.7797C161.153 45.8517 160.864 46.011 160.639 46.2379C160.415 46.4649 160.265 46.7497 160.208 47.0571C160.151 47.3646 160.189 47.6812 160.318 47.9681C160.447 48.2549 160.662 48.4993 160.935 48.6713C161.207 48.8432 161.527 48.9351 161.854 48.9357H161.949C162.393 48.9105 162.808 48.7179 163.103 48.4003C163.399 48.0827 163.55 47.6661 163.523 47.2421H163.529ZM150.894 31.1494C150.545 30.9098 150.112 30.8074 149.686 30.8634C149.26 30.9193 148.873 31.1294 148.605 31.4502C148.336 31.771 148.207 32.178 148.244 32.5871C148.281 32.9962 148.481 33.3761 148.803 33.6484C149.15 33.9134 149.593 34.0359 150.035 33.989C150.476 33.942 150.88 33.7295 151.158 33.3981C151.435 33.0667 151.564 32.6437 151.514 32.222C151.465 31.8002 151.243 31.4144 150.896 31.1494H150.894ZM133.827 20.3746C133.634 20.2676 133.421 20.1983 133.2 20.1709C132.979 20.1435 132.755 20.1584 132.54 20.2149C132.325 20.2713 132.124 20.3681 131.949 20.4996C131.774 20.6311 131.628 20.7946 131.52 20.9807C131.412 21.1667 131.343 21.3714 131.319 21.5829C131.295 21.7944 131.315 22.0084 131.379 22.2124C131.442 22.4164 131.547 22.6062 131.689 22.7708C131.83 22.9353 132.004 23.0713 132.201 23.1708C132.448 23.303 132.727 23.3724 133.011 23.3722C133.382 23.3727 133.743 23.2553 134.037 23.0386C134.331 22.822 134.541 22.5182 134.634 22.175C134.728 21.8319 134.699 21.4689 134.553 21.143C134.407 20.8171 134.151 20.5468 133.827 20.3746ZM138.249 22.8208C137.965 22.6572 137.637 22.5776 137.306 22.592C136.975 22.6064 136.656 22.7142 136.389 22.9018C136.123 23.0893 135.92 23.3482 135.807 23.6457C135.695 23.9432 135.677 24.2659 135.756 24.5731C135.836 24.8802 136.009 25.158 136.253 25.3713C136.498 25.5845 136.803 25.7237 137.131 25.7712C137.458 25.8187 137.793 25.7724 138.093 25.6381C138.393 25.5038 138.645 25.2876 138.816 25.0168C138.93 24.8368 139.005 24.6372 139.038 24.4294C139.07 24.2216 139.06 24.0097 139.007 23.8058C138.954 23.6018 138.859 23.4099 138.728 23.2409C138.598 23.0719 138.433 22.9291 138.245 22.8208H138.249ZM146.797 28.1895C146.528 28.005 146.208 27.9008 145.877 27.89C145.546 27.8793 145.219 27.9625 144.937 28.1292C144.656 28.2958 144.432 28.5384 144.295 28.8263C144.158 29.1142 144.113 29.4345 144.167 29.7466C144.22 30.0587 144.369 30.3487 144.595 30.5799C144.821 30.8111 145.114 30.9732 145.436 31.0456C145.759 31.118 146.096 31.0975 146.407 30.9867C146.717 30.8759 146.986 30.6798 147.179 30.4231C147.308 30.2523 147.4 30.059 147.45 29.8542C147.5 29.6494 147.507 29.4373 147.471 29.2298C147.435 29.0223 147.357 28.8237 147.241 28.6451C147.124 28.4666 146.972 28.3118 146.793 28.1895H146.797Z" fill="#936037"/>
</svg>
