<svg width="298" height="105" viewBox="0 0 298 105" fill="none" xmlns="http://www.w3.org/2000/svg">
<path d="M117.924 57.3408C117.924 56.9304 117.761 56.5367 117.47 56.2462C117.18 55.9556 116.787 55.792 116.376 55.791H105.106C104.695 55.792 104.302 55.9556 104.012 56.2462C103.722 56.5367 103.559 56.9304 103.559 57.3408V78.2047C103.559 78.6148 103.722 79.0081 104.012 79.298C104.302 79.588 104.696 79.751 105.106 79.751H116.376C116.786 79.751 117.18 79.588 117.47 79.298C117.76 79.0081 117.924 78.6148 117.924 78.2047C117.924 77.7946 117.76 77.4013 117.47 77.1113C117.18 76.8213 116.786 76.6584 116.376 76.6584H106.654V58.9048H116.376C116.581 58.9044 116.783 58.8635 116.972 58.7845C117.16 58.7055 117.332 58.59 117.476 58.4446C117.619 58.2993 117.733 58.1269 117.81 57.9375C117.887 57.748 117.925 57.5452 117.924 57.3408Z" fill="black"/>
<path d="M62.8833 56.6632C62.3651 55.5992 60.6152 55.5992 60.0969 56.6632L49.9772 77.5306C49.8881 77.7127 49.8358 77.9105 49.8233 78.1128C49.8107 78.3151 49.8382 78.5179 49.9041 78.7096C49.9701 78.9013 50.0731 79.0781 50.2075 79.23C50.3418 79.3818 50.5048 79.5057 50.6871 79.5946C50.897 79.6975 51.1278 79.7509 51.3615 79.7507C51.6527 79.7511 51.938 79.6694 52.1847 79.5151C52.4315 79.3608 52.6297 79.14 52.7565 78.8782L61.4848 60.887L67.8739 74.0692L62.3083 70.6079C62.1358 70.4911 61.9415 70.4103 61.737 70.3703C61.5325 70.3304 61.322 70.3321 61.1182 70.3754C60.9144 70.4187 60.7214 70.5027 60.5508 70.6223C60.3803 70.7419 60.2357 70.8947 60.1257 71.0715C60.0157 71.2483 59.9425 71.4455 59.9107 71.6513C59.8788 71.857 59.8888 72.0671 59.9402 72.2688C59.9915 72.4706 60.0831 72.6599 60.2095 72.8255C60.3358 72.991 60.4943 73.1294 60.6755 73.2323L70.7987 79.513C71.0835 79.6888 71.4175 79.7675 71.7509 79.7375C72.0842 79.7075 72.3988 79.5704 72.6475 79.3466C72.8962 79.1229 73.0656 78.8247 73.1304 78.4966C73.1951 78.1685 73.1517 77.8283 73.0065 77.527L62.8833 56.6632Z" fill="black"/>
<path d="M90.6111 56.6632C90.0929 55.5992 88.343 55.5992 87.8248 56.6632L77.7015 77.5306C77.5227 77.8998 77.4979 78.3248 77.6327 78.7122C77.7675 79.0996 78.0508 79.4177 78.4203 79.5964C78.7898 79.7751 79.2152 79.7998 79.603 79.6652C79.9907 79.5305 80.309 79.2474 80.4879 78.8782L89.2162 60.887L97.948 78.8782C98.1269 79.2474 98.4452 79.5305 98.8329 79.6652C99.2207 79.7998 99.6461 79.7751 100.016 79.5964C100.385 79.4177 100.668 79.0996 100.803 78.7122C100.938 78.3248 100.913 77.8998 100.734 77.5306L90.6111 56.6632Z" fill="black"/>
<path d="M39.0064 66.2251H32.5285C32.3412 66.2258 32.1558 66.2618 31.9819 66.3315V57.3412C31.9819 56.9311 31.8189 56.5378 31.5286 56.2478C31.2384 55.9578 30.8448 55.7949 30.4343 55.7949C30.0239 55.7949 29.6302 55.9578 29.34 56.2478C29.0498 56.5378 28.8867 56.9311 28.8867 57.3412V78.2051C28.8867 78.6151 29.0498 79.0084 29.34 79.2984C29.6302 79.5884 30.0239 79.7513 30.4343 79.7513C30.8448 79.7513 31.2384 79.5884 31.5286 79.2984C31.8189 79.0084 31.9819 78.6151 31.9819 78.2051V69.2147C32.1565 69.2815 32.3416 69.3163 32.5285 69.3176H39.0064C39.4169 69.3176 39.8105 69.1547 40.1007 68.8647C40.391 68.5747 40.554 68.1814 40.554 67.7713C40.554 67.3612 40.391 66.9679 40.1007 66.678C39.8105 66.388 39.4169 66.2251 39.0064 66.2251Z" fill="black"/>
<path d="M44.1999 55.791C43.7892 55.792 43.3955 55.9556 43.1054 56.2462C42.8153 56.5367 42.6523 56.9304 42.6523 57.3408V78.2047C42.6523 78.6148 42.8154 79.0081 43.1056 79.298C43.3959 79.588 43.7895 79.751 44.1999 79.751C44.6104 79.751 45.004 79.588 45.2943 79.298C45.5845 79.0081 45.7475 78.6148 45.7475 78.2047V57.3408C45.7475 56.9304 45.5846 56.5367 45.2945 56.2462C45.0043 55.9556 44.6107 55.792 44.1999 55.791Z" fill="black"/>
<path d="M13.563 56.6632C13.0448 55.5992 11.2948 55.5992 10.7766 56.6632L0.656927 77.5306C0.567821 77.7127 0.5155 77.9105 0.502955 78.1128C0.49041 78.3151 0.517887 78.5179 0.583814 78.7096C0.649742 78.9013 0.752828 79.0781 0.887182 79.23C1.02154 79.3818 1.18452 79.5057 1.36683 79.5946C1.57671 79.6975 1.80744 79.7509 2.04124 79.7507C2.33244 79.7515 2.61792 79.67 2.86475 79.5156C3.11158 79.3612 3.30968 79.1403 3.4362 78.8782L12.1645 60.887L18.5536 74.0692L12.988 70.6079C12.8155 70.4911 12.6212 70.4103 12.4167 70.3703C12.2122 70.3304 12.0017 70.3321 11.7979 70.3754C11.594 70.4187 11.4011 70.5027 11.2305 70.6223C11.06 70.7419 10.9154 70.8947 10.8054 71.0715C10.6954 71.2483 10.6222 71.4455 10.5903 71.6513C10.5585 71.857 10.5685 72.0671 10.6198 72.2688C10.6712 72.4706 10.7628 72.6599 10.8891 72.8255C11.0155 72.991 11.174 73.1294 11.3552 73.2323L21.4784 79.513C21.7629 79.6917 22.0979 79.7728 22.4327 79.744C22.7674 79.7153 23.0837 79.5781 23.3334 79.3535C23.5831 79.1289 23.7527 78.829 23.8163 78.4994C23.88 78.1698 23.8343 77.8284 23.6862 77.527L13.563 56.6632Z" fill="black"/>
<path d="M181.053 56.6632C180.534 55.5992 178.785 55.5992 178.266 56.6632L176.066 61.2026C175.977 61.3854 175.925 61.5839 175.913 61.7868C175.901 61.9896 175.929 62.1928 175.996 62.3848C176.062 62.5768 176.166 62.7538 176.301 62.9057C176.436 63.0577 176.6 63.1815 176.783 63.2703C176.966 63.359 177.164 63.4108 177.367 63.4228C177.57 63.4348 177.774 63.4068 177.966 63.3403C178.158 63.2737 178.335 63.17 178.487 63.0351C178.639 62.9002 178.763 62.7367 178.852 62.5539L179.661 60.887L188.39 78.8782C188.516 79.1403 188.714 79.3612 188.961 79.5156C189.208 79.67 189.493 79.7515 189.784 79.7507C190.018 79.7509 190.249 79.6975 190.459 79.5946C190.641 79.5057 190.804 79.3818 190.939 79.23C191.073 79.0781 191.176 78.9013 191.242 78.7096C191.308 78.5179 191.335 78.3151 191.323 78.1128C191.31 77.9105 191.258 77.7127 191.169 77.5306L181.053 56.6632Z" fill="black"/>
<path d="M110.555 66.2246C110.145 66.2246 109.751 66.3875 109.461 66.6775C109.171 66.9675 109.008 67.3608 109.008 67.7709C109.008 68.181 109.171 68.5743 109.461 68.8642C109.751 69.1542 110.145 69.3171 110.555 69.3171H113.04C113.451 69.3171 113.844 69.1542 114.134 68.8642C114.425 68.5743 114.588 68.181 114.588 67.7709C114.588 67.3608 114.425 66.9675 114.134 66.6775C113.844 66.3875 113.451 66.2246 113.04 66.2246H110.555Z" fill="black"/>
<path d="M218.327 77.5306L208.204 56.6632C207.685 55.5992 205.935 55.5992 205.421 56.6632L195.298 77.5306C195.208 77.7127 195.156 77.9105 195.144 78.1128C195.131 78.3151 195.159 78.5179 195.224 78.7096C195.29 78.9013 195.393 79.0781 195.528 79.23C195.662 79.3818 195.825 79.5057 196.007 79.5946C196.217 79.6975 196.448 79.7509 196.682 79.7507C196.973 79.7511 197.258 79.6694 197.505 79.5151C197.752 79.3608 197.95 79.14 198.077 78.8782L206.805 60.887L213.194 74.0692L207.629 70.6079C207.456 70.4911 207.262 70.4103 207.057 70.3703C206.853 70.3304 206.642 70.3321 206.438 70.3754C206.235 70.4187 206.042 70.5027 205.871 70.6223C205.701 70.7419 205.556 70.8947 205.446 71.0715C205.336 71.2483 205.263 71.4455 205.231 71.6513C205.199 71.857 205.209 72.0671 205.26 72.2688C205.312 72.4706 205.403 72.6599 205.53 72.8255C205.656 72.991 205.815 73.1294 205.996 73.2323L216.119 79.513C216.404 79.6917 216.739 79.7728 217.073 79.744C217.408 79.7153 217.724 79.5781 217.974 79.3535C218.224 79.1289 218.393 78.829 218.457 78.4994C218.521 78.1698 218.475 77.8284 218.327 77.527V77.5306Z" fill="black"/>
<path d="M170.931 56.6632C170.413 55.5992 168.663 55.5992 168.145 56.6632L158.022 77.5306C157.843 77.8998 157.818 78.3248 157.953 78.7122C158.088 79.0996 158.371 79.4177 158.741 79.5964C159.11 79.7751 159.536 79.7998 159.923 79.6652C160.311 79.5305 160.629 79.2474 160.808 78.8782L169.536 60.887L178.265 78.8782C178.392 79.14 178.59 79.3608 178.837 79.5151C179.083 79.6694 179.369 79.7511 179.66 79.7507C179.894 79.7509 180.124 79.6975 180.334 79.5946C180.516 79.5057 180.679 79.3818 180.814 79.23C180.948 79.0781 181.051 78.9013 181.117 78.7096C181.183 78.5179 181.211 78.3151 181.198 78.1128C181.185 77.9105 181.133 77.7127 181.044 77.5306L170.931 56.6632Z" fill="black"/>
<path d="M133.654 56.6632C133.136 55.5992 131.386 55.5992 130.868 56.6632L120.744 77.5306C120.566 77.8998 120.541 78.3248 120.676 78.7122C120.81 79.0996 121.094 79.4177 121.463 79.5964C121.833 79.7751 122.258 79.7998 122.646 79.6652C123.034 79.5305 123.352 79.2474 123.531 78.8782L132.259 60.887L140.987 78.8782C141.114 79.14 141.312 79.3608 141.559 79.5151C141.806 79.6694 142.091 79.7511 142.382 79.7507C142.616 79.7509 142.847 79.6975 143.057 79.5946C143.239 79.5057 143.402 79.3818 143.536 79.23C143.671 79.0781 143.774 78.9013 143.84 78.7096C143.906 78.5179 143.933 78.3151 143.921 78.1128C143.908 77.9105 143.856 77.7127 143.767 77.5306L133.654 56.6632Z" fill="black"/>
<path d="M143.772 56.6632C143.254 55.5992 141.504 55.5992 140.986 56.6632L138.484 61.8268C138.304 62.196 138.279 62.6212 138.413 63.009C138.548 63.3967 138.831 63.7152 139.201 63.8944C139.57 64.0736 139.996 64.0988 140.384 63.9644C140.772 63.8301 141.091 63.5472 141.27 63.178L142.381 60.887L151.109 78.8782C151.236 79.14 151.434 79.3608 151.681 79.5151C151.928 79.6694 152.213 79.7511 152.504 79.7507C152.738 79.7509 152.969 79.6975 153.179 79.5946C153.361 79.5057 153.524 79.3818 153.658 79.23C153.793 79.0781 153.896 78.9013 153.962 78.7096C154.028 78.5179 154.055 78.3151 154.042 78.1128C154.03 77.9105 153.978 77.7127 153.888 77.5306L143.772 56.6632Z" fill="black"/>
<path d="M43.293 93.8622V93.0181H48.0245V93.8622H46.0971V101.664H45.2239V93.8622H43.293ZM73.3113 93.0181H75.0399C75.7074 92.9939 76.3757 93.0367 77.0347 93.1458C77.5089 93.2571 77.9338 93.5198 78.2451 93.8941C78.5468 94.3057 78.7094 94.8026 78.7094 95.3127C78.7094 95.8229 78.5468 96.3197 78.2451 96.7313C77.9226 97.1182 77.4784 97.3844 76.985 97.4867C76.2592 97.6073 75.5232 97.6548 74.7879 97.6285H74.1738V101.64H73.3077L73.3113 93.0181ZM74.1774 93.8622V96.7916H75.6362C76.0753 96.8145 76.5149 96.7605 76.9353 96.632C77.2012 96.5322 77.4277 96.3493 77.5814 96.1107C77.7374 95.8714 77.819 95.5912 77.8156 95.3056C77.8177 95.0246 77.7361 94.7494 77.5814 94.5148C77.4338 94.2822 77.2164 94.1021 76.9602 94.0005C76.553 93.8791 76.1281 93.8276 75.7037 93.848L74.1774 93.8622ZM104.49 93.0181H109.438V93.8622H105.353V96.5681H109.403V97.4122H105.353V100.803H109.403V101.647H104.501L104.49 93.0181ZM141.76 101.647H140.862V95.029L135.183 101.647H134.988V93.0181H135.85V99.7564L141.583 93.0181H141.771L141.76 101.647ZM136.29 90.9541H137.064C137.194 91.1538 137.379 91.3115 137.597 91.4081C137.849 91.5169 138.121 91.5701 138.395 91.5641C138.655 91.5739 138.914 91.5279 139.155 91.4293C139.372 91.3161 139.559 91.1533 139.702 90.9541H140.454C140.354 91.3213 140.118 91.6369 139.794 91.8372C139.371 92.0903 138.884 92.2136 138.392 92.1918C137.894 92.2138 137.401 92.0906 136.972 91.8372C136.644 91.6392 136.404 91.3232 136.301 90.9541H136.29ZM167.881 102.938H167.029V100.842H167.739L171.129 93.0181H171.427L175.009 100.842H175.68V102.938H174.831V101.647H167.899L167.881 102.938ZM168.705 100.842H173.979L171.275 94.8127L168.705 100.842Z" fill="black"/>
<path d="M282.836 104.158C282.44 104.136 282.052 104.036 281.694 103.863C281.336 103.691 281.016 103.449 280.752 103.152C280.488 102.856 280.286 102.51 280.156 102.135C280.026 101.76 279.972 101.363 279.997 100.967C280.018 100.57 280.119 100.182 280.291 99.8243C280.464 99.4668 280.706 99.1469 281.003 98.8831C281.3 98.6193 281.646 98.4169 282.022 98.2876C282.397 98.1582 282.795 98.1044 283.191 98.1294C283.588 98.1515 283.976 98.2518 284.334 98.4245C284.692 98.5971 285.012 98.8386 285.276 99.1353C285.539 99.4319 285.742 99.7777 285.872 100.153C286.001 100.528 286.055 100.925 286.031 101.321C285.986 102.088 285.649 102.809 285.089 103.337C284.53 103.864 283.79 104.158 283.021 104.158H282.836ZM273.008 100.754C272.666 100.553 272.368 100.286 272.129 99.9694C271.891 99.6528 271.717 99.2923 271.618 98.9086C271.519 98.5248 271.497 98.1254 271.553 97.733C271.608 97.3407 271.741 96.9632 271.943 96.6221C272.354 95.9362 273.02 95.4409 273.796 95.2448C274.572 95.0487 275.394 95.1678 276.082 95.576C276.423 95.7772 276.722 96.0437 276.96 96.3603C277.199 96.6769 277.373 97.0374 277.471 97.4212C277.57 97.8049 277.593 98.2044 277.537 98.5967C277.481 98.989 277.348 99.3665 277.147 99.7076C276.879 100.157 276.5 100.529 276.045 100.787C275.59 101.045 275.075 101.18 274.552 101.179C274.008 101.181 273.474 101.034 273.008 100.754ZM265.298 94.9624C264.702 94.429 264.343 93.681 264.299 92.883C264.255 92.0849 264.53 91.3021 265.064 90.7066C265.597 90.1109 266.346 89.7512 267.144 89.7067C267.943 89.6621 268.727 89.9363 269.323 90.469C269.919 91.0024 270.278 91.7504 270.322 92.5485C270.366 93.3465 270.091 94.1293 269.558 94.7248C269.276 95.0416 268.929 95.2952 268.542 95.4688C268.155 95.6424 267.735 95.7321 267.311 95.732C266.568 95.7317 265.851 95.4577 265.298 94.9624ZM258.657 88.3411C258.389 88.0492 258.182 87.7073 258.047 87.335C257.912 86.9627 257.852 86.5675 257.871 86.172C257.889 85.7765 257.986 85.3885 258.155 85.0304C258.324 84.6723 258.562 84.3512 258.856 84.0854C259.148 83.8188 259.491 83.6124 259.863 83.4781C260.236 83.3438 260.631 83.2842 261.027 83.3026C261.422 83.3211 261.81 83.4172 262.169 83.5856C262.527 83.754 262.849 83.9913 263.115 84.284C263.653 84.8749 263.935 85.655 263.897 86.453C263.86 87.2509 263.507 88.0015 262.916 88.5398C262.363 89.0447 261.64 89.3243 260.89 89.3235C260.469 89.3261 260.053 89.2399 259.668 89.0706C259.284 88.9013 258.939 88.6527 258.657 88.3411ZM252.651 81.2482C252.405 80.9384 252.221 80.5831 252.112 80.2025C252.003 79.8219 251.97 79.4235 252.015 79.0302C252.061 78.6369 252.183 78.2563 252.376 77.9103C252.568 77.5643 252.827 77.2597 253.138 77.0138C253.449 76.7658 253.806 76.5816 254.189 76.4717C254.572 76.3619 254.972 76.3286 255.368 76.3737C255.764 76.4189 256.147 76.5415 256.495 76.7347C256.843 76.9279 257.15 77.1879 257.397 77.4996C257.895 78.1262 258.123 78.9245 258.032 79.7191C257.94 80.5138 257.537 81.2398 256.911 81.7376C256.378 82.1593 255.719 82.3892 255.04 82.3902C254.581 82.3933 254.128 82.2922 253.714 82.0944C253.3 81.8965 252.937 81.6071 252.651 81.2482ZM247.096 73.8751C246.866 73.5526 246.701 73.1878 246.612 72.8016C246.523 72.4155 246.511 72.0156 246.577 71.6248C246.643 71.234 246.786 70.8601 246.997 70.5245C247.207 70.1889 247.483 69.8982 247.806 69.669C248.129 69.4393 248.494 69.2754 248.88 69.1867C249.266 69.098 249.666 69.0863 250.056 69.1521C250.447 69.218 250.821 69.3602 251.157 69.5706C251.492 69.781 251.783 70.0555 252.012 70.3783C252.243 70.7005 252.407 71.0651 252.496 71.4509C252.585 71.8368 252.597 72.2364 252.531 72.6269C252.465 73.0174 252.323 73.391 252.112 73.7263C251.901 74.0616 251.626 74.352 251.302 74.5808C250.786 74.9531 250.164 75.1507 249.528 75.1448C249.05 75.1404 248.581 75.0226 248.158 74.8012C247.735 74.5799 247.371 74.2612 247.096 73.8716V73.8751ZM241.893 66.2892C241.454 65.6211 241.299 64.8065 241.46 64.024C241.622 63.2415 242.088 62.555 242.755 62.1151C243.424 61.676 244.239 61.5201 245.023 61.6817C245.806 61.8433 246.493 62.3091 246.933 62.9768C247.372 63.6447 247.528 64.4596 247.367 65.2424C247.205 66.0251 246.739 66.7116 246.07 67.151C245.58 67.4754 245.005 67.6481 244.416 67.6475C243.916 67.647 243.423 67.5223 242.983 67.2846C242.542 67.0469 242.168 66.7037 241.893 66.2857V66.2892ZM236.977 58.526C236.56 57.8426 236.433 57.022 236.622 56.2446C236.811 55.4672 237.301 54.7966 237.985 54.3802C238.323 54.1745 238.699 54.0375 239.091 53.977C239.482 53.9165 239.882 53.9336 240.267 54.0275C240.652 54.1214 241.015 54.2901 241.335 54.524C241.654 54.7579 241.925 55.0525 242.13 55.3909C242.337 55.7289 242.475 56.1043 242.536 56.4956C242.597 56.8868 242.58 57.2863 242.486 57.671C242.393 58.0558 242.224 58.4183 241.99 58.7379C241.756 59.0574 241.461 59.3277 241.122 59.5332C240.651 59.8207 240.109 59.9728 239.557 59.973C239.039 59.9722 238.529 59.8384 238.077 59.5844C237.625 59.3304 237.246 58.9648 236.977 58.5225V58.526ZM232.33 50.6067C232.136 50.2619 232.011 49.8821 231.963 49.489C231.915 49.096 231.946 48.6975 232.052 48.3161C232.159 47.9347 232.339 47.5781 232.584 47.2664C232.828 46.9548 233.132 46.6944 233.477 46.5C233.822 46.3049 234.202 46.1796 234.595 46.1315C234.988 46.0833 235.387 46.1131 235.769 46.2191C236.151 46.3252 236.508 46.5054 236.82 46.7496C237.132 46.9937 237.393 47.297 237.587 47.6419C237.782 47.9868 237.906 48.3666 237.954 48.7596C238.002 49.1527 237.972 49.5512 237.865 49.9326C237.759 50.314 237.578 50.6706 237.334 50.9823C237.089 51.2939 236.786 51.5543 236.441 51.7487C235.991 52.0048 235.482 52.1393 234.964 52.1388C234.428 52.1386 233.902 51.9963 233.44 51.7265C232.977 51.4567 232.594 51.0691 232.33 50.6032V50.6067ZM227.244 42.8861C227.061 42.535 226.949 42.1513 226.914 41.757C226.88 41.3626 226.923 40.9652 227.043 40.5877C227.162 40.2102 227.355 39.86 227.61 39.5569C227.865 39.2539 228.177 39.0041 228.529 38.8219C229.239 38.4533 230.066 38.3815 230.829 38.6223C231.591 38.863 232.227 39.3966 232.596 40.1057C232.779 40.457 232.891 40.8409 232.926 41.2354C232.96 41.6299 232.916 42.0273 232.796 42.4049C232.676 42.7824 232.483 43.1326 232.228 43.4355C231.973 43.7384 231.66 43.9879 231.308 44.1699C230.881 44.3987 230.405 44.5204 229.92 44.5246C229.366 44.5231 228.823 44.3692 228.351 44.0795C227.879 43.7898 227.496 43.3756 227.244 42.8825V42.8861ZM220.5 26.0723C220.306 25.7268 220.183 25.3465 220.136 24.9532C220.09 24.56 220.121 24.1615 220.229 23.7804C220.337 23.3994 220.519 23.0433 220.764 22.7325C221.01 22.4217 221.314 22.1623 221.66 21.969C222.006 21.7753 222.386 21.6516 222.78 21.605C223.173 21.5585 223.572 21.59 223.953 21.6977C224.334 21.8054 224.69 21.9873 225.001 22.2329C225.312 22.4785 225.571 22.7829 225.764 23.1287C225.957 23.4736 226.081 23.8532 226.128 24.2459C226.175 24.6386 226.144 25.0367 226.037 25.4174C225.93 25.7981 225.749 26.154 225.504 26.4647C225.259 26.7755 224.955 27.035 224.61 27.2285C224.159 27.4815 223.651 27.6146 223.133 27.615C222.596 27.6148 222.069 27.4714 221.606 27.1996C221.143 26.9277 220.761 26.5374 220.5 26.0688V26.0723ZM215.175 18.9262C214.725 18.2654 214.556 17.453 214.705 16.6675C214.854 15.882 215.309 15.1879 215.971 14.7378C216.632 14.2877 217.445 14.1186 218.231 14.2676C219.017 14.4166 219.712 14.8715 220.162 15.5322C220.612 16.1928 220.782 17.0047 220.633 17.7899C220.485 18.575 220.031 19.2694 219.371 19.7206C218.87 20.062 218.277 20.2448 217.671 20.2455C217.179 20.244 216.695 20.1227 216.261 19.8922C215.827 19.6617 215.455 19.3289 215.179 18.9226L215.175 18.9262ZM209.851 12.117C209.314 11.5261 209.032 10.7465 209.069 9.94881C209.105 9.15116 209.457 8.40047 210.046 7.8612C210.639 7.32544 211.419 7.04564 212.217 7.08285C213.015 7.12006 213.766 7.47128 214.306 8.05982C214.845 8.64982 215.127 9.42938 215.091 10.2273C215.055 11.0252 214.704 11.7763 214.114 12.3156C213.559 12.8247 212.833 13.107 212.08 13.1064C211.663 13.1029 211.251 13.0129 210.87 12.8419C210.49 12.671 210.149 12.4229 209.869 12.1134L209.851 12.117ZM203.664 6.83276C202.977 6.42576 202.479 5.76324 202.279 4.99021C202.08 4.21719 202.195 3.39664 202.599 2.70822C203.007 2.02118 203.671 1.52351 204.445 1.32413C205.22 1.12475 206.042 1.23988 206.731 1.64428C207.419 2.05061 207.918 2.71313 208.117 3.48643C208.317 4.25973 208.201 5.08062 207.796 5.76882C207.53 6.22267 207.149 6.59893 206.692 6.86025C206.235 7.12156 205.717 7.2588 205.191 7.25831C204.659 7.25099 204.138 7.10294 203.682 6.82921L203.664 6.83276Z" fill="#CA9E67"/>
<path d="M212.894 26.2775C212.558 26.7703 212.084 27.1525 211.531 27.3757C210.977 27.599 210.37 27.6533 209.786 27.5318C209.202 27.4102 208.667 27.1184 208.248 26.6931C207.83 26.2677 207.548 25.728 207.437 25.1423C207.325 24.5565 207.39 23.9509 207.624 23.4022C207.857 22.8534 208.248 22.386 208.747 22.0592C209.246 21.7324 209.831 21.5608 210.428 21.5661C211.024 21.5715 211.606 21.7535 212.099 22.0891C212.761 22.5392 213.216 23.2333 213.365 24.0188C213.514 24.8043 213.345 25.6167 212.894 26.2775ZM219.255 27.0081C218.732 26.7217 218.135 26.5967 217.541 26.649C216.946 26.7013 216.381 26.9285 215.916 27.302C215.451 27.6754 215.107 28.1782 214.928 28.7469C214.749 29.3156 214.742 29.9246 214.909 30.4969C215.077 31.0691 215.41 31.579 215.867 31.962C216.325 32.345 216.885 32.584 217.478 32.6486C218.072 32.7132 218.671 32.6006 219.2 32.3251C219.729 32.0496 220.165 31.6235 220.451 31.1007C220.833 30.3994 220.921 29.5758 220.697 28.8097C220.473 28.0436 219.955 27.3971 219.255 27.0116V27.0081ZM227.54 30.6184C226.814 30.2944 225.99 30.2697 225.246 30.5497C224.502 30.8296 223.898 31.3916 223.567 32.1134C223.235 32.8353 223.202 33.6587 223.475 34.4047C223.748 35.1508 224.304 35.7591 225.023 36.0976C225.418 36.2768 225.846 36.3699 226.28 36.3707C226.967 36.3702 227.634 36.1349 228.17 35.7039C228.705 35.2729 229.077 34.672 229.225 34.0008C229.372 33.3295 229.285 32.6283 228.978 32.0132C228.672 31.398 228.164 30.9059 227.54 30.6184ZM236.563 33.867C236.03 33.5979 235.43 33.4926 234.837 33.5645C234.245 33.6364 233.687 33.8822 233.235 34.2708C232.782 34.6594 232.455 35.1734 232.295 35.7478C232.135 36.3221 232.148 36.931 232.335 37.4975C232.521 38.064 232.871 38.5626 233.341 38.9302C233.81 39.2979 234.379 39.5181 234.974 39.563C235.569 39.6079 236.164 39.4755 236.684 39.1825C237.203 38.8895 237.624 38.4491 237.894 37.917C238.252 37.2043 238.314 36.3786 238.064 35.6207C237.815 34.8629 237.275 34.2348 236.563 33.8741V33.867ZM201.067 16.9077C200.66 17.3436 200.391 17.8904 200.294 18.4791C200.198 19.0678 200.278 19.6718 200.526 20.2147C200.773 20.7576 201.176 21.215 201.684 21.529C202.191 21.843 202.781 21.9995 203.377 21.9786C203.974 21.9577 204.551 21.7604 205.035 21.4118C205.52 21.0631 205.89 20.5787 206.098 20.0198C206.307 19.4609 206.345 18.8528 206.208 18.2723C206.071 17.6918 205.764 17.1651 205.327 16.7588C204.74 16.2168 203.963 15.929 203.165 15.9582C202.367 15.9875 201.612 16.3314 201.067 16.9148V16.9077ZM195.189 6.0201C195.355 6.12752 195.529 6.22011 195.711 6.29674C195.893 6.37222 196.082 6.4304 196.276 6.47051C196.47 6.5087 196.667 6.52772 196.865 6.52727C197.063 6.52807 197.26 6.50905 197.454 6.47051C197.841 6.39027 198.21 6.23744 198.54 6.0201C198.706 5.91146 198.859 5.78541 198.998 5.64416C199.139 5.50403 199.266 5.35088 199.378 5.18669C199.485 5.02176 199.576 4.84724 199.651 4.66537C199.728 4.48385 199.787 4.29487 199.825 4.10145C199.901 3.71262 199.901 3.31287 199.825 2.92404C199.787 2.73063 199.728 2.54169 199.651 2.36017C199.576 2.1783 199.485 2.00374 199.378 1.83881C199.266 1.67462 199.139 1.52146 198.998 1.38134C198.859 1.24008 198.706 1.11404 198.54 1.00539C198.211 0.787191 197.842 0.635393 197.454 0.558537C197.065 0.480488 196.664 0.480488 196.276 0.558537C196.082 0.597437 195.894 0.654426 195.711 0.72876C195.344 0.878628 195.011 1.10055 194.731 1.38134C194.592 1.52154 194.466 1.6747 194.355 1.83881C194.141 2.17004 193.989 2.53794 193.908 2.92404C193.828 3.3124 193.828 3.71309 193.908 4.10145C193.948 4.29445 194.006 4.48328 194.082 4.66537C194.156 4.84876 194.25 5.02355 194.362 5.18669C194.465 5.35088 194.584 5.50415 194.717 5.64416C194.863 5.78604 195.021 5.91428 195.189 6.0272V6.0201ZM288.943 82.7266C289.209 83.1814 289.591 83.5585 290.048 83.8205C290.506 84.0824 291.024 84.22 291.552 84.2197C292.015 84.2189 292.472 84.1116 292.887 83.9061C293.302 83.7006 293.664 83.4023 293.945 83.0345C294.226 82.6666 294.419 82.239 294.508 81.7848C294.597 81.3307 294.58 80.8621 294.459 80.4154C294.337 79.9688 294.115 79.556 293.808 79.2092C293.501 78.8624 293.119 78.5907 292.69 78.4154C292.261 78.24 291.798 78.1657 291.336 78.1981C290.874 78.2304 290.426 78.3687 290.026 78.6021C289.682 78.8018 289.382 79.0673 289.142 79.3832C288.902 79.6992 288.726 80.0594 288.626 80.4433C288.525 80.8271 288.501 81.227 288.556 81.6201C288.61 82.0131 288.742 82.3915 288.943 82.7337V82.7266ZM200.13 10.5099C199.835 9.9905 199.393 9.57023 198.858 9.30231C198.324 9.0344 197.722 8.93085 197.129 9.00486C196.536 9.07886 195.978 9.32705 195.526 9.718C195.074 10.109 194.748 10.6251 194.59 11.2011C194.432 11.7771 194.449 12.387 194.638 12.9536C194.826 13.5203 195.179 14.0182 195.652 14.3843C196.124 14.7503 196.695 14.9682 197.291 15.0102C197.887 15.0522 198.482 14.9165 199.002 14.6203C199.346 14.4247 199.649 14.1632 199.892 13.8507C200.135 13.5382 200.314 13.1808 200.419 12.799C200.524 12.4172 200.552 12.0185 200.503 11.6257C200.453 11.233 200.327 10.8538 200.13 10.5099ZM259.762 48.4146C259.093 47.985 258.282 47.8365 257.504 48.0016C256.726 48.1666 256.045 48.6317 255.609 49.2958C255.172 49.9599 255.016 50.7693 255.174 51.5479C255.331 52.3266 255.79 53.0116 256.451 53.4541C256.94 53.7787 257.514 53.9515 258.101 53.9506C258.751 53.9523 259.385 53.744 259.907 53.3568C260.429 52.9695 260.812 52.4241 260.999 51.8018C261.186 51.1794 261.166 50.5134 260.943 49.9031C260.72 49.2927 260.306 48.7706 259.762 48.4146ZM288.421 71.9311C288.026 71.4842 287.508 71.1643 286.931 71.0118C286.354 70.8594 285.745 70.8812 285.18 71.0746C284.616 71.268 284.122 71.6243 283.76 72.0984C283.398 72.5725 283.185 73.1431 283.148 73.7381C283.111 74.3331 283.251 74.9257 283.551 75.4411C283.851 75.9565 284.297 76.3715 284.833 76.6336C285.369 76.8957 285.97 76.9931 286.562 76.9136C287.153 76.8341 287.707 76.5812 288.155 76.1869C288.753 75.6559 289.116 74.9097 289.163 74.1118C289.211 73.314 288.941 72.5297 288.41 71.9311H288.421ZM277.549 65.4234C277.281 65.7144 277.073 66.0554 276.936 66.4268C276.8 66.7982 276.739 67.1928 276.755 67.588C276.772 67.9832 276.866 68.3713 277.033 68.7301C277.199 69.089 277.435 69.4114 277.726 69.6791C278.165 70.0833 278.714 70.3484 279.304 70.4407C279.894 70.5329 280.498 70.4484 281.04 70.1976C281.581 69.9469 282.036 69.5412 282.347 69.032C282.658 68.5228 282.81 67.9329 282.786 67.337C282.761 66.7411 282.56 66.1659 282.207 65.6843C281.855 65.2027 281.368 64.8362 280.807 64.6314C280.247 64.4265 279.638 64.3924 279.058 64.5334C278.478 64.6744 277.953 64.9841 277.549 65.4234ZM294.079 96.7032C294.004 96.5213 293.913 96.3468 293.806 96.1819C293.694 96.0177 293.567 95.8645 293.426 95.7244C293.287 95.5831 293.134 95.4571 292.968 95.3485C292.804 95.2417 292.63 95.1492 292.45 95.0718C292.267 94.998 292.078 94.941 291.885 94.9016C291.495 94.8236 291.094 94.8236 290.703 94.9016C290.511 94.941 290.322 94.998 290.139 95.0718C289.959 95.1492 289.785 95.2417 289.621 95.3485C289.456 95.4598 289.302 95.5856 289.159 95.7244C289.026 95.8644 288.907 96.0177 288.804 96.1819C288.692 96.345 288.598 96.5198 288.524 96.7032C288.449 96.8853 288.39 97.0741 288.35 97.2671C288.26 97.7059 288.268 98.1593 288.375 98.5944C288.482 99.0295 288.684 99.4354 288.967 99.7827C289.25 100.13 289.608 100.41 290.013 100.602C290.418 100.794 290.86 100.894 291.309 100.894C291.757 100.894 292.2 100.794 292.605 100.602C293.01 100.41 293.367 100.13 293.65 99.7827C293.933 99.4354 294.136 99.0295 294.243 98.5944C294.349 98.1593 294.358 97.7059 294.267 97.2671C294.224 97.0718 294.157 96.8825 294.068 96.7032H294.079ZM297.501 89.5358C297.466 88.9484 297.26 88.384 296.908 87.9121C296.556 87.4402 296.074 87.0816 295.521 86.8804C294.967 86.6792 294.367 86.6441 293.794 86.7797C293.221 86.9153 292.7 87.2155 292.295 87.6433C291.891 88.0711 291.621 88.6078 291.518 89.1872C291.415 89.7666 291.485 90.3634 291.717 90.904C291.95 91.4446 292.336 91.9053 292.827 92.2293C293.319 92.5534 293.895 92.7266 294.484 92.7276H294.654C295.454 92.6801 296.202 92.3172 296.734 91.7186C297.266 91.12 297.538 90.3348 297.49 89.5358H297.501ZM274.741 59.2064C274.112 58.7548 273.334 58.5618 272.567 58.6673C271.799 58.7728 271.102 59.1687 270.618 59.7733C270.135 60.3779 269.902 61.1449 269.969 61.9159C270.035 62.6869 270.396 63.403 270.975 63.9161C271.6 64.4156 272.398 64.6465 273.194 64.558C273.989 64.4696 274.717 64.069 275.217 63.4445C275.717 62.8199 275.948 62.0225 275.859 61.2278C275.771 60.433 275.37 59.7059 274.745 59.2064H274.741ZM243.999 38.8994C243.652 38.6977 243.268 38.5672 242.87 38.5155C242.472 38.4638 242.068 38.492 241.681 38.5984C241.294 38.7047 240.932 38.8872 240.617 39.135C240.301 39.3828 240.038 39.691 239.844 40.0416C239.649 40.3922 239.526 40.7781 239.482 41.1767C239.439 41.5753 239.475 41.9787 239.589 42.3631C239.703 42.7475 239.893 43.1052 240.148 43.4154C240.402 43.7256 240.716 43.9819 241.071 44.1694C241.516 44.4185 242.019 44.5492 242.529 44.5489C243.198 44.5498 243.848 44.3287 244.378 43.9203C244.907 43.5119 245.285 42.9394 245.454 42.2927C245.622 41.646 245.57 40.9617 245.307 40.3475C245.044 39.7333 244.583 39.2239 243.999 38.8994ZM251.964 43.5098C251.453 43.2014 250.862 43.0514 250.266 43.0785C249.67 43.1057 249.096 43.3088 248.615 43.6623C248.134 44.0158 247.77 44.5038 247.567 45.0644C247.364 45.6251 247.332 46.2333 247.475 46.8122C247.618 47.391 247.929 47.9145 248.37 48.3165C248.811 48.7184 249.361 48.9807 249.951 49.0702C250.541 49.1597 251.144 49.0724 251.684 48.8194C252.225 48.5663 252.678 48.1589 252.986 47.6485C253.191 47.3093 253.326 46.9331 253.385 46.5415C253.444 46.1498 253.425 45.7504 253.33 45.366C253.234 44.9817 253.064 44.6199 252.828 44.3014C252.593 43.9829 252.297 43.7139 251.957 43.5098H251.964ZM267.362 53.6278C266.877 53.2801 266.3 53.0838 265.704 53.0635C265.108 53.0433 264.519 53.2002 264.012 53.5142C263.505 53.8283 263.103 54.2855 262.856 54.8281C262.608 55.3707 262.528 55.9742 262.624 56.5625C262.72 57.1508 262.989 57.6973 263.396 58.1331C263.803 58.5689 264.33 58.8743 264.911 59.0107C265.492 59.1472 266.1 59.1086 266.659 58.8997C267.218 58.6909 267.702 58.3213 268.05 57.8375C268.282 57.5156 268.447 57.1512 268.537 56.7653C268.628 56.3794 268.641 55.9795 268.576 55.5885C268.512 55.1975 268.37 54.8231 268.161 54.4867C267.951 54.1502 267.677 53.8584 267.355 53.6278H267.362Z" fill="#936037"/>
</svg>
