<svg xmlns="http://www.w3.org/2000/svg" width="194.63" height="202.37" viewBox="0 0 194.63 202.37">
  <g id="Oracle" transform="translate(-11.18 -7.31)">
    <path id="Контур_3996" data-name="Контур 3996" d="M147,50.06a46,46,0,0,0-73-9.78C54.07,41.94,38.45,59,37.72,79.71H22.16V92.33a81.86,81.86,0,0,0,24.69,58.81l7.65,58.54H154.94l7.65-58.54a81.86,81.86,0,0,0,24.69-58.81V79.71H171.64A32.28,32.28,0,0,0,147,50.06Zm26.88,43.05a68.69,68.69,0,0,1-7.77,31l4.06-31ZM154.12,112.5l-4.19,32.11a69,69,0,0,1-90.42,0L55.32,112.5Zm-10.94,83.78H66.26l-4.36-33.4a82.28,82.28,0,0,0,85.64,0ZM156.66,93.11l-.79,6H53.57l-.79-6ZM74.14,74V72.5a32.668,32.668,0,1,1,65.335,0L139.47,74h13.4V72.5a45.162,45.162,0,0,0-.24-4.63,18.64,18.64,0,0,1,5.59,11.8H51.13a28.11,28.11,0,0,1,12-21.82,45.67,45.67,0,0,0-2.4,14.65V74ZM43.33,124.1a68.62,68.62,0,0,1-7.77-31h3.71Z" fill="#006247"/>
    <path id="Контур_3997" data-name="Контур 3997" d="M46.52,33.18A17.67,17.67,0,1,0,28.86,50.85,17.67,17.67,0,0,0,46.52,33.18ZM28.86,28.91a4.27,4.27,0,1,1-4.27,4.27A4.27,4.27,0,0,1,28.86,28.91Z" fill="#006247"/>
    <path id="Контур_3998" data-name="Контур 3998" d="M137.18,26.65A9.67,9.67,0,1,0,127.52,17a9.67,9.67,0,0,0,9.66,9.65Zm0-8.93a.74.74,0,1,1,.73-.73A.73.73,0,0,1,137.18,17.72Z" fill="#006247"/>
    <path id="Контур_3999" data-name="Контур 3999" d="M188.14,35.19a17.67,17.67,0,1,0,17.67,17.67,17.67,17.67,0,0,0-17.67-17.67Zm0,21.94a4.27,4.27,0,1,1,3.026-1.247,4.27,4.27,0,0,1-3.026,1.247Z" fill="#006247"/>
  </g>
</svg>
