<svg xmlns="http://www.w3.org/2000/svg" xmlns:xlink="http://www.w3.org/1999/xlink" width="138.83" height="201.883" viewBox="0 0 138.83 201.883">
  <defs>
    <clipPath id="clip-path">
      <rect y="10" width="138.83" height="201.883" fill="none"/>
    </clipPath>
  </defs>
  <g id="Группа_прокрутки_1" data-name="Группа прокрутки 1" transform="translate(0 -10)" clip-path="url(#clip-path)" style="isolation: isolate">
    <g id="Oracle" transform="translate(-39.08 -9.38)">
      <path id="Контур_4000" data-name="Контур 4000" d="M115.93,161.83V119.44a30.52,30.52,0,0,0,17.19-13.24,34,34,0,0,0,5-22.73v-.12a4.543,4.543,0,0,0-.09-1.1,184.141,184.141,0,0,1-.63-37.84l2.38-24.27L119.89,36.28C115,31.06,107.16,24.55,96.46,16.93L85.87,9.38V28.6L75.48,20.15l2.38,24.26a184.9,184.9,0,0,1-.62,37.85A37.29,37.29,0,0,0,85.49,110a29.65,29.65,0,0,0,17,10.08v22.08a79.311,79.311,0,0,0-12-10.76L39.08,94l20.26,60.28c5.31,15.81,16.35,30.7,29.53,39.84,6.83,4.74,13,7.14,18.45,7.14a14.14,14.14,0,0,0,8.61-2.69c6.47-4.74,7.83-14.39,3.84-27.15A72,72,0,0,0,115.93,161.83ZM82.7,142.22c11.08,8,20.38,20.77,24.28,33.23,2.63,8.4,1.47,11.91,1,12.37-.58.29-4.27.35-11.5-4.66C85.77,175.71,76.39,163,72,150.06l-6.92-20.59Zm9-91.57L116.81,71c8.55,7,10.7,19,5,28-3.13,4.93-7.7,7.8-12.87,8.1a17,17,0,0,1-2,0,15.8,15.8,0,0,1-11.24-5.8,23.72,23.72,0,0,1-5.14-17.61,210.9,210.9,0,0,0,1.19-33.04Zm26.47,4.26,5.24-4.26q-.19,4.07-.2,8.36Zm-19-15.41V35.82a135.209,135.209,0,0,1,10.22,8.92l-1.88,1.54Z" fill="#006247"/>
      <path id="Контур_4001" data-name="Контур 4001" d="M139.23,118.64a53.89,53.89,0,0,0-19.3,26.5c-3.85,12.31.43,17.71,3.32,19.84a11.47,11.47,0,0,0,6.91,2.16h0c3.91,0,8.29-1.65,13-4.93a53.93,53.93,0,0,0,19.53-26.32l15.22-45.31ZM151.88,126,150,131.62a40.68,40.68,0,0,1-14.47,19.59,19.319,19.319,0,0,1-3.71,2.09,20.07,20.07,0,0,1,.9-4.16,40.63,40.63,0,0,1,14.37-19.66Z" fill="#006247"/>
    </g>
  </g>
</svg>
