<svg width="90" height="90" viewBox="0 0 90 90" fill="none" xmlns="http://www.w3.org/2000/svg">
<path fill-rule="evenodd" clip-rule="evenodd" d="M43.1799 48.6599H45.1799V44.6599H43.1799V9.65991H15.6699V79.6599H43.1799V48.6599ZM17.6699 11.6599H41.1799V13.6599H17.6699V11.6599ZM17.6699 15.6599H41.1799V17.6599H17.6699V15.6599ZM17.6699 19.6599H41.1799V21.6599H17.6699V19.6599ZM17.6699 23.6599H41.1799V25.6599H17.6699V23.6599ZM17.6699 27.6599H41.1799V29.6599H17.6699V27.6599ZM17.6699 31.6599H41.1799V33.6599H17.6699V31.6599ZM17.6699 35.6599H41.1799V37.6599H17.6699V35.6599ZM17.6699 39.6599H41.1799V41.6599H17.6699V39.6599ZM17.6699 43.6599H41.1799V44.6599H36.5699V45.6599H17.6699V43.6599ZM41.1799 77.6599H17.6699V75.6599H41.1799V77.6599ZM41.1799 73.6599H17.6699V71.6599H41.1799V73.6599ZM41.1799 69.6599H17.6699V67.6599H41.1799V69.6599ZM41.1799 65.6599H17.6699V63.6599H41.1799V65.6599ZM41.1799 61.6599H17.6699V59.6599H41.1799V61.6599ZM41.1799 57.6599H17.6699V55.6599H41.1799V57.6599ZM41.1799 53.6599H17.6699V51.6599H41.1799V53.6599ZM17.6699 49.6599V47.6599H36.5699V48.6599H41.1899V49.6599H17.6699Z" fill="#666666"/>
<path fill-rule="evenodd" clip-rule="evenodd" d="M48.4199 9.65991H75.9299V79.6599H48.4199V9.65991ZM50.4199 77.6599H73.9299V75.6599H50.4199V77.6599ZM50.4199 73.6599H73.9299V71.6599H50.4199V73.6599ZM50.4199 69.6599H73.9299V67.6599H50.4199V69.6599ZM50.4199 65.6599H73.9299V63.6599H50.4199V65.6599ZM50.4199 61.6599H73.9299V59.6599H50.4199V61.6599ZM50.4199 57.6599H73.9299V55.6599H50.4199V57.6599ZM50.4199 53.6599H73.9299V51.6599H50.4199V53.6599ZM50.4199 49.6599H73.9299V47.6599H50.4199V49.6599ZM50.4199 45.6599H73.9299V43.6599H50.4199V45.6599ZM50.4199 41.6599H73.9299V39.6599H50.4199V41.6599ZM50.4199 37.6599H73.9299V35.6599H50.4199V37.6599ZM50.4199 33.6599H73.9299V31.6599H50.4199V33.6599ZM50.4199 29.6599H73.9299V27.6599H50.4199V29.6599ZM50.4199 25.6599H73.9299V23.6599H50.4199V25.6599ZM50.4199 21.6599H73.9299V19.6599H50.4199V21.6599ZM50.4199 17.6599H73.9299V15.6599H50.4199V17.6599ZM50.4199 13.6599H73.9299V11.6599H50.4199V13.6599Z" fill="#666666"/>
<path fill-rule="evenodd" clip-rule="evenodd" d="M10 4V85.37H80V4H10ZM78 83.37H12V6H78V83.37Z" fill="#666666"/>
</svg>
