<svg width="94" height="90" viewBox="0 0 94 90" fill="none" xmlns="http://www.w3.org/2000/svg">
<path fill-rule="evenodd" clip-rule="evenodd" d="M67.0902 48.1299H68.9302V79.6699H88.0902V9.66992H68.9402V41.5899H67.0902V9.66992H47.9402V79.6699H67.0902V48.1299ZM86.0902 11.6699V77.6699H70.9402V48.1299H77.5802V41.5899H70.9402V11.6699H86.0902ZM69.0902 46.1599V43.5599H75.5702V46.1599H69.0902ZM67.0902 46.1599H60.6302V43.5599H67.1002L67.0902 46.1599ZM49.9402 77.6699V11.6699H65.0902V41.5899H58.6302V48.1299H65.1002V77.6699H49.9402Z" fill="#666666"/>
<path fill-rule="evenodd" clip-rule="evenodd" d="M26.76 48.1299H24.94V79.6699H5.76001V9.66992H24.94V41.5899H26.76V9.66992H45.94V79.6699H26.76V48.1299ZM43.94 77.6699V11.6699H28.76V41.5899H35.4V48.1299H28.76V77.6699H43.94ZM26.94 43.5599V46.1599H33.41V43.5599H26.94ZM18.45 46.1599H24.94L24.93 43.5599H18.45V46.1599ZM7.76001 11.6699V77.6699H22.93V48.1299H16.45V41.5899H22.94V11.6699H7.76001Z" fill="#666666"/>
<path fill-rule="evenodd" clip-rule="evenodd" d="M0 4V85.38H93.77V4H0ZM91.77 83.38H2V6H91.77V83.38Z" fill="#666666"/>
</svg>
