<svg width="18" height="18" viewBox="0 0 18 18" fill="none" xmlns="http://www.w3.org/2000/svg">
<path d="M1 0C0.447715 0 0 0.447715 0 1V5C0 5.55228 0.447715 6 1 6C1.55228 6 2 5.55228 2 5L2 2H5C5.55228 2 6 1.55228 6 1C6 0.447715 5.55228 0 5 0H1Z" fill="white"/>
<path d="M17 0C17.5523 0 18 0.447715 18 1V5C18 5.55228 17.5523 6 17 6C16.4477 6 16 5.55228 16 5V2H13C12.4477 2 12 1.55228 12 1C12 0.447715 12.4477 0 13 0H17Z" fill="white"/>
<path d="M1 18C0.447715 18 0 17.5523 0 17V13C0 12.4477 0.447715 12 1 12C1.55228 12 2 12.4477 2 13L2 16H5C5.55228 16 6 16.4477 6 17C6 17.5523 5.55228 18 5 18H1Z" fill="white"/>
<path d="M17 18C17.5523 18 18 17.5523 18 17V13C18 12.4477 17.5523 12 17 12C16.4477 12 16 12.4477 16 13V16H13C12.4477 16 12 16.4477 12 17C12 17.5523 12.4477 18 13 18H17Z" fill="white"/>
</svg>
