<svg id="Сгруппировать_5737" data-name="Сгруппировать 5737" xmlns="http://www.w3.org/2000/svg" width="357.121" height="52.321" viewBox="0 0 357.121 52.321">
  <g id="Сгруппировать_21" data-name="Сгруппировать 21" transform="translate(0 0)">
    <path id="Контур_48" data-name="Контур 48" d="M196.039,117.607,203.194,130,181.73,117.607h14.309m2.142-3.71H167.943l45.388,26.24-15.15-26.24Z" transform="translate(-152.856 -113.896)" fill="#bcaf99"/>
    <path id="Контур_49" data-name="Контур 49" d="M203.622,232.209,196.5,244.551H182.245l21.377-12.342m10.1-10.1h0Zm0,0-45.264,26.133H198.63l15.088-26.133Z" transform="translate(-153.243 -195.925)" fill="#bcaf99"/>
    <path id="Контур_50" data-name="Контур 50" d="M116.941,127.7l.116,24.709-7.191-12.321,7.075-12.388m-11.346,12.408L120.7,166.2l-.02-52.3Z" transform="translate(-105.595 -113.891)" fill="#bcaf99"/>
  </g>
  <path id="Контур_51" data-name="Контур 51" d="M401.514,166.362a8.558,8.558,0,0,0,0,17.115,10.727,10.727,0,0,0,7.227-3.256l3.693,4.011A16.276,16.276,0,0,1,401.2,189.2c-8.3,0-14.574-6.155-14.574-14.216,0-8.022,6.393-14.058,14.812-14.058a15.82,15.82,0,0,1,10.96,4.606l-3.654,4.448A10.063,10.063,0,0,0,401.514,166.362Z" transform="translate(-318.618 -149.541)"/>
  <path id="Контур_52" data-name="Контур 52" d="M522.511,189.54,518.1,181.6H511.71v7.942h-6.274v-27.8h12.072c7.267,0,11.4,3.494,11.4,9.65,0,4.289-1.827,7.387-5.2,8.975l5.917,9.173Zm-10.8-13.184h5.8c3.455,0,5.44-1.588,5.44-4.765,0-3.1-1.985-4.646-5.44-4.646h-5.8Z" transform="translate(-408.681 -150.163)"/>
  <path id="Контур_53" data-name="Контур 53" d="M632.646,184.139H619.78l-2.184,5.4h-6.473l12.072-27.8h6.473l11.873,27.8H634.83Zm-2.025-5.043-4.368-10.8-4.408,10.8Z" transform="translate(-488.794 -150.163)"/>
  <path id="Контур_54" data-name="Контур 54" d="M765.244,161.742v4.209L749.717,184.3h15.765l-.04,5.242H741.259v-4.249l15.567-18.307h-15.05v-5.242Z" transform="translate(-587.439 -150.163)"/>
  <path id="Контур_55" data-name="Контур 55" d="M862.521,180.565v8.975h-6.274v-8.815l-10.285-18.982h6.314l7.108,12.469,6.95-12.469h6.314Z" transform="translate(-666.806 -150.163)"/>
  <path id="Контур_56" data-name="Контур 56" d="M995.829,174.9h5.44v10.682a20.57,20.57,0,0,1-11.278,3.614c-8.419,0-14.812-6.115-14.812-14.176,0-8.022,6.513-14.1,15.17-14.1a17.518,17.518,0,0,1,11.159,4.051l-3.534,4.487a11.633,11.633,0,0,0-7.624-3.1,8.677,8.677,0,1,0,.04,17.354,12.658,12.658,0,0,0,5.44-1.509Z" transform="translate(-764.755 -149.541)"/>
  <path id="Контур_57" data-name="Контур 57" d="M1124.022,175.019c0,8.022-6.433,14.176-14.931,14.176s-14.931-6.115-14.931-14.176c0-8.1,6.433-14.1,14.931-14.1S1124.022,166.957,1124.022,175.019Zm-23.429,0a8.644,8.644,0,0,0,8.578,8.7,8.657,8.657,0,1,0-8.578-8.7Z" transform="translate(-854.944 -149.541)"/>
  <path id="Контур_58" data-name="Контур 58" d="M1236.633,184.139h-12.866l-2.184,5.4h-6.473l12.072-27.8h6.473l11.873,27.8h-6.711Zm-2.025-5.043-4.368-10.8-4.408,10.8Z" transform="translate(-946.626 -150.163)"/>
  <path id="Контур_59" data-name="Контур 59" d="M1349.442,161.742v5.321h-8.5V189.54h-6.274V167.063h-8.458v-5.321Z" transform="translate(-1030.843 -150.163)"/>
  <path id="Контур_60" data-name="Контур 60" d="M1445.667,166.173a4.337,4.337,0,0,0,0,8.648,6.076,6.076,0,0,0,4-1.941l2.875,3.066a10.151,10.151,0,0,1-7.115,3.234,8.52,8.52,0,0,1-8.864-8.648c0-4.887,3.833-8.5,9.031-8.5a9.872,9.872,0,0,1,6.947,2.971l-2.875,3.4A5.469,5.469,0,0,0,1445.667,166.173Z" transform="translate(-1114.492 -150.38)"/>
  <path id="Контур_61" data-name="Контур 61" d="M1524.074,170.556c0,4.935-3.881,8.624-9.151,8.624s-9.151-3.666-9.151-8.624c0-4.935,3.881-8.528,9.151-8.528S1524.074,165.646,1524.074,170.556Zm-13.2.024a4.272,4.272,0,0,0,4.12,4.432,4.161,4.161,0,0,0,3.976-4.432,4.117,4.117,0,0,0-3.976-4.384A4.214,4.214,0,0,0,1510.875,170.58Z" transform="translate(-1166.953 -150.38)"/>
</svg>
