<svg xmlns="http://www.w3.org/2000/svg" xmlns:xlink="http://www.w3.org/1999/xlink" width="270.364" height="52.974" viewBox="0 0 270.364 52.974">
  <defs>
    <clipPath id="clip-path">
      <path id="Контур_3838" data-name="Контур 3838" d="M12.012-41.806,57.966-15.239,42.628-41.806ZM25.971-38.05H40.459L47.7-25.5Z" transform="translate(-12.012 41.806)" fill="none" clip-rule="evenodd"/>
    </clipPath>
    <clipPath id="clip-path-2">
      <path id="Контур_3837" data-name="Контур 3837" d="M-151,2521.154H1680.237V-82H-151Z" transform="translate(151 82)" fill="none"/>
    </clipPath>
    <clipPath id="clip-path-3">
      <path id="Контур_3841" data-name="Контур 3841" d="M12.11,5.5H42.663L57.94-20.957ZM47.718-10.736,40.5,1.761H26.074Z" transform="translate(-12.11 20.957)" fill="none" clip-rule="evenodd"/>
    </clipPath>
    <clipPath id="clip-path-5">
      <path id="Контур_3844" data-name="Контур 3844" d="M15.275-41.807,0-15.264,15.3,11.15ZM4.325-15.285l7.163-12.543L11.605-2.81Z" transform="translate(0 41.807)" fill="none" clip-rule="evenodd"/>
    </clipPath>
    <clipPath id="clip-path-7">
      <path id="Контур_3847" data-name="Контур 3847" d="M74.3-17.8c0-5.147-3.591-8.7-8.379-8.7H60.49V-9.18H66.2c4.668,0,8.1-3.511,8.1-8.618m6.424-.04c0,8.219-6.1,13.965-14.923,13.965H54.187V-31.8h11.85c8.658,0,14.683,5.705,14.683,13.965" transform="translate(-54.187 31.803)" fill="none" clip-rule="evenodd"/>
    </clipPath>
    <clipPath id="clip-path-9">
      <path id="Контур_3850" data-name="Контур 3850" d="M91.143-26.493a8.4,8.4,0,0,0-8.5,8.578,8.433,8.433,0,0,0,8.5,8.618A10.777,10.777,0,0,0,98.4-12.568l3.711,4.029A16.348,16.348,0,0,1,90.824-3.551c-8.339,0-14.643-6.185-14.643-14.284,0-8.06,6.424-14.125,14.882-14.125a15.9,15.9,0,0,1,11.012,4.628L98.4-22.863a10.11,10.11,0,0,0-7.262-3.631" transform="translate(-76.181 31.96)" fill="none" clip-rule="evenodd"/>
    </clipPath>
    <clipPath id="clip-path-11">
      <path id="Контур_3853" data-name="Контур 3853" d="M122.771-17.8c0-5.147-3.59-8.7-8.379-8.7h-5.426V-9.18h5.705c4.668,0,8.1-3.511,8.1-8.618m6.424-.04c0,8.219-6.1,13.965-14.923,13.965H102.662V-31.8h11.85c8.658,0,14.683,5.705,14.683,13.965" transform="translate(-102.662 31.803)" fill="none" clip-rule="evenodd"/>
    </clipPath>
    <clipPath id="clip-path-13">
      <path id="Контур_3855" data-name="Контур 3855" d="M125.535-3.873h6.3V-31.8h-6.3Z" transform="translate(-125.535 31.803)" fill="none"/>
    </clipPath>
    <clipPath id="clip-path-14">
      <path id="Контур_3858" data-name="Контур 3858" d="M139.149-17.12h5.826c3.471,0,5.466-1.6,5.466-4.788,0-3.112-2-4.669-5.466-4.669h-5.826ZM150-3.873l-4.428-7.98h-6.424v7.98h-6.3V-31.8h12.129c7.3,0,11.451,3.511,11.451,9.7,0,4.309-1.835,7.421-5.227,9.017l5.945,9.217Z" transform="translate(-132.845 31.803)" fill="none" clip-rule="evenodd"/>
    </clipPath>
    <clipPath id="clip-path-16">
      <path id="Контур_3861" data-name="Контур 3861" d="M175.572-31.8v5.227H160.61v6.065H174.1v5.227H160.61V-9.1h15.4v5.227H154.306V-31.8Z" transform="translate(-154.306 31.803)" fill="none" clip-rule="evenodd"/>
    </clipPath>
    <clipPath id="clip-path-18">
      <path id="Контур_3864" data-name="Контур 3864" d="M187.4-26.493a8.4,8.4,0,0,0-8.5,8.578A8.432,8.432,0,0,0,187.4-9.3a10.777,10.777,0,0,0,7.262-3.271l3.711,4.029a16.35,16.35,0,0,1-11.292,4.988c-8.339,0-14.643-6.185-14.643-14.284,0-8.06,6.424-14.125,14.882-14.125a15.9,15.9,0,0,1,11.012,4.628l-3.671,4.469a10.112,10.112,0,0,0-7.262-3.631" transform="translate(-172.441 31.96)" fill="none" clip-rule="evenodd"/>
    </clipPath>
    <clipPath id="clip-path-20">
      <path id="Контур_3867" data-name="Контур 3867" d="M217.588-31.8v5.346h-8.539V-3.873h-6.3V-26.456h-8.5V-31.8Z" transform="translate(-194.247 31.803)" fill="none" clip-rule="evenodd"/>
    </clipPath>
  </defs>
  <g id="Сгруппировать_5683" data-name="Сгруппировать 5683" transform="translate(0 41.807)">
    <g id="Сгруппировать_5663" data-name="Сгруппировать 5663" transform="translate(15.275 -41.806)" clip-path="url(#clip-path)">
      <g id="Сгруппировать_5662" data-name="Сгруппировать 5662" transform="translate(-207.301 -51.114)" clip-path="url(#clip-path-2)">
        <path id="Контур_3836" data-name="Контур 3836" d="M7.012-46.806H65.683V-7.522H7.012Z" transform="translate(193.931 91.562)" fill="#fff"/>
      </g>
    </g>
    <g id="Сгруппировать_5665" data-name="Сгруппировать 5665" transform="translate(15.401 -15.292)" clip-path="url(#clip-path-3)">
      <g id="Сгруппировать_5664" data-name="Сгруппировать 5664" transform="translate(-207.426 -77.628)" clip-path="url(#clip-path-2)">
        <path id="Контур_3839" data-name="Контур 3839" d="M7.11-25.957H65.657V13.219H7.11Z" transform="translate(193.957 97.226)" fill="#fff"/>
      </g>
    </g>
    <g id="Сгруппировать_5667" data-name="Сгруппировать 5667" transform="translate(0 -41.807)" clip-path="url(#clip-path-5)">
      <g id="Сгруппировать_5666" data-name="Сгруппировать 5666" transform="translate(-192.025 -51.113)" clip-path="url(#clip-path-2)">
        <path id="Контур_3842" data-name="Контур 3842" d="M-5-46.807H23.013V18.867H-5Z" transform="translate(190.667 91.562)" fill="#fff"/>
      </g>
    </g>
    <g id="Сгруппировать_5669" data-name="Сгруппировать 5669" transform="translate(68.909 -29.084)" clip-path="url(#clip-path-7)">
      <g id="Сгруппировать_5668" data-name="Сгруппировать 5668" transform="translate(-260.934 -63.836)" clip-path="url(#clip-path-2)">
        <path id="Контур_3845" data-name="Контур 3845" d="M49.187-36.8h39.25V3.844H49.187Z" transform="translate(205.389 94.28)" fill="#fff"/>
      </g>
    </g>
    <g id="Сгруппировать_5671" data-name="Сгруппировать 5671" transform="translate(96.879 -29.284)" clip-path="url(#clip-path-9)">
      <g id="Сгруппировать_5670" data-name="Сгруппировать 5670" transform="translate(-288.904 -63.636)" clip-path="url(#clip-path-2)">
        <path id="Контур_3848" data-name="Контур 3848" d="M71.181-36.96h38.651V4.166H71.181Z" transform="translate(211.365 94.237)" fill="#fff"/>
      </g>
    </g>
    <g id="Сгруппировать_5673" data-name="Сгруппировать 5673" transform="translate(130.554 -29.084)" clip-path="url(#clip-path-11)">
      <g id="Сгруппировать_5672" data-name="Сгруппировать 5672" transform="translate(-322.58 -63.836)" clip-path="url(#clip-path-2)">
        <path id="Контур_3851" data-name="Контур 3851" d="M97.662-36.8h39.25V3.844H97.662Z" transform="translate(218.559 94.28)" fill="#fff"/>
      </g>
    </g>
    <g id="Сгруппировать_5674" data-name="Сгруппировать 5674" transform="translate(159.641 -29.084)" clip-path="url(#clip-path-13)">
      <path id="Контур_3854" data-name="Контур 3854" d="M120.535-36.8h19.021V3.844H120.535Z" transform="translate(-126.893 30.444)" fill="#fff"/>
    </g>
    <g id="Сгруппировать_5676" data-name="Сгруппировать 5676" transform="translate(168.938 -29.084)" clip-path="url(#clip-path-14)">
      <g id="Сгруппировать_5675" data-name="Сгруппировать 5675" transform="translate(-360.964 -63.836)" clip-path="url(#clip-path-2)">
        <path id="Контур_3856" data-name="Контур 3856" d="M127.845-36.8h37.016V3.844H127.845Z" transform="translate(226.76 94.28)" fill="#fff"/>
      </g>
    </g>
    <g id="Сгруппировать_5678" data-name="Сгруппировать 5678" transform="translate(196.23 -29.084)" clip-path="url(#clip-path-16)">
      <g id="Сгруппировать_5677" data-name="Сгруппировать 5677" transform="translate(-388.255 -63.836)" clip-path="url(#clip-path-2)">
        <path id="Контур_3859" data-name="Контур 3859" d="M149.306-36.8h34.422V3.844H149.306Z" transform="translate(232.591 94.28)" fill="#fff"/>
      </g>
    </g>
    <g id="Сгруппировать_5680" data-name="Сгруппировать 5680" transform="translate(219.292 -29.284)" clip-path="url(#clip-path-18)">
      <g id="Сгруппировать_5679" data-name="Сгруппировать 5679" transform="translate(-411.318 -63.636)" clip-path="url(#clip-path-2)">
        <path id="Контур_3862" data-name="Контур 3862" d="M167.441-36.96h38.652V4.166H167.441Z" transform="translate(237.518 94.237)" fill="#fff"/>
      </g>
    </g>
    <g id="Сгруппировать_5682" data-name="Сгруппировать 5682" transform="translate(247.023 -29.084)" clip-path="url(#clip-path-20)">
      <g id="Сгруппировать_5681" data-name="Сгруппировать 5681" transform="translate(-439.048 -63.836)" clip-path="url(#clip-path-2)">
        <path id="Контур_3865" data-name="Контур 3865" d="M189.247-36.8h36.058V3.844H189.247Z" transform="translate(243.442 94.28)" fill="#fff"/>
      </g>
    </g>
  </g>
</svg>
