<svg xmlns="http://www.w3.org/2000/svg" width="265.249" height="98.853" viewBox="0 0 265.249 98.853">
  <g id="Сгруппировать_218" data-name="Сгруппировать 218" transform="translate(0 0.001)">
    <g id="Сгруппировать_214" data-name="Сгруппировать 214" transform="translate(0 2.419)">
      <path id="Контур_221" data-name="Контур 221" d="M0,34.387,16.045,50.316l31.88-31.607L31.864,2.786H0v31.6Z" transform="translate(0 -2.786)" fill="#fff"/>
      <path id="Контур_222" data-name="Контур 222" d="M31.864,105.112l16.06-15.929L16.045,57.526,0,73.48v31.632Z" transform="translate(0 -9.996)" fill="#fff"/>
      <path id="Контур_223" data-name="Контур 223" d="M55.194,89.183l16.048,15.929h31.667V73.242L87.1,57.526l-31.9,31.657Z" transform="translate(-7.27 -9.996)" fill="#fff"/>
      <path id="Контур_224" data-name="Контур 224" d="M87.1,50.316l15.812-15.685V2.786H71.242L55.194,18.709,87.1,50.316Z" transform="translate(-7.27 -2.786)" fill="#fff"/>
    </g>
    <g id="Сгруппировать_217" data-name="Сгруппировать 217" transform="translate(110.916 -0.001)">
      <g id="Сгруппировать_216" data-name="Сгруппировать 216" transform="translate(0.076)">
        <g id="Сгруппировать_215" data-name="Сгруппировать 215" transform="translate(0 1.648)">
          <path id="Контур_225" data-name="Контур 225" d="M302.735,43.063l-1.026-4.69a11.656,11.656,0,0,1-2.8.637c-2.691,0-3.451-1.016-3.451-4.819V19.237h4.981l2.043-5.447h-7.024V5.57L287.66,6.825V13.79h-3.069v5.447h3.069v16.22c0,2.8,0,3.3.5,4.571.9,2.657,4.089,4.444,8.05,4.444A18.152,18.152,0,0,0,302.735,43.063Z" transform="translate(-148.478 -2.381)" fill="#fff" fill-rule="evenodd"/>
          <path id="Контур_226" data-name="Контур 226" d="M158.878,43.337l-14.131-21.8L157.47,2.778h-9.7l-11.63,18.508V2.778H127.83V43.337h8.307V22.164l12.346,21.172Z" transform="translate(-127.83 -2.013)" fill="#fff" fill-rule="evenodd"/>
          <path id="Контур_227" data-name="Контур 227" d="M189.892,44.875v-21.8a13.311,13.311,0,0,0-.506-4.311c-.9-2.535-3.961-4.314-7.287-4.314a11.115,11.115,0,0,0-5.365,1.269,10.5,10.5,0,0,0-3.449,2.792l-.5-3.985L166.126,15.6V44.875h7.921V27.254a6.3,6.3,0,0,1,1.664-4.687,5.586,5.586,0,0,1,3.708-1.526c2.173,0,2.807,1.4,2.807,4.813V44.875Z" transform="translate(-132.874 -3.55)" fill="#fff" fill-rule="evenodd"/>
          <path id="Контур_228" data-name="Контур 228" d="M208.3,44.857V14.317l-7.93,1.262V44.857Z" transform="translate(-137.385 -3.533)" fill="#fff" fill-rule="evenodd"/>
          <path id="Вычитание_1" data-name="Вычитание 1" d="M12.274,43.213A24.869,24.869,0,0,1,.9,40.163l1.919-5.44a20.916,20.916,0,0,0,9.07,2.532c2.835,0,4.48-.509,5.334-1.649s.928-2.9.928-5.066V28a5.866,5.866,0,0,1-2.492,2.028,8.611,8.611,0,0,1-3.642.888,12.126,12.126,0,0,1-5.6-1.244A10.2,10.2,0,0,1,2.7,26.384C.468,23.186,0,19.158,0,16.342a26.241,26.241,0,0,1,.625-5.849A16.828,16.828,0,0,1,2.7,5.284,10.849,10.849,0,0,1,6.525,1.547,11.755,11.755,0,0,1,12.4.116a8.688,8.688,0,0,1,3.954.963,9.654,9.654,0,0,1,2.819,2.159c.126-.632.557-2.293.561-2.31L25.586,0l-.03,29.394a30.341,30.341,0,0,1-.431,6.12,8,8,0,0,1-2.632,4.781,11.759,11.759,0,0,1-5.015,2.362A22.805,22.805,0,0,1,12.274,43.213ZM13.8,6.457A4.167,4.167,0,0,0,9.713,8.8c-.7,1.383-1.022,3.457-1.022,6.529,0,3.208.142,5.511.846,7.079.752,1.675,2.107,2.422,4.391,2.422a3.8,3.8,0,0,0,3.578-2.281,9.588,9.588,0,0,0,.642-3.928V8.351A5.882,5.882,0,0,0,13.8,6.457Z" transform="translate(75.616 10.784)" fill="#fff"/>
          <path id="Контур_231" data-name="Контур 231" d="M276.1,43.221V22.3c0-2.916-.13-3.8-.768-5.446-.9-2.66-3.958-4.3-7.8-4.3a11.141,11.141,0,0,0-8.559,3.664c0-.38.124-2.152.124-3.044V1.9l-8.05,1.3V43.221h8.05V26.745c0-2.769.359-4.38,1.281-5.448a6.765,6.765,0,0,1,4.984-2.158c2.3,0,3.066,1.267,3.066,4.053v20.03Z" transform="translate(-144.06 -1.897)" fill="#fff" fill-rule="evenodd"/>
        </g>
        <path id="Контур_232" data-name="Контур 232" d="M209.123,4.88A4.88,4.88,0,1,1,204.244,0,4.879,4.879,0,0,1,209.123,4.88Z" transform="translate(-137.252 0.001)" fill="#fff" fill-rule="evenodd"/>
      </g>
      <path id="Вычитание_2" data-name="Вычитание 2" d="M22.487,32.054h0l-.925-.449a8.238,8.238,0,0,1-3.288-3.23l-.221.217a10.114,10.114,0,0,1-1.7,1.453,10.253,10.253,0,0,1-4.529,1.561H8.612A9.635,9.635,0,0,1,2.19,28.789,9.262,9.262,0,0,1,0,22.307a10.645,10.645,0,0,1,.908-4.542,8.082,8.082,0,0,1,2.717-3.2,12.874,12.874,0,0,1,4.514-1.9,28.258,28.258,0,0,1,6.3-.624H16.3V10.9a5.915,5.915,0,0,0-.723-3.53c-.543-.732-1.446-1.058-2.929-1.058-2.731,0-5.589,1-9,3.141L.743,4.288A38.744,38.744,0,0,1,5.492,1.775,19.872,19.872,0,0,1,13.8,0a13.285,13.285,0,0,1,6.337,1.364A6.864,6.864,0,0,1,23.505,5.2c.388,1.26.517,2.206.517,5.322l-.048,10.14a9.7,9.7,0,0,0,.48,3.691,6.908,6.908,0,0,0,2.495,2.9l-4.04,4.357-.421.449ZM15.716,17.18c-2.787,0-4.6.352-5.7,1.108s-1.58,1.91-1.58,3.77a4.267,4.267,0,0,0,.959,2.819,3.249,3.249,0,0,0,2.491,1.109,5.793,5.793,0,0,0,4.3-1.85L16.17,17.18Z" transform="translate(41.93 66.799)" fill="#fff"/>
      <path id="Контур_235" data-name="Контур 235" d="M149.845,65.406h-22.1v40.551h8.048V87.968h10.472V81.391H135.789v-9.5h13.035Z" transform="translate(-127.742 -8.614)" fill="#fff" fill-rule="evenodd"/>
      <path id="Контур_236" data-name="Контур 236" d="M171.769,77.419a6.509,6.509,0,0,0-2.943-.632c-2.934,0-5.876,2.66-7.149,4.685l-.772-4.053-6.391,1.032v29h7.923V88.92a5.284,5.284,0,0,1,1.149-3.769,4.814,4.814,0,0,1,3.482-1.4,6.486,6.486,0,0,1,2.691.635Z" transform="translate(-131.268 -10.113)" fill="#fff" fill-rule="evenodd"/>
      <path id="Контур_237" data-name="Контур 237" d="M245.473,66.123v39.761h7.92V64.857Z" transform="translate(-143.249 -8.542)" fill="#fff" fill-rule="evenodd"/>
      <path id="Контур_238" data-name="Контур 238" d="M262.262,90.215l9.712-12.558h-9.588l-7.792,12.934,10.295,16.979h9.261Z" transform="translate(-144.45 -10.228)" fill="#fff" fill-rule="evenodd"/>
      <path id="Контур_239" data-name="Контур 239" d="M234.99,107.494V85.7a13.067,13.067,0,0,0-.512-4.3c-.9-2.536-3.965-4.311-7.286-4.311a11.072,11.072,0,0,0-5.365,1.272,10.449,10.449,0,0,0-3.448,2.781l-.5-3.98-6.65,1.071v29.27h7.917V89.888a6.362,6.362,0,0,1,1.665-4.7,5.6,5.6,0,0,1,3.7-1.523c2.172,0,2.812,1.4,2.812,4.822v19.007Z" transform="translate(-138.738 -10.152)" fill="#fff" fill-rule="evenodd"/>
    </g>
  </g>
</svg>
