<svg xmlns="http://www.w3.org/2000/svg" width="103.078" height="139.352" viewBox="0 0 103.078 139.352">
  <g id="Oracle" transform="translate(-39.08 -9.38)">
    <path id="Контур_4000" data-name="Контур 4000" d="M88.646,120.094V89.309a20.185,20.185,0,0,0,11.087-9.615,27.234,27.234,0,0,0,3.225-16.507V63.1a3.7,3.7,0,0,0-.058-.8,150.483,150.483,0,0,1-.406-27.481l1.535-17.626L91.2,28.916c-3.154-3.791-8.21-8.519-15.112-14.053L69.258,9.38V23.338l-6.7-6.137L64.092,34.82a151.1,151.1,0,0,1-.4,27.488,29.494,29.494,0,0,0,5.321,20.146,18.841,18.841,0,0,0,10.964,7.32v16.035A53.8,53.8,0,0,0,72.238,98L39.08,70.834l13.067,43.777c3.425,11.482,10.545,22.3,19.046,28.933,4.405,3.442,8.385,5.185,11.9,5.185a8.435,8.435,0,0,0,5.553-1.954c4.173-3.442,5.05-10.451,2.477-19.717A56.307,56.307,0,0,0,88.646,120.094ZM67.213,105.853a49.9,49.9,0,0,1,15.66,24.133c1.7,6.1.948,8.649.645,8.984-.374.211-2.754.254-7.417-3.384-6.908-5.41-12.957-14.641-15.789-24.038L55.849,96.593Zm5.8-66.5,16.2,14.779a16.93,16.93,0,0,1,3.225,20.335c-2.019,3.58-4.966,5.665-8.3,5.882a9.741,9.741,0,0,1-1.29,0A9.877,9.877,0,0,1,75.6,76.135a18.778,18.778,0,0,1-3.315-12.789,172.335,172.335,0,0,0,.768-23.995ZM90.09,42.445l3.38-3.094q-.123,2.956-.129,6.071ZM77.836,31.254V28.582a91.285,91.285,0,0,1,6.592,6.478l-1.213,1.118Z" fill="#006247"/>
    <path id="Контур_4001" data-name="Контур 4001" d="M139.23,118.64a53.89,53.89,0,0,0-19.3,26.5c-3.85,12.31.43,17.71,3.32,19.84a11.47,11.47,0,0,0,6.91,2.16h0c3.91,0,8.29-1.65,13-4.93a53.93,53.93,0,0,0,19.53-26.32l15.22-45.31ZM151.88,126,150,131.62a40.68,40.68,0,0,1-14.47,19.59,19.319,19.319,0,0,1-3.71,2.09,20.07,20.07,0,0,1,.9-4.16,40.63,40.63,0,0,1,14.37-19.66Z" transform="translate(-35.752 -36.988)" fill="#006247"/>
  </g>
</svg>
