<svg width="12" height="13" viewBox="0 0 12 13" fill="none" xmlns="http://www.w3.org/2000/svg">
<path d="M11.0371 8.3766C10.3024 8.3766 9.58104 8.2617 8.89745 8.03579C8.56248 7.92154 8.1507 8.02636 7.94626 8.23632L6.59698 9.25488C5.03221 8.4196 4.06833 7.45604 3.24446 5.90302L4.23305 4.5889C4.48989 4.3324 4.58202 3.95771 4.47164 3.60615C4.24477 2.91896 4.12952 2.19793 4.12952 1.46293C4.12955 0.931968 3.69758 0.5 3.16665 0.5H0.962904C0.431968 0.5 0 0.931968 0 1.4629C0 7.54883 4.95117 12.5 11.0371 12.5C11.568 12.5 12 12.068 12 11.5371V9.33948C12 8.80857 11.568 8.3766 11.0371 8.3766Z" fill="#AEAEAE"/>
</svg>
