<svg width="100" height="100" viewBox="0 0 100 100" fill="none" xmlns="http://www.w3.org/2000/svg">
<path d="M44 24C42.8954 24 42 24.8954 42 26C42 27.1046 42.8954 28 44 28H66C67.1046 28 68 27.1046 68 26C68 24.8954 67.1046 24 66 24H44Z" fill="#2F4F3E"/>
<path d="M44 32C42.8954 32 42 32.8954 42 34C42 35.1046 42.8954 36 44 36H56C57.1046 36 58 35.1046 58 34C58 32.8954 57.1046 32 56 32H44Z" fill="#2F4F3E"/>
<path d="M42 78C42 76.8954 42.8954 76 44 76H56C57.1046 76 58 76.8954 58 78C58 79.1046 57.1046 80 56 80H44C42.8954 80 42 79.1046 42 78Z" fill="#2F4F3E"/>
<path d="M26.2815 46.563C25.5308 45.8123 24.3137 45.8123 23.563 46.563C22.8123 47.3137 22.8123 48.5308 23.563 49.2815L26.2815 52L23.563 54.7185C22.8123 55.4692 22.8123 56.6863 23.563 57.437C24.3137 58.1877 25.5308 58.1877 26.2815 57.437L29 54.7185L31.7185 57.437C32.4692 58.1877 33.6863 58.1877 34.437 57.437C35.1877 56.6863 35.1877 55.4692 34.437 54.7185L31.7185 52L34.437 49.2815C35.1877 48.5308 35.1877 47.3137 34.437 46.563C33.6863 45.8123 32.4692 45.8123 31.7185 46.563L29 49.2815L26.2815 46.563Z" fill="#2F4F3E"/>
<path d="M26.6121 34.4307L26.6183 34.437C27.3654 35.1877 28.5766 35.1877 29.3237 34.437L35.4397 28.2815C36.1868 27.5308 36.1868 26.3137 35.4397 25.563C34.6926 24.8123 33.4814 24.8123 32.7344 25.563L27.971 30.3592L25.2656 27.6407C24.5186 26.89 23.3074 26.89 22.5603 27.6407C21.8132 28.3914 21.8132 29.6085 22.5603 30.3592L26.6121 34.4307Z" fill="#2F4F3E"/>
<path d="M26.6183 78.437L26.6121 78.4307L22.5603 74.3592C21.8132 73.6085 21.8132 72.3914 22.5603 71.6407C23.3074 70.89 24.5186 70.89 25.2656 71.6407L27.971 74.3592L32.7344 69.563C33.4814 68.8123 34.6926 68.8123 35.4397 69.563C36.1868 70.3137 36.1868 71.5308 35.4397 72.2815L29.3237 78.437C28.5766 79.1877 27.3654 79.1877 26.6183 78.437Z" fill="#2F4F3E"/>
<path fill-rule="evenodd" clip-rule="evenodd" d="M6 90H10V94C10 97.3137 12.6863 100 16 100H74C77.3137 100 80 97.3137 80 94V79.7053L88.2847 87.99C90.9647 90.67 95.3099 90.67 97.99 87.99C100.67 85.3099 100.67 80.9647 97.99 78.2846L87.9992 68.2938C90.5869 61.9195 89.2956 54.3391 84.1252 49.1687C82.8742 47.9176 81.482 46.8937 80 46.0969V16C80 12.6863 77.3137 10 74 10H70V6C70 2.68629 67.3137 0 64 0H6C2.68629 0 0 2.68629 0 6V84C0 87.3137 2.68629 90 6 90ZM6 4C4.89543 4 4 4.89543 4 6V84C4 85.1046 4.89543 86 6 86H10V16C10 12.6863 12.6863 10 16 10H66V6C66 4.89543 65.1046 4 64 4H6ZM76 44.5425V16C76 14.8954 75.1046 14 74 14H16C14.8954 14 14 14.8954 14 16V94C14 95.1046 14.8954 96 16 96H74C75.1046 96 76 95.1046 76 94V78.7515C70.1694 80.2295 63.7308 78.6874 59.1687 74.1253C58.4981 73.4548 57.8929 72.7437 57.3528 72H44C42.8954 72 42 71.1046 42 70C42 68.8954 42.8954 68 44 68H55.1785C53.9474 64.8034 53.6808 61.3206 54.3789 58H44C42.8954 58 42 57.1046 42 56C42 54.8954 42.8954 54 44 54H55.7376C56.4201 52.58 57.3038 51.2324 58.3885 50H44C42.8954 50 42 49.1046 42 48C42 46.8954 42.8954 46 44 46H62C62.361 46 62.6997 46.0957 62.9921 46.263C66.9816 44.0157 71.6593 43.4422 76 44.5425ZM81.2968 71.2969C86.6263 65.9674 86.6263 57.3266 81.2968 51.9971C75.9673 46.6676 67.3266 46.6676 61.9971 51.9971C56.6676 57.3266 56.6676 65.9674 61.9971 71.2969C67.3266 76.6263 75.9673 76.6263 81.2968 71.2969ZM86.205 72.1564L82.1565 76.2049L91.1131 85.1615C92.231 86.2795 94.0436 86.2795 95.1616 85.1615C96.2795 84.0436 96.2795 82.231 95.1616 81.113L86.205 72.1564Z" fill="#2F4F3E"/>
</svg>
