<svg xmlns="http://www.w3.org/2000/svg" width="249.791" height="80.49" viewBox="0 0 249.791 80.49">
  <g id="Сгруппировать_213" data-name="Сгруппировать 213" transform="translate(-871.504 -510.399)">
    <path id="Контур_220" data-name="Контур 220" d="M953.408,544.721,937.532,560.6s.152,8.248-1.691,11.881c-3.882,7.665-17.68,18.407-17.68,18.407l-2.349-2.58s7.155-7.993,6.318-13.315l-4.068-26.679c-4.13,4.289-8.387,9.017-12.884,14.079.252,3.279.115,6.583-1.374,9.493-3.781,7.423-17.175,18.35-17.175,18.35l-2.305-2.472s4.3-4.272,5.409-7.1a13.019,13.019,0,0,0,.708-3.863c.358-5.269-4.467-29.95-8.056-48.367-1.174-6.036-3.705-6.2-5.547-5.7-1.615.448-4.869,1.627-4.869,1.627l-.463-2.345,25.886-10.559,6.888,43.444,12.837-12.672-2.071-12.945c-.29-2.149-1.106-4.491-3.884-4.878-2.462-.345-6.856,1.721-6.856,1.721l-1.107-2.81,26.463-11.98,6.976,42.361s8.946-9.184,9.582-9.882c1.65-1.8,1.35-5.4-.148-13.029-.446-3.6-1.047-7.493-3.444-8.241-2.665-.836-7.168,1.2-7.168,1.2l-.971-2.706,24.067-10.65s3.616,15.081,3.245,15.076c1.049,7.713-.195,9.425-1.95,12.058a63.042,63.042,0,0,1-6.441,7.188Zm13.325,25.738c-.59-3.089.368-6.214,1.555-8.878,2.124-4.767,8.772-5.86,13.6-6.288,3.45-.308,6.6,6.467,6.6,6.467l-5.657,3.307s-1.373-3.44-2.584-4.658a2.579,2.579,0,0,0-3.724-.063,9.788,9.788,0,0,0-2.467,6.547c.166,1.644,2.787,2.378,2.742,2.348,2.716,1.688,6.107,2.438,7.541,5.247.78,1.545-.543,6.077-1.8,7.817-1.6,2.2-7.82,7.067-13.244,6.346-6.555-.853-8.1-8.225-8.1-8.225l6.771-3.9s2.537,8.764,5.613,6.952a5.784,5.784,0,0,0,2.2-6.068c-.455-1.478-2.936-2.027-5.225-3.462-1.5-.937-3.481-1.637-3.833-3.489Zm29.15-20.676c.608-1.534-.655-4.557-.655-4.557l6.382-3.012a5.507,5.507,0,0,1,2.115,5.048c-.26,2.844-1.478,8.646-1.478,8.646h8.981s1.947-7.149,3.393-12.264a7.478,7.478,0,0,1,3.457-4.823c2.568-1.679,11.656-9.477,17.363-5.654,1.75,1.175,3.536,3.174,3.192,5.28a53.048,53.048,0,0,1-2.837,11.461c-2.246.145-6.785,0-6.785,0s3.138-8,.907-10.721c-2.644-3.219-5.664.8-5.688.813-2.213,1.42-5.206,15.907-5.206,15.907h15.718s-4.781,18.257-6.757,24.456c-.574,1.8-.423,2.251.374,3.015,1.292,1.237,4.127-1.221,4.127-1.221l1.418,2.313a58.534,58.534,0,0,1-6.544,4.471c-3.936,2.094-8.172-5.866-7.824-7.1,1.88-6.531,3.357-11.946,4.94-18.571a4.008,4.008,0,0,0-.315-2.857c-.753-1.445-6.191-1.06-6.191-1.06l-8.535,29.248h-7.338l8.384-29.248H1000.6s-4.047,14.119-5.486,21.032a2.473,2.473,0,0,0,.907,2.6c1.343.992,5.22-1.931,5.22-1.931l1.092,2.315s-7.874,6.139-10.091,5.807c-1.68-.259-4.892-3.545-5.344-5.076-.527-1.782,6.063-24.743,6.063-24.743h-3.9l.432-3.45h4.677a53.912,53.912,0,0,1,1.721-6.126Zm77.927-11.589c2.693-7.239,16.21-6.379,16.21-6.379l.2,2.3s-7.277.343-8.987,5.276c-4.542,13.113-7.412,26.556-11.5,40.106a2.545,2.545,0,0,0,.307,2.51c2.314,2.068,6.465-2.695,6.465-2.695s2.448-13.193,5.8-19.038c2.121-3.688,6.81-5.282,10.893-6.274,2.631-.634,7.007,1.951,7.007,1.951s1.8-6.744,4.029-13.9c.489-1.555.932-5,3.006-6.328a24.286,24.286,0,0,1,13.771-4.036l.281,2.145s-7.312,1.147-8.779,5.576a388.022,388.022,0,0,0-11.112,39.309c-.161,1.309-.5,3.911.869,4.3,2.083.594,6.974-3.26,6.974-3.26l1.424,2.884s-5.647,3.7-8.465,5.338c-3.647,2.126-8.291-3.421-8.291-3.421s-7.394,4.173-9.561,3.7c-3.579-.773-6.766-5.344-6.766-5.344a55.767,55.767,0,0,1-9.3,5.063c-2.52,1.16-6.527-1.713-7.071-4.488-.392-1.97.32-3.907.868-5.846,2.32-8.215,4.369-16.051,6.848-24.225,1.437-4.734,3-10.209,4.876-15.229Zm-30.548,21.025c4.538-1.969,9.088-4.979,14.163-4.466,3.084.31,4.058,2.621,4.444,5.706a14.3,14.3,0,0,1-1.929,8.276c-4.271,8.332-15.235,4-15.235,4s-1.762,4.079-1.352,6.586c.281,1.742,2.83,4.395,4.4,4.477,3.091.165,8.488-3.691,8.488-3.691l1.652,2.381s-7.014,4.412-10.988,6.612c-3.175,1.755-9.142-3.6-11.218-6.16-2.222-2.723.331-9.608,1.743-14.216,1.064-3.521,2.165-7.914,5.827-9.506Zm-97.291-.151c4.544-1.967,9.24-4.081,14.315-3.562,3.084.313,4.065,2.013,4.444,5.1a14.333,14.333,0,0,1-1.926,8.285c-3.873,7.554-15.084,5.191-15.084,5.191a8.54,8.54,0,0,0-1.205,5.091c.284,1.737,2.079,3.941,3.656,4.031,3.089.163,8.042-3.7,8.042-3.7l1.644,2.385a126.271,126.271,0,0,1-10.984,6.61c-4.361,2.121-8.536-2.555-10.621-5.112-2.222-2.72.631-9.911,2.038-14.506,1.076-3.531,2.015-8.222,5.681-9.814Zm138.57,18.565c-1.244,6.188,7.565,6.834,9.436,1.421s2.767-10.219,4.2-15.779c.381-1.484-1.129-4.341-3.394-4.972a4.472,4.472,0,0,0-5.7,3.25c-.714,2.487-1.016,2.853-1.558,5.313-.971,4.383-1.994,5.864-2.982,10.766Zm-129.519-8.406a23.46,23.46,0,0,0,2.049-6.534c.682-4.044-4.559-5.094-6.336-.466-1.528,3.992-1.367,2.114-1.512,6.331-.114,3.369,4.943,2.651,5.8.669Zm97.477-.782a23.421,23.421,0,0,0,2.055-6.534c.682-4.046-4.564-5.088-6.338-.458-1.536,3.994-1.363,2.113-1.511,6.325-.115,3.371,4.939,2.661,5.793.667Z" fill="#fff" fill-rule="evenodd"/>
  </g>
</svg>
