<svg width="90" height="81" viewBox="0 0 90 81" fill="none" xmlns="http://www.w3.org/2000/svg">
<path fill-rule="evenodd" clip-rule="evenodd" d="M63.7791 43.4737C62.2011 50.9699 57.1441 58.7279 51.4001 63.8491C43.3461 71.0298 33.4401 74.5154 23.5371 74.4517C22.7591 74.4464 22.6711 73.5711 23.4591 73.4134C32.4501 71.5798 41.6171 67.1259 49.1771 60.3848C54.2761 55.8384 58.9451 49.7822 62.1511 42.9943C62.6351 41.9686 64.0371 42.2289 63.7791 43.4737Z" fill="url(#paint0_linear)"/>
<path fill-rule="evenodd" clip-rule="evenodd" d="M63.74 39.5781C62.484 39.349 59.5351 42.6903 58.2091 44.1879C57.8061 44.6458 57.3871 44.3142 57.5421 43.6688C58.5221 39.472 63.3151 36.1578 64.3711 36.3296C65.4311 36.5049 68.654 41.3973 68.024 45.6665C67.927 46.3218 67.4151 46.4756 67.2091 45.9044C66.5281 44.0235 65.003 39.8075 63.74 39.5781Z" fill="url(#paint1_linear)"/>
<path fill-rule="evenodd" clip-rule="evenodd" d="M79.9141 20.4179L82.3551 18.2415C82.6171 18.0079 82.6491 17.6139 82.4281 17.3592L76.3881 10.5845C75.6321 9.73628 74.9941 8.93098 74.6531 7.85478C74.3851 7.00508 74.5761 6.11638 75.1731 5.58466C76.7351 4.1921 78.2491 5.91876 79.4371 7.27465L79.438 7.27558C79.537 7.38893 79.6341 7.49967 79.7291 7.60578L85.8211 14.4391C86.0361 14.6314 86.3701 14.6309 86.6091 14.4483L89.067 12.2566C89.309 12.0414 89.3551 11.6842 89.1861 11.439L82.1251 3.51967V3.51913C81.0401 2.30214 79.5311 0.609765 77.9921 0.174849C76.3341 -0.296391 74.9091 0.263119 73.8091 1.2437C72.1161 2.753 71.8861 4.43117 72.7331 6.76328L72.6891 6.80318L70.9731 4.87943C70.7501 4.72594 70.445 4.73791 70.222 4.91815L67.9501 6.94388C67.7021 7.16518 67.658 7.52578 67.843 7.77528L79.067 20.3562C79.282 20.5976 79.6541 20.6189 79.9141 20.4179ZM59.804 13.7301C63.441 10.4871 68.1951 11.8555 71.7361 15.8272C75.1571 19.6645 75.6961 24.6484 72.2661 27.707C68.6941 30.8916 63.964 29.5016 60.494 25.6092C57.002 21.6926 56.256 16.8931 59.804 13.7301ZM62.1151 16.2801C60.3081 17.8909 62.389 20.454 63.757 21.9882L63.8081 22.045C65.1981 23.6054 68.0531 26.8088 69.9541 25.1143C71.8541 23.4206 69.5831 20.6928 68.1441 19.0793C67.1971 18.0174 66.0211 16.7887 64.8031 16.0678C63.7461 15.438 62.8941 15.5854 62.1151 16.2801ZM44.5011 28.6055L46.106 30.4052C46.346 30.6741 46.7161 30.6724 46.9741 30.4418L51.1841 26.6886L52.5311 37.938C52.6351 38.6441 53.0771 39.1471 53.3381 39.4401L54.9651 41.2639C55.1981 41.526 55.7621 41.5681 55.9061 41.1674C57.3491 37.2687 60.7681 34.4745 64.4061 33.5641C64.8511 33.4522 64.8671 32.8871 64.6331 32.6251L62.9211 30.7047C62.6661 30.4677 62.346 30.2825 61.869 30.386C59.756 30.8472 57.9121 32.0763 56.3941 33.4975L55.2551 23.814C55.1641 22.9353 55.0801 22.4038 54.8531 22.1421L53.4791 20.601C53.2391 20.3321 52.8671 20.3303 52.6081 20.5609L44.5511 27.7446C44.3031 27.966 44.2591 28.3331 44.5011 28.6055ZM24.2751 70.0244L26.7261 67.8388C26.9881 67.6052 27.0171 67.2143 26.7931 66.9626L20.8481 60.2948L20.705 60.135C19.421 58.6992 17.7501 56.8311 19.4481 55.3171C21.0111 53.923 22.4701 55.6128 23.6571 56.9881H23.658V56.9882C23.792 57.1442 23.9231 57.2962 24.0511 57.4391L29.9991 64.104C30.2141 64.3453 30.5831 64.3697 30.8461 64.1656L33.2941 61.983C33.5561 61.7494 33.5851 61.3585 33.3611 61.1068L27.416 54.439L27.3411 54.3554L27.2651 54.2704L27.2641 54.2695C26.6341 53.567 25.784 52.6191 25.494 51.8262C25.181 50.9674 25.448 50.0176 26.041 49.4889C26.751 48.8557 27.5111 48.6048 28.4471 49.2866C28.9031 49.608 29.7271 50.5584 30.2771 51.193V51.1933C30.4101 51.346 30.5261 51.4804 30.6181 51.5833L36.563 58.2511C36.779 58.4925 37.1501 58.5138 37.4101 58.3128L39.8581 56.1303C40.1201 55.8966 40.149 55.5057 39.925 55.254L32.8491 47.311C32.6761 47.1172 32.5031 46.9166 32.3281 46.714V46.7139V46.7138V46.7137C31.2881 45.5071 30.1881 44.231 28.7151 43.917C27.1811 43.5772 25.6791 44.1552 24.6511 45.0713C23.2071 46.3592 22.5201 48.3024 23.3441 50.4205C21.2371 49.4459 19.6181 49.5592 18.0841 50.9271C16.5741 52.2734 16.1141 54.0137 16.9351 56.1349L16.8901 56.1749L15.4241 54.5303C15.2031 54.3181 14.8511 54.3045 14.6041 54.5062L12.3181 56.5442C12.0561 56.7779 12.024 57.1653 12.248 57.417L23.4651 69.9977C23.6821 70.2064 24.0251 70.2162 24.2751 70.0244ZM44.3371 41.3513L44.4561 41.4846C45.2561 42.3802 45.9361 43.1412 46.1961 44.3597C46.4211 45.3965 46.1791 46.3739 45.4931 46.9856C44.5511 47.8248 43.3601 47.5995 42.4171 46.5411C40.5541 44.4518 42.0881 42.4034 43.8631 40.8203L44.3371 41.3513ZM52.136 45.1221C52.103 45.4114 51.8781 45.6307 51.6091 45.6971C50.4041 45.7394 49.914 45.6143 49.166 45.4231C49.036 45.3896 48.8971 45.3541 48.7451 45.3171C48.6241 47.8881 48.0351 49.1498 46.2941 50.7022C44.2291 52.5435 41.4911 52.7006 39.2201 50.1528C37.4461 48.1635 37.314 45.8495 38.261 43.8166C38.938 42.3302 40.2901 40.8524 41.4611 39.5717V39.5716C41.6861 39.3251 41.9051 39.0858 42.1111 38.8551L41.8291 38.538C41.7761 38.4783 41.7221 38.4171 41.6671 38.355C41.1901 37.8115 40.6581 37.2058 39.9461 37.0298C39.2461 36.8425 38.5081 37.1666 38.0011 37.6185C37.0671 38.4515 36.6631 39.6716 37.3451 40.8459C37.5011 41.1034 37.532 41.4651 37.317 41.6752L34.7141 43.538C34.4741 43.6715 34.1061 43.7093 33.8911 43.3502C31.8661 39.9822 33.6981 36.7895 36.0281 34.7116C37.2211 33.648 39.0621 32.5758 40.8091 32.6399C42.8191 32.6859 44.0051 34.0317 45.3031 35.505C45.4161 35.6341 45.5311 35.7641 45.6471 35.8942L49.0531 39.7143C49.9671 40.7395 50.8021 40.9123 51.6831 41.0949C51.7891 41.1168 51.8961 41.1389 52.0031 41.1625C52.3551 41.2448 52.6261 41.4795 52.5741 41.8233C52.4461 42.6862 52.2481 44.255 52.1461 45.1259L52.136 45.1221ZM12.3161 70.1321C12.2781 70.0897 12.239 70.047 12.201 70.0039L11.7281 69.4729C9.95606 71.0529 8.42206 73.1013 10.2841 75.1906C11.2281 76.249 12.4161 76.4774 13.3571 75.6382C14.0461 75.0234 14.2861 74.0491 14.0601 73.0122C13.7991 71.7915 13.1181 71.0299 12.3161 70.1321ZM19.4731 74.3497C19.7421 74.2833 19.9671 74.064 20.0001 73.7747L20.0131 73.7754C20.1161 72.9045 20.3131 71.3357 20.4411 70.4728C20.4941 70.1291 20.2231 69.8943 19.8671 69.8151C19.7601 69.7914 19.6531 69.7693 19.5471 69.7474C18.6661 69.5648 17.8311 69.3918 16.9181 68.3669L13.5121 64.5468C13.3951 64.4161 13.28 64.2856 13.166 64.156C11.868 62.6833 10.6821 61.3385 8.67306 61.2925C6.92706 61.2283 5.08507 62.3006 3.89306 63.3641C1.56206 65.4421 -0.265935 68.6317 1.75506 72.0028C1.97406 72.3588 2.33905 72.3241 2.57905 72.1906L5.18506 70.3248C5.39606 70.1177 5.36506 69.756 5.20906 69.4985C4.52806 68.3242 4.93506 67.101 5.86906 66.268C6.37206 65.8192 7.11105 65.4951 7.81305 65.6793C8.52105 65.8579 9.05306 66.4628 9.53006 67.006C9.58506 67.0686 9.63905 67.1303 9.69305 67.1905L9.97607 67.5077C9.77007 67.7386 9.55107 67.9781 9.32507 68.2249C8.15407 69.5055 6.80306 70.983 6.12506 72.4691C5.18106 74.499 5.31007 76.8161 7.08407 78.8054C9.35607 81.3532 12.096 81.193 14.158 79.3548C15.903 77.7994 16.488 76.5407 16.61 73.9697C16.772 74.0086 16.9191 74.0459 17.0571 74.081C17.7921 74.2674 18.2811 74.3916 19.4731 74.3497Z" fill="url(#paint2_linear)"/>
<defs>
<linearGradient id="paint0_linear" x1="20.4261" y1="48.7322" x2="57.5591" y2="63.2009" gradientUnits="userSpaceOnUse">
<stop stop-color="#FFB03A"/>
<stop offset="1" stop-color="#FF9900"/>
</linearGradient>
<linearGradient id="paint1_linear" x1="56.8661" y1="38.2957" x2="66.881" y2="41.5616" gradientUnits="userSpaceOnUse">
<stop stop-color="#FFB03A"/>
<stop offset="1" stop-color="#FF9900"/>
</linearGradient>
<linearGradient id="paint2_linear" x1="-0.302937" y1="65.1494" x2="80.1281" y2="29.2868" gradientUnits="userSpaceOnUse">
<stop stop-color="#252525"/>
<stop offset="1" stop-color="#121212"/>
</linearGradient>
</defs>
</svg>
