<svg xmlns="http://www.w3.org/2000/svg" viewBox="0 0 217 217"><defs><style>.cls-1{fill:#006247;}</style></defs><g id="Oracle"><path class="cls-1" d="M179.86,85a19.22,19.22,0,0,0-21.8,10.53A76.76,76.76,0,0,0,149,84.27c-.7-.72-1.45-1.45-2.3-2.25l3-6.82a5.82,5.82,0,0,1,6.68-3.35l26,6.1,3.07-13-26-6.1a19.23,19.23,0,0,0-22,11l-1.58,3.62c-1.53-1-3.09-1.9-4.66-2.76L135,60.09a17,17,0,0,0-9.1-21.31l-19.54-8.64-5.42,12.25L120.47,51a3.59,3.59,0,0,1,1.92,4.5l-3.6,10a53.11,53.11,0,0,0-24-1.88,22.29,22.29,0,0,0-19-9.24c-.58,0-1.16.08-1.79.16l-2.41-8.39a7.84,7.84,0,0,1,.58-5.78L85.25,15,73.35,8.89,60.26,34.23a21.15,21.15,0,0,0-1.55,15.61l3,10.38c-.43.38-.81.75-1.16,1.12L51.21,58.4a21.24,21.24,0,0,0-15.64,1.14L9.89,72,15.73,84,41.4,71.61h0a7.9,7.9,0,0,1,5.79-.42l7.49,2.36a22,22,0,0,0,8.57,20.79,53.19,53.19,0,0,0,1.45,24.74l-9.45,3.14a3.59,3.59,0,0,1-4.45-2l-8.13-19.75-12.39,5.09,8.14,19.76a17,17,0,0,0,21.07,9.65l10.21-3.4q1.26,2.4,2.71,4.73l-3.24,1.32a19.23,19.23,0,0,0-11.6,21.73L63,185.42l13.12-2.72-5.42-26.12a5.85,5.85,0,0,1,3.52-6.6l6.6-2.68c.58.65,1.13,1.23,1.67,1.78a75.88,75.88,0,0,0,11.74,9.85,19.24,19.24,0,0,0-11,21.49l5.43,26.12,13.11-2.72-5.42-26.13a5.84,5.84,0,0,1,3.52-6.59L110,167a57,57,0,0,0,19,3.41c11.32,0,21.17-3.76,28.47-10.87,9.15-8.92,13.14-21.85,11.24-36.41a60.75,60.75,0,0,0-2.86-12l4.27-9.77A5.85,5.85,0,0,1,176.79,98l26,6.1,3.06-13ZM134.5,156.61V142.47a42.5,42.5,0,0,0-1.19-10,42.66,42.66,0,0,0,8,.75h14.31a26.1,26.1,0,0,1-7.5,16.69A25.49,25.49,0,0,1,134.5,156.61ZM80.72,68.71a36.08,36.08,0,0,0-12,11.71,8.87,8.87,0,0,1,1.49-9.79l.27-.28a8.9,8.9,0,0,1,10.27-1.64Zm-1.43,20,33.38,33.38a28.61,28.61,0,0,1,8.44,20.36v13.8c-10.36-2.06-20.6-7.88-29-16.54C76.74,124,71.46,102.46,79.29,88.73Zm62,31.09a28.64,28.64,0,0,1-20.36-8.43l-32-32a29.37,29.37,0,0,1,13.6-3.13c12.48,0,26.25,6.49,36.84,17.35a58.48,58.48,0,0,1,15.06,26.2Z"/></g></svg>