<svg width="20" height="21" viewBox="0 0 20 21" fill="none" xmlns="http://www.w3.org/2000/svg">
<path fill-rule="evenodd" clip-rule="evenodd" d="M11 8.86129C12.7252 8.41724 14 6.85114 14 4.9873C14 2.77817 12.2091 0.987305 10 0.987305C7.79086 0.987305 6 2.77817 6 4.9873C6 6.85114 7.27477 8.41724 9 8.86129V11.6213L5.85004 13.4399C5.29679 13.1508 4.66749 12.9873 4 12.9873C1.79086 12.9873 0 14.7782 0 16.9873C0 19.1964 1.79086 20.9873 4 20.9873C6.20914 20.9873 8 19.1964 8 16.9873C8 16.206 7.77598 15.477 7.38866 14.861L10.0059 13.35L12.6145 14.856C12.2252 15.473 12 16.2039 12 16.9873C12 19.1964 13.7909 20.9873 16 20.9873C18.2091 20.9873 20 19.1964 20 16.9873C20 14.7782 18.2091 12.9873 16 12.9873C15.335 12.9873 14.7079 13.1496 14.1561 13.4367L11 11.6145V8.86129Z" fill="#333333"/>
</svg>
