<svg xmlns="http://www.w3.org/2000/svg" width="260.79" height="60.399" viewBox="0 0 260.79 60.399">
  <g id="Сгруппировать_40" data-name="Сгруппировать 40" transform="translate(-830 -1541)">
    <g id="Сгруппировать_20" data-name="Сгруппировать 20" transform="translate(711.792 1427.109)">
      <g id="Сгруппировать_19" data-name="Сгруппировать 19" transform="translate(118.208 113.891)">
        <g id="Сгруппировать_18" data-name="Сгруппировать 18">
          <path id="Контур_39" data-name="Контур 39" d="M212.99,118.18l8.259,14.306L196.471,118.18H212.99m2.473-4.283H180.556l52.4,30.291L215.463,113.9Z" transform="translate(-163.14 -113.895)" fill="#fff"/>
          <path id="Контур_40" data-name="Контур 40" d="M221.665,233.767l-8.226,14.248H196.988l24.677-14.248m11.655-11.654h0Zm0,0-52.252,30.168H215.9l17.418-30.168Z" transform="translate(-163.508 -191.882)" fill="#fff"/>
          <path id="Контур_41" data-name="Контур 41" d="M131.306,129.83l.134,28.524-8.3-14.223,8.167-14.3m-13.1,14.324,17.439,30.116-.023-60.38Z" transform="translate(-118.208 -113.891)" fill="#fff"/>
        </g>
      </g>
      <path id="Контур_42" data-name="Контур 42" d="M432.818,176.538c0,9.191-7.372,16.244-17.109,16.244S398.6,185.774,398.6,176.538c0-9.283,7.371-16.154,17.109-16.154S432.818,167.3,432.818,176.538Zm-26.846,0A9.9,9.9,0,0,0,415.8,186.5a9.92,9.92,0,1,0-9.828-9.965Z" transform="translate(-202.067 -33.506)" fill="#fff"/>
      <path id="Контур_43" data-name="Контур 43" d="M554.344,193.05l-5.051-9.1h-7.326v9.1h-7.189V161.2H548.61c8.327,0,13.059,4,13.059,11.057,0,4.914-2.093,8.464-5.961,10.284l6.78,10.511Zm-12.377-15.107h6.643c3.959,0,6.234-1.82,6.234-5.46,0-3.549-2.275-5.324-6.234-5.324h-6.643Z" transform="translate(-300.204 -34.093)" fill="#fff"/>
      <path id="Контур_44" data-name="Контур 44" d="M661.087,186.862H646.344l-2.5,6.188h-7.417L650.257,161.2h7.417l13.605,31.851h-7.69Zm-2.32-5.778-5.005-12.377-5.051,12.377Z" transform="translate(-373.457 -34.093)" fill="#fff"/>
      <path id="Контур_45" data-name="Контур 45" d="M775.656,166.618a9.806,9.806,0,0,0,0,19.611,12.293,12.293,0,0,0,8.282-3.731l4.231,4.6a18.646,18.646,0,0,1-12.877,5.687c-9.51,0-16.7-7.053-16.7-16.289,0-9.192,7.325-16.108,16.972-16.108a18.126,18.126,0,0,1,12.558,5.278l-4.186,5.1A11.529,11.529,0,0,0,775.656,166.618Z" transform="translate(-461.498 -33.506)" fill="#fff"/>
      <path id="Контур_46" data-name="Контур 46" d="M883.713,161.2v25.572h13.651v6.28H876.524V161.2Z" transform="translate(-546.486 -34.093)" fill="#fff"/>
      <path id="Контур_47" data-name="Контур 47" d="M987.434,161.2v5.961H970.37v6.916h15.38v5.961H970.37v7.053h17.564v5.961H963.181V161.2Z" transform="translate(-608.936 -34.093)" fill="#fff"/>
    </g>
  </g>
</svg>
