<svg xmlns="http://www.w3.org/2000/svg" width="60.031" height="60" viewBox="0 0 60.031 60">
  <metadata><?xpacket begin="﻿" id="W5M0MpCehiHzreSzNTczkc9d"?>
<x:xmpmeta xmlns:x="adobe:ns:meta/" x:xmptk="Adobe XMP Core 5.6-c142 79.160924, 2017/07/13-01:06:39        ">
   <rdf:RDF xmlns:rdf="http://www.w3.org/1999/02/22-rdf-syntax-ns#">
      <rdf:Description rdf:about=""/>
   </rdf:RDF>
</x:xmpmeta>
                                                                                                    
                                                                                                    
                                                                                                    
                                                                                                    
                                                                                                    
                                                                                                    
                                                                                                    
                                                                                                    
                                                                                                    
                                                                                                    
                                                                                                    
                                                                                                    
                                                                                                    
                                                                                                    
                                                                                                    
                                                                                                    
                                                                                                    
                                                                                                    
                                                                                                    
                                                                                                    
                           
<?xpacket end="w"?></metadata>
<defs>
    <style>
      .cls-1 {
        fill: #5c5672;
        fill-rule: evenodd;
      }
    </style>
  </defs>
  <path class="cls-1" d="M757.294,3442.46a3.685,3.685,0,0,0-2.62,1.09l-11.5,11.49h-4.7a15.482,15.482,0,1,0-14.96,0h-4.7l-11.5-11.49a3.7,3.7,0,1,0-5.239,5.23h0l6.29,6.29a2.9,2.9,0,0,0-2.537,2.87v3.87a2.9,2.9,0,0,0,2.9,2.9h0.183l3.862,18.22a3.889,3.889,0,0,0,3.787,3.07H746a3.873,3.873,0,0,0,3.809-3.18l3.29-18.11h0.159a2.9,2.9,0,0,0,2.9-2.9v-3.87a2.907,2.907,0,0,0-2.54-2.87l6.291-6.28A3.707,3.707,0,0,0,757.294,3442.46Zm-39.844-.97A13.549,13.549,0,1,1,731,3455.04,13.543,13.543,0,0,1,717.45,3441.49Zm-14.516,4.67a1.776,1.776,0,0,1,3.021-1.25l10.127,10.13h-5.006l-7.624-7.62A1.772,1.772,0,0,1,702.934,3446.16Zm44.966,36.32a1.935,1.935,0,0,1-1.9,1.58h-29.42a1.942,1.942,0,0,1-1.894-1.53l-3.783-17.82h40.226Zm6.325-24.54v3.87a0.966,0.966,0,0,1-.968.97H708.74a0.967,0.967,0,0,1-.968-0.97v-3.87a0.973,0.973,0,0,1,.968-0.97h44.517A0.972,0.972,0,0,1,754.225,3457.94Zm4.32-10.52-7.624,7.62h-5l10.127-10.13a1.77,1.77,0,0,1,2.556,2.45q-0.026.03-.054,0.06h0ZM731,3482.13a2.9,2.9,0,0,0,2.9-2.9v-9.68a2.9,2.9,0,0,0-5.807,0v9.68A2.9,2.9,0,0,0,731,3482.13Zm-0.968-12.58a0.968,0.968,0,1,1,1.936,0v9.68a0.968,0.968,0,0,1-1.936,0v-9.68Zm10.645,12.58a2.9,2.9,0,0,0,2.9-2.9v-9.68a2.9,2.9,0,0,0-5.807,0v9.68A2.9,2.9,0,0,0,740.676,3482.13Zm-0.967-12.58a0.968,0.968,0,1,1,1.935,0v9.68a0.968,0.968,0,0,1-1.935,0v-9.68Zm-18.388,12.58a2.9,2.9,0,0,0,2.9-2.9v-9.68a2.9,2.9,0,0,0-5.806,0v9.68A2.9,2.9,0,0,0,721.321,3482.13Zm-0.968-12.58a0.968,0.968,0,1,1,1.936,0v9.68a0.968,0.968,0,0,1-1.936,0v-9.68Zm15.713-25.79,6.14-4.38a0.968,0.968,0,0,0,.226-1.35,0.958,0.958,0,0,0-.788-0.41h-7.071l-2.667-7.11a0.967,0.967,0,0,0-1.245-.57,0.984,0.984,0,0,0-.569.57l-2.667,7.11h-7.072a0.971,0.971,0,0,0-.562,1.76l6.141,4.38-2.6,6.06a0.968,0.968,0,0,0,.508,1.27,0.993,0.993,0,0,0,.944-0.1l6.212-4.44,6.212,4.44a0.969,0.969,0,0,0,1.451-1.17Zm-4.5.82a0.969,0.969,0,0,0-1.125,0l-3.96,2.82,1.541-3.59a0.968,0.968,0,0,0-.327-1.17l-4.316-3.08H728.1a0.966,0.966,0,0,0,.907-0.63l2-5.32,2,5.32a0.966,0.966,0,0,0,.907.63h4.722l-4.316,3.08a0.967,0.967,0,0,0-.328,1.17l1.541,3.59Z" transform="translate(-701 -3426)"/>
</svg>
