<svg xmlns="http://www.w3.org/2000/svg" width="60" height="60.03" viewBox="0 0 60 60.03">
  <metadata><?xpacket begin="﻿" id="W5M0MpCehiHzreSzNTczkc9d"?>
<x:xmpmeta xmlns:x="adobe:ns:meta/" x:xmptk="Adobe XMP Core 5.6-c142 79.160924, 2017/07/13-01:06:39        ">
   <rdf:RDF xmlns:rdf="http://www.w3.org/1999/02/22-rdf-syntax-ns#">
      <rdf:Description rdf:about=""/>
   </rdf:RDF>
</x:xmpmeta>
                                                                                                    
                                                                                                    
                                                                                                    
                                                                                                    
                                                                                                    
                                                                                                    
                                                                                                    
                                                                                                    
                                                                                                    
                                                                                                    
                                                                                                    
                                                                                                    
                                                                                                    
                                                                                                    
                                                                                                    
                                                                                                    
                                                                                                    
                                                                                                    
                                                                                                    
                                                                                                    
                           
<?xpacket end="w"?></metadata>
<defs>
    <style>
      .cls-1 {
        fill: #5c5672;
        fill-rule: evenodd;
      }
    </style>
  </defs>
  <path class="cls-1" d="M1312.48,3454.52a1.17,1.17,0,1,0,0,1.65A1.159,1.159,0,0,0,1312.48,3454.52Zm14.92-14.92a5.862,5.862,0,1,0,0,8.29A5.861,5.861,0,0,0,1327.4,3439.6Zm-1.66,6.63a3.514,3.514,0,1,1,0-4.97A3.519,3.519,0,0,1,1325.74,3446.23Zm14.92-19.89a1.183,1.183,0,0,0-.87-0.34,51.811,51.811,0,0,0-14.08,2.92,39.2,39.2,0,0,0-14.89,9.02c-0.86.87-1.71,1.79-2.51,2.75-3.83-2.26-6.9-1.55-8.84-.51-4.46,2.38-7.22,8.87-7.22,13.51a1.18,1.18,0,0,0,.72,1.08,1.2,1.2,0,0,0,.45.09,1.173,1.173,0,0,0,.83-0.34,7.423,7.423,0,0,1,6.21-2.08l0.41,0.41a41.155,41.155,0,0,0-1.94,5.69,3.362,3.362,0,0,0,.14,2.03,11.236,11.236,0,0,0-3.16,2.23c-3.02,3.02-3.63,10.37-3.66,10.68a1.2,1.2,0,0,0,.34.92,1.182,1.182,0,0,0,.83.35,0.277,0.277,0,0,0,.09-0.01c0.32-.02,7.67-0.63,10.68-3.65a11.215,11.215,0,0,0,2.24-3.16,3.316,3.316,0,0,0,2.03.14,41.155,41.155,0,0,0,5.69-1.94l0.41,0.41a7.43,7.43,0,0,1-2.08,6.21,1.175,1.175,0,0,0,.83,2c4.64,0,11.12-2.77,13.51-7.23,1.04-1.94,1.75-5-.51-8.83,0.96-.8,1.88-1.65,2.75-2.52a39.223,39.223,0,0,0,9.03-14.88,52.011,52.011,0,0,0,2.91-14.08A1.183,1.183,0,0,0,1340.66,3426.34Zm-45.79,24.83c0.73-3.53,2.84-7.39,5.71-8.93a6.257,6.257,0,0,1,6.24.3,46.605,46.605,0,0,0-4.92,8.02,1.29,1.29,0,0,0-.62-0.36A10.017,10.017,0,0,0,1294.87,3451.17Zm7.67,18.26c-1.61,1.61-5.39,2.46-7.78,2.81,0.34-2.39,1.19-6.17,2.8-7.78a8.428,8.428,0,0,1,3.01-1.97l3.94,3.94A8.528,8.528,0,0,1,1302.54,3469.43Zm5.34-3.63a1.092,1.092,0,0,1-1.02-.34c-1.52-1.51-2.11-2.1-2.3-2.29l-3.03-3.03a1.085,1.085,0,0,1-.33-1.02,40.89,40.89,0,0,1,1.46-4.48l9.7,9.69A38.955,38.955,0,0,1,1307.88,3465.8Zm16.88,0.62c-1.54,2.86-5.4,4.98-8.93,5.71a9.95,9.95,0,0,0,.96-6.44,1.194,1.194,0,0,0-.35-0.59,47.885,47.885,0,0,0,8.02-4.92A6.257,6.257,0,0,1,1324.76,3466.42Zm2.64-11.9a44.222,44.222,0,0,1-12.72,8.82l-11.02-11.02a44.222,44.222,0,0,1,8.82-12.72,36.544,36.544,0,0,1,13.32-8.22l9.82,9.82A36.628,36.628,0,0,1,1327.4,3454.52Zm9.07-15.79-8.2-8.2a53.51,53.51,0,0,1,10.29-2.09A53.51,53.51,0,0,1,1336.47,3438.73Zm-27.3,35.67a1.189,1.189,0,0,0-1.66,0l-3.31,3.32a1.17,1.17,0,1,0,1.65,1.66l3.32-3.32A1.189,1.189,0,0,0,1309.17,3474.4Zm-16.58-16.57a1.159,1.159,0,0,0-1.65,0l-3.32,3.32a1.159,1.159,0,0,0,0,1.65,1.171,1.171,0,0,0,1.66,0l3.31-3.31A1.171,1.171,0,0,0,1292.59,3457.83Zm8.29,18.23a1.171,1.171,0,0,0-1.66,0l-7.94,7.94a1.174,1.174,0,0,0,1.66,1.66l7.94-7.94A1.171,1.171,0,0,0,1300.88,3476.06Zm-9.38,0a1.159,1.159,0,0,0-1.65,0l-7.94,7.94a1.171,1.171,0,0,0,0,1.66,1.189,1.189,0,0,0,1.66,0l7.93-7.94A1.171,1.171,0,0,0,1291.5,3476.06Zm-0.56-9.94a1.171,1.171,0,0,0-1.66,0l-7.94,7.94a1.159,1.159,0,0,0,0,1.65,1.171,1.171,0,0,0,1.66,0l7.94-7.94A1.177,1.177,0,0,0,1290.94,3466.12Zm26.51-16.58a1.177,1.177,0,0,0-1.65,0l-1.66,1.66a1.174,1.174,0,0,0,1.66,1.66l1.65-1.66A1.171,1.171,0,0,0,1317.45,3449.54Z" transform="translate(-1281 -3426)"/>
</svg>
