<svg width="282" height="282" viewBox="0 0 282 282" fill="none" xmlns="http://www.w3.org/2000/svg">
<path d="M257.077 164.838L275.694 171.803L271.282 183.597L252.665 176.632L251.85 178.808L272.438 186.511L278.479 170.364L257.891 162.662L257.077 164.838Z" fill="white"/>
<path d="M251.812 184.039L255.598 189.473L249.601 199.314L243.004 198.493L241.729 200.584L265.722 203.696L266.849 201.846L253.07 181.975L251.812 184.039ZM263.8 201.237L251.736 199.732L256.933 191.205L263.8 201.237Z" fill="white"/>
<path d="M239.563 205.978L246.871 212.361L242.326 217.564C239.434 220.875 239.543 224.473 242.357 226.932C245.101 229.328 248.681 228.953 251.573 225.642L257.647 218.688L241.091 204.228L239.563 205.978ZM254.533 219.054L250.092 224.139C248.047 226.481 245.781 226.878 243.818 225.164C241.902 223.49 241.968 221.171 244.014 218.83L248.455 213.745L254.533 219.054Z" fill="white"/>
<path d="M231.455 218.438C231.313 218.511 231.068 218.707 230.749 218.962C228.25 221.118 227.978 223.545 229.623 227.014C230.759 229.442 232.257 231.621 234.687 234.865L237.699 238.889L230.534 244.611L218.131 229.078L216.315 230.528L230.031 247.705L240.779 239.123L237.135 234.357C236.238 233.184 235.459 232.159 234.842 231.285C234.225 230.412 233.613 229.494 232.986 228.508C232.354 227.566 231.914 226.712 231.615 225.986C230.641 223.709 230.491 221.86 232.061 220.606C232.38 220.352 232.645 220.18 232.788 220.107L231.455 218.438Z" fill="white"/>
<path d="M213.403 235.082L213.866 241.688L203.669 247.058L198.427 242.969L196.26 244.11L215.258 259.091L217.175 258.081L215.543 233.955L213.403 235.082ZM214.87 255.995L205.287 248.513L214.122 243.86L214.87 255.995Z" fill="white"/>
<path d="M192.462 248.271L197.347 266.077L187.809 258.73L186.447 259.104L182.054 270.273L177.169 252.467L174.958 253.073L180.774 274.271L182.954 273.673L187.8 261.305L198.278 269.469L200.488 268.863L194.672 247.664L192.462 248.271Z" fill="white"/>
<path d="M154.567 257.35L154.79 259.442L167.936 258.038L168.853 266.624L158.456 267.735L158.679 269.827L169.077 268.716L169.824 275.711L157.147 277.065L157.371 279.157L172.358 277.556L170.023 255.699L154.567 257.35Z" fill="white"/>
<path d="M148.894 259.299L147.986 270L134.97 268.896L135.878 258.195L133.562 257.998L131.704 279.901L134.019 280.098L134.792 270.992L147.808 272.097L147.036 281.202L149.351 281.399L151.21 259.496L148.894 259.299Z" fill="white"/>
<path d="M120.076 256.604L115.446 275.935L107.994 274.15L107.504 276.196L124.575 280.285L125.065 278.239L117.706 276.476L122.336 257.145L120.076 256.604Z" fill="white"/>
<path d="M94.5272 249.023C91.4042 247.339 87.9823 247.134 85.3251 248.091L80.8375 256.41L82.855 257.498L86.9103 249.981C88.9951 249.357 91.1769 249.678 93.4985 250.93C95.6818 252.108 97.131 253.853 97.831 256.193C98.5034 258.518 98.206 260.855 96.9387 263.205C95.6715 265.554 93.8667 267.114 91.5267 267.814C89.1866 268.514 86.8622 268.259 84.5959 267.036C82.3573 265.829 80.7252 264.092 79.6594 261.768L78.5412 263.841C79.5285 265.98 81.2457 267.691 83.6778 269.003C86.5244 270.538 89.3805 270.866 92.3162 269.988C95.2093 269.122 97.4312 267.252 98.9966 264.35C100.562 261.449 100.919 258.537 100.054 255.644C99.1608 252.736 97.3186 250.529 94.5272 249.023Z" fill="white"/>
<path d="M67.7681 258.304C70.7752 258.023 73.3172 256.642 75.418 254.183C77.5188 251.724 78.5053 248.973 78.3129 245.959C78.1204 242.945 76.8083 240.42 74.3967 238.36C71.9851 236.3 69.3099 235.419 66.3028 235.7C63.2958 235.981 60.7095 237.365 58.6087 239.824C56.5079 242.284 55.5657 245.031 55.7581 248.045C55.9505 251.059 57.2184 253.587 59.63 255.647C62.0415 257.707 64.761 258.585 67.7681 258.304ZM75.9798 246.032C76.1031 248.45 75.3201 250.672 73.6272 252.653C71.9343 254.635 69.862 255.756 67.4543 256.012C65.0467 256.268 62.8997 255.591 61.0373 254C59.1749 252.409 58.1701 250.394 58.0468 247.976C57.9235 245.558 58.7066 243.336 60.3995 241.354C62.0923 239.372 64.1647 238.252 66.5724 237.995C68.98 237.739 71.127 238.417 72.9894 240.008C74.8518 241.599 75.8565 243.613 75.9798 246.032Z" fill="white"/>
<path d="M37.3017 211.472L35.5369 212.617L47.6068 231.214L49.3716 230.068L37.3017 211.472Z" fill="white"/>
<path d="M34.6917 195.22L15.8678 201.606L11.8225 189.681L30.6465 183.295L29.9 181.095L9.08357 188.156L14.6219 204.482L35.4383 197.421L34.6917 195.22Z" fill="white"/>
<path d="M26.5977 176.971L20.2299 175.153L18.6595 163.736L24.2913 160.203L23.9575 157.777L3.3959 170.526L3.69115 172.673L26.9271 179.367L26.5977 176.971ZM6.43883 171.217L16.7401 164.76L18.1008 174.653L6.43883 171.217Z" fill="white"/>
<path d="M22.2617 152.559L12.563 152.26L12.776 145.355C12.9116 140.961 10.5447 138.249 6.80962 138.134C3.1687 138.021 0.639156 140.582 0.503598 144.976L0.218931 154.204L22.19 154.882L22.2617 152.559ZM2.39353 151.947L2.60171 145.198C2.69756 142.091 4.19657 140.346 6.80171 140.427C9.34408 140.505 10.7641 142.34 10.6682 145.447L10.4601 152.195L2.39353 151.947Z" fill="white"/>
<path d="M20.6305 137.114C20.6948 136.967 20.762 136.661 20.8494 136.262C21.4328 133.014 20.1156 130.957 16.6537 129.298C14.2422 128.127 11.706 127.378 7.77594 126.388L2.90175 125.158L4.86524 116.202L24.2818 120.458L24.7794 118.188L3.30769 113.481L0.362461 126.916L6.19426 128.323C7.62921 128.67 8.88011 128.976 9.90957 129.266C10.939 129.556 11.9924 129.884 13.1005 130.255C14.1846 130.589 15.0644 130.975 15.7535 131.351C17.9435 132.506 19.2246 133.848 18.7943 135.811C18.7069 136.21 18.609 136.51 18.5447 136.657L20.6305 137.114Z" fill="white"/>
<path d="M24.1209 112.718L19.6148 107.865L24.1832 97.2845L30.8303 97.1788L31.8013 94.9301L7.609 95.1904L6.75009 97.1796L23.1624 114.938L24.1209 112.718ZM9.85448 97.3571L22.0106 97.1673L18.0521 106.335L9.85448 97.3571Z" fill="white"/>
<path d="M31.9117 89.6625L16.9044 78.9053L28.9404 78.6077L29.7636 77.4592L26.1432 66.0164L41.1505 76.7736L42.486 74.9104L24.6201 62.1042L23.3029 63.9419L27.3266 76.601L14.0459 76.8563L12.7103 78.7195L30.5762 91.5257L31.9117 89.6625Z" fill="white"/>
<path d="M55.5144 58.8031L54.0246 57.3175L44.6898 66.679L38.5748 60.5814L45.9584 53.1767L44.4686 51.6911L37.0849 59.0958L32.104 54.1291L41.1063 45.1011L39.6164 43.6155L28.9734 54.289L44.5388 69.8101L55.5144 58.8031Z" fill="white"/>
<path d="M59.0667 53.2701L53.057 44.3694L63.8836 37.0594L69.8932 45.9601L71.8191 44.6598L59.5187 26.442L57.5928 27.7423L62.7063 35.3157L51.8797 42.6257L46.7662 35.0523L44.8404 36.3526L57.1408 54.5704L59.0667 53.2701Z" fill="white"/>
<path d="M82.4402 37.623L73.8258 19.709L80.731 16.3885L79.8192 14.4923L63.9995 22.0997L64.9113 23.9958L71.7316 20.7161L80.346 38.6301L82.4402 37.623Z" fill="white"/>
<path d="M107.112 27.2357C110.597 26.5678 113.378 24.5639 114.833 22.1429L113.054 12.8598L110.802 13.2913L112.41 21.68C111.188 23.4809 109.295 24.6112 106.704 25.1077C104.268 25.5746 102.042 25.138 100.02 23.7668C98.0299 22.3898 96.7835 20.3905 96.281 17.769C95.7786 15.1476 96.1916 12.7983 97.5627 10.7769C98.9339 8.75558 100.896 7.48417 103.425 6.99947C105.923 6.52068 108.286 6.83527 110.58 7.96226L110.137 5.64919C108.02 4.61601 105.608 4.37493 102.894 4.8951C99.7175 5.50393 97.297 7.05495 95.5769 9.59083C93.8816 12.09 93.3414 14.9432 93.962 18.1815C94.5827 21.4198 96.1455 23.902 98.6447 25.5972C101.175 27.2866 103.997 27.8327 107.112 27.2357Z" fill="white"/>
<path d="M121.254 3.12902C119.108 5.25469 118.02 7.93474 117.958 11.1686C117.895 14.4024 118.878 17.1539 120.94 19.3609C123.002 21.5679 125.618 22.6864 128.789 22.7477C131.96 22.809 134.587 21.792 136.732 19.6663C138.878 17.5406 139.998 14.8298 140.061 11.5959C140.123 8.36212 139.108 5.6414 137.046 3.43438C134.985 1.22735 132.4 0.0780963 129.229 0.0167817C126.058 -0.0445327 123.399 1.00335 121.254 3.12902ZM122.697 17.8245C121.067 16.0341 120.262 13.82 120.312 11.2141C120.363 8.6082 121.253 6.42685 122.951 4.70083C124.649 2.97481 126.738 2.13578 129.187 2.18313C131.636 2.23048 133.691 3.14965 135.321 4.94002C136.951 6.73038 137.756 8.94452 137.706 11.5504C137.656 14.1563 136.765 16.3377 135.067 18.0637C133.369 19.7897 131.28 20.6287 128.831 20.5814C126.382 20.534 124.327 19.6149 122.697 17.8245Z" fill="white"/>
<path d="M175.129 19.9728L175.775 17.9705L154.675 11.1645L154.029 13.1668L175.129 19.9728Z" fill="white"/>
<path d="M187.577 30.853L198.175 14.0358L208.828 20.749L198.231 37.5662L200.197 38.8051L211.916 20.2079L197.33 11.0169L185.611 29.6141L187.577 30.853Z" fill="white"/>
<path d="M205.738 40.107L211.834 37.5205L220.23 45.4155L218.068 51.7022L219.853 53.3802L227.837 30.542L226.259 29.0577L203.977 38.4506L205.738 40.107ZM225.036 31.9166L221.079 43.4123L213.805 36.5714L225.036 31.9166Z" fill="white"/>
<path d="M224.779 56.6751L232.513 50.8153L236.685 56.3218C239.34 59.8259 242.885 60.4492 245.863 58.1926C248.767 55.9928 249.126 52.4111 246.471 48.907L240.896 41.5483L223.375 54.8229L224.779 56.6751ZM240.622 44.6711L244.7 50.0524C246.577 52.5303 246.507 54.8294 244.429 56.4033C242.402 57.9394 240.144 57.404 238.267 54.9261L234.19 49.5447L240.622 44.6711Z" fill="white"/>
<path d="M235.186 66.8319C235.229 66.9861 235.371 67.2661 235.556 67.63C237.162 70.5126 239.484 71.2699 243.213 70.361C245.822 69.7402 248.258 68.7132 251.927 66.99L256.477 64.8539L260.631 73.0285L242.91 82.0333L243.963 84.105L263.559 74.1471L257.329 61.8852L251.925 64.4903C250.595 65.1309 249.433 65.6861 248.452 66.1138C247.472 66.5415 246.449 66.9554 245.357 67.3698C244.306 67.7979 243.381 68.0567 242.61 68.2021C240.183 68.6954 238.342 68.4686 237.432 66.6769C237.247 66.313 237.132 66.0188 237.089 65.8646L235.186 66.8319Z" fill="white"/>
<path d="M247.961 87.9163L254.522 88.8138L257.695 99.893L252.621 104.188L253.295 106.543L271.842 91.0072L271.246 88.9242L247.295 85.5918L247.961 87.9163ZM268.732 90.7547L259.45 98.6065L256.701 89.0065L268.732 90.7547Z" fill="white"/>
<path d="M256.704 111.359L275.135 110.235L265.985 118.061L266.071 119.471L276.1 126.064L257.669 127.188L257.809 129.476L279.75 128.138L279.612 125.881L268.503 118.599L278.645 110.021L278.506 107.733L256.565 109.071L256.704 111.359Z" fill="white"/>
<path d="M257.846 150.134L259.94 150.344L261.26 137.19L269.853 138.052L268.808 148.457L270.902 148.667L271.946 138.262L278.945 138.965L277.672 151.651L279.765 151.861L281.271 136.863L259.399 134.667L257.846 150.134Z" fill="white"/>
</svg>
