<svg xmlns="http://www.w3.org/2000/svg" xmlns:xlink="http://www.w3.org/1999/xlink" width="52.5" height="60" viewBox="0 0 52.5 60">
  <defs>
    <linearGradient id="linear-gradient" x1="1" y1="0.5" x2="0" y2="0.5" gradientUnits="objectBoundingBox">
      <stop offset="0" stop-color="#483aeb"/>
      <stop offset="1" stop-color="#007eff"/>
    </linearGradient>
  </defs>
  <path id="Контур_4022" data-name="Контур 4022" d="M26.25-18.75A16.879,16.879,0,0,0,43.125-35.625,16.879,16.879,0,0,0,26.25-52.5,16.879,16.879,0,0,0,9.375-35.625,16.879,16.879,0,0,0,26.25-18.75Zm0-28.125A11.268,11.268,0,0,1,37.5-35.625a11.268,11.268,0,0,1-11.25,11.25A11.268,11.268,0,0,1,15-35.625,11.268,11.268,0,0,1,26.25-46.875Zm10.77,30.023L30.4,1.254,28.125-8.437,31.875-15H20.625l3.75,6.562L22.09,1.254,15.469-16.851A15.737,15.737,0,0,0,0-1.125v3A5.626,5.626,0,0,0,5.625,7.5h41.25A5.626,5.626,0,0,0,52.5,1.875v-3A15.739,15.739,0,0,0,37.019-16.851ZM11.25,1.875H5.625v-3a10.16,10.16,0,0,1,6.211-9.3l4.5,12.3Zm35.625,0h-10.7l4.488-12.3a10.178,10.178,0,0,1,6.211,9.3Z" transform="translate(0 52.5)" fill="url(#linear-gradient)"/>
</svg>
