<svg xmlns="http://www.w3.org/2000/svg" xmlns:xlink="http://www.w3.org/1999/xlink" width="75" height="60" viewBox="0 0 75 60">
  <defs>
    <linearGradient id="linear-gradient" x1="1" y1="0.5" x2="0" y2="0.5" gradientUnits="objectBoundingBox">
      <stop offset="0" stop-color="#483aeb"/>
      <stop offset="1" stop-color="#007eff"/>
    </linearGradient>
  </defs>
  <path id="Контур_4024" data-name="Контур 4024" d="M73.125-9.375H71.25V-22.98a8.485,8.485,0,0,0-2.473-5.965l-9.832-9.832A8.506,8.506,0,0,0,52.98-41.25H48.75v-4.687A6.567,6.567,0,0,0,42.187-52.5H14.062A6.567,6.567,0,0,0,7.5-45.937v4.687H.937A.94.94,0,0,0,0-40.312v1.875a.94.94,0,0,0,.937.937H29.062A.94.94,0,0,0,30-38.437v-1.875a.94.94,0,0,0-.937-.937H13.125v-4.687a.94.94,0,0,1,.937-.937H42.187a.94.94,0,0,1,.937.938V-9.375H28.441A11.186,11.186,0,0,0,18.75-15a11.19,11.19,0,0,0-5.625,1.559V-18.75H7.5v15A11.253,11.253,0,0,0,18.75,7.5,11.253,11.253,0,0,0,30-3.75H45A11.253,11.253,0,0,0,56.25,7.5,11.253,11.253,0,0,0,67.5-3.75h5.625A1.881,1.881,0,0,0,75-5.625V-7.5A1.881,1.881,0,0,0,73.125-9.375ZM18.75,1.875A5.626,5.626,0,0,1,13.125-3.75,5.626,5.626,0,0,1,18.75-9.375,5.626,5.626,0,0,1,24.375-3.75,5.626,5.626,0,0,1,18.75,1.875Zm30-37.5h4.23a2.881,2.881,0,0,1,1.992.82l8.555,8.555H48.75Zm7.5,37.5A5.626,5.626,0,0,1,50.625-3.75,5.626,5.626,0,0,1,56.25-9.375,5.626,5.626,0,0,1,61.875-3.75,5.626,5.626,0,0,1,56.25,1.875ZM65.625-9.949A11.248,11.248,0,0,0,56.25-15a11.175,11.175,0,0,0-7.5,2.918v-8.543H65.625ZM30-23.437v-1.875a.94.94,0,0,0-.937-.937H.937A.94.94,0,0,0,0-25.312v1.875a.94.94,0,0,0,.937.937H29.062A.94.94,0,0,0,30-23.437ZM32.812-30a.94.94,0,0,0,.938-.937v-1.875a.94.94,0,0,0-.937-.937H4.687a.94.94,0,0,0-.937.938v1.875A.94.94,0,0,0,4.687-30Z" transform="translate(0 52.5)" fill="url(#linear-gradient)"/>
</svg>
