<svg width="16" height="11" viewBox="0 0 16 11" fill="none" xmlns="http://www.w3.org/2000/svg">
<path fill-rule="evenodd" clip-rule="evenodd" d="M2.35099 0.00533304H0.600254C0.100042 0.00533304 0 0.257929 0 0.531574C0 1.01572 0.600254 3.43642 2.76117 6.63597C4.21178 8.8146 6.25265 10.0039 8.10343 10.0039C9.2139 10.0039 9.35396 9.74079 9.35396 9.28822V7.63582C9.35396 7.10958 9.454 7.00433 9.81415 7.00433C10.0743 7.00433 10.5144 7.14116 11.5549 8.19364C12.7454 9.44609 12.9355 10.0039 13.6058 10.0039H15.3565C15.8567 10.0039 16.1068 9.74079 15.9568 9.22507C15.8067 8.69883 15.2364 7.96209 14.4861 7.06748C14.086 6.55177 13.4657 6.015 13.2856 5.74136C13.0255 5.38351 13.0855 5.22564 13.2856 4.92042C13.2856 4.92042 15.4165 1.76298 15.6366 0.678922C15.7467 0.289503 15.6366 0.00533304 15.1064 0.00533304H13.3556C13.1919 -0.00496725 13.0294 0.0407124 12.8924 0.135554C12.7554 0.230396 12.6511 0.369314 12.5953 0.531574C12.5953 0.531574 11.6949 2.80493 10.4444 4.28893C10.0342 4.72045 9.84416 4.85727 9.62407 4.85727C9.52403 4.85727 9.35396 4.72045 9.35396 4.33103V0.678922C9.35396 0.21583 9.2239 0.00533304 8.85375 0.00533304H6.10258C5.82246 0.00533304 5.65239 0.215829 5.65239 0.426326C5.65239 0.868368 6.29266 0.973616 6.35269 2.21554V4.93095C6.35269 5.53086 6.25265 5.63611 6.03255 5.63611C5.4323 5.63611 3.99169 3.3417 3.13132 0.721021C2.97126 0.21583 2.80118 0.00533304 2.35099 0.00533304Z" fill="#2F80ED"/>
</svg>
