<svg width="34" height="34" viewBox="0 0 34 34" fill="none" xmlns="http://www.w3.org/2000/svg">
<path d="M28.5056 0H5.4944C4.03719 0 2.63967 0.578873 1.60927 1.60927C0.578873 2.63967 0 4.03719 0 5.4944L0 28.5056C0 29.9628 0.578873 31.3603 1.60927 32.3907C2.63967 33.4211 4.03719 34 5.4944 34H28.5056C29.9628 34 31.3603 33.4211 32.3907 32.3907C33.4211 31.3603 34 29.9628 34 28.5056V5.4944C34 4.03719 33.4211 2.63967 32.3907 1.60927C31.3603 0.578873 29.9628 0 28.5056 0V0ZM30.6 28.5056C30.6 29.0611 30.3793 29.5938 29.9866 29.9866C29.5938 30.3793 29.0611 30.6 28.5056 30.6H5.4944C4.93893 30.6 4.40621 30.3793 4.01344 29.9866C3.62066 29.5938 3.4 29.0611 3.4 28.5056V5.4944C3.4 4.93893 3.62066 4.40621 4.01344 4.01344C4.40621 3.62066 4.93893 3.4 5.4944 3.4H28.5056C29.0611 3.4 29.5938 3.62066 29.9866 4.01344C30.3793 4.40621 30.6 4.93893 30.6 5.4944V28.5056Z" fill="#142328"/>
<path d="M25.5 8.16016H8.49999C8.04912 8.16016 7.61672 8.33926 7.29791 8.65807C6.97909 8.97689 6.79999 9.40929 6.79999 9.86016C6.79999 10.311 6.97909 10.7434 7.29791 11.0622C7.61672 11.381 8.04912 11.5602 8.49999 11.5602H25.5C25.9509 11.5602 26.3833 11.381 26.7021 11.0622C27.0209 10.7434 27.2 10.311 27.2 9.86016C27.2 9.40929 27.0209 8.97689 26.7021 8.65807C26.3833 8.33926 25.9509 8.16016 25.5 8.16016ZM25.5 15.6402H8.49999C8.04912 15.6402 7.61672 15.8193 7.29791 16.1381C6.97909 16.4569 6.79999 16.8893 6.79999 17.3402C6.79999 17.791 6.97909 18.2234 7.29791 18.5422C7.61672 18.861 8.04912 19.0402 8.49999 19.0402H25.5C25.9509 19.0402 26.3833 18.861 26.7021 18.5422C27.0209 18.2234 27.2 17.791 27.2 17.3402C27.2 16.8893 27.0209 16.4569 26.7021 16.1381C26.3833 15.8193 25.9509 15.6402 25.5 15.6402Z" fill="#142328"/>
<path d="M22.78 23.1201H8.49999C7.5611 23.1201 6.79999 23.8812 6.79999 24.8201C6.79999 25.759 7.5611 26.5201 8.49999 26.5201H22.78C23.7189 26.5201 24.48 25.759 24.48 24.8201C24.48 23.8812 23.7189 23.1201 22.78 23.1201Z" fill="#06C167"/>
</svg>
