<svg width="18" height="26" viewBox="0 0 18 26" fill="none" xmlns="http://www.w3.org/2000/svg">
<g clip-path="url(#clip0_25_346)">
<path d="M13.8636 10.5952V5.41554C13.8255 4.00445 13.2471 2.66413 12.2512 1.67973C11.2554 0.695324 9.92075 0.144531 8.5313 0.144531C7.14185 0.144531 5.80723 0.695324 4.81138 1.67973C3.81553 2.66413 3.23705 4.00445 3.19902 5.41554V10.5952C1.81867 11.7177 0.815584 13.248 0.328398 14.9747C-0.158788 16.7014 -0.106016 18.5393 0.479421 20.2342C1.06486 21.9291 2.15405 23.3974 3.59645 24.4362C5.03886 25.475 6.76325 26.0329 8.5313 26.0329C10.2993 26.0329 12.0237 25.475 13.4661 24.4362C14.9085 23.3974 15.9977 21.9291 16.5832 20.2342C17.1686 18.5393 17.2214 16.7014 16.7342 14.9747C16.247 13.248 15.2439 11.7177 13.8636 10.5952ZM8.5293 2.16554C9.37772 2.16554 10.1914 2.50795 10.7913 3.11744C11.3912 3.72694 11.7283 4.55359 11.7283 5.41554V9.34398C9.67286 8.51932 7.38574 8.51932 5.33033 9.34398V5.41554C5.33033 4.55359 5.66736 3.72694 6.26729 3.11744C6.86721 2.50795 7.68088 2.16554 8.5293 2.16554ZM9.59695 23.7374V20.2843C10.0045 20.0459 10.3231 19.6774 10.5034 19.2362C10.6837 18.795 10.7156 18.3056 10.5941 17.844C10.4727 17.3825 10.2046 16.9746 9.83165 16.6837C9.45865 16.3927 9.00155 16.235 8.5313 16.235C8.06104 16.235 7.60394 16.3927 7.23094 16.6837C6.85794 16.9746 6.58991 17.3825 6.46845 17.844C6.34698 18.3056 6.37888 18.795 6.55919 19.2362C6.7395 19.6774 7.05814 20.0459 7.46564 20.2843V23.7374C6.21533 23.5204 5.05673 22.9307 4.13702 22.0433C3.2173 21.1559 2.57799 20.0107 2.30029 18.7533C2.02259 17.4959 2.11904 16.183 2.57738 14.9815C3.03573 13.7799 3.83528 12.7438 4.87448 12.0049C5.95107 11.2568 7.22497 10.8566 8.5293 10.8566C9.83362 10.8566 11.1075 11.2568 12.1841 12.0049C13.2233 12.7436 14.0229 13.7793 14.4814 14.9806C14.94 16.1818 15.0368 17.4945 14.7596 18.7518C14.4823 20.0091 13.8435 21.1543 12.9243 22.042C12.0051 22.9297 10.847 23.5198 9.59695 23.7374Z" fill="#142328"/>
</g>
<defs>
<clipPath id="clip0_25_346">
<rect width="17.0625" height="26" fill="white"/>
</clipPath>
</defs>
</svg>
