<svg width="38" height="30" viewBox="0 0 38 30" fill="none" xmlns="http://www.w3.org/2000/svg">
<path fill-rule="evenodd" clip-rule="evenodd" d="M8.79494 1.01593C9.52253 1.501 9.71913 2.48404 9.23408 3.21162L4.54182 10.25H12.6667C15.29 10.25 17.4167 12.3767 17.4167 15V24.5C17.4167 27.1234 15.29 29.25 12.6667 29.25H4.75C2.12665 29.25 0 27.1234 0 24.5V12.7922C0 12.3015 0.0759946 11.8166 0.222956 11.354C0.356877 10.9324 0.549751 10.5293 0.797761 10.1573L6.59925 1.45507C7.08431 0.727495 8.06735 0.530877 8.79494 1.01593ZM3.16667 13.4167V24.5C3.16667 25.3745 3.87556 26.0833 4.75 26.0833H12.6667C13.5411 26.0833 14.25 25.3745 14.25 24.5V15C14.25 14.1255 13.5411 13.4167 12.6667 13.4167H3.16667ZM29.3783 1.01593C30.1058 1.501 30.3025 2.48404 29.8175 3.21162L25.1251 10.25H33.25C35.8734 10.25 38 12.3767 38 15V24.5C38 27.1234 35.8734 29.25 33.25 29.25H25.3333C22.7099 29.25 20.5833 27.1234 20.5833 24.5V12.7922C20.5833 12.3015 20.6593 11.8166 20.8063 11.354C20.9402 10.9324 21.1331 10.5293 21.381 10.1573L27.1825 1.45507C27.6676 0.727495 28.6507 0.530877 29.3783 1.01593ZM23.75 13.4167V24.5C23.75 25.3745 24.4589 26.0833 25.3333 26.0833H33.25C34.1245 26.0833 34.8333 25.3745 34.8333 24.5V15C34.8333 14.1255 34.1245 13.4167 33.25 13.4167H23.75Z" fill="#06C167"/>
</svg>
