<svg width="117" height="82" viewBox="0 0 117 82" fill="none" xmlns="http://www.w3.org/2000/svg">
<path d="M117 71.75V10.25C117 4.57833 112.392 0 106.683 0H10.3175C4.60847 0 0 4.57833 0 10.25V71.75C0 77.4217 4.60847 82 10.3175 82H106.683C112.392 82 117 77.4217 117 71.75ZM107.989 9.49833C110.259 11.7533 109.021 14.0767 107.783 15.2383L79.8571 40.6583L106.683 68.4017C107.508 69.3583 108.058 70.8617 107.095 71.8867C106.201 72.98 104.138 72.9117 103.243 72.2283L73.1852 46.74L58.4656 60.065L43.8148 46.74L13.7566 72.2283C12.8624 72.9117 10.7989 72.98 9.90476 71.8867C8.9418 70.8617 9.49206 69.3583 10.3175 68.4017L37.1429 40.6583L9.21693 15.2383C7.97884 14.0767 6.74074 11.7533 9.01058 9.49833C11.2804 7.24333 13.619 8.33667 15.545 9.97667L58.4656 44.4167L101.455 9.97667C103.381 8.33667 105.72 7.24333 107.989 9.49833Z" fill="url(#paint0_linear_287_4131)"/>
<defs>
<linearGradient id="paint0_linear_287_4131" x1="58.5" y1="0" x2="58.5" y2="82" gradientUnits="userSpaceOnUse">
<stop stop-opacity="0.39"/>
<stop offset="1"/>
</linearGradient>
</defs>
</svg>
