<svg id="Слой_1" data-name="Слой 1" xmlns="http://www.w3.org/2000/svg" xmlns:xlink="http://www.w3.org/1999/xlink" viewBox="0 0 451.75 347.67"><defs><style>.cls-1{fill:url(#Безымянный_градиент_4);}.cls-2{fill:url(#Безымянный_градиент_4-2);}.cls-3{fill:url(#Безымянный_градиент_4-3);}.cls-4{fill:url(#Безымянный_градиент_4-4);}.cls-5{fill:#3a1d5e;}</style><linearGradient id="Безымянный_градиент_4" x1="567.95" y1="622.48" x2="480.11" y2="497.31" gradientTransform="matrix(1, 0, 0, -1, 0, 1080)" gradientUnits="userSpaceOnUse"><stop offset="0" stop-color="#742578"/><stop offset="1" stop-color="#302152"/></linearGradient><linearGradient id="Безымянный_градиент_4-2" x1="520.14" y1="656.01" x2="421.44" y2="515.35" xlink:href="#Безымянный_градиент_4"/><linearGradient id="Безымянный_градиент_4-3" x1="556.78" y1="630.29" x2="458.07" y2="489.64" xlink:href="#Безымянный_градиент_4"/><linearGradient id="Безымянный_градиент_4-4" x1="593.42" y1="604.58" x2="494.72" y2="463.93" xlink:href="#Безымянный_градиент_4"/></defs><path class="cls-1" d="M625.56,591.61a8.26,8.26,0,0,1-6.26-2.88c-2.93-3.42-5.28-6.36-7.16-8.72-5.21-6.51-6.57-8-9.18-8.8C598.89,570,590.9,570,576.4,570l-106.63,0a56.66,56.66,0,0,1-56.6-56.6V473.6a56.85,56.85,0,0,1,40-54.1A56.69,56.69,0,0,1,508.83,373h96.73a56.66,56.66,0,0,1,56.6,56.6v60.8a8.24,8.24,0,1,1-16.47,0v-60.8a40.17,40.17,0,0,0-40.13-40.13H508.83a40.17,40.17,0,0,0-40.13,40.13v39.83a40.17,40.17,0,0,0,40.13,40.13H625.56a8.23,8.23,0,0,1,8.23,8.24v65.58a8.23,8.23,0,0,1-5.38,7.72A8,8,0,0,1,625.56,591.61ZM583,553.53c19.89,0,26.84.64,34.33,7.56V526H508.83a56.66,56.66,0,0,1-56.6-56.6v-31.9a40.41,40.41,0,0,0-22.59,36.07v39.83a40.17,40.17,0,0,0,40.13,40.13Z" transform="translate(-311.64 -372.99)"/><path class="cls-2" d="M511.46,449.55a9.25,9.25,0,1,0-9.25,9.25A9.26,9.26,0,0,0,511.46,449.55Z" transform="translate(-311.64 -372.99)"/><path class="cls-3" d="M566.14,449.55a9.25,9.25,0,1,0-9.25,9.25A9.26,9.26,0,0,0,566.14,449.55Z" transform="translate(-311.64 -372.99)"/><path class="cls-4" d="M620.83,449.55a9.26,9.26,0,1,0-9.25,9.25A9.26,9.26,0,0,0,620.83,449.55Z" transform="translate(-311.64 -372.99)"/><path class="cls-5" d="M384.85,639.88a23.39,23.39,0,0,0-5.24-5.91,24.49,24.49,0,0,0-15.42-5.39,27.55,27.55,0,0,0-13.48,3.07,25.4,25.4,0,0,0-9,8.24,36,36,0,0,0-5,11.75,58.35,58.35,0,0,0-1.57,13.62,54.31,54.31,0,0,0,1.57,13.1,35.48,35.48,0,0,0,5,11.46,25.74,25.74,0,0,0,9,8.16,27.38,27.38,0,0,0,13.48,3.07q10.79,0,16.85-6.59t7.41-17.37h22.76a54.51,54.51,0,0,1-4.64,18.12A43.6,43.6,0,0,1,396.69,709a42,42,0,0,1-14.37,8.68,52.59,52.59,0,0,1-18.12,3,54.75,54.75,0,0,1-22.09-4.27,47.34,47.34,0,0,1-16.55-11.75,52,52,0,0,1-10.33-17.59,64.48,64.48,0,0,1-3.59-21.79A67,67,0,0,1,315.23,643a53.47,53.47,0,0,1,10.33-17.89,47.3,47.3,0,0,1,16.55-12,57.33,57.33,0,0,1,38.79-1.79A45.46,45.46,0,0,1,395,618.77a40.24,40.24,0,0,1,10.26,12.05,43,43,0,0,1,5.09,16.47H387.57A19.46,19.46,0,0,0,384.85,639.88Z" transform="translate(-311.64 -372.99)"/><path class="cls-5" d="M446.25,611.35v40.28h.45A24.7,24.7,0,0,1,457,641.82a28,28,0,0,1,12.28-3.07q8.54,0,14,2.32a20.79,20.79,0,0,1,8.61,6.44,24.93,24.93,0,0,1,4.42,10,62.27,62.27,0,0,1,1.27,13.1v47.62H476.35V674.54q0-9.59-3-14.3t-10.63-4.72q-8.69,0-12.58,5.17t-3.89,17v40.58H425V611.35Z" transform="translate(-311.64 -372.99)"/><path class="cls-5" d="M516.62,652.23a25.55,25.55,0,0,1,8.38-7.94A36.45,36.45,0,0,1,536.45,640a65,65,0,0,1,12.8-1.27,88.24,88.24,0,0,1,11.83.82A36.12,36.12,0,0,1,572,642.79a21.68,21.68,0,0,1,8.09,6.66q3.15,4.27,3.14,11.3V701a80.59,80.59,0,0,0,.6,10,18.11,18.11,0,0,0,2.1,7.19H564.38a28.71,28.71,0,0,1-1-3.67,30,30,0,0,1-.52-3.82,27.73,27.73,0,0,1-12,7.34,48,48,0,0,1-14.07,2.1,38,38,0,0,1-10.33-1.35,23.64,23.64,0,0,1-8.39-4.19,19.3,19.3,0,0,1-5.61-7.19,24.25,24.25,0,0,1-2-10.33,22.58,22.58,0,0,1,2.32-10.86,19.36,19.36,0,0,1,6-6.81,26.71,26.71,0,0,1,8.39-3.82,88.86,88.86,0,0,1,9.51-2c3.19-.5,6.34-.9,9.43-1.2a56.53,56.53,0,0,0,8.23-1.35,14.33,14.33,0,0,0,5.69-2.62,5.78,5.78,0,0,0,2-5,11.24,11.24,0,0,0-1.12-5.46,8.3,8.3,0,0,0-3-3.14,11.81,11.81,0,0,0-4.34-1.5,35.5,35.5,0,0,0-5.32-.38q-6.29,0-9.88,2.7t-4.19,9H512.9A24.38,24.38,0,0,1,516.62,652.23Zm42,30a34.76,34.76,0,0,1-4.34,1.12c-1.55.3-3.17.55-4.87.75s-3.4.45-5.09.75a38.39,38.39,0,0,0-4.72,1.2,13.78,13.78,0,0,0-4,2,9.59,9.59,0,0,0-2.77,3.22,10.36,10.36,0,0,0-1,4.94,10,10,0,0,0,1,4.79,8,8,0,0,0,2.85,3.07,12,12,0,0,0,4.19,1.57,26.7,26.7,0,0,0,4.94.45c4.19,0,7.44-.7,9.73-2.1a14,14,0,0,0,5.09-5,16.05,16.05,0,0,0,2-5.91,40.37,40.37,0,0,0,.37-4.79v-7.94A9.26,9.26,0,0,1,558.62,682.25Z" transform="translate(-311.64 -372.99)"/><path class="cls-5" d="M642.24,640.85v14.22H626.67V693.4q0,5.39,1.8,7.19c1.2,1.2,3.59,1.8,7.19,1.8,1.2,0,2.34,0,3.44-.15a29.28,29.28,0,0,0,3.14-.45v16.47a50.5,50.5,0,0,1-6,.6c-2.2.1-4.34.15-6.44.15a62,62,0,0,1-9.36-.67,22.05,22.05,0,0,1-7.79-2.62,13.86,13.86,0,0,1-5.32-5.54,19.76,19.76,0,0,1-2-9.43V655.08H592.51V640.86h12.88V617.65h21.26v23.21h15.59Z" transform="translate(-311.64 -372.99)"/><path class="cls-5" d="M653,628.87V611.35h21.26v17.52Zm21.26,12v77.41H653V640.85Z" transform="translate(-311.64 -372.99)"/><path class="cls-5" d="M685.36,640.85h24.26l13.63,20.21,13.48-20.21h23.51l-25.45,36.24,28.6,41.18H739.13L723,693.86l-16.17,24.41H683l27.85-40.73Z" transform="translate(-311.64 -372.99)"/></svg>