<svg width="10" height="7" viewBox="0 0 10 7" fill="none" xmlns="http://www.w3.org/2000/svg">
<path d="M4.9999 6.75C4.80843 6.74903 4.61958 6.70546 4.44705 6.62244C4.27451 6.53941 4.12262 6.41902 4.0024 6.27L0.844899 2.445C0.660395 2.21473 0.544289 1.93725 0.509812 1.6442C0.475335 1.35115 0.523875 1.05431 0.649899 0.7875C0.752109 0.55562 0.918904 0.35806 1.13036 0.218417C1.34182 0.0787738 1.58901 0.00294979 1.8424 0H8.1574C8.41079 0.00294979 8.65798 0.0787738 8.86944 0.218417C9.0809 0.35806 9.24769 0.55562 9.3499 0.7875C9.47592 1.05431 9.52446 1.35115 9.48999 1.6442C9.45551 1.93725 9.33941 2.21473 9.1549 2.445L5.9974 6.27C5.87718 6.41902 5.72529 6.53941 5.55275 6.62244C5.38022 6.70546 5.19137 6.74903 4.9999 6.75ZM2.0674 1.5L4.9999 5.115L7.9999 1.5H2.0674Z" fill="white"/>
</svg>
