<svg width="24" height="24" viewBox="0 0 24 24" fill="none" xmlns="http://www.w3.org/2000/svg">
<path d="M12 24C18.6274 24 24 18.6274 24 12C24 5.37258 18.6274 0 12 0C5.37258 0 0 5.37258 0 12C0 18.6274 5.37258 24 12 24Z" fill="url(#paint0_linear)"/>
<path d="M12.0014 8.30273C9.95964 8.30273 8.30664 9.95753 8.30664 11.9975C8.30664 14.0393 9.96144 15.6923 12.0014 15.6923C14.0432 15.6923 15.6962 14.0375 15.6962 11.9975C15.6962 9.95573 14.0414 8.30273 12.0014 8.30273ZM12.0014 14.3957C10.676 14.3957 9.60324 13.3223 9.60324 11.9975C9.60324 10.6727 10.6766 9.59933 12.0014 9.59933C13.3262 9.59933 14.3996 10.6727 14.3996 11.9975C14.4002 13.3223 13.3268 14.3957 12.0014 14.3957Z" fill="white"/>
<path d="M14.9687 4.84552C13.6439 4.78372 10.3625 4.78672 9.03654 4.84552C7.87134 4.90012 6.84354 5.18152 6.01494 6.01013C4.63014 7.39493 4.80714 9.26093 4.80714 11.9975C4.80714 14.7983 4.65114 16.6211 6.01494 17.9849C7.40514 19.3745 9.29814 19.1927 12.0023 19.1927C14.7767 19.1927 15.7343 19.1945 16.7153 18.8147C18.0491 18.2969 19.0559 17.1047 19.1543 14.9633C19.2167 13.6379 19.2131 10.3571 19.1543 9.03113C19.0355 6.50333 17.6789 4.97032 14.9687 4.84552ZM17.0657 17.0687C16.1579 17.9765 14.8985 17.8955 11.9849 17.8955C8.98494 17.8955 7.78194 17.9399 6.90414 17.0597C5.89314 16.0535 6.07614 14.4377 6.07614 11.9879C6.07614 8.67293 5.73594 6.28553 9.06294 6.11513C9.82734 6.08812 10.0523 6.07913 11.9765 6.07913L12.0035 6.09713C15.2009 6.09713 17.7095 5.76232 17.8601 9.08873C17.8943 9.84773 17.9021 10.0757 17.9021 11.9969C17.9015 14.9621 17.9579 16.1723 17.0657 17.0687Z" fill="white"/>
<path d="M15.8429 9.02025C16.3197 9.02025 16.7063 8.63369 16.7063 8.15685C16.7063 7.68001 16.3197 7.29346 15.8429 7.29346C15.3661 7.29346 14.9795 7.68001 14.9795 8.15685C14.9795 8.63369 15.3661 9.02025 15.8429 9.02025Z" fill="white"/>
<defs>
<linearGradient id="paint0_linear" x1="12" y1="0" x2="12" y2="24" gradientUnits="userSpaceOnUse">
<stop stop-color="#732EBA"/>
<stop offset="0.505208" stop-color="#C32F67"/>
<stop offset="1" stop-color="#DE9642"/>
</linearGradient>
</defs>
</svg>
