<svg width="63" height="73" viewBox="0 0 63 73" fill="none" xmlns="http://www.w3.org/2000/svg">
<path d="M30.9343 0H0V61.8724H41.6038L51.3002 72.9124V61.8724H61.8724V0L30.9343 0Z" fill="#5AB9EA"/>
<path d="M54.4119 43.2246L52.0206 50.4212H11.8389L23.0734 61.6557L61.8742 61.8728V50.6869L54.4119 43.2246Z" fill="url(#paint0_linear)"/>
<path d="M55.3813 29.9727L53.237 36.1999H7.91699L11.824 40.107L62.9596 40.0097V37.5509L55.3813 29.9727Z" fill="url(#paint1_linear)"/>
<path d="M36.9003 13.5513L36.9564 21.9791H10.1611L14.0682 25.8861H49.2351L36.9003 13.5513Z" fill="url(#paint2_linear)"/>
<path d="M6.96484 48.8449L8.5516 46.9475C9.48898 47.7312 10.6681 48.1674 11.8898 48.1825C12.6383 48.1825 13.0649 47.9168 13.0649 47.434C13.0649 46.9512 12.7281 46.7716 11.3284 46.4498C9.13541 45.9483 7.44387 45.3271 7.44387 43.1827C7.44387 41.2703 8.94081 39.8894 11.4295 39.8894C12.959 39.8315 14.4597 40.3167 15.6658 41.2591L14.24 43.2725C13.4037 42.6516 12.3992 42.2981 11.3584 42.2583C10.666 42.2583 10.3292 42.554 10.3292 42.9507C10.3292 43.4222 10.681 43.628 12.1106 43.9499C14.4795 44.4663 15.9502 45.2298 15.9502 47.187C15.9502 49.2902 14.2886 50.5551 11.7887 50.5551C10.0255 50.5958 8.30874 49.9871 6.96484 48.8449Z" fill="white"/>
<path d="M17.3354 40.0767H20.1909V43.9313H23.8546V40.0767H26.7101V50.3719H23.8509V46.4611H20.1909V50.3756H17.3354V40.0767Z" fill="white"/>
<path d="M28.1753 45.2264C28.1753 42.2699 30.5592 39.8711 33.7364 39.8711C36.9137 39.8711 39.2676 42.24 39.2676 45.2264C39.2676 48.2128 36.8838 50.5817 33.7065 50.5817C30.5292 50.5817 28.1753 48.2128 28.1753 45.2264ZM36.3561 45.2264C36.3686 44.8694 36.3095 44.5135 36.1823 44.1798C36.0551 43.846 35.8623 43.541 35.6153 43.2829C35.3684 43.0248 35.0723 42.8188 34.7444 42.6769C34.4166 42.5351 34.0637 42.4603 33.7065 42.4571C32.1459 42.4571 31.0868 43.722 31.0868 45.2376C31.0723 45.5932 31.129 45.9481 31.2535 46.2814C31.378 46.6148 31.5678 46.9199 31.8118 47.1789C32.0558 47.4379 32.3491 47.6456 32.6745 47.7897C32.9998 47.9338 33.3507 48.0115 33.7065 48.0182C35.312 48.007 36.3561 46.7421 36.3561 45.2264Z" fill="white"/>
<path d="M39.4741 40.0768H42.4905L44.2831 46.0346L46.2702 40.0469H48.7252L50.7124 46.0346L52.505 40.0768H55.4615L52.0185 50.4469H49.5336L47.4603 44.519L45.402 50.4469H42.9171L39.4741 40.0768Z" fill="white"/>
<path d="M7.74414 25.8521H10.5996V30.0285L14.1436 25.8521H17.5117L13.6271 30.2793L17.6576 36.1473H14.2222L11.6437 32.3263L10.5996 33.4752V36.1361H7.74414V25.8521Z" fill="white"/>
<path d="M18.4834 25.8521H21.1442L25.3806 31.2934V25.8521H28.206V36.1473H25.7061L21.3051 30.5001V36.1473H18.4834V25.8521Z" fill="white"/>
<path d="M29.6768 31.0018C29.6768 28.0453 32.0606 25.6465 35.2379 25.6465C38.4152 25.6465 40.7691 28.0154 40.7691 31.0018C40.7691 33.9882 38.3852 36.3571 35.208 36.3571C32.0307 36.3571 29.6768 33.9882 29.6768 31.0018ZM37.8538 31.0018C37.8658 30.6454 37.8064 30.2903 37.6792 29.9572C37.552 29.6241 37.3595 29.3197 37.113 29.0621C36.8665 28.8044 36.571 28.5987 36.2439 28.4568C35.9167 28.315 35.5645 28.24 35.208 28.2362C33.6474 28.2362 32.5883 29.5011 32.5883 31.0168C32.5738 31.3723 32.6304 31.7272 32.7549 32.0606C32.8794 32.3939 33.0693 32.6991 33.3133 32.9581C33.5573 33.2171 33.8506 33.4247 34.1759 33.5689C34.5013 33.713 34.8522 33.7907 35.208 33.7973C36.8097 33.7824 37.8538 32.5175 37.8538 31.0018Z" fill="white"/>
<path d="M40.9756 25.8522H43.9919L45.7883 31.81L47.7755 25.8223H50.2304L52.2176 31.81L54.0102 25.8522H56.9667L53.5162 36.2223H51.0313L48.9618 30.2944L46.9035 36.2223H44.4186L40.9756 25.8522Z" fill="white"/>
<path d="M10.2583 14.1273H7.1709V11.6274H16.2012V14.1273H13.0988V21.9227H10.2583V14.1273Z" fill="white"/>
<path d="M17.4541 11.6274H20.3095V15.4821H23.9508V11.6274H26.8063V21.9227H23.9508V18.0119H20.3058V21.9227H17.4541V11.6274Z" fill="white"/>
<path d="M28.6479 11.6274H36.9298V14.0562H31.4734V15.6168H36.4133V17.8622H31.4734V19.4939H37.0046V21.9227H28.6479V11.6274Z" fill="white"/>
<defs>
<linearGradient id="paint0_linear" x1="39.7494" y1="67.6248" x2="36.4411" y2="48.1009" gradientUnits="userSpaceOnUse">
<stop stop-opacity="0"/>
<stop offset="1" stop-opacity="0.1"/>
</linearGradient>
<linearGradient id="paint1_linear" x1="36.939" y1="45.743" x2="34.7572" y2="32.8692" gradientUnits="userSpaceOnUse">
<stop stop-opacity="0"/>
<stop offset="1" stop-opacity="0.15"/>
</linearGradient>
<linearGradient id="paint2_linear" x1="3226.34" y1="1085.94" x2="3200.78" y2="608.165" gradientUnits="userSpaceOnUse">
<stop stop-opacity="0"/>
<stop offset="1" stop-opacity="0.15"/>
</linearGradient>
</defs>
</svg>
