<svg width="24" height="24" viewBox="0 0 24 24" fill="none" xmlns="http://www.w3.org/2000/svg">
<path d="M12 24C18.6274 24 24 18.6274 24 12C24 5.37258 18.6274 0 12 0C5.37258 0 0 5.37258 0 12C0 18.6274 5.37258 24 12 24Z" fill="#D22215"/>
<path d="M16.0125 7.13916H7.9875C6.4125 7.13916 5.13281 8.41416 5.13281 9.99384V14.0063C5.13281 15.5813 6.40781 16.861 7.9875 16.861H16.0172C17.5922 16.861 18.8719 15.586 18.8719 14.0063V9.99384C18.8672 8.41885 17.5922 7.13916 16.0125 7.13916ZM14.0859 12.197L10.3312 13.9876C10.2328 14.0345 10.1156 13.9641 10.1156 13.8516V10.1579C10.1156 10.0454 10.2328 9.9704 10.3359 10.022L14.0906 11.9251C14.1984 11.9813 14.1984 12.1407 14.0859 12.197Z" fill="white"/>
</svg>
