<svg xmlns="http://www.w3.org/2000/svg" viewBox="0 0 204.77 209"><defs><style>.cls-1{fill:#006247;}.cls-2{fill:none;stroke:#006247;stroke-miterlimit:10;stroke-width:13.5px;}</style></defs><g id="Layer_2" data-name="Layer 2"><g id="Oracle"><path class="cls-1" d="M119.48,152.19a12.4,12.4,0,0,1-1.72-.93l-5,45.62,13.42,1.47,5.15-47C128.05,153.89,123.49,154,119.48,152.19Z"/><path class="cls-1" d="M135.26,96c.55,1.34,1.12,2.66,1.7,4L147.75,1.47,134.33,0l-9.67,88.32C129.52,88.08,133.41,91.47,135.26,96Z"/><rect class="cls-1" x="88.24" y="99.79" width="198.06" height="13.5" transform="translate(60.96 281.09) rotate(-83.75)"/><rect class="cls-1" x="154.29" y="53.34" width="13.5" height="57.48" transform="translate(61.91 233.22) rotate(-83.75)"/><path class="cls-1" d="M141.72,110.6c1.4,3.12,2.76,6.27,4,9.48.59,1.55,1.11,3.13,1.6,4.71l37.54,4.11,1.47-13.42Z"/><path class="cls-1" d="M155.51,149.53a9.64,9.64,0,0,1-3,6.83c-3.67,3.68-11.34,4.47-14.85,0a37.07,37.07,0,0,1-4.37-7.13,10,10,0,0,1-9,4.16l-.68,6.23,57.14,6.26,1.47-13.42Z"/><rect class="cls-1" x="158.34" y="16.36" width="13.5" height="57.48" transform="translate(102.28 204.3) rotate(-83.75)"/><circle class="cls-2" cx="26.86" cy="101.19" r="20.1"/><path class="cls-1" d="M80.05,206.1A26.9,26.9,0,0,0,91.86,170L50.74,88.91,42.09,93.3a11.42,11.42,0,0,1,3.35,15l34.37,67.79A13.35,13.35,0,1,1,56,188.19L21.58,120.31a14.32,14.32,0,0,1-8-2.51,10.49,10.49,0,0,1-4.64-7.69L2.84,113.2,44,194.29A26.89,26.89,0,0,0,80.05,206.1Z"/><path class="cls-2" d="M87.4,48a20.11,20.11,0,0,1,27,8.84"/><path class="cls-2" d="M145.08,161.7a20.11,20.11,0,0,0,8.84-27L114.43,56.79a20.1,20.1,0,0,1-8.84,27Z"/><line class="cls-2" x1="84.36" y1="176.24" x2="137.49" y2="149.3"/><line class="cls-2" x1="17.77" y1="83.26" x2="87.4" y2="47.95"/></g></g></svg>