<svg width="24" height="24" viewBox="0 0 24 24" fill="none" xmlns="http://www.w3.org/2000/svg">
<path d="M17.3766 0H6.62295C2.97106 0 0 2.9712 0 6.62309V17.3768C0 21.0288 2.97106 23.9999 6.62295 23.9999H17.3766C21.0288 23.9999 23.9999 21.0287 23.9999 17.3768V6.62309C24 2.9712 21.0288 0 17.3766 0ZM21.8706 17.3768C21.8706 19.8547 19.8547 21.8705 17.3768 21.8705H6.62295C4.1452 21.8706 2.12938 19.8547 2.12938 17.3768V6.62309C2.12938 4.14534 4.1452 2.12938 6.62295 2.12938H17.3766C19.8545 2.12938 21.8705 4.14534 21.8705 6.62309V17.3768H21.8706Z" fill="#161616"/>
<path d="M12 5.81592C8.58996 5.81592 5.8158 8.59008 5.8158 12.0001C5.8158 15.4099 8.58996 18.1839 12 18.1839C15.4099 18.1839 18.1841 15.4099 18.1841 12.0001C18.1841 8.59008 15.4099 5.81592 12 5.81592ZM12 16.0544C9.76424 16.0544 7.94518 14.2356 7.94518 11.9999C7.94518 9.76408 9.7641 7.94516 12 7.94516C14.2358 7.94516 16.0547 9.76408 16.0547 11.9999C16.0547 14.2356 14.2357 16.0544 12 16.0544Z" fill="#161616"/>
<path d="M18.4434 4.01025C18.0331 4.01025 17.6301 4.17635 17.3404 4.46736C17.0492 4.75696 16.8818 5.16012 16.8818 5.5718C16.8818 5.98221 17.0493 6.38523 17.3404 6.67624C17.63 6.96584 18.0331 7.13335 18.4434 7.13335C18.8551 7.13335 19.2568 6.96584 19.5478 6.67624C19.8388 6.38523 20.0049 5.98206 20.0049 5.5718C20.0049 5.16012 19.8388 4.75696 19.5478 4.46736C19.2582 4.17635 18.8551 4.01025 18.4434 4.01025Z" fill="#161616"/>
</svg>
