<svg width="84" height="114" viewBox="0 0 84 114" fill="none" xmlns="http://www.w3.org/2000/svg">
<path d="M67.6312 59.323L66.1499 58.948C65.6945 56.8585 64.5392 54.9871 62.8753 53.6437C61.2113 52.3003 59.1385 51.5653 56.9999 51.5605H53.2499V50.9793C55.0195 49.4037 56.4355 47.4714 57.405 45.3095C58.3745 43.1475 58.8754 40.8049 58.8749 38.4355H60.7499C62.2404 38.4311 63.6686 37.837 64.7225 36.7831C65.7764 35.7292 66.3705 34.301 66.3749 32.8105V30.9355C66.3723 30.1489 66.204 29.3717 65.881 28.6545C65.5579 27.9373 65.0873 27.2962 64.4999 26.773V14.0605C64.496 10.5808 63.1119 7.24471 60.6513 4.78416C58.1908 2.3236 54.8547 0.939517 51.3749 0.935547H43.8749C42.2271 0.935386 40.6084 1.37054 39.1827 2.19696C37.7571 3.02338 36.575 4.21175 35.7562 5.6418C34.8306 5.019 33.7405 4.68609 32.6249 4.68555H28.8749C26.3885 4.68555 24.004 5.67327 22.2458 7.43142C20.4876 9.18957 19.4999 11.5741 19.4999 14.0605V26.773C18.9125 27.2962 18.442 27.9373 18.1189 28.6545C17.7958 29.3717 17.6275 30.1489 17.6249 30.9355V32.8105C17.6294 34.301 18.2234 35.7292 19.2774 36.7831C20.3313 37.837 21.7595 38.4311 23.2499 38.4355H25.1249C25.1244 40.8049 25.6254 43.1475 26.5948 45.3095C27.5643 47.4714 28.9804 49.4037 30.7499 50.9793V51.5605H26.9999C24.8613 51.5653 22.7885 52.3003 21.1246 53.6437C19.4606 54.9871 18.3053 56.8585 17.8499 58.948L16.3687 59.323C11.9024 60.4297 7.93632 63.0023 5.10478 66.6292C2.27325 70.2562 0.739874 74.728 0.749927 79.3293V111.561C0.749927 112.058 0.947472 112.535 1.2991 112.886C1.65073 113.238 2.12765 113.436 2.62493 113.436H81.3749C81.8722 113.436 82.3491 113.238 82.7008 112.886C83.0524 112.535 83.2499 112.058 83.2499 111.561V79.3293C83.26 74.728 81.7266 70.2562 78.8951 66.6292C76.0635 63.0023 72.0975 60.4297 67.6312 59.323ZM66.3749 70.3105V72.3543C65.1351 72.1293 63.8648 72.1293 62.6249 72.3543V70.3105H66.3749ZM56.9999 55.3105C57.9271 55.3143 58.8392 55.5453 59.6564 55.9833C60.4736 56.4213 61.171 57.053 61.6874 57.823L59.3249 57.2418L53.2499 55.723V55.3105H56.9999ZM41.9999 60.6168L34.4999 56.1168V53.5293C36.8267 54.6999 39.3952 55.3097 41.9999 55.3097C44.6046 55.3097 47.1731 54.6999 49.4999 53.5293V56.1168L41.9999 60.6168ZM44.2499 69.4668L41.9999 70.2168L39.7499 69.4668L39.9562 66.8418L41.9999 65.2105L44.0437 66.8418L44.2499 69.4668ZM51.6749 59.1918L55.8374 60.2418L50.9437 67.5731L45.2812 63.0355L51.6749 59.1918ZM62.6249 30.9355V32.8105C62.6249 33.3078 62.4274 33.7847 62.0758 34.1364C61.7241 34.488 61.2472 34.6855 60.7499 34.6855H58.8749V29.0605H60.7499C61.2472 29.0605 61.7241 29.2581 62.0758 29.6097C62.4274 29.9614 62.6249 30.4383 62.6249 30.9355ZM25.1249 34.6855H23.2499C22.7526 34.6855 22.2757 34.488 21.9241 34.1364C21.5725 33.7847 21.3749 33.3078 21.3749 32.8105V30.9355C21.3749 30.4383 21.5725 29.9614 21.9241 29.6097C22.2757 29.2581 22.7526 29.0605 23.2499 29.0605H25.1249V34.6855ZM25.1249 23.4355V25.3105H23.2499V14.0605C23.2544 12.5701 23.8484 11.1419 24.9024 10.088C25.9563 9.03406 27.3845 8.44 28.8749 8.43555H32.6249C33.1222 8.43555 33.5991 8.63309 33.9508 8.98472C34.3024 9.33635 34.4999 9.81327 34.4999 10.3105C34.4999 10.8078 34.6975 11.2847 35.0491 11.6364C35.4007 11.988 35.8777 12.1855 36.3749 12.1855C36.8722 12.1855 37.3491 11.988 37.7008 11.6364C38.0524 11.2847 38.2499 10.8078 38.2499 10.3105C38.2544 8.82007 38.8484 7.39192 39.9024 6.33799C40.9563 5.28406 42.3845 4.69 43.8749 4.68555H51.3749C53.8613 4.68555 56.2459 5.67327 58.0041 7.43142C59.7622 9.18957 60.7499 11.5741 60.7499 14.0605V25.3105H58.8749V23.4355C58.8705 21.9451 58.2764 20.5169 57.2225 19.463C56.1686 18.4091 54.7404 17.815 53.2499 17.8105H30.7499C29.2595 17.815 27.8313 18.4091 26.7774 19.463C25.7234 20.5169 25.1294 21.9451 25.1249 23.4355ZM28.8749 38.4355V23.4355C28.8749 22.9383 29.0725 22.4614 29.4241 22.1097C29.7757 21.7581 30.2526 21.5605 30.7499 21.5605H53.2499C53.7472 21.5605 54.2241 21.7581 54.5758 22.1097C54.9274 22.4614 55.1249 22.9383 55.1249 23.4355V38.4355C55.1249 41.9165 53.7421 45.2549 51.2807 47.7163C48.8193 50.1777 45.4809 51.5605 41.9999 51.5605C38.519 51.5605 35.1806 50.1777 32.7192 47.7163C30.2577 45.2549 28.8749 41.9165 28.8749 38.4355ZM32.3249 59.1918L38.7187 63.0355L33.0562 67.5731L28.1624 60.2418L32.3249 59.1918ZM26.9999 55.3105H30.7499V55.723L24.6749 57.2418L22.3124 57.823C22.8289 57.053 23.5262 56.4213 24.3434 55.9833C25.1606 55.5453 26.0728 55.3143 26.9999 55.3105ZM19.4999 79.6855C20.2416 79.6855 20.9666 79.9055 21.5833 80.3175C22.2 80.7296 22.6806 81.3153 22.9645 82.0005C23.2483 82.6857 23.3226 83.4397 23.1779 84.1671C23.0332 84.8946 22.676 85.5628 22.1516 86.0872C21.6271 86.6116 20.9589 86.9688 20.2315 87.1135C19.5041 87.2582 18.7501 87.1839 18.0649 86.9001C17.3796 86.6163 16.794 86.1356 16.3819 85.5189C15.9699 84.9023 15.7499 84.1772 15.7499 83.4355C15.7529 82.4419 16.1489 81.4898 16.8516 80.7872C17.5542 80.0846 18.5063 79.6885 19.4999 79.6855ZM32.7749 109.686H21.3749V94.6855C21.3749 94.1883 21.1774 93.7113 20.8258 93.3597C20.4741 93.0081 19.9972 92.8105 19.4999 92.8105C19.0026 92.8105 18.5257 93.0081 18.1741 93.3597C17.8225 93.7113 17.6249 94.1883 17.6249 94.6855V109.686H4.49993V79.3293C4.49251 75.5663 5.74614 71.9093 8.06064 68.9423C10.3751 65.9752 13.617 63.8692 17.2687 62.9605L17.6249 62.8668V76.198C15.8574 76.6544 14.3171 77.7397 13.2925 79.2506C12.268 80.7614 11.8297 82.594 12.0597 84.4049C12.2897 86.2158 13.1723 87.8807 14.542 89.0874C15.9117 90.2941 17.6745 90.9599 19.4999 90.9599C21.3254 90.9599 23.0882 90.2941 24.4579 89.0874C25.8276 87.8807 26.7101 86.2158 26.9402 84.4049C27.1702 82.594 26.7318 80.7614 25.7073 79.2506C24.6828 77.7397 23.1424 76.6544 21.3749 76.198V61.9293L24.2999 61.198L31.0687 71.3418C31.2083 71.5638 31.3948 71.7527 31.615 71.8952C31.8352 72.0377 32.0839 72.1304 32.3437 72.1668C32.4366 72.1824 32.5308 72.1886 32.6249 72.1855C33.0485 72.1866 33.4593 72.0408 33.7874 71.773L35.9437 70.0668L32.7749 109.686ZM36.5249 109.686L39.4499 73.3105L41.4187 73.9668C41.7961 74.0918 42.2038 74.0918 42.5812 73.9668L44.5499 73.3105L47.4749 109.686H36.5249ZM79.4999 109.686H66.3749V94.6855C66.3749 94.1883 66.1774 93.7113 65.8258 93.3597C65.4741 93.0081 64.9972 92.8105 64.4999 92.8105C64.0027 92.8105 63.5257 93.0081 63.1741 93.3597C62.8225 93.7113 62.6249 94.1883 62.6249 94.6855V109.686H51.2249L48.0562 70.0668L50.2124 71.773C50.5406 72.0408 50.9514 72.1866 51.3749 72.1855C51.4691 72.1886 51.5633 72.1824 51.6562 72.1668C51.9159 72.1304 52.1646 72.0377 52.3848 71.8952C52.6051 71.7527 52.7915 71.5638 52.9312 71.3418L59.6999 61.198L62.6249 61.9293V66.5605C61.6313 66.5635 60.6792 66.9596 59.9766 67.6622C59.2739 68.3648 58.8779 69.3169 58.8749 70.3105V73.7043C57.1664 74.6907 55.7473 76.1091 54.76 77.8171C53.7727 79.5251 53.252 81.4627 53.2499 83.4355V87.1855C53.2529 88.1792 53.6489 89.1313 54.3516 89.8339C55.0542 90.5365 56.0063 90.9326 56.9999 90.9355H58.8749C59.3722 90.9355 59.8491 90.738 60.2008 90.3864C60.5524 90.0347 60.7499 89.5578 60.7499 89.0605C60.7499 88.5633 60.5524 88.0863 60.2008 87.7347C59.8491 87.3831 59.3722 87.1855 58.8749 87.1855H56.9999V83.4355C56.9999 81.4464 57.7901 79.5388 59.1966 78.1322C60.6032 76.7257 62.5108 75.9355 64.4999 75.9355C66.4891 75.9355 68.3967 76.7257 69.8032 78.1322C71.2098 79.5388 71.9999 81.4464 71.9999 83.4355V87.1855H70.1249C69.6276 87.1855 69.1507 87.3831 68.7991 87.7347C68.4475 88.0863 68.2499 88.5633 68.2499 89.0605C68.2499 89.5578 68.4475 90.0347 68.7991 90.3864C69.1507 90.738 69.6276 90.9355 70.1249 90.9355H71.9999C72.9936 90.9326 73.9457 90.5365 74.6483 89.8339C75.3509 89.1313 75.747 88.1792 75.7499 87.1855V83.4355C75.7479 81.4627 75.2271 79.5251 74.2398 77.8171C73.2525 76.1091 71.8335 74.6907 70.1249 73.7043V70.3105C70.122 69.3169 69.7259 68.3648 69.0233 67.6622C68.3207 66.9596 67.3686 66.5635 66.3749 66.5605V62.8668L66.7312 62.9605C70.3828 63.8692 73.6247 65.9752 75.9392 68.9423C78.2537 71.9093 79.5073 75.5663 79.4999 79.3293V109.686Z" fill="#A2C2C6"/>
<path d="M37.7005 40.8599C37.3419 40.5451 36.8767 40.3789 36.3997 40.3952C35.9228 40.4115 35.47 40.609 35.1337 40.9475C34.7973 41.2861 34.6027 41.7401 34.5894 42.2171C34.5762 42.6941 34.7453 43.1583 35.0624 43.5149C36.9065 45.3556 39.4056 46.3894 42.0112 46.3894C44.6167 46.3894 47.1158 45.3556 48.9599 43.5149C49.3103 43.1616 49.5059 42.6836 49.5038 42.186C49.5017 41.6885 49.302 41.2121 48.9487 40.8618C48.7737 40.6883 48.5663 40.551 48.3383 40.4577C48.1103 40.3644 47.8661 40.3169 47.6198 40.3179C47.1222 40.32 46.6459 40.5197 46.2955 40.873C45.1553 42.0105 43.6105 42.6492 41.9999 42.6492C40.3893 42.6492 38.8445 42.0105 37.7043 40.873L37.7005 40.8599Z" fill="#A2C2C6"/>
<path d="M36.3749 32.8105C36.8722 32.8105 37.3491 32.613 37.7007 32.2614C38.0524 31.9097 38.2499 31.4328 38.2499 30.9355V29.0605C38.2499 28.5633 38.0524 28.0864 37.7007 27.7347C37.3491 27.3831 36.8722 27.1855 36.3749 27.1855C35.8776 27.1855 35.4007 27.3831 35.0491 27.7347C34.6974 28.0864 34.4999 28.5633 34.4999 29.0605V30.9355C34.4999 31.4328 34.6974 31.9097 35.0491 32.2614C35.4007 32.613 35.8776 32.8105 36.3749 32.8105Z" fill="#A2C2C6"/>
<path d="M47.6249 32.8105C48.1222 32.8105 48.5991 32.613 48.9507 32.2614C49.3024 31.9097 49.4999 31.4328 49.4999 30.9355V29.0605C49.4999 28.5633 49.3024 28.0864 48.9507 27.7347C48.5991 27.3831 48.1222 27.1855 47.6249 27.1855C47.1276 27.1855 46.6507 27.3831 46.2991 27.7347C45.9474 28.0864 45.7499 28.5633 45.7499 29.0605V30.9355C45.7499 31.4328 45.9474 31.9097 46.2991 32.2614C46.6507 32.613 47.1276 32.8105 47.6249 32.8105Z" fill="#A2C2C6"/>
<path d="M19.4999 85.3106C19.8075 85.3088 20.1099 85.2314 20.3805 85.0852C20.651 84.9389 20.8815 84.7284 21.0515 84.4721C21.2215 84.2158 21.3259 83.9216 21.3554 83.6155C21.3849 83.3094 21.3386 83.0007 21.2207 82.7166C21.1028 82.4326 20.9168 82.1819 20.6791 81.9867C20.4414 81.7915 20.1594 81.6577 19.8578 81.5972C19.5563 81.5367 19.2445 81.5514 18.9499 81.6398C18.6553 81.7282 18.3871 81.8877 18.1687 82.1043C17.8201 82.4598 17.6248 82.9377 17.6248 83.4356C17.6248 83.9334 17.8201 84.4114 18.1687 84.7668C18.5282 85.1091 19.0036 85.3033 19.4999 85.3106Z" fill="#A2C2C6"/>
</svg>
