<svg width="108" height="122" viewBox="0 0 108 122" fill="none" xmlns="http://www.w3.org/2000/svg">
<mask id="path-1-outside-1" maskUnits="userSpaceOnUse" x="0.78064" y="0" width="107" height="122" fill="black">
<rect fill="white" x="0.78064" width="107" height="122"/>
<path d="M105.295 25.5157C104.916 22.968 103.205 20.7743 100.829 19.7904L56.8162 1.56373C55.0001 0.81209 52.9999 0.81209 51.1838 1.56373L7.17096 19.7904C4.7951 20.7743 3.08393 22.968 2.70518 25.5157C1.78104 31.7327 0.231822 48.1811 5.78791 66.5969C8.87791 76.8384 13.7199 86.2635 20.1792 94.6103C27.9333 104.63 38.1084 113.198 50.4223 120.076C51.5257 120.692 52.7627 121 54 121C55.237 121 56.4743 120.692 57.5777 120.076C69.8916 113.198 80.0667 104.63 87.8208 94.6101C94.2799 86.2633 99.1219 76.8382 102.212 66.5967C107.768 48.1811 106.219 31.7327 105.295 25.5157ZM98.8502 65.5823C92.2483 87.4633 77.7865 104.766 55.8656 117.01C54.7155 117.652 53.2859 117.652 52.1351 117.01C30.214 104.766 15.7517 87.4633 9.15002 65.5823C3.79901 47.8462 5.28963 32.0149 6.17885 26.0318C6.37713 24.6977 7.27221 23.5493 8.51463 23.035L52.5274 4.80842C53.0023 4.61178 53.5013 4.51334 54.0002 4.51334C54.499 4.51334 54.9982 4.61178 55.473 4.80842L99.4858 23.035C100.728 23.5495 101.623 24.6977 101.821 26.0318C102.711 32.0151 104.201 47.8464 98.8502 65.5823Z"/>
<path d="M91.7358 28.0415L74.5334 21.0211C73.635 20.655 72.6103 21.0855 72.2442 21.9834C71.8781 22.8813 72.3087 23.9062 73.2066 24.2725L90.409 31.293C91.2921 31.6532 91.9275 32.4534 92.0674 33.3808C92.7778 38.0906 93.9684 50.5525 89.6937 64.5154C84.4205 81.7394 72.862 95.3634 55.3397 105.009C54.5138 105.463 53.4872 105.463 52.6613 105.009C35.1387 95.3634 23.5803 81.7396 18.3071 64.5154C14.0318 50.5528 15.2224 38.0908 15.9328 33.3808C16.0728 32.4532 16.7081 31.6532 17.5915 31.293L52.9413 16.8665C53.614 16.5918 54.3865 16.5916 55.0594 16.8665L65.6761 21.1994C66.5742 21.5655 67.5991 21.1347 67.9652 20.2371C68.3316 19.3392 67.9008 18.3143 67.0029 17.9479L56.3859 13.6151C54.8473 12.9872 53.153 12.9876 51.6143 13.6151L16.2645 28.0415C14.2416 28.867 12.7838 30.7125 12.4603 32.8572C11.7143 37.8042 10.4632 50.8921 14.9489 65.5434C17.4443 73.6942 21.3544 81.1952 26.5706 87.8376C32.8282 95.8061 41.0365 102.618 50.9677 108.085C51.903 108.6 52.9514 108.857 54.0002 108.857C55.0488 108.857 56.0977 108.6 57.0328 108.085C66.9642 102.618 75.1725 95.8061 81.4298 87.8376C86.6458 81.1952 90.5559 73.694 93.0513 65.5434C97.537 50.8919 96.2859 37.804 95.5397 32.8572C95.2162 30.7122 93.7587 28.867 91.7358 28.0415Z"/>
<path d="M50.5005 82.2942H57.4997C60.0052 82.2942 62.0437 80.2654 62.0437 77.7717V70.0101C62.0437 69.4528 62.5066 68.9992 63.0759 68.9992H70.8984C73.4041 68.9992 75.4425 66.9705 75.4425 64.477V57.5325C75.4425 55.0387 73.4041 53.01 70.8984 53.01H63.0759C62.5066 53.01 62.0437 52.5567 62.0437 51.9993V44.2375C62.0437 41.744 60.0054 39.7153 57.4997 39.7153H50.5005C47.9951 39.7153 45.9565 41.7438 45.9565 44.2375V51.9993C45.9565 52.5564 45.4934 53.01 44.9243 53.01H37.1016C34.5961 53.01 32.5575 55.0387 32.5575 57.5325V64.477C32.5575 66.7401 34.2563 68.6678 36.5088 68.961C37.4709 69.0876 38.3513 68.4079 38.4766 67.4465C38.6018 66.4849 37.9235 65.6041 36.9621 65.4787C36.4533 65.4124 36.0694 64.9818 36.0694 64.4772V57.5327C36.0694 56.9753 36.5325 56.5218 37.1016 56.5218H44.9243C47.4298 56.5218 49.4684 54.4931 49.4684 51.9996V44.2378C49.4684 43.6807 49.9315 43.2271 50.5005 43.2271H57.4997C58.069 43.2271 58.5319 43.6804 58.5319 44.2378V51.9996C58.5319 54.4931 60.5702 56.5218 63.0757 56.5218H70.8982C71.4675 56.5218 71.9306 56.9751 71.9306 57.5327V64.4772C71.9306 65.0343 71.4675 65.4878 70.8982 65.4878H63.0757C60.5702 65.4878 58.5319 67.5166 58.5319 70.0103V77.7719C58.5319 78.3292 58.069 78.7828 57.4997 78.7828H50.5005C49.9315 78.7828 49.4684 78.3295 49.4684 77.7719V70.0103C49.4684 67.5168 47.43 65.4878 44.9243 65.4878C43.9545 65.4878 43.1684 66.2739 43.1684 67.2438C43.1684 68.2136 43.9545 68.9997 44.9243 68.9997C45.4934 68.9997 45.9565 69.453 45.9565 70.0106V77.7721C45.9567 80.2654 47.9951 82.2942 50.5005 82.2942Z"/>
</mask>
<path d="M105.295 25.5157C104.916 22.968 103.205 20.7743 100.829 19.7904L56.8162 1.56373C55.0001 0.81209 52.9999 0.81209 51.1838 1.56373L7.17096 19.7904C4.7951 20.7743 3.08393 22.968 2.70518 25.5157C1.78104 31.7327 0.231822 48.1811 5.78791 66.5969C8.87791 76.8384 13.7199 86.2635 20.1792 94.6103C27.9333 104.63 38.1084 113.198 50.4223 120.076C51.5257 120.692 52.7627 121 54 121C55.237 121 56.4743 120.692 57.5777 120.076C69.8916 113.198 80.0667 104.63 87.8208 94.6101C94.2799 86.2633 99.1219 76.8382 102.212 66.5967C107.768 48.1811 106.219 31.7327 105.295 25.5157ZM98.8502 65.5823C92.2483 87.4633 77.7865 104.766 55.8656 117.01C54.7155 117.652 53.2859 117.652 52.1351 117.01C30.214 104.766 15.7517 87.4633 9.15002 65.5823C3.79901 47.8462 5.28963 32.0149 6.17885 26.0318C6.37713 24.6977 7.27221 23.5493 8.51463 23.035L52.5274 4.80842C53.0023 4.61178 53.5013 4.51334 54.0002 4.51334C54.499 4.51334 54.9982 4.61178 55.473 4.80842L99.4858 23.035C100.728 23.5495 101.623 24.6977 101.821 26.0318C102.711 32.0151 104.201 47.8464 98.8502 65.5823Z" fill="#A2C2C6"/>
<path d="M91.7358 28.0415L74.5334 21.0211C73.635 20.655 72.6103 21.0855 72.2442 21.9834C71.8781 22.8813 72.3087 23.9062 73.2066 24.2725L90.409 31.293C91.2921 31.6532 91.9275 32.4534 92.0674 33.3808C92.7778 38.0906 93.9684 50.5525 89.6937 64.5154C84.4205 81.7394 72.862 95.3634 55.3397 105.009C54.5138 105.463 53.4872 105.463 52.6613 105.009C35.1387 95.3634 23.5803 81.7396 18.3071 64.5154C14.0318 50.5528 15.2224 38.0908 15.9328 33.3808C16.0728 32.4532 16.7081 31.6532 17.5915 31.293L52.9413 16.8665C53.614 16.5918 54.3865 16.5916 55.0594 16.8665L65.6761 21.1994C66.5742 21.5655 67.5991 21.1347 67.9652 20.2371C68.3316 19.3392 67.9008 18.3143 67.0029 17.9479L56.3859 13.6151C54.8473 12.9872 53.153 12.9876 51.6143 13.6151L16.2645 28.0415C14.2416 28.867 12.7838 30.7125 12.4603 32.8572C11.7143 37.8042 10.4632 50.8921 14.9489 65.5434C17.4443 73.6942 21.3544 81.1952 26.5706 87.8376C32.8282 95.8061 41.0365 102.618 50.9677 108.085C51.903 108.6 52.9514 108.857 54.0002 108.857C55.0488 108.857 56.0977 108.6 57.0328 108.085C66.9642 102.618 75.1725 95.8061 81.4298 87.8376C86.6458 81.1952 90.5559 73.694 93.0513 65.5434C97.537 50.8919 96.2859 37.804 95.5397 32.8572C95.2162 30.7122 93.7587 28.867 91.7358 28.0415Z" fill="#A2C2C6"/>
<path d="M50.5005 82.2942H57.4997C60.0052 82.2942 62.0437 80.2654 62.0437 77.7717V70.0101C62.0437 69.4528 62.5066 68.9992 63.0759 68.9992H70.8984C73.4041 68.9992 75.4425 66.9705 75.4425 64.477V57.5325C75.4425 55.0387 73.4041 53.01 70.8984 53.01H63.0759C62.5066 53.01 62.0437 52.5567 62.0437 51.9993V44.2375C62.0437 41.744 60.0054 39.7153 57.4997 39.7153H50.5005C47.9951 39.7153 45.9565 41.7438 45.9565 44.2375V51.9993C45.9565 52.5564 45.4934 53.01 44.9243 53.01H37.1016C34.5961 53.01 32.5575 55.0387 32.5575 57.5325V64.477C32.5575 66.7401 34.2563 68.6678 36.5088 68.961C37.4709 69.0876 38.3513 68.4079 38.4766 67.4465C38.6018 66.4849 37.9235 65.6041 36.9621 65.4787C36.4533 65.4124 36.0694 64.9818 36.0694 64.4772V57.5327C36.0694 56.9753 36.5325 56.5218 37.1016 56.5218H44.9243C47.4298 56.5218 49.4684 54.4931 49.4684 51.9996V44.2378C49.4684 43.6807 49.9315 43.2271 50.5005 43.2271H57.4997C58.069 43.2271 58.5319 43.6804 58.5319 44.2378V51.9996C58.5319 54.4931 60.5702 56.5218 63.0757 56.5218H70.8982C71.4675 56.5218 71.9306 56.9751 71.9306 57.5327V64.4772C71.9306 65.0343 71.4675 65.4878 70.8982 65.4878H63.0757C60.5702 65.4878 58.5319 67.5166 58.5319 70.0103V77.7719C58.5319 78.3292 58.069 78.7828 57.4997 78.7828H50.5005C49.9315 78.7828 49.4684 78.3295 49.4684 77.7719V70.0103C49.4684 67.5168 47.43 65.4878 44.9243 65.4878C43.9545 65.4878 43.1684 66.2739 43.1684 67.2438C43.1684 68.2136 43.9545 68.9997 44.9243 68.9997C45.4934 68.9997 45.9565 69.453 45.9565 70.0106V77.7721C45.9567 80.2654 47.9951 82.2942 50.5005 82.2942Z" fill="#A2C2C6"/>
<path d="M105.295 25.5157C104.916 22.968 103.205 20.7743 100.829 19.7904L56.8162 1.56373C55.0001 0.81209 52.9999 0.81209 51.1838 1.56373L7.17096 19.7904C4.7951 20.7743 3.08393 22.968 2.70518 25.5157C1.78104 31.7327 0.231822 48.1811 5.78791 66.5969C8.87791 76.8384 13.7199 86.2635 20.1792 94.6103C27.9333 104.63 38.1084 113.198 50.4223 120.076C51.5257 120.692 52.7627 121 54 121C55.237 121 56.4743 120.692 57.5777 120.076C69.8916 113.198 80.0667 104.63 87.8208 94.6101C94.2799 86.2633 99.1219 76.8382 102.212 66.5967C107.768 48.1811 106.219 31.7327 105.295 25.5157ZM98.8502 65.5823C92.2483 87.4633 77.7865 104.766 55.8656 117.01C54.7155 117.652 53.2859 117.652 52.1351 117.01C30.214 104.766 15.7517 87.4633 9.15002 65.5823C3.79901 47.8462 5.28963 32.0149 6.17885 26.0318C6.37713 24.6977 7.27221 23.5493 8.51463 23.035L52.5274 4.80842C53.0023 4.61178 53.5013 4.51334 54.0002 4.51334C54.499 4.51334 54.9982 4.61178 55.473 4.80842L99.4858 23.035C100.728 23.5495 101.623 24.6977 101.821 26.0318C102.711 32.0151 104.201 47.8464 98.8502 65.5823Z" stroke="#A2C2C6" stroke-width="2" mask="url(#path-1-outside-1)"/>
<path d="M91.7358 28.0415L74.5334 21.0211C73.635 20.655 72.6103 21.0855 72.2442 21.9834C71.8781 22.8813 72.3087 23.9062 73.2066 24.2725L90.409 31.293C91.2921 31.6532 91.9275 32.4534 92.0674 33.3808C92.7778 38.0906 93.9684 50.5525 89.6937 64.5154C84.4205 81.7394 72.862 95.3634 55.3397 105.009C54.5138 105.463 53.4872 105.463 52.6613 105.009C35.1387 95.3634 23.5803 81.7396 18.3071 64.5154C14.0318 50.5528 15.2224 38.0908 15.9328 33.3808C16.0728 32.4532 16.7081 31.6532 17.5915 31.293L52.9413 16.8665C53.614 16.5918 54.3865 16.5916 55.0594 16.8665L65.6761 21.1994C66.5742 21.5655 67.5991 21.1347 67.9652 20.2371C68.3316 19.3392 67.9008 18.3143 67.0029 17.9479L56.3859 13.6151C54.8473 12.9872 53.153 12.9876 51.6143 13.6151L16.2645 28.0415C14.2416 28.867 12.7838 30.7125 12.4603 32.8572C11.7143 37.8042 10.4632 50.8921 14.9489 65.5434C17.4443 73.6942 21.3544 81.1952 26.5706 87.8376C32.8282 95.8061 41.0365 102.618 50.9677 108.085C51.903 108.6 52.9514 108.857 54.0002 108.857C55.0488 108.857 56.0977 108.6 57.0328 108.085C66.9642 102.618 75.1725 95.8061 81.4298 87.8376C86.6458 81.1952 90.5559 73.694 93.0513 65.5434C97.537 50.8919 96.2859 37.804 95.5397 32.8572C95.2162 30.7122 93.7587 28.867 91.7358 28.0415Z" stroke="#A2C2C6" stroke-width="2" mask="url(#path-1-outside-1)"/>
<path d="M50.5005 82.2942H57.4997C60.0052 82.2942 62.0437 80.2654 62.0437 77.7717V70.0101C62.0437 69.4528 62.5066 68.9992 63.0759 68.9992H70.8984C73.4041 68.9992 75.4425 66.9705 75.4425 64.477V57.5325C75.4425 55.0387 73.4041 53.01 70.8984 53.01H63.0759C62.5066 53.01 62.0437 52.5567 62.0437 51.9993V44.2375C62.0437 41.744 60.0054 39.7153 57.4997 39.7153H50.5005C47.9951 39.7153 45.9565 41.7438 45.9565 44.2375V51.9993C45.9565 52.5564 45.4934 53.01 44.9243 53.01H37.1016C34.5961 53.01 32.5575 55.0387 32.5575 57.5325V64.477C32.5575 66.7401 34.2563 68.6678 36.5088 68.961C37.4709 69.0876 38.3513 68.4079 38.4766 67.4465C38.6018 66.4849 37.9235 65.6041 36.9621 65.4787C36.4533 65.4124 36.0694 64.9818 36.0694 64.4772V57.5327C36.0694 56.9753 36.5325 56.5218 37.1016 56.5218H44.9243C47.4298 56.5218 49.4684 54.4931 49.4684 51.9996V44.2378C49.4684 43.6807 49.9315 43.2271 50.5005 43.2271H57.4997C58.069 43.2271 58.5319 43.6804 58.5319 44.2378V51.9996C58.5319 54.4931 60.5702 56.5218 63.0757 56.5218H70.8982C71.4675 56.5218 71.9306 56.9751 71.9306 57.5327V64.4772C71.9306 65.0343 71.4675 65.4878 70.8982 65.4878H63.0757C60.5702 65.4878 58.5319 67.5166 58.5319 70.0103V77.7719C58.5319 78.3292 58.069 78.7828 57.4997 78.7828H50.5005C49.9315 78.7828 49.4684 78.3295 49.4684 77.7719V70.0103C49.4684 67.5168 47.43 65.4878 44.9243 65.4878C43.9545 65.4878 43.1684 66.2739 43.1684 67.2438C43.1684 68.2136 43.9545 68.9997 44.9243 68.9997C45.4934 68.9997 45.9565 69.453 45.9565 70.0106V77.7721C45.9567 80.2654 47.9951 82.2942 50.5005 82.2942Z" stroke="#A2C2C6" stroke-width="2" mask="url(#path-1-outside-1)"/>
</svg>
