<svg width="122" height="120" viewBox="0 0 122 120" fill="none" xmlns="http://www.w3.org/2000/svg">
<path d="M119.043 56.0599C117.219 54.3773 114.738 53.338 112.236 53.2078C109.394 53.061 106.732 54.0742 104.749 56.058L91.2007 69.4639C90.933 69 90.6271 68.5621 90.2841 68.1559C88.6173 66.1768 86.1799 65.0873 83.4218 65.0873H64.4559C60.8798 65.0873 57.3909 64.6234 54.0871 63.7096C45.4734 61.327 37.2445 63.0672 30.2883 68.7453C27.4595 71.0544 25.3958 73.5662 24.0906 75.3975L20.6901 72.0974C20.243 71.6633 19.6369 71.417 19.0131 71.417C19.0075 71.417 19.0029 71.417 18.9973 71.417C18.3512 71.4216 17.7265 71.6903 17.2785 72.1551L0.747282 89.3165C0.30479 89.7757 0.0640221 90.393 0.0779662 91.0307C0.0919103 91.6693 0.358707 92.2754 0.820721 92.7151L28.7805 119.338C29.2443 119.78 29.8393 120 30.4333 120C31.0571 120 31.6808 119.757 32.1503 119.276L48.5272 102.474C48.9743 102.015 49.2225 101.387 49.2104 100.746C49.1983 100.114 48.9334 99.5041 48.4797 99.0634L47.0537 97.6802L50.3176 97.313C52.2921 97.0834 54.3 96.9672 56.2875 96.9672H85.1434C89.8323 96.9672 93.8148 95.9418 96.981 93.919C97.007 93.9023 97.033 93.8846 97.0591 93.8669C98.1932 93.0786 99.2223 92.1444 100.117 91.0911L119.562 68.2145C122.89 64.2999 122.682 59.4148 119.043 56.0599ZM30.371 114.234L5.8722 90.9061L19.0698 77.2047L43.4255 100.84L30.371 114.234ZM115.91 65.1096L96.4641 87.9872C95.8469 88.7132 95.1394 89.3583 94.3595 89.9049C91.9825 91.41 88.8823 92.1741 85.1434 92.1741H56.2866C54.1159 92.1741 51.9211 92.3015 49.7728 92.5515L42.5981 93.3566L27.5757 78.7785C28.6196 77.2307 30.5393 74.7291 33.3197 72.459C39.1 67.7404 45.6575 66.3506 52.8089 68.3297C56.5292 69.3588 60.4475 69.8812 64.4559 69.8812H83.4218C86.8278 69.8812 87.737 72.8318 87.737 74.5748C87.737 75.8484 87.328 77.0606 86.615 77.901C85.8415 78.811 84.7418 79.2721 83.3465 79.2721H66.8367C65.5129 79.2721 64.4401 80.3458 64.4401 81.6696C64.4401 82.9933 65.5129 84.0661 66.8367 84.0661H83.3465C86.1334 84.0661 88.5913 82.9785 90.2683 81.004C91.6636 79.3623 92.4594 77.2038 92.5263 74.8965L108.13 59.4566C110.36 57.2265 113.844 57.7861 115.793 59.584C116.801 60.5136 118.156 62.4667 115.91 65.1096Z" fill="#A2C2C6"/>
<path d="M59.3617 81.0309C59.0596 79.7416 57.7702 78.943 56.4809 79.2442C55.1924 79.5464 54.392 80.8357 54.6951 82.1251L54.7174 82.2227C54.9768 83.3271 55.9612 84.0726 57.0488 84.0726C57.2301 84.0726 57.4142 84.0522 57.5982 84.0094C58.8876 83.7073 59.6871 82.417 59.3849 81.1285L59.3617 81.0309Z" fill="#A2C2C6"/>
<path d="M16.2782 50.5705H39.6336C40.9053 50.5705 42.0822 50.1578 43.0397 49.4606C43.9972 50.1578 45.1741 50.5705 46.4458 50.5705H69.8021C71.0738 50.5705 72.2507 50.1578 73.2082 49.4606C74.1657 50.1578 75.3426 50.5705 76.6143 50.5705H99.9697C103.169 50.5705 105.772 47.9667 105.772 44.767V33.8758C105.772 28.9842 103.035 24.7349 98.9369 22.6387C100.923 20.244 102.118 17.1726 102.118 13.826C102.118 6.20233 95.9157 0 88.292 0C80.6683 0 74.4659 6.20233 74.4659 13.826C74.4659 17.1726 75.6614 20.245 77.647 22.6387C75.8762 23.546 74.36 24.8558 73.2082 26.4445C72.0564 24.8549 70.5402 23.5451 68.7684 22.6387C70.754 20.245 71.9495 17.1726 71.9495 13.826C71.9495 6.20233 65.7472 0 58.1235 0C50.4998 0 44.2974 6.20233 44.2974 13.826C44.2974 17.1726 45.4939 20.245 47.4795 22.6396C45.7077 23.546 44.1915 24.8558 43.0397 26.4454C41.8879 24.8558 40.3717 23.546 38.5999 22.6387C40.5855 20.245 41.781 17.1726 41.781 13.827C41.781 6.20233 35.5787 0 27.955 0C20.3322 0 14.1299 6.20233 14.1299 13.827C14.1299 17.1726 15.3254 20.245 17.311 22.6396C13.2133 24.7359 10.4747 28.986 10.4747 33.8767V44.767C10.4747 47.9667 13.0785 50.5705 16.2782 50.5705ZM88.2929 4.79398C93.2728 4.79398 97.3249 8.8452 97.3249 13.826C97.3249 18.8059 93.2728 22.8581 88.2929 22.8581C83.3121 22.8581 79.2608 18.8069 79.2608 13.826C79.2599 8.8452 83.3121 4.79398 88.2929 4.79398ZM82.0655 26.1647C83.9386 27.1138 86.0535 27.652 88.292 27.652C90.5314 27.652 92.6462 27.1138 94.5185 26.1647C98.2434 26.8135 100.979 30.0235 100.979 33.8758V44.767C100.979 45.3239 100.527 45.7766 99.9697 45.7766H76.6143C76.0584 45.7766 75.6056 45.3239 75.6056 44.767V33.8758C75.6047 30.0244 78.3415 26.8135 82.0655 26.1647ZM58.1244 4.79398C63.1043 4.79398 67.1565 8.8452 67.1565 13.826C67.1565 18.8059 63.1043 22.8581 58.1244 22.8581C53.1436 22.8581 49.0924 18.8069 49.0924 13.826C49.0924 8.8452 53.1436 4.79398 58.1244 4.79398ZM51.8979 26.1647C53.7701 27.1138 55.885 27.652 58.1244 27.652C60.3638 27.652 62.4777 27.1138 64.3509 26.1647C68.0749 26.8135 70.8117 30.0235 70.8117 33.8758V44.767C70.8117 45.3239 70.3589 45.7766 69.8021 45.7766H46.4467C45.8899 45.7766 45.4371 45.3239 45.4371 44.767V33.8758C45.4371 30.0244 48.1739 26.8135 51.8979 26.1647ZM27.9559 4.79398C32.9358 4.79398 36.988 8.8452 36.988 13.826C36.988 18.8059 32.9358 22.8581 27.9559 22.8581C22.976 22.8581 18.9239 18.8059 18.9239 13.826C18.9239 8.8452 22.976 4.79398 27.9559 4.79398ZM15.2687 33.8758C15.2687 30.0244 18.0054 26.8135 21.7294 26.1647C23.6026 27.1138 25.7165 27.652 27.9559 27.652C30.1953 27.652 32.3093 27.1138 34.1824 26.1647C37.9073 26.8135 40.6432 30.0235 40.6432 33.8758V44.767C40.6432 45.3239 40.1904 45.7766 39.6336 45.7766H16.2782C15.7214 45.7766 15.2687 45.3239 15.2687 44.767V33.8758Z" fill="#A2C2C6"/>
</svg>
