<svg width="114" height="122" viewBox="0 0 114 122" fill="none" xmlns="http://www.w3.org/2000/svg">
<mask id="path-1-outside-1" maskUnits="userSpaceOnUse" x="0" y="0" width="114" height="122" fill="black">
<rect fill="white" width="114" height="122"/>
<path d="M107 1H39C35.6865 1 33 3.68652 33 7V13H7C3.68652 13 1 15.6865 1 19V115C1 118.313 3.68652 121 7 121H75C78.3135 121 81 118.313 81 115V109H107C110.313 109 113 106.313 113 103V7C113 3.68652 110.313 1 107 1ZM93 5H97V10.5283L96.7998 10.1064C96.4238 9.47559 95.7441 9.08887 95.0098 9.08887C94.2764 9.08887 93.5957 9.47559 93.2197 10.1064L93.0195 10.5283L93 5ZM75 117H7C5.89551 117 5 116.104 5 115V19C5 17.8955 5.89551 17 7 17H57V31C56.9893 31.9365 57.6299 32.7549 58.542 32.9697C59.4531 33.1836 60.3916 32.7373 60.7998 31.8936L63 27.4717L65.2002 31.8936C65.6084 32.7373 66.5469 33.1836 67.458 32.9697C68.3701 32.7549 69.0107 31.9365 69 31V17H75C76.1045 17 77 17.8955 77 19V44.248C76.082 45.417 74.9814 46.4297 73.7402 47.248C71.6758 48.4014 69.3486 49.0049 66.9844 49L62.9844 49.0322C61.8857 49.041 61 49.9336 61 51.0322V66.1318C60.9785 72.3447 64.1816 78.124 69.46 81.4004L77 86.1084V115C77 116.104 76.1045 117 75 117ZM61 17H65V22.5283L64.7998 22.1064C64.4238 21.4756 63.7441 21.0889 63.0098 21.0889C62.2764 21.0889 61.5957 21.4756 61.2197 22.1064L61.0195 22.5283L61 17ZM79 82.6416L71.5801 78C67.4766 75.4531 64.9863 70.9619 65 66.1318V53.0156L67 53C70.0352 53.0059 73.0215 52.2344 75.6738 50.7578C76.9199 50.0234 78.043 49.0967 79 48.0117C79.9502 49.0898 81.0635 50.0117 82.2998 50.7441C84.9541 52.2266 87.9443 53.0029 90.9844 53L93 53.0156V66.1318C93.0137 70.9619 90.5234 75.4531 86.4199 78L79 82.6416ZM109 103C109 104.104 108.104 105 107 105H81V86.1084L88.542 81.4004C93.8193 78.123 97.0205 72.3438 97 66.1318V51.0322C97 49.9336 96.1143 49.041 95.0156 49.0322L91 49C88.6309 49.0049 86.3008 48.3994 84.2344 47.2422C83.0029 46.4229 81.9111 45.4121 81 44.248V19C81 15.6865 78.3135 13 75 13H37V7C37 5.89551 37.8955 5 39 5H89V19C88.9893 19.9365 89.6299 20.7549 90.542 20.9697C91.4531 21.1836 92.3916 20.7373 92.7998 19.8936L95 15.4717L97.2002 19.8936C97.6084 20.7373 98.5469 21.1836 99.458 20.9697C100.37 20.7549 101.011 19.9365 101 19V5H107C108.104 5 109 5.89551 109 7V103Z"/>
<path d="M13 45H29V49H13V45Z"/>
<path d="M33 45H41V49H33V45Z"/>
<path d="M45 45H57V49H45V45Z"/>
<path d="M13 53H25V57H13V53Z"/>
<path d="M29 53H33V57H29V53Z"/>
<path d="M37 53H57V57H37V53Z"/>
<path d="M13 61H29V65H13V61Z"/>
<path d="M33 61H45V65H33V61Z"/>
<path d="M49 61H57V65H49V61Z"/>
<path d="M13 69H57V73H13V69Z"/>
<path d="M13 77H25V81H13V77Z"/>
<path d="M29 77H49V81H29V77Z"/>
<path d="M53 77H57V81H53V77Z"/>
<path d="M13 85H17V89H13V85Z"/>
<path d="M21 85H33V89H21V85Z"/>
<path d="M37 85H69V89H37V85Z"/>
<path d="M13 25H17V29H13V25Z"/>
<path d="M21 25H39V29H21V25Z"/>
<path d="M13 33H39V37H13V33Z"/>
<path d="M87.5859 55.5859L77 66.1719L72.4141 61.5859L69.5859 64.4141L75.5859 70.4141C76.3672 71.1943 77.6328 71.1943 78.4141 70.4141L90.4141 58.4141L87.5859 55.5859Z"/>
<path d="M85 29H101V33H85V29Z"/>
<path d="M85 37H101V41H85V37Z"/>
<path d="M85 89H101V93H85V89Z"/>
<path d="M85 97H101V101H85V97Z"/>
</mask>
<path d="M107 1H39C35.6865 1 33 3.68652 33 7V13H7C3.68652 13 1 15.6865 1 19V115C1 118.313 3.68652 121 7 121H75C78.3135 121 81 118.313 81 115V109H107C110.313 109 113 106.313 113 103V7C113 3.68652 110.313 1 107 1ZM93 5H97V10.5283L96.7998 10.1064C96.4238 9.47559 95.7441 9.08887 95.0098 9.08887C94.2764 9.08887 93.5957 9.47559 93.2197 10.1064L93.0195 10.5283L93 5ZM75 117H7C5.89551 117 5 116.104 5 115V19C5 17.8955 5.89551 17 7 17H57V31C56.9893 31.9365 57.6299 32.7549 58.542 32.9697C59.4531 33.1836 60.3916 32.7373 60.7998 31.8936L63 27.4717L65.2002 31.8936C65.6084 32.7373 66.5469 33.1836 67.458 32.9697C68.3701 32.7549 69.0107 31.9365 69 31V17H75C76.1045 17 77 17.8955 77 19V44.248C76.082 45.417 74.9814 46.4297 73.7402 47.248C71.6758 48.4014 69.3486 49.0049 66.9844 49L62.9844 49.0322C61.8857 49.041 61 49.9336 61 51.0322V66.1318C60.9785 72.3447 64.1816 78.124 69.46 81.4004L77 86.1084V115C77 116.104 76.1045 117 75 117ZM61 17H65V22.5283L64.7998 22.1064C64.4238 21.4756 63.7441 21.0889 63.0098 21.0889C62.2764 21.0889 61.5957 21.4756 61.2197 22.1064L61.0195 22.5283L61 17ZM79 82.6416L71.5801 78C67.4766 75.4531 64.9863 70.9619 65 66.1318V53.0156L67 53C70.0352 53.0059 73.0215 52.2344 75.6738 50.7578C76.9199 50.0234 78.043 49.0967 79 48.0117C79.9502 49.0898 81.0635 50.0117 82.2998 50.7441C84.9541 52.2266 87.9443 53.0029 90.9844 53L93 53.0156V66.1318C93.0137 70.9619 90.5234 75.4531 86.4199 78L79 82.6416ZM109 103C109 104.104 108.104 105 107 105H81V86.1084L88.542 81.4004C93.8193 78.123 97.0205 72.3438 97 66.1318V51.0322C97 49.9336 96.1143 49.041 95.0156 49.0322L91 49C88.6309 49.0049 86.3008 48.3994 84.2344 47.2422C83.0029 46.4229 81.9111 45.4121 81 44.248V19C81 15.6865 78.3135 13 75 13H37V7C37 5.89551 37.8955 5 39 5H89V19C88.9893 19.9365 89.6299 20.7549 90.542 20.9697C91.4531 21.1836 92.3916 20.7373 92.7998 19.8936L95 15.4717L97.2002 19.8936C97.6084 20.7373 98.5469 21.1836 99.458 20.9697C100.37 20.7549 101.011 19.9365 101 19V5H107C108.104 5 109 5.89551 109 7V103Z" fill="#A2C2C6"/>
<path d="M13 45H29V49H13V45Z" fill="#A2C2C6"/>
<path d="M33 45H41V49H33V45Z" fill="#A2C2C6"/>
<path d="M45 45H57V49H45V45Z" fill="#A2C2C6"/>
<path d="M13 53H25V57H13V53Z" fill="#A2C2C6"/>
<path d="M29 53H33V57H29V53Z" fill="#A2C2C6"/>
<path d="M37 53H57V57H37V53Z" fill="#A2C2C6"/>
<path d="M13 61H29V65H13V61Z" fill="#A2C2C6"/>
<path d="M33 61H45V65H33V61Z" fill="#A2C2C6"/>
<path d="M49 61H57V65H49V61Z" fill="#A2C2C6"/>
<path d="M13 69H57V73H13V69Z" fill="#A2C2C6"/>
<path d="M13 77H25V81H13V77Z" fill="#A2C2C6"/>
<path d="M29 77H49V81H29V77Z" fill="#A2C2C6"/>
<path d="M53 77H57V81H53V77Z" fill="#A2C2C6"/>
<path d="M13 85H17V89H13V85Z" fill="#A2C2C6"/>
<path d="M21 85H33V89H21V85Z" fill="#A2C2C6"/>
<path d="M37 85H69V89H37V85Z" fill="#A2C2C6"/>
<path d="M13 25H17V29H13V25Z" fill="#A2C2C6"/>
<path d="M21 25H39V29H21V25Z" fill="#A2C2C6"/>
<path d="M13 33H39V37H13V33Z" fill="#A2C2C6"/>
<path d="M87.5859 55.5859L77 66.1719L72.4141 61.5859L69.5859 64.4141L75.5859 70.4141C76.3672 71.1943 77.6328 71.1943 78.4141 70.4141L90.4141 58.4141L87.5859 55.5859Z" fill="#A2C2C6"/>
<path d="M85 29H101V33H85V29Z" fill="#A2C2C6"/>
<path d="M85 37H101V41H85V37Z" fill="#A2C2C6"/>
<path d="M85 89H101V93H85V89Z" fill="#A2C2C6"/>
<path d="M85 97H101V101H85V97Z" fill="#A2C2C6"/>
<path d="M107 1H39C35.6865 1 33 3.68652 33 7V13H7C3.68652 13 1 15.6865 1 19V115C1 118.313 3.68652 121 7 121H75C78.3135 121 81 118.313 81 115V109H107C110.313 109 113 106.313 113 103V7C113 3.68652 110.313 1 107 1ZM93 5H97V10.5283L96.7998 10.1064C96.4238 9.47559 95.7441 9.08887 95.0098 9.08887C94.2764 9.08887 93.5957 9.47559 93.2197 10.1064L93.0195 10.5283L93 5ZM75 117H7C5.89551 117 5 116.104 5 115V19C5 17.8955 5.89551 17 7 17H57V31C56.9893 31.9365 57.6299 32.7549 58.542 32.9697C59.4531 33.1836 60.3916 32.7373 60.7998 31.8936L63 27.4717L65.2002 31.8936C65.6084 32.7373 66.5469 33.1836 67.458 32.9697C68.3701 32.7549 69.0107 31.9365 69 31V17H75C76.1045 17 77 17.8955 77 19V44.248C76.082 45.417 74.9814 46.4297 73.7402 47.248C71.6758 48.4014 69.3486 49.0049 66.9844 49L62.9844 49.0322C61.8857 49.041 61 49.9336 61 51.0322V66.1318C60.9785 72.3447 64.1816 78.124 69.46 81.4004L77 86.1084V115C77 116.104 76.1045 117 75 117ZM61 17H65V22.5283L64.7998 22.1064C64.4238 21.4756 63.7441 21.0889 63.0098 21.0889C62.2764 21.0889 61.5957 21.4756 61.2197 22.1064L61.0195 22.5283L61 17ZM79 82.6416L71.5801 78C67.4766 75.4531 64.9863 70.9619 65 66.1318V53.0156L67 53C70.0352 53.0059 73.0215 52.2344 75.6738 50.7578C76.9199 50.0234 78.043 49.0967 79 48.0117C79.9502 49.0898 81.0635 50.0117 82.2998 50.7441C84.9541 52.2266 87.9443 53.0029 90.9844 53L93 53.0156V66.1318C93.0137 70.9619 90.5234 75.4531 86.4199 78L79 82.6416ZM109 103C109 104.104 108.104 105 107 105H81V86.1084L88.542 81.4004C93.8193 78.123 97.0205 72.3438 97 66.1318V51.0322C97 49.9336 96.1143 49.041 95.0156 49.0322L91 49C88.6309 49.0049 86.3008 48.3994 84.2344 47.2422C83.0029 46.4229 81.9111 45.4121 81 44.248V19C81 15.6865 78.3135 13 75 13H37V7C37 5.89551 37.8955 5 39 5H89V19C88.9893 19.9365 89.6299 20.7549 90.542 20.9697C91.4531 21.1836 92.3916 20.7373 92.7998 19.8936L95 15.4717L97.2002 19.8936C97.6084 20.7373 98.5469 21.1836 99.458 20.9697C100.37 20.7549 101.011 19.9365 101 19V5H107C108.104 5 109 5.89551 109 7V103Z" stroke="#A2C2C6" stroke-width="2" mask="url(#path-1-outside-1)"/>
<path d="M13 45H29V49H13V45Z" stroke="#A2C2C6" stroke-width="2" mask="url(#path-1-outside-1)"/>
<path d="M33 45H41V49H33V45Z" stroke="#A2C2C6" stroke-width="2" mask="url(#path-1-outside-1)"/>
<path d="M45 45H57V49H45V45Z" stroke="#A2C2C6" stroke-width="2" mask="url(#path-1-outside-1)"/>
<path d="M13 53H25V57H13V53Z" stroke="#A2C2C6" stroke-width="2" mask="url(#path-1-outside-1)"/>
<path d="M29 53H33V57H29V53Z" stroke="#A2C2C6" stroke-width="2" mask="url(#path-1-outside-1)"/>
<path d="M37 53H57V57H37V53Z" stroke="#A2C2C6" stroke-width="2" mask="url(#path-1-outside-1)"/>
<path d="M13 61H29V65H13V61Z" stroke="#A2C2C6" stroke-width="2" mask="url(#path-1-outside-1)"/>
<path d="M33 61H45V65H33V61Z" stroke="#A2C2C6" stroke-width="2" mask="url(#path-1-outside-1)"/>
<path d="M49 61H57V65H49V61Z" stroke="#A2C2C6" stroke-width="2" mask="url(#path-1-outside-1)"/>
<path d="M13 69H57V73H13V69Z" stroke="#A2C2C6" stroke-width="2" mask="url(#path-1-outside-1)"/>
<path d="M13 77H25V81H13V77Z" stroke="#A2C2C6" stroke-width="2" mask="url(#path-1-outside-1)"/>
<path d="M29 77H49V81H29V77Z" stroke="#A2C2C6" stroke-width="2" mask="url(#path-1-outside-1)"/>
<path d="M53 77H57V81H53V77Z" stroke="#A2C2C6" stroke-width="2" mask="url(#path-1-outside-1)"/>
<path d="M13 85H17V89H13V85Z" stroke="#A2C2C6" stroke-width="2" mask="url(#path-1-outside-1)"/>
<path d="M21 85H33V89H21V85Z" stroke="#A2C2C6" stroke-width="2" mask="url(#path-1-outside-1)"/>
<path d="M37 85H69V89H37V85Z" stroke="#A2C2C6" stroke-width="2" mask="url(#path-1-outside-1)"/>
<path d="M13 25H17V29H13V25Z" stroke="#A2C2C6" stroke-width="2" mask="url(#path-1-outside-1)"/>
<path d="M21 25H39V29H21V25Z" stroke="#A2C2C6" stroke-width="2" mask="url(#path-1-outside-1)"/>
<path d="M13 33H39V37H13V33Z" stroke="#A2C2C6" stroke-width="2" mask="url(#path-1-outside-1)"/>
<path d="M87.5859 55.5859L77 66.1719L72.4141 61.5859L69.5859 64.4141L75.5859 70.4141C76.3672 71.1943 77.6328 71.1943 78.4141 70.4141L90.4141 58.4141L87.5859 55.5859Z" stroke="#A2C2C6" stroke-width="2" mask="url(#path-1-outside-1)"/>
<path d="M85 29H101V33H85V29Z" stroke="#A2C2C6" stroke-width="2" mask="url(#path-1-outside-1)"/>
<path d="M85 37H101V41H85V37Z" stroke="#A2C2C6" stroke-width="2" mask="url(#path-1-outside-1)"/>
<path d="M85 89H101V93H85V89Z" stroke="#A2C2C6" stroke-width="2" mask="url(#path-1-outside-1)"/>
<path d="M85 97H101V101H85V97Z" stroke="#A2C2C6" stroke-width="2" mask="url(#path-1-outside-1)"/>
</svg>
