<svg width="130" height="121" viewBox="0 0 130 121" fill="none" xmlns="http://www.w3.org/2000/svg">
<path d="M81.9776 62.0269C89.28 61.6663 93.7734 56.959 93.7734 49.56C93.7734 49.007 93.7413 48.4525 93.6771 47.903C98.5748 44.7746 100.681 40.5864 100.681 34.0944C100.681 27.6042 98.5745 23.4157 93.6771 20.286C93.7413 19.7363 93.7734 19.1821 93.7734 18.6291C93.7734 11.2301 89.28 6.52276 81.9773 6.16212C80.0216 2.51267 76.196 0.247977 71.7713 0.186646C69.1913 0.152685 67.0789 0.928701 65.4869 2.49898C65.3176 2.66599 65.1554 2.84162 65 3.02536C64.8447 2.84162 64.6827 2.66599 64.5132 2.49898C62.9208 0.928701 60.8047 0.152179 58.2288 0.186646C53.8046 0.24823 49.9795 2.51216 48.0225 6.16212C40.72 6.52276 36.2266 11.2301 36.2266 18.6291C36.2266 19.1821 36.2591 19.7366 36.3229 20.286C31.4253 23.4144 29.319 27.6027 29.319 34.0946C29.319 40.5848 31.4256 44.7734 36.3229 47.903C36.2588 48.4527 36.2266 49.007 36.2266 49.56C36.2266 56.959 40.72 61.6663 48.0227 62.0269C49.9785 65.6764 53.8041 67.9411 58.2288 68.0024C58.2858 68.0031 58.3423 68.0037 58.3988 68.0037C60.8995 68.0037 62.9561 67.2259 64.5132 65.6903C64.6825 65.5233 64.8447 65.3477 65 65.1637C65.1554 65.3474 65.3173 65.5233 65.4869 65.6903C67.044 67.2259 69.1001 68.0037 71.601 68.0037C71.6575 68.0037 71.7143 68.0031 71.771 68.0024C76.1957 67.9408 80.0206 65.6769 81.9776 62.0269ZM62.4659 56.3041C62.4659 59.1084 61.9431 61.1062 60.9544 62.0812C60.3556 62.6717 59.4848 62.9514 58.2995 62.9342C55.665 62.8977 53.4242 61.5563 52.3792 59.414C52.7346 58.7493 53.2673 58.1957 53.9338 57.8103C54.8705 57.2687 55.9613 57.1247 57.0047 57.405C58.3557 57.7685 59.7466 56.9666 60.1095 55.6148C60.4727 54.263 59.6711 52.8729 58.3192 52.5097C55.9656 51.8779 53.5073 52.2018 51.3967 53.4223C49.9247 54.2736 48.7445 55.4891 47.9492 56.9466C43.5329 56.6333 41.2956 54.1525 41.2956 49.56C41.2956 48.9761 41.3513 48.3909 41.4613 47.8189C41.7489 46.3208 41.0573 44.8058 39.7423 44.0498C35.7892 41.774 34.3882 39.1689 34.3882 34.0946C34.3882 29.0199 35.7892 26.4146 39.7407 24.1403C41.0573 23.3835 41.7487 21.8687 41.461 20.3684C41.3511 19.7977 41.2956 19.2125 41.2956 18.6291C41.2956 13.7051 43.8672 11.2085 48.9391 11.2085H48.9695C49.0435 11.2085 49.1173 11.206 49.1905 11.2017C50.4884 11.7476 51.2193 13.1944 50.845 14.6028C50.4853 15.9553 51.2902 17.3434 52.6428 17.7033C52.861 17.7613 53.08 17.7889 53.2957 17.7889C54.4164 17.7889 55.4415 17.0398 55.7433 15.9052C56.5731 12.7854 55.423 9.59337 53.0711 7.67867C54.261 6.18392 56.1491 5.28473 58.2997 5.25483C59.4868 5.23785 60.3556 5.51738 60.9547 6.10789C61.9434 7.08285 62.4659 9.08067 62.4659 11.8852V56.3041ZM79.1556 53.5865C79.5152 52.234 78.7103 50.8459 77.3577 50.486C76.0054 50.1261 74.6168 50.9313 74.2572 52.2839C73.4275 55.4039 74.5776 58.5957 76.9294 60.5104C75.7396 62.0051 73.8512 62.9043 71.7008 62.9342C70.5135 62.9545 69.6447 62.6717 69.0459 62.0812C68.0572 61.1062 67.5346 59.1084 67.5346 56.3041V11.8852C67.5346 9.08093 68.0574 7.0831 69.0461 6.10814C69.645 5.51764 70.5135 5.23785 71.7011 5.25508C74.3355 5.29157 76.5764 6.633 77.6213 8.77528C77.266 9.44004 76.7333 9.99354 76.0667 10.379C75.13 10.9206 74.0395 11.0646 72.9959 10.7843C71.6448 10.4211 70.254 11.2227 69.8911 12.5745C69.5279 13.9261 70.3295 15.3164 71.6813 15.6793C72.4675 15.8905 73.265 15.9949 74.0578 15.9949C75.6382 15.9949 77.1983 15.5795 78.6039 14.7667C80.0758 13.9154 81.2561 12.7 82.0513 11.2425C86.4677 11.5557 88.705 14.0366 88.705 18.6291C88.705 19.213 88.6493 19.7982 88.5393 20.3702C88.2516 21.8682 88.9432 23.3832 90.2583 24.1392C94.2114 26.4151 95.6124 29.0201 95.6124 34.0944C95.6124 39.1692 94.2114 41.7745 90.2598 44.0488C88.9432 44.8055 88.2519 46.3203 88.5393 47.8207C88.6493 48.3914 88.7048 48.9766 88.7048 49.56C88.7048 54.4839 86.1331 56.9805 81.0612 56.9805H81.0414C80.9633 56.9803 80.886 56.9826 80.809 56.9871C79.5119 56.4412 78.7813 54.9944 79.1556 53.5865Z" fill="#A2C2C6"/>
<path d="M50.6249 28.9076C47.6271 28.9076 45.0208 30.6181 43.8233 33.3714C42.6324 36.1092 43.1542 39.1634 45.1855 41.3429C45.2831 41.4476 45.3829 41.551 45.485 41.6528C45.9797 42.1468 46.6278 42.3936 47.2756 42.3936C47.9249 42.3936 48.5742 42.1455 49.0691 41.6498C50.058 40.6594 50.0568 39.0546 49.0663 38.0657C49.007 38.0067 48.949 37.9464 48.893 37.8863C47.9403 36.8639 48.3293 35.7194 48.4715 35.393C48.616 35.0608 49.1986 33.9763 50.6252 33.9763C52.0249 33.9763 53.1595 32.8417 53.1595 31.442C53.1593 30.0423 52.0247 28.9076 50.6249 28.9076Z" fill="#A2C2C6"/>
<path d="M80.9345 38.0658C79.9438 39.0547 79.9428 40.6594 80.9317 41.6498C81.4269 42.1458 82.076 42.3937 82.7253 42.3937C83.3733 42.3937 84.0213 42.1466 84.5158 41.6529C84.6179 41.551 84.7178 41.4473 84.8158 41.3424C86.8466 39.1637 87.3682 36.1095 86.1773 33.3717C84.9798 30.6183 82.3735 28.9079 79.3756 28.9079C77.9759 28.9079 76.8413 30.0425 76.8413 31.4423C76.8413 32.842 77.9759 33.9766 79.3756 33.9766C80.8022 33.9766 81.3848 35.0611 81.5293 35.3933C81.6715 35.7197 82.0605 36.8642 81.1084 37.8858C81.0518 37.9467 80.9938 38.0067 80.9345 38.0658Z" fill="#A2C2C6"/>
<path d="M42.3597 68.3853L24.692 50.9762V32.2324C24.692 27.9978 21.2468 24.5526 17.0122 24.5526C16.9722 24.5526 16.7512 24.5572 16.7466 24.5572C16.3135 24.5721 15.8834 24.6243 15.4614 24.7118V22.8381C15.4614 18.6478 12.2497 15.2143 8.14936 15.0214C5.96932 14.9178 3.74923 15.7328 2.21266 17.1989C0.902911 18.4479 0.18189 20.0757 0.18189 21.7821C0.18189 27.7596 0.145395 55.6072 0.121066 64.3246C0.120559 64.5303 0.122079 64.7346 0.126134 64.9386C0.244742 71.1501 2.99755 77.1803 7.67848 81.4826C7.71852 81.5196 7.75983 81.5551 7.80241 81.5893L27.5642 97.5295V117.651C27.5642 119.051 28.6988 120.186 30.0985 120.186H47.913C49.3127 120.186 50.4473 119.051 50.4473 117.651V87.7079C50.4473 80.4924 47.4996 73.4497 42.3597 68.3853ZM16.9058 29.6233L17.012 29.6213C18.4517 29.6213 19.6231 30.7927 19.6231 32.2324V48.0863C18.2381 47.8589 16.8031 47.9907 15.4609 48.4895V30.1312C15.8819 29.8192 16.3779 29.6444 16.9058 29.6233ZM45.3786 115.117H32.6329V96.3179C32.6329 95.5515 32.2862 94.8264 31.6896 94.3451L11.0504 77.6973C7.41921 74.3309 5.28555 69.65 5.19381 64.8428C5.19077 64.6756 5.18925 64.5073 5.18975 64.3382C5.21383 55.6183 5.25058 27.7613 5.25058 21.7821C5.25058 21.4658 5.40543 21.1578 5.71107 20.8661C6.24835 20.3537 7.11078 20.0483 7.91088 20.0843C9.27917 20.1487 10.3925 21.3839 10.3925 22.8379V53.989C10.3071 54.2967 10.2392 54.6109 10.1893 54.9305C9.79161 57.4821 10.6312 60.1023 12.4362 61.9446L30.2868 80.6184C31.254 81.6301 32.8582 81.6663 33.8702 80.699C34.8819 79.7318 34.9181 78.1274 33.9507 77.1156L16.0887 58.4299C16.0801 58.4208 16.0712 58.4119 16.0623 58.4031C15.3575 57.6874 15.0423 56.7063 15.1974 55.7116C15.2967 55.0757 15.5839 54.4956 16.0327 54.0268C16.1138 53.9528 16.2798 53.8025 16.3647 53.7259C17.6222 52.7375 19.4056 52.8491 20.5355 53.9958C20.5443 54.005 20.5532 54.0136 20.5621 54.0225L38.802 71.9953C42.9814 76.1133 45.3784 81.8402 45.3784 87.7077L45.3786 115.117Z" fill="#A2C2C6"/>
<path d="M129.819 21.782C129.819 20.0757 129.098 18.4478 127.788 17.1987C126.252 15.7325 124.033 14.9195 121.851 15.0212C117.751 15.214 114.539 18.6476 114.539 22.8378V24.7112C114.118 24.624 113.689 24.5718 113.257 24.5571C113.252 24.5571 113.029 24.5523 112.988 24.5523C108.753 24.5523 105.308 27.9975 105.308 32.2321V50.9759L87.6406 68.3851C82.5009 73.4494 79.553 80.4921 79.553 87.7079V117.651C79.553 119.051 80.6876 120.186 82.0873 120.186H99.9017C101.301 120.186 102.436 119.051 102.436 117.651V97.5295L122.198 81.5892C122.24 81.555 122.282 81.5195 122.322 81.4825C127.003 77.18 129.756 71.15 129.874 64.9376C129.878 64.7346 129.879 64.5303 129.879 64.324C129.855 55.6072 129.819 27.7595 129.819 21.782ZM112.972 29.621L113.096 29.6233C113.623 29.6443 114.119 29.8192 114.539 30.1312V48.4882C113.198 47.9899 111.763 47.8584 110.377 48.086V32.2321C110.377 30.7926 111.549 29.6213 112.972 29.621ZM124.807 64.842C124.715 69.6502 122.581 74.3311 118.95 77.6975L98.3107 94.3454C97.7143 94.8264 97.3674 95.5517 97.3674 96.3181V115.117H84.6217V87.7082C84.6217 81.8409 87.0186 76.1138 91.198 71.9957L109.438 54.0229C109.447 54.0141 109.456 54.0052 109.464 53.9963C110.595 52.8488 112.381 52.7375 113.634 53.7251C113.719 53.8017 113.887 53.9537 113.968 54.0277C114.415 54.4936 114.703 55.0744 114.802 55.7116C114.957 56.7065 114.642 57.6876 113.937 58.4033C113.93 58.4104 113.923 58.4177 113.916 58.4248L104.913 67.788C103.943 68.7969 103.975 70.4011 104.984 71.3715C105.992 72.3414 107.597 72.3105 108.567 71.3013L117.562 61.9471C119.368 60.1046 120.208 57.4833 119.81 54.9305C119.761 54.6109 119.693 54.2966 119.607 53.9892V22.8378C119.607 21.3839 120.721 20.1486 122.089 20.0843C122.89 20.0483 123.751 20.3537 124.289 20.8661C124.594 21.1576 124.749 21.4657 124.749 21.782C124.749 27.7616 124.786 55.6183 124.81 64.338C124.811 64.5073 124.81 64.6758 124.807 64.842Z" fill="#A2C2C6"/>
<path d="M101.122 76.882C100.707 75.8695 99.6453 75.2286 98.5557 75.3271C97.5098 75.4219 96.6058 76.1789 96.3362 77.1947C96.068 78.2047 96.4586 79.3002 97.3076 79.9108C98.1652 80.5276 99.3561 80.537 100.224 79.9346C101.192 79.2627 101.576 77.9715 101.122 76.882Z" fill="#A2C2C6"/>
</svg>
