<svg width="120" height="120" viewBox="0 0 120 120" fill="none" xmlns="http://www.w3.org/2000/svg">
<g clip-path="url(#clip0)">
<path d="M117.306 74.2969C118.979 72.4294 120 69.9649 120 67.2656C120 61.4501 115.269 56.7188 109.453 56.7188C107.193 56.7188 89.5346 56.7188 87.1464 56.7188C90.2863 48.2981 91.8749 39.4692 91.8749 30.4034V25.0781C91.8749 19.2626 87.1435 14.5312 81.328 14.5312C75.5125 14.5312 70.7811 19.2626 70.7811 25.0781C70.7811 33.2077 67.6154 40.8502 61.8671 46.5984L51.7468 56.7188H49.6874V53.2031C49.6874 51.2616 48.1133 49.6875 46.1718 49.6875H35.6249V46.1719C35.6249 44.2303 34.0508 42.6562 32.1093 42.6562H3.5155C1.57394 42.6562 -0.00012207 44.2303 -0.00012207 46.1719V116.484C-0.00012207 118.426 1.57394 120 3.5155 120H32.1093C34.0508 120 35.6249 118.426 35.6249 116.484V112.969H46.1718C47.6797 112.969 48.9625 112.017 49.4617 110.684L51.5605 112.782C56.2147 117.437 62.4029 120 68.9854 120C69.6805 120 101.71 120 102.422 120C108.237 120 112.969 115.269 112.969 109.453C112.969 108.081 112.702 106.77 112.223 105.566C116.699 104.346 120 100.248 120 95.3906C120 92.6913 118.979 90.2269 117.306 88.3594C118.979 86.4919 120 84.0274 120 81.3281C120 78.6288 118.979 76.1644 117.306 74.2969ZM28.5936 112.969H7.03113V49.6875H28.5936C28.5936 51.0785 28.5936 112.267 28.5936 112.969ZM42.6561 60.2344V102.422V105.938H35.6249V56.7188H42.6561V60.2344ZM87.5378 88.3594C85.8641 90.2269 84.8436 92.6913 84.8436 95.3906C84.8436 98.0899 85.8641 100.554 87.5378 102.422C85.8641 104.289 84.8436 106.754 84.8436 109.453C84.8436 110.685 85.0581 111.868 85.4483 112.969H68.9854C64.2812 112.969 59.8586 111.137 56.5323 107.811L49.6874 100.966V63.75H53.203C54.1356 63.75 55.0295 63.3795 55.6888 62.7202L66.8389 51.5702C73.9152 44.494 77.8124 35.0857 77.8124 25.0781C77.8124 23.1396 79.3895 21.5625 81.328 21.5625C83.2665 21.5625 84.8436 23.1396 84.8436 25.0781V30.4034C84.8436 40.26 82.7734 49.8066 78.6908 58.7782C77.6321 61.1041 79.3368 63.75 81.8905 63.75H85.4483C85.0581 64.8504 84.8436 66.0333 84.8436 67.2656C84.8436 69.9649 85.8641 72.4294 87.5378 74.2969C85.8641 76.1644 84.8436 78.6288 84.8436 81.3281C84.8436 84.0274 85.8641 86.4919 87.5378 88.3594ZM102.422 112.969H95.3905C93.452 112.969 91.8749 111.392 91.8749 109.453C91.8749 107.515 93.452 105.938 95.3905 105.938H102.422C104.36 105.938 105.937 107.515 105.937 109.453C105.937 111.392 104.36 112.969 102.422 112.969ZM109.453 98.9062C107.963 98.9062 96.8809 98.9062 95.3905 98.9062C93.452 98.9062 91.8749 97.3291 91.8749 95.3906C91.8749 93.4521 93.452 91.875 95.3905 91.875H109.453C111.392 91.875 112.969 93.4521 112.969 95.3906C112.969 97.3291 111.392 98.9062 109.453 98.9062ZM109.453 84.8438H95.3905C93.452 84.8438 91.8749 83.2666 91.8749 81.3281C91.8749 79.3896 93.452 77.8125 95.3905 77.8125H109.453C111.392 77.8125 112.969 79.3896 112.969 81.3281C112.969 83.2666 111.392 84.8438 109.453 84.8438ZM109.453 70.7812H95.3905C93.452 70.7812 91.8749 69.2041 91.8749 67.2656C91.8749 65.3271 93.452 63.75 95.3905 63.75H109.453C111.392 63.75 112.969 65.3271 112.969 67.2656C112.969 69.2041 111.392 70.7812 109.453 70.7812Z" fill="#A2C2C6"/>
<path d="M18.0468 105.938C19.9884 105.938 21.5624 104.364 21.5624 102.422C21.5624 100.48 19.9884 98.9062 18.0468 98.9062C16.1051 98.9062 14.5311 100.48 14.5311 102.422C14.5311 104.364 16.1051 105.938 18.0468 105.938Z" fill="#A2C2C6"/>
<path d="M95.3905 7.03125C97.3321 7.03125 98.9061 5.45725 98.9061 3.51562C98.9061 1.574 97.3321 0 95.3905 0C93.4489 0 91.8749 1.574 91.8749 3.51562C91.8749 5.45725 93.4489 7.03125 95.3905 7.03125Z" fill="#A2C2C6"/>
<path d="M61.8316 14.5756L53.5153 10.4173L49.3504 1.96338C48.0644 -0.647085 44.3301 -0.648491 43.0429 1.96338L38.8783 10.4173L30.562 14.5758C27.9728 15.8705 27.9787 19.5732 30.562 20.8646L38.8888 25.0282L43.0523 33.3549C44.347 35.944 48.0496 35.9381 49.3413 33.3549L53.5049 25.0282L61.8316 20.8646C64.4207 19.5701 64.4146 15.8674 61.8316 14.5756ZM49.312 19.2635C48.6316 19.6036 48.0801 20.1553 47.7398 20.8357L46.1964 23.922L44.6533 20.8357C44.313 20.1553 43.7615 19.6039 43.0811 19.2635L39.9949 17.7202L43.0813 16.1771C43.7681 15.8337 44.3235 15.2749 44.6627 14.5861L46.1967 11.4722L47.7306 14.5861C48.0698 15.2747 48.6253 15.8335 49.312 16.1771L52.3982 17.7202L49.312 19.2635Z" fill="#A2C2C6"/>
<path d="M116.484 28.5938H112.969V25.0781C112.969 23.1366 111.395 21.5625 109.453 21.5625C107.511 21.5625 105.937 23.1366 105.937 25.0781V28.5938H102.422C100.48 28.5938 98.9061 30.1678 98.9061 32.1094C98.9061 34.0509 100.48 35.625 102.422 35.625H105.937V39.1406C105.937 41.0822 107.511 42.6562 109.453 42.6562C111.395 42.6562 112.969 41.0822 112.969 39.1406V35.625H116.484C118.426 35.625 120 34.0509 120 32.1094C120 30.1678 118.426 28.5938 116.484 28.5938Z" fill="#A2C2C6"/>
</g>
<defs>
<clipPath id="clip0">
<rect width="120" height="120" fill="white" transform="translate(-0.00012207)"/>
</clipPath>
</defs>
</svg>
