<svg width="156" height="120" viewBox="0 0 156 120" fill="none" xmlns="http://www.w3.org/2000/svg">
<path d="M77.9143 60.0376C88.6029 60.0376 97.2683 51.3732 97.2683 40.6846C97.2683 29.996 88.6029 21.3306 77.9143 21.3306C67.2257 21.3306 58.5613 29.996 58.5613 40.6846C58.5729 51.3679 67.2299 60.0259 77.9143 60.0376ZM77.9143 27.4317C85.2335 27.4317 91.1672 33.3654 91.1672 40.6846C91.1672 48.0038 85.2335 53.9365 77.9143 53.9365C70.5951 53.9365 64.6624 48.0038 64.6624 40.6846C64.6698 33.3686 70.5972 27.4391 77.9143 27.4317Z" fill="#A2C2C6"/>
<path d="M128.542 51.191H120.305C109.513 51.191 99.7543 57.7041 95.3797 67.4225C91.3134 65.1049 86.7132 63.8868 82.0336 63.891H73.7971C69.1397 63.8868 64.5607 65.0933 60.5103 67.3886C56.1399 57.5834 46.4311 51.2461 35.6959 51.1921H27.4605C12.5107 51.208 0.397441 63.3212 0.380493 78.2699V104.249C0.380493 105.936 1.74689 107.3 3.43104 107.3H46.7192V116.949C46.7192 118.636 48.0835 120 49.7698 120H106.06C107.744 120 109.11 118.636 109.11 116.949V107.3H152.569C154.253 107.3 155.62 105.934 155.62 104.249V78.2699C155.603 63.3212 143.491 51.208 128.542 51.191ZM128.542 57.2921C128.694 57.2921 128.844 57.3016 128.995 57.3038L125.314 73.0946C125.171 73.8011 124.595 74.3402 123.879 74.4345C123.838 74.4366 123.785 74.4366 123.756 74.4377C122.987 74.3953 122.347 73.8382 122.199 73.084L118.539 57.3684C119.123 57.3186 119.712 57.2932 120.306 57.2921H128.542ZM82.0336 69.9921C82.5918 69.9921 83.1436 70.0207 83.6902 70.0631L78.678 86.3963L73.6446 69.9964C73.6954 69.9964 73.7441 69.9921 73.795 69.9921H82.0336ZM35.6949 57.2921C35.9025 57.2921 36.108 57.2995 36.3145 57.3048L31.225 75.803L26.1449 57.3366C26.5792 57.3101 27.0177 57.2921 27.4584 57.2921H35.6949ZM6.4816 78.2699C6.49219 69.5007 11.9472 61.6614 20.1646 58.6024L28.1744 87.715V101.199H6.4816V78.2699ZM34.2755 101.199V87.715L42.3425 58.3905C48.3907 60.4433 53.1985 65.106 55.4345 71.0895C49.8768 76.2055 46.715 83.4146 46.7171 90.9689V101.199H34.2755ZM52.8203 90.97C52.8309 81.7929 58.7954 73.6846 67.5541 70.9412L75.6274 97.2511V113.899H52.8203V90.97ZM103.009 113.899H81.7285V97.2511L89.6526 71.4316C97.6994 74.5775 102.999 82.3289 103.009 90.9689V113.899ZM100.439 71.1319C102.579 65.4894 106.992 61.0047 112.601 58.7718L116.259 74.4684C116.804 76.8781 118.452 78.8896 120.708 79.8969V101.201H109.11V90.9689C109.114 83.4358 105.969 76.2458 100.439 71.1319ZM149.519 101.198H126.809V79.8874C129.052 78.8748 130.696 76.876 131.256 74.479L135.022 58.3206C143.659 61.1371 149.507 69.1861 149.519 78.2699V101.198Z" fill="#A2C2C6"/>
<path d="M124.252 47.5102C133.011 47.5123 140.679 41.6315 142.947 33.1694C145.214 24.7095 141.513 15.7813 133.927 11.4036V8.47375C133.927 3.79306 130.134 0 125.453 0C120.772 0 116.979 3.79306 116.979 8.47375V10.2246C108.4 13.7042 103.486 22.7743 105.259 31.8613C107.032 40.9494 114.993 47.5092 124.252 47.5092V47.5102ZM124.252 41.4091C118.723 41.4028 113.778 37.9688 111.837 32.7924C114.284 32.3782 116.673 31.6759 118.958 30.7025C121.79 29.494 124.403 27.8204 126.686 25.7496C128.847 28.171 132.222 31.0574 136.814 32.4492C135.02 37.8501 129.942 41.4716 124.252 41.4091ZM137.354 26.1638C134.327 24.9075 132.092 22.7298 130.723 21.0763C131.418 20.0489 132.041 18.9759 132.591 17.8648C135.158 19.9409 136.857 22.9014 137.354 26.1638ZM123.08 8.47375C123.08 7.1635 124.142 6.1011 125.453 6.1011C126.764 6.1011 127.826 7.1635 127.826 8.47375V9.13682C126.648 8.91439 125.451 8.80211 124.252 8.80105C123.859 8.80105 123.468 8.81694 123.08 8.83918V8.47375ZM124.252 14.9022C125.208 14.9032 126.163 15.007 127.096 15.2136C122.947 23.5104 115.327 26.0038 111.073 26.7516C111.799 20.0182 117.478 14.9117 124.252 14.9022Z" fill="#A2C2C6"/>
<path d="M31.5766 47.5102C42.225 47.5102 50.7273 39.0333 50.9307 28.2134C50.9307 28.1943 50.9307 28.1742 50.9307 28.1551C50.9307 17.4665 42.2663 8.80211 31.5766 8.80211C20.888 8.80211 12.2226 17.4665 12.2226 28.1551C12.2226 38.8447 20.888 47.5102 31.5766 47.5102ZM31.5766 14.9032C38.8821 14.9127 44.8052 20.8232 44.8296 28.1276C44.6749 35.5781 38.8577 41.4102 31.5766 41.4102C24.2574 41.4102 18.3237 35.4764 18.3237 28.1572C18.3237 20.838 24.2574 14.9032 31.5766 14.9032Z" fill="#A2C2C6"/>
<path d="M140.706 73.8911H134.944C133.26 73.8911 131.893 75.2575 131.893 76.9417C131.893 78.6258 133.26 79.9922 134.944 79.9922H140.706C142.39 79.9922 143.756 78.6258 143.756 76.9417C143.756 75.2575 142.39 73.8911 140.706 73.8911Z" fill="#A2C2C6"/>
<path d="M89.8633 87.4491C88.1792 87.4491 86.8128 88.8155 86.8128 90.4997C86.8128 92.1838 88.1792 93.5502 89.8633 93.5502H95.6255C97.3096 93.5502 98.676 92.1838 98.676 90.4997C98.676 88.8155 97.3096 87.4491 95.6255 87.4491H89.8633Z" fill="#A2C2C6"/>
<path d="M49.1893 75.9248C49.1893 74.2407 47.8229 72.8743 46.1388 72.8743H41.7324C40.0483 72.8743 38.6819 74.2407 38.6819 75.9248C38.6819 77.609 40.0483 78.9754 41.7324 78.9754H46.1388C47.8229 78.9754 49.1893 77.609 49.1893 75.9248Z" fill="#A2C2C6"/>
</svg>
