<svg xmlns="http://www.w3.org/2000/svg" viewBox="0 0 1603.44 420.46"><defs><style>.cls-1{fill:#fff;}.cls-2{fill:#f6ab31;}.cls-3{fill:#9b9b9b;}.cls-4{fill:#dadada;}</style></defs><g id="Слой_2" data-name="Слой 2"><g id="Слой_3" data-name="Слой 3"><path class="cls-1" d="M528.13,161.51V142.36l-3.33.15c-1.52.1-3,.15-4.39.15q-13.25,0-21.57-7.26-9.69-8.48-9.69-24.3V75.38q.08-15.51,9.61-24,8.48-7.43,21.72-7.49c1.21,0,2.45.05,3.71.15l3.94.15V22.93H549.7V44.12l3.63-.07q2-.15,3.78-.15,13.7.08,22.18,7.49Q589,59.86,589,75.46V111.1q0,15.68-9.54,24.22-8.25,7.35-21.27,7.34c-1.36,0-2.77,0-4.24-.15l-4.23-.15v19.15Zm-2.2-34.66a12.63,12.63,0,0,0,2.2-.16V59.18l-1.18,0-1.17,0h-.3q-7.8,0-10.67,3.78-3,3.94-3,12.26v36.18q0,8.33,3,12.11,2.79,3.48,9.91,3.41Zm26.41-.08h1.22q7.11,0,9.83-3.41,3-3.7,3-12V75.23q0-8.33-3-12.26t-10.9-3.86h-.3l-1.18,0-1.24,0v67.51l1.36,0Z"/><path class="cls-1" d="M599.27,156.89,623.79,31.41h28l24.45,125.48H652.55l-4.62-27.77H628l-4.62,27.77Zm31.18-43.59h14.91l-7.49-49.95Z"/><path class="cls-1" d="M723.54,158.56a46.22,46.22,0,0,1-17.56-3,25.93,25.93,0,0,1-11.43-8.74,37.51,37.51,0,0,1-6-13.17,72.61,72.61,0,0,1-1.82-17.26V72.13a75.31,75.31,0,0,1,1.82-17.71,36.55,36.55,0,0,1,6-13.17,25.33,25.33,0,0,1,11.39-8.55q7.23-2.88,17.6-2.88a49.15,49.15,0,0,1,16.76,2.53,24.48,24.48,0,0,1,10.9,7.46A31.08,31.08,0,0,1,757,51.12a56.4,56.4,0,0,1,1.77,14.95V77h-24.9V62.21c0-.55,0-1.46-.07-2.72a15.37,15.37,0,0,0-.27-2.69L733,54.49a6,6,0,0,0-.83-2.19c-.33-.46-.74-1-1.25-1.67a4.26,4.26,0,0,0-1.78-1.4,17.52,17.52,0,0,0-2.42-.75,12.73,12.73,0,0,0-3.06-.35,11.38,11.38,0,0,0-5,1,8.68,8.68,0,0,0-3.21,2.53,10.91,10.91,0,0,0-1.74,4.13,29.9,29.9,0,0,0-.76,4.84q-.15,2.23-.15,5.64v56.08q0,9.17,2.31,13.47t8.59,4.32a13.48,13.48,0,0,0,4.23-.61,6,6,0,0,0,2.92-2,15.83,15.83,0,0,0,1.74-2.73,11.78,11.78,0,0,0,.91-3.75c.17-1.61.29-3,.34-4.08s.07-2.65.07-4.62V110.12h24.9v10.6A60.77,60.77,0,0,1,757,136a34.29,34.29,0,0,1-5.56,11.8,23.92,23.92,0,0,1-10.9,8A46.49,46.49,0,0,1,723.54,158.56Z"/><path class="cls-1" d="M767.89,156.89,792.41,31.41h28l24.44,125.48H821.17l-4.61-27.77H796.65L792,156.89Zm31.18-43.59H814l-7.49-49.95Z"/><path class="cls-1" d="M850.39,183V138.65h4.31a20.46,20.46,0,0,0,7.61-5.9,42.22,42.22,0,0,0,6.16-11.39,98.38,98.38,0,0,0,4.85-19.45q2-12.07,3-28.88l2.87-41.62h57.29V138.65h13.86V183H932.88l-1.51-26.11H870.06L868.55,183Zm28.23-44.35h33.75v-89H899l-1.29,26.71q-.69,13.56-2.2,23.81a156.43,156.43,0,0,1-3.06,16.12A44.77,44.77,0,0,1,888.12,127a40,40,0,0,1-4.47,6.69C882.51,134.93,880.84,136.58,878.62,138.65Z"/><path class="cls-1" d="M1036.42,158.56a46.14,46.14,0,0,1-17.56-3,25.82,25.82,0,0,1-11.43-8.74,37.35,37.35,0,0,1-6-13.17,73.14,73.14,0,0,1-1.82-17.26V72.13a75.84,75.84,0,0,1,1.82-17.71,36.4,36.4,0,0,1,6-13.17,25.22,25.22,0,0,1,11.39-8.55q7.23-2.88,17.6-2.88a49.19,49.19,0,0,1,16.76,2.53,24.48,24.48,0,0,1,10.9,7.46,30.91,30.91,0,0,1,5.75,11.31,56,56,0,0,1,1.78,14.95V77h-24.9V62.21c0-.55,0-1.46-.08-2.72a15.63,15.63,0,0,0-.26-2.69c-.13-.53-.3-1.3-.53-2.31a6.36,6.36,0,0,0-.83-2.19c-.33-.46-.75-1-1.25-1.67a4.39,4.39,0,0,0-1.78-1.4,17.52,17.52,0,0,0-2.42-.75,12.88,12.88,0,0,0-3.07-.35,11.33,11.33,0,0,0-5,1,8.71,8.71,0,0,0-3.22,2.53,11.24,11.24,0,0,0-1.74,4.13,31,31,0,0,0-.75,4.84c-.11,1.49-.16,3.37-.16,5.64v56.08q0,9.17,2.31,13.47t8.59,4.32a13.5,13.5,0,0,0,4.24-.61,6,6,0,0,0,2.91-2,15.34,15.34,0,0,0,1.75-2.73,11.81,11.81,0,0,0,.9-3.75c.18-1.61.29-3,.34-4.08s.08-2.65.08-4.62V110.12h24.9v10.6a61.24,61.24,0,0,1-1.7,15.25,34.31,34.31,0,0,1-5.57,11.8,23.89,23.89,0,0,1-10.89,8A46.53,46.53,0,0,1,1036.42,158.56Z"/><path class="cls-1" d="M1080.77,156.89l24.52-125.48h28l24.45,125.48h-23.69l-4.62-27.77h-19.9l-4.62,27.77ZM1112,113.3h14.91l-7.49-49.95Z"/><path class="cls-1" d="M1170.53,156.89V31.41h20.66v74.7L1224,31.41h16.87V156.89H1220V80.75l-33.38,76.14Zm35.19-136.3q-10.83,0-16.46-5.49T1183.62,0h10.9q0,5.45,2.69,7.91c1.79,1.64,4.62,2.46,8.51,2.46s6.72-.83,8.52-2.5,2.68-4.29,2.68-7.87h10.9q0,9.62-5.6,15.1T1205.72,20.59Z"/><path class="cls-1" d="M1253,183V138.65h4.32a20.43,20.43,0,0,0,7.6-5.9,42.21,42.21,0,0,0,6.17-11.39,99.08,99.08,0,0,0,4.85-19.45q2-12.07,3-28.88l2.88-41.62h57.29V138.65H1353V183h-17.48L1334,156.89h-61.3L1271.19,183Zm28.23-44.35H1315v-89h-13.4l-1.28,26.71q-.69,13.56-2.2,23.81a156.43,156.43,0,0,1-3.06,16.12,44.79,44.79,0,0,1-4.32,10.71,40.12,40.12,0,0,1-4.46,6.69Q1284.58,135.55,1281.25,138.65Z"/><path class="cls-1" d="M1365.56,156.89V31.41h20.67v74.7l32.84-74.7H1436V156.89h-20.89V80.75l-33.37,76.14Z"/><path class="cls-1" d="M1455.33,156.89V31.41h25.58V82.87H1503V31.41h25.58V156.89H1503V101.11h-22.1v55.78Z"/><path class="cls-1" d="M1548,156.89V31.41h55.48V50.25h-29.9V156.89Z"/><path class="cls-1" d="M531.43,377.29c0,7.82-5.78,12.41-17.77,12.41H492V344.65H512.9c10.62,0,17,4.16,17,11.56,0,4.84-2.72,8.33-7.23,10.11C528.62,367.85,531.43,371.6,531.43,377.29ZM500,364h12.24c6.2,0,9.52-2.3,9.52-6.63s-3.32-6.46-9.52-6.46H500Zm23.29,12.75c0-4.68-3-6.88-9.69-6.88H500v13.51h13.09C519.78,383.41,523.27,381.37,523.27,376.78Z"/><path class="cls-1" d="M584.72,369.9H548.17c1,7.9,7.4,13.17,16.32,13.17a16.82,16.82,0,0,0,13-5.44l4.5,5.27c-4.08,4.76-10.28,7.31-17.76,7.31-14.54,0-24.23-9.6-24.23-23s9.61-23,22.61-23,22.27,9.35,22.27,23.21A24.43,24.43,0,0,1,584.72,369.9ZM548.17,364h28.9a14.54,14.54,0,0,0-28.9,0Z"/><path class="cls-1" d="M597.55,344.65h8.17v19.12h25.67V344.65h8.16V389.7h-8.16V370.83H605.72V389.7h-8.17Z"/><path class="cls-1" d="M689,351.79H672.53V389.7h-8.16V351.79h-16.5v-7.14H689Z"/><path class="cls-1" d="M697.34,344.65h8.17v32.81l27.62-32.81h7.4V389.7h-8.16V356.89L704.83,389.7h-7.49Z"/><path class="cls-1" d="M795,344.65V389.7h-8.16V351.79H767.47l-.51,10c-.77,15.9-2.89,28.56-13.09,28.56a19,19,0,0,1-5-.76l.51-6.89a9.64,9.64,0,0,0,2,.26c7.31,0,7.65-11.05,8.25-21.68l.76-16.66Z"/><path class="cls-1" d="M810.82,344.65H819v32.81l27.63-32.81H854V389.7h-8.16V356.89L818.3,389.7h-7.48Z"/><path class="cls-1" d="M916.47,367.18c0,13.85-9.6,23-22.78,23-6.37,0-12-2.46-15.72-7.31v23.29h-8.16V344.65h7.82v7.14c3.65-5,9.43-7.57,16.06-7.57C906.87,344.22,916.47,353.4,916.47,367.18Zm-8.24,0c0-9.53-6.55-15.82-15.22-15.82s-15.13,6.29-15.13,15.82,6.55,15.89,15.13,15.89S908.23,376.78,908.23,367.18Z"/><path class="cls-1" d="M967.22,344.65l-21.85,49.56c-4,9.52-9.18,12.49-16.06,12.49-4.34,0-8.76-1.44-11.57-4.16l3.49-6.12a11.56,11.56,0,0,0,8.08,3.31c3.91,0,6.37-1.78,8.58-7l1.45-3.14-19.9-45H928l15.72,36,15.56-36Z"/><path class="cls-1" d="M1014.82,369.9H978.27c1,7.9,7.39,13.17,16.32,13.17a16.79,16.79,0,0,0,13-5.44l4.51,5.27c-4.08,4.76-10.29,7.31-17.77,7.31-14.54,0-24.23-9.6-24.23-23s9.61-23,22.62-23,22.27,9.35,22.27,23.21C1015,368.11,1014.9,369.13,1014.82,369.9ZM978.27,364h28.9a14.54,14.54,0,0,0-28.9,0Z"/><path class="cls-1" d="M1079.59,344.65V389.7h-7.4V356.8l-16.83,27.8h-3.57l-16.66-27.88v33h-7.48V344.65h8.42l17.68,30.43,18.19-30.43Z"/><path class="cls-1" d="M1133.31,374.66c0,9.77-6.81,15.21-18.88,15.13l-19-.09V344.65h8.16v15.21l12.15.09C1127.19,360,1133.31,365.39,1133.31,374.66Zm-8.25-.09c0-5.95-3.82-8.5-11.22-8.59l-10.2-.17V383.5l10.2.08C1121.15,383.67,1125.06,380.61,1125.06,374.57Zm15-29.92h8.16V389.7H1140Z"/><path class="cls-1" d="M1204.62,369.9h-36.55c1,7.9,7.39,13.17,16.32,13.17a16.82,16.82,0,0,0,13-5.44l4.5,5.27c-4.08,4.76-10.28,7.31-17.77,7.31-14.53,0-24.22-9.6-24.22-23s9.6-23,22.61-23,22.27,9.35,22.27,23.21A24.43,24.43,0,0,1,1204.62,369.9ZM1168.07,364H1197a14.54,14.54,0,0,0-28.9,0Z"/><path class="cls-1" d="M1270.58,390.3v15.89h-8V390.3c-16.83-.94-26.52-9.1-26.52-23.21,0-13.94,9.6-22,26.52-22.87V326.63h8v17.59c16.75.94,26.61,8.93,26.61,22.87S1287.41,389.36,1270.58,390.3Zm-8-7.23V351.45c-12.41.85-18.45,6.29-18.45,15.64C1244.14,376.7,1250.26,382.22,1262.59,383.07Zm26.52-16c0-9.44-6.2-14.79-18.53-15.64v31.71C1282.91,382.22,1289.11,376.78,1289.11,367.09Z"/><path class="cls-1" d="M1343.68,362.5v27.2h-7.74v-5.95c-2.72,4.08-7.73,6.46-14.79,6.46-10.2,0-16.66-5.44-16.66-13.26,0-7.22,4.68-13.18,18.11-13.18h12.92v-1.61c0-6.89-4-10.88-12.07-10.88a22.79,22.79,0,0,0-14.28,4.84l-3.4-6.12c4.67-3.74,11.39-5.78,18.61-5.78C1336.71,344.22,1343.68,350.17,1343.68,362.5Zm-8.16,13.43v-6.29h-12.58c-8.08,0-10.37,3.15-10.37,7,0,4.51,3.74,7.31,9.94,7.31S1333.48,381.12,1335.52,375.93Z"/><path class="cls-1" d="M1354.22,367.18c0-13.44,9.94-23,23.8-23,8.07,0,14.79,3.32,18.36,9.61l-6.21,4a14,14,0,0,0-12.24-6.46c-8.84,0-15.47,6.21-15.47,15.82,0,9.77,6.63,15.89,15.47,15.89a14,14,0,0,0,12.24-6.46l6.21,3.91c-3.57,6.29-10.29,9.69-18.36,9.69C1364.16,390.21,1354.22,380.61,1354.22,367.18Z"/><path class="cls-1" d="M1442.28,362.5v27.2h-7.74v-5.95c-2.72,4.08-7.73,6.46-14.79,6.46-10.2,0-16.66-5.44-16.66-13.26,0-7.22,4.68-13.18,18.11-13.18h12.92v-1.61c0-6.89-4-10.88-12.07-10.88a22.79,22.79,0,0,0-14.28,4.84l-3.4-6.12c4.67-3.74,11.39-5.78,18.61-5.78C1435.31,344.22,1442.28,350.17,1442.28,362.5Zm-8.16,13.43v-6.29h-12.58c-8.08,0-10.37,3.15-10.37,7,0,4.51,3.74,7.31,9.94,7.31S1432.08,381.12,1434.12,375.93Z"/><path class="cls-1" d="M1502.8,382.56v17.6h-7.65V389.7h-37.66v10.46h-7.74v-17.6h2.38c6.46-.34,7.57-11.3,8.16-22.7l.69-15.21h34.93v37.91Zm-40.3,0h25.25V351.79H1468.2l-.42,8.67C1467.44,369.81,1466.59,379,1462.5,382.56Z"/><path class="cls-1" d="M1551.25,374.66c0,9.77-6.8,15.21-18.87,15.13l-19-.09V344.65h8.16v15.21l12.16.09C1545.13,360,1551.25,365.39,1551.25,374.66Zm-8.25-.09c0-5.95-3.82-8.5-11.22-8.59l-10.2-.17V383.5l10.2.08C1539.09,383.67,1543,380.61,1543,374.57Zm15-29.92h8.16V389.7H1558Z"/><polygon class="cls-2" points="202 101.46 202 89.46 68 165.46 84 171.46 202 101.46"/><polygon class="cls-2" points="202 101.7 202 89.7 336 165.7 320 171.7 202 101.7"/><rect class="cls-2" x="64" y="163.46" width="21" height="11"/><rect class="cls-2" x="321" y="163.46" width="20" height="11"/><rect class="cls-2" x="321" y="171.46" width="10" height="168"/><rect class="cls-2" x="74" y="169.46" width="11" height="170"/><rect class="cls-2" x="90" y="179.46" width="68" height="160"/><path class="cls-2" d="M164.68,179.46s-2.68,84,5.32,87,7,23,7,23l0,50H158l-31.72-123,16.8-37Z"/><rect class="cls-2" x="167" y="179.46" width="20" height="15"/><rect class="cls-2" x="192" y="179.46" width="37" height="15"/><rect class="cls-2" x="167" y="201.46" width="41" height="14"/><rect class="cls-2" x="214" y="201.46" width="35" height="15"/><rect class="cls-2" x="167" y="222.46" width="21" height="15"/><rect class="cls-2" x="192" y="222.46" width="33" height="15"/><rect class="cls-2" x="172" y="241.46" width="36" height="16"/><rect class="cls-2" x="214" y="241.46" width="40" height="16"/><rect class="cls-2" x="171" y="260.46" width="18" height="16"/><rect class="cls-2" x="194" y="260.46" width="31" height="16"/><rect class="cls-2" x="182" y="281.46" width="27" height="16"/><rect class="cls-2" x="214" y="281.46" width="38" height="16"/><rect class="cls-2" x="182" y="303.46" width="47" height="14"/><rect class="cls-2" x="182" y="323.46" width="27" height="16"/><rect class="cls-2" x="214" y="323.46" width="38" height="16"/><rect class="cls-3" y="11.46" width="23" height="408"/><rect class="cls-3" y="11.46" width="406" height="27"/><rect class="cls-3" x="382" y="15.46" width="24" height="201"/><rect class="cls-3" y="399.46" width="79" height="21"/><rect class="cls-4" x="492" y="245.46" width="654" height="8"/></g></g></svg>