<svg width="32" height="37" viewBox="0 0 32 37" fill="none" xmlns="http://www.w3.org/2000/svg">
<path d="M5.5532 28.07L6.08766 27.2248L6.08766 27.2248L5.5532 28.07ZM2.3432 24.35L1.43589 24.7705L1.439 24.7772L1.4422 24.7838L2.3432 24.35ZM2.3432 12.68L1.44013 12.2505L1.43788 12.2553L2.3432 12.68ZM5.5532 8.93L6.08766 9.77519L6.08766 9.77519L5.5532 8.93ZM14.8532 8.93L14.3187 9.77519L14.3187 9.77519L14.8532 8.93ZM18.0332 12.68L17.1259 13.1005L17.129 13.1072L17.1322 13.1138L18.0332 12.68ZM18.0332 24.35L17.1301 23.9205L17.1279 23.9253L18.0332 24.35ZM14.8532 28.07L14.3187 27.2248L14.3187 27.2248L14.8532 28.07ZM13.2032 23.6L12.3734 23.0418L12.3665 23.0523L13.2032 23.6ZM13.2032 13.4L12.3664 13.9477L12.3735 13.9582L13.2032 13.4ZM7.2032 13.4L6.37342 12.8418L6.3665 12.8523L7.2032 13.4ZM7.2032 23.6L6.36644 24.1477L6.37348 24.1582L7.2032 23.6ZM10.2032 28.36C8.63639 28.36 7.27472 27.9754 6.08766 27.2248L5.01874 28.9152C6.55169 29.8846 8.29001 30.36 10.2032 30.36V28.36ZM6.08766 27.2248C4.90406 26.4764 3.95278 25.3878 3.24421 23.9162L1.4422 24.7838C2.29362 26.5522 3.48234 27.9436 5.01874 28.9152L6.08766 27.2248ZM3.25051 23.9295C2.56486 22.45 2.2032 20.6501 2.2032 18.5H0.203203C0.203203 20.8699 0.601542 22.97 1.43589 24.7705L3.25051 23.9295ZM2.2032 18.5C2.2032 16.3494 2.56503 14.5616 3.24853 13.1047L1.43788 12.2553C0.601375 14.0384 0.203203 16.1306 0.203203 18.5H2.2032ZM3.24627 13.1095C3.95586 11.6175 4.9072 10.5217 6.08766 9.77519L5.01874 8.08481C3.4792 9.05834 2.29055 10.4625 1.44014 12.2505L3.24627 13.1095ZM6.08766 9.77519C7.27472 9.02455 8.63639 8.64 10.2032 8.64V6.64C8.29001 6.64 6.55169 7.11545 5.01874 8.08481L6.08766 9.77519ZM10.2032 8.64C11.77 8.64 13.1317 9.02455 14.3187 9.77519L15.3877 8.08481C13.8547 7.11545 12.1164 6.64 10.2032 6.64V8.64ZM14.3187 9.77519C15.4967 10.5201 16.4365 11.6127 17.1259 13.1005L18.9405 12.2595C18.1099 10.4673 16.9297 9.05993 15.3877 8.08481L14.3187 9.77519ZM17.1322 13.1138C17.8325 14.5683 18.2032 16.3527 18.2032 18.5H20.2032C20.2032 16.1273 19.7939 14.0317 18.9342 12.2462L17.1322 13.1138ZM18.2032 18.5C18.2032 20.6468 17.8327 22.4434 17.1301 23.9205L18.9363 24.7795C19.7937 22.9766 20.2032 20.8732 20.2032 18.5H18.2032ZM17.1279 23.9253C16.4395 25.3926 15.4999 26.4779 14.3187 27.2248L15.3877 28.9152C16.9266 27.9421 18.1069 26.5474 18.9385 24.7747L17.1279 23.9253ZM14.3187 27.2248C13.1317 27.9754 11.77 28.36 10.2032 28.36V30.36C12.1164 30.36 13.8547 29.8846 15.3877 28.9152L14.3187 27.2248ZM10.2032 26.25C11.8314 26.25 13.1412 25.5207 14.0399 24.1477L12.3665 23.0523C11.8252 23.8793 11.135 24.25 10.2032 24.25V26.25ZM14.0329 24.1582C14.939 22.8114 15.3132 20.8697 15.3132 18.5H13.3132C13.3132 20.7303 12.9474 22.1886 12.3735 23.0418L14.0329 24.1582ZM15.3132 18.5C15.3132 16.1303 14.939 14.1886 14.0329 12.8418L12.3735 13.9582C12.9474 14.8114 13.3132 16.2697 13.3132 18.5H15.3132ZM14.0399 12.8523C13.1412 11.4793 11.8314 10.75 10.2032 10.75V12.75C11.135 12.75 11.8252 13.1207 12.3665 13.9477L14.0399 12.8523ZM10.2032 10.75C8.59014 10.75 7.28772 11.4828 6.37348 12.8418L8.03293 13.9582C8.59868 13.1172 9.29627 12.75 10.2032 12.75V10.75ZM6.3665 12.8523C5.48662 14.1966 5.1232 16.1335 5.1232 18.5H7.1232C7.1232 16.2665 7.47978 14.8034 8.0399 13.9477L6.3665 12.8523ZM5.1232 18.5C5.1232 20.8665 5.48662 22.8034 6.3665 24.1477L8.0399 23.0523C7.47978 22.1966 7.1232 20.7335 7.1232 18.5H5.1232ZM6.37348 24.1582C7.28772 25.5172 8.59014 26.25 10.2032 26.25V24.25C9.29627 24.25 8.59868 23.8828 8.03293 23.0418L6.37348 24.1582ZM29.4888 8H30.4888V7H29.4888V8ZM29.4888 29V30H30.4888V29H29.4888ZM24.6287 29H23.6287V30H24.6287V29ZM24.6287 11.9H25.6287V10.9H24.6287V11.9ZM20.4288 11.9H19.4288V12.9H20.4288V11.9ZM20.4288 8V7H19.4288V8H20.4288ZM28.4888 8V29H30.4888V8H28.4888ZM29.4888 28H24.6287V30H29.4888V28ZM25.6287 29V11.9H23.6287V29H25.6287ZM24.6287 10.9H20.4288V12.9H24.6287V10.9ZM21.4288 11.9V8H19.4288V11.9H21.4288ZM20.4288 9H29.4888V7H20.4288V9Z" fill="#4747FF"/>
</svg>
