<svg width="38" height="37" viewBox="0 0 38 37" fill="none" xmlns="http://www.w3.org/2000/svg">
<path d="M5.57957 28.07L6.11403 27.2248L6.11403 27.2248L5.57957 28.07ZM2.36957 24.35L1.46226 24.7705L1.46537 24.7772L1.46857 24.7838L2.36957 24.35ZM2.36957 12.68L1.46649 12.2505L1.46425 12.2553L2.36957 12.68ZM5.57957 8.93L6.11403 9.77519L6.11403 9.77519L5.57957 8.93ZM14.8796 8.93L14.3451 9.77519L14.3451 9.77519L14.8796 8.93ZM18.0596 12.68L17.1523 13.1005L17.1554 13.1072L17.1586 13.1138L18.0596 12.68ZM18.0596 24.35L17.1565 23.9205L17.1542 23.9253L18.0596 24.35ZM14.8796 28.07L14.3451 27.2248L14.3451 27.2248L14.8796 28.07ZM13.2296 23.6L12.3998 23.0418L12.3929 23.0523L13.2296 23.6ZM13.2296 13.4L12.3928 13.9477L12.3998 13.9582L13.2296 13.4ZM7.22957 13.4L6.39978 12.8418L6.39287 12.8523L7.22957 13.4ZM7.22957 23.6L6.3928 24.1477L6.39985 24.1582L7.22957 23.6ZM10.2296 28.36C8.66276 28.36 7.30109 27.9754 6.11403 27.2248L5.04511 28.9152C6.57805 29.8846 8.31638 30.36 10.2296 30.36V28.36ZM6.11403 27.2248C4.93043 26.4764 3.97915 25.3878 3.27057 23.9162L1.46857 24.7838C2.31999 26.5522 3.50871 27.9436 5.04511 28.9152L6.11403 27.2248ZM3.27688 23.9295C2.59123 22.45 2.22957 20.6501 2.22957 18.5H0.22957C0.22957 20.8699 0.627909 22.97 1.46226 24.7705L3.27688 23.9295ZM2.22957 18.5C2.22957 16.3494 2.5914 14.5616 3.2749 13.1047L1.46425 12.2553C0.627742 14.0384 0.22957 16.1306 0.22957 18.5H2.22957ZM3.27263 13.1095C3.98222 11.6175 4.93357 10.5217 6.11403 9.77519L5.04511 8.08481C3.50557 9.05834 2.31692 10.4625 1.46651 12.2505L3.27263 13.1095ZM6.11403 9.77519C7.30109 9.02455 8.66276 8.64 10.2296 8.64V6.64C8.31638 6.64 6.57805 7.11545 5.04511 8.08481L6.11403 9.77519ZM10.2296 8.64C11.7964 8.64 13.1581 9.02455 14.3451 9.77519L15.414 8.08481C13.8811 7.11545 12.1428 6.64 10.2296 6.64V8.64ZM14.3451 9.77519C15.5231 10.5201 16.4628 11.6127 17.1523 13.1005L18.9669 12.2595C18.1363 10.4673 16.9561 9.05993 15.414 8.08481L14.3451 9.77519ZM17.1586 13.1138C17.8589 14.5683 18.2296 16.3527 18.2296 18.5H20.2296C20.2296 16.1273 19.8203 14.0317 18.9606 12.2462L17.1586 13.1138ZM18.2296 18.5C18.2296 20.6468 17.859 22.4434 17.1565 23.9205L18.9626 24.7795C19.8201 22.9766 20.2296 20.8732 20.2296 18.5H18.2296ZM17.1542 23.9253C16.4659 25.3926 15.5262 26.4779 14.3451 27.2248L15.414 28.9152C16.9529 27.9421 18.1333 26.5474 18.9649 24.7747L17.1542 23.9253ZM14.3451 27.2248C13.1581 27.9754 11.7964 28.36 10.2296 28.36V30.36C12.1428 30.36 13.8811 29.8846 15.414 28.9152L14.3451 27.2248ZM10.2296 26.25C11.8578 26.25 13.1676 25.5207 14.0663 24.1477L12.3929 23.0523C11.8516 23.8793 11.1613 24.25 10.2296 24.25V26.25ZM14.0593 24.1582C14.9653 22.8114 15.3396 20.8697 15.3396 18.5H13.3396C13.3396 20.7303 12.9738 22.1886 12.3998 23.0418L14.0593 24.1582ZM15.3396 18.5C15.3396 16.1303 14.9653 14.1886 14.0593 12.8418L12.3998 13.9582C12.9738 14.8114 13.3396 16.2697 13.3396 18.5H15.3396ZM14.0663 12.8523C13.1676 11.4793 11.8578 10.75 10.2296 10.75V12.75C11.1613 12.75 11.8516 13.1207 12.3929 13.9477L14.0663 12.8523ZM10.2296 10.75C8.61651 10.75 7.31409 11.4828 6.39985 12.8418L8.05929 13.9582C8.62505 13.1172 9.32263 12.75 10.2296 12.75V10.75ZM6.39287 12.8523C5.51299 14.1966 5.14957 16.1335 5.14957 18.5H7.14957C7.14957 16.2665 7.50615 14.8034 8.06627 13.9477L6.39287 12.8523ZM5.14957 18.5C5.14957 20.8665 5.51299 22.8034 6.39287 24.1477L8.06627 23.0523C7.50615 22.1966 7.14957 20.7335 7.14957 18.5H5.14957ZM6.39985 24.1582C7.31409 25.5172 8.61651 26.25 10.2296 26.25V24.25C9.32263 24.25 8.62505 23.8828 8.05929 23.0418L6.39985 24.1582ZM37.1051 25.04H38.1051V24.04H37.1051V25.04ZM37.1051 29V30H38.1051V29H37.1051ZM21.2351 29H20.2351V30H21.2351V29ZM21.2351 25.85L20.5485 25.123L20.2351 25.419V25.85H21.2351ZM29.3351 18.2L30.0217 18.927L30.0252 18.9237L29.3351 18.2ZM31.0751 16.1L31.9634 16.5595L31.9695 16.5472L31.0751 16.1ZM30.6551 12.41L30.0204 13.1827L30.0353 13.195L30.0507 13.2067L30.6551 12.41ZM25.6751 12.26L26.0926 13.1687L26.1027 13.1641L26.1126 13.1592L25.6751 12.26ZM23.8151 13.82L23.2736 14.6607L24.0749 15.1768L24.6289 14.4012L23.8151 13.82ZM20.2751 11.54L19.4452 10.9822L18.8763 11.8285L19.7336 12.3807L20.2751 11.54ZM23.6651 8.69L24.0922 9.5943L24.1023 9.58937L23.6651 8.69ZM32.6951 8.42L32.2861 9.33251L32.2955 9.33673L32.305 9.34075L32.6951 8.42ZM35.4251 10.58L34.5985 11.1428L34.6054 11.1529L34.6126 11.1629L35.4251 10.58ZM35.6951 17.06L36.5966 17.4927L36.5966 17.4927L35.6951 17.06ZM32.9051 20.48L32.225 19.7468L32.2186 19.7529L32.9051 20.48ZM28.0751 25.04L27.3886 24.3129L25.5592 26.04H28.0751V25.04ZM36.1051 25.04V29H38.1051V25.04H36.1051ZM37.1051 28H21.2351V30H37.1051V28ZM22.2351 29V25.85H20.2351V29H22.2351ZM21.9217 26.577L30.0217 18.927L28.6485 17.473L20.5485 25.123L21.9217 26.577ZM30.0252 18.9237C30.9109 18.0792 31.5866 17.2878 31.9633 16.5594L30.1869 15.6406C29.9637 16.0722 29.4793 16.6808 28.645 17.4763L30.0252 18.9237ZM31.9695 16.5472C32.3281 15.8301 32.5251 15.0879 32.5251 14.33H30.5251C30.5251 14.7321 30.4221 15.1699 30.1807 15.6528L31.9695 16.5472ZM32.5251 14.33C32.5251 13.2318 32.1293 12.2731 31.2595 11.6133L30.0507 13.2067C30.341 13.4269 30.5251 13.7482 30.5251 14.33H32.5251ZM31.2899 11.6373C30.4788 10.9711 29.3819 10.72 28.1651 10.72V12.72C29.1483 12.72 29.7114 12.9289 30.0204 13.1827L31.2899 11.6373ZM28.1651 10.72C27.1116 10.72 26.1293 10.927 25.2377 11.3608L26.1126 13.1592C26.7009 12.873 27.3787 12.72 28.1651 12.72V10.72ZM25.2576 11.3513C24.3503 11.7682 23.5968 12.4052 23.0014 13.2388L24.6289 14.4012C25.0335 13.8348 25.52 13.4318 26.0926 13.1687L25.2576 11.3513ZM24.3566 12.9793L20.8166 10.6993L19.7336 12.3807L23.2736 14.6607L24.3566 12.9793ZM21.1051 12.0978C21.8161 11.0399 22.8012 10.2039 24.0921 9.59425L23.2381 7.78575C21.6491 8.53613 20.3741 9.60006 19.4452 10.9822L21.1051 12.0978ZM24.1023 9.58937C25.3857 8.9655 26.8822 8.64 28.6151 8.64V6.64C26.6281 6.64 24.8245 7.0145 23.2279 7.79063L24.1023 9.58937ZM28.6151 8.64C30.0654 8.64 31.2805 8.88173 32.2861 9.33251L33.1042 7.50749C31.7898 6.91827 30.2849 6.64 28.6151 6.64V8.64ZM32.305 9.34075C33.3313 9.77562 34.0799 10.3811 34.5985 11.1428L36.2517 10.0172C35.4903 8.89888 34.419 8.06438 33.0853 7.49925L32.305 9.34075ZM34.6126 11.1629C35.137 11.894 35.4151 12.7744 35.4151 13.85H37.4151C37.4151 12.4056 37.0332 11.106 36.2377 9.99709L34.6126 11.1629ZM35.4151 13.85C35.4151 14.8445 35.2069 15.7661 34.7936 16.6273L36.5966 17.4927C37.1433 16.3539 37.4151 15.1355 37.4151 13.85H35.4151ZM34.7936 16.6273C34.393 17.4619 33.5681 18.5011 32.2251 19.7468L33.5852 21.2132C35.0021 19.8989 36.0372 18.6581 36.5966 17.4927L34.7936 16.6273ZM32.2186 19.7529L27.3886 24.3129L28.7616 25.7671L33.5916 21.2071L32.2186 19.7529ZM28.0751 26.04H37.1051V24.04H28.0751V26.04Z" fill="#4747FF"/>
</svg>
