<svg width="38" height="37" viewBox="0 0 38 37" fill="none" xmlns="http://www.w3.org/2000/svg">
<path d="M5.60887 28.07L6.14333 27.2248L6.14333 27.2248L5.60887 28.07ZM2.39887 24.35L1.49156 24.7705L1.49466 24.7772L1.49787 24.7838L2.39887 24.35ZM2.39887 12.68L1.49579 12.2505L1.49354 12.2553L2.39887 12.68ZM5.60887 8.93L6.14333 9.77519L6.14333 9.77519L5.60887 8.93ZM14.9089 8.93L14.3744 9.77519L14.3744 9.77519L14.9089 8.93ZM18.0889 12.68L17.1816 13.1005L17.1847 13.1072L17.1879 13.1138L18.0889 12.68ZM18.0889 24.35L17.1858 23.9205L17.1835 23.9253L18.0889 24.35ZM14.9089 28.07L14.3744 27.2248L14.3744 27.2248L14.9089 28.07ZM13.2589 23.6L12.4291 23.0418L12.4222 23.0523L13.2589 23.6ZM13.2589 13.4L12.4221 13.9477L12.4291 13.9582L13.2589 13.4ZM7.25887 13.4L6.42908 12.8418L6.42217 12.8523L7.25887 13.4ZM7.25887 23.6L6.4221 24.1477L6.42915 24.1582L7.25887 23.6ZM10.2589 28.36C8.69206 28.36 7.33039 27.9754 6.14333 27.2248L5.07441 28.9152C6.60735 29.8846 8.34568 30.36 10.2589 30.36V28.36ZM6.14333 27.2248C4.95973 26.4764 4.00845 25.3878 3.29987 23.9162L1.49787 24.7838C2.34929 26.5522 3.53801 27.9436 5.07441 28.9152L6.14333 27.2248ZM3.30618 23.9295C2.62053 22.45 2.25887 20.6501 2.25887 18.5H0.258867C0.258867 20.8699 0.657206 22.97 1.49156 24.7705L3.30618 23.9295ZM2.25887 18.5C2.25887 16.3494 2.6207 14.5616 3.30419 13.1047L1.49354 12.2553C0.657039 14.0384 0.258867 16.1306 0.258867 18.5H2.25887ZM3.30193 13.1095C4.01152 11.6175 4.96287 10.5217 6.14333 9.77519L5.07441 8.08481C3.53487 9.05834 2.34621 10.4625 1.4958 12.2505L3.30193 13.1095ZM6.14333 9.77519C7.33039 9.02455 8.69206 8.64 10.2589 8.64V6.64C8.34568 6.64 6.60735 7.11545 5.07441 8.08481L6.14333 9.77519ZM10.2589 8.64C11.8257 8.64 13.1873 9.02455 14.3744 9.77519L15.4433 8.08481C13.9104 7.11545 12.1721 6.64 10.2589 6.64V8.64ZM14.3744 9.77519C15.5524 10.5201 16.4921 11.6127 17.1816 13.1005L18.9962 12.2595C18.1656 10.4673 16.9854 9.05993 15.4433 8.08481L14.3744 9.77519ZM17.1879 13.1138C17.8882 14.5683 18.2589 16.3527 18.2589 18.5H20.2589C20.2589 16.1273 19.8496 14.0317 18.9899 12.2462L17.1879 13.1138ZM18.2589 18.5C18.2589 20.6468 17.8883 22.4434 17.1858 23.9205L18.9919 24.7795C19.8494 22.9766 20.2589 20.8732 20.2589 18.5H18.2589ZM17.1835 23.9253C16.4952 25.3926 15.5555 26.4779 14.3744 27.2248L15.4433 28.9152C16.9822 27.9421 18.1626 26.5474 18.9942 24.7747L17.1835 23.9253ZM14.3744 27.2248C13.1873 27.9754 11.8257 28.36 10.2589 28.36V30.36C12.1721 30.36 13.9104 29.8846 15.4433 28.9152L14.3744 27.2248ZM10.2589 26.25C11.8871 26.25 13.1969 25.5207 14.0956 24.1477L12.4222 23.0523C11.8809 23.8793 11.1906 24.25 10.2589 24.25V26.25ZM14.0886 24.1582C14.9946 22.8114 15.3689 20.8697 15.3689 18.5H13.3689C13.3689 20.7303 13.0031 22.1886 12.4291 23.0418L14.0886 24.1582ZM15.3689 18.5C15.3689 16.1303 14.9946 14.1886 14.0886 12.8418L12.4291 13.9582C13.0031 14.8114 13.3689 16.2697 13.3689 18.5H15.3689ZM14.0956 12.8523C13.1969 11.4793 11.8871 10.75 10.2589 10.75V12.75C11.1906 12.75 11.8809 13.1207 12.4222 13.9477L14.0956 12.8523ZM10.2589 10.75C8.64581 10.75 7.34339 11.4828 6.42915 12.8418L8.08859 13.9582C8.65435 13.1172 9.35193 12.75 10.2589 12.75V10.75ZM6.42217 12.8523C5.54229 14.1966 5.17887 16.1335 5.17887 18.5H7.17887C7.17887 16.2665 7.53545 14.8034 8.09557 13.9477L6.42217 12.8523ZM5.17887 18.5C5.17887 20.8665 5.54229 22.8034 6.42217 24.1477L8.09557 23.0523C7.53545 22.1966 7.17887 20.7335 7.17887 18.5H5.17887ZM6.42915 24.1582C7.34339 25.5172 8.64581 26.25 10.2589 26.25V24.25C9.35193 24.25 8.65435 23.8828 8.08859 23.0418L6.42915 24.1582ZM31.1372 16.55L30.3857 15.8903L29.1952 17.2466L30.9763 17.537L31.1372 16.55ZM35.3672 18.62L34.6266 19.292L34.633 19.2989L35.3672 18.62ZM35.8772 25.97L36.7243 26.5015L36.7289 26.4941L35.8772 25.97ZM32.9372 28.43L32.5121 27.5249L32.5068 27.5274L32.9372 28.43ZM23.7572 28.79L23.4861 29.7525L23.4941 29.7548L23.5021 29.7569L23.7572 28.79ZM20.1272 27.11L19.2357 26.657L18.8476 27.4209L19.5429 27.9215L20.1272 27.11ZM22.0172 23.39L22.6172 22.59L21.6649 21.8758L21.1257 22.937L22.0172 23.39ZM24.7772 24.8L24.4665 25.7505L24.4773 25.754L24.4882 25.7573L24.7772 24.8ZM30.8972 24.59L31.4464 25.4257L31.4546 25.4203L31.4628 25.4147L30.8972 24.59ZM25.7972 20H24.7972V21H25.7972V20ZM25.7972 16.79L25.0478 16.1279L24.7972 16.4115V16.79H25.7972ZM30.1172 11.9L30.8667 12.5621L32.335 10.9H30.1172V11.9ZM21.1772 11.9H20.1772V12.9H21.1772V11.9ZM21.1772 8V7H20.1772V8H21.1772ZM35.8772 8H36.8772V7H35.8772V8ZM35.8772 11.15L36.6288 11.8097L36.8772 11.5266V11.15H35.8772ZM30.9763 17.537C32.6561 17.8108 33.8367 18.4214 34.6267 19.292L36.1078 17.948C34.9378 16.6586 33.2983 15.8892 31.2981 15.563L30.9763 17.537ZM34.633 19.2989C35.4253 20.1559 35.8372 21.2258 35.8372 22.58H37.8372C37.8372 20.7742 37.2691 19.2041 36.1015 17.9411L34.633 19.2989ZM35.8372 22.58C35.8372 23.6148 35.5687 24.5634 35.0256 25.4459L36.7289 26.4941C37.4658 25.2966 37.8372 23.9852 37.8372 22.58H35.8372ZM35.0302 25.4385C34.5118 26.2647 33.6955 26.969 32.5121 27.5249L33.3624 29.3351C34.819 28.651 35.9627 27.7153 36.7243 26.5015L35.0302 25.4385ZM32.5068 27.5274C31.377 28.0662 29.9337 28.36 28.1372 28.36V30.36C30.1407 30.36 31.8975 30.0338 33.3677 29.3326L32.5068 27.5274ZM28.1372 28.36C26.7439 28.36 25.3696 28.1813 24.0124 27.8231L23.5021 29.7569C25.0248 30.1587 26.5706 30.36 28.1372 30.36V28.36ZM24.0284 27.8275C22.6992 27.453 21.6001 26.9383 20.7115 26.2985L19.5429 27.9215C20.6543 28.7217 21.9753 29.327 23.4861 29.7525L24.0284 27.8275ZM21.0188 27.563L22.9088 23.843L21.1257 22.937L19.2357 26.657L21.0188 27.563ZM21.4172 24.19C22.3126 24.8615 23.3322 25.3797 24.4665 25.7505L25.088 23.8495C24.1422 23.5403 23.3218 23.1185 22.6172 22.59L21.4172 24.19ZM24.4882 25.7573C25.6413 26.1054 26.8187 26.28 28.0172 26.28V24.28C27.0158 24.28 26.0331 24.1346 25.0662 23.8427L24.4882 25.7573ZM28.0172 26.28C29.348 26.28 30.5247 26.0314 31.4464 25.4257L30.348 23.7543C29.8697 24.0686 29.1265 24.28 28.0172 24.28V26.28ZM31.4628 25.4147C32.439 24.7453 32.9472 23.7645 32.9472 22.58H30.9472C30.9472 23.1155 30.7555 23.4747 30.3317 23.7653L31.4628 25.4147ZM32.9472 22.58C32.9472 21.4221 32.4812 20.4443 31.5135 19.809C30.6192 19.222 29.4048 19 28.0172 19V21C29.2496 21 30.0002 21.208 30.4159 21.481C30.7583 21.7057 30.9472 22.0179 30.9472 22.58H32.9472ZM28.0172 19H25.7972V21H28.0172V19ZM26.7972 20V16.79H24.7972V20H26.7972ZM26.5467 17.4521L30.8667 12.5621L29.3678 11.2379L25.0478 16.1279L26.5467 17.4521ZM30.1172 10.9H21.1772V12.9H30.1172V10.9ZM22.1772 11.9V8H20.1772V11.9H22.1772ZM21.1772 9H35.8772V7H21.1772V9ZM34.8772 8V11.15H36.8772V8H34.8772ZM35.1257 10.4903L30.3857 15.8903L31.8888 17.2097L36.6288 11.8097L35.1257 10.4903Z" fill="#4747FF"/>
</svg>
