<svg width="19" height="19" viewBox="0 0 19 19" fill="none" xmlns="http://www.w3.org/2000/svg">
<path d="M8.27495 0.884589C8.51648 0.643339 8.84402 0.507812 9.18555 0.507812C9.52707 0.507812 9.85461 0.643339 10.0961 0.884589L17.824 8.60577C18.0586 8.84847 18.1884 9.17354 18.1855 9.51095C18.1826 9.84836 18.0471 10.1711 17.8083 10.4097C17.5695 10.6483 17.2465 10.7837 16.9088 10.7866C16.5711 10.7895 16.2457 10.6598 16.0028 10.4254L9.18555 3.61403L2.36829 10.4254C2.12538 10.6598 1.80003 10.7895 1.46233 10.7866C1.12463 10.7837 0.801588 10.6483 0.562786 10.4097C0.323985 10.1711 0.18853 9.84836 0.185596 9.51095C0.182661 9.17354 0.312482 8.84847 0.547097 8.60577L8.27495 0.884589ZM9.18555 11.3352L2.36829 18.1466C2.12538 18.381 1.80003 18.5107 1.46233 18.5078C1.12463 18.5048 0.801588 18.3695 0.562786 18.1309C0.323985 17.8923 0.18853 17.5695 0.185596 17.2321C0.182661 16.8947 0.312482 16.5697 0.547097 16.3269L8.27495 8.60577C8.51648 8.36452 8.84402 8.22899 9.18555 8.22899C9.52707 8.22899 9.85461 8.36452 10.0961 8.60577L17.824 16.3269C18.0586 16.5697 18.1884 16.8947 18.1855 17.2321C18.1826 17.5695 18.0471 17.8923 17.8083 18.1309C17.5695 18.3695 17.2465 18.5048 16.9088 18.5078C16.5711 18.5107 16.2457 18.381 16.0028 18.1466L9.18555 11.3352Z" fill="#848CFF"/>
</svg>
