<svg width="24" height="24" viewBox="0 0 24 24" fill="none" xmlns="http://www.w3.org/2000/svg">
<g opacity="0.5">
<path d="M15.7501 8.25831C16.0833 8.60273 16.0833 9.16114 15.7501 9.50555L13.2065 12.135L15.489 14.4945C15.8222 14.8389 15.8222 15.3973 15.489 15.7417C15.1559 16.0861 14.6156 16.0861 14.2825 15.7417L12 13.3822L9.71748 15.7417C9.3843 16.0861 8.84412 16.0861 8.51095 15.7417C8.17778 15.3973 8.17778 14.8389 8.51095 14.4945L10.7935 12.135L8.24988 9.50555C7.91671 9.16114 7.91671 8.60273 8.24988 8.25831C8.58305 7.9139 9.12324 7.9139 9.45641 8.25831L12 10.8877L14.5436 8.25831C14.8768 7.9139 15.4169 7.9139 15.7501 8.25831Z" fill="#4747FF"/>
<path fill-rule="evenodd" clip-rule="evenodd" d="M4 1C2.34315 1 1 2.34315 1 4V20C1 21.6569 2.34315 23 4 23H20C21.6569 23 23 21.6569 23 20V4C23 2.34315 21.6569 1 20 1H4ZM20 3H4C3.44772 3 3 3.44772 3 4V20C3 20.5523 3.44772 21 4 21H20C20.5523 21 21 20.5523 21 20V4C21 3.44772 20.5523 3 20 3Z" fill="#4747FF"/>
</g>
</svg>
