<svg width="36" height="36" viewBox="0 0 36 36" fill="none" xmlns="http://www.w3.org/2000/svg">
<path d="M17.5 3C11.1591 3 6 8.12578 6 14.4258C6 16.9189 6.79262 19.2879 8.2941 21.2754L16.7911 32.6456C16.8124 32.6731 16.8448 32.6837 16.8684 32.7083C17.293 33.16 17.9057 33.0463 18.2083 32.6456C20.6551 29.4018 25.1401 23.3438 26.8645 21.0586C26.8645 21.0586 26.8651 21.0568 26.8657 21.0557L26.8763 21.0416C28.2658 19.1021 29 16.8146 29 14.4258C29 8.12578 23.8409 3 17.5 3ZM17.5 20.5898C14.086 20.5898 11.2959 17.8178 11.2959 14.4258C11.2959 11.0338 14.086 8.26172 17.5 8.26172C20.914 8.26172 23.7041 11.0338 23.7041 14.4258C23.7041 17.8178 20.914 20.5898 17.5 20.5898Z" fill="white"/>
</svg>
