<svg width="36" height="36" viewBox="0 0 36 36" fill="none" xmlns="http://www.w3.org/2000/svg">
<path d="M32.7357 8.50039L23.6374 17.5L32.7357 26.4996C32.9002 26.1574 33 25.779 33 25.375V9.625C33 9.22093 32.9002 8.84263 32.7357 8.50039Z" fill="white"/>
<path d="M30.3633 7H5.63672C5.23084 7 4.85086 7.09934 4.50709 7.26308L16.1358 18.7818C17.164 19.8054 18.836 19.8054 19.8642 18.7818L31.4929 7.26308C31.1491 7.09934 30.7692 7 30.3633 7Z" fill="white"/>
<path d="M3.26426 8.50039C3.09979 8.84263 3 9.22093 3 9.625V25.375C3 25.7791 3.09979 26.1574 3.26426 26.4996L12.3626 17.5L3.26426 8.50039Z" fill="white"/>
<path d="M22.3945 18.7373L21.1071 20.0191C19.3938 21.7247 16.6061 21.7247 14.8929 20.0191L13.6055 18.7373L4.50709 27.7369C4.85086 27.9007 5.23084 28 5.63672 28H30.3633C30.7692 28 31.1491 27.9007 31.4929 27.7369L22.3945 18.7373Z" fill="white"/>
</svg>
