<svg width="36" height="36" viewBox="0 0 36 36" fill="none" xmlns="http://www.w3.org/2000/svg">
<path d="M24.0217 25.6263C23.6612 25.2648 23.1618 25.0662 22.6125 25.0662C22.0341 25.0662 21.4768 25.2934 21.083 25.6905L18.5925 28.2023L17.9194 27.8258C16.4389 26.998 14.41 25.8628 12.2682 23.7C10.1177 21.5343 8.99104 19.484 8.16727 17.985L7.79938 17.3253L10.2942 14.81C11.1194 13.975 11.1482 12.6463 10.3565 11.8469L5.74705 7.19983C5.38882 6.83852 4.88874 6.6391 4.34035 6.6391C3.76256 6.6391 3.20554 6.86743 2.81051 7.26492L1.67857 8.41279L1.57362 8.5892C1.15197 9.13417 0.807004 9.74651 0.549306 10.414C0.309494 11.0498 0.160447 11.654 0.0910628 12.2602C-0.502968 17.2407 1.77427 21.813 7.95377 28.0424C15.2773 35.4255 21.3973 36 23.0989 36C23.391 36 23.5668 35.9838 23.6156 35.9789C24.2445 35.9016 24.8458 35.7492 25.4524 35.5126C26.1073 35.2556 26.7135 34.9103 27.253 34.4851L27.5098 34.2803L28.5696 33.2322C29.3937 32.4009 29.4201 31.0739 28.6288 30.2754L24.0217 25.6263Z" fill="white"/>
<path d="M19.1424 17.0309C18.1393 16.0202 16.8795 15.2929 15.5029 14.9298L14.8696 14.7609L14.688 15.3913C14.6199 15.6251 14.5396 15.8463 14.4485 16.0451L14.1053 16.7824L14.8917 16.9872C15.932 17.2523 16.8801 17.7925 17.6328 18.5531C18.3522 19.2769 18.8781 20.185 19.1534 21.177L19.2861 21.6549L20.2761 21.7116C20.3761 21.7234 20.4761 21.7347 20.5718 21.7434L21.5026 21.8318L21.2865 20.9143C20.9397 19.4385 20.1991 18.0958 19.1424 17.0309Z" fill="white"/>
<path d="M22.3771 13.7677C20.5149 11.8897 18.1351 10.6643 15.4983 10.2248L14.5811 10.0695L14.7252 10.994C14.7676 11.2681 14.8049 11.541 14.836 11.8167L14.8946 12.3031L15.3801 12.3999C17.4818 12.7914 19.3792 13.7919 20.8668 15.2909C22.5746 17.0136 23.6185 19.2112 23.8825 21.6497L23.9388 22.1658L24.7146 22.2784C24.8393 22.2884 24.9659 22.2871 25.1443 22.2884L26.0788 22.3207L26.0047 21.5515C25.7139 18.5585 24.4584 15.8676 22.3771 13.7677Z" fill="white"/>
<path d="M25.8913 10.225C22.836 7.14485 18.7662 5.31011 14.4316 5.06023L13.5897 5.00726L13.7301 5.84337C13.7729 6.11565 13.8255 6.39415 13.881 6.68425L13.9835 7.19149L14.4924 7.22321C18.2329 7.48149 21.7447 9.08821 24.3821 11.7469C26.977 14.3637 28.5628 17.8645 28.8467 21.5999L28.8955 22.2646L29.5541 22.2254C29.7102 22.2173 29.8639 22.2037 30.0886 22.1838L31.0311 22.109L30.9792 21.4356C30.657 17.1896 28.8504 13.2082 25.8913 10.225Z" fill="white"/>
<path d="M35.9455 20.9591C35.5147 15.569 33.1933 10.4968 29.4077 6.67905C25.3685 2.60597 19.9918 0.244397 14.2719 0.0274662L13.6235 0L13.5741 0.657219C13.5627 0.840777 13.555 1.02226 13.5482 1.20457L13.5084 2.15874L14.1809 2.18299C19.3678 2.3766 24.2391 4.51472 27.8969 8.20296C31.3232 11.6578 33.4255 16.2515 33.8181 21.1358L33.8729 21.8216L34.5574 21.7545C34.7895 21.7296 35.0247 21.7116 35.2618 21.6929L36 21.6356L35.9455 20.9591Z" fill="white"/>
</svg>
