<svg width="20" height="20" viewBox="0 0 20 20" fill="none" xmlns="http://www.w3.org/2000/svg">
<path fill-rule="evenodd" clip-rule="evenodd" d="M10 2C6.52325 2 3.5645 4.21786 2.46138 7.31596L7.27554 8.74237C7.75117 7.71371 8.79224 7 10 7C11.2078 7 12.2488 7.71371 12.7245 8.74237L17.5386 7.31596C16.4355 4.21786 13.4768 2 10 2ZM17.9676 9.2748L12.8985 10.7768C12.6427 11.7337 11.9256 12.5022 11 12.8293V17.9381C14.9463 17.446 18 14.0796 18 10C18 9.75555 17.989 9.51367 17.9676 9.2748ZM10.9999 9.98355C10.9997 9.99435 10.9997 10.0052 10.9999 10.016C10.9913 10.5609 10.5469 11 10 11C9.45306 11 9.00868 10.5609 9.00013 10.016C9.00031 10.0052 9.00031 9.99436 9.00013 9.98357C9.00891 9.43886 9.4532 9 10 9C10.5468 9 10.9911 9.43885 10.9999 9.98355ZM2 10C2 9.75555 2.01096 9.51367 2.03243 9.2748L7.10153 10.7768C7.35734 11.7337 8.07443 12.5022 9 12.8293V17.9381C5.05369 17.446 2 14.0796 2 10ZM10 20C4.47715 20 0 15.5228 0 10C0 4.47715 4.47715 0 10 0C15.5228 0 20 4.47715 20 10C20 15.5228 15.5228 20 10 20Z" fill="#0B3BFF"/>
</svg>
