<svg width="48" height="48" viewBox="0 0 48 48" fill="none" xmlns="http://www.w3.org/2000/svg">
<path fill-rule="evenodd" clip-rule="evenodd" d="M24 37C31.1797 37 37 31.1797 37 24C37 16.8203 31.1797 11 24 11C16.8203 11 11 16.8203 11 24C11 31.1797 16.8203 37 24 37ZM24 14.3548C19.9649 14.3548 16.5085 16.8327 15.0694 20.3499L20.3594 21.9173C21.0824 20.6561 22.442 19.8065 24 19.8065C25.558 19.8065 26.9176 20.6561 27.6406 21.9173L32.9306 20.3499C31.4915 16.8327 28.0351 14.3548 24 14.3548ZM33.6385 23.6392L27.9833 25.3148C27.6089 26.4497 26.763 27.3703 25.6774 27.8446V33.4998C30.2047 32.7059 33.6452 28.7547 33.6452 24C33.6452 23.8792 33.6429 23.7589 33.6385 23.6392ZM24.8384 23.9775C24.8382 23.9923 24.8382 24.0072 24.8384 24.022C24.8267 24.4751 24.4558 24.8387 24 24.8387C23.5442 24.8387 23.1733 24.4751 23.1616 24.022C23.1618 24.0072 23.1618 23.9923 23.1616 23.9775C23.1735 23.5247 23.5443 23.1613 24 23.1613C24.4557 23.1613 24.8265 23.5247 24.8384 23.9775ZM14.3548 24C14.3548 23.8792 14.3571 23.7589 14.3615 23.6392L20.0167 25.3148C20.3911 26.4497 21.237 27.3703 22.3226 27.8446V33.4998C17.7953 32.7059 14.3548 28.7547 14.3548 24Z" fill="url(#paint0_linear_33_585)"/>
<defs>
<linearGradient id="paint0_linear_33_585" x1="11" y1="37" x2="28.729" y2="41.7661" gradientUnits="userSpaceOnUse">
<stop offset="0.0253412" stop-color="white"/>
<stop offset="1" stop-color="white"/>
</linearGradient>
</defs>
</svg>
