<svg width="30" height="30" viewBox="0 0 30 30" fill="none" xmlns="http://www.w3.org/2000/svg">
<path d="M1.5 28.5L3.975 22.8C2.08149 20.1121 1.234 16.8255 1.59157 13.5572C1.94913 10.2888 3.48718 7.26321 5.91706 5.04828C8.34695 2.83335 11.5016 1.58132 14.7891 1.52715C18.0765 1.47298 21.2707 2.62039 23.7723 4.75406C26.2738 6.88772 27.9107 9.86096 28.3758 13.1158C28.8408 16.3706 28.1021 19.6833 26.2982 22.4322C24.4942 25.181 21.7492 27.177 18.5781 28.0457C15.407 28.9143 12.0279 28.5958 9.075 27.15L1.5 28.5" stroke="white" stroke-width="2" stroke-linecap="round" stroke-linejoin="round"/>
<path d="M10.5 12C10.5 12.1989 10.579 12.3897 10.7197 12.5303C10.8603 12.671 11.0511 12.75 11.25 12.75C11.4489 12.75 11.6397 12.671 11.7803 12.5303C11.921 12.3897 12 12.1989 12 12V10.5C12 10.3011 11.921 10.1103 11.7803 9.96967C11.6397 9.82902 11.4489 9.75 11.25 9.75C11.0511 9.75 10.8603 9.82902 10.7197 9.96967C10.579 10.1103 10.5 10.3011 10.5 10.5V12ZM10.5 12C10.5 13.9891 11.2902 15.8968 12.6967 17.3033C14.1032 18.7098 16.0109 19.5 18 19.5H19.5C19.6989 19.5 19.8897 19.421 20.0303 19.2803C20.171 19.1397 20.25 18.9489 20.25 18.75C20.25 18.5511 20.171 18.3603 20.0303 18.2197C19.8897 18.079 19.6989 18 19.5 18H18C17.8011 18 17.6103 18.079 17.4697 18.2197C17.329 18.3603 17.25 18.5511 17.25 18.75C17.25 18.9489 17.329 19.1397 17.4697 19.2803C17.6103 19.421 17.8011 19.5 18 19.5" stroke="white" stroke-width="2" stroke-linecap="round" stroke-linejoin="round"/>
</svg>
