<svg id="Слой_1" data-name="Слой 1" xmlns="http://www.w3.org/2000/svg" viewBox="0 0 512 511.98"><defs><style>.cls-1{fill:#fff;}</style></defs><g id="Page-1"><g id="_003---Call" data-name="003---Call"><path id="Shape" class="cls-1" d="M212,300c-48.9-48.9-59.9-97.7-62.4-117.3a17.83,17.83,0,0,1,5-14.7l39.5-39.5a17.7,17.7,0,0,0,2.5-21.8l-63-97.8a17.65,17.65,0,0,0-22.9-6.4L9.8,50A17.36,17.36,0,0,0,.1,67.5c5.3,50.3,27.2,174,148.8,295.6S394.1,506.6,444.5,511.9a17.51,17.51,0,0,0,17.5-9.7l47.6-101.1a17.55,17.55,0,0,0-6.4-22.8l-97.8-62.9a17.55,17.55,0,0,0-21.8,2.5L344,357.3a17.41,17.41,0,0,1-14.7,5c-19.5-2.4-68.4-13.4-117.3-62.3Z" transform="translate(0)"/><path id="Shape-2" data-name="Shape" class="cls-1" d="M406.1,273.7A17.67,17.67,0,0,1,388.4,256,132.56,132.56,0,0,0,256,123.6a17.7,17.7,0,1,1,0-35.4A167.85,167.85,0,0,1,423.7,255.9,17.67,17.67,0,0,1,406.1,273.7Z" transform="translate(0)"/><path id="Shape-3" data-name="Shape" class="cls-1" d="M494.3,273.7A17.67,17.67,0,0,1,476.6,256c0-121.8-98.8-220.6-220.6-220.7A17.65,17.65,0,1,1,256,0C397.3.2,511.8,114.7,512,256a17.75,17.75,0,0,1-17.7,17.7Z" transform="translate(0)"/></g></g></svg>