<svg xmlns="http://www.w3.org/2000/svg" width="12.75" height="7.25" viewBox="0 0 12.75 7.25">
  <metadata><?xpacket begin="﻿" id="W5M0MpCehiHzreSzNTczkc9d"?>
<x:xmpmeta xmlns:x="adobe:ns:meta/" x:xmptk="Adobe XMP Core 5.6-c142 79.160924, 2017/07/13-01:06:39        ">
   <rdf:RDF xmlns:rdf="http://www.w3.org/1999/02/22-rdf-syntax-ns#">
      <rdf:Description rdf:about=""/>
   </rdf:RDF>
</x:xmpmeta>
                                                                                                    
                                                                                                    
                                                                                                    
                                                                                                    
                                                                                                    
                                                                                                    
                                                                                                    
                                                                                                    
                                                                                                    
                                                                                                    
                                                                                                    
                                                                                                    
                                                                                                    
                                                                                                    
                                                                                                    
                                                                                                    
                                                                                                    
                                                                                                    
                                                                                                    
                                                                                                    
                           
<?xpacket end="w"?></metadata>
<defs>
    <style>
      .cls-1 {
        fill: #f9f2fb;
        fill-rule: evenodd;
      }
    </style>
  </defs>
  <path class="cls-1" d="M1358.94,3998.81a0.4,0.4,0,0,1,0-.59,16.05,16.05,0,0,0,1.89-3.07h0c0.08-.28,0-0.49-0.43-0.49h-1.39a0.6,0.6,0,0,0-.61.38,11.251,11.251,0,0,1-1.71,2.73,1.017,1.017,0,0,1-.66.4c-0.08,0-.22-0.09-0.22-0.38v-2.64c0-.34-0.1-0.49-0.39-0.49h-2.2a0.328,0.328,0,0,0-.35.31c0,0.32.5,0.39,0.55,1.3v1.96c0,0.43-.08.51-0.26,0.51-0.47,0-1.62-1.66-2.31-3.56a0.6,0.6,0,0,0-.63-0.52h-1.39c-0.4,0-.48.18-0.48,0.38a10.43,10.43,0,0,0,2.2,4.42,5.509,5.509,0,0,0,4.26,2.44c0.89,0,1-.2,1-0.52,0-1.51-.08-1.65.36-1.65a2.312,2.312,0,0,1,1.4.86c0.94,0.9,1.1,1.31,1.63,1.31h1.4c0.4,0,.6-0.2.48-0.57A11.836,11.836,0,0,0,1358.94,3998.81Z" transform="translate(-1348.34 -3994.66)"/>
</svg>
