<svg xmlns="http://www.w3.org/2000/svg" width="12.35" height="9.88" viewBox="0 0 12.35 9.88">
  <metadata><?xpacket begin="﻿" id="W5M0MpCehiHzreSzNTczkc9d"?>
<x:xmpmeta xmlns:x="adobe:ns:meta/" x:xmptk="Adobe XMP Core 5.6-c142 79.160924, 2017/07/13-01:06:39        ">
   <rdf:RDF xmlns:rdf="http://www.w3.org/1999/02/22-rdf-syntax-ns#">
      <rdf:Description rdf:about=""/>
   </rdf:RDF>
</x:xmpmeta>
                                                                                                    
                                                                                                    
                                                                                                    
                                                                                                    
                                                                                                    
                                                                                                    
                                                                                                    
                                                                                                    
                                                                                                    
                                                                                                    
                                                                                                    
                                                                                                    
                                                                                                    
                                                                                                    
                                                                                                    
                                                                                                    
                                                                                                    
                                                                                                    
                                                                                                    
                                                                                                    
                           
<?xpacket end="w"?></metadata>
<defs>
    <style>
      .cls-1 {
        fill: #f9f2fb;
        fill-rule: evenodd;
      }
    </style>
  </defs>
  <path class="cls-1" d="M1443.64,3994.01a1.377,1.377,0,0,0-1.44-.87c-0.74-.05-2.6-0.08-4.21-0.08s-3.47.03-4.21,0.08a1.4,1.4,0,0,0-1.45.87,9.873,9.873,0,0,0-.52,3.99h0a9.781,9.781,0,0,0,.52,3.98,1.425,1.425,0,0,0,1.45.88c0.74,0.05,2.6.08,4.21,0.08s3.47-.03,4.22-0.08a1.379,1.379,0,0,0,1.43-.88,9.495,9.495,0,0,0,.53-3.97V3998h0A9.642,9.642,0,0,0,1443.64,3994.01Zm-7.19,6.68v-5.38l3.86,2.69Z" transform="translate(-1431.81 -3993.06)"/>
</svg>
