<svg width="53" height="96" viewBox="0 0 53 96" fill="none" xmlns="http://www.w3.org/2000/svg">
<path d="M50.6809 0.0199744L38.2319 0C24.2458 0 15.2074 9.27312 15.2074 23.6257V34.5188H2.6904C1.60879 34.5188 0.73291 35.3956 0.73291 36.4773V52.26C0.73291 53.3417 1.60979 54.2175 2.6904 54.2175H15.2074V94.0425C15.2074 95.1241 16.0832 96 17.1649 96H33.4959C34.5775 96 35.4534 95.1231 35.4534 94.0425V54.2175H50.0887C51.1703 54.2175 52.0462 53.3417 52.0462 52.26L52.0522 36.4773C52.0522 35.9579 51.8454 35.4606 51.4789 35.093C51.1124 34.7255 50.613 34.5188 50.0937 34.5188H35.4534V25.2846C35.4534 20.8463 36.5111 18.5932 42.2927 18.5932L50.6789 18.5902C51.7595 18.5902 52.6354 17.7133 52.6354 16.6327V1.97747C52.6354 0.89785 51.7605 0.0219718 50.6809 0.0199744Z" fill="white"/>
</svg>
