<svg width="72" height="96" viewBox="0 0 72 96" fill="none" xmlns="http://www.w3.org/2000/svg">
<path d="M11.9977 4.37249C16.8394 0.566808 26.1482 -0.523942 29.9784 0.218848C33.8122 0.956951 35.8143 3.10118 35.8388 5.7121L36.0598 39.0026C36.077 41.6171 34.7197 44.0202 33.0411 44.3439C31.3535 44.6604 28.8703 43.1065 27.5052 40.8824L10.0385 12.3369C8.68371 10.1099 5.95293 9.12764 11.9977 4.37249ZM6.19822 67.6748L23.7832 61.4519C26.2337 60.583 28.4283 58.1654 28.675 56.0645C28.9129 53.9644 27.1316 51.4707 24.7155 50.5145L6.13952 43.1489C3.72166 42.1932 0.932182 44.4597 0.196312 48.1685C0.196312 48.1685 -0.245389 61.0841 0.196312 63.7582C0.643146 66.43 3.74822 68.5477 6.19822 67.6748ZM36.8722 70.7843C36.9238 68.1625 35.5241 65.9011 33.7618 65.7395C31.9988 65.5759 29.1999 67.0802 27.5284 69.0769L15.2619 83.7863C13.5915 85.7852 14.4214 90.4799 16.8557 91.3686L29.6823 95.8238C32.1238 96.7121 36.4234 94.0831 36.4734 91.4695L36.8722 70.7843ZM67.3643 67.3603L51.9831 62.9384C49.4894 62.2217 46.6582 62.2893 45.7 63.1009C44.7405 63.903 44.9782 66.4385 46.2345 68.7269L55.9417 86.4927C57.1969 88.7803 62.2166 88.3885 63.599 86.1687C63.599 86.1687 69.4501 77.5364 70.5261 74.301C71.6019 71.0582 69.8561 68.077 67.3643 67.3603ZM71.1102 42.3795C70.4174 40.1322 65.6082 33.5062 63.004 31.2477C60.402 28.9843 57.4259 29.268 55.7477 31.2551L45.8353 43.0634C44.1562 45.0503 43.7071 48.2018 44.8269 50.055C45.9457 51.9081 48.931 52.958 51.4642 52.3893L68.61 49.2102C71.705 48.4676 71.8144 44.6269 71.1102 42.3795Z" fill="white"/>
</svg>
