<svg width="100" height="23" viewBox="0 0 100 23" fill="none" xmlns="http://www.w3.org/2000/svg">
<path d="M88.2962 1.29419C88.6865 0.903497 89.3256 0.897285 89.716 1.28798L99.7104 11.2913C99.9116 11.4927 100.007 11.7602 99.9996 12.0258C99.9993 12.0365 99.9989 12.0472 99.9982 12.0579C99.9852 12.2944 99.8896 12.5268 99.7101 12.7064L99.7042 12.7123L89.7157 22.7097C89.3253 23.1004 88.6862 23.0942 88.2959 22.7035C87.9055 22.3128 87.8993 21.6732 88.2897 21.2825L96.5667 12.998L0.999999 12.998C0.447714 12.998 0 12.5503 0 11.998C0 11.4458 0.447715 10.998 1 10.998L96.5654 10.998L88.29 2.71525C87.8996 2.32455 87.9058 1.68489 88.2962 1.29419Z" fill="url(#paint0_linear_3245_134)"/>
<defs>
<linearGradient id="paint0_linear_3245_134" x1="0" y1="11.9988" x2="100" y2="11.9989" gradientUnits="userSpaceOnUse">
<stop stop-color="#FDC4A6"/>
<stop offset="1" stop-color="#A9796B"/>
</linearGradient>
</defs>
</svg>
