<svg width="100" height="23" viewBox="0 0 100 23" fill="none" xmlns="http://www.w3.org/2000/svg">
<path d="M11.7038 22.7038C11.3135 23.0945 10.6744 23.1008 10.284 22.7101L0.289613 12.7068C0.0883798 12.5054 -0.00746061 12.2378 0.000374804 11.9723C0.000664722 11.9615 0.00113012 11.9508 0.00176336 11.9402C0.0147562 11.7036 0.110391 11.4713 0.28991 11.2916L0.295816 11.2857L10.2843 1.28832C10.6747 0.897623 11.3138 0.903835 11.7041 1.29453C12.0945 1.68523 12.1007 2.32489 11.7103 2.71559L3.43326 11L99 11C99.5523 11 100 11.4477 100 12C100 12.5523 99.5523 13 99 13L3.43456 13L11.71 21.2828C12.1004 21.6735 12.0942 22.3131 11.7038 22.7038Z" fill="url(#paint0_linear_2941_6248)"/>
<defs>
<linearGradient id="paint0_linear_2941_6248" x1="100" y1="11.9992" x2="-6.77028e-05" y2="11.9992" gradientUnits="userSpaceOnUse">
<stop stop-color="#FDC4A6"/>
<stop offset="1" stop-color="#A9796B"/>
</linearGradient>
</defs>
</svg>
