<svg width="18" height="15" viewBox="0 0 18 15" fill="none" xmlns="http://www.w3.org/2000/svg">
<path d="M10.3533 0.295714C10.7422 -0.0966186 11.3726 -0.0966181 11.7615 0.295715L17.5909 6.17718C17.6097 6.19352 17.628 6.2107 17.6459 6.22869L17.7083 6.29157C18.0972 6.68376 18.0972 7.31964 17.7083 7.71184L11.7617 13.7073C11.3728 14.0995 10.7421 14.0995 10.3531 13.7073L10.2907 13.6444C9.90171 13.2522 9.90171 12.6163 10.2907 12.2241L14.4746 8.00586H1.00038C0.447887 8.00586 0 7.55814 0 7.00586C0 6.45357 0.447887 6.00586 1.00038 6.00586H14.48L10.291 1.77938C9.90213 1.38704 9.90213 0.750945 10.291 0.358613L10.3533 0.295714Z" fill="white"/>
</svg>
