<svg width="22" height="30" viewBox="0 0 22 30" fill="none" xmlns="http://www.w3.org/2000/svg">
<path d="M5 7C5 6.44772 5.44772 6 6 6H14C14.5523 6 15 6.44772 15 7C15 7.55228 14.5523 8 14 8H6C5.44772 8 5 7.55228 5 7Z" fill="#789384"/>
<path d="M5 15C5 14.4477 5.44772 14 6 14H14C14.5523 14 15 14.4477 15 15C15 15.5523 14.5523 16 14 16H6C5.44772 16 5 15.5523 5 15Z" fill="#789384"/>
<path d="M5 19C5 18.4477 5.44772 18 6 18C6.55228 18 7 18.4477 7 19C7 19.5523 6.55228 20 6 20C5.44772 20 5 19.5523 5 19Z" fill="#789384"/>
<path d="M10 18C9.44772 18 9 18.4477 9 19C9 19.5523 9.44772 20 10 20C10.5523 20 11 19.5523 11 19C11 18.4477 10.5523 18 10 18Z" fill="#789384"/>
<path d="M5 11C5 10.4477 5.44772 10 6 10H16C16.5523 10 17 10.4477 17 11C17 11.5523 16.5523 12 16 12H6C5.44772 12 5 11.5523 5 11Z" fill="#789384"/>
<path fill-rule="evenodd" clip-rule="evenodd" d="M0 3C0 1.34315 1.34314 0 3 0H19C20.6569 0 22 1.34315 22 3V24L16 30H3C1.34314 30 0 28.6569 0 27V3ZM17 24H19.5L16 27.5V25C16 24.4477 16.4477 24 17 24ZM2 3C2 2.44772 2.44772 2 3 2H19C19.5523 2 20 2.44772 20 3V22H17C15.3431 22 14 23.3431 14 25V28H3C2.44772 28 2 27.5523 2 27V3Z" fill="#789384"/>
</svg>
