<svg width="8" height="8" viewBox="0 0 8 8" fill="none" xmlns="http://www.w3.org/2000/svg">
<path d="M1.76363 0.292893C1.37311 -0.0976311 0.739942 -0.097631 0.349417 0.292893L0.292893 0.349417C-0.0976309 0.739942 -0.0976312 1.37311 0.292893 1.76363L2.52729 3.99803L0.292946 6.23238C-0.0975779 6.6229 -0.0975778 7.25607 0.292946 7.64659L0.349471 7.70311C0.739995 8.09364 1.37316 8.09364 1.76368 7.70311L3.99803 5.46877L6.23237 7.70311C6.62289 8.09363 7.25606 8.09363 7.64658 7.70311L7.70311 7.64658C8.09363 7.25606 8.09363 6.62289 7.70311 6.23237L5.46877 3.99803L7.70316 1.76364C8.09368 1.37311 8.09368 0.739949 7.70316 0.349425L7.64664 0.292901C7.25611 -0.0976236 6.62295 -0.0976238 6.23242 0.2929L3.99803 2.52729L1.76363 0.292893Z" fill="#999999"/>
</svg>
