<svg width="21" height="24" viewBox="0 0 21 24" fill="none" xmlns="http://www.w3.org/2000/svg">
<path d="M0 1H2.57143C3.12371 1 3.57143 1.44772 3.57143 2V5.8125M17.1429 16.8125H4.57143C4.01914 16.8125 3.57143 16.3648 3.57143 15.8125V12.6875M3.57143 5.8125H18.6409C19.3152 5.8125 19.7962 6.46629 19.5956 7.11007L17.8571 12.6875H3.57143M3.57143 5.8125V12.6875M14.6429 21.9688C14.0511 21.3992 14.0511 20.4758 14.6429 19.9062C15.2346 19.3367 16.194 19.3367 16.7857 19.9062C17.3774 20.4758 17.3774 21.3992 16.7857 21.9688C16.194 22.5383 15.2346 22.5383 14.6429 21.9688ZM3.25522 22.0081V22.0081C3.8306 22.562 4.74082 22.562 5.31621 22.0081V22.0081C5.92355 21.4236 5.92355 20.4514 5.31621 19.8669V19.8669C4.74082 19.313 3.8306 19.313 3.25522 19.8669V19.8669C2.64787 20.4514 2.64787 21.4236 3.25522 22.0081Z" stroke="white" stroke-width="2"/>
</svg>
