<svg width="6" height="13" viewBox="0 0 6 13" fill="none" xmlns="http://www.w3.org/2000/svg">
<path d="M5.774 0.999094L4.335 0.996094C2.718 0.996094 1.673 2.15509 1.673 3.94909V5.31209H0.226C0.101 5.31209 0 5.42209 0 5.55609V7.52909C0 7.66409 0.101 7.77409 0.226 7.77409H1.673V12.7531C1.673 12.8881 1.774 12.9961 1.899 12.9961H3.787C3.912 12.9961 4.013 12.8881 4.013 12.7531V7.77409H5.705C5.83 7.77409 5.931 7.66409 5.931 7.52909L5.932 5.55609C5.932 5.49209 5.908 5.42909 5.866 5.38509C5.823 5.33709 5.766 5.31209 5.706 5.31209H4.013V4.15709C4.013 3.60309 4.136 3.32109 4.804 3.32109H5.773C5.898 3.32109 5.999 3.21009 5.999 3.07509V1.24409C5.999 1.10909 5.898 0.999094 5.774 0.999094Z" fill="#999999"/>
</svg>
