<svg width="12" height="15" viewBox="0 0 12 15" fill="none" xmlns="http://www.w3.org/2000/svg">
<path d="M4.58579 7.41421C3.80474 6.63316 3.80474 5.36684 4.58579 4.58579C5.36684 3.80474 6.63317 3.80474 7.41422 4.58579C8.19526 5.36684 8.19526 6.63316 7.41422 7.41421C6.63317 8.19526 5.36684 8.19526 4.58579 7.41421Z" fill="#333333"/>
<path fill-rule="evenodd" clip-rule="evenodd" d="M10.2318 1.70329C7.89131 -0.567762 4.1087 -0.567762 1.76817 1.70329C-0.187557 3.60096 -0.567799 6.56104 0.862104 8.87347L3.94977 13.8668C4.88404 15.3777 7.11597 15.3777 8.05023 13.8668L11.1379 8.87347C12.5678 6.56104 12.1876 3.60096 10.2318 1.70329ZM3.16092 3.13864C4.72556 1.62045 7.27445 1.62045 8.83908 3.13864C10.128 4.38927 10.3677 6.31617 9.43684 7.82161L6.34917 12.815C6.27742 12.931 6.15259 13 6 13C5.84742 13 5.72258 12.931 5.65083 12.815L2.56316 7.82161C1.63226 6.31617 1.87204 4.38927 3.16092 3.13864Z" fill="#333333"/>
</svg>
