<svg width="20" height="20" viewBox="0 0 20 20" fill="none" xmlns="http://www.w3.org/2000/svg">
<path d="M7 8H9V16H7V8Z" fill="#999999"/>
<path d="M13 8H11V16H13V8Z" fill="#999999"/>
<path fill-rule="evenodd" clip-rule="evenodd" d="M2 5.82929C0.834808 5.41746 0 4.30622 0 3C0 1.34315 1.34315 0 3 0H17C18.6569 0 20 1.34315 20 3C20 4.30622 19.1652 5.41746 18 5.82929V17C18 18.6569 16.6569 20 15 20H5C3.34315 20 2 18.6569 2 17V5.82929ZM3 2H17C17.5523 2 18 2.44771 18 3C18 3.55228 17.5523 4 17 4H3C2.44772 4 2 3.55229 2 3C2 2.44772 2.44772 2 3 2ZM4 6V17C4 17.5523 4.44772 18 5 18H15C15.5523 18 16 17.5523 16 17V6H4Z" fill="#999999"/>
</svg>
