<svg width="16" height="16" viewBox="0 0 16 16" fill="none" xmlns="http://www.w3.org/2000/svg">
<path d="M14.6962 7.34479C14.9717 7.06448 15.069 6.65308 14.9502 6.27065C14.831 5.88822 14.5207 5.61522 14.1394 5.55728L10.7496 5.04318C10.6052 5.02124 10.4804 4.92673 10.416 4.79008L8.90045 1.58403C8.73028 1.22384 8.3849 1 8 1C7.61537 1 7.27 1.22384 7.09983 1.58403L5.58404 4.79008C5.51956 4.92673 5.39453 5.02124 5.25016 5.04318L1.8603 5.55758C1.47932 5.61522 1.16899 5.88822 1.04984 6.27065C0.930978 6.65308 1.02826 7.06448 1.30383 7.34479L3.75651 9.84011C3.86108 9.94662 3.90902 10.0999 3.88435 10.2498L3.30545 13.7736C3.24041 14.1695 3.39319 14.5618 3.70465 14.7983C4.01583 15.035 4.42092 15.0657 4.76209 14.8781L7.79367 13.2144C7.92291 13.1436 8.07709 13.1436 8.20633 13.2144L11.2382 14.8781C11.3862 14.9595 11.5466 14.9996 11.7061 14.9996C11.9132 14.9996 12.1196 14.932 12.2956 14.7983C12.6071 14.5618 12.7599 14.1695 12.6948 13.7736L12.1157 10.25C12.091 10.0999 12.1389 9.94691 12.2435 9.8404L14.6962 7.34479Z" stroke="#4483EA" stroke-width="2"/>
</svg>
