<svg width="26" height="21" viewBox="0 0 26 21" fill="none" xmlns="http://www.w3.org/2000/svg">
<path d="M6.0719 6.00167C8.28104 2.17533 13.1738 0.864327 17.0001 3.07347C19.069 4.26793 20.4025 6.24695 20.8418 8.41774L19.3333 7.00353L18 8.25352L22 12.0035L26 8.25352L24.6667 7.00353L22.909 8.65135C22.5039 5.69433 20.785 2.94926 18.0001 1.34142C13.2172 -1.42001 7.10127 0.218744 4.33984 5.00167L6.0719 6.00167Z" fill="#CDDDE0"/>
<path d="M19.9283 14.0017C17.7192 17.828 12.8264 19.139 9.00009 16.9299C6.57559 15.5301 5.16098 13.0528 5.01189 10.4522L6.66667 12.0035L8 10.7535L4 7.00353L0 10.7535L1.33333 12.0035L3.00816 10.4334C3.15379 13.732 4.92865 16.8886 8.00009 18.6619C12.783 21.4233 18.8989 19.7846 21.6604 15.0017L19.9283 14.0017Z" fill="#CDDDE0"/>
</svg>
