<svg width="9" height="15" viewBox="0 0 9 15" fill="none" xmlns="http://www.w3.org/2000/svg">
<path d="M8.29216 0.996094H6.05516C3.78916 0.996094 1.50316 2.48409 1.50316 5.80809C1.50316 7.53209 2.32416 8.87209 3.82816 9.63409L1.07516 14.0661C0.944162 14.2761 0.941162 14.5131 1.06616 14.7021C1.18816 14.8861 1.41016 14.9971 1.66116 14.9971H3.05416C3.37016 14.9971 3.61716 14.8601 3.73516 14.6211L6.31716 10.1301H6.50516V14.4361C6.50516 14.7401 6.79316 14.9971 7.13416 14.9971H8.35116C8.73316 14.9971 8.99916 14.7591 8.99916 14.4181V1.60809C8.99916 1.24709 8.70816 0.996094 8.29216 0.996094ZM6.50516 8.13709H6.17316C4.88416 8.13709 4.11516 7.20009 4.11516 5.63309C4.11516 3.68509 5.08716 2.99109 5.99616 2.99109H6.50516V8.13709Z" fill="#999999"/>
</svg>
