<svg id="Сгруппировать_17" data-name="Сгруппировать 17" xmlns="http://www.w3.org/2000/svg" width="367.17" height="71.943" viewBox="0 0 367.17 71.943">
  <g id="Сгруппировать_14" data-name="Сгруппировать 14">
    <path id="Контур_28" data-name="Контур 28" d="M209.229,119l9.838,17.04L189.553,119h19.676m2.946-5.1H170.6l62.409,36.08L212.174,113.9Z" transform="translate(-149.851 -113.895)" fill="#1d7eff"/>
    <path id="Контур_29" data-name="Контур 29" d="M219.465,235.995l-9.8,16.971h-19.6l29.394-16.971m13.882-13.882h0Zm0,0-62.239,35.934H212.6l20.746-35.934Z" transform="translate(-150.193 -186.104)" fill="#1d7eff"/>
    <path id="Контур_30" data-name="Контур 30" d="M123.849,132.877l.16,33.975-9.888-16.941,9.728-17.034m-15.6,17.061,20.773,35.872-.028-71.92Z" transform="translate(-108.248 -113.891)" fill="#1d7eff"/>
  </g>
  <g id="Сгруппировать_15" data-name="Сгруппировать 15" transform="translate(93.582 17.007)">
    <path id="Контур_31" data-name="Контур 31" d="M425.537,184.785c0,11.163-8.29,18.965-20.266,18.965H389.5V165.82H405.6C417.354,165.82,425.537,173.568,425.537,184.785Zm-8.724.055c0-6.99-4.877-11.812-11.379-11.812h-7.369v23.516h7.749C412.152,196.543,416.813,191.775,416.813,184.839Z" transform="translate(-389.503 -165.549)"/>
    <path id="Контур_32" data-name="Контур 32" d="M523.985,172.429a11.678,11.678,0,0,0,0,23.354,14.636,14.636,0,0,0,9.862-4.443l5.039,5.472a22.2,22.2,0,0,1-15.334,6.773c-11.325,0-19.886-8.4-19.886-19.4,0-10.946,8.724-19.182,20.211-19.182a21.587,21.587,0,0,1,14.955,6.286l-4.985,6.069A13.729,13.729,0,0,0,523.985,172.429Z" transform="translate(-465.68 -165.005)"/>
    <path id="Контур_33" data-name="Контур 33" d="M677.145,184.785c0,11.163-8.291,18.965-20.265,18.965H641.111V165.82H657.2C668.963,165.82,677.145,173.568,677.145,184.785Zm-8.724.055c0-6.99-4.877-11.812-11.379-11.812h-7.369v23.516h7.748C663.761,196.543,668.421,191.775,668.421,184.839Z" transform="translate(-557.393 -165.549)"/>
    <path id="Контур_34" data-name="Контур 34" d="M768.395,165.82v37.93h-8.562V165.82Z" transform="translate(-636.613 -165.549)"/>
    <path id="Контур_35" data-name="Контур 35" d="M821.078,203.75l-6.015-10.837h-8.724V203.75h-8.561V165.82h16.473c9.916,0,15.551,4.768,15.551,13.167,0,5.852-2.492,10.079-7.1,12.246l8.074,12.517Zm-14.739-17.989h7.912c4.714,0,7.424-2.167,7.424-6.5,0-4.226-2.71-6.34-7.424-6.34h-7.912Z" transform="translate(-661.932 -165.549)"/>
    <path id="Контур_36" data-name="Контур 36" d="M938.051,165.82v7.1h-20.32v8.236h18.315v7.1H917.731v8.4h20.916v7.1H909.17V165.82Z" transform="translate(-736.26 -165.549)"/>
    <path id="Контур_37" data-name="Контур 37" d="M1023.619,172.429a11.678,11.678,0,0,0,0,23.354,14.635,14.635,0,0,0,9.862-4.443l5.039,5.472a22.2,22.2,0,0,1-15.335,6.773c-11.325,0-19.886-8.4-19.886-19.4,0-10.946,8.724-19.182,20.211-19.182a21.587,21.587,0,0,1,14.955,6.286l-4.985,6.069A13.73,13.73,0,0,0,1023.619,172.429Z" transform="translate(-799.071 -165.005)"/>
    <path id="Контур_38" data-name="Контур 38" d="M1148.182,165.82v7.261h-11.6v30.67h-8.561v-30.67h-11.542V165.82Z" transform="translate(-874.594 -165.549)"/>
  </g>
</svg>
