<svg xmlns="http://www.w3.org/2000/svg" width="310.633" height="71.943" viewBox="0 0 310.633 71.943">
  <g id="Сгруппировать_251" data-name="Сгруппировать 251" transform="translate(-180 -2515.164)">
    <g id="Сгруппировать_19" data-name="Сгруппировать 19" transform="translate(180 2515.164)">
      <g id="Сгруппировать_18" data-name="Сгруппировать 18">
        <path id="Контур_39" data-name="Контур 39" d="M219.188,119l9.838,17.04L199.513,119h19.675m2.946-5.1H180.556l62.409,36.08L222.134,113.9Z" transform="translate(-159.811 -113.895)" fill="#006247"/>
        <path id="Контур_40" data-name="Контур 40" d="M229.424,235.995l-9.8,16.971h-19.6l29.394-16.971m13.882-13.882h0Zm0,0-62.239,35.934H222.56l20.747-35.934Z" transform="translate(-160.152 -186.104)" fill="#006247"/>
        <path id="Контур_41" data-name="Контур 41" d="M133.809,132.877l.16,33.975-9.888-16.941,9.728-17.034m-15.6,17.061,20.772,35.872-.028-71.92Z" transform="translate(-118.208 -113.891)" fill="#006247"/>
      </g>
    </g>
    <path id="Контур_42" data-name="Контур 42" d="M439.358,179.625c0,10.948-8.78,19.348-20.379,19.348S398.6,190.627,398.6,179.625c0-11.057,8.78-19.241,20.378-19.241S439.358,168.622,439.358,179.625Zm-31.977,0a11.8,11.8,0,0,0,11.707,11.869,11.816,11.816,0,1,0-11.707-11.869Z" transform="translate(-125.305 2370.249)"/>
    <path id="Контур_43" data-name="Контур 43" d="M558.083,199.138l-6.016-10.84h-8.726v10.84h-8.564V161.2h16.476c9.918,0,15.555,4.769,15.555,13.17,0,5.853-2.493,10.081-7.1,12.249l8.076,12.52Zm-14.742-17.994h7.913c4.716,0,7.425-2.168,7.425-6.5,0-4.228-2.71-6.341-7.425-6.341h-7.913Z" transform="translate(-216.172 2369.706)"/>
    <path id="Контур_44" data-name="Контур 44" d="M665.8,191.767H648.24l-2.981,7.371h-8.834L652.9,161.2h8.834l16.205,37.939h-9.159Zm-2.764-6.883-5.962-14.742-6.016,14.742Z" transform="translate(-283.998 2369.706)"/>
    <path id="Контур_45" data-name="Контур 45" d="M778.917,167.809a11.681,11.681,0,0,0,0,23.359,14.642,14.642,0,0,0,9.864-4.444l5.04,5.474a22.21,22.21,0,0,1-15.338,6.774c-11.328,0-19.89-8.4-19.89-19.4,0-10.949,8.725-19.187,20.216-19.187a21.59,21.59,0,0,1,14.958,6.287l-4.986,6.07A13.733,13.733,0,0,0,778.917,167.809Z" transform="translate(-365.517 2370.249)"/>
    <path id="Контур_46" data-name="Контур 46" d="M885.087,161.2v30.459h16.26v7.48H876.524V161.2Z" transform="translate(-444.208 2369.706)"/>
    <path id="Контур_47" data-name="Контур 47" d="M992.069,161.2v7.1H971.744v8.238h18.319v7.1H971.744v8.4h20.921v7.1H963.181V161.2Z" transform="translate(-502.032 2369.706)"/>
  </g>
</svg>
