<svg width="14" height="3" viewBox="0 0 14 3" fill="none" xmlns="http://www.w3.org/2000/svg">
<path d="M3.42871 1.5C3.42871 2.32843 2.75714 3 1.92871 3C1.10028 3 0.428711 2.32843 0.428711 1.5C0.428711 0.671573 1.10028 0 1.92871 0C2.75714 0 3.42871 0.671573 3.42871 1.5Z" fill="#AEAEAE"/>
<path d="M8.42871 1.5C8.42871 2.32843 7.75714 3 6.92871 3C6.10028 3 5.42871 2.32843 5.42871 1.5C5.42871 0.671573 6.10028 0 6.92871 0C7.75714 0 8.42871 0.671573 8.42871 1.5Z" fill="#AEAEAE"/>
<path d="M11.9287 3C12.7571 3 13.4287 2.32843 13.4287 1.5C13.4287 0.671573 12.7571 0 11.9287 0C11.1003 0 10.4287 0.671573 10.4287 1.5C10.4287 2.32843 11.1003 3 11.9287 3Z" fill="#AEAEAE"/>
</svg>
