<svg width="14" height="15" viewBox="0 0 14 15" fill="none" xmlns="http://www.w3.org/2000/svg">
<path fill-rule="evenodd" clip-rule="evenodd" d="M2 1.5C2 0.947754 2.44775 0.5 3 0.5C3.55225 0.5 4 0.947754 4 1.5V2.5H10V1.5C10 0.947754 10.4478 0.5 11 0.5C11.5522 0.5 12 0.947754 12 1.5V2.5C12.46 2.5 12.8838 2.65527 13.2217 2.9165C13.6953 3.28223 14 3.85547 14 4.5V12.5C14 13.6045 13.1045 14.5 12 14.5H2C0.895508 14.5 0 13.6045 0 12.5V4.5C0 4.13965 0.0952148 3.80127 0.262207 3.50928C0.606934 2.90625 1.25586 2.5 2 2.5V1.5ZM2 6.5V11.5C2 12.0522 2.44775 12.5 3 12.5H11C11.1323 12.5 11.2583 12.4746 11.3735 12.4282C11.5044 12.375 11.6216 12.2954 11.7183 12.1953C11.7437 12.1689 11.7676 12.1411 11.79 12.1118C11.8228 12.0703 11.8521 12.0264 11.8774 11.98C11.9556 11.8374 12 11.6738 12 11.5V6.5H2Z" fill="#C4C4C4"/>
</svg>
