<svg width="8" height="13" viewBox="0 0 8 13" fill="none" xmlns="http://www.w3.org/2000/svg">
<path d="M7.44434 2.55494C6.73826 1.29813 5.48413 0.530293 4.0895 0.500949C4.02997 0.499684 3.97005 0.499684 3.91049 0.500949C2.51589 0.530293 1.26175 1.29813 0.555656 2.55494C-0.166074 3.83959 -0.18582 5.38272 0.502825 6.68282L3.38781 12.1294C3.38911 12.1318 3.3904 12.1342 3.39175 12.1366C3.51868 12.3642 3.74607 12.5 4.00004 12.5C4.254 12.5 4.48139 12.3641 4.60829 12.1366C4.60963 12.1342 4.61093 12.1318 4.61222 12.1294L7.49721 6.68282C8.18581 5.38272 8.16607 3.83959 7.44434 2.55494ZM4 5.93751C3.09787 5.93751 2.36394 5.1805 2.36394 4.25001C2.36394 3.31952 3.09787 2.56251 4 2.56251C4.90213 2.56251 5.63606 3.31952 5.63606 4.25001C5.63606 5.1805 4.90215 5.93751 4 5.93751Z" fill="#AEAEAE"/>
</svg>
