<svg width="25" height="25" viewBox="0 0 25 25" fill="none" xmlns="http://www.w3.org/2000/svg">
<path d="M12.5 24.5938C11.7913 24.5938 11.1275 24.3238 10.6325 23.8176L8.92251 22.1076C8.78751 21.9726 8.4275 21.8263 8.2475 21.8263H5.8175C4.355 21.8263 3.17374 20.6449 3.17374 19.1824V16.7525C3.17374 16.5725 3.02749 16.2126 2.89249 16.0776L1.1825 14.3675C0.687503 13.8725 0.40625 13.2088 0.40625 12.5C0.40625 11.7913 0.676253 11.1275 1.1825 10.6325L2.89249 8.92245C3.02749 8.78745 3.17374 8.42747 3.17374 8.24747V5.81757C3.17374 4.35507 4.355 3.17371 5.8175 3.17371H8.2475C8.4275 3.17371 8.78751 3.02746 8.92251 2.89246L10.6325 1.18244C11.6225 0.192441 13.3775 0.192441 14.3675 1.18244L16.0775 2.89246C16.2125 3.02746 16.5725 3.17371 16.7525 3.17371H19.1825C20.645 3.17371 21.8263 4.35507 21.8263 5.81757V8.24747C21.8263 8.42747 21.9725 8.78745 22.1075 8.92245L23.8175 10.6325C24.3125 11.1275 24.5938 11.7913 24.5938 12.5C24.5938 13.2088 24.3237 13.8725 23.8175 14.3675L22.1075 16.0776C21.9725 16.2126 21.8263 16.5725 21.8263 16.7525V19.1824C21.8263 20.6449 20.645 21.8263 19.1825 21.8263H16.7525C16.5725 21.8263 16.2125 21.9726 16.0775 22.1076L14.3675 23.8176C13.8725 24.3238 13.2087 24.5938 12.5 24.5938ZM4.08499 14.885C4.53499 15.335 4.86124 16.1225 4.86124 16.7525V19.1824C4.86124 19.7112 5.28875 20.1388 5.8175 20.1388H8.2475C8.8775 20.1388 9.66501 20.465 10.115 20.915L11.825 22.625C12.185 22.985 12.815 22.985 13.175 22.625L14.885 20.915C15.335 20.465 16.1225 20.1388 16.7525 20.1388H19.1825C19.7113 20.1388 20.1388 19.7112 20.1388 19.1824V16.7525C20.1388 16.1225 20.465 15.335 20.915 14.885L22.625 13.175C22.805 12.995 22.9062 12.7588 22.9062 12.5C22.9062 12.2413 22.805 12.005 22.625 11.825L20.915 10.115C20.465 9.66501 20.1388 8.87747 20.1388 8.24747V5.81757C20.1388 5.28882 19.7113 4.86121 19.1825 4.86121H16.7525C16.1225 4.86121 15.335 4.53503 14.885 4.08503L13.175 2.37501C12.815 2.01501 12.185 2.01501 11.825 2.37501L10.115 4.08503C9.66501 4.53503 8.8775 4.86121 8.2475 4.86121H5.8175C5.28875 4.86121 4.86124 5.28882 4.86124 5.81757V8.24747C4.86124 8.87747 4.53499 9.66501 4.08499 10.115L2.375 11.825C2.195 12.005 2.09375 12.2413 2.09375 12.5C2.09375 12.7588 2.195 12.995 2.375 13.175L4.08499 14.885Z" fill="#D15E4A"/>
<path d="M15.8755 17C15.2455 17 14.7393 16.4938 14.7393 15.875C14.7393 15.2562 15.2455 14.75 15.8643 14.75C16.483 14.75 16.9893 15.2562 16.9893 15.875C16.9893 16.4938 16.4943 17 15.8755 17Z" fill="#D15E4A"/>
<path d="M9.13626 10.25C8.50626 10.25 8 9.74375 8 9.125C8 8.50625 8.50625 8 9.125 8C9.74375 8 10.25 8.50625 10.25 9.125C10.25 9.74375 9.75501 10.25 9.13626 10.25Z" fill="#D15E4A"/>
<path d="M9.12512 16.7188C8.91137 16.7188 8.69762 16.6401 8.52887 16.4713C8.20262 16.1451 8.20262 15.605 8.52887 15.2787L15.2789 8.52875C15.6051 8.2025 16.1451 8.2025 16.4714 8.52875C16.7976 8.855 16.7976 9.39506 16.4714 9.72131L9.72136 16.4713C9.55261 16.6401 9.33887 16.7188 9.12512 16.7188Z" fill="#D15E4A"/>
</svg>
