<svg width="9" height="12" viewBox="0 0 9 12" fill="none" xmlns="http://www.w3.org/2000/svg">
<path d="M4.5 0C4.69891 -8.94069e-08 4.88968 0.0790175 5.03033 0.21967L8.78033 3.96967C9.07322 4.26256 9.07322 4.73744 8.78033 5.03033C8.48744 5.32322 8.01256 5.32322 7.71967 5.03033L5.25 2.56066L5.25 11.25C5.25 11.6642 4.91421 12 4.5 12C4.08578 12 3.75 11.6642 3.75 11.25L3.75 2.56066L1.28033 5.03033C0.987437 5.32322 0.512563 5.32322 0.21967 5.03033C-0.0732232 4.73744 -0.0732234 4.26256 0.21967 3.96967L3.96967 0.21967C4.11032 0.0790177 4.30109 4.47036e-08 4.5 0Z" fill="black"/>
</svg>
