<svg width="20" height="20" viewBox="0 0 20 20" fill="none" xmlns="http://www.w3.org/2000/svg">
<path fill-rule="evenodd" clip-rule="evenodd" d="M0.244078 0.244078C0.569515 -0.0813592 1.09715 -0.0813592 1.42259 0.244078L1.82747 0.648963C2.24263 1.06412 2.49843 1.61215 2.55003 2.19699L2.6503 3.33333H18.3333C18.5759 3.33333 18.8065 3.43905 18.9648 3.62287C19.1231 3.80669 19.1934 4.05037 19.1574 4.29028L18.1204 11.2042C17.9368 12.428 16.8855 13.3333 15.648 13.3333H3.53265L3.61264 14.2399C3.6506 14.6701 4.0109 15 4.44275 15H15C16.3807 15 17.5 16.1193 17.5 17.5C17.5 18.8807 16.3807 20 15 20C13.6193 20 12.5 18.8807 12.5 17.5C12.5 17.2078 12.5501 16.9273 12.6423 16.6667H6.52441C6.61654 16.9273 6.66667 17.2078 6.66667 17.5C6.66667 18.8807 5.54738 20 4.16667 20C2.78596 20 1.66667 18.8807 1.66667 17.5C1.66667 16.7827 1.96875 16.136 2.45265 15.6801C2.17548 15.3161 1.99532 14.8726 1.95243 14.3864L0.889815 2.34348C0.872614 2.14853 0.787348 1.96586 0.648963 1.82747L0.244078 1.42259C-0.0813592 1.09715 -0.0813592 0.569515 0.244078 0.244078ZM15 16.6667C14.5398 16.6667 14.1667 17.0398 14.1667 17.5C14.1667 17.9602 14.5398 18.3333 15 18.3333C15.4602 18.3333 15.8333 17.9602 15.8333 17.5C15.8333 17.0398 15.4602 16.6667 15 16.6667ZM3.38559 11.6667H15.648C16.0605 11.6667 16.4109 11.3649 16.4721 10.957L17.3657 5H2.79736L3.38559 11.6667ZM4.16667 16.6667C3.70643 16.6667 3.33333 17.0398 3.33333 17.5C3.33333 17.9602 3.70643 18.3333 4.16667 18.3333C4.6269 18.3333 5 17.9602 5 17.5C5 17.0398 4.6269 16.6667 4.16667 16.6667Z" fill="url(#paint0_linear_873_3394)"/>
<defs>
<linearGradient id="paint0_linear_873_3394" x1="1.35883" y1="0" x2="17.9509" y2="0" gradientUnits="userSpaceOnUse">
<stop stop-color="#009BDC"/>
<stop offset="1" stop-color="#3CC39D"/>
</linearGradient>
</defs>
</svg>
