<svg width="19" height="19" viewBox="0 0 19 19" fill="none" xmlns="http://www.w3.org/2000/svg">
<path d="M9.5 0C6.81309 0 4.63491 2.21911 4.63491 4.95652H3.62219C2.40299 4.95652 1.37212 5.87603 1.21099 7.10725L0.0217418 16.1942C-0.172694 17.6799 0.961772 19 2.43295 19H16.5671C18.0382 19 19.1727 17.6799 18.9783 16.1942L17.789 7.10725C17.6279 5.87603 16.597 4.95652 15.3778 4.95652H14.3651C14.3651 2.21911 12.1869 0 9.5 0ZM12.7434 4.95652H6.25661C6.25661 3.13158 7.70872 1.65217 9.5 1.65217C11.2913 1.65217 12.7434 3.13158 12.7434 4.95652ZM3.62219 6.6087H15.3778C15.7842 6.6087 16.1278 6.9152 16.1815 7.3256L17.3708 16.4126C17.4356 16.9078 17.0574 17.3478 16.5671 17.3478H2.43295C1.94256 17.3478 1.5644 16.9078 1.62921 16.4126L2.81846 7.3256C2.87217 6.9152 3.21579 6.6087 3.62219 6.6087Z" fill="black"/>
</svg>
