<svg width="22" height="22" viewBox="0 0 22 22" fill="none" xmlns="http://www.w3.org/2000/svg">
<path d="M11.0003 12.3C10.8703 12.3 10.7403 12.27 10.6203 12.2L1.79034 7.09002C1.43034 6.88002 1.31032 6.41999 1.52032 6.05999C1.73032 5.69999 2.18032 5.57997 2.55032 5.78997L11.0003 10.68L19.4003 5.82C19.7603 5.61 20.2203 5.74002 20.4303 6.09002C20.6403 6.45002 20.5103 6.90999 20.1603 7.11999L11.3903 12.2C11.2603 12.26 11.1303 12.3 11.0003 12.3Z" fill="white"/>
<path d="M11 21.36C10.59 21.36 10.25 21.02 10.25 20.61V11.54C10.25 11.13 10.59 10.79 11 10.79C11.41 10.79 11.75 11.13 11.75 11.54V20.61C11.75 21.02 11.41 21.36 11 21.36Z" fill="white"/>
<path d="M11.0006 21.75C10.1206 21.75 9.25061 21.56 8.56061 21.18L3.22061 18.21C1.77061 17.41 0.640625 15.48 0.640625 13.82V8.16998C0.640625 6.50998 1.77061 4.59002 3.22061 3.78002L8.56061 0.82C9.93061 0.06 12.0706 0.06 13.4406 0.82L18.7806 3.78997C20.2306 4.58997 21.3606 6.51999 21.3606 8.17999V13.83C21.3606 15.49 20.2306 17.41 18.7806 18.22L13.4406 21.18C12.7506 21.56 11.8806 21.75 11.0006 21.75ZM11.0006 1.74999C10.3706 1.74999 9.75062 1.88 9.29062 2.13L3.95062 5.09997C2.99062 5.63997 2.14062 7.06999 2.14062 8.17999V13.83C2.14062 14.93 2.99062 16.37 3.95062 16.91L9.29062 19.88C10.2006 20.39 11.8006 20.39 12.7106 19.88L18.0506 16.91C19.0106 16.37 19.8606 14.94 19.8606 13.83V8.17999C19.8606 7.07999 19.0106 5.63997 18.0506 5.09997L12.7106 2.13C12.2506 1.88 11.6306 1.74999 11.0006 1.74999Z" fill="white"/>
<path d="M16.0012 12.99C15.5912 12.99 15.2512 12.65 15.2512 12.24V9.02008L6.13116 3.76007C5.77116 3.55007 5.65114 3.09005 5.86114 2.74005C6.07114 2.38005 6.52116 2.26003 6.88116 2.47003L16.3712 7.95007C16.6012 8.08007 16.7512 8.33003 16.7512 8.60003V12.2601C16.7512 12.6501 16.4112 12.99 16.0012 12.99Z" fill="white"/>
</svg>
