<svg width="22" height="22" viewBox="0 0 22 22" fill="none" xmlns="http://www.w3.org/2000/svg">
<path d="M11 12.2999C10.87 12.2999 10.74 12.2699 10.62 12.1999L1.78996 7.08986C1.43996 6.87986 1.30996 6.41986 1.51996 6.05986C1.72996 5.69986 2.18996 5.57986 2.54996 5.78986L11 10.6799L19.4 5.81986C19.76 5.60986 20.22 5.73986 20.43 6.08986C20.64 6.44986 20.51 6.90986 20.16 7.11986L11.39 12.1999C11.26 12.2599 11.13 12.2999 11 12.2999Z" fill="#292D32"/>
<path d="M11 21.36C10.59 21.36 10.25 21.02 10.25 20.61V11.54C10.25 11.13 10.59 10.79 11 10.79C11.41 10.79 11.75 11.13 11.75 11.54V20.61C11.75 21.02 11.41 21.36 11 21.36Z" fill="#292D32"/>
<path d="M11 21.75C10.12 21.75 9.25002 21.56 8.56002 21.18L3.22001 18.21C1.77001 17.41 0.640015 15.48 0.640015 13.82V8.17C0.640015 6.51 1.77001 4.59 3.22001 3.78L8.56002 0.82C9.93002 0.06 12.07 0.06 13.44 0.82L18.78 3.79C20.23 4.59 21.36 6.52 21.36 8.18V13.83C21.36 15.49 20.23 17.41 18.78 18.22L13.44 21.18C12.75 21.56 11.88 21.75 11 21.75ZM11 1.75C10.37 1.75 9.75001 1.88 9.29001 2.13L3.95001 5.1C2.99001 5.63 2.14001 7.07 2.14001 8.17V13.82C2.14001 14.92 2.99001 16.36 3.95001 16.9L9.29001 19.87C10.2 20.38 11.8 20.38 12.71 19.87L18.05 16.9C19.01 16.36 19.86 14.93 19.86 13.82V8.17C19.86 7.07 19.01 5.63 18.05 5.09L12.71 2.12C12.25 1.88 11.63 1.75 11 1.75Z" fill="#292D32"/>
</svg>
