<svg width="15" height="15" viewBox="0 0 15 15" fill="none" xmlns="http://www.w3.org/2000/svg">
<path d="M2.19374 14.2126C1.83749 14.2126 1.48124 14.0813 1.19999 13.8C0.656238 13.2563 0.656238 12.3563 1.19999 11.8126L11.8125 1.20005C12.3562 0.656299 13.2562 0.656299 13.8 1.20005C14.3437 1.7438 14.3437 2.6438 13.8 3.18755L3.18749 13.8C2.92499 14.0813 2.54999 14.2126 2.19374 14.2126Z" fill="#010101"/>
<path d="M12.8062 14.2126C12.45 14.2126 12.0937 14.0813 11.8125 13.8L1.19999 3.18755C0.656238 2.6438 0.656238 1.7438 1.19999 1.20005C1.74374 0.656299 2.64374 0.656299 3.18749 1.20005L13.8 11.8126C14.3437 12.3563 14.3437 13.2563 13.8 13.8C13.5187 14.0813 13.1625 14.2126 12.8062 14.2126Z" fill="#010101"/>
</svg>
