<svg width="108" height="108" viewBox="0 0 108 108" fill="none" xmlns="http://www.w3.org/2000/svg">
<path d="M47.8002 75.85C45.7002 75.85 43.7502 75.35 42.0002 74.35C38.0002 72.05 35.7002 67.35 35.7002 61.4V46.6C35.7002 40.7 38.0002 35.95 42.0002 33.65C46.0002 31.35 51.2002 31.7 56.3502 34.7L69.2002 42.1C74.3002 45.05 77.2502 49.4 77.2502 54C77.2502 58.6 74.3002 62.95 69.2002 65.9L56.3502 73.3C53.4502 75 50.5002 75.85 47.8002 75.85ZM47.8502 39.65C47.0502 39.65 46.3502 39.8 45.8002 40.15C44.2002 41.1 43.2502 43.45 43.2502 46.6V61.4C43.2502 64.55 44.1502 66.9 45.8002 67.85C47.4002 68.8 49.9002 68.4 52.6502 66.8L65.5002 59.4C68.2502 57.8 69.8002 55.85 69.8002 54C69.8002 52.15 68.2502 50.15 65.5002 48.6L52.6502 41.2C50.8502 40.15 49.2002 39.65 47.8502 39.65Z" fill="white"/>
<path d="M54 107.75C24.35 107.75 0.25 83.65 0.25 54C0.25 24.35 24.35 0.25 54 0.25C83.65 0.25 107.75 24.35 107.75 54C107.75 83.65 83.65 107.75 54 107.75ZM54 7.75C28.5 7.75 7.75 28.5 7.75 54C7.75 79.5 28.5 100.25 54 100.25C79.5 100.25 100.25 79.5 100.25 54C100.25 28.5 79.5 7.75 54 7.75Z" fill="white"/>
</svg>
