<svg width="59" height="59" viewBox="0 0 59 59" fill="none" xmlns="http://www.w3.org/2000/svg">
<path d="M29.5003 55.9269C14.9224 55.9269 3.07324 44.0778 3.07324 29.4998C3.07324 14.9219 14.9224 3.07275 29.5003 3.07275C44.0782 3.07275 55.9274 14.9219 55.9274 29.4998C55.9274 44.0778 44.0782 55.9269 29.5003 55.9269ZM29.5003 6.76025C16.9628 6.76025 6.76074 16.9623 6.76074 29.4998C6.76074 42.0373 16.9628 52.2394 29.5003 52.2394C42.0378 52.2394 52.2399 42.0373 52.2399 29.4998C52.2399 16.9623 42.0378 6.76025 29.5003 6.76025Z" fill="#C7C7C7"/>
<path d="M22.5427 38.3006C22.0756 38.3006 21.6085 38.1285 21.2398 37.7598C20.5268 37.0468 20.5268 35.8668 21.2398 35.1539L35.1539 21.2398C35.8669 20.5268 37.0469 20.5268 37.7598 21.2398C38.4727 21.9527 38.4727 23.1327 37.7598 23.8456L23.8456 37.7598C23.5014 38.1285 23.0098 38.3006 22.5427 38.3006Z" fill="#C7C7C7"/>
<path d="M36.4569 38.3006C35.9898 38.3006 35.5227 38.1285 35.1539 37.7598L21.2398 23.8456C20.5268 23.1327 20.5268 21.9527 21.2398 21.2398C21.9527 20.5268 23.1327 20.5268 23.8456 21.2398L37.7598 35.1539C38.4727 35.8668 38.4727 37.0468 37.7598 37.7598C37.391 38.1285 36.9239 38.3006 36.4569 38.3006Z" fill="#C7C7C7"/>
</svg>
