<svg width="28" height="28" viewBox="0 0 28 28" fill="none" xmlns="http://www.w3.org/2000/svg">
<path d="M12.4498 19.4624C11.9248 19.4624 11.4373 19.3374 10.9998 19.0874C9.9998 18.5124 9.4248 17.3374 9.4248 15.8499V12.1499C9.4248 10.6749 9.9998 9.48738 10.9998 8.91238C11.9998 8.33738 13.2998 8.42488 14.5873 9.17488L17.7998 11.0249C19.0748 11.7624 19.8123 12.8499 19.8123 13.9999C19.8123 15.1499 19.0748 16.2374 17.7998 16.9749L14.5873 18.8249C13.8623 19.2499 13.1248 19.4624 12.4498 19.4624ZM12.4623 10.4124C12.2623 10.4124 12.0873 10.4499 11.9498 10.5374C11.5498 10.7749 11.3123 11.3624 11.3123 12.1499V15.8499C11.3123 16.6374 11.5373 17.2249 11.9498 17.4624C12.3498 17.6999 12.9748 17.5999 13.6623 17.1999L16.8748 15.3499C17.5623 14.9499 17.9498 14.4624 17.9498 13.9999C17.9498 13.5374 17.5623 13.0374 16.8748 12.6499L13.6623 10.7999C13.2123 10.5374 12.7998 10.4124 12.4623 10.4124Z" fill="white"/>
<path d="M14 27.4375C6.5875 27.4375 0.5625 21.4125 0.5625 14C0.5625 6.5875 6.5875 0.5625 14 0.5625C21.4125 0.5625 27.4375 6.5875 27.4375 14C27.4375 21.4125 21.4125 27.4375 14 27.4375ZM14 2.4375C7.625 2.4375 2.4375 7.625 2.4375 14C2.4375 20.375 7.625 25.5625 14 25.5625C20.375 25.5625 25.5625 20.375 25.5625 14C25.5625 7.625 20.375 2.4375 14 2.4375Z" fill="white"/>
</svg>
