<svg width="40" height="40" viewBox="0 0 40 40" fill="none" xmlns="http://www.w3.org/2000/svg">
<path d="M4.25 20C4.25 11.3015 11.3015 4.25 20 4.25C28.6985 4.25 35.75 11.3015 35.75 20C35.75 28.6985 28.6985 35.75 20 35.75C11.3015 35.75 4.25 28.6985 4.25 20ZM20 0.75C9.36852 0.75 0.75 9.36852 0.75 20C0.75 30.6315 9.36852 39.25 20 39.25C30.6315 39.25 39.25 30.6315 39.25 20C39.25 9.36852 30.6315 0.75 20 0.75ZM18.3922 13.2265C17.2339 12.3992 15.625 13.2272 15.625 14.6506V25.3494C15.625 26.7728 17.2339 27.6008 18.3922 26.7735L25.8814 21.424C26.8585 20.7261 26.8585 19.2739 25.8814 18.576L18.3922 13.2265Z" fill="url(#paint0_linear_873_1854)"/>
<defs>
<linearGradient id="paint0_linear_873_1854" x1="3.47948" y1="0.75" x2="36.8078" y2="0.75" gradientUnits="userSpaceOnUse">
<stop stop-color="#009BDC"/>
<stop offset="1" stop-color="#3CC39D"/>
</linearGradient>
</defs>
</svg>
