<svg width="22" height="22" viewBox="0 0 22 22" fill="none" xmlns="http://www.w3.org/2000/svg">
<path d="M11 2C6.02944 2 2 6.02944 2 11C2 15.9706 6.02944 20 11 20C15.9706 20 20 15.9706 20 11C20 6.02944 15.9706 2 11 2ZM0 11C0 4.92487 4.92487 0 11 0C17.0751 0 22 4.92487 22 11C22 17.0751 17.0751 22 11 22C4.92487 22 0 17.0751 0 11ZM16.6569 5.34314C16.9397 5.626 17.0268 6.05022 16.8782 6.42164L14.0498 13.4927C13.9482 13.7468 13.7468 13.9481 13.4927 14.0498L6.42165 16.8782C6.05023 17.0268 5.62601 16.9397 5.34315 16.6568C5.06029 16.374 4.97321 15.9498 5.12178 15.5783L7.95021 8.50728C8.05185 8.25318 8.25319 8.05184 8.50729 7.9502L15.5784 5.12177C15.9498 4.9732 16.374 5.06028 16.6569 5.34314ZM9.64799 9.64798L7.84531 14.1547L12.352 12.352L14.1547 7.8453L9.64799 9.64798ZM10.2929 11.7071C10.6834 12.0976 11.3166 12.0976 11.7071 11.7071C12.0976 11.3166 12.0976 10.6834 11.7071 10.2929C11.3166 9.90237 10.6834 9.90237 10.2929 10.2929C9.90237 10.6834 9.90237 11.3166 10.2929 11.7071Z" fill="url(#paint0_linear_1437_43)"/>
<defs>
<linearGradient id="paint0_linear_1437_43" x1="0.697183" y1="0" x2="17.4296" y2="0" gradientUnits="userSpaceOnUse">
<stop stop-color="#009FDF"/>
<stop offset="1" stop-color="#3CC39D"/>
</linearGradient>
</defs>
</svg>
