<svg width="25" height="25" viewBox="0 0 25 25" fill="none" xmlns="http://www.w3.org/2000/svg">
<path d="M5.9892 6.05615H7.12534C7.54323 6.05615 7.88277 5.78681 7.88277 5.45707V0.599086C7.88277 0.267711 7.54323 0 7.12534 0H5.9892C5.57294 0 5.2334 0.267711 5.2334 0.599086V5.45707C5.23177 5.78681 5.57131 6.05615 5.9892 6.05615Z" fill="#C3C3C3"/>
<path d="M17.8744 6.05615H19.0106C19.4285 6.05615 19.768 5.78681 19.768 5.45707V0.599086C19.768 0.267711 19.4285 0 19.0106 0H17.8744C17.4566 0 17.1187 0.267711 17.1187 0.599086V5.45707C17.1187 5.78681 17.4566 6.05615 17.8744 6.05615Z" fill="#C3C3C3"/>
<path d="M23.689 2.31799H20.6756V6.03657C20.6756 6.86745 19.928 7.54326 19.0089 7.54326H17.8728C16.9538 7.54326 16.2061 6.86745 16.2061 6.03657V2.31799H8.78857V6.03657C8.78857 6.86745 8.04094 7.54326 7.1219 7.54326H5.98903C5.07163 7.54326 4.32399 6.86745 4.32399 6.03657V2.31799H1.31061C0.809464 2.31799 0.401367 2.72609 0.401367 3.22723V24.094C0.401367 24.5952 0.809464 25 1.31061 25H23.689C24.1918 25 24.5982 24.5952 24.5982 24.094V3.22723C24.5982 2.72609 24.1918 2.31799 23.689 2.31799ZM23.369 15.4914V22.5906C23.369 22.7473 23.2417 22.8779 23.0834 22.8779H12.1725H1.91622C1.75788 22.8779 1.63055 22.7473 1.63055 22.5906V16.8299V9.73066C1.63055 9.57395 1.75788 9.44336 1.91622 9.44336H12.8255H23.0834C23.2417 9.44336 23.369 9.57395 23.369 9.73066V15.4914Z" fill="#C3C3C3"/>
<path d="M6.63053 14.5773H3.79834V17.4111H6.63053V14.5773Z" fill="#C3C3C3"/>
<path d="M11.4508 14.5773H8.61865V17.4111H11.4508V14.5773Z" fill="#C3C3C3"/>
<path d="M16.2226 14.5773H13.3921V17.4111H16.2226V14.5773Z" fill="#C3C3C3"/>
<path d="M21.0448 14.5773H18.2109V17.4111H21.0448V14.5773Z" fill="#C3C3C3"/>
<path d="M6.69076 18.6615H3.85693V21.4953H6.69076V18.6615Z" fill="#C3C3C3"/>
<path d="M11.5114 18.6615H8.6792V21.4953H11.5114V18.6615Z" fill="#C3C3C3"/>
<path d="M16.2827 18.6615H13.4521V21.4953H16.2827V18.6615Z" fill="#C3C3C3"/>
<path d="M21.1051 18.6615H18.2729V21.4953H21.1051V18.6615Z" fill="#C3C3C3"/>
<path d="M16.2419 10.5615H13.4097V13.3937H16.2419V10.5615Z" fill="#C3C3C3"/>
<path d="M21.064 10.5615H18.2334V13.3937H21.064V10.5615Z" fill="#C3C3C3"/>
</svg>
