<svg width="17" height="20" viewBox="0 0 17 20" fill="none" xmlns="http://www.w3.org/2000/svg">
<path d="M8.33333 1C4.28324 1 1 4.43248 1 8.66667V8.98043C1 10.5958 1.48773 12.1607 2.38085 13.4583H2.375L2.39607 13.4804C2.5786 13.7435 2.77787 13.9957 2.9932 14.2349C3.31767 14.5953 8.33333 18.7292 8.33333 18.7292C9.06529 18.3394 13.0762 14.8983 13.6735 14.2349C13.8911 13.9932 14.0922 13.7383 14.2764 13.472L14.2917 13.4583H14.2858C15.1789 12.1607 15.6667 10.5958 15.6667 8.98043V8.66667C15.6667 4.43248 12.3834 1 8.33333 1Z" stroke="#1B1B1B" stroke-width="1.5" stroke-linejoin="round"/>
<path d="M11.3118 8.66683C11.3118 6.94669 9.97803 5.55225 8.33268 5.55225C6.68733 5.55225 5.35352 6.94669 5.35352 8.66683C5.35352 10.387 6.68733 11.7814 8.33268 11.7814C9.97803 11.7814 11.3118 10.387 11.3118 8.66683Z" stroke="#1B1B1B" stroke-width="1.5"/>
</svg>
