<svg width="16" height="17" viewBox="0 0 16 17" fill="none" xmlns="http://www.w3.org/2000/svg">
<path fill-rule="evenodd" clip-rule="evenodd" d="M11.6402 2.51985H11.4322C11.4322 1.12837 10.2882 0 8.8322 0H7.1682C5.7122 0 4.5682 1.12837 4.5682 2.51985H3.9442H3.6322H1.1362C0.616195 2.51985 0.200195 2.89631 0.200195 3.3598C0.200195 3.8243 0.616195 4.19975 1.1362 4.19975H1.9682V14.2802C1.9682 15.6716 3.1122 16.8 4.5682 16.8H11.4322C12.8882 16.8 14.0322 15.6716 14.0322 14.2802V4.19975H14.8642C15.3842 4.19975 15.8002 3.8243 15.8002 3.3598C15.8002 2.89631 15.3842 2.51985 14.8642 2.51985H12.3682H12.2642H11.6402ZM12.2641 4.19976H10.6001H9.76812H6.23212H5.40012H3.63211V5.87966V14.2802C3.63211 14.7437 4.04811 15.1201 4.56811 15.1201H11.4321C11.9521 15.1201 12.2641 14.7437 12.2641 14.2802V5.87966V4.19976ZM6.232 2.51989H7.168H8H8.832H9.768C9.768 2.0564 9.352 1.67994 8.832 1.67994H7.168C6.648 1.67994 6.232 2.0564 6.232 2.51989ZM6.23239 5.87965C6.75239 5.87965 7.16839 6.25611 7.16839 6.7196V12.6003C7.16839 13.0637 6.75239 13.4402 6.23239 13.4402C5.81639 13.4402 5.40039 13.0637 5.40039 12.6003V6.7196C5.40039 6.25611 5.81639 5.87965 6.23239 5.87965ZM10.5999 6.7196C10.5999 6.25611 10.1839 5.87965 9.76789 5.87965C9.24789 5.87965 8.83189 6.25611 8.83189 6.7196V12.6003C8.83189 13.0637 9.24789 13.4402 9.76789 13.4402C10.1839 13.4402 10.5999 13.0637 10.5999 12.6003V6.7196Z" fill="#C7C7C7"/>
</svg>
