<svg width="20" height="26" viewBox="0 0 20 26" fill="none" xmlns="http://www.w3.org/2000/svg">
<path d="M4.54546 13.6364C4.54546 13.1346 4.95455 12.7273 5.45455 12.7273H12.7273C13.2273 12.7273 13.6364 13.1346 13.6364 13.6364C13.6364 14.1382 13.2273 14.5455 12.7273 14.5455H5.45455C4.95455 14.5455 4.54546 14.1382 4.54546 13.6364Z" fill="white"/>
<path d="M5.45455 17.2727C4.95455 17.2727 4.54546 17.6818 4.54546 18.1818C4.54546 18.6818 4.95455 19.0909 5.45455 19.0909H9.09091C9.59091 19.0909 10 18.6818 10 18.1818C10 17.6818 9.59091 17.2727 9.09091 17.2727H5.45455Z" fill="white"/>
<path fill-rule="evenodd" clip-rule="evenodd" d="M10 0C8.96364 0 8.07272 0.575431 7.60909 1.41907C7.51818 1.57725 7.42723 1.69636 7.34541 1.76636C7.29996 1.80272 7.27272 1.81455 7.26363 1.81818H5.45455C4.76364 1.81818 4.15454 2.20726 3.85454 2.77998C1.67272 3.11453 0 4.99909 0 7.27273V20.9091C0 23.4182 2.03636 25.4545 4.54545 25.4545H15.4545C17.9636 25.4545 20 23.4182 20 20.9091V7.27273C20 4.99909 18.3273 3.11453 16.1455 2.77998C15.8455 2.20726 15.2364 1.81818 14.5455 1.81818H12.7364C12.7273 1.81455 12.7 1.80272 12.6546 1.76636C12.5728 1.69636 12.4818 1.57725 12.3909 1.41907C11.9273 0.575431 11.0364 0 10 0ZM9.2 2.29181C9.35454 2.00727 9.65455 1.81818 10 1.81818C10.3455 1.81818 10.6455 2.00727 10.8 2.29181C10.9545 2.57363 11.1727 2.89091 11.4727 3.14636C11.7727 3.40636 12.2 3.63636 12.7273 3.63636H14.5455V5.45455H5.45455V3.63636H7.27273C7.8 3.63636 8.22728 3.40636 8.52728 3.14636C8.82728 2.89091 9.04545 2.57363 9.2 2.29181ZM16.3636 4.70093V5.45455C16.3636 6.45909 15.5455 7.27273 14.5455 7.27273H5.45455C4.45455 7.27273 3.63636 6.45909 3.63636 5.45455V4.70093C2.57273 5.07547 1.81818 6.08545 1.81818 7.27273V20.9091C1.81818 22.4182 3.03636 23.6364 4.54545 23.6364H15.4545C16.9636 23.6364 18.1818 22.4182 18.1818 20.9091V7.27273C18.1818 6.08545 17.4273 5.07547 16.3636 4.70093Z" fill="white"/>
</svg>
