<svg width="31" height="31" viewBox="0 0 31 31" fill="none" xmlns="http://www.w3.org/2000/svg">
<path d="M15.5 0C6.95795 0 0 6.95795 0 15.5C0 24.0421 6.95795 31 15.5 31C24.0421 31 31 24.0421 31 15.5C31 6.95795 24.0421 0 15.5 0ZM15.5 3.1C22.3667 3.1 27.9 8.63331 27.9 15.5C27.9 21.7224 23.3512 26.8352 17.3891 27.7426V19.1964H20.9977L21.5638 15.5303H17.3891V13.5262C17.3891 12.0025 17.8854 10.6502 19.3114 10.6502H21.6001V7.45029C21.1971 7.39604 20.3466 7.27773 18.7393 7.27773C15.382 7.27773 13.4142 9.05093 13.4142 13.0902V15.5303H9.96299V19.1964H13.4142V27.7123C7.54895 26.7233 3.1 21.6539 3.1 15.5C3.1 8.63331 8.63331 3.1 15.5 3.1Z" fill="white"/>
</svg>
