<?xml version="1.0" encoding="utf-8"?>
<!-- Generator: Adobe Illustrator 22.0.1, SVG Export Plug-In . SVG Version: 6.00 Build 0)  -->
<svg version="1.1" id="Слой_1" xmlns="http://www.w3.org/2000/svg" xmlns:xlink="http://www.w3.org/1999/xlink" x="0px" y="0px"
	 viewBox="0 0 347 128" style="enable-background:new 0 0 347 128;" xml:space="preserve">
<style type="text/css">
	.st0{fill:none;stroke:#000000;stroke-miterlimit:10;}
	.st1{fill:#FFFFFF;stroke:#000000;stroke-width:0.75;stroke-miterlimit:10;}
	.st2{fill:#FFFFFF;stroke:#000000;stroke-miterlimit:10;}
	.st3{fill:#FFFFFF;}
	.st4{clip-path:url(#SVGID_1_);}
	.st5{fill:none;stroke:#000000;stroke-width:0.5;stroke-miterlimit:10;}
</style>
<g>
	<path class="st0" d="M345,107.3c1.5,0.5,1.3,5.4-0.4,11c-1.8,5.6-4.4,9.7-5.9,9.2l-12.3-3.9l2.7-8.6l1-3.1l2.7-8.6L345,107.3z"/>
	
		<ellipse transform="matrix(0.3003 -0.9538 0.9538 0.3003 122.2658 393.747)" class="st1" cx="329.5" cy="113.5" rx="10.6" ry="2.9"/>
	<path class="st2" d="M292.4,93.1l8.9,2.8c-0.2-0.1-0.5,0-0.8,0.1l6.2,2c-1.4-0.4-3.6,2.8-5,7.2c-1.4,4.4-1.4,8.3,0,8.8l-8.9-2.8
		c-0.2-0.1-0.4-0.3-0.6-0.5l-4.8-1.5c-1.4-0.4-1.4-4.4,0-8.8C288.7,95.9,291,92.6,292.4,93.1z"/>
	
		<ellipse transform="matrix(0.3003 -0.9538 0.9538 0.3003 121.2865 390.8677)" class="st1" cx="327.1" cy="112.8" rx="4.8" ry="1.6"/>
	<polyline class="st0" points="286.4,104.7 292,106.4 294.9,97.2 289.4,95.5 	"/>
	<path class="st2" d="M301.8,96.4l1.5,0.5c-0.2-0.3-0.3-0.4-0.6-0.5l8.9,2.8c1.4,0.4,1.4,4.4,0,8.8c-1.4,4.4-3.6,7.6-5,7.2l-4.8-1.5
		c-0.3,0.1-0.5,0.2-0.8,0.1l-4.5-1.4C300.2,107.8,302.4,101.8,301.8,96.4z"/>
	<polyline class="st0" points="309.9,112.1 304.3,110.3 307.2,101.1 312.6,102.8 	"/>
	<path class="st0" d="M7.4,1c-1.5-0.5-4.2,3.7-5.9,9.2c-1.8,5.6-2,10.5-0.4,11l12.3,3.9l2.7-8.6l1-3.1l2.7-8.6L7.4,1z"/>
	<ellipse transform="matrix(0.3003 -0.9538 0.9538 0.3003 -2.7404 26.1984)" class="st1" cx="16.5" cy="15" rx="10.6" ry="2.9"/>
	<path class="st2" d="M57.4,19.1l-8.9-2.8c0.2,0.1,0.4,0.3,0.6,0.5l-6.2-2c1.4,0.4,1.4,4.4,0,8.8c-1.4,4.4-3.6,7.6-5,7.2l8.9,2.8
		c0.2,0.1,0.5,0,0.8-0.1l4.8,1.5c1.4,0.4,3.6-2.8,5-7.2C58.8,23.5,58.8,19.5,57.4,19.1z"/>
	<rect x="31" y="19.2" transform="matrix(0.9538 0.3003 -0.3003 0.9538 7.629 -9.0792)" class="st3" width="4.6" height="2.1"/>
	<ellipse transform="matrix(0.3003 -0.9538 0.9538 0.3003 -1.7611 29.0778)" class="st1" cx="18.9" cy="15.7" rx="4.8" ry="1.6"/>
	<rect x="18.8" y="15.4" transform="matrix(0.9538 0.3003 -0.3003 0.9538 5.9034 -5.5749)" class="st3" width="4.6" height="2.1"/>
	<polyline class="st0" points="55.7,32 50.1,30.3 53,21.1 58.4,22.8 	"/>
	<path class="st2" d="M47.8,16.4l-1.5-0.5c0.3-0.1,0.5-0.2,0.8-0.1L38.2,13c-1.4-0.4-3.6,2.8-5,7.2c-1.4,4.4-1.4,8.3,0,8.8l4.8,1.5
		c0.2,0.3,0.3,0.4,0.6,0.5l4.5,1.4C42.6,26.7,44.2,20.5,47.8,16.4z"/>
	<polyline class="st0" points="32.2,24.6 37.8,26.4 40.7,17.2 35.2,15.5 	"/>
	<line class="st1" x1="18.6" y1="17" x2="326.9" y2="114.1"/>
	<line class="st1" x1="19.3" y1="14.5" x2="327.7" y2="111.6"/>
	<rect x="45.4" y="21.1" transform="matrix(0.9538 0.3003 -0.3003 0.9538 9.8304 -13.3289)" class="st3" width="5.8" height="8.4"/>
	<path class="st2" d="M46.3,24.4c1.6-5.1,4-8.8,5.4-8.4l-8.9-2.8c-1.4-0.4-3.8,3.3-5.4,8.4c-1.6,5.1-1.8,9.5-0.4,10l8.9,2.8
		C44.6,33.9,44.7,29.4,46.3,24.4z"/>
	
		<rect x="323.8" y="111.4" transform="matrix(-0.9538 -0.3003 0.3003 -0.9538 603.4694 317.7045)" class="st3" width="4.6" height="2.1"/>
	
		<rect x="311.6" y="107.6" transform="matrix(-0.9538 -0.3003 0.3003 -0.9538 580.6719 306.4786)" class="st3" width="4.6" height="2.1"/>
	<g>
		<path class="st1" d="M222.7,76.9l2.9,1.2c0,0,0.8,3.3-1.4,4.6l-4.6-1.1C219.6,81.5,219.1,75.8,222.7,76.9z"/>
		<path class="st1" d="M219.4,74.3l2.9,1.3c0,0,0.4,4.7-2.2,7l-4.7-1C215.4,81.6,215.7,73.3,219.4,74.3z"/>
		<path class="st1" d="M214.8,71.5l3.1,1.5c0,0,0.1,6.1-2.9,9.2l-5.1-0.9C210,81.3,210.8,70.5,214.8,71.5z"/>
		<path class="st1" d="M124.1,45.8l-3.1-0.7c0,0-2.5,2.2-1.4,4.6l4.4,1.7C124,51.4,127.6,47,124.1,45.8z"/>
		<path class="st1" d="M128.3,45.6l-3.2-0.6c0,0-3,3.7-2.2,7l4.4,1.9C127.3,53.9,131.8,46.9,128.3,45.6z"/>
		<path class="st1" d="M133.6,46l-3.4-0.6c0,0-3.6,4.9-2.9,9.2l4.7,2.2C132,56.7,137.4,47.4,133.6,46z"/>
		<path class="st1" d="M210.8,82.2c0,0,5-5.2,3.7-11.6l0.1,0c-48.7-18.7-79.7-25.1-79.7-25.1c-4.8,4.6-3.7,11.6-3.7,11.6l0.6,0.2
			l-0.6-0.1c0,0,29.1,12.5,79.7,25.1l-0.8-0.4L210.8,82.2z"/>
		<g>
			<defs>
				<path id="SVGID_3_" d="M210.8,82.2c0,0,5-5.2,3.7-11.6l0.1,0c-48.7-18.7-79.7-25.1-79.7-25.1c-4.8,4.6-3.7,11.6-3.7,11.6
					l0.6,0.2l-0.6-0.1c0,0,29.1,12.5,79.7,25.1l-0.8-0.4L210.8,82.2z"/>
			</defs>
			<clipPath id="SVGID_1_">
				<use xlink:href="#SVGID_3_"  style="overflow:visible;"/>
			</clipPath>
			<g class="st4">
				<line class="st5" x1="187.9" y1="30.6" x2="140.1" y2="93.8"/>
				<line class="st5" x1="190.4" y1="31.2" x2="142.6" y2="94.5"/>
				<line class="st5" x1="192.9" y1="31.8" x2="145.1" y2="95.1"/>
				<line class="st5" x1="179.7" y1="29.6" x2="131.9" y2="92.9"/>
				<line class="st5" x1="182.2" y1="30.2" x2="134.3" y2="93.5"/>
				<line class="st5" x1="184.7" y1="30.9" x2="136.8" y2="94.1"/>
				<line class="st5" x1="171.5" y1="28.6" x2="123.6" y2="91.9"/>
				<line class="st5" x1="173.9" y1="29.2" x2="126.1" y2="92.5"/>
				<line class="st5" x1="176.4" y1="29.9" x2="128.6" y2="93.1"/>
				<line class="st5" x1="163.2" y1="27.6" x2="115.4" y2="90.9"/>
				<line class="st5" x1="165.7" y1="28.3" x2="117.9" y2="91.5"/>
				<line class="st5" x1="168.2" y1="28.9" x2="120.4" y2="92.1"/>
				<line class="st5" x1="155" y1="26.7" x2="107.2" y2="89.9"/>
				<line class="st5" x1="157.5" y1="27.3" x2="109.7" y2="90.5"/>
				<line class="st5" x1="160" y1="27.9" x2="112.2" y2="91.1"/>
				<line class="st5" x1="146.8" y1="25.7" x2="99" y2="88.9"/>
				<line class="st5" x1="149.3" y1="26.3" x2="101.5" y2="89.5"/>
				<line class="st5" x1="151.8" y1="26.9" x2="104" y2="90.2"/>
				<line class="st5" x1="235" y1="39.1" x2="187.1" y2="102.4"/>
				<line class="st5" x1="237.5" y1="39.7" x2="189.6" y2="103"/>
				<line class="st5" x1="245.4" y1="37.5" x2="197.6" y2="100.7"/>
				<line class="st5" x1="239.9" y1="40.4" x2="192.1" y2="103.6"/>
				<line class="st5" x1="226.7" y1="38.1" x2="178.9" y2="101.4"/>
				<line class="st5" x1="229.2" y1="38.8" x2="181.4" y2="102"/>
				<line class="st5" x1="231.7" y1="39.4" x2="183.9" y2="102.6"/>
				<line class="st5" x1="218.5" y1="37.2" x2="170.7" y2="100.4"/>
				<line class="st5" x1="221" y1="37.8" x2="173.2" y2="101"/>
				<line class="st5" x1="223.5" y1="38.4" x2="175.7" y2="101.6"/>
				<line class="st5" x1="210.3" y1="36.2" x2="162.5" y2="99.4"/>
				<line class="st5" x1="212.8" y1="36.8" x2="165" y2="100"/>
				<line class="st5" x1="215.3" y1="37.4" x2="167.5" y2="100.6"/>
				<line class="st5" x1="202.1" y1="35.2" x2="154.3" y2="98.4"/>
				<line class="st5" x1="204.6" y1="35.8" x2="156.8" y2="99"/>
				<line class="st5" x1="207.1" y1="36.4" x2="159.3" y2="99.7"/>
				<line class="st5" x1="193.9" y1="34.2" x2="146.1" y2="97.4"/>
				<line class="st5" x1="196.4" y1="34.8" x2="148.5" y2="98.1"/>
				<line class="st5" x1="198.9" y1="35.4" x2="151" y2="98.7"/>
			</g>
		</g>
	</g>
	
		<rect x="293.4" y="99.2" transform="matrix(-0.9538 -0.3003 0.3003 -0.9538 547.9048 291.0517)" class="st3" width="5.8" height="8.4"/>
	<path class="st2" d="M298.5,103.7c1.6-5.1,1.8-9.5,0.4-10l8.9,2.8c1.4,0.4,1.2,4.9-0.4,10c-1.6,5.1-4,8.8-5.4,8.4l-8.9-2.8
		C294.4,112.6,296.9,108.8,298.5,103.7z"/>
</g>
</svg>
