<?xml version="1.0" encoding="utf-8"?>
<!-- Generator: Adobe Illustrator 22.0.1, SVG Export Plug-In . SVG Version: 6.00 Build 0)  -->
<svg version="1.1" id="Слой_1" xmlns="http://www.w3.org/2000/svg" xmlns:xlink="http://www.w3.org/1999/xlink" x="0px" y="0px"
	 viewBox="0 0 147 65" style="enable-background:new 0 0 147 65;" xml:space="preserve">
<style type="text/css">
	.st0{fill:#FFFFFF;stroke:#000000;stroke-width:0.75;stroke-miterlimit:10;}
	.st1{clip-path:url(#SVGID_2_);}
	.st2{fill:none;stroke:#000000;stroke-width:0.5;stroke-miterlimit:10;}
	.st3{fill:none;stroke:#000000;stroke-width:0.75;stroke-miterlimit:10;}
</style>
<g>
	<path class="st0" d="M139.6,39.3C139.6,39.3,139.6,39.3,139.6,39.3l3.1-0.8c5.7-2.3,2-7.7,2-7.7c-16-32-38.3-29.6-38.3-29.6
		L18,19.4c0,0-13.9,1.7-16.8,22.1c0,0,0,2.9,3.8,4.6l35.1,17.1c0,0,3.5,1.5,6.4,0L139.6,39.3C139.6,39.3,139.6,39.3,139.6,39.3z"/>
	<g>
		<defs>
			<path id="SVGID_1_" d="M139.6,39.3C139.6,39.3,139.6,39.3,139.6,39.3l3.1-0.8c5.7-2.3,2-7.7,2-7.7c-16-32-38.3-29.6-38.3-29.6
				L18,19.4c0,0-13.9,1.7-16.8,22.1c0,0,0,2.9,3.8,4.6l35.1,17.1c0,0,3.5,1.5,6.4,0L139.6,39.3C139.6,39.3,139.6,39.3,139.6,39.3z"
				/>
		</defs>
		<clipPath id="SVGID_2_">
			<use xlink:href="#SVGID_1_"  style="overflow:visible;"/>
		</clipPath>
		<g class="st1">
			<line class="st2" x1="72.3" y1="-13.5" x2="37.4" y2="84.4"/>
			<line class="st2" x1="75.6" y1="-13.7" x2="40.7" y2="84.2"/>
			<line class="st2" x1="79" y1="-13.9" x2="44.1" y2="84"/>
			<line class="st2" x1="61.6" y1="-11.5" x2="26.7" y2="86.4"/>
			<line class="st2" x1="65" y1="-11.7" x2="30.1" y2="86.2"/>
			<line class="st2" x1="68.3" y1="-11.9" x2="33.4" y2="86"/>
			<line class="st2" x1="50.9" y1="-9.5" x2="16" y2="88.4"/>
			<line class="st2" x1="54.3" y1="-9.7" x2="19.4" y2="88.2"/>
			<line class="st2" x1="57.7" y1="-9.9" x2="22.8" y2="88"/>
			<line class="st2" x1="40.3" y1="-7.5" x2="5.4" y2="90.4"/>
			<line class="st2" x1="43.6" y1="-7.7" x2="8.7" y2="90.2"/>
			<line class="st2" x1="47" y1="-7.9" x2="12.1" y2="90"/>
			<line class="st2" x1="29.6" y1="-5.5" x2="-5.3" y2="92.4"/>
			<line class="st2" x1="33" y1="-5.7" x2="-1.9" y2="92.2"/>
			<line class="st2" x1="36.3" y1="-5.9" x2="1.4" y2="92"/>
			<line class="st2" x1="18.9" y1="-3.5" x2="-16" y2="94.5"/>
			<line class="st2" x1="22.3" y1="-3.7" x2="-12.6" y2="94.2"/>
			<line class="st2" x1="25.7" y1="-3.9" x2="-9.3" y2="94"/>
			<line class="st2" x1="134.5" y1="-21.4" x2="99.6" y2="76.6"/>
			<line class="st2" x1="137.9" y1="-21.6" x2="103" y2="76.3"/>
			<line class="st2" x1="147" y1="-27.6" x2="112" y2="70.4"/>
			<line class="st2" x1="141.2" y1="-21.8" x2="106.3" y2="76.1"/>
			<line class="st2" x1="123.8" y1="-19.4" x2="88.9" y2="78.6"/>
			<line class="st2" x1="127.2" y1="-19.6" x2="92.3" y2="78.4"/>
			<line class="st2" x1="130.6" y1="-19.8" x2="95.7" y2="78.1"/>
			<line class="st2" x1="113.2" y1="-17.4" x2="78.3" y2="80.6"/>
			<line class="st2" x1="116.5" y1="-17.6" x2="81.6" y2="80.4"/>
			<line class="st2" x1="119.9" y1="-17.8" x2="85" y2="80.2"/>
			<line class="st2" x1="102.5" y1="-15.4" x2="67.6" y2="82.6"/>
			<line class="st2" x1="105.9" y1="-15.6" x2="71" y2="82.4"/>
			<line class="st2" x1="109.2" y1="-15.8" x2="74.3" y2="82.2"/>
			<line class="st2" x1="91.8" y1="-13.4" x2="56.9" y2="84.6"/>
			<line class="st2" x1="95.2" y1="-13.6" x2="60.3" y2="84.4"/>
			<line class="st2" x1="98.6" y1="-13.8" x2="63.7" y2="84.2"/>
			<line class="st2" x1="81.2" y1="-11.4" x2="46.3" y2="86.6"/>
			<line class="st2" x1="84.5" y1="-11.6" x2="49.6" y2="86.4"/>
			<line class="st2" x1="87.9" y1="-11.8" x2="53" y2="86.2"/>
		</g>
		<g class="st1">
			<line class="st2" x1="202" y1="-32.5" x2="167.1" y2="65.4"/>
			<line class="st2" x1="205.3" y1="-32.7" x2="170.4" y2="65.2"/>
			<line class="st2" x1="208.7" y1="-32.9" x2="173.8" y2="65"/>
			<line class="st2" x1="191.3" y1="-30.5" x2="156.4" y2="67.4"/>
			<line class="st2" x1="194.7" y1="-30.7" x2="159.8" y2="67.2"/>
			<line class="st2" x1="198" y1="-30.9" x2="163.1" y2="67"/>
			<line class="st2" x1="180.6" y1="-28.5" x2="145.7" y2="69.4"/>
			<line class="st2" x1="184" y1="-28.7" x2="149.1" y2="69.2"/>
			<line class="st2" x1="187.4" y1="-28.9" x2="152.5" y2="69"/>
			<line class="st2" x1="170" y1="-26.5" x2="135.1" y2="71.4"/>
			<line class="st2" x1="173.3" y1="-26.7" x2="138.4" y2="71.2"/>
			<line class="st2" x1="176.7" y1="-26.9" x2="141.8" y2="71"/>
			<line class="st2" x1="159.3" y1="-24.5" x2="124.4" y2="73.4"/>
			<line class="st2" x1="162.7" y1="-24.7" x2="127.8" y2="73.2"/>
			<line class="st2" x1="166" y1="-24.9" x2="131.1" y2="73"/>
			<line class="st2" x1="148.6" y1="-22.5" x2="113.7" y2="75.5"/>
			<line class="st2" x1="152" y1="-22.7" x2="117.1" y2="75.2"/>
			<line class="st2" x1="155.4" y1="-22.9" x2="120.4" y2="75"/>
			<line class="st2" x1="264.2" y1="-40.4" x2="229.3" y2="57.6"/>
			<line class="st2" x1="267.6" y1="-40.6" x2="232.7" y2="57.3"/>
			<line class="st2" x1="276.7" y1="-46.6" x2="241.7" y2="51.4"/>
			<line class="st2" x1="270.9" y1="-40.8" x2="236" y2="57.1"/>
			<line class="st2" x1="253.5" y1="-38.4" x2="218.6" y2="59.6"/>
			<line class="st2" x1="256.9" y1="-38.6" x2="222" y2="59.4"/>
			<line class="st2" x1="260.3" y1="-38.8" x2="225.4" y2="59.1"/>
			<line class="st2" x1="242.9" y1="-36.4" x2="208" y2="61.6"/>
			<line class="st2" x1="246.2" y1="-36.6" x2="211.3" y2="61.4"/>
			<line class="st2" x1="249.6" y1="-36.8" x2="214.7" y2="61.2"/>
			<line class="st2" x1="232.2" y1="-34.4" x2="197.3" y2="63.6"/>
			<line class="st2" x1="235.6" y1="-34.6" x2="200.7" y2="63.4"/>
			<line class="st2" x1="238.9" y1="-34.8" x2="204" y2="63.2"/>
			<line class="st2" x1="221.5" y1="-32.4" x2="186.6" y2="65.6"/>
			<line class="st2" x1="224.9" y1="-32.6" x2="190" y2="65.4"/>
			<line class="st2" x1="228.3" y1="-32.8" x2="193.4" y2="65.2"/>
			<line class="st2" x1="210.9" y1="-30.4" x2="176" y2="67.6"/>
			<line class="st2" x1="214.2" y1="-30.6" x2="179.3" y2="67.4"/>
			<line class="st2" x1="217.6" y1="-30.8" x2="182.7" y2="67.2"/>
		</g>
	</g>
	<path class="st0" d="M78.5,37.8c-12.8-2.3-15.4-9.3-20.9-14.2S42.8,18.1,34.4,21s-15.1,1.7-15.1,1.7c1.5,4.4,0,6.1-2,11
		s1.5,9.6,1.5,9.6c3.5,5.2,1,9.9,1,9.9v0l20.4,9.9c0,0,3.5,1.5,6.4,0l43.3-11.1C89.7,52.1,91.3,40.2,78.5,37.8z"/>
	<path class="st3" d="M19.6,23.8c0,0,7.4-1.5,6.8,2.2c0,0,0,2-1.7,3.8c-1.7,1.7-2.9,16,0.9,18c0,0,2.9,0.6,3.2-3.5s1.5-7,0-10.5
		s-4.1-9.6,0.3-7.3c0,0,1.5,1.5,2.3,4.9s3.2,4.9,3.2,4.9s4.4,2.9,1.5,5.8c-2.9,2.9-4.4,11.6-0.6,10.7s2.6-5.8,2.6-5.8
		s-0.6-8.4,1.7-3.8s2,11,2,11s0,2.9,1.7,5.2c1.7,2.3,1,4.1,1,4.1"/>
	<line class="st3" x1="38.4" y1="42.2" x2="71.5" y2="35.7"/>
	<line class="st3" x1="36.9" y1="41" x2="69.4" y2="34.7"/>
	<line class="st3" x1="27" y1="26.3" x2="53.9" y2="21.2"/>
</g>
</svg>
