<?xml version="1.0" encoding="utf-8"?>
<!-- Generator: Adobe Illustrator 22.0.1, SVG Export Plug-In . SVG Version: 6.00 Build 0)  -->
<svg version="1.1" id="Слой_1" xmlns="http://www.w3.org/2000/svg" xmlns:xlink="http://www.w3.org/1999/xlink" x="0px" y="0px"
	 viewBox="0 0 184 88" style="enable-background:new 0 0 184 88;" xml:space="preserve">
<style type="text/css">
	.st0{fill:#FFFFFF;stroke:#000000;stroke-width:0.75;stroke-miterlimit:10;}
	.st1{fill:none;stroke:#000000;stroke-width:0.75;stroke-miterlimit:10;}
	.st2{fill:none;stroke:#000000;stroke-width:0.75;stroke-miterlimit:10;stroke-dasharray:3;}
	.st3{clip-path:url(#SVGID_2_);}
	.st4{fill:none;stroke:#000000;stroke-width:0.5;stroke-miterlimit:10;}
	.st5{clip-path:url(#SVGID_4_);}
	.st6{clip-path:url(#SVGID_6_);}
	.st7{clip-path:url(#SVGID_8_);}
</style>
<g>
	<g>
		<line class="st0" x1="2.7" y1="87" x2="171.6" y2="87"/>
		<path class="st1" d="M5.7,71.5c0,0,12.5,2.6,11.2-5.3c-1.3-7.9-8.6-23.1-8.6-23.1s-1.3-4,2-4s13.9-0.7,13.9-0.7s2-0.7,2.6,2.6
			s10.6,27.1,10.6,27.1s1.3,4.6,6.6,4c0,0,8.6-0.7,5.3-9.9C45.9,53,40,39.8,40,39.8s-1.3-4,3.3-4s12.5,0,12.5,0s1.3-0.7,2.6,2.6
			l11.9,30.4c0,0,0.7,3.3,6.6,3.3c0,0,6.6,0.7,5.9-5.9C82.2,59.6,73,38.5,73,38.5s-3.3-7.9,5.3-6.6c0,0,7.9,2,13.9,2"/>
		<path class="st1" d="M177.9,71.5c0,0-12.5,2.6-11.2-5.3s8.6-23.1,8.6-23.1s1.3-4-2-4s-13.9-0.7-13.9-0.7s-2-0.7-2.6,2.6
			c-0.7,3.3-10.6,27.1-10.6,27.1s-1.3,4.6-6.6,4c0,0-8.6-0.7-5.3-9.9s9.2-22.4,9.2-22.4s1.3-4-3.3-4c-4.6,0-12.5,0-12.5,0
			s-1.3-0.7-2.6,2.6l-11.9,30.4c0,0-0.7,3.3-6.6,3.3c0,0-6.6,0.7-5.9-5.9c0.7-6.6,9.9-27.7,9.9-27.7s3.3-7.9-5.3-6.6
			c0,0-7.9,2-13.9,2"/>
		<path class="st2" d="M33.1,57.7L22.5,43.4c0,0-0.7-2.6-8.6-2C6,42.1,2.7,42.8,2.7,42.8s-2,0.7,0,3.3c2,2.6,13.2,16,13.2,16"/>
		<path class="st2" d="M66,56.7L55.5,41.1c0,0-0.7-2.9-8.6-2.2s-11.2,1.4-11.2,1.4s-2,0.7,0,3.6c2,2.9,13.2,17.4,13.2,17.4"/>
		<path class="st2" d="M150.9,57.7l10.6-14.3c0,0,0.7-2.6,8.6-2c7.9,0.7,11.2,1.3,11.2,1.3s2,0.7,0,3.3c-2,2.6-13.2,16-13.2,16"/>
		<path class="st2" d="M118,56.7l10.6-15.6c0,0,0.7-2.9,8.6-2.2s11.2,1.4,11.2,1.4s2,0.7,0,3.6c-2,2.9-13.2,17.4-13.2,17.4"/>
		<path class="st2" d="M81.8,61.4L69.7,42.5c0,0-4.6-7.3,6.6-7.3s31.7,0,31.7,0s7.9-0.7,5.9,4.6L101.6,62"/>
	</g>
	<g>
		<polygon class="st0" points="40.6,25.8 41.7,7.3 35.1,7.3 34,7.3 27.5,7.3 28.5,25.8 22.6,25.8 34.6,37.7 46.6,25.8 		"/>
		<g>
			<defs>
				<polygon id="SVGID_1_" points="40.6,25.8 41.7,7.3 35.1,7.3 34,7.3 27.5,7.3 28.5,25.8 22.6,25.8 34.6,37.7 46.6,25.8 				"/>
			</defs>
			<clipPath id="SVGID_2_">
				<use xlink:href="#SVGID_1_"  style="overflow:visible;"/>
			</clipPath>
			<g class="st3">
				<line class="st4" x1="63.5" y1="-45.8" x2="25.5" y2="60.8"/>
				<line class="st4" x1="67.2" y1="-46" x2="29.2" y2="60.5"/>
				<line class="st4" x1="70.8" y1="-46.2" x2="32.8" y2="60.3"/>
				<line class="st4" x1="51.9" y1="-43.6" x2="13.9" y2="63"/>
				<line class="st4" x1="55.5" y1="-43.8" x2="17.6" y2="62.7"/>
				<line class="st4" x1="59.2" y1="-44" x2="21.2" y2="62.5"/>
				<line class="st4" x1="40.3" y1="-41.4" x2="2.3" y2="65.1"/>
				<line class="st4" x1="43.9" y1="-41.6" x2="6" y2="64.9"/>
				<line class="st4" x1="47.6" y1="-41.9" x2="9.6" y2="64.7"/>
				<line class="st4" x1="28.7" y1="-39.2" x2="-9.3" y2="67.3"/>
				<line class="st4" x1="32.3" y1="-39.5" x2="-5.6" y2="67.1"/>
				<line class="st4" x1="36" y1="-39.7" x2="-2" y2="66.9"/>
				<line class="st4" x1="17.1" y1="-37.1" x2="-20.9" y2="69.5"/>
				<line class="st4" x1="20.7" y1="-37.3" x2="-17.2" y2="69.3"/>
				<line class="st4" x1="24.4" y1="-37.5" x2="-13.6" y2="69"/>
				<line class="st4" x1="5.5" y1="-34.9" x2="-32.5" y2="71.7"/>
				<line class="st4" x1="9.1" y1="-35.1" x2="-28.8" y2="71.5"/>
				<line class="st4" x1="12.8" y1="-35.3" x2="-25.2" y2="71.2"/>
				<line class="st4" x1="131.2" y1="-54.3" x2="93.2" y2="52.2"/>
				<line class="st4" x1="134.9" y1="-54.6" x2="96.9" y2="52"/>
				<line class="st4" x1="144.7" y1="-61" x2="106.8" y2="45.5"/>
				<line class="st4" x1="138.5" y1="-54.8" x2="100.5" y2="51.8"/>
				<line class="st4" x1="119.6" y1="-52.2" x2="81.6" y2="54.4"/>
				<line class="st4" x1="123.3" y1="-52.4" x2="85.3" y2="54.2"/>
				<line class="st4" x1="126.9" y1="-52.6" x2="88.9" y2="53.9"/>
				<line class="st4" x1="108" y1="-50" x2="70" y2="56.6"/>
				<line class="st4" x1="111.7" y1="-50.2" x2="73.7" y2="56.3"/>
				<line class="st4" x1="115.3" y1="-50.4" x2="77.3" y2="56.1"/>
				<line class="st4" x1="96.4" y1="-47.8" x2="58.4" y2="58.7"/>
				<line class="st4" x1="100" y1="-48" x2="62.1" y2="58.5"/>
				<line class="st4" x1="103.7" y1="-48.3" x2="65.7" y2="58.3"/>
				<line class="st4" x1="84.8" y1="-45.6" x2="46.8" y2="60.9"/>
				<line class="st4" x1="88.4" y1="-45.8" x2="50.5" y2="60.7"/>
				<line class="st4" x1="92.1" y1="-46.1" x2="54.1" y2="60.5"/>
				<line class="st4" x1="73.2" y1="-43.4" x2="35.2" y2="63.1"/>
				<line class="st4" x1="76.8" y1="-43.7" x2="38.9" y2="62.9"/>
				<line class="st4" x1="80.5" y1="-43.9" x2="42.5" y2="62.7"/>
			</g>
		</g>
	</g>
	<g>
		<polygon class="st0" points="155.3,25.8 156.3,7.3 149.8,7.3 148.7,7.3 142.2,7.3 143.2,25.8 137.3,25.8 149.3,37.7 161.2,25.8 		
			"/>
		<g>
			<defs>
				<polygon id="SVGID_3_" points="155.3,25.8 156.3,7.3 149.8,7.3 148.7,7.3 142.2,7.3 143.2,25.8 137.3,25.8 149.3,37.7 
					161.2,25.8 				"/>
			</defs>
			<clipPath id="SVGID_4_">
				<use xlink:href="#SVGID_3_"  style="overflow:visible;"/>
			</clipPath>
			<g class="st5">
				<line class="st4" x1="178.2" y1="-45.8" x2="140.2" y2="60.8"/>
				<line class="st4" x1="181.8" y1="-46" x2="143.9" y2="60.5"/>
				<line class="st4" x1="185.5" y1="-46.2" x2="147.5" y2="60.3"/>
				<line class="st4" x1="166.6" y1="-43.6" x2="128.6" y2="63"/>
				<line class="st4" x1="170.2" y1="-43.8" x2="132.2" y2="62.7"/>
				<line class="st4" x1="173.9" y1="-44" x2="135.9" y2="62.5"/>
				<line class="st4" x1="155" y1="-41.4" x2="117" y2="65.1"/>
				<line class="st4" x1="158.6" y1="-41.6" x2="120.6" y2="64.9"/>
				<line class="st4" x1="162.3" y1="-41.9" x2="124.3" y2="64.7"/>
				<line class="st4" x1="143.4" y1="-39.2" x2="105.4" y2="67.3"/>
				<line class="st4" x1="147" y1="-39.5" x2="109" y2="67.1"/>
				<line class="st4" x1="150.7" y1="-39.7" x2="112.7" y2="66.9"/>
				<line class="st4" x1="131.7" y1="-37.1" x2="93.8" y2="69.5"/>
				<line class="st4" x1="135.4" y1="-37.3" x2="97.4" y2="69.3"/>
				<line class="st4" x1="139.1" y1="-37.5" x2="101.1" y2="69"/>
				<line class="st4" x1="120.1" y1="-34.9" x2="82.2" y2="71.7"/>
				<line class="st4" x1="123.8" y1="-35.1" x2="85.8" y2="71.5"/>
				<line class="st4" x1="127.5" y1="-35.3" x2="89.5" y2="71.2"/>
				<line class="st4" x1="245.9" y1="-54.3" x2="207.9" y2="52.2"/>
				<line class="st4" x1="249.5" y1="-54.6" x2="211.6" y2="52"/>
				<line class="st4" x1="259.4" y1="-61" x2="221.4" y2="45.5"/>
				<line class="st4" x1="253.2" y1="-54.8" x2="215.2" y2="51.8"/>
				<line class="st4" x1="234.3" y1="-52.2" x2="196.3" y2="54.4"/>
				<line class="st4" x1="237.9" y1="-52.4" x2="200" y2="54.2"/>
				<line class="st4" x1="241.6" y1="-52.6" x2="203.6" y2="53.9"/>
				<line class="st4" x1="222.7" y1="-50" x2="184.7" y2="56.6"/>
				<line class="st4" x1="226.3" y1="-50.2" x2="188.4" y2="56.3"/>
				<line class="st4" x1="230" y1="-50.4" x2="192" y2="56.1"/>
				<line class="st4" x1="211.1" y1="-47.8" x2="173.1" y2="58.7"/>
				<line class="st4" x1="214.7" y1="-48" x2="176.7" y2="58.5"/>
				<line class="st4" x1="218.4" y1="-48.3" x2="180.4" y2="58.3"/>
				<line class="st4" x1="199.5" y1="-45.6" x2="161.5" y2="60.9"/>
				<line class="st4" x1="203.1" y1="-45.8" x2="165.1" y2="60.7"/>
				<line class="st4" x1="206.8" y1="-46.1" x2="168.8" y2="60.5"/>
				<line class="st4" x1="187.9" y1="-43.4" x2="149.9" y2="63.1"/>
				<line class="st4" x1="191.5" y1="-43.7" x2="153.5" y2="62.9"/>
				<line class="st4" x1="195.2" y1="-43.9" x2="157.2" y2="62.7"/>
			</g>
		</g>
	</g>
	<g>
		<polygon class="st0" points="121.3,19.5 122.3,1 115.8,1 114.7,1 108.1,1 109.2,19.5 103.3,19.5 115.2,31.5 127.2,19.5 		"/>
		<g>
			<defs>
				<polygon id="SVGID_5_" points="121.3,19.5 122.3,1 115.8,1 114.7,1 108.1,1 109.2,19.5 103.3,19.5 115.2,31.5 127.2,19.5 				
					"/>
			</defs>
			<clipPath id="SVGID_6_">
				<use xlink:href="#SVGID_5_"  style="overflow:visible;"/>
			</clipPath>
			<g class="st6">
				<line class="st4" x1="144.1" y1="-52.1" x2="106.2" y2="54.5"/>
				<line class="st4" x1="147.8" y1="-52.3" x2="109.8" y2="54.3"/>
				<line class="st4" x1="151.4" y1="-52.5" x2="113.5" y2="54"/>
				<line class="st4" x1="132.5" y1="-49.9" x2="94.5" y2="56.7"/>
				<line class="st4" x1="136.2" y1="-50.1" x2="98.2" y2="56.5"/>
				<line class="st4" x1="139.8" y1="-50.3" x2="101.9" y2="56.2"/>
				<line class="st4" x1="120.9" y1="-47.7" x2="82.9" y2="58.9"/>
				<line class="st4" x1="124.6" y1="-47.9" x2="86.6" y2="58.6"/>
				<line class="st4" x1="128.2" y1="-48.1" x2="90.3" y2="58.4"/>
				<line class="st4" x1="109.3" y1="-45.5" x2="71.3" y2="61"/>
				<line class="st4" x1="113" y1="-45.7" x2="75" y2="60.8"/>
				<line class="st4" x1="116.6" y1="-46" x2="78.6" y2="60.6"/>
				<line class="st4" x1="97.7" y1="-43.3" x2="59.7" y2="63.2"/>
				<line class="st4" x1="101.4" y1="-43.6" x2="63.4" y2="63"/>
				<line class="st4" x1="105" y1="-43.8" x2="67" y2="62.8"/>
				<line class="st4" x1="86.1" y1="-41.1" x2="48.1" y2="65.4"/>
				<line class="st4" x1="89.8" y1="-41.4" x2="51.8" y2="65.2"/>
				<line class="st4" x1="93.4" y1="-41.6" x2="55.4" y2="65"/>
				<line class="st4" x1="211.8" y1="-60.6" x2="173.9" y2="45.9"/>
				<line class="st4" x1="215.5" y1="-60.8" x2="177.5" y2="45.7"/>
				<line class="st4" x1="225.4" y1="-67.3" x2="187.4" y2="39.2"/>
				<line class="st4" x1="219.1" y1="-61.1" x2="181.2" y2="45.5"/>
				<line class="st4" x1="200.2" y1="-58.4" x2="162.3" y2="48.1"/>
				<line class="st4" x1="203.9" y1="-58.7" x2="165.9" y2="47.9"/>
				<line class="st4" x1="207.5" y1="-58.9" x2="169.6" y2="47.7"/>
				<line class="st4" x1="188.6" y1="-56.3" x2="150.7" y2="50.3"/>
				<line class="st4" x1="192.3" y1="-56.5" x2="154.3" y2="50.1"/>
				<line class="st4" x1="195.9" y1="-56.7" x2="158" y2="49.8"/>
				<line class="st4" x1="177" y1="-54.1" x2="139" y2="52.5"/>
				<line class="st4" x1="180.7" y1="-54.3" x2="142.7" y2="52.3"/>
				<line class="st4" x1="184.3" y1="-54.5" x2="146.4" y2="52"/>
				<line class="st4" x1="165.4" y1="-51.9" x2="127.4" y2="54.7"/>
				<line class="st4" x1="169.1" y1="-52.1" x2="131.1" y2="54.4"/>
				<line class="st4" x1="172.7" y1="-52.3" x2="134.8" y2="54.2"/>
				<line class="st4" x1="153.8" y1="-49.7" x2="115.8" y2="56.8"/>
				<line class="st4" x1="157.5" y1="-49.9" x2="119.5" y2="56.6"/>
				<line class="st4" x1="161.1" y1="-50.2" x2="123.1" y2="56.4"/>
			</g>
		</g>
	</g>
	<g>
		<polygon class="st0" points="73.8,19.5 74.8,1 68.3,1 67.2,1 60.7,1 61.7,19.5 55.8,19.5 67.7,31.5 79.7,19.5 		"/>
		<g>
			<defs>
				<polygon id="SVGID_7_" points="73.8,19.5 74.8,1 68.3,1 67.2,1 60.7,1 61.7,19.5 55.8,19.5 67.7,31.5 79.7,19.5 				"/>
			</defs>
			<clipPath id="SVGID_8_">
				<use xlink:href="#SVGID_7_"  style="overflow:visible;"/>
			</clipPath>
			<g class="st7">
				<line class="st4" x1="96.6" y1="-52.1" x2="58.7" y2="54.5"/>
				<line class="st4" x1="100.3" y1="-52.3" x2="62.3" y2="54.3"/>
				<line class="st4" x1="104" y1="-52.5" x2="66" y2="54"/>
				<line class="st4" x1="85" y1="-49.9" x2="47.1" y2="56.7"/>
				<line class="st4" x1="88.7" y1="-50.1" x2="50.7" y2="56.5"/>
				<line class="st4" x1="92.3" y1="-50.3" x2="54.4" y2="56.2"/>
				<line class="st4" x1="73.4" y1="-47.7" x2="35.5" y2="58.9"/>
				<line class="st4" x1="77.1" y1="-47.9" x2="39.1" y2="58.6"/>
				<line class="st4" x1="80.7" y1="-48.1" x2="42.8" y2="58.4"/>
				<line class="st4" x1="61.8" y1="-45.5" x2="23.9" y2="61"/>
				<line class="st4" x1="65.5" y1="-45.7" x2="27.5" y2="60.8"/>
				<line class="st4" x1="69.1" y1="-46" x2="31.2" y2="60.6"/>
				<line class="st4" x1="50.2" y1="-43.3" x2="12.2" y2="63.2"/>
				<line class="st4" x1="53.9" y1="-43.6" x2="15.9" y2="63"/>
				<line class="st4" x1="57.5" y1="-43.8" x2="19.6" y2="62.8"/>
				<line class="st4" x1="38.6" y1="-41.1" x2="0.6" y2="65.4"/>
				<line class="st4" x1="42.3" y1="-41.4" x2="4.3" y2="65.2"/>
				<line class="st4" x1="45.9" y1="-41.6" x2="8" y2="65"/>
				<line class="st4" x1="164.4" y1="-60.6" x2="126.4" y2="45.9"/>
				<line class="st4" x1="168" y1="-60.8" x2="130" y2="45.7"/>
				<line class="st4" x1="177.9" y1="-67.3" x2="139.9" y2="39.2"/>
				<line class="st4" x1="171.7" y1="-61.1" x2="133.7" y2="45.5"/>
				<line class="st4" x1="152.7" y1="-58.4" x2="114.8" y2="48.1"/>
				<line class="st4" x1="156.4" y1="-58.7" x2="118.4" y2="47.9"/>
				<line class="st4" x1="160.1" y1="-58.9" x2="122.1" y2="47.7"/>
				<line class="st4" x1="141.1" y1="-56.3" x2="103.2" y2="50.3"/>
				<line class="st4" x1="144.8" y1="-56.5" x2="106.8" y2="50.1"/>
				<line class="st4" x1="148.5" y1="-56.7" x2="110.5" y2="49.8"/>
				<line class="st4" x1="129.5" y1="-54.1" x2="91.6" y2="52.5"/>
				<line class="st4" x1="133.2" y1="-54.3" x2="95.2" y2="52.3"/>
				<line class="st4" x1="136.8" y1="-54.5" x2="98.9" y2="52"/>
				<line class="st4" x1="117.9" y1="-51.9" x2="80" y2="54.7"/>
				<line class="st4" x1="121.6" y1="-52.1" x2="83.6" y2="54.4"/>
				<line class="st4" x1="125.2" y1="-52.3" x2="87.3" y2="54.2"/>
				<line class="st4" x1="106.3" y1="-49.7" x2="68.4" y2="56.8"/>
				<line class="st4" x1="110" y1="-49.9" x2="72" y2="56.6"/>
				<line class="st4" x1="113.6" y1="-50.2" x2="75.7" y2="56.4"/>
			</g>
		</g>
	</g>
</g>
</svg>
