<?xml version="1.0" encoding="utf-8"?>
<!-- Generator: Adobe Illustrator 22.0.1, SVG Export Plug-In . SVG Version: 6.00 Build 0)  -->
<svg version="1.1" id="Слой_1" xmlns="http://www.w3.org/2000/svg" xmlns:xlink="http://www.w3.org/1999/xlink" x="0px" y="0px"
	 viewBox="0 0 96 96" style="enable-background:new 0 0 96 96;" xml:space="preserve">
<style type="text/css">
	.st0{fill:none;stroke:#000000;stroke-width:0.75;stroke-miterlimit:10;}
	.st1{clip-path:url(#SVGID_2_);}
	.st2{fill:none;stroke:#000000;stroke-width:0.5;stroke-miterlimit:10;}
	.st3{fill:#FFFFFF;stroke:#000000;stroke-width:0.75;stroke-miterlimit:10;}
	.st4{fill:#FFFFFF;}
	.st5{clip-path:url(#SVGID_4_);}
	.st6{clip-path:url(#SVGID_6_);}
</style>
<g>
	<polygon class="st0" points="53.1,44 53.1,88 95.1,66 95.1,22 	"/>
	<polygon class="st0" points="11.1,66 11.1,22 53.1,44 53.1,88 	"/>
	<polyline class="st0" points="10.6,22 52.6,1 94.6,22 	"/>
	<line class="st0" x1="39.6" y1="7.4" x2="82.6" y2="28.8"/>
	<line class="st0" x1="26.2" y1="14.2" x2="68.8" y2="35.4"/>
	<polyline class="st0" points="82.1,28.8 82.7,39 69.6,46 69.1,35.5 	"/>
	<g>
		<defs>
			<polygon id="SVGID_1_" points="11.1,65.3 11.1,21.9 52.6,43.6 52.6,87 			"/>
		</defs>
		<clipPath id="SVGID_2_">
			<use xlink:href="#SVGID_1_"  style="overflow:visible;"/>
		</clipPath>
		<g class="st1">
			<line class="st2" x1="27.3" y1="11.2" x2="-4.9" y2="101.4"/>
			<line class="st2" x1="30.4" y1="11" x2="-1.8" y2="101.2"/>
			<line class="st2" x1="33.5" y1="10.8" x2="1.3" y2="101"/>
			<line class="st2" x1="17.5" y1="13" x2="-14.7" y2="103.2"/>
			<line class="st2" x1="20.5" y1="12.8" x2="-11.6" y2="103.1"/>
			<line class="st2" x1="23.6" y1="12.6" x2="-8.5" y2="102.9"/>
			<line class="st2" x1="7.6" y1="14.8" x2="-24.5" y2="105.1"/>
			<line class="st2" x1="10.7" y1="14.7" x2="-21.4" y2="104.9"/>
			<line class="st2" x1="13.8" y1="14.5" x2="-18.3" y2="104.7"/>
			<line class="st2" x1="-2.2" y1="16.7" x2="-34.4" y2="106.9"/>
			<line class="st2" x1="0.9" y1="16.5" x2="-31.3" y2="106.7"/>
			<line class="st2" x1="4" y1="16.3" x2="-28.2" y2="106.6"/>
			<line class="st2" x1="-12" y1="18.5" x2="-44.2" y2="108.8"/>
			<line class="st2" x1="-8.9" y1="18.4" x2="-41.1" y2="108.6"/>
			<line class="st2" x1="-5.8" y1="18.2" x2="-38" y2="108.4"/>
			<line class="st2" x1="-21.9" y1="20.4" x2="-54" y2="110.6"/>
			<line class="st2" x1="-18.8" y1="20.2" x2="-50.9" y2="110.4"/>
			<line class="st2" x1="-15.7" y1="20" x2="-47.8" y2="110.3"/>
			<line class="st2" x1="84.6" y1="3.9" x2="52.5" y2="94.1"/>
			<line class="st2" x1="87.7" y1="3.7" x2="55.6" y2="93.9"/>
			<line class="st2" x1="96.1" y1="-1.8" x2="63.9" y2="88.5"/>
			<line class="st2" x1="90.8" y1="3.5" x2="58.7" y2="93.8"/>
			<line class="st2" x1="74.8" y1="5.7" x2="42.6" y2="96"/>
			<line class="st2" x1="77.9" y1="5.6" x2="45.7" y2="95.8"/>
			<line class="st2" x1="81" y1="5.4" x2="48.8" y2="95.6"/>
			<line class="st2" x1="65" y1="7.6" x2="32.8" y2="97.8"/>
			<line class="st2" x1="68.1" y1="7.4" x2="35.9" y2="97.6"/>
			<line class="st2" x1="71.2" y1="7.2" x2="39" y2="97.5"/>
			<line class="st2" x1="55.1" y1="9.4" x2="23" y2="99.7"/>
			<line class="st2" x1="58.2" y1="9.2" x2="26.1" y2="99.5"/>
			<line class="st2" x1="61.3" y1="9.1" x2="29.2" y2="99.3"/>
			<line class="st2" x1="45.3" y1="11.3" x2="13.2" y2="101.5"/>
			<line class="st2" x1="48.4" y1="11.1" x2="16.2" y2="101.3"/>
			<line class="st2" x1="51.5" y1="10.9" x2="19.3" y2="101.1"/>
			<line class="st2" x1="35.5" y1="13.1" x2="3.3" y2="103.4"/>
			<line class="st2" x1="38.6" y1="12.9" x2="6.4" y2="103.2"/>
			<line class="st2" x1="41.7" y1="12.8" x2="9.5" y2="103"/>
		</g>
	</g>
	<g>
		<polygon class="st3" points="22.9,72.2 22.9,95 44.6,83.6 44.6,60.9 		"/>
		<polygon class="st4" points="5.9,59.7 5.9,66.4 13.8,68.7 13.8,60.8 		"/>
		<polygon class="st3" points="1.1,83.6 1.1,60.9 22.9,72.2 22.9,95 		"/>
		<polyline class="st3" points="0.9,60.9 22.6,50 44.3,60.9 		"/>
	</g>
	<g>
		<defs>
			<polygon id="SVGID_3_" points="1.1,83.6 1.1,60.9 22.9,72.2 22.9,95 			"/>
		</defs>
		<clipPath id="SVGID_4_">
			<use xlink:href="#SVGID_3_"  style="overflow:visible;"/>
		</clipPath>
		<g class="st5">
			<line class="st2" x1="27.3" y1="11.2" x2="-4.9" y2="101.4"/>
			<line class="st2" x1="30.4" y1="11" x2="-1.8" y2="101.2"/>
			<line class="st2" x1="33.5" y1="10.8" x2="1.3" y2="101"/>
			<line class="st2" x1="17.5" y1="13" x2="-14.7" y2="103.2"/>
			<line class="st2" x1="20.5" y1="12.8" x2="-11.6" y2="103.1"/>
			<line class="st2" x1="23.6" y1="12.6" x2="-8.5" y2="102.9"/>
			<line class="st2" x1="7.6" y1="14.8" x2="-24.5" y2="105.1"/>
			<line class="st2" x1="10.7" y1="14.7" x2="-21.4" y2="104.9"/>
			<line class="st2" x1="13.8" y1="14.5" x2="-18.3" y2="104.7"/>
			<line class="st2" x1="-2.2" y1="16.7" x2="-34.4" y2="106.9"/>
			<line class="st2" x1="0.9" y1="16.5" x2="-31.3" y2="106.7"/>
			<line class="st2" x1="4" y1="16.3" x2="-28.2" y2="106.6"/>
			<line class="st2" x1="-12" y1="18.5" x2="-44.2" y2="108.8"/>
			<line class="st2" x1="-8.9" y1="18.4" x2="-41.1" y2="108.6"/>
			<line class="st2" x1="-5.8" y1="18.2" x2="-38" y2="108.4"/>
			<line class="st2" x1="-21.9" y1="20.4" x2="-54" y2="110.6"/>
			<line class="st2" x1="-18.8" y1="20.2" x2="-50.9" y2="110.4"/>
			<line class="st2" x1="-15.7" y1="20" x2="-47.8" y2="110.3"/>
			<line class="st2" x1="84.6" y1="3.9" x2="52.5" y2="94.1"/>
			<line class="st2" x1="87.7" y1="3.7" x2="55.6" y2="93.9"/>
			<line class="st2" x1="96.1" y1="-1.8" x2="63.9" y2="88.5"/>
			<line class="st2" x1="90.8" y1="3.5" x2="58.7" y2="93.8"/>
			<line class="st2" x1="74.8" y1="5.7" x2="42.6" y2="96"/>
			<line class="st2" x1="77.9" y1="5.6" x2="45.7" y2="95.8"/>
			<line class="st2" x1="81" y1="5.4" x2="48.8" y2="95.6"/>
			<line class="st2" x1="65" y1="7.6" x2="32.8" y2="97.8"/>
			<line class="st2" x1="68.1" y1="7.4" x2="35.9" y2="97.6"/>
			<line class="st2" x1="71.2" y1="7.2" x2="39" y2="97.5"/>
			<line class="st2" x1="55.1" y1="9.4" x2="23" y2="99.7"/>
			<line class="st2" x1="58.2" y1="9.2" x2="26.1" y2="99.5"/>
			<line class="st2" x1="61.3" y1="9.1" x2="29.2" y2="99.3"/>
			<line class="st2" x1="45.3" y1="11.3" x2="13.2" y2="101.5"/>
			<line class="st2" x1="48.4" y1="11.1" x2="16.2" y2="101.3"/>
			<line class="st2" x1="51.5" y1="10.9" x2="19.3" y2="101.1"/>
			<line class="st2" x1="35.5" y1="13.1" x2="3.3" y2="103.4"/>
			<line class="st2" x1="38.6" y1="12.9" x2="6.4" y2="103.2"/>
			<line class="st2" x1="41.7" y1="12.8" x2="9.5" y2="103"/>
		</g>
	</g>
	<path class="st4" d="M5.9,62.9l17.3,8.7l9.9-12.2C33.1,59.5,6.7,53.4,5.9,62.9z"/>
	<polygon class="st4" points="22.6,72 43.6,61 34.6,59 24.6,64 23.6,70 	"/>
	<g>
		<defs>
			<polygon id="SVGID_5_" points="26.6,14 68.6,35 69.6,46 82.6,39 82.6,29 39.6,7 			"/>
		</defs>
		<clipPath id="SVGID_6_">
			<use xlink:href="#SVGID_5_"  style="overflow:visible;"/>
		</clipPath>
		<g class="st6">
			<line class="st2" x1="75.3" y1="-21.8" x2="43.1" y2="68.4"/>
			<line class="st2" x1="78.4" y1="-22" x2="46.2" y2="68.2"/>
			<line class="st2" x1="81.5" y1="-22.2" x2="49.3" y2="68"/>
			<line class="st2" x1="65.5" y1="-20" x2="33.3" y2="70.2"/>
			<line class="st2" x1="68.5" y1="-20.2" x2="36.4" y2="70.1"/>
			<line class="st2" x1="71.6" y1="-20.4" x2="39.5" y2="69.9"/>
			<line class="st2" x1="55.6" y1="-18.2" x2="23.5" y2="72.1"/>
			<line class="st2" x1="58.7" y1="-18.3" x2="26.6" y2="71.9"/>
			<line class="st2" x1="61.8" y1="-18.5" x2="29.7" y2="71.7"/>
			<line class="st2" x1="45.8" y1="-16.3" x2="13.6" y2="73.9"/>
			<line class="st2" x1="48.9" y1="-16.5" x2="16.7" y2="73.7"/>
			<line class="st2" x1="52" y1="-16.7" x2="19.8" y2="73.6"/>
			<line class="st2" x1="36" y1="-14.5" x2="3.8" y2="75.8"/>
			<line class="st2" x1="39.1" y1="-14.6" x2="6.9" y2="75.6"/>
			<line class="st2" x1="42.2" y1="-14.8" x2="10" y2="75.4"/>
			<line class="st2" x1="26.1" y1="-12.6" x2="-6" y2="77.6"/>
			<line class="st2" x1="29.2" y1="-12.8" x2="-2.9" y2="77.4"/>
			<line class="st2" x1="32.3" y1="-13" x2="0.2" y2="77.3"/>
			<line class="st2" x1="132.6" y1="-29.1" x2="100.5" y2="61.1"/>
			<line class="st2" x1="135.7" y1="-29.3" x2="103.6" y2="60.9"/>
			<line class="st2" x1="144.1" y1="-34.8" x2="111.9" y2="55.5"/>
			<line class="st2" x1="138.8" y1="-29.5" x2="106.7" y2="60.8"/>
			<line class="st2" x1="122.8" y1="-27.3" x2="90.6" y2="63"/>
			<line class="st2" x1="125.9" y1="-27.4" x2="93.7" y2="62.8"/>
			<line class="st2" x1="129" y1="-27.6" x2="96.8" y2="62.6"/>
			<line class="st2" x1="113" y1="-25.4" x2="80.8" y2="64.8"/>
			<line class="st2" x1="116.1" y1="-25.6" x2="83.9" y2="64.6"/>
			<line class="st2" x1="119.2" y1="-25.8" x2="87" y2="64.5"/>
			<line class="st2" x1="103.1" y1="-23.6" x2="71" y2="66.7"/>
			<line class="st2" x1="106.2" y1="-23.8" x2="74.1" y2="66.5"/>
			<line class="st2" x1="109.3" y1="-23.9" x2="77.2" y2="66.3"/>
			<line class="st2" x1="93.3" y1="-21.7" x2="61.2" y2="68.5"/>
			<line class="st2" x1="96.4" y1="-21.9" x2="64.2" y2="68.3"/>
			<line class="st2" x1="99.5" y1="-22.1" x2="67.3" y2="68.1"/>
			<line class="st2" x1="83.5" y1="-19.9" x2="51.3" y2="70.4"/>
			<line class="st2" x1="86.6" y1="-20.1" x2="54.4" y2="70.2"/>
			<line class="st2" x1="89.7" y1="-20.2" x2="57.5" y2="70"/>
		</g>
	</g>
</g>
</svg>
