<?xml version="1.0" encoding="utf-8"?>
<!-- Generator: Adobe Illustrator 22.0.1, SVG Export Plug-In . SVG Version: 6.00 Build 0)  -->
<svg version="1.1" id="Слой_1" xmlns="http://www.w3.org/2000/svg" xmlns:xlink="http://www.w3.org/1999/xlink" x="0px" y="0px"
	 viewBox="0 0 120 95" style="enable-background:new 0 0 120 95;" xml:space="preserve">
<style type="text/css">
	.st0{clip-path:url(#SVGID_2_);}
	.st1{fill:none;stroke:#000000;stroke-width:0.5;stroke-miterlimit:10;}
	.st2{clip-path:url(#SVGID_4_);}
	.st3{fill:none;stroke:#000000;stroke-width:0.75;stroke-miterlimit:10;}
	.st4{fill:#FFFFFF;stroke:#000000;stroke-width:0.75;stroke-miterlimit:10;}
	.st5{fill:#FFFFFF;stroke:#000000;stroke-width:0.75;stroke-linejoin:round;stroke-miterlimit:10;}
	.st6{fill:none;stroke:#000000;stroke-width:0.75;stroke-linecap:round;stroke-linejoin:round;stroke-miterlimit:10;}
</style>
<g>
	<g>
		<defs>
			<path id="SVGID_1_" d="M31,22.4c0,0,11.5,11.3,12.2,22.9c0,0,3.3,8.3-2.9,6.3l-11.5-5.5c0,0-14.4-15.6-16-26.2s0.9-12.6,0.9-12.6
				l4.8,3.4L31,22.4z"/>
		</defs>
		<clipPath id="SVGID_2_">
			<use xlink:href="#SVGID_1_"  style="overflow:visible;"/>
		</clipPath>
		<g class="st0">
			<g>
				<line class="st1" x1="-12.1" y1="-5" x2="-43.9" y2="30.6"/>
				<line class="st1" x1="-8.7" y1="-4.5" x2="-40.5" y2="31.1"/>
				<line class="st1" x1="-5.3" y1="-4" x2="-37.1" y2="31.6"/>
				<line class="st1" x1="-1.9" y1="-3.5" x2="-33.6" y2="32.1"/>
				<line class="st1" x1="1.5" y1="-3" x2="-30.2" y2="32.5"/>
				<line class="st1" x1="4.9" y1="-2.6" x2="-26.8" y2="33"/>
				<line class="st1" x1="8.4" y1="-2.1" x2="-23.4" y2="33.5"/>
				<line class="st1" x1="11.8" y1="-1.6" x2="-20" y2="34"/>
				<line class="st1" x1="15.2" y1="-1.1" x2="-16.6" y2="34.5"/>
				<line class="st1" x1="18.6" y1="-0.6" x2="-13.2" y2="35"/>
				<line class="st1" x1="22" y1="-0.1" x2="-9.8" y2="35.5"/>
				<line class="st1" x1="25.4" y1="0.4" x2="-6.3" y2="35.9"/>
				<line class="st1" x1="28.8" y1="0.8" x2="-2.9" y2="36.4"/>
				<line class="st1" x1="32.3" y1="1.3" x2="0.5" y2="36.9"/>
			</g>
			<g>
				<path class="st1" d="M10.6,30.2C5.4,35.9,0,42.3-5.4,48.1"/>
				<path class="st1" d="M26.4,12.5C22.4,17,19,21.4,15,25.2"/>
				<path class="st1" d="M12.9,32C7.8,37.4,2.9,43.2-2,48.6"/>
				<path class="st1" d="M29.8,13c-4,4-7.4,8.4-11.2,12.6"/>
				<path class="st1" d="M15.4,33.5c-4.6,4.9-9,10.2-13.9,15.6"/>
				<path class="st1" d="M33.2,13.5c-4,5-8.8,9.3-12.7,14.2"/>
				<path class="st1" d="M17.7,35.2c-4.5,4.6-8.4,10-12.8,14.3"/>
				<path class="st1" d="M36.6,14c-4.9,5.5-9.3,10.8-14,15.7"/>
				<path class="st1" d="M19.6,37.3c-4,4-7.5,8.8-11.4,12.7"/>
				<path class="st1" d="M40.1,14.4C36.7,18.2,33.3,22,30,25.7c-1.7,1.9-3.3,3.7-5,5.6"/>
				<path class="st1" d="M21.3,39.7c-3.3,3.5-6.7,6.9-9.6,10.8"/>
				<path class="st1" d="M43.5,14.9C38,20.9,32.7,27.2,27.3,33"/>
				<path class="st1" d="M22.8,42.4c-2.3,2.8-5.3,5.7-7.7,8.6"/>
				<path class="st1" d="M46.9,15.4C41,21.9,35.6,28.7,29.5,34.9"/>
				<path class="st1" d="M24.4,44.9c-2,2.2-3.9,4.4-5.9,6.6"/>
				<path class="st1" d="M50.3,15.9C43.9,22.8,37.6,30.6,31,37.5"/>
				<path class="st1" d="M26,47.5c-1.3,1.5-2.7,3-4,4.5"/>
				<path class="st1" d="M53.7,16.4c-2.5,3-4.9,5.9-7.9,8.4c-4.9,5.3-8.8,10.7-13.6,15.7"/>
				<path class="st1" d="M28,49.6c-0.9,1-1.7,1.9-2.6,2.9"/>
				<path class="st1" d="M57.1,16.9C49.3,25.7,41,35,33.3,43.6"/>
				<path class="st1" d="M30.6,50.9c-0.6,0.7-1.2,1.4-1.9,2.1"/>
				<path class="st1" d="M60.5,17.4c-9.3,9.8-18.1,20-26.9,30.2"/>
				<line class="st1" x1="64" y1="17.9" x2="32.2" y2="53.4"/>
				<line class="st1" x1="67.4" y1="18.3" x2="35.6" y2="53.9"/>
				<line class="st1" x1="70.8" y1="18.8" x2="39" y2="54.4"/>
			</g>
		</g>
	</g>
	<g>
		<defs>
			<path id="SVGID_3_" d="M48.5,48.8c0,0,0.5-11.7,8.3-8.7l35.6,16c0,0,7.3,3.4,7.8,10.2c0,0,2.9,13.1-2.4,15.6
				c-5.4,2.4-17.6-1.5-17.6-1.5l-16.6-5.8c0,0-13.2-4.4-14.1-13.6S48.5,48.8,48.5,48.8z"/>
		</defs>
		<clipPath id="SVGID_4_">
			<use xlink:href="#SVGID_3_"  style="overflow:visible;"/>
		</clipPath>
		<g class="st2">
			<line class="st1" x1="56.2" y1="36.3" x2="24.4" y2="71.9"/>
			<line class="st1" x1="59.6" y1="36.8" x2="27.8" y2="72.4"/>
			<line class="st1" x1="63" y1="37.3" x2="31.2" y2="72.9"/>
			<line class="st1" x1="66.4" y1="37.8" x2="34.6" y2="73.4"/>
			<line class="st1" x1="69.8" y1="38.3" x2="38" y2="73.9"/>
			<line class="st1" x1="73.2" y1="38.8" x2="41.5" y2="74.3"/>
			<line class="st1" x1="76.6" y1="39.2" x2="44.9" y2="74.8"/>
			<line class="st1" x1="80" y1="39.7" x2="48.3" y2="75.3"/>
			<line class="st1" x1="83.5" y1="40.2" x2="51.7" y2="75.8"/>
			<line class="st1" x1="86.9" y1="40.7" x2="55.1" y2="76.3"/>
			<line class="st1" x1="90.3" y1="41.2" x2="58.5" y2="76.8"/>
			<line class="st1" x1="93.7" y1="41.7" x2="61.9" y2="77.3"/>
			<line class="st1" x1="97.1" y1="42.2" x2="65.3" y2="77.7"/>
			<line class="st1" x1="100.5" y1="42.6" x2="68.8" y2="78.2"/>
		</g>
		<g class="st2">
			<line class="st1" x1="94.7" y1="53.8" x2="62.9" y2="89.4"/>
			<line class="st1" x1="98.1" y1="54.3" x2="66.3" y2="89.9"/>
			<line class="st1" x1="101.5" y1="54.8" x2="69.7" y2="90.4"/>
			<line class="st1" x1="104.9" y1="55.3" x2="73.2" y2="90.9"/>
			<line class="st1" x1="108.3" y1="55.8" x2="76.6" y2="91.4"/>
			<line class="st1" x1="111.7" y1="56.2" x2="80" y2="91.8"/>
			<line class="st1" x1="115.2" y1="56.7" x2="83.4" y2="92.3"/>
			<line class="st1" x1="118.6" y1="57.2" x2="86.8" y2="92.8"/>
			<line class="st1" x1="122" y1="57.7" x2="90.2" y2="93.3"/>
			<line class="st1" x1="125.4" y1="58.2" x2="93.6" y2="93.8"/>
			<line class="st1" x1="128.8" y1="58.7" x2="97" y2="94.3"/>
			<line class="st1" x1="132.2" y1="59.2" x2="100.5" y2="94.8"/>
			<line class="st1" x1="135.6" y1="59.6" x2="103.9" y2="95.2"/>
			<line class="st1" x1="139.1" y1="60.1" x2="107.3" y2="95.7"/>
		</g>
	</g>
	<path class="st3" d="M48.5,48.8c0,0,0.5-11.7,8.3-8.7l35.6,16c0,0,7.3,3.4,7.8,10.2c0,0,2.9,13.1-2.4,15.6
		c-5.4,2.4-17.6-1.5-17.6-1.5l-16.6-5.8c0,0-13.2-4.4-14.1-13.6S48.5,48.8,48.5,48.8z"/>
	<path class="st3" d="M34.2,48.8c0,0,10.7,6.5,9.6,1c-1.1-5.5-0.5-14-10.1-24.4S15,7.9,15,7.9s-3.2-3.5-2.7,6s1.5,8.5,1.5,8.5"/>
	<polygon class="st4" points="53.6,51 35.1,80.7 52.2,94.8 74.6,64.6 	"/>
	<polyline class="st5" points="73.1,77.3 52.4,95 73.9,59 	"/>
	<polygon class="st4" points="76.8,76 76.8,59.5 54.9,46.4 50.5,51 70.5,64.9 73.4,79 	"/>
	<line class="st3" x1="70.2" y1="64.6" x2="76.6" y2="59.3"/>
	<polyline class="st1" points="54.9,53.5 39.5,78.4 55.4,90.5 55.6,90.7 	"/>
	<polygon class="st4" points="28.3,35 32.7,48.6 35.6,46.2 33.6,30.6 19,18.4 13.2,24.3 	"/>
	<polyline class="st6" points="32.4,47.6 13.7,62.7 28.6,35.9 	"/>
	<polyline class="st3" points="14.3,25.1 0,51 13.7,62.7 	"/>
	<polyline class="st1" points="16.5,26.3 3.7,48.5 16.1,58.1 	"/>
	<path class="st3" d="M97.5,82c4.3-0.1,9.3-3.8,9.3-3.8s7.8-6.3,10.7-8.7s2.4-4.4,2.4-4.4v-5.8c0-2.9-2.4-2.9-2.4-2.9h-6.8
		c-16.6-2.4-34.1-11.7-34.1-11.7l-12.9-7c0,0-4.9-4.4-12.2,2.9"/>
	<path class="st3" d="M104.1,72.6c0,0,0,4.4,2.9,2.4s9.3-5.8,8.3-9.7c0,0-0.5-3.9-7.3-4.4c0,0-3.9,0-3.9,5.3v5.6V72.6z"/>
	<path class="st1" d="M110.2,61.3c0,0,3.5,3.3,0,6.7l-6.1,5.2"/>
	<path class="st3" d="M12.8,8.4c0,0,0.1-3.3,3-5.7l1.5-1c0,0,0.5,3.9,7.3,9.7s21.9,14.1,21.9,25.8v9.2c0,0,0,1.9,2,1"/>
	<path class="st3" d="M41.5,51.6c0,0,6.6,0.9,7.6,4.4"/>
	<line class="st1" x1="118.6" y1="56.6" x2="40.3" y2="24.2"/>
	<path class="st1" d="M17.1,1.4c0,0,1.5-2.4,7.3-1c0,0,30,14.7,51.2,38.3"/>
</g>
</svg>
