<svg width="25" height="25" viewBox="0 0 25 25" fill="none" xmlns="http://www.w3.org/2000/svg">
<path d="M6.02886 0.273838C5.76042 0.298073 5.30183 0.376368 5.02221 0.44907C2.84299 1.01018 1.12796 2.72522 0.566847 4.90443C0.492281 5.1971 0.41585 5.6445 0.389751 5.94836C0.378566 6.09377 0.37111 8.28975 0.37111 12.1859C0.37111 18.7254 0.367381 18.4532 0.473639 19.0367C0.766313 20.6305 1.67789 22.051 3.00518 22.985C3.93353 23.6374 4.97747 24.0084 6.13138 24.096C6.53032 24.1258 18.4945 24.1128 18.7145 24.0811C19.7883 23.9282 20.5955 23.6374 21.4064 23.1136C21.7662 22.8806 22.0085 22.6848 22.3552 22.3437C22.9518 21.7621 23.3768 21.1562 23.7012 20.418C23.951 19.855 24.0945 19.3238 24.1989 18.5967C24.2306 18.3768 24.2436 6.41254 24.2138 6.01361C24.1299 4.92307 23.7944 3.92947 23.2053 3.04026C22.2676 1.6235 20.8154 0.661585 19.1545 0.355862C18.571 0.249603 18.8506 0.253332 12.2664 0.255196C8.93882 0.257061 6.13138 0.266382 6.02886 0.273838ZM18.5281 2.32256C20.2562 2.53507 21.6562 3.76729 22.0793 5.44504C22.208 5.95582 22.2005 5.4991 22.2005 12.1933C22.2005 17.5174 22.1968 18.2668 22.1725 18.4606C22.0793 19.1672 21.8109 19.8364 21.384 20.4124C21.205 20.6548 20.7726 21.0873 20.5302 21.2662C19.9542 21.6931 19.2849 21.9616 18.5784 22.0548C18.3846 22.079 17.6352 22.0827 12.3111 22.0827C5.61688 22.0827 6.0736 22.0902 5.56281 21.9616C3.87947 21.5365 2.63421 20.116 2.44033 18.3935C2.42542 18.2668 2.42169 16.4082 2.42542 12.0815L2.43101 5.94836L2.48321 5.69111C2.78521 4.17927 3.83287 2.98247 5.26828 2.50897C5.51435 2.42881 5.91141 2.33933 6.13138 2.31697C6.30102 2.29832 18.3808 2.30578 18.5281 2.32256Z" fill="white"/>
<path d="M18.6121 4.2503C18.0938 4.37147 17.6968 4.75735 17.57 5.27C17.5271 5.44337 17.5308 5.74536 17.5775 5.92805C17.7825 6.73337 18.6643 7.16958 19.4323 6.84708C19.6392 6.76133 19.9039 6.54882 20.0214 6.37545C20.3476 5.89449 20.3439 5.26068 20.0102 4.79277C19.8443 4.55975 19.6169 4.39198 19.3354 4.29317C19.1956 4.24471 19.1378 4.23725 18.9476 4.23166C18.8022 4.22606 18.6848 4.23352 18.6121 4.2503Z" fill="white"/>
<path d="M11.9192 6.26706C10.4539 6.38264 9.13409 6.9829 8.11812 8.00073C7.17858 8.93841 6.60255 10.1166 6.41614 11.4755C6.3714 11.8055 6.3714 12.5866 6.418 12.9203C6.55036 13.8915 6.84862 14.6912 7.37059 15.4742C8.18337 16.6952 9.39694 17.5676 10.7951 17.9349C11.6712 18.1642 12.6257 18.1903 13.5111 18.0076C14.652 17.7727 15.6736 17.2209 16.505 16.3876C17.4501 15.4425 18.0243 14.2755 18.2051 12.9296C18.2461 12.6183 18.2517 11.8297 18.2144 11.5315C18.0392 10.1445 17.4613 8.95332 16.4957 7.98955C15.5636 7.05933 14.3724 6.47771 13.0377 6.30248C12.8251 6.27265 12.1168 6.25214 11.9192 6.26706ZM12.6648 8.08462C13.4627 8.15173 14.255 8.4705 14.8925 8.97755C15.1031 9.14719 15.4499 9.50511 15.6121 9.72322C16.0296 10.2825 16.285 10.8939 16.3969 11.5967C16.4416 11.8838 16.4416 12.5046 16.3969 12.7972C16.1135 14.6073 14.7247 15.9961 12.9146 16.2795C12.6294 16.3242 11.9844 16.3242 11.7085 16.2795C10.3439 16.0595 9.20866 15.2262 8.61026 14.0052C7.99136 12.745 8.05474 11.2649 8.7799 10.0644C9.10986 9.52003 9.63742 8.99247 10.1818 8.66251C10.9256 8.21325 11.8017 8.01005 12.6648 8.08462Z" fill="white"/>
</svg>
