<svg width="18" height="20" viewBox="0 0 18 20" fill="none" xmlns="http://www.w3.org/2000/svg">
<path d="M6 10L17 10L6 10ZM17 10L14 7L17 10ZM17 10L14 13L17 10Z" fill="black"/>
<path d="M17 10L14 13M6 10L17 10L6 10ZM17 10L14 7L17 10Z" stroke="black" stroke-width="1.5" stroke-linecap="round" stroke-linejoin="round"/>
<path d="M1.5 14L1.5 6C1.5 5.01367 1.5047 4.69515 1.5431 4.45248C1.7803 2.95485 2.9549 1.78029 4.4525 1.54309C4.6952 1.50466 5.0137 1.5 6 1.5C6.9863 1.5 7.3048 1.50466 7.5475 1.54309C9.0451 1.78029 10.2197 2.95485 10.4569 4.45248C10.4953 4.69515 10.5 5.01367 10.5 6L10.5 6.25C10.5 6.66421 10.8358 7 11.25 7C11.6642 7 12 6.66421 12 6.25L12 6C12 5.07099 12 4.60649 11.9384 4.21783C11.5996 2.07837 9.9216 0.40042 7.7822 0.0615597C7.3935 -2.87038e-07 6.929 -2.2166e-07 6 -2.62268e-07C5.071 -3.02876e-07 4.6065 -4.08862e-07 4.2178 0.0615596C2.0784 0.400419 0.4004 2.07836 0.0615995 4.21783C-2.01356e-07 4.60649 -2.2166e-07 5.07099 -2.62268e-07 6L-6.11959e-07 14C-6.52567e-07 14.929 -6.72871e-07 15.3935 0.061599 15.7822C0.400399 17.9216 2.0784 19.5996 4.2178 19.9384C4.6065 20 5.071 20 6 20C6.929 20 7.3935 20 7.7822 19.9384C9.9216 19.5996 11.5996 17.9216 11.9384 15.7822C12 15.3935 12 14.929 12 14L12 13.75C12 13.3358 11.6642 13 11.25 13C10.8358 13 10.5 13.3358 10.5 13.75L10.5 14C10.5 14.9863 10.4953 15.3048 10.4569 15.5475C10.2197 17.0451 9.0451 18.2197 7.5475 18.4569C7.3048 18.4953 6.9863 18.5 6 18.5C5.0137 18.5 4.6952 18.4953 4.4525 18.4569C2.9549 18.2197 1.7803 17.0451 1.5431 15.5475C1.5047 15.3048 1.5 14.9863 1.5 14Z" fill="black"/>
</svg>
