<svg width="60" height="22" viewBox="0 0 60 22" fill="none" xmlns="http://www.w3.org/2000/svg">
<path d="M60 4.28629C60 3.71326 59.5667 3.25483 59.0251 3.25483L55.0388 3.07146L53.0673 2.95686C53.0565 2.95686 53.0348 2.95686 53.024 2.95686C52.634 2.95686 52.2982 3.19753 52.1466 3.55281V3.56427C52.1141 3.6445 52.0816 3.72472 52.0708 3.81641L49.8718 11.2658L49.0811 13.7757C48.8752 14.6811 48.1062 15.3573 47.1854 15.3573C46.3838 15.3573 45.6906 14.8416 45.3981 14.1196C45.1814 13.3058 45.4306 12.4692 45.5064 12.2629L45.5172 12.2171L48.6261 3.26629C48.6911 3.12877 48.7236 2.97978 48.7236 2.83079C48.7236 2.32652 48.377 1.91393 47.9328 1.82225L47.3479 1.76494L42.0617 1.50135H42.0184H41.8993C41.8884 1.50135 41.8884 1.50135 41.8776 1.50135C41.4876 1.50135 41.1518 1.74202 41.0002 2.0973L40.9893 2.14315C40.9785 2.17753 40.9677 2.21191 40.9569 2.24629L40.6969 2.92247L37.0789 13.7299H37.0681C36.8731 14.6582 36.0932 15.3573 35.1616 15.3573C34.5766 15.3573 34.0459 15.0823 33.6884 14.6467C33.0385 13.7987 33.5151 12.3661 33.6776 11.9535C33.6776 11.942 33.6884 11.942 33.6884 11.9306L37.1114 1.93685C37.1981 1.75348 37.2522 1.54719 37.2522 1.32944C37.2522 0.595955 36.6889 0 35.9957 0C35.8115 0 35.6382 0.0458427 35.4757 0.126067L34.4575 0.618877C33.1251 1.12315 30.1354 1.86809 25.965 0.664719L24.4268 0.0916854H24.416C24.3076 0.0458427 24.1885 0.0229214 24.0585 0.0114607L23.8094 0.0229214C23.2027 0.114607 22.7261 0.664719 22.7261 1.32944C22.7261 1.47843 22.7586 1.62742 22.8019 1.76494L26.5066 12.1942C26.6149 12.5151 26.9074 13.5924 26.4524 14.4175C26.3008 14.6697 26.095 14.876 25.8567 15.0364C25.8133 15.0593 25.7808 15.0823 25.7375 15.1052C25.4667 15.2542 25.1526 15.3459 24.8276 15.3459C24.1885 15.3459 23.636 15.002 23.2786 14.4978L23.0078 13.9706L22.8778 13.5694L19.1081 2.20045C19.0323 2.01708 18.9348 1.87955 18.8373 1.77641C18.8265 1.76494 18.8157 1.75348 18.794 1.74202L18.7832 1.73056C18.7723 1.7191 18.7615 1.70764 18.7507 1.70764C18.729 1.68472 18.7073 1.67326 18.6857 1.6618C18.664 1.63888 18.6424 1.62742 18.6099 1.61596C18.5882 1.6045 18.5665 1.59303 18.5449 1.58157C18.5232 1.57011 18.5124 1.55865 18.4907 1.55865C18.4582 1.54719 18.4257 1.53573 18.3932 1.52427C18.3824 1.52427 18.3824 1.52427 18.3715 1.51281H18.3607C18.339 1.50135 18.3066 1.48989 18.2741 1.48989C18.1116 1.46697 17.9924 1.47843 17.9924 1.47843L12.273 1.76494L11.9913 1.82225C11.5905 1.94832 11.2981 2.33798 11.2981 2.80787C11.2981 2.96832 11.3306 3.1173 11.3956 3.24337L14.6886 12.538H14.6669C14.7536 12.7672 14.7969 13.0079 14.7969 13.2715C14.7969 14.4175 13.9195 15.3344 12.8471 15.3344C12.2838 15.3344 11.7747 15.0823 11.4172 14.6811C11.3956 14.6697 11.3847 14.6467 11.3631 14.6124C11.3631 14.6124 11.3631 14.6124 11.3631 14.6009C11.2439 14.4519 11.1464 14.2915 11.0706 14.1196C10.8106 13.6267 10.7565 13.26 10.7565 13.26L7.92923 3.67888C7.81007 3.24337 7.44178 2.92247 6.99765 2.92247C6.95432 2.92247 6.90016 2.93393 6.85683 2.93393V2.95686L0.974905 3.24337C0.433291 3.24337 0 3.7018 0 4.27483C0 4.43528 0.043329 4.59573 0.108323 4.73326L5.64362 20.8011L5.65445 20.8126C5.8386 21.4085 6.35855 21.8441 6.97599 21.8441C7.01932 21.8441 7.05181 21.8326 7.09514 21.8326L7.11681 21.8441H53.1648L53.1865 21.8326C53.7498 21.7638 54.2047 21.3398 54.3564 20.7897L54.3672 20.7782L59.9025 4.74472C59.9567 4.59573 60 4.44674 60 4.28629Z" fill="url(#paint0_linear_522_1421)"/>
<defs>
<linearGradient id="paint0_linear_522_1421" x1="-0.000866582" y1="10.9242" x2="59.9968" y2="10.9242" gradientUnits="userSpaceOnUse">
<stop stop-color="#0099DC"/>
<stop offset="1" stop-color="#00B1E5"/>
</linearGradient>
</defs>
</svg>
