<svg width="20" height="16" viewBox="0 0 20 16" fill="none" xmlns="http://www.w3.org/2000/svg">
<path d="M2.5 0.5C1.11929 0.5 0 1.61929 0 3V13C0 14.3807 1.11929 15.5 2.5 15.5H17.5C18.8807 15.5 20 14.3807 20 13V3C20 1.61929 18.8807 0.5 17.5 0.5H2.5ZM1.66667 3.44599L8.61325 8.07704C9.453 8.63687 10.547 8.63687 11.3868 8.07704L18.3333 3.44599V13C18.3333 13.4602 17.9602 13.8333 17.5 13.8333H2.5C2.03976 13.8333 1.66667 13.4602 1.66667 13V3.44599ZM17.2477 2.16667L10.4622 6.69029C10.1823 6.8769 9.81767 6.8769 9.53775 6.69029L2.75231 2.16667H17.2477Z" fill="black"/>
</svg>
