<svg width="18" height="19" viewBox="0 0 18 19" fill="none" xmlns="http://www.w3.org/2000/svg">
<path d="M8.56548 2.49218C8.83224 2.32916 9.1678 2.32916 9.43456 2.49218L15.2679 6.05699C15.5156 6.20837 15.6667 6.47776 15.6667 6.76806V15.8333C15.6667 16.2936 15.2936 16.6667 14.8334 16.6667H12.3334V11.6667C12.3334 10.286 11.2141 9.16667 9.83335 9.16667H8.16669C6.78598 9.16667 5.66669 10.286 5.66669 11.6667V16.6667H3.16669C2.70645 16.6667 2.33335 16.2936 2.33335 15.8333V6.76806C2.33335 6.47776 2.48443 6.20837 2.73215 6.05699L8.56548 2.49218ZM7.33335 16.6667V11.6667C7.33335 11.2064 7.70645 10.8333 8.16669 10.8333H9.83335C10.2936 10.8333 10.6667 11.2064 10.6667 11.6667V16.6667H7.33335ZM11.5 18.3333H14.8334C16.2141 18.3333 17.3334 17.2141 17.3334 15.8333V6.76806C17.3334 5.89715 16.8801 5.089 16.137 4.63486L10.3036 1.07004C9.50337 0.580982 8.49668 0.580982 7.6964 1.07004L1.86306 4.63486C1.11993 5.089 0.666687 5.89715 0.666687 6.76806V15.8333C0.666687 17.2141 1.78597 18.3333 3.16669 18.3333H6.50002H11.5Z" fill="black"/>
</svg>
