<svg width="20" height="18" viewBox="0 0 20 18" fill="none" xmlns="http://www.w3.org/2000/svg">
<path d="M1.66667 3.25928C1.66667 2.79904 2.03976 2.42594 2.5 2.42594H12.0833C12.5436 2.42594 12.9167 2.79904 12.9167 3.25928V5.29631C12.9167 5.75655 13.2898 6.12965 13.75 6.12965C14.2102 6.12965 14.5833 5.75655 14.5833 5.29631V3.25928C14.5833 1.87857 13.464 0.759277 12.0833 0.759277H2.5C1.11929 0.759277 0 1.87857 0 3.25928V14.7408C0 16.1215 1.11929 17.2408 2.5 17.2408H12.0833C13.464 17.2408 14.5833 16.1215 14.5833 14.7408V12.7037C14.5833 12.2435 14.2102 11.8704 13.75 11.8704C13.2898 11.8704 12.9167 12.2435 12.9167 12.7037V14.7408C12.9167 15.201 12.5436 15.5741 12.0833 15.5741H2.5C2.03976 15.5741 1.66667 15.201 1.66667 14.7408V3.25928ZM16.8393 5.91076C16.5138 5.58532 15.9862 5.58532 15.6607 5.91076C15.3353 6.2362 15.3353 6.76383 15.6607 7.08927L16.7382 8.16668H6.66667C6.20643 8.16668 5.83333 8.53978 5.83333 9.00002C5.83333 9.46025 6.20643 9.83335 6.66667 9.83335H16.7382L15.6607 10.9108C15.3353 11.2362 15.3353 11.7638 15.6607 12.0893C15.9862 12.4147 16.5138 12.4147 16.8393 12.0893L19.3393 9.58927C19.6647 9.26383 19.6647 8.7362 19.3393 8.41076L16.8393 5.91076Z" fill="black"/>
</svg>
