<svg width="14" height="19" viewBox="0 0 14 19" fill="none" xmlns="http://www.w3.org/2000/svg">
<path d="M4.49998 5.00004C4.49998 3.61933 5.61927 2.50004 6.99998 2.50004C8.38069 2.50004 9.49998 3.61933 9.49998 5.00004C9.49998 6.38075 8.38069 7.50004 6.99998 7.50004C5.61927 7.50004 4.49998 6.38075 4.49998 5.00004ZM6.99998 0.833374C4.69879 0.833374 2.83331 2.69885 2.83331 5.00004C2.83331 7.30123 4.69879 9.16671 6.99998 9.16671C9.30117 9.16671 11.1666 7.30123 11.1666 5.00004C11.1666 2.69885 9.30117 0.833374 6.99998 0.833374ZM4.49998 10.8334C2.19879 10.8334 0.333313 12.6989 0.333313 15V17.5C0.333313 17.9603 0.706409 18.3334 1.16665 18.3334C1.62688 18.3334 1.99998 17.9603 1.99998 17.5V15C1.99998 13.6193 3.11927 12.5 4.49998 12.5H9.49998C10.8807 12.5 12 13.6193 12 15V17.5C12 17.9603 12.3731 18.3334 12.8333 18.3334C13.2936 18.3334 13.6666 17.9603 13.6666 17.5V15C13.6666 12.6989 11.8012 10.8334 9.49998 10.8334H4.49998Z" fill="black"/>
</svg>
