<svg width="18" height="15" viewBox="0 0 18 15" fill="none" xmlns="http://www.w3.org/2000/svg">
<path d="M1.91669 0.5C1.22633 0.5 0.666687 1.05964 0.666687 1.75C0.666687 2.44036 1.22633 3 1.91669 3C2.60704 3 3.16669 2.44036 3.16669 1.75C3.16669 1.05964 2.60704 0.5 1.91669 0.5ZM1.91669 6.33333C1.22633 6.33333 0.666687 6.89298 0.666687 7.58333C0.666687 8.27369 1.22633 8.83333 1.91669 8.83333C2.60704 8.83333 3.16669 8.27369 3.16669 7.58333C3.16669 6.89298 2.60704 6.33333 1.91669 6.33333ZM0.666687 13.4167C0.666687 12.7263 1.22633 12.1667 1.91669 12.1667C2.60704 12.1667 3.16669 12.7263 3.16669 13.4167C3.16669 14.107 2.60704 14.6667 1.91669 14.6667C1.22633 14.6667 0.666687 14.107 0.666687 13.4167ZM6.08335 0.5C5.393 0.5 4.83335 1.05964 4.83335 1.75C4.83335 2.44036 5.393 3 6.08335 3H16.0834C16.7737 3 17.3334 2.44036 17.3334 1.75C17.3334 1.05964 16.7737 0.5 16.0834 0.5H6.08335ZM4.83335 7.58333C4.83335 6.89298 5.393 6.33333 6.08335 6.33333H16.0834C16.7737 6.33333 17.3334 6.89298 17.3334 7.58333C17.3334 8.27369 16.7737 8.83333 16.0834 8.83333H6.08335C5.393 8.83333 4.83335 8.27369 4.83335 7.58333ZM6.08335 12.1667C5.393 12.1667 4.83335 12.7263 4.83335 13.4167C4.83335 14.107 5.393 14.6667 6.08335 14.6667H16.0834C16.7737 14.6667 17.3334 14.107 17.3334 13.4167C17.3334 12.7263 16.7737 12.1667 16.0834 12.1667H6.08335Z" fill="black"/>
</svg>
