<svg width="19" height="19" viewBox="0 0 19 19" fill="none" xmlns="http://www.w3.org/2000/svg">
<path d="M1.93215 2.51445C0.751809 3.69478 0.214776 5.52555 1.23311 7.11906C2.07458 8.4358 3.5517 10.3547 6.13995 12.9429C8.72819 15.5312 10.6471 17.0083 11.9638 17.8498C13.5573 18.8681 15.3881 18.3311 16.5684 17.1507L17.827 15.8922C18.8033 14.9159 18.8033 13.333 17.827 12.3567L16.1763 10.706C15.4415 9.97116 14.3051 9.82041 13.4041 10.3383C12.8687 10.6459 12.1935 10.5564 11.7569 10.1197L8.96312 7.32597C8.5265 6.88935 8.43693 6.21417 8.74461 5.67881C9.26246 4.77777 9.11171 3.64141 8.37685 2.90655L6.72621 1.25591C5.7499 0.279603 4.16699 0.279605 3.19068 1.25592L1.93215 2.51445ZM2.6375 6.22158C2.15413 5.46519 2.31905 4.48456 3.11066 3.69296L4.36919 2.43443C4.69463 2.10899 5.22226 2.10899 5.5477 2.43443L7.19834 4.08506C7.40066 4.28739 7.44217 4.60026 7.29959 4.84834C6.61664 6.03666 6.81545 7.53533 7.78461 8.50448L10.5784 11.2983C11.5475 12.2674 13.0462 12.4662 14.2345 11.7833C14.4826 11.6407 14.7955 11.6822 14.9978 11.8845L16.6484 13.5352C16.9739 13.8606 16.9739 14.3882 16.6484 14.7137L15.3899 15.9722C14.5983 16.7638 13.6177 16.9287 12.8613 16.4454C11.6683 15.683 9.84235 14.2883 7.31846 11.7644C4.79457 9.24052 3.39989 7.41458 2.6375 6.22158ZM11.667 1.50003C11.667 1.03979 12.0401 0.666692 12.5003 0.666692C15.722 0.666692 18.3337 3.27836 18.3337 6.50003C18.3337 6.96026 17.9606 7.33336 17.5003 7.33336C17.0401 7.33336 16.667 6.96026 16.667 6.50003C16.667 4.19884 14.8015 2.33336 12.5003 2.33336C12.0401 2.33336 11.667 1.96026 11.667 1.50003ZM11.667 4.83336C11.667 4.37312 12.0401 4.00003 12.5003 4.00003C13.881 4.00003 15.0003 5.11931 15.0003 6.50003C15.0003 6.96026 14.6272 7.33336 14.167 7.33336C13.7068 7.33336 13.3337 6.96026 13.3337 6.50003C13.3337 6.03979 12.9606 5.66669 12.5003 5.66669C12.0401 5.66669 11.667 5.2936 11.667 4.83336Z" fill="black"/>
</svg>
