<svg width="19" height="19" viewBox="0 0 19 19" fill="none" xmlns="http://www.w3.org/2000/svg">
<path d="M1.93166 2.51445C0.751321 3.69478 0.214288 5.52555 1.23262 7.11906C2.07409 8.4358 3.55121 10.3547 6.13946 12.9429C8.72771 15.5312 10.6466 17.0083 11.9633 17.8498C13.5568 18.8681 15.3876 18.3311 16.5679 17.1507L17.8265 15.8922C18.8028 14.9159 18.8028 13.333 17.8265 12.3567L16.1758 10.706C15.441 9.97116 14.3046 9.82041 13.4036 10.3383C12.8682 10.6459 12.193 10.5564 11.7564 10.1197L8.96263 7.32597C8.52601 6.88935 8.43644 6.21417 8.74412 5.67881C9.26197 4.77777 9.11122 3.64141 8.37636 2.90655L6.72572 1.25591C5.74941 0.279603 4.1665 0.279605 3.19019 1.25592L1.93166 2.51445ZM2.63701 6.22158C2.15364 5.46519 2.31856 4.48456 3.11017 3.69296L4.3687 2.43443C4.69414 2.10899 5.22178 2.10899 5.54721 2.43443L7.19785 4.08506C7.40017 4.28739 7.44168 4.60026 7.2991 4.84834C6.61615 6.03666 6.81496 7.53533 7.78412 8.50448L10.5779 11.2983C11.547 12.2674 13.0457 12.4662 14.234 11.7833C14.4821 11.6407 14.795 11.6822 14.9973 11.8845L16.648 13.5352C16.9734 13.8606 16.9734 14.3882 16.648 14.7137L15.3894 15.9722C14.5978 16.7638 13.6172 16.9287 12.8608 16.4454C11.6678 15.683 9.84186 14.2883 7.31797 11.7644C4.79408 9.24052 3.3994 7.41458 2.63701 6.22158ZM11.6665 1.50003C11.6665 1.03979 12.0396 0.666692 12.4998 0.666692C15.7215 0.666692 18.3332 3.27836 18.3332 6.50003C18.3332 6.96026 17.9601 7.33336 17.4998 7.33336C17.0396 7.33336 16.6665 6.96026 16.6665 6.50003C16.6665 4.19884 14.801 2.33336 12.4998 2.33336C12.0396 2.33336 11.6665 1.96026 11.6665 1.50003ZM11.6665 4.83336C11.6665 4.37312 12.0396 4.00003 12.4998 4.00003C13.8805 4.00003 14.9998 5.11931 14.9998 6.50003C14.9998 6.96026 14.6267 7.33336 14.1665 7.33336C13.7063 7.33336 13.3332 6.96026 13.3332 6.50003C13.3332 6.03979 12.9601 5.66669 12.4998 5.66669C12.0396 5.66669 11.6665 5.2936 11.6665 4.83336Z" fill="url(#paint0_linear_231_848)"/>
<defs>
<linearGradient id="paint0_linear_231_848" x1="1.26093" y1="0.523682" x2="14.8475" y2="0.523682" gradientUnits="userSpaceOnUse">
<stop stop-color="#009FDF"/>
<stop offset="1" stop-color="#3CC39D"/>
</linearGradient>
</defs>
</svg>
