<svg width="19" height="19" viewBox="0 0 19 19" fill="none" xmlns="http://www.w3.org/2000/svg">
<path d="M1.93215 2.5142C0.751809 3.69454 0.214776 5.52531 1.23311 7.11881C2.07458 8.43556 3.5517 10.3544 6.13995 12.9427C8.72819 15.5309 10.6471 17.008 11.9638 17.8495C13.5573 18.8678 15.3881 18.3308 16.5684 17.1505L17.827 15.8919C18.8033 14.9156 18.8033 13.3327 17.827 12.3564L16.1763 10.7058C15.4415 9.97091 14.3051 9.82017 13.4041 10.338C12.8687 10.6457 12.1935 10.5561 11.7569 10.1195L8.96312 7.32573C8.5265 6.88911 8.43693 6.21393 8.74461 5.67857C9.26246 4.77753 9.11171 3.64117 8.37685 2.90631L6.72621 1.25567C5.7499 0.279358 4.16699 0.279361 3.19068 1.25567L1.93215 2.5142ZM2.6375 6.22134C2.15413 5.46495 2.31905 4.48432 3.11066 3.69271L4.36919 2.43418C4.69463 2.10874 5.22226 2.10874 5.5477 2.43418L7.19834 4.08482C7.40066 4.28714 7.44217 4.60001 7.29959 4.84809C6.61664 6.03641 6.81545 7.53508 7.78461 8.50424L10.5784 11.298C11.5475 12.2672 13.0462 12.466 14.2345 11.783C14.4826 11.6405 14.7955 11.682 14.9978 11.8843L16.6484 13.5349C16.9739 13.8604 16.9739 14.388 16.6484 14.7134L15.3899 15.972C14.5983 16.7636 13.6177 16.9285 12.8613 16.4451C11.6683 15.6827 9.84235 14.2881 7.31846 11.7642C4.79457 9.24027 3.39989 7.41434 2.6375 6.22134ZM11.667 1.49978C11.667 1.03954 12.0401 0.666448 12.5003 0.666448C15.722 0.666448 18.3337 3.27812 18.3337 6.49978C18.3337 6.96002 17.9606 7.33311 17.5003 7.33311C17.0401 7.33311 16.667 6.96002 16.667 6.49978C16.667 4.19859 14.8015 2.33311 12.5003 2.33311C12.0401 2.33311 11.667 1.96002 11.667 1.49978ZM11.667 4.83311C11.667 4.37288 12.0401 3.99978 12.5003 3.99978C13.881 3.99978 15.0003 5.11907 15.0003 6.49978C15.0003 6.96002 14.6272 7.33311 14.167 7.33311C13.7068 7.33311 13.3337 6.96002 13.3337 6.49978C13.3337 6.03954 12.9606 5.66645 12.5003 5.66645C12.0401 5.66645 11.667 5.29335 11.667 4.83311Z" fill="black"/>
</svg>
