<svg width="20" height="20" viewBox="0 0 20 20" fill="none" xmlns="http://www.w3.org/2000/svg">
<path fill-rule="evenodd" clip-rule="evenodd" d="M2.14286 3.57143V5.71429C0.957143 5.71429 0 6.67357 0 7.85714V14.2857C0 15.4693 0.957143 16.4286 2.14286 16.4286H2.85714V17.8571C2.85714 19.0407 3.81429 20 5 20H15C16.1857 20 17.1429 19.0407 17.1429 17.8571V16.4286H17.8571C19.0429 16.4286 20 15.4693 20 14.2857V7.85714C20 6.67357 19.0429 5.71429 17.8571 5.71429V3.57143C17.8571 1.59929 16.2571 0 14.2857 0H5.71429C3.74286 0 2.14286 1.59929 2.14286 3.57143ZM5.71429 1.42857C4.52857 1.42857 3.57143 2.38786 3.57143 3.57143V5.71429H16.4286V3.57143C16.4286 2.38786 15.4714 1.42857 14.2857 1.42857H5.71429ZM17.1429 15H17.8571C18.25 15 18.5714 14.68 18.5714 14.2857V7.85714C18.5714 7.46286 18.25 7.14286 17.8571 7.14286H2.14286C1.75 7.14286 1.42857 7.46286 1.42857 7.85714V14.2857C1.42857 14.68 1.75 15 2.14286 15H2.85714V13.5714C2.85714 12.3879 3.81429 11.4286 5 11.4286H15C16.1857 11.4286 17.1429 12.3879 17.1429 13.5714V15ZM4.28571 13.5714C4.28571 13.1771 4.60714 12.8571 5 12.8571H15C15.3929 12.8571 15.7143 13.1771 15.7143 13.5714V17.8571C15.7143 18.2514 15.3929 18.5714 15 18.5714H5C4.60714 18.5714 4.28571 18.2514 4.28571 17.8571V13.5714Z" fill="white"/>
</svg>
