<svg width="22" height="23" viewBox="0 0 22 23" fill="none" xmlns="http://www.w3.org/2000/svg">
<path d="M5.5 7.0716C5.5 6.63946 5.85357 6.28589 6.28571 6.28589H15.7143C16.1464 6.28589 16.5 6.63946 16.5 7.0716C16.5 7.50375 16.1464 7.85732 15.7143 7.85732H6.28571C5.85357 7.85732 5.5 7.50375 5.5 7.0716Z" fill="url(#paint0_linear_873_1977)"/>
<path d="M6.28571 11C5.85357 11 5.5 11.3536 5.5 11.7857C5.5 12.2179 5.85357 12.5714 6.28571 12.5714H12.5714C13.0036 12.5714 13.3571 12.2179 13.3571 11.7857C13.3571 11.3536 13.0036 11 12.5714 11H6.28571Z" fill="url(#paint1_linear_873_1977)"/>
<path fill-rule="evenodd" clip-rule="evenodd" d="M22 3.92857V14.9286C22 17.0971 20.24 18.8571 18.0714 18.8571H6.5371L2.48288 21.7486C1.44574 22.495 0 21.7486 0 20.4758V3.92857C0 1.76 1.76 0 3.92857 0H18.0714C20.24 0 22 1.76 22 3.92857ZM20.4286 14.9286V3.92857C20.4286 2.62429 19.3757 1.57143 18.0714 1.57143H3.92857C2.62429 1.57143 1.57143 2.62429 1.57143 3.92857V20.4758L6.03433 17.2857H18.0714C19.3757 17.2857 20.4286 16.2329 20.4286 14.9286Z" fill="url(#paint2_linear_873_1977)"/>
<defs>
<linearGradient id="paint0_linear_873_1977" x1="6.27985" y1="6.28589" x2="15.8022" y2="6.28589" gradientUnits="userSpaceOnUse">
<stop stop-color="#009BDC"/>
<stop offset="1" stop-color="#3CC39D"/>
</linearGradient>
<linearGradient id="paint1_linear_873_1977" x1="6.05704" y1="11" x2="12.8587" y2="11" gradientUnits="userSpaceOnUse">
<stop stop-color="#009BDC"/>
<stop offset="1" stop-color="#3CC39D"/>
</linearGradient>
<linearGradient id="paint2_linear_873_1977" x1="1.5597" y1="0" x2="20.6045" y2="0" gradientUnits="userSpaceOnUse">
<stop stop-color="#009BDC"/>
<stop offset="1" stop-color="#3CC39D"/>
</linearGradient>
</defs>
</svg>
