<svg width="20" height="20" viewBox="0 0 20 20" fill="none" xmlns="http://www.w3.org/2000/svg">
<path fill-rule="evenodd" clip-rule="evenodd" d="M0 7.48992C0 11.6259 3.36842 14.9786 7.57895 14.9786C9.26316 14.9786 10.8271 14.3928 12.1504 13.4087C12.1504 13.5098 12.2707 13.6036 12.2707 13.6878L18.2857 19.6788C18.6466 20.0686 19.3684 20.0686 19.7293 19.6788C20.0902 19.289 20.0902 18.6562 19.7293 18.2665L13.7143 12.2755C13.594 12.1913 13.594 12.1263 13.4737 12.0782C14.4361 10.8102 15.0376 9.21865 15.0376 7.48992C15.0376 3.35278 11.6692 0 7.57895 0C3.36842 0 0 3.35278 0 7.48992ZM2.04531 7.48981C2.04531 4.45582 4.45133 1.99688 7.57915 1.99688C10.5867 1.99688 12.9927 4.45582 12.9927 7.48981C12.9927 10.5226 10.5867 12.9815 7.57915 12.9815C4.45133 12.9815 2.04531 10.5226 2.04531 7.48981Z" fill="#99B0B4"/>
</svg>
