<svg width="24" height="24" viewBox="0 0 24 24" fill="none" xmlns="http://www.w3.org/2000/svg">
<path d="M20.5 12L17.5 15M9.5 12L20.5 12L9.5 12ZM20.5 12L17.5 9L20.5 12Z" stroke="white" stroke-width="1.5" stroke-linecap="round" stroke-linejoin="round"/>
<path d="M5 16L5 8C5 7.01367 5.0047 6.69515 5.0431 6.45248C5.2803 4.95485 6.4549 3.78029 7.9525 3.54309C8.1952 3.50466 8.5137 3.5 9.5 3.5C10.4863 3.5 10.8048 3.50466 11.0475 3.54309C12.5451 3.78029 13.7197 4.95485 13.9569 6.45248C13.9953 6.69515 14 7.01367 14 8L14 8.25C14 8.66421 14.3358 9 14.75 9C15.1642 9 15.5 8.66421 15.5 8.25L15.5 8C15.5 7.07099 15.5 6.60649 15.4384 6.21783C15.0996 4.07837 13.4216 2.40042 11.2822 2.06156C10.8935 2 10.429 2 9.5 2C8.571 2 8.1065 2 7.7178 2.06156C5.5784 2.40042 3.9004 4.07836 3.5616 6.21783C3.5 6.60649 3.5 7.07099 3.5 8L3.5 16C3.5 16.929 3.5 17.3935 3.5616 17.7822C3.9004 19.9216 5.5784 21.5996 7.7178 21.9384C8.1065 22 8.571 22 9.5 22C10.429 22 10.8935 22 11.2822 21.9384C13.4216 21.5996 15.0996 19.9216 15.4384 17.7822C15.5 17.3935 15.5 16.929 15.5 16L15.5 15.75C15.5 15.3358 15.1642 15 14.75 15C14.3358 15 14 15.3358 14 15.75L14 16C14 16.9863 13.9953 17.3048 13.9569 17.5475C13.7197 19.0451 12.5451 20.2197 11.0475 20.4569C10.8048 20.4953 10.4863 20.5 9.5 20.5C8.5137 20.5 8.1952 20.4953 7.9525 20.4569C6.4549 20.2197 5.2803 19.0451 5.0431 17.5475C5.0047 17.3048 5 16.9863 5 16Z" fill="white"/>
</svg>
