<svg width="120" height="20" viewBox="0 0 120 20" fill="none" xmlns="http://www.w3.org/2000/svg">
<path d="M43.8233 6.78358L38.338 6.70279L36.1545 1.08139C35.7335 0.0438327 34.2644 0.0438327 33.8455 1.08139L31.662 6.70279L26.1767 6.78358C25.0413 6.84951 24.58 8.27611 25.4602 8.9926L29.908 12.8494L28.3921 18.1157C28.0944 19.1979 29.2659 20.0908 30.2311 19.5168L35 16.9081L39.7688 19.5147C40.7341 20.0887 41.9056 19.1958 41.6079 18.1136L40.092 12.8472L44.5398 8.9905C45.42 8.274 44.9587 6.84736 43.8233 6.78358Z" fill="#C4C4C4"/>
<path d="M68.8233 6.78358L63.338 6.70279L61.1545 1.08139C60.7335 0.0438327 59.2644 0.0438327 58.8455 1.08139L56.662 6.70279L51.1767 6.78358C50.0413 6.84951 49.58 8.27611 50.4602 8.9926L54.908 12.8494L53.3921 18.1157C53.0944 19.1979 54.2659 20.0908 55.2311 19.5168L60 16.9081L64.7688 19.5147C65.7341 20.0887 66.9056 19.1958 66.6079 18.1136L65.092 12.8472L69.5398 8.9905C70.42 8.274 69.9587 6.84736 68.8233 6.78358Z" fill="#C4C4C4"/>
<path d="M93.8233 6.78358L88.338 6.70279L86.1545 1.08139C85.7335 0.0438327 84.2644 0.0438327 83.8455 1.08139L81.662 6.70279L76.1767 6.78358C75.0413 6.84951 74.58 8.27611 75.4602 8.9926L79.908 12.8494L78.3921 18.1157C78.0944 19.1979 79.2659 20.0908 80.2311 19.5168L85 16.9081L89.7688 19.5147C90.7341 20.0887 91.9056 19.1958 91.6079 18.1136L90.092 12.8472L94.5398 8.9905C95.42 8.274 94.9587 6.84736 93.8233 6.78358Z" fill="#C4C4C4"/>
<path d="M18.8233 6.78358L13.338 6.70279L11.1545 1.08139C10.7335 0.0438327 9.26438 0.0438327 8.84552 1.08139L6.66201 6.70279L1.17666 6.78358C0.0413259 6.84951 -0.420038 8.27611 0.460168 8.9926L4.90797 12.8494L3.39206 18.1157C3.09441 19.1979 4.26589 20.0908 5.23114 19.5168L9.99999 16.9081L14.7688 19.5147C15.7341 20.0887 16.9056 19.1958 16.6079 18.1136L15.092 12.8472L19.5398 8.9905C20.42 8.274 19.9587 6.84736 18.8233 6.78358Z" fill="#C4C4C4"/>
<path d="M118.823 6.78358L113.338 6.70279L111.154 1.08139C110.733 0.0438327 109.264 0.0438327 108.846 1.08139L106.662 6.70279L101.177 6.78358C100.041 6.84951 99.58 8.27611 100.46 8.9926L104.908 12.8494L103.392 18.1157C103.094 19.1979 104.266 20.0908 105.231 19.5168L110 16.9081L114.769 19.5147C115.734 20.0887 116.906 19.1958 116.608 18.1136L115.092 12.8472L119.54 8.9905C120.42 8.274 119.959 6.84736 118.823 6.78358Z" fill="#C4C4C4"/>
</svg>
