<svg width="24" height="15" viewBox="0 0 24 15" fill="none" xmlns="http://www.w3.org/2000/svg">
<path d="M23.8706 13.4461C22.8905 11.65 20.3656 9.49184 19.3232 8.5527C19.038 8.29557 19.0074 7.85072 19.2671 7.56637C21.2563 5.38987 22.8474 2.88904 23.395 1.37787C23.6366 0.710319 23.1365 0.00499824 22.4317 0.00499824H20.3847C19.71 0.00499824 19.3151 0.251583 19.1269 0.64423C17.4736 4.09364 16.0555 5.58647 15.0627 6.45896C14.5069 6.94768 13.6402 6.54282 13.6402 5.79918C13.6402 4.36632 13.6402 2.51416 13.6402 1.20071C13.6402 0.563701 13.1286 0.0483172 12.4975 0.0483172L8.75791 0.00499824C8.28719 0.00499824 8.01829 0.547595 8.30083 0.928024L8.91828 1.8305C9.15064 2.14317 9.27609 2.5236 9.27609 2.91403L9.27282 6.97823C9.27282 7.68522 8.43119 8.03066 7.93156 7.53527C6.24122 5.85916 4.77451 2.43641 4.24652 0.799733C4.09379 0.326002 3.65798 0.00610898 3.1638 0.00499824L1.14728 0C0.390746 0 -0.162338 0.730312 0.0432955 1.46562C1.88582 8.05065 5.66632 14.3152 12.4037 14.9944C13.0675 15.0611 13.6402 14.5168 13.6402 13.8432V11.7072C13.6402 11.0946 14.112 10.5681 14.7186 10.5526C14.7398 10.552 14.7611 10.552 14.7824 10.552C16.5644 10.552 18.5602 13.1928 19.2583 14.428C19.4591 14.7834 19.8343 15 20.2401 15H22.9526C23.7441 15 24.2519 14.1453 23.8706 13.4461Z" fill="white"/>
</svg>
