<svg width="21" height="21" viewBox="0 0 21 21" fill="none" xmlns="http://www.w3.org/2000/svg">
<path d="M9.82157 0.00826263C8.0968 0.120052 6.2858 0.739689 4.85489 1.70747C3.34412 2.72956 2.14637 4.10937 1.37023 5.71914C0.945425 6.60069 0.680323 7.43113 0.498265 8.45321C0.360923 9.21977 0.332177 10.376 0.427997 11.2639C0.555757 12.4585 0.993336 13.8894 1.58423 15.0584L1.75351 15.3874L1.36065 16.5596C1.14345 17.2048 0.750591 18.3802 0.485489 19.1723C0.217192 19.9676 0 20.6383 0 20.6703C0 20.699 0.0415221 20.7405 0.0926261 20.7597C0.17567 20.7917 0.185252 20.8044 0.169282 20.9034C0.150118 21.0057 0.153312 21.012 0.226774 20.9897C0.357729 20.9482 3.21636 20.0379 4.4237 19.6482C5.05611 19.447 5.59909 19.2809 5.63103 19.2809C5.65978 19.2809 5.79712 19.3352 5.93446 19.4055C7.10347 19.9932 8.34913 20.3445 9.67464 20.4659C10.1985 20.5106 11.2653 20.4882 11.7795 20.4148C14.8266 19.9932 17.4201 18.3099 19.0171 15.726C19.5377 14.8827 20.0328 13.7073 20.2979 12.6853C20.5502 11.7047 20.6716 10.4878 20.6045 9.54876C20.4321 7.05424 19.4675 4.84399 17.7906 3.10645C16.1649 1.42321 14.0951 0.381962 11.738 0.0657539C11.393 0.0210381 10.1985 -0.0172901 9.82157 0.00826263ZM11.0704 2.19296C12.2107 2.28559 13.1465 2.53791 14.1335 3.02021C15.4718 3.67817 16.5929 4.66193 17.4233 5.91398C18.0621 6.87537 18.455 7.91023 18.6083 9.04091C18.6817 9.5775 18.6817 10.6635 18.6083 11.2128C18.0877 15.0744 14.9 18.0512 11.0321 18.2939C9.66825 18.377 8.40023 18.1534 7.16096 17.6104C6.8192 17.4603 6.25386 17.1537 6.07819 17.0259C6.02389 16.9844 5.95363 16.9493 5.92169 16.9493C5.89294 16.9493 5.21262 17.1569 4.41411 17.4124C3.61561 17.6679 2.95765 17.8755 2.95445 17.8691C2.94807 17.8628 3.15248 17.2399 3.40481 16.4861C3.65714 15.7292 3.86475 15.0744 3.86475 15.0233C3.86475 14.9722 3.80725 14.854 3.72421 14.7358C2.38912 12.8226 1.95473 10.1812 2.60311 7.94217C2.74684 7.45668 2.86502 7.15964 3.09818 6.69651C3.73699 5.44765 4.71116 4.3585 5.90891 3.56C7.41967 2.55069 9.30733 2.05243 11.0704 2.19296Z" fill="url(#paint0_linear_251_1037)"/>
<path d="M6.47033 5.02859C6.39687 5.05095 6.29147 5.10206 6.23078 5.13719C6.06789 5.2394 5.59518 5.74405 5.44825 5.97402C4.97873 6.70545 4.87333 7.67962 5.1544 8.63143C5.3684 9.35008 5.63031 9.89945 6.10941 10.6405C6.71627 11.5731 7.10914 12.0778 7.73835 12.7261C8.68378 13.7003 9.47909 14.2465 10.6992 14.7543C11.5999 15.1312 12.2643 15.3452 12.638 15.3836C12.8967 15.4091 13.462 15.3197 13.7942 15.1983C14.2541 15.0322 14.7811 14.6617 14.9856 14.3615C15.19 14.0549 15.4008 13.3618 15.4263 12.9018L15.4455 12.5984L15.3465 12.4834C15.2762 12.4067 14.9887 12.2343 14.4074 11.9213C13.0276 11.1802 12.852 11.11 12.6348 11.225C12.5805 11.2505 12.3761 11.4581 12.1844 11.6817C11.6159 12.3429 11.4977 12.4579 11.4019 12.4579C11.2805 12.4579 10.4852 12.0522 10.1147 11.8031C9.6835 11.5092 9.40243 11.2729 9.0479 10.9056C8.62629 10.468 8.16955 9.84196 7.91403 9.35328L7.85653 9.23829L8.0865 8.98597C8.38993 8.66337 8.5145 8.46854 8.63587 8.12997C8.76044 7.78502 8.75405 7.67962 8.57199 7.20371C8.4091 6.77891 8.27814 6.42757 8.05137 5.81751C7.86612 5.31606 7.72877 5.11164 7.53713 5.05095C7.35507 4.99665 6.62045 4.98068 6.47033 5.02859Z" fill="url(#paint1_linear_251_1037)"/>
<defs>
<linearGradient id="paint0_linear_251_1037" x1="0.653538" y1="21.0002" x2="16.3385" y2="21.0002" gradientUnits="userSpaceOnUse">
<stop stop-color="#009FDF"/>
<stop offset="1" stop-color="#3CC39D"/>
</linearGradient>
<linearGradient id="paint1_linear_251_1037" x1="5.33102" y1="15.3879" x2="13.2755" y2="15.3879" gradientUnits="userSpaceOnUse">
<stop stop-color="#009FDF"/>
<stop offset="1" stop-color="#3CC39D"/>
</linearGradient>
</defs>
</svg>
