<svg width="25" height="20" viewBox="0 0 25 20" fill="none" xmlns="http://www.w3.org/2000/svg">
<path d="M12.5 0C12.5 0 4.68193 -3.91901e-05 2.73193 0.522461C1.65568 0.809961 0.809961 1.65693 0.522461 2.73193C-3.91901e-05 4.68193 0 10 0 10C0 10 -3.91901e-05 15.3181 0.522461 17.2681C0.809961 18.3443 1.65693 19.19 2.73193 19.4775C4.68193 20 12.5 20 12.5 20C12.5 20 20.3181 20 22.2681 19.4775C23.3431 19.19 24.19 18.3431 24.4775 17.2681C25 15.3181 25 10 25 10C25 10 25 4.68193 24.4775 2.73193C24.19 1.65693 23.3431 0.809961 22.2681 0.522461C20.3181 -3.91901e-05 12.5 0 12.5 0ZM12.5 2.5C16.1025 2.5 20.6136 2.66701 21.6211 2.93701C21.8323 2.99326 22.0055 3.16641 22.063 3.37891C22.3642 4.50141 22.5 7.9275 22.5 10C22.5 12.0725 22.3642 15.4973 22.063 16.6211C22.0067 16.8323 21.8336 17.0055 21.6211 17.063C20.6148 17.333 16.1025 17.5 12.5 17.5C8.89875 17.5 4.38766 17.333 3.37891 17.063C3.16766 17.0067 2.99451 16.8336 2.93701 16.6211C2.63576 15.4986 2.5 12.0725 2.5 10C2.5 7.9275 2.63576 4.50146 2.93701 3.37646C2.99326 3.16646 3.16641 2.99326 3.37891 2.93701C4.38516 2.66701 8.8975 2.5 12.5 2.5ZM10 5.66895V14.3311L17.5 10L10 5.66895Z" fill="white"/>
</svg>
