<svg xmlns="http://www.w3.org/2000/svg" width="60" height="60" viewBox="0 0 60 60">
  <metadata><?xpacket begin="﻿" id="W5M0MpCehiHzreSzNTczkc9d"?>
<x:xmpmeta xmlns:x="adobe:ns:meta/" x:xmptk="Adobe XMP Core 5.6-c142 79.160924, 2017/07/13-01:06:39        ">
   <rdf:RDF xmlns:rdf="http://www.w3.org/1999/02/22-rdf-syntax-ns#">
      <rdf:Description rdf:about=""/>
   </rdf:RDF>
</x:xmpmeta>
                                                                                                    
                                                                                                    
                                                                                                    
                                                                                                    
                                                                                                    
                                                                                                    
                                                                                                    
                                                                                                    
                                                                                                    
                                                                                                    
                                                                                                    
                                                                                                    
                                                                                                    
                                                                                                    
                                                                                                    
                                                                                                    
                                                                                                    
                                                                                                    
                                                                                                    
                                                                                                    
                           
<?xpacket end="w"?></metadata>
<defs>
    <style>
      .cls-1 {
        fill: #5c5672;
        fill-rule: evenodd;
      }
    </style>
  </defs>
  <path class="cls-1" d="M451,3478v-28a5,5,0,0,0-5-5H435v-12h-2v23a1,1,0,0,0,1,1h3.39L421,3466.83,404.61,3457H408a1,1,0,0,0,1-1v-23h-2v12H396a5,5,0,0,0-5,5v28a5,5,0,0,0,5,5h16.382l-2,4H392a1,1,0,0,0-1,1c0,5,5.269,5,7,5h46c1.731,0,7,0,7-5a1,1,0,0,0-1-1H431.618l-2-4H446A5,5,0,0,0,451,3478Zm-44-23h-6a1,1,0,0,0-.515,1.86l20,12a1,1,0,0,0,1.03,0l20-12a1.01,1.01,0,0,0,.342-1.38A1,1,0,0,0,441,3455h-6v-4h10v24H397v-24h10v4Zm41.879,34c-0.349,1.23-1.556,2-4.879,2H398c-3.323,0-4.53-.77-4.879-2h55.758Zm-36.261-2,2-4h12.764l2,4H412.618ZM396,3481a3,3,0,0,1-3-3v-28a3,3,0,0,1,3-3h11v2H396a1,1,0,0,0-1,1v26a1,1,0,0,0,1,1h50a1,1,0,0,0,1-1v-26a1,1,0,0,0-1-1H435v-2h11a3,3,0,0,1,3,3v28a3,3,0,0,1-3,3H396Zm45-12v-2h-2v2h-2v2h2v2h2v-2h2v-2h-2Z" transform="translate(-391 -3433)"/>
</svg>
