<svg xmlns="http://www.w3.org/2000/svg" width="60" height="60" viewBox="0 0 60 60">
  <metadata><?xpacket begin="﻿" id="W5M0MpCehiHzreSzNTczkc9d"?>
<x:xmpmeta xmlns:x="adobe:ns:meta/" x:xmptk="Adobe XMP Core 5.6-c142 79.160924, 2017/07/13-01:06:39        ">
   <rdf:RDF xmlns:rdf="http://www.w3.org/1999/02/22-rdf-syntax-ns#">
      <rdf:Description rdf:about=""/>
   </rdf:RDF>
</x:xmpmeta>
                                                                                                    
                                                                                                    
                                                                                                    
                                                                                                    
                                                                                                    
                                                                                                    
                                                                                                    
                                                                                                    
                                                                                                    
                                                                                                    
                                                                                                    
                                                                                                    
                                                                                                    
                                                                                                    
                                                                                                    
                                                                                                    
                                                                                                    
                                                                                                    
                                                                                                    
                                                                                                    
                           
<?xpacket end="w"?></metadata>
<defs>
    <style>
      .cls-1 {
        fill: #5c5672;
        fill-rule: evenodd;
      }
    </style>
  </defs>
  <path class="cls-1" d="M1028,3480.99v-35.01a5.017,5.017,0,0,0-5-5.01h-7.23a2.062,2.062,0,0,0-.37-0.74,13.859,13.859,0,0,0-1.26-1.39,18.727,18.727,0,0,0-1.41-1.28,2.161,2.161,0,0,0-2.61-.04l-1.54,1.1a16.607,16.607,0,0,0-4.5-1.87l-0.31-1.91a2.1,2.1,0,0,0-1.9-1.77,23.176,23.176,0,0,0-3.726,0,2.087,2.087,0,0,0-1.909,1.76l-0.312,1.92a16.66,16.66,0,0,0-4.5,1.87l-1.531-1.1a2.161,2.161,0,0,0-2.63.05c-0.472.39-.94,0.81-1.376,1.25a15.956,15.956,0,0,0-1.3,1.42,2.1,2.1,0,0,0-.362.73H977a5.019,5.019,0,0,0-5,5.01v35.01a2,2,0,0,0-2,2.01v3a7.008,7.008,0,0,0,7,7h46a7.008,7.008,0,0,0,7-7v-3A2.008,2.008,0,0,0,1028,3480.99Zm-40.337-37.21-1.492-2.09a0.181,0.181,0,0,1-.028-0.19,13.307,13.307,0,0,1,1.133-1.25c0.407-.4.827-0.79,1.23-1.12a0.168,0.168,0,0,1,.211.02l2.08,1.49a1,1,0,0,0,1.134.02,14.613,14.613,0,0,1,5.069-2.11,1,1,0,0,0,.784-0.82l0.42-2.58a0.1,0.1,0,0,1,.1-0.09,21.391,21.391,0,0,1,3.4,0,0.1,0.1,0,0,1,.09.09l0.42,2.58a1,1,0,0,0,.79.82,14.6,14.6,0,0,1,5.07,2.11,0.994,0.994,0,0,0,1.13-.02l2.08-1.49a0.168,0.168,0,0,1,.19-0.03c0.42,0.34.84,0.73,1.27,1.15a14.352,14.352,0,0,1,1.11,1.22,0.184,0.184,0,0,1-.03.2l-1.49,2.08a1.01,1.01,0,0,0-.02,1.14,14.414,14.414,0,0,1,2.11,5.07,0.989,0.989,0,0,0,.82.78l2.53,0.41a0.149,0.149,0,0,1,.13.13,14.523,14.523,0,0,1,0,3.36,0.138,0.138,0,0,1-.12.12l-2.54.41a1.013,1.013,0,0,0-.82.79,14.582,14.582,0,0,1-2.1,5.07,1.01,1.01,0,0,0,.02,1.14l1.5,2.1a0.172,0.172,0,0,1,.02.17c-0.35.42-.73,0.84-1.14,1.25-0.35.35-.75,0.72-1.23,1.12a0.223,0.223,0,0,1-.14.03l-3.35-2.84v-2.1a12.011,12.011,0,1,0-16-.01v2.11l-3.287,2.8a0.193,0.193,0,0,1-.18.03c-0.5-.42-0.9-0.78-1.258-1.14-0.4-.41-0.787-0.83-1.119-1.23a0.176,0.176,0,0,1,.015-0.21l1.49-2.08a1.01,1.01,0,0,0,.022-1.14,14.477,14.477,0,0,1-2.1-5.07,1,1,0,0,0-.82-0.78l-2.526-.41a0.158,0.158,0,0,1-.138-0.13,14.748,14.748,0,0,1,0-3.36,0.151,0.151,0,0,1,.123-0.12l2.54-.41a1.009,1.009,0,0,0,.82-0.78,14.529,14.529,0,0,1,2.106-5.08,0.993,0.993,0,0,0-.021-1.13h0ZM974,3445.98a3,3,0,0,1,3-3h7.631l1.015,1.41a16.549,16.549,0,0,0-1.87,4.5l-1.889.31a2.15,2.15,0,0,0-1.782,1.89,17,17,0,0,0,0,3.76,2.151,2.151,0,0,0,1.8,1.9l1.875,0.3a16.482,16.482,0,0,0,1.87,4.51l-1.087,1.53a2.151,2.151,0,0,0,.035,2.64,17.567,17.567,0,0,0,1.265,1.4c0.4,0.4.836,0.8,1.411,1.28a2.168,2.168,0,0,0,2.674-.02l3.352-2.86a1.991,1.991,0,0,0,.7-1.51v-2.11a1.984,1.984,0,0,0-.675-1.49,10,10,0,1,1,13.345,0,1.965,1.965,0,0,0-.67,1.49v2.11a2.022,2.022,0,0,0,.7,1.52l3.41,2.9a2.161,2.161,0,0,0,2.64-.06c0.55-.46.99-0.86,1.39-1.25a18.934,18.934,0,0,0,1.27-1.42,2.146,2.146,0,0,0,.04-2.61l-1.1-1.53a16.74,16.74,0,0,0,1.87-4.5l1.89-.3a2.155,2.155,0,0,0,1.79-1.91,16.794,16.794,0,0,0,0-3.75,2.176,2.176,0,0,0-1.8-1.91l-1.88-.3a16.121,16.121,0,0,0-1.87-4.5l1.02-1.42H1023a3,3,0,0,1,3,3v35.01H974v-35.01ZM991,3483h18v1a2.006,2.006,0,0,1-2,2H993a2,2,0,0,1-2-2v-1Zm37,3a5,5,0,0,1-5,5H977a5,5,0,0,1-5-5v-3h17v1a4,4,0,0,0,4,4h14a4,4,0,0,0,4-4v-1h17v3Zm-42-1h-3a1,1,0,0,0,0,2h3A1,1,0,0,0,986,3485Zm-11,0a1,1,0,1,1-1,1A1,1,0,0,1,975,3485Zm4,0a1,1,0,1,1-1,1A1,1,0,0,1,979,3485Zm19.531-12.6a2.119,2.119,0,0,0,2.939,0l3.91-3.86a2.073,2.073,0,0,0-1.38-3.55v-13.01a3,3,0,0,0-3-3h-2a3,3,0,0,0-3,3v13.01a2.078,2.078,0,0,0-1.85,1.3,2.045,2.045,0,0,0,.467,2.24Zm-2.441-5.41H997a1,1,0,0,0,1-1v-14.01a1,1,0,0,1,1-1h2a1,1,0,0,1,1,1v14.01a1,1,0,0,0,1,1h0.91a0.076,0.076,0,0,1,.09.05,0.048,0.048,0,0,1-.02.06v0.01l-3.9,3.85a0.123,0.123,0,0,1-.142,0L996,3467.04a0.073,0.073,0,0,1,.09-0.05h0Zm20.91,9a1,1,0,0,0-1-1H984a1,1,0,0,0,0,2h32A1,1,0,0,0,1017,3475.99Z" transform="translate(-970 -3433)"/>
</svg>
