<svg width="50" height="50" viewBox="0 0 50 50" fill="none" xmlns="http://www.w3.org/2000/svg">
<path d="M10.6643 45.015C11.3119 44.5004 12.035 44.0823 12.7797 43.7929C14.6469 43.0746 16.6436 43.021 18.6187 42.8602C19.6332 42.7744 20.8204 42.6029 21.6407 41.9704C21.2845 42.5172 20.7665 42.9567 20.1945 43.2569C18.4352 44.1895 16.3522 43.9966 14.4742 44.5326C12.9632 44.9614 11.409 45.669 10.2218 46.6767C9.34759 47.4271 8.14958 48.7136 8.24672 50C8.09562 48.006 9.15332 46.2371 10.6643 45.015Z" fill="url(#paint0_linear_4_273)"/>
<path d="M44.4893 20.8405C43.4208 19.018 41.8126 17.4636 40.021 16.4773C39.3842 16.1235 38.7259 15.8233 38.0567 15.5339C36.7076 14.955 34.7649 14.6119 33.8583 13.3791C33.8259 13.3362 33.8043 13.2826 33.7827 13.229C33.7288 13.0146 33.9122 12.9074 34.0741 12.8323C36.0708 11.9318 38.5208 12.5643 40.3772 13.8829C40.7333 14.1402 40.6902 14.6655 41.0463 14.9121C41.5212 15.2337 42.0285 15.5339 42.6653 15.0086C43.4963 14.3117 43.2589 14.1831 43.1186 13.69C43.5395 13.5613 43.9604 13.6149 44.2303 13.1539C44.349 12.9503 44.1439 12.4678 44.1871 12.232C44.295 11.6209 44.8778 11.6209 44.662 11.0313C44.3598 10.2058 43.2805 9.31604 42.5142 8.8765C41.5428 8.31904 40.593 7.69726 39.7728 6.93611C39.1684 6.37864 38.6287 5.73542 37.9164 5.3066C37.3336 4.95283 36.2435 4.57762 36.0276 4.55617C35.747 4.52401 35.6607 4.28816 35.6175 4.256C35.0131 3.60206 34.6138 3.52702 33.9122 3.46269C33.6532 3.44125 33.5237 3.14108 33.3726 2.94811C32.8761 2.30489 32.3904 1.65094 32.1206 0.879074C32.0127 0.589623 31.9803 0.26801 31.8076 0C31.8076 0 30.9982 0.857633 30.9334 0.943396C30.6204 1.34005 30.3506 1.77959 30.1563 2.24057C29.9944 2.61578 29.9836 3.35549 29.4764 3.44125C29.3145 3.47341 29.1418 3.53774 28.9799 3.51629C28.872 3.50557 28.7748 3.45197 28.6777 3.43053C28.559 3.40909 28.4294 3.40909 28.3107 3.40909C27.3286 3.41981 25.2995 3.70926 25.0189 3.79503C22.3207 4.64194 19.8815 6.23928 18.0251 8.37264C18.5539 7.76158 19.5361 7.60077 20.2376 8.00815C18.9641 8.11535 17.8956 9.02659 17.1401 10.0343C16.5357 10.8383 16.0608 11.7281 15.478 12.5536C15.3269 12.768 15.165 12.9824 14.9923 13.1861C14.172 14.1509 12.974 14.9443 11.7004 14.8263C12.4667 15.4052 13.5244 15.4588 14.4418 15.2123C15.3592 14.9657 16.1795 14.4404 16.989 13.9258C15.5427 15.1479 14.7009 17.0562 14.7764 18.9537C14.798 19.6291 14.9383 20.3152 14.8844 20.9906C14.7764 22.2663 13.9993 23.3812 13.1575 24.3568C12.3156 25.3431 11.3767 26.265 10.2002 26.8225C9.02381 27.3799 7.59914 27.5086 6.4551 26.919C6.88681 28.184 8.33306 28.8915 9.68217 28.8594C11.0313 28.8165 12.2833 28.184 13.4057 27.455C15.0247 26.4044 16.6652 25.8148 16.3198 26.2436C15.6183 27.1119 14.8088 27.8945 13.9238 28.5913C12.9416 29.3632 12.035 29.9957 10.837 30.4245C9.59583 30.8748 8.28989 31.175 7.14584 31.8611C6.05576 32.5043 5.17074 33.5227 4.6311 34.6484C4.24255 35.4524 4.05907 36.3851 4.23176 37.2642C4.42603 38.2933 5.07361 39.1509 5.77514 39.9121C6.05576 40.2123 7.08109 40.9198 7.11346 41.3272C6.91919 38.8722 8.72161 36.1385 11.1392 35.4631C12.1861 35.1737 13.2654 35.3666 14.3339 35.2166C15.478 35.0557 16.5896 34.6805 17.5502 34.0588C19.4605 32.8152 20.6046 30.7247 21.6839 28.72C21.0579 29.8885 21.5328 30.8533 21.468 32.1076C21.4033 33.2654 20.6046 34.241 19.7412 35.0129C20.9608 34.8092 21.8782 33.8015 22.4826 32.7294C23.087 31.6574 23.4647 30.4674 24.1662 29.4597C25.1268 28.0768 26.5946 27.1441 27.8574 26.0077C27.5876 26.6509 27.2422 27.3156 27.2422 27.3156C28.0625 27.0905 27.4905 31.6788 27.6092 33.0081C28.3539 29.8671 30.2211 27.5407 32.6603 26.0935C33.7072 25.4503 35.0887 24.5712 36.7939 25.3752C38.0675 25.9648 38.6719 26.9833 38.5748 28.3984C38.4021 30.789 36.6213 32.8045 34.5706 34.0695C33.2539 34.8735 31.8616 35.5811 30.4045 36.0956C26.5191 37.4786 22.5257 38.3898 18.5971 39.6012C14.744 40.7912 11.0421 42.4528 8.18196 45.3581C8.2791 45.2616 8.37623 45.1651 8.48416 45.0686C10.8046 42.9245 14.1504 42.2063 17.302 41.7238C21.5544 41.0806 25.8499 40.684 30.0268 39.6548C34.5814 38.5399 39.1684 36.4923 42.417 33.0617C44.608 30.7461 46.1622 27.8409 45.7736 24.5819C45.6333 23.2847 45.1692 22.009 44.4893 20.8405ZM43.2265 11.1063C43.2589 10.967 43.356 10.8062 43.4855 10.774C43.5287 10.7633 43.5719 10.7633 43.6258 10.774C43.6906 10.7955 43.7338 10.8491 43.7769 10.8919C43.8417 10.9563 43.9065 11.0206 43.9604 11.0849C43.9928 11.1171 44.0252 11.1492 44.036 11.1921C44.0468 11.235 44.0468 11.2886 44.036 11.3422C43.9712 11.5995 43.7014 11.8461 43.8201 12.0819C43.4208 11.964 43.151 11.5137 43.2265 11.1063ZM35.6391 7.09691C35.7362 6.95755 35.9197 6.92539 36.0708 6.96827C36.4809 7.09691 36.9019 7.23628 37.2472 7.48285C37.4847 7.65437 37.8409 7.97599 37.6142 8.22256C37.4307 8.42624 36.8155 8.36192 36.5781 8.2976C36.1248 8.17967 35.2613 7.69726 35.6391 7.09691ZM27.1127 4.95283C22.7848 12.8538 25.1376 19.1252 28.192 24.6677C23.8856 20.9155 20.9068 10.8919 27.1451 4.83491L27.1127 4.95283ZM31.6889 1.0506C31.5702 1.53302 31.527 2.02616 31.5594 2.5193L31.6026 3.38765C31.2572 2.42281 30.8794 1.65094 31.8832 0.235849L31.6889 1.0506Z" fill="url(#paint1_linear_4_273)"/>
<defs>
<linearGradient id="paint0_linear_4_273" x1="11.1393" y1="11.6203" x2="41.2443" y2="18.933" gradientUnits="userSpaceOnUse">
<stop stop-color="#FF8400"/>
<stop offset="0.0253412" stop-color="#FD7F00"/>
<stop offset="0.354" stop-color="#E04900"/>
<stop offset="0.6376" stop-color="#CB2100"/>
<stop offset="0.8622" stop-color="#BE0900"/>
<stop offset="1" stop-color="#B90000"/>
</linearGradient>
<linearGradient id="paint1_linear_4_273" x1="10.1939" y1="17.9811" x2="42.8135" y2="33.8585" gradientUnits="userSpaceOnUse">
<stop stop-color="#FF8400"/>
<stop offset="0.0253412" stop-color="#FD7F00"/>
<stop offset="0.354" stop-color="#E04900"/>
<stop offset="0.6376" stop-color="#CB2100"/>
<stop offset="0.8622" stop-color="#BE0900"/>
<stop offset="1" stop-color="#B90000"/>
</linearGradient>
</defs>
</svg>
