<svg width="244" height="65" viewBox="0 0 244 65" fill="none" xmlns="http://www.w3.org/2000/svg">
<path d="M13.8638 58.5195C14.7056 57.8506 15.6457 57.307 16.6138 56.9307C19.0411 55.997 21.6368 55.9273 24.2044 55.7183C25.5233 55.6068 27.0667 55.3838 28.1331 54.5615C27.67 55.2723 26.9966 55.8437 26.2529 56.2339C23.9659 57.4464 21.258 57.1955 18.8166 57.8924C16.8523 58.4498 14.8319 59.3696 13.2885 60.6797C12.152 61.6552 10.5946 63.3276 10.7209 65C10.5244 62.4078 11.8995 60.1083 13.8638 58.5195Z" fill="url(#paint0_linear_33_197)"/>
<path d="M57.8362 27.0926C56.4472 24.7234 54.3566 22.7026 52.0275 21.4205C51.1996 20.9605 50.3438 20.5703 49.4739 20.194C47.72 19.4415 45.1945 18.9955 44.0159 17.3928C43.9738 17.3371 43.9457 17.2674 43.9177 17.1977C43.8475 16.919 44.086 16.7796 44.2965 16.682C46.8922 15.5114 50.0772 16.3336 52.4905 18.0478C52.9535 18.3823 52.8974 19.0652 53.3604 19.3857C53.9777 19.8038 54.6372 20.194 55.465 19.5112C56.5454 18.6053 56.2367 18.438 56.0543 17.797C56.6015 17.6297 57.1487 17.6994 57.4995 17.1001C57.6538 16.8353 57.3872 16.2082 57.4433 15.9016C57.5836 15.1072 58.3413 15.1072 58.0607 14.3407C57.6678 13.2676 56.2647 12.1109 55.2686 11.5395C54.0058 10.8148 52.7711 10.0064 51.7048 9.01694C50.919 8.29224 50.2175 7.45605 49.2915 6.89859C48.5338 6.43868 47.1167 5.9509 46.8361 5.92303C46.4713 5.88122 46.359 5.57461 46.3029 5.5328C45.5172 4.68268 44.998 4.58512 44.086 4.5015C43.7493 4.47363 43.5809 4.08341 43.3845 3.83255C42.7391 2.99636 42.1077 2.14623 41.7569 1.1428C41.6166 0.76651 41.5745 0.348413 41.35 0C41.35 0 40.2977 1.11492 40.2135 1.22642C39.8067 1.74207 39.4559 2.31347 39.2033 2.91274C38.9929 3.40052 38.9788 4.36214 38.3194 4.47363C38.1089 4.51544 37.8844 4.59906 37.674 4.57118C37.5337 4.55725 37.4074 4.48756 37.2811 4.45969C37.1268 4.43182 36.9584 4.43182 36.8041 4.43182C35.5273 4.44576 32.8895 4.82204 32.5247 4.93353C29.017 6.03452 25.846 8.11106 23.4327 10.8844C24.1203 10.0901 25.3971 9.881 26.3091 10.4106C24.6534 10.55 23.2644 11.7346 22.2822 13.0446C21.4965 14.0898 20.8791 15.2466 20.1215 16.3197C19.9251 16.5984 19.7146 16.8771 19.4901 17.1419C18.4238 18.3962 16.8663 19.4275 15.2107 19.2742C16.2069 20.0268 17.5819 20.0965 18.7745 19.7759C19.9671 19.4554 21.0335 18.7725 22.0858 18.1036C20.2057 19.6923 19.1113 22.173 19.2095 24.6398C19.2375 25.5178 19.4199 26.4097 19.3498 27.2877C19.2095 28.9462 18.1993 30.3956 17.1049 31.6638C16.0105 32.946 14.7898 34.1445 13.2604 34.8692C11.7311 35.5939 9.87902 35.7612 8.39176 34.9946C8.95299 36.6392 10.8331 37.559 12.587 37.5172C14.3408 37.4614 15.9684 36.6392 17.4276 35.6915C19.5322 34.3257 21.6649 33.5592 21.2159 34.1166C20.3039 35.2455 19.2516 36.2629 18.1011 37.1687C16.8243 38.1722 15.6457 38.9944 14.0883 39.5519C12.4747 40.1372 10.777 40.5275 9.28973 41.4194C7.87262 42.2556 6.7221 43.5796 6.02056 45.0429C5.51545 46.0881 5.27693 47.3006 5.50142 48.4434C5.75398 49.7813 6.59582 50.8962 7.50782 51.8857C7.87262 52.2759 9.20555 53.1958 9.24764 53.7253C8.99508 50.5339 11.3382 46.9801 14.4811 46.1021C15.8421 45.7258 17.2452 45.9766 18.6342 45.7815C20.1215 45.5725 21.5667 45.0847 22.8154 44.2764C25.2988 42.6597 26.7861 39.9421 28.1892 37.336C27.3754 38.8551 27.9927 40.1093 27.9086 41.7399C27.8244 43.2451 26.7861 44.5133 25.6636 45.5167C27.2491 45.2519 28.4417 43.9419 29.2275 42.5482C30.0132 41.1546 30.5043 39.6076 31.4163 38.2976C32.665 36.4998 34.5732 35.2873 36.2148 33.81C35.864 34.6462 35.415 35.5103 35.415 35.5103C36.4814 35.2176 35.7377 41.1825 35.8921 42.9106C36.8602 38.8272 39.2875 35.803 42.4585 33.9215C43.8195 33.0853 45.6154 31.9425 47.8323 32.9878C49.4879 33.7543 50.2736 35.0783 50.1473 36.9179C49.9228 40.0257 47.6078 42.6458 44.9419 44.2903C43.2302 45.3355 41.4202 46.2554 39.526 46.9243C34.475 48.7221 29.2836 49.9067 24.1764 51.4816C19.1674 53.0285 14.3548 55.1887 10.6367 58.9655C10.763 58.8401 10.8892 58.7146 11.0295 58.5892C14.0462 55.8019 18.3957 54.8681 22.4927 54.241C28.0208 53.4048 33.6051 52.8892 39.035 51.5512C44.956 50.1018 50.919 47.44 55.1423 42.9803C57.9905 39.97 60.011 36.1932 59.5059 31.9565C59.3235 30.2702 58.7201 28.6117 57.8362 27.0926ZM56.1946 14.4383C56.2367 14.2571 56.363 14.048 56.5313 14.0062C56.5875 13.9923 56.6436 13.9923 56.7137 14.0062C56.7979 14.0341 56.854 14.1038 56.9102 14.1595C56.9944 14.2431 57.0785 14.3268 57.1487 14.4104C57.1908 14.4522 57.2329 14.494 57.2469 14.5497C57.2609 14.6055 57.2609 14.6752 57.2469 14.7449C57.1627 15.0793 56.8119 15.3999 56.9663 15.7065C56.4471 15.5532 56.0964 14.9678 56.1946 14.4383ZM46.331 9.22599C46.4572 9.04481 46.6958 9.003 46.8922 9.05875C47.4254 9.22599 47.9726 9.40716 48.4216 9.7277C48.7302 9.95069 49.1932 10.3688 48.8986 10.6893C48.6601 10.9541 47.8603 10.8705 47.5516 10.7869C46.9623 10.6336 45.8399 10.0064 46.331 9.22599ZM35.2467 6.43868C29.6203 16.7099 32.679 24.8628 36.6497 32.068C31.0515 27.1902 27.179 14.1595 35.2887 6.28538L35.2467 6.43868ZM41.1957 1.36578C41.0414 1.99292 40.9852 2.63401 41.0273 3.27509L41.0835 4.40394C40.6345 3.14966 40.1434 2.14623 41.4483 0.306604L41.1957 1.36578Z" fill="url(#paint1_linear_33_197)"/>
<path d="M85.16 20.2C87.48 20.2 89.416 21.008 90.968 22.624C92.536 24.224 93.32 26.216 93.32 28.6C93.32 30.984 92.536 32.984 90.968 34.6C89.416 36.2 87.48 37 85.16 37H78.2V20.2H85.16ZM85.16 32.344C86.136 32.344 86.936 32 87.56 31.312C88.2 30.608 88.52 29.704 88.52 28.6C88.52 27.496 88.2 26.6 87.56 25.912C86.936 25.208 86.136 24.856 85.16 24.856H83.24V32.344H85.16ZM103.786 36.976L101.122 31.696H99.9219V36.976H95.1219V20.176H101.842C103.682 20.176 105.202 20.72 106.402 21.808C107.602 22.88 108.202 24.304 108.202 26.08C108.202 27.072 107.97 27.968 107.506 28.768C107.058 29.568 106.426 30.216 105.61 30.712L108.922 36.976H103.786ZM99.9219 24.592V27.712H101.746C102.258 27.728 102.658 27.6 102.946 27.328C103.25 27.056 103.402 26.672 103.402 26.176C103.402 25.68 103.25 25.296 102.946 25.024C102.658 24.736 102.258 24.592 101.746 24.592H99.9219ZM110.122 20.2H114.922V37H110.122V20.2ZM121.469 37L116.117 20.2H121.397L124.157 30.88L126.917 20.2H132.197L126.845 37H121.469ZM138.195 32.584H144.435V37H133.395V20.2H144.315V24.568H138.195V26.392H143.715V30.712H138.195V32.584ZM155.476 20.2H160.276V37H156.436L151.156 29.32V37H146.356V20.2H150.196L155.476 27.88V20.2Z" fill="white"/>
<path d="M179.397 27.088V29.08C179.397 31.48 178.621 33.464 177.069 35.032C175.533 36.6 173.509 37.384 170.997 37.384C168.373 37.384 166.229 36.552 164.565 34.888C162.901 33.208 162.069 31.12 162.069 28.624C162.069 26.128 162.901 24.04 164.565 22.36C166.229 20.664 168.309 19.816 170.805 19.816C172.373 19.816 173.805 20.168 175.101 20.872C176.413 21.576 177.445 22.528 178.197 23.728L174.117 26.056C173.445 25.032 172.373 24.52 170.901 24.52C169.701 24.52 168.725 24.904 167.973 25.672C167.237 26.44 166.869 27.432 166.869 28.648C166.869 29.8 167.213 30.808 167.901 31.672C168.589 32.52 169.653 32.944 171.093 32.944C172.757 32.944 173.869 32.352 174.429 31.168H170.853V27.088H179.397ZM189.872 36.976L187.208 31.696H186.008V36.976H181.208V20.176H187.928C189.768 20.176 191.288 20.72 192.488 21.808C193.688 22.88 194.288 24.304 194.288 26.08C194.288 27.072 194.056 27.968 193.592 28.768C193.144 29.568 192.512 30.216 191.696 30.712L195.008 36.976H189.872ZM186.008 24.592V27.712H187.832C188.344 27.728 188.744 27.6 189.032 27.328C189.336 27.056 189.488 26.672 189.488 26.176C189.488 25.68 189.336 25.296 189.032 25.024C188.744 24.736 188.344 24.592 187.832 24.592H186.008ZM210.589 34.864C208.877 36.544 206.773 37.384 204.277 37.384C201.781 37.384 199.669 36.544 197.941 34.864C196.229 33.168 195.373 31.08 195.373 28.6C195.373 26.12 196.229 24.04 197.941 22.36C199.669 20.664 201.781 19.816 204.277 19.816C206.773 19.816 208.877 20.664 210.589 22.36C212.317 24.04 213.181 26.12 213.181 28.6C213.181 31.08 212.317 33.168 210.589 34.864ZM201.325 31.528C202.109 32.296 203.093 32.68 204.277 32.68C205.461 32.68 206.437 32.296 207.205 31.528C207.989 30.744 208.381 29.768 208.381 28.6C208.381 27.432 207.989 26.464 207.205 25.696C206.437 24.912 205.461 24.52 204.277 24.52C203.093 24.52 202.109 24.912 201.325 25.696C200.557 26.464 200.173 27.432 200.173 28.6C200.173 29.768 200.557 30.744 201.325 31.528ZM226.525 35.728C225.261 36.832 223.613 37.384 221.581 37.384C219.549 37.384 217.901 36.832 216.637 35.728C215.373 34.624 214.741 33.176 214.741 31.384V20.2H219.541V30.856C219.541 32.104 220.221 32.728 221.581 32.728C222.941 32.728 223.621 32.104 223.621 30.856V20.2H228.421V31.384C228.421 33.176 227.789 34.624 226.525 35.728ZM237.311 20.2C239.055 20.2 240.511 20.752 241.679 21.856C242.847 22.944 243.431 24.4 243.431 26.224C243.431 28.048 242.847 29.512 241.679 30.616C240.511 31.704 239.055 32.248 237.311 32.248H235.391V37H230.591V20.2H237.311ZM237.311 27.592C237.679 27.592 237.991 27.472 238.247 27.232C238.503 26.976 238.631 26.64 238.631 26.224C238.631 25.808 238.503 25.48 238.247 25.24C237.991 24.984 237.679 24.856 237.311 24.856H235.391V27.592H237.311Z" fill="#4242F8"/>
<defs>
<linearGradient id="paint0_linear_33_197" x1="14.4812" y1="15.1064" x2="53.6177" y2="24.6129" gradientUnits="userSpaceOnUse">
<stop stop-color="#FF8400"/>
<stop offset="0.0253412" stop-color="#FD7F00"/>
<stop offset="0.354" stop-color="#E04900"/>
<stop offset="0.6376" stop-color="#CB2100"/>
<stop offset="0.8622" stop-color="#BE0900"/>
<stop offset="1" stop-color="#B90000"/>
</linearGradient>
<linearGradient id="paint1_linear_33_197" x1="13.2522" y1="23.3754" x2="55.6577" y2="44.0161" gradientUnits="userSpaceOnUse">
<stop stop-color="#FF8400"/>
<stop offset="0.0253412" stop-color="#FD7F00"/>
<stop offset="0.354" stop-color="#E04900"/>
<stop offset="0.6376" stop-color="#CB2100"/>
<stop offset="0.8622" stop-color="#BE0900"/>
<stop offset="1" stop-color="#B90000"/>
</linearGradient>
</defs>
</svg>
