<svg width="66" height="65" viewBox="0 0 66 65" fill="none" xmlns="http://www.w3.org/2000/svg">
<g clip-path="url(#clip0_552_1211)">
<path d="M46.4996 60.6L41.2996 48.5C44.4996 46 46.5996 42.2 46.5996 37.8C46.5996 30.3 40.5996 24.3 33.0996 24.3C25.5996 24.3 19.5996 30.3 19.5996 37.8C19.5996 42.2 21.7996 46.2 25.0996 48.6L19.9996 60.6C19.9996 60.6 19.4996 61.8001 20.8996 61.9001H25.9996L29.1996 64.5C30.6996 65.7001 31.1996 64.6 31.2996 64.5L33.1996 59.1L35.0996 64.5C35.1996 64.6 35.5996 65.7001 37.1996 64.5L40.3996 61.9001H45.6996C46.8996 61.7001 46.4996 60.6 46.4996 60.6ZM21.9996 37.8C21.9996 31.7 26.8996 26.8 32.9996 26.8C39.0996 26.8 43.9996 31.7 43.9996 37.8C43.9996 43.9 39.0996 48.8 32.9996 48.8C26.8996 48.8 21.9996 43.8 21.9996 37.8ZM29.8996 61.7001C29.6996 62.2001 29.0996 62 29.0996 62L26.5996 60.1H26.4996H23.0996C22.1996 60.1 22.4996 59.2001 22.4996 59.2001L26.5996 49.7001C27.6996 50.3001 28.9996 50.8 30.2996 51L32.0996 56.2001L29.8996 61.7001ZM43.1996 60H39.7996H39.6996L37.1996 62C37.1996 62 36.5996 62.2001 36.3996 61.7001L32.1996 51.2001C32.4996 51.2001 32.6996 51.2001 32.9996 51.2001C35.3996 51.2001 37.6996 50.6001 39.5996 49.4001L43.7996 59.1C43.7996 59.2 43.9996 60 43.1996 60Z" fill="url(#paint0_linear_552_1211)"/>
<path d="M30.5002 5H13.8002H12.9002H11.7002C11.8002 5.4 11.9002 5.8 11.9002 6.2C11.9002 8.7 9.9002 10.7 7.4002 10.7C7.0002 10.7 6.6002 10.6 6.2002 10.5V12.6V24H9.0002V12.5C11.5002 11.9 13.4002 9.8 13.8002 7.2H30.5002V5Z" fill="url(#paint1_linear_552_1211)"/>
<path d="M7.6002 7.7C8.3002 7.7 8.9002 7.1 8.9002 6.4C8.9002 5.7 8.3002 5 7.6002 5C6.8002 5 6.2002 5.6 6.2002 6.3C6.2002 7 6.8002 7.7 7.6002 7.7Z" fill="#57CC8B"/>
<path d="M58.3996 45.3C57.6996 45.3 57.0996 45.9 57.0996 46.6C57.0996 47.3 57.6996 47.9001 58.3996 47.9001C59.0996 47.9001 59.7996 47.3 59.7996 46.6C59.7996 45.9 59.1996 45.3 58.3996 45.3Z" fill="#0AACD3"/>
<path d="M35.5 5H52.2H53.1H54.3C54.2 5.4 54.1 5.8 54.1 6.2C54.1 8.7 56.1 10.7 58.6 10.7C59 10.7 59.4 10.6 59.8 10.5V12.6V24H57V12.5C54.5 11.9 52.6 9.8 52.2 7.2H35.5V5Z" fill="url(#paint2_linear_552_1211)"/>
<path d="M58.3996 7.7C57.6996 7.7 57.0996 7.1 57.0996 6.4C57.0996 5.7 57.6996 5 58.3996 5C59.0996 5 59.7996 5.6 59.7996 6.3C59.7996 7 59.1996 7.7 58.3996 7.7Z" fill="url(#paint3_linear_552_1211)"/>
<path d="M7.6002 45.3C8.3002 45.3 8.9002 45.9 8.9002 46.6C8.9002 47.3 8.3002 48 7.6002 48C6.9002 48 6.2002 47.4001 6.2002 46.7001C6.2002 46.0001 6.8002 45.3 7.6002 45.3Z" fill="#0AACD3"/>
<path d="M59.7998 40.4V29H56.9998V40.5C54.4998 41.1 52.5998 43.2 52.1998 45.8H46.6998C46.0998 46.6 45.4998 47.3 44.7998 48H52.1998H53.0998H54.2998C54.1998 47.6 54.0998 47.2 54.0998 46.8C54.0998 44.3 56.0998 42.3 58.5998 42.3C58.9998 42.3 59.3998 42.4 59.7998 42.5V40.4Z" fill="url(#paint4_linear_552_1211)"/>
<path d="M19.3002 45.8H13.9002C13.5002 43.2 11.6002 41.2 9.1002 40.5V29H6.2002V40.4V42.5C6.6002 42.4 7.0002 42.3 7.4002 42.3C9.9002 42.3 11.9002 44.3 11.9002 46.8C11.9002 47.2 11.8002 47.6 11.7002 48H12.9002H13.8002H21.2002C20.5002 47.3 19.8002 46.6 19.3002 45.8Z" fill="url(#paint5_linear_552_1211)"/>
<path d="M0 0V53H20.9L22.1 50.6H3V2.4H63V50.6H44.3L45.5 53H66V0H0Z" fill="url(#paint6_linear_552_1211)"/>
<path d="M38.7998 33.6C38.4998 33.3 37.9998 33.3 37.6998 33.6L31.1998 39.8L29.0998 37.6C28.7998 37.3 28.2998 37.3 27.9998 37.6L26.8998 38.6C26.5998 38.9 26.5998 39.4 26.8998 39.7L29.4998 42.4L30.4998 43.5C30.7998 43.8 31.2998 43.8 31.5998 43.5L32.6998 42.5L39.7998 35.8C40.0998 35.5 40.0998 35 39.7998 34.7L38.7998 33.6Z" fill="#1DB4C1"/>
<path d="M35.4992 11.4L34.9992 11.6C34.3992 11.8 33.0992 12.1 31.1992 11.6L30.4992 11.4C30.4992 11.4 30.3992 11.4 30.2992 11.4H30.1992C29.8992 11.4 29.6992 11.7 29.6992 11.9C29.6992 12 29.6992 12 29.6992 12.1L31.2992 16.5C31.2992 16.6 31.4992 17.1 31.2992 17.4C31.1992 17.5 31.0992 17.6 30.9992 17.7C30.9992 17.7 30.9992 17.7 30.8992 17.7C30.7992 17.8 30.5992 17.8 30.4992 17.8C30.1992 17.8 29.9992 17.7 29.7992 17.4L29.9992 17.2L29.8992 17L28.1992 12.3C28.1992 12.2 28.0992 12.2 28.0992 12.1C27.9992 12.1 27.9992 12.1 27.9992 12.1L25.4992 12.2H25.3992C25.1992 12.3 25.0992 12.4 25.0992 12.6C25.0992 12.7 25.0992 12.7 25.0992 12.8L26.5992 16.7C26.5992 16.8 26.6992 16.9 26.6992 17C26.6992 17.5 26.2992 17.9 25.7992 17.9C25.5992 17.9 25.2992 17.8 25.1992 17.6C25.0992 17.5 25.0992 17.5 25.0992 17.4C24.9992 17.2 24.9992 17 24.9992 17L23.6992 13C23.5992 12.8 23.4992 12.7 23.2992 12.7C23.2992 12.7 23.2992 12.7 23.1992 12.7L20.5992 12.8C20.3992 12.8 20.1992 13 20.1992 13.2C20.1992 13.3 20.1992 13.3 20.1992 13.4L22.6992 20.1C22.7992 20.3 22.9992 20.5 23.2992 20.5C23.2992 20.5 23.2992 20.5 23.3992 20.5H43.6992C43.8992 20.5 44.1992 20.3 44.1992 20.1L46.5992 13.4C46.5992 13.3 46.5992 13.3 46.5992 13.2C46.5992 13 46.3992 12.8 46.1992 12.8L44.3992 12.7H43.4992C43.2992 12.7 43.1992 12.8 43.0992 12.9V13L42.0992 16.1L41.7992 17.1C41.6992 17.5 41.3992 17.8 40.9992 17.8C40.5992 17.8 40.2992 17.6 40.1992 17.3C40.0992 17 40.1992 16.6 40.1992 16.5L41.5992 12.8C41.5992 12.7 41.5992 12.7 41.5992 12.6C41.5992 12.4 41.3992 12.2 41.1992 12.2H40.8992L38.3992 12H38.2992C38.0992 12 37.9992 12.1 37.8992 12.2L37.7992 12.5L36.1992 17C36.0992 17.4 35.7992 17.7 35.3992 17.7C35.0992 17.7 34.8992 17.6 34.6992 17.4C34.3992 17 34.5992 16.4 34.6992 16.3L36.1992 12.1C36.1992 12 36.2992 11.9 36.2992 11.8C36.2992 11.5 35.9992 11.2 35.6992 11.2C35.5992 11.4 35.4992 11.4 35.4992 11.4Z" fill="#3EC1A3"/>
<path d="M46.292 11.3774L19.792 11.4226L19.8075 20.5226L46.3075 20.4774L46.292 11.3774Z" fill="#3EC1A3"/>
</g>
<defs>
<linearGradient id="paint0_linear_552_1211" x1="32.9996" y1="65.0001" x2="32.9996" y2="24.25" gradientUnits="userSpaceOnUse">
<stop stop-color="#02A8DB"/>
<stop offset="1" stop-color="#2DBAB3"/>
</linearGradient>
<linearGradient id="paint1_linear_552_1211" x1="18.3534" y1="24" x2="18.3534" y2="5" gradientUnits="userSpaceOnUse">
<stop stop-color="#32BCAE"/>
<stop offset="1" stop-color="#59CD89"/>
</linearGradient>
<linearGradient id="paint2_linear_552_1211" x1="47.6532" y1="24" x2="47.6532" y2="5" gradientUnits="userSpaceOnUse">
<stop stop-color="#32BCAE"/>
<stop offset="1" stop-color="#59CD89"/>
</linearGradient>
<linearGradient id="paint3_linear_552_1211" x1="58.4496" y1="7.7" x2="58.4496" y2="5" gradientUnits="userSpaceOnUse">
<stop stop-color="#32BCAE"/>
<stop offset="1" stop-color="#59CD89"/>
</linearGradient>
<linearGradient id="paint4_linear_552_1211" x1="52.2863" y1="48" x2="52.2863" y2="29" gradientUnits="userSpaceOnUse">
<stop stop-color="#0AACD4"/>
<stop offset="1" stop-color="#28B8B7"/>
</linearGradient>
<linearGradient id="paint5_linear_552_1211" x1="6.2066" y1="38.5" x2="21.1575" y2="38.5" gradientUnits="userSpaceOnUse">
<stop stop-color="#0AACD4"/>
<stop offset="1" stop-color="#28B8B7"/>
</linearGradient>
<linearGradient id="paint6_linear_552_1211" x1="33" y1="53" x2="33" y2="6.31809e-06" gradientUnits="userSpaceOnUse">
<stop stop-color="#01A8DC"/>
<stop offset="1" stop-color="#59CD89"/>
</linearGradient>
<clipPath id="clip0_552_1211">
<rect width="66" height="65" fill="white"/>
</clipPath>
</defs>
</svg>
