<svg width="85" height="67" viewBox="0 0 85 67" fill="none" xmlns="http://www.w3.org/2000/svg">
<path d="M68.1998 22.9H67.6998C67.0998 22.9 65.6998 22.8 64.1998 21.7L63.5998 21.2L63.4998 21.1H63.3998C63.0998 21 62.8998 21.2 62.7998 21.5C62.7998 21.6 62.7998 21.6 62.7998 21.7L62.8998 26.4C62.8998 26.5 62.8998 27 62.5998 27.3C62.4998 27.4 62.3998 27.4 62.2998 27.5C62.2998 27.5 62.2998 27.5 62.1998 27.5C62.0998 27.5 61.8998 27.5 61.7998 27.5C61.4998 27.4 61.2998 27.2 61.2998 26.9V26.7V26.5V21.5C61.2998 21.4 61.2998 21.3 61.1998 21.3C61.0998 21.3 61.0998 21.3 61.0998 21.3L58.6998 20.6H58.5998C58.3998 20.6 58.1998 20.7 58.1998 20.9C58.1998 21 58.1998 21 58.1998 21.1L58.2998 25.2C58.2998 25.3 58.2998 25.4 58.2998 25.5C58.0998 26 57.5998 26.2 57.1998 26C56.9998 25.9 56.7998 25.7 56.6998 25.5C56.6998 25.4 56.6998 25.3 56.5998 25.3C56.5998 25.1 56.5998 24.9 56.5998 24.9L56.6998 20.7C56.6998 20.5 56.5998 20.3 56.3998 20.3C56.3998 20.3 56.3998 20.3 56.2998 20.3L53.7998 19.6C53.5998 19.5 53.2998 19.6 53.2998 19.9C53.2998 20 53.2998 20 53.2998 20.1L53.3998 27.2C53.3998 27.5 53.4998 27.7 53.7998 27.8C53.7998 27.8 53.7998 27.8 53.8998 27.8L72.5998 34C72.7998 34.1 73.0998 34 73.1998 33.8L77.6998 28.3C77.6998 28.3 77.7998 28.2 77.7998 28.1C77.8998 27.9 77.7998 27.6 77.4998 27.6L75.8998 26.9L75.0998 26.6C74.8998 26.5 74.7998 26.6 74.6998 26.7C74.6998 26.7 74.6998 26.8 74.5998 26.8L72.6998 29.4L71.9998 30.3C71.7998 30.6 71.3998 30.8 70.9998 30.6C70.6998 30.5 70.3998 30.2 70.3998 29.8C70.3998 29.4 70.5998 29.2 70.6998 29.1L73.1998 26C73.1998 26 73.2998 25.9 73.2998 25.8C73.3998 25.6 73.2998 25.4 73.0998 25.3L72.8998 25.2L70.6998 24.3C70.4998 24.2 70.3998 24.3 70.2998 24.4L69.9998 24.8L66.9998 28.5C66.7998 28.8 66.3998 29 65.9998 28.9C65.7998 28.8 65.5998 28.6 65.4998 28.4C65.2998 28 65.6998 27.5 65.8998 27.3L68.6998 23.9C68.7998 23.8 68.7998 23.8 68.7998 23.7C68.8998 23.4 68.6998 23.1 68.4998 23C68.2998 22.9 68.2998 22.9 68.1998 22.9Z" fill="#37BFA9"/>
<path d="M53.3941 17.7339L50.3838 26.3215L75.3918 35.0877L78.4021 26.5001L53.3941 17.7339Z" fill="#37BFA9"/>
<path d="M4.39941 54.3V57.4C4.39941 57.7 4.49941 57.9 4.69941 58.1C4.49941 58.5 4.39941 59 4.39941 59.4C4.39941 61.1 5.79941 62.5 7.49941 62.5C9.19941 62.5 10.5994 61.1 10.5994 59.4C10.5994 57.7 9.19941 56.3 7.49941 56.3C7.09941 56.3 6.79941 56.4 6.49941 56.5V54.2C6.49941 50.8 9.29941 48 12.6994 48C16.0994 48 18.8994 50.8 18.8994 54.2V56.5C18.5994 56.4 18.1994 56.3 17.8994 56.3C16.1994 56.3 14.7994 57.7 14.7994 59.4C14.7994 61.1 16.1994 62.5 17.8994 62.5C19.5994 62.5 20.9994 61.1 20.9994 59.4C20.9994 58.9 20.8994 58.5 20.6994 58.1C20.8994 57.9 20.9994 57.7 20.9994 57.4V54.3C20.9994 49.7 17.2994 46 12.6994 46C8.09941 46 4.39941 49.7 4.39941 54.3ZM7.49941 58.4C8.09941 58.4 8.49941 58.9 8.49941 59.4C8.49941 59.9 7.99941 60.4 7.49941 60.4C6.99941 60.4 6.49941 59.9 6.49941 59.4C6.49941 58.9 6.99941 58.4 7.49941 58.4ZM17.8994 60.5C17.2994 60.5 16.8994 60 16.8994 59.5C16.8994 59 17.3994 58.5 17.8994 58.5C18.4994 58.5 18.8994 59 18.8994 59.5C18.8994 60 18.4994 60.5 17.8994 60.5Z" fill="#12B0CB"/>
<path d="M82.6998 19.6L54.4998 9.79995C52.8998 9.29995 51.1998 10.1 50.6998 11.6L43.7998 31.2999C42.2998 25.6999 42.7998 19.1 42.7998 19C42.7998 18.9 42.7998 18.8 42.7998 18.7C42.7998 18.3 42.7998 18 42.7998 17.6C42.7998 12.4 41.1998 7.89995 38.2998 4.79995C35.4998 1.79995 31.5998 0.199951 27.2998 0.199951C22.9998 0.199951 19.0998 1.79995 16.2998 4.79995C13.2998 7.99995 11.7998 12.4 11.7998 17.6C11.7998 18 11.7998 18.3 11.7998 18.7C11.7998 18.8 11.7998 18.9 11.7998 19C11.7998 19.1 12.8998 31.9 7.8998 36.9C7.6998 37.1 7.5998 37.5 7.5998 37.7999C7.6998 38.0999 7.8998 38.3999 8.1998 38.5999C8.3998 38.6999 10.4998 39.5999 13.4998 39.5999C15.4998 39.5999 17.7998 39.1 20.0998 37.7V40L6.1998 44.2C2.6998 45.2999 0.299805 48.5 0.299805 52.2V62.5999C0.299805 64.8999 2.1998 66.8 4.4998 66.8H50.1998C52.4998 66.8 54.3998 64.8999 54.3998 62.5999V56.2999L61.9998 58.9L65.2998 57.4L71.3998 54.7L74.1998 53.5L74.9998 51.2L84.6998 23.4C85.0998 21.9 84.2998 20.1 82.6998 19.6ZM44.1998 37.2C42.1998 37.7 38.1998 38.2 34.6998 35.2999C37.2998 33.5 39.4998 30.6999 40.8998 27.2999C41.2998 30.6999 42.1998 34.5 44.1998 37.2ZM43.8998 54.2999C43.8998 55.3999 42.9998 56.4 41.7998 56.4C40.5998 56.4 39.6998 55.5 39.6998 54.2999C39.6998 53.2 40.5998 52.2 41.7998 52.2C42.9998 52.2 43.8998 53.0999 43.8998 54.2999ZM34.4998 40V37.7C36.6998 39.1 38.8998 39.5999 40.8998 39.5999L40.1998 41.7L34.4998 40ZM27.2998 2.29995C34.3998 2.29995 39.4998 7.09995 40.5998 14.6C27.1998 14.8 26.0998 6.99995 26.0998 6.69995C25.9998 6.19995 25.5998 5.79995 25.0998 5.79995C24.5998 5.79995 24.0998 6.09995 23.9998 6.59995C23.3998 9.29995 22.1998 11.1 20.3998 12.1C17.7998 13.5 14.7998 12.7 14.3998 12.5C16.0998 6.29995 20.8998 2.29995 27.2998 2.29995ZM10.3998 37.2C12.3998 34.5 13.2998 30.6999 13.5998 27.2999C14.9998 30.6999 17.1998 33.3999 19.7998 35.2999C16.2998 38.2 12.3998 37.7 10.3998 37.2ZM13.7998 17.7C13.7998 16.6 13.8998 15.5 13.9998 14.5C14.9998 14.8 18.3998 15.5 21.3998 13.9C22.9998 13 24.1998 11.7 24.9998 9.89995C25.3998 10.6 25.7998 11.3 26.4998 12C28.4998 14.1 32.3998 16.7 39.9998 16.7C40.0998 16.7 40.2998 16.7 40.3998 16.7C40.4998 16.7 40.4998 16.7 40.5998 16.7C40.5998 17 40.5998 17.4 40.5998 17.7C40.5998 27.6 34.4998 35.5999 27.0998 35.5999C19.6998 35.5999 13.7998 27.6 13.7998 17.7ZM27.2998 47C26.0998 47 24.8998 46.7 23.7998 46.2L22.0998 41.5999V36.5C23.6998 37.2 25.4998 37.5999 27.2998 37.5999C29.0998 37.5999 30.8998 37.2 32.4998 36.5V41.5999L30.7998 46.2C29.6998 46.7 28.4998 47 27.2998 47ZM29.7998 48.7999L27.2998 55.5L24.7998 48.7999C25.5998 49 26.4998 49.0999 27.2998 49.0999C28.0998 49.0999 28.9998 49 29.7998 48.7999ZM52.1998 62.5999C52.1998 63.6999 51.2998 64.7 50.0998 64.7H4.3998C3.2998 64.7 2.2998 63.7999 2.2998 62.5999V52.0999C2.2998 49.2999 4.0998 46.8999 6.6998 46.0999L11.5998 44.5999V46H12.5998H13.5998V44.0999L19.8998 42.2L26.0998 58.7999C26.2998 59.2 26.5998 59.5 27.0998 59.5C27.5998 59.5 27.8998 59.2 28.0998 58.7999L34.2998 42.2L40.5998 44.0999V50.2999C38.7998 50.7999 37.4998 52.3999 37.4998 54.2999C37.4998 56.5999 39.3998 58.5 41.6998 58.5C43.9998 58.5 45.8998 56.5999 45.8998 54.2999C45.8998 52.3999 44.5998 50.7 42.7998 50.2999V44.7999L47.6998 46.2999C50.3998 47.0999 52.0998 49.5 52.0998 52.2999V62.5999H52.1998ZM81.9998 24.1L72.7998 50.5L66.6998 48.4C65.0998 47.9 63.3998 48.7 62.8998 50.2L60.8998 55.9L54.3998 53.5999V52.0999C54.3998 48.3999 51.9998 45.1999 48.4998 44.0999L42.4998 42.2999L43.4998 39.4C45.1998 39.1 46.3998 38.5999 46.4998 38.5999C46.7998 38.5 46.9998 38.2 47.0998 37.7999C47.1998 37.5 47.0998 37.1 46.7998 36.9C46.0998 36.2 45.5998 35.5 45.0998 34.5999L52.3998 13.8C52.7998 12.8 53.8998 12.2 54.8998 12.6L80.7998 21.6C81.7998 21.9 82.2998 23 81.9998 24.1Z" fill="url(#paint0_linear_552_1196)"/>
<path d="M66.1003 37.2998C66.0003 36.8998 65.5003 36.6998 65.1003 36.7998L56.2003 39.9998L55.2003 36.9998C55.1003 36.5998 54.6003 36.3998 54.2003 36.4998L52.7003 36.9998C52.3003 37.0998 52.1003 37.5998 52.2003 37.9998L53.5003 41.6998L54.0003 43.1998C54.1003 43.5998 54.6003 43.7998 55.0003 43.6998L56.5003 43.1998L66.1003 39.7998C66.5003 39.6998 66.7003 39.1998 66.6003 38.7998L66.1003 37.2998Z" fill="#23B6BC"/>
<defs>
<linearGradient id="paint0_linear_552_1196" x1="42.4998" y1="66.7307" x2="42.4998" y2="0.269252" gradientUnits="userSpaceOnUse">
<stop stop-color="#01A8DC"/>
<stop offset="1" stop-color="#59CD89"/>
</linearGradient>
</defs>
</svg>
