<svg width="89" height="65" viewBox="0 0 89 65" fill="none" xmlns="http://www.w3.org/2000/svg">
<path d="M89 2.19995H2V31.7H89V2.19995Z" stroke="url(#paint0_linear_552_1231)" stroke-width="2.6" stroke-miterlimit="10" stroke-linecap="round" stroke-linejoin="round"/>
<path d="M53.4091 2.3L51.8881 3C50.0629 3.7 45.7028 4.7 39.6189 3.1L37.3881 2.3C37.1853 2.2 37.0839 2.2 36.8811 2.2H36.4755C35.5629 2.3 34.9545 3.1 34.9545 4C34.9545 4.2 34.9545 4.4 35.0559 4.6L40.4301 18.7C40.5315 19.1 41.0385 20.6 40.3287 21.7C40.1259 22 39.8217 22.3 39.4161 22.5C39.3147 22.5 39.3147 22.6 39.2133 22.6C38.9091 22.8 38.5035 22.9 37.9965 22.9C37.0839 22.9 36.2727 22.4 35.7657 21.8L35.3601 21.1L35.1573 20.6L29.6818 5.2C29.5804 5 29.479 4.8 29.2762 4.6C29.2762 4.6 29.2762 4.6 29.1748 4.5C29.1748 4.5 29.0734 4.5 29.0734 4.4C29.0734 4.4 28.972 4.4 28.972 4.3H28.8706H28.7692H28.6678H28.5664C28.3636 4.3 28.1608 4.3 28.1608 4.3L19.8462 4.7L19.4406 4.8C18.8322 5 18.4266 5.5 18.4266 6.1C18.4266 6.3 18.528 6.5 18.528 6.7L23.2937 19.3C23.3951 19.6 23.4965 19.9 23.4965 20.3C23.4965 21.8 22.1783 23.1 20.6573 23.1C19.8462 23.1 19.1364 22.8 18.6294 22.2L18.528 22.1C18.3252 21.9 18.2238 21.7 18.1224 21.5C17.7168 20.8 17.6154 20.3 17.6154 20.3L13.5594 7.4C13.3566 6.8 12.8496 6.4 12.2413 6.4C12.1399 6.4 12.1399 6.4 12.0385 6.4L3.41958 6.6C2.60839 6.6 2 7.2 2 8C2 8.2 2.1014 8.4 2.1014 8.6L10.1119 30.3C10.4161 31.1 11.1259 31.7 12.0385 31.7C12.1399 31.7 12.1399 31.7 12.2413 31.7H78.9615C79.7727 31.6 80.4825 31 80.6853 30.3L88.6958 8.6C88.7972 8.4 88.8986 8.2 88.8986 8C88.8986 7.2 88.2902 6.6 87.479 6.6L81.6993 6.4L78.8601 6.3C78.8601 6.3 78.8601 6.3 78.7587 6.3C78.1504 6.3 77.7448 6.6 77.4406 7.1C77.4406 7.2 77.3392 7.3 77.3392 7.4L74.1958 17.5L73.0804 20.9C72.8776 22 71.7622 22.9 70.3427 22.9C69.2273 22.9 68.2133 22.2 67.7063 21.2C67.4021 20.1 67.7063 19 67.8077 18.7V18.6L72.2692 6.5C72.3706 6.3 72.3706 6.1 72.3706 5.9C72.3706 5.2 71.8636 4.7 71.2552 4.5L70.4441 4.4L62.7378 4H62.6364H62.4336C61.8252 4 61.4196 4.3 61.1154 4.8V4.9C61.1154 4.9 61.1154 5 61.014 5L60.7098 5.9L55.4371 20.5C55.1329 21.8 54.0175 22.7 52.6993 22.7C51.8881 22.7 51.0769 22.3 50.5699 21.7C49.6573 20.5 50.3671 18.6 50.5699 18.1L55.5385 4.6C55.6399 4.4 55.7413 4.1 55.7413 3.8C55.7413 2.8 54.9301 2 53.9161 2C53.9161 2.2 53.7133 2.2 53.4091 2.3Z" stroke="url(#paint1_linear_552_1231)" stroke-width="2.6" stroke-miterlimit="10" stroke-linecap="round" stroke-linejoin="round"/>
<path d="M44.9927 63.5001C58.8249 63.5001 70.0382 52.8892 70.0382 39.8001C70.0382 26.7109 58.8249 16.1001 44.9927 16.1001C31.1605 16.1001 19.9473 26.7109 19.9473 39.8001C19.9473 52.8892 31.1605 63.5001 44.9927 63.5001Z" fill="white"/>
<path d="M45.2967 14C30.8981 14 19.2373 25.5 19.2373 39.7C19.2373 53.9 30.8981 65.4 45.2967 65.4C59.6953 65.4 71.3562 53.9 71.3562 39.7C71.3562 25.5 59.6953 14 45.2967 14ZM45.2967 62.4C32.5205 62.4 22.1779 52.2 22.1779 39.6C22.1779 27 32.5205 16.8 45.2967 16.8C58.073 16.8 68.4156 27 68.4156 39.6C68.4156 52.2 58.073 62.4 45.2967 62.4Z" fill="url(#paint2_linear_552_1231)"/>
<path d="M45.4997 21.5C46.2837 21.5 46.9192 20.8732 46.9192 20.1C46.9192 19.3268 46.2837 18.7 45.4997 18.7C44.7156 18.7 44.0801 19.3268 44.0801 20.1C44.0801 20.8732 44.7156 21.5 45.4997 21.5Z" fill="#4BC796"/>
<path d="M45.4997 61.1999C46.2837 61.1999 46.9192 60.5731 46.9192 59.7999C46.9192 59.0267 46.2837 58.3999 45.4997 58.3999C44.7156 58.3999 44.0801 59.0267 44.0801 59.7999C44.0801 60.5731 44.7156 61.1999 45.4997 61.1999Z" fill="#07ACD5"/>
<path d="M25.3219 41.4001C26.1059 41.4001 26.7415 40.7733 26.7415 40.0001C26.7415 39.2269 26.1059 38.6001 25.3219 38.6001C24.5379 38.6001 23.9023 39.2269 23.9023 40.0001C23.9023 40.7733 24.5379 41.4001 25.3219 41.4001Z" fill="#2DBAB3"/>
<path d="M65.6784 41.4001C66.4624 41.4001 67.098 40.7733 67.098 40.0001C67.098 39.2269 66.4624 38.6001 65.6784 38.6001C64.8944 38.6001 64.2588 39.2269 64.2588 40.0001C64.2588 40.7733 64.8944 41.4001 65.6784 41.4001Z" fill="#2DBAB3"/>
<path d="M31.3043 27.3C32.0884 27.3 32.7239 26.6732 32.7239 25.9C32.7239 25.1268 32.0884 24.5 31.3043 24.5C30.5203 24.5 29.8848 25.1268 29.8848 25.9C29.8848 26.6732 30.5203 27.3 31.3043 27.3Z" fill="#45C59C"/>
<path d="M59.6959 55.4001C60.48 55.4001 61.1155 54.7733 61.1155 54.0001C61.1155 53.2269 60.48 52.6001 59.6959 52.6001C58.9119 52.6001 58.2764 53.2269 58.2764 54.0001C58.2764 54.7733 58.9119 55.4001 59.6959 55.4001Z" fill="#16B0C9"/>
<path d="M31.3043 55.4001C32.0884 55.4001 32.7239 54.7733 32.7239 54.0001C32.7239 53.2269 32.0884 52.6001 31.3043 52.6001C30.5203 52.6001 29.8848 53.2269 29.8848 54.0001C29.8848 54.7733 30.5203 55.4001 31.3043 55.4001Z" fill="#16B0C9"/>
<path d="M59.6959 27.3C60.48 27.3 61.1155 26.6732 61.1155 25.9C61.1155 25.1268 60.48 24.5 59.6959 24.5C58.9119 24.5 58.2764 25.1268 58.2764 25.9C58.2764 26.6732 58.9119 27.3 59.6959 27.3Z" fill="#45C59C"/>
<path d="M37.7936 23C38.5776 23 39.2132 22.3732 39.2132 21.6C39.2132 20.8268 38.5776 20.2 37.7936 20.2C37.0096 20.2 36.374 20.8268 36.374 21.6C36.374 22.3732 37.0096 23 37.7936 23Z" fill="#4BC796"/>
<path d="M53.2067 59.6999C53.9907 59.6999 54.6263 59.0731 54.6263 58.2999C54.6263 57.5267 53.9907 56.8999 53.2067 56.8999C52.4227 56.8999 51.7871 57.5267 51.7871 58.2999C51.7871 59.0731 52.4227 59.6999 53.2067 59.6999Z" fill="#07ACD5"/>
<path d="M26.8424 49C27.6264 49 28.262 48.3732 28.262 47.6C28.262 46.8268 27.6264 46.2 26.8424 46.2C26.0584 46.2 25.4229 46.8268 25.4229 47.6C25.4229 48.3732 26.0584 49 26.8424 49Z" fill="#20B5BF"/>
<path d="M64.1569 33.8C64.9409 33.8 65.5765 33.1732 65.5765 32.4C65.5765 31.6268 64.9409 31 64.1569 31C63.3729 31 62.7373 31.6268 62.7373 32.4C62.7373 33.1732 63.3729 33.8 64.1569 33.8Z" fill="#39C0A7"/>
<path d="M26.8424 33.8C27.6264 33.8 28.262 33.1732 28.262 32.4C28.262 31.6268 27.6264 31 26.8424 31C26.0584 31 25.4229 31.6268 25.4229 32.4C25.4229 33.1732 26.0584 33.8 26.8424 33.8Z" fill="#39C0A7"/>
<path d="M64.1569 49C64.9409 49 65.5765 48.3732 65.5765 47.6C65.5765 46.8268 64.9409 46.2 64.1569 46.2C63.3729 46.2 62.7373 46.8268 62.7373 47.6C62.7373 48.3732 63.3729 49 64.1569 49Z" fill="#20B5BF"/>
<path d="M37.7936 59.6999C38.5776 59.6999 39.2132 59.0731 39.2132 58.2999C39.2132 57.5267 38.5776 56.8999 37.7936 56.8999C37.0096 56.8999 36.374 57.5267 36.374 58.2999C36.374 59.0731 37.0096 59.6999 37.7936 59.6999Z" fill="#07ACD5"/>
<path d="M53.2067 23C53.9907 23 54.6263 22.3732 54.6263 21.6C54.6263 20.8268 53.9907 20.2 53.2067 20.2C52.4227 20.2 51.7871 20.8268 51.7871 21.6C51.7871 22.3732 52.4227 23 53.2067 23Z" fill="#4BC796"/>
<path d="M61.7242 34.6C61.7242 34.1 61.3186 33.7 60.7102 33.7C60.2033 33.7 59.6963 34.1 59.6963 34.7C59.6963 34.8 59.6963 34.9 59.7977 35C60.406 36.6 60.7102 38.2 60.7102 40C60.7102 48.3 53.9165 55 45.5005 55C37.0844 55 30.2907 48.3 30.2907 40C30.2907 31.7 37.0844 25 45.5005 25C48.1368 25 50.5704 25.7 52.6998 26.8C52.8012 26.9 53.004 26.9 53.2067 26.9C53.7137 26.9 54.2207 26.5 54.2207 25.9C54.2207 25.6 54.1193 25.4 53.9165 25.2C53.9165 25.2 53.9165 25.2 53.8151 25.2C53.7137 25.1 53.6123 25.1 53.5109 25C51.0774 23.7 48.441 23 45.5005 23C35.969 23 28.2627 30.6 28.2627 40C28.2627 49.4 35.969 57 45.5005 57C55.0319 57 62.7382 49.4 62.7382 40C62.7382 38.1 62.3326 36.3 61.7242 34.6Z" fill="url(#paint3_linear_552_1231)"/>
<path d="M42.052 36.7C42.052 35.4 40.9366 34.9 39.8212 34.9C38.4017 34.9 37.1849 35.4 36.1709 35.9L35.4611 33.9C36.6779 33.3 38.3003 32.8 40.2268 32.8C43.2688 32.8 44.7898 34.4 44.7898 36.5C44.7898 40.5 39.2128 41.3 38.3003 44.9H44.8912V47.1H34.9541C35.4611 39.9 42.052 39.7 42.052 36.7Z" fill="#2EBAB2"/>
<path d="M45.7021 39.9C45.7021 35.2 47.7301 32.7 50.8735 32.7C54.1182 32.7 56.0448 35.2 56.0448 39.9C56.0448 44.6 54.0168 47.1 50.8735 47.1C47.7301 47.2 45.7021 44.7 45.7021 39.9ZM53.307 39.9C53.307 36.6 52.5973 34.8 50.8735 34.8C49.1497 34.8 48.4399 36.6 48.4399 39.9C48.4399 43.2 49.1497 45 50.8735 45C52.5973 45 53.307 43.3 53.307 39.9Z" fill="#2EBAB2"/>
<defs>
<linearGradient id="paint0_linear_552_1231" x1="45.5" y1="32.9897" x2="45.5" y2="0.867152" gradientUnits="userSpaceOnUse">
<stop stop-color="#01A8DC"/>
<stop offset="1" stop-color="#59CD89"/>
</linearGradient>
<linearGradient id="paint1_linear_552_1231" x1="45.5" y1="32.9897" x2="45.5" y2="0.867199" gradientUnits="userSpaceOnUse">
<stop stop-color="#01A8DC"/>
<stop offset="1" stop-color="#59CD89"/>
</linearGradient>
<linearGradient id="paint2_linear_552_1231" x1="45.2967" y1="65.3328" x2="45.2967" y2="13.9743" gradientUnits="userSpaceOnUse">
<stop stop-color="#01A8DC"/>
<stop offset="1" stop-color="#59CD89"/>
</linearGradient>
<linearGradient id="paint3_linear_552_1231" x1="45.5005" y1="56.9115" x2="45.5005" y2="22.9955" gradientUnits="userSpaceOnUse">
<stop stop-color="#01A8DC"/>
<stop offset="1" stop-color="#59CD89"/>
</linearGradient>
</defs>
</svg>
