<svg width="99" height="67" viewBox="0 0 99 67" fill="none" xmlns="http://www.w3.org/2000/svg">
<path d="M27.2004 43.2002H21.6004V41.7002C21.6004 38.7002 19.2004 36.2002 16.1004 36.2002C13.0004 36.2002 10.6004 38.6002 10.6004 41.7002V43.2002H1.40039C0.900391 43.2002 0.400391 43.6002 0.400391 44.2002V65.0002C0.400391 65.5002 0.800391 66.0002 1.40039 66.0002H27.2004C27.7004 66.0002 28.2004 65.6002 28.2004 65.0002V44.2002C28.2004 43.7002 27.7004 43.2002 27.2004 43.2002ZM12.7004 41.7002C12.7004 39.8002 14.3004 38.2002 16.2004 38.2002C18.1004 38.2002 19.7004 39.8002 19.7004 41.7002V43.2002H12.8004V41.7002H12.7004ZM2.40039 63.5002V45.7002C2.40039 45.4002 2.60039 45.2002 2.90039 45.2002H4.40039V64.0002H2.90039C2.60039 64.0002 2.40039 63.8002 2.40039 63.5002ZM26.2004 63.5002C26.2004 63.8002 26.0004 64.0002 25.7004 64.0002H6.30039V45.2002H10.7004V48.2002H12.7004V45.2002H19.6004V48.2002H21.6004V45.2002H25.7004C26.0004 45.2002 26.2004 45.4002 26.2004 45.7002V63.5002Z" fill="url(#paint0_linear_552_1274)"/>
<path d="M18.0002 52.1002L17.7002 52.2002C17.3002 52.3002 16.4002 52.5002 15.2002 52.2002L14.8002 52.0002H14.7002H14.6002C14.4002 52.0002 14.3002 52.2002 14.3002 52.4002V52.5002L15.4002 55.4002C15.4002 55.5002 15.5002 55.8002 15.4002 56.0002C15.4002 56.1002 15.3002 56.1002 15.2002 56.2002C15.1002 56.2002 15.0002 56.3002 14.9002 56.3002C14.7002 56.3002 14.6002 56.2002 14.5002 56.1002L14.4002 56.0002V55.9002L13.3002 52.8002L13.2002 52.7002H13.1002L11.4002 52.8002H11.3002C11.2002 52.8002 11.1002 52.9002 11.1002 53.1002V53.2002L12.1002 55.7002C12.1002 55.8002 12.1002 55.8002 12.1002 55.9002C12.1002 56.2002 11.8002 56.5002 11.5002 56.5002C11.3002 56.5002 11.2002 56.4002 11.1002 56.3002L11.0002 56.2002C10.9002 56.1002 10.9002 56.0002 10.9002 56.0002L10.0002 53.1002C10.0002 53.0002 9.9002 52.9002 9.7002 52.9002L8.0002 53.0002C7.8002 53.0002 7.7002 53.1002 7.7002 53.3002V53.4002L9.3002 57.8002C9.4002 58.0002 9.5002 58.1002 9.7002 58.1002H23.0002C23.2002 58.1002 23.3002 58.0002 23.3002 57.8002L24.9002 53.4002V53.3002C24.9002 53.1002 24.8002 53.0002 24.6002 53.0002H23.4002H22.8002C22.7002 53.0002 22.6002 53.1002 22.5002 53.2002C22.5002 53.2002 22.5002 53.2002 22.5002 53.3002L21.9002 55.3002L22.0002 55.9002C21.9002 56.1002 21.7002 56.3002 21.5002 56.3002C21.3002 56.3002 21.1002 56.2002 21.0002 56.0002C20.9002 55.8002 21.0002 55.5002 21.0002 55.5002L21.9002 53.0002V52.9002C21.9002 52.8002 21.8002 52.6002 21.7002 52.6002H21.5002L20.0002 52.5002C19.9002 52.5002 19.8002 52.6002 19.7002 52.7002L19.6002 52.9002L18.6002 55.9002C18.5002 56.2002 18.3002 56.3002 18.0002 56.3002C17.8002 56.3002 17.7002 56.2002 17.6002 56.1002C17.4002 55.9002 17.5002 55.5002 17.6002 55.4002L18.6002 52.7002C18.6002 52.7002 18.6002 52.6002 18.6002 52.5002C18.6002 52.3002 18.4002 52.1002 18.2002 52.1002C18.1002 52.1002 18.1002 52.1002 18.0002 52.1002Z" fill="#12AFC9"/>
<path d="M25.1949 52.0853L7.79492 52.115L7.80516 58.115L25.2052 58.0853L25.1949 52.0853Z" fill="#12AFC9"/>
<path d="M40.0009 18.1001C45.0009 18.1001 48.1008 11.9001 45.6008 7.00011C47.3008 4.60011 46.4009 -0.199891 44.8008 0.600109C40.3008 2.80011 38.3009 0.700109 35.7009 1.90011C33.1009 3.00011 32.4009 5.80011 32.4009 5.80011C31.7009 8.40011 33.0008 10.6001 33.6008 11.3001C33.8008 15.2001 36.6009 18.1001 40.0009 18.1001ZM40.0009 16.5001C35.5009 16.5001 33.8009 9.80011 36.5009 6.80011C38.9009 9.20011 42.2009 9.50011 44.4009 8.20011C45.9009 12.0001 43.5009 16.5001 40.0009 16.5001ZM36.3008 3.40011C38.1009 2.60011 40.2008 4.30011 44.6008 2.50011C46.1008 7.90011 40.0009 8.70011 37.0009 5.10011C36.7009 4.80011 36.2008 4.70011 35.8008 5.00011C35.0008 5.70011 34.3008 6.80011 33.8008 8.00011C33.5008 5.90011 34.9008 4.10011 36.3008 3.40011Z" fill="url(#paint1_linear_552_1274)"/>
<path d="M96.6008 40.7002V26.1002C96.6008 22.9002 94.8008 20.0002 92.0008 18.5002C91.4008 18.0002 90.4008 18.5002 90.6008 19.3002C89.6008 23.4002 84.4008 22.8002 83.8008 19.3002C83.8008 19.2002 83.7008 19.1002 83.7008 19.0002C83.7008 18.8002 83.6008 18.7002 83.5008 18.5002C83.0008 18.0002 82.4008 18.4002 81.8008 18.8002C79.0008 20.3002 77.2008 23.3002 77.2008 26.5002V27.5002C77.2008 29.3002 76.5008 31.1002 75.2008 32.4002L71.3008 36.3002L65.9008 41.7002L65.8008 41.8002C65.7008 41.9002 65.6008 42.0002 65.4008 42.0002C65.1008 42.2002 64.7008 42.3002 64.4008 42.4002H62.0008C61.6008 42.3002 61.3008 42.2002 61.0008 42.0002C60.8008 41.9002 60.7008 41.8002 60.6008 41.8002L60.5008 41.7002L54.7008 35.9002C54.6008 35.8002 54.5008 35.8002 54.5008 35.7002C54.3008 35.5002 54.1008 35.2002 53.9008 35.0002C52.1008 32.8002 51.1008 31.7002 51.1008 24.9002C51.1008 19.6002 45.3008 17.1002 44.3008 17.9002C43.0008 18.9002 41.5008 19.4002 40.0008 19.4002C38.5008 19.4002 37.0008 18.9002 35.7008 17.9002C35.5008 17.8002 35.3008 17.7002 35.0008 17.7002C31.4008 18.5002 28.8008 21.5002 28.8008 24.9002V39.0002V41.3002C28.8008 42.3002 28.9008 43.5002 29.9008 43.5002H31.2008H32.6008V60.9002C31.5008 61.8002 31.7008 62.9002 31.7008 63.6002C31.7008 64.7002 32.6008 65.7002 33.8008 65.7002H46.3008C47.4008 65.7002 48.4008 64.8002 48.4008 63.6002V62.9002C48.4008 62.1002 48.0008 61.4002 47.5008 60.9002V39.9002V35.4002C48.3008 36.6002 49.3008 37.5002 50.5008 38.6002C50.8008 38.8002 51.1008 39.1002 51.4008 39.4002L57.2008 45.2002C57.2008 45.2002 57.2008 45.2002 57.3008 45.3002C58.0008 46.5002 58.4008 47.9002 58.4008 49.4002V53.5002C58.4008 53.6002 58.4008 53.6002 58.4008 53.7002V62.4002C56.9008 63.8002 57.6008 66.6002 59.7008 66.6002H67.0008C69.1008 66.6002 69.8008 63.9002 68.3008 62.4002V53.7002C68.3008 53.6002 68.3008 53.6002 68.3008 53.5002V49.4002C68.3008 48.0002 68.7008 46.6002 69.4008 45.3002L69.5008 45.2002L71.4008 43.3002C71.5008 43.3002 71.5008 43.2002 71.6008 43.2002L79.6008 35.1002C80.6008 34.1002 81.4008 32.7002 81.8008 31.3002C81.8008 32.1002 81.8008 32.8002 81.8008 33.5002C78.7008 38.0002 77.3008 41.7002 76.4008 47.6002C76.3008 47.9002 76.5008 48.3002 76.8008 48.4002C79.1008 49.7002 80.5008 50.4002 82.0008 50.8002L82.7008 61.8002C80.0008 62.7002 79.7008 66.5002 82.2008 66.5002H92.6008C93.6008 66.5002 94.3008 65.7002 94.3008 64.8002C94.3008 63.4002 93.4008 62.3002 92.2008 61.8002L92.9008 50.8002C94.4008 50.4002 95.8008 49.7002 98.0008 48.4002C98.3008 48.2002 98.4008 47.9002 98.4008 47.6002C97.8008 44.9002 97.3008 42.7002 96.6008 40.7002ZM94.9008 26.1002V37.0002C94.3008 35.8002 93.6008 34.7002 92.7008 33.4002C92.5008 31.1002 92.9008 28.0002 93.2008 27.0002C93.3008 26.8002 93.3008 26.6002 93.4008 26.5002L93.5008 26.1002C93.8008 25.4002 94.0008 24.4002 93.8008 23.3002C93.7008 22.9002 93.6008 22.5002 93.4008 22.0002C94.5008 23.2002 94.9008 24.6002 94.9008 26.1002ZM72.8008 37.0002C73.1008 36.7002 73.6008 36.7002 74.0008 37.0002C74.2008 37.2002 74.2008 37.4002 74.2008 37.6002C74.2008 37.8002 74.1008 38.0002 74.0008 38.2002L68.8008 43.4002L67.6008 42.2002L68.1008 41.7002C68.2008 41.7002 68.2008 41.6002 68.3008 41.6002L72.3008 37.5002L72.8008 37.0002ZM66.5008 49.3002V52.6002H59.9008V49.3002C59.9008 47.7002 59.5008 46.1002 58.7008 44.7002L60.0008 43.4002C60.1008 43.4002 60.1008 43.5002 60.2008 43.5002C61.1008 44.0002 62.1008 44.3002 63.2008 44.3002C64.2008 44.3002 65.2008 44.0002 66.2008 43.5002C66.3008 43.5002 66.4008 43.4002 66.4008 43.4002L67.7008 44.7002C66.9008 46.0002 66.5008 47.6002 66.5008 49.3002ZM31.2008 41.9002C30.8008 41.9002 30.5008 41.6002 30.5008 41.3002V39.8002H32.6008V39.9002V41.3002C32.6008 41.5002 32.6008 41.7002 32.6008 41.9002H31.2008ZM46.2008 64.0002C32.9008 64.0002 33.3008 64.2002 33.3008 63.6002C33.3008 63.6002 33.3008 62.9002 33.3008 62.8002C33.3008 62.3002 33.8008 61.9002 34.3008 61.9002H39.2008V62.0002C39.2008 62.5002 39.6008 62.8002 40.0008 62.8002C40.4008 62.8002 40.8008 62.5002 40.8008 61.9002H45.7008C46.3008 61.9002 46.7008 62.4002 46.7008 62.9002C46.6008 63.4002 46.7008 64.0002 46.2008 64.0002ZM40.8008 60.3002V44.6002C40.8008 44.1002 40.4008 43.8002 40.0008 43.8002C39.5008 43.8002 39.2008 44.2002 39.2008 44.6002V60.3002H34.3008V41.3002V39.9002V39.8002H45.8008V39.9002V60.3002C45.7008 60.3002 40.8008 60.3002 40.8008 60.3002ZM47.3008 26.7002V25.5002C47.3008 25.1002 46.9008 24.7002 46.5008 24.7002C46.1008 24.7002 45.7008 25.1002 45.7008 25.5002V26.7002V38.1002H34.2008V25.8002C34.2008 25.3002 33.8008 25.0002 33.4008 25.0002C32.9008 25.0002 32.6008 25.4002 32.6008 25.8002V38.1002H30.5008V24.8002C30.5008 22.3002 32.3008 20.1002 35.0008 19.3002C36.5008 20.4002 38.2008 20.9002 40.0008 20.9002C41.8008 20.9002 43.5008 20.3002 45.0008 19.3002C47.7008 20.0002 49.5008 22.3002 49.5008 24.8002C49.5008 31.3002 50.3008 33.1002 52.1008 35.3002C51.8008 35.4002 51.5008 35.6002 51.3008 35.8002C51.1008 36.0002 50.9008 36.3002 50.8008 36.6002C48.5008 34.7002 47.3008 33.2002 47.3008 26.7002ZM52.4008 38.2002C52.4008 38.2002 52.3008 38.1002 52.4008 38.2002C52.2008 38.0002 52.2008 37.8002 52.2008 37.6002C52.2008 37.4002 52.3008 37.2002 52.4008 37.0002C52.6008 36.8002 52.8008 36.8002 53.0008 36.8002C53.2008 36.8002 53.3008 36.8002 53.5008 36.9002L53.6008 37.0002L58.8008 42.2002L57.6008 43.4002L52.9008 38.7002L52.4008 38.2002ZM67.2008 64.4002C67.2008 64.6002 67.0008 64.8002 66.8008 64.8002C59.2008 64.8002 59.1008 65.0002 59.1008 64.4002V64.2002C59.1008 63.7002 59.5008 63.2002 60.1008 63.2002H62.4008C62.4008 63.7002 62.8008 64.0002 63.2008 64.0002C63.6008 64.0002 64.0008 63.6002 64.0008 63.2002H66.3008C66.8008 63.2002 67.3008 63.6002 67.3008 64.2002V64.4002H67.2008ZM66.2008 61.5002H64.0008V57.5002C64.0008 57.0002 63.6008 56.7002 63.2008 56.7002C62.8008 56.7002 62.4008 57.1002 62.4008 57.5002V61.5002C62.2008 61.5002 60.1008 61.5002 59.9008 61.5002V54.1002H66.4008V61.5002C66.4008 61.5002 66.3008 61.5002 66.2008 61.5002ZM80.5008 28.3002C80.5008 30.4002 79.6008 32.5002 78.3008 33.8002L75.6008 36.5002C75.5008 36.3002 75.3008 36.0002 75.1008 35.8002C74.9008 35.6002 74.7008 35.4002 74.4008 35.3002L76.3008 33.4002C77.9008 31.8002 78.8008 29.6002 78.8008 27.4002V26.4002C78.8008 24.4002 79.6008 22.5002 81.1008 21.2002C80.7008 22.1002 80.5008 22.6002 80.4008 23.2002C80.3008 23.9002 80.3008 24.6002 80.5008 25.1002C80.5008 25.4002 80.5008 26.2002 80.5008 28.3002ZM88.0008 61.3002V51.4002C89.0008 51.3002 90.0008 51.2002 91.0008 51.1002L90.3008 61.5002L88.0008 61.3002ZM86.4008 61.3002L84.0008 61.5002L83.3008 51.1002C84.3008 51.3002 85.3008 51.4002 86.3008 51.4002V61.3002H86.4008ZM92.5008 64.7002C92.5008 64.8002 92.5008 64.8002 92.4008 64.8002H82.0008C81.9008 64.8002 81.9008 64.8002 81.9008 64.7002C81.9008 63.9002 82.6008 63.2002 83.4008 63.2002H86.4008C86.6008 64.1002 87.8008 64.1002 88.0008 63.2002H91.0008C91.8008 63.2002 92.5008 63.9002 92.5008 64.7002ZM87.3008 49.8002C87.2008 49.8002 87.2008 49.8002 87.3008 49.8002C82.8008 49.8002 80.6008 48.7002 77.9008 47.1002C78.8008 41.7002 80.1008 38.3002 83.1008 34.1002C83.2008 34.0002 83.2008 33.9002 83.2008 33.7002C83.4008 31.2002 83.1008 27.7002 82.6008 26.4002C82.5008 26.2002 82.5008 26.0002 82.4008 25.8002L82.3008 25.4002C82.1008 24.7002 81.9008 24.1002 82.0008 23.4002C82.1008 23.0002 82.3008 22.4002 82.7008 21.4002C82.7008 21.3002 82.8008 21.2002 82.8008 21.1002C84.7008 24.5002 89.5008 24.5002 91.5008 21.2002C92.2008 23.0002 92.7008 23.6002 92.0008 25.4002L91.9008 25.8002C91.8008 26.0002 91.8008 26.2002 91.7008 26.4002C91.2008 27.7002 90.9008 31.2002 91.1008 33.7002C91.1008 33.8002 91.2008 34.0002 91.2008 34.1002C94.1008 38.3002 95.5008 41.7002 96.4008 47.1002C94.0008 48.6002 92.0008 49.7002 87.3008 49.8002Z" fill="url(#paint2_linear_552_1274)"/>
<path d="M98.301 14.1002C96.501 12.6002 96.401 11.0002 96.201 9.50019C95.701 5.50019 94.201 3.40019 92.801 2.40019C91.301 1.30019 89.401 0.900188 87.301 1.20019C85.201 0.900188 83.201 1.40019 81.801 2.40019C80.401 3.40019 78.901 5.50019 78.401 9.50019C78.201 10.8002 78.101 11.9002 77.201 13.1002C76.401 14.1002 75.901 14.1002 76.001 14.8002C76.301 16.9002 77.701 18.6002 79.601 19.3002C80.601 19.7002 81.201 18.2002 80.201 17.8002C79.001 17.3002 78.101 16.4002 77.801 15.0002C79.701 13.2002 79.901 11.3002 80.101 9.70019C81.001 1.30019 86.401 3.00019 87.301 2.90019C91.901 2.20019 93.901 5.20019 94.501 9.80019C94.701 11.4002 94.901 13.3002 96.801 15.1002C96.701 15.6002 96.401 16.2002 96.001 16.7002C95.501 17.3002 94.801 17.7002 94.401 17.8002C94.001 18.0002 93.801 18.5002 94.001 18.9002C94.201 19.3002 94.601 19.5002 95.101 19.4002C95.701 19.2002 96.601 18.7002 97.401 17.8002C98.301 16.8002 98.601 15.7002 98.701 14.9002C98.601 14.6002 98.501 14.3002 98.301 14.1002Z" fill="url(#paint3_linear_552_1274)"/>
<path d="M89.1009 4.60014C87.9009 3.80014 87.9009 6.10014 84.1009 8.90014C83.3009 9.50014 82.4009 10.0001 81.5009 10.4001C80.7009 10.8001 81.0009 12.0001 81.8009 12.0001H81.9009C83.0009 19.8001 91.3009 20.0001 92.6009 12.3001C92.7009 12.4001 92.8009 12.4001 93.0009 12.4001C93.9009 12.4001 94.1009 11.2001 93.3009 10.8001C91.4009 10.0001 89.7009 8.70014 88.3009 7.00014C88.6009 6.60014 88.9009 6.20014 89.2009 5.70014C89.5009 5.30014 89.4009 4.80014 89.1009 4.60014ZM91.0009 11.5001C90.7009 14.3001 89.1009 16.3001 87.2009 16.3001C85.4009 16.3001 83.7009 14.3001 83.4009 11.6001C83.4009 11.5001 83.3009 11.3001 83.3009 11.2001C84.7009 10.4001 86.0009 9.50014 87.2009 8.20014C88.4009 9.60014 89.6009 10.6001 91.0009 11.5001Z" fill="url(#paint4_linear_552_1274)"/>
<path d="M63.2011 41.2002C65.6011 41.2002 67.5011 39.0002 67.5011 36.3002C67.5011 34.1002 67.5011 30.7002 63.2011 30.7002C58.9011 30.7002 58.9011 34.1002 58.9011 36.3002C58.8011 39.0002 60.8011 41.2002 63.2011 41.2002ZM63.2011 32.3002C65.8011 32.3002 65.9011 33.7002 65.9011 36.3002C65.9011 38.1002 64.7011 39.6002 63.2011 39.6002C61.7011 39.6002 60.5011 38.1002 60.5011 36.3002C60.5011 33.8002 60.6011 32.3002 63.2011 32.3002Z" fill="#37BFA9"/>
<defs>
<linearGradient id="paint0_linear_552_1274" x1="14.2795" y1="66.0193" x2="14.2795" y2="36.2641" gradientUnits="userSpaceOnUse">
<stop stop-color="#02A8DB"/>
<stop offset="1" stop-color="#2CBBAA"/>
</linearGradient>
<linearGradient id="paint1_linear_552_1274" x1="39.321" y1="18.1467" x2="39.321" y2="0.55771" gradientUnits="userSpaceOnUse">
<stop offset="0.2626" stop-color="#55CB8D"/>
<stop offset="1" stop-color="#59CD89"/>
</linearGradient>
<linearGradient id="paint2_linear_552_1274" x1="63.5104" y1="66.4426" x2="63.5104" y2="17.6492" gradientUnits="userSpaceOnUse">
<stop stop-color="#01A8DC"/>
<stop offset="1" stop-color="#59CD89"/>
</linearGradient>
<linearGradient id="paint3_linear_552_1274" x1="87.2284" y1="19.4098" x2="87.2284" y2="1.13679" gradientUnits="userSpaceOnUse">
<stop offset="0.2626" stop-color="#55CB8D"/>
<stop offset="1" stop-color="#59CD89"/>
</linearGradient>
<linearGradient id="paint4_linear_552_1274" x1="87.3665" y1="17.9017" x2="87.3665" y2="4.41674" gradientUnits="userSpaceOnUse">
<stop offset="0.2626" stop-color="#55CB8D"/>
<stop offset="1" stop-color="#59CD89"/>
</linearGradient>
</defs>
</svg>
