<svg width="82" height="82" viewBox="0 0 82 82" fill="none" xmlns="http://www.w3.org/2000/svg">
<path d="M64.6445 1.71931C66.5255 1.56882 68.1723 2.97164 68.3228 4.85261L69.3226 17.3495C69.4553 19.0074 68.3749 20.5199 66.7637 20.9321L55.5138 23.8102C53.6857 24.2778 51.8246 23.175 51.3569 21.3469C50.8892 19.5188 51.9921 17.6577 53.8202 17.19L58.7939 15.9176C53.7706 12.3468 47.6318 10.2501 41.0003 10.2501C24.0176 10.2501 10.2503 24.0174 10.2503 41.0001C10.2503 57.9792 24.0116 71.7441 40.9893 71.7501C40.993 71.7501 40.9966 71.7501 41.0003 71.7501C43.0583 71.7501 45.0659 71.5484 47.0053 71.1647C48.8564 70.7985 50.6539 72.0023 51.0201 73.8533C51.3863 75.7044 50.1825 77.5019 48.3314 77.8681C45.9611 78.337 43.5132 78.5827 41.0114 78.5834C41.0077 78.5834 41.004 78.5835 41.0003 78.5835C20.2436 78.5835 3.41699 61.7568 3.41699 41.0001C3.41699 20.2434 20.2436 3.41678 41.0003 3.41678C48.7161 3.41678 55.891 5.74413 61.858 9.73155L61.5112 5.39759C61.3607 3.51662 62.7635 1.8698 64.6445 1.71931ZM44.417 23.9168C44.417 22.0298 42.8873 20.5001 41.0003 20.5001C39.1133 20.5001 37.5837 22.0298 37.5837 23.9168V41.0001C37.5837 41.9063 37.9436 42.7753 38.5844 43.416L45.4177 50.2494C46.752 51.5837 48.9153 51.5837 50.2496 50.2494C51.5839 48.9151 51.5839 46.7518 50.2496 45.4175L44.417 39.5849V23.9168ZM78.5837 41.0001C78.5837 39.1131 77.054 37.5834 75.167 37.5834C73.28 37.5834 71.7503 39.1131 71.7503 41.0001C71.7503 43.0581 71.5486 45.0656 71.1649 47.005C70.7988 48.8561 72.0025 50.6536 73.8536 51.0198C75.7047 51.386 77.5022 50.1823 77.8684 48.3312C78.338 45.9574 78.5837 43.5057 78.5837 41.0001ZM72.2513 61.8844C73.301 60.3164 72.8809 58.1942 71.3129 57.1445C69.7449 56.0947 67.6228 56.5148 66.573 58.0828C64.327 61.4377 61.4379 64.3268 58.0831 66.5728C56.5151 67.6225 56.095 69.7446 57.1447 71.3127C58.1945 72.8807 60.3166 73.3008 61.8846 72.251C65.9817 69.5081 69.5084 65.9814 72.2513 61.8844Z" fill="url(#paint0_linear_552_1291)"/>
<defs>
<linearGradient id="paint0_linear_552_1291" x1="5.79903" y1="1.70825" x2="62.968" y2="1.70825" gradientUnits="userSpaceOnUse">
<stop stop-color="#009FDF"/>
<stop offset="1" stop-color="#3CC39D"/>
</linearGradient>
</defs>
</svg>
