<svg width="78" height="79" viewBox="0 0 78 79" fill="none" xmlns="http://www.w3.org/2000/svg">
<path d="M39 0C17.472 0 0 17.696 0 39.5C0 61.304 17.472 79 39 79C60.528 79 78 61.304 78 39.5C78 17.696 60.528 0 39 0ZM39 76.63C18.72 76.63 2.34 60.04 2.34 39.5C2.34 18.96 18.72 2.37 39 2.37C59.28 2.37 75.66 18.96 75.66 39.5C75.66 60.04 59.28 76.63 39 76.63Z" fill="#C7C7C7"/>
<path d="M50.3104 46.4521L44.8504 42.8971V38.8681H43.0564V42.6601C42.2764 42.8971 40.7164 43.2921 39.4684 43.2921C39.3904 43.2921 39.3124 43.2921 39.1564 43.2921C37.5184 43.2131 35.7244 42.7391 34.9444 42.5021V38.7891H33.1504V42.8181L27.6904 46.3731C25.0384 48.1111 23.4004 51.0341 23.4004 54.2731V61.3041H25.1944V54.2731C25.1944 51.6661 26.5204 49.2961 28.6264 47.8741L34.1644 44.3191C35.1004 44.5561 37.1284 45.1091 39.2344 45.1091C39.3124 45.1091 39.3124 45.1091 39.3904 45.1091H39.4684H39.5464C39.6244 45.1091 39.7024 45.1091 39.7804 45.1091C41.4184 45.0301 43.0564 44.6351 43.9144 44.3191L49.4524 47.8741C51.6364 49.2961 52.8844 51.6661 52.8844 54.2731V61.3041H54.6004V54.2731C54.6004 51.1131 52.9624 48.1901 50.3104 46.4521Z" fill="#C3C3C3"/>
<path d="M49.0626 53.2461H47.2686V61.3831H49.0626V53.2461Z" fill="#C3C3C3"/>
<path d="M30.7325 53.2461H28.9385V61.3831H30.7325V53.2461Z" fill="#C3C3C3"/>
<path d="M18.4861 40.3691C22.1521 40.3691 25.1161 37.3671 25.1161 33.6541V26.2281C25.4281 26.4651 25.7401 26.6231 26.1301 26.7811C25.9741 27.4921 25.8961 28.2031 25.8961 28.9141C25.8961 32.4691 27.8461 35.8661 31.2001 38.0781C32.6821 38.9471 35.1781 40.0531 39.0001 40.2901C39.0001 40.2901 44.2261 40.1321 47.8141 37.2881C50.5441 35.1551 52.1041 32.0741 52.1041 28.9141C52.1041 28.2031 52.0261 27.4921 51.8701 26.7811C52.2601 26.6231 52.5721 26.4651 52.8841 26.2281V33.6541C52.8841 37.3671 55.8481 40.3691 59.5141 40.3691C60.0601 40.3691 60.5281 39.8951 60.5281 39.3421V28.0451C60.5281 24.7271 58.1101 21.8831 54.8341 21.4091C54.3661 19.1971 52.4161 17.5381 50.2321 17.5381C48.7501 17.5381 47.2681 18.2491 46.4101 19.5131C44.2261 18.2491 41.6521 17.5381 39.0781 17.5381C36.4261 17.5381 33.9301 18.2491 31.7461 19.5131C30.8881 18.2491 29.4061 17.5381 27.9241 17.5381C25.6621 17.5381 23.7121 19.1181 23.3221 21.4091C20.0461 21.8831 17.6281 24.7271 17.6281 28.0451V39.3421C17.4721 39.8951 17.9401 40.3691 18.4861 40.3691ZM54.9121 23.5421C57.0181 24.0161 58.5001 25.9121 58.5001 28.0451V38.2361C56.3941 37.7621 54.9121 35.8661 54.9121 33.7331V23.5421ZM50.1541 19.5921C51.6361 19.5921 52.8841 20.8561 52.8841 22.3571C52.8841 23.4631 52.2601 24.4901 51.2461 24.8851C50.5441 23.3051 49.4521 21.8831 48.0481 20.6981C48.5161 20.0661 49.2961 19.5921 50.1541 19.5921ZM49.8421 27.0181H48.2821C44.0701 27.0181 40.5601 23.8581 40.0141 19.6711C44.8501 20.0661 48.8281 23.0681 49.8421 27.0181ZM48.2821 29.0721H50.0761C49.9981 34.2071 45.0841 38.3151 39.0001 38.3151C32.9161 38.3151 27.9241 34.1281 27.9241 29.0721H29.7181C33.6961 29.0721 37.2841 26.7021 39.0001 23.0681C40.7161 26.7021 44.3821 29.0721 48.2821 29.0721ZM37.9081 19.6711C37.3621 23.8581 33.8521 27.0181 29.6401 27.0181H28.0801C29.1721 23.0681 33.1501 20.0661 37.9081 19.6711ZM27.8461 19.5921C28.7041 19.5921 29.4841 19.9871 30.0301 20.6981C28.6261 21.8831 27.5341 23.3051 26.8321 24.8851C25.8181 24.4901 25.1941 23.4631 25.1941 22.3571C25.1161 20.8561 26.3641 19.5921 27.8461 19.5921ZM19.5001 28.0451C19.5001 25.9121 20.9821 24.0161 23.0881 23.5421V33.7331C23.0881 35.8661 21.6061 37.7621 19.5001 38.2361V28.0451Z" fill="#C3C3C3"/>
</svg>
