<svg width="79" height="79" viewBox="0 0 79 79" fill="none" xmlns="http://www.w3.org/2000/svg">
<path d="M39.5 0C17.696 0 0 17.696 0 39.5C0 61.304 17.696 79 39.5 79C61.304 79 79 61.304 79 39.5C79 17.696 61.304 0 39.5 0ZM39.5 76.63C18.96 76.63 2.37 60.04 2.37 39.5C2.37 18.96 18.96 2.37 39.5 2.37C60.04 2.37 76.63 18.96 76.63 39.5C76.63 60.04 60.04 76.63 39.5 76.63Z" fill="url(#paint0_linear_552_1047)"/>
<path d="M40.7358 21.2389L38.0508 26.6089L39.7466 27.4568L42.4316 22.0868L40.7358 21.2389Z" fill="url(#paint1_linear_552_1047)"/>
<path d="M45.6616 42.0279C40.4476 42.0279 36.1816 37.7619 36.1816 32.5479C36.1816 31.0469 36.4976 29.6249 37.2086 28.2819L38.6306 25.5169L40.2896 26.3859L38.8676 29.1509C38.3146 30.1779 38.0776 31.3629 38.0776 32.5479C38.0776 36.7349 41.4746 40.1319 45.6616 40.1319C48.5846 40.1319 51.1916 38.5519 52.4556 35.9449L55.2996 30.2569C55.8526 29.2299 56.0896 28.0449 56.0896 26.8599C56.0896 23.2259 53.5616 19.2759 49.4536 19.2759C46.2146 19.2759 44.0026 16.9849 42.8176 15.4049C42.3436 16.3529 41.7906 17.6169 41.7906 18.7229C41.7906 22.5939 45.5036 24.4899 45.7406 24.5689L44.9506 26.3069C44.7136 26.2279 39.9736 23.8579 39.9736 18.7229C39.9736 16.1159 41.9486 13.1139 42.0276 13.0349L42.8966 11.6919L43.6076 13.1139C43.6076 13.1929 45.7406 17.3009 49.3746 17.3009C54.1146 17.3009 57.9066 21.5669 57.9066 26.7809C57.9066 28.2819 57.5906 29.7039 56.8796 31.0469L54.0356 36.7349C52.5346 39.9739 49.2956 42.0279 45.6616 42.0279Z" fill="url(#paint2_linear_552_1047)"/>
<path d="M57.0379 64.7798H55.1419V57.3538C55.1419 54.5888 53.7989 52.1398 51.4289 50.6388L44.7139 46.3728V41.0798H46.6099V45.2668L52.4559 48.9798C55.2999 50.7968 57.0379 53.8778 57.0379 57.2748V64.7798Z" fill="url(#paint3_linear_552_1047)"/>
<path d="M34.0492 44.8718C30.8892 44.8718 28.7562 43.0548 27.6502 39.4998L26.7812 36.8928L34.8392 38.1568L34.5232 40.0528L29.4672 39.2628C30.3362 41.8698 31.8372 43.0548 33.9702 43.0548C34.9182 43.0548 35.8662 42.5018 36.4192 41.7118L38.7102 37.9198L40.3692 38.8678L38.1572 42.5018C37.2882 44.0028 35.7082 44.8718 34.0492 44.8718Z" fill="url(#paint4_linear_552_1047)"/>
<path d="M33.8189 38.0043L33.5176 39.8762L38.5874 40.6922L38.8886 38.8203L33.8189 38.0043Z" fill="url(#paint5_linear_552_1047)"/>
<path d="M49.4536 59.0918H47.5576V64.7798H49.4536V59.0918Z" fill="url(#paint6_linear_552_1047)"/>
<path d="M41.8695 47.7159C37.4455 47.7159 35.3915 43.8449 35.3125 43.6869L36.9715 42.8179C37.0505 42.9759 38.5515 45.8199 41.7905 45.8199C43.1335 45.8199 44.7135 45.1879 45.1875 44.9509L45.9775 46.6889C45.9775 46.6889 43.9235 47.7159 41.8695 47.7159Z" fill="url(#paint7_linear_552_1047)"/>
<path d="M37.1304 15.4839H35.2344V20.2239H37.1304V15.4839Z" fill="url(#paint8_linear_552_1047)"/>
<path d="M28.1004 17.2788L26.3359 17.9729L28.0134 22.2369L29.7778 21.5428L28.1004 17.2788Z" fill="url(#paint9_linear_552_1047)"/>
<path d="M20.1912 21.8315L18.8506 23.1721L21.8671 26.1886L23.2077 24.8479L20.1912 21.8315Z" fill="url(#paint10_linear_552_1047)"/>
<path d="M26.7019 64.7799H24.8059V57.1959C24.8059 54.5889 22.8309 48.9799 21.0929 43.9239C19.5129 39.4999 18.1699 35.7079 18.1699 33.9699C18.1699 31.5999 20.0659 29.7039 22.4359 29.7039C22.7519 29.7039 23.0679 29.7039 23.3839 29.7829L37.4459 32.9429L37.0509 34.7599L22.9889 31.5999C22.8309 31.5999 22.6729 31.5209 22.4359 31.5209C21.0929 31.5209 20.0659 32.5479 20.0659 33.8909C20.0659 35.3129 21.4879 39.3419 22.8309 43.2919C24.7269 48.6639 26.7019 54.2729 26.7019 57.1169V64.7799Z" fill="url(#paint11_linear_552_1047)"/>
<defs>
<linearGradient id="paint0_linear_552_1047" x1="2.50352" y1="0" x2="62.588" y2="0" gradientUnits="userSpaceOnUse">
<stop stop-color="#009FDF"/>
<stop offset="1" stop-color="#3CC39D"/>
</linearGradient>
<linearGradient id="paint1_linear_552_1047" x1="38.1359" y1="26.4387" x2="40.178" y2="22.3545" gradientUnits="userSpaceOnUse">
<stop stop-color="#009FDF"/>
<stop offset="1" stop-color="#3CC39D"/>
</linearGradient>
<linearGradient id="paint2_linear_552_1047" x1="36.8701" y1="11.6919" x2="53.3934" y2="11.6919" gradientUnits="userSpaceOnUse">
<stop stop-color="#009FDF"/>
<stop offset="1" stop-color="#3CC39D"/>
</linearGradient>
<linearGradient id="paint3_linear_552_1047" x1="45.1044" y1="41.0798" x2="54.4776" y2="41.0798" gradientUnits="userSpaceOnUse">
<stop stop-color="#009FDF"/>
<stop offset="1" stop-color="#3CC39D"/>
</linearGradient>
<linearGradient id="paint4_linear_552_1047" x1="27.2119" y1="36.8928" x2="37.5464" y2="36.8928" gradientUnits="userSpaceOnUse">
<stop stop-color="#009FDF"/>
<stop offset="1" stop-color="#3CC39D"/>
</linearGradient>
<linearGradient id="paint5_linear_552_1047" x1="33.5271" y1="39.8169" x2="33.7563" y2="38.3932" gradientUnits="userSpaceOnUse">
<stop stop-color="#009FDF"/>
<stop offset="1" stop-color="#3CC39D"/>
</linearGradient>
<linearGradient id="paint6_linear_552_1047" x1="47.6177" y1="59.0918" x2="49.0597" y2="59.0918" gradientUnits="userSpaceOnUse">
<stop stop-color="#009FDF"/>
<stop offset="1" stop-color="#3CC39D"/>
</linearGradient>
<linearGradient id="paint7_linear_552_1047" x1="35.6505" y1="42.8179" x2="43.7619" y2="42.8179" gradientUnits="userSpaceOnUse">
<stop stop-color="#009FDF"/>
<stop offset="1" stop-color="#3CC39D"/>
</linearGradient>
<linearGradient id="paint8_linear_552_1047" x1="35.2945" y1="15.4839" x2="36.7365" y2="15.4839" gradientUnits="userSpaceOnUse">
<stop stop-color="#009FDF"/>
<stop offset="1" stop-color="#3CC39D"/>
</linearGradient>
<linearGradient id="paint9_linear_552_1047" x1="26.3919" y1="17.9509" x2="27.7338" y2="17.423" gradientUnits="userSpaceOnUse">
<stop stop-color="#009FDF"/>
<stop offset="1" stop-color="#3CC39D"/>
</linearGradient>
<linearGradient id="paint10_linear_552_1047" x1="18.8931" y1="23.1296" x2="19.9127" y2="22.11" gradientUnits="userSpaceOnUse">
<stop stop-color="#009FDF"/>
<stop offset="1" stop-color="#3CC39D"/>
</linearGradient>
<linearGradient id="paint11_linear_552_1047" x1="18.7808" y1="29.7039" x2="33.4414" y2="29.7039" gradientUnits="userSpaceOnUse">
<stop stop-color="#009FDF"/>
<stop offset="1" stop-color="#3CC39D"/>
</linearGradient>
</defs>
</svg>
