<svg width="78" height="79" viewBox="0 0 78 79" fill="none" xmlns="http://www.w3.org/2000/svg">
<path d="M39 0C17.472 0 0 17.696 0 39.5C0 61.304 17.472 79 39 79C60.528 79 78 61.304 78 39.5C78 17.696 60.528 0 39 0ZM39 76.63C18.72 76.63 2.34 60.04 2.34 39.5C2.34 18.96 18.72 2.37 39 2.37C59.28 2.37 75.66 18.96 75.66 39.5C75.66 60.04 59.28 76.63 39 76.63Z" fill="#C7C7C7"/>
<path d="M68.6398 49.77H2.33984V52.14H68.6398V49.77Z" fill="#C7C7C7"/>
<path d="M4.67969 38.71L7.01969 43.45H9.35969L7.01969 38.71H4.67969Z" fill="#C7C7C7"/>
<path d="M14.04 38.71L16.38 43.45H18.72L16.38 38.71H14.04Z" fill="#C7C7C7"/>
<path d="M28.8597 38.71L26.5197 43.45H24.1797L26.5197 38.71H28.8597Z" fill="#C7C7C7"/>
<path d="M38.22 38.71L35.88 43.45H33.54L35.88 38.71H38.22Z" fill="#C7C7C7"/>
<path d="M47.5804 38.71L45.2404 43.45H42.9004L45.2404 38.71H47.5804Z" fill="#C7C7C7"/>
<path d="M56.9398 38.71L54.5998 43.45H52.2598L54.5998 38.71H56.9398Z" fill="#C7C7C7"/>
<path d="M61.23 37.1301H60.84H4.29002H3.90002C2.57402 37.1301 1.32602 37.8411 0.624023 38.8681C0.780023 38.7891 0.936023 38.7891 1.01402 38.7101C0.858023 38.8681 0.702023 39.0261 0.624023 39.2631C0.780023 39.1841 0.936023 39.1841 1.09202 39.1051C1.09202 39.1841 1.01402 39.1841 1.01402 39.2631C1.32602 39.1051 1.56002 39.1051 1.95002 39.1051H60.84C62.166 39.1051 63.18 40.1321 63.18 41.4751V51.3501V51.7451H63.57H64.74H65.13V51.3501V41.4751V41.0801C65.13 38.8681 63.414 37.1301 61.23 37.1301Z" fill="#C7C7C7"/>
<path d="M49.1401 29.309C49.2961 29.309 49.4521 29.388 49.5301 29.467C48.8281 28.44 47.6581 27.729 46.2541 27.729H2.80807C2.73007 28.44 2.41807 29.072 1.87207 29.704H48.2041C48.5161 29.704 48.8281 29.783 49.1401 29.862C49.1401 29.783 49.0621 29.783 49.0621 29.704C49.2181 29.704 49.3741 29.783 49.5301 29.862C49.3741 29.625 49.2961 29.467 49.1401 29.309Z" fill="#C7C7C7"/>
<path d="M59.6697 37.9201L63.6477 37.9991L48.5157 28.3611L46.0977 29.3091L59.6697 37.9201Z" fill="#C7C7C7"/>
</svg>
