<svg width="78" height="79" viewBox="0 0 78 79" fill="none" xmlns="http://www.w3.org/2000/svg">
<path d="M39 0C17.472 0 0 17.696 0 39.5C0 61.304 17.472 79 39 79C60.528 79 78 61.304 78 39.5C78 17.696 60.528 0 39 0ZM39 76.63C18.72 76.63 2.34 60.04 2.34 39.5C2.34 18.96 18.72 2.37 39 2.37C59.28 2.37 75.66 18.96 75.66 39.5C75.66 60.04 59.28 76.63 39 76.63Z" fill="#C7C7C7"/>
<path d="M54.9116 24.3319C53.5076 21.1719 50.4656 18.9599 47.0336 18.6439C46.7216 18.6439 46.4096 18.5649 46.0976 18.5649C46.0196 19.1179 45.7856 19.6709 45.4736 20.2239C45.9416 20.2239 46.3316 20.3029 46.7996 20.3029C49.6856 20.6189 52.1816 22.4359 53.3516 25.0429C53.5076 25.3589 53.8196 25.5169 54.1316 25.5169C54.2096 25.5169 54.3656 25.5169 54.4436 25.4379C54.9116 25.2799 55.0676 24.7269 54.9116 24.3319Z" fill="#C7C7C7"/>
<path d="M35.412 18.4861C34.866 18.5651 34.242 18.5651 33.696 18.6441C32.916 18.7231 32.214 18.8811 31.512 19.1971C31.122 19.3551 30.888 19.8291 31.044 20.3031C31.2 20.6191 31.512 20.8561 31.824 20.8561C31.902 20.8561 31.98 20.8561 32.136 20.7771C32.76 20.5401 33.384 20.3821 34.008 20.3031C34.632 20.2241 35.256 20.1451 35.88 20.1451C35.568 19.6711 35.412 19.0391 35.412 18.4861Z" fill="#C7C7C7"/>
<path d="M29.7955 21.8829C29.5615 21.8829 29.2495 21.7249 29.0935 21.4879C28.8595 21.0929 28.9375 20.6189 29.3275 20.3029L29.4835 20.2239C29.8735 19.9869 30.3415 20.0659 30.6535 20.4609C30.8875 20.8559 30.8095 21.3299 30.4195 21.6459L30.2635 21.7249C30.1075 21.8039 29.9515 21.8829 29.7955 21.8829Z" fill="#C7C7C7"/>
<path d="M25.4275 28.5189C25.3495 28.5189 25.1935 28.5189 25.1155 28.4399C24.7255 28.2819 24.4915 27.8079 24.6475 27.3339L25.7395 24.8059C26.0515 24.0159 26.5195 23.2259 27.0655 22.5149C27.2215 22.2779 27.3775 22.0409 27.6115 21.8829C27.9235 21.5669 28.4695 21.4879 28.7815 21.8039C29.0935 22.1199 29.1715 22.6729 28.8595 22.9889C28.7035 23.1469 28.5475 23.3049 28.3915 23.5419C27.9235 24.0949 27.6115 24.7269 27.2995 25.4379L26.2075 27.9659C26.1295 28.2819 25.8175 28.5189 25.4275 28.5189Z" fill="#C7C7C7"/>
<path d="M25.0378 42.5019C24.4918 42.5019 24.0238 42.3439 23.6338 42.0279L20.9818 39.8159C20.1238 39.0259 19.8898 37.7619 20.5918 36.7349L25.7398 29.5459C26.1298 29.0719 26.6758 28.6769 27.2998 28.5979C27.9238 28.5189 28.5478 28.6769 29.0158 29.0719L31.6678 31.2839C32.7598 32.3109 32.7598 33.5749 31.6678 34.9969C31.3558 35.3919 30.8878 35.3919 30.4978 35.1549C30.1078 34.8389 30.1078 34.3649 30.3418 33.9699C31.0438 33.0219 30.8098 32.7849 30.5758 32.5479L27.9238 30.3359C27.7678 30.2569 27.6118 30.1779 27.4558 30.1779C27.2998 30.1779 27.1438 30.2569 27.0658 30.4149L21.9178 37.6829C21.7618 37.9199 21.7618 38.3149 21.9958 38.4729L24.6478 40.6849C24.7258 40.7639 24.9598 40.8429 25.1158 40.7639C25.3498 40.7639 25.5058 40.6059 25.5838 40.5269C25.8178 40.1319 26.3638 40.0529 26.7538 40.3689C27.1438 40.6059 27.2218 41.1589 26.9098 41.5539C26.5198 42.1069 25.9738 42.4229 25.2718 42.5019C25.1938 42.5019 25.1158 42.5019 25.0378 42.5019Z" fill="#C7C7C7"/>
<path d="M22.6197 35.866C22.3077 35.866 22.0737 35.708 21.9177 35.392L13.8837 20.382C13.8057 20.224 13.7277 19.987 13.8057 19.75C13.8837 19.513 14.0397 19.355 14.1957 19.276L16.4577 18.012C16.8477 17.775 17.3937 17.933 17.5497 18.328L24.9597 32.232C25.1937 32.627 25.0377 33.18 24.6477 33.338C24.2577 33.575 23.7117 33.417 23.5557 33.022L16.5357 19.908L15.7557 20.382L23.3997 34.602C23.6337 34.997 23.4777 35.55 23.0877 35.708C22.9317 35.866 22.7757 35.866 22.6197 35.866Z" fill="#C7C7C7"/>
<path d="M37.284 53.9571C36.972 53.9571 36.738 53.7991 36.582 53.4831L30.966 43.0551C30.732 42.5811 30.264 42.1861 29.796 41.9491L28.704 41.5541C28.08 41.3171 27.3 40.2901 27.066 39.8951C26.832 39.5001 26.988 38.9471 27.378 38.7891C27.768 38.5521 28.314 38.7101 28.47 39.1051C28.548 39.3421 29.094 39.8951 29.328 39.9741L30.342 40.3691C31.2 40.6851 31.98 41.3961 32.37 42.1861L37.986 52.6141C38.22 53.0091 38.064 53.5621 37.674 53.7201C37.596 53.8781 37.44 53.9571 37.284 53.9571Z" fill="#C7C7C7"/>
<path d="M38.7654 56.7221C38.4534 56.7221 38.2194 56.5641 38.0634 56.2481L37.6734 55.4581C37.4394 55.0631 37.5954 54.5101 37.9854 54.3521C38.3754 54.1151 38.9214 54.2731 39.0774 54.6681L39.4674 55.4581C39.7014 55.8531 39.5454 56.4061 39.1554 56.5641C39.0774 56.6431 38.9214 56.7221 38.7654 56.7221Z" fill="#C7C7C7"/>
<path d="M45.7077 68.6511C45.2397 68.6511 44.9277 68.3351 44.8497 67.8611C44.8497 67.3871 45.1617 66.9921 45.6297 66.9921C47.5797 66.9131 49.3737 66.7551 51.1677 66.4391C51.7137 66.3601 52.1817 65.8071 52.1037 65.2541L52.0257 63.2001C52.0257 62.8841 51.8697 62.5681 51.6357 62.4101C51.4017 62.1731 51.0897 62.0941 50.7777 62.1731C48.6717 62.4891 46.4097 62.6471 44.0697 62.6471C42.5097 62.6471 41.0277 61.8571 40.2477 60.4351L39.0777 58.3021C38.8437 57.9071 38.9997 57.3541 39.3897 57.1961C39.7797 56.9591 40.3257 57.1171 40.4817 57.5121L41.6517 59.6451C42.1197 60.5141 42.9777 61.0671 43.9917 60.9881C46.3317 60.9091 48.5157 60.7511 50.4657 60.5141C51.2457 60.4351 52.0257 60.5931 52.6497 61.1461C53.2737 61.6201 53.5857 62.4101 53.6637 63.1211L53.7417 65.2541C53.8197 66.6761 52.8057 67.9401 51.4017 68.1771C49.6077 68.4141 47.7357 68.5721 45.7077 68.6511Z" fill="#C7C7C7"/>
<path d="M43.2901 68.7301C42.8221 68.7301 42.3541 68.7301 41.8861 68.7301C39.4681 68.6511 37.2061 67.3081 36.0361 65.0961L25.6621 45.7411C25.2721 45.0301 25.1161 44.1611 25.1941 43.3711L25.3501 42.1861C25.3501 42.0281 25.3501 41.8701 25.2721 41.7911C25.0381 41.3961 25.1941 40.8431 25.5841 40.6851C25.9741 40.4481 26.5201 40.6061 26.6761 41.0011C26.9101 41.3961 26.9881 41.9491 26.9101 42.4231L26.7541 43.6081C26.6761 44.0821 26.8321 44.5561 26.9881 45.0301L37.4401 64.3061C38.2981 65.9651 40.0141 66.9921 41.8861 67.0711C42.3541 67.0711 42.9001 67.0711 43.3681 67.0711C43.8361 67.0711 44.2261 67.4661 44.2261 67.9401C44.2261 68.4141 43.8361 68.8091 43.3681 68.8091C43.3681 68.7301 43.2901 68.7301 43.2901 68.7301Z" fill="#C7C7C7"/>
<path d="M23.0097 62.4101C22.0737 62.4101 21.1377 62.0941 20.2797 61.5411L17.7057 59.6451C15.5997 58.1441 15.1317 55.2211 16.6137 53.0881L29.9517 34.2861C30.6537 33.2591 31.7457 32.6271 32.9937 32.3901C34.2417 32.1531 35.4117 32.4691 36.4257 33.1801L38.9997 35.0761C40.0137 35.7871 40.6377 36.8931 40.8717 38.1571C41.1057 39.4211 40.7937 40.6061 40.0917 41.6331L35.4117 48.1901C35.1777 48.5851 34.6317 48.6641 34.2417 48.3481C33.8517 48.1111 33.7737 47.5581 34.0857 47.1631L38.7657 40.6061C39.2337 39.9741 39.3897 39.1841 39.3117 38.3941C39.1557 37.6041 38.7657 36.8931 38.1417 36.4191L35.5677 34.5231C34.9437 34.0491 34.1637 33.8911 33.3837 33.9701C32.6037 34.1281 31.9017 34.5231 31.4337 35.1551L18.0177 54.1151C17.0817 55.4581 17.3937 57.3541 18.7197 58.3021L21.2937 60.1981C22.6197 61.1461 24.4917 60.8301 25.4277 59.4871L30.0297 53.0091C30.2637 52.6141 30.8097 52.5351 31.1997 52.8511C31.5897 53.0881 31.6677 53.6411 31.3557 54.0361L26.7537 60.5141C25.8957 61.6991 24.4137 62.4101 23.0097 62.4101Z" fill="#C7C7C7"/>
<path d="M17.8613 62.5681C17.7053 62.5681 17.6273 62.5681 17.4713 62.4891C17.0813 62.2521 16.9253 61.7781 17.0813 61.3831L18.0953 59.3291C18.3293 58.9341 18.7973 58.7761 19.1873 58.9341C19.5773 59.1711 19.7333 59.6451 19.5773 60.0401L18.5633 62.0941C18.4853 62.4101 18.1733 62.5681 17.8613 62.5681Z" fill="#C7C7C7"/>
<path d="M57.2513 62.4101C55.8473 62.4101 54.3653 61.6991 53.5073 60.4351L40.1693 41.6331C39.4673 40.6061 39.1553 39.3421 39.3893 38.1571C39.6233 36.8931 40.2473 35.8661 41.2613 35.0761L43.8353 33.1801C44.8493 32.4691 46.0973 32.1531 47.2673 32.3901C48.5153 32.6271 49.5293 33.2591 50.3093 34.2861L63.6473 53.0881C65.1293 55.2211 64.6613 58.1441 62.5553 59.6451L59.9813 61.5411C59.1233 62.0941 58.1873 62.4101 57.2513 62.4101ZM46.4873 34.0491C45.8633 34.0491 45.2393 34.2071 44.7713 34.6021L42.1973 36.4981C41.5733 36.9721 41.1053 37.6831 41.0273 38.4731C40.8713 39.2631 41.1053 40.0531 41.5733 40.6851L54.9113 59.4871C55.8473 60.8301 57.7193 61.1461 59.0453 60.1981L61.6193 58.3021C62.9453 57.3541 63.2573 55.4581 62.3213 54.1151L48.9053 35.2341C48.4373 34.6021 47.7353 34.1281 46.9553 34.0491C46.7993 34.0491 46.6433 34.0491 46.4873 34.0491Z" fill="#C7C7C7"/>
<path d="M62.3997 62.5681C62.0877 62.5681 61.7757 62.4101 61.6977 62.0941L60.6837 60.0401C60.4497 59.6451 60.6057 59.0921 61.0737 58.9341C61.4637 58.6971 62.0097 58.8551 62.1657 59.3291L63.1797 61.3831C63.4137 61.7781 63.2577 62.3311 62.7897 62.4891C62.6337 62.5681 62.5557 62.5681 62.3997 62.5681Z" fill="#C7C7C7"/>
<path d="M52.6494 39.974C52.3374 39.974 51.9474 39.737 51.8694 39.421C51.7134 38.947 51.9474 38.552 52.4154 38.394C52.9614 38.236 54.2874 37.604 54.5994 36.972C54.8334 36.577 55.3014 36.419 55.6914 36.656C56.0814 36.893 56.2374 37.367 56.0034 37.762C55.3014 39.184 53.1174 39.895 52.8834 39.974C52.8054 39.974 52.7274 39.974 52.6494 39.974Z" fill="#C7C7C7"/>
<path d="M48.7502 28.9931C48.4382 28.9931 48.1262 28.8351 48.0482 28.5191L47.2682 26.9391C47.0342 26.5441 47.2682 25.9911 47.6582 25.8331C48.0482 25.5961 48.5942 25.8331 48.7502 26.2281L49.5302 27.8081C49.7642 28.2031 49.5302 28.7561 49.1402 28.9141C48.9842 28.9931 48.8282 28.9931 48.7502 28.9931Z" fill="#C7C7C7"/>
<path d="M32.5253 28.519C32.3693 28.519 32.2913 28.519 32.1353 28.44C31.7453 28.203 31.5893 27.729 31.7453 27.334L32.2913 26.228C32.5253 25.833 32.9933 25.675 33.3833 25.833C33.7733 26.07 33.9293 26.544 33.7733 26.939L33.2273 28.045C33.1493 28.361 32.8373 28.519 32.5253 28.519Z" fill="#C7C7C7"/>
<path d="M44.5377 41.1589C44.3037 41.1589 43.9917 41.0009 43.8357 40.7639C43.6017 40.3689 43.6797 39.8949 44.0697 39.5789L47.7357 37.1299C48.1257 36.8929 48.5937 36.9719 48.9057 37.3669C49.1397 37.7619 49.0617 38.2359 48.6717 38.5519L45.0057 41.0009C44.8497 41.0799 44.6937 41.1589 44.5377 41.1589Z" fill="#C7C7C7"/>
<path d="M46.7213 44.2398C46.4873 44.2398 46.1753 44.0818 46.0193 43.8448C45.7853 43.4498 45.8633 42.9758 46.2533 42.6598L49.9193 40.2898C50.3093 40.0528 50.7773 40.1318 51.0893 40.5268C51.3233 40.9218 51.2453 41.3958 50.8553 41.7118L47.1893 44.1608C47.0333 44.2398 46.8773 44.2398 46.7213 44.2398Z" fill="#C7C7C7"/>
<path d="M48.9059 47.3999C48.6719 47.3999 48.3599 47.2419 48.2039 47.0049C47.9699 46.6099 48.0479 46.1359 48.4379 45.8199L52.1039 43.3709C52.4939 43.1339 52.9619 43.2129 53.2739 43.6079C53.5079 44.0029 53.4299 44.4769 53.0399 44.7929L49.3739 47.2419C49.2179 47.3209 49.0619 47.3999 48.9059 47.3999Z" fill="#C7C7C7"/>
<path d="M51.0114 50.5598C50.7774 50.5598 50.4654 50.4018 50.3094 50.1648C50.0754 49.7698 50.1534 49.2958 50.5434 48.9798L54.2094 46.5308C54.5994 46.2938 55.0674 46.3728 55.3794 46.7678C55.6134 47.1628 55.5354 47.6368 55.1454 47.9528L51.4794 50.4018C51.3234 50.4808 51.1674 50.5598 51.0114 50.5598Z" fill="#C7C7C7"/>
<path d="M53.2741 53.957C53.0401 53.957 52.7281 53.799 52.5721 53.562C52.3381 53.167 52.4161 52.693 52.8061 52.377L56.4721 49.928C56.8621 49.691 57.3301 49.77 57.6421 50.165C57.8761 50.56 57.7981 51.034 57.4081 51.35L53.7421 53.799C53.5861 53.878 53.4301 53.957 53.2741 53.957Z" fill="#C7C7C7"/>
<path d="M55.6139 57.196C55.3799 57.196 55.0679 57.038 54.9119 56.801C54.6779 56.406 54.7559 55.932 55.1459 55.616L58.8119 53.167C59.2019 52.93 59.6699 53.009 59.9819 53.404C60.2159 53.799 60.1379 54.273 59.7479 54.589L56.0819 57.038C55.9259 57.117 55.7699 57.196 55.6139 57.196Z" fill="#C7C7C7"/>
<path d="M35.7242 41.1589C35.5682 41.1589 35.4122 41.0799 35.2562 41.0009L31.5902 38.5519C31.2002 38.3149 31.1222 37.7619 31.3562 37.3669C31.5902 36.9719 32.1362 36.8929 32.5262 37.1299L36.1922 39.5789C36.5822 39.8159 36.6602 40.3689 36.4262 40.7639C36.2702 41.0009 36.0362 41.1589 35.7242 41.1589Z" fill="#C7C7C7"/>
<path d="M28.4706 50.0068C28.3146 50.0068 28.1586 49.9278 28.0026 49.8488L25.1166 47.9528C24.7266 47.7158 24.6486 47.1628 24.8826 46.7678C25.1166 46.3728 25.6626 46.2938 26.0526 46.5308L28.9386 48.4268C29.3286 48.6638 29.4066 49.2168 29.1726 49.6118C28.9386 49.8488 28.7046 50.0068 28.4706 50.0068Z" fill="#C7C7C7"/>
<path d="M26.9879 53.957C26.8319 53.957 26.6759 53.878 26.5199 53.799L22.8539 51.35C22.4639 51.113 22.3859 50.56 22.6199 50.165C22.8539 49.77 23.3999 49.691 23.7899 49.928L27.4559 52.377C27.8459 52.614 27.9239 53.167 27.6899 53.562C27.5339 53.799 27.2219 53.957 26.9879 53.957Z" fill="#C7C7C7"/>
<path d="M24.7262 57.196C24.5702 57.196 24.4142 57.117 24.2582 57.038L20.5922 54.589C20.2022 54.352 20.1242 53.799 20.3582 53.404C20.5922 53.009 21.1382 52.93 21.5282 53.167L25.1942 55.616C25.5842 55.853 25.6622 56.406 25.4282 56.801C25.1942 57.038 24.9602 57.196 24.7262 57.196Z" fill="#C7C7C7"/>
<path d="M56.7841 37.604C56.6281 37.604 56.3941 37.604 56.2381 37.604C53.1181 37.367 50.8561 33.417 50.4661 30.731C50.2321 28.993 50.7001 27.729 51.7921 27.255C53.0401 26.702 53.9761 27.255 54.5221 27.571C54.9901 27.808 54.9901 27.808 55.1461 27.729C55.4581 27.492 55.7701 26.939 56.0821 26.386C56.8621 25.043 57.9541 23.147 60.5281 23.384C63.1801 23.621 65.2861 25.596 65.6761 28.361C65.7541 28.835 65.4421 29.23 64.9741 29.309C64.5061 29.388 64.1161 29.072 64.0381 28.598C63.7261 26.623 62.3221 25.201 60.3721 25.043C58.8901 24.885 58.2661 25.754 57.4861 27.255C57.0961 27.966 56.7061 28.677 56.0821 29.072C55.0681 29.862 54.2101 29.309 53.6641 28.993C53.1961 28.756 52.8841 28.598 52.3381 28.756C52.0261 28.914 51.8701 29.546 52.0261 30.415C52.4161 32.785 54.3661 35.708 56.3161 35.866C58.9681 36.103 61.5421 34.207 62.8681 32.311C63.1021 31.916 63.6481 31.837 64.0381 32.153C64.4281 32.39 64.5061 32.943 64.1941 33.338C62.7121 35.471 59.8261 37.604 56.7841 37.604Z" fill="#C7C7C7"/>
<path d="M64.584 31.758C64.506 31.758 64.428 31.758 64.35 31.679C63.882 31.521 63.648 31.047 63.804 30.652C63.804 30.573 63.882 30.494 63.882 30.415C63.96 29.941 64.428 29.704 64.896 29.783C65.364 29.862 65.598 30.336 65.52 30.81C65.52 30.889 65.442 31.047 65.442 31.126C65.208 31.521 64.896 31.758 64.584 31.758Z" fill="#C7C7C7"/>
<path d="M40.7162 23.7C37.3622 23.7 34.6322 20.935 34.6322 17.538V14.931H35.6462V17.538C35.6462 20.382 37.9082 22.673 40.7162 22.673C43.5242 22.673 45.7862 20.382 45.7862 17.538V14.931C45.7862 12.087 43.5242 9.79597 40.7162 9.79597C38.6882 9.79597 36.4262 9.24297 35.1782 8.05797C34.8662 8.53197 34.6322 9.24297 34.6322 9.79597C34.6322 11.297 35.4122 12.877 37.2062 12.877V13.904C35.1002 13.904 33.6182 12.166 33.6182 9.79597C33.6182 8.53197 34.6322 7.10997 34.7102 6.87297L35.1002 6.24097L35.4902 6.87297C36.1142 7.89997 38.2982 8.68997 40.6382 8.68997C43.9922 8.68997 46.7222 11.455 46.7222 14.852V17.459C46.8002 20.935 44.0702 23.7 40.7162 23.7Z" fill="#C7C7C7"/>
<path d="M41.4964 23.7C38.1424 23.7 35.4124 20.935 35.4124 17.538V14.931H36.4264V17.538C36.4264 20.382 38.6884 22.673 41.4964 22.673C44.3044 22.673 46.5664 20.382 46.5664 17.538V14.931C46.5664 12.087 44.3044 9.79597 41.4964 9.79597C39.4684 9.79597 37.2064 9.24297 35.9584 8.05797C35.6464 8.53197 35.4124 9.24297 35.4124 9.79597C35.4124 11.297 36.1924 12.877 37.9864 12.877V13.904C35.8804 13.904 34.3984 12.166 34.3984 9.79597C34.3984 8.53197 35.4124 7.10997 35.4904 6.87297L35.8804 6.24097L36.2704 6.87297C36.8944 7.89997 39.0784 8.68997 41.4184 8.68997C44.7724 8.68997 47.5024 11.455 47.5024 14.852V17.459C47.5804 20.935 44.8504 23.7 41.4964 23.7Z" fill="#C7C7C7"/>
</svg>
