<svg width="79" height="79" viewBox="0 0 79 79" fill="none" xmlns="http://www.w3.org/2000/svg">
<path d="M39.5 0C17.696 0 0 17.696 0 39.5C0 61.304 17.696 79 39.5 79C61.304 79 79 61.304 79 39.5C79 17.696 61.304 0 39.5 0ZM39.5 76.63C18.96 76.63 2.37 60.04 2.37 39.5C2.37 18.96 18.96 2.37 39.5 2.37C60.04 2.37 76.63 18.96 76.63 39.5C76.63 60.04 60.04 76.63 39.5 76.63Z" fill="#C7C7C7"/>
<path d="M65.5697 54.3521H13.4297V55.774H65.5697V54.3521Z" fill="#C8C8C8"/>
<path d="M15.3256 49.454C15.9801 49.454 16.5106 48.9234 16.5106 48.269C16.5106 47.6145 15.9801 47.084 15.3256 47.084C14.6712 47.084 14.1406 47.6145 14.1406 48.269C14.1406 48.9234 14.6712 49.454 15.3256 49.454Z" fill="#C8C8C8"/>
<path d="M15.3256 53.3251C15.9801 53.3251 16.5106 52.7945 16.5106 52.1401C16.5106 51.4856 15.9801 50.9551 15.3256 50.9551C14.6712 50.9551 14.1406 51.4856 14.1406 52.1401C14.1406 52.7945 14.6712 53.3251 15.3256 53.3251Z" fill="#C8C8C8"/>
<path d="M22.0405 49.454C22.6949 49.454 23.2255 48.9234 23.2255 48.269C23.2255 47.6145 22.6949 47.084 22.0405 47.084C21.386 47.084 20.8555 47.6145 20.8555 48.269C20.8555 48.9234 21.386 49.454 22.0405 49.454Z" fill="#C8C8C8"/>
<path d="M22.0405 53.3251C22.6949 53.3251 23.2255 52.7945 23.2255 52.1401C23.2255 51.4856 22.6949 50.9551 22.0405 50.9551C21.386 50.9551 20.8555 51.4856 20.8555 52.1401C20.8555 52.7945 21.386 53.3251 22.0405 53.3251Z" fill="#C8C8C8"/>
<path d="M29.0717 49.454C29.7262 49.454 30.2567 48.9234 30.2567 48.269C30.2567 47.6145 29.7262 47.084 29.0717 47.084C28.4173 47.084 27.8867 47.6145 27.8867 48.269C27.8867 48.9234 28.4173 49.454 29.0717 49.454Z" fill="#C8C8C8"/>
<path d="M29.0717 53.3251C29.7262 53.3251 30.2567 52.7945 30.2567 52.1401C30.2567 51.4856 29.7262 50.9551 29.0717 50.9551C28.4173 50.9551 27.8867 51.4856 27.8867 52.1401C27.8867 52.7945 28.4173 53.3251 29.0717 53.3251Z" fill="#C8C8C8"/>
<path d="M36.0239 49.454C36.6783 49.454 37.2089 48.9234 37.2089 48.269C37.2089 47.6145 36.6783 47.084 36.0239 47.084C35.3694 47.084 34.8389 47.6145 34.8389 48.269C34.8389 48.9234 35.3694 49.454 36.0239 49.454Z" fill="#C8C8C8"/>
<path d="M36.0239 53.3251C36.6783 53.3251 37.2089 52.7945 37.2089 52.1401C37.2089 51.4856 36.6783 50.9551 36.0239 50.9551C35.3694 50.9551 34.8389 51.4856 34.8389 52.1401C34.8389 52.7945 35.3694 53.3251 36.0239 53.3251Z" fill="#C8C8C8"/>
<path d="M42.976 49.454C43.6305 49.454 44.161 48.9234 44.161 48.269C44.161 47.6145 43.6305 47.084 42.976 47.084C42.3216 47.084 41.791 47.6145 41.791 48.269C41.791 48.9234 42.3216 49.454 42.976 49.454Z" fill="#C8C8C8"/>
<path d="M42.976 53.3251C43.6305 53.3251 44.161 52.7945 44.161 52.1401C44.161 51.4856 43.6305 50.9551 42.976 50.9551C42.3216 50.9551 41.791 51.4856 41.791 52.1401C41.791 52.7945 42.3216 53.3251 42.976 53.3251Z" fill="#C8C8C8"/>
<path d="M63.9106 49.454C64.565 49.454 65.0956 48.9234 65.0956 48.269C65.0956 47.6145 64.565 47.084 63.9106 47.084C63.2561 47.084 62.7256 47.6145 62.7256 48.269C62.7256 48.9234 63.2561 49.454 63.9106 49.454Z" fill="#C8C8C8"/>
<path d="M63.9106 53.3251C64.565 53.3251 65.0956 52.7945 65.0956 52.1401C65.0956 51.4856 64.565 50.9551 63.9106 50.9551C63.2561 50.9551 62.7256 51.4856 62.7256 52.1401C62.7256 52.7945 63.2561 53.3251 63.9106 53.3251Z" fill="#C8C8C8"/>
<path d="M63.9106 41.7909C64.565 41.7909 65.0956 41.2604 65.0956 40.6059C65.0956 39.9514 64.565 39.4209 63.9106 39.4209C63.2561 39.4209 62.7256 39.9514 62.7256 40.6059C62.7256 41.2604 63.2561 41.7909 63.9106 41.7909Z" fill="#C8C8C8"/>
<path d="M63.9106 45.662C64.565 45.662 65.0956 45.1315 65.0956 44.477C65.0956 43.8225 64.565 43.292 63.9106 43.292C63.2561 43.292 62.7256 43.8225 62.7256 44.477C62.7256 45.1315 63.2561 45.662 63.9106 45.662Z" fill="#C8C8C8"/>
<path d="M56.9584 49.454C57.6129 49.454 58.1434 48.9234 58.1434 48.269C58.1434 47.6145 57.6129 47.084 56.9584 47.084C56.304 47.084 55.7734 47.6145 55.7734 48.269C55.7734 48.9234 56.304 49.454 56.9584 49.454Z" fill="#C8C8C8"/>
<path d="M56.9584 53.3251C57.6129 53.3251 58.1434 52.7945 58.1434 52.1401C58.1434 51.4856 57.6129 50.9551 56.9584 50.9551C56.304 50.9551 55.7734 51.4856 55.7734 52.1401C55.7734 52.7945 56.304 53.3251 56.9584 53.3251Z" fill="#C8C8C8"/>
<path d="M56.9584 45.662C57.6129 45.662 58.1434 45.1315 58.1434 44.477C58.1434 43.8225 57.6129 43.292 56.9584 43.292C56.304 43.292 55.7734 43.8225 55.7734 44.477C55.7734 45.1315 56.304 45.662 56.9584 45.662Z" fill="#C8C8C8"/>
<path d="M49.9282 45.662C50.5826 45.662 51.1132 45.1315 51.1132 44.477C51.1132 43.8225 50.5826 43.292 49.9282 43.292C49.2737 43.292 48.7432 43.8225 48.7432 44.477C48.7432 45.1315 49.2737 45.662 49.9282 45.662Z" fill="#C8C8C8"/>
<path d="M22.0405 45.662C22.6949 45.662 23.2255 45.1315 23.2255 44.477C23.2255 43.8225 22.6949 43.292 22.0405 43.292C21.386 43.292 20.8555 43.8225 20.8555 44.477C20.8555 45.1315 21.386 45.662 22.0405 45.662Z" fill="#C8C8C8"/>
<path d="M49.9282 49.454C50.5826 49.454 51.1132 48.9234 51.1132 48.269C51.1132 47.6145 50.5826 47.084 49.9282 47.084C49.2737 47.084 48.7432 47.6145 48.7432 48.269C48.7432 48.9234 49.2737 49.454 49.9282 49.454Z" fill="#C8C8C8"/>
<path d="M49.9282 53.3251C50.5826 53.3251 51.1132 52.7945 51.1132 52.1401C51.1132 51.4856 50.5826 50.9551 49.9282 50.9551C49.2737 50.9551 48.7432 51.4856 48.7432 52.1401C48.7432 52.7945 49.2737 53.3251 49.9282 53.3251Z" fill="#C8C8C8"/>
<path d="M13.4297 45.4248C13.4297 45.4248 17.3007 45.6618 18.9597 43.7658C18.9597 43.7658 19.9077 42.8178 22.8307 42.8178C22.8307 42.8178 27.2547 42.1858 29.7827 44.7138C29.7827 44.7138 34.1277 47.5578 39.1837 47.5578C39.1837 47.5578 41.3167 47.7948 42.5807 45.4248C42.5807 45.4248 43.7657 42.8178 46.9257 42.8178C50.0857 42.8178 53.8777 42.8178 53.8777 42.8178C53.8777 42.8178 59.1707 42.1068 59.1707 36.3398H57.2747C57.2747 36.3398 57.2747 40.9218 52.6927 40.9218C52.6927 40.9218 43.7657 40.2108 42.1067 43.0548C42.1067 43.0548 40.6847 45.8988 38.4727 45.8988C38.4727 45.8988 35.8657 45.8988 33.1797 44.0028C30.5727 42.1068 27.1757 40.8428 23.0677 40.8428C23.0677 40.8428 20.4607 40.6058 16.5897 43.4498C16.5897 43.4498 14.2197 44.1608 13.4297 43.6868V45.4248Z" fill="#C8C8C8"/>
<path d="M59.0917 36.735C59.0917 36.735 60.0397 29.783 53.5617 29.072C53.5617 29.072 48.9797 27.887 45.4247 31.442C45.4247 31.442 43.7657 32.864 42.5807 31.205V26.386C42.5807 26.386 42.8177 22.989 38.7097 23.226C38.7097 23.226 35.0757 23.226 31.9947 25.359C31.9947 25.359 27.8867 28.756 22.8307 28.756C22.8307 28.756 19.6707 29.23 17.3007 26.623C17.3007 26.623 16.5897 25.675 13.4297 26.149V28.045H16.2737C16.2737 28.045 17.9327 30.178 19.6707 30.415C21.3297 30.652 25.9117 30.652 25.9117 30.652C25.9117 30.652 28.0447 30.178 32.3897 27.492C32.3897 27.492 35.5497 25.359 38.8677 25.359C38.8677 25.359 40.7637 25.596 40.7637 27.018V32.311C40.7637 32.311 40.5267 33.97 43.9237 33.97C43.9237 33.97 46.0567 33.97 47.5577 32.548C48.9797 31.126 50.1647 30.889 51.9027 30.889C51.9027 30.889 57.4327 30.652 57.1957 36.182C57.1957 36.261 59.0917 37.209 59.0917 36.735Z" fill="#C8C8C8"/>
<path d="M25.9116 30.7311C25.9116 30.7311 21.9616 31.8371 18.8016 30.178C15.5626 28.598 25.9116 30.7311 25.9116 30.7311Z" fill="#C8C8C8"/>
<path d="M38.1567 23.3049C38.1567 23.3049 31.2047 22.5939 25.9117 25.2009C25.9117 25.2009 21.0927 29.0719 18.7227 28.3609L21.8827 29.5459L23.0677 29.0719C23.0677 29.0719 26.4647 25.9119 32.7057 25.4379C38.8677 24.9639 38.1567 23.3049 38.1567 23.3049Z" fill="#C8C8C8"/>
<path d="M50.6388 41.0799C50.6388 41.0799 47.0048 39.6579 45.8198 37.9199C45.8198 37.9199 45.1088 36.9719 43.4498 37.2089C43.4498 37.2089 40.8428 37.2089 40.8428 39.5789V45.1089L42.2648 43.6869V40.0529C42.2648 40.0529 42.2648 39.1049 43.6868 39.1049C43.6868 39.1049 44.6348 38.8679 45.5828 40.0529C45.5828 40.0529 46.7678 41.7119 48.7428 41.7119C50.7178 41.7119 50.6388 41.0799 50.6388 41.0799Z" fill="#C8C8C8"/>
<path d="M58.8546 36.261H65.5696V38.473H58.1436L58.8546 36.261Z" fill="#C8C8C8"/>
<path d="M40.606 35.0759H13.667V37.2089H40.606V35.0759Z" fill="#C8C8C8"/>
</svg>
