<svg width="79" height="79" viewBox="0 0 79 79" fill="none" xmlns="http://www.w3.org/2000/svg">
<path d="M39.5 0C17.696 0 0 17.696 0 39.5C0 61.304 17.696 79 39.5 79C61.304 79 79 61.304 79 39.5C79 17.696 61.304 0 39.5 0ZM39.5 76.63C18.96 76.63 2.37 60.04 2.37 39.5C2.37 18.96 18.96 2.37 39.5 2.37C60.04 2.37 76.63 18.96 76.63 39.5C76.63 60.04 60.04 76.63 39.5 76.63Z" fill="#C7C7C7"/>
<path d="M27.5706 58.302C27.5706 60.119 28.8346 61.62 30.4936 62.015V63.832V63.99C30.4936 64.227 30.4936 64.464 30.5726 64.78H56.0896C56.0896 64.78 59.4076 64.4639 60.8296 62.1729C61.3036 61.3829 61.5406 60.514 61.5406 59.566C61.5406 55.3 58.0646 51.9029 53.8776 51.9029H53.7986L38.2356 53.7989C37.9986 53.7989 37.7616 53.7989 37.5246 53.8779C38.1566 52.0609 38.0776 50.0859 37.3666 48.3479C37.3666 48.3479 37.3666 48.2689 37.2876 48.2689L34.4436 43.0549C33.2586 40.8429 32.3106 38.5519 31.6786 36.2609L30.1776 30.7309C30.1776 30.6519 30.1776 30.6519 30.0986 30.5729C29.3876 28.9139 27.4916 27.9659 25.4376 28.2819L24.8846 26.6229C26.3066 26.0699 27.3336 24.8059 27.5706 23.2259L28.2816 18.4859C28.4396 17.3799 28.2026 16.1949 27.4916 15.2469C26.7806 14.2989 25.7536 13.6669 24.6476 13.5089C23.5416 13.3509 22.3566 13.5879 21.4086 14.2989C20.4606 15.0099 19.8286 16.0369 19.6706 17.1429L18.9596 21.8829C18.5646 24.2529 20.2236 26.4649 22.5936 26.8599C22.6726 26.8599 22.8306 26.8599 22.9096 26.8599L23.5416 28.8349C21.5666 29.9409 20.5396 32.1529 21.1716 34.2069L27.8866 56.88C27.6496 57.275 27.5706 57.828 27.5706 58.302ZM29.4666 58.302C29.4666 57.275 30.3356 56.406 31.3626 56.406C32.3896 56.406 33.2586 57.275 33.2586 58.302C33.2586 59.329 32.3896 60.1979 31.3626 60.1979C30.3356 60.2769 29.4666 59.408 29.4666 58.302ZM37.0506 62.884C37.4456 61.62 38.6306 60.672 40.1316 60.672H49.6116C51.0336 60.672 52.2186 61.62 52.6926 62.884H37.0506ZM38.0776 55.695H38.1566L53.7196 53.7989C56.8796 53.7989 59.4076 56.406 59.4076 59.566C59.4076 61.462 57.9066 62.9629 56.0106 62.9629H54.5096C54.0356 60.5929 51.9816 58.776 49.5326 58.776H40.0526C37.5246 58.776 35.4706 60.5929 35.0756 62.9629H32.3896V62.094C34.0486 61.699 35.3126 60.198 35.3126 58.381C35.3126 57.828 35.1546 57.275 34.9176 56.722C35.7866 56.09 36.8926 55.695 38.0776 55.695ZM22.8306 24.8849C21.4876 24.6479 20.6186 23.4629 20.7766 22.1199L21.4876 17.3799C21.5666 16.7479 21.9616 16.1949 22.4356 15.7999C22.8306 15.4839 23.3836 15.3259 23.8576 15.3259C24.0156 15.3259 24.0946 15.3259 24.2526 15.3259C24.8846 15.4049 25.4376 15.7999 25.8326 16.2739C26.2276 16.8269 26.3856 17.4589 26.3066 18.0909L25.5956 22.8309C25.4376 24.1739 24.1736 25.1219 22.8306 24.8849ZM22.9886 33.6539C22.5936 32.2319 23.5416 30.6519 25.2006 30.1779C26.4646 29.7829 27.7286 30.2569 28.2026 31.2049L29.6246 36.6559C30.2566 39.1049 31.2836 41.5539 32.5476 43.9239L35.3916 49.0589C36.1026 50.7969 35.8656 52.693 34.9966 54.431C34.5226 54.668 34.0486 54.905 33.6536 55.221C33.0216 54.747 32.2316 54.51 31.4416 54.51C30.6516 54.51 30.0196 54.747 29.3876 55.142L22.9886 33.6539Z" fill="#C7C7C7"/>
<path d="M40.8422 48.4269C41.9482 43.3709 41.1582 41.7119 41.1582 41.7119C40.0522 37.7619 35.5492 33.5749 35.5492 33.5749C35.5492 33.5749 33.8902 31.5999 32.4682 29.3879C31.0462 27.1759 28.9922 28.4399 28.9922 28.4399C28.9922 28.4399 29.1502 30.4939 29.9402 29.9409C30.8092 29.3879 31.9152 31.3629 31.9152 31.3629L34.9172 35.1549L33.0212 36.1029L33.5742 37.5249L35.8652 36.4979C36.4972 37.0509 37.0502 37.6039 37.4452 38.2359L35.1542 39.3419L35.7862 40.9219L38.3932 39.7369C38.8672 40.6059 39.1042 41.3169 39.2622 41.7909L36.8922 42.9759L37.5242 44.5559L39.6572 43.6079C40.0522 46.2149 39.4202 46.2939 39.1042 48.5059C38.7882 51.0339 39.4202 54.1149 39.4202 54.1149L41.0792 54.4309C40.6052 52.9299 40.8422 48.4269 40.8422 48.4269Z" fill="#C7C7C7"/>
<path d="M51.2887 43.158L46.082 43.4292L46.1889 45.4803L51.3956 45.2091L51.2887 43.158Z" fill="#C7C7C7"/>
<path d="M48.1015 33.5777L43.499 35.6709L44.3494 37.5407L48.9519 35.4475L48.1015 33.5777Z" fill="#C7C7C7"/>
<path d="M41.9386 25.5172L38.7656 29.0386L40.2915 30.4135L43.4645 26.8922L41.9386 25.5172Z" fill="#C7C7C7"/>
</svg>
