<svg width="79" height="79" viewBox="0 0 79 79" fill="none" xmlns="http://www.w3.org/2000/svg">
<rect width="79" height="79" fill="white"/>
<path d="M39.5 0C17.696 0 0 17.696 0 39.5C0 61.304 17.696 79 39.5 79C61.304 79 79 61.304 79 39.5C79 17.696 61.304 0 39.5 0ZM39.5 76.63C18.96 76.63 2.37 60.04 2.37 39.5C2.37 18.96 18.96 2.37 39.5 2.37C60.04 2.37 76.63 18.96 76.63 39.5C76.63 60.04 60.04 76.63 39.5 76.63Z" fill="url(#paint0_linear_552_1021)"/>
<path d="M40.102 31.2813C36.31 31.2813 31.649 30.3333 29.358 29.3853C28.647 29.0693 28.252 28.4373 28.252 27.7263V17.6143C28.252 17.0613 28.489 16.5083 28.963 16.1923C29.437 15.8763 29.99 15.7183 30.543 15.8763L31.175 16.0343C33.229 16.5873 36.626 17.6143 40.102 17.6143C43.578 17.6143 46.975 16.6663 49.0289 16.0343L49.6609 15.8763C50.2139 15.7183 50.7669 15.7973 51.2409 16.1923C51.7149 16.5083 51.952 17.0613 51.952 17.6143V27.7263C51.952 28.5163 51.478 29.1483 50.767 29.3853C48.476 30.3333 43.815 31.2813 40.102 31.2813ZM30.069 17.6143V27.7263C32.123 28.5953 36.547 29.4643 40.102 29.4643C43.499 29.4643 48.002 28.5163 50.135 27.7263V17.6143L49.503 17.7723C47.37 18.4043 43.815 19.4313 40.102 19.4313C36.389 19.4313 32.834 18.4043 30.701 17.7723L30.069 17.6143Z" fill="url(#paint1_linear_552_1021)"/>
<path d="M51.083 26.7784V24.9614C52.663 24.9614 53.137 24.7244 53.532 24.4874C54.006 24.2504 54.48 24.0134 55.586 24.0134C56.06 24.0134 56.534 23.6184 56.534 23.0654C56.534 22.1964 55.902 21.2484 51.083 21.2484V19.4314C53.295 19.4314 58.351 19.4314 58.351 23.0654C58.351 24.5664 57.087 25.8304 55.586 25.8304C54.875 25.8304 54.717 25.9094 54.322 26.1464C53.769 26.3834 53.058 26.7784 51.083 26.7784Z" fill="url(#paint2_linear_552_1021)"/>
<path d="M33.7027 22.1963H31.8857V29.4643H33.7027V22.1963Z" fill="url(#paint3_linear_552_1021)"/>
<path d="M35.5201 46.2913H33.7031V50.7153H35.5201V46.2913Z" fill="url(#paint4_linear_552_1021)"/>
<path d="M46.5006 46.2913H44.6836V50.7153H46.5006V46.2913Z" fill="url(#paint5_linear_552_1021)"/>
<path d="M35.5201 29.8594H33.7031V34.2834H35.5201V29.8594Z" fill="url(#paint6_linear_552_1021)"/>
<path d="M46.5006 29.8594H44.6836V34.2834H46.5006V29.8594Z" fill="url(#paint7_linear_552_1021)"/>
<path d="M19.167 38.6284H14.585V40.4454H19.167V38.6284Z" fill="url(#paint8_linear_552_1021)"/>
<path d="M17.3864 30.151L16.1016 31.4358L18.9505 34.2847L20.2353 32.9999L17.3864 30.151Z" fill="url(#paint9_linear_552_1021)"/>
<path d="M18.97 44.7646L16.1211 47.6135L17.4059 48.8983L20.2548 46.0494L18.97 44.7646Z" fill="url(#paint10_linear_552_1021)"/>
<path d="M65.6982 38.6284H61.1162V40.4454H65.6982V38.6284Z" fill="url(#paint11_linear_552_1021)"/>
<path d="M62.7229 30.1665L59.874 33.0154L61.1588 34.3002L64.0077 31.4513L62.7229 30.1665Z" fill="url(#paint12_linear_552_1021)"/>
<path d="M61.1735 44.7687L59.8887 46.0535L62.7376 48.9024L64.0224 47.6176L61.1735 44.7687Z" fill="url(#paint13_linear_552_1021)"/>
<path d="M40.102 47.7132C36.31 47.7132 31.649 46.7652 29.358 45.8172C28.647 45.5012 28.252 44.8692 28.252 44.1582V34.0462C28.252 33.4932 28.489 32.9402 28.963 32.6242C29.437 32.3082 29.99 32.1502 30.543 32.3082L31.175 32.4662C33.229 33.0192 36.626 34.0462 40.102 34.0462C43.578 34.0462 46.975 33.0982 49.0289 32.4662L49.6609 32.3082C50.2139 32.1502 50.7669 32.2292 51.2409 32.6242C51.7149 32.9402 51.952 33.4932 51.952 34.0462V44.1582C51.952 44.9482 51.478 45.5802 50.767 45.8172C48.476 46.7652 43.815 47.7132 40.102 47.7132ZM30.069 34.0462V44.1582C32.123 45.0272 36.547 45.8962 40.102 45.8962C43.499 45.8962 48.002 44.9482 50.135 44.1582V34.0462L49.503 34.2042C47.37 34.8362 43.736 35.8632 40.102 35.8632C36.468 35.8632 32.834 34.8362 30.701 34.2042L30.069 34.0462Z" fill="url(#paint14_linear_552_1021)"/>
<path d="M33.7027 38.6284H31.8857V45.8964H33.7027V38.6284Z" fill="url(#paint15_linear_552_1021)"/>
<path d="M40.102 64.1454C36.31 64.1454 31.649 63.1974 29.358 62.2494C28.726 62.0124 28.252 61.3014 28.252 60.5904V50.4784C28.252 49.9254 28.489 49.3724 28.963 49.0564C29.437 48.7404 29.99 48.5824 30.543 48.7404L31.175 48.8984C33.229 49.4514 36.626 50.4784 40.102 50.4784C43.578 50.4784 46.975 49.5304 49.0289 48.8984L49.6609 48.7404C50.2139 48.5824 50.7669 48.6614 51.2409 49.0564C51.7149 49.3724 51.952 49.9254 51.952 50.4784V60.5904C51.952 61.3804 51.478 62.0124 50.767 62.2494C48.476 63.1974 43.815 64.1454 40.102 64.1454ZM30.069 50.4784V60.5904C32.123 61.4594 36.547 62.3284 40.102 62.3284C43.499 62.3284 48.002 61.3804 50.135 60.5904V50.4784L49.503 50.6364C47.37 51.2684 43.736 52.2954 40.102 52.2954C36.468 52.2954 32.834 51.2684 30.701 50.6364L30.069 50.4784Z" fill="url(#paint16_linear_552_1021)"/>
<path d="M33.7027 55.0603H31.8857V62.3283H33.7027V55.0603Z" fill="url(#paint17_linear_552_1021)"/>
<path d="M29.1205 26.7784C27.1455 26.7784 26.4345 26.4624 25.8815 26.1464C25.4865 25.9884 25.2495 25.8304 24.6175 25.8304C23.1165 25.8304 21.8525 24.5664 21.8525 23.0654C21.8525 19.4314 26.9875 19.4314 29.1205 19.4314V21.2484C24.3015 21.2484 23.6695 22.1964 23.6695 23.0654C23.6695 23.5394 24.0645 24.0134 24.6175 24.0134C25.7235 24.0134 26.1975 24.2504 26.6715 24.4874C27.1455 24.7244 27.6195 24.9614 29.1205 24.9614V26.7784Z" fill="url(#paint18_linear_552_1021)"/>
<path d="M51.083 43.1314V41.3144C52.663 41.3144 53.137 41.0774 53.532 40.8404C54.006 40.6034 54.48 40.3664 55.586 40.3664C56.06 40.3664 56.534 39.9714 56.534 39.4184C56.534 38.5494 55.902 37.6014 51.083 37.6014V35.7844C53.295 35.7844 58.351 35.7844 58.351 39.4184C58.351 40.9194 57.087 42.1834 55.586 42.1834C54.875 42.1834 54.717 42.2624 54.322 42.4994C53.769 42.8154 53.058 43.1314 51.083 43.1314Z" fill="url(#paint19_linear_552_1021)"/>
<path d="M29.1205 43.1314C27.1455 43.1314 26.4345 42.8154 25.8815 42.4994C25.4865 42.3414 25.2495 42.1834 24.6175 42.1834C23.1165 42.1834 21.8525 40.9194 21.8525 39.4184C21.8525 35.7844 26.9875 35.7844 29.1205 35.7844V37.6014C24.3015 37.6014 23.6695 38.5494 23.6695 39.4184C23.6695 39.8924 24.0645 40.3664 24.6175 40.3664C25.7235 40.3664 26.1975 40.6034 26.6715 40.8404C27.1455 41.0774 27.6195 41.3144 29.1205 41.3144V43.1314Z" fill="url(#paint20_linear_552_1021)"/>
<path d="M51.083 59.5633V57.7463C52.663 57.7463 53.137 57.5093 53.532 57.2723C54.006 57.0353 54.48 56.7983 55.586 56.7983C56.06 56.7983 56.534 56.4033 56.534 55.8503C56.534 54.9813 55.902 54.0333 51.083 54.0333V52.2163C53.295 52.2163 58.351 52.2163 58.351 55.8503C58.351 57.3513 57.087 58.6153 55.586 58.6153C54.875 58.6153 54.717 58.6943 54.322 58.9313C53.769 59.2473 53.058 59.5633 51.083 59.5633Z" fill="url(#paint21_linear_552_1021)"/>
<path d="M29.1205 59.5633C27.1455 59.5633 26.4345 59.2473 25.8815 58.9313C25.4865 58.7733 25.2495 58.6153 24.6175 58.6153C23.1165 58.6153 21.8525 57.3513 21.8525 55.8503C21.8525 52.2163 26.9875 52.2163 29.1205 52.2163V54.0333C24.3015 54.0333 23.6695 54.9813 23.6695 55.8503C23.6695 56.3243 24.0645 56.7983 24.6175 56.7983C25.7235 56.7983 26.1975 57.0353 26.6715 57.2723C27.1455 57.5093 27.6195 57.7463 29.1205 57.7463V59.5633Z" fill="url(#paint22_linear_552_1021)"/>
<defs>
<linearGradient id="paint0_linear_552_1021" x1="-40.1077" y1="79" x2="84.4692" y2="80.8231" gradientUnits="userSpaceOnUse">
<stop stop-color="#009FDF"/>
<stop offset="1" stop-color="#3CC39D"/>
</linearGradient>
<linearGradient id="paint1_linear_552_1021" x1="16.2196" y1="31.2813" x2="53.582" y2="32.1184" gradientUnits="userSpaceOnUse">
<stop stop-color="#009FDF"/>
<stop offset="1" stop-color="#3CC39D"/>
</linearGradient>
<linearGradient id="paint2_linear_552_1021" x1="47.3931" y1="26.7784" x2="58.8542" y2="26.9443" gradientUnits="userSpaceOnUse">
<stop stop-color="#009FDF"/>
<stop offset="1" stop-color="#3CC39D"/>
</linearGradient>
<linearGradient id="paint3_linear_552_1021" x1="30.9633" y1="29.4643" x2="33.8291" y2="29.4748" gradientUnits="userSpaceOnUse">
<stop stop-color="#009FDF"/>
<stop offset="1" stop-color="#3CC39D"/>
</linearGradient>
<linearGradient id="paint4_linear_552_1021" x1="32.7807" y1="50.7153" x2="35.6464" y2="50.7325" gradientUnits="userSpaceOnUse">
<stop stop-color="#009FDF"/>
<stop offset="1" stop-color="#3CC39D"/>
</linearGradient>
<linearGradient id="paint5_linear_552_1021" x1="43.7611" y1="50.7153" x2="46.6269" y2="50.7325" gradientUnits="userSpaceOnUse">
<stop stop-color="#009FDF"/>
<stop offset="1" stop-color="#3CC39D"/>
</linearGradient>
<linearGradient id="paint6_linear_552_1021" x1="32.7807" y1="34.2834" x2="35.6464" y2="34.3006" gradientUnits="userSpaceOnUse">
<stop stop-color="#009FDF"/>
<stop offset="1" stop-color="#3CC39D"/>
</linearGradient>
<linearGradient id="paint7_linear_552_1021" x1="43.7611" y1="34.2834" x2="46.6269" y2="34.3006" gradientUnits="userSpaceOnUse">
<stop stop-color="#009FDF"/>
<stop offset="1" stop-color="#3CC39D"/>
</linearGradient>
<linearGradient id="paint8_linear_552_1021" x1="12.2587" y1="40.4454" x2="19.4759" y2="40.7118" gradientUnits="userSpaceOnUse">
<stop stop-color="#009FDF"/>
<stop offset="1" stop-color="#3CC39D"/>
</linearGradient>
<linearGradient id="paint9_linear_552_1021" x1="18.2982" y1="34.937" x2="20.3379" y2="32.924" gradientUnits="userSpaceOnUse">
<stop stop-color="#009FDF"/>
<stop offset="1" stop-color="#3CC39D"/>
</linearGradient>
<linearGradient id="paint10_linear_552_1021" x1="15.9595" y1="50.3447" x2="20.5939" y2="46.0016" gradientUnits="userSpaceOnUse">
<stop stop-color="#009FDF"/>
<stop offset="1" stop-color="#3CC39D"/>
</linearGradient>
<linearGradient id="paint11_linear_552_1021" x1="58.79" y1="40.4454" x2="66.0072" y2="40.7118" gradientUnits="userSpaceOnUse">
<stop stop-color="#009FDF"/>
<stop offset="1" stop-color="#3CC39D"/>
</linearGradient>
<linearGradient id="paint12_linear_552_1021" x1="59.7125" y1="35.7465" x2="64.3468" y2="31.4035" gradientUnits="userSpaceOnUse">
<stop stop-color="#009FDF"/>
<stop offset="1" stop-color="#3CC39D"/>
</linearGradient>
<linearGradient id="paint13_linear_552_1021" x1="62.0853" y1="49.5547" x2="64.125" y2="47.5417" gradientUnits="userSpaceOnUse">
<stop stop-color="#009FDF"/>
<stop offset="1" stop-color="#3CC39D"/>
</linearGradient>
<linearGradient id="paint14_linear_552_1021" x1="16.2196" y1="47.7132" x2="53.582" y2="48.5503" gradientUnits="userSpaceOnUse">
<stop stop-color="#009FDF"/>
<stop offset="1" stop-color="#3CC39D"/>
</linearGradient>
<linearGradient id="paint15_linear_552_1021" x1="30.9633" y1="45.8964" x2="33.8291" y2="45.9069" gradientUnits="userSpaceOnUse">
<stop stop-color="#009FDF"/>
<stop offset="1" stop-color="#3CC39D"/>
</linearGradient>
<linearGradient id="paint16_linear_552_1021" x1="16.2196" y1="64.1454" x2="53.582" y2="64.9824" gradientUnits="userSpaceOnUse">
<stop stop-color="#009FDF"/>
<stop offset="1" stop-color="#3CC39D"/>
</linearGradient>
<linearGradient id="paint17_linear_552_1021" x1="30.9633" y1="62.3283" x2="33.8291" y2="62.3388" gradientUnits="userSpaceOnUse">
<stop stop-color="#009FDF"/>
<stop offset="1" stop-color="#3CC39D"/>
</linearGradient>
<linearGradient id="paint18_linear_552_1021" x1="18.1626" y1="26.7784" x2="29.6238" y2="26.9443" gradientUnits="userSpaceOnUse">
<stop stop-color="#009FDF"/>
<stop offset="1" stop-color="#3CC39D"/>
</linearGradient>
<linearGradient id="paint19_linear_552_1021" x1="47.3931" y1="43.1314" x2="58.8542" y2="43.2973" gradientUnits="userSpaceOnUse">
<stop stop-color="#009FDF"/>
<stop offset="1" stop-color="#3CC39D"/>
</linearGradient>
<linearGradient id="paint20_linear_552_1021" x1="18.1626" y1="43.1314" x2="29.6238" y2="43.2973" gradientUnits="userSpaceOnUse">
<stop stop-color="#009FDF"/>
<stop offset="1" stop-color="#3CC39D"/>
</linearGradient>
<linearGradient id="paint21_linear_552_1021" x1="47.3931" y1="59.5633" x2="58.8542" y2="59.7292" gradientUnits="userSpaceOnUse">
<stop stop-color="#009FDF"/>
<stop offset="1" stop-color="#3CC39D"/>
</linearGradient>
<linearGradient id="paint22_linear_552_1021" x1="18.1626" y1="59.5633" x2="29.6238" y2="59.7292" gradientUnits="userSpaceOnUse">
<stop stop-color="#009FDF"/>
<stop offset="1" stop-color="#3CC39D"/>
</linearGradient>
</defs>
</svg>
