<svg width="24" height="24" viewBox="0 0 24 24" fill="none" xmlns="http://www.w3.org/2000/svg">
<path d="M2.82467 20.6213C3.34601 20.3662 4.64934 19.907 5.69201 20.1111C6.73468 20.3152 9.25447 21.8967 10.384 22.662C10.6447 22.9171 11.531 23.2742 12.9907 22.662L21.8534 19.3458C22.3747 19.0908 23.3131 18.2745 22.8961 17.0501C22.3747 15.5196 21.5927 15.2645 20.2894 15.5196C19.2467 15.7236 16.2056 16.2848 14.8154 16.5399M8.55936 17.0501L12.9907 19.0908C13.3383 19.2608 14.1898 19.3458 14.8154 18.3255C15.5974 17.0501 15.076 16.0297 11.6874 14.4992C8.29869 12.9687 4.38868 13.4789 1 15.0094M16.1187 3.80595C19.0382 3.80595 19.9418 6.18675 20.0287 7.37715C20.0287 10.4382 17.4221 11.3735 16.1187 11.4585C12.9907 11.4585 12.2087 8.65258 12.2087 7.88732C12.2087 7.61377 12.242 7.01427 12.4515 6.35681M16.1187 3.80595C15.9102 1.56119 14.1203 1 13.2514 1C12.2956 1 10.384 1.56119 10.384 3.80595C10.3721 4.48618 10.7689 5.94867 12.4515 6.35681M16.1187 3.80595C13.7739 3.80595 12.8281 5.17502 12.4515 6.35681" stroke="#A1A8A1" stroke-width="2"/>
</svg>
