<svg width="20" height="20" viewBox="0 0 20 20" fill="none" xmlns="http://www.w3.org/2000/svg">
<path d="M9.53897 1H1V5.26949C3.4981 6.47507 7.03978 6.5225 9.53897 5.26949M9.53897 1H18.0779V5.26949C15.5787 6.5225 12.0371 6.47507 9.53897 5.26949M9.53897 1V5.26949M9.53897 3.13474V9.53897M1 3.13474V9.53897C3.4981 10.7446 7.03978 10.792 9.53897 9.53897M18.0779 3.13474V9.53897C15.5787 10.792 12.0371 10.7446 9.53897 9.53897M1 7.40423V13.8085C3.4981 15.014 7.03978 15.0615 9.53897 13.8085M9.53897 7.40423V13.8085M18.0779 7.40423V13.8085C15.5787 15.0615 12.0371 15.014 9.53897 13.8085M1 11.6737V18.0779C3.4981 19.2835 7.03978 19.331 9.53897 18.0779M9.53897 11.6737V18.0779M18.0779 11.6737V18.0779C15.5787 19.331 12.0371 19.2835 9.53897 18.0779" stroke="#666666" stroke-width="2"/>
</svg>
