<svg id="Сгруппировать_8" data-name="Сгруппировать 8" xmlns="http://www.w3.org/2000/svg" width="200.221" height="65.495" viewBox="0 0 200.221 65.495">
  <path id="Контур_6" data-name="Контур 6" d="M-276.9,935.195a8.851,8.851,0,0,1-8.849,8.852H-468.268a8.853,8.853,0,0,1-8.851-8.852V887.4a8.852,8.852,0,0,1,8.851-8.851h182.521A8.85,8.85,0,0,1-276.9,887.4Z" transform="translate(477.119 -878.552)" fill="#303540"/>
  <g id="Сгруппировать_4" data-name="Сгруппировать 4" transform="translate(13.431 10.182)">
    <path id="Контур_7" data-name="Контур 7" d="M-403.341,955.157a32.426,32.426,0,0,1-2.931,5.474c-1.9,2.9-4.588,6.509-7.914,6.54-2.955.027-3.714-1.924-7.724-1.9s-4.848,1.935-7.8,1.908c-3.325-.031-5.868-3.291-7.772-6.189-5.325-8.106-5.881-17.619-2.6-22.676,2.334-3.594,6.015-5.7,9.477-5.7,3.525,0,5.741,1.933,8.655,1.933,2.827,0,4.55-1.936,8.625-1.936a11.5,11.5,0,0,1,8.67,4.578C-412.278,941.364-411.04,952.248-403.341,955.157Z" transform="translate(442.122 -922.047)" fill="#fff"/>
    <g id="Сгруппировать_3" data-name="Сгруппировать 3" transform="translate(18.64)">
      <path id="Контур_8" data-name="Контур 8" d="M-386.489,912.41a9.893,9.893,0,0,0,2.2-7.327,10.685,10.685,0,0,0-6.9,3.711,9.183,9.183,0,0,0-2.255,7.147A9.022,9.022,0,0,0-386.489,912.41Z" transform="translate(393.553 -905.083)" fill="#fff"/>
    </g>
  </g>
  <g id="Сгруппировать_7" data-name="Сгруппировать 7" transform="translate(60.806 10.279)">
    <g id="Сгруппировать_5" data-name="Сгруппировать 5" transform="translate(0 15.689)">
      <path id="Контур_9" data-name="Контур 9" d="M-311.05,947.147l-7.628,22.453h3.493l2.277-6.894h7.386l2.341,6.894h3.59l-7.661-22.453Zm1.81,3.692c.258,1,.536,2.043.893,3.168l2.056,5.953h-5.85l2.027-5.992C-309.807,953-309.514,951.946-309.241,950.839Z" transform="translate(318.678 -946.789)" fill="#fff"/>
      <path id="Контур_10" data-name="Контур 10" d="M-257.1,962.313a6.356,6.356,0,0,0-5.4,2.591l-.135-2.233h-3.107l.019.285c.091,1.391.13,2.922.13,5.121v17.306h3.4v-8.076a5.965,5.965,0,0,0,4.644,2,7,7,0,0,0,5.147-2.189,9.281,9.281,0,0,0,2.273-6.534,9.037,9.037,0,0,0-1.974-5.966A6.464,6.464,0,0,0-257.1,962.313Zm-.846,2.812c3.028,0,4.384,2.805,4.384,5.585,0,3.585-1.729,5.812-4.512,5.812a4.118,4.118,0,0,1-4-3.152,4.335,4.335,0,0,1-.121-1.1v-2.732a5.143,5.143,0,0,1,.108-.838c.017-.093.035-.186.049-.276A4.3,4.3,0,0,1-257.949,965.125Z" transform="translate(286.06 -956.135)" fill="#fff"/>
      <path id="Контур_11" data-name="Контур 11" d="M-211.522,962.313a6.359,6.359,0,0,0-5.4,2.591l-.135-2.233h-3.106l.017.285c.092,1.393.131,2.922.131,5.121v17.306h3.4v-8.076a5.963,5.963,0,0,0,4.642,2,7.012,7.012,0,0,0,5.15-2.189,9.292,9.292,0,0,0,2.272-6.534,9.035,9.035,0,0,0-1.975-5.966A6.461,6.461,0,0,0-211.522,962.313Zm-.845,2.812c3.027,0,4.382,2.805,4.382,5.585,0,3.585-1.73,5.812-4.512,5.812a4.118,4.118,0,0,1-4-3.152,4.339,4.339,0,0,1-.12-1.1v-2.732a5.05,5.05,0,0,1,.108-.841c.017-.092.034-.183.049-.273A4.3,4.3,0,0,1-212.367,965.125Z" transform="translate(257.972 -956.135)" fill="#fff"/>
      <path id="Контур_12" data-name="Контур 12" d="M-153.527,956.086c-3.17-1.228-4.186-2.193-4.186-3.977,0-1.5,1.193-3.017,3.861-3.017a7.72,7.72,0,0,1,3.988,1l.288.178.959-2.835-.19-.111a9.846,9.846,0,0,0-4.947-1.11c-4.332,0-7.358,2.557-7.358,6.218,0,2.952,1.895,5.016,5.962,6.495,2.883,1.078,3.956,2.182,3.956,4.074,0,2.142-1.655,3.471-4.318,3.471a9.3,9.3,0,0,1-4.9-1.389l-.294-.189-.912,2.9.167.111a11.636,11.636,0,0,0,5.741,1.476c5.838,0,7.909-3.56,7.909-6.609C-147.8,959.631-149.457,957.693-153.527,956.086Z" transform="translate(221.892 -946.215)" fill="#fff"/>
      <path id="Контур_13" data-name="Контур 13" d="M-118.944,953.166l-3.332,1.046v2.822h-2.439v2.715h2.439v8.317a6.359,6.359,0,0,0,1.176,4.31,4.357,4.357,0,0,0,3.287,1.291,7.992,7.992,0,0,0,2.625-.406l.19-.068-.162-2.72-.326.1a5.117,5.117,0,0,1-1.58.183c-1.316,0-1.879-.833-1.879-2.788v-8.219h4.1v-2.715h-4.1Z" transform="translate(199.154 -950.498)" fill="#fff"/>
      <path id="Контур_14" data-name="Контур 14" d="M-90.026,962.313c-4.753,0-8.072,3.548-8.072,8.625,0,4.925,3.212,8.365,7.812,8.365h.031c3.889,0,8.072-2.709,8.072-8.657a8.583,8.583,0,0,0-2.165-6.009A7.56,7.56,0,0,0-90.026,962.313Zm-.1,2.682c3.056,0,4.447,2.979,4.447,5.749,0,3.405-1.9,5.877-4.511,5.877h-.033c-2.576,0-4.446-2.431-4.446-5.779C-94.668,967.932-93.262,964.995-90.124,964.995Z" transform="translate(182.752 -956.135)" fill="#fff"/>
      <path id="Контур_15" data-name="Контур 15" d="M-43.093,962.471l-.2-.052a3.271,3.271,0,0,0-.845-.106,4.846,4.846,0,0,0-4.259,2.735l-.1-2.377h-3.048l.02.285c.091,1.345.128,2.854.128,4.892l-.031,11.1h3.4v-8.658a8.707,8.707,0,0,1,.094-1.317c.383-2.079,1.786-3.423,3.574-3.423a8.718,8.718,0,0,1,.911.057l.363.038Z" transform="translate(154.068 -956.135)" fill="#fff"/>
      <path id="Контур_16" data-name="Контур 16" d="M-21.948,962.229c-4.522,0-7.681,3.613-7.681,8.787,0,4.982,3.142,8.2,8.006,8.2a13.026,13.026,0,0,0,5.378-1.032l.2-.092-.653-2.531-.283.114a10.517,10.517,0,0,1-4.256.761c-1.476,0-4.88-.487-5.088-4.925l10.965.033.045-.217a7.588,7.588,0,0,0,.1-1.418C-15.21,966.367-16.974,962.229-21.948,962.229Zm-.226,2.584a3.352,3.352,0,0,1,2.494.951,4.835,4.835,0,0,1,1.17,3.162h-7.748C-25.943,966.966-24.715,964.813-22.174,964.813Z" transform="translate(140.56 -956.083)" fill="#fff"/>
    </g>
    <g id="Сгруппировать_6" data-name="Сгруппировать 6" transform="translate(0 0)">
      <path id="Контур_17" data-name="Контур 17" d="M-318.678,906.828a24.789,24.789,0,0,1,3.259-.22,7.27,7.27,0,0,1,4.783,1.309,4.65,4.65,0,0,1,1.682,3.831,5.377,5.377,0,0,1-1.7,4.13,7.881,7.881,0,0,1-5.238,1.53,23.661,23.661,0,0,1-2.786-.126Zm1.542,9.413a11,11,0,0,0,1.542.063c3.259.015,5.027-1.64,5.027-4.509.018-2.539-1.559-4.1-4.782-4.1a9.7,9.7,0,0,0-1.787.141Z" transform="translate(318.678 -906.119)" fill="#fff"/>
      <path id="Контур_18" data-name="Контур 18" d="M-285.631,922.144a3.83,3.83,0,0,1-4.064-3.926,3.936,3.936,0,0,1,4.2-4.052,3.8,3.8,0,0,1,4.082,3.91,3.95,3.95,0,0,1-4.2,4.068Zm.052-1.041a2.715,2.715,0,0,0,2.576-2.98,2.657,2.657,0,0,0-2.54-2.916c-1.8,0-2.593,1.514-2.593,2.964a2.672,2.672,0,0,0,2.54,2.932Z" transform="translate(300.818 -910.777)" fill="#fff"/>
      <path id="Контур_19" data-name="Контур 19" d="M-264.282,914.618l1.139,3.863c.228.851.456,1.655.613,2.444h.053c.193-.773.473-1.592.753-2.428l1.384-3.879h1.3l1.314,3.815c.315.9.56,1.719.753,2.491h.053a21.151,21.151,0,0,1,.648-2.475l1.209-3.831h1.524l-2.733,7.631h-1.4l-1.3-3.642a25.076,25.076,0,0,1-.754-2.523h-.035a20.955,20.955,0,0,1-.771,2.538l-1.366,3.626h-1.4l-2.558-7.631Z" transform="translate(286.13 -911.055)" fill="#fff"/>
      <path id="Контур_20" data-name="Контур 20" d="M-229.861,916.406c0-.8-.018-1.435-.071-2.066h1.367l.087,1.246h.035a3.212,3.212,0,0,1,2.8-1.419,2.9,2.9,0,0,1,3,3.248v4.557h-1.541v-4.4c0-1.23-.509-2.27-1.963-2.27a2.2,2.2,0,0,0-2.067,1.418,1.868,1.868,0,0,0-.105.646v4.6h-1.542Z" transform="translate(263.991 -910.777)" fill="#fff"/>
      <path id="Контур_21" data-name="Контур 21" d="M-204.414,905.335h1.542v11.194h-1.542Z" transform="translate(248.266 -905.335)" fill="#fff"/>
      <path id="Контур_22" data-name="Контур 22" d="M-191.264,922.144a3.83,3.83,0,0,1-4.064-3.926,3.936,3.936,0,0,1,4.2-4.052,3.8,3.8,0,0,1,4.081,3.91,3.951,3.951,0,0,1-4.2,4.068Zm.052-1.041a2.715,2.715,0,0,0,2.576-2.98,2.657,2.657,0,0,0-2.54-2.916c-1.8,0-2.594,1.514-2.594,2.964a2.672,2.672,0,0,0,2.541,2.932Z" transform="translate(242.667 -910.777)" fill="#fff"/>
      <path id="Контур_23" data-name="Контур 23" d="M-163.763,920.142a11.513,11.513,0,0,0,.123,1.829h-1.385l-.14-.961h-.052a3.259,3.259,0,0,1-2.592,1.135,2.311,2.311,0,0,1-2.593-2.192c0-1.844,1.821-2.854,5.1-2.838v-.157c0-.63-.192-1.782-1.927-1.766a4.422,4.422,0,0,0-2.224.567l-.351-.93a5.974,5.974,0,0,1,2.8-.662c2.61,0,3.241,1.592,3.241,3.122Zm-1.506-2.066c-1.682-.031-3.592.236-3.592,1.719a1.289,1.289,0,0,0,1.436,1.324,2.138,2.138,0,0,0,2.084-1.277,1.268,1.268,0,0,0,.071-.442Z" transform="translate(227.307 -910.777)" fill="#fff"/>
      <path id="Контур_24" data-name="Контур 24" d="M-140.328,905.335v9.223c0,.678.019,1.45.071,1.971h-1.384l-.069-1.324h-.035a3.174,3.174,0,0,1-2.873,1.5,3.639,3.639,0,0,1-3.644-3.879,3.8,3.8,0,0,1,3.8-4.1,2.916,2.916,0,0,1,2.559,1.151h.034v-4.541ZM-141.87,912a2.3,2.3,0,0,0-.07-.6,2.228,2.228,0,0,0-2.224-1.592c-1.594,0-2.541,1.261-2.541,2.932,0,1.561.859,2.837,2.505,2.837a2.294,2.294,0,0,0,2.26-1.655,2.148,2.148,0,0,0,.07-.6Z" transform="translate(213.666 -905.335)" fill="#fff"/>
      <path id="Контур_25" data-name="Контур 25" d="M-108.776,922.144a3.83,3.83,0,0,1-4.064-3.926,3.937,3.937,0,0,1,4.2-4.052,3.8,3.8,0,0,1,4.082,3.91,3.951,3.951,0,0,1-4.2,4.068Zm.053-1.041a2.715,2.715,0,0,0,2.575-2.98,2.657,2.657,0,0,0-2.54-2.916c-1.8,0-2.592,1.514-2.592,2.964a2.671,2.671,0,0,0,2.539,2.932Z" transform="translate(191.836 -910.777)" fill="#fff"/>
      <path id="Контур_26" data-name="Контур 26" d="M-86.291,916.406c0-.8-.018-1.435-.07-2.066h1.366l.089,1.246h.034a3.211,3.211,0,0,1,2.8-1.419,2.9,2.9,0,0,1,3,3.248v4.557h-1.542v-4.4c0-1.23-.507-2.27-1.962-2.27a2.2,2.2,0,0,0-2.067,1.418,1.886,1.886,0,0,0-.1.646v4.6h-1.541Z" transform="translate(175.519 -910.777)" fill="#fff"/>
      <path id="Контур_27" data-name="Контур 27" d="M-50.855,909.854v1.828h2.207v1.056h-2.207v4.115c0,.946.3,1.482,1.156,1.482a3.191,3.191,0,0,0,.894-.094l.069,1.056a4.635,4.635,0,0,1-1.366.189,2.334,2.334,0,0,1-1.665-.583,2.77,2.77,0,0,1-.6-2v-4.162h-1.314v-1.056h1.314v-1.4Z" transform="translate(155.378 -908.12)" fill="#fff"/>
      <path id="Контур_28" data-name="Контур 28" d="M-36.055,905.335h1.541V910.1h.036a2.612,2.612,0,0,1,1.1-.977,3.254,3.254,0,0,1,1.576-.394c1.138,0,2.96.63,2.96,3.264v4.541h-1.541v-4.383c0-1.246-.508-2.27-1.962-2.27a2.216,2.216,0,0,0-2.067,1.387,1.526,1.526,0,0,0-.106.662v4.6h-1.541Z" transform="translate(144.52 -905.335)" fill="#fff"/>
      <path id="Контур_29" data-name="Контур 29" d="M-10.828,918.367a2.584,2.584,0,0,0,2.891,2.649,6.418,6.418,0,0,0,2.348-.379l.28.978a7.58,7.58,0,0,1-2.838.489c-2.594,0-4.17-1.562-4.17-3.847a3.884,3.884,0,0,1,3.994-4.131,3.34,3.34,0,0,1,3.486,3.595,3.2,3.2,0,0,1-.052.662Zm4.5-.993a2.047,2.047,0,0,0-2.121-2.255,2.4,2.4,0,0,0-2.365,2.255Z" transform="translate(129.891 -910.752)" fill="#fff"/>
    </g>
  </g>
</svg>
