<svg xmlns="http://www.w3.org/2000/svg" xmlns:xlink="http://www.w3.org/1999/xlink" width="200.221" height="65.495" viewBox="0 0 200.221 65.495">
  <defs>
    <clipPath id="clip-path">
      <path id="Контур_35" data-name="Контур 35" d="M163.378,345.578l-9.028-5.213L136.936,330.31c-.967-.558-1.93-.22-1.93.947v40.966c0,.875.689,1.251,1.529.767L154.35,362.7l9.028-5.212,8.678-5.009c1.018-.588.92-1.4.061-1.858S163.378,345.578,163.378,345.578Z" transform="translate(-135.006 -330.047)" fill="none"/>
    </clipPath>
    <linearGradient id="linear-gradient" x1="0.5" x2="0.5" y2="1" gradientUnits="objectBoundingBox">
      <stop offset="0" stop-color="#006aa2"/>
      <stop offset="0.345" stop-color="#2f8da6"/>
      <stop offset="0.786" stop-color="#66b6ac"/>
      <stop offset="1" stop-color="#7cc6af"/>
    </linearGradient>
    <linearGradient id="linear-gradient-2" y1="0.5" x2="1" y2="0.5" gradientUnits="objectBoundingBox">
      <stop offset="0" stop-color="#4ab59d"/>
      <stop offset="1" stop-color="#dfe385"/>
    </linearGradient>
    <linearGradient id="linear-gradient-3" x1="0.5" x2="0.5" y2="1" gradientUnits="objectBoundingBox">
      <stop offset="0" stop-color="#e4282d"/>
      <stop offset="0.316" stop-color="#ba2d4e"/>
      <stop offset="0.777" stop-color="#83357b"/>
      <stop offset="1" stop-color="#6e388d"/>
    </linearGradient>
    <linearGradient id="linear-gradient-4" x1="0.5" x2="0.5" y2="1" gradientUnits="objectBoundingBox">
      <stop offset="0" stop-color="#f07165"/>
      <stop offset="0.659" stop-color="#faa460"/>
      <stop offset="1" stop-color="#ffba5e"/>
    </linearGradient>
  </defs>
  <g id="Сгруппировать_14" data-name="Сгруппировать 14" transform="translate(0)">
    <path id="Контур_30" data-name="Контур 30" d="M296.862,352.717a8.851,8.851,0,0,1-8.849,8.852H105.492a8.852,8.852,0,0,1-8.851-8.852V304.925a8.852,8.852,0,0,1,8.851-8.851H288.013a8.85,8.85,0,0,1,8.849,8.851Z" transform="translate(-96.641 -296.074)" fill="#303540"/>
    <g id="PLAY" transform="translate(15.018 13.299)">
      <g id="Сгруппировать_9" data-name="Сгруппировать 9" transform="translate(0)" clip-path="url(#clip-path)">
        <path id="Контур_31" data-name="Контур 31" d="M135.006,328.285v44.353l22.365-22.176Z" transform="translate(-135.006 -328.975)" fill="url(#linear-gradient)"/>
        <path id="Контур_32" data-name="Контур 32" d="M163.378,344.254l-9.028-5.212-19.344-11.169v.161l22.365,22.177Z" transform="translate(-135.006 -328.724)" fill="url(#linear-gradient-2)"/>
        <path id="Контур_33" data-name="Контур 33" d="M135.006,407.114v.161l19.344-11.169,9.028-5.212-6.007-5.956Z" transform="translate(-135.006 -363.451)" fill="url(#linear-gradient-3)"/>
        <path id="Контур_34" data-name="Контур 34" d="M198.147,369.721l-6.007,5.957,6.007,5.956,10.317-5.956Z" transform="translate(-169.774 -354.19)" fill="url(#linear-gradient-4)"/>
      </g>
    </g>
    <g id="Сгруппировать_10" data-name="Сгруппировать 10" transform="translate(149.82 24.908)">
      <path id="Контур_36" data-name="Контур 36" d="M485.369,386.3a5.578,5.578,0,0,1-2.3-.465,4.336,4.336,0,0,1-1.748-1.43h-.141a17.328,17.328,0,0,1,.141,2.142v5.307h-1.953V373.167h1.589l.27,1.766h.094a4.541,4.541,0,0,1,1.755-1.53,5.328,5.328,0,0,1,2.294-.471,4.767,4.767,0,0,1,3.96,1.754,9.34,9.34,0,0,1-.022,9.857A4.779,4.779,0,0,1,485.369,386.3Zm-.283-11.71a3.462,3.462,0,0,0-2.859,1.094,5.636,5.636,0,0,0-.907,3.484v.435a6.453,6.453,0,0,0,.907,3.89,3.447,3.447,0,0,0,2.907,1.17,3.024,3.024,0,0,0,2.62-1.353,6.421,6.421,0,0,0,.947-3.731,6.181,6.181,0,0,0-.947-3.7A3.118,3.118,0,0,0,485.087,374.591Z" transform="translate(-479.368 -367.753)" fill="#f9f9f9"/>
      <path id="Контур_37" data-name="Контур 37" d="M516.9,378.015h-1.954V359.7H516.9Z" transform="translate(-501.018 -359.703)" fill="#f9f9f9"/>
      <path id="Контур_38" data-name="Контур 38" d="M534.795,386.1l-.389-1.836h-.094a5.413,5.413,0,0,1-1.925,1.642,5.845,5.845,0,0,1-2.394.43,4.309,4.309,0,0,1-3.007-.988,3.6,3.6,0,0,1-1.089-2.813q0-3.907,6.249-4.1l2.19-.071v-.8a3.266,3.266,0,0,0-.654-2.242,2.684,2.684,0,0,0-2.089-.724,8.507,8.507,0,0,0-3.648.989l-.6-1.495a9.18,9.18,0,0,1,2.089-.812,9.046,9.046,0,0,1,2.277-.294,4.914,4.914,0,0,1,3.419,1.024,4.277,4.277,0,0,1,1.112,3.284v8.8Zm-4.413-1.376a3.969,3.969,0,0,0,2.866-1,3.7,3.7,0,0,0,1.042-2.8v-1.165l-1.955.082a7.107,7.107,0,0,0-3.36.725,2.182,2.182,0,0,0-1.03,1.994,2.01,2.01,0,0,0,.642,1.612A2.659,2.659,0,0,0,530.382,384.726Z" transform="translate(-507.683 -367.79)" fill="#f9f9f9"/>
      <path id="Контур_39" data-name="Контур 39" d="M555.222,373.533h2.094l2.825,7.356a28.127,28.127,0,0,1,1.154,3.637h.094q.153-.6.641-2.055t3.2-8.938h2.1l-5.544,14.688a7.328,7.328,0,0,1-1.925,3.09,4.093,4.093,0,0,1-2.7.911,7.9,7.9,0,0,1-1.766-.2v-1.565a6.822,6.822,0,0,0,1.448.141,2.984,2.984,0,0,0,2.872-2.26l.717-1.836Z" transform="translate(-525.529 -368.119)" fill="#f9f9f9"/>
    </g>
    <g id="Сгруппировать_12" data-name="Сгруппировать 12" transform="translate(60.759 23.466)">
      <path id="Контур_40" data-name="Контур 40" d="M386.606,375.085a4.548,4.548,0,0,1,1.915,3.642c0,2-1.133,2.941-2.267,3.83a1.9,1.9,0,0,0-.755,1.324,1.48,1.48,0,0,0,.7,1.159l.972.754c1.187,1,2.265,1.917,2.265,3.779,0,2.536-2.455,5.1-7.095,5.1-3.913,0-5.8-1.861-5.8-3.859a3.882,3.882,0,0,1,2.077-3.291,11.63,11.63,0,0,1,5.153-1.242,2.823,2.823,0,0,1-.81-1.832,2.435,2.435,0,0,1,.27-1.054c-.3.028-.594.054-.864.054a4.265,4.265,0,0,1-4.478-4.235,4.853,4.853,0,0,1,1.726-3.615,7.357,7.357,0,0,1,4.831-1.484H390l-1.727.972Zm-1.916,11.979a4.183,4.183,0,0,0-.62-.028,10.8,10.8,0,0,0-2.833.434,3.031,3.031,0,0,0-2.32,2.778c0,1.915,1.863,3.292,4.749,3.292,2.589,0,3.966-1.243,3.966-2.915C387.632,389.247,386.741,388.521,384.69,387.064Zm.783-5.126a2.729,2.729,0,0,0,.673-1.97c0-1.942-1.159-4.963-3.4-4.963a2.52,2.52,0,0,0-1.889.891,3.117,3.117,0,0,0-.594,2c0,1.807,1.052,4.8,3.374,4.8A2.762,2.762,0,0,0,385.473,381.937Z" transform="translate(-327.734 -367.03)" fill="#f9f9f9"/>
      <path id="Контур_41" data-name="Контур 41" d="M348.645,386.037a6.357,6.357,0,0,1-6.572-6.358,6.674,6.674,0,0,1,6.977-6.544,6.3,6.3,0,0,1,6.436,6.356A6.582,6.582,0,0,1,348.645,386.037Zm3.366-2.182a4.872,4.872,0,0,0,.809-2.991c0-2.371-1.131-6.9-4.472-6.9a3.752,3.752,0,0,0-2.423.917,4.076,4.076,0,0,0-1.24,3.287c0,2.665,1.32,7.054,4.58,7.054A3.44,3.44,0,0,0,352.011,383.855Z" transform="translate(-306.757 -366.435)" fill="#f9f9f9"/>
      <path id="Контур_42" data-name="Контур 42" d="M311.349,386.037a6.357,6.357,0,0,1-6.573-6.358,6.675,6.675,0,0,1,6.977-6.544,6.3,6.3,0,0,1,6.437,6.356A6.582,6.582,0,0,1,311.349,386.037Zm3.367-2.182a4.88,4.88,0,0,0,.808-2.991c0-2.371-1.132-6.9-4.472-6.9a3.753,3.753,0,0,0-2.424.917,4.076,4.076,0,0,0-1.239,3.287c0,2.665,1.319,7.054,4.58,7.054A3.443,3.443,0,0,0,314.716,383.855Z" transform="translate(-284.06 -366.435)" fill="#f9f9f9"/>
      <path id="Контур_43" data-name="Контур 43" d="M270.514,376.137l-3.873.894a28.7,28.7,0,0,1-4.468.459c-7.475,0-10.318-5.5-10.318-9.8,0-5.253,4.034-10.126,10.941-10.126a15.588,15.588,0,0,1,4.142.568,10.558,10.558,0,0,1,3.575,1.679l-2.248,2.139-.947.215.677-1.083a7.739,7.739,0,0,0-5.795-2.544c-4.279,0-7.5,3.251-7.5,7.99,0,5.09,3.684,9.883,9.586,9.883a8.065,8.065,0,0,0,3.44-.677V371.37l-4.088.216,2.165-1.166h5.741l-.7.677a.632.632,0,0,0-.272.433c-.028.244-.054,1.03-.054,1.3Z" transform="translate(-251.856 -356.957)" fill="#f9f9f9"/>
      <path id="Контур_44" data-name="Контур 44" d="M415.173,374.419c-.894-.081-1.081-.243-1.081-1.3V357.792c.005-.058.009-.118.015-.175.109-.947.379-1.11,1.22-1.6h-3.874l-2.032.975h2.07v.012l0-.01v16.719c0,.54-.107.622-.73,1.434h4.794l1-.594C416.1,374.5,415.634,374.473,415.173,374.419Z" transform="translate(-347.742 -356.019)" fill="#f9f9f9"/>
      <path id="Контур_45" data-name="Контур 45" d="M437.006,385.1c-.295.162-.591.351-.885.484a6.263,6.263,0,0,1-2.611.511,5.747,5.747,0,0,1-3.577-1.049,6.96,6.96,0,0,1-2.742-5.675,6.1,6.1,0,0,1,6.159-6.212,5.227,5.227,0,0,1,2.771.754,4.452,4.452,0,0,1,1.88,2.661l-6.318,2.556-2.071.161c.671,3.415,2.984,5.4,5.54,5.4a6.948,6.948,0,0,0,3.281-.94Zm-2.527-8.015c.51-.188.779-.35.779-.726a2.669,2.669,0,0,0-2.663-2.313c-1.077,0-3.092.834-3.092,3.738,0,.457.054.941.082,1.426Z" transform="translate(-358.555 -366.448)" fill="#f9f9f9"/>
      <g id="Сгруппировать_11" data-name="Сгруппировать 11" transform="translate(80.244 6.708)">
        <path id="Контур_46" data-name="Контур 46" d="M457.649,373.34v1.774h-.215V373.34h-.587v-.184h1.389v.184Z" transform="translate(-456.846 -373.156)" fill="#f9f9f9"/>
        <path id="Контур_47" data-name="Контур 47" d="M462.777,375.114v-1.791h-.01l-.547,1.791h-.168l-.552-1.791h-.007v1.791h-.2v-1.958h.335l.5,1.583h.007l.491-1.583h.34v1.958Z" transform="translate(-459.555 -373.156)" fill="#f9f9f9"/>
      </g>
    </g>
    <g id="Сгруппировать_13" data-name="Сгруппировать 13" transform="translate(60.806 13.194)">
      <path id="Контур_48" data-name="Контур 48" d="M257.306,335.578h-1.345a8.93,8.93,0,0,0-.383-1.573h-1.943a8.13,8.13,0,0,0-.4,1.573h-1.266q0-.164.982-2.691a21.164,21.164,0,0,0,.982-2.784h1.589a23.235,23.235,0,0,0,.889,2.743A24.031,24.031,0,0,1,257.306,335.578Zm-1.943-2.376a23.813,23.813,0,0,1-.719-2.347h-.067q0,.164-.744,2.347Z" transform="translate(-251.974 -329.977)" fill="#f7f8f8"/>
      <path id="Контур_49" data-name="Контур 49" d="M272.432,335.578h-1.039a10.236,10.236,0,0,0-1.156-1.821,10.026,10.026,0,0,1-1.379-2.376h-.067a14.818,14.818,0,0,1,.105,1.665q0,1.039.059,2.531H267.92q.063-1.3.063-2.864,0-1.535-.063-2.611h1.249a7.911,7.911,0,0,0,1.039,1.778,10.474,10.474,0,0,1,1.27,2.241h.063a15.957,15.957,0,0,1-.1-1.682q0-1.139-.059-2.338h1.051q-.059,1.043-.059,2.611T272.432,335.578Z" transform="translate(-261.678 -329.977)" fill="#f7f8f8"/>
      <path id="Контур_50" data-name="Контур 50" d="M287.826,332.611a3.1,3.1,0,0,1-.766,2.086,2.673,2.673,0,0,1-2.144.892q-.622,0-1.716-.051.055-1.27.055-2.864,0-1.53-.055-2.611h.736q.181,0,.538-.013c.238-.008.394-.013.467-.013a2.835,2.835,0,0,1,2.2.757A2.617,2.617,0,0,1,287.826,332.611Zm-1.148.181a2.026,2.026,0,0,0-.471-1.36,1.785,1.785,0,0,0-1.438-.553,4.465,4.465,0,0,0-.5.038q.042.841.042,1.758,0,1.005.042,1.993a2.784,2.784,0,0,0,.547.055,1.589,1.589,0,0,0,1.339-.562A2.166,2.166,0,0,0,286.678,332.792Z" transform="translate(-270.977 -329.937)" fill="#f7f8f8"/>
      <path id="Контур_51" data-name="Контур 51" d="M302.483,335.538h-1.245a8.258,8.258,0,0,0-.748-1.837.98.98,0,0,0-.841-.349q-.244,0-.467,0,0,1.081.038,2.182h-1.169q.055-1.27.054-2.864,0-1.53-.054-2.611h.727q.126,0,.528-.013t.742-.013q1.93,0,1.93,1.32a1.481,1.481,0,0,1-1.1,1.459v.063a1.314,1.314,0,0,1,.745.662A14.64,14.64,0,0,1,302.483,335.538Zm-1.577-3.869q0-.837-1.076-.837a3.663,3.663,0,0,0-.7.059q.046.652.047,1.7.231.008.391.008Q300.906,332.6,300.906,331.67Z" transform="translate(-280.014 -329.937)" fill="#f7f8f8"/>
      <path id="Контур_52" data-name="Контур 52" d="M316.45,332.543a3.02,3.02,0,0,1-.79,2.14,2.566,2.566,0,0,1-1.955.849,2.471,2.471,0,0,1-1.859-.781,2.746,2.746,0,0,1-.748-1.982,3.018,3.018,0,0,1,.79-2.141,2.565,2.565,0,0,1,1.955-.849,2.473,2.473,0,0,1,1.859.778A2.744,2.744,0,0,1,316.45,332.543Zm-1.16.122a2.171,2.171,0,0,0-.45-1.425,1.385,1.385,0,0,0-1.11-.547,1.282,1.282,0,0,0-1.043.551,2.2,2.2,0,0,0-.429,1.392,2.165,2.165,0,0,0,.452,1.423,1.385,1.385,0,0,0,1.108.549,1.281,1.281,0,0,0,1.043-.553A2.2,2.2,0,0,0,315.289,332.665Z" transform="translate(-287.953 -329.78)" fill="#f7f8f8"/>
      <path id="Контур_53" data-name="Контур 53" d="M328.995,335.578H327.8q.055-1.3.055-2.864,0-1.535-.055-2.611h1.19q-.055,1.059-.054,2.611Q328.941,334.3,328.995,335.578Z" transform="translate(-298.121 -329.977)" fill="#f7f8f8"/>
      <path id="Контур_54" data-name="Контур 54" d="M339.224,332.611a3.1,3.1,0,0,1-.765,2.086,2.673,2.673,0,0,1-2.144.892q-.622,0-1.716-.051.055-1.27.055-2.864,0-1.53-.055-2.611h.736q.181,0,.538-.013c.238-.008.394-.013.467-.013a2.835,2.835,0,0,1,2.2.757A2.618,2.618,0,0,1,339.224,332.611Zm-1.148.181a2.028,2.028,0,0,0-.471-1.36,1.786,1.786,0,0,0-1.438-.553,4.46,4.46,0,0,0-.5.038q.042.841.042,1.758,0,1.005.042,1.993a2.784,2.784,0,0,0,.547.055,1.589,1.589,0,0,0,1.339-.562A2.166,2.166,0,0,0,338.077,332.792Z" transform="translate(-302.255 -329.937)" fill="#f7f8f8"/>
      <path id="Контур_55" data-name="Контур 55" d="M358.782,335.578h-1.345a8.867,8.867,0,0,0-.383-1.573h-1.943a8.119,8.119,0,0,0-.395,1.573H353.45q0-.164.982-2.691a21.126,21.126,0,0,0,.982-2.784H357a23.2,23.2,0,0,0,.89,2.743A24.127,24.127,0,0,1,358.782,335.578Zm-1.943-2.376a23.877,23.877,0,0,1-.72-2.347h-.067q0,.164-.744,2.347Z" transform="translate(-313.727 -329.977)" fill="#f7f8f8"/>
      <path id="Контур_56" data-name="Контур 56" d="M373.391,331.5a1.639,1.639,0,0,1-.747,1.484,3.319,3.319,0,0,1-1.831.479q-.2,0-.282-.008,0,.79.046,2.086H369.4q.055-1.215.055-2.864,0-1.514-.055-2.611h.732q.155,0,.6-.013t.765-.013a2.407,2.407,0,0,1,1.35.362A1.223,1.223,0,0,1,373.391,331.5Zm-1.085.231q0-.9-1.194-.9a3.36,3.36,0,0,0-.631.063q.046.794.046,1.8.105.009.244.009Q372.306,332.7,372.306,331.728Z" transform="translate(-323.431 -329.937)" fill="#f7f8f8"/>
      <path id="Контур_57" data-name="Контур 57" d="M386.275,331.5a1.64,1.64,0,0,1-.746,1.484,3.322,3.322,0,0,1-1.832.479c-.132,0-.225,0-.281-.008q0,.79.046,2.086H382.28q.055-1.215.055-2.864,0-1.514-.055-2.611h.732q.156,0,.6-.013t.765-.013a2.407,2.407,0,0,1,1.35.362A1.223,1.223,0,0,1,386.275,331.5Zm-1.085.231q0-.9-1.194-.9a3.36,3.36,0,0,0-.631.063q.046.794.046,1.8.105.009.244.009Q385.19,332.7,385.19,331.728Z" transform="translate(-331.271 -329.937)" fill="#f7f8f8"/>
      <path id="Контур_58" data-name="Контур 58" d="M405.228,332.543a3.019,3.019,0,0,1-.791,2.14,2.565,2.565,0,0,1-1.955.849,2.471,2.471,0,0,1-1.859-.781,2.748,2.748,0,0,1-.748-1.982,3.02,3.02,0,0,1,.79-2.141,2.566,2.566,0,0,1,1.956-.849,2.474,2.474,0,0,1,1.859.778A2.746,2.746,0,0,1,405.228,332.543Zm-1.161.122a2.169,2.169,0,0,0-.45-1.425,1.385,1.385,0,0,0-1.11-.547,1.283,1.283,0,0,0-1.043.551,2.2,2.2,0,0,0-.429,1.392,2.165,2.165,0,0,0,.452,1.423,1.384,1.384,0,0,0,1.108.549,1.28,1.28,0,0,0,1.043-.553A2.2,2.2,0,0,0,404.068,332.665Z" transform="translate(-341.979 -329.78)" fill="#f7f8f8"/>
      <path id="Контур_59" data-name="Контур 59" d="M421.1,335.578h-1.039a10.236,10.236,0,0,0-1.156-1.821,10.038,10.038,0,0,1-1.379-2.376h-.067a14.891,14.891,0,0,1,.1,1.665q0,1.039.059,2.531h-1.035q.063-1.3.063-2.864,0-1.535-.063-2.611h1.249a7.922,7.922,0,0,0,1.039,1.778,10.474,10.474,0,0,1,1.27,2.241h.063a15.86,15.86,0,0,1-.1-1.682q0-1.139-.059-2.338H421.1q-.059,1.043-.059,2.611T421.1,335.578Z" transform="translate(-352.147 -329.977)" fill="#f7f8f8"/>
    </g>
  </g>
</svg>
