<svg xmlns="http://www.w3.org/2000/svg" viewBox="0 0 217 217"><defs><style>.cls-1{fill:#006247;}</style></defs><g id="Oracle"><rect class="cls-1" x="38.77" y="4.89" width="56.28" height="13.5"/><path class="cls-1" d="M99.71,145.47v46.39H34.1V54.29H99.71V75a13.46,13.46,0,0,1,2.27.19A19.26,19.26,0,0,1,113.21,81V40.79H20.6V205.36h92.61v-64.2A17,17,0,0,1,99.71,145.47Z"/><rect class="cls-1" x="60.16" y="11.64" width="13.5" height="35.91"/><path class="cls-1" d="M99,152a43.41,43.41,0,1,1,43.41-43.4A43.45,43.45,0,0,1,99,152Zm0-73.31a29.91,29.91,0,1,0,29.91,29.91A29.94,29.94,0,0,0,99,78.69Z"/><rect class="cls-1" x="94.13" y="90.06" width="33.34" height="13.5" transform="translate(-36 106.7) rotate(-45)"/><polygon class="cls-1" points="175.5 205.31 106.32 205.31 106.32 191.81 162 191.81 162 43.66 196.4 43.66 196.4 57.16 175.5 57.16 175.5 205.31"/></g></svg>