<svg xmlns="http://www.w3.org/2000/svg" viewBox="0 0 217 217"><defs><style>.cls-1{fill:#006247;}</style></defs><g id="Oracle"><path class="cls-1" d="M78.22,15.35A62,62,0,0,0,48.91,132v34.65h58.61V132A62,62,0,0,0,78.22,15.35ZM94.13,123.54v29.75H85.05v-52.6l20-20-9.47-9.48L78.29,88.51,61,71.22,51.52,80.7l20,20v52.6H62.31V123.54l-4-1.78a48.64,48.64,0,1,1,39.73,0Z"/><path class="cls-1" d="M49.05,181.45a20.22,20.22,0,0,0,20.2,20.2H87.44a20.22,20.22,0,0,0,20.2-20.2V169H49.05Zm38.39,6.81H69.25a6.83,6.83,0,0,1-6.74-5.84H94.18A6.83,6.83,0,0,1,87.44,188.26Z"/><path class="cls-1" d="M127.07,58.48a69,69,0,0,1,2.42,16.41l65.17,33.36,6.15-12Z"/><path class="cls-1" d="M122.48,102.93A38.51,38.51,0,0,1,113,113.25L194.66,155l6.15-12Z"/><path class="cls-1" d="M97,134.19c.32,5,.07,10-.06,15.13l97.77,50.06,6.15-12Z"/></g></svg>