<?xml version="1.0" encoding="UTF-8"?>
<svg id="SVGDoc" width="34" height="34" xmlns="http://www.w3.org/2000/svg" version="1.1" xmlns:xlink="http://www.w3.org/1999/xlink" xmlns:avocode="https://avocode.com/" viewBox="0 0 34 34"><defs></defs><desc>Generated with Avocode.</desc><g><g><title>Path</title><path d="M20.54743,13.99162v0l-4.79652,4.5304v0l-2.30197,-2.36823c-0.2552,-0.26274 -0.67542,-0.26871 -0.93789,-0.01352c-0.26273,0.25546 -0.26871,0.67542 -0.01351,0.93815l2.76091,2.83419c0.2565,0.25806 0.671,0.26689 0.93815,0.01975l5.27573,-4.97608c0.12812,-0.12084 0.20296,-0.28768 0.2079,-0.46362c0.00494,-0.17593 -0.06029,-0.34667 -0.18139,-0.47453c-0.25676,-0.26689 -0.6801,-0.27858 -0.95141,-0.02651z" fill="#c0bca1" fill-opacity="1"></path><path d="M20.54743,13.99162v0l-4.79652,4.5304v0l-2.30197,-2.36823c-0.2552,-0.26274 -0.67542,-0.26871 -0.93789,-0.01352c-0.26273,0.25546 -0.26871,0.67542 -0.01351,0.93815l2.76091,2.83419c0.2565,0.25806 0.671,0.26689 0.93815,0.01975l5.27573,-4.97608c0.12812,-0.12084 0.20296,-0.28768 0.2079,-0.46362c0.00494,-0.17593 -0.06029,-0.34667 -0.18139,-0.47453c-0.25676,-0.26689 -0.6801,-0.27858 -0.95141,-0.02651z" fill-opacity="0" fill="#ffffff" stroke-linejoin="miter" stroke-linecap="butt" stroke-opacity="1" stroke="#c0bca1" stroke-miterlimit="20" stroke-width="1"></path></g><g><title>Shape</title><path d="M16.98919,25.56808c-4.75037,0 -8.6093,-3.86539 -8.6093,-8.60889c0,-4.74351 3.85893,-8.60863 8.6093,-8.60863c4.75505,0 8.60956,3.85421 8.60956,8.60863c0,4.75442 -3.85451,8.60889 -8.60956,8.60889zM16.98919,7.02c-5.48181,0 -9.93919,4.45738 -9.93919,9.93919c0,5.48207 4.45738,9.93945 9.93919,9.93945c5.48207,0 9.93945,-4.45738 9.93945,-9.93945c0,-5.48181 -4.45738,-9.93919 -9.93945,-9.93919z" fill="#c0bca1" fill-opacity="1"></path><path d="M16.98919,25.56808c-4.75037,0 -8.6093,-3.86539 -8.6093,-8.60889c0,-4.74351 3.85893,-8.60863 8.6093,-8.60863c4.75505,0 8.60956,3.85421 8.60956,8.60863c0,4.75442 -3.85451,8.60889 -8.60956,8.60889zM16.98919,7.02c-5.48181,0 -9.93919,4.45738 -9.93919,9.93919c0,5.48207 4.45738,9.93945 9.93919,9.93945c5.48207,0 9.93945,-4.45738 9.93945,-9.93945c0,-5.48181 -4.45738,-9.93919 -9.93945,-9.93919z" fill-opacity="0" fill="#ffffff" stroke-linejoin="miter" stroke-linecap="butt" stroke-opacity="1" stroke="#c0bca1" stroke-miterlimit="20" stroke-width="1"></path></g><g><title>Shape</title><path d="M29.42741,20.07699c-0.08108,0.11902 -0.11876,0.26221 -0.10629,0.40592l0.20608,3.73207l-3.31964,1.67646c-0.12656,0.06341 -0.22921,0.16632 -0.29262,0.29288l-1.67672,3.31964l-3.73207,-0.20608c-0.14293,-0.0052 -0.28404,0.03171 -0.40592,0.10629l-3.11357,2.05587l-3.1133,-2.05587c-0.10811,-0.07302 -0.23545,-0.11253 -0.36591,-0.11305h-0.03326l-3.73233,0.20635l-1.67646,-3.31991c-0.06341,-0.12656 -0.16606,-0.22921 -0.29288,-0.29262l-3.3264,-1.66996l0.20634,-3.73207c0.0052,-0.14293 -0.03196,-0.28404 -0.10655,-0.40592l-2.05561,-3.11357l2.05561,-3.11356c0.08134,-0.11877 0.11903,-0.26222 0.10655,-0.40567l-0.20634,-3.73233l3.31991,-1.67645c0.12656,-0.06341 0.22921,-0.16606 0.29262,-0.29262l1.67645,-3.31991l3.73233,0.20634c0.14267,0.00494 0.28378,-0.03196 0.40593,-0.10655l3.1133,-2.05561l3.11357,2.05561c0.11902,0.08134 0.26247,0.11903 0.40592,0.10655l3.73207,-0.20634l1.67672,3.31991c0.06341,0.12656 0.16606,0.22921 0.29262,0.29262l3.31964,1.67645l-0.20608,3.73233c-0.0052,0.14267 0.03197,0.28378 0.10629,0.40567l2.05587,3.11356zM30.66494,13.30438l0.21959,-3.94517c0.01534,-0.26481 -0.12863,-0.51351 -0.3659,-0.63201l-3.51273,-1.77625l-1.77625,-3.51274c-0.12084,-0.23518 -0.36798,-0.37837 -0.63202,-0.3659l-3.95192,0.2131l-3.29314,-2.17568c-0.22193,-0.14631 -0.50962,-0.14631 -0.73181,0l-3.29314,2.17568l-3.9449,-0.2196c-0.26508,-0.01559 -0.51352,0.12838 -0.63202,0.36591l-1.77651,3.51273l-3.51247,1.77625c-0.23545,0.12058 -0.37838,0.36772 -0.36591,0.63202l0.21934,3.94516l-2.17542,3.29314c-0.14631,0.22193 -0.14631,0.50962 0,0.73181l2.16892,3.29964l-0.21959,3.94516c-0.01534,0.26482 0.12838,0.51352 0.3659,0.63202l3.51273,1.77625l1.77625,3.51273c0.12058,0.23545 0.36773,0.37838 0.63202,0.3659l3.94517,-0.21959l3.29313,2.17542c0.22064,0.15098 0.51118,0.15098 0.73181,0l3.29314,-2.17542l3.94517,0.21959c0.26481,0.01534 0.51325,-0.12863 0.63202,-0.3659l1.77624,-3.51273l3.51274,-1.77625c0.23518,-0.12084 0.37838,-0.36772 0.3659,-0.63202l-0.21959,-3.94516l2.17541,-3.29314c0.14631,-0.22194 0.14631,-0.50988 0,-0.73181z" fill="#c0bca1" fill-opacity="1"></path><path d="M29.42741,20.07699c-0.08108,0.11902 -0.11876,0.26221 -0.10629,0.40592l0.20608,3.73207l-3.31964,1.67646c-0.12656,0.06341 -0.22921,0.16632 -0.29262,0.29288l-1.67672,3.31964l-3.73207,-0.20608c-0.14293,-0.0052 -0.28404,0.03171 -0.40592,0.10629l-3.11357,2.05587l-3.1133,-2.05587c-0.10811,-0.07302 -0.23545,-0.11253 -0.36591,-0.11305h-0.03326l-3.73233,0.20635l-1.67646,-3.31991c-0.06341,-0.12656 -0.16606,-0.22921 -0.29288,-0.29262l-3.3264,-1.66996l0.20634,-3.73207c0.0052,-0.14293 -0.03196,-0.28404 -0.10655,-0.40592l-2.05561,-3.11357l2.05561,-3.11356c0.08134,-0.11877 0.11903,-0.26222 0.10655,-0.40567l-0.20634,-3.73233l3.31991,-1.67645c0.12656,-0.06341 0.22921,-0.16606 0.29262,-0.29262l1.67645,-3.31991l3.73233,0.20634c0.14267,0.00494 0.28378,-0.03196 0.40593,-0.10655l3.1133,-2.05561l3.11357,2.05561c0.11902,0.08134 0.26247,0.11903 0.40592,0.10655l3.73207,-0.20634l1.67672,3.31991c0.06341,0.12656 0.16606,0.22921 0.29262,0.29262l3.31964,1.67645l-0.20608,3.73233c-0.0052,0.14267 0.03197,0.28378 0.10629,0.40567l2.05587,3.11356zM30.66494,13.30438l0.21959,-3.94517c0.01534,-0.26481 -0.12863,-0.51351 -0.3659,-0.63201l-3.51273,-1.77625l-1.77625,-3.51274c-0.12084,-0.23518 -0.36798,-0.37837 -0.63202,-0.3659l-3.95192,0.2131l-3.29314,-2.17568c-0.22193,-0.14631 -0.50962,-0.14631 -0.73181,0l-3.29314,2.17568l-3.9449,-0.2196c-0.26508,-0.01559 -0.51352,0.12838 -0.63202,0.36591l-1.77651,3.51273l-3.51247,1.77625c-0.23545,0.12058 -0.37838,0.36772 -0.36591,0.63202l0.21934,3.94516l-2.17542,3.29314c-0.14631,0.22193 -0.14631,0.50962 0,0.73181l2.16892,3.29964l-0.21959,3.94516c-0.01534,0.26482 0.12838,0.51352 0.3659,0.63202l3.51273,1.77625l1.77625,3.51273c0.12058,0.23545 0.36773,0.37838 0.63202,0.3659l3.94517,-0.21959l3.29313,2.17542c0.22064,0.15098 0.51118,0.15098 0.73181,0l3.29314,-2.17542l3.94517,0.21959c0.26481,0.01534 0.51325,-0.12863 0.63202,-0.3659l1.77624,-3.51273l3.51274,-1.77625c0.23518,-0.12084 0.37838,-0.36772 0.3659,-0.63202l-0.21959,-3.94516l2.17541,-3.29314c0.14631,-0.22194 0.14631,-0.50988 0,-0.73181z" fill-opacity="0" fill="#ffffff" stroke-linejoin="miter" stroke-linecap="butt" stroke-opacity="1" stroke="#c0bca1" stroke-miterlimit="20" stroke-width="1"></path></g></g></svg>