<?xml version="1.0" encoding="UTF-8"?>
<svg id="SVGDoc" width="28" height="32" xmlns="http://www.w3.org/2000/svg" version="1.1" xmlns:xlink="http://www.w3.org/1999/xlink" xmlns:avocode="https://avocode.com/" viewBox="0 0 28 32"><defs></defs><desc>Generated with Avocode.</desc><g><g><title>Shape</title><path d="M25.85445,25.67763c0,0.17243 -0.13995,0.31237 -0.31239,0.31237c-0.29296,0 -10.43755,0 -10.73051,0v-24.115h10.73051c0.17244,0 0.31239,0.13994 0.31239,0.31237zM25.86444,30.13502h-3.70117v-2.25991h3.38794c0.1065,0 0.21112,-0.00753 0.31323,-0.0226zM12.93723,25.99c-2.27068,0 -8.45652,0 -10.73051,0c-0.17244,0 -0.31239,-0.13994 -0.31239,-0.31237c0,-0.72157 0,-22.45819 0,-23.49026c0,-0.17243 0.13995,-0.31237 0.31239,-0.31237h10.73051zM5.59549,30.13502h-3.70117v-2.28251c0.10211,0.01507 0.20673,0.0226 0.31323,0.0226h3.38794zM25.55126,0h-23.34375c-1.20625,0 -2.1875,0.98125 -2.1875,2.1875v28.875c0,0.5175 0.42,0.9375 0.9375,0.9375h5.5675c0.51813,0 0.9375,-0.42 0.9375,-0.9375v-3.1875h12.83375v3.1875c0,0.5175 0.41937,0.9375 0.9375,0.9375h5.5675c0.5175,0 0.9375,-0.42 0.9375,-0.9375c0,-0.32431 0,-28.37175 0,-28.875c0,-1.20625 -0.98125,-2.1875 -2.1875,-2.1875z" fill="#c0bca1" fill-opacity="1"></path></g></g></svg>