<svg xmlns="http://www.w3.org/2000/svg" width="32.946" height="32.943" viewBox="0 0 32.946 32.943">
  <path id="Shape" d="M15.584,31.811l-3.293-2.175-3.946.22a.674.674,0,0,1-.632-.366L5.937,25.976,2.425,24.2a.662.662,0,0,1-.365-.632l.22-3.945L.11,16.322a.663.663,0,0,1,0-.732L2.285,12.3l-.22-3.945a.673.673,0,0,1,.366-.632L5.944,5.944,7.721,2.432a.662.662,0,0,1,.632-.366l3.945.22L15.591.11a.663.663,0,0,1,.732,0l3.293,2.175,3.952-.212a.674.674,0,0,1,.632.365l1.777,3.513,3.513,1.777a.663.663,0,0,1,.366.632l-.22,3.946L31.8,15.6a.663.663,0,0,1,0,.732l-2.175,3.293.22,3.945a.673.673,0,0,1-.366.632l-3.513,1.777-1.776,3.513a.664.664,0,0,1-.632.366l-3.946-.22-3.293,2.175a.647.647,0,0,1-.732,0Z" transform="translate(0.52 0.519)" fill="#c0bca1" stroke="#c0bca1" stroke-miterlimit="10" stroke-width="1"/>
</svg>
