<svg id="icons_social_facebook" data-name="icons/social/facebook" xmlns="http://www.w3.org/2000/svg" xmlns:xlink="http://www.w3.org/1999/xlink" width="19.2" height="19.198" viewBox="0 0 19.2 19.198">
  <defs>
    <clipPath id="clip-path">
      <path id="Mask" d="M4.868,19.13a6.515,6.515,0,0,1-2.174-.4,3.623,3.623,0,0,1-1.346-.876A3.614,3.614,0,0,1,.471,16.5a6.48,6.48,0,0,1-.4-2.173C.012,13.117,0,12.75,0,9.6S.012,6.08.068,4.867a6.5,6.5,0,0,1,.4-2.174,3.629,3.629,0,0,1,.877-1.346A3.629,3.629,0,0,1,2.694.47a6.447,6.447,0,0,1,2.174-.4C5.953.017,6.363,0,8.55,0L9.6,0c3.129,0,3.5.012,4.732.068a6.48,6.48,0,0,1,2.174.4,3.631,3.631,0,0,1,1.346.876A3.626,3.626,0,0,1,18.728,2.7a6.46,6.46,0,0,1,.4,2.174c.057,1.229.068,1.6.068,4.73s-.012,3.5-.068,4.73a6.48,6.48,0,0,1-.4,2.174,3.877,3.877,0,0,1-2.222,2.221,6.429,6.429,0,0,1-2.174.4c-1.249.057-1.622.068-4.732.068S6.117,19.186,4.868,19.13ZM3.587,9.6A6.013,6.013,0,1,0,9.6,3.589,6.02,6.02,0,0,0,3.587,9.6ZM15.848,1.949a1.4,1.4,0,1,0,1.409,1.4,1.4,1.4,0,0,0-1.409-1.4ZM5.7,9.6a3.9,3.9,0,1,1,3.9,3.9A3.9,3.9,0,0,1,5.7,9.6Z" fill="#212b36"/>
    </clipPath>
  </defs>
  <path id="Mask-2" data-name="Mask" d="M4.868,19.13a6.515,6.515,0,0,1-2.174-.4,3.623,3.623,0,0,1-1.346-.876A3.614,3.614,0,0,1,.471,16.5a6.48,6.48,0,0,1-.4-2.173C.012,13.117,0,12.75,0,9.6S.012,6.08.068,4.867a6.5,6.5,0,0,1,.4-2.174,3.629,3.629,0,0,1,.877-1.346A3.629,3.629,0,0,1,2.694.47a6.447,6.447,0,0,1,2.174-.4C5.953.017,6.363,0,8.55,0L9.6,0c3.129,0,3.5.012,4.732.068a6.48,6.48,0,0,1,2.174.4,3.631,3.631,0,0,1,1.346.876A3.626,3.626,0,0,1,18.728,2.7a6.46,6.46,0,0,1,.4,2.174c.057,1.229.068,1.6.068,4.73s-.012,3.5-.068,4.73a6.48,6.48,0,0,1-.4,2.174,3.877,3.877,0,0,1-2.222,2.221,6.429,6.429,0,0,1-2.174.4c-1.249.057-1.622.068-4.732.068S6.117,19.186,4.868,19.13ZM3.587,9.6A6.013,6.013,0,1,0,9.6,3.589,6.02,6.02,0,0,0,3.587,9.6ZM15.848,1.949a1.4,1.4,0,1,0,1.409,1.4,1.4,1.4,0,0,0-1.409-1.4ZM5.7,9.6a3.9,3.9,0,1,1,3.9,3.9A3.9,3.9,0,0,1,5.7,9.6Z" fill="#212b36"/>
  <g id="icons_social_facebook-2" data-name="icons/social/facebook" clip-path="url(#clip-path)">
    <g id="Color" transform="translate(-1.2 -1.2)">
      <rect id="color_background" data-name="color/background" width="21.6" height="21.6" rx="4" fill="#f5f6f6"/>
    </g>
  </g>
</svg>
