<svg xmlns="http://www.w3.org/2000/svg" width="24.96" height="24.957" viewBox="0 0 24.96 24.957">
  <path id="Mask" d="M6.329,24.868A8.452,8.452,0,0,1,3.5,24.343,4.714,4.714,0,0,1,1.751,23.2a4.728,4.728,0,0,1-1.139-1.75,8.406,8.406,0,0,1-.525-2.826C.015,17.043,0,16.565,0,12.477s.015-4.564.087-6.15A8.449,8.449,0,0,1,.612,3.5,4.712,4.712,0,0,1,1.751,1.75,4.732,4.732,0,0,1,3.5.61,8.433,8.433,0,0,1,6.329.086C7.743.023,8.276,0,11.114,0L12.48,0c4.086,0,4.565.015,6.151.087a8.449,8.449,0,0,1,2.827.525,4.7,4.7,0,0,1,1.749,1.139A4.724,4.724,0,0,1,24.347,3.5a8.406,8.406,0,0,1,.525,2.826c.073,1.6.088,2.084.088,6.15s-.015,4.548-.088,6.15a8.431,8.431,0,0,1-.525,2.826,5.051,5.051,0,0,1-2.888,2.887,8.36,8.36,0,0,1-2.827.525c-1.618.074-2.1.089-6.151.089S7.947,24.942,6.329,24.868Zm6.148-20.2a7.817,7.817,0,1,0,7.82,7.817,7.824,7.824,0,0,0-7.82-7.817ZM20.6,2.533a1.826,1.826,0,1,0,1.83,1.825A1.827,1.827,0,0,0,20.6,2.533Zm-13.2,9.951a5.075,5.075,0,1,1,5.075,5.074A5.075,5.075,0,0,1,7.405,12.484Z" transform="translate(0)" fill="#833ab4"/>
</svg>
