<?xml version="1.0" encoding="UTF-8"?>
<svg id="SVGDoc" width="28" height="21" xmlns="http://www.w3.org/2000/svg" version="1.1" xmlns:xlink="http://www.w3.org/1999/xlink" xmlns:avocode="https://avocode.com/" viewBox="0 0 28 21"><defs></defs><desc>Generated with Avocode.</desc><g><g><title>Shape</title><path d="M2.61784,19.24998c-0.48132,0 -0.87239,-0.39117 -0.87239,-0.87275v-14.67013l11.64153,10.09347c0.16445,0.1423 0.36805,0.21307 0.57166,0.21307c0.20361,0 0.4072,-0.07071 0.57166,-0.21307l11.64153,-10.09347v14.67019c-0.00006,0.48152 -0.39107,0.87269 -0.87239,0.87269zM25.30907,1.79545c0.11858,0 0.23138,0.0246 0.33451,0.06757l-11.67994,10.12308l-11.68,-10.12308c0.10313,-0.04291 0.21593,-0.06757 0.3345,-0.06757zM25.30907,0.05h-22.69087c-1.44376,0 -2.6182,1.17444 -2.6182,2.6182v15.70908c0,1.44377 1.17444,2.6182 2.6182,2.6182h22.69087c1.44377,0 2.6182,-1.17443 2.6182,-2.6182v-15.70908c0,-1.44376 -1.17443,-2.6182 -2.6182,-2.6182z" fill="#c0bca1" fill-opacity="1"></path></g></g></svg>