<?xml version="1.0" encoding="UTF-8"?>
<svg id="SVGDoc" width="26" height="26" xmlns="http://www.w3.org/2000/svg" version="1.1" xmlns:xlink="http://www.w3.org/1999/xlink" xmlns:avocode="https://avocode.com/" viewBox="0 0 26 26"><defs></defs><desc>Generated with Avocode.</desc><g><g><title>Path</title><path d="M24.31516,17.95908v0l-5.25,-2.25c-0.46073,-0.19635 -0.99577,-0.0645 -1.3125,0.32343l-2.325,2.84063c-3.64887,-1.72041 -6.58538,-4.65691 -8.30578,-8.30578l2.84062,-2.325c0.38878,-0.31621 0.52078,-0.85186 0.32344,-1.3125l-2.25,-5.25c-0.21746,-0.49857 -0.75866,-0.77212 -1.28906,-0.65156l-4.875,1.125c-0.51047,0.11787 -0.872,0.57251 -0.87188,1.0964c0,12.02344 9.74531,21.75 21.75,21.75c0.52407,0.00034 0.97896,-0.36124 1.09688,-0.87187l1.125,-4.875c0.11977,-0.53295 -0.15582,-1.07587 -0.65672,-1.29375z" fill-opacity="0" fill="#ffffff" stroke-linejoin="miter" stroke-linecap="butt" stroke-opacity="1" stroke="#c0bca1" stroke-miterlimit="20" stroke-width="2"></path></g></g></svg>