<svg xmlns="http://www.w3.org/2000/svg" xmlns:xlink="http://www.w3.org/1999/xlink" width="19.2" height="15.867" viewBox="0 0 19.2 15.867">
  <defs>
    <clipPath id="clip-path">
      <path id="Mask" d="M9.323,4.221l.042.686-.694-.084a11.283,11.283,0,0,1-6.6-3.249L1.151.663l-.236.672a4.042,4.042,0,0,0,.86,4.146c.555.588.43.672-.527.322A1.636,1.636,0,0,0,.6,5.649a5.018,5.018,0,0,0,.5,1.877A4.48,4.48,0,0,0,3,9.319l.68.322-.8.014c-.777,0-.8.014-.721.308a4.194,4.194,0,0,0,2.594,2.3l.86.294L4.856,13a7.811,7.811,0,0,1-3.718,1.036A4.108,4.108,0,0,0,0,14.151a10.554,10.554,0,0,0,2.678,1.233,11.718,11.718,0,0,0,9.1-1.036A12.179,12.179,0,0,0,16.4,8.913a14.446,14.446,0,0,0,.943-4.2c0-.644.042-.728.819-1.5a9.146,9.146,0,0,0,.971-1.078c.139-.266.125-.266-.583-.028-1.179.42-1.346.364-.763-.266a4.074,4.074,0,0,0,.943-1.5c0-.042-.208.028-.444.154a7.739,7.739,0,0,1-1.221.476l-.749.238-.68-.462A5.647,5.647,0,0,0,14.456.131a4.739,4.739,0,0,0-2.428.056A4.01,4.01,0,0,0,9.323,4.221Z" fill="#212b36"/>
    </clipPath>
  </defs>
  <g id="icons_social_facebook" data-name="icons/social/facebook" transform="translate(0 0)" clip-path="url(#clip-path)">
    <g id="Color" transform="translate(-1.2 -2.4)">
      <rect id="color_background" data-name="color/background" width="21.6" height="21.6" rx="4" fill="#f5f6f6"/>
    </g>
  </g>
</svg>
