<svg xmlns="http://www.w3.org/2000/svg" xmlns:xlink="http://www.w3.org/1999/xlink" width="116" height="101.009" viewBox="0 0 116 101.009">
  <defs>
    <linearGradient id="linear-gradient" x1="0.5" x2="0.5" y2="1" gradientUnits="objectBoundingBox">
      <stop offset="0" stop-color="#483aeb"/>
      <stop offset="1" stop-color="#3575f2"/>
    </linearGradient>
  </defs>
  <g id="Oracle" transform="translate(0)">
    <path id="Контур_4018" data-name="Контур 4018" d="M123.976,57.247l.208-.243L123.7,56.6,110.021,23.83H22.5L8.26,57.93H9.268l56.99,66.909L123.391,57.93h.869ZM58.133,103.333,19.459,57.93H46.095ZM87.369,50.177l13.057-18.587h4.43l7.759,18.587ZM74.63,31.589H90.971L83.119,42.73Zm4.441,18.587H54.091L65.713,32.718ZM40.854,31.589H57.149L49.32,43.35Zm-9.577,0L44.734,50.177H19.9l7.759-18.587Zm43.017,71.946L86.338,57.93h26.85ZM78.348,57.93l-12.1,45.629L54.143,57.93Z" transform="translate(-8.26 -23.83)" fill="url(#linear-gradient)"/>
  </g>
</svg>
