<svg width="287" height="38" viewBox="0 0 287 38" fill="none" xmlns="http://www.w3.org/2000/svg">
<path fill-rule="evenodd" clip-rule="evenodd" d="M10.5254 37.4255C10.0398 37.3488 9.5149 37.1623 9.34169 37.0049C9.27457 36.9439 9.18446 36.894 9.14143 36.894C9.02501 36.894 8.30955 36.2136 8.30955 36.1028C8.30955 36.0502 8.268 36.0072 8.21722 36.0072C8.16644 36.0072 8.1249 35.9274 8.1249 35.8298C8.1249 35.7323 8.08335 35.6524 8.03257 35.6524C7.98179 35.6524 7.94024 35.5926 7.94024 35.5194C7.94024 35.4463 7.89869 35.3864 7.84791 35.3864C7.79713 35.3864 7.75558 35.2866 7.75558 35.1647C7.75558 35.0427 7.71403 34.943 7.66325 34.943C7.61247 34.943 7.57093 34.8233 7.57093 34.6769C7.57093 34.5306 7.52938 34.4109 7.4786 34.4109C7.42782 34.4109 7.38627 34.2712 7.38627 34.1005C7.38627 33.9298 7.34472 33.7901 7.29394 33.7901C7.24316 33.7901 7.20161 33.6105 7.20161 33.391C7.20161 33.1715 7.24316 32.9919 7.29394 32.9919C7.34472 32.9919 7.38627 32.8722 7.38627 32.7259C7.38627 32.5796 7.42782 32.4598 7.4786 32.4598C7.52938 32.4598 7.57093 32.3002 7.57093 32.1051C7.57093 31.91 7.61247 31.7504 7.66325 31.7504C7.71403 31.7504 7.75558 31.5309 7.75558 31.2626C7.75558 30.9943 7.79713 30.7749 7.84791 30.7749C7.89924 30.7749 7.94024 30.5383 7.94024 30.2427C7.94024 29.9472 7.89924 29.7106 7.84791 29.7106C7.79713 29.7106 7.75558 29.5111 7.75558 29.2672C7.75558 29.0234 7.71403 28.8238 7.66325 28.8238C7.61247 28.8238 7.57093 28.724 7.57093 28.6021C7.57093 28.4802 7.52938 28.3804 7.4786 28.3804C7.42652 28.3804 7.38627 28.6316 7.38627 28.9568C7.38627 29.282 7.42652 29.5333 7.4786 29.5333C7.52938 29.5333 7.57093 29.6331 7.57093 29.755C7.57093 29.8769 7.52938 29.9767 7.4786 29.9767C7.42588 29.9767 7.38627 30.2427 7.38627 30.5975C7.38627 30.9522 7.34666 31.2183 7.29394 31.2183C7.24316 31.2183 7.20161 31.338 7.20161 31.4843C7.20161 31.6306 7.16006 31.7504 7.10928 31.7504C7.0585 31.7504 7.01695 31.8501 7.01695 31.9721C7.01695 32.094 6.97541 32.1938 6.92463 32.1938C6.87385 32.1938 6.8323 32.2536 6.8323 32.3268C6.8323 32.4 6.79075 32.4598 6.73997 32.4598C6.68919 32.4598 6.64764 32.5148 6.64764 32.5821C6.64764 32.6494 6.52798 32.752 6.38183 32.8101C6.05822 32.9389 5.49243 32.8168 5.17076 32.5489C5.0535 32.4511 4.9223 32.3712 4.87928 32.3712C4.83625 32.3712 4.80107 32.3201 4.80107 32.2577C4.80107 32.1953 4.71798 32.0867 4.61642 32.0164C4.51486 31.9461 4.43176 31.8375 4.43176 31.7751C4.43176 31.7128 4.39021 31.6617 4.33943 31.6617C4.28865 31.6617 4.2471 31.6018 4.2471 31.5287C4.2471 31.4555 4.20556 31.3956 4.15478 31.3956C4.104 31.3956 4.06245 31.3358 4.06245 31.2626C4.06245 31.1894 4.0209 31.1296 3.97012 31.1296C3.91934 31.1296 3.87779 31.0498 3.87779 30.9522C3.87779 30.8547 3.83624 30.7749 3.78546 30.7749C3.73468 30.7749 3.69313 30.6751 3.69313 30.5531C3.69313 30.4312 3.65159 30.3314 3.60081 30.3314C3.55003 30.3314 3.50848 30.2117 3.50848 30.0654C3.50848 29.9191 3.46693 29.7993 3.41615 29.7993C3.36537 29.7993 3.32382 29.6397 3.32382 29.4446C3.32382 29.2495 3.28227 29.0899 3.23149 29.0899C3.18016 29.0899 3.13916 28.8533 3.13916 28.5578C3.13916 28.2622 3.09817 28.0257 3.04684 28.0257C2.99061 28.0257 2.95451 27.6266 2.95451 27.0058C2.95451 26.385 2.99061 25.9859 3.04684 25.9859C3.09762 25.9859 3.13916 25.8463 3.13916 25.6756C3.13916 25.5048 3.18071 25.3652 3.23149 25.3652C3.28227 25.3652 3.32382 25.2654 3.32382 25.1434C3.32382 25.0215 3.36537 24.9217 3.41615 24.9217C3.46693 24.9217 3.50848 24.8619 3.50848 24.7887C3.50848 24.7156 3.55003 24.6557 3.60081 24.6557C3.65159 24.6557 3.69313 24.5759 3.69313 24.4783C3.69313 24.3808 3.73468 24.301 3.78546 24.301C3.83624 24.301 3.87779 24.2499 3.87779 24.1875C3.87779 24.1251 3.96089 24.0165 4.06245 23.9462C4.16401 23.8759 4.2471 23.7851 4.2471 23.7444C4.2471 23.6466 5.34221 22.616 5.44599 22.616C5.49031 22.616 5.58347 22.5613 5.65299 22.4945C5.87162 22.2845 6.35238 22.0829 6.76148 22.0296C7.07226 21.9892 7.1993 22.0151 7.36319 22.1523C7.55532 22.3133 7.57093 22.4005 7.57093 23.3136C7.57093 23.9127 7.53464 24.301 7.4786 24.301C7.42782 24.301 7.38627 24.4406 7.38627 24.6113C7.38627 24.7821 7.34472 24.9217 7.29394 24.9217C7.24316 24.9217 7.20161 25.0215 7.20161 25.1434C7.20161 25.2654 7.16006 25.3652 7.10928 25.3652C7.0585 25.3652 7.01695 25.445 7.01695 25.5425C7.01695 25.6401 6.97541 25.7199 6.92463 25.7199C6.87385 25.7199 6.8323 25.7629 6.8323 25.8155C6.8323 25.8682 6.66611 26.0645 6.46299 26.252C6.25986 26.4395 6.09367 26.6331 6.09367 26.6823C6.09367 26.7315 6.00024 26.7891 5.88593 26.8102C5.6913 26.8462 5.69038 26.8494 5.87181 26.8607C5.97826 26.8674 6.16126 26.793 6.27833 26.6954C6.3954 26.5979 6.523 26.518 6.56187 26.518C6.67294 26.518 7.38627 25.8334 7.38627 25.7268C7.38627 25.6742 7.42782 25.6312 7.4786 25.6312C7.52938 25.6312 7.57093 25.5713 7.57093 25.4982C7.57093 25.425 7.61247 25.3652 7.66325 25.3652C7.71403 25.3652 7.75558 25.2853 7.75558 25.1878C7.75558 25.0902 7.79713 25.0104 7.84791 25.0104C7.89869 25.0104 7.94024 24.9107 7.94024 24.7887C7.94024 24.6668 7.98179 24.567 8.03257 24.567C8.08335 24.567 8.1249 24.4273 8.1249 24.2566C8.1249 24.0859 8.16644 23.9462 8.21722 23.9462C8.27262 23.9462 8.30955 23.5915 8.30955 23.0594C8.30955 22.5716 8.33199 22.1726 8.35941 22.1726C8.44426 22.1726 9.16858 22.5422 9.29174 22.6484C9.35591 22.7038 9.5366 22.8488 9.69328 22.9707C9.84987 23.0926 10.0966 23.2922 10.2415 23.4141C10.3865 23.5361 10.5978 23.6957 10.7112 23.7689C10.8246 23.842 10.9674 23.9477 11.0285 24.0037C11.2533 24.2096 12.2821 24.6557 12.5309 24.6552C13.0527 24.6542 13.4801 24.4666 13.9392 24.0371C14.1944 23.7984 14.4032 23.5605 14.4032 23.5086C14.4032 23.3839 14.3266 23.3892 14.169 23.525C13.6524 23.97 13.233 24.1549 12.7413 24.1544C12.3117 24.1538 11.525 23.8308 11.1387 23.4962C11.0299 23.4021 10.7124 23.1256 10.4331 22.882C10.1538 22.6384 9.83722 22.3629 9.72956 22.2697C9.62182 22.1765 9.3933 22.0312 9.22176 21.9467C9.05012 21.8622 8.88891 21.7687 8.86352 21.7389C8.7711 21.6305 8.15887 21.4418 7.66325 21.3689C7.29976 21.3154 6.95943 21.333 6.46548 21.4306C5.89101 21.5442 5.71328 21.5483 5.4037 21.4547C4.96339 21.3215 3.98498 20.8671 3.82692 20.7224C3.7658 20.6664 3.62758 20.5619 3.51983 20.4901C3.41199 20.4184 3.32382 20.3087 3.32382 20.2463C3.32382 20.1839 3.28227 20.1328 3.23149 20.1328C3.18071 20.1328 3.13916 20.073 3.13916 19.9998C3.13916 19.9266 3.09762 19.8668 3.04684 19.8668C2.99606 19.8668 2.95451 19.787 2.95451 19.6894C2.95451 19.5919 2.91296 19.512 2.86218 19.512C2.80743 19.512 2.76985 19.1868 2.76985 18.7139C2.76985 18.2409 2.73227 17.9157 2.67752 17.9157C2.62674 17.9157 2.58519 18.0355 2.58519 18.1818C2.58519 18.3281 2.54365 18.4478 2.49287 18.4478C2.43858 18.4478 2.40054 18.7582 2.40054 19.2017C2.40054 19.6451 2.43858 19.9555 2.49287 19.9555C2.54365 19.9555 2.58519 20.0552 2.58519 20.1772C2.58519 20.2991 2.62674 20.3989 2.67752 20.3989C2.7283 20.3989 2.76985 20.4587 2.76985 20.5319C2.76985 20.6051 2.8114 20.6649 2.86218 20.6649C2.91296 20.6649 2.95451 20.716 2.95451 20.7784C2.95451 20.8408 3.04268 20.9505 3.15052 21.0222C3.25827 21.094 3.39648 21.1985 3.45761 21.2545C3.61927 21.4026 4.61854 21.8708 4.92406 21.9416L5.18562 22.0022L4.8971 22.2426C4.2989 22.7408 3.50848 23.4958 3.50848 23.5689C3.50848 23.6739 2.71492 24.0349 2.48437 24.0349C2.38078 24.0349 2.21025 23.9907 2.10527 23.9368C1.851 23.8061 1.10794 23.088 1.10794 22.973C1.10794 22.923 1.06639 22.882 1.01561 22.882C0.964831 22.882 0.923284 22.8022 0.923284 22.7047C0.923284 22.6071 0.881736 22.5273 0.830955 22.5273C0.780175 22.5273 0.738627 22.4475 0.738627 22.3499C0.738627 22.2524 0.697079 22.1726 0.646298 22.1726C0.595518 22.1726 0.55397 22.0728 0.55397 21.9508C0.55397 21.8289 0.512422 21.7291 0.461642 21.7291C0.410861 21.7291 0.369313 21.5895 0.369313 21.4187C0.369313 21.248 0.327766 21.1084 0.276985 21.1084C0.226204 21.1084 0.184657 20.8889 0.184657 20.6206C0.184657 20.3523 0.143109 20.1328 0.0923284 20.1328C0.0355464 20.1328 0 19.6894 0 18.9799C0 18.2705 0.0355464 17.8271 0.0923284 17.8271C0.143109 17.8271 0.184657 17.6275 0.184657 17.3836C0.184657 17.1398 0.226204 16.9402 0.276985 16.9402C0.327766 16.9402 0.369313 16.8006 0.369313 16.6298C0.369313 16.4591 0.410861 16.3194 0.461642 16.3194C0.512422 16.3194 0.55397 16.2197 0.55397 16.0977C0.55397 15.9758 0.595518 15.876 0.646298 15.876C0.697079 15.876 0.738627 15.7763 0.738627 15.6543C0.738627 15.5324 0.780175 15.4326 0.830955 15.4326C0.881736 15.4326 0.923284 15.3528 0.923284 15.2552C0.923284 15.1577 0.964831 15.0779 1.01561 15.0779C1.06639 15.0779 1.10794 15.018 1.10794 14.9448C1.10794 14.8717 1.14949 14.8118 1.20027 14.8118C1.25105 14.8118 1.2926 14.752 1.2926 14.6788C1.2926 14.6056 1.33414 14.5458 1.38493 14.5458C1.43571 14.5458 1.47725 14.4859 1.47725 14.4127C1.47725 14.3396 1.5188 14.2797 1.56958 14.2797C1.62036 14.2797 1.66191 14.2359 1.66191 14.1823C1.66191 14.0999 1.96022 13.8056 2.36305 13.4907C2.61779 13.2916 3.06521 13.1268 3.35124 13.1268C3.66479 13.1268 4.06245 13.3682 4.06245 13.5585C4.06245 13.6137 4.104 13.6589 4.15478 13.6589C4.20556 13.6589 4.2471 13.7388 4.2471 13.8363C4.2471 13.9339 4.28865 14.0137 4.33943 14.0137C4.39021 14.0137 4.43176 14.1134 4.43176 14.2354C4.43176 14.3573 4.47331 14.4571 4.52409 14.4571C4.57487 14.4571 4.61642 14.5369 4.61642 14.6345C4.61642 14.732 4.65797 14.8118 4.70875 14.8118C4.75953 14.8118 4.80107 14.8916 4.80107 14.9892C4.80107 15.0867 4.84262 15.1666 4.8934 15.1666C4.94418 15.1666 4.98573 15.2264 4.98573 15.2996C4.98573 15.3727 5.02728 15.4326 5.07806 15.4326C5.12884 15.4326 5.17039 15.4925 5.17039 15.5656C5.17039 15.6388 5.21194 15.6987 5.26272 15.6987C5.3135 15.6987 5.35504 15.7497 5.35504 15.8121C5.35504 15.8745 5.43814 15.9831 5.5397 16.0534C5.64126 16.1237 5.72436 16.2235 5.72436 16.2751C5.72436 16.3267 5.81318 16.4276 5.92176 16.4994C6.03033 16.5711 6.21121 16.7156 6.32366 16.8203C6.70996 17.1803 7.7854 17.6034 8.00875 17.4833C8.0984 17.4352 8.02463 17.3671 7.75669 17.2511C7.5483 17.1608 7.3005 17.024 7.20595 16.9471C7.1115 16.8702 6.94217 16.7473 6.82971 16.6742C6.49336 16.4553 5.90901 15.8969 5.90901 15.7943C5.90901 15.7417 5.86747 15.6987 5.81669 15.6987C5.76591 15.6987 5.72436 15.6388 5.72436 15.5656C5.72436 15.4925 5.68281 15.4326 5.63203 15.4326C5.58125 15.4326 5.5397 15.3727 5.5397 15.2996C5.5397 15.2264 5.49815 15.1666 5.44737 15.1666C5.39659 15.1666 5.35504 15.0867 5.35504 14.9892C5.35504 14.8916 5.3135 14.8118 5.26272 14.8118C5.21194 14.8118 5.17039 14.732 5.17039 14.6345C5.17039 14.5369 5.12884 14.4571 5.07806 14.4571C5.02728 14.4571 4.98573 14.3374 4.98573 14.191C4.98573 14.0447 4.94418 13.925 4.8934 13.925C4.84262 13.925 4.80107 13.7853 4.80107 13.6146C4.80107 13.4439 4.75953 13.3042 4.70875 13.3042C4.65797 13.3042 4.61642 13.1845 4.61642 13.0382C4.61642 12.8918 4.65797 12.7721 4.70875 12.7721C4.75953 12.7721 4.80107 12.7196 4.80107 12.6555C4.80107 12.4836 5.39595 12.2413 5.84291 12.2311C6.05702 12.2263 6.33603 12.1934 6.46299 12.1581C6.6494 12.1061 6.57027 12.0726 6.05148 11.9837C5.31599 11.8578 4.63276 11.9196 4.14693 12.1562C3.61152 12.4169 3.0918 12.4195 2.78398 12.1631C2.67466 12.072 2.58519 11.9324 2.58519 11.8527C2.58519 11.7731 2.54365 11.7079 2.49287 11.7079C2.43784 11.7079 2.40054 11.368 2.40054 10.8654C2.40054 10.3628 2.43784 10.0229 2.49287 10.0229C2.54365 10.0229 2.58519 9.86329 2.58519 9.66818C2.58519 9.47308 2.62674 9.31345 2.67752 9.31345C2.7283 9.31345 2.76985 9.19373 2.76985 9.0474C2.76985 8.90107 2.8114 8.78135 2.86218 8.78135C2.91296 8.78135 2.95451 8.70153 2.95451 8.60398C2.95451 8.50643 2.99606 8.42661 3.04684 8.42661C3.09762 8.42661 3.13916 8.3468 3.13916 8.24924C3.13916 8.15169 3.18071 8.07188 3.23149 8.07188C3.28227 8.07188 3.32382 7.99206 3.32382 7.89451C3.32382 7.79696 3.36537 7.71714 3.41615 7.71714C3.46693 7.71714 3.50848 7.65728 3.50848 7.58412C3.50848 7.51095 3.55003 7.45109 3.60081 7.45109C3.65159 7.45109 3.69313 7.41012 3.69313 7.36011C3.69313 7.21733 4.47072 6.5067 4.81419 6.33545C5.1739 6.15614 6.46299 6.04387 6.46299 6.19188C6.46299 6.24376 6.54608 6.3116 6.64764 6.34255C6.7492 6.3735 6.8323 6.45597 6.8323 6.52586C6.8323 6.59574 6.87385 6.65294 6.92463 6.65294C6.97541 6.65294 7.01695 6.75271 7.01695 6.87465C7.01695 6.99659 7.0585 7.09636 7.10928 7.09636C7.16006 7.09636 7.20161 7.31585 7.20161 7.58412C7.20161 7.85239 7.24316 8.07188 7.29394 8.07188C7.34472 8.07188 7.38627 8.23151 7.38627 8.42661C7.38627 8.62172 7.42782 8.78135 7.4786 8.78135C7.52938 8.78135 7.57093 8.88111 7.57093 9.00305C7.57093 9.12499 7.61247 9.22476 7.66325 9.22476C7.71403 9.22476 7.75558 9.32453 7.75558 9.44647C7.75558 9.56841 7.79713 9.66818 7.84791 9.66818C7.89869 9.66818 7.94024 9.72804 7.94024 9.8012C7.94024 9.87437 7.98179 9.93423 8.03257 9.93423C8.08335 9.93423 8.1249 9.99409 8.1249 10.0673C8.1249 10.1404 8.16644 10.2003 8.21722 10.2003C8.268 10.2003 8.30955 10.2601 8.30955 10.3333C8.30955 10.4065 8.3511 10.4663 8.40188 10.4663C8.45266 10.4663 8.49541 10.5162 8.49698 10.5772C8.49846 10.6381 8.62458 10.7878 8.77719 10.9097C8.92991 11.0317 9.17328 11.2312 9.31824 11.3532C9.46319 11.4751 9.67333 11.6347 9.78524 11.7079C9.89714 11.7811 10.0641 11.9008 10.1561 11.9739C10.2482 12.0471 10.4156 12.1668 10.528 12.24C10.8644 12.4589 11.4487 13.0173 11.4487 13.1199C11.4487 13.1725 11.4903 13.2155 11.541 13.2155C11.5918 13.2155 11.6334 13.2754 11.6334 13.3485C11.6334 13.4217 11.6749 13.4816 11.7257 13.4816C11.7765 13.4816 11.818 13.5414 11.818 13.6146C11.818 13.6878 11.8596 13.7476 11.9104 13.7476C11.9611 13.7476 12.0027 13.8274 12.0027 13.925C12.0027 14.0225 12.0442 14.1024 12.095 14.1024C12.1458 14.1024 12.1873 14.2021 12.1873 14.3241C12.1873 14.446 12.2289 14.5458 12.2797 14.5458C12.3305 14.5458 12.372 14.6854 12.372 14.8562C12.372 15.0269 12.4135 15.1666 12.4643 15.1666C12.5151 15.1666 12.5567 15.3262 12.5567 15.5213C12.5567 15.7164 12.5982 15.876 12.649 15.876C12.6998 15.876 12.7413 15.6565 12.7413 15.3883C12.7413 15.12 12.6998 14.9005 12.649 14.9005C12.5982 14.9005 12.5567 14.7209 12.5567 14.5014C12.5567 14.2819 12.5151 14.1024 12.4643 14.1024C12.4135 14.1024 12.372 14.0026 12.372 13.8806C12.372 13.7587 12.3305 13.6589 12.2797 13.6589C12.2289 13.6589 12.1873 13.5791 12.1873 13.4816C12.1873 13.384 12.1458 13.3042 12.095 13.3042C12.0442 13.3042 12.0027 13.2443 12.0027 13.1712C12.0027 13.098 11.9611 13.0382 11.9104 13.0382C11.8596 13.0382 11.818 12.9963 11.818 12.9452C11.818 12.8538 10.8674 11.941 10.1823 11.3747C9.43347 10.7556 9.23284 10.5697 9.23284 10.4947C9.23284 10.4519 9.14974 10.3593 9.04818 10.289C8.94662 10.2186 8.86352 10.1101 8.86352 10.0477C8.86352 9.98531 8.82197 9.93423 8.77119 9.93423C8.72041 9.93423 8.67887 9.87437 8.67887 9.8012C8.67887 9.72804 8.63732 9.66818 8.58654 9.66818C8.53576 9.66818 8.49421 9.56841 8.49421 9.44647C8.49421 9.32453 8.45266 9.22476 8.40188 9.22476C8.3511 9.22476 8.30955 9.12499 8.30955 9.00305C8.30955 8.88111 8.268 8.78135 8.21722 8.78135C8.16644 8.78135 8.1249 8.60176 8.1249 8.38227C8.1249 8.16278 8.08335 7.98319 8.03257 7.98319C7.97578 7.98319 7.94024 7.53978 7.94024 6.83031C7.94024 6.12084 7.97578 5.67742 8.03257 5.67742C8.08335 5.67742 8.1249 5.45793 8.1249 5.18967C8.1249 4.9214 8.16644 4.70191 8.21722 4.70191C8.268 4.70191 8.30955 4.58218 8.30955 4.43586C8.30955 4.28953 8.3511 4.1698 8.40188 4.1698C8.45266 4.1698 8.49421 4.08999 8.49421 3.99244C8.49421 3.89489 8.53576 3.81507 8.58654 3.81507C8.63732 3.81507 8.67887 3.75521 8.67887 3.68204C8.67887 3.60888 8.72041 3.54902 8.77119 3.54902C8.82197 3.54902 8.86352 3.49794 8.86352 3.43559C8.86352 3.37316 8.94662 3.26461 9.04818 3.19429C9.14974 3.12396 9.23284 3.01541 9.23284 2.95298C9.23284 2.89063 9.26995 2.83955 9.31538 2.83955C9.3608 2.83955 9.53179 2.7247 9.69531 2.58441C10.1541 2.19074 10.1981 2.15971 10.5341 1.99218C10.9269 1.79646 12.0129 1.7224 12.5282 1.85623C12.9065 1.95449 13.6646 2.54672 13.6646 2.74395C13.6646 2.79654 13.7061 2.83955 13.7569 2.83955C13.8077 2.83955 13.8493 2.91937 13.8493 3.01692C13.8493 3.11447 13.8908 3.19429 13.9416 3.19429C13.998 3.19429 14.0339 3.60817 14.0339 4.25849C14.0339 4.90881 13.998 5.32269 13.9416 5.32269C13.8908 5.32269 13.8493 5.42246 13.8493 5.5444C13.8493 5.66634 13.8077 5.76611 13.7569 5.76611C13.7061 5.76611 13.6646 5.86588 13.6646 5.98782C13.6646 6.10975 13.623 6.20953 13.5723 6.20953C13.5215 6.20953 13.4799 6.26939 13.4799 6.34255C13.4799 6.41571 13.5026 6.47557 13.5303 6.47557C13.6209 6.47557 14.0339 6.04253 14.0339 5.94746C14.0339 5.89647 14.0755 5.85479 14.1262 5.85479C14.177 5.85479 14.2186 5.79493 14.2186 5.72177C14.2186 5.6486 14.2601 5.58874 14.3109 5.58874C14.3617 5.58874 14.4032 5.48897 14.4032 5.36703C14.4032 5.24509 14.4448 5.14532 14.4956 5.14532C14.5463 5.14532 14.5879 5.00565 14.5879 4.83493C14.5879 4.66422 14.6294 4.52454 14.6802 4.52454C14.731 4.52454 14.7725 4.36491 14.7725 4.1698C14.7725 3.9747 14.731 3.81507 14.6802 3.81507C14.6294 3.81507 14.5879 3.65544 14.5879 3.46033C14.5879 3.26523 14.5463 3.1056 14.4956 3.1056C14.4448 3.1056 14.4032 3.00583 14.4032 2.88389C14.4032 2.76195 14.3617 2.66219 14.3109 2.66219C14.2601 2.66219 14.2186 2.60233 14.2186 2.52916C14.2186 2.456 14.177 2.39613 14.1262 2.39613C14.0755 2.39613 14.0339 2.33627 14.0339 2.26311C14.0339 2.18995 13.9924 2.13008 13.9416 2.13008C13.8908 2.13008 13.8493 2.01036 13.8493 1.86404C13.8493 1.71771 13.8908 1.59798 13.9416 1.59798C13.9924 1.59798 14.0339 1.53812 14.0339 1.46496C14.0339 1.39179 14.0755 1.33193 14.1262 1.33193C14.177 1.33193 14.2186 1.29025 14.2186 1.23926C14.2186 1.11785 14.5899 0.763824 14.8662 0.621841C15.1676 0.466824 16.206 0.466644 16.7345 0.621399C16.9758 0.692081 17.1731 0.77837 17.1731 0.813225C17.1731 0.848076 17.2513 0.900394 17.3467 0.929485C17.5778 0.999989 17.9117 1.28325 17.9117 1.40882C17.9117 1.46407 17.9532 1.5093 18.004 1.5093C18.0548 1.5093 18.0964 1.56916 18.0964 1.64233C18.0964 1.71549 18.1379 1.77535 18.1887 1.77535C18.2408 1.77535 18.281 2.02659 18.281 2.3518C18.281 2.67699 18.3213 2.92824 18.3733 2.92824C18.4254 2.92824 18.4657 3.17948 18.4657 3.50468C18.4657 3.82988 18.4254 4.08112 18.3733 4.08112C18.3226 4.08112 18.281 4.24075 18.281 4.43586C18.281 4.63096 18.2395 4.79059 18.1887 4.79059C18.1379 4.79059 18.0964 4.85302 18.0964 4.92938C18.0964 5.00573 17.885 5.26584 17.6268 5.5075L17.1572 5.94675L17.4421 6.20243C17.5988 6.34299 17.727 6.52187 17.727 6.59982C17.727 6.67786 17.7686 6.74162 17.8194 6.74162C17.8741 6.74162 17.9117 7.06683 17.9117 7.53978C17.9117 8.01273 17.8741 8.33793 17.8194 8.33793C17.7686 8.33793 17.727 8.37961 17.727 8.4306C17.727 8.61427 17.2991 8.92892 16.9256 9.01999C16.6387 9.08997 16.3539 9.08074 15.7739 8.98266C15.323 8.90648 14.7352 8.87118 14.3571 8.89761C13.7131 8.94266 12.926 9.12854 12.926 9.23558C12.926 9.26662 12.8013 9.34156 12.649 9.40213C12.4966 9.4627 12.372 9.54739 12.372 9.59023C12.372 9.68609 12.321 9.69115 12.926 9.53516C13.6715 9.34298 15.0815 9.36267 15.7734 9.57497C16.3663 9.75686 16.684 9.89849 16.8598 10.0591C16.9181 10.1124 17.054 10.2146 17.1617 10.2864C17.2696 10.3581 17.3577 10.4591 17.3577 10.5107C17.3577 10.5623 17.4408 10.6621 17.5424 10.7324C17.6439 10.8027 17.727 10.9512 17.727 11.0624C17.727 11.1735 17.7686 11.2645 17.8194 11.2645C17.8702 11.2645 17.9117 11.4042 17.9117 11.5749C17.9117 11.7456 17.9532 11.8853 18.004 11.8853C18.0603 11.8853 18.0964 12.2843 18.0964 12.9051C18.0964 13.5259 18.0603 13.925 18.004 13.925C17.9532 13.925 17.9117 14.1245 17.9117 14.3684C17.9117 14.6123 17.8702 14.8118 17.8194 14.8118C17.7686 14.8118 17.727 14.9515 17.727 15.1222C17.727 15.2929 17.6855 15.4326 17.6347 15.4326C17.5839 15.4326 17.5424 15.5523 17.5424 15.6987C17.5424 15.845 17.5008 15.9647 17.4501 15.9647C17.3993 15.9647 17.3577 16.0844 17.3577 16.2308C17.3577 16.3771 17.3162 16.4968 17.2654 16.4968C17.2146 16.4968 17.1731 16.5766 17.1731 16.6742C17.1731 16.7717 17.1315 16.8515 17.0807 16.8515C17.03 16.8515 16.9884 16.9314 16.9884 17.0289C16.9884 17.1265 16.9469 17.2063 16.8961 17.2063C16.8453 17.2063 16.8038 17.2484 16.8038 17.2998C16.8038 17.3791 15.9952 18.1724 15.5743 18.5062C15.3548 18.6803 14.7528 18.9427 14.1724 19.1174C13.5872 19.2934 12.0452 19.3504 11.1256 19.2299C10.8717 19.1965 10.7441 19.1908 10.842 19.2172C10.94 19.2436 11.0741 19.3169 11.1401 19.3803C11.3323 19.5649 12.5286 19.7178 13.3408 19.6614C14.3403 19.592 15.8117 19.1067 16.3093 18.6821C16.5861 18.4461 16.6978 18.3705 16.9694 18.2355C17.5043 17.9698 17.9117 18.1164 17.9117 18.5746C17.9117 18.7 17.9532 18.8026 18.004 18.8026C18.0634 18.8026 18.0964 19.6894 18.0964 21.2857C18.0964 22.882 18.0634 23.7689 18.004 23.7689C17.9532 23.7689 17.9117 23.9484 17.9117 24.1679C17.9117 24.3874 17.8702 24.567 17.8194 24.567C17.7686 24.567 17.727 24.6668 17.727 24.7887C17.727 24.9107 17.6855 25.0104 17.6347 25.0104C17.5839 25.0104 17.5424 25.0521 17.5424 25.1031C17.5424 25.3265 17.0819 25.6179 16.5638 25.7223C15.8423 25.8677 15.3068 26.0354 14.8515 26.2586C14.4599 26.4505 13.6646 27.1575 13.6646 27.3139C13.6646 27.3639 13.623 27.4049 13.5723 27.4049C13.5215 27.4049 13.4799 27.5246 13.4799 27.6709C13.4799 27.8173 13.4384 27.937 13.3876 27.937C13.3333 27.937 13.2953 28.2474 13.2953 28.6908C13.2953 29.1342 13.3333 29.4446 13.3876 29.4446C13.4384 29.4446 13.4799 29.2251 13.4799 28.9568C13.4799 28.6886 13.5215 28.4691 13.5723 28.4691C13.623 28.4691 13.6646 28.3494 13.6646 28.203C13.6646 28.0567 13.7061 27.937 13.7569 27.937C13.8077 27.937 13.8493 27.8771 13.8493 27.804C13.8493 27.7308 13.8908 27.6709 13.9416 27.6709C13.9924 27.6709 14.0339 27.6292 14.0339 27.5783C14.0339 27.4255 14.444 27.0791 14.8756 26.8671C15.5878 26.5173 16.1317 26.4208 16.7807 26.5289C17.0981 26.5817 17.3577 26.6581 17.3577 26.6985C17.3577 26.739 17.4408 26.7975 17.5424 26.8284C17.6439 26.8594 17.727 26.9419 17.727 27.0117C17.727 27.0816 17.7686 27.1388 17.8194 27.1388C17.8758 27.1388 17.9117 27.5527 17.9117 28.203C17.9117 28.8533 17.8758 29.2672 17.8194 29.2672C17.7686 29.2672 17.727 29.4269 17.727 29.622C17.727 29.8171 17.6855 29.9767 17.6347 29.9767C17.5826 29.9767 17.5424 30.2279 17.5424 30.5531C17.5424 30.8783 17.5826 31.1296 17.6347 31.1296C17.6855 31.1296 17.727 31.2493 17.727 31.3956C17.727 31.542 17.7686 31.6617 17.8194 31.6617C17.8702 31.6617 17.9117 31.7814 17.9117 31.9277C17.9117 32.0741 17.9532 32.1938 18.004 32.1938C18.0561 32.1938 18.0964 32.445 18.0964 32.7702C18.0964 33.0954 18.0561 33.3467 18.004 33.3467C17.9532 33.3467 17.9117 33.5063 17.9117 33.7014C17.9117 33.8965 17.8702 34.0561 17.8194 34.0561C17.7686 34.0561 17.727 34.1559 17.727 34.2778C17.727 34.3998 17.6855 34.4996 17.6347 34.4996C17.5839 34.4996 17.5424 34.5794 17.5424 34.6769C17.5424 34.7745 17.5008 34.8543 17.4501 34.8543C17.3993 34.8543 17.3577 34.9253 17.3577 35.0121C17.3577 35.0989 17.2746 35.2274 17.1731 35.2977C17.0715 35.368 16.9884 35.4606 16.9884 35.5035C16.9884 35.5712 16.7469 35.8033 16.3123 36.153C16.0817 36.3386 15.5627 36.5655 15.0957 36.6851C14.5036 36.8366 14.4032 36.8348 14.4032 36.6723C14.4032 36.5991 14.4448 36.5393 14.4956 36.5393C14.5463 36.5393 14.5879 36.4196 14.5879 36.2732C14.5879 36.1269 14.6294 36.0072 14.6802 36.0072C14.731 36.0072 14.7725 35.8276 14.7725 35.6081C14.7725 35.3886 14.731 35.209 14.6802 35.209C14.6294 35.209 14.5879 35.1093 14.5879 34.9873C14.5879 34.8654 14.5463 34.7656 14.4956 34.7656C14.4448 34.7656 14.4032 34.7057 14.4032 34.6326C14.4032 34.5594 14.3617 34.4996 14.3109 34.4996C14.2601 34.4996 14.2166 34.4496 14.2143 34.3887C14.212 34.3277 14.0562 34.1478 13.8681 33.989C13.0687 33.3138 12.9361 33.207 12.7403 33.0806C12.627 33.0075 12.3782 32.8079 12.1873 32.6372C11.9965 32.4665 11.7523 32.2681 11.6445 32.1964C11.5369 32.1246 11.4487 32.0237 11.4487 31.9721C11.4487 31.9205 11.3656 31.8207 11.2641 31.7504C11.1625 31.68 11.0794 31.5715 11.0794 31.5091C11.0794 31.4467 11.0379 31.3956 10.9871 31.3956C10.9363 31.3956 10.8947 31.3358 10.8947 31.2626C10.8947 31.1894 10.8532 31.1296 10.8024 31.1296C10.7516 31.1296 10.7101 31.0298 10.7101 30.9079C10.7101 30.7859 10.6685 30.6862 10.6178 30.6862C10.567 30.6862 10.5254 30.5066 10.5254 30.2871C10.5254 30.0676 10.4839 29.888 10.4331 29.888C10.3823 29.888 10.3408 29.7683 10.3408 29.622C10.3408 29.4756 10.3823 29.3559 10.4331 29.3559C10.4839 29.3559 10.5254 29.1564 10.5254 28.9125C10.5254 28.6686 10.4839 28.4691 10.4331 28.4691C10.3823 28.4691 10.3408 28.6088 10.3408 28.7795C10.3408 28.9502 10.2992 29.0899 10.2484 29.0899C10.1931 29.0899 10.1561 29.4446 10.1561 29.9767C10.1561 30.5088 10.1931 30.8635 10.2484 30.8635C10.2992 30.8635 10.3408 30.9833 10.3408 31.1296C10.3408 31.3108 10.2952 31.3956 10.1977 31.3956C9.8314 31.3956 9.04818 31.9669 9.04818 32.2341C9.04818 32.3095 9.00663 32.3712 8.95585 32.3712C8.90507 32.3712 8.86352 32.4909 8.86352 32.6372C8.86352 32.7835 8.90507 32.9033 8.95585 32.9033C9.00663 32.9033 9.04818 32.8234 9.04818 32.7259C9.04818 32.6283 9.08973 32.5485 9.14051 32.5485C9.19129 32.5485 9.23284 32.5058 9.23284 32.4535C9.23284 32.2205 9.74101 31.9277 10.1457 31.9277C10.4628 31.9277 10.8947 32.0934 10.8947 32.215C10.8947 32.3061 11.5007 32.8759 11.8154 33.0806C11.9279 33.1538 12.0953 33.2735 12.1873 33.3467C12.2794 33.4198 12.4463 33.5396 12.5582 33.6127C12.6701 33.6859 12.8772 33.8455 13.0183 33.9675C13.1594 34.0894 13.3626 34.2479 13.4697 34.3196C13.5769 34.3914 13.6646 34.5011 13.6646 34.5635C13.6646 34.6258 13.7061 34.6769 13.7569 34.6769C13.8077 34.6769 13.8493 34.7368 13.8493 34.8099C13.8493 34.8831 13.8908 34.943 13.9416 34.943C13.9924 34.943 14.0339 35.0228 14.0339 35.1203C14.0339 35.2179 14.0755 35.2977 14.1262 35.2977C14.177 35.2977 14.2186 35.4773 14.2186 35.6968C14.2186 35.9163 14.177 36.0959 14.1262 36.0959C14.0755 36.0959 14.0339 36.1557 14.0339 36.2289C14.0339 36.302 13.9924 36.3619 13.9416 36.3619C13.8908 36.3619 13.8493 36.4047 13.8493 36.4569C13.8493 36.7358 12.9327 37.1852 11.978 37.3747C11.2236 37.5244 11.1646 37.5264 10.5254 37.4255ZM10.7101 28.203C10.7101 28.1055 10.6685 28.0257 10.6178 28.0257C10.567 28.0257 10.5254 28.1055 10.5254 28.203C10.5254 28.3006 10.567 28.3804 10.6178 28.3804C10.6685 28.3804 10.7101 28.3006 10.7101 28.203ZM7.38627 28.203C7.38627 28.1543 7.34472 28.1143 7.29394 28.1143C7.24316 28.1143 7.20161 28.1543 7.20161 28.203C7.20161 28.2518 7.24316 28.2917 7.29394 28.2917C7.34472 28.2917 7.38627 28.2518 7.38627 28.203Z" fill="#04244D"/>
<path fill-rule="evenodd" clip-rule="evenodd" d="M26.8939 37.426C27.3795 37.3493 27.9044 37.1628 28.0776 37.0054C28.1447 36.9443 28.2349 36.8945 28.2779 36.8945C28.3943 36.8945 29.1098 36.2141 29.1098 36.1033C29.1098 36.0507 29.1513 36.0077 29.2021 36.0077C29.2529 36.0077 29.2944 35.9278 29.2944 35.8303C29.2944 35.7327 29.336 35.6529 29.3867 35.6529C29.4375 35.6529 29.4791 35.5931 29.4791 35.5199C29.4791 35.4467 29.5206 35.3869 29.5714 35.3869C29.6222 35.3869 29.6637 35.2871 29.6637 35.1652C29.6637 35.0432 29.7053 34.9435 29.7561 34.9435C29.8068 34.9435 29.8484 34.8237 29.8484 34.6774C29.8484 34.5311 29.8899 34.4114 29.9407 34.4114C29.9915 34.4114 30.033 34.2717 30.033 34.101C30.033 33.9303 30.0746 33.7906 30.1254 33.7906C30.1762 33.7906 30.2177 33.611 30.2177 33.3915C30.2177 33.172 30.1762 32.9924 30.1254 32.9924C30.0746 32.9924 30.033 32.8727 30.033 32.7264C30.033 32.58 29.9915 32.4603 29.9407 32.4603C29.8899 32.4603 29.8484 32.3007 29.8484 32.1056C29.8484 31.9105 29.8068 31.7509 29.7561 31.7509C29.7053 31.7509 29.6637 31.5314 29.6637 31.2631C29.6637 30.9948 29.6222 30.7753 29.5714 30.7753C29.5201 30.7753 29.4791 30.5388 29.4791 30.2432C29.4791 29.9477 29.5201 29.7111 29.5714 29.7111C29.6222 29.7111 29.6637 29.5116 29.6637 29.2677C29.6637 29.0238 29.7053 28.8243 29.7561 28.8243C29.8068 28.8243 29.8484 28.7245 29.8484 28.6026C29.8484 28.4807 29.8899 28.3809 29.9407 28.3809C29.9928 28.3809 30.033 28.6321 30.033 28.9573C30.033 29.2825 29.9928 29.5338 29.9407 29.5338C29.8899 29.5338 29.8484 29.6335 29.8484 29.7555C29.8484 29.8774 29.8899 29.9772 29.9407 29.9772C29.9934 29.9772 30.033 30.2432 30.033 30.598C30.033 30.9527 30.0727 31.2188 30.1254 31.2188C30.1762 31.2188 30.2177 31.3385 30.2177 31.4848C30.2177 31.6311 30.2592 31.7509 30.31 31.7509C30.3608 31.7509 30.4024 31.8506 30.4024 31.9726C30.4024 32.0945 30.4439 32.1943 30.4947 32.1943C30.5455 32.1943 30.587 32.2541 30.587 32.3273C30.587 32.4005 30.6286 32.4603 30.6793 32.4603C30.7301 32.4603 30.7717 32.5153 30.7717 32.5826C30.7717 32.6498 30.8913 32.7524 31.0375 32.8106C31.3611 32.9394 31.9269 32.8173 32.2486 32.5494C32.3658 32.4516 32.497 32.3716 32.54 32.3716C32.5831 32.3716 32.6182 32.3206 32.6182 32.2582C32.6182 32.1958 32.7013 32.0872 32.8029 32.0169C32.9045 31.9466 32.9876 31.838 32.9876 31.7756C32.9876 31.7133 33.0291 31.6622 33.0799 31.6622C33.1307 31.6622 33.1722 31.6023 33.1722 31.5291C33.1722 31.456 33.2138 31.3961 33.2645 31.3961C33.3153 31.3961 33.3569 31.3363 33.3569 31.2631C33.3569 31.1899 33.3984 31.1301 33.4492 31.1301C33.5 31.1301 33.5415 31.0503 33.5415 30.9527C33.5415 30.8552 33.5831 30.7753 33.6338 30.7753C33.6846 30.7753 33.7262 30.6756 33.7262 30.5536C33.7262 30.4317 33.7677 30.3319 33.8185 30.3319C33.8693 30.3319 33.9108 30.2122 33.9108 30.0659C33.9108 29.9195 33.9524 29.7998 34.0032 29.7998C34.0539 29.7998 34.0955 29.6402 34.0955 29.4451C34.0955 29.25 34.137 29.0904 34.1878 29.0904C34.2392 29.0904 34.2801 28.8538 34.2801 28.5583C34.2801 28.2627 34.3211 28.0262 34.3725 28.0262C34.4287 28.0262 34.4648 27.6271 34.4648 27.0063C34.4648 26.3855 34.4287 25.9864 34.3725 25.9864C34.3217 25.9864 34.2801 25.8468 34.2801 25.676C34.2801 25.5053 34.2386 25.3656 34.1878 25.3656C34.137 25.3656 34.0955 25.2659 34.0955 25.1439C34.0955 25.022 34.0539 24.9222 34.0032 24.9222C33.9524 24.9222 33.9108 24.8624 33.9108 24.7892C33.9108 24.716 33.8693 24.6562 33.8185 24.6562C33.7677 24.6562 33.7262 24.5764 33.7262 24.4788C33.7262 24.3813 33.6846 24.3014 33.6338 24.3014C33.5831 24.3014 33.5415 24.2504 33.5415 24.188C33.5415 24.1256 33.4584 24.017 33.3569 23.9467C33.2553 23.8764 33.1722 23.7856 33.1722 23.7449C33.1722 23.6471 32.0771 22.6165 31.9733 22.6165C31.929 22.6165 31.8358 22.5617 31.7663 22.495C31.5477 22.285 31.0669 22.0834 30.6578 22.0301C30.3471 21.9896 30.22 22.0155 30.0561 22.1528C29.864 22.3138 29.8484 22.401 29.8484 23.3141C29.8484 23.9132 29.8847 24.3014 29.9407 24.3014C29.9915 24.3014 30.033 24.4411 30.033 24.6118C30.033 24.7826 30.0746 24.9222 30.1254 24.9222C30.1762 24.9222 30.2177 25.022 30.2177 25.1439C30.2177 25.2659 30.2592 25.3656 30.31 25.3656C30.3608 25.3656 30.4024 25.4455 30.4024 25.543C30.4024 25.6406 30.4439 25.7204 30.4947 25.7204C30.5455 25.7204 30.587 25.7634 30.587 25.816C30.587 25.8687 30.7532 26.065 30.9563 26.2525C31.1594 26.44 31.3256 26.6336 31.3256 26.6828C31.3256 26.732 31.4191 26.7895 31.5334 26.8107C31.728 26.8467 31.7289 26.8499 31.5475 26.8612C31.4411 26.8679 31.2581 26.7935 31.141 26.6959C31.0239 26.5983 30.8963 26.5185 30.8574 26.5185C30.7464 26.5185 30.033 25.8339 30.033 25.7273C30.033 25.6747 29.9915 25.6317 29.9407 25.6317C29.8899 25.6317 29.8484 25.5718 29.8484 25.4987C29.8484 25.4255 29.8068 25.3656 29.7561 25.3656C29.7053 25.3656 29.6637 25.2858 29.6637 25.1883C29.6637 25.0907 29.6222 25.0109 29.5714 25.0109C29.5206 25.0109 29.4791 24.9111 29.4791 24.7892C29.4791 24.6673 29.4375 24.5675 29.3867 24.5675C29.336 24.5675 29.2944 24.4278 29.2944 24.2571C29.2944 24.0864 29.2529 23.9467 29.2021 23.9467C29.1467 23.9467 29.1098 23.592 29.1098 23.0599C29.1098 22.5721 29.0873 22.173 29.0599 22.173C28.9751 22.173 28.2507 22.5427 28.1276 22.6489C28.0634 22.7043 27.8827 22.8493 27.726 22.9712C27.5694 23.0931 27.3227 23.2927 27.1778 23.4146C27.0328 23.5365 26.8215 23.6962 26.7081 23.7693C26.5947 23.8425 26.4519 23.9482 26.3908 24.0042C26.166 24.2101 25.1372 24.6562 24.8884 24.6556C24.3666 24.6547 23.9392 24.4671 23.4801 24.0376C23.2249 23.7989 23.0161 23.561 23.0161 23.5091C23.0161 23.3844 23.0927 23.3897 23.2503 23.5255C23.7669 23.9705 24.1863 24.1554 24.678 24.1548C25.1076 24.1543 25.8943 23.8312 26.2806 23.4967C26.3894 23.4025 26.7069 23.1261 26.9862 22.8825C27.2655 22.6389 27.5821 22.3634 27.6897 22.2701C27.7975 22.177 28.026 22.0317 28.1976 21.9472C28.3692 21.8626 28.5304 21.7692 28.5558 21.7394C28.6482 21.631 29.2604 21.4423 29.7561 21.3694C30.1196 21.3159 30.4599 21.3335 30.9538 21.4311C31.5283 21.5447 31.706 21.5488 32.0156 21.4551C32.4559 21.322 33.4343 20.8676 33.5924 20.7229C33.6535 20.6669 33.7917 20.5624 33.8995 20.4906C34.0073 20.4189 34.0955 20.3092 34.0955 20.2467C34.0955 20.1844 34.137 20.1333 34.1878 20.1333C34.2386 20.1333 34.2801 20.0735 34.2801 20.0003C34.2801 19.9271 34.3217 19.8673 34.3725 19.8673C34.4233 19.8673 34.4648 19.7875 34.4648 19.6899C34.4648 19.5924 34.5064 19.5125 34.5571 19.5125C34.6119 19.5125 34.6495 19.1873 34.6495 18.7144C34.6495 18.2414 34.687 17.9162 34.7418 17.9162C34.7926 17.9162 34.8341 18.036 34.8341 18.1823C34.8341 18.3286 34.8757 18.4483 34.9264 18.4483C34.9807 18.4483 35.0188 18.7587 35.0188 19.2021C35.0188 19.6456 34.9807 19.956 34.9264 19.956C34.8757 19.956 34.8341 20.0557 34.8341 20.1777C34.8341 20.2996 34.7926 20.3994 34.7418 20.3994C34.691 20.3994 34.6495 20.4592 34.6495 20.5324C34.6495 20.6056 34.6079 20.6654 34.5571 20.6654C34.5064 20.6654 34.4648 20.7165 34.4648 20.7788C34.4648 20.8413 34.3766 20.951 34.2688 21.0227C34.161 21.0945 34.0228 21.199 33.9617 21.255C33.8 21.4031 32.8008 21.8713 32.4953 21.9421L32.2337 22.0027L32.5222 22.2431C33.1204 22.7413 33.9108 23.4963 33.9108 23.5694C33.9108 23.6744 34.7044 24.0354 34.9349 24.0354C35.0385 24.0354 35.2091 23.9912 35.314 23.9373C35.5683 23.8066 36.3114 23.0885 36.3114 22.9735C36.3114 22.9235 36.3529 22.8825 36.4037 22.8825C36.4545 22.8825 36.496 22.8027 36.496 22.7051C36.496 22.6076 36.5376 22.5278 36.5884 22.5278C36.6391 22.5278 36.6807 22.448 36.6807 22.3504C36.6807 22.2529 36.7222 22.173 36.773 22.173C36.8238 22.173 36.8653 22.0733 36.8653 21.9513C36.8653 21.8294 36.9069 21.7296 36.9577 21.7296C37.0085 21.7296 37.05 21.5899 37.05 21.4192C37.05 21.2485 37.0915 21.1088 37.1423 21.1088C37.1931 21.1088 37.2347 20.8893 37.2347 20.6211C37.2347 20.3528 37.2762 20.1333 37.327 20.1333C37.3838 20.1333 37.4193 19.6899 37.4193 18.9804C37.4193 18.271 37.3838 17.8276 37.327 17.8276C37.2762 17.8276 37.2347 17.628 37.2347 17.3841C37.2347 17.1403 37.1931 16.9407 37.1423 16.9407C37.0915 16.9407 37.05 16.801 37.05 16.6303C37.05 16.4596 37.0085 16.3199 36.9577 16.3199C36.9069 16.3199 36.8653 16.2202 36.8653 16.0982C36.8653 15.9763 36.8238 15.8765 36.773 15.8765C36.7222 15.8765 36.6807 15.7767 36.6807 15.6548C36.6807 15.5329 36.6391 15.4331 36.5884 15.4331C36.5376 15.4331 36.496 15.3533 36.496 15.2557C36.496 15.1582 36.4545 15.0784 36.4037 15.0784C36.3529 15.0784 36.3114 15.0185 36.3114 14.9453C36.3114 14.8722 36.2698 14.8123 36.219 14.8123C36.1683 14.8123 36.1267 14.7524 36.1267 14.6793C36.1267 14.6061 36.0852 14.5463 36.0344 14.5463C35.9836 14.5463 35.9421 14.4864 35.9421 14.4132C35.9421 14.3401 35.9005 14.2802 35.8497 14.2802C35.7989 14.2802 35.7574 14.2364 35.7574 14.1827C35.7574 14.1004 35.4591 13.8061 35.0563 13.4912C34.8015 13.2921 34.3541 13.1273 34.0681 13.1273C33.7545 13.1273 33.3569 13.3687 33.3569 13.5589C33.3569 13.6142 33.3153 13.6594 33.2645 13.6594C33.2138 13.6594 33.1722 13.7392 33.1722 13.8368C33.1722 13.9343 33.1307 14.0142 33.0799 14.0142C33.0291 14.0142 32.9876 14.1139 32.9876 14.2359C32.9876 14.3578 32.946 14.4576 32.8952 14.4576C32.8444 14.4576 32.8029 14.5374 32.8029 14.6349C32.8029 14.7325 32.7613 14.8123 32.7106 14.8123C32.6598 14.8123 32.6182 14.8921 32.6182 14.9897C32.6182 15.0872 32.5767 15.167 32.5259 15.167C32.4751 15.167 32.4336 15.2269 32.4336 15.3001C32.4336 15.3732 32.392 15.4331 32.3413 15.4331C32.2905 15.4331 32.2489 15.493 32.2489 15.5661C32.2489 15.6393 32.2074 15.6991 32.1566 15.6991C32.1058 15.6991 32.0643 15.7502 32.0643 15.8126C32.0643 15.875 31.9812 15.9836 31.8796 16.0539C31.778 16.1242 31.695 16.224 31.695 16.2756C31.695 16.3272 31.6061 16.4281 31.4976 16.4999C31.389 16.5716 31.2081 16.7161 31.0957 16.8208C30.7093 17.1808 29.6339 17.6039 29.4106 17.4838C29.3209 17.4357 29.3947 17.3676 29.6626 17.2516C29.871 17.1613 30.1188 17.0245 30.2134 16.9475C30.3078 16.8707 30.4771 16.7478 30.5896 16.6747C30.926 16.4558 31.5103 15.8974 31.5103 15.7947C31.5103 15.7422 31.5518 15.6991 31.6026 15.6991C31.6534 15.6991 31.695 15.6393 31.695 15.5661C31.695 15.493 31.7365 15.4331 31.7873 15.4331C31.8381 15.4331 31.8796 15.3732 31.8796 15.3001C31.8796 15.2269 31.9212 15.167 31.9719 15.167C32.0227 15.167 32.0643 15.0872 32.0643 14.9897C32.0643 14.8921 32.1058 14.8123 32.1566 14.8123C32.2074 14.8123 32.2489 14.7325 32.2489 14.6349C32.2489 14.5374 32.2905 14.4576 32.3413 14.4576C32.392 14.4576 32.4336 14.3379 32.4336 14.1915C32.4336 14.0452 32.4751 13.9255 32.5259 13.9255C32.5767 13.9255 32.6182 13.7858 32.6182 13.6151C32.6182 13.4444 32.6598 13.3047 32.7106 13.3047C32.7613 13.3047 32.8029 13.185 32.8029 13.0386C32.8029 12.8923 32.7613 12.7726 32.7106 12.7726C32.6598 12.7726 32.6182 12.7201 32.6182 12.656C32.6182 12.4841 32.0234 12.2418 31.5764 12.2316C31.3623 12.2267 31.0833 12.1938 30.9563 12.1585C30.7699 12.1066 30.849 12.0731 31.3678 11.9842C32.1033 11.8583 32.7866 11.9201 33.2724 12.1567C33.8078 12.4174 34.3275 12.42 34.6353 12.1636C34.7447 12.0725 34.8341 11.9328 34.8341 11.8532C34.8341 11.7736 34.8757 11.7084 34.9264 11.7084C34.9815 11.7084 35.0188 11.3685 35.0188 10.8659C35.0188 10.3633 34.9815 10.0234 34.9264 10.0234C34.8757 10.0234 34.8341 9.86377 34.8341 9.66867C34.8341 9.47357 34.7926 9.31393 34.7418 9.31393C34.691 9.31393 34.6495 9.19421 34.6495 9.04789C34.6495 8.90156 34.6079 8.78184 34.5571 8.78184C34.5064 8.78184 34.4648 8.70202 34.4648 8.60447C34.4648 8.50692 34.4233 8.4271 34.3725 8.4271C34.3217 8.4271 34.2801 8.34728 34.2801 8.24973C34.2801 8.15218 34.2386 8.07236 34.1878 8.07236C34.137 8.07236 34.0955 7.99255 34.0955 7.895C34.0955 7.79745 34.0539 7.71763 34.0032 7.71763C33.9524 7.71763 33.9108 7.65777 33.9108 7.58461C33.9108 7.51144 33.8693 7.45158 33.8185 7.45158C33.7677 7.45158 33.7262 7.41061 33.7262 7.36059C33.7262 7.21781 32.9486 6.50719 32.6051 6.33594C32.2454 6.15662 30.9563 6.04435 30.9563 6.19237C30.9563 6.24425 30.8732 6.31209 30.7717 6.34304C30.6701 6.37399 30.587 6.45646 30.587 6.52635C30.587 6.59623 30.5455 6.65343 30.4947 6.65343C30.4439 6.65343 30.4024 6.7532 30.4024 6.87514C30.4024 6.99708 30.3608 7.09685 30.31 7.09685C30.2592 7.09685 30.2177 7.31634 30.2177 7.58461C30.2177 7.85287 30.1762 8.07236 30.1254 8.07236C30.0746 8.07236 30.033 8.232 30.033 8.4271C30.033 8.6222 29.9915 8.78184 29.9407 8.78184C29.8899 8.78184 29.8484 8.8816 29.8484 9.00354C29.8484 9.12548 29.8068 9.22525 29.7561 9.22525C29.7053 9.22525 29.6637 9.32502 29.6637 9.44696C29.6637 9.5689 29.6222 9.66867 29.5714 9.66867C29.5206 9.66867 29.4791 9.72853 29.4791 9.80169C29.4791 9.87486 29.4375 9.93472 29.3867 9.93472C29.336 9.93472 29.2944 9.99458 29.2944 10.0677C29.2944 10.1409 29.2529 10.2008 29.2021 10.2008C29.1513 10.2008 29.1098 10.2606 29.1098 10.3338C29.1098 10.407 29.0682 10.4668 29.0174 10.4668C28.9667 10.4668 28.9239 10.5167 28.9223 10.5777C28.9209 10.6386 28.7947 10.7883 28.6421 10.9102C28.4894 11.0322 28.246 11.2317 28.1011 11.3537C27.9561 11.4756 27.746 11.6352 27.6341 11.7084C27.5222 11.7816 27.3552 11.9013 27.2632 11.9744C27.1711 12.0476 27.0037 12.1673 26.8913 12.2405C26.5549 12.4594 25.9706 13.0178 25.9706 13.1204C25.9706 13.173 25.929 13.216 25.8783 13.216C25.8275 13.216 25.7859 13.2759 25.7859 13.349C25.7859 13.4222 25.7444 13.4821 25.6936 13.4821C25.6428 13.4821 25.6013 13.5419 25.6013 13.6151C25.6013 13.6882 25.5597 13.7481 25.509 13.7481C25.4582 13.7481 25.4166 13.8279 25.4166 13.9255C25.4166 14.023 25.3751 14.1028 25.3243 14.1028C25.2735 14.1028 25.232 14.2026 25.232 14.3246C25.232 14.4465 25.1904 14.5463 25.1396 14.5463C25.0889 14.5463 25.0473 14.6859 25.0473 14.8567C25.0473 15.0274 25.0058 15.167 24.955 15.167C24.9042 15.167 24.8627 15.3267 24.8627 15.5218C24.8627 15.7169 24.8211 15.8765 24.7703 15.8765C24.7195 15.8765 24.678 15.657 24.678 15.3888C24.678 15.1205 24.7195 14.901 24.7703 14.901C24.8211 14.901 24.8627 14.7214 24.8627 14.5019C24.8627 14.2824 24.9042 14.1028 24.955 14.1028C25.0058 14.1028 25.0473 14.0031 25.0473 13.8811C25.0473 13.7592 25.0889 13.6594 25.1396 13.6594C25.1904 13.6594 25.232 13.5796 25.232 13.4821C25.232 13.3845 25.2735 13.3047 25.3243 13.3047C25.3751 13.3047 25.4166 13.2448 25.4166 13.1717C25.4166 13.0985 25.4582 13.0386 25.509 13.0386C25.5597 13.0386 25.6013 12.9968 25.6013 12.9457C25.6013 12.8543 26.5519 11.9415 27.237 11.3752C27.9858 10.7561 28.1865 10.5701 28.1865 10.4952C28.1865 10.4524 28.2696 10.3598 28.3711 10.2895C28.4727 10.2191 28.5558 10.1106 28.5558 10.0481C28.5558 9.9858 28.5973 9.93472 28.6481 9.93472C28.6989 9.93472 28.7404 9.87486 28.7404 9.80169C28.7404 9.72853 28.782 9.66867 28.8328 9.66867C28.8836 9.66867 28.9251 9.5689 28.9251 9.44696C28.9251 9.32502 28.9667 9.22525 29.0174 9.22525C29.0682 9.22525 29.1098 9.12548 29.1098 9.00354C29.1098 8.8816 29.1513 8.78184 29.2021 8.78184C29.2529 8.78184 29.2944 8.60225 29.2944 8.38276C29.2944 8.16327 29.336 7.98368 29.3867 7.98368C29.4435 7.98368 29.4791 7.54027 29.4791 6.8308C29.4791 6.12133 29.4435 5.67791 29.3867 5.67791C29.336 5.67791 29.2944 5.45842 29.2944 5.19016C29.2944 4.92189 29.2529 4.7024 29.2021 4.7024C29.1513 4.7024 29.1098 4.58267 29.1098 4.43634C29.1098 4.29002 29.0682 4.17029 29.0174 4.17029C28.9667 4.17029 28.9251 4.09048 28.9251 3.99293C28.9251 3.89537 28.8836 3.81556 28.8328 3.81556C28.782 3.81556 28.7404 3.7557 28.7404 3.68253C28.7404 3.60937 28.6989 3.54951 28.6481 3.54951C28.5973 3.54951 28.5558 3.49842 28.5558 3.43608C28.5558 3.37365 28.4727 3.2651 28.3711 3.19477C28.2696 3.12445 28.1865 3.0159 28.1865 2.95347C28.1865 2.89112 28.1494 2.84004 28.1039 2.84004C28.0585 2.84004 27.8875 2.72519 27.724 2.5849C27.2652 2.19123 27.2212 2.16019 26.8852 1.99267C26.4924 1.79694 25.4064 1.72289 24.8911 1.85672C24.5128 1.95498 23.7547 2.54721 23.7547 2.74444C23.7547 2.79703 23.7132 2.84004 23.6624 2.84004C23.6116 2.84004 23.5701 2.91986 23.5701 3.01741C23.5701 3.11496 23.5285 3.19477 23.4777 3.19477C23.4213 3.19477 23.3854 3.60866 23.3854 4.25898C23.3854 4.90929 23.4213 5.32318 23.4777 5.32318C23.5285 5.32318 23.5701 5.42295 23.5701 5.54489C23.5701 5.66683 23.6116 5.7666 23.6624 5.7666C23.7132 5.7666 23.7547 5.86636 23.7547 5.9883C23.7547 6.11024 23.7963 6.21001 23.847 6.21001C23.8978 6.21001 23.9394 6.26987 23.9394 6.34304C23.9394 6.4162 23.9167 6.47606 23.8891 6.47606C23.7984 6.47606 23.3854 6.04302 23.3854 5.94795C23.3854 5.89696 23.3439 5.85528 23.2931 5.85528C23.2423 5.85528 23.2007 5.79542 23.2007 5.72225C23.2007 5.64909 23.1592 5.58923 23.1084 5.58923C23.0576 5.58923 23.0161 5.48946 23.0161 5.36752C23.0161 5.24558 22.9745 5.14581 22.9238 5.14581C22.873 5.14581 22.8314 5.00613 22.8314 4.83542C22.8314 4.6647 22.7899 4.52503 22.7391 4.52503C22.6883 4.52503 22.6468 4.3654 22.6468 4.17029C22.6468 3.97519 22.6883 3.81556 22.7391 3.81556C22.7899 3.81556 22.8314 3.65593 22.8314 3.46082C22.8314 3.26572 22.873 3.10609 22.9238 3.10609C22.9745 3.10609 23.0161 3.00632 23.0161 2.88438C23.0161 2.76244 23.0576 2.66267 23.1084 2.66267C23.1592 2.66267 23.2007 2.60281 23.2007 2.52965C23.2007 2.45649 23.2423 2.39662 23.2931 2.39662C23.3439 2.39662 23.3854 2.33676 23.3854 2.2636C23.3854 2.19043 23.4269 2.13057 23.4777 2.13057C23.5285 2.13057 23.5701 2.01085 23.5701 1.86452C23.5701 1.7182 23.5285 1.59847 23.4777 1.59847C23.4269 1.59847 23.3854 1.53861 23.3854 1.46545C23.3854 1.39228 23.3439 1.33242 23.2931 1.33242C23.2423 1.33242 23.2007 1.29074 23.2007 1.23975C23.2007 1.11834 22.8294 0.764313 22.5532 0.62233C22.2517 0.467312 21.2133 0.467133 20.6848 0.621887C20.4435 0.69257 20.2462 0.778858 20.2462 0.813713C20.2462 0.848564 20.168 0.900883 20.0726 0.929974C19.8415 1.00048 19.5076 1.28374 19.5076 1.40931C19.5076 1.46456 19.4661 1.50979 19.4153 1.50979C19.3645 1.50979 19.323 1.56965 19.323 1.64281C19.323 1.71598 19.2814 1.77584 19.2306 1.77584C19.1786 1.77584 19.1383 2.02708 19.1383 2.35228C19.1383 2.67748 19.098 2.92873 19.046 2.92873C18.9939 2.92873 18.9536 3.17997 18.9536 3.50517C18.9536 3.83037 18.9939 4.08161 19.046 4.08161C19.0968 4.08161 19.1383 4.24124 19.1383 4.43634C19.1383 4.63145 19.1798 4.79108 19.2306 4.79108C19.2814 4.79108 19.323 4.85351 19.323 4.92987C19.323 5.00622 19.5343 5.26633 19.7925 5.50799L20.2621 5.94724L19.9772 6.20292C19.8205 6.34348 19.6923 6.52236 19.6923 6.60031C19.6923 6.67835 19.6507 6.74211 19.5999 6.74211C19.5452 6.74211 19.5076 7.06732 19.5076 7.54027C19.5076 8.01322 19.5452 8.33842 19.5999 8.33842C19.6507 8.33842 19.6923 8.3801 19.6923 8.43109C19.6923 8.61476 20.1202 8.92941 20.4937 9.02048C20.7806 9.09045 21.0654 9.08123 21.6454 8.98314C22.0963 8.90697 22.6841 8.87167 23.0623 8.8981C23.7062 8.94315 24.4933 9.12903 24.4933 9.23607C24.4933 9.26711 24.618 9.34205 24.7703 9.40262C24.9227 9.46319 25.0473 9.54788 25.0473 9.59072C25.0473 9.68658 25.0983 9.69164 24.4933 9.53564C23.7478 9.34347 22.3378 9.36315 21.6459 9.57546C21.053 9.75735 20.7353 9.89898 20.5595 10.0596C20.5012 10.1129 20.3653 10.2151 20.2576 10.2869C20.1498 10.3586 20.0616 10.4595 20.0616 10.5112C20.0616 10.5628 19.9785 10.6625 19.8769 10.7329C19.7754 10.8032 19.6923 10.9517 19.6923 11.0629C19.6923 11.174 19.6507 11.265 19.5999 11.265C19.5492 11.265 19.5076 11.4046 19.5076 11.5754C19.5076 11.7461 19.4661 11.8858 19.4153 11.8858C19.3591 11.8858 19.323 12.2848 19.323 12.9056C19.323 13.5264 19.3591 13.9255 19.4153 13.9255C19.4661 13.9255 19.5076 14.125 19.5076 14.3689C19.5076 14.6128 19.5492 14.8123 19.5999 14.8123C19.6507 14.8123 19.6923 14.952 19.6923 15.1227C19.6923 15.2934 19.7338 15.4331 19.7846 15.4331C19.8354 15.4331 19.8769 15.5528 19.8769 15.6991C19.8769 15.8455 19.9185 15.9652 19.9693 15.9652C20.02 15.9652 20.0616 16.0849 20.0616 16.2312C20.0616 16.3776 20.1031 16.4973 20.1539 16.4973C20.2047 16.4973 20.2462 16.5771 20.2462 16.6747C20.2462 16.7722 20.2878 16.852 20.3386 16.852C20.3893 16.852 20.4309 16.9318 20.4309 17.0294C20.4309 17.127 20.4724 17.2068 20.5232 17.2068C20.574 17.2068 20.6156 17.2489 20.6156 17.3003C20.6156 17.3796 21.4241 18.1729 21.845 18.5067C22.0646 18.6808 22.6665 18.9432 23.2469 19.1179C23.8321 19.2939 25.3741 19.3509 26.2937 19.2303C26.5476 19.197 26.6752 19.1913 26.5773 19.2177C26.4793 19.2441 26.3452 19.3174 26.2792 19.3808C26.087 19.5654 24.8907 19.7183 24.0785 19.6619C23.079 19.5925 21.6076 19.1072 21.1101 18.6826C20.8333 18.4466 20.7215 18.371 20.4499 18.236C19.915 17.9703 19.5076 18.1169 19.5076 18.5751C19.5076 18.7005 19.4661 18.8031 19.4153 18.8031C19.3559 18.8031 19.323 19.6899 19.323 21.2862C19.323 22.8825 19.3559 23.7693 19.4153 23.7693C19.4661 23.7693 19.5076 23.9489 19.5076 24.1684C19.5076 24.3879 19.5492 24.5675 19.5999 24.5675C19.6507 24.5675 19.6923 24.6673 19.6923 24.7892C19.6923 24.9111 19.7338 25.0109 19.7846 25.0109C19.8354 25.0109 19.8769 25.0526 19.8769 25.1036C19.8769 25.327 20.3375 25.6184 20.8555 25.7228C21.577 25.8682 22.1125 26.0359 22.5678 26.259C22.9594 26.451 23.7547 27.158 23.7547 27.3144C23.7547 27.3644 23.7963 27.4054 23.847 27.4054C23.8978 27.4054 23.9394 27.5251 23.9394 27.6714C23.9394 27.8177 23.9809 27.9375 24.0317 27.9375C24.086 27.9375 24.124 28.2479 24.124 28.6913C24.124 29.1347 24.086 29.4451 24.0317 29.4451C23.9809 29.4451 23.9394 29.2256 23.9394 28.9573C23.9394 28.6891 23.8978 28.4696 23.847 28.4696C23.7963 28.4696 23.7547 28.3498 23.7547 28.2035C23.7547 28.0572 23.7132 27.9375 23.6624 27.9375C23.6116 27.9375 23.5701 27.8776 23.5701 27.8044C23.5701 27.7313 23.5285 27.6714 23.4777 27.6714C23.4269 27.6714 23.3854 27.6297 23.3854 27.5787C23.3854 27.426 22.9753 27.0795 22.5437 26.8676C21.8315 26.5178 21.2876 26.4213 20.6386 26.5294C20.3212 26.5822 20.0616 26.6586 20.0616 26.699C20.0616 26.7395 19.9785 26.798 19.8769 26.8289C19.7754 26.8599 19.6923 26.9423 19.6923 27.0122C19.6923 27.0821 19.6507 27.1393 19.5999 27.1393C19.5435 27.1393 19.5076 27.5532 19.5076 28.2035C19.5076 28.8538 19.5435 29.2677 19.5999 29.2677C19.6507 29.2677 19.6923 29.4274 19.6923 29.6225C19.6923 29.8176 19.7338 29.9772 19.7846 29.9772C19.8367 29.9772 19.8769 30.2284 19.8769 30.5536C19.8769 30.8788 19.8367 31.1301 19.7846 31.1301C19.7338 31.1301 19.6923 31.2498 19.6923 31.3961C19.6923 31.5425 19.6507 31.6622 19.5999 31.6622C19.5492 31.6622 19.5076 31.7819 19.5076 31.9282C19.5076 32.0746 19.4661 32.1943 19.4153 32.1943C19.3632 32.1943 19.323 32.4455 19.323 32.7707C19.323 33.0959 19.3632 33.3472 19.4153 33.3472C19.4661 33.3472 19.5076 33.5068 19.5076 33.7019C19.5076 33.897 19.5492 34.0566 19.5999 34.0566C19.6507 34.0566 19.6923 34.1564 19.6923 34.2783C19.6923 34.4003 19.7338 34.5 19.7846 34.5C19.8354 34.5 19.8769 34.5799 19.8769 34.6774C19.8769 34.775 19.9185 34.8548 19.9693 34.8548C20.02 34.8548 20.0616 34.9258 20.0616 35.0125C20.0616 35.0994 20.1447 35.2279 20.2462 35.2982C20.3478 35.3685 20.4309 35.4611 20.4309 35.5039C20.4309 35.5717 20.6724 35.8038 21.107 36.1535C21.3377 36.3391 21.8566 36.566 22.3236 36.6856C22.9157 36.8371 23.0161 36.8353 23.0161 36.6728C23.0161 36.5996 22.9745 36.5398 22.9238 36.5398C22.873 36.5398 22.8314 36.42 22.8314 36.2737C22.8314 36.1274 22.7899 36.0077 22.7391 36.0077C22.6883 36.0077 22.6468 35.8281 22.6468 35.6086C22.6468 35.3891 22.6883 35.2095 22.7391 35.2095C22.7899 35.2095 22.8314 35.1097 22.8314 34.9878C22.8314 34.8659 22.873 34.7661 22.9238 34.7661C22.9745 34.7661 23.0161 34.7062 23.0161 34.6331C23.0161 34.5599 23.0576 34.5 23.1084 34.5C23.1592 34.5 23.2027 34.4501 23.205 34.3892C23.2073 34.3282 23.3631 34.1483 23.5512 33.9895C24.3506 33.3143 24.4832 33.2075 24.679 33.0811C24.7923 33.0079 25.0411 32.8084 25.232 32.6377C25.4228 32.467 25.667 32.2686 25.7748 32.1968C25.8824 32.1251 25.9706 32.0242 25.9706 31.9726C25.9706 31.921 26.0537 31.8212 26.1553 31.7509C26.2568 31.6805 26.3399 31.572 26.3399 31.5096C26.3399 31.4472 26.3815 31.3961 26.4322 31.3961C26.483 31.3961 26.5246 31.3363 26.5246 31.2631C26.5246 31.1899 26.5661 31.1301 26.6169 31.1301C26.6677 31.1301 26.7092 31.0303 26.7092 30.9084C26.7092 30.7864 26.7508 30.6867 26.8016 30.6867C26.8523 30.6867 26.8939 30.5071 26.8939 30.2876C26.8939 30.0681 26.9354 29.8885 26.9862 29.8885C27.037 29.8885 27.0785 29.7688 27.0785 29.6225C27.0785 29.4761 27.037 29.3564 26.9862 29.3564C26.9354 29.3564 26.8939 29.1569 26.8939 28.913C26.8939 28.6691 26.9354 28.4696 26.9862 28.4696C27.037 28.4696 27.0785 28.6092 27.0785 28.78C27.0785 28.9507 27.1201 29.0904 27.1709 29.0904C27.2263 29.0904 27.2632 29.4451 27.2632 29.9772C27.2632 30.5093 27.2263 30.864 27.1709 30.864C27.1201 30.864 27.0785 30.9837 27.0785 31.1301C27.0785 31.3113 27.1241 31.3961 27.2216 31.3961C27.5879 31.3961 28.3711 31.9674 28.3711 32.2346C28.3711 32.31 28.4127 32.3716 28.4635 32.3716C28.5142 32.3716 28.5558 32.4914 28.5558 32.6377C28.5558 32.784 28.5142 32.9037 28.4635 32.9037C28.4127 32.9037 28.3711 32.8239 28.3711 32.7264C28.3711 32.6288 28.3296 32.549 28.2788 32.549C28.228 32.549 28.1865 32.5063 28.1865 32.454C28.1865 32.221 27.6783 31.9282 27.2736 31.9282C26.9565 31.9282 26.5246 32.0939 26.5246 32.2155C26.5246 32.3066 25.9186 32.8763 25.6039 33.0811C25.4914 33.1543 25.324 33.274 25.232 33.3472C25.1399 33.4203 24.973 33.54 24.8611 33.6132C24.7492 33.6864 24.5421 33.846 24.401 33.9679C24.2599 34.0899 24.0567 34.2484 23.9496 34.3201C23.8424 34.3919 23.7547 34.5016 23.7547 34.564C23.7547 34.6263 23.7132 34.6774 23.6624 34.6774C23.6116 34.6774 23.5701 34.7373 23.5701 34.8104C23.5701 34.8836 23.5285 34.9435 23.4777 34.9435C23.4269 34.9435 23.3854 35.0233 23.3854 35.1208C23.3854 35.2184 23.3439 35.2982 23.2931 35.2982C23.2423 35.2982 23.2007 35.4778 23.2007 35.6973C23.2007 35.9168 23.2423 36.0963 23.2931 36.0963C23.3439 36.0963 23.3854 36.1562 23.3854 36.2294C23.3854 36.3025 23.4269 36.3624 23.4777 36.3624C23.5285 36.3624 23.5701 36.4051 23.5701 36.4574C23.5701 36.7363 24.4866 37.1857 25.4413 37.3752C26.1957 37.5249 26.2547 37.5269 26.8939 37.426ZM26.7092 28.2035C26.7092 28.106 26.7508 28.0262 26.8016 28.0262C26.8523 28.0262 26.8939 28.106 26.8939 28.2035C26.8939 28.3011 26.8523 28.3809 26.8016 28.3809C26.7508 28.3809 26.7092 28.3011 26.7092 28.2035ZM30.033 28.2035C30.033 28.1547 30.0746 28.1148 30.1254 28.1148C30.1762 28.1148 30.2177 28.1547 30.2177 28.2035C30.2177 28.2523 30.1762 28.2922 30.1254 28.2922C30.0746 28.2922 30.033 28.2523 30.033 28.2035Z" fill="#04244D"/>
<path d="M58.4323 34.1212C55.4875 34.1212 52.8116 33.4699 50.4047 32.1674C48.0261 30.8365 46.1572 29.0243 44.7981 26.7306C43.4672 24.437 42.8018 21.8602 42.8018 19.0003C42.8018 16.1403 43.4672 13.5636 44.7981 11.2699C46.1572 8.97633 48.0261 7.17824 50.4047 5.87569C52.8116 4.54483 55.4875 3.87939 58.4323 3.87939C61.3772 3.87939 64.0248 4.53067 66.3751 5.83322C68.7536 7.13577 70.6225 8.94801 71.9817 11.2699C73.3409 13.5636 74.0205 16.1403 74.0205 19.0003C74.0205 21.8602 73.3409 24.4512 71.9817 26.7731C70.6225 29.0667 68.7536 30.8648 66.3751 32.1674C64.0248 33.4699 61.3772 34.1212 58.4323 34.1212ZM58.4323 31.3179C60.7826 31.3179 62.9063 30.794 64.8035 29.7463C66.7007 28.6703 68.1873 27.1979 69.2633 25.329C70.3393 23.4318 70.8774 21.3222 70.8774 19.0003C70.8774 16.6784 70.3393 14.583 69.2633 12.7141C68.1873 10.8169 66.7007 9.34444 64.8035 8.29673C62.9063 7.22072 60.7826 6.68271 58.4323 6.68271C56.0821 6.68271 53.9442 7.22072 52.0187 8.29673C50.1215 9.34444 48.6208 10.8169 47.5164 12.7141C46.4404 14.583 45.9024 16.6784 45.9024 19.0003C45.9024 21.3222 46.4404 23.4318 47.5164 25.329C48.6208 27.1979 50.1215 28.6703 52.0187 29.7463C53.9442 30.794 56.0821 31.3179 58.4323 31.3179Z" fill="#04244D"/>
<path d="M104.873 4.13424L91.7061 33.8663H88.6055L75.4384 4.13424H78.8363L90.2195 29.9587L101.688 4.13424H104.873Z" fill="#04244D"/>
<path d="M130.213 31.148V33.8663H109.188V4.13424H129.576V6.8526H112.331V17.4287H127.707V20.1046H112.331V31.148H130.213Z" fill="#04244D"/>
<path d="M157.904 33.8663L151.108 24.3096C150.344 24.3945 149.551 24.437 148.73 24.437H140.744V33.8663H137.601V4.13424H148.73C152.524 4.13424 155.497 5.04036 157.649 6.8526C159.801 8.66485 160.877 11.1567 160.877 14.3281C160.877 16.65 160.283 18.618 159.093 20.2321C157.932 21.8178 156.262 22.9646 154.081 23.6725L161.345 33.8663H157.904ZM148.645 21.7611C151.59 21.7611 153.841 21.1099 155.398 19.8073C156.956 18.5048 157.734 16.6784 157.734 14.3281C157.734 11.9212 156.956 10.0807 155.398 8.80643C153.841 7.50388 151.59 6.8526 148.645 6.8526H140.744V21.7611H148.645Z" fill="#04244D"/>
<path d="M168.296 4.13424H171.439V31.148H188.089V33.8663H168.296V4.13424Z" fill="#04244D"/>
<path d="M212.037 25.9236H195.472L191.904 33.8663H188.633L202.225 4.13424H205.326L218.918 33.8663H215.605L212.037 25.9236ZM210.89 23.3752L203.754 7.40477L196.619 23.3752H210.89Z" fill="#04244D"/>
<path d="M248.684 4.13424V33.8663H246.093L226.979 9.74087V33.8663H223.836V4.13424H226.427L245.583 28.2597V4.13424H248.684Z" fill="#04244D"/>
<path d="M258.388 4.13424H270.493C273.636 4.13424 276.411 4.77136 278.818 6.04559C281.225 7.29151 283.094 9.04712 284.425 11.3124C285.756 13.5494 286.421 16.112 286.421 19.0003C286.421 21.8886 285.756 24.4653 284.425 26.7306C283.094 28.9676 281.225 30.7232 278.818 31.9975C276.411 33.2434 273.636 33.8663 270.493 33.8663H258.388V4.13424ZM270.323 31.148C272.928 31.148 275.208 30.6383 277.162 29.6189C279.116 28.5712 280.63 27.1412 281.706 25.329C282.783 23.4884 283.321 21.3789 283.321 19.0003C283.321 16.6217 282.783 14.5263 281.706 12.7141C280.63 10.8735 279.116 9.44355 277.162 8.42416C275.208 7.37646 272.928 6.8526 270.323 6.8526H261.531V31.148H270.323Z" fill="#04244D"/>
</svg>
