<svg width="317" height="42" viewBox="0 0 317 42" fill="none" xmlns="http://www.w3.org/2000/svg">
<path fill-rule="evenodd" clip-rule="evenodd" d="M12.0339 41.6579C11.4978 41.5732 10.9184 41.3673 10.7272 41.1936C10.6531 41.1262 10.5537 41.0712 10.5062 41.0712C10.3776 41.0712 9.58788 40.3202 9.58788 40.1978C9.58788 40.1397 9.54202 40.0923 9.48596 40.0923C9.42991 40.0923 9.38404 40.0042 9.38404 39.8965C9.38404 39.7888 9.33818 39.7007 9.28213 39.7007C9.22607 39.7007 9.18021 39.6346 9.18021 39.5538C9.18021 39.4731 9.13435 39.407 9.07829 39.407C9.02224 39.407 8.97637 39.2969 8.97637 39.1623C8.97637 39.0277 8.93051 38.9175 8.87445 38.9175C8.8184 38.9175 8.77254 38.7854 8.77254 38.6238C8.77254 38.4623 8.72667 38.3302 8.67062 38.3302C8.61456 38.3302 8.5687 38.176 8.5687 37.9875C8.5687 37.7991 8.52284 37.6449 8.46678 37.6449C8.41073 37.6449 8.36487 37.4467 8.36487 37.2044C8.36487 36.9621 8.41073 36.7639 8.46678 36.7639C8.52284 36.7639 8.5687 36.6317 8.5687 36.4702C8.5687 36.3086 8.61456 36.1765 8.67062 36.1765C8.72667 36.1765 8.77254 36.0003 8.77254 35.7849C8.77254 35.5695 8.8184 35.3933 8.87445 35.3933C8.93051 35.3933 8.97637 35.151 8.97637 34.8549C8.97637 34.5588 9.02224 34.3165 9.07829 34.3165C9.13496 34.3165 9.18021 34.0554 9.18021 33.7291C9.18021 33.4029 9.13496 33.1418 9.07829 33.1418C9.02224 33.1418 8.97637 32.9215 8.97637 32.6523C8.97637 32.3831 8.93051 32.1628 8.87445 32.1628C8.8184 32.1628 8.77254 32.0527 8.77254 31.9181C8.77254 31.7835 8.72667 31.6734 8.67062 31.6734C8.61314 31.6734 8.5687 31.9507 8.5687 32.3097C8.5687 32.6686 8.61314 32.946 8.67062 32.946C8.72667 32.946 8.77254 33.0561 8.77254 33.1907C8.77254 33.3253 8.72667 33.4355 8.67062 33.4355C8.61242 33.4355 8.5687 33.7291 8.5687 34.1207C8.5687 34.5123 8.52498 34.806 8.46678 34.806C8.41073 34.806 8.36487 34.9381 8.36487 35.0997C8.36487 35.2612 8.319 35.3933 8.26295 35.3933C8.20689 35.3933 8.16103 35.5035 8.16103 35.6381C8.16103 35.7727 8.11517 35.8828 8.05911 35.8828C8.00306 35.8828 7.9572 35.9489 7.9572 36.0297C7.9572 36.1104 7.91133 36.1765 7.85528 36.1765C7.79922 36.1765 7.75336 36.2372 7.75336 36.3115C7.75336 36.3857 7.62127 36.499 7.45994 36.5632C7.10272 36.7053 6.47816 36.5705 6.12308 36.2748C5.99365 36.1669 5.84882 36.0786 5.80133 36.0786C5.75384 36.0786 5.715 36.0222 5.715 35.9534C5.715 35.8845 5.62328 35.7647 5.51117 35.687C5.39906 35.6094 5.30733 35.4896 5.30733 35.4207C5.30733 35.3518 5.26147 35.2954 5.20542 35.2954C5.14936 35.2954 5.1035 35.2294 5.1035 35.1486C5.1035 35.0678 5.05764 35.0018 5.00158 35.0018C4.94553 35.0018 4.89966 34.9357 4.89966 34.8549C4.89966 34.7742 4.8538 34.7081 4.79775 34.7081C4.74169 34.7081 4.69583 34.62 4.69583 34.5123C4.69583 34.4046 4.64996 34.3165 4.59391 34.3165C4.53786 34.3165 4.49199 34.2064 4.49199 34.0718C4.49199 33.9372 4.44613 33.827 4.39007 33.827C4.33402 33.827 4.28816 33.6949 4.28816 33.5333C4.28816 33.3718 4.24229 33.2397 4.18624 33.2397C4.13018 33.2397 4.08432 33.0635 4.08432 32.8481C4.08432 32.6327 4.03846 32.4565 3.9824 32.4565C3.92574 32.4565 3.88049 32.1954 3.88049 31.8691C3.88049 31.5429 3.83523 31.2818 3.77857 31.2818C3.7165 31.2818 3.67665 30.8413 3.67665 30.156C3.67665 29.4707 3.7165 29.0302 3.77857 29.0302C3.83462 29.0302 3.88049 28.876 3.88049 28.6876C3.88049 28.4991 3.92635 28.3449 3.9824 28.3449C4.03846 28.3449 4.08432 28.2348 4.08432 28.1002C4.08432 27.9656 4.13018 27.8555 4.18624 27.8555C4.24229 27.8555 4.28816 27.7894 4.28816 27.7086C4.28816 27.6279 4.33402 27.5618 4.39007 27.5618C4.44613 27.5618 4.49199 27.4737 4.49199 27.366C4.49199 27.2583 4.53786 27.1702 4.59391 27.1702C4.64996 27.1702 4.69583 27.1138 4.69583 27.045C4.69583 26.9761 4.78755 26.8563 4.89966 26.7786C5.01177 26.701 5.1035 26.6008 5.1035 26.5558C5.1035 26.448 6.31235 25.3102 6.4269 25.3102C6.47582 25.3102 6.57866 25.2498 6.6554 25.1761C6.89674 24.9443 7.42743 24.7218 7.87902 24.6629C8.22208 24.6183 8.36232 24.6469 8.54322 24.7984C8.75531 24.9761 8.77254 25.0723 8.77254 26.0804C8.77254 26.7416 8.73248 27.1702 8.67062 27.1702C8.61456 27.1702 8.5687 27.3244 8.5687 27.5128C8.5687 27.7013 8.52284 27.8555 8.46678 27.8555C8.41073 27.8555 8.36487 27.9656 8.36487 28.1002C8.36487 28.2348 8.319 28.3449 8.26295 28.3449C8.20689 28.3449 8.16103 28.4331 8.16103 28.5407C8.16103 28.6484 8.11517 28.7365 8.05911 28.7365C8.00306 28.7365 7.9572 28.784 7.9572 28.8421C7.9572 28.9002 7.77374 29.1169 7.54952 29.3239C7.3253 29.5308 7.14185 29.7445 7.14185 29.7989C7.14185 29.8532 7.03871 29.9167 6.91254 29.94C6.6977 29.9798 6.69668 29.9833 6.89694 29.9958C7.01446 30.0032 7.21646 29.921 7.34569 29.8134C7.47492 29.7057 7.61577 29.6176 7.65868 29.6176C7.78129 29.6176 8.5687 28.8618 8.5687 28.7442C8.5687 28.6861 8.61456 28.6386 8.67062 28.6386C8.72667 28.6386 8.77254 28.5726 8.77254 28.4918C8.77254 28.411 8.8184 28.3449 8.87445 28.3449C8.93051 28.3449 8.97637 28.2568 8.97637 28.1492C8.97637 28.0415 9.02224 27.9534 9.07829 27.9534C9.13435 27.9534 9.18021 27.8432 9.18021 27.7086C9.18021 27.574 9.22607 27.4639 9.28213 27.4639C9.33818 27.4639 9.38404 27.3097 9.38404 27.1213C9.38404 26.9328 9.42991 26.7786 9.48596 26.7786C9.54711 26.7786 9.58788 26.3871 9.58788 25.7997C9.58788 25.2613 9.61265 24.8208 9.64291 24.8208C9.73658 24.8208 10.5361 25.2288 10.6721 25.3461C10.7429 25.4071 10.9424 25.5672 11.1153 25.7018C11.2882 25.8364 11.5605 26.0567 11.7205 26.1913C11.8805 26.3259 12.1138 26.5021 12.239 26.5828C12.3641 26.6636 12.5218 26.7803 12.5893 26.8421C12.8374 27.0694 13.973 27.5618 14.2477 27.5612C14.8237 27.5601 15.2955 27.3531 15.8022 26.879C16.0839 26.6154 16.3144 26.3529 16.3144 26.2955C16.3144 26.1579 16.2299 26.1638 16.0559 26.3136C15.4857 26.8049 15.0226 27.009 14.4799 27.0084C14.0057 27.0078 13.1373 26.6512 12.7108 26.2819C12.5908 26.178 12.2403 25.8728 11.932 25.6039C11.6237 25.335 11.2742 25.0308 11.1554 24.9279C11.0364 24.8252 10.7842 24.6647 10.5948 24.5714C10.4054 24.4781 10.2274 24.3749 10.1994 24.342C10.0974 24.2224 9.42155 24.0141 8.87445 23.9336C8.4732 23.8746 8.09754 23.894 7.55228 24.0018C6.91814 24.1272 6.72195 24.1317 6.38022 24.0283C5.89418 23.8814 4.81415 23.3797 4.63967 23.22C4.5722 23.1582 4.41963 23.0428 4.30069 22.9636C4.18165 22.8844 4.08432 22.7633 4.08432 22.6944C4.08432 22.6256 4.03846 22.5692 3.9824 22.5692C3.92635 22.5692 3.88049 22.5031 3.88049 22.4223C3.88049 22.3416 3.83462 22.2755 3.77857 22.2755C3.72251 22.2755 3.67665 22.1874 3.67665 22.0797C3.67665 21.972 3.63079 21.8839 3.57473 21.8839C3.5143 21.8839 3.47282 21.5249 3.47282 21.0029C3.47282 20.4808 3.43133 20.1218 3.3709 20.1218C3.31484 20.1218 3.26898 20.254 3.26898 20.4155C3.26898 20.577 3.22312 20.7092 3.16706 20.7092C3.10713 20.7092 3.06514 21.0518 3.06514 21.5413C3.06514 22.0308 3.10713 22.3734 3.16706 22.3734C3.22312 22.3734 3.26898 22.4835 3.26898 22.6181C3.26898 22.7527 3.31484 22.8629 3.3709 22.8629C3.42695 22.8629 3.47282 22.9289 3.47282 23.0097C3.47282 23.0905 3.51868 23.1565 3.57473 23.1565C3.63079 23.1565 3.67665 23.2129 3.67665 23.2818C3.67665 23.3507 3.77398 23.4718 3.89302 23.551C4.01196 23.6302 4.16453 23.7456 4.232 23.8074C4.41046 23.9708 5.51351 24.4876 5.85076 24.5658L6.13949 24.6327L5.821 24.8981C5.16067 25.4481 4.28816 26.2814 4.28816 26.3621C4.28816 26.478 3.41217 26.8765 3.15769 26.8765C3.04333 26.8765 2.85509 26.8278 2.73921 26.7683C2.45853 26.624 1.6383 25.8313 1.6383 25.7043C1.6383 25.6491 1.59243 25.6039 1.53638 25.6039C1.48032 25.6039 1.43446 25.5158 1.43446 25.4081C1.43446 25.3004 1.3886 25.2123 1.33254 25.2123C1.27649 25.2123 1.23063 25.1242 1.23063 25.0165C1.23063 24.9089 1.18476 24.8208 1.12871 24.8208C1.07265 24.8208 1.02679 24.7106 1.02679 24.576C1.02679 24.4414 0.980927 24.3313 0.924872 24.3313C0.868817 24.3313 0.822954 24.1771 0.822954 23.9887C0.822954 23.8002 0.777091 23.646 0.721036 23.646C0.664982 23.646 0.619119 23.4037 0.619119 23.1076C0.619119 22.8115 0.573256 22.5692 0.517201 22.5692C0.454522 22.5692 0.415283 22.0797 0.415283 21.2966C0.415283 20.5134 0.454522 20.0239 0.517201 20.0239C0.573256 20.0239 0.619119 19.8037 0.619119 19.5345C0.619119 19.2652 0.664982 19.045 0.721036 19.045C0.777091 19.045 0.822954 18.8908 0.822954 18.7024C0.822954 18.5139 0.868817 18.3597 0.924872 18.3597C0.980927 18.3597 1.02679 18.2496 1.02679 18.115C1.02679 17.9804 1.07265 17.8703 1.12871 17.8703C1.18476 17.8703 1.23063 17.7601 1.23063 17.6255C1.23063 17.4909 1.27649 17.3808 1.33254 17.3808C1.3886 17.3808 1.43446 17.2927 1.43446 17.185C1.43446 17.0773 1.48032 16.9892 1.53638 16.9892C1.59243 16.9892 1.6383 16.9231 1.6383 16.8424C1.6383 16.7616 1.68416 16.6955 1.74021 16.6955C1.79627 16.6955 1.84213 16.6294 1.84213 16.5487C1.84213 16.4679 1.88799 16.4018 1.94405 16.4018C2.0001 16.4018 2.04597 16.3358 2.04597 16.255C2.04597 16.1742 2.09183 16.1082 2.14788 16.1082C2.20394 16.1082 2.2498 16.0598 2.2498 16.0006C2.2498 15.9096 2.5791 15.5848 3.02376 15.2372C3.30496 15.0174 3.79885 14.8355 4.11459 14.8355C4.4607 14.8355 4.89966 15.102 4.89966 15.312C4.89966 15.373 4.94553 15.4229 5.00158 15.4229C5.05764 15.4229 5.1035 15.511 5.1035 15.6187C5.1035 15.7264 5.14936 15.8145 5.20542 15.8145C5.26147 15.8145 5.30733 15.9246 5.30733 16.0592C5.30733 16.1938 5.3532 16.3039 5.40925 16.3039C5.46531 16.3039 5.51117 16.3921 5.51117 16.4997C5.51117 16.6074 5.55703 16.6955 5.61309 16.6955C5.66914 16.6955 5.715 16.7836 5.715 16.8913C5.715 16.999 5.76087 17.0871 5.81692 17.0871C5.87298 17.0871 5.91884 17.1532 5.91884 17.2339C5.91884 17.3147 5.9647 17.3808 6.02076 17.3808C6.07681 17.3808 6.12268 17.4469 6.12268 17.5276C6.12268 17.6084 6.16854 17.6745 6.22459 17.6745C6.28065 17.6745 6.32651 17.7309 6.32651 17.7997C6.32651 17.8686 6.41824 17.9884 6.53035 18.066C6.64246 18.1437 6.73418 18.2538 6.73418 18.3108C6.73418 18.3678 6.83223 18.4792 6.95208 18.5584C7.07194 18.6376 7.27159 18.797 7.39573 18.9126C7.82215 19.31 9.00929 19.777 9.25583 19.6445C9.35479 19.5913 9.27336 19.5163 8.97759 19.3881C8.74757 19.2885 8.47402 19.1375 8.36966 19.0525C8.26539 18.9677 8.07848 18.8321 7.95434 18.7513C7.58305 18.5097 6.93802 17.8933 6.93802 17.78C6.93802 17.7219 6.89215 17.6745 6.8361 17.6745C6.78005 17.6745 6.73418 17.6084 6.73418 17.5276C6.73418 17.4469 6.68832 17.3808 6.63226 17.3808C6.57621 17.3808 6.53035 17.3147 6.53035 17.2339C6.53035 17.1532 6.48448 17.0871 6.42843 17.0871C6.37237 17.0871 6.32651 16.999 6.32651 16.8913C6.32651 16.7836 6.28065 16.6955 6.22459 16.6955C6.16854 16.6955 6.12268 16.6074 6.12268 16.4997C6.12268 16.3921 6.07681 16.3039 6.02076 16.3039C5.9647 16.3039 5.91884 16.1718 5.91884 16.0103C5.91884 15.8487 5.87298 15.7166 5.81692 15.7166C5.76087 15.7166 5.715 15.5624 5.715 15.374C5.715 15.1855 5.66914 15.0313 5.61309 15.0313C5.55703 15.0313 5.51117 14.8992 5.51117 14.7376C5.51117 14.5761 5.55703 14.444 5.61309 14.444C5.66914 14.444 5.715 14.386 5.715 14.3152C5.715 14.1255 6.37166 13.8581 6.86504 13.8468C7.10139 13.8414 7.40939 13.8051 7.54952 13.7661C7.7553 13.7088 7.66795 13.6718 7.09528 13.5737C6.2834 13.4347 5.52921 13.5029 4.99292 13.7641C4.4019 14.0519 3.8282 14.0547 3.48841 13.7717C3.36774 13.6712 3.26898 13.517 3.26898 13.4291C3.26898 13.3412 3.22312 13.2692 3.16706 13.2692C3.10632 13.2692 3.06514 12.894 3.06514 12.3392C3.06514 11.7845 3.10632 11.4092 3.16706 11.4092C3.22312 11.4092 3.26898 11.233 3.26898 11.0177C3.26898 10.8023 3.31484 10.6261 3.3709 10.6261C3.42695 10.6261 3.47282 10.4939 3.47282 10.3324C3.47282 10.1709 3.51868 10.0387 3.57473 10.0387C3.63079 10.0387 3.67665 9.95061 3.67665 9.84292C3.67665 9.73524 3.72251 9.64714 3.77857 9.64714C3.83462 9.64714 3.88049 9.55903 3.88049 9.45135C3.88049 9.34366 3.92635 9.25556 3.9824 9.25556C4.03846 9.25556 4.08432 9.16745 4.08432 9.05977C4.08432 8.95208 4.13018 8.86398 4.18624 8.86398C4.24229 8.86398 4.28816 8.7979 4.28816 8.71714C4.28816 8.63638 4.33402 8.5703 4.39007 8.5703C4.44613 8.5703 4.49199 8.52507 4.49199 8.46986C4.49199 8.31225 5.35034 7.52782 5.72948 7.33878C6.12655 7.14084 7.54952 7.01691 7.54952 7.1803C7.54952 7.23757 7.64125 7.31245 7.75336 7.34662C7.86547 7.38078 7.9572 7.47182 7.9572 7.54897C7.9572 7.62611 8.00306 7.68925 8.05911 7.68925C8.11517 7.68925 8.16103 7.79938 8.16103 7.93399C8.16103 8.06859 8.20689 8.17872 8.26295 8.17872C8.319 8.17872 8.36487 8.42101 8.36487 8.71714C8.36487 9.01327 8.41073 9.25556 8.46678 9.25556C8.52284 9.25556 8.5687 9.43177 8.5687 9.64714C8.5687 9.8625 8.61456 10.0387 8.67062 10.0387C8.72667 10.0387 8.77254 10.1488 8.77254 10.2834C8.77254 10.4181 8.8184 10.5282 8.87445 10.5282C8.93051 10.5282 8.97637 10.6383 8.97637 10.7729C8.97637 10.9075 9.02224 11.0177 9.07829 11.0177C9.13435 11.0177 9.18021 11.0837 9.18021 11.1645C9.18021 11.2453 9.22607 11.3113 9.28213 11.3113C9.33818 11.3113 9.38404 11.3774 9.38404 11.4582C9.38404 11.5389 9.42991 11.605 9.48596 11.605C9.54202 11.605 9.58788 11.6711 9.58788 11.7519C9.58788 11.8326 9.63374 11.8987 9.6898 11.8987C9.74585 11.8987 9.79304 11.9537 9.79477 12.0211C9.7964 12.0883 9.93562 12.2536 10.1041 12.3882C10.2727 12.5228 10.5413 12.743 10.7013 12.8776C10.8613 13.0123 11.0933 13.1885 11.2168 13.2692C11.3404 13.35 11.5246 13.4821 11.6262 13.5629C11.7278 13.6437 11.9126 13.7758 12.0368 13.8566C12.408 14.0982 13.0531 14.7146 13.0531 14.8279C13.0531 14.8859 13.0989 14.9334 13.155 14.9334C13.2111 14.9334 13.2569 14.9995 13.2569 15.0803C13.2569 15.161 13.3028 15.2271 13.3588 15.2271C13.4149 15.2271 13.4608 15.2932 13.4608 15.374C13.4608 15.4547 13.5066 15.5208 13.5627 15.5208C13.6187 15.5208 13.6646 15.6089 13.6646 15.7166C13.6646 15.8243 13.7105 15.9124 13.7665 15.9124C13.8226 15.9124 13.8684 16.0225 13.8684 16.1571C13.8684 16.2917 13.9143 16.4018 13.9703 16.4018C14.0264 16.4018 14.0723 16.556 14.0723 16.7445C14.0723 16.9329 14.1181 17.0871 14.1742 17.0871C14.2302 17.0871 14.2761 17.2633 14.2761 17.4787C14.2761 17.694 14.322 17.8703 14.378 17.8703C14.4341 17.8703 14.4799 17.628 14.4799 17.3318C14.4799 17.0357 14.4341 16.7934 14.378 16.7934C14.322 16.7934 14.2761 16.5952 14.2761 16.3529C14.2761 16.1106 14.2302 15.9124 14.1742 15.9124C14.1181 15.9124 14.0723 15.8022 14.0723 15.6676C14.0723 15.533 14.0264 15.4229 13.9703 15.4229C13.9143 15.4229 13.8684 15.3348 13.8684 15.2271C13.8684 15.1194 13.8226 15.0313 13.7665 15.0313C13.7105 15.0313 13.6646 14.9652 13.6646 14.8845C13.6646 14.8037 13.6187 14.7376 13.5627 14.7376C13.5066 14.7376 13.4608 14.6914 13.4608 14.635C13.4608 14.5341 12.4114 13.5266 11.6552 12.9014C10.8285 12.218 10.6071 12.0128 10.6071 11.93C10.6071 11.8827 10.5153 11.7805 10.4032 11.7029C10.2911 11.6253 10.1994 11.5055 10.1994 11.4365C10.1994 11.3677 10.1535 11.3113 10.0975 11.3113C10.0414 11.3113 9.99555 11.2453 9.99555 11.1645C9.99555 11.0837 9.94969 11.0177 9.89363 11.0177C9.83758 11.0177 9.79171 10.9075 9.79171 10.7729C9.79171 10.6383 9.74585 10.5282 9.6898 10.5282C9.63374 10.5282 9.58788 10.4181 9.58788 10.2834C9.58788 10.1488 9.54202 10.0387 9.48596 10.0387C9.42991 10.0387 9.38404 9.84048 9.38404 9.59819C9.38404 9.3559 9.33818 9.15766 9.28213 9.15766C9.21945 9.15766 9.18021 8.66819 9.18021 7.88504C9.18021 7.10188 9.21945 6.61241 9.28213 6.61241C9.33818 6.61241 9.38404 6.37012 9.38404 6.07399C9.38404 5.77786 9.42991 5.53558 9.48596 5.53558C9.54202 5.53558 9.58788 5.40342 9.58788 5.24189C9.58788 5.08037 9.63374 4.94821 9.6898 4.94821C9.74585 4.94821 9.79171 4.8601 9.79171 4.75242C9.79171 4.64474 9.83758 4.55663 9.89363 4.55663C9.94969 4.55663 9.99555 4.49055 9.99555 4.40979C9.99555 4.32903 10.0414 4.26295 10.0975 4.26295C10.1535 4.26295 10.1994 4.20656 10.1994 4.13774C10.1994 4.06882 10.2911 3.949 10.4032 3.87137C10.5153 3.79374 10.6071 3.67392 10.6071 3.605C10.6071 3.53618 10.648 3.47979 10.6982 3.47979C10.7483 3.47979 10.9371 3.35302 11.1176 3.19815C11.624 2.7636 11.6726 2.72934 12.0435 2.54441C12.477 2.32836 13.6759 2.24662 14.2447 2.39434C14.6623 2.50281 15.4991 3.15654 15.4991 3.37426C15.4991 3.43231 15.545 3.47979 15.601 3.47979C15.6571 3.47979 15.7029 3.5679 15.7029 3.67558C15.7029 3.78327 15.7488 3.87137 15.8049 3.87137C15.8671 3.87137 15.9068 4.32824 15.9068 5.0461C15.9068 5.76396 15.8671 6.22083 15.8049 6.22083C15.7488 6.22083 15.7029 6.33096 15.7029 6.46557C15.7029 6.60017 15.6571 6.71031 15.601 6.71031C15.545 6.71031 15.4991 6.82043 15.4991 6.95504C15.4991 7.08965 15.4532 7.19978 15.3972 7.19978C15.3411 7.19978 15.2953 7.26586 15.2953 7.34662C15.2953 7.42738 15.3202 7.49346 15.3508 7.49346C15.4509 7.49346 15.9068 7.01544 15.9068 6.9105C15.9068 6.85421 15.9526 6.8082 16.0087 6.8082C16.0648 6.8082 16.1106 6.74212 16.1106 6.66136C16.1106 6.58059 16.1565 6.51452 16.2125 6.51452C16.2686 6.51452 16.3144 6.40439 16.3144 6.26978C16.3144 6.13518 16.3603 6.02504 16.4164 6.02504C16.4724 6.02504 16.5183 5.87086 16.5183 5.68242C16.5183 5.49397 16.5641 5.33979 16.6202 5.33979C16.6763 5.33979 16.7221 5.16357 16.7221 4.94821C16.7221 4.73284 16.6763 4.55663 16.6202 4.55663C16.5641 4.55663 16.5183 4.38042 16.5183 4.16505C16.5183 3.94968 16.4724 3.77348 16.4164 3.77348C16.3603 3.77348 16.3144 3.66335 16.3144 3.52874C16.3144 3.39413 16.2686 3.284 16.2125 3.284C16.1565 3.284 16.1106 3.21793 16.1106 3.13717C16.1106 3.0564 16.0648 2.99032 16.0087 2.99032C15.9526 2.99032 15.9068 2.92424 15.9068 2.84348C15.9068 2.76272 15.8609 2.69664 15.8049 2.69664C15.7488 2.69664 15.7029 2.56448 15.7029 2.40296C15.7029 2.24143 15.7488 2.10928 15.8049 2.10928C15.8609 2.10928 15.9068 2.04319 15.9068 1.96243C15.9068 1.88167 15.9526 1.81559 16.0087 1.81559C16.0648 1.81559 16.1106 1.76958 16.1106 1.71329C16.1106 1.57928 16.5205 1.18848 16.8255 1.03175C17.1582 0.86063 18.3045 0.860432 18.8879 1.03126C19.1542 1.10928 19.372 1.20454 19.372 1.24301C19.372 1.28148 19.4583 1.33923 19.5637 1.37134C19.8188 1.44917 20.1873 1.76185 20.1873 1.90047C20.1873 1.96146 20.2332 2.01138 20.2892 2.01138C20.3453 2.01138 20.3912 2.07746 20.3912 2.15822C20.3912 2.23898 20.437 2.30506 20.4931 2.30506C20.5506 2.30506 20.595 2.5824 20.595 2.94138C20.595 3.30035 20.6394 3.57769 20.6969 3.57769C20.7544 3.57769 20.7988 3.85502 20.7988 4.214C20.7988 4.57298 20.7544 4.85032 20.6969 4.85032C20.6409 4.85032 20.595 5.02652 20.595 5.24189C20.595 5.45726 20.5491 5.63347 20.4931 5.63347C20.437 5.63347 20.3912 5.70238 20.3912 5.78667C20.3912 5.87096 20.1579 6.15808 19.8728 6.42484L19.3545 6.90971L19.669 7.19194C19.8419 7.34711 19.9835 7.54456 19.9835 7.63061C19.9835 7.71676 20.0294 7.78714 20.0854 7.78714C20.1458 7.78714 20.1873 8.14612 20.1873 8.66819C20.1873 9.19026 20.1458 9.54924 20.0854 9.54924C20.0294 9.54924 19.9835 9.59525 19.9835 9.65154C19.9835 9.85428 19.5111 10.2016 19.0988 10.3021C18.7821 10.3794 18.4678 10.3692 17.8275 10.2609C17.3298 10.1768 16.6809 10.1379 16.2635 10.1671C15.5526 10.2168 14.6838 10.422 14.6838 10.5401C14.6838 10.5744 14.5462 10.6571 14.378 10.724C14.2098 10.7908 14.0723 10.8843 14.0723 10.9316C14.0723 11.0374 14.016 11.043 14.6838 10.8708C15.5068 10.6587 17.0631 10.6804 17.8269 10.9148C18.4814 11.1155 18.8321 11.2719 19.0262 11.4492C19.0905 11.508 19.2405 11.6209 19.3594 11.7001C19.4785 11.7793 19.5758 11.8907 19.5758 11.9477C19.5758 12.0046 19.6675 12.1148 19.7797 12.1924C19.8918 12.27 19.9835 12.4339 19.9835 12.5567C19.9835 12.6793 20.0294 12.7798 20.0854 12.7798C20.1415 12.7798 20.1873 12.9339 20.1873 13.1224C20.1873 13.3108 20.2332 13.465 20.2892 13.465C20.3513 13.465 20.3912 13.9055 20.3912 14.5908C20.3912 15.2761 20.3513 15.7166 20.2892 15.7166C20.2332 15.7166 20.1873 15.9368 20.1873 16.2061C20.1873 16.4753 20.1415 16.6955 20.0854 16.6955C20.0294 16.6955 19.9835 16.8497 19.9835 17.0382C19.9835 17.2266 19.9376 17.3808 19.8816 17.3808C19.8255 17.3808 19.7797 17.5129 19.7797 17.6745C19.7797 17.836 19.7338 17.9682 19.6777 17.9682C19.6217 17.9682 19.5758 18.1003 19.5758 18.2618C19.5758 18.4234 19.53 18.5555 19.4739 18.5555C19.4178 18.5555 19.372 18.6436 19.372 18.7513C19.372 18.859 19.3261 18.9471 19.2701 18.9471C19.214 18.9471 19.1681 19.0352 19.1681 19.1429C19.1681 19.2506 19.1223 19.3387 19.0662 19.3387C19.0102 19.3387 18.9643 19.3852 18.9643 19.4419C18.9643 19.5295 18.0718 20.4051 17.6072 20.7736C17.3648 20.9658 16.7003 21.2554 16.0597 21.4483C15.4137 21.6426 13.7116 21.7055 12.6964 21.5724C12.4161 21.5356 12.2752 21.5293 12.3834 21.5584C12.4915 21.5876 12.6396 21.6686 12.7124 21.7385C12.9246 21.9423 14.2451 22.111 15.1417 22.0488C16.245 21.9722 17.8692 21.4364 18.4184 20.9678C18.724 20.7072 18.8473 20.6238 19.1472 20.4748C19.7377 20.1815 20.1873 20.3434 20.1873 20.8491C20.1873 20.9875 20.2332 21.1008 20.2892 21.1008C20.3548 21.1008 20.3912 22.0797 20.3912 23.8418C20.3912 25.6039 20.3548 26.5828 20.2892 26.5828C20.2332 26.5828 20.1873 26.7811 20.1873 27.0234C20.1873 27.2657 20.1415 27.4639 20.0854 27.4639C20.0294 27.4639 19.9835 27.574 19.9835 27.7086C19.9835 27.8432 19.9376 27.9534 19.8816 27.9534C19.8255 27.9534 19.7797 27.9994 19.7797 28.0557C19.7797 28.3023 19.2713 28.6239 18.6994 28.7392C17.903 28.8997 17.3119 29.0848 16.8093 29.3311C16.377 29.543 15.4991 30.3235 15.4991 30.4961C15.4991 30.5513 15.4532 30.5965 15.3972 30.5965C15.3411 30.5965 15.2953 30.7287 15.2953 30.8902C15.2953 31.0517 15.2494 31.1839 15.1934 31.1839C15.1334 31.1839 15.0914 31.5265 15.0914 32.016C15.0914 32.5055 15.1334 32.8481 15.1934 32.8481C15.2494 32.8481 15.2953 32.6058 15.2953 32.3097C15.2953 32.0135 15.3411 31.7712 15.3972 31.7712C15.4532 31.7712 15.4991 31.6391 15.4991 31.4776C15.4991 31.316 15.545 31.1839 15.601 31.1839C15.6571 31.1839 15.7029 31.1178 15.7029 31.037C15.7029 30.9563 15.7488 30.8902 15.8049 30.8902C15.8609 30.8902 15.9068 30.8442 15.9068 30.7879C15.9068 30.6193 16.3595 30.2369 16.8359 30.0029C17.6221 29.6168 18.2225 29.5103 18.9388 29.6295C19.2892 29.6879 19.5758 29.7721 19.5758 29.8168C19.5758 29.8615 19.6675 29.926 19.7797 29.9602C19.8918 29.9944 19.9835 30.0854 19.9835 30.1625C19.9835 30.2397 20.0294 30.3028 20.0854 30.3028C20.1477 30.3028 20.1873 30.7597 20.1873 31.4776C20.1873 32.1954 20.1477 32.6523 20.0854 32.6523C20.0294 32.6523 19.9835 32.8285 19.9835 33.0439C19.9835 33.2592 19.9376 33.4355 19.8816 33.4355C19.8241 33.4355 19.7797 33.7128 19.7797 34.0718C19.7797 34.4307 19.8241 34.7081 19.8816 34.7081C19.9376 34.7081 19.9835 34.8402 19.9835 35.0018C19.9835 35.1633 20.0294 35.2954 20.0854 35.2954C20.1415 35.2954 20.1873 35.4276 20.1873 35.5891C20.1873 35.7507 20.2332 35.8828 20.2892 35.8828C20.3467 35.8828 20.3912 36.1601 20.3912 36.5191C20.3912 36.8781 20.3467 37.1554 20.2892 37.1554C20.2332 37.1554 20.1873 37.3316 20.1873 37.547C20.1873 37.7624 20.1415 37.9386 20.0854 37.9386C20.0294 37.9386 19.9835 38.0487 19.9835 38.1833C19.9835 38.3179 19.9376 38.4281 19.8816 38.4281C19.8255 38.4281 19.7797 38.5162 19.7797 38.6238C19.7797 38.7315 19.7338 38.8196 19.6777 38.8196C19.6217 38.8196 19.5758 38.8981 19.5758 38.9938C19.5758 39.0896 19.4841 39.2315 19.372 39.3091C19.2599 39.3867 19.1681 39.4889 19.1681 39.5362C19.1681 39.611 18.9015 39.8672 18.4218 40.2532C18.1672 40.4581 17.5943 40.7086 17.0788 40.8406C16.4252 41.0079 16.3144 41.0058 16.3144 40.8265C16.3144 40.7457 16.3603 40.6796 16.4164 40.6796C16.4724 40.6796 16.5183 40.5475 16.5183 40.3859C16.5183 40.2244 16.5641 40.0923 16.6202 40.0923C16.6763 40.0923 16.7221 39.894 16.7221 39.6517C16.7221 39.4095 16.6763 39.2112 16.6202 39.2112C16.5641 39.2112 16.5183 39.1011 16.5183 38.9665C16.5183 38.8319 16.4724 38.7217 16.4164 38.7217C16.3603 38.7217 16.3144 38.6557 16.3144 38.5749C16.3144 38.4941 16.2686 38.4281 16.2125 38.4281C16.1565 38.4281 16.1085 38.3729 16.1059 38.3057C16.1034 38.2383 15.9313 38.0398 15.7237 37.8645C14.8413 37.1191 14.695 37.0013 14.4788 36.8618C14.3538 36.781 14.0791 36.5607 13.8684 36.3723C13.6578 36.1838 13.3882 35.9648 13.2692 35.8856C13.1504 35.8065 13.0531 35.695 13.0531 35.6381C13.0531 35.5811 12.9614 35.471 12.8492 35.3933C12.7371 35.3157 12.6454 35.1959 12.6454 35.127C12.6454 35.0581 12.5995 35.0018 12.5435 35.0018C12.4874 35.0018 12.4416 34.9357 12.4416 34.8549C12.4416 34.7742 12.3957 34.7081 12.3397 34.7081C12.2836 34.7081 12.2377 34.5979 12.2377 34.4633C12.2377 34.3287 12.1919 34.2186 12.1358 34.2186C12.0798 34.2186 12.0339 34.0204 12.0339 33.7781C12.0339 33.5358 11.988 33.3376 11.932 33.3376C11.8759 33.3376 11.8301 33.2054 11.8301 33.0439C11.8301 32.8823 11.8759 32.7502 11.932 32.7502C11.988 32.7502 12.0339 32.5299 12.0339 32.2607C12.0339 31.9915 11.988 31.7712 11.932 31.7712C11.8759 31.7712 11.8301 31.9254 11.8301 32.1139C11.8301 32.3023 11.7842 32.4565 11.7282 32.4565C11.667 32.4565 11.6262 32.8481 11.6262 33.4355C11.6262 34.0228 11.667 34.4144 11.7282 34.4144C11.7842 34.4144 11.8301 34.5466 11.8301 34.7081C11.8301 34.9081 11.7797 35.0018 11.6721 35.0018C11.2678 35.0018 10.4032 35.6324 10.4032 35.9274C10.4032 36.0106 10.3574 36.0786 10.3013 36.0786C10.2452 36.0786 10.1994 36.2108 10.1994 36.3723C10.1994 36.5338 10.2452 36.666 10.3013 36.666C10.3574 36.666 10.4032 36.5779 10.4032 36.4702C10.4032 36.3625 10.4491 36.2744 10.5051 36.2744C10.5612 36.2744 10.6071 36.2272 10.6071 36.1695C10.6071 35.9123 11.168 35.5891 11.6147 35.5891C11.9648 35.5891 12.4416 35.772 12.4416 35.9062C12.4416 36.0068 13.1105 36.6357 13.4579 36.8618C13.582 36.9425 13.7668 37.0747 13.8684 37.1554C13.97 37.2362 14.1543 37.3684 14.2778 37.4491C14.4014 37.5299 14.63 37.7061 14.7857 37.8407C14.9414 37.9753 15.1657 38.1502 15.284 38.2294C15.4023 38.3086 15.4991 38.4297 15.4991 38.4986C15.4991 38.5675 15.545 38.6238 15.601 38.6238C15.6571 38.6238 15.7029 38.6899 15.7029 38.7707C15.7029 38.8515 15.7488 38.9175 15.8049 38.9175C15.8609 38.9175 15.9068 39.0056 15.9068 39.1133C15.9068 39.221 15.9526 39.3091 16.0087 39.3091C16.0648 39.3091 16.1106 39.5073 16.1106 39.7496C16.1106 39.9919 16.0648 40.1902 16.0087 40.1902C15.9526 40.1902 15.9068 40.2562 15.9068 40.337C15.9068 40.4178 15.8609 40.4838 15.8049 40.4838C15.7488 40.4838 15.7029 40.531 15.7029 40.5887C15.7029 40.8966 14.6912 41.3927 13.6374 41.6018C12.8046 41.767 12.7395 41.7693 12.0339 41.6579ZM12.2377 31.4776C12.2377 31.3699 12.1919 31.2818 12.1358 31.2818C12.0798 31.2818 12.0339 31.3699 12.0339 31.4776C12.0339 31.5852 12.0798 31.6734 12.1358 31.6734C12.1919 31.6734 12.2377 31.5852 12.2377 31.4776ZM8.5687 31.4776C8.5687 31.4237 8.52284 31.3797 8.46678 31.3797C8.41073 31.3797 8.36487 31.4237 8.36487 31.4776C8.36487 31.5314 8.41073 31.5755 8.46678 31.5755C8.52284 31.5755 8.5687 31.5314 8.5687 31.4776Z" fill="white"/>
<path fill-rule="evenodd" clip-rule="evenodd" d="M30.1024 41.6579C30.6385 41.5732 31.2179 41.3674 31.4091 41.1936C31.4832 41.1262 31.5827 41.0712 31.6302 41.0712C31.7587 41.0712 32.5485 40.3202 32.5485 40.1978C32.5485 40.1398 32.5943 40.0923 32.6504 40.0923C32.7064 40.0923 32.7523 40.0042 32.7523 39.8965C32.7523 39.7888 32.7982 39.7007 32.8542 39.7007C32.9103 39.7007 32.9561 39.6346 32.9561 39.5539C32.9561 39.4731 33.002 39.407 33.0581 39.407C33.1141 39.407 33.16 39.2969 33.16 39.1623C33.16 39.0277 33.2058 38.9176 33.2619 38.9176C33.318 38.9176 33.3638 38.7854 33.3638 38.6239C33.3638 38.4623 33.4097 38.3302 33.4657 38.3302C33.5218 38.3302 33.5677 38.176 33.5677 37.9876C33.5677 37.7991 33.6135 37.6449 33.6696 37.6449C33.7256 37.6449 33.7715 37.4467 33.7715 37.2044C33.7715 36.9621 33.7256 36.7639 33.6696 36.7639C33.6135 36.7639 33.5677 36.6317 33.5677 36.4702C33.5677 36.3087 33.5218 36.1765 33.4657 36.1765C33.4097 36.1765 33.3638 36.0003 33.3638 35.7849C33.3638 35.5696 33.318 35.3934 33.2619 35.3934C33.2058 35.3934 33.16 35.1511 33.16 34.8549C33.16 34.5588 33.1141 34.3165 33.0581 34.3165C33.0014 34.3165 32.9561 34.0554 32.9561 33.7292C32.9561 33.4029 33.0014 33.1418 33.0581 33.1418C33.1141 33.1418 33.16 32.9215 33.16 32.6523C33.16 32.3831 33.2058 32.1628 33.2619 32.1628C33.318 32.1628 33.3638 32.0527 33.3638 31.9181C33.3638 31.7835 33.4097 31.6734 33.4657 31.6734C33.5232 31.6734 33.5677 31.9507 33.5677 32.3097C33.5677 32.6687 33.5232 32.946 33.4657 32.946C33.4097 32.946 33.3638 33.0561 33.3638 33.1907C33.3638 33.3253 33.4097 33.4355 33.4657 33.4355C33.5239 33.4355 33.5677 33.7292 33.5677 34.1207C33.5677 34.5123 33.6114 34.806 33.6696 34.806C33.7256 34.806 33.7715 34.9381 33.7715 35.0997C33.7715 35.2612 33.8173 35.3934 33.8734 35.3934C33.9295 35.3934 33.9753 35.5035 33.9753 35.6381C33.9753 35.7727 34.0212 35.8828 34.0772 35.8828C34.1333 35.8828 34.1792 35.9489 34.1792 36.0297C34.1792 36.1104 34.225 36.1765 34.2811 36.1765C34.3371 36.1765 34.383 36.2372 34.383 36.3115C34.383 36.3857 34.5151 36.499 34.6764 36.5632C35.0336 36.7053 35.6582 36.5705 36.0133 36.2748C36.1427 36.1669 36.2875 36.0786 36.335 36.0786C36.3825 36.0786 36.4213 36.0222 36.4213 35.9534C36.4213 35.8845 36.5131 35.7647 36.6252 35.687C36.7373 35.6094 36.829 35.4896 36.829 35.4207C36.829 35.3519 36.8749 35.2955 36.9309 35.2955C36.987 35.2955 37.0329 35.2294 37.0329 35.1486C37.0329 35.0679 37.0787 35.0018 37.1348 35.0018C37.1908 35.0018 37.2367 34.9357 37.2367 34.8549C37.2367 34.7742 37.2826 34.7081 37.3386 34.7081C37.3947 34.7081 37.4405 34.62 37.4405 34.5123C37.4405 34.4046 37.4864 34.3165 37.5424 34.3165C37.5985 34.3165 37.6444 34.2064 37.6444 34.0718C37.6444 33.9372 37.6902 33.827 37.7463 33.827C37.8023 33.827 37.8482 33.6949 37.8482 33.5334C37.8482 33.3718 37.8941 33.2397 37.9501 33.2397C38.0062 33.2397 38.052 33.0635 38.052 32.8481C38.052 32.6327 38.0979 32.4565 38.1539 32.4565C38.2106 32.4565 38.2559 32.1954 38.2559 31.8692C38.2559 31.5429 38.3011 31.2818 38.3578 31.2818C38.4199 31.2818 38.4597 30.8413 38.4597 30.156C38.4597 29.4708 38.4199 29.0302 38.3578 29.0302C38.3017 29.0302 38.2559 28.876 38.2559 28.6876C38.2559 28.4992 38.21 28.345 38.1539 28.345C38.0979 28.345 38.052 28.2348 38.052 28.1002C38.052 27.9656 38.0062 27.8555 37.9501 27.8555C37.8941 27.8555 37.8482 27.7894 37.8482 27.7087C37.8482 27.6279 37.8023 27.5618 37.7463 27.5618C37.6902 27.5618 37.6444 27.4737 37.6444 27.366C37.6444 27.2583 37.5985 27.1702 37.5424 27.1702C37.4864 27.1702 37.4405 27.1138 37.4405 27.045C37.4405 26.9761 37.3488 26.8563 37.2367 26.7787C37.1246 26.701 37.0329 26.6008 37.0329 26.5559C37.0329 26.448 35.824 25.3102 35.7095 25.3102C35.6605 25.3102 35.5577 25.2498 35.481 25.1761C35.2396 24.9443 34.7089 24.7218 34.2573 24.663C33.9143 24.6183 33.774 24.6469 33.5931 24.7985C33.381 24.9761 33.3638 25.0724 33.3638 26.0804C33.3638 26.7417 33.4039 27.1702 33.4657 27.1702C33.5218 27.1702 33.5677 27.3244 33.5677 27.5129C33.5677 27.7013 33.6135 27.8555 33.6696 27.8555C33.7256 27.8555 33.7715 27.9656 33.7715 28.1002C33.7715 28.2348 33.8173 28.345 33.8734 28.345C33.9295 28.345 33.9753 28.4331 33.9753 28.5408C33.9753 28.6484 34.0212 28.7365 34.0772 28.7365C34.1333 28.7365 34.1792 28.784 34.1792 28.8421C34.1792 28.9002 34.3626 29.117 34.5868 29.3239C34.811 29.5309 34.9945 29.7446 34.9945 29.7989C34.9945 29.8532 35.0976 29.9168 35.2238 29.9401C35.4387 29.9798 35.4397 29.9833 35.2394 29.9959C35.1219 30.0032 34.9199 29.9211 34.7907 29.8134C34.6614 29.7057 34.5206 29.6176 34.4777 29.6176C34.3551 29.6176 33.5677 28.8618 33.5677 28.7442C33.5677 28.6861 33.5218 28.6386 33.4657 28.6386C33.4097 28.6386 33.3638 28.5726 33.3638 28.4918C33.3638 28.411 33.318 28.345 33.2619 28.345C33.2058 28.345 33.16 28.2569 33.16 28.1492C33.16 28.0415 33.1141 27.9534 33.0581 27.9534C33.002 27.9534 32.9561 27.8433 32.9561 27.7087C32.9561 27.574 32.9103 27.4639 32.8542 27.4639C32.7982 27.4639 32.7523 27.3097 32.7523 27.1213C32.7523 26.9328 32.7064 26.7787 32.6504 26.7787C32.5892 26.7787 32.5485 26.3871 32.5485 25.7997C32.5485 25.2613 32.5237 24.8208 32.4934 24.8208C32.3998 24.8208 31.6002 25.2288 31.4643 25.3461C31.3934 25.4072 31.194 25.5672 31.021 25.7018C30.8482 25.8364 30.5759 26.0567 30.4158 26.1913C30.2558 26.3259 30.0225 26.5021 29.8974 26.5829C29.7722 26.6636 29.6146 26.7803 29.5471 26.8421C29.2989 27.0694 28.1634 27.5618 27.8887 27.5612C27.3127 27.5601 26.8409 27.3531 26.3341 26.879C26.0524 26.6155 25.8219 26.3529 25.8219 26.2955C25.8219 26.1579 25.9065 26.1638 26.0805 26.3137C26.6507 26.8049 27.1137 27.009 27.6564 27.0084C28.1306 27.0078 28.9991 26.6512 29.4255 26.2819C29.5456 26.178 29.8961 25.8728 30.2044 25.6039C30.5127 25.335 30.8621 25.0309 30.981 24.928C31.0999 24.8252 31.3522 24.6647 31.5415 24.5714C31.731 24.4781 31.9089 24.375 31.937 24.3421C32.039 24.2224 32.7148 24.0141 33.2619 23.9337C33.6631 23.8746 34.0388 23.894 34.5841 24.0018C35.2182 24.1272 35.4144 24.1317 35.7561 24.0283C36.2422 23.8814 37.3222 23.3798 37.4967 23.22C37.5642 23.1582 37.7167 23.0428 37.8357 22.9636C37.9547 22.8844 38.052 22.7633 38.052 22.6944C38.052 22.6256 38.0979 22.5692 38.1539 22.5692C38.21 22.5692 38.2559 22.5031 38.2559 22.4224C38.2559 22.3416 38.3017 22.2755 38.3578 22.2755C38.4138 22.2755 38.4597 22.1874 38.4597 22.0797C38.4597 21.972 38.5056 21.8839 38.5616 21.8839C38.6221 21.8839 38.6635 21.525 38.6635 21.0029C38.6635 20.4808 38.705 20.1218 38.7655 20.1218C38.8215 20.1218 38.8674 20.254 38.8674 20.4155C38.8674 20.5771 38.9132 20.7092 38.9693 20.7092C39.0292 20.7092 39.0712 21.0518 39.0712 21.5413C39.0712 22.0308 39.0292 22.3734 38.9693 22.3734C38.9132 22.3734 38.8674 22.4835 38.8674 22.6181C38.8674 22.7528 38.8215 22.8629 38.7655 22.8629C38.7094 22.8629 38.6635 22.929 38.6635 23.0097C38.6635 23.0905 38.6177 23.1566 38.5616 23.1566C38.5056 23.1566 38.4597 23.213 38.4597 23.2818C38.4597 23.3507 38.3624 23.4718 38.2433 23.551C38.1244 23.6302 37.9718 23.7456 37.9044 23.8074C37.7259 23.9709 36.6228 24.4876 36.2856 24.5659L35.9969 24.6327L36.3154 24.8981C36.9757 25.4481 37.8482 26.2815 37.8482 26.3621C37.8482 26.478 38.7242 26.8766 38.9787 26.8766C39.093 26.8766 39.2813 26.8278 39.3971 26.7683C39.6778 26.624 40.4981 25.8313 40.4981 25.7044C40.4981 25.6492 40.5439 25.6039 40.6 25.6039C40.656 25.6039 40.7019 25.5158 40.7019 25.4081C40.7019 25.3005 40.7478 25.2123 40.8038 25.2123C40.8599 25.2123 40.9057 25.1242 40.9057 25.0166C40.9057 24.9089 40.9516 24.8208 41.0076 24.8208C41.0637 24.8208 41.1096 24.7106 41.1096 24.576C41.1096 24.4414 41.1554 24.3313 41.2115 24.3313C41.2675 24.3313 41.3134 24.1771 41.3134 23.9887C41.3134 23.8002 41.3593 23.646 41.4153 23.646C41.4714 23.646 41.5172 23.4038 41.5172 23.1076C41.5172 22.8115 41.5631 22.5692 41.6192 22.5692C41.6818 22.5692 41.7211 22.0797 41.7211 21.2966C41.7211 20.5134 41.6818 20.024 41.6192 20.024C41.5631 20.024 41.5172 19.8037 41.5172 19.5345C41.5172 19.2653 41.4714 19.045 41.4153 19.045C41.3593 19.045 41.3134 18.8908 41.3134 18.7024C41.3134 18.5139 41.2675 18.3597 41.2115 18.3597C41.1554 18.3597 41.1096 18.2496 41.1096 18.115C41.1096 17.9804 41.0637 17.8703 41.0076 17.8703C40.9516 17.8703 40.9057 17.7601 40.9057 17.6255C40.9057 17.4909 40.8599 17.3808 40.8038 17.3808C40.7478 17.3808 40.7019 17.2927 40.7019 17.185C40.7019 17.0773 40.656 16.9892 40.6 16.9892C40.5439 16.9892 40.4981 16.9231 40.4981 16.8424C40.4981 16.7616 40.4522 16.6955 40.3961 16.6955C40.3401 16.6955 40.2942 16.6295 40.2942 16.5487C40.2942 16.4679 40.2484 16.4019 40.1923 16.4019C40.1362 16.4019 40.0904 16.3358 40.0904 16.255C40.0904 16.1743 40.0445 16.1082 39.9885 16.1082C39.9324 16.1082 39.8866 16.0598 39.8866 16.0006C39.8866 15.9096 39.5573 15.5848 39.1126 15.2372C38.8314 15.0174 38.3375 14.8356 38.0218 14.8356C37.6756 14.8356 37.2367 15.102 37.2367 15.312C37.2367 15.373 37.1908 15.4229 37.1348 15.4229C37.0787 15.4229 37.0329 15.511 37.0329 15.6187C37.0329 15.7264 36.987 15.8145 36.9309 15.8145C36.8749 15.8145 36.829 15.9246 36.829 16.0592C36.829 16.1938 36.7832 16.304 36.7271 16.304C36.671 16.304 36.6252 16.3921 36.6252 16.4998C36.6252 16.6074 36.5793 16.6955 36.5233 16.6955C36.4672 16.6955 36.4213 16.7836 36.4213 16.8913C36.4213 16.999 36.3755 17.0871 36.3194 17.0871C36.2634 17.0871 36.2175 17.1532 36.2175 17.234C36.2175 17.3147 36.1716 17.3808 36.1156 17.3808C36.0595 17.3808 36.0137 17.4469 36.0137 17.5276C36.0137 17.6084 35.9678 17.6745 35.9118 17.6745C35.8557 17.6745 35.8098 17.7309 35.8098 17.7997C35.8098 17.8686 35.7181 17.9884 35.606 18.0661C35.4939 18.1437 35.4022 18.2538 35.4022 18.3108C35.4022 18.3678 35.3041 18.4792 35.1843 18.5584C35.0644 18.6376 34.8648 18.797 34.7406 18.9127C34.3142 19.31 33.1271 19.7771 32.8805 19.6445C32.7816 19.5914 32.863 19.5163 33.1588 19.3881C33.3888 19.2885 33.6623 19.1375 33.7667 19.0525C33.871 18.9677 34.0579 18.8321 34.182 18.7513C34.5533 18.5097 35.1983 17.8933 35.1983 17.78C35.1983 17.722 35.2442 17.6745 35.3003 17.6745C35.3563 17.6745 35.4022 17.6084 35.4022 17.5276C35.4022 17.4469 35.448 17.3808 35.5041 17.3808C35.5601 17.3808 35.606 17.3147 35.606 17.234C35.606 17.1532 35.6519 17.0871 35.7079 17.0871C35.764 17.0871 35.8098 16.999 35.8098 16.8913C35.8098 16.7836 35.8557 16.6955 35.9118 16.6955C35.9678 16.6955 36.0137 16.6074 36.0137 16.4998C36.0137 16.3921 36.0595 16.304 36.1156 16.304C36.1716 16.304 36.2175 16.1718 36.2175 16.0103C36.2175 15.8488 36.2634 15.7166 36.3194 15.7166C36.3755 15.7166 36.4213 15.5624 36.4213 15.374C36.4213 15.1855 36.4672 15.0313 36.5233 15.0313C36.5793 15.0313 36.6252 14.8992 36.6252 14.7377C36.6252 14.5761 36.5793 14.444 36.5233 14.444C36.4672 14.444 36.4213 14.386 36.4213 14.3152C36.4213 14.1255 35.7647 13.8581 35.2713 13.8468C35.035 13.8414 34.727 13.8051 34.5868 13.7662C34.3811 13.7088 34.4684 13.6718 35.0411 13.5737C35.853 13.4347 36.6071 13.5029 37.1434 13.7641C37.7345 14.0519 38.3082 14.0547 38.6479 13.7717C38.7686 13.6712 38.8674 13.517 38.8674 13.4291C38.8674 13.3412 38.9132 13.2692 38.9693 13.2692C39.03 13.2692 39.0712 12.894 39.0712 12.3392C39.0712 11.7845 39.03 11.4093 38.9693 11.4093C38.9132 11.4093 38.8674 11.233 38.8674 11.0177C38.8674 10.8023 38.8215 10.6261 38.7655 10.6261C38.7094 10.6261 38.6635 10.4939 38.6635 10.3324C38.6635 10.1709 38.6177 10.0387 38.5616 10.0387C38.5056 10.0387 38.4597 9.95063 38.4597 9.84294C38.4597 9.73526 38.4138 9.64716 38.3578 9.64716C38.3017 9.64716 38.2559 9.55905 38.2559 9.45137C38.2559 9.34368 38.21 9.25558 38.1539 9.25558C38.0979 9.25558 38.052 9.16747 38.052 9.05979C38.052 8.9521 38.0062 8.864 37.9501 8.864C37.8941 8.864 37.8482 8.79792 37.8482 8.71716C37.8482 8.63639 37.8023 8.57032 37.7463 8.57032C37.6902 8.57032 37.6444 8.52509 37.6444 8.46988C37.6444 8.31227 36.786 7.52784 36.4069 7.3388C36.0098 7.14086 34.5868 7.01693 34.5868 7.18032C34.5868 7.23759 34.4951 7.31247 34.383 7.34664C34.2709 7.3808 34.1792 7.47184 34.1792 7.54898C34.1792 7.62613 34.1333 7.68927 34.0772 7.68927C34.0212 7.68927 33.9753 7.7994 33.9753 7.93401C33.9753 8.06861 33.9295 8.17874 33.8734 8.17874C33.8173 8.17874 33.7715 8.42103 33.7715 8.71716C33.7715 9.01329 33.7256 9.25558 33.6696 9.25558C33.6135 9.25558 33.5677 9.43179 33.5677 9.64716C33.5677 9.86252 33.5218 10.0387 33.4657 10.0387C33.4097 10.0387 33.3638 10.1489 33.3638 10.2835C33.3638 10.4181 33.318 10.5282 33.2619 10.5282C33.2058 10.5282 33.16 10.6383 33.16 10.7729C33.16 10.9075 33.1141 11.0177 33.0581 11.0177C33.002 11.0177 32.9561 11.0838 32.9561 11.1645C32.9561 11.2453 32.9103 11.3114 32.8542 11.3114C32.7982 11.3114 32.7523 11.3774 32.7523 11.4582C32.7523 11.539 32.7064 11.605 32.6504 11.605C32.5943 11.605 32.5485 11.6711 32.5485 11.7519C32.5485 11.8326 32.5026 11.8987 32.4466 11.8987C32.3905 11.8987 32.3433 11.9537 32.3416 12.0211C32.34 12.0883 32.2007 12.2536 32.0323 12.3882C31.8637 12.5228 31.595 12.7431 31.435 12.8777C31.275 13.0123 31.043 13.1885 30.9195 13.2692C30.796 13.35 30.6117 13.4822 30.5101 13.5629C30.4085 13.6437 30.2237 13.7758 30.0996 13.8566C29.7283 14.0982 29.0833 14.7147 29.0833 14.8279C29.0833 14.886 29.0374 14.9334 28.9814 14.9334C28.9253 14.9334 28.8794 14.9995 28.8794 15.0803C28.8794 15.1611 28.8336 15.2271 28.7775 15.2271C28.7215 15.2271 28.6756 15.2932 28.6756 15.374C28.6756 15.4547 28.6297 15.5208 28.5737 15.5208C28.5176 15.5208 28.4718 15.6089 28.4718 15.7166C28.4718 15.8243 28.4259 15.9124 28.3698 15.9124C28.3138 15.9124 28.2679 16.0225 28.2679 16.1571C28.2679 16.2917 28.2221 16.4019 28.166 16.4019C28.11 16.4019 28.0641 16.556 28.0641 16.7445C28.0641 16.9329 28.0182 17.0871 27.9622 17.0871C27.9061 17.0871 27.8603 17.2633 27.8603 17.4787C27.8603 17.6941 27.8144 17.8703 27.7583 17.8703C27.7023 17.8703 27.6564 17.628 27.6564 17.3319C27.6564 17.0357 27.7023 16.7934 27.7583 16.7934C27.8144 16.7934 27.8603 16.5952 27.8603 16.3529C27.8603 16.1106 27.9061 15.9124 27.9622 15.9124C28.0182 15.9124 28.0641 15.8023 28.0641 15.6677C28.0641 15.5331 28.11 15.4229 28.166 15.4229C28.2221 15.4229 28.2679 15.3348 28.2679 15.2271C28.2679 15.1194 28.3138 15.0313 28.3698 15.0313C28.4259 15.0313 28.4718 14.9653 28.4718 14.8845C28.4718 14.8037 28.5176 14.7377 28.5737 14.7377C28.6297 14.7377 28.6756 14.6915 28.6756 14.6351C28.6756 14.5341 29.7249 13.5266 30.4812 12.9015C31.3078 12.2181 31.5293 12.0128 31.5293 11.93C31.5293 11.8828 31.621 11.7806 31.7331 11.7029C31.8452 11.6253 31.937 11.5055 31.937 11.4366C31.937 11.3677 31.9828 11.3114 32.0389 11.3114C32.0949 11.3114 32.1408 11.2453 32.1408 11.1645C32.1408 11.0838 32.1867 11.0177 32.2427 11.0177C32.2988 11.0177 32.3446 10.9075 32.3446 10.7729C32.3446 10.6383 32.3905 10.5282 32.4466 10.5282C32.5026 10.5282 32.5485 10.4181 32.5485 10.2835C32.5485 10.1489 32.5943 10.0387 32.6504 10.0387C32.7064 10.0387 32.7523 9.84049 32.7523 9.59821C32.7523 9.35592 32.7982 9.15768 32.8542 9.15768C32.9169 9.15768 32.9561 8.66821 32.9561 7.88506C32.9561 7.1019 32.9169 6.61243 32.8542 6.61243C32.7982 6.61243 32.7523 6.37014 32.7523 6.07401C32.7523 5.77788 32.7064 5.53559 32.6504 5.53559C32.5943 5.53559 32.5485 5.40343 32.5485 5.24191C32.5485 5.08039 32.5026 4.94823 32.4466 4.94823C32.3905 4.94823 32.3446 4.86012 32.3446 4.75244C32.3446 4.64476 32.2988 4.55665 32.2427 4.55665C32.1867 4.55665 32.1408 4.49057 32.1408 4.40981C32.1408 4.32905 32.0949 4.26297 32.0389 4.26297C31.9828 4.26297 31.937 4.20658 31.937 4.13776C31.937 4.06884 31.8452 3.94902 31.7331 3.87139C31.621 3.79376 31.5293 3.67394 31.5293 3.60502C31.5293 3.5362 31.4883 3.47981 31.4382 3.47981C31.388 3.47981 31.1993 3.35304 31.0188 3.19817C30.5124 2.76362 30.4637 2.72935 30.0929 2.54443C29.6593 2.32838 28.4605 2.24664 27.8917 2.39436C27.4741 2.50283 26.6372 3.15656 26.6372 3.37428C26.6372 3.43233 26.5914 3.47981 26.5353 3.47981C26.4793 3.47981 26.4334 3.56792 26.4334 3.6756C26.4334 3.78329 26.3875 3.87139 26.3315 3.87139C26.2692 3.87139 26.2296 4.32826 26.2296 5.04612C26.2296 5.76398 26.2692 6.22085 26.3315 6.22085C26.3875 6.22085 26.4334 6.33098 26.4334 6.46559C26.4334 6.60019 26.4793 6.71033 26.5353 6.71033C26.5914 6.71033 26.6372 6.82045 26.6372 6.95506C26.6372 7.08966 26.6831 7.1998 26.7392 7.1998C26.7952 7.1998 26.8411 7.26588 26.8411 7.34664C26.8411 7.4274 26.8161 7.49348 26.7855 7.49348C26.6855 7.49348 26.2296 7.01546 26.2296 6.91052C26.2296 6.85423 26.1837 6.80822 26.1277 6.80822C26.0716 6.80822 26.0257 6.74214 26.0257 6.66138C26.0257 6.58061 25.9799 6.51454 25.9238 6.51454C25.8678 6.51454 25.8219 6.40441 25.8219 6.2698C25.8219 6.1352 25.776 6.02506 25.72 6.02506C25.6639 6.02506 25.6181 5.87088 25.6181 5.68243C25.6181 5.49399 25.5722 5.33981 25.5161 5.33981C25.4601 5.33981 25.4142 5.16359 25.4142 4.94823C25.4142 4.73286 25.4601 4.55665 25.5161 4.55665C25.5722 4.55665 25.6181 4.38044 25.6181 4.16507C25.6181 3.9497 25.6639 3.77349 25.72 3.77349C25.776 3.77349 25.8219 3.66336 25.8219 3.52876C25.8219 3.39415 25.8678 3.28402 25.9238 3.28402C25.9799 3.28402 26.0257 3.21795 26.0257 3.13718C26.0257 3.05642 26.0716 2.99034 26.1277 2.99034C26.1837 2.99034 26.2296 2.92426 26.2296 2.8435C26.2296 2.76274 26.2754 2.69666 26.3315 2.69666C26.3875 2.69666 26.4334 2.5645 26.4334 2.40298C26.4334 2.24145 26.3875 2.10929 26.3315 2.10929C26.2754 2.10929 26.2296 2.04321 26.2296 1.96245C26.2296 1.88169 26.1837 1.81561 26.1277 1.81561C26.0716 1.81561 26.0257 1.7696 26.0257 1.71331C26.0257 1.5793 25.6158 1.1885 25.3109 1.03177C24.9781 0.860649 23.8319 0.860451 23.2485 1.03128C22.9822 1.1093 22.7644 1.20456 22.7644 1.24303C22.7644 1.2815 22.678 1.33925 22.5727 1.37136C22.3176 1.44919 21.949 1.76187 21.949 1.90049C21.949 1.96148 21.9032 2.0114 21.8471 2.0114C21.7911 2.0114 21.7452 2.07748 21.7452 2.15824C21.7452 2.239 21.6993 2.30508 21.6433 2.30508C21.5858 2.30508 21.5414 2.58242 21.5414 2.94139C21.5414 3.30037 21.4969 3.57771 21.4394 3.57771C21.382 3.57771 21.3375 3.85504 21.3375 4.21402C21.3375 4.573 21.382 4.85033 21.4394 4.85033C21.4955 4.85033 21.5414 5.02654 21.5414 5.24191C21.5414 5.45728 21.5872 5.63349 21.6433 5.63349C21.6993 5.63349 21.7452 5.7024 21.7452 5.78669C21.7452 5.87098 21.9785 6.1581 22.2635 6.42486L22.7819 6.90973L22.4674 7.19196C22.2944 7.34713 22.1529 7.54458 22.1529 7.63063C22.1529 7.71678 22.107 7.78716 22.0509 7.78716C21.9905 7.78716 21.949 8.14614 21.949 8.66821C21.949 9.19028 21.9905 9.54926 22.0509 9.54926C22.107 9.54926 22.1529 9.59527 22.1529 9.65156C22.1529 9.8543 22.6253 10.2016 23.0375 10.3022C23.3543 10.3794 23.6686 10.3692 24.3088 10.261C24.8066 10.1769 25.4554 10.1379 25.8729 10.1671C26.5837 10.2168 27.4526 10.422 27.4526 10.5401C27.4526 10.5744 27.5902 10.6571 27.7583 10.724C27.9265 10.7909 28.0641 10.8843 28.0641 10.9316C28.0641 11.0374 28.1204 11.043 27.4526 10.8708C26.6296 10.6587 25.0732 10.6804 24.3094 10.9148C23.6549 11.1156 23.3042 11.2719 23.1102 11.4492C23.0459 11.508 22.8958 11.6209 22.7769 11.7001C22.6579 11.7793 22.5605 11.8907 22.5605 11.9477C22.5605 12.0046 22.4688 12.1148 22.3567 12.1924C22.2446 12.27 22.1529 12.4339 22.1529 12.5567C22.1529 12.6793 22.107 12.7798 22.0509 12.7798C21.9949 12.7798 21.949 12.934 21.949 13.1224C21.949 13.3108 21.9032 13.465 21.8471 13.465C21.785 13.465 21.7452 13.9056 21.7452 14.5908C21.7452 15.2761 21.785 15.7166 21.8471 15.7166C21.9032 15.7166 21.949 15.9369 21.949 16.2061C21.949 16.4753 21.9949 16.6955 22.0509 16.6955C22.107 16.6955 22.1529 16.8497 22.1529 17.0382C22.1529 17.2266 22.1987 17.3808 22.2548 17.3808C22.3108 17.3808 22.3567 17.513 22.3567 17.6745C22.3567 17.836 22.4026 17.9682 22.4586 17.9682C22.5147 17.9682 22.5605 18.1003 22.5605 18.2619C22.5605 18.4234 22.6064 18.5555 22.6625 18.5555C22.7185 18.5555 22.7644 18.6436 22.7644 18.7513C22.7644 18.859 22.8102 18.9471 22.8663 18.9471C22.9223 18.9471 22.9682 19.0352 22.9682 19.1429C22.9682 19.2506 23.0141 19.3387 23.0701 19.3387C23.1262 19.3387 23.172 19.3852 23.172 19.442C23.172 19.5295 24.0645 20.4051 24.5292 20.7736C24.7715 20.9658 25.436 21.2555 26.0767 21.4483C26.7227 21.6426 28.4248 21.7055 29.44 21.5724C29.7203 21.5356 29.8611 21.5294 29.753 21.5584C29.6448 21.5876 29.4967 21.6686 29.424 21.7385C29.2118 21.9423 27.8912 22.1111 26.9947 22.0488C25.8913 21.9722 24.2671 21.4365 23.7179 20.9678C23.4124 20.7073 23.289 20.6238 22.9892 20.4748C22.3987 20.1816 21.949 20.3434 21.949 20.8491C21.949 20.9875 21.9032 21.1008 21.8471 21.1008C21.7816 21.1008 21.7452 22.0797 21.7452 23.8418C21.7452 25.6039 21.7816 26.5829 21.8471 26.5829C21.9032 26.5829 21.949 26.7811 21.949 27.0234C21.949 27.2657 21.9949 27.4639 22.0509 27.4639C22.107 27.4639 22.1529 27.574 22.1529 27.7087C22.1529 27.8433 22.1987 27.9534 22.2548 27.9534C22.3108 27.9534 22.3567 27.9994 22.3567 28.0557C22.3567 28.3023 22.8651 28.624 23.4369 28.7392C24.2333 28.8997 24.8244 29.0849 25.3271 29.3312C25.7593 29.543 26.6372 30.3235 26.6372 30.4961C26.6372 30.5513 26.6831 30.5965 26.7392 30.5965C26.7952 30.5965 26.8411 30.7287 26.8411 30.8902C26.8411 31.0517 26.8869 31.1839 26.943 31.1839C27.0029 31.1839 27.0449 31.5265 27.0449 32.016C27.0449 32.5055 27.0029 32.8481 26.943 32.8481C26.8869 32.8481 26.8411 32.6058 26.8411 32.3097C26.8411 32.0136 26.7952 31.7713 26.7392 31.7713C26.6831 31.7713 26.6372 31.6391 26.6372 31.4776C26.6372 31.3161 26.5914 31.1839 26.5353 31.1839C26.4793 31.1839 26.4334 31.1178 26.4334 31.0371C26.4334 30.9563 26.3875 30.8902 26.3315 30.8902C26.2754 30.8902 26.2296 30.8442 26.2296 30.7879C26.2296 30.6193 25.7769 30.2369 25.3005 30.0029C24.5143 29.6168 23.9139 29.5103 23.1975 29.6295C22.8471 29.6879 22.5605 29.7722 22.5605 29.8168C22.5605 29.8615 22.4688 29.9261 22.3567 29.9602C22.2446 29.9944 22.1529 30.0854 22.1529 30.1626C22.1529 30.2397 22.107 30.3029 22.0509 30.3029C21.9887 30.3029 21.949 30.7597 21.949 31.4776C21.949 32.1954 21.9887 32.6523 22.0509 32.6523C22.107 32.6523 22.1529 32.8285 22.1529 33.0439C22.1529 33.2593 22.1987 33.4355 22.2548 33.4355C22.3123 33.4355 22.3567 33.7128 22.3567 34.0718C22.3567 34.4308 22.3123 34.7081 22.2548 34.7081C22.1987 34.7081 22.1529 34.8403 22.1529 35.0018C22.1529 35.1633 22.107 35.2955 22.0509 35.2955C21.9949 35.2955 21.949 35.4276 21.949 35.5891C21.949 35.7507 21.9032 35.8828 21.8471 35.8828C21.7896 35.8828 21.7452 36.1602 21.7452 36.5191C21.7452 36.8781 21.7896 37.1555 21.8471 37.1555C21.9032 37.1555 21.949 37.3317 21.949 37.547C21.949 37.7624 21.9949 37.9386 22.0509 37.9386C22.107 37.9386 22.1529 38.0487 22.1529 38.1833C22.1529 38.3179 22.1987 38.4281 22.2548 38.4281C22.3108 38.4281 22.3567 38.5162 22.3567 38.6239C22.3567 38.7316 22.4026 38.8197 22.4586 38.8197C22.5147 38.8197 22.5605 38.8981 22.5605 38.9938C22.5605 39.0897 22.6523 39.2315 22.7644 39.3091C22.8765 39.3868 22.9682 39.489 22.9682 39.5362C22.9682 39.611 23.2348 39.8672 23.7146 40.2532C23.9691 40.4581 24.542 40.7086 25.0575 40.8406C25.7111 41.0079 25.8219 41.0058 25.8219 40.8265C25.8219 40.7457 25.776 40.6796 25.72 40.6796C25.6639 40.6796 25.6181 40.5475 25.6181 40.386C25.6181 40.2244 25.5722 40.0923 25.5161 40.0923C25.4601 40.0923 25.4142 39.894 25.4142 39.6518C25.4142 39.4095 25.4601 39.2112 25.5161 39.2112C25.5722 39.2112 25.6181 39.1011 25.6181 38.9665C25.6181 38.8319 25.6639 38.7218 25.72 38.7218C25.776 38.7218 25.8219 38.6557 25.8219 38.5749C25.8219 38.4942 25.8678 38.4281 25.9238 38.4281C25.9799 38.4281 26.0279 38.373 26.0304 38.3057C26.033 38.2384 26.205 38.0398 26.4126 37.8645C27.295 37.1191 27.4414 37.0013 27.6575 36.8618C27.7826 36.781 28.0573 36.5607 28.2679 36.3723C28.4786 36.1839 28.7482 35.9649 28.8671 35.8857C28.9859 35.8065 29.0833 35.6951 29.0833 35.6381C29.0833 35.5811 29.175 35.471 29.2871 35.3934C29.3992 35.3157 29.4909 35.1959 29.4909 35.127C29.4909 35.0582 29.5368 35.0018 29.5929 35.0018C29.6489 35.0018 29.6948 34.9357 29.6948 34.8549C29.6948 34.7742 29.7406 34.7081 29.7967 34.7081C29.8527 34.7081 29.8986 34.598 29.8986 34.4634C29.8986 34.3288 29.9445 34.2186 30.0005 34.2186C30.0566 34.2186 30.1024 34.0204 30.1024 33.7781C30.1024 33.5358 30.1483 33.3376 30.2044 33.3376C30.2604 33.3376 30.3063 33.2054 30.3063 33.0439C30.3063 32.8824 30.2604 32.7502 30.2044 32.7502C30.1483 32.7502 30.1024 32.5299 30.1024 32.2607C30.1024 31.9915 30.1483 31.7713 30.2044 31.7713C30.2604 31.7713 30.3063 31.9255 30.3063 32.1139C30.3063 32.3023 30.3521 32.4565 30.4082 32.4565C30.4694 32.4565 30.5101 32.8481 30.5101 33.4355C30.5101 34.0228 30.4694 34.4144 30.4082 34.4144C30.3521 34.4144 30.3063 34.5466 30.3063 34.7081C30.3063 34.9081 30.3566 35.0018 30.4643 35.0018C30.8686 35.0018 31.7331 35.6324 31.7331 35.9274C31.7331 36.0106 31.779 36.0786 31.835 36.0786C31.8911 36.0786 31.937 36.2108 31.937 36.3723C31.937 36.5338 31.8911 36.666 31.835 36.666C31.779 36.666 31.7331 36.5779 31.7331 36.4702C31.7331 36.3625 31.6873 36.2744 31.6312 36.2744C31.5752 36.2744 31.5293 36.2272 31.5293 36.1696C31.5293 35.9123 30.9683 35.5891 30.5216 35.5891C30.1715 35.5891 29.6948 35.772 29.6948 35.9062C29.6948 36.0069 29.0259 36.6357 28.6785 36.8618C28.5543 36.9425 28.3695 37.0747 28.2679 37.1555C28.1663 37.2362 27.982 37.3684 27.8585 37.4491C27.735 37.5299 27.5064 37.7061 27.3507 37.8407C27.1949 37.9753 26.9706 38.1503 26.8524 38.2295C26.7341 38.3086 26.6372 38.4297 26.6372 38.4987C26.6372 38.5675 26.5914 38.6239 26.5353 38.6239C26.4793 38.6239 26.4334 38.6899 26.4334 38.7707C26.4334 38.8515 26.3875 38.9176 26.3315 38.9176C26.2754 38.9176 26.2296 39.0057 26.2296 39.1133C26.2296 39.221 26.1837 39.3091 26.1277 39.3091C26.0716 39.3091 26.0257 39.5074 26.0257 39.7497C26.0257 39.9919 26.0716 40.1902 26.1277 40.1902C26.1837 40.1902 26.2296 40.2563 26.2296 40.337C26.2296 40.4178 26.2754 40.4839 26.3315 40.4839C26.3875 40.4839 26.4334 40.531 26.4334 40.5887C26.4334 40.8966 27.4451 41.3927 28.499 41.6018C29.3317 41.7671 29.3969 41.7693 30.1024 41.6579ZM29.8986 31.4776C29.8986 31.3699 29.9445 31.2818 30.0005 31.2818C30.0566 31.2818 30.1024 31.3699 30.1024 31.4776C30.1024 31.5853 30.0566 31.6734 30.0005 31.6734C29.9445 31.6734 29.8986 31.5853 29.8986 31.4776ZM33.5677 31.4776C33.5677 31.4237 33.6135 31.3797 33.6696 31.3797C33.7256 31.3797 33.7715 31.4237 33.7715 31.4776C33.7715 31.5314 33.7256 31.5755 33.6696 31.5755C33.6135 31.5755 33.5677 31.5314 33.5677 31.4776Z" fill="white"/>
<path d="M64.9165 38.0104C61.6657 38.0104 58.7119 37.2915 56.0551 35.8537C53.4294 34.3846 51.3665 32.3841 49.8661 29.8523C48.397 27.3204 47.6625 24.476 47.6625 21.319C47.6625 18.162 48.397 15.3176 49.8661 12.7858C51.3665 10.2539 53.4294 8.26911 56.0551 6.83128C58.7119 5.36219 61.6657 4.62764 64.9165 4.62764C68.1672 4.62764 71.0898 5.34656 73.6841 6.78439C76.3098 8.22223 78.3727 10.2227 79.8731 12.7858C81.3734 15.3176 82.1236 18.162 82.1236 21.319C82.1236 24.476 81.3734 27.336 79.8731 29.8991C78.3727 32.431 76.3098 34.4158 73.6841 35.8537C71.0898 37.2915 68.1672 38.0104 64.9165 38.0104ZM64.9165 34.9159C67.5108 34.9159 69.8551 34.3377 71.9494 33.1812C74.0436 31.9934 75.6846 30.368 76.8724 28.305C78.0602 26.2108 78.6541 23.8821 78.6541 21.319C78.6541 18.7559 78.0602 16.4429 76.8724 14.3799C75.6846 12.2857 74.0436 10.6603 71.9494 9.50377C69.8551 8.316 67.5108 7.72211 64.9165 7.72211C62.3221 7.72211 59.9622 8.316 57.8367 9.50377C55.7425 10.6603 54.0858 12.2857 52.8668 14.3799C51.679 16.4429 51.0851 18.7559 51.0851 21.319C51.0851 23.8821 51.679 26.2108 52.8668 28.305C54.0858 30.368 55.7425 31.9934 57.8367 33.1812C59.9622 34.3377 62.3221 34.9159 64.9165 34.9159Z" fill="white"/>
<path d="M116.181 4.90895L101.646 37.7291H98.2234L83.6888 4.90895H87.4397L100.005 33.4156L112.664 4.90895H116.181Z" fill="white"/>
<path d="M144.153 34.7284V37.7291H120.944V4.90895H143.449V7.90965H124.414V19.5842H141.386V22.5381H124.414V34.7284H144.153Z" fill="white"/>
<path d="M174.72 37.7291L167.218 27.1798C166.374 27.2735 165.499 27.3204 164.592 27.3204H155.778V37.7291H152.308V4.90895H164.592C168.781 4.90895 172.063 5.90919 174.438 7.90965C176.814 9.91012 178.002 12.6608 178.002 16.1616C178.002 18.7247 177.345 20.897 176.032 22.6787C174.751 24.4291 172.907 25.695 170.5 26.4765L178.517 37.7291H174.72ZM164.498 24.3666C167.749 24.3666 170.234 23.6477 171.953 22.2099C173.672 20.772 174.532 18.7559 174.532 16.1616C174.532 13.5047 173.672 11.473 171.953 10.0664C170.234 8.62857 167.749 7.90965 164.498 7.90965H155.778V24.3666H164.498Z" fill="white"/>
<path d="M186.191 4.90895H189.66V34.7284H208.039V37.7291H186.191V4.90895Z" fill="white"/>
<path d="M234.475 28.9614H216.189L212.251 37.7291H208.64L223.644 4.90895H227.067L242.07 37.7291H238.413L234.475 28.9614ZM233.209 26.1483L225.332 8.51917L217.455 26.1483H233.209Z" fill="white"/>
<path d="M274.928 4.90895V37.7291H272.068L250.969 11.0979V37.7291H247.499V4.90895H250.359L271.505 31.5401V4.90895H274.928Z" fill="white"/>
<path d="M285.64 4.90895H299.002C302.472 4.90895 305.535 5.61224 308.192 7.01882C310.849 8.39414 312.912 10.3321 314.381 12.8327C315.85 15.302 316.585 18.1308 316.585 21.319C316.585 24.5073 315.85 27.3517 314.381 29.8523C312.912 32.3216 310.849 34.2595 308.192 35.6661C305.535 37.0414 302.472 37.7291 299.002 37.7291H285.64V4.90895ZM298.815 34.7284C301.69 34.7284 304.207 34.1658 306.363 33.0405C308.52 31.884 310.192 30.3055 311.38 28.305C312.568 26.2733 313.162 23.9446 313.162 21.319C313.162 18.6934 312.568 16.3804 311.38 14.3799C310.192 12.3482 308.52 10.7697 306.363 9.64443C304.207 8.48791 301.69 7.90965 298.815 7.90965H289.109V34.7284H298.815Z" fill="white"/>
</svg>
