<svg width="40" height="32" viewBox="0 0 40 32" fill="none" xmlns="http://www.w3.org/2000/svg">
<path d="M13.334 15.2795L17.338 0.810516H8.329L3.051 13.9145C0.958 18.9195 0.594 20.6485 0.594 23.0145C0.594 28.2015 4.325 31.7505 9.421 31.7505C14.426 31.7505 18.157 28.2925 18.157 23.0145C18.157 19.2835 16.337 16.5535 13.334 15.2795ZM34.81 15.2795L38.814 0.810516H29.805L24.527 13.9145C22.434 18.9195 22.07 20.6485 22.07 23.0145C22.07 28.2015 25.801 31.7505 30.897 31.7505C35.902 31.7505 39.633 28.2925 39.633 23.0145C39.633 19.2835 37.813 16.5535 34.81 15.2795Z" fill="#A2C2C6"/>
</svg>
