<svg width="45" height="50" viewBox="0 0 45 50" fill="none" xmlns="http://www.w3.org/2000/svg">
<path d="M44.0743 38.2669C41.1418 39.3456 36.4855 40.5106 33.4446 41.2549L32.5015 41.4544C29.4864 42.118 26.4294 42.5757 23.3516 42.8244C21.3081 42.9944 19.2526 42.9619 17.2156 42.7273C14.51 42.4592 11.9081 41.5512 9.62685 40.0791C7.38287 38.6232 5.77858 36.3733 5.13865 33.785C4.57886 31.3703 4.53822 28.8651 5.0194 26.4337C5.5408 23.586 6.38644 20.8067 7.53995 18.1494C7.93466 17.2998 8.17156 16.3862 8.23919 15.4527C8.29909 14.8232 8.15451 14.1911 7.82669 13.6494C7.49887 13.1077 7.00509 12.6849 6.4179 12.4431C5.92521 12.2242 5.40859 12.0632 4.87847 11.9631C3.25231 11.6449 1.62616 11.8067 0 11.6071V11.6611C0.168036 11.7312 0.330651 11.8067 0.498687 11.8714C1.64625 12.2976 2.76361 12.8003 3.84315 13.3762C4.82439 13.86 5.69666 14.5371 6.40705 15.3664C6.73211 15.7302 6.93291 16.1872 6.98063 16.6718C7.02835 17.1563 6.92054 17.6434 6.67266 18.0631C6.0493 19.2173 5.46931 20.3985 4.92184 21.5904C3.49135 24.5878 2.42326 27.7434 1.73998 30.9912C1.30515 33.0136 1.22629 35.0958 1.5069 37.1451C1.8174 39.5199 3.02007 41.6897 4.87305 43.2181C6.29103 44.3394 7.93429 45.145 9.69189 45.5804C12.1176 46.1941 14.6158 46.4771 17.118 46.4218C18.6286 46.4455 20.1378 46.3172 21.6225 46.0389C23.8213 45.5624 25.9926 44.9683 28.1271 44.259C29.6232 43.7736 31.103 43.2504 32.5882 42.7327C35.9543 41.5245 40.7732 39.5398 44.1176 38.2669" fill="#D64E58"/>
<path d="M15.7024 16.5343C16.0092 16.1078 16.1729 15.6064 16.1729 15.0935C16.1729 14.4056 15.8788 13.746 15.3553 13.2596C14.8318 12.7732 14.1217 12.5 13.3814 12.5C12.8293 12.5 12.2895 12.6521 11.8305 12.9371C11.3714 13.2221 11.0136 13.6271 10.8023 14.101C10.5911 14.5749 10.5358 15.0963 10.6435 15.5994C10.7512 16.1025 11.0171 16.5646 11.4075 16.9273C11.7979 17.29 12.2953 17.537 12.8368 17.6371C13.3783 17.7372 13.9396 17.6858 14.4496 17.4895C14.9597 17.2932 15.3957 16.9608 15.7024 16.5343Z" fill="#2E325C"/>
<path d="M31.2959 30.9903C31.6026 30.5638 31.7663 30.0623 31.7663 29.5494C31.7663 28.8616 31.4722 28.2019 30.9487 27.7156C30.4252 27.2292 29.7152 26.9559 28.9748 26.9559C28.4227 26.9559 27.883 27.108 27.4239 27.393C26.9648 27.678 26.607 28.083 26.3958 28.5569C26.1845 29.0308 26.1292 29.5523 26.2369 30.0554C26.3446 30.5584 26.6105 31.0205 27.0009 31.3832C27.3913 31.7459 27.8887 31.993 28.4302 32.093C28.9717 32.1931 29.533 32.1417 30.0431 31.9454C30.5531 31.7491 30.9891 31.4167 31.2959 30.9903Z" fill="#2E325C"/>
<path d="M22.3868 15.4462C22.3868 15.9591 22.2231 16.4605 21.9164 16.887C21.6096 17.3135 21.1736 17.6459 20.6636 17.8422C20.1535 18.0385 19.5922 18.0899 19.0507 17.9898C18.5092 17.8897 18.0118 17.6427 17.6214 17.28C17.231 16.9173 16.9651 16.4552 16.8574 15.9521C16.7497 15.449 16.805 14.9276 17.0163 14.4537C17.2275 13.9798 17.5853 13.5748 18.0444 13.2898C18.5035 13.0048 19.0432 12.8527 19.5953 12.8527C20.3357 12.8527 21.0457 13.126 21.5692 13.6123C22.0927 14.0987 22.3868 14.7583 22.3868 15.4462Z" fill="#2E325C"/>
<path d="M15.8866 22.3073C16.1934 21.8808 16.3571 21.3794 16.3571 20.8665C16.3571 20.1787 16.063 19.519 15.5395 19.0326C15.016 18.5463 14.3059 18.273 13.5656 18.273C13.0135 18.273 12.4738 18.4251 12.0147 18.7101C11.5556 18.9951 11.1978 19.4001 10.9866 19.874C10.7753 20.3479 10.72 20.8694 10.8277 21.3724C10.9354 21.8755 11.2013 22.3376 11.5917 22.7003C11.9821 23.063 12.4795 23.31 13.021 23.4101C13.5625 23.5102 14.1238 23.4588 14.6339 23.2625C15.1439 23.0662 15.5799 22.7338 15.8866 22.3073Z" fill="#2E325C"/>
<path d="M31.5988 23.8179C31.5988 24.3308 31.4351 24.8322 31.1284 25.2587C30.8216 25.6852 30.3857 26.0176 29.8756 26.2139C29.3655 26.4102 28.8042 26.4615 28.2627 26.3615C27.7212 26.2614 27.2238 26.0144 26.8334 25.6517C26.443 25.289 26.1771 24.8269 26.0694 24.3238C25.9617 23.8207 26.017 23.2993 26.2283 22.8254C26.4396 22.3515 26.7974 21.9465 27.2564 21.6615C27.7155 21.3765 28.2552 21.2244 28.8073 21.2244C29.5477 21.2244 30.2577 21.4976 30.7812 21.984C31.3047 22.4704 31.5988 23.13 31.5988 23.8179Z" fill="#2E325C"/>
<path d="M25.0987 30.6842C25.4054 30.2577 25.5691 29.7563 25.5691 29.2434C25.5691 28.5555 25.275 27.8959 24.7515 27.4095C24.228 26.9231 23.518 26.6499 22.7776 26.6499C22.2255 26.6499 21.6858 26.802 21.2267 27.087C20.7677 27.372 20.4099 27.777 20.1986 28.2509C19.9873 28.7248 19.932 29.2462 20.0397 29.7493C20.1474 30.2524 20.4133 30.7145 20.8037 31.0772C21.1941 31.4399 21.6915 31.6869 22.233 31.787C22.7745 31.8871 23.3358 31.8357 23.8459 31.6394C24.356 31.4431 24.7919 31.1107 25.0987 30.6842Z" fill="#2E325C"/>
<path d="M19.5674 26.6758C19.5674 27.1888 19.4036 27.6902 19.0969 28.1167C18.7902 28.5432 18.3542 28.8756 17.8441 29.0719C17.334 29.2682 16.7727 29.3195 16.2312 29.2195C15.6897 29.1194 15.1923 28.8724 14.8019 28.5097C14.4115 28.147 14.1457 27.6849 14.0379 27.1818C13.9302 26.6787 13.9855 26.1573 14.1968 25.6834C14.4081 25.2095 14.7659 24.8044 15.2249 24.5195C15.684 24.2345 16.2237 24.0824 16.7758 24.0824C17.5162 24.0824 18.2262 24.3556 18.7497 24.842C19.2732 25.3284 19.5674 25.988 19.5674 26.6758Z" fill="#2E325C"/>
<path d="M23.6248 23.8894C23.9315 23.4629 24.0952 22.9614 24.0952 22.4485C24.0952 21.7607 23.8011 21.101 23.2776 20.6147C22.7541 20.1283 22.0441 19.855 21.3037 19.855C20.7516 19.855 20.2119 20.0071 19.7528 20.2921C19.2938 20.5771 18.936 20.9821 18.7247 21.456C18.5134 21.9299 18.4581 22.4514 18.5658 22.9545C18.6735 23.4576 18.9394 23.9197 19.3298 24.2824C19.7202 24.6451 20.2176 24.8921 20.7591 24.9921C21.3006 25.0922 21.8619 25.0408 22.372 24.8445C22.8821 24.6483 23.318 24.3159 23.6248 23.8894Z" fill="#2E325C"/>
<path d="M28.6119 18.2212C28.6119 18.7341 28.4482 19.2355 28.1414 19.662C27.8347 20.0885 27.3987 20.4209 26.8886 20.6172C26.3785 20.8135 25.8173 20.8649 25.2758 20.7648C24.7343 20.6647 24.2369 20.4177 23.8465 20.055C23.456 19.6923 23.1902 19.2302 23.0825 18.7271C22.9748 18.224 23.03 17.7026 23.2413 17.2287C23.4526 16.7548 23.8104 16.3498 24.2695 16.0648C24.7285 15.7798 25.2682 15.6277 25.8204 15.6277C26.5607 15.6277 27.2708 15.9009 27.7943 16.3873C28.3178 16.8737 28.6119 17.5333 28.6119 18.2212Z" fill="#2E325C"/>
<path d="M28.5247 48.5353C28.1488 49.0636 27.7844 49.5576 27.4404 50L27.3791 49.9458C27.7361 49.5024 28.1209 49.0292 28.5247 48.5353Z" fill="#2E325C"/>
<path d="M28.5247 48.5353C29.125 47.8012 29.7672 47.0215 30.4219 46.2267C32.1239 44.1604 33.9106 41.9913 35.2663 40.2513C36.2244 39.011 37.1936 37.7491 38.1182 36.4601C39.4626 34.6357 40.7028 32.7409 41.8335 30.7842C42.5618 29.4498 43.1442 28.0448 43.5713 26.5923C44.3814 24.2196 44.8555 21.7507 44.9805 19.2537C45.0825 17.4476 44.7843 15.6412 44.106 13.9569C43.1555 11.7373 41.3766 9.94949 39.1264 8.95255C37.1949 8.07916 35.1214 7.54033 32.9993 7.36028C29.5878 7.05486 26.151 7.14576 22.7616 7.63108C21.4136 7.79897 20.0768 8.00476 18.7455 8.25931C18.2588 8.36944 17.7489 8.32774 17.2879 8.14011C16.827 7.95248 16.4386 7.62846 16.1777 7.21404C15.5719 6.29068 15.1663 5.2568 14.9857 4.1757C14.7454 2.97569 14.5854 1.76176 14.5067 0.541594C14.5019 0.461657 14.4907 0.382741 14.4797 0.304402C14.4653 0.20228 14.451 0.10114 14.451 0H14.4009C14.2782 0.710864 14.081 1.40912 13.8839 2.10681C13.6336 2.99315 13.3835 3.87856 13.2869 4.78771C13.2182 5.32724 13.2182 5.87296 13.2869 6.41249C13.3465 7.04604 13.6144 7.64407 14.0507 8.11811C14.4871 8.59216 15.0688 8.91702 15.7098 9.04463C16.6513 9.24834 17.6221 9.2905 18.5784 9.16921C21.5502 8.85142 24.5496 8.86412 27.5184 9.2071C30.0712 9.45862 32.5397 10.2359 34.7595 11.4872C37.1196 12.8616 38.854 15.0572 39.611 17.6289C40.3791 20.2422 40.4917 22.9964 39.9396 25.6607C39.5554 27.6739 38.9696 29.6456 38.1906 31.5479C37.0144 34.4155 35.6392 37.2021 34.0744 39.8884C33.9673 40.0929 33.8577 40.2794 33.7472 40.4674C33.6967 40.5533 33.646 40.6396 33.5953 40.7279C32.2446 42.9228 30.2615 46.0949 28.5247 48.5353Z" fill="#2E325C"/>
</svg>
