<svg width="237" height="21" viewBox="0 0 237 21" fill="none" xmlns="http://www.w3.org/2000/svg">
<path d="M4.15385 20.5962V4.125H12.7788V20.5962H16.9038V0.403846H0V20.5962H4.15385Z" fill="white"/>
<path d="M23.9772 20.5962L25.9676 15.9231H34.5061L36.4965 20.5962H40.9099L32.2561 0.288461H28.2753L19.6215 20.5962H23.9772ZM30.2369 5.48077L33.1792 12.4904H27.2657L30.2369 5.48077Z" fill="white"/>
<path d="M47.7329 20.5962V12.6058H52.406C54.5695 12.6058 56.3003 12.0288 57.5406 10.9038C58.8099 9.77884 59.4445 8.30769 59.4445 6.49038C59.4445 4.67308 58.8099 3.23077 57.5406 2.10577C56.3003 0.98077 54.5695 0.403846 52.406 0.403846H43.5791V20.5962H47.7329ZM47.7329 4.03846H52.1176C54.1079 4.03846 55.2906 4.93269 55.2906 6.54808C55.2906 8.16346 54.1079 9.05769 52.1176 9.05769H47.7329V4.03846Z" fill="white"/>
<path d="M59.0816 20.4231C59.4855 20.5962 60.0624 20.6827 60.7836 20.6827C63.1778 20.6827 64.822 19.7885 65.774 18C66.7259 16.1827 67.2451 12.9231 67.3893 8.22115L67.5047 4.125H73.6201V20.5962H77.7451V0.403846H63.4951L63.4086 6.31731C63.3509 10.4135 63.1201 13.2115 62.7451 14.6827C62.3701 16.1538 61.649 16.9038 60.5528 16.9038C59.9759 16.9038 59.4855 16.8173 59.0816 16.6731V20.4231Z" fill="white"/>
<path d="M84.8246 20.5962L86.815 15.9231H95.3534L97.3438 20.5962H101.757L93.1034 0.288461H89.1227L80.4688 20.5962H84.8246ZM91.0842 5.48077L94.0265 12.4904H88.1131L91.0842 5.48077Z" fill="white"/>
<path d="M108.58 20.5962V6.77885L113.311 13.2692H115.619L120.263 6.77885V20.5962H124.359V0.403846H120.263L114.407 8.76923L108.551 0.403846H104.426V20.5962H108.58Z" fill="white"/>
<path d="M143.966 20.5962V16.875H132.976V11.6827H141.572V8.01923H132.976V4.125H143.649V0.403846H128.822V20.5962H143.966Z" fill="white"/>
<path d="M151.427 20.5962V11.7404H160.542V20.5962H164.667V0.403846H160.542V7.96154H151.427V0.403846H147.273V20.5962H151.427Z" fill="white"/>
<path d="M167.777 4.125H174.152V20.5962H178.306V4.125H184.71V0.403846H167.777V4.125Z" fill="white"/>
<path d="M203.821 21C205.523 21 207.11 20.6827 208.581 20.0769C210.052 19.4712 211.206 18.6923 212.042 17.7981V8.88462H207.888V15.8365C206.936 16.7308 205.581 17.1635 203.821 17.1635C201.975 17.1635 200.417 16.5577 199.177 15.375C197.936 14.1923 197.302 12.5769 197.302 10.5865C197.302 8.56731 197.936 6.95192 199.235 5.74038C200.533 4.5 202.206 3.89423 204.254 3.89423C206.244 3.89423 208.148 4.47115 210.023 5.625V1.52885C208.321 0.519231 206.302 0 203.965 0C200.821 0 198.196 0.980771 196.148 2.94231C194.1 4.90385 193.061 7.41346 193.061 10.5C193.061 13.5577 194.1 16.0673 196.148 18.0577C198.196 20.0192 200.763 21 203.821 21Z" fill="white"/>
<path d="M221.175 15.2308C219.992 13.9904 219.415 12.4038 219.415 10.5C219.415 8.59615 219.992 7.00962 221.175 5.76923C222.358 4.52885 223.858 3.89423 225.646 3.89423C227.435 3.89423 228.906 4.52885 230.088 5.76923C231.271 7.00962 231.877 8.59615 231.877 10.5C231.877 12.4038 231.271 13.9904 230.088 15.2308C228.906 16.4712 227.435 17.1058 225.646 17.1058C223.858 17.1058 222.358 16.4712 221.175 15.2308ZM215.175 10.5C215.175 13.4135 216.156 15.8942 218.146 17.9423C220.136 19.9904 222.646 21 225.646 21C228.646 21 231.127 19.9904 233.117 17.9423C235.108 15.8942 236.117 13.4135 236.117 10.5C236.117 7.55769 235.108 5.07692 233.117 3.05769C231.127 1.00962 228.646 0 225.646 0C222.646 0 220.136 1.00962 218.146 3.05769C216.156 5.07692 215.175 7.55769 215.175 10.5Z" fill="white"/>
</svg>
