<svg width="97" height="96" viewBox="0 0 97 96" fill="none" xmlns="http://www.w3.org/2000/svg">
<path d="M22.0085 58.014L18.6669 70.4888L6.45335 70.7472C2.80328 63.9771 0.73291 56.2313 0.73291 48C0.73291 40.0405 2.66866 32.5345 6.09991 25.9253H6.10253L16.976 27.9188L21.7393 38.727C20.7423 41.6335 20.199 44.7535 20.199 48C20.1993 51.5235 20.8376 54.8995 22.0085 58.014Z" fill="white"/>
<path d="M95.8941 39.0327C96.4454 41.9363 96.7328 44.935 96.7328 47.9997C96.7328 51.4362 96.3715 54.7883 95.6832 58.0218C93.3466 69.0248 87.241 78.6327 78.7831 85.4318L78.7805 85.4292L65.0847 84.7304L63.1463 72.6301C68.7586 69.3387 73.1446 64.1879 75.455 58.0218H49.7881V39.0327H75.8294H95.8941Z" fill="white"/>
<path d="M78.7806 85.4295L78.7832 85.4321C70.5574 92.0439 60.108 96 48.7332 96C30.4536 96 14.5609 85.7829 6.45361 70.7473L22.0088 58.0142C26.0624 68.8325 36.4984 76.5337 48.7332 76.5337C53.992 76.5337 58.9187 75.1121 63.1463 72.6303L78.7806 85.4295Z" fill="white"/>
<path d="M79.3713 11.0505L63.8214 23.781C59.4461 21.0461 54.2741 19.4662 48.7331 19.4662C36.2214 19.4662 25.5902 27.5207 21.7397 38.727L6.10272 25.9252H6.1001C14.0887 10.5231 30.1818 0 48.7331 0C60.3796 0 71.0583 4.14862 79.3713 11.0505Z" fill="white"/>
</svg>
