<svg xmlns="http://www.w3.org/2000/svg" width="32.264" height="49.862" viewBox="0 0 32.264 49.862">
  <path id="mouse" d="M19.132,0A16.149,16.149,0,0,0,3,16.132v17.6a16.132,16.132,0,1,0,32.264,0v-17.6A16.149,16.149,0,0,0,19.132,0Zm13.2,33.73a13.2,13.2,0,1,1-26.4,0v-17.6a13.2,13.2,0,0,1,26.4,0Zm-13.2-23.465a4.4,4.4,0,0,0-4.4,4.4v5.866a4.4,4.4,0,1,0,8.8,0V14.665A4.4,4.4,0,0,0,19.132,10.266ZM20.6,20.532a1.467,1.467,0,1,1-2.933,0V14.665a1.467,1.467,0,1,1,2.933,0Z" transform="translate(-3)" fill="#fff"/>
</svg>
