<svg width="79" height="16" viewBox="0 0 79 16" fill="none" xmlns="http://www.w3.org/2000/svg">
<g clip-path="url(#clip0)">
<path d="M43.4912 14.2807H54.1702V12.7551H45.0168V8.17844H52.6446V6.65287H45.0168V3.60174H54.1702V2.07617H43.4912V14.2807Z" fill="#212B36"/>
<path d="M48.0676 0.550781L46.542 2.07635L51.1187 0.550781H48.0676Z" fill="#212B36"/>
<path d="M69.426 12.7551V2.07617H67.9004V14.2807H78.5794V12.7551H69.426Z" fill="#212B36"/>
<path d="M60.2722 2.07617L54.1699 14.2807H55.6955L57.2211 11.2296H64.8489L66.3745 14.2807H67.9L61.7978 2.07617H60.2722ZM58.7466 9.704L60.2722 3.60174L63.3233 9.704H58.7466Z" fill="#212B36"/>
<path d="M38.9151 9.704C41.6115 8.95793 41.9799 5.87105 41.9662 5.1273C41.8053 2.94703 39.935 2.07617 37.3895 2.07617H29.7617V14.2807H31.2873V9.704H35.864L40.4407 14.2807H41.9662C41.9661 14.2807 39.9665 11.3618 38.9151 9.704ZM37.3895 8.17844H31.2873V3.60174H37.3895C38.699 3.60174 38.6498 4.32204 38.9151 5.1273C39.0906 5.6793 39.2055 6.15954 38.9151 6.65287C38.4398 7.46849 38.2868 8.17844 37.3895 8.17844Z" fill="#212B36"/>
<path d="M20.6073 0.550781C16.07 0.550781 12.9795 3.96683 12.9795 8.17861C12.9795 12.6126 16.3936 15.8064 20.6073 15.8064C24.8182 15.8064 28.2352 12.6573 28.2352 8.17861C28.2352 3.96683 25.1022 0.550781 20.6073 0.550781ZM20.6073 14.2809C17.4682 14.2809 14.5051 11.4841 14.5051 8.17861C14.5051 4.87765 17.2244 2.07635 20.6073 2.07635C23.9065 2.07635 26.7096 4.87765 26.7096 8.17861C26.7096 11.484 23.7451 14.2809 20.6073 14.2809Z" fill="#212B36"/>
<path d="M8.40332 6.65287H9.92889L11.4545 2.07617H9.92889L8.40332 6.65287Z" fill="#212B36"/>
<path d="M2.30096 12.7551V2.07617H0.775391V14.2807H11.4544V12.7551H2.30096Z" fill="#212B36"/>
</g>
<defs>
<clipPath id="clip0">
<rect width="77.8039" height="15.2557" fill="white" transform="translate(0.775391 0.550781)"/>
</clipPath>
</defs>
</svg>
