<svg width="90" height="36" viewBox="0 0 90 36" fill="none" xmlns="http://www.w3.org/2000/svg">
<g clip-path="url(#clip0)">
<path d="M5.53666 32.909C8.71705 32.1724 11.7951 31.3834 17.7412 31.3834C22.3409 31.3834 31.0258 32.5547 42.1502 34.4345C47.9419 35.4141 53.9878 35.9601 60.457 35.9601C77.5953 35.9601 84.1955 31.8238 87.9172 29.8578H89.4428V5.44877L87.9172 6.97433C87.3221 7.25261 85.8074 6.65816 84.8661 6.97433C84.8661 5.20391 84.8661 0.87207 84.8661 0.87207L83.3405 2.39764C79.8773 4.01643 72.2582 5.44877 63.5082 5.44877C53.8325 5.44877 45.7609 5.29647 39.0991 3.9232C30.5764 2.16742 23.8101 0.87207 16.2156 0.87207C13.7752 0.87207 4.1126 3.35527 0.959961 5.44877V29.8578C0.959961 29.8578 1.52256 30.2653 2.48553 29.8578C3.4216 29.4615 5.13672 28.3995 5.53666 28.3323V32.909Z" fill="white"/>
<path d="M87.9175 6.97412C87.2346 7.29825 86.069 8.10234 84.8664 8.49969V25.2809C79.9216 28.1773 70.8517 31.3832 61.9829 31.3832C50.6498 31.3832 44.79 29.3349 39.0994 28.332C30.793 26.8687 22.787 26.8065 17.7415 26.8065C14.207 26.8065 10.2423 27.7023 7.0625 28.332V31.3832C9.86433 30.7705 12.5314 29.8576 17.7415 29.8576C23.4183 29.8576 33.8398 31.481 42.1505 32.9087C48.5578 34.008 54.8881 34.4343 60.4573 34.4343C77.4431 34.4343 84.3982 30.2186 87.9175 28.332V6.97412Z" fill="#004394"/>
<path d="M2.48535 5.44859C5.30121 3.58797 13.7722 2.39746 16.2154 2.39746C24.7137 2.39746 31.7396 3.93759 39.0989 5.44859C45.692 6.80122 53.4036 6.97416 63.508 6.97416C72.9843 6.97416 81.6722 3.88423 84.8659 2.39746V25.281C80.2936 27.9066 70.5691 29.8577 61.9824 29.8577C51.6358 29.8577 45.6264 29.4312 39.0989 28.3321C30.6575 26.9111 23.5066 25.281 17.741 25.281C12.4776 25.281 5.02391 27.0695 2.48535 28.3321C2.48535 28.5173 2.48535 5.44859 2.48535 5.44859Z" fill="#E20015"/>
<path d="M68.0853 11.5511C67.0198 11.5511 65.8553 12.485 65.0342 13.0767C65.0356 13.0604 65.0342 13.093 65.0342 13.0767C65.0391 12.6627 65.5352 11.5511 65.0342 11.5511H61.9831C61.9291 12.4697 62.4658 13.4146 61.9831 16.1278C61.3499 19.6944 60.7019 21.3759 60.4575 22.2301H63.5086C63.5808 21.2716 64.8768 20.1285 65.0342 19.179V14.6023C65.51 14.0953 65.8048 13.0767 66.5598 13.0767C67.2225 13.0767 68.0853 13.9421 68.0853 14.6023C68.0853 14.7351 68.107 14.4727 68.0853 14.6023L66.5598 19.179C66.4789 19.6558 66.5598 20.2294 66.5598 20.7045C66.5598 21.7445 67.0477 22.2301 68.0853 22.2301C68.5019 22.2301 69.1934 22.2782 69.6109 22.2301C69.5926 22.1225 69.6109 20.8129 69.6109 20.7045C69.6109 20.156 69.5135 19.7185 69.6109 19.179L71.1365 14.6023C71.1904 14.2991 71.1365 14.9095 71.1365 14.6023C71.1365 13.0643 69.5648 11.5511 68.0853 11.5511ZM78.7643 11.5511C77.6988 11.5511 76.5351 12.485 75.7132 13.0767C75.7159 13.0604 75.7132 13.0946 75.7132 13.0767C75.7166 12.6643 76.2168 11.5511 75.7132 11.5511H72.662C72.6089 12.4697 73.1873 12.8376 72.662 16.1278C72.1375 19.4181 71.3835 21.2749 71.1365 22.2301H74.1876C74.2598 21.2716 75.5575 20.1285 75.7132 19.179V14.6023C76.1889 14.0953 76.4846 13.0767 77.2387 13.0767C77.9024 13.0767 78.7643 13.9421 78.7643 14.6023C78.7643 14.7351 78.786 14.4727 78.7643 14.6023L77.2387 19.179C77.157 19.6558 77.2387 20.2294 77.2387 20.7045C77.2387 21.7445 77.7266 22.2301 78.7643 22.2301C79.1826 22.2301 79.875 22.279 80.2898 22.2301C80.2742 22.1209 80.2898 20.8129 80.2898 20.7045C80.2898 20.156 80.1898 19.7185 80.2898 19.179L81.8154 14.6023C81.8685 14.2991 81.8154 14.9095 81.8154 14.6023C81.8154 13.0643 80.2446 11.5511 78.7643 11.5511ZM46.7274 11.5511C45.6393 11.5511 44.4625 12.3709 43.6763 13.0767C43.3518 12.2331 41.5236 11.5511 40.6251 11.5511C39.5684 11.5511 38.3855 12.4614 37.574 13.0767C37.5768 13.0596 37.574 13.093 37.574 13.0767C37.5819 12.6651 38.0724 11.5511 37.574 11.5511H36.0484C36.0067 12.706 34.9273 13.7276 34.5229 16.1278C34.0054 19.2013 33.2617 21.7158 32.9973 22.2301H37.574C37.607 21.3319 37.42 20.0665 37.574 19.179V14.6023C37.9576 14.2306 38.5307 13.0767 39.0996 13.0767C39.5901 13.0767 40.6251 14.1092 40.6251 14.6023C40.6251 15.0758 40.7034 15.6616 40.6251 16.1278C40.2972 18.0611 39.4927 20.3058 39.0996 22.2301H42.1507C42.2098 21.3336 41.9994 20.0682 42.1507 19.179L43.6763 14.6023C44.0503 14.2265 44.6356 13.0767 45.2018 13.0767C45.695 13.0767 46.7274 14.1051 46.7274 14.6023C46.7274 14.7522 46.7498 14.4523 46.7274 14.6023L45.2018 19.179C45.154 19.4936 45.2018 20.3867 45.2018 20.7045C45.2018 21.751 45.7106 22.2301 46.7274 22.2301C47.164 22.2301 47.8198 22.2817 48.253 22.2301C48.2313 22.1233 48.253 20.8146 48.253 20.7045C48.253 20.1617 48.1747 19.7144 48.253 19.179V16.1278C48.3408 15.5288 49.7785 15.2103 49.7785 14.6023C49.7785 13.211 48.1234 11.5511 46.7274 11.5511ZM34.5229 11.5511C34.2063 11.4109 33.3504 11.5511 32.9973 11.5511C31.6909 11.5511 32.3258 12.313 31.4717 13.0767C31.5526 12.6089 30.5681 11.5511 29.9462 11.5511H28.4206C28.485 11.8926 28.4206 12.7328 28.4206 13.0767C28.4206 13.6505 28.6215 14.964 28.4206 16.1278C28.017 18.4661 27.2873 21.054 26.895 22.2301H29.9462C29.9853 21.3336 29.4452 20.1352 29.9462 17.6534C30.2402 16.2002 31.7674 14.6023 32.9973 14.6023C33.3452 14.6023 34.2254 14.4303 34.5229 14.6023V11.5511ZM23.8439 11.5511C22.7071 11.5511 21.6547 12.4035 20.7928 13.0767C20.9615 12.2812 20.7928 10.4861 20.7928 10.0256C20.7928 9.61887 21.2111 8.5 20.7928 8.5H17.7416C17.6851 9.39898 17.913 10.6644 17.7416 11.5511L16.2161 19.179C16.036 20.1171 16.5109 21.3189 16.2161 22.2301H19.2672C19.4307 19.8013 20.3788 17.0017 20.7928 14.6023C21.2546 14.1956 21.6643 13.0767 22.3183 13.0767C22.8611 13.0767 22.3183 14.0472 22.3183 14.6023C22.3183 14.7408 22.3401 14.4645 22.3183 14.6023V19.179C22.2671 19.4944 22.3183 20.3842 22.3183 20.7045C22.3183 21.7437 22.8071 22.2301 23.8439 22.2301C24.2623 22.2301 24.9555 22.2798 25.3695 22.2301C25.3469 22.103 25.3695 20.8146 25.3695 20.7045C25.3695 20.1568 25.2782 19.7201 25.3695 19.179V14.6023C25.4121 14.3545 25.3695 14.8525 25.3695 14.6023C25.3695 13.2069 25.2268 11.5511 23.8439 11.5511ZM55.8808 19.179C55.4946 19.6998 55.071 20.7045 54.3552 20.7045C53.575 20.7045 52.8297 19.734 52.8297 19.179C52.8297 17.7355 53.8768 13.0767 55.8808 13.0767C56.3357 13.0767 57.0141 12.8844 57.4064 13.0767L55.8808 19.179ZM58.9319 17.6534C59.5034 14.7649 59.9295 13.1991 60.4575 11.5511C59.4164 11.503 58.1222 12.8273 57.4064 13.0767C56.8114 12.8607 56.5314 11.5511 55.8808 11.5511C52.1869 11.5511 49.7785 16.0036 49.7785 19.179C49.7785 20.9973 50.7648 22.2301 52.8297 22.2301C53.9282 22.2301 55.1989 21.3451 55.8808 20.7045C55.8808 21.3223 56.5975 22.2301 57.4064 22.2301H58.9319C58.8493 21.8935 58.9319 21.0517 58.9319 20.7045C58.9319 20.3003 58.4405 20.1417 58.9319 17.6534ZM13.1649 10.0256C13.8468 10.0256 15.662 11.1485 16.2161 11.5511V10.0256C15.3132 9.50802 14.4192 8.5 13.1649 8.5C11.2836 8.5 8.58824 9.5918 8.58824 11.5511C8.58824 12.3181 9.42582 14.1833 10.1138 14.6023C7.01829 15.3977 5.53711 15.9003 5.53711 17.6534C5.53711 20.0944 6.79737 22.2301 10.1138 22.2301C12.5657 22.2301 14.9741 20.3381 14.6905 17.6534C13.7381 18.5434 13.3015 20.7045 11.6394 20.7045C9.99464 20.7045 8.58824 18.7643 8.58824 17.6534C8.58824 15.2825 12.5761 14.4898 14.6905 14.6023V13.0767C14.5209 13.0922 14.7923 13.0767 14.6905 13.0767C13.4841 13.0767 11.6394 12.6196 11.6394 11.5511C11.6394 10.5829 12.236 10.0256 13.1649 10.0256Z" fill="white"/>
</g>
<defs>
<clipPath id="clip0">
<rect width="88.4828" height="35.088" fill="white" transform="translate(0.959961 0.87207)"/>
</clipPath>
</defs>
</svg>
