<svg width="46" height="35" viewBox="0 0 46 35" fill="none" xmlns="http://www.w3.org/2000/svg">
<path d="M42.6182 0.499996C44.5394 5.45605 45.5 10.3757 45.5 15.2588C45.5 20.8708 43.9483 25.4625 40.8448 29.0338C37.7414 32.6779 33.197 34.5 27.2118 34.5L27.2118 25.9727C31.2759 25.9727 33.3079 23.2396 33.3079 17.7733L33.3079 16.5707L25.3276 16.5707L25.3276 0.499998L42.6182 0.499996ZM17.7906 0.499999C19.6379 5.23741 20.5616 10.157 20.5616 15.2588C20.5616 20.8708 19.0468 25.4625 16.0172 29.0338C12.9138 32.6779 8.36946 34.5 2.38424 34.5L2.38424 25.9727C6.44828 25.9727 8.4803 23.2396 8.4803 17.7733L8.4803 16.5707L0.500002 16.5707L0.500001 0.5L17.7906 0.499999Z" fill="#E0B2DB"/>
</svg>
