<svg xmlns="http://www.w3.org/2000/svg" viewBox="0 0 760 760" width="760" height="760" preserveAspectRatio="xMidYMid meet" style="width: 100%; height: 100%; transform: translate3d(0px, 0px, 0px);"><defs><clipPath id="__lottie_element_695"><rect width="760" height="760" x="0" y="0"></rect></clipPath></defs><g clip-path="url(#__lottie_element_695)"><g transform="matrix(0,0,0,0,344,348)" opacity="1" style="display: block;"><g opacity="1" transform="matrix(1,0,0,1,189.6909942626953,-1.996000051498413)"><path fill="rgb(209,240,246)" fill-opacity="1" d=" M82,-104 C-39.391998291015625,-216.71099853515625 -146.6909942626953,-233.00399780273438 -258,-160 C-336.9989929199219,-120.69100189208984 -357.6910095214844,2.996000051498413 -313,102 C-288.2049865722656,156.92799377441406 -216.6909942626953,264.99700927734375 -119,302.0010070800781 C-86.0739974975586,314.4729919433594 64.36900329589844,372.4490051269531 181,289 C238.3090057373047,247.99600219726562 227.30799865722656,117.99600219726562 210,76 C190.08099365234375,27.670000076293945 142.3090057373047,-48.00400161743164 82,-104z"></path></g></g><g transform="matrix(1,0,0,1,201.5850067138672,472.21600341796875)" opacity="1" style="display: block;"><g opacity="1" transform="matrix(1,0,0,1,175.53599548339844,76.08399963378906)"><path fill="rgb(168,214,223)" fill-opacity="1" d=" M35.512001037597656,73.04399871826172 C98.052001953125,73.04399871826172 132.96099853515625,34.7859992980957 147.3159942626953,25.79800033569336 C153.7740020751953,22.113000869750977 157.33200073242188,17.393999099731445 162.3419952392578,13.39799976348877 C171.01699829101562,6.479000091552734 171.09100341796875,-0.9160000085830688 172.80999755859375,-8.392999649047852 C175.28700256347656,-19.170000076293945 172.2830047607422,-29.77400016784668 163.26400756835938,-39.959999084472656 C157.72300720214844,-46.21699905395508 147.2169952392578,-50.5359992980957 136.52099609375,-54.553001403808594 C111.13899993896484,-64.08300018310547 82.72000122070312,-69.4020004272461 52.15700149536133,-72.28800201416016 C14.605999946594238,-75.83300018310547 -22.378000259399414,-74.86499786376953 -59.63100051879883,-73.74199676513672 C-89.71199798583984,-72.83399963378906 -115.79299926757812,-67.52799987792969 -140.44900512695312,-60.07600021362305 C-152.38999938964844,-56.46799850463867 -158.9199981689453,-50.66400146484375 -164.0970001220703,-44.27000045776367 C-175.28599548339844,-30.452999114990234 -174.5019989013672,-16.16900062561035 -166.80799865722656,-1.6150000095367432 C-162.79400634765625,5.980000019073486 -158.9949951171875,13.675999641418457 -153.15499877929688,20.98200035095215 C-143.447998046875,33.124000549316406 -116.55899810791016,75.83399963378906 -3.3289999961853027,72.6989974975586 C-3.3289999961853027,72.6989974975586 35.512001037597656,73.04399871826172 35.512001037597656,73.04399871826172z"></path></g></g><g transform="matrix(1,0,0,1,176.5240020751953,174.30899047851562)" opacity="1" style="display: block;"><g opacity="1" transform="matrix(1,0,0,1,185.62399291992188,377.9859924316406)"><path fill="rgb(81,139,142)" fill-opacity="1" d=" M-73.64299774169922,-23.39299964904785 C-73.64299774169922,-23.39299964904785 -74.63800048828125,-1.9170000553131104 -67.23100280761719,4.211999893188477 C-59.823001861572266,10.342000007629395 -19.701000213623047,22.920000076293945 -1.0740000009536743,23.155000686645508 C17.7549991607666,23.39299964904785 43.92399978637695,15.996999740600586 47.32899856567383,14.107999801635742 C50.731998443603516,12.218999862670898 74.63899993896484,-7.2769999504089355 74.63899993896484,-7.2769999504089355 C74.63899993896484,-7.2769999504089355 -73.64299774169922,-23.39299964904785 -73.64299774169922,-23.39299964904785z"></path></g><g opacity="1" transform="matrix(1,0,0,1,207.6490020751953,277.60198974609375)"><path fill="rgb(112,160,162)" fill-opacity="1" d=" M-52.95399856567383,97.80999755859375 C-25.732999801635742,102.74099731445312 -4.484000205993652,102.5270004272461 19.94300079345703,99.21299743652344 C62.65399932861328,93.41899871826172 96.25499725341797,78.68699645996094 126.21199798583984,58.060001373291016 C156.16900634765625,37.43199920654297 171.67799377441406,19.384000778198242 185.4600067138672,-6.864999771118164 C199.31399536132812,-33.24800109863281 199.39199829101562,-39.52299880981445 199.39199829101562,-39.52299880981445 C199.39199829101562,-39.52299880981445 137.49899291992188,24.64299964904785 17.40999984741211,32.06100082397461 C-102.67900085449219,39.47999954223633 -134.12600708007812,3.486999988555908 -146.73800659179688,-8.640000343322754 C-177.27200317382812,-37.99800109863281 -199.39199829101562,-102.74099731445312 -199.39199829101562,-102.74099731445312 C-199.39199829101562,-102.74099731445312 -181.96299743652344,2.681999921798706 -135.42999267578125,51.862998962402344 C-104.21700286865234,84.85099792480469 -52.95399856567383,97.80999755859375 -52.95399856567383,97.80999755859375z"></path></g><g opacity="1" transform="matrix(1,0,0,1,214.13999938964844,163.68600463867188)"><path fill="rgb(85,142,145)" fill-opacity="1" d=" M-208.5749969482422,-41.32500076293945 C-176.78599548339844,-92.35099792480469 -112.62999725341797,-144.41600036621094 -31.86199951171875,-154.5030059814453 C39.65700149536133,-163.43499755859375 110.14199829101562,-138.4669952392578 145.66400146484375,-102.5270004272461 C184.84300231933594,-62.8849983215332 213.89100646972656,1.187000036239624 207.36599731445312,39.97700119018555 C200.84100341796875,78.76599884033203 171.55999755859375,103.02300262451172 128.59800720214844,121.07099914550781 C72.57099914550781,144.60899353027344 22.55500030517578,163.43499755859375 -60.316001892089844,148.8679962158203 C-138.41099548339844,135.14199829101562 -174.08399963378906,110.6969985961914 -197.8090057373047,43.07400131225586 C-213.88999938964844,-2.760999917984009 -208.5749969482422,-41.32500076293945 -208.5749969482422,-41.32500076293945z"></path></g></g><g transform="matrix(1,0,0,1,203.29299926757812,224.45401000976562)" opacity="1" style="display: block;"><g opacity="1" transform="matrix(1,0,0,1,189.0570068359375,130.33099365234375)"><path fill="rgb(250,244,116)" fill-opacity="1" d=" M-137.9510040283203,-88.75900268554688 C-107.90899658203125,-106.78399658203125 -64.27400207519531,-130.08099365234375 -1.5889999866485596,-123.01300048828125 C61.09700012207031,-115.94499969482422 83.02400207519531,-112.52899932861328 127.9990005493164,-79.60800170898438 C161.39100646972656,-55.16699981689453 181.4239959716797,-13.218000411987305 184.58900451660156,8.746999740600586 C188.80799865722656,38.013999938964844 186.45399475097656,52.22999954223633 131.23300170898438,85.09400177001953 C76.01200103759766,117.95700073242188 -15.647000312805176,130.0800018310547 -64.71600341796875,115.45800018310547 C-107.66000366210938,102.66000366210938 -151.6790008544922,75.73999786376953 -169.6280059814453,29.871000289916992 C-188.8070068359375,-19.141000747680664 -177.36300659179688,-65.11199951171875 -137.9510040283203,-88.75900268554688z"></path></g></g><g transform="matrix(1,0,0,1,354.6919860839844,191.55599975585938)" opacity="1" style="display: block;"><g opacity="1" transform="matrix(1,0,0,1,91.73699951171875,150.27200317382812)"><path fill="rgb(249,172,89)" fill-opacity="1" d=" M91.73699951171875,-34.92399978637695 C58.85100173950195,-41.97100067138672 33.01300048828125,-43.145999908447266 11.87399959564209,-39.62200164794922 C-9.267000198364258,-36.0989990234375 -49.19900131225586,-29.052000045776367 -64.46600341796875,-18.48200035095215 C-79.73400115966797,-7.9120001792907715 -93.8280029296875,1.4839999675750732 -91.47899627685547,13.227999687194824 C-89.12999725341797,24.972999572753906 -70.33899688720703,37.891998291015625 -51.547000885009766,40.242000579833984 C-32.75600051879883,42.59000015258789 -1.0449999570846558,42.59000015258789 18.92099952697754,33.194000244140625 C38.8849983215332,23.798999786376953 65.89800262451172,5.006999969482422 70.59600067138672,-3.2139999866485596 C75.29499816894531,-11.4350004196167 91.73699951171875,-34.92399978637695 91.73699951171875,-34.92399978637695z"></path></g><g opacity="1" transform="matrix(1,0,0,1,213.25900268554688,57.79899978637695)"><path fill="rgb(209,180,139)" fill-opacity="1" d=" M84.13700103759766,-52.85200119018555 C89.38999938964844,-47.599998474121094 85.31099700927734,-36.409000396728516 85.31099700927734,-36.409000396728516 C85.31099700927734,-36.409000396728516 67.7959976196289,-19.38599967956543 59.57400131225586,-13.513999938964844 C51.354000091552734,-7.642000198364258 34.09600067138672,2.7679998874664307 19.05699920654297,15.847999572753906 C2.7639999389648438,30.020000457763672 -9.92300033569336,36.733001708984375 -17.058000564575195,46.09000015258789 C-23.871999740600586,55.025001525878906 -29.76799964904785,57.54999923706055 -29.78499984741211,57.54800033569336 C-30.211000442504883,57.507999420166016 -73.53399658203125,49.91400146484375 -89.38899993896484,50.79499816894531 C-62.37699890136719,44.92300033569336 -54.45000076293945,44.62900161743164 -43.880001068115234,38.75699996948242 C-33.308998107910156,32.88399887084961 -22.739999771118164,19.672000885009766 -8.645999908447266,6.752999782562256 C5.447999954223633,-6.165999889373779 48.191001892089844,-37.696998596191406 48.191001892089844,-37.696998596191406 C48.191001892089844,-37.696998596191406 79.44000244140625,-57.54999923706055 84.13700103759766,-52.85200119018555z"></path></g></g><g transform="matrix(1,0,0,1,284.1839904785156,366.5450134277344)" opacity="1" style="display: block;"><g opacity="1" transform="matrix(1,0,0,1,35.58300018310547,35.30500030517578)"><path fill="rgb(255,255,255)" fill-opacity="1" d=" M20.2450008392334,16.434999465942383 C22.570999145507812,14.008999824523926 24.948999404907227,11.63599967956543 27.29199981689453,9.227999687194824 C28.503999710083008,7.982999801635742 29.708999633789062,6.730999946594238 30.891000747680664,5.456999778747559 C31.826000213623047,4.449999809265137 33.92599868774414,2.8540000915527344 34.369998931884766,1.559999942779541 C35.33399963378906,-1.253000020980835 29.90999984741211,-4.5289998054504395 28.27899932861328,-6.348999977111816 C20.834999084472656,-14.65999984741211 9.880000114440918,-26.006000518798828 2.686000108718872,-34.698001861572266 C2.489000082015991,-34.9370002746582 2.188999891281128,-35.05400085449219 1.8819999694824219,-35.018001556396484 C0.15700000524520874,-34.81100082397461 -2.0429999828338623,-34.209999084472656 -3.3949999809265137,-33.051998138427734 C-6.181000232696533,-30.666000366210938 -24.60099983215332,-11.175000190734863 -27.58099937438965,-10.024999618530273 C-27.54599952697754,-9.980999946594238 -27.51099967956543,-9.935999870300293 -27.476999282836914,-9.892000198364258 C-29.822999954223633,-7.808000087738037 -32.249000549316406,-5.814000129699707 -34.665000915527344,-3.809999942779541 C-35.28799819946289,-3.2929999828338623 -35.33399963378906,-2.3529999256134033 -34.76300048828125,-1.7769999504089355 C-22.711000442504883,10.394000053405762 -11.029999732971191,23.466999053955078 1.8530000448226929,34.73699951171875 C2.2160000801086426,35.05400085449219 2.7679998874664307,35.04100036621094 3.1110000610351562,34.702999114990234 C4.466000080108643,33.358001708984375 5.745999813079834,31.94099998474121 7.060999870300293,30.55699920654297 C7.060999870300293,30.55699920654297 20.2450008392334,16.434999465942383 20.2450008392334,16.434999465942383z"></path></g></g><g transform="matrix(1,0,0,1,377.32000732421875,273.9169921875)" opacity="1" style="display: block;"><g opacity="1" transform="matrix(1,0,0,1,34.45100021362305,29.268999099731445)"><path fill="rgb(255,255,255)" fill-opacity="1" d=" M29.514999389648438,6.635000228881836 C31.878999710083008,23.656999588012695 34.20100021362305,15.939000129699707 23.624000549316406,21.63599967956543 C19.860000610351562,23.665000915527344 -10.930999755859375,29.018999099731445 -14.027000427246094,26.768999099731445 C-20.93899917602539,21.7450008392334 -34.20100021362305,-14.692000389099121 -30.128000259399414,-19.408000946044922 C-24.134000778198242,-26.34600067138672 14.619000434875488,-27.357999801635742 26.246999740600586,-28.93400001525879 C26.865999221801758,-29.01799964904785 27.417999267578125,-28.55900001525879 27.454999923706055,-27.937000274658203 C27.454999923706055,-27.937000274658203 29.514999389648438,6.635000228881836 29.514999389648438,6.635000228881836z"></path></g></g><g transform="matrix(1,0,0,1,271.2270202636719,282.2019958496094)" opacity="1" style="display: block;"><g opacity="1" transform="matrix(1,0,0,1,35.35100173950195,33.69599914550781)"><path fill="rgb(255,255,255)" fill-opacity="1" d=" M32.21500015258789,-1.4049999713897705 C35.10200119018555,5.816999912261963 33.20399856567383,16.48200035095215 23.14299964904785,19.986000061035156 C17.235000610351562,22.042999267578125 11.234999656677246,23.836999893188477 5.333000183105469,25.91200065612793 C2.0390000343322754,27.06999969482422 -1.1449999809265137,28.541000366210938 -4.366000175476074,29.9060001373291 C-12.720000267028809,33.44599914550781 -21.167999267578125,30.663000106811523 -24.805999755859375,22.41699981689453 C-30.66699981689453,9.128000259399414 -26.506000518798828,16.767000198364258 -31.849000930786133,3.259000062942505 C-33.30400085449219,-0.4180000126361847 -33.86600112915039,-4.492000102996826 -34.492000579833984,-8.4399995803833 C-35.10100173950195,-12.28499984741211 -33.16400146484375,-15.369000434875488 -29.8700008392334,-16.90399932861328 C-20.94700050354004,-21.062999725341797 -11.902999877929688,-24.981000900268555 -2.7839999198913574,-28.695999145507812 C1.1759999990463257,-30.30900001525879 5.421999931335449,-31.23699951171875 9.562000274658203,-32.39099884033203 C13.345000267028809,-33.44599914550781 16.479000091552734,-32.49399948120117 19.16699981689453,-29.479000091552734 C23.437999725341797,-24.687999725341797 29.584999084472656,-7.984000205993652 32.21500015258789,-1.4049999713897705z"></path></g><g opacity="1" transform="matrix(1,0,0,1,35.21099853515625,50.88999938964844)"><path fill="rgb(246,225,1)" fill-opacity="1" d=" M23.284000396728516,3.316999912261963 C28.94499969482422,1.3450000286102295 31.948999404907227,-2.9070000648498535 33.04199981689453,-7.52400016784668 C-5.005000114440918,-6.468999862670898 -33.04100036621094,-16.777000427246094 -31.70800018310547,-13.409000396728516 C-26.36400032043457,0.0989999994635582 -30.527000427246094,-7.540999889373779 -24.665000915527344,5.748000144958496 C-21.027999877929688,13.994999885559082 -12.579000473022461,16.777000427246094 -4.224999904632568,13.236000061035156 C-1.003999948501587,11.871999740600586 2.178999900817871,10.401000022888184 5.4730000495910645,9.243000030517578 C11.375,7.169000148773193 17.37700080871582,5.375 23.284000396728516,3.316999912261963z"></path></g></g><g transform="matrix(1,0,0,1,360.13800048828125,386.6309814453125)" opacity="1" style="display: block;"><g opacity="1" transform="matrix(1,0,0,1,59.22800064086914,33.65700149536133)"><path fill="rgb(57,85,71)" fill-opacity="1" d=" M-57.54100036621094,2.765000104904175 C-57.470001220703125,3.0160000324249268 -57.380001068115234,3.2679998874664307 -57.27000045776367,3.5199999809265137 C-54.90599822998047,8.930000305175781 -44.6150016784668,10.052000045776367 -39.986000061035156,12.597999572753906 C-35.48899841308594,15.072999954223633 -32.98899841308594,18.64299964904785 -29.334999084472656,22.201000213623047 C-27.180999755859375,24.29800033569336 -26.584999084472656,23.48200035095215 -23.496000289916992,24.125999450683594 C-20.610000610351562,24.72800064086914 -18.413999557495117,26.768999099731445 -15.833000183105469,28.101999282836914 C-11.468999862670898,30.357999801635742 -6.4670000076293945,30.594999313354492 -1.8329999446868896,28.347000122070312 C3.0899999141693115,25.95800018310547 4.98799991607666,23.12299919128418 9.862000465393066,27.132999420166016 C13.913999557495117,30.465999603271484 16.75,33.40700149536133 22.393999099731445,31.500999450683594 C27.479999542236328,29.78499984741211 30.437999725341797,24.62299919128418 35.013999938964844,22.024999618530273 C37.433998107910156,20.649999618530273 39.99300003051758,20.451000213623047 42.61000061035156,20.32699966430664 C43.85499954223633,20.267000198364258 55.277000427246094,20.593000411987305 58.064998626708984,9.12600040435791 C58.97800064086914,5.372000217437744 57.28900146484375,1.6380000114440918 54.86800003051758,-1.0199999809265137 C48.935001373291016,-7.5370001792907715 38.22999954223633,-7.620999813079834 36.263999938964844,-17.976999282836914 C34.58000183105469,-26.843000411987305 26.43899917602539,-33.40599822998047 18.08799934387207,-27.985000610351562 C13.848999977111816,-25.235000610351562 11.656999588012695,-21.219999313354492 6.438000202178955,-22.43400001525879 C2.312999963760376,-23.39299964904785 -1.6130000352859497,-25.410999298095703 -5.76200008392334,-26.264999389648438 C-16.490999221801758,-28.474000930786133 -17.45800018310547,-17.131000518798828 -24.777000427246094,-11.72599983215332 C-32.17100143432617,-6.263999938964844 -41.474998474121094,-15.085000038146973 -49.18299865722656,-9.548999786376953 C-52.733001708984375,-7 -58.97800064086914,-2.2929999828338623 -57.54100036621094,2.765000104904175z"></path></g></g><g transform="matrix(1,0,0,1,278.1590270996094,347.1090087890625)" opacity="1" style="display: block;"><g opacity="1" transform="matrix(1,0,0,1,15.411999702453613,5.968999862670898)"><path fill="rgb(133,198,138)" fill-opacity="1" d=" M-0.05299999937415123,5.718999862670898 C-5.663000106811523,5.718999862670898 -14.824999809265137,2.884999990463257 -15.161999702453613,0.15800000727176666 C-15.161999702453613,0.15800000727176666 -8.935999870300293,-5.718999862670898 -0.05299999937415123,-5.4029998779296875 C5.553999900817871,-5.203999996185303 15.161999702453613,-1.5770000219345093 15.055999755859375,0.15800000727176666 C14.949000358581543,1.8919999599456787 5.557000160217285,5.718999862670898 -0.05299999937415123,5.718999862670898z M-0.05299999937415123,-2.253999948501587 C-7.693999767303467,-2.253999948501587 -11.666999816894531,-0.4699999988079071 -12.03600025177002,0.2809999883174896 C-11.666999816894531,0.7850000262260437 -7.693999767303467,2.569000005722046 -0.05299999937415123,2.569000005722046 C7.2179999351501465,2.569000005722046 11.364999771118164,0.7850000262260437 11.843999862670898,0.15800000727176666 C12.324000358581543,-0.4699999988079071 7.2179999351501465,-2.253999948501587 -0.05299999937415123,-2.253999948501587z"></path></g></g><g transform="matrix(1,0,0,1,366.4939880371094,304.72198486328125)" opacity="1" style="display: block;"><g opacity="1" transform="matrix(1,0,0,1,11.95300006866455,4.948999881744385)"><path fill="rgb(133,198,138)" fill-opacity="1" d=" M-0.3050000071525574,4.4679999351501465 C-4.622000217437744,4.236999988555908 -11.557000160217285,1.6799999475479126 -11.704000473022461,-0.43299999833106995 C-11.704000473022461,-0.43299999833106995 -6.670000076293945,-4.698999881744385 0.15199999511241913,-4.091000080108643 C4.459000110626221,-3.7070000171661377 11.70300006866455,-0.5210000276565552 11.548999786376953,0.8100000023841858 C11.395999908447266,2.1410000324249268 4.01200008392334,4.698999881744385 -0.3050000071525574,4.4679999351501465z M0.023000000044703484,-1.6670000553131104 C-5.855999946594238,-1.9809999465942383 -8.98900032043457,-0.7720000147819519 -9.303999900817871,-0.20900000631809235 C-9.041000366210938,0.1940000057220459 -6.056000232696533,1.7300000190734863 -0.17599999904632568,2.0439999103546143 C5.419000148773193,2.3429999351501465 8.684000015258789,1.1410000324249268 9.079000473022461,0.6779999732971191 C9.473999977111816,0.2150000035762787 5.61899995803833,-1.3680000305175781 0.023000000044703484,-1.6670000553131104z"></path></g></g><g transform="matrix(1,0,0,1,396.260009765625,377.8160095214844)" opacity="1" style="display: block;"><g opacity="1" transform="matrix(1,0,0,1,10.085000038146973,4.636000156402588)"><path fill="rgb(133,198,138)" fill-opacity="1" d=" M0.07800000160932541,4.230000019073486 C-5.765999794006348,4.073999881744385 -9.835000038146973,1.1019999980926514 -9.678999900817871,-0.08299999684095383 C-9.520999908447266,-1.2699999809265137 -7.64300012588501,-4.209000110626221 0.07800000160932541,-4.386000156402588 C8.36400032043457,-4.297999858856201 9.835000038146973,-0.08299999684095383 9.835000038146973,-0.08299999684095383 C9.835000038146973,-0.08299999684095383 5.922999858856201,4.38700008392334 0.07800000160932541,4.230000019073486z M-0.03500000014901161,-2.696000099182129 C-4.144000053405762,-2.696000099182129 -7.520999908447266,-0.734000027179718 -7.742000102996826,-0.28999999165534973 C-6.86899995803833,0.3160000145435333 -4.031000137329102,1.3910000324249268 0.07800000160932541,1.3910000324249268 C3.9670000076293945,1.3910000324249268 7.14300012588501,0.2709999978542328 7.2769999504089355,-0.11299999803304672 C7.4120001792907715,-0.4970000088214874 3.8529999256134033,-2.696000099182129 -0.03500000014901161,-2.696000099182129z"></path></g></g><g transform="matrix(1,0,0,1,430.4150085449219,334.22100830078125)" opacity="1" style="display: block;"><g opacity="1" transform="matrix(1,0,0,1,12.357000350952148,6.169000148773193)"><path fill="rgb(133,198,138)" fill-opacity="1" d=" M0.6610000133514404,5.918000221252441 C-5.113999843597412,5.918000221252441 -12.107999801635742,4.610000133514404 -11.060999870300293,1.0950000286102295 C-9.838000297546387,-3.00600004196167 7.376999855041504,-5.918000221252441 12.107000350952148,1.0950000286102295 C12.107000350952148,4.76200008392334 6.434999942779541,5.130000114440918 0.6610000133514404,5.918000221252441z M1.4490000009536743,-1.8669999837875366 C-4.197999954223633,-1.8669999837875366 -8.156000137329102,0.32100000977516174 -8.156000137329102,1.0950000286102295 C-8.156000137329102,1.871000051498413 -4.986999988555908,3.2929999828338623 0.6610000133514404,3.2929999828338623 C6.381999969482422,3.2929999828338623 9.204000473022461,1.8949999809265137 9.204000473022461,1.0950000286102295 C9.204000473022461,0.32100000977516174 7.084000110626221,-1.8669999837875366 1.4490000009536743,-1.8669999837875366z"></path></g></g></g></svg>