<svg xmlns="http://www.w3.org/2000/svg" viewBox="0 0 760 760" width="760" height="760" preserveAspectRatio="xMidYMid meet" style="width: 100%; height: 100%; transform: translate3d(0px, 0px, 0px);"><defs><clipPath id="__lottie_element_736"><rect width="760" height="760" x="0" y="0"></rect></clipPath></defs><g clip-path="url(#__lottie_element_736)"><g transform="matrix(0,0,0,0,344,348)" opacity="1" style="display: block;"><g opacity="1" transform="matrix(1,0,0,1,189.6909942626953,-1.996000051498413)"><path fill="rgb(209,240,246)" fill-opacity="1" d=" M150.72999572753906,-151.9199981689453 C92.13400268554688,-182.63999938964844 9.73900032043457,-181.64599609375 -121.02200317382812,-132.52499389648438 C-245.38499450683594,-92.3030014038086 -292.7229919433594,-12.116000175476074 -276.2919921875,108.74500274658203 C-269.2099914550781,160.83599853515625 -245.2969970703125,285.1419982910156 -117.83899688720703,335.6579895019531 C-32.94599914550781,369.3039855957031 16.43400001525879,343.51800537109375 122.83200073242188,277.82598876953125 C214.23599243164062,221.39100646972656 235.08299255371094,40.71799850463867 234.01499938964844,-12.847000122070312 C233.0749969482422,-59.986000061035156 223.61700439453125,-113.70800018310547 150.72999572753906,-151.9199981689453z"></path></g></g><g transform="matrix(1,0,0,1,323.77301025390625,523.2449951171875)" opacity="1" style="display: block;"><g opacity="1" transform="matrix(1,0,0,1,142.89100646972656,88.68499755859375)"><path fill="rgb(168,214,223)" fill-opacity="1" d=" M-140.052001953125,2.2230000495910645 C-140.052001953125,2.2230000495910645 -33.7859992980957,-88.43499755859375 -21.53700065612793,-85.63099670410156 C-9.288999557495117,-82.82499694824219 142.64100646972656,-58.845001220703125 140.1909942626953,-46.91699981689453 C137.74200439453125,-34.98699951171875 9.809000015258789,88.43499755859375 -1.8459999561309814,85.27400207519531 C-13.50100040435791,82.11199951171875 -142.64100646972656,15.071999549865723 -140.052001953125,2.2230000495910645z"></path></g></g><g transform="matrix(1,0,0,1,238.55599975585938,339.68499755859375)" opacity="1" style="display: block;"><g opacity="1" transform="matrix(1,0,0,1,93.52799987792969,145.21800231933594)"><path fill="rgb(240,239,232)" fill-opacity="1" d=" M-77.3550033569336,-125.03199768066406 C-77.3550033569336,-125.03199768066406 -12.437000274658203,128.4199981689453 -7.5370001792907715,129.25100708007812 C-2.63700008392334,130.08200073242188 93.27799987792969,144.96800231933594 93.27799987792969,144.96800231933594 C93.27799987792969,144.96800231933594 91.6780014038086,-82.92900085449219 76.9800033569336,-92.78700256347656 C62.28200149536133,-102.64600372314453 -93.27799987792969,-144.96800231933594 -77.3550033569336,-125.03199768066406z"></path></g></g><g transform="matrix(1,0,0,1,268.4280090332031,418.7929992675781)" opacity="1" style="display: block;"><g opacity="1" transform="matrix(1,0,0,1,77.16000366210938,104.26000213623047)"><path fill="rgb(230,229,217)" fill-opacity="1" d=" M76.91100311279297,104.01000213623047 C76.91100311279297,104.01000213623047 69.68299865722656,-83.87899780273438 69.68299865722656,-83.87899780273438 C69.68299865722656,-83.87899780273438 -2.5810000896453857,-100.39600372314453 -2.5810000896453857,-100.39600372314453 C-2.5810000896453857,-100.39600372314453 -76.91100311279297,-104.01000213623047 -76.91100311279297,-104.01000213623047 C-76.91100311279297,-104.01000213623047 76.91100311279297,104.01000213623047 76.91100311279297,104.01000213623047z"></path></g></g><g transform="matrix(1,0,0,1,376.51800537109375,248.62600708007812)" opacity="1" style="display: block;"><g opacity="1" transform="matrix(1,0,0,1,89.15899658203125,39.93000030517578)"><path fill="rgb(240,239,232)" fill-opacity="1" d=" M75.9010009765625,39.67900085449219 C75.9010009765625,39.67900085449219 85.70099639892578,0.1420000046491623 88.44000244140625,-19.437000274658203 C88.90899658203125,-22.781999588012695 -28.441999435424805,-39.68000030517578 -39.64500045776367,-37.35100173950195 C-54.66299819946289,-34.229000091552734 -88.90899658203125,-5.105000019073486 -88.90899658203125,-5.105000019073486 C-88.90899658203125,-5.105000019073486 75.9010009765625,39.67900085449219 75.9010009765625,39.67900085449219z"></path></g></g><g transform="matrix(1,0,0,1,246.2530059814453,281.6210021972656)" opacity="1" style="display: block;"><g opacity="1" transform="matrix(1,0,0,1,149.18800354003906,78.86399841308594)"><path fill="rgb(236,222,49)" fill-opacity="1" d=" M-146.34800720214844,-8.069999694824219 C-146.34800720214844,-8.069999694824219 -25.9689998626709,-78.61399841308594 -13.720000267028809,-76.16400146484375 C-1.4709999561309814,-73.71499633789062 148.93699645996094,-49.99800109863281 146.48599243164062,-39.58100128173828 C144.03700256347656,-29.163999557495117 16.104999542236328,78.61299896240234 4.447999954223633,75.85199737548828 C-7.206999778747559,73.09100341796875 -148.93699645996094,3.1500000953674316 -146.34800720214844,-8.069999694824219z"></path></g></g><g transform="matrix(0.80901700258255,0.5877852439880371,-0.5877852439880371,0.80901700258255,567.8798828125,184.0250701904297)" opacity="1" style="display: block;"><g opacity="1" transform="matrix(1,0,0,1,46.020999908447266,35.37099838256836)"><path fill="rgb(58,86,72)" fill-opacity="1" d=" M-6.980000019073486,4.116000175476074 C-5.039999961853027,-4.493000030517578 -2.7309999465942383,-13.048999786376953 -0.843999981880188,-21.659000396728516 C1.3240000009536743,-31.551000595092773 5.660999774932861,-38.25199890136719 9.060999870300293,-34.138999938964844 C11.45199966430664,-31.24799919128418 16.865999221801758,-34.86399841308594 12.310999870300293,-18.492000579833984 C5.408999919891357,6.316999912261963 3.6489999294281006,9.791999816894531 -2.375999927520752,34.814998626708984 C-2.375999927520752,34.814998626708984 -14.079000473022461,35.37200164794922 -14.079000473022461,35.37200164794922 C-10.237000465393066,17.834999084472656 -10.95199966430664,21.743000030517578 -6.980000019073486,4.116000175476074z"></path></g><g opacity="1" transform="matrix(1,0,0,1,20.277000427246094,155.53399658203125)"><path fill="rgb(58,86,72)" fill-opacity="1" d=" M-20.268999099731445,63.244998931884766 C-5.48799991607666,-2.443000078201294 -5.409999847412109,-6.540999889373779 8.821000099182129,-71.82599639892578 C8.821000099182129,-71.82599639892578 20.277000427246094,-72.38600158691406 20.277000427246094,-72.38600158691406 C7.438000202178955,-18.034000396728516 2.322000026702881,12.137999534606934 -2.493000030517578,32.13600158691406 C-6.301000118255615,45.952999114990234 -7.677000045776367,56.20800018310547 -11.897000312805176,71.6259994506836 C-16.83300018310547,75.10099792480469 -20.486000061035156,65.66500091552734 -20.268999099731445,63.244998931884766z"></path></g></g><g transform="matrix(0.874619722366333,0.48480960726737976,-0.48480960726737976,0.874619722366333,557.9908447265625,179.0220184326172)" opacity="1" style="display: block;"><g opacity="1" transform="matrix(1,0,0,1,80.83000183105469,37.367000579833984)"><path fill="rgb(58,86,72)" fill-opacity="1" d=" M-21.3439998626709,36.48099899291992 C-13.635000228881836,18.163000106811523 -17.381000518798828,25.69300079345703 -8.8149995803833,7.854000091552734 C-2.677999973297119,-4.926000118255615 3.322000026702881,-17.81100082397461 9.46399974822998,-30.577999114990234 C12.163000106811523,-36.18600082397461 15.065999984741211,-37.986000061035156 17.334999084472656,-37.1870002746582 C18.27199935913086,-36.856998443603516 19.242000579833984,-36.60200119018555 20.125999450683594,-36.150001525878906 C21.65399932861328,-35.367000579833984 21.750999450683594,-32.8650016784668 20.3799991607666,-28.566999435424805 C18.208999633789062,-21.759000778198242 15.208999633789062,-15.109000205993652 12.364999771118164,-8.496000289916992 C2.0940001010894775,15.392000198364258 3.494999885559082,13.552000045776367 -6.919000148773193,37.367000579833984 C-6.919000148773193,37.367000579833984 -21.20599937438965,37.25199890136719 -21.20599937438965,37.25199890136719 C-21.20599937438965,37.25199890136719 -21.3439998626709,36.48099899291992 -21.3439998626709,36.48099899291992z"></path></g><g opacity="1" transform="matrix(1,0,0,1,34.1609992980957,159.03799438476562)"><path fill="rgb(58,86,72)" fill-opacity="1" d=" M28.26799964904785,-58.06100082397461 C21.618999481201172,-42.9640007019043 3.4240000247955322,2.3269999027252197 -3.5959999561309814,19.413000106811523 C-10.420999526977539,36.02399826049805 -18.961000442504883,53.917999267578125 -25.816999435424805,70.5199966430664 C-26.791000366210938,72.87799835205078 -31.691999435424805,70.91100311279297 -33.935001373291016,69.79000091552734 C-35.96099853515625,72.9530029296875 -23.83799934387207,41.70600128173828 -18.040000915527344,25.708999633789062 C-7.298999786376953,-3.9179999828338623 7.254000186920166,-41 14.02400016784668,-57.762001037597656 C15.894000053405762,-62.391998291015625 17.784000396728516,-67.01300048828125 19.68199920654297,-71.62799835205078 C19.68199920654297,-71.62799835205078 34.1619987487793,-71.52999877929688 34.1619987487793,-71.52999877929688 C32.19200134277344,-67.04299926757812 30.243999481201172,-62.54499816894531 28.26799964904785,-58.06100082397461z"></path></g></g><g transform="matrix(1,0,0,1,164.1590118408203,167.38600158691406)" opacity="1" style="display: block;"><g opacity="1" transform="matrix(1,0,0,1,108.36499786376953,96.6719970703125)"><path fill="rgb(240,239,232)" fill-opacity="1" d=" M-108.11499786376953,-10.708000183105469 C-105.4020004272461,-7.439000129699707 -32.08399963378906,96.4219970703125 -32.08399963378906,96.4219970703125 C-32.08399963378906,96.4219970703125 108.11499786376953,21.246000289916992 108.11499786376953,21.246000289916992 C108.11499786376953,21.246000289916992 69.44999694824219,-62.32600021362305 69.44999694824219,-62.32600021362305 C69.44999694824219,-62.32600021362305 -15.803000450134277,-65.91600036621094 -15.803000450134277,-65.91600036621094 C-15.803000450134277,-65.91600036621094 -27.562000274658203,-96.4219970703125 -31.18000030517578,-95.33300018310547 C-34.79800033569336,-94.24299621582031 -69.16899871826172,-84.43699645996094 -69.16899871826172,-84.43699645996094 C-69.16899871826172,-84.43699645996094 -74.59600067138672,-62.64699935913086 -74.59600067138672,-62.64699935913086 C-74.59600067138672,-62.64699935913086 -43.84299850463867,-69.18499755859375 -43.84299850463867,-69.18499755859375 C-43.84299850463867,-69.18499755859375 -38.41600036621094,-59.37900161743164 -38.41600036621094,-59.37900161743164 C-38.41600036621094,-59.37900161743164 -108.11499786376953,-10.708000183105469 -108.11499786376953,-10.708000183105469z"></path></g></g><g transform="matrix(1,0,0,1,415.041015625,315.00299072265625)" opacity="1" style="display: block;"><g opacity="1" transform="matrix(1,0,0,1,67.61799621582031,161.27699279785156)"><path fill="rgb(211,210,199)" fill-opacity="1" d=" M-58.79399871826172,151.2729949951172 C-58.79399871826172,151.2729949951172 -67.36799621582031,-47.917999267578125 -67.36799621582031,-47.917999267578125 C-67.36799621582031,-47.917999267578125 55.11899948120117,-161.0260009765625 61.24399948120117,-157.3509979248047 C67.36799621582031,-153.67599487304688 62.46900177001953,59.452999114990234 53.89400100708008,63.12699890136719 C45.31999969482422,66.802001953125 -52.66999816894531,161.02699279785156 -58.79399871826172,151.2729949951172z"></path></g></g><g transform="matrix(1,0,0,1,324.77398681640625,430.1260070800781)" opacity="1" style="display: block;"><g opacity="1" transform="matrix(1,0,0,1,122.00700378417969,65.58200073242188)"><path fill="rgb(0,0,0)" fill-opacity="0.44" d=" M-20.534000396728516,64.83899688720703 C-18.68199920654297,63.72800064086914 -25.975000381469727,67.42900085449219 -29.422000885009766,64.28299713134766 C-32.86899948120117,61.137001037597656 -122.00700378417969,-19.413999557495117 -122.00700378417969,-19.413999557495117 C-122.00700378417969,-19.413999557495117 -116.57599639892578,-22.62299919128418 -116.57599639892578,-22.62299919128418 C-116.57599639892578,-22.62299919128418 -26.089000701904297,61.9379997253418 -22.756000518798828,60.82600021362305 C-21.708999633789062,60.47800064086914 -9.37399959564209,47.821998596191406 6.870999813079834,35.64400100708008 C42.316001892089844,9.069999694824219 94.76499938964844,-30.52400016784668 94.76499938964844,-30.52400016784668 C94.76499938964844,-30.52400016784668 114.56999969482422,-45.3380012512207 114.56999969482422,-45.3380012512207 C114.56999969482422,-45.3380012512207 96.9219970703125,-58.78499984741211 96.9219970703125,-58.78499984741211 C96.9219970703125,-58.78499984741211 97.23500061035156,-65.58300018310547 97.23500061035156,-65.58300018310547 C97.23500061035156,-65.58300018310547 121.677001953125,-47.93000030517578 121.677001953125,-47.93000030517578 C121.677001953125,-47.93000030517578 122.78700256347656,-44.22600173950195 120.93599700927734,-43.1150016784668 C119.08399963378906,-42.005001068115234 -22.38599967956543,65.9489974975586 -20.534000396728516,64.83899688720703z"></path></g></g><g transform="matrix(1,0,0,1,253.13299560546875,271.0260009765625)" opacity="1" style="display: block;"><g opacity="1" transform="matrix(1,0,0,1,82.58599853515625,26.982999801635742)"><path fill="rgb(235,221,47)" fill-opacity="1" d=" M-23.003999710083008,13.187999725341797 C-23.003999710083008,13.187999725341797 -28.492000579833984,11.050000190734863 -28.492000579833984,11.050000190734863 C-28.211999893188477,10.333000183105469 -21.45199966430664,-6.611999988555908 -6.002999782562256,-10.52299976348877 C4.460999965667725,-13.189000129699707 16.065000534057617,-9.175000190734863 28.492000579833984,1.3569999933242798 C28.492000579833984,1.3569999933242798 24.68400001525879,5.849999904632568 24.68400001525879,5.849999904632568 C13.789999961853027,-3.382999897003174 3.9560000896453857,-6.9770002365112305 -4.557000160217285,-4.814000129699707 C-17.09600067138672,-1.6399999856948853 -22.947999954223633,13.041999816894531 -23.003999710083008,13.187999725341797z"></path></g><g opacity="1" transform="matrix(1,0,0,1,186.18299865722656,17.81800079345703)"><path fill="rgb(235,221,47)" fill-opacity="1" d=" M25.930999755859375,13.413000106811523 C23.402000427246094,5.576000213623047 19.211999893188477,0.7710000276565552 13.133000373840332,-1.284000039100647 C-3.4149999618530273,-6.835999965667725 -27.927000045776367,9.961000442504883 -28.176000595092773,10.131999969482422 C-28.176000595092773,10.131999969482422 -31.53499984741211,5.297999858856201 -31.53499984741211,5.297999858856201 C-30.430999755859375,4.531000137329102 -4.275000095367432,-13.413000106811523 15.01200008392334,-6.860000133514404 C22.878000259399414,-4.209000110626221 28.434999465942383,2.006999969482422 31.53499984741211,11.605999946594238 C31.53499984741211,11.605999946594238 25.930999755859375,13.413000106811523 25.930999755859375,13.413000106811523z"></path></g><g opacity="1" transform="matrix(1,0,0,1,145.55299377441406,12.496000289916992)"><path fill="rgb(235,221,47)" fill-opacity="1" d=" M-23.131999969482422,12.246000289916992 C-23.131999969482422,12.246000289916992 -28.31800079345703,9.458000183105469 -28.31800079345703,9.458000183105469 C-27.839000701904297,8.559000015258789 -16.48200035095215,-12.246000289916992 -0.3050000071525574,-12.246000289916992 C-0.10999999940395355,-12.246000289916992 0.07999999821186066,-12.241000175476074 0.2709999978542328,-12.236000061035156 C24.39699935913086,-11.494000434875488 27.072999954223633,1.1080000400543213 28.08300018310547,5.854000091552734 C28.17099952697754,6.264999866485596 28.235000610351562,6.605999946594238 28.31800079345703,6.849999904632568 C28.31800079345703,6.849999904632568 22.73200035095215,8.725000381469727 22.73200035095215,8.725000381469727 C22.594999313354492,8.319999694824219 22.468000411987305,7.758999824523926 22.32200050354004,7.079999923706055 C21.437999725341797,2.9149999618530273 19.597000122070312,-5.751999855041504 0.09000000357627869,-6.3480000495910645 C-12.625,-6.923999786376953 -23.02899932861328,12.055999755859375 -23.131999969482422,12.246000289916992z"></path></g><g opacity="1" transform="matrix(1,0,0,1,148.906005859375,71.48999786376953)"><path fill="rgb(235,198,0)" fill-opacity="1" d=" M-32.895999908447266,34.930999755859375 C-33.560001373291016,34.930999755859375 -34.224998474121094,34.91699981689453 -34.90399932861328,34.88800048828125 C-48.13600158691406,34.268001556396484 -53.71500015258789,26.743999481201172 -60.775001525878906,17.211999893188477 C-66.2249984741211,9.859000205993652 -73.00299835205078,0.7070000171661377 -85.53500366210938,-9 C-85.53500366210938,-9 -82.08300018310547,-13.45199966430664 -82.08300018310547,-13.45199966430664 C-68.93599700927734,-3.2760000228881836 -61.900001525878906,6.22599983215332 -56.24599838256836,13.857999801635742 C-49.358001708984375,23.155000686645508 -45.20100021362305,28.764999389648438 -34.638999938964844,29.253000259399414 C-11.437000274658203,30.4689998626709 2.132999897003174,9.979999542236328 11.229000091552734,-3.4820001125335693 C12.987000465393066,-6.085000038146973 14.545000076293945,-8.378999710083008 15.92199993133545,-10.156000137329102 C30.389999389648438,-28.79800033569336 41.01499938964844,-34.93199920654297 58.03099822998047,-34.4640007019043 C75.96600341796875,-33.96500015258789 85.15399932861328,-11.161999702453613 85.53500366210938,-10.194999694824219 C85.53500366210938,-10.194999694824219 80.29199981689453,-8.125 80.29199981689453,-8.125 C80.21399688720703,-8.324999809265137 72.0790023803711,-28.43199920654297 57.875,-28.827999114990234 C42.8120002746582,-29.238000869750977 33.69499969482422,-23.867000579833984 20.375,-6.698999881744385 C19.062000274658203,-5.005000114440918 17.57699966430664,-2.808000087738037 15.897000312805176,-0.3230000138282776 C6.927999973297119,12.949000358581543 -7.935999870300293,34.930999755859375 -32.895999908447266,34.930999755859375z"></path></g><g opacity="1" transform="matrix(1,0,0,1,161.45199584960938,111.29000091552734)"><path fill="rgb(235,198,0)" fill-opacity="1" d=" M0.3050000071525574,16.367000579833984 C-20.613000869750977,16.367000579833984 -28.27899932861328,-13.637999534606934 -28.60099983215332,-14.95199966430664 C-28.60099983215332,-14.95199966430664 -22.88800048828125,-16.367000579833984 -22.88800048828125,-16.367000579833984 C-22.815000534057617,-16.089000701904297 -15.442000389099121,11.947999954223633 1.7309999465942383,10.414999961853027 C19.509000778198242,8.895999908447266 22.825000762939453,-4.922999858856201 22.858999252319336,-5.064000129699707 C22.858999252319336,-5.064000129699707 28.60099983215332,-3.7639999389648438 28.60099983215332,-3.7639999389648438 C28.562000274658203,-3.5840001106262207 24.2549991607666,14.399999618530273 2.2339999675750732,16.28499984741211 C1.5789999961853027,16.339000701904297 0.9350000023841858,16.367000579833984 0.3050000071525574,16.367000579833984z"></path></g><g opacity="1" transform="matrix(1,0,0,1,212.1790008544922,78.16699981689453)"><path fill="rgb(235,198,0)" fill-opacity="1" d=" M43.15700149536133,26.863000869750977 C26.965999603271484,-20.45599937438965 6.360000133514404,-20.333999633789062 -15.12399959564209,-15.862000465393066 C-32.81999969482422,-12.164999961853027 -43.23899841308594,10.755000114440918 -43.34199905395508,10.984000205993652 C-43.34199905395508,10.984000205993652 -48.722999572753906,8.592000007629395 -48.722999572753906,8.592000007629395 C-48.25400161743164,7.5370001792907715 -36.99399948120117,-17.30699920654297 -16.325000762939453,-21.62299919128418 C5.8429999351501465,-26.256999969482422 30.993999481201172,-26.863000869750977 48.722999572753906,24.958999633789062 C48.722999572753906,24.958999633789062 43.15700149536133,26.863000869750977 43.15700149536133,26.863000869750977z"></path></g><g opacity="1" transform="matrix(1,0,0,1,145.47799682617188,86.6729965209961)"><path fill="rgb(235,198,0)" fill-opacity="1" d=" M-72.13400268554688,25.20800018310547 C-77.37300109863281,25.20800018310547 -82.71800231933594,23.17099952697754 -88.14600372314453,19.099000930786133 C-89.03199768066406,18.440000534057617 -97.48999786376953,11.447999954223633 -98.4229965209961,10.602999687194824 C-108.62899780273438,1.378999948501587 -117.875,-2.565999984741211 -125.88800048828125,-1.1890000104904175 C-135.2429962158203,0.4519999921321869 -139.9669952392578,9.14799976348877 -140.01300048828125,9.236000061035156 C-140.01300048828125,9.236000061035156 -145.22900390625,6.500999927520752 -145.22900390625,6.500999927520752 C-144.98699951171875,6.038000106811523 -139.19500732421875,-4.788000106811523 -126.98300170898438,-6.96999979019165 C-117.04399871826172,-8.748000144958496 -106.125,-4.298999786376953 -94.4739990234375,6.23799991607666 C-93.6729965209961,6.960000038146973 -85.38099670410156,13.815999984741211 -84.61699676513672,14.38700008392334 C-73.94300079345703,22.399999618530273 -64.76599884033203,20.71500015258789 -54.85900115966797,8.928000450134277 C-53.784000396728516,7.64900016784668 -52.62099838256836,6.2179999351501465 -51.37799835205078,4.684999942779541 C-42.202999114990234,-6.61899995803833 -29.638999938964844,-22.091999053955078 -15.215999603271484,-23.533000946044922 C-9.317000389099121,-24.083999633789062 -3.7709999084472656,-22.273000717163086 1.3459999561309814,-18.048999786376953 C6.605000019073486,-13.704000473022461 11.604999542236328,-9.163000106811523 16.43899917602539,-4.7729997634887695 C30.22800064086914,7.75600004196167 42.16699981689453,18.499000549316406 51.9379997253418,17.527000427246094 C56.12200164794922,17.077999114990234 59.92599868774414,14.392000198364258 63.56399917602539,9.303999900817871 C79.9800033569336,-13.65999984741211 96.00900268554688,-25.20800018310547 111.68800354003906,-25.031999588012695 C123.93900299072266,-24.889999389648438 135.22900390625,-17.365999221801758 145.22900390625,-2.6730000972747803 C145.22900390625,-2.6730000972747803 140.36500549316406,0.6370000243186951 140.36500549316406,0.6370000243186951 C131.5070037841797,-12.371000289916992 121.83499908447266,-19.025999069213867 111.62000274658203,-19.14299964904785 C98.29499816894531,-19.128000259399414 83.36799621582031,-8.279000282287598 68.3489990234375,12.732000350952148 C63.680999755859375,19.260000228881836 58.513999938964844,22.746999740600586 52.5620002746582,23.381999969482422 C40.198001861572266,24.67099952697754 27.319000244140625,13.069000244140625 12.479999542236328,-0.4129999876022339 C7.698999881744385,-4.757999897003174 2.752000093460083,-9.255000114440918 -2.4040000438690186,-13.508000373840332 C-6.320000171661377,-16.740999221801758 -10.317999839782715,-18.12299919128418 -14.633999824523926,-17.67300033569336 C-26.615999221801758,-16.476999282836914 -38.76599884033203,-1.5110000371932983 -46.80500030517578,8.395999908447266 C-48.073001861572266,9.954000473022461 -49.25899887084961,11.418000221252441 -50.35300064086914,12.717000007629395 C-57.349998474121094,21.038000106811523 -64.63400268554688,25.20800018310547 -72.13400268554688,25.20800018310547z"></path></g><g opacity="1" transform="matrix(1,0,0,1,124.552001953125,129.04400634765625)"><path fill="rgb(235,198,0)" fill-opacity="1" d=" M24.118999481201172,19.857999801635742 C9.484999656677246,19.863000869750977 -3.9709999561309814,6.127999782562256 -9.347000122070312,-5.103000164031982 C-11.63700008392334,-9.892999649047852 -14.4350004196167,-12.407999992370605 -17.906999588012695,-12.793000221252441 C-26.275999069213867,-13.692000389099121 -37.21099853515625,-2.328000068664551 -40.71900177001953,2.134000062942505 C-40.71900177001953,2.134000062942505 -45.15299987792969,-1.3530000448226929 -45.15299987792969,-1.3530000448226929 C-44.55699920654297,-2.1050000190734863 -30.41900062561035,-19.863000869750977 -17.28700065612793,-18.39299964904785 C-11.79800033569336,-17.78700065612793 -7.420000076293945,-14.135000228881836 -4.260000228881836,-7.533999919891357 C1.378999948501587,4.254000186920166 16.408000946044922,18.017000198364258 29.933000564575195,13.217000007629395 C38.73699951171875,10.097000122070312 36.14400100708008,-3.7249999046325684 36.119998931884766,-3.861999988555908 C36.119998931884766,-3.861999988555908 41.64799880981445,-4.947000026702881 41.64799880981445,-4.947000026702881 C41.79999923706055,-4.179999828338623 45.15299987792969,13.803999900817871 31.81800079345703,18.5310001373291 C29.239999771118164,19.444000244140625 26.658000946044922,19.857999801635742 24.118999481201172,19.857999801635742z"></path></g></g><g transform="matrix(1,0,0,1,269.8039855957031,295.02899169921875)" opacity="1" style="display: block;"><g opacity="1" transform="matrix(1,0,0,1,94.44100189208984,29.590999603271484)"><path fill="rgb(235,198,0)" fill-opacity="1" d=" M-88.83899688720703,29.340999603271484 C-88.83899688720703,29.340999603271484 -94.19100189208984,26.8799991607666 -94.19100189208984,26.8799991607666 C-93.4530029296875,25.27899932861328 -75.83399963378906,-12.505000114440918 -47.659000396728516,-21.51799964904785 C-36.61199951171875,-25.054000854492188 -25.457000732421875,-23.66200065612793 -14.510000228881836,-17.378000259399414 C-6.046000003814697,-12.519000053405762 24.474000930786133,-3.734999895095825 42.672000885009766,-19.985000610351562 C50.24100112915039,-26.738000869750977 58.02399826049805,-29.340999603271484 65.75800323486328,-27.76300048828125 C80.05000305175781,-24.839000701904297 89.70800018310547,-8.36400032043457 94.19100189208984,1.1959999799728394 C94.19100189208984,1.1959999799728394 88.85900115966797,3.696000099182129 88.85900115966797,3.696000099182129 C84.84500122070312,-4.86299991607666 76.35399627685547,-19.584999084472656 64.58100128173828,-21.996999740600586 C58.731998443603516,-23.173999786376953 52.69200134277344,-21.03499984741211 46.59299850463867,-15.590999603271484 C25.753000259399414,3.0179998874664307 -7.639999866485596,-6.644999980926514 -17.441999435424805,-12.270000457763672 C-26.88800048828125,-17.700000762939453 -36.44300079345703,-18.92099952697754 -45.85300064086914,-15.913000106811523 C-71.54900360107422,-7.704999923706055 -88.6709976196289,28.969999313354492 -88.83899688720703,29.340999603271484z"></path></g></g><g transform="matrix(1,0,0,1,339.8169860839844,296.0889892578125)" opacity="1" style="display: block;"><g opacity="1" transform="matrix(1,0,0,1,46.689998626708984,23.488000869750977)"><path fill="rgb(235,198,0)" fill-opacity="1" d=" M38.066001892089844,23.23200035095215 C26.459999084472656,23.23699951171875 16.400999069213867,17.027000427246094 10.722000122070312,5.9039998054504395 C5.145999908447266,-4.994999885559082 -6.434999942779541,-17.016000747680664 -20.97599983215332,-14.88700008392334 C-34.92399978637695,-12.861000061035156 -40.680999755859375,8.989999771118164 -40.73699951171875,9.210000038146973 C-40.73699951171875,9.210000038146973 -46.439998626708984,7.744999885559082 -46.439998626708984,7.744999885559082 C-46.16899871826172,6.690000057220459 -39.61199951171875,-18.128999710083008 -21.826000213623047,-20.716999053955078 C-4.229000091552734,-23.23699951171875 9.51099967956543,-9.409000396728516 15.965999603271484,3.2279999256134033 C21.753000259399414,14.571000099182129 32.63100051879883,19.517000198364258 45.04399871826172,16.475000381469727 C45.04399871826172,16.475000381469727 46.439998626708984,22.197999954223633 46.439998626708984,22.197999954223633 C43.5880012512207,22.895999908447266 40.7859992980957,23.23200035095215 38.066001892089844,23.23200035095215z"></path></g></g><g transform="matrix(1,0,0,1,294.593994140625,319.8299865722656)" opacity="1" style="display: block;"><g opacity="1" transform="matrix(1,0,0,1,48.53499984741211,33.566001892089844)"><path fill="rgb(235,198,0)" fill-opacity="1" d=" M-42.45399856567383,33.314998626708984 C-42.45399856567383,33.314998626708984 -48.28499984741211,32.474998474121094 -48.28499984741211,32.474998474121094 C-48.28499984741211,32.474998474121094 -47.78200149536133,28.83300018310547 -47.78200149536133,28.83300018310547 C-45.37200164794922,11.059000015258789 -41.340999603271484,-18.687000274658203 -14.97599983215332,-27.96500015258789 C-2.134000062942505,-32.47700119018555 23.16900062561035,-33.314998626708984 48.28499984741211,11.831000328063965 C48.28499984741211,11.831000328063965 43.138999938964844,14.690999984741211 43.138999938964844,14.690999984741211 C21.27899932861328,-24.610000610351562 0.5320000052452087,-27.179000854492188 -13.02299976348877,-22.408000946044922 C-35.98899841308594,-14.32699966430664 -39.573001861572266,12.12399959564209 -41.94599914550781,29.625 C-41.94599914550781,29.625 -42.45399856567383,33.314998626708984 -42.45399856567383,33.314998626708984z"></path></g></g><g transform="matrix(1,0,0,1,184.47000122070312,354.1109924316406)" opacity="1" style="display: block;"><g opacity="1" transform="matrix(1,0,0,1,108.28800201416016,51.13800048828125)"><path fill="rgb(240,239,232)" fill-opacity="1" d=" M39.14400100708008,50.887001037597656 C39.14400100708008,50.887001037597656 108.03800201416016,33.66299819946289 108.03800201416016,33.66299819946289 C108.03800201416016,33.66299819946289 -43.84199905395508,-50.887001037597656 -43.84199905395508,-50.887001037597656 C-43.84199905395508,-50.887001037597656 -108.03800201416016,-39.928001403808594 -108.03800201416016,-39.928001403808594 C-108.03800201416016,-39.928001403808594 39.14400100708008,50.887001037597656 39.14400100708008,50.887001037597656z"></path></g></g><g transform="matrix(1,0,0,1,368.5660095214844,312.46099853515625)" opacity="1" style="display: block;"><g opacity="1" transform="matrix(1,0,0,1,8.767000198364258,5.1539998054504395)"><path fill="rgb(60,170,170)" fill-opacity="1" d=" M-8.517000198364258,1.805999994277954 C-8.517000198364258,1.805999994277954 -2.322999954223633,-4.9039998054504395 -2.322999954223633,-4.9039998054504395 C-2.322999954223633,-4.9039998054504395 8.517000198364258,-0.257999986410141 8.517000198364258,-0.257999986410141 C8.517000198364258,-0.257999986410141 3.871000051498413,4.9039998054504395 3.871000051498413,4.9039998054504395 C3.871000051498413,4.9039998054504395 -8.517000198364258,1.805999994277954 -8.517000198364258,1.805999994277954z"></path></g></g><g transform="matrix(1,0,0,1,344.541015625,360.1920166015625)" opacity="1" style="display: block;"><g opacity="1" transform="matrix(1,0,0,1,7.339000225067139,5.081999778747559)"><path fill="rgb(60,170,170)" fill-opacity="1" d=" M-7.089000225067139,4.831999778747559 C-7.089000225067139,4.831999778747559 -4.671999931335449,-3.9749999046325684 -4.671999931335449,-3.9749999046325684 C-4.671999931335449,-3.9749999046325684 7.089000225067139,-4.831999778747559 7.089000225067139,-4.831999778747559 C7.089000225067139,-4.831999778747559 5.335999965667725,1.8880000114440918 5.335999965667725,1.8880000114440918 C5.335999965667725,1.8880000114440918 -7.089000225067139,4.831999778747559 -7.089000225067139,4.831999778747559z"></path></g></g><g transform="matrix(1,0,0,1,397.4730224609375,346.2550048828125)" opacity="1" style="display: block;"><g opacity="1" transform="matrix(1,0,0,1,6.940000057220459,3.61299991607666)"><path fill="rgb(60,170,170)" fill-opacity="1" d=" M-6.690000057220459,3.361999988555908 C-6.690000057220459,3.361999988555908 -5.072000026702881,-2.505000114440918 -5.072000026702881,-2.505000114440918 C-5.072000026702881,-2.505000114440918 6.690000057220459,-3.361999988555908 6.690000057220459,-3.361999988555908 C6.690000057220459,-3.361999988555908 4.938000202178955,3.3580000400543213 4.938000202178955,3.3580000400543213 C4.938000202178955,3.3580000400543213 -6.690000057220459,3.361999988555908 -6.690000057220459,3.361999988555908z"></path></g></g><g transform="matrix(1,0,0,1,400.5460205078125,318.50201416015625)" opacity="1" style="display: block;"><g opacity="1" transform="matrix(1,0,0,1,100.45899963378906,68.94200134277344)"><path fill="rgb(240,239,232)" fill-opacity="1" d=" M100.20899963378906,-36.21500015258789 C97.25700378417969,-35.23099899291992 3.9140000343322754,68.69200134277344 3.9140000343322754,68.69200134277344 C3.9140000343322754,68.69200134277344 -100.20899963378906,49.90299987792969 -100.20899963378906,49.90299987792969 C-100.20899963378906,49.90299987792969 36.237998962402344,-68.69200134277344 36.237998962402344,-68.69200134277344 C36.237998962402344,-68.69200134277344 100.20899963378906,-36.21500015258789 100.20899963378906,-36.21500015258789z"></path></g></g><g transform="matrix(1,0,0,1,300.9469909667969,332.1109924316406)" opacity="1" style="display: block;"><g opacity="1" transform="matrix(1,0,0,1,32.89899826049805,11.588000297546387)"><path fill="rgb(255,130,106)" fill-opacity="1" d=" M-32.64799880981445,8.241000175476074 C-32.64799880981445,8.241000175476074 -12.581000328063965,-11.338000297546387 7.0970001220703125,-7.760000228881836 C24.131000518798828,-4.663000106811523 32.64799880981445,2.305000066757202 32.64799880981445,2.305000066757202 C32.64799880981445,2.305000066757202 28.003000259399414,4.886000156402588 28.003000259399414,4.886000156402588 C28.003000259399414,4.886000156402588 14.579999923706055,-1.7790000438690186 0.902999997138977,-2.0820000171661377 C-10.711999893188477,-2.3410000801086426 -29.29400062561035,11.338000297546387 -29.29400062561035,11.338000297546387 C-29.29400062561035,11.338000297546387 -32.64799880981445,8.241000175476074 -32.64799880981445,8.241000175476074z"></path></g></g><g transform="matrix(1,0,0,1,383.7380065917969,359.3320007324219)" opacity="1" style="display: block;"><g opacity="1" transform="matrix(1,0,0,1,27.270000457763672,20.299999237060547)"><path fill="rgb(255,130,106)" fill-opacity="1" d=" M27.020000457763672,-18.989999771118164 C27.020000457763672,-18.989999771118164 19.099000930786133,7.906000137329102 0.1889999955892563,14.414999961853027 C-16.18199920654297,20.049999237060547 -27.020000457763672,18.138999938964844 -27.020000457763672,18.138999938964844 C-27.020000457763672,18.138999938964844 -24.231000900268555,13.616000175476074 -24.231000900268555,13.616000175476074 C-24.231000900268555,13.616000175476074 -9.265000343322754,12.859999656677246 2.812000036239624,6.432000160217285 C13.067000389099121,0.9739999771118164 22.57900047302246,-20.048999786376953 22.57900047302246,-20.048999786376953 C22.57900047302246,-20.048999786376953 27.020000457763672,-18.989999771118164 27.020000457763672,-18.989999771118164z"></path></g></g><g transform="matrix(1,0,0,1,409.3450012207031,293.0870056152344)" opacity="1" style="display: block;"><g opacity="1" transform="matrix(1,0,0,1,31.777000427246094,33.57400131225586)"><path fill="rgb(255,255,255)" fill-opacity="1" d=" M-23.98900032043457,-32.89099884033203 C-22.264999389648438,-30.10700035095215 -18.875,-23.77899932861328 -14.949000358581543,-18.878999710083008 C-11.02400016784668,-13.979000091552734 2.734999895095825,3.819999933242798 7.236999988555908,8.59000015258789 C11.739999771118164,13.359999656677246 16.55900001525879,17.68600082397461 22.20599937438965,21.077999114990234 C27.854000091552734,24.47100067138672 33.14099884033203,27.011999130249023 31.461000442504883,29.81599998474121 C29.781999588012695,32.619998931884766 27.683000564575195,35.33100128173828 22.06999969482422,32.11800003051758 C16.45599937438965,28.90399932861328 16.22100067138672,27.652000427246094 9.460000038146973,21.524999618530273 C2.697999954223633,15.397000312805176 -2.072000026702881,9.194999694824219 -5.059000015258789,5.015999794006348 C-8.04800033569336,0.8379999995231628 -11.805000305175781,-3.1670000553131104 -17.96500015258789,-10.36299991607666 C-24.124000549316406,-17.558000564575195 -30.90999984741211,-22.746999740600586 -31.62299919128418,-27.625 C-32.316001892089844,-32.362998962402344 -30.57200050354004,-32.7130012512207 -28.48900032043457,-33.36899948120117 C-26.406999588012695,-34.025001525878906 -23.98900032043457,-32.89099884033203 -23.98900032043457,-32.89099884033203z"></path></g><g opacity="1" transform="matrix(1,0,0,1,57.516998291015625,53.95399856567383)"><path fill="rgb(252,247,154)" fill-opacity="1" d=" M1.4259999990463257,-1.7259999513626099 C0.5630000233650208,-5.263000011444092 -0.05700000002980232,-8.576000213623047 -2.056999921798706,-9.618000030517578 C-4.056000232696533,-10.65999984741211 -6.290999889373779,-10.8100004196167 -7.820000171661377,-9.345999717712402 C-9.350000381469727,-7.881999969482422 -10.111000061035156,-6.591000080108643 -8.895999908447266,-3.319000005722046 C-7.682000160217285,-0.04699999839067459 -6.308000087738037,3.003000020980835 -4.073999881744385,5.297999858856201 C-1.840999960899353,7.5929999351501465 -0.6119999885559082,8.991000175476074 2.0169999599456787,9.989999771118164 C4.175000190734863,10.8100004196167 5.843999862670898,10.621000289916992 7.611999988555908,8.822999954223633 C9.880000114440918,6.515999794006348 10.111000061035156,3.9679999351501465 7.275000095367432,2.740999937057495 C4.439000129699707,1.5140000581741333 1.4259999990463257,-1.7259999513626099 1.4259999990463257,-1.7259999513626099z"></path></g></g></g></svg>