<svg id="Сгруппировать_57" data-name="Сгруппировать 57" xmlns="http://www.w3.org/2000/svg" width="155.984" height="155.335" viewBox="0 0 155.984 155.335">
  <path id="Контур_93" data-name="Контур 93" d="M160.241,121.339l-58.4-43.663,37.783-39.5-.157-.15,9.706-32.057-31.6,11.119-.128-.122-.24.251-.017.006,0,.008L77.086,59.166,4.257,4.715,44.122,93.626,30.459,107.909l-.05-.048L15.6,123.345l22.173,21.21,11.183-11.69.051.049,8.668-9.062,16.23,36.2ZM133.5,22.359,131.16,30.08l-5.272-5.043Zm-15.725,9.108,7.353,7.033L93.568,71.49,85.36,65.353Zm22.365,87.646L79.065,146.5,29.8,36.617ZM37.45,130.056,30.1,123.023l4.094-4.28,7.353,7.033Zm11.234-11.642-7.353-7.034,7.32-7.652,4.493,10.022Z" transform="translate(-4.257 -4.715)" fill="#3575f2"/>
  <path id="Контур_94" data-name="Контур 94" d="M126.767,129.418,74.248,90.151l23.449,52.3Zm-20.1-2.225-3.805,1.705-3.069-6.845Z" transform="translate(-21.08 -25.25)" fill="#3575f2"/>
</svg>
