<svg xmlns="http://www.w3.org/2000/svg" xmlns:xlink="http://www.w3.org/1999/xlink" width="60" height="59.999" viewBox="0 0 60 59.999">
  <defs>
    <linearGradient id="linear-gradient" x1="1" y1="0.5" x2="0" y2="0.5" gradientUnits="objectBoundingBox">
      <stop offset="0" stop-color="#483aeb"/>
      <stop offset="1" stop-color="#007eff"/>
    </linearGradient>
  </defs>
  <path id="Контур_4021" data-name="Контур 4021" d="M24.375-39.375a8.651,8.651,0,0,0-8.652,8.652c0,3.862,5.654,10.9,7.821,13.46a1.229,1.229,0,0,0,.831.388,1.229,1.229,0,0,0,.831-.388c2.167-2.556,7.821-9.6,7.821-13.46A8.651,8.651,0,0,0,24.375-39.375Zm0,11.25a2.813,2.813,0,0,1-2.812-2.812,2.812,2.812,0,0,1,2.812-2.812,2.812,2.812,0,0,1,2.812,2.812A2.813,2.813,0,0,1,24.375-28.125ZM59.586,2.447,45.361-11.78a1.39,1.39,0,0,0-1-.41H42.818a24.308,24.308,0,0,0,5.93-15.936A24.371,24.371,0,0,0,24.374-52.5,24.371,24.371,0,0,0,0-28.126,24.371,24.371,0,0,0,24.374-3.752,24.306,24.306,0,0,0,40.31-9.682v1.547a1.441,1.441,0,0,0,.41,1L54.946,7.086a1.407,1.407,0,0,0,1.992,0l2.648-2.648A1.4,1.4,0,0,0,59.586,2.447ZM24.374-9.377A18.744,18.744,0,0,1,5.625-28.126,18.743,18.743,0,0,1,24.374-46.875,18.744,18.744,0,0,1,43.123-28.126,18.744,18.744,0,0,1,24.374-9.377Z" transform="translate(0 52.5)" fill="url(#linear-gradient)"/>
</svg>
