<svg xmlns="http://www.w3.org/2000/svg" xmlns:xlink="http://www.w3.org/1999/xlink" width="52.5" height="60" viewBox="0 0 52.5 60">
  <defs>
    <linearGradient id="linear-gradient" x1="1" y1="0.5" x2="0" y2="0.5" gradientUnits="objectBoundingBox">
      <stop offset="0" stop-color="#483aeb"/>
      <stop offset="1" stop-color="#007eff"/>
    </linearGradient>
  </defs>
  <path id="Контур_4023" data-name="Контур 4023" d="M52.305-1.733,45-17.858c.52-1.34.975-1.661,2.618-3.3a6.019,6.019,0,0,0,1.534-3.7,6.294,6.294,0,0,0-.178-1.355c-.971-3.627-.973-3.123,0-6.752a6.3,6.3,0,0,0,.178-1.355,6.019,6.019,0,0,0-1.534-3.7c-2.658-2.66-2.4-2.22-3.377-5.85a5.788,5.788,0,0,0-3.7-3.7c-3.628-.971-3.19-.718-5.848-3.376A6.019,6.019,0,0,0,30.982-52.5a6.3,6.3,0,0,0-1.356.178c-3.617.969-3.128.971-6.752,0a6.3,6.3,0,0,0-1.355-.178,6.02,6.02,0,0,0-3.706,1.535c-2.655,2.655-2.218,2.4-5.848,3.376a5.788,5.788,0,0,0-3.7,3.7c-.971,3.628-.718,3.19-3.376,5.848a5.238,5.238,0,0,0-1.356,5.06c.971,3.627.973,3.123,0,6.752a6.289,6.289,0,0,0-.178,1.355,6.019,6.019,0,0,0,1.534,3.7c1.77,1.771,2.112,2,2.618,3.3L.195-1.733a2.369,2.369,0,0,0,2.4,3.216l.1,0,8.538-.294L17.107,6.77a2.717,2.717,0,0,0,1.877.73,2.6,2.6,0,0,0,2.408-1.453L26.25-4.672,31.107,6.047A2.6,2.6,0,0,0,33.516,7.5a2.708,2.708,0,0,0,1.876-.73l5.875-5.584L49.8,1.48l.1,0A2.37,2.37,0,0,0,52.305-1.733Zm-34.29,1.6L13.4-4.516l-5.858.2L11.023-12a5.165,5.165,0,0,0,.942.391c2.946.79,3.139.668,5.046,2.575A5.233,5.233,0,0,0,20.718-7.5a5.4,5.4,0,0,0,.681-.094Zm2.76-13.1c-2.581-2.588-3.954-2.906-7.139-3.761-1.329-4.957-2-5.377-4.617-8,1.349-5.031.925-5.787,0-9.233,3.628-3.628,3.659-4.417,4.618-8,3.409-.912,4.344-.963,8-4.617,4.995,1.338,5.764.931,9.233,0,2.495,2.495,3.006,3.279,8,4.617,1.329,4.957,2,5.377,4.617,8-1.328,4.957-.96,5.655,0,9.235-2.495,2.495-3.279,3.007-4.617,8-3.079.825-4.486,1.106-7.14,3.761A10.88,10.88,0,0,0,20.775-13.226ZM41.46-4.435,39.1-4.516,34.485-.129,31.1-7.594a5.2,5.2,0,0,0,.681.094,5.235,5.235,0,0,0,3.707-1.535c1.923-1.923,2.087-1.781,5.046-2.575A5.151,5.151,0,0,0,41.477-12L44.96-4.316ZM37.5-30A11.25,11.25,0,0,0,26.25-41.25,11.25,11.25,0,0,0,15-30,11.25,11.25,0,0,0,26.25-18.75,11.25,11.25,0,0,0,37.5-30ZM26.25-24.375A5.631,5.631,0,0,1,20.625-30a5.631,5.631,0,0,1,5.625-5.625A5.631,5.631,0,0,1,31.875-30,5.631,5.631,0,0,1,26.25-24.375Z" transform="translate(0 52.5)" fill="url(#linear-gradient)"/>
</svg>
