<svg width="267" height="37" viewBox="0 0 267 37" fill="none" xmlns="http://www.w3.org/2000/svg">
<path d="M45.83 29C45.33 29 44.96 28.8 44.72 28.4C44.5 27.98 44.48 27.56 44.66 27.14L53.36 6.44C53.62 5.86 54.04 5.57 54.62 5.57C55.2 5.57 55.6 5.86 55.82 6.44L64.55 27.17C64.75 27.61 64.72 28.03 64.46 28.43C64.22 28.81 63.87 29 63.41 29C63.15 29 62.91 28.93 62.69 28.79C62.47 28.65 62.3 28.46 62.18 28.22L54.2 8.66H55.1L47 28.22C46.9 28.48 46.74 28.68 46.52 28.82C46.3 28.94 46.07 29 45.83 29ZM47.69 23.54L48.68 21.35H60.71L61.73 23.54H47.69ZM71.4538 29C70.6138 29 69.8738 28.78 69.2338 28.34C68.5938 27.88 68.0938 27.25 67.7338 26.45C67.3738 25.65 67.1938 24.73 67.1938 23.69V6.83C67.1938 6.45 67.3038 6.15 67.5238 5.93C67.7638 5.69 68.0738 5.57 68.4538 5.57C68.8138 5.57 69.1038 5.69 69.3238 5.93C69.5638 6.15 69.6838 6.45 69.6838 6.83V23.69C69.6838 24.51 69.8438 25.19 70.1638 25.73C70.5038 26.25 70.9338 26.51 71.4538 26.51H72.2038C72.5238 26.51 72.7838 26.63 72.9838 26.87C73.1838 27.09 73.2838 27.38 73.2838 27.74C73.2838 28.12 73.1338 28.43 72.8338 28.67C72.5538 28.89 72.1838 29 71.7238 29H71.4538ZM80.0963 29C79.2563 29 78.5163 28.78 77.8763 28.34C77.2363 27.88 76.7363 27.25 76.3763 26.45C76.0163 25.65 75.8363 24.73 75.8363 23.69V6.83C75.8363 6.45 75.9463 6.15 76.1663 5.93C76.4063 5.69 76.7163 5.57 77.0963 5.57C77.4563 5.57 77.7463 5.69 77.9663 5.93C78.2063 6.15 78.3263 6.45 78.3263 6.83V23.69C78.3263 24.51 78.4863 25.19 78.8063 25.73C79.1463 26.25 79.5763 26.51 80.0963 26.51H80.8463C81.1663 26.51 81.4263 26.63 81.6263 26.87C81.8263 27.09 81.9263 27.38 81.9263 27.74C81.9263 28.12 81.7763 28.43 81.4763 28.67C81.1963 28.89 80.8263 29 80.3663 29H80.0963ZM214.064 29.15C212.544 29.15 211.184 28.79 209.984 28.07C208.784 27.33 207.834 26.33 207.134 25.07C206.434 23.81 206.084 22.39 206.084 20.81C206.084 19.21 206.444 17.78 207.164 16.52C207.904 15.26 208.904 14.27 210.164 13.55C211.424 12.81 212.844 12.44 214.424 12.44C215.984 12.44 217.384 12.81 218.624 13.55C219.884 14.27 220.874 15.26 221.594 16.52C222.334 17.78 222.714 19.21 222.734 20.81L221.714 21.32C221.714 22.8 221.374 24.13 220.694 25.31C220.034 26.49 219.124 27.43 217.964 28.13C216.824 28.81 215.524 29.15 214.064 29.15ZM214.424 26.87C215.544 26.87 216.534 26.61 217.394 26.09C218.274 25.55 218.964 24.82 219.464 23.9C219.984 22.98 220.244 21.95 220.244 20.81C220.244 19.65 219.984 18.62 219.464 17.72C218.964 16.8 218.274 16.07 217.394 15.53C216.534 14.99 215.544 14.72 214.424 14.72C213.324 14.72 212.324 14.99 211.424 15.53C210.544 16.07 209.844 16.8 209.324 17.72C208.804 18.62 208.544 19.65 208.544 20.81C208.544 21.95 208.804 22.98 209.324 23.9C209.844 24.82 210.544 25.55 211.424 26.09C212.324 26.61 213.324 26.87 214.424 26.87ZM221.444 29C221.084 29 220.774 28.89 220.514 28.67C220.274 28.43 220.154 28.12 220.154 27.74V22.79L220.724 20.18L222.734 20.81V27.74C222.734 28.12 222.614 28.43 222.374 28.67C222.134 28.89 221.824 29 221.444 29ZM228.517 36.02C228.117 36.02 227.797 35.9 227.557 35.66C227.337 35.44 227.227 35.13 227.227 34.73V20.72C227.247 19.16 227.617 17.76 228.337 16.52C229.077 15.26 230.067 14.27 231.307 13.55C232.547 12.81 233.947 12.44 235.507 12.44C237.107 12.44 238.527 12.81 239.767 13.55C241.027 14.27 242.017 15.26 242.737 16.52C243.477 17.78 243.847 19.21 243.847 20.81C243.847 22.39 243.497 23.81 242.797 25.07C242.117 26.33 241.177 27.33 239.977 28.07C238.777 28.79 237.417 29.15 235.897 29.15C234.597 29.15 233.417 28.88 232.357 28.34C231.297 27.78 230.437 27.05 229.777 26.15V34.73C229.777 35.13 229.657 35.44 229.417 35.66C229.177 35.9 228.877 36.02 228.517 36.02ZM235.507 26.87C236.627 26.87 237.627 26.61 238.507 26.09C239.407 25.55 240.107 24.82 240.607 23.9C241.127 22.98 241.387 21.95 241.387 20.81C241.387 19.65 241.127 18.62 240.607 17.72C240.107 16.8 239.407 16.07 238.507 15.53C237.627 14.99 236.627 14.72 235.507 14.72C234.427 14.72 233.437 14.99 232.537 15.53C231.657 16.07 230.967 16.8 230.467 17.72C229.967 18.62 229.717 19.65 229.717 20.81C229.717 21.95 229.967 22.98 230.467 23.9C230.967 24.82 231.657 25.55 232.537 26.09C233.417 26.61 234.407 26.87 235.507 26.87ZM249.699 36.02C249.299 36.02 248.979 35.9 248.739 35.66C248.519 35.44 248.409 35.13 248.409 34.73V20.72C248.429 19.16 248.799 17.76 249.519 16.52C250.259 15.26 251.249 14.27 252.489 13.55C253.729 12.81 255.129 12.44 256.689 12.44C258.289 12.44 259.709 12.81 260.949 13.55C262.209 14.27 263.199 15.26 263.919 16.52C264.659 17.78 265.029 19.21 265.029 20.81C265.029 22.39 264.679 23.81 263.979 25.07C263.299 26.33 262.359 27.33 261.159 28.07C259.959 28.79 258.599 29.15 257.079 29.15C255.779 29.15 254.599 28.88 253.539 28.34C252.479 27.78 251.619 27.05 250.959 26.15V34.73C250.959 35.13 250.839 35.44 250.599 35.66C250.359 35.9 250.059 36.02 249.699 36.02ZM256.689 26.87C257.809 26.87 258.809 26.61 259.689 26.09C260.589 25.55 261.289 24.82 261.789 23.9C262.309 22.98 262.569 21.95 262.569 20.81C262.569 19.65 262.309 18.62 261.789 17.72C261.289 16.8 260.589 16.07 259.689 15.53C258.809 14.99 257.809 14.72 256.689 14.72C255.609 14.72 254.619 14.99 253.719 15.53C252.839 16.07 252.149 16.8 251.649 17.72C251.149 18.62 250.899 19.65 250.899 20.81C250.899 21.95 251.149 22.98 251.649 23.9C252.149 24.82 252.839 25.55 253.719 26.09C254.599 26.61 255.589 26.87 256.689 26.87Z" fill="#142328"/>
<path d="M92.5489 29.15C90.9689 29.15 89.5489 28.79 88.2889 28.07C87.0289 27.33 86.0289 26.33 85.2889 25.07C84.5689 23.81 84.2089 22.38 84.2089 20.78C84.2089 19.2 84.5589 17.78 85.2589 16.52C85.9589 15.26 86.9089 14.27 88.1089 13.55C89.3089 12.81 90.6689 12.44 92.1889 12.44C93.4889 12.44 94.6589 12.72 95.6989 13.28C96.7589 13.82 97.6189 14.54 98.2789 15.44V6.86C98.2789 6.46 98.3989 6.15 98.6389 5.93C98.8989 5.69 99.2089 5.57 99.5689 5.57C99.9489 5.57 100.259 5.69 100.499 5.93C100.739 6.15 100.859 6.46 100.859 6.86V20.87C100.819 22.43 100.429 23.84 99.6889 25.1C98.9689 26.34 97.9889 27.33 96.7489 28.07C95.5089 28.79 94.1089 29.15 92.5489 29.15ZM92.5489 26.87C93.6689 26.87 94.6589 26.6 95.5189 26.06C96.3989 25.52 97.0889 24.8 97.5889 23.9C98.1089 22.98 98.3689 21.94 98.3689 20.78C98.3689 19.64 98.1089 18.61 97.5889 17.69C97.0889 16.77 96.3989 16.05 95.5189 15.53C94.6589 14.99 93.6689 14.72 92.5489 14.72C91.4489 14.72 90.4489 14.99 89.5489 15.53C88.6689 16.05 87.9689 16.77 87.4489 17.69C86.9289 18.61 86.6689 19.64 86.6689 20.78C86.6689 21.94 86.9289 22.98 87.4489 23.9C87.9689 24.8 88.6689 25.52 89.5489 26.06C90.4489 26.6 91.4489 26.87 92.5489 26.87ZM113.791 29.15C112.151 29.15 110.701 28.8 109.441 28.1C108.181 27.38 107.191 26.39 106.471 25.13C105.751 23.87 105.391 22.43 105.391 20.81C105.391 19.17 105.731 17.73 106.411 16.49C107.091 15.23 108.021 14.24 109.201 13.52C110.401 12.8 111.781 12.44 113.341 12.44C114.861 12.44 116.181 12.79 117.301 13.49C118.441 14.17 119.311 15.12 119.911 16.34C120.531 17.56 120.841 18.95 120.841 20.51C120.841 20.85 120.731 21.13 120.511 21.35C120.291 21.55 120.011 21.65 119.671 21.65H107.131V19.58H119.821L118.531 20.48C118.551 19.38 118.351 18.39 117.931 17.51C117.511 16.63 116.911 15.94 116.131 15.44C115.351 14.94 114.421 14.69 113.341 14.69C112.201 14.69 111.201 14.95 110.341 15.47C109.501 15.99 108.851 16.72 108.391 17.66C107.951 18.58 107.731 19.63 107.731 20.81C107.731 21.99 107.991 23.04 108.511 23.96C109.031 24.88 109.741 25.6 110.641 26.12C111.561 26.64 112.611 26.9 113.791 26.9C114.471 26.9 115.161 26.78 115.861 26.54C116.581 26.3 117.151 26 117.571 25.64C117.811 25.46 118.081 25.37 118.381 25.37C118.701 25.35 118.961 25.43 119.161 25.61C119.461 25.87 119.611 26.15 119.611 26.45C119.631 26.75 119.501 27.01 119.221 27.23C118.561 27.79 117.721 28.25 116.701 28.61C115.681 28.97 114.711 29.15 113.791 29.15ZM128.407 29C127.567 29 126.827 28.78 126.187 28.34C125.547 27.88 125.047 27.25 124.687 26.45C124.327 25.65 124.147 24.73 124.147 23.69V6.83C124.147 6.45 124.257 6.15 124.477 5.93C124.717 5.69 125.027 5.57 125.407 5.57C125.767 5.57 126.057 5.69 126.277 5.93C126.517 6.15 126.637 6.45 126.637 6.83V23.69C126.637 24.51 126.797 25.19 127.117 25.73C127.457 26.25 127.887 26.51 128.407 26.51H129.157C129.477 26.51 129.737 26.63 129.937 26.87C130.137 27.09 130.237 27.38 130.237 27.74C130.237 28.12 130.087 28.43 129.787 28.67C129.507 28.89 129.137 29 128.677 29H128.407ZM135.099 29C134.719 29 134.409 28.89 134.169 28.67C133.929 28.43 133.809 28.11 133.809 27.71V13.88C133.809 13.48 133.929 13.17 134.169 12.95C134.409 12.71 134.719 12.59 135.099 12.59C135.479 12.59 135.779 12.71 135.999 12.95C136.239 13.17 136.359 13.48 136.359 13.88V27.71C136.359 28.11 136.239 28.43 135.999 28.67C135.779 28.89 135.479 29 135.099 29ZM135.069 9.62C134.589 9.62 134.179 9.45 133.839 9.11C133.499 8.75 133.329 8.33 133.329 7.85C133.329 7.35 133.499 6.94 133.839 6.62C134.199 6.3 134.609 6.14 135.069 6.14C135.529 6.14 135.929 6.3 136.269 6.62C136.629 6.94 136.809 7.35 136.809 7.85C136.809 8.33 136.639 8.75 136.299 9.11C135.959 9.45 135.549 9.62 135.069 9.62ZM147.759 29C147.239 29 146.849 28.72 146.589 28.16L140.019 14.24C139.879 13.96 139.859 13.68 139.959 13.4C140.079 13.12 140.299 12.9 140.619 12.74C140.919 12.58 141.209 12.56 141.489 12.68C141.789 12.78 142.019 12.97 142.179 13.25L148.419 26.78H147.129L153.309 13.25C153.429 12.95 153.649 12.75 153.969 12.65C154.289 12.55 154.599 12.57 154.899 12.71C155.219 12.87 155.429 13.1 155.529 13.4C155.629 13.68 155.619 13.95 155.499 14.21L148.989 28.16C148.729 28.72 148.319 29 147.759 29ZM165.646 29.15C164.006 29.15 162.556 28.8 161.296 28.1C160.036 27.38 159.046 26.39 158.326 25.13C157.606 23.87 157.246 22.43 157.246 20.81C157.246 19.17 157.586 17.73 158.266 16.49C158.946 15.23 159.876 14.24 161.056 13.52C162.256 12.8 163.636 12.44 165.196 12.44C166.716 12.44 168.036 12.79 169.156 13.49C170.296 14.17 171.166 15.12 171.766 16.34C172.386 17.56 172.696 18.95 172.696 20.51C172.696 20.85 172.586 21.13 172.366 21.35C172.146 21.55 171.866 21.65 171.526 21.65H158.986V19.58H171.676L170.386 20.48C170.406 19.38 170.206 18.39 169.786 17.51C169.366 16.63 168.766 15.94 167.986 15.44C167.206 14.94 166.276 14.69 165.196 14.69C164.056 14.69 163.056 14.95 162.196 15.47C161.356 15.99 160.706 16.72 160.246 17.66C159.806 18.58 159.586 19.63 159.586 20.81C159.586 21.99 159.846 23.04 160.366 23.96C160.886 24.88 161.596 25.6 162.496 26.12C163.416 26.64 164.466 26.9 165.646 26.9C166.326 26.9 167.016 26.78 167.716 26.54C168.436 26.3 169.006 26 169.426 25.64C169.666 25.46 169.936 25.37 170.236 25.37C170.556 25.35 170.816 25.43 171.016 25.61C171.316 25.87 171.466 26.15 171.466 26.45C171.486 26.75 171.356 27.01 171.076 27.23C170.416 27.79 169.576 28.25 168.556 28.61C167.536 28.97 166.566 29.15 165.646 29.15ZM177.712 18.83C177.752 17.61 178.062 16.52 178.642 15.56C179.242 14.58 180.022 13.81 180.982 13.25C181.962 12.69 183.032 12.41 184.192 12.41C185.212 12.41 185.982 12.56 186.502 12.86C187.042 13.16 187.242 13.57 187.102 14.09C187.042 14.37 186.912 14.57 186.712 14.69C186.532 14.81 186.312 14.87 186.052 14.87C185.812 14.87 185.532 14.85 185.212 14.81C184.032 14.67 182.982 14.75 182.062 15.05C181.162 15.33 180.442 15.8 179.902 16.46C179.362 17.12 179.092 17.91 179.092 18.83H177.712ZM177.862 29C177.462 29 177.152 28.89 176.932 28.67C176.712 28.45 176.602 28.14 176.602 27.74V13.85C176.602 13.45 176.712 13.14 176.932 12.92C177.152 12.7 177.462 12.59 177.862 12.59C178.262 12.59 178.562 12.7 178.762 12.92C178.982 13.14 179.092 13.45 179.092 13.85V27.74C179.092 28.14 178.982 28.45 178.762 28.67C178.562 28.89 178.262 29 177.862 29ZM193.456 36.17C193.296 36.17 193.096 36.12 192.856 36.02C192.116 35.68 191.916 35.15 192.256 34.43L201.766 13.28C202.106 12.58 202.636 12.39 203.356 12.71C204.096 13.01 204.306 13.53 203.986 14.27L194.416 35.39C194.216 35.91 193.896 36.17 193.456 36.17ZM196.846 28.43C196.526 28.59 196.226 28.62 195.946 28.52C195.666 28.42 195.436 28.2 195.256 27.86L188.536 14.27C188.376 13.93 188.346 13.62 188.446 13.34C188.566 13.06 188.786 12.84 189.106 12.68C189.446 12.54 189.756 12.52 190.036 12.62C190.316 12.72 190.536 12.93 190.696 13.25L197.266 26.87C197.426 27.19 197.476 27.5 197.416 27.8C197.376 28.08 197.186 28.29 196.846 28.43Z" fill="#06C167"/>
<path d="M30.3661 4.92025V17.2972C30.3661 17.6113 30.3032 18.4281 30.3032 18.7422V18.8679C29.8634 25.9045 25.0258 30.2396 17.6122 30.2396C16.003 30.2791 14.4028 29.9871 12.9113 29.3819C11.4197 28.7766 10.0687 27.871 8.94201 26.7213C7.88041 25.5774 7.06057 24.2311 6.53159 22.7629C6.00261 21.2947 5.77537 19.7349 5.86349 18.1768C6.1148 12.271 11.2038 7.93595 17.6122 7.93595C18.8932 7.88414 20.1724 8.07602 21.3818 8.5014V14.5328L21.0677 14.4072C20.1762 14.0254 19.2089 13.8534 18.2404 13.9045C16.23 13.8417 14.408 14.5328 13.4027 15.7265C12.6253 16.6614 12.2025 17.8405 12.209 19.0564C12.1985 20.292 12.6208 21.4923 13.4027 22.449C14.0223 23.0941 14.7783 23.5925 15.6153 23.9078C16.4523 24.223 17.3492 24.3471 18.2404 24.271C22.5127 24.0826 23.6436 20.6271 23.9577 18.5538C24.0834 17.5485 24.1462 15.538 24.1462 15.2867V1.06894C22.235 0.364506 20.2145 0.00293911 18.1776 0.000876932C13.9841 -0.0405018 9.90781 1.38364 6.65245 4.02743C3.39709 6.67121 1.16702 10.3687 0.347267 14.4815C-0.472485 18.5943 0.169536 22.8642 2.16248 26.5541C4.15543 30.2439 7.37421 33.1221 11.2631 34.6917C15.152 36.2613 19.4668 36.4238 23.4627 35.151C27.4586 33.8783 30.8847 31.2503 33.1495 27.7207C35.4142 24.1912 36.3755 19.9816 35.8673 15.8188C35.3591 11.656 33.4134 7.80133 30.3661 4.92025V4.92025Z" fill="#06C167"/>
</svg>
