<svg width="73" height="77" viewBox="0 0 73 77" fill="none" xmlns="http://www.w3.org/2000/svg">
<path d="M32.3973 54.996L37.6426 62.4011C36.1785 64.3044 32.1442 64.9572 28.0776 64.8541M22.8323 54.996C20.3639 59.0071 19.7468 60.8584 17.8955 62.4011C19.0305 63.6983 23.5738 64.7398 28.0776 64.8541M28.0776 64.8541C28.6947 71.349 22.5237 73.2003 22.5237 76.5943" stroke="black" stroke-width="7"/>
<path d="M60.7842 1C60.6814 4.29118 59.3032 11.6758 54.6133 14.8847" stroke="black" stroke-width="7"/>
<path d="M50.6016 3.15979C50.4988 5.35391 49.1206 10.277 44.4307 12.4162" stroke="black" stroke-width="7"/>
<path d="M54.9218 14.5993C58.1008 13.7414 65.5673 12.9144 70.0004 16.4696" stroke="black" stroke-width="7"/>
<path d="M51.2192 24.3058C53.2722 23.2989 58.2557 21.7508 61.7656 23.6135" stroke="black" stroke-width="7"/>
<path d="M55.5304 21.3888C57.5729 28.0634 57.0845 35.2566 54.1586 41.5938C51.2328 47.9311 46.0745 52.9682 39.6695 55.7427C33.2645 58.5172 26.0618 58.8345 19.4376 56.634C12.8134 54.4335 7.23218 49.8695 3.76037 43.814C0.288559 37.7586 -0.83044 30.6362 0.617182 23.8079C2.0648 16.9795 5.97755 10.9239 11.6078 6.79814C17.2381 2.67234 24.1911 0.765622 31.1383 1.4423C38.0855 2.11897 44.5399 5.3316 49.2682 10.4663L45.3842 14.0429C41.5354 9.86317 36.2815 7.24809 30.6265 6.69727C24.9714 6.14646 19.3116 7.69853 14.7286 11.0569C10.1456 14.4153 6.9606 19.3446 5.78223 24.9029C4.60387 30.4612 5.51473 36.2588 8.34079 41.1879C11.1668 46.1171 15.71 49.8322 21.102 51.6234C26.4941 53.4146 32.3572 53.1563 37.5709 50.8979C42.7846 48.6394 46.9834 44.5392 49.365 39.3807C51.7467 34.2221 52.1442 28.3669 50.4817 22.9338L55.5304 21.3888Z" fill="black"/>
</svg>
