<svg width="34" height="24" viewBox="0 0 34 24" fill="none" xmlns="http://www.w3.org/2000/svg">
<path d="M30.4401 1H3.56014C2.49975 1 1.64014 1.85961 1.64014 2.92V20.84C1.64014 21.9004 2.49975 22.76 3.56014 22.76H30.4401C31.5005 22.76 32.3601 21.9004 32.3601 20.84V2.92C32.3601 1.85961 31.5005 1 30.4401 1Z" stroke="#959595" stroke-width="1.5" stroke-linecap="round" stroke-linejoin="round"/>
<path fill-rule="evenodd" clip-rule="evenodd" d="M24.2194 13.9619C24.7535 13.5403 25.4313 13.2881 26.169 13.2881C27.8917 13.2881 29.2882 14.6635 29.2882 16.3601C29.2882 18.0567 27.8917 19.4321 26.169 19.4321C25.4313 19.4321 24.7535 19.1799 24.2194 18.7583C23.6854 19.1799 23.0076 19.4321 22.2699 19.4321C20.5472 19.4321 19.1506 18.0567 19.1506 16.3601C19.1506 14.6635 20.5472 13.2881 22.2699 13.2881C23.0076 13.2881 23.6854 13.5403 24.2194 13.9619Z" stroke="#959595" stroke-width="1.5" stroke-linecap="round" stroke-linejoin="round"/>
<path d="M4.84009 9.63989H9.96009" stroke="#959595" stroke-width="1.5" stroke-linecap="round" stroke-linejoin="round"/>
<path d="M11.8801 9.63989H17.0001" stroke="#959595" stroke-width="1.5" stroke-linecap="round" stroke-linejoin="round"/>
<path d="M18.9202 9.63989H24.0402" stroke="#959595" stroke-width="1.5" stroke-linecap="round" stroke-linejoin="round"/>
<path d="M4.71216 18.8176H8.39856" stroke="#959595" stroke-width="1.5" stroke-linecap="round" stroke-linejoin="round"/>
<path d="M10.2417 18.8176H13.9281" stroke="#959595" stroke-width="1.5" stroke-linecap="round" stroke-linejoin="round"/>
<path d="M4.71216 15.7456H13.9282" stroke="#959595" stroke-width="1.5" stroke-linecap="round" stroke-linejoin="round"/>
<path d="M4.71216 4.68628H7.47696" stroke="#959595" stroke-width="1.5" stroke-linecap="round" stroke-linejoin="round"/>
</svg>
