<svg width="345" height="64" viewBox="0 0 345 64" fill="none" xmlns="http://www.w3.org/2000/svg">
<g clip-path="url(#clip0_8_1824)">
<path fill-rule="evenodd" clip-rule="evenodd" d="M164.204 56.3617C166.019 53.5289 167.612 50.9347 169.35 48.4342C169.635 48.0252 170.526 47.8804 171.139 47.8761C179.263 47.8421 187.386 47.8548 195.51 47.8506C199.612 47.8506 200.511 46.939 200.519 42.841C200.519 41.874 200.523 40.9113 200.519 39.9443C200.489 36.5961 199.591 35.6717 196.276 35.6674C189.686 35.6547 183.096 35.7697 176.511 35.5993C174.475 35.5482 172.332 35.0327 170.466 34.2148C167.54 32.9326 165.887 30.3384 165.163 27.2841C164.277 23.5397 164.234 19.7144 165.09 15.9657C166.151 11.3225 169.793 8.15741 174.564 7.68883C176.928 7.4588 179.327 7.49714 181.712 7.48862C190.291 7.46306 198.866 7.47158 207.446 7.47158C207.833 7.47158 208.225 7.50992 208.984 7.54399C207.735 9.52482 206.449 11.233 205.525 13.1244C204.43 15.3608 202.871 15.97 200.434 15.9146C193.167 15.7442 185.895 15.8507 178.624 15.8635C175.442 15.8677 174.568 16.7367 174.534 19.8933C174.521 21.0306 174.509 22.168 174.547 23.3011C174.632 25.8272 175.591 26.807 178.108 26.8198C184.302 26.8496 190.492 26.8198 196.685 26.8453C197.989 26.8496 199.301 26.9177 200.587 27.0966C205.891 27.8379 209.431 30.9348 210.151 36.234C210.628 39.7356 210.658 43.4118 210.142 46.9049C209.265 52.8559 204.949 56.2126 198.189 56.3149C187.003 56.481 175.812 56.3617 164.213 56.3617H164.204Z" fill="black"/>
<path fill-rule="evenodd" clip-rule="evenodd" d="M229.533 15.8593V27.0328H256.246V35.2671H229.618V47.8506H231.603C239.671 47.8506 247.735 47.8677 255.803 47.8293C256.885 47.8251 257.567 48.102 258.138 49.0775C259.539 51.4545 261.064 53.7548 262.67 56.2894H219.646V54.4619C219.646 39.4076 219.659 24.3576 219.625 9.30336C219.625 8.05097 219.842 7.49719 221.277 7.50571C234.513 7.55683 247.748 7.53553 260.983 7.53979C261.371 7.53979 261.759 7.60369 262.483 7.66759C260.732 10.4067 259.139 12.9924 257.414 15.4886C257.171 15.838 256.293 15.8507 255.705 15.8507C247.637 15.872 239.573 15.8635 231.505 15.8635H229.529L229.533 15.8593Z" fill="black"/>
<path fill-rule="evenodd" clip-rule="evenodd" d="M61.725 26.8071H88.8601V24.0212C88.8601 19.0797 88.8942 14.1383 88.8388 9.19692C88.8261 7.99139 89.103 7.45891 90.4363 7.50577C93.0859 7.59948 95.7398 7.53132 98.4959 7.53132V56.3022H88.8942V35.4546H61.8102V56.2852H52.1702V7.66338H61.725V26.8071Z" fill="black"/>
<path fill-rule="evenodd" clip-rule="evenodd" d="M104.2 56.4001C104.562 55.5482 104.805 54.9262 105.086 54.3256C112.23 39.2415 119.391 24.1659 126.5 9.06482C127.037 7.92744 127.646 7.44182 128.928 7.50146C131.195 7.60369 133.478 7.46312 135.744 7.57813C136.328 7.60795 137.167 8.08079 137.405 8.5792C144.928 24.298 152.396 40.0466 159.863 55.7952C159.91 55.889 159.889 56.0167 159.927 56.3746C156.485 56.3746 153.065 56.4044 149.648 56.3277C149.333 56.3192 148.941 55.676 148.745 55.2542C147.561 52.6728 146.381 50.0913 145.29 47.4715C144.903 46.5386 144.37 46.2276 143.373 46.2319C135.872 46.2702 128.375 46.2702 120.873 46.2319C119.872 46.2276 119.344 46.5471 118.956 47.4758C117.861 50.0913 116.715 52.6941 115.467 55.2415C115.216 55.7569 114.453 56.332 113.908 56.3533C110.79 56.4598 107.663 56.4044 104.204 56.4044L104.2 56.4001ZM141.009 37.9337C138.04 31.1521 135.152 24.5578 132.098 17.576C129.048 24.5877 126.181 31.1904 123.25 37.9337H141.009Z" fill="black"/>
<path fill-rule="evenodd" clip-rule="evenodd" d="M46.1554 56.3704C35.2587 56.3704 24.7497 56.5621 14.2492 56.3107C5.5208 56.102 0.191746 50.4066 0.0682109 41.6697C-0.0212457 35.1393 -0.0255055 28.609 0.0682109 22.0787C0.196006 13.576 5.23113 7.9701 13.6827 7.68469C24.2343 7.33113 34.8029 7.54838 45.3673 7.52708C45.5207 7.52708 45.674 7.62932 46.0319 7.75285C44.3237 10.4365 42.7049 13.0776 40.9584 15.6336C40.7071 16.0042 39.8636 16.1064 39.2971 16.1064C32.3706 16.1362 25.4398 16.1277 18.5133 16.1277C18.0021 16.1277 17.4909 16.1277 16.9798 16.1447C12.1917 16.2555 10.2492 18.1426 10.2066 22.9179C10.1512 28.822 10.1512 34.7304 10.2066 40.6345C10.2492 45.478 12.2045 47.4503 17.0905 47.4971C24.1874 47.5653 31.2886 47.5781 38.3855 47.4758C40.034 47.4503 40.9541 47.97 41.7465 49.3715C43.05 51.676 44.5665 53.8571 46.1682 56.3661L46.1554 56.3704Z" fill="black"/>
<path fill-rule="evenodd" clip-rule="evenodd" d="M342.934 17.7549H341.243C328.932 17.7549 316.621 17.7293 304.31 17.789C302.695 17.7975 302.133 17.3758 302.18 15.7016C302.291 11.5057 302.21 7.3055 302.218 3.10956C302.218 0.753865 302.913 0.0254332 305.213 0.0169135C311.168 -0.000125804 317.128 -0.0129053 323.083 0.0424726C323.807 0.0509923 324.714 0.302323 325.221 0.775165C330.985 6.15534 336.689 11.5994 342.406 17.035C342.555 17.1755 342.657 17.3715 342.938 17.7549H342.934Z" fill="#126BC5"/>
<path fill-rule="evenodd" clip-rule="evenodd" d="M327.556 61.5503C327.522 60.8304 327.475 60.3405 327.475 59.8506C327.475 47.5227 327.501 35.1904 327.437 22.8625C327.428 21.1969 327.935 20.724 329.567 20.7666C333.711 20.8689 337.86 20.7965 342.01 20.805C344.408 20.8092 344.979 21.3417 344.983 23.6633C345 29.7421 345.021 35.8209 344.949 41.8997C344.94 42.7218 344.6 43.7399 344.05 44.3278C338.9 49.8528 333.669 55.3097 328.459 60.7793C328.242 61.0093 327.978 61.1968 327.56 61.5503H327.556Z" fill="#126BC5"/>
<path fill-rule="evenodd" clip-rule="evenodd" d="M283.88 46.2788H285.75C297.891 46.2788 310.035 46.2788 322.176 46.2788C324.412 46.2788 324.412 46.2873 324.417 48.5536C324.417 52.6387 324.429 56.7239 324.417 60.8091C324.408 63.0413 323.68 63.7782 321.465 63.7825C315.394 63.7953 309.32 63.808 303.249 63.7569C302.581 63.7527 301.741 63.5141 301.269 63.0711C295.641 57.7931 290.07 52.4556 284.485 47.1265C284.332 46.9817 284.229 46.7772 283.876 46.2788H283.88Z" fill="#126BC5"/>
<path fill-rule="evenodd" clip-rule="evenodd" d="M298.84 2.53455C298.879 3.30132 298.934 3.84658 298.934 4.38758C298.938 16.5409 298.904 28.6942 298.972 40.8475C298.981 42.5685 298.5 43.1095 296.762 43.0626C292.561 42.9434 288.357 43.0371 284.152 43.0158C282.052 43.0073 281.443 42.3811 281.439 40.2426C281.426 34.1638 281.409 28.0893 281.464 22.0105C281.473 21.2864 281.716 20.3833 282.189 19.8763C287.424 14.2789 292.727 8.73687 298.014 3.19056C298.197 2.99887 298.427 2.85829 298.832 2.53455H298.84Z" fill="#126BC5"/>
</g>
<defs>
<clipPath id="clip0_8_1824">
<rect width="345" height="63.7953" fill="white"/>
</clipPath>
</defs>
</svg>
