<svg width="15" height="22" viewBox="0 0 15 22" fill="none" xmlns="http://www.w3.org/2000/svg">
<g clip-path="url(#clip0_1_95)">
<path d="M12.1878 8.96497V4.58216C12.1543 3.38816 11.6458 2.25404 10.7703 1.42108C9.89483 0.588125 8.72154 0.12207 7.50005 0.12207C6.27855 0.12207 5.10526 0.588125 4.22979 1.42108C3.35432 2.25404 2.84577 3.38816 2.81233 4.58216V8.96497C1.59884 9.91473 0.717005 11.2096 0.288709 12.6707C-0.139586 14.1318 -0.0931924 15.6868 0.421477 17.121C0.936146 18.5552 1.89368 19.7976 3.16173 20.6766C4.42977 21.5555 5.94572 22.0277 7.50005 22.0277C9.05438 22.0277 10.5703 21.5555 11.8384 20.6766C13.1064 19.7976 14.064 18.5552 14.5786 17.121C15.0933 15.6868 15.1397 14.1318 14.7114 12.6707C14.2831 11.2096 13.4013 9.91473 12.1878 8.96497ZM7.49829 1.83216C8.24415 1.83216 8.95947 2.12189 9.48687 2.63761C10.0143 3.15334 10.3106 3.85281 10.3106 4.58216V7.90622C8.50362 7.20843 6.49296 7.20843 4.68601 7.90622V4.58216C4.68601 3.85281 4.9823 3.15334 5.50971 2.63761C6.03711 2.12189 6.75243 1.83216 7.49829 1.83216ZM8.43689 20.0853V17.1634C8.79514 16.9617 9.07526 16.6499 9.23377 16.2766C9.39229 15.9032 9.42033 15.4891 9.31355 15.0986C9.20676 14.708 8.97113 14.3629 8.64322 14.1167C8.31531 13.8705 7.91346 13.7371 7.50005 13.7371C7.08664 13.7371 6.68479 13.8705 6.35688 14.1167C6.02897 14.3629 5.79334 14.708 5.68655 15.0986C5.57977 15.4891 5.60781 15.9032 5.76633 16.2766C5.92484 16.6499 6.20496 16.9617 6.56321 17.1634V20.0853C5.46404 19.9017 4.44549 19.4027 3.63695 18.6518C2.82841 17.9009 2.26637 16.9319 2.02224 15.868C1.77811 14.804 1.8629 13.6931 2.26584 12.6764C2.66878 11.6597 3.37169 10.783 4.28526 10.1578C5.23171 9.52478 6.35163 9.18609 7.49829 9.18609C8.64495 9.18609 9.76487 9.52478 10.7113 10.1578C11.6249 10.7828 12.3278 11.6592 12.7309 12.6756C13.1341 13.6921 13.2192 14.8028 12.9754 15.8667C12.7317 16.9305 12.1701 17.8995 11.362 18.6507C10.5539 19.4018 9.5358 19.9011 8.43689 20.0853Z" fill="#959595"/>
</g>
<defs>
<clipPath id="clip0_1_95">
<rect width="15" height="22" fill="white"/>
</clipPath>
</defs>
</svg>
