<svg width="26" height="25" viewBox="0 0 26 25" fill="none" xmlns="http://www.w3.org/2000/svg">
<g clip-path="url(#clip0_1_99)">
<path d="M14.7393 0.843328C14.7393 0.378977 15.2048 0 15.7845 0C16.3643 0 16.8298 0.376895 16.8298 0.843328V4.53315C16.8298 4.9975 16.3643 5.37648 15.7845 5.37648C15.2048 5.37648 14.7393 4.99958 14.7393 4.53315V0.843328ZM19.3328 11.8753C20.2342 11.8753 21.0954 12.0523 21.8825 12.373C22.7013 12.7061 23.4355 13.1934 24.0492 13.7973C24.6628 14.4011 25.1579 15.1258 25.4964 15.9275C25.8223 16.7021 26.0021 17.5496 26.0021 18.4366C26.0021 19.3237 25.8223 20.1712 25.4964 20.9458C25.1579 21.7516 24.6628 22.4742 24.0492 23.078C23.4355 23.6819 22.6992 24.1692 21.8846 24.5023C21.0975 24.823 20.2363 25 19.335 25C18.4336 25 17.5724 24.823 16.7853 24.5023C15.9665 24.1692 15.2323 23.6819 14.6187 23.078C14.005 22.4742 13.5099 21.7495 13.1714 20.9458C12.8455 20.1712 12.6657 19.3237 12.6657 18.4366C12.6657 17.5496 12.8455 16.7021 13.1714 15.9275C13.5099 15.1216 14.005 14.3991 14.6187 13.7952C15.2323 13.1913 15.9686 12.7041 16.7832 12.3709C17.5703 12.0523 18.4294 11.8753 19.3328 11.8753ZM18.8335 15.6942C18.8335 15.536 18.8991 15.3923 19.0049 15.2882C19.1107 15.1841 19.2567 15.1195 19.4196 15.1195C19.5825 15.1195 19.7285 15.1841 19.8343 15.2882C19.9401 15.3923 20.0057 15.536 20.0057 15.6963V18.7656L22.3374 20.1274L22.3564 20.1399C22.4855 20.2211 22.5702 20.344 22.604 20.4793C22.64 20.6209 22.623 20.775 22.5448 20.9083L22.5405 20.9145C22.5363 20.9229 22.5321 20.9291 22.5257 20.9354C22.4432 21.0603 22.3184 21.1436 22.1829 21.1769C22.0391 21.2123 21.8825 21.1957 21.7471 21.1186L19.1403 19.6006C19.0493 19.5527 18.9731 19.4798 18.9181 19.3945C18.8631 19.307 18.8314 19.205 18.8314 19.0967L18.8335 15.6942ZM23.2218 14.6094C22.714 14.1096 22.1089 13.7077 21.4382 13.4349C20.7907 13.1705 20.0798 13.0268 19.3328 13.0268C18.5859 13.0268 17.875 13.1726 17.2275 13.4349C16.5568 13.7077 15.9517 14.1096 15.4438 14.6094C14.936 15.1091 14.5277 15.7046 14.2505 16.3647C13.9818 17.0019 13.8358 17.7016 13.8358 18.4366C13.8358 19.1717 13.9839 19.8713 14.2505 20.5085C14.5277 21.1686 14.936 21.7641 15.4438 22.2639C15.9517 22.7636 16.5568 23.1655 17.2275 23.4383C17.875 23.7027 18.5859 23.8464 19.3328 23.8464C20.0798 23.8464 20.7907 23.7007 21.4382 23.4383C22.1089 23.1655 22.714 22.7636 23.2218 22.2639C24.2184 21.2831 24.832 19.9317 24.832 18.4366C24.832 17.7016 24.6839 17.0019 24.4173 16.3647C24.138 15.7046 23.7297 15.1091 23.2218 14.6094ZM2.84587 11.944C2.78662 11.944 2.73372 11.6879 2.73372 11.3735C2.73372 11.0591 2.78027 10.805 2.84587 10.805H5.69808C5.75732 10.805 5.81022 11.0611 5.81022 11.3735C5.81022 11.6879 5.76367 11.944 5.69808 11.944H2.84587ZM7.3929 11.944C7.33366 11.944 7.28076 11.6879 7.28076 11.3735C7.28076 11.0591 7.32731 10.805 7.3929 10.805H10.2451C10.3044 10.805 10.3573 11.0611 10.3573 11.3735C10.3573 11.6879 10.3107 11.944 10.2451 11.944H7.3929ZM11.9399 11.944C11.8807 11.944 11.8278 11.6879 11.8278 11.3735C11.8278 11.0591 11.8743 10.805 11.9399 10.805H14.7922C14.8514 10.805 14.9043 11.0591 14.9043 11.3714C14.6187 11.5463 14.3436 11.7379 14.0812 11.944H11.9399ZM2.85221 15.2091C2.79297 15.2091 2.74007 14.9529 2.74007 14.6385C2.74007 14.3241 2.78662 14.068 2.85221 14.068H5.70443C5.76367 14.068 5.81657 14.3241 5.81657 14.6385C5.81657 14.9529 5.77002 15.2091 5.70443 15.2091H2.85221ZM7.39925 15.2091C7.34001 15.2091 7.28711 14.9529 7.28711 14.6385C7.28711 14.3241 7.33366 14.068 7.39925 14.068H10.2515C10.3107 14.068 10.3636 14.3241 10.3636 14.6385C10.3636 14.9529 10.3171 15.2091 10.2515 15.2091H7.39925ZM2.85856 18.4762C2.79932 18.4762 2.74642 18.2201 2.74642 17.9056C2.74642 17.5912 2.79297 17.3351 2.85856 17.3351H5.71077C5.77002 17.3351 5.82292 17.5912 5.82292 17.9056C5.82292 18.2201 5.77637 18.4762 5.71077 18.4762H2.85856ZM7.4056 18.4762C7.34635 18.4762 7.29346 18.2201 7.29346 17.9056C7.29346 17.5912 7.34001 17.3351 7.4056 17.3351H10.2578C10.3171 17.3351 10.37 17.5912 10.37 17.9056C10.37 18.2201 10.3234 18.4762 10.2578 18.4762H7.4056ZM5.35107 0.843328C5.35107 0.378977 5.81657 0 6.39632 0C6.97607 0 7.44157 0.376895 7.44157 0.843328V4.53315C7.44157 4.9975 6.97396 5.37648 6.39632 5.37648C5.81657 5.37648 5.35107 4.99958 5.35107 4.53315V0.843328ZM1.15104 8.0668H21.0573V3.81892C21.0573 3.67316 20.998 3.54614 20.9028 3.45244C20.8076 3.35874 20.6722 3.30043 20.5304 3.30043H18.6219C18.3024 3.30043 18.0422 3.04431 18.0422 2.72989C18.0422 2.41546 18.3024 2.15934 18.6219 2.15934H20.5304C20.998 2.15934 21.417 2.34466 21.7238 2.64659C22.0306 2.94853 22.2189 3.36082 22.2189 3.82101V10.5656C21.8381 10.4364 21.4466 10.3323 21.0446 10.2553V9.20165H21.0573H1.15104V20.2024C1.15104 20.3482 1.21029 20.4752 1.3055 20.5689C1.40072 20.6626 1.53613 20.7209 1.6779 20.7209H11.138C11.2459 21.1165 11.3813 21.5018 11.5443 21.8724H1.68848C1.22298 21.8724 0.801921 21.6871 0.495117 21.3851C0.188314 21.0853 0 20.673 0 20.2128V3.82309C0 3.36498 0.188314 2.95061 0.495117 2.64868C0.801921 2.34674 1.22087 2.16142 1.68848 2.16142H3.72607C4.04557 2.16142 4.30583 2.41754 4.30583 2.73197C4.30583 3.04639 4.04557 3.30252 3.72607 3.30252H1.68848C1.54036 3.30252 1.4113 3.36082 1.31608 3.45452C1.22087 3.54823 1.16162 3.68149 1.16162 3.82101V8.06888H1.15104V8.0668ZM9.11312 3.30043C8.79362 3.30043 8.53337 3.04431 8.53337 2.72989C8.53337 2.41546 8.79362 2.15934 9.11312 2.15934H12.9979C13.3174 2.15934 13.5776 2.41546 13.5776 2.72989C13.5776 3.04431 13.3174 3.30043 12.9979 3.30043H9.11312Z" fill="#959595"/>
</g>
<defs>
<clipPath id="clip0_1_99">
<rect width="26" height="25" fill="white"/>
</clipPath>
</defs>
</svg>
