<svg width="242" height="85" viewBox="0 0 242 85" fill="none" xmlns="http://www.w3.org/2000/svg">
<g clip-path="url(#clip0_3_30)">
<path fill-rule="evenodd" clip-rule="evenodd" d="M219.746 18.6439L219.248 18.1928L218.751 17.842L218.203 17.4912L217.655 17.2907L217.008 17.0401L216.361 16.9399L215.714 16.8897H214.37L213.673 16.9399L212.478 17.2907L211.88 17.4912L211.383 17.842L210.437 18.6439L209.989 19.0448L209.59 19.546L209.043 20.5985L208.844 21.1498L208.694 21.8013L208.595 22.4528V23.8561L208.694 24.4575L208.844 25.059L209.043 25.6103L209.292 26.1616L209.59 26.6627L209.989 27.1639L210.437 27.6651V27.7653L210.835 28.1162L211.333 28.467L211.831 28.7677L212.378 29.0183L212.976 29.2187L213.573 29.3691L214.22 29.4192L214.917 29.4693L215.614 29.4192L216.311 29.319L216.909 29.1686L217.606 28.9682L217.855 28.8178L218.153 28.7176L218.751 28.467L219.248 28.1162L219.746 27.7653L220.194 27.214L220.543 26.7129L220.891 26.1114L221.19 25.4599V20.8491L220.891 20.1975L220.543 19.6462L220.194 19.0949L219.746 18.6439Z" fill="#0E81C5"/>
<path fill-rule="evenodd" clip-rule="evenodd" d="M220.892 35.9346H210.139V83.2459H220.892V35.9346Z" fill="#0E81C5"/>
<path fill-rule="evenodd" clip-rule="evenodd" d="M176.236 61.9959L177.182 61.4446L178.277 60.9434L179.472 60.5425L180.816 60.2418L182.21 59.9912L183.803 59.8909L185.446 59.7907H187.636L187.786 59.941L187.985 60.1415L188.184 60.3921V60.5926L188.283 60.8432V68.1103L188.184 68.9121V69.263L188.084 69.4133V69.9145L187.985 70.0649V70.2653L187.835 70.6162L187.736 70.967L187.437 71.7188L187.089 72.3703L186.74 73.0218L186.292 73.6232L186.043 73.9239L185.844 74.2748L185.346 74.8261L185.048 75.0767L184.799 75.3774L184.151 75.7783L183.504 76.1792L183.156 76.3296H182.957L182.807 76.5301L182.16 76.8308L181.413 77.0312L180.716 77.1816L179.97 77.2818H178.376L177.58 77.1816L176.783 77.0312L176.136 76.8308L175.489 76.5301L174.941 76.1792L174.444 75.7783L173.995 75.3774L173.547 74.8261L173.199 74.2748L172.85 73.6232L172.651 72.9717L172.452 72.1698L172.353 71.3679V68.3609L172.502 67.2081L172.801 66.1055L173.299 65.1533L173.846 64.2011L174.543 63.3992L174.892 62.9982L175.34 62.6474L176.335 61.9959H176.236ZM166.179 39.8939L167.922 45.8579L169.117 45.1563L170.361 44.5548L171.656 44.0537L173 43.7028L174.344 43.4021L175.738 43.2017L177.182 43.1014H179.77L180.816 43.2017L181.712 43.3019L182.608 43.5525L183.405 43.8031L184.201 44.204L184.898 44.7052L185.545 45.2565L186.093 45.8078L186.591 46.4593L186.989 47.161L187.138 47.5118L187.338 47.9629L187.587 48.8149L187.786 49.7671L187.885 50.7695V53.125L187.587 53.5761H187.487L187.387 53.6763L187.238 53.7765L186.89 53.8768H184.102L182.757 53.977L181.513 54.1274L180.218 54.2276L179.024 54.4281L177.829 54.6285L176.734 54.9292L175.638 55.1798L174.593 55.5307L172.602 56.3325L171.656 56.7335L170.76 57.2347L169.863 57.7359L169.067 58.2871L168.27 58.7883L167.573 59.3897L166.926 59.9912L166.379 60.6427L165.333 61.9959L164.537 63.4994L163.84 65.1032L163.591 65.9552L163.391 66.9074L163.093 68.8119V72.1698L163.192 73.4228L163.292 74.0242L163.441 74.6757L163.79 75.8785L164.188 76.9811L164.736 78.0837L165.383 79.0861L166.179 80.0383L167.076 80.9906L168.071 81.7925L169.117 82.444L170.262 83.0454L171.407 83.4965L172.701 83.8473L173.995 84.0478L175.439 84.148L176.335 84.0478H177.231L177.63 83.8974H178.078L178.974 83.6969L179.77 83.4965L180.567 83.2459L181.314 82.9452L181.662 82.7447L182.06 82.5943L182.708 82.1934L183.405 81.7423L183.703 81.4918L184.052 81.2913L184.699 80.7901L185.296 80.1887L185.894 79.5873L186.441 78.9357L186.989 78.2842L187.089 78.0837L187.288 77.9835H188.333L188.682 78.0837L188.831 78.4346L188.98 78.8355L189.677 83.0955H197.842L197.693 81.9929L197.593 80.8903V79.6374L197.444 78.3844V77.0312L197.344 75.628V54.3278L197.245 53.1751L197.145 52.0725V51.0201L196.896 49.9175L196.747 48.9652L196.548 48.013L196.348 47.1108L196.05 46.2087L195.751 45.4068L195.403 44.605L195.054 43.8532L194.656 43.1014L194.258 42.4499L193.76 41.7984L193.312 41.2471L192.714 40.6456L192.117 40.1445L191.47 39.6433L190.822 39.1922L190.125 38.7412L189.429 38.3903L187.935 37.7388L187.089 37.4381L186.292 37.2376L185.396 37.0371L184.5 36.8868L183.554 36.7364L182.608 36.6362H178.476L176.435 36.7364L174.493 36.9369L172.701 37.3379L170.909 37.839L169.266 38.4906L167.673 39.1922L166.179 40.0442V39.8939Z" fill="#FCD357"/>
<path fill-rule="evenodd" clip-rule="evenodd" d="M114.902 59.0389L99.2694 71.6185V45.6574L114.902 59.0389ZM139.943 36.1851L137.703 38.3402L136.657 39.3927L135.662 40.4452L134.616 41.3974L133.67 42.3496L132.724 43.2518L131.878 44.1539L130.982 44.9558L130.185 45.7577L128.692 47.3113L127.248 48.6645L126.601 49.316L126.003 49.9676L125.356 50.4687L124.809 50.9699L123.813 51.9222L123.315 52.3231L122.917 52.7241L122.519 53.0749L122.17 53.4257L121.523 53.9269L121.274 54.1274L121.075 54.3278L120.876 54.4281L120.726 54.5784L120.527 54.7288L101.808 35.9847H139.893L139.943 36.1851ZM142.681 71.1674L126.053 59.49L142.681 45.0059V71.2176V71.1674ZM142.681 72.7712V81.8426H99.2196V73.2724H99.3192L99.5183 73.1722L115.847 59.941L120.776 64.1509L125.157 60.2919L142.681 72.7712ZM151.543 82.2936V35.684H89.6113V82.1934H151.543V82.2936Z" fill="#DC1415"/>
<path fill-rule="evenodd" clip-rule="evenodd" d="M67.1586 18.694L76.3189 9.57252L75.821 9.17158L75.2734 8.77064L74.9747 8.57017L74.8253 8.46993L74.7258 8.36969L74.1782 8.01887L73.531 7.56781L72.834 7.16686L72.4855 6.91627L72.137 6.66568L71.3903 6.21462L70.4444 5.71344L69.4487 5.21226L68.3534 4.71109L67.2084 4.26002L65.914 3.80896L64.6196 3.3579L63.1759 2.90684L61.6824 2.45578L59.6412 1.85436L57.6499 1.35318L55.5589 0.952241L53.5178 0.651533L51.3273 0.350825L49.1866 0.150354L46.9463 0H44.7558H43.3619L42.1173 0.100236L39.5783 0.25059L37.0891 0.501179L34.6994 0.952241L32.3596 1.35318L30.1193 1.9546L27.9288 2.65625L25.8877 3.40802L23.8465 4.26002L21.905 5.26238L20.0132 6.31486L19.1171 6.86616L18.2707 7.46757L16.5283 8.77064L14.9352 10.1238L13.3421 11.5772L11.8984 13.1309L10.4546 14.7347L9.11047 16.3384L7.86587 17.9923L6.72084 19.6963L5.62559 21.4004L4.6797 23.2046L3.78358 25.059L3.03682 26.9133L2.29006 28.8178L1.64287 30.7223L1.14503 32.727L0.74676 34.7818L0.398272 36.7866L0.199136 38.8414L0 40.9965V43.2017V44.9558L0.099568 46.76L0.298704 48.5643L0.547624 50.3184L0.896112 52.0725L1.29438 53.8768L1.74244 55.5808L2.33985 57.385L2.98704 59.089L3.7338 60.793L4.48056 62.4971L5.42646 64.2011L6.37235 65.855L7.41782 67.559L8.56285 69.1627L9.80745 70.9169L11.0023 72.5206L12.3962 74.0743L13.0932 74.7759L13.84 75.4776L15.433 76.8809L17.0759 78.0837L17.9222 78.635L18.8681 79.2364L20.7101 80.2388L21.7058 80.74L22.7015 81.2412L23.6972 81.592L24.7924 81.9929L26.9829 82.7447L28.0782 83.0454L29.2232 83.3461L31.6128 83.8974L34.102 84.2983L35.3466 84.4487L36.6908 84.6492L39.3791 84.8496L42.2168 85L46.6476 84.7995L48.8879 84.5991L51.1779 84.3986L55.7581 83.7972L58.0979 83.3962L60.4378 82.9953L76.3189 79.1863V65.1533L76.3687 62.2966L76.518 59.5902L76.6674 58.9888L76.8665 58.5377L77.1652 58.0867L77.5635 57.7359L80.5505 54.829H57.152L48.1909 59.7907L64.9183 58.8886V77.4322L63.6737 77.8833L63.0265 78.1339H62.927L62.8274 78.184L62.6781 78.2341L62.3793 78.3844L60.9356 78.8355L60.1889 79.036L59.4421 79.3367L58.5958 79.5371L57.6997 79.7877L56.704 79.9381L56.1563 79.9882H55.9572L55.9074 80.0383L55.7083 80.0884L54.5633 80.1887H54.0156L53.4182 80.2889H52.8208L52.2234 80.339L50.9788 80.3892L48.6887 80.2388L46.4983 80.0383L44.3575 79.7877L42.3164 79.3868L40.2753 78.8856L38.3835 78.3343L36.4917 77.6327L34.6994 76.8809L32.9072 75.9788L31.2146 75.0265L29.5717 73.9741L28.0782 72.8213L26.5349 71.5684L25.1409 70.2152L23.747 68.7618L22.4526 67.2583L21.1582 65.7046L20.0132 64.1509L18.9179 62.4971L17.9222 60.8933L16.9266 59.1392L16.0802 57.4351L15.3335 55.681L14.6365 53.8768L13.9893 52.0224L13.4417 50.168L12.9438 48.2134L12.6451 46.309L12.2966 44.3042L12.0975 42.2995L11.9979 40.2447L11.9482 38.1899V36.2353L12.0975 34.3809L12.2469 32.5767L12.5456 30.8225L12.7945 29.0684L13.1928 27.4145L13.6408 25.7606L14.1884 24.2571L14.7361 22.7034L15.3833 21.25L16.0802 19.7966L16.9266 18.4935L17.7729 17.1403L18.669 15.8874L19.6647 14.6344L20.7101 13.5318L21.7556 12.3791L22.8509 11.2765L23.9959 10.2742L25.1907 9.42217L26.3855 8.57017L27.6799 7.76828L28.9245 7.06663L30.3185 6.51533L31.6626 5.96403L33.1064 5.46285L34.5501 5.06191L36.0436 4.71109L37.5869 4.4605L39.1302 4.26002L40.7731 4.15979H42.4657H44.9052L47.1952 4.26002L48.2407 4.41038L49.2862 4.66097L50.2818 4.91156L51.2277 5.21226L52.1736 5.46285L53.0697 5.76356L53.9161 6.01415L54.7624 6.41509L56.3057 7.16686L57.0525 7.61792L57.7992 8.06899L59.1434 8.92099L60.4378 9.773L61.6326 10.6751L62.7776 11.5772L63.2257 11.9782L63.6737 12.4292L64.5698 13.3314L65.3166 14.1333L65.466 14.3337L65.6651 14.5843L66.0136 15.0354L63.2755 19.6462L67.1586 18.694Z" fill="#178BCC"/>
<path fill-rule="evenodd" clip-rule="evenodd" d="M242 11.8278H232.491V83.2459H242V11.8278Z" fill="#009239"/>
</g>
<defs>
<clipPath id="clip0_3_30">
<rect width="242" height="85" fill="white"/>
</clipPath>
</defs>
</svg>
