<svg width="87" height="76" viewBox="0 0 87 76" fill="none" xmlns="http://www.w3.org/2000/svg">
<path d="M0 21.6905V16.2887L43.1277 0L86.2555 16.2471V21.6905H80.4464C80.4464 23.9344 78.026 24.2253 77.982 24.3084C77.9468 24.3748 31.6417 24.3361 8.49352 24.3084C6.66279 24.2751 5.91173 22.5493 5.76503 21.6905H0Z" fill="black"/>
<path d="M11.5302 59.7113V27.1755V27.1339H23.0162V59.7113H28.7373V27.1339H40.2601V59.7113H45.998V27.1339H57.5184V59.7113H63.2394V27.1339H74.7695V59.7113H77.7621C79.1703 59.7113 80.5345 61.2903 80.5345 62.0382V65.0716H5.76514V62.0382C6.04679 60.4758 7.64281 59.8359 8.40561 59.7113H11.5302Z" fill="black"/>
<path d="M86.2114 75.9999H0.0439256V70.2241C-0.0264871 69.3598 1.45235 67.8556 2.6844 67.8556H83.4829C84.9352 67.8556 86.2554 69.3515 86.2114 70.2657V75.9999Z" fill="black"/>
</svg>
