<svg width="8" height="18" viewBox="0 0 8 18" fill="none" xmlns="http://www.w3.org/2000/svg">
<path d="M3.3327 0.373292C3.73959 0.373292 4.13735 0.49395 4.47567 0.72001C4.81399 0.946069 5.07768 1.26738 5.2334 1.6433C5.38911 2.01922 5.42985 2.43288 5.35047 2.83196C5.27109 3.23103 5.07515 3.59761 4.78743 3.88533C4.49971 4.17305 4.13313 4.36899 3.73406 4.44837C3.33498 4.52775 2.92132 4.48701 2.5454 4.3313C2.16948 4.17559 1.84817 3.9119 1.62211 3.57357C1.39605 3.23525 1.27539 2.83749 1.27539 2.4306C1.27519 2.16037 1.32827 1.89276 1.43159 1.64307C1.53491 1.39337 1.68644 1.1665 1.87752 0.97542C2.0686 0.784342 2.29547 0.63281 2.54517 0.529491C2.79486 0.426172 3.06247 0.373093 3.3327 0.373292Z" fill="#959595"/>
<path d="M1.98608 6.33183C1.70315 6.38203 1.44692 6.53025 1.26235 6.75049C1.07778 6.97072 0.976638 7.24891 0.976673 7.53626C0.976634 7.69688 1.00824 7.85593 1.06969 8.00432C1.13113 8.15272 1.22121 8.28755 1.33478 8.40112C1.44836 8.5147 1.58319 8.60478 1.73159 8.66622C1.87998 8.72767 2.03903 8.75928 2.19965 8.75924H2.32087V15.5337H1.6666C1.38905 15.5337 1.12288 15.644 0.926624 15.8402C0.730371 16.0365 0.620117 16.3027 0.620117 16.5802C0.620117 16.8577 0.730371 17.1239 0.926624 17.3202C1.12288 17.5164 1.38905 17.6267 1.6666 17.6267H6.33386C6.61141 17.6267 6.87758 17.5164 7.07384 17.3202C7.27009 17.1239 7.38034 16.8577 7.38034 16.5802C7.38034 16.3027 7.27009 16.0365 7.07384 15.8402C6.87758 15.644 6.61141 15.5337 6.33386 15.5337H5.68672V6.88583C5.68672 6.72976 5.65213 6.57564 5.58544 6.43455C5.51874 6.29345 5.4216 6.16889 5.30101 6.06983C5.18042 5.97077 5.03936 5.89968 4.888 5.86165C4.73664 5.82363 4.57874 5.81963 4.42564 5.84994C3.36978 6.05899 2.02795 6.32447 1.98608 6.33183Z" fill="#959595"/>
</svg>
