<svg width="50" height="50" viewBox="0 0 50 50" fill="none" xmlns="http://www.w3.org/2000/svg">
<path d="M23.1474 1.03674C24.2776 1.03674 25.3825 1.37191 26.3223 1.99985C27.2621 2.62779 27.9945 3.52031 28.4271 4.56455C28.8596 5.60878 28.9728 6.75782 28.7523 7.86637C28.5318 8.97492 27.9875 9.99319 27.1883 10.7924C26.3891 11.5916 25.3708 12.1359 24.2622 12.3564C23.1537 12.5769 22.0047 12.4637 20.9604 12.0312C19.9162 11.5987 19.0237 10.8662 18.3957 9.92642C17.7678 8.98663 17.4326 7.88175 17.4326 6.75148C17.4321 6.00086 17.5795 5.25749 17.8665 4.56389C18.1535 3.8703 18.5744 3.2401 19.1052 2.70932C19.636 2.17855 20.2662 1.75763 20.9598 1.47063C21.6534 1.18363 22.3967 1.03619 23.1474 1.03674Z" fill="black"/>
<path d="M19.4047 17.5887C18.6188 17.7281 17.907 18.1398 17.3943 18.7516C16.8816 19.3634 16.6007 20.1361 16.6008 20.9343C16.6007 21.3805 16.6885 21.8223 16.8592 22.2345C17.0298 22.6467 17.2801 23.0212 17.5955 23.3367C17.911 23.6522 18.2856 23.9024 18.6978 24.0731C19.11 24.2438 19.5518 24.3316 19.9979 24.3315H20.3347V43.1495H18.5172C17.7463 43.1495 17.0069 43.4557 16.4618 44.0009C15.9166 44.546 15.6104 45.2854 15.6104 46.0564C15.6104 46.8273 15.9166 47.5667 16.4618 48.1118C17.0069 48.657 17.7463 48.9633 18.5172 48.9633H31.4819C32.2528 48.9633 32.9922 48.657 33.5373 48.1118C34.0825 47.5667 34.3888 46.8273 34.3888 46.0564C34.3888 45.2854 34.0825 44.546 33.5373 44.0009C32.9922 43.4557 32.2528 43.1495 31.4819 43.1495H29.6842V19.1276C29.6842 18.694 29.5882 18.2659 29.4029 17.874C29.2176 17.4821 28.9478 17.1361 28.6128 16.8609C28.2778 16.5857 27.886 16.3882 27.4656 16.2826C27.0451 16.177 26.6065 16.1659 26.1813 16.2501C23.2483 16.8308 19.521 17.5682 19.4047 17.5887Z" fill="black"/>
</svg>
