<svg width="102" height="56" viewBox="0 0 102 56" fill="none" xmlns="http://www.w3.org/2000/svg">
<path d="M89.2119 5.88667C89.2119 5.09969 88.6168 4.47009 87.8729 4.47009L82.3983 4.21826L79.6907 4.06086C79.6759 4.06086 79.6461 4.06086 79.6312 4.06086C79.0957 4.06086 78.6345 4.3914 78.4262 4.87933V4.89507C78.3816 5.00525 78.337 5.11543 78.3221 5.24134L75.3021 15.4722L74.2161 18.9192C73.9334 20.1626 72.8772 21.0913 71.6127 21.0913C70.5118 21.0913 69.5597 20.383 69.158 19.3914C68.8605 18.2739 69.2026 17.1249 69.3068 16.8416L69.3216 16.7786L73.5913 4.48583C73.6805 4.29696 73.7252 4.09234 73.7252 3.88772C73.7252 3.19517 73.2491 2.62854 72.6392 2.50262L71.8358 2.42392L64.576 2.06191H64.5165H64.3528C64.3379 2.06191 64.3379 2.06191 64.3231 2.06191C63.7875 2.06191 63.3263 2.39245 63.118 2.88038L63.1032 2.94334C63.0883 2.99056 63.0734 3.03778 63.0585 3.08499L62.7015 4.01364L57.7327 18.8562H57.7178C57.45 20.1312 56.3789 21.0913 55.0995 21.0913C54.2961 21.0913 53.5672 20.7135 53.0762 20.1154C52.1836 18.9507 52.8382 16.9832 53.0614 16.4166C53.0614 16.4008 53.0762 16.4008 53.0762 16.3851L57.7773 2.66002C57.8963 2.40818 57.9707 2.12487 57.9707 1.82581C57.9707 0.818468 57.1971 0 56.245 0C55.9921 0 55.7541 0.0629591 55.5309 0.173137L54.1325 0.849948C52.3027 1.5425 48.1967 2.56558 42.4691 0.912907L40.3566 0.125918H40.3417C40.193 0.0629591 40.0293 0.0314795 39.8508 0.0157398L39.5087 0.0314795C38.6756 0.157398 38.021 0.912907 38.021 1.82581C38.021 2.03043 38.0656 2.23505 38.1251 2.42392L43.213 16.7471C43.3617 17.1878 43.7634 18.6674 43.1386 19.8006C42.9303 20.1469 42.6476 20.4302 42.3204 20.6506C42.2608 20.6821 42.2162 20.7135 42.1567 20.745C41.7848 20.9496 41.3534 21.0756 40.9071 21.0756C40.0293 21.0756 39.2706 20.6034 38.7797 19.9108L38.4078 19.1868L38.2293 18.6359L33.0521 3.02204C32.948 2.7702 32.8141 2.58132 32.6802 2.43966C32.6653 2.42392 32.6505 2.40818 32.6207 2.39245L32.6058 2.37671C32.591 2.36097 32.5761 2.34523 32.5612 2.34523C32.5315 2.31375 32.5017 2.29801 32.472 2.28227C32.4422 2.25079 32.4124 2.23505 32.3678 2.21931C32.3381 2.20357 32.3083 2.18783 32.2786 2.17209C32.2488 2.15635 32.2339 2.14061 32.2042 2.14061C32.1595 2.12487 32.1149 2.10913 32.0703 2.09339C32.0554 2.09339 32.0554 2.09339 32.0405 2.07765H32.0256C31.9959 2.06191 31.9513 2.04617 31.9066 2.04617C31.6835 2.01469 31.5198 2.03043 31.5198 2.03043L23.6649 2.42392L23.2781 2.50262C22.7277 2.67576 22.326 3.21091 22.326 3.85624C22.326 4.0766 22.3706 4.28122 22.4599 4.45435L26.9824 17.2193H26.9527C27.0717 17.5341 27.1312 17.8646 27.1312 18.2267C27.1312 19.8006 25.9262 21.0598 24.4534 21.0598C23.6798 21.0598 22.9806 20.7135 22.4897 20.1626C22.4599 20.1469 22.445 20.1154 22.4153 20.0682C22.4153 20.0682 22.4153 20.0682 22.4153 20.0525C22.2516 19.8478 22.1177 19.6275 22.0136 19.3914C21.6566 18.7146 21.5822 18.2109 21.5822 18.2109L17.6993 5.05247C17.5357 4.45435 17.0299 4.01364 16.4199 4.01364C16.3604 4.01364 16.2861 4.02938 16.2265 4.02938V4.06086L8.14848 4.45435C7.40464 4.45435 6.80957 5.08395 6.80957 5.87093C6.80957 6.09129 6.86908 6.31165 6.95834 6.50053L14.5604 28.5677L14.5752 28.5834C14.8281 29.4019 15.5422 30 16.3902 30C16.4497 30 16.4943 29.9843 16.5538 29.9843L16.5836 30H79.8246L79.8544 29.9843C80.628 29.8898 81.2528 29.3075 81.4611 28.5519L81.4759 28.5362L89.078 6.51626C89.1524 6.31165 89.2119 6.10703 89.2119 5.88667Z" fill="url(#paint0_linear_522_1328)"/>
<path d="M12.4 37.16V52H9.42V50.76C8.64667 51.6933 7.52667 52.16 6.06 52.16C5.04667 52.16 4.12667 51.9333 3.3 51.48C2.48667 51.0267 1.84667 50.38 1.38 49.54C0.913333 48.7 0.68 47.7267 0.68 46.62C0.68 45.5133 0.913333 44.54 1.38 43.7C1.84667 42.86 2.48667 42.2133 3.3 41.76C4.12667 41.3067 5.04667 41.08 6.06 41.08C7.43333 41.08 8.50667 41.5133 9.28 42.38V37.16H12.4ZM6.6 49.6C7.38667 49.6 8.04 49.3333 8.56 48.8C9.08 48.2533 9.34 47.5267 9.34 46.62C9.34 45.7133 9.08 44.9933 8.56 44.46C8.04 43.9133 7.38667 43.64 6.6 43.64C5.8 43.64 5.14 43.9133 4.62 44.46C4.1 44.9933 3.84 45.7133 3.84 46.62C3.84 47.5267 4.1 48.2533 4.62 48.8C5.14 49.3333 5.8 49.6 6.6 49.6ZM25.8277 46.66C25.8277 46.7 25.8077 46.98 25.7677 47.5H17.6277C17.7743 48.1667 18.121 48.6933 18.6677 49.08C19.2143 49.4667 19.8943 49.66 20.7077 49.66C21.2677 49.66 21.761 49.58 22.1877 49.42C22.6277 49.2467 23.0343 48.98 23.4077 48.62L25.0677 50.42C24.0543 51.58 22.5743 52.16 20.6277 52.16C19.4143 52.16 18.341 51.9267 17.4077 51.46C16.4743 50.98 15.7543 50.32 15.2477 49.48C14.741 48.64 14.4877 47.6867 14.4877 46.62C14.4877 45.5667 14.7343 44.62 15.2277 43.78C15.7343 42.9267 16.421 42.2667 17.2877 41.8C18.1677 41.32 19.1477 41.08 20.2277 41.08C21.281 41.08 22.2343 41.3067 23.0877 41.76C23.941 42.2133 24.6077 42.8667 25.0877 43.72C25.581 44.56 25.8277 45.54 25.8277 46.66ZM20.2477 43.44C19.541 43.44 18.9477 43.64 18.4677 44.04C17.9877 44.44 17.6943 44.9867 17.5877 45.68H22.8877C22.781 45 22.4877 44.46 22.0077 44.06C21.5277 43.6467 20.941 43.44 20.2477 43.44ZM34.8448 51.48C34.5382 51.7067 34.1582 51.88 33.7048 52C33.2648 52.1067 32.7982 52.16 32.3048 52.16C31.0248 52.16 30.0315 51.8333 29.3248 51.18C28.6315 50.5267 28.2848 49.5667 28.2848 48.3V43.88H26.6248V41.48H28.2848V38.86H31.4048V41.48H34.0848V43.88H31.4048V48.26C31.4048 48.7133 31.5182 49.0667 31.7448 49.32C31.9848 49.56 32.3182 49.68 32.7448 49.68C33.2382 49.68 33.6582 49.5467 34.0048 49.28L34.8448 51.48ZM46.8042 46.66C46.8042 46.7 46.7842 46.98 46.7442 47.5H38.6042C38.7509 48.1667 39.0976 48.6933 39.6442 49.08C40.1909 49.4667 40.8709 49.66 41.6842 49.66C42.2442 49.66 42.7376 49.58 43.1642 49.42C43.6042 49.2467 44.0109 48.98 44.3842 48.62L46.0442 50.42C45.0309 51.58 43.5509 52.16 41.6042 52.16C40.3909 52.16 39.3176 51.9267 38.3842 51.46C37.4509 50.98 36.7309 50.32 36.2242 49.48C35.7176 48.64 35.4642 47.6867 35.4642 46.62C35.4642 45.5667 35.7109 44.62 36.2042 43.78C36.7109 42.9267 37.3976 42.2667 38.2642 41.8C39.1442 41.32 40.1242 41.08 41.2042 41.08C42.2576 41.08 43.2109 41.3067 44.0642 41.76C44.9176 42.2133 45.5842 42.8667 46.0642 43.72C46.5576 44.56 46.8042 45.54 46.8042 46.66ZM41.2242 43.44C40.5176 43.44 39.9242 43.64 39.4442 44.04C38.9642 44.44 38.6709 44.9867 38.5642 45.68H43.8642C43.7576 45 43.4642 44.46 42.9842 44.06C42.5042 43.6467 41.9176 43.44 41.2242 43.44ZM55.4214 41.08C56.7547 41.08 57.8281 41.48 58.6414 42.28C59.4681 43.08 59.8814 44.2667 59.8814 45.84V52H56.7614V46.32C56.7614 45.4667 56.5747 44.8333 56.2014 44.42C55.8281 43.9933 55.2881 43.78 54.5814 43.78C53.7947 43.78 53.1681 44.0267 52.7014 44.52C52.2347 45 52.0014 45.72 52.0014 46.68V52H48.8814V41.24H51.8614V42.5C52.2747 42.0467 52.7881 41.7 53.4014 41.46C54.0147 41.2067 54.6881 41.08 55.4214 41.08ZM66.3295 52.16C65.4362 52.16 64.5629 52.0533 63.7095 51.84C62.8562 51.6133 62.1762 51.3333 61.6695 51L62.7095 48.76C63.1895 49.0667 63.7695 49.32 64.4495 49.52C65.1295 49.7067 65.7962 49.8 66.4495 49.8C67.7695 49.8 68.4295 49.4733 68.4295 48.82C68.4295 48.5133 68.2495 48.2933 67.8895 48.16C67.5295 48.0267 66.9762 47.9133 66.2295 47.82C65.3495 47.6867 64.6229 47.5333 64.0495 47.36C63.4762 47.1867 62.9762 46.88 62.5495 46.44C62.1362 46 61.9295 45.3733 61.9295 44.56C61.9295 43.88 62.1229 43.28 62.5095 42.76C62.9095 42.2267 63.4829 41.8133 64.2295 41.52C64.9895 41.2267 65.8829 41.08 66.9095 41.08C67.6695 41.08 68.4229 41.1667 69.1695 41.34C69.9295 41.5 70.5562 41.7267 71.0495 42.02L70.0095 44.24C69.0629 43.7067 68.0295 43.44 66.9095 43.44C66.2429 43.44 65.7429 43.5333 65.4095 43.72C65.0762 43.9067 64.9095 44.1467 64.9095 44.44C64.9095 44.7733 65.0895 45.0067 65.4495 45.14C65.8095 45.2733 66.3829 45.4 67.1695 45.52C68.0495 45.6667 68.7695 45.8267 69.3295 46C69.8895 46.16 70.3762 46.46 70.7895 46.9C71.2029 47.34 71.4095 47.9533 71.4095 48.74C71.4095 49.4067 71.2095 50 70.8095 50.52C70.4095 51.04 69.8229 51.4467 69.0495 51.74C68.2895 52.02 67.3829 52.16 66.3295 52.16ZM78.4545 52.16C77.3212 52.16 76.3012 51.9267 75.3945 51.46C74.5012 50.98 73.8012 50.32 73.2945 49.48C72.7879 48.64 72.5345 47.6867 72.5345 46.62C72.5345 45.5533 72.7879 44.6 73.2945 43.76C73.8012 42.92 74.5012 42.2667 75.3945 41.8C76.3012 41.32 77.3212 41.08 78.4545 41.08C79.5879 41.08 80.6012 41.32 81.4945 41.8C82.3879 42.2667 83.0879 42.92 83.5945 43.76C84.1012 44.6 84.3545 45.5533 84.3545 46.62C84.3545 47.6867 84.1012 48.64 83.5945 49.48C83.0879 50.32 82.3879 50.98 81.4945 51.46C80.6012 51.9267 79.5879 52.16 78.4545 52.16ZM78.4545 49.6C79.2545 49.6 79.9079 49.3333 80.4145 48.8C80.9345 48.2533 81.1945 47.5267 81.1945 46.62C81.1945 45.7133 80.9345 44.9933 80.4145 44.46C79.9079 43.9133 79.2545 43.64 78.4545 43.64C77.6545 43.64 76.9945 43.9133 76.4745 44.46C75.9545 44.9933 75.6945 45.7133 75.6945 46.62C75.6945 47.5267 75.9545 48.2533 76.4745 48.8C76.9945 49.3333 77.6545 49.6 78.4545 49.6ZM89.42 42.66C89.7933 42.14 90.2933 41.7467 90.92 41.48C91.56 41.2133 92.2933 41.08 93.12 41.08V43.96C92.7733 43.9333 92.54 43.92 92.42 43.92C91.5267 43.92 90.8267 44.1733 90.32 44.68C89.8133 45.1733 89.56 45.92 89.56 46.92V52H86.44V41.24H89.42V42.66Z" fill="black"/>
<defs>
<linearGradient id="paint0_linear_522_1328" x1="6.80838" y1="15.003" x2="89.2074" y2="15.003" gradientUnits="userSpaceOnUse">
<stop stop-color="#0099DC"/>
<stop offset="1" stop-color="#00B1E5"/>
</linearGradient>
</defs>
</svg>
