<svg width="123" height="15" viewBox="0 0 123 15" fill="none" xmlns="http://www.w3.org/2000/svg">
<path d="M62.3 1.87V13H60.065V12.07C59.485 12.77 58.645 13.12 57.545 13.12C56.785 13.12 56.095 12.95 55.475 12.61C54.865 12.27 54.385 11.785 54.035 11.155C53.685 10.525 53.51 9.795 53.51 8.965C53.51 8.135 53.685 7.405 54.035 6.775C54.385 6.145 54.865 5.66 55.475 5.32C56.095 4.98 56.785 4.81 57.545 4.81C58.575 4.81 59.38 5.135 59.96 5.785V1.87H62.3ZM57.95 11.2C58.54 11.2 59.03 11 59.42 10.6C59.81 10.19 60.005 9.645 60.005 8.965C60.005 8.285 59.81 7.745 59.42 7.345C59.03 6.935 58.54 6.73 57.95 6.73C57.35 6.73 56.855 6.935 56.465 7.345C56.075 7.745 55.88 8.285 55.88 8.965C55.88 9.645 56.075 10.19 56.465 10.6C56.855 11 57.35 11.2 57.95 11.2Z" fill="black"/>
<path d="M72.3707 8.995C72.3707 9.025 72.3557 9.235 72.3257 9.625H66.2207C66.3307 10.125 66.5907 10.52 67.0007 10.81C67.4107 11.1 67.9207 11.245 68.5307 11.245C68.9507 11.245 69.3207 11.185 69.6407 11.065C69.9707 10.935 70.2757 10.735 70.5557 10.465L71.8007 11.815C71.0407 12.685 69.9307 13.12 68.4707 13.12C67.5607 13.12 66.7557 12.945 66.0557 12.595C65.3557 12.235 64.8157 11.74 64.4357 11.11C64.0557 10.48 63.8657 9.765 63.8657 8.965C63.8657 8.175 64.0507 7.465 64.4207 6.835C64.8007 6.195 65.3157 5.7 65.9657 5.35C66.6257 4.99 67.3607 4.81 68.1707 4.81C68.9607 4.81 69.6757 4.98 70.3157 5.32C70.9557 5.66 71.4557 6.15 71.8157 6.79C72.1857 7.42 72.3707 8.155 72.3707 8.995ZM68.1857 6.58C67.6557 6.58 67.2107 6.73 66.8507 7.03C66.4907 7.33 66.2707 7.74 66.1907 8.26H70.1657C70.0857 7.75 69.8657 7.345 69.5057 7.045C69.1457 6.735 68.7057 6.58 68.1857 6.58Z" fill="black"/>
<path d="M79.1336 12.61C78.9036 12.78 78.6186 12.91 78.2786 13C77.9486 13.08 77.5986 13.12 77.2286 13.12C76.2686 13.12 75.5236 12.875 74.9936 12.385C74.4736 11.895 74.2136 11.175 74.2136 10.225V6.91H72.9686V5.11H74.2136V3.145H76.5536V5.11H78.5636V6.91H76.5536V10.195C76.5536 10.535 76.6386 10.8 76.8086 10.99C76.9886 11.17 77.2386 11.26 77.5586 11.26C77.9286 11.26 78.2436 11.16 78.5036 10.96L79.1336 12.61Z" fill="black"/>
<path d="M88.1032 8.995C88.1032 9.025 88.0882 9.235 88.0582 9.625H81.9532C82.0632 10.125 82.3232 10.52 82.7332 10.81C83.1432 11.1 83.6532 11.245 84.2632 11.245C84.6832 11.245 85.0532 11.185 85.3732 11.065C85.7032 10.935 86.0082 10.735 86.2882 10.465L87.5332 11.815C86.7732 12.685 85.6632 13.12 84.2032 13.12C83.2932 13.12 82.4882 12.945 81.7882 12.595C81.0882 12.235 80.5482 11.74 80.1682 11.11C79.7882 10.48 79.5982 9.765 79.5982 8.965C79.5982 8.175 79.7832 7.465 80.1532 6.835C80.5332 6.195 81.0482 5.7 81.6982 5.35C82.3582 4.99 83.0932 4.81 83.9032 4.81C84.6932 4.81 85.4082 4.98 86.0482 5.32C86.6882 5.66 87.1882 6.15 87.5482 6.79C87.9182 7.42 88.1032 8.155 88.1032 8.995ZM83.9182 6.58C83.3882 6.58 82.9432 6.73 82.5832 7.03C82.2232 7.33 82.0032 7.74 81.9232 8.26H85.8982C85.8182 7.75 85.5982 7.345 85.2382 7.045C84.8782 6.735 84.4382 6.58 83.9182 6.58Z" fill="black"/>
<path d="M94.5661 4.81C95.5661 4.81 96.3711 5.11 96.9811 5.71C97.6011 6.31 97.9111 7.2 97.9111 8.38V13H95.5711V8.74C95.5711 8.1 95.4311 7.625 95.1511 7.315C94.8711 6.995 94.4661 6.835 93.9361 6.835C93.3461 6.835 92.8761 7.02 92.5261 7.39C92.1761 7.75 92.0011 8.29 92.0011 9.01V13H89.6611V4.93H91.8961V5.875C92.2061 5.535 92.5911 5.275 93.0511 5.095C93.5111 4.905 94.0161 4.81 94.5661 4.81Z" fill="black"/>
<path d="M102.747 13.12C102.077 13.12 101.422 13.04 100.782 12.88C100.142 12.71 99.6322 12.5 99.2522 12.25L100.032 10.57C100.392 10.8 100.827 10.99 101.337 11.14C101.847 11.28 102.347 11.35 102.837 11.35C103.827 11.35 104.322 11.105 104.322 10.615C104.322 10.385 104.187 10.22 103.917 10.12C103.647 10.02 103.232 9.935 102.672 9.865C102.012 9.765 101.467 9.65 101.037 9.52C100.607 9.39 100.232 9.16 99.9121 8.83C99.6021 8.5 99.4472 8.03 99.4472 7.42C99.4472 6.91 99.5921 6.46 99.8821 6.07C100.182 5.67 100.612 5.36 101.172 5.14C101.742 4.92 102.412 4.81 103.182 4.81C103.752 4.81 104.317 4.875 104.877 5.005C105.447 5.125 105.917 5.295 106.287 5.515L105.507 7.18C104.797 6.78 104.022 6.58 103.182 6.58C102.682 6.58 102.307 6.65 102.057 6.79C101.807 6.93 101.682 7.11 101.682 7.33C101.682 7.58 101.817 7.755 102.087 7.855C102.357 7.955 102.787 8.05 103.377 8.14C104.037 8.25 104.577 8.37 104.997 8.5C105.417 8.62 105.782 8.845 106.092 9.175C106.402 9.505 106.557 9.965 106.557 10.555C106.557 11.055 106.407 11.5 106.107 11.89C105.807 12.28 105.367 12.585 104.787 12.805C104.217 13.015 103.537 13.12 102.747 13.12Z" fill="black"/>
<path d="M111.841 13.12C110.991 13.12 110.226 12.945 109.546 12.595C108.876 12.235 108.351 11.74 107.971 11.11C107.591 10.48 107.401 9.765 107.401 8.965C107.401 8.165 107.591 7.45 107.971 6.82C108.351 6.19 108.876 5.7 109.546 5.35C110.226 4.99 110.991 4.81 111.841 4.81C112.691 4.81 113.451 4.99 114.121 5.35C114.791 5.7 115.316 6.19 115.696 6.82C116.076 7.45 116.266 8.165 116.266 8.965C116.266 9.765 116.076 10.48 115.696 11.11C115.316 11.74 114.791 12.235 114.121 12.595C113.451 12.945 112.691 13.12 111.841 13.12ZM111.841 11.2C112.441 11.2 112.931 11 113.311 10.6C113.701 10.19 113.896 9.645 113.896 8.965C113.896 8.285 113.701 7.745 113.311 7.345C112.931 6.935 112.441 6.73 111.841 6.73C111.241 6.73 110.746 6.935 110.356 7.345C109.966 7.745 109.771 8.285 109.771 8.965C109.771 9.645 109.966 10.19 110.356 10.6C110.746 11 111.241 11.2 111.841 11.2Z" fill="black"/>
<path d="M120.065 5.995C120.345 5.605 120.72 5.31 121.19 5.11C121.67 4.91 122.22 4.81 122.84 4.81V6.97C122.58 6.95 122.405 6.94 122.315 6.94C121.645 6.94 121.12 7.13 120.74 7.51C120.36 7.88 120.17 8.44 120.17 9.19V13H117.83V4.93H120.065V5.995Z" fill="black"/>
<path d="M43.3945 2.94334C43.3945 2.54984 43.0811 2.23505 42.6894 2.23505L39.8064 2.10913L38.3805 2.03043C38.3727 2.03043 38.357 2.03043 38.3492 2.03043C38.0671 2.03043 37.8243 2.1957 37.7146 2.43966V2.44753C37.6911 2.50262 37.6676 2.55771 37.6597 2.62067L36.0694 7.7361L35.4975 9.4596C35.3486 10.0813 34.7924 10.5456 34.1264 10.5456C33.5467 10.5456 33.0453 10.1915 32.8338 9.6957C32.6771 9.13694 32.8573 8.56243 32.9121 8.42078L32.92 8.3893L35.1684 2.24292C35.2154 2.14848 35.2389 2.04617 35.2389 1.94386C35.2389 1.59759 34.9882 1.31427 34.667 1.25131L34.244 1.21196L30.4208 1.03095H30.3033C30.2954 1.03095 30.2954 1.03095 30.2876 1.03095C30.0056 1.03095 29.7627 1.19622 29.653 1.44019L29.6452 1.47167C29.6374 1.49528 29.6295 1.51889 29.6217 1.5425L29.4337 2.00682L26.817 9.42812H26.8092C26.6681 10.0656 26.1041 10.5456 25.4303 10.5456C25.0073 10.5456 24.6234 10.3568 24.3648 10.0577C23.8948 9.47534 24.2395 8.49161 24.357 8.20829C24.357 8.20042 24.3648 8.20042 24.3648 8.19255L26.8405 1.33001C26.9032 1.20409 26.9423 1.06243 26.9423 0.912907C26.9423 0.409234 26.535 0 26.0336 0C25.9004 0 25.775 0.0314795 25.6575 0.0865687L24.9211 0.424974C23.9575 0.771249 21.7952 1.28279 18.7789 0.456453L17.6665 0.0629591H17.6586C17.5803 0.0314795 17.4941 0.0157398 17.4001 0.00786988L17.2199 0.0157398C16.7812 0.0786988 16.4365 0.456453 16.4365 0.912907C16.4365 1.01522 16.46 1.11752 16.4913 1.21196L19.1707 8.37356C19.249 8.59391 19.4605 9.33368 19.1315 9.90032C19.0218 10.0735 18.873 10.2151 18.7006 10.3253C18.6693 10.341 18.6458 10.3568 18.6144 10.3725C18.4186 10.4748 18.1914 10.5378 17.9563 10.5378C17.4941 10.5378 17.0946 10.3017 16.836 9.9554L16.6402 9.59339L16.5462 9.31794L13.8198 1.51102C13.765 1.3851 13.6945 1.29066 13.6239 1.21983C13.6161 1.21196 13.6083 1.20409 13.5926 1.19622L13.5848 1.18835C13.5769 1.18048 13.5691 1.17261 13.5613 1.17261C13.5456 1.15687 13.5299 1.149 13.5143 1.14113C13.4986 1.12539 13.4829 1.11752 13.4594 1.10965C13.4438 1.10178 13.4281 1.09391 13.4124 1.08604C13.3967 1.07817 13.3889 1.0703 13.3732 1.0703C13.3497 1.06243 13.3262 1.05456 13.3027 1.04669C13.2949 1.04669 13.2949 1.04669 13.2871 1.03882H13.2792C13.2636 1.03096 13.2401 1.02308 13.2166 1.02308C13.099 1.00735 13.0129 1.01522 13.0129 1.01522L8.87632 1.21196L8.67263 1.25131C8.38276 1.33788 8.17123 1.60546 8.17123 1.92812C8.17123 2.0383 8.19474 2.14061 8.24174 2.22718L10.6234 8.60965H10.6077C10.6704 8.76705 10.7017 8.93232 10.7017 9.11333C10.7017 9.90032 10.0671 10.5299 9.29154 10.5299C8.88416 10.5299 8.51594 10.3568 8.25741 10.0813C8.24174 10.0735 8.23391 10.0577 8.21824 10.0341C8.21824 10.0341 8.21824 10.0341 8.21824 10.0262C8.13206 9.92393 8.06155 9.81375 8.00671 9.6957C7.81868 9.35729 7.77951 9.10546 7.77951 9.10546L5.73475 2.52623C5.64857 2.22718 5.3822 2.00682 5.06099 2.00682C5.02965 2.00682 4.99048 2.01469 4.95915 2.01469V2.03043L0.705092 2.22718C0.313374 2.22718 0 2.54197 0 2.93547C0 3.04565 0.0313373 3.15582 0.0783435 3.25026L4.0817 14.2838L4.08953 14.2917C4.22272 14.7009 4.59877 15 5.04532 15C5.07666 15 5.10016 14.9921 5.1315 14.9921L5.14717 15H38.451L38.4667 14.9921C38.8741 14.9449 39.2031 14.6537 39.3128 14.276L39.3206 14.2681L43.324 3.25813C43.3632 3.15582 43.3945 3.05352 43.3945 2.94334Z" fill="url(#paint0_linear_1318_3320)"/>
<defs>
<linearGradient id="paint0_linear_1318_3320" x1="-0.000626748" y1="7.5015" x2="43.3921" y2="7.5015" gradientUnits="userSpaceOnUse">
<stop stop-color="#0099DC"/>
<stop offset="1" stop-color="#00B1E5"/>
</linearGradient>
</defs>
</svg>
