<?xml version="1.0" encoding="utf-8"?>
<!-- Generator: Adobe Illustrator 26.1.0, SVG Export Plug-In . SVG Version: 6.00 Build 0)  -->
<svg version="1.1" id="Layer_1" xmlns="http://www.w3.org/2000/svg" xmlns:xlink="http://www.w3.org/1999/xlink" x="0px" y="0px"
	 viewBox="0 0 68 60" style="enable-background:new 0 0 68 60;" xml:space="preserve">
<style type="text/css">
	.st0{fill:#FCE899;}
	.st1{fill:#008E60;}
	.st2{fill:#F7C600;}
	.st3{fill:#FAEE8C;}
	.st4{fill:#FFFFFF;}
	.st5{fill:#F39F00;}
	.st6{fill:#FFF1E7;}
	.st7{fill:#FFB7A1;}
	.st8{fill:#FA7463;}
	.st9{fill:#007F4F;}
	.st10{fill:#FF3008;}
	.st11{fill:#FF807B;}
	.st12{fill:#FF706B;}
	.st13{fill:#FFD7C7;}
	.st14{fill:#007947;}
	.st15{fill:#62C0C3;}
	.st16{fill:#E7E5D9;}
	.st17{fill:#00858C;}
	.st18{fill:#C5C4AD;}
	.st19{fill:#FF4F2D;}
	.st20{fill:#F9DB4B;}
	.st21{fill:#FFE900;}
	.st22{fill:#F8CC00;}
	.st23{fill:#EECA00;}
	.st24{fill:#E3B300;}
	.st25{fill:#FFFBE8;}
	.st26{fill:#FB8677;}
	.st27{fill:#FFB1AE;}
	.st28{fill:#FF5534;}
	.st29{fill:#409C7A;}
	.st30{fill:#BCE9EA;}
	.st31{fill:#029999;}
	.st32{fill:#BCBBA4;}
	.st33{fill:#8CD7D9;}
	.st34{fill:none;stroke:#F9BEAA;stroke-width:0.5;stroke-miterlimit:10;}
	.st35{fill:#075B46;}
	.st36{fill:#68E1DE;}
	.st37{fill:#E8FCFB;}
	.st38{fill:#17A3A9;}
	.st39{fill:#00838A;}
	.st40{fill:#008344;}
	.st41{fill:#FD7B2F;}
	.st42{fill:#FBAC6B;}
	.st43{fill:#E54E03;}
	.st44{fill:#FE8D4B;}
	.st45{fill:#017946;}
	.st46{fill:#BD8800;}
	.st47{fill:#86CED1;}
	.st48{fill:#058C60;}
	.st49{fill:#E85658;}
	.st50{fill:#FDAFAC;}
	.st51{fill:#EF9595;}
	.st52{fill:#D5A600;}
	.st53{fill:#007F3A;}
	.st54{fill:#FF838B;}
	.st55{fill:#FDC1BE;}
	.st56{fill:#954C00;}
	.st57{fill:#FFB8A2;}
	.st58{fill:#F9BEAA;}
	.st59{fill:#A16C00;}
	.st60{fill:#C7C6B7;}
	.st61{fill:#DFDED5;}
	.st62{fill:#FF7168;}
	.st63{fill:#FADB5C;}
	.st64{fill:#002F10;}
	.st65{fill:#C4AB80;}
	.st66{clip-path:url(#SVGID_00000075872670531906031280000005295602285186926983_);fill:#FDEFB5;}
	.st67{clip-path:url(#SVGID_00000075872670531906031280000005295602285186926983_);}
	.st68{clip-path:url(#SVGID_00000075872670531906031280000005295602285186926983_);fill:#4ADEDB;}
	.st69{fill:#FF2D00;}
	.st70{clip-path:url(#SVGID_00000088124637295517453740000015680951316861787314_);fill:#FDEFB5;}
	.st71{clip-path:url(#SVGID_00000088124637295517453740000015680951316861787314_);}
	.st72{clip-path:url(#SVGID_00000067229624041520584110000017016655572453905542_);fill:#FDEFB5;}
	.st73{clip-path:url(#SVGID_00000067229624041520584110000017016655572453905542_);}
	.st74{clip-path:url(#SVGID_00000067229624041520584110000017016655572453905542_);fill:#F7C600;}
	.st75{clip-path:url(#SVGID_00000008135800006707014540000001906337128845590173_);fill:#FDEFB5;}
	.st76{clip-path:url(#SVGID_00000008135800006707014540000001906337128845590173_);}
	.st77{clip-path:url(#SVGID_00000008135800006707014540000001906337128845590173_);fill:#007947;}
	.st78{clip-path:url(#SVGID_00000008135800006707014540000001906337128845590173_);fill:#F7C600;}
	.st79{clip-path:url(#SVGID_00000008135800006707014540000001906337128845590173_);fill:#FFFFFF;}
	.st80{clip-path:url(#SVGID_00000045590232662289113320000016577347684927907717_);fill:#FDEFB5;}
	.st81{clip-path:url(#SVGID_00000176730708288501783170000006075272491368906654_);}
	.st82{clip-path:url(#SVGID_00000151504726764613730230000017084949035828196509_);fill:#FDEFB5;}
	.st83{clip-path:url(#SVGID_00000151504726764613730230000017084949035828196509_);}
	.st84{fill:#452700;}
	.st85{fill:#643B00;}
	.st86{fill:#C6C5B1;}
	.st87{fill:#0F2A1D;}
	.st88{fill:#E8C500;}
	.st89{fill:#006873;}
	.st90{clip-path:url(#SVGID_00000051352130445355501210000017267749930714468764_);fill:#FDEFB5;}
	.st91{clip-path:url(#SVGID_00000051352130445355501210000017267749930714468764_);}
	.st92{clip-path:url(#SVGID_00000089572810131246302320000006547420329917532333_);fill:#FDEFB5;}
	.st93{clip-path:url(#SVGID_00000089572810131246302320000006547420329917532333_);}
	.st94{fill:#388E90;}
	.st95{clip-path:url(#SVGID_00000177447604848680333490000003570441707557229490_);}
	.st96{fill:#FCEDB4;}
	.st97{clip-path:url(#SVGID_00000177447604848680333490000003570441707557229490_);fill:#017946;}
	.st98{clip-path:url(#SVGID_00000177447604848680333490000003570441707557229490_);fill:#BD8800;}
	.st99{clip-path:url(#SVGID_00000177447604848680333490000003570441707557229490_);fill:#058C60;}
	.st100{clip-path:url(#SVGID_00000177447604848680333490000003570441707557229490_);fill:#F7C600;}
	.st101{clip-path:url(#SVGID_00000177447604848680333490000003570441707557229490_);fill:#FF5534;}
	.st102{clip-path:url(#SVGID_00000177447604848680333490000003570441707557229490_);fill:#D5A600;}
	.st103{clip-path:url(#SVGID_00000083797806816021744850000005717161960040093841_);}
	.st104{fill:#FDEFB5;}
	.st105{clip-path:url(#SVGID_00000160879453834775363150000002564012043668856469_);fill:none;}
	.st106{clip-path:url(#SVGID_00000160879453834775363150000002564012043668856469_);fill:#FDEFB5;}
	.st107{clip-path:url(#SVGID_00000160879453834775363150000002564012043668856469_);}
	.st108{clip-path:url(#SVGID_00000160879453834775363150000002564012043668856469_);fill:#C4AB80;}
	.st109{clip-path:url(#SVGID_00000160879453834775363150000002564012043668856469_);fill:#FF3008;}
	.st110{clip-path:url(#SVGID_00000168795500057113676440000007832929649911814815_);fill:#FDEFB5;}
	.st111{clip-path:url(#SVGID_00000168795500057113676440000007832929649911814815_);}
	.st112{fill:#4A2500;}
	.st113{clip-path:url(#SVGID_00000044153429365100177730000013567838485963900590_);fill:#FDEFB5;}
	.st114{clip-path:url(#SVGID_00000044153429365100177730000013567838485963900590_);}
	.st115{fill:#24372B;}
	.st116{clip-path:url(#SVGID_00000144327725187081859710000015712981718335116929_);fill:#FDEFB5;}
	.st117{clip-path:url(#SVGID_00000144327725187081859710000015712981718335116929_);}
	.st118{fill:#93D4D6;}
	.st119{fill:#A8A799;}
	.st120{fill:#037A4F;}
	.st121{fill:#B17C52;}
	.st122{fill:#C38C61;}
	.st123{fill:#DBB18E;}
	.st124{fill:#C7956E;}
	.st125{fill:#017575;}
	.st126{clip-path:url(#SVGID_00000178921597307864647830000017313479097272358805_);fill:#FDEFB5;}
	.st127{clip-path:url(#SVGID_00000178921597307864647830000017313479097272358805_);}
	.st128{fill:#CF7D2A;}
	.st129{fill:#91DADA;}
	.st130{fill:#BEE2CD;}
	.st131{fill:#FF0000;}
	.st132{fill:#E6CB7E;}
	.st133{fill:#D5B45E;}
	.st134{fill:none;stroke:#C7C6B5;stroke-width:0.75;stroke-miterlimit:10;}
	.st135{fill:#FF9E9E;}
	.st136{fill:#BD834E;}
	.st137{clip-path:url(#SVGID_00000078023859277024945230000006669173921558029704_);fill:#FDEFB5;}
	.st138{clip-path:url(#SVGID_00000078023859277024945230000006669173921558029704_);}
</style>
<g>
	<defs>
		<circle id="SVGID_00000073679246688577457630000001891903793012418700_" cx="33.9" cy="30" r="30"/>
	</defs>
	<clipPath id="SVGID_00000134939207163650579220000013492983913413863573_">
		<use xlink:href="#SVGID_00000073679246688577457630000001891903793012418700_"  style="overflow:visible;"/>
	</clipPath>
	
		<circle style="clip-path:url(#SVGID_00000134939207163650579220000013492983913413863573_);fill:#FDEFB5;" cx="33.9" cy="30" r="30"/>
	<g style="clip-path:url(#SVGID_00000134939207163650579220000013492983913413863573_);">
		<path class="st4" d="M8.2,23.8c-0.1,0-0.2,0-0.3,0c-0.5-0.1-0.8-0.3-1.1-0.7c-0.4-0.7,0.1-1.3,0.4-1.6c0.2-0.3,0.5-0.4,1-0.3
			c0.3,0.1,0.7,0.2,1,0.4c0.2,0.1,0.3,0.4,0.3,0.6c0,0.5-0.3,1.1-0.6,1.4C8.8,23.7,8.5,23.8,8.2,23.8z M8,21.6
			c-0.2,0-0.3,0.1-0.3,0.2l-0.1,0.1c0,0-0.6,0.5-0.3,1c0.2,0.3,0.5,0.4,0.7,0.4c0.3,0,0.6,0,0.7-0.1C8.8,23,9,22.6,9,22.2
			C9,22,8.9,22,8.9,22c-0.3-0.2-0.5-0.3-0.8-0.3C8.1,21.6,8,21.6,8,21.6z"/>
		<path class="st4" d="M6.4,32.1c-0.1,0-0.2,0-0.3,0c-0.5-0.1-0.8-0.3-1.1-0.7c-0.4-0.7,0.1-1.3,0.4-1.6c0.2-0.3,0.5-0.4,1-0.3
			c0.3,0.1,0.7,0.2,1,0.4c0.2,0.1,0.3,0.4,0.3,0.6c0,0.5-0.3,1.1-0.6,1.4C7.1,32.1,6.8,32.1,6.4,32.1z M6.2,30c-0.1,0-0.3,0-0.3,0.2
			l-0.1,0.1c0,0-0.6,0.5-0.3,1c0.2,0.3,0.5,0.4,0.7,0.4c0.3,0,0.6,0,0.7-0.1c0.2-0.1,0.4-0.6,0.4-0.9c0-0.2-0.1-0.2-0.1-0.2
			C6.9,30.2,6.5,30,6.2,30z"/>
		<path class="st4" d="M6.8,28.5c-0.1,0-0.2,0-0.3,0c-0.5-0.1-0.8-0.3-1.1-0.7c-0.4-0.7,0.1-1.3,0.4-1.6c0.4-0.6,1.3-0.4,2,0.1
			c0.2,0.1,0.3,0.4,0.3,0.6c0,0.5-0.3,1.1-0.6,1.4C7.4,28.4,7.1,28.5,6.8,28.5z M6.6,26.3c-0.1,0-0.3,0-0.3,0.2l-0.1,0.1
			c0,0-0.6,0.5-0.3,1c0.2,0.3,0.5,0.4,0.7,0.4c0.3,0,0.6,0,0.7-0.1c0.2-0.1,0.4-0.6,0.4-0.9c0-0.2-0.1-0.2-0.1-0.2
			C7.3,26.5,6.9,26.3,6.6,26.3z"/>
		<path class="st4" d="M9.7,31c-0.1,0-0.2,0-0.3,0c-0.5-0.1-0.8-0.3-1.1-0.7c-0.4-0.7,0.1-1.3,0.4-1.6c0.4-0.6,1.3-0.4,2,0.1
			c0.2,0.1,0.3,0.4,0.3,0.6c0,0.5-0.3,1.1-0.6,1.4C10.3,30.9,10,31,9.7,31z M9.5,28.9c-0.1,0-0.3,0-0.3,0.2l-0.1,0.1
			c0,0-0.6,0.5-0.3,1c0.2,0.3,0.5,0.4,0.7,0.4c0.3,0,0.6,0,0.7-0.1c0.2-0.1,0.4-0.6,0.4-0.9c0-0.2-0.1-0.2-0.1-0.2
			C10.2,29.1,9.8,28.9,9.5,28.9z"/>
		<path class="st4" d="M12.8,29c-0.1,0-0.2,0-0.3,0c-0.5-0.1-0.8-0.3-1.1-0.7c-0.4-0.7,0.1-1.3,0.4-1.6c0.2-0.3,0.5-0.4,1-0.3
			c0.3,0.1,0.7,0.2,1,0.4c0.2,0.1,0.3,0.4,0.3,0.6c0,0.5-0.3,1.1-0.6,1.4C13.4,28.9,13.1,29,12.8,29z M12.6,26.8
			c-0.2,0-0.3,0.1-0.3,0.2l-0.1,0.1c0,0-0.6,0.5-0.3,1c0.2,0.3,0.5,0.4,0.7,0.4c0.3,0,0.6,0,0.7-0.1c0.2-0.1,0.4-0.6,0.4-0.9
			c0-0.2-0.1-0.2-0.1-0.2c-0.3-0.2-0.5-0.3-0.8-0.3C12.7,26.8,12.7,26.8,12.6,26.8z"/>
		<path class="st4" d="M5.1,24.5c-0.1,0-0.2,0-0.3,0c-0.5-0.1-0.8-0.3-1.1-0.7c-0.4-0.7,0.1-1.3,0.4-1.6c0.4-0.6,1.3-0.4,2,0.1
			c0.2,0.1,0.3,0.4,0.3,0.6c0,0.5-0.3,1.1-0.6,1.4C5.7,24.4,5.4,24.5,5.1,24.5z M4.9,22.3c-0.1,0-0.3,0-0.3,0.2l-0.1,0.1
			c0,0-0.6,0.5-0.3,1c0.2,0.3,0.5,0.4,0.7,0.4c0.3,0,0.6,0,0.7-0.1C5.8,23.7,6,23.2,6,22.9c0-0.2-0.1-0.2-0.1-0.2
			C5.6,22.5,5.2,22.3,4.9,22.3z"/>
		<path class="st4" d="M4.2,21.4c-0.1,0-0.2,0-0.3,0c-0.5-0.1-0.8-0.3-1.1-0.7c-0.4-0.7,0.1-1.3,0.4-1.6c0.4-0.6,1.3-0.4,2,0.1
			c0.2,0.1,0.3,0.4,0.3,0.6c0,0.5-0.3,1.1-0.6,1.4C4.8,21.3,4.5,21.4,4.2,21.4z M4,19.3c-0.1,0-0.3,0-0.3,0.2l-0.1,0.1
			c0,0-0.6,0.5-0.3,1c0.2,0.3,0.5,0.4,0.7,0.4c0.3,0,0.6,0,0.7-0.1c0.2-0.1,0.4-0.6,0.4-0.9c0-0.2-0.1-0.2-0.1-0.2
			C4.7,19.4,4.3,19.3,4,19.3z"/>
		<path class="st4" d="M3.2,28.1c-0.1,0-0.2,0-0.3,0c-0.5-0.1-0.8-0.3-1.1-0.7C1.5,26.7,2,26,2.3,25.7c0.4-0.6,1.3-0.4,2,0.1
			c0.2,0.1,0.3,0.4,0.3,0.6c0,0.5-0.3,1.1-0.6,1.4C3.9,28,3.6,28.1,3.2,28.1z M3.1,25.9c-0.1,0-0.3,0-0.3,0.2l-0.1,0.1
			c0,0-0.6,0.5-0.3,1c0.2,0.3,0.5,0.4,0.7,0.4c0.3,0,0.6,0,0.7-0.1c0.2-0.1,0.4-0.6,0.4-0.9c0-0.2-0.1-0.2-0.1-0.2
			C3.7,26.1,3.3,25.9,3.1,25.9z"/>
		<path class="st4" d="M2.7,31.8c-0.1,0-0.2,0-0.3,0c-0.5-0.1-0.8-0.3-1.1-0.7c-0.4-0.7,0.1-1.3,0.4-1.6c0.4-0.6,1.3-0.4,2,0.1
			C3.9,29.7,4,29.9,4,30.2c0,0.5-0.3,1.1-0.6,1.4C3.3,31.7,3,31.8,2.7,31.8z M2.5,29.7c-0.1,0-0.3,0-0.3,0.2l-0.1,0.1
			c0,0-0.6,0.5-0.3,1c0.2,0.3,0.5,0.4,0.7,0.4c0.3,0,0.6,0,0.7-0.1c0.2-0.1,0.4-0.6,0.4-0.9c0-0.2-0.1-0.2-0.1-0.2
			C3.2,29.8,2.8,29.7,2.5,29.7z"/>
		<path class="st4" d="M7.3,20.4c-0.1,0-0.2,0-0.3,0C6.6,20.3,6.2,20,6,19.7C5.5,19,6,18.3,6.4,18.1c0.4-0.6,1.3-0.4,2,0.1
			c0.2,0.1,0.3,0.4,0.3,0.6c0,0.5-0.3,1.1-0.6,1.4C7.9,20.3,7.6,20.4,7.3,20.4z M7.1,18.2c-0.1,0-0.3,0-0.3,0.2l-0.1,0.1
			c0,0-0.6,0.5-0.3,1c0.2,0.3,0.5,0.4,0.7,0.4c0.3,0,0.6,0,0.7-0.1c0.2-0.1,0.4-0.6,0.4-0.9c0-0.2-0.1-0.2-0.1-0.2
			C7.8,18.4,7.4,18.2,7.1,18.2z"/>
		<path class="st4" d="M10.4,24.1c-0.2,0-0.4,0-0.6-0.1c-0.1,0-0.8-0.3-0.9-1.1c-0.1-0.6,0.4-1.1,1.4-1.4c0.3-0.1,0.5,0,0.8,0.2
			c0.4,0.3,0.7,1,0.6,1.4c0,0.3-0.2,0.6-0.6,0.8C10.9,24,10.6,24.1,10.4,24.1z M10.5,21.9C10.5,21.9,10.5,21.9,10.5,21.9
			c-0.5,0.1-1.2,0.4-1.1,0.9c0.1,0.5,0.6,0.7,0.6,0.7l0,0c0.3,0.1,0.6,0.1,0.9-0.1c0.2-0.1,0.3-0.2,0.3-0.4c0-0.3-0.2-0.8-0.5-1
			C10.7,22,10.6,21.9,10.5,21.9z"/>
		<path class="st4" d="M9.5,27.4c-0.2,0-0.4,0-0.6-0.1c-0.1,0-0.8-0.3-0.9-1.1c-0.1-0.6,0.4-1.1,1.4-1.4c0.3-0.1,0.5,0,0.8,0.2
			c0.4,0.3,0.7,1,0.6,1.4c0,0.3-0.2,0.6-0.6,0.8C10.1,27.4,9.8,27.4,9.5,27.4z M9.6,25.3C9.6,25.3,9.6,25.3,9.6,25.3
			c-0.5,0.1-1.2,0.4-1.1,0.9c0.1,0.5,0.6,0.7,0.6,0.7l0,0c0.3,0.1,0.6,0.1,0.9-0.1c0.2-0.1,0.3-0.2,0.3-0.4c0-0.3-0.2-0.8-0.5-1
			C9.8,25.3,9.7,25.3,9.6,25.3z"/>
		<path class="st4" d="M12.7,25.9c-0.2,0-0.4,0-0.6-0.1c-0.1,0-0.8-0.3-0.9-1.1c-0.1-0.6,0.4-1.1,1.4-1.4c0.3-0.1,0.5,0,0.8,0.2
			c0.4,0.3,0.7,1,0.6,1.4c0,0.3-0.2,0.6-0.6,0.8C13.3,25.8,13,25.9,12.7,25.9z M12.8,23.7C12.8,23.7,12.8,23.7,12.8,23.7
			c-0.5,0.1-1.2,0.4-1.1,0.9c0.1,0.5,0.6,0.7,0.6,0.7l0,0c0.3,0.1,0.6,0.1,0.9-0.1c0.2-0.1,0.3-0.2,0.3-0.4c0-0.3-0.2-0.8-0.5-1
			C13,23.8,12.9,23.7,12.8,23.7z"/>
		<path class="st4" d="M15.8,25.8c-0.2,0-0.4,0-0.6-0.1c-0.1,0-0.8-0.3-0.9-1.1c-0.1-0.6,0.4-1.1,1.4-1.4c0.3-0.1,0.5,0,0.8,0.2
			c0.4,0.3,0.7,1,0.6,1.4c0,0.3-0.2,0.6-0.6,0.8C16.3,25.7,16.1,25.8,15.8,25.8z M15.9,23.6C15.9,23.6,15.9,23.6,15.9,23.6
			c-0.5,0.1-1.2,0.4-1.1,0.9c0.1,0.5,0.6,0.7,0.6,0.7l0,0c0.3,0.1,0.6,0.1,0.9-0.1c0.2-0.1,0.3-0.2,0.3-0.4c0-0.3-0.2-0.8-0.5-1
			C16.1,23.7,16,23.6,15.9,23.6z"/>
		<path class="st4" d="M14.2,19.1c-0.2,0-0.4,0-0.6-0.1c-0.1,0-0.8-0.3-0.9-1.1c-0.1-0.6,0.4-1.1,1.4-1.4c0.3-0.1,0.5,0,0.8,0.2
			c0.4,0.3,0.7,1,0.6,1.4c0,0.3-0.2,0.6-0.6,0.8C14.7,19,14.4,19.1,14.2,19.1z M14.3,17C14.3,17,14.3,17,14.3,17
			c-0.5,0.1-1.2,0.4-1.1,0.9c0.1,0.5,0.6,0.7,0.6,0.7l0,0c0.3,0.1,0.6,0.1,0.9-0.1c0.2-0.1,0.3-0.2,0.3-0.4c0-0.3-0.2-0.8-0.5-1
			C14.5,17,14.4,17,14.3,17z"/>
		<path class="st4" d="M10.1,18.1c-0.2,0-0.4,0-0.6-0.1c-0.1,0-0.8-0.3-0.9-1.1C8.5,16.3,9,15.8,10,15.5c0.3-0.1,0.5,0,0.8,0.2
			c0.4,0.3,0.7,1,0.6,1.4c0,0.3-0.2,0.6-0.6,0.8C10.7,18.1,10.4,18.1,10.1,18.1z M10.3,16C10.2,16,10.2,16,10.3,16
			c-0.5,0.1-1.2,0.4-1.1,0.9c0.1,0.5,0.6,0.7,0.6,0.7l0,0c0.3,0.1,0.6,0.1,0.9-0.1c0.2-0.1,0.3-0.2,0.3-0.4c0-0.3-0.2-0.8-0.5-1
			C10.4,16,10.3,16,10.3,16z"/>
		<path class="st4" d="M2.3,26.5c-0.2,0-0.4,0-0.6-0.1c-0.1,0-0.8-0.3-0.9-1.1c-0.1-0.6,0.4-1.1,1.4-1.4c0.3-0.1,0.5,0,0.8,0.2
			c0.4,0.3,0.7,1,0.6,1.4c0,0.3-0.2,0.6-0.6,0.8C2.9,26.4,2.6,26.5,2.3,26.5z M2.4,24.3C2.4,24.3,2.4,24.3,2.4,24.3
			c-0.5,0.1-1.2,0.4-1.1,0.9c0.1,0.5,0.6,0.7,0.6,0.7l0,0C2.2,26,2.6,26,2.9,25.8c0.2-0.1,0.3-0.2,0.3-0.4c0-0.3-0.2-0.8-0.5-1
			C2.6,24.4,2.5,24.3,2.4,24.3z"/>
		<path class="st4" d="M11,21.3c-0.2,0-0.4,0-0.6-0.1c-0.1,0-0.8-0.3-0.9-1.1c-0.1-0.6,0.4-1.1,1.4-1.4c0.3-0.1,0.5,0,0.8,0.2
			c0.4,0.3,0.7,1,0.6,1.4c0,0.3-0.2,0.6-0.6,0.8C11.5,21.3,11.2,21.3,11,21.3z M11.1,19.2C11.1,19.2,11.1,19.2,11.1,19.2
			c-0.5,0.1-1.2,0.4-1.1,0.9c0.1,0.5,0.6,0.7,0.6,0.7l0,0c0.3,0.1,0.6,0.1,0.9-0.1c0.2-0.1,0.3-0.2,0.3-0.4c0-0.3-0.2-0.8-0.5-1
			C11.3,19.2,11.2,19.2,11.1,19.2z"/>
	</g>
	<g style="clip-path:url(#SVGID_00000134939207163650579220000013492983913413863573_);">
		<path class="st4" d="M63.4,17.5c-0.1,0-0.2,0-0.3,0c-0.5-0.1-0.8-0.3-1.1-0.7c-0.4-0.7,0.1-1.3,0.4-1.6c0.4-0.6,1.3-0.4,2,0.1
			c0.2,0.1,0.3,0.4,0.3,0.6c0,0.5-0.3,1.1-0.6,1.4C64,17.5,63.7,17.5,63.4,17.5z M63.2,15.4c-0.1,0-0.3,0-0.3,0.2l-0.1,0.1
			c0,0-0.6,0.5-0.3,1c0.2,0.3,0.5,0.4,0.7,0.4c0.3,0,0.6,0,0.7-0.1c0.2-0.1,0.4-0.6,0.4-0.9c0-0.2-0.1-0.2-0.1-0.2
			C63.9,15.6,63.5,15.4,63.2,15.4z"/>
		<path class="st4" d="M61.7,25.9c-0.1,0-0.2,0-0.3,0c-0.5-0.1-0.8-0.3-1.1-0.7c-0.4-0.7,0.1-1.3,0.4-1.6c0.4-0.6,1.3-0.4,2,0.1
			c0.2,0.1,0.3,0.4,0.3,0.6c0,0.5-0.3,1.1-0.6,1.4C62.3,25.8,62,25.9,61.7,25.9z M61.5,23.8c-0.1,0-0.3,0-0.3,0.2L61.1,24
			c0,0-0.6,0.5-0.3,1c0.2,0.3,0.5,0.4,0.7,0.4c0.3,0,0.6,0,0.7-0.1c0.2-0.1,0.4-0.6,0.4-0.9c0-0.2-0.1-0.2-0.1-0.2
			C62.2,23.9,61.8,23.8,61.5,23.8z"/>
		<path class="st4" d="M62.1,22.2c-0.1,0-0.2,0-0.3,0c-0.5-0.1-0.8-0.3-1.1-0.7c-0.4-0.7,0.1-1.3,0.4-1.6c0.4-0.6,1.3-0.4,2,0.1
			c0.2,0.1,0.3,0.4,0.3,0.6c0,0.5-0.3,1.1-0.6,1.4C62.7,22.2,62.4,22.2,62.1,22.2z M61.9,20.1c-0.1,0-0.3,0-0.3,0.2l-0.1,0.1
			c0,0-0.6,0.5-0.3,1c0.2,0.3,0.5,0.4,0.7,0.4c0.3,0,0.6,0,0.7-0.1c0.2-0.1,0.4-0.6,0.4-0.9c0-0.2-0.1-0.2-0.1-0.2
			C62.6,20.3,62.2,20.1,61.9,20.1z"/>
		<path class="st4" d="M65,24.8c-0.1,0-0.2,0-0.3,0c-0.5-0.1-0.8-0.3-1.1-0.7c-0.4-0.7,0.1-1.3,0.4-1.6c0.4-0.6,1.3-0.4,2,0.1
			c0.2,0.1,0.3,0.4,0.3,0.6c0,0.5-0.3,1.1-0.6,1.4C65.6,24.7,65.3,24.8,65,24.8z M64.8,22.6c-0.1,0-0.3,0-0.3,0.2l-0.1,0.1
			c0,0-0.6,0.5-0.3,1c0.2,0.3,0.5,0.4,0.7,0.4c0.3,0,0.6,0,0.7-0.1c0.2-0.1,0.4-0.6,0.4-0.9c0-0.2-0.1-0.2-0.1-0.2
			C65.5,22.8,65.1,22.6,64.8,22.6z"/>
		<path class="st4" d="M68.1,22.8c-0.1,0-0.2,0-0.3,0c-0.5-0.1-0.8-0.3-1.1-0.7c-0.4-0.7,0.1-1.3,0.4-1.6c0.4-0.6,1.3-0.4,2,0.1
			c0.2,0.1,0.3,0.4,0.3,0.6c0,0.5-0.3,1.1-0.6,1.4C68.7,22.7,68.4,22.8,68.1,22.8z M67.9,20.6c-0.1,0-0.3,0-0.3,0.2l-0.1,0.1
			c0,0-0.6,0.5-0.3,1c0.2,0.3,0.5,0.4,0.7,0.4c0.3,0,0.6,0,0.7-0.1c0.2-0.1,0.4-0.6,0.4-0.9c0-0.2-0.1-0.2-0.1-0.2
			C68.5,20.8,68.2,20.6,67.9,20.6z"/>
		<path class="st4" d="M60.4,18.2c-0.1,0-0.2,0-0.3,0c-0.5-0.1-0.8-0.3-1.1-0.7c-0.4-0.7,0.1-1.3,0.4-1.6c0.2-0.3,0.6-0.4,1-0.3
			c0.3,0.1,0.7,0.2,1,0.4c0.2,0.1,0.3,0.4,0.3,0.6c0,0.5-0.3,1.1-0.6,1.4C61,18.1,60.7,18.2,60.4,18.2z M60.2,16.1
			c-0.1,0-0.3,0-0.3,0.2l-0.1,0.1c0,0-0.6,0.5-0.3,1c0.2,0.3,0.5,0.4,0.7,0.4c0.3,0,0.6,0,0.7-0.1c0.2-0.1,0.4-0.6,0.4-0.9
			c0-0.2-0.1-0.2-0.1-0.2C60.9,16.3,60.5,16.1,60.2,16.1z"/>
		<path class="st4" d="M59.5,15.2c-0.1,0-0.2,0-0.3,0c-0.5-0.1-0.8-0.3-1.1-0.7c-0.4-0.7,0.1-1.3,0.4-1.6c0.4-0.6,1.3-0.4,2,0.1
			c0.2,0.1,0.3,0.4,0.3,0.6c0,0.5-0.3,1.1-0.6,1.4C60.1,15.1,59.8,15.2,59.5,15.2z M59.3,13c-0.1,0-0.3,0-0.3,0.2l-0.1,0.1
			c0,0-0.6,0.5-0.3,1c0.2,0.3,0.5,0.4,0.7,0.4c0.3,0,0.6,0,0.7-0.1c0.2-0.1,0.4-0.6,0.4-0.9c0-0.2-0.1-0.2-0.1-0.2
			C60,13.2,59.6,13,59.3,13z"/>
		<path class="st4" d="M58.5,21.8c-0.1,0-0.2,0-0.3,0c-0.5-0.1-0.8-0.3-1.1-0.7c-0.4-0.7,0.1-1.3,0.4-1.6c0.2-0.3,0.5-0.4,1-0.3
			c0.3,0.1,0.7,0.2,1,0.4c0.2,0.1,0.3,0.4,0.3,0.6c0,0.5-0.3,1.1-0.6,1.4C59.1,21.7,58.8,21.8,58.5,21.8z M58.3,19.7
			c-0.2,0-0.3,0.1-0.3,0.2l-0.1,0.1c0,0-0.6,0.5-0.3,1c0.2,0.3,0.5,0.4,0.7,0.4c0.3,0,0.6,0,0.7-0.1c0.2-0.1,0.4-0.6,0.4-0.9
			c0-0.2-0.1-0.2-0.1-0.2c-0.3-0.2-0.5-0.3-0.8-0.3C58.4,19.7,58.4,19.7,58.3,19.7z"/>
		<path class="st4" d="M57.9,25.6c-0.1,0-0.2,0-0.3,0c-0.5-0.1-0.8-0.3-1.1-0.7c-0.4-0.7,0.1-1.3,0.4-1.6c0.2-0.3,0.5-0.4,1-0.3
			c0.3,0.1,0.7,0.2,1,0.4c0.2,0.1,0.3,0.4,0.3,0.6c0,0.5-0.3,1.1-0.6,1.4C58.5,25.5,58.3,25.6,57.9,25.6z M57.7,23.4
			c-0.1,0-0.3,0-0.3,0.2l-0.1,0.1c0,0-0.6,0.5-0.3,1c0.2,0.3,0.5,0.4,0.7,0.4c0.3,0,0.6,0,0.7-0.1c0.2-0.1,0.4-0.6,0.4-0.9
			c0-0.2-0.1-0.2-0.1-0.2C58.4,23.6,58,23.4,57.7,23.4z"/>
		<path class="st4" d="M62.6,14.1c-0.1,0-0.2,0-0.3,0c-0.5-0.1-0.8-0.3-1.1-0.7c-0.4-0.7,0.1-1.3,0.4-1.6c0.4-0.6,1.3-0.4,2,0.1
			c0.2,0.1,0.3,0.4,0.3,0.6c0,0.5-0.3,1.1-0.6,1.4C63.2,14,62.9,14.1,62.6,14.1z M62.4,12c-0.1,0-0.3,0-0.3,0.2L62,12.2
			c0,0-0.6,0.5-0.3,1c0.2,0.3,0.5,0.4,0.7,0.4c0.3,0,0.6,0,0.7-0.1c0.2-0.1,0.4-0.6,0.4-0.9c0-0.2-0.1-0.2-0.1-0.2
			C63.1,12.2,62.7,12,62.4,12z"/>
		<path class="st4" d="M65.6,17.9c-0.2,0-0.4,0-0.6-0.1c-0.1,0-0.8-0.3-0.9-1.1c-0.1-0.6,0.4-1.1,1.4-1.4c0.3-0.1,0.5,0,0.8,0.2
			c0.4,0.3,0.7,1,0.6,1.4c0,0.3-0.2,0.6-0.6,0.8C66.2,17.8,65.9,17.9,65.6,17.9z M65.8,15.7C65.7,15.7,65.7,15.7,65.8,15.7
			c-0.5,0.1-1.2,0.4-1.1,0.9c0.1,0.5,0.6,0.7,0.6,0.7l0,0c0.3,0.1,0.6,0.1,0.9-0.1c0.2-0.1,0.3-0.2,0.3-0.4c0-0.3-0.2-0.8-0.5-1
			C65.9,15.7,65.9,15.7,65.8,15.7z"/>
		<path class="st4" d="M64.7,21.2c-0.2,0-0.4,0-0.6-0.1c-0.1,0-0.8-0.3-0.9-1.1c-0.1-0.6,0.4-1.1,1.4-1.4c0.3-0.1,0.5,0,0.8,0.2
			c0.4,0.3,0.7,1,0.6,1.4c0,0.3-0.2,0.6-0.6,0.8C65.3,21.1,65,21.2,64.7,21.2z M64.9,19C64.9,19,64.8,19,64.9,19
			c-0.5,0.1-1.2,0.4-1.1,0.9c0.1,0.5,0.6,0.7,0.6,0.7l0,0c0.3,0.1,0.6,0.1,0.9-0.1c0.2-0.1,0.3-0.2,0.3-0.4c0-0.3-0.2-0.8-0.5-1
			C65.1,19.1,65,19,64.9,19z"/>
		<path class="st4" d="M67.9,19.7c-0.2,0-0.4,0-0.6-0.1c-0.1,0-0.8-0.3-0.9-1.1c-0.1-0.6,0.4-1.1,1.4-1.4c0.3-0.1,0.5,0,0.8,0.2
			c0.4,0.3,0.7,1,0.6,1.4c0,0.3-0.2,0.6-0.6,0.8C68.5,19.6,68.2,19.7,67.9,19.7z M68.1,17.5C68.1,17.5,68,17.5,68.1,17.5
			c-0.5,0.1-1.2,0.4-1.1,0.9c0.1,0.5,0.6,0.7,0.6,0.7l0,0c0.3,0.1,0.6,0.1,0.9-0.1c0.2-0.1,0.3-0.2,0.3-0.4c0-0.3-0.2-0.8-0.5-1
			C68.3,17.5,68.2,17.5,68.1,17.5z"/>
		<path class="st4" d="M69.4,12.9c-0.2,0-0.4,0-0.6-0.1c-0.1,0-0.8-0.3-0.9-1.1c-0.1-0.6,0.4-1.1,1.4-1.4c0.3-0.1,0.5,0,0.8,0.2
			c0.4,0.3,0.7,1,0.6,1.4c0,0.3-0.2,0.6-0.6,0.8C70,12.8,69.7,12.9,69.4,12.9z M69.6,10.7C69.5,10.7,69.5,10.7,69.6,10.7
			c-0.5,0.1-1.2,0.4-1.1,0.9c0.1,0.5,0.6,0.7,0.6,0.7l0,0c0.3,0.1,0.6,0.1,0.9-0.1c0.2-0.1,0.3-0.2,0.3-0.4c0-0.3-0.2-0.8-0.5-1
			C69.7,10.8,69.7,10.7,69.6,10.7z"/>
		<path class="st4" d="M65.4,11.9c-0.2,0-0.4,0-0.6-0.1c-0.1,0-0.8-0.3-0.9-1.1c-0.1-0.6,0.4-1.1,1.4-1.4c0.3-0.1,0.5,0,0.8,0.2
			c0.4,0.3,0.7,1,0.6,1.4c0,0.3-0.2,0.6-0.6,0.8C65.9,11.8,65.6,11.9,65.4,11.9z M65.5,9.8C65.5,9.8,65.5,9.8,65.5,9.8
			c-0.5,0.1-1.2,0.4-1.1,0.9c0.1,0.5,0.6,0.7,0.6,0.7l0,0c0.3,0.1,0.6,0.1,0.9-0.1c0.2-0.1,0.3-0.2,0.3-0.4c0-0.3-0.2-0.8-0.5-1
			C65.7,9.8,65.6,9.8,65.5,9.8z"/>
		<path class="st4" d="M57.5,20.3c-0.2,0-0.4,0-0.6-0.1c-0.1,0-0.8-0.3-0.9-1.1c-0.1-0.6,0.4-1.1,1.4-1.4c0.3-0.1,0.5,0,0.8,0.2
			c0.4,0.3,0.7,1,0.6,1.4c0,0.3-0.2,0.6-0.6,0.8C58.1,20.2,57.8,20.3,57.5,20.3z M57.7,18.1C57.7,18.1,57.7,18.1,57.7,18.1
			c-0.5,0.1-1.2,0.4-1.1,0.9c0.1,0.5,0.6,0.7,0.6,0.7l0,0c0.3,0.1,0.6,0.1,0.9-0.1c0.2-0.1,0.3-0.2,0.3-0.4c0-0.3-0.2-0.8-0.5-1
			C57.9,18.1,57.8,18.1,57.7,18.1z"/>
		<path class="st4" d="M66.2,15.1c-0.2,0-0.4,0-0.6-0.1c-0.1,0-0.8-0.3-0.9-1.1c-0.1-0.6,0.4-1.1,1.4-1.4c0.3-0.1,0.5,0,0.8,0.2
			c0.4,0.3,0.7,1,0.6,1.4c0,0.3-0.2,0.6-0.6,0.8C66.8,15,66.5,15.1,66.2,15.1z M66.4,12.9C66.3,12.9,66.3,12.9,66.4,12.9
			c-0.5,0.1-1.2,0.4-1.1,0.9c0.1,0.5,0.6,0.7,0.6,0.7l0,0c0.3,0.1,0.6,0.1,0.9-0.1c0.2-0.1,0.3-0.2,0.3-0.4c0-0.3-0.2-0.8-0.5-1
			C66.5,13,66.4,12.9,66.4,12.9z"/>
	</g>
	<g style="clip-path:url(#SVGID_00000134939207163650579220000013492983913413863573_);">
		<g>
			<g>
				<g>
					<path class="st15" d="M30.8,31.9C29.8,35.4,29,37.1,27,40c-1.5,2.2-2.6,3.9-3,6.4c-0.4,2.5-0.5,10.9-0.5,12.2
						c0,2.2,1.2,2.7,1.2,2.7l17.3-0.1c0,0,2-12.8,0.7-20.5c-0.9-5.3-5.6-16-5.6-16l-5.4,0.2C31.6,24.8,31.9,28.4,30.8,31.9z"/>
					<path class="st4" d="M24.9,18.1c0.5,0.3,5.3,2.3,5.8,2.8c0.5,0.5,0.4,2.3,0.4,2.3l6.4,0l0.1-1.8c0,0,4.1-0.2,4.1-0.5
						c0-0.7-1.3-4.4-5.2-5.8c-0.7-0.3-11.9,0-11.9,0L24.9,18.1z"/>
					<path class="st15" d="M31.1,22.9c0,1,0,3.4,0.1,3.4c1,0,6.4,0.1,6.4-0.2c-0.1-0.7-0.2-2.8-0.2-3.2
						C37.4,22.8,31.1,22.9,31.1,22.9z"/>
					<path class="st15" d="M23.1,15.1c0,0.3,0,3.3,0.3,3.4c0.3,0.1,1.7,0,1.8,0c0.2,0.1-0.1-3.5-0.1-3.5S23.1,15,23.1,15.1z"/>
					<path class="st17" d="M37.6,26.1c-0.4-0.9-0.6-1.5-0.6-1.5l-5.4,0.2c0,0,0,0.6,0,1.5C33.1,26.3,37.1,26.3,37.6,26.1z"/>
				</g>
			</g>
			<path class="st15" d="M26.8,18.5c0,0-0.2,1.5-2.2,3.8c-1.3,1.4-2.1,2.6-2.1,2.8c0,0.4,1,0.5,2.4-0.3c2.9-1.7,5.4-4.3,5.4-4.3
				L26.8,18.5z"/>
		</g>
		<g>
			<path class="st18" d="M10.6,58.7c0,0,2.3,1.3,2.5,2.5c3.3,0,11,0.1,11,0.1s0-1.7,2.1-2.6C20.2,58.7,10.6,58.7,10.6,58.7z"/>
			<path class="st11" d="M12.3,35.1l-2.1,3.4l0.4,20.2h15.6c0,0,0.4-19.7,0.1-20.2s-1.7-3.2-1.7-3.2L12.3,35.1z"/>
			<path class="st19" d="M26.3,41c-1.2,1.8-2.1,3.3-2.4,5.4c-0.4,2.5-0.5,10.9-0.5,12.2c0,0,0,0.1,0,0.1h2.7
				C26.1,58.7,26.4,46.3,26.3,41z"/>
			<path class="st4" d="M24.8,36.2L11.9,36l0.1-2l12.7,0.1V36.2z M12.4,35.5l11.8,0.2v-1.1l-11.8-0.1L12.4,35.5z"/>
			
				<rect x="10.9" y="38.2" transform="matrix(1 -3.906220e-03 3.906220e-03 1 -0.1501 7.319636e-02)" class="st12" width="15.5" height="0.5"/>
		</g>
		<g>
			<g>
				<path class="st2" d="M58.5,57.4c0,0-1.3-7.8-1.3-10.9c0-3.1,1-13.8,1-13.8l-21,0c0,0,1.3,10.3,1,13.8s-1.2,10.9-1.2,10.9
					L58.5,57.4z"/>
				<path class="st20" d="M37,28.9c-0.4,0.4,0.3,3.8,0.3,3.8l1,1.4L57,33.9l1.2-1.2c0,0,1-3.2,0.7-3.5C58.8,28.9,37.4,28.5,37,28.9z
					"/>
				<path class="st21" d="M37.1,57.4L37,61.2c0,0,21.2,0.1,21.6-0.1c0.4-0.2,0-3.7,0-3.7L37.1,57.4z"/>
				<path class="st22" d="M59.5,30.6c-0.2,0-21.7-0.5-22.6-0.5l0-0.5c1-0.1,21.8,0.5,22.7,0.5L59.5,30.6z"/>
				<path class="st23" d="M59.1,60.3c-7.4-0.1-21.4-0.2-21.9-0.1l-0.1-0.5c0.2-0.1,12.1,0,22,0.1L59.1,60.3z"/>
				<path class="st22" d="M59.3,31.7c-0.2,0-21.1-0.2-22.6-0.1l0-0.5c1.5-0.1,21.8,0.1,22.6,0.1L59.3,31.7z"/>
				<path class="st23" d="M58.2,58.9c-10.3-0.1-15.2-0.1-17.8-0.1c-2.3,0-2.7,0-3.5-0.1l0-0.5c0.7,0,1.1,0,3.5,0.1
					c2.6,0,7.5,0,17.8,0.1L58.2,58.9z"/>
				<polygon class="st24" points="38.3,34.1 57,33.9 58.3,32.8 37.3,32.7 				"/>
			</g>
			<path class="st25" d="M48.4,49.7c-0.5,0-1.1-0.1-1.6-0.3c-1-0.3-2.5-1.3-3.3-2.2c-1.3-1.5-1.6-2.6-1.9-4.2c-0.2-1,0.2-1.6,1-1.8
				c0.9-0.3,2-0.2,3.2,0.3c2.5,0.9,4.8,3.9,4.6,6c-0.1,0.8-0.3,1.4-0.7,1.7C49.5,49.6,49,49.7,48.4,49.7z M43.8,41.6
				c-0.3,0-0.7,0-1,0.1C42.4,41.8,42,42,42.1,43c0.2,1.5,0.6,2.5,1.8,3.9c0.7,0.9,2.1,1.8,3,2.1c1.3,0.3,2.1,0.4,2.6-0.2l0,0
				c0.3-0.2,0.5-0.7,0.5-1.3c0.2-1.9-2-4.7-4.3-5.5C45,41.7,44.4,41.6,43.8,41.6z"/>
			<path class="st25" d="M49.9,49c-0.3,0-0.5,0-0.7-0.1c-1.1-0.3-1.3-1.4-1.6-2.7c-0.2-1,0.1-2.8,0.6-3.9c0.9-1.8,1.6-2.5,3-3.4
				c0.8-0.5,1.5-0.5,2.1,0.1c0.6,0.7,1,1.7,1.1,3.1c0.2,2.7-1.5,6-3.5,6.8C50.6,48.9,50.2,49,49.9,49z M52.3,39
				c-0.2,0-0.5,0.1-0.8,0.3c-1.3,0.9-2,1.5-2.8,3.2c-0.5,1-0.8,2.7-0.6,3.6c0.2,1.3,0.5,2.1,1.2,2.3l0,0c0.3,0.2,0.8,0.1,1.4-0.1
				c1.8-0.7,3.4-3.8,3.1-6.2c-0.1-1.2-0.4-2.1-1-2.8C52.8,39.1,52.6,39,52.3,39z"/>
		</g>
	</g>
</g>
</svg>
