<?xml version="1.0" encoding="utf-8"?>
<!-- Generator: Adobe Illustrator 26.1.0, SVG Export Plug-In . SVG Version: 6.00 Build 0)  -->
<svg version="1.1" id="Layer_1" xmlns="http://www.w3.org/2000/svg" xmlns:xlink="http://www.w3.org/1999/xlink" x="0px" y="0px"
	 viewBox="0 0 68 60" style="enable-background:new 0 0 68 60;" xml:space="preserve">
<style type="text/css">
	.st0{fill:#FCE899;}
	.st1{fill:#008E60;}
	.st2{fill:#F7C600;}
	.st3{fill:#FAEE8C;}
	.st4{fill:#FFFFFF;}
	.st5{fill:#F39F00;}
	.st6{fill:#FFF1E7;}
	.st7{fill:#FFB7A1;}
	.st8{fill:#FA7463;}
	.st9{fill:#007F4F;}
	.st10{fill:#FF3008;}
	.st11{fill:#FF807B;}
	.st12{fill:#FF706B;}
	.st13{fill:#FFD7C7;}
	.st14{fill:#007947;}
	.st15{fill:#62C0C3;}
	.st16{fill:#E7E5D9;}
	.st17{fill:#00858C;}
	.st18{fill:#C5C4AD;}
	.st19{fill:#FF4F2D;}
	.st20{fill:#F9DB4B;}
	.st21{fill:#FFE900;}
	.st22{fill:#F8CC00;}
	.st23{fill:#EECA00;}
	.st24{fill:#E3B300;}
	.st25{fill:#FFFBE8;}
	.st26{fill:#FB8677;}
	.st27{fill:#FFB1AE;}
	.st28{fill:#FF5534;}
	.st29{fill:#409C7A;}
	.st30{fill:#BCE9EA;}
	.st31{fill:#029999;}
	.st32{fill:#BCBBA4;}
	.st33{fill:#8CD7D9;}
	.st34{fill:none;stroke:#F9BEAA;stroke-width:0.5;stroke-miterlimit:10;}
	.st35{fill:#075B46;}
	.st36{fill:#68E1DE;}
	.st37{fill:#E8FCFB;}
	.st38{fill:#17A3A9;}
	.st39{fill:#00838A;}
	.st40{fill:#008344;}
	.st41{fill:#FD7B2F;}
	.st42{fill:#FBAC6B;}
	.st43{fill:#E54E03;}
	.st44{fill:#FE8D4B;}
	.st45{fill:#017946;}
	.st46{fill:#BD8800;}
	.st47{fill:#86CED1;}
	.st48{fill:#058C60;}
	.st49{fill:#E85658;}
	.st50{fill:#FDAFAC;}
	.st51{fill:#EF9595;}
	.st52{fill:#D5A600;}
	.st53{fill:#007F3A;}
	.st54{fill:#FF838B;}
	.st55{fill:#FDC1BE;}
	.st56{fill:#954C00;}
	.st57{fill:#FFB8A2;}
	.st58{fill:#F9BEAA;}
	.st59{fill:#A16C00;}
	.st60{fill:#C7C6B7;}
	.st61{fill:#DFDED5;}
	.st62{fill:#FF7168;}
	.st63{fill:#FADB5C;}
	.st64{fill:#002F10;}
	.st65{fill:#C4AB80;}
	.st66{clip-path:url(#SVGID_00000183243502967577628500000002721000531504692133_);fill:#FDEFB5;}
	.st67{clip-path:url(#SVGID_00000183243502967577628500000002721000531504692133_);}
	.st68{clip-path:url(#SVGID_00000183243502967577628500000002721000531504692133_);fill:#4ADEDB;}
	.st69{fill:#FF2D00;}
	.st70{clip-path:url(#SVGID_00000051375093474946626510000010239041971329419912_);fill:#FDEFB5;}
	.st71{clip-path:url(#SVGID_00000051375093474946626510000010239041971329419912_);}
	.st72{clip-path:url(#SVGID_00000132076650035627600010000002553252672407639215_);fill:#FDEFB5;}
	.st73{clip-path:url(#SVGID_00000132076650035627600010000002553252672407639215_);}
	.st74{clip-path:url(#SVGID_00000132076650035627600010000002553252672407639215_);fill:#F7C600;}
	.st75{clip-path:url(#SVGID_00000059307473119295596800000015242441607900332425_);fill:#FDEFB5;}
	.st76{clip-path:url(#SVGID_00000059307473119295596800000015242441607900332425_);}
	.st77{clip-path:url(#SVGID_00000059307473119295596800000015242441607900332425_);fill:#007947;}
	.st78{clip-path:url(#SVGID_00000059307473119295596800000015242441607900332425_);fill:#F7C600;}
	.st79{clip-path:url(#SVGID_00000059307473119295596800000015242441607900332425_);fill:#FFFFFF;}
	.st80{clip-path:url(#SVGID_00000044140615331528643320000013697179171478056352_);fill:#FDEFB5;}
	.st81{clip-path:url(#SVGID_00000118376804692243073810000017346072108716214681_);}
	.st82{clip-path:url(#SVGID_00000001665250327545476250000018259671436681815481_);fill:#FDEFB5;}
	.st83{clip-path:url(#SVGID_00000001665250327545476250000018259671436681815481_);}
	.st84{fill:#452700;}
	.st85{fill:#643B00;}
	.st86{fill:#C6C5B1;}
	.st87{fill:#0F2A1D;}
	.st88{fill:#E8C500;}
	.st89{fill:#006873;}
	.st90{clip-path:url(#SVGID_00000101097461244566587040000000639635607029330311_);fill:#FDEFB5;}
	.st91{clip-path:url(#SVGID_00000101097461244566587040000000639635607029330311_);}
	.st92{clip-path:url(#SVGID_00000013193790242556699180000007136958691295144111_);fill:#FDEFB5;}
	.st93{clip-path:url(#SVGID_00000013193790242556699180000007136958691295144111_);}
	.st94{fill:#388E90;}
	.st95{clip-path:url(#SVGID_00000054232692115758037190000017326639209085386925_);}
	.st96{fill:#FCEDB4;}
	.st97{clip-path:url(#SVGID_00000054232692115758037190000017326639209085386925_);fill:#017946;}
	.st98{clip-path:url(#SVGID_00000054232692115758037190000017326639209085386925_);fill:#BD8800;}
	.st99{clip-path:url(#SVGID_00000054232692115758037190000017326639209085386925_);fill:#058C60;}
	.st100{clip-path:url(#SVGID_00000054232692115758037190000017326639209085386925_);fill:#F7C600;}
	.st101{clip-path:url(#SVGID_00000054232692115758037190000017326639209085386925_);fill:#FF5534;}
	.st102{clip-path:url(#SVGID_00000054232692115758037190000017326639209085386925_);fill:#D5A600;}
	.st103{clip-path:url(#SVGID_00000018205918471014940880000017835961981232943499_);}
	.st104{fill:#FDEFB5;}
	.st105{clip-path:url(#SVGID_00000164508361121177498270000016496207461013425813_);fill:none;}
	.st106{clip-path:url(#SVGID_00000164508361121177498270000016496207461013425813_);fill:#FDEFB5;}
	.st107{clip-path:url(#SVGID_00000164508361121177498270000016496207461013425813_);}
	.st108{clip-path:url(#SVGID_00000164508361121177498270000016496207461013425813_);fill:#C4AB80;}
	.st109{clip-path:url(#SVGID_00000164508361121177498270000016496207461013425813_);fill:#FF3008;}
	.st110{clip-path:url(#SVGID_00000080194835509578810550000016340763864714506908_);fill:#FDEFB5;}
	.st111{clip-path:url(#SVGID_00000080194835509578810550000016340763864714506908_);}
	.st112{fill:#4A2500;}
	.st113{clip-path:url(#SVGID_00000107583522858385863820000002442511903042706565_);fill:#FDEFB5;}
	.st114{clip-path:url(#SVGID_00000107583522858385863820000002442511903042706565_);}
	.st115{fill:#24372B;}
	.st116{clip-path:url(#SVGID_00000048492146836479681970000016705449492286524550_);fill:#FDEFB5;}
	.st117{clip-path:url(#SVGID_00000048492146836479681970000016705449492286524550_);}
	.st118{fill:#93D4D6;}
	.st119{fill:#A8A799;}
	.st120{fill:#037A4F;}
	.st121{fill:#B17C52;}
	.st122{fill:#C38C61;}
	.st123{fill:#DBB18E;}
	.st124{fill:#C7956E;}
	.st125{fill:#017575;}
	.st126{clip-path:url(#SVGID_00000008847192916107306170000011262506911812753343_);fill:#FDEFB5;}
	.st127{clip-path:url(#SVGID_00000008847192916107306170000011262506911812753343_);}
	.st128{fill:#CF7D2A;}
	.st129{fill:#91DADA;}
	.st130{fill:#BEE2CD;}
	.st131{fill:#FF0000;}
	.st132{fill:#E6CB7E;}
	.st133{fill:#D5B45E;}
	.st134{fill:none;stroke:#C7C6B5;stroke-width:0.75;stroke-miterlimit:10;}
	.st135{fill:#FF9E9E;}
	.st136{fill:#BD834E;}
	.st137{clip-path:url(#SVGID_00000018204887192179886840000009254507262225997485_);fill:#FDEFB5;}
	.st138{clip-path:url(#SVGID_00000018204887192179886840000009254507262225997485_);}
</style>
<g>
	<defs>
		<circle id="SVGID_00000129890115227925431770000007154467181779117464_" cx="34" cy="30" r="30"/>
	</defs>
	<use xlink:href="#SVGID_00000129890115227925431770000007154467181779117464_"  style="overflow:visible;fill:#BFF1F3;"/>
	<clipPath id="SVGID_00000106855413266825619790000011623233929648929181_">
		<use xlink:href="#SVGID_00000129890115227925431770000007154467181779117464_"  style="overflow:visible;"/>
	</clipPath>
	
		<circle style="clip-path:url(#SVGID_00000106855413266825619790000011623233929648929181_);fill:#FDEFB5;" cx="34" cy="30" r="30"/>
	<g style="clip-path:url(#SVGID_00000106855413266825619790000011623233929648929181_);">
		<path class="st11" d="M41.4,28.6c0,0,3.3-2.1,3.6-6c0.3-4-1-9.8-4-12.2c-1.4,1.7-1.9,4.7-1.9,4.7l-1.4-1.5c0,0-1.5,4.1-1.4,7.4
			C36.6,24.2,41.4,28.6,41.4,28.6z"/>
		<path class="st8" d="M55.9,19l-0.3-2.2c0,0-1.9,1-5.5,5.2c-3.7,4.2,0,10.5,0,10.5s3.2,1.3,6.1-1.6c2.9-2.9,3.4-4.2,3.7-7.6
			c0.3-3.4-0.6-6-0.6-6L55.9,19z"/>
		<path class="st26" d="M41.4,28.6c0,0,3.3-2.1,3.6-6c0.3-4-1-9.8-4-12.2c-1.4,1.7-1.9,4.7-1.9,4.7l-1.4-1.5c0,0-1.5,4.1-1.4,7.4
			C36.6,24.2,41.4,28.6,41.4,28.6z"/>
		<path class="st27" d="M47.8,15l-1,2.6l-1.2-2.4c0,0-1.7,0.9-2.4,2.9c-0.7,2.1-1.5,9,0.7,10.7c2.2,1.7,2.8,1.5,4.6,0.3
			c2.4-1.5,2.8-6.1,2.6-8.5S47.8,15,47.8,15z"/>
		<path class="st28" d="M45,22.6c0.2-1.9-0.1-4.3-0.7-6.5c-0.4,0.5-0.9,1.1-1.2,2c-0.6,1.7-1.2,6.5-0.3,9.2
			C43.8,26.4,44.8,24.8,45,22.6z"/>
		<path class="st14" d="M44.4,46.9c-3-9.9-3.8-22.8-3.8-22.9l0.5,0c0,0.1,0.8,12.9,3.7,22.8L44.4,46.9z"/>
		<path class="st29" d="M41.1,28.3c0,0-1.8,12.6,2.5,19c1.4-5.2,1.4-6.2,0.9-10.4C44,32.7,41.1,28.3,41.1,28.3z"/>
		<path class="st14" d="M44.9,41.7C44.9,41.7,44.9,41.7,44.9,41.7c-0.1,0-0.2-0.1-0.2-0.2c0-0.1-1-2.4-0.8-6.8
			c0.2-4.4,3.5-10.3,3.7-10.6c0.1-0.1,0.2-0.1,0.3-0.1c0.1,0,0.2,0.1,0.2,0.2c0,0,0.2,5.1-0.2,9.2c-0.5,4.1-2.7,8.1-2.7,8.1
			C45.1,41.6,45,41.7,44.9,41.7z M47.6,25.2c-0.9,1.8-3,6.2-3.2,9.5c-0.2,3.1,0.3,5.1,0.5,6c0.6-1.2,2-4.3,2.4-7.4
			C47.7,30.3,47.7,26.8,47.6,25.2z"/>
		<path class="st14" d="M46.6,43.8l-0.5-0.2c4-11.8,6.6-15.5,6.7-15.6l0.4,0.3C53.2,28.3,50.6,32.1,46.6,43.8z"/>
		<path class="st26" d="M30.1,22.6c-0.4-0.3-2.7-2-3.2-1c-0.5,1,4.7,11.8,11,8.1c2.2-4.5,0.4-10.8-3.5-12c-3.9-1.3-4.7-0.8-4.7-0.8
			L30.1,22.6z"/>
		<path class="st28" d="M36.5,19c-0.1,0.6-0.1,1.3-0.1,1.9c0.1,1.6,1.3,3.5,2.5,5C39,23.2,38.1,20.6,36.5,19z"/>
		<path class="st29" d="M42.1,41.4c0,0-5.7-8.1-7.7-14.4c4.2,3.3,7.7,7.2,8.5,10C43.7,39.9,42.1,41.4,42.1,41.4z"/>
		<path class="st9" d="M40.8,33.3c0,2,0,4.4,0.4,6.8c0.6,0.9,0.9,1.4,0.9,1.4s1.6-1.6,0.8-4.4C42.6,35.9,41.8,34.6,40.8,33.3z"/>
		<path class="st1" d="M56.4,30.1c0,0-5,1.4-6.8,3.4s-2.9,6.3-2.9,6.3s3.4-1.2,5.9-4.1C55.2,32.8,56.4,30.1,56.4,30.1z"/>
	</g>
	<path style="clip-path:url(#SVGID_00000106855413266825619790000011623233929648929181_);fill:#F7C600;" d="M37.3,37.1
		c0.2,0.8,5.3,29.8,5.3,29.8l6-0.1l6-29.2L37.3,37.1z"/>
	<g style="clip-path:url(#SVGID_00000106855413266825619790000011623233929648929181_);">
		<path class="st15" d="M11.7,64.4c2.1,0.5,27.2,0,27.2,0l-0.5-23.6l-26.7-0.2L11.7,64.4z"/>
		<polygon class="st15" points="10.6,35.9 10.6,44.5 39.8,44.6 39.8,35.7 		"/>
		<polygon class="st4" points="24.3,35.4 24.4,64.4 26.1,64.4 25.9,35.4 		"/>
		<g>
			<path class="st4" d="M25.2,35.6C25.2,35.6,25.2,35.6,25.2,35.6c-0.1,0-0.3-0.1-0.2-0.3l0.1-4.5c0.1-3.3-0.4-4.1-1.6-4.5
				c-0.4-0.2-0.7-0.1-1,0c-0.3,0.2-0.7,0.9-0.7,2.8c0,2.3,1.7,5.6,1.7,5.6c0.1,0.1,0,0.3-0.1,0.3c-0.1,0.1-0.3,0-0.3-0.1
				c-0.1-0.1-1.8-3.5-1.8-5.9c0-1.7,0.3-2.8,1-3.2c0.4-0.3,0.9-0.3,1.4-0.1c1.6,0.6,2,1.7,1.9,5l-0.1,4.5
				C25.4,35.5,25.3,35.6,25.2,35.6z"/>
			<path class="st4" d="M19.5,36.7c-1.5,0-3.1,0-4.3-0.1c-2-0.2-3.4-0.6-4-1.4c-0.3-0.3-0.3-0.7-0.3-1.1c0.3-1.5,1.9-2,4.9-1.7
				c3.1,0.3,7.2,2.2,7.3,2.3c0.1,0.1,0.2,0.2,0.1,0.3c-0.1,0.1-0.2,0.2-0.3,0.1c0,0-4.1-1.9-7.2-2.2c-2.7-0.3-4.2,0.2-4.4,1.3
				c0,0.3,0,0.5,0.2,0.7c0.5,0.6,1.7,1,3.6,1.2c2.7,0.2,8,0.1,8,0.1c0.1,0,0.3,0.1,0.3,0.2c0,0.1-0.1,0.3-0.2,0.3
				C23.2,36.6,21.5,36.7,19.5,36.7z"/>
			<path class="st4" d="M26.2,35.8c-0.1,0-0.2-0.1-0.2-0.1c-0.1-0.1,0-0.3,0.1-0.3c0,0,3.3-1.5,4.6-4c0.9-1.6,1.3-2.6,1.2-3
				c0-0.1-0.1-0.3-0.5-0.4c-0.8-0.3-2.8,1.2-4,3.3c-1.2,1.9-1.8,3.6-1.8,3.7c-0.1,0.1-0.2,0.2-0.3,0.1c-0.1,0-0.2-0.2-0.1-0.3
				c0,0,0.7-1.8,1.9-3.7c1.3-2.1,3.4-4,4.6-3.5c0.3,0.1,0.6,0.3,0.8,0.7c0.2,0.6-0.2,1.6-1.2,3.5c-1.4,2.6-4.7,4.2-4.8,4.2
				C26.2,35.8,26.2,35.8,26.2,35.8z"/>
			<path class="st4" d="M30.8,37.8c-2.6,0-4.2-0.4-4.2-0.4c-0.1,0-0.2-0.2-0.2-0.3c0-0.1,0.2-0.2,0.3-0.2c0,0,1.5,0.4,4.1,0.4
				c2.8,0,5.9-0.9,6.1-1.8c0.1-0.7,0.1-1.1-0.1-1.4c-0.2-0.2-0.5-0.4-1-0.4c-1.4-0.1-5.9,0.7-7.1,1.1c-1.2,0.4-2.1,0.8-2.1,0.8
				c-0.1,0.1-0.3,0-0.3-0.1c-0.1-0.1,0-0.3,0.1-0.3c0,0,0.8-0.4,2.1-0.8c1.3-0.4,5.9-1.3,7.3-1.2c0.7,0.1,1.1,0.3,1.4,0.6
				c0.4,0.5,0.3,1.3,0.2,1.8C37.1,37,33.3,37.8,30.8,37.8z"/>
		</g>
		<polygon class="st31" points="10.6,44.5 38.5,44.6 38.5,46.4 		"/>
	</g>
</g>
</svg>
