<?xml version="1.0" encoding="utf-8"?>
<!-- Generator: Adobe Illustrator 26.1.0, SVG Export Plug-In . SVG Version: 6.00 Build 0)  -->
<svg version="1.1" id="Layer_1" xmlns="http://www.w3.org/2000/svg" xmlns:xlink="http://www.w3.org/1999/xlink" x="0px" y="0px"
	 viewBox="0 0 68 60" style="enable-background:new 0 0 68 60;" xml:space="preserve">
<style type="text/css">
	.st0{fill:#FCE899;}
	.st1{fill:#008E60;}
	.st2{fill:#F7C600;}
	.st3{fill:#FAEE8C;}
	.st4{fill:#FFFFFF;}
	.st5{fill:#F39F00;}
	.st6{fill:#FFF1E7;}
	.st7{fill:#FFB7A1;}
	.st8{fill:#FA7463;}
	.st9{fill:#007F4F;}
	.st10{fill:#FF3008;}
	.st11{fill:#FF807B;}
	.st12{fill:#FF706B;}
	.st13{fill:#FFD7C7;}
	.st14{fill:#007947;}
	.st15{fill:#62C0C3;}
	.st16{fill:#E7E5D9;}
	.st17{fill:#00858C;}
	.st18{fill:#C5C4AD;}
	.st19{fill:#FF4F2D;}
	.st20{fill:#F9DB4B;}
	.st21{fill:#FFE900;}
	.st22{fill:#F8CC00;}
	.st23{fill:#EECA00;}
	.st24{fill:#E3B300;}
	.st25{fill:#FFFBE8;}
	.st26{fill:#FB8677;}
	.st27{fill:#FFB1AE;}
	.st28{fill:#FF5534;}
	.st29{fill:#409C7A;}
	.st30{fill:#BCE9EA;}
	.st31{fill:#029999;}
	.st32{fill:#BCBBA4;}
	.st33{fill:#8CD7D9;}
	.st34{fill:none;stroke:#F9BEAA;stroke-width:0.5;stroke-miterlimit:10;}
	.st35{fill:#075B46;}
	.st36{fill:#68E1DE;}
	.st37{fill:#E8FCFB;}
	.st38{fill:#17A3A9;}
	.st39{fill:#00838A;}
	.st40{fill:#008344;}
	.st41{fill:#FD7B2F;}
	.st42{fill:#FBAC6B;}
	.st43{fill:#E54E03;}
	.st44{fill:#FE8D4B;}
	.st45{fill:#017946;}
	.st46{fill:#BD8800;}
	.st47{fill:#86CED1;}
	.st48{fill:#058C60;}
	.st49{fill:#E85658;}
	.st50{fill:#FDAFAC;}
	.st51{fill:#EF9595;}
	.st52{fill:#D5A600;}
	.st53{fill:#007F3A;}
	.st54{fill:#FF838B;}
	.st55{fill:#FDC1BE;}
	.st56{fill:#954C00;}
	.st57{fill:#FFB8A2;}
	.st58{fill:#F9BEAA;}
	.st59{fill:#A16C00;}
	.st60{fill:#C7C6B7;}
	.st61{fill:#DFDED5;}
	.st62{fill:#FF7168;}
	.st63{fill:#FADB5C;}
	.st64{fill:#002F10;}
	.st65{fill:#C4AB80;}
	.st66{clip-path:url(#SVGID_00000013182475580605111980000002649372681423217563_);fill:#FDEFB5;}
	.st67{clip-path:url(#SVGID_00000013182475580605111980000002649372681423217563_);}
	.st68{clip-path:url(#SVGID_00000013182475580605111980000002649372681423217563_);fill:#4ADEDB;}
	.st69{fill:#FF2D00;}
	.st70{clip-path:url(#SVGID_00000113324389904241662130000003788776035040570299_);fill:#FDEFB5;}
	.st71{clip-path:url(#SVGID_00000113324389904241662130000003788776035040570299_);}
	.st72{clip-path:url(#SVGID_00000066490743449547250570000007422974176008256156_);fill:#FDEFB5;}
	.st73{clip-path:url(#SVGID_00000066490743449547250570000007422974176008256156_);}
	.st74{clip-path:url(#SVGID_00000066490743449547250570000007422974176008256156_);fill:#F7C600;}
	.st75{clip-path:url(#SVGID_00000168107722021917193580000014439942687929022105_);fill:#FDEFB5;}
	.st76{clip-path:url(#SVGID_00000168107722021917193580000014439942687929022105_);}
	.st77{clip-path:url(#SVGID_00000168107722021917193580000014439942687929022105_);fill:#007947;}
	.st78{clip-path:url(#SVGID_00000168107722021917193580000014439942687929022105_);fill:#F7C600;}
	.st79{clip-path:url(#SVGID_00000168107722021917193580000014439942687929022105_);fill:#FFFFFF;}
	.st80{clip-path:url(#SVGID_00000026860866990967400520000015408892378719859586_);fill:#FDEFB5;}
	.st81{clip-path:url(#SVGID_00000003067869559647924130000002341709342844732605_);}
	.st82{clip-path:url(#SVGID_00000132785378592347228980000012189433777996229774_);fill:#FDEFB5;}
	.st83{clip-path:url(#SVGID_00000132785378592347228980000012189433777996229774_);}
	.st84{fill:#452700;}
	.st85{fill:#643B00;}
	.st86{fill:#C6C5B1;}
	.st87{fill:#0F2A1D;}
	.st88{fill:#E8C500;}
	.st89{fill:#006873;}
	.st90{clip-path:url(#SVGID_00000088826774709562089180000001670138322290412936_);fill:#FDEFB5;}
	.st91{clip-path:url(#SVGID_00000088826774709562089180000001670138322290412936_);}
	.st92{clip-path:url(#SVGID_00000042730708107905217830000005249302990971792790_);fill:#FDEFB5;}
	.st93{clip-path:url(#SVGID_00000042730708107905217830000005249302990971792790_);}
	.st94{fill:#388E90;}
	.st95{clip-path:url(#SVGID_00000003812148911748914920000009272986493747393201_);}
	.st96{fill:#FCEDB4;}
	.st97{clip-path:url(#SVGID_00000003812148911748914920000009272986493747393201_);fill:#017946;}
	.st98{clip-path:url(#SVGID_00000003812148911748914920000009272986493747393201_);fill:#BD8800;}
	.st99{clip-path:url(#SVGID_00000003812148911748914920000009272986493747393201_);fill:#058C60;}
	.st100{clip-path:url(#SVGID_00000003812148911748914920000009272986493747393201_);fill:#F7C600;}
	.st101{clip-path:url(#SVGID_00000003812148911748914920000009272986493747393201_);fill:#FF5534;}
	.st102{clip-path:url(#SVGID_00000003812148911748914920000009272986493747393201_);fill:#D5A600;}
	.st103{clip-path:url(#SVGID_00000132062518754200347700000014326759170386951086_);}
	.st104{fill:#FDEFB5;}
	.st105{clip-path:url(#SVGID_00000011722910367393048990000008111062186953834159_);fill:none;}
	.st106{clip-path:url(#SVGID_00000011722910367393048990000008111062186953834159_);fill:#FDEFB5;}
	.st107{clip-path:url(#SVGID_00000011722910367393048990000008111062186953834159_);}
	.st108{clip-path:url(#SVGID_00000011722910367393048990000008111062186953834159_);fill:#C4AB80;}
	.st109{clip-path:url(#SVGID_00000011722910367393048990000008111062186953834159_);fill:#FF3008;}
	.st110{clip-path:url(#SVGID_00000155836307586652167630000014916528496267092353_);fill:#FDEFB5;}
	.st111{clip-path:url(#SVGID_00000155836307586652167630000014916528496267092353_);}
	.st112{fill:#4A2500;}
	.st113{clip-path:url(#SVGID_00000044142048067384493060000005007925953910053051_);fill:#FDEFB5;}
	.st114{clip-path:url(#SVGID_00000044142048067384493060000005007925953910053051_);}
	.st115{fill:#24372B;}
	.st116{clip-path:url(#SVGID_00000079474066651272604600000006368069429961375647_);fill:#FDEFB5;}
	.st117{clip-path:url(#SVGID_00000079474066651272604600000006368069429961375647_);}
	.st118{fill:#93D4D6;}
	.st119{fill:#A8A799;}
	.st120{fill:#037A4F;}
	.st121{fill:#B17C52;}
	.st122{fill:#C38C61;}
	.st123{fill:#DBB18E;}
	.st124{fill:#C7956E;}
	.st125{fill:#017575;}
	.st126{clip-path:url(#SVGID_00000116929410754705109320000009360415736058559406_);fill:#FDEFB5;}
	.st127{clip-path:url(#SVGID_00000116929410754705109320000009360415736058559406_);}
	.st128{fill:#CF7D2A;}
	.st129{fill:#91DADA;}
	.st130{fill:#BEE2CD;}
	.st131{fill:#FF0000;}
	.st132{fill:#E6CB7E;}
	.st133{fill:#D5B45E;}
	.st134{fill:none;stroke:#C7C6B5;stroke-width:0.75;stroke-miterlimit:10;}
	.st135{fill:#FF9E9E;}
	.st136{fill:#BD834E;}
	.st137{clip-path:url(#SVGID_00000051346026434193326590000000136903593474566791_);fill:#FDEFB5;}
	.st138{clip-path:url(#SVGID_00000051346026434193326590000000136903593474566791_);}
</style>
<g>
	<defs>
		<circle id="SVGID_00000087388311445572132810000014575668557865727374_" cx="34.1" cy="30" r="30"/>
	</defs>
	<clipPath id="SVGID_00000155144411576671513720000016228629324871214002_">
		<use xlink:href="#SVGID_00000087388311445572132810000014575668557865727374_"  style="overflow:visible;"/>
	</clipPath>
	
		<circle style="clip-path:url(#SVGID_00000155144411576671513720000016228629324871214002_);fill:#FDEFB5;" cx="34.1" cy="30" r="30"/>
	<g style="clip-path:url(#SVGID_00000155144411576671513720000016228629324871214002_);">
		<polygon class="st37" points="22.5,23.3 22.3,60.4 39.2,60.3 38.4,23.3 		"/>
		<polygon class="st30" points="39.1,60.3 48.2,60.3 47.7,24.3 43.2,18.2 38.4,23.3 		"/>
		<path class="st4" d="M24.7,24c-1.1,0-1.9,0-2.1-0.1c-0.2-0.1-0.3-0.2-0.3-0.4c-0.1-0.6,1.7-2.7,5.6-6.3c0,0,0.1-0.1,0.2-0.1
			c0.6,0,14.3,0,15.1,0.2c0.2,0,0.3,0.2,0.3,0.3c0,0.2,0.2,0.8-4.8,5.9c0,0-0.1,0.1-0.2,0.1l0,0C35.7,23.8,28.4,24,24.7,24z
			 M28.2,17.7c-3.7,3.5-5.4,5.4-5.4,5.8c0.5,0.1,8.4-0.1,15.5-0.3c3.2-3.2,4.7-5,4.7-5.4C42.5,17.7,33.6,17.7,28.2,17.7z M38.4,23.4
			L38.4,23.4L38.4,23.4z"/>
		<path class="st4" d="M43.2,18C43.2,18,43.2,18,43.2,18c-0.1,0-0.3-0.1-0.2-0.3l0.1-3.2L28.7,15l-0.2,2.5c0,0.1-0.1,0.3-0.3,0.2
			c-0.1,0-0.2-0.1-0.2-0.3l0.2-2.7c0-0.1,0.1-0.2,0.2-0.2L43.2,14c0.1,0,0.1,0,0.2,0.1c0,0,0.1,0.1,0.1,0.2l-0.1,3.5
			C43.4,17.9,43.3,18,43.2,18z"/>
	</g>
	<g style="clip-path:url(#SVGID_00000155144411576671513720000016228629324871214002_);">
		<path class="st15" d="M44.7,32.5c0,0-0.7,24.1-0.3,24.8c0.4,0.6,15,0.1,15,0.1s0.5-23.9,0.1-24.6C59.1,32.1,44.7,32.5,44.7,32.5z"
			/>
		
			<rect x="45.4" y="34.5" transform="matrix(1 -9.765159e-03 9.765159e-03 1 -0.3364 0.5192)" class="st33" width="15.2" height="0.5"/>
		
			<rect x="52.8" y="28.9" transform="matrix(1.750933e-02 -0.9998 0.9998 1.750933e-02 15.9901 88.5815)" class="st33" width="0.5" height="14.5"/>
		<path class="st38" d="M44.5,32l-0.1,1l15.8,0l0.1-0.9C60.2,32.1,45.3,32,44.5,32z"/>
		<path class="st94" d="M44,56.9l-0.1,1l15.8,0l0.1-0.9C59.7,57,44.7,56.9,44,56.9z"/>
	</g>
	<g style="clip-path:url(#SVGID_00000155144411576671513720000016228629324871214002_);">
		<g>
			<path class="st19" d="M32.6,49.5c0.2,0.6,0.4,1.2,0.8,1.7c0.3,0.6,0.6,1.1,0.7,1.8c0,0.1,0,0.2,0,0.3c0,0.3-0.1,0.7-0.2,1.1
				c0,0.1-0.1,0.1-0.1,0.2c0,0.1-0.1,0.1-0.2,0.2c0,0.1-0.1,0.1-0.2,0.2c-0.8,0.5-1.7,0.4-2.6,0.3c-0.1,0-0.2,0-0.3,0
				c-0.1,0-0.2-0.1-0.3-0.1c-0.5-0.2-1-0.5-1.5-0.7c-0.5-0.2-1.1-0.6-1.5-0.9c-0.5-0.3-0.9-0.6-1.3-1c-0.1-0.1-0.1-0.1-0.2-0.1
				c-0.7-1-1-2.5-0.8-3.7c0-0.1,0.1-0.2,0.1-0.3c0.1-0.3,0.3-0.5,0.5-0.7c1-1.3,3-1.9,4.5-1.4c0.5,0.2,0.9,0.5,1.2,0.9
				c0.1,0.1,0.1,0.1,0.2,0.2C32,47.9,32.3,48.7,32.6,49.5z"/>
			<path class="st9" d="M28.5,45.8c0.1-0.6,1.2-1.3,1.6-1.9c0.1-0.1,0.1-0.2,0.1-0.3c-0.1-0.2-0.4-0.2-0.7-0.1
				c-0.3,0.1-0.5,0.3-0.7,0.5c-0.2,0.2-0.6,0.7-1,0.7c-0.3,0-0.5-0.5-0.6-0.6c-0.1-0.2-0.2-0.4-0.3-0.7c-0.1-0.1-0.1-0.2-0.3-0.3
				c-0.2,0-0.4,0-0.5,0.1c-0.1,0.1-0.2,0.2-0.3,0.3c-0.1,0.2-0.1,0.5,0,0.7c0.1,0.2,0.2,0.4,0.3,0.5c0.1,0.2,0.1,0.4-0.1,0.6
				c-0.2,0-0.4-0.1-0.6-0.2C25.2,45,25,45,24.7,45c-0.3,0.1-0.4,0.4-0.3,0.6c0.2,0.2,0.5,0.3,0.8,0.4c0.5,0.2,1.2,0.3,1.4,0.7
				C26.7,46.7,27.8,48.7,28.5,45.8"/>
			<path class="st4" d="M30.4,48.9c0,0,0-0.9-0.3-0.7C29.7,48.3,30.4,48.9,30.4,48.9z"/>
			<path class="st4" d="M27.9,50.3c0,0-0.2-0.9-0.4-0.7C27.1,49.9,27.9,50.3,27.9,50.3z"/>
			<path class="st4" d="M29,50.4c0,0-0.2-0.9-0.4-0.7C28.2,50.1,29,50.4,29,50.4z"/>
			<path class="st4" d="M30.7,53.1c0,0-0.2-0.9-0.4-0.7C30,52.7,30.7,53.1,30.7,53.1z"/>
			<path class="st4" d="M29.4,52.4c0,0-0.2-0.9-0.4-0.7C28.6,52,29.4,52.4,29.4,52.4z"/>
			<path class="st4" d="M28.7,48.4c0,0-0.3-0.8-0.5-0.6C27.9,48.1,28.7,48.4,28.7,48.4z"/>
		</g>
		<g>
			<path class="st19" d="M47.7,50.2c0.2,0.6,0.4,1.2,0.7,1.8c0.3,0.6,0.6,1.1,0.7,1.8c0,0.1,0,0.2,0,0.3c0,0.3-0.1,0.7-0.3,1.1
				c0,0.1-0.1,0.1-0.1,0.2c0,0.1-0.1,0.1-0.2,0.2c-0.1,0.1-0.1,0.1-0.2,0.2c-0.8,0.5-1.7,0.3-2.7,0.2c-0.1,0-0.2,0-0.3,0
				c-0.1,0-0.2-0.1-0.3-0.1c-0.5-0.3-1-0.6-1.5-0.8c-0.5-0.2-1-0.6-1.5-1c-0.5-0.3-0.9-0.6-1.3-1c-0.1-0.1-0.1-0.1-0.1-0.2
				c-0.7-1.1-0.9-2.5-0.6-3.7c0-0.1,0.1-0.2,0.1-0.3c0.1-0.3,0.3-0.5,0.5-0.7c1.1-1.2,3.1-1.8,4.6-1.2c0.5,0.2,0.8,0.5,1.2,0.9
				c0.1,0.1,0.1,0.1,0.2,0.2C47.1,48.7,47.4,49.5,47.7,50.2z"/>
			<path class="st4" d="M45.5,49.6c0,0,0-0.9-0.2-0.8C44.8,49,45.5,49.6,45.5,49.6z"/>
			<path class="st4" d="M42.9,50.9c0,0-0.2-0.9-0.4-0.7C42.2,50.5,42.9,50.9,42.9,50.9z"/>
			<path class="st4" d="M44,51.1c0,0-0.2-0.9-0.4-0.7C43.3,50.7,44,51.1,44,51.1z"/>
			<path class="st4" d="M45.7,53.8c0,0-0.2-0.9-0.4-0.7C44.9,53.4,45.7,53.8,45.7,53.8z"/>
			<path class="st4" d="M44.4,53.1c0,0-0.2-0.9-0.4-0.7C43.6,52.7,44.4,53.1,44.4,53.1z"/>
			<path class="st4" d="M43.9,49c0,0-0.3-0.8-0.5-0.7C43.1,48.7,43.9,49,43.9,49z"/>
		</g>
		<polygon class="st39" points="24.3,50.6 25.1,70.8 49.2,71 50.4,50.9 		"/>
		<g>
			<path class="st11" d="M33.6,47.3c-0.4,0.5-0.7,1.1-1.2,1.5c-0.5,0.5-0.9,0.9-1.1,1.6c0,0.1-0.1,0.2-0.1,0.2
				c-0.1,0.3-0.1,0.7-0.1,1.1c0,0.1,0,0.2,0.1,0.2c0,0.1,0.1,0.2,0.1,0.2c0,0.1,0.1,0.1,0.1,0.2c0.7,0.7,1.6,0.8,2.5,0.9
				c0.1,0,0.2,0,0.3,0c0.1,0,0.2,0,0.3-0.1c0.6-0.1,1.1-0.3,1.7-0.4c0.6-0.1,1.2-0.3,1.7-0.5c0.5-0.2,1-0.4,1.5-0.6
				c0.1,0,0.1-0.1,0.2-0.1c0.9-0.8,1.6-2.1,1.6-3.4c0-0.1,0-0.2,0-0.3c-0.1-0.3-0.1-0.6-0.3-0.8c-0.7-1.5-2.5-2.6-4.1-2.4
				c-0.5,0-1,0.3-1.4,0.6c-0.1,0-0.1,0.1-0.2,0.1C34.6,45.9,34.1,46.6,33.6,47.3z"/>
			<path class="st9" d="M38.4,44.7c0-0.6-0.9-1.6-1.1-2.2c0-0.1,0-0.2,0-0.3c0.1-0.2,0.5-0.1,0.7,0.1c0.3,0.2,0.4,0.4,0.5,0.6
				c0.2,0.3,0.4,0.8,0.8,0.9c0.3,0.1,0.6-0.3,0.7-0.5c0.2-0.2,0.3-0.4,0.5-0.6c0.1-0.1,0.2-0.2,0.4-0.2c0.2,0,0.4,0.1,0.5,0.2
				c0.1,0.1,0.2,0.3,0.2,0.4c0,0.2,0,0.5-0.1,0.6c-0.1,0.2-0.3,0.3-0.4,0.4c-0.1,0.2-0.2,0.4-0.1,0.6c0.2,0,0.4,0,0.6,0
				c0.2,0,0.4,0,0.6,0.1c0.3,0.2,0.3,0.5,0.1,0.7c-0.2,0.1-0.5,0.1-0.8,0.2c-0.5,0-1.3,0-1.5,0.3C40,46,38.4,47.7,38.4,44.7"/>
			<path class="st4" d="M35.9,47.2c0,0,0.2-0.8,0.4-0.7C36.7,46.9,35.9,47.2,35.9,47.2z"/>
			<path class="st4" d="M38,49.2c0,0,0.4-0.8,0.6-0.6C38.8,49,38,49.2,38,49.2z"/>
			<path class="st4" d="M36.9,49.1c0,0,0.4-0.8,0.6-0.6C37.7,48.9,36.9,49.1,36.9,49.1z"/>
			<path class="st4" d="M34.6,51.3c0,0,0.4-0.8,0.6-0.6C35.4,51.1,34.6,51.3,34.6,51.3z"/>
			<path class="st4" d="M36,50.9c0,0,0.4-0.8,0.6-0.6C36.9,50.7,36,50.9,36,50.9z"/>
			<path class="st4" d="M37.6,47.2c0,0,0.5-0.7,0.6-0.5C38.5,47,37.6,47.2,37.6,47.2z"/>
		</g>
	</g>
	<g style="clip-path:url(#SVGID_00000155144411576671513720000016228629324871214002_);">
		<polygon class="st40" points="7.6,30.1 10.2,38.7 11.1,38.3 8.4,29.8 		"/>
		<polygon class="st40" points="5.6,32.4 12.3,38.6 13.2,38 6.6,31.9 		"/>
		<path class="st40" d="M8.9,29.4c0,0,1,7.8,1.2,7.7s1,0.2,1,0c0-0.2-1.5-7.7-1.5-7.7L8.9,29.4z"/>
		<path class="st41" d="M11.1,36.9c-1.9,0.7-2.6,3.1-1.3,6.5c1.1,2.9,3.4,6.7,5.4,10c1.7,2.7,10.5,13.9,11.7,15.5
			c1,1.3,2,1.4,2.8,1.2c0.9-0.3,0.7-2.5,0-3.6c-1.3-1.9-8.7-17.4-10.5-20.6C17.4,42.7,14.6,35.6,11.1,36.9z"/>
		<path class="st42" d="M9.9,43.6l-0.2-0.5c0,0,2-1,2.8-1.4l0.3,0.4C12,42.6,10,43.6,9.9,43.6z"/>
	</g>
	<g style="clip-path:url(#SVGID_00000155144411576671513720000016228629324871214002_);">
		<path class="st40" d="M15.5,27.5c0.1,0.2,3,9.3,3,9.3l1-0.5l-3-8.9L15.5,27.5z"/>
		<path class="st40" d="M17.7,27.2l0.6,7.2c0,0,1,1.3,1,1.1c0-0.2-0.2-8.4-0.4-8.4S17.7,27.2,17.7,27.2z"/>
		<path class="st44" d="M18.3,34.5c0.6-0.3,2.8-0.2,3.5,2.2c0.3,1.1,0.8,6.2,0.8,10.8c0,2.1-0.2,15.7-0.2,17.8c0,2.4-0.6,9.4-1.1,10
			c-0.5,0.6-0.5,1.1-1.4,0.8c-0.9-0.3-2.1-0.8-2.5-3.4c-0.4-2.5-1.5-23-1.6-26.9c-0.1-3.9-0.1-8,0.2-9
			C16.7,34.6,18.3,34.5,18.3,34.5z"/>
		<path class="st42" d="M20.3,40.4c-0.9,0-1.8,0-1.9,0l0-0.5c0.9,0,3.4,0,3.8,0l0.1,0.5C22.1,40.4,21.2,40.4,20.3,40.4z"/>
		<path class="st42" d="M16.6,45.1c-0.5,0-0.8,0-0.8,0l0-0.5c0,0,2.6,0,4,0l0,0.5C18.9,45.1,17.5,45.1,16.6,45.1z"/>
		<path class="st42" d="M19.2,50.6c-0.1,0-0.2,0-0.2,0l0-0.5c0.3,0,2.5,0,3.6,0l0,0.5C22.5,50.5,20,50.6,19.2,50.6z"/>
		
			<rect x="18.4" y="53.4" transform="matrix(4.769669e-02 -0.9989 0.9989 4.769669e-02 -37.4944 71.3095)" class="st42" width="0.5" height="3.9"/>
	</g>
</g>
</svg>
