<?xml version="1.0" encoding="utf-8"?>
<!-- Generator: Adobe Illustrator 26.1.0, SVG Export Plug-In . SVG Version: 6.00 Build 0)  -->
<svg version="1.1" id="Layer_1" xmlns="http://www.w3.org/2000/svg" xmlns:xlink="http://www.w3.org/1999/xlink" x="0px" y="0px"
	 viewBox="0 0 68 60" style="enable-background:new 0 0 68 60;" xml:space="preserve">
<style type="text/css">
	.st0{fill:#FCE899;}
	.st1{fill:#008E60;}
	.st2{fill:#F7C600;}
	.st3{fill:#FAEE8C;}
	.st4{fill:#FFFFFF;}
	.st5{fill:#F39F00;}
	.st6{fill:#FFF1E7;}
	.st7{fill:#FFB7A1;}
	.st8{fill:#FA7463;}
	.st9{fill:#007F4F;}
	.st10{fill:#FF3008;}
	.st11{fill:#FF807B;}
	.st12{fill:#FF706B;}
	.st13{fill:#FFD7C7;}
	.st14{fill:#007947;}
	.st15{fill:#62C0C3;}
	.st16{fill:#E7E5D9;}
	.st17{fill:#00858C;}
	.st18{fill:#C5C4AD;}
	.st19{fill:#FF4F2D;}
	.st20{fill:#F9DB4B;}
	.st21{fill:#FFE900;}
	.st22{fill:#F8CC00;}
	.st23{fill:#EECA00;}
	.st24{fill:#E3B300;}
	.st25{fill:#FFFBE8;}
	.st26{fill:#FB8677;}
	.st27{fill:#FFB1AE;}
	.st28{fill:#FF5534;}
	.st29{fill:#409C7A;}
	.st30{fill:#BCE9EA;}
	.st31{fill:#029999;}
	.st32{fill:#BCBBA4;}
	.st33{fill:#8CD7D9;}
	.st34{fill:none;stroke:#F9BEAA;stroke-width:0.5;stroke-miterlimit:10;}
	.st35{fill:#075B46;}
	.st36{fill:#68E1DE;}
	.st37{fill:#E8FCFB;}
	.st38{fill:#17A3A9;}
	.st39{fill:#00838A;}
	.st40{fill:#008344;}
	.st41{fill:#FD7B2F;}
	.st42{fill:#FBAC6B;}
	.st43{fill:#E54E03;}
	.st44{fill:#FE8D4B;}
	.st45{fill:#017946;}
	.st46{fill:#BD8800;}
	.st47{fill:#86CED1;}
	.st48{fill:#058C60;}
	.st49{fill:#E85658;}
	.st50{fill:#FDAFAC;}
	.st51{fill:#EF9595;}
	.st52{fill:#D5A600;}
	.st53{fill:#007F3A;}
	.st54{fill:#FF838B;}
	.st55{fill:#FDC1BE;}
	.st56{fill:#954C00;}
	.st57{fill:#FFB8A2;}
	.st58{fill:#F9BEAA;}
	.st59{fill:#A16C00;}
	.st60{fill:#C7C6B7;}
	.st61{fill:#DFDED5;}
	.st62{fill:#FF7168;}
	.st63{fill:#FADB5C;}
	.st64{fill:#002F10;}
	.st65{fill:#C4AB80;}
	.st66{clip-path:url(#SVGID_00000088116430528351985170000005231558917983204997_);fill:#FDEFB5;}
	.st67{clip-path:url(#SVGID_00000088116430528351985170000005231558917983204997_);}
	.st68{clip-path:url(#SVGID_00000088116430528351985170000005231558917983204997_);fill:#4ADEDB;}
	.st69{fill:#FF2D00;}
	.st70{clip-path:url(#SVGID_00000121989252061496543050000004875166296678483126_);fill:#FDEFB5;}
	.st71{clip-path:url(#SVGID_00000121989252061496543050000004875166296678483126_);}
	.st72{clip-path:url(#SVGID_00000154399265456292840540000005005644745978773416_);fill:#FDEFB5;}
	.st73{clip-path:url(#SVGID_00000154399265456292840540000005005644745978773416_);}
	.st74{clip-path:url(#SVGID_00000154399265456292840540000005005644745978773416_);fill:#F7C600;}
	.st75{clip-path:url(#SVGID_00000025404723884874841880000001898325288146134410_);fill:#FDEFB5;}
	.st76{clip-path:url(#SVGID_00000025404723884874841880000001898325288146134410_);}
	.st77{clip-path:url(#SVGID_00000025404723884874841880000001898325288146134410_);fill:#007947;}
	.st78{clip-path:url(#SVGID_00000025404723884874841880000001898325288146134410_);fill:#F7C600;}
	.st79{clip-path:url(#SVGID_00000025404723884874841880000001898325288146134410_);fill:#FFFFFF;}
	.st80{clip-path:url(#SVGID_00000090982754157250740590000001309185255932622489_);fill:#FDEFB5;}
	.st81{clip-path:url(#SVGID_00000047760590854758515430000008605112577085465251_);}
	.st82{clip-path:url(#SVGID_00000093135373013031705340000007205762584731907510_);fill:#FDEFB5;}
	.st83{clip-path:url(#SVGID_00000093135373013031705340000007205762584731907510_);}
	.st84{fill:#452700;}
	.st85{fill:#643B00;}
	.st86{fill:#C6C5B1;}
	.st87{fill:#0F2A1D;}
	.st88{fill:#E8C500;}
	.st89{fill:#006873;}
	.st90{clip-path:url(#SVGID_00000158718793167666695400000000919289079789276050_);fill:#FDEFB5;}
	.st91{clip-path:url(#SVGID_00000158718793167666695400000000919289079789276050_);}
	.st92{clip-path:url(#SVGID_00000057849445544214878810000004418796773580952740_);fill:#FDEFB5;}
	.st93{clip-path:url(#SVGID_00000057849445544214878810000004418796773580952740_);}
	.st94{fill:#388E90;}
	.st95{clip-path:url(#SVGID_00000057868205433404201390000003711682134575544207_);}
	.st96{fill:#FCEDB4;}
	.st97{clip-path:url(#SVGID_00000057868205433404201390000003711682134575544207_);fill:#017946;}
	.st98{clip-path:url(#SVGID_00000057868205433404201390000003711682134575544207_);fill:#BD8800;}
	.st99{clip-path:url(#SVGID_00000057868205433404201390000003711682134575544207_);fill:#058C60;}
	.st100{clip-path:url(#SVGID_00000057868205433404201390000003711682134575544207_);fill:#F7C600;}
	.st101{clip-path:url(#SVGID_00000057868205433404201390000003711682134575544207_);fill:#FF5534;}
	.st102{clip-path:url(#SVGID_00000057868205433404201390000003711682134575544207_);fill:#D5A600;}
	.st103{clip-path:url(#SVGID_00000156582590423801347120000013039966565560885678_);}
	.st104{fill:#FDEFB5;}
	.st105{clip-path:url(#SVGID_00000135691226895820208140000000745067368022817674_);fill:none;}
	.st106{clip-path:url(#SVGID_00000135691226895820208140000000745067368022817674_);fill:#FDEFB5;}
	.st107{clip-path:url(#SVGID_00000135691226895820208140000000745067368022817674_);}
	.st108{clip-path:url(#SVGID_00000135691226895820208140000000745067368022817674_);fill:#C4AB80;}
	.st109{clip-path:url(#SVGID_00000135691226895820208140000000745067368022817674_);fill:#FF3008;}
	.st110{clip-path:url(#SVGID_00000052099387389044846020000008689801730208806814_);fill:#FDEFB5;}
	.st111{clip-path:url(#SVGID_00000052099387389044846020000008689801730208806814_);}
	.st112{fill:#4A2500;}
	.st113{clip-path:url(#SVGID_00000037676561345347534140000012061075057730674329_);fill:#FDEFB5;}
	.st114{clip-path:url(#SVGID_00000037676561345347534140000012061075057730674329_);}
	.st115{fill:#24372B;}
	.st116{clip-path:url(#SVGID_00000038392188359340021700000010314412727732280202_);fill:#FDEFB5;}
	.st117{clip-path:url(#SVGID_00000038392188359340021700000010314412727732280202_);}
	.st118{fill:#93D4D6;}
	.st119{fill:#A8A799;}
	.st120{fill:#037A4F;}
	.st121{fill:#B17C52;}
	.st122{fill:#C38C61;}
	.st123{fill:#DBB18E;}
	.st124{fill:#C7956E;}
	.st125{fill:#017575;}
	.st126{clip-path:url(#SVGID_00000011012914793195979040000017892376472739062415_);fill:#FDEFB5;}
	.st127{clip-path:url(#SVGID_00000011012914793195979040000017892376472739062415_);}
	.st128{fill:#CF7D2A;}
	.st129{fill:#91DADA;}
	.st130{fill:#BEE2CD;}
	.st131{fill:#FF0000;}
	.st132{fill:#E6CB7E;}
	.st133{fill:#D5B45E;}
	.st134{fill:none;stroke:#C7C6B5;stroke-width:0.75;stroke-miterlimit:10;}
	.st135{fill:#FF9E9E;}
	.st136{fill:#BD834E;}
	.st137{clip-path:url(#SVGID_00000115472455125620179330000008690161673204025219_);fill:#FDEFB5;}
	.st138{clip-path:url(#SVGID_00000115472455125620179330000008690161673204025219_);}
</style>
<g>
	<defs>
		<circle id="SVGID_1_" cx="34.1" cy="30" r="30"/>
	</defs>
	<clipPath id="SVGID_00000121990298298810360880000000878479008229544856_">
		<use xlink:href="#SVGID_1_"  style="overflow:visible;"/>
	</clipPath>
	
		<circle style="clip-path:url(#SVGID_00000121990298298810360880000000878479008229544856_);fill:#FDEFB5;" cx="34.1" cy="30" r="30"/>
	<g style="clip-path:url(#SVGID_00000121990298298810360880000000878479008229544856_);">
		<path class="st1" d="M31.6,13.8c0,0,0.2,10.9-1.1,16c-1.2,4.6-4.3,12.5-4.8,17.4c-0.4,4.8-0.2,14.7-0.2,14.7l16.8-0.4
			c0,0,0.8-12.8,0.2-16c-0.6-3.1-4.5-13.6-5.3-17c-0.8-3.4-1-14.6-1-14.6L31.6,13.8z"/>
		<path class="st2" d="M30.9,18.3l5.9,0c0.1-0.1,0.1-6.2-0.2-6.2l-5.7,0.1C30.9,12.6,30.9,18.2,30.9,18.3z"/>
		<path class="st2" d="M29.4,33.6l9.5,0.1c-1-2.6-1-3.4-1.4-4.7c-0.8-3-1.2-13.3-1.2-13.3l-4.6,0c0,0,0,9.4-1.4,14.1
			C29.8,31.2,30,31.7,29.4,33.6z"/>
		<path class="st3" d="M33.6,31.4c1.4-0.1,3.1,0.7,3.2,2.9c0.1,2-1.4,3.1-2.9,3.1c-2,0-3.2-1.6-3.2-3.1
			C30.9,32.8,31.7,31.6,33.6,31.4z"/>
		<polygon class="st4" points="42.6,57.4 29,57.2 29.6,44.2 42.6,44.2 42.6,44.7 30,44.7 29.6,56.7 42.7,56.9 		"/>
		<path class="st5" d="M36.4,18.3c-0.1-1.5-0.1-2.6-0.1-2.6l-4.6,0c0,0,0,1.1,0,2.6L36.4,18.3z"/>
	</g>
	<g style="clip-path:url(#SVGID_00000121990298298810360880000000878479008229544856_);">
		<path class="st4" d="M11.3,35.6c0,0,0,0.7,0.2,1.5c1.8,7.1,6.3,11.1,10.2,11.2c7.7-1,11.3-12,11.1-12.4c0-0.1-0.8,0-2-0.1
			c-4-0.2-14.9-0.3-18.3-0.3C11.8,35.6,11.3,35.6,11.3,35.6z"/>
		<path class="st4" d="M20.9,60.9c0-4.7,0.1-15.8,0.4-16.4l0.9,0.3c-0.1,0.7-0.3,10-0.3,16.1L20.9,60.9z"/>
		<path class="st7" d="M13.1,38.5c0,0,3.7,8.3,8.6,8.1c5-0.2,8.4-7.5,8.4-7.5L13.1,38.5z"/>
		<path class="st8" d="M20.5,35.6c0.2,0.5,0.4,1,0.6,1.4c0.3,0.4,0.5,0.9,0.6,1.4c0,0.1,0,0.1,0,0.2c0,0.3,0,0.6-0.2,0.9
			c0,0.1-0.1,0.1-0.1,0.2c0,0.1-0.1,0.1-0.1,0.2c0,0-0.1,0.1-0.1,0.1c-0.7,0.4-1.4,0.3-2.2,0.2c-0.1,0-0.1,0-0.2,0
			c-0.1,0-0.1-0.1-0.2-0.1c-0.4-0.2-0.8-0.4-1.3-0.6c-0.4-0.2-0.9-0.5-1.3-0.7c-0.4-0.2-0.8-0.5-1.1-0.8c0,0-0.1-0.1-0.1-0.1
			c-0.6-0.8-0.8-2-0.6-3c0-0.1,0.1-0.1,0.1-0.2c0.1-0.2,0.2-0.4,0.4-0.6c0.8-1,2.4-1.6,3.7-1.1c0.4,0.1,0.7,0.4,1,0.7
			c0,0.1,0.1,0.1,0.1,0.2C20,34.4,20.3,35,20.5,35.6z"/>
		<path class="st9" d="M17.2,32.6c0.1-0.5,1-1.1,1.3-1.6c0-0.1,0.1-0.2,0.1-0.3c-0.1-0.1-0.4-0.2-0.6-0.1c-0.2,0.1-0.4,0.2-0.5,0.4
			c-0.2,0.2-0.5,0.6-0.8,0.6c-0.3,0-0.4-0.4-0.5-0.5C16,31,16,30.8,15.9,30.6c0-0.1-0.1-0.2-0.2-0.2c-0.1,0-0.3,0-0.4,0.1
			c-0.1,0.1-0.2,0.2-0.2,0.3c-0.1,0.2-0.1,0.4,0,0.5c0.1,0.2,0.2,0.3,0.2,0.4c0.1,0.1,0.1,0.3-0.1,0.5c-0.2,0-0.3-0.1-0.5-0.1
			c-0.2-0.1-0.3-0.1-0.5,0c-0.3,0.1-0.3,0.4-0.2,0.5c0.1,0.2,0.4,0.2,0.6,0.3c0.4,0.1,1,0.3,1.1,0.6C15.7,33.4,16.7,35,17.2,32.6"/>
		<path class="st4" d="M18.7,35.1c0,0,0-0.7-0.2-0.6C18.2,34.7,18.7,35.1,18.7,35.1z"/>
		<path class="st4" d="M16.7,36.3c0,0-0.2-0.7-0.4-0.6C16.1,36,16.7,36.3,16.7,36.3z"/>
		<path class="st4" d="M17.6,36.4c0,0-0.2-0.7-0.4-0.6C17,36.1,17.6,36.4,17.6,36.4z"/>
		<path class="st4" d="M19,38.6c0,0-0.2-0.7-0.4-0.6C18.4,38.3,19,38.6,19,38.6z"/>
		<path class="st4" d="M17.9,38c0,0-0.2-0.7-0.4-0.6C17.3,37.7,17.9,38,17.9,38z"/>
		<path class="st4" d="M17.4,34.7c0,0-0.3-0.7-0.4-0.5C16.7,34.5,17.4,34.7,17.4,34.7z"/>
		<path class="st10" d="M15.8,38.6c0.1,0.1,0.2,0.2,0.4,0.2c0.4,0.3,0.8,0.6,1.3,0.7c0.4,0.2,0.8,0.4,1.3,0.6c0.1,0,0.1,0.1,0.2,0.1
			c0.1,0,0.1,0,0.2,0c0.7,0.1,1.5,0.2,2.2-0.2c0,0,0.1-0.1,0.1-0.1c0-0.1,0.1-0.1,0.1-0.2s0.1-0.1,0.1-0.2c0.1-0.3,0.2-0.5,0.2-0.8
			L15.8,38.6z"/>
	</g>
	<path style="clip-path:url(#SVGID_00000121990298298810360880000000878479008229544856_);fill:#4ADEDB;" d="M14.9,61
		c-0.3-0.3,6.5-2.3,7-2.3c1,0,6.4,2,6.3,2.1C28.1,61,15.2,61.3,14.9,61z"/>
	<g style="clip-path:url(#SVGID_00000121990298298810360880000000878479008229544856_);">
		<path class="st11" d="M45.3,38.1c0,0-4.4,3.3-4.5,3.6c-0.1,0.3-0.1,0.5-0.1,1.8c0,4.5,0,15.4,0,16.1c0,1.5-0.1,1.6-0.1,1.6
			L54.2,61c0,0,0.3-0.8,0.3-1.5c0-2.2,0-6.7,0.1-8.5c0.1-1.6,0-8.5-0.1-8.9c-0.2-0.4-2.6-2.5-4.6-4.3c-0.2-0.9-0.5-5-0.5-5l-4.1,0
			L45.3,38.1z"/>
		<path class="st12" d="M42.3,54.9l0-0.2c0-0.3-0.1-7.1,0-8.1c0-0.3,0.2-0.6,0.5-0.9c1-0.9,3.2-1.8,4.7-1.7l0,0
			c1.9,0.1,4.4,0.8,5.3,2.1l0,0.1l0,0.1c0.1,1.3,0.2,8.1,0.2,8.4l0,0.2L42.3,54.9z M47.3,44.4c-1.4,0-3.3,0.8-4.2,1.6
			c-0.2,0.2-0.4,0.4-0.4,0.6c-0.1,0.9,0,6.5,0,7.8l9.8-0.1c0-1.2-0.1-6.7-0.2-8c-0.8-1-3.1-1.7-4.9-1.8l0,0
			C47.5,44.4,47.4,44.4,47.3,44.4z"/>
		<path class="st4" d="M45.3,33.8l-0.2-6.6l4.3,0.1l0.1,6.3L45.3,33.8z M45.7,27.8l0.2,5.6l3.2-0.1L49,27.9L45.7,27.8z"/>
		<path class="st14" d="M44.7,25.8l0.1,3.4h5.4c0,0,0.2-3.1,0-3.3C50,25.7,44.7,25.8,44.7,25.8z"/>
	</g>
	<g style="clip-path:url(#SVGID_00000121990298298810360880000000878479008229544856_);">
		<path class="st4" d="M14.6,16C14.6,16,14.6,16,14.6,16c-0.1,0-0.3-0.1-0.2-0.3l0.1-2.8c0.1-2-0.2-2.5-0.9-2.7
			c-0.3-0.1-0.5,0-0.5,0c-0.2,0.1-0.4,0.5-0.4,1.7c0,1.4,1,3.5,1.1,3.5c0.1,0.1,0,0.3-0.1,0.3c-0.1,0.1-0.3,0-0.3-0.1
			c0-0.1-1.1-2.2-1.1-3.7c0-1.1,0.2-1.8,0.6-2.1c0.3-0.2,0.6-0.2,1-0.1c1,0.4,1.3,1.1,1.2,3.2l-0.1,2.8C14.8,15.9,14.7,16,14.6,16z"
			/>
		<path class="st4" d="M11.3,17.4c-0.9,0-2,0-2.7-0.1c-1.3-0.1-2.2-0.4-2.5-0.9c-0.2-0.2-0.2-0.5-0.2-0.8c0.2-1,1.2-1.4,3.2-1.2
			c2,0.2,4.5,1.4,4.6,1.4c0.1,0.1,0.2,0.2,0.1,0.3c-0.1,0.1-0.2,0.2-0.3,0.1c0,0-2.6-1.2-4.5-1.4c-1.6-0.2-2.5,0.1-2.6,0.7
			c0,0.1,0,0.3,0.1,0.4c0.2,0.2,0.7,0.6,2.2,0.7c1.7,0.1,5,0,5,0c0,0,0,0,0,0c0.1,0,0.2,0.1,0.2,0.2c0,0.1-0.1,0.3-0.2,0.3
			C13.6,17.3,12.5,17.4,11.3,17.4z"/>
		<path class="st4" d="M9.9,24.8c-0.1,0-0.2,0-0.3,0c-0.3-0.1-0.6-0.3-0.7-0.6c-0.3-0.6,0-1.6,0.7-2.8c1.1-2,3.7-3.9,4-4.1
			c0.1-0.1,0.3-0.1,0.3,0.1c0.1,0.1,0.1,0.3-0.1,0.3c-0.3,0.2-2.8,2-3.9,3.9c-0.6,1-0.8,1.9-0.6,2.3c0.1,0.2,0.2,0.2,0.3,0.3
			c0.6,0.2,1.6-0.7,2.5-2.1c0.9-1.4,1.8-4.1,1.9-4.1c0-0.1,0.2-0.2,0.3-0.1c0.1,0,0.2,0.2,0.1,0.3c0,0.1-1,2.8-1.9,4.2
			C11.8,23.9,10.7,24.8,9.9,24.8z"/>
		<path class="st4" d="M15.6,16.5c-0.1,0-0.2-0.1-0.2-0.1c-0.1-0.1,0-0.3,0.1-0.3c0,0,2-0.9,2.8-2.5c0.4-0.8,0.8-1.6,0.7-1.8
			c0,0-0.1-0.1-0.3-0.2c-0.5-0.2-1.7,0.8-2.4,2c-0.7,1.2-1.1,2.3-1.1,2.3c-0.1,0.1-0.2,0.2-0.3,0.1c-0.1,0-0.2-0.2-0.1-0.3
			c0,0,0.4-1.1,1.2-2.4c0.7-1.1,2.1-2.6,3-2.2c0.2,0.1,0.4,0.2,0.5,0.5c0.2,0.4-0.1,1-0.8,2.2c-0.9,1.7-3,2.6-3.1,2.7
			C15.6,16.5,15.6,16.5,15.6,16.5z"/>
		<path class="st4" d="M17.2,25.1c-0.2,0-0.5,0-0.7-0.1c-0.9-0.4-1.5-2.6-1.7-3.5c-0.2-1.1-0.4-3.2-0.4-3.3c0-0.1,0.1-0.3,0.2-0.3
			c0.1,0,0.3,0.1,0.3,0.2c0,0,0.2,2.2,0.4,3.2c0.4,1.7,0.9,3,1.4,3.2c0.4,0.1,0.7,0.2,0.9,0c0.1-0.1,0.2-0.2,0.2-0.5
			c0.1-0.6-0.2-1.9-1.1-3.6c-0.8-1.6-1.2-2.1-1.2-2.1c-0.1-0.1,0-0.3,0.1-0.3c0.1-0.1,0.3,0,0.3,0.1c0,0,0.4,0.5,1.2,2.1
			c0.8,1.5,1.2,3,1.2,3.8c0,0.5-0.3,0.7-0.5,0.8C17.6,25,17.4,25.1,17.2,25.1z"/>
		<path class="st4" d="M18.4,18.1c-1.7,0-2.6-0.3-2.7-0.3c-0.1,0-0.2-0.2-0.2-0.3s0.2-0.2,0.3-0.2c0,0,1,0.2,2.5,0.2
			c1.8,0,3.6-0.6,3.7-1c0.1-0.4,0.1-0.6,0-0.8c-0.1-0.1-0.3-0.2-0.6-0.2c-0.8-0.1-3.7,0.5-4.4,0.7c-0.8,0.3-1.3,0.5-1.3,0.5
			c-0.1,0.1-0.3,0-0.3-0.1c-0.1-0.1,0-0.3,0.1-0.3c0,0,0.5-0.2,1.3-0.5c0.8-0.3,3.7-0.8,4.6-0.7c0.4,0,0.7,0.2,0.9,0.4
			c0.3,0.4,0.2,0.8,0.1,1.2C22.4,17.6,19.7,18.1,18.4,18.1z"/>
		<path class="st4" d="M14.7,18.3c-0.3,0-0.5-0.1-0.7-0.3c-0.3-0.3-0.6-0.7-0.5-1.2c0.1-0.5,0.5-1,0.9-1.2h0c0.5-0.1,0.9,0,1.2,0.4
			c0.3,0.4,0.4,0.8,0.3,1.3l0,0.1c-0.1,0.2-0.1,0.5-0.5,0.7C15.1,18.3,14.9,18.3,14.7,18.3z M14.5,16.1L14.5,16.1
			c-0.2,0.1-0.5,0.5-0.5,0.8c0,0.3,0.1,0.5,0.4,0.8c0.2,0.2,0.6,0.1,0.7,0c0.2-0.1,0.2-0.2,0.3-0.4l0-0.1c0.1-0.3,0-0.5-0.2-0.8
			C15,16.1,14.8,16,14.5,16.1z"/>
	</g>
	<g style="clip-path:url(#SVGID_00000121990298298810360880000000878479008229544856_);">
		<path class="st4" d="M62,17.6C62,17.6,62,17.6,62,17.6c-0.2-0.1-0.3-0.2-0.2-0.3l1.1-2.6c0.8-1.9,0.6-2.4,0.1-2.9
			c-0.3-0.2-0.4-0.2-0.5-0.2c-0.2,0-0.6,0.3-1,1.4c-0.5,1.3-0.2,3.6-0.2,3.6c0,0.1-0.1,0.3-0.2,0.3c-0.1,0-0.3-0.1-0.3-0.2
			c0-0.1-0.3-2.4,0.2-3.9c0.4-1,0.8-1.6,1.3-1.7c0.3-0.1,0.6,0,0.9,0.3c0.8,0.7,0.8,1.5,0.1,3.5l-1.1,2.6
			C62.2,17.5,62.1,17.6,62,17.6z"/>
		<path class="st4" d="M60.7,18.6C60.7,18.6,60.7,18.6,60.7,18.6c-0.2-0.1-3.3-1.1-4.8-1.8c-1.2-0.6-1.9-1.1-2.1-1.7
			c-0.1-0.3-0.1-0.5,0.1-0.8c0.5-0.9,1.6-0.9,3.4,0c1.8,0.9,3.8,2.8,3.8,2.9c0.1,0.1,0.1,0.3,0,0.4c-0.1,0.1-0.3,0.1-0.4,0
			c0,0-2-2-3.7-2.8c-1.5-0.7-2.4-0.8-2.7-0.2c-0.1,0.1-0.1,0.2,0,0.4c0.1,0.2,0.4,0.8,1.8,1.4c1.5,0.7,4.6,1.7,4.7,1.8
			c0.1,0,0.2,0.2,0.2,0.3C60.9,18.5,60.8,18.6,60.7,18.6z"/>
		<path class="st4" d="M55.1,24.3c-0.3,0-0.5-0.1-0.7-0.2c-0.3-0.2-0.4-0.5-0.4-0.8c0-0.7,0.5-1.5,1.6-2.4c1.7-1.4,4.8-2.3,5.2-2.4
			c0.1,0,0.3,0,0.3,0.2s0,0.3-0.2,0.3c-0.3,0.1-3.3,0.9-5,2.3c-0.9,0.7-1.4,1.5-1.4,2c0,0.2,0.1,0.3,0.2,0.4
			c0.5,0.4,1.7-0.1,3.1-1.1c1.3-1,3.1-3.2,3.2-3.2c0.1-0.1,0.2-0.1,0.4,0c0.1,0.1,0.1,0.2,0,0.4c-0.1,0.1-1.9,2.3-3.2,3.3
			C56.9,23.9,55.8,24.3,55.1,24.3z"/>
		<path class="st4" d="M62.8,18.4c-0.1,0-0.2-0.1-0.2-0.2c0-0.1,0.1-0.3,0.2-0.3c0,0,2.2-0.2,3.5-1.3c0.7-0.6,1.3-1.2,1.3-1.5
			c0,0,0-0.1-0.2-0.3c-0.4-0.3-1.8,0.2-2.9,1.1c-1.1,0.9-1.9,1.7-1.9,1.7c-0.1,0.1-0.2,0.1-0.4,0c-0.1-0.1-0.1-0.2,0-0.4
			c0,0,0.8-0.9,1.9-1.8c1-0.8,2.9-1.7,3.6-1c0.1,0.1,0.3,0.3,0.3,0.6c0,0.5-0.4,0.9-1.5,1.8C65.2,18.2,62.9,18.4,62.8,18.4
			C62.8,18.4,62.8,18.4,62.8,18.4z"/>
		<path class="st4" d="M61.7,27.1c-0.3,0-0.7-0.2-1-0.5c-0.7-0.7-0.5-2.9-0.4-3.9c0.2-1.1,0.7-3.1,0.7-3.2c0-0.1,0.2-0.2,0.3-0.2
			c0.1,0,0.2,0.2,0.2,0.3c0,0-0.5,2.1-0.7,3.2c-0.3,1.7-0.2,3.1,0.2,3.4c0.3,0.3,0.6,0.4,0.8,0.3c0.2,0,0.3-0.1,0.4-0.3
			c0.2-0.5,0.4-1.8,0.2-3.7c-0.2-1.8-0.4-2.4-0.4-2.4c0-0.1,0-0.3,0.2-0.3c0.1,0,0.3,0,0.3,0.2c0,0,0.2,0.6,0.4,2.4
			c0.2,1.7,0.1,3.2-0.2,4c-0.2,0.4-0.5,0.6-0.7,0.6C61.9,27.1,61.8,27.1,61.7,27.1z"/>
		<path class="st4" d="M67.8,21.4c-1,0-2.3-0.3-3-0.6c-1.6-0.6-2.4-1.1-2.4-1.2c-0.1-0.1-0.1-0.2-0.1-0.3c0.1-0.1,0.2-0.1,0.3-0.1
			c0,0,0.8,0.6,2.3,1.1c1.7,0.6,3.6,0.7,3.9,0.3c0.2-0.3,0.3-0.6,0.2-0.7c0-0.1-0.2-0.3-0.4-0.4c-0.7-0.4-3.6-0.8-4.4-0.8
			c-0.8,0-1.4,0-1.4,0c-0.2,0-0.3-0.1-0.3-0.2c0-0.1,0.1-0.3,0.2-0.3c0,0,0.6,0,1.4,0c0.9,0,3.8,0.5,4.6,0.9
			c0.4,0.2,0.6,0.4,0.7,0.7c0.1,0.4-0.1,0.9-0.3,1.1C69,21.3,68.5,21.4,67.8,21.4z"/>
		<path class="st4" d="M61.7,19.9c-0.5,0-0.8-0.2-1-0.6c-0.2-0.4-0.3-0.9,0-1.3c0.2-0.4,0.8-0.8,1.2-0.8c0,0,0,0,0,0
			c0.5,0,0.9,0.3,1,0.8c0.1,0.5,0.1,0.9-0.2,1.3l-0.1,0.1c-0.1,0.2-0.3,0.4-0.8,0.5C61.8,19.9,61.7,19.9,61.7,19.9z M61.8,17.7
			c-0.2,0-0.6,0.3-0.7,0.5c-0.1,0.2-0.1,0.5,0.1,0.9c0.1,0.3,0.5,0.3,0.6,0.2c0.2,0,0.3-0.1,0.4-0.3l0.1-0.1
			c0.2-0.2,0.2-0.5,0.1-0.9C62.3,17.9,62.2,17.7,61.8,17.7C61.9,17.7,61.8,17.7,61.8,17.7z"/>
	</g>
</g>
</svg>
