<?xml version="1.0" encoding="utf-8"?>
<!-- Generator: Adobe Illustrator 26.1.0, SVG Export Plug-In . SVG Version: 6.00 Build 0)  -->
<svg version="1.1" id="Layer_1" xmlns="http://www.w3.org/2000/svg" xmlns:xlink="http://www.w3.org/1999/xlink" x="0px" y="0px"
	 viewBox="0 0 68 60" style="enable-background:new 0 0 68 60;" xml:space="preserve">
<style type="text/css">
	.st0{fill:#FCE899;}
	.st1{fill:#008E60;}
	.st2{fill:#F7C600;}
	.st3{fill:#FAEE8C;}
	.st4{fill:#FFFFFF;}
	.st5{fill:#F39F00;}
	.st6{fill:#FFF1E7;}
	.st7{fill:#FFB7A1;}
	.st8{fill:#FA7463;}
	.st9{fill:#007F4F;}
	.st10{fill:#FF3008;}
	.st11{fill:#FF807B;}
	.st12{fill:#FF706B;}
	.st13{fill:#FFD7C7;}
	.st14{fill:#007947;}
	.st15{fill:#62C0C3;}
	.st16{fill:#E7E5D9;}
	.st17{fill:#00858C;}
	.st18{fill:#C5C4AD;}
	.st19{fill:#FF4F2D;}
	.st20{fill:#F9DB4B;}
	.st21{fill:#FFE900;}
	.st22{fill:#F8CC00;}
	.st23{fill:#EECA00;}
	.st24{fill:#E3B300;}
	.st25{fill:#FFFBE8;}
	.st26{fill:#FB8677;}
	.st27{fill:#FFB1AE;}
	.st28{fill:#FF5534;}
	.st29{fill:#409C7A;}
	.st30{fill:#BCE9EA;}
	.st31{fill:#029999;}
	.st32{fill:#BCBBA4;}
	.st33{fill:#8CD7D9;}
	.st34{fill:none;stroke:#F9BEAA;stroke-width:0.5;stroke-miterlimit:10;}
	.st35{fill:#075B46;}
	.st36{fill:#68E1DE;}
	.st37{fill:#E8FCFB;}
	.st38{fill:#17A3A9;}
	.st39{fill:#00838A;}
	.st40{fill:#008344;}
	.st41{fill:#FD7B2F;}
	.st42{fill:#FBAC6B;}
	.st43{fill:#E54E03;}
	.st44{fill:#FE8D4B;}
	.st45{fill:#017946;}
	.st46{fill:#BD8800;}
	.st47{fill:#86CED1;}
	.st48{fill:#058C60;}
	.st49{fill:#E85658;}
	.st50{fill:#FDAFAC;}
	.st51{fill:#EF9595;}
	.st52{fill:#D5A600;}
	.st53{fill:#007F3A;}
	.st54{fill:#FF838B;}
	.st55{fill:#FDC1BE;}
	.st56{fill:#954C00;}
	.st57{fill:#FFB8A2;}
	.st58{fill:#F9BEAA;}
	.st59{fill:#A16C00;}
	.st60{fill:#C7C6B7;}
	.st61{fill:#DFDED5;}
	.st62{fill:#FF7168;}
	.st63{fill:#FADB5C;}
	.st64{fill:#002F10;}
	.st65{fill:#C4AB80;}
	.st66{clip-path:url(#SVGID_00000051363517833981605270000005290655336990135697_);fill:#FDEFB5;}
	.st67{clip-path:url(#SVGID_00000051363517833981605270000005290655336990135697_);}
	.st68{clip-path:url(#SVGID_00000051363517833981605270000005290655336990135697_);fill:#4ADEDB;}
	.st69{fill:#FF2D00;}
	.st70{clip-path:url(#SVGID_00000081640116088900256110000000497134948885620912_);fill:#FDEFB5;}
	.st71{clip-path:url(#SVGID_00000081640116088900256110000000497134948885620912_);}
	.st72{clip-path:url(#SVGID_00000140695190994586664570000012022803137915260293_);fill:#FDEFB5;}
	.st73{clip-path:url(#SVGID_00000140695190994586664570000012022803137915260293_);}
	.st74{clip-path:url(#SVGID_00000140695190994586664570000012022803137915260293_);fill:#F7C600;}
	.st75{clip-path:url(#SVGID_00000059992611652719506130000011489292781284123060_);fill:#FDEFB5;}
	.st76{clip-path:url(#SVGID_00000059992611652719506130000011489292781284123060_);}
	.st77{clip-path:url(#SVGID_00000059992611652719506130000011489292781284123060_);fill:#007947;}
	.st78{clip-path:url(#SVGID_00000059992611652719506130000011489292781284123060_);fill:#F7C600;}
	.st79{clip-path:url(#SVGID_00000059992611652719506130000011489292781284123060_);fill:#FFFFFF;}
	.st80{clip-path:url(#SVGID_00000134210210002904986470000012477466326941153706_);fill:#FDEFB5;}
	.st81{clip-path:url(#SVGID_00000097469795107422240980000005926326735218806445_);}
	.st82{clip-path:url(#SVGID_00000072974364416618257090000013692132909940959924_);fill:#FDEFB5;}
	.st83{clip-path:url(#SVGID_00000072974364416618257090000013692132909940959924_);}
	.st84{fill:#452700;}
	.st85{fill:#643B00;}
	.st86{fill:#C6C5B1;}
	.st87{fill:#0F2A1D;}
	.st88{fill:#E8C500;}
	.st89{fill:#006873;}
	.st90{clip-path:url(#SVGID_00000042694530911591321370000004166570369037606052_);fill:#FDEFB5;}
	.st91{clip-path:url(#SVGID_00000042694530911591321370000004166570369037606052_);}
	.st92{clip-path:url(#SVGID_00000116943297606695793410000001591668745635018166_);fill:#FDEFB5;}
	.st93{clip-path:url(#SVGID_00000116943297606695793410000001591668745635018166_);}
	.st94{fill:#388E90;}
	.st95{clip-path:url(#SVGID_00000016071857641513157910000007567150443289234073_);}
	.st96{fill:#FCEDB4;}
	.st97{clip-path:url(#SVGID_00000016071857641513157910000007567150443289234073_);fill:#017946;}
	.st98{clip-path:url(#SVGID_00000016071857641513157910000007567150443289234073_);fill:#BD8800;}
	.st99{clip-path:url(#SVGID_00000016071857641513157910000007567150443289234073_);fill:#058C60;}
	.st100{clip-path:url(#SVGID_00000016071857641513157910000007567150443289234073_);fill:#F7C600;}
	.st101{clip-path:url(#SVGID_00000016071857641513157910000007567150443289234073_);fill:#FF5534;}
	.st102{clip-path:url(#SVGID_00000016071857641513157910000007567150443289234073_);fill:#D5A600;}
	.st103{clip-path:url(#SVGID_00000017482994807461508990000015663080396325957001_);}
	.st104{fill:#FDEFB5;}
	.st105{clip-path:url(#SVGID_00000109002096565200244770000016550211478578758324_);fill:none;}
	.st106{clip-path:url(#SVGID_00000109002096565200244770000016550211478578758324_);fill:#FDEFB5;}
	.st107{clip-path:url(#SVGID_00000109002096565200244770000016550211478578758324_);}
	.st108{clip-path:url(#SVGID_00000109002096565200244770000016550211478578758324_);fill:#C4AB80;}
	.st109{clip-path:url(#SVGID_00000109002096565200244770000016550211478578758324_);fill:#FF3008;}
	.st110{clip-path:url(#SVGID_00000032646667416384875260000004006340406057216896_);fill:#FDEFB5;}
	.st111{clip-path:url(#SVGID_00000032646667416384875260000004006340406057216896_);}
	.st112{fill:#4A2500;}
	.st113{clip-path:url(#SVGID_00000132079643743090851310000012468827143294500030_);fill:#FDEFB5;}
	.st114{clip-path:url(#SVGID_00000132079643743090851310000012468827143294500030_);}
	.st115{fill:#24372B;}
	.st116{clip-path:url(#SVGID_00000129885032202233836260000015030424781014712734_);fill:#FDEFB5;}
	.st117{clip-path:url(#SVGID_00000129885032202233836260000015030424781014712734_);}
	.st118{fill:#93D4D6;}
	.st119{fill:#A8A799;}
	.st120{fill:#037A4F;}
	.st121{fill:#B17C52;}
	.st122{fill:#C38C61;}
	.st123{fill:#DBB18E;}
	.st124{fill:#C7956E;}
	.st125{fill:#017575;}
	.st126{clip-path:url(#SVGID_00000063625629570653268320000010229512368024554371_);fill:#FDEFB5;}
	.st127{clip-path:url(#SVGID_00000063625629570653268320000010229512368024554371_);}
	.st128{fill:#CF7D2A;}
	.st129{fill:#91DADA;}
	.st130{fill:#BEE2CD;}
	.st131{fill:#FF0000;}
	.st132{fill:#E6CB7E;}
	.st133{fill:#D5B45E;}
	.st134{fill:none;stroke:#C7C6B5;stroke-width:0.75;stroke-miterlimit:10;}
	.st135{fill:#FF9E9E;}
	.st136{fill:#BD834E;}
	.st137{clip-path:url(#SVGID_00000151518161707614386630000000629395054236680098_);fill:#FDEFB5;}
	.st138{clip-path:url(#SVGID_00000151518161707614386630000000629395054236680098_);}
</style>
<g>
	<defs>
		<circle id="SVGID_00000109012864450303246270000003916491383975104154_" cx="34" cy="30.1" r="30"/>
	</defs>
	<use xlink:href="#SVGID_00000109012864450303246270000003916491383975104154_"  style="overflow:visible;fill:#BFF1F3;"/>
	<clipPath id="SVGID_00000119830892456494605400000001365966732292402357_">
		<use xlink:href="#SVGID_00000109012864450303246270000003916491383975104154_"  style="overflow:visible;"/>
	</clipPath>
	
		<circle style="clip-path:url(#SVGID_00000119830892456494605400000001365966732292402357_);fill:#FDEFB5;" cx="34" cy="30.1" r="30"/>
	<g style="clip-path:url(#SVGID_00000119830892456494605400000001365966732292402357_);">
		<g>
			<path class="st46" d="M57.7,61.2c-0.8,0.3-2.1,1.1-5.3,1.3c-5.4,0.4-8.3-2.2-9.6-3.9c-2.3-3.8-2.3-9.7-4.4-16.6
				c-1.3-4.4-2.4-5.9-3.3-10.2c-1-5-1.4-11.4-1.7-13c-0.4-2.2-1.4-4-4.7-4.7c-3.3-0.6-6.8,1.2-6.8,1.2s-1.3,2.2-2.7,3.7
				c-1.4,1.4-4.2,0.4-5.4,1.1c-1.2,0.7-0.3,4.8,0.7,6.1c1.1,1.5,2.8,2.6,5.6,2.5c2.8,0,3.2,2.6,3.1,4.1c-0.1,1.6-3.9,8.9-3.8,13.4
				c0.2,7.5,3.3,15.3,3.3,15.3s-2.9,0.8-4.1,1.6c-1.2,0.8,1,3.7,1,3.7s25.1-0.1,25.7-0.1c2.4-0.2,5.5-0.4,7.3-1.2
				c1.6-0.7,4.7-2.5,5.5-3.6C58.9,61,58,61.1,57.7,61.2z"/>
			<path class="st84" d="M16,19.8c0,0-1.8,3.4-2.7,2.8c-0.2-0.1-0.8-2.3,0.7-3C14.9,19.2,16,19.8,16,19.8z"/>
			<path class="st59" d="M29.7,27.2c-0.3,0-0.7-0.1-1-0.2c-4.3-1.7-2.3-8.5-2.3-8.7l0.5,0.1c0,0.1-1.9,6.6,2,8.1
				c0.7,0.3,1.2,0.2,1.7-0.1c1.8-1.3,1.5-6.8,1.5-6.8l0.5,0c0,0.2,0.3,5.8-1.7,7.3C30.5,27,30.1,27.2,29.7,27.2z"/>
			<path class="st84" d="M21.5,19.3c0.4-0.2,0.9,0.6,0.5,0.8S21.2,19.5,21.5,19.3z"/>
			<path class="st85" d="M17.5,22.1c0.1,0.1,0.2,0.2,0.1,0.4c-0.1,0.1-0.4,0.1-0.5-0.1C17.1,22.2,17.3,22,17.5,22.1z"/>
			<path class="st85" d="M18.3,23.2c0.1,0.1,0.2,0.3,0.1,0.4c-0.1,0.1-0.4,0.2-0.5-0.1C17.9,23.3,18.1,23.1,18.3,23.2z"/>
			<path class="st85" d="M16.6,23.9c0.1,0.1,0.2,0.3,0.1,0.4c-0.1,0.1-0.5,0.2-0.5-0.1C16.2,24,16.4,23.8,16.6,23.9z"/>
		</g>
		<path class="st26" d="M22.7,30.8c0,0,0,1.2,0.3,1.7c0.1,0.2,2.7,0.2,5.7-0.2c4-0.6,6.7-1.1,6.8-1.5c0.1-0.6-0.2-1.8-0.2-1.8
			s-3.5,0.9-6.7,1.3C26.5,30.6,22.7,30.8,22.7,30.8z"/>
		<g>
			<path class="st15" d="M32.3,66.8c-0.1-0.3-1.5-4.8-1.2-8.5c0.3-4.4,1.6-7.2,4.5-9.7c4.4-3.7,5.8-5.5,5.6-8.8
				c4.4,0.4,9.5,0.2,9.5,0.2s1.2,3.2,1,7.5c-0.2,4.4-0.4,16.7-0.4,16.7s1.6,1.1,1.4,2.4c0,0.2-0.9,0.2-2.4,0.2S32.3,66.8,32.3,66.8z
				"/>
			<path class="st15" d="M46.5,29.1c-1.1,0-4.5,0.7-5.8,2.1c-1.9,2.1-2.1,5-0.9,6.8c1.2,1.9,2.4,4,6.5,4.2c3.2,0.2,5.6-1.8,6.4-3.3
				c0.8-1.4,1.7-3.5,1.1-5.4C53.1,30.7,49,29.2,46.5,29.1z"/>
			<path class="st15" d="M39.4,33.8c-0.1-0.3-1.2-5.6,0.4-7.3c2.7,1.1,4.6,4.1,4.6,4.1L39.4,33.8z"/>
			<path class="st15" d="M53.8,33.7c0.1-0.3,1.2-5.6-0.4-7.3c-2.7,1.1-4.6,4.1-4.6,4.1L53.8,33.7z"/>
			<path class="st15" d="M24,42.6c0.1,0.6,0.9,0.3,2,0.1c1.7-0.2,3,0.1,3.5,2.2c0.5,2.2,0.2,4.2-1.6,6.7c-2.4,3.4-3.3,5.5-3.2,6.8
				c0,2.9,0.9,4.5,2.3,5.6c1.1,0.9,2.7,1.1,3.9,1.1c1.6,0,2.2-0.6,2.2-0.6l-0.9-2.2c0,0-1.9,0.7-4.1-0.4c-1.4-0.8-1.6-3.6-0.8-5.4
				c1-2.2,3.3-5,3.9-6.6c0.7-2.1,1-3.8-0.3-6.5c-0.8-1.7-2.4-2.3-3.9-2.4C25.5,41,23.8,41.5,24,42.6z"/>
			<path class="st87" d="M43.7,33.9c-0.4,0.1-0.3,1,0.1,0.9C44.2,34.7,44,33.8,43.7,33.9z"/>
			<path class="st87" d="M49,33.9c-0.4,0.1-0.3,1,0.1,0.9C49.5,34.7,49.3,33.8,49,33.9z"/>
			<path class="st87" d="M46.5,36.2c-0.7,0-0.8,0.4-0.8,0.5c0,0.3,0.8,0.7,0.8,0.7s0.8-0.5,0.7-0.7C47.2,36.5,46.8,36.2,46.5,36.2z"
				/>
			<rect x="52" y="35.9" transform="matrix(0.9874 -0.1581 0.1581 0.9874 -5.0472 8.9327)" class="st31" width="3.2" height="0.5"/>
			
				<rect x="53.5" y="35.8" transform="matrix(0.1694 -0.9855 0.9855 0.1694 7.6533 84.1734)" class="st31" width="0.5" height="3.5"/>
			
				<rect x="39.8" y="34.4" transform="matrix(0.1378 -0.9905 0.9905 0.1378 -1.4683 71.0124)" class="st31" width="0.5" height="3.9"/>
			
				<rect x="38.3" y="37.6" transform="matrix(0.9424 -0.3344 0.3344 0.9424 -10.3519 15.6182)" class="st31" width="3.9" height="0.5"/>
			<path class="st31" d="M39.4,33.7c0,0.1,0,0.1,0,0.1l5-3.3c0,0-0.3-0.4-0.7-0.9c-1.2,0.4-2.3,0.9-3,1.6
				C40.1,32,39.6,32.8,39.4,33.7z"/>
			<path class="st31" d="M49.4,29.7c-0.3,0.4-0.6,0.7-0.6,0.7l5,3.3c0,0,0-0.1,0-0.2C53.3,31.7,51.3,30.4,49.4,29.7z"/>
			<path class="st88" d="M46.2,43.8c-2.9,0-5.7-1.6-5.8-1.7l0.3-0.5c0,0,2.8,1.6,5.5,1.6c3.8,0,5.4-1.2,5.5-1.2l0.3,0.4
				C52,42.5,50.3,43.8,46.2,43.8z"/>
			<path class="st4" d="M46.1,44.6c0-0.1-1.1-0.8-1.5-0.1c-0.5,1,1.3,2.5,1.3,2.5s1.6-0.9,1.8-1.7C47.8,44.8,47.5,44,46.1,44.6z"/>
			
				<rect x="45.3" y="44" transform="matrix(2.097441e-02 -0.9998 0.9998 2.097441e-02 0.9906 89.3318)" class="st89" width="1.6" height="0.3"/>
		</g>
		<path class="st4" d="M22.9,36.3c-1.1,0-2.1-0.9-2.1-2.1c0-1.1,0.9-2.1,2.1-2.1c1.1,0,2.1,0.9,2.1,2.1C25,35.3,24.1,36.3,22.9,36.3
			z M22.9,32.5c-0.9,0-1.7,0.8-1.7,1.7c0,0.9,0.8,1.7,1.7,1.7c0.9,0,1.7-0.8,1.7-1.7C24.6,33.3,23.8,32.5,22.9,32.5z"/>
	</g>
	<g style="clip-path:url(#SVGID_00000119830892456494605400000001365966732292402357_);">
		<path class="st4" d="M51.9,8.3c0,0-0.1,0-0.1,0c-0.3,0-0.6-0.3-0.9-0.6c-0.3-0.4-0.3-0.8-0.2-1.2c0.2-0.8,1-0.9,1.5-0.8
			c0.7-0.1,1.1,0.7,1.3,1.5c0,0.2,0,0.5-0.2,0.7C52.9,8.1,52.3,8.3,51.9,8.3z M51.9,6.1c-0.2,0-0.6,0.1-0.7,0.4
			c-0.1,0.4,0.1,0.7,0.2,0.8c0.2,0.3,0.4,0.4,0.5,0.4c0.2,0,0.7-0.1,1-0.3c0.1-0.1,0.1-0.2,0.1-0.2c-0.1-0.4-0.3-1.1-0.7-1.1l0,0
			l0,0C52.1,6.1,52,6.1,51.9,6.1z"/>
		<path class="st4" d="M44.6,12.7c0,0-0.1,0-0.1,0c-0.3,0-0.6-0.3-0.9-0.6c-0.3-0.4-0.3-0.8-0.2-1.2c0.2-0.8,1-0.9,1.5-0.8
			c0.3,0,0.7,0.1,0.9,0.5c0.2,0.3,0.3,0.6,0.4,1c0,0.2,0,0.5-0.2,0.7C45.5,12.5,45,12.7,44.6,12.7z M44.6,10.5
			c-0.2,0-0.6,0.1-0.7,0.4c-0.1,0.4,0.1,0.7,0.2,0.8c0.2,0.3,0.4,0.4,0.5,0.4c0.2,0,0.7-0.1,1-0.3c0.1-0.1,0.1-0.2,0.1-0.2
			c0-0.3-0.2-0.6-0.3-0.8c-0.2-0.3-0.4-0.3-0.4-0.3l0,0l0,0C44.8,10.5,44.7,10.5,44.6,10.5z"/>
		<path class="st4" d="M47.6,10.5c0,0-0.1,0-0.1,0c-0.3,0-0.6-0.3-0.9-0.6c-0.3-0.4-0.3-0.8-0.2-1.2c0.2-0.8,1-0.9,1.5-0.8
			c0.3,0,0.7,0.1,0.9,0.5c0.2,0.3,0.3,0.6,0.4,1c0,0.2,0,0.5-0.2,0.7C48.5,10.3,48,10.5,47.6,10.5z M47.5,8.3
			c-0.2,0-0.6,0.1-0.7,0.4c-0.1,0.4,0.1,0.7,0.2,0.8c0.2,0.3,0.4,0.4,0.5,0.4c0.2,0,0.7-0.1,1-0.3c0.1-0.1,0.1-0.2,0.1-0.2
			c0-0.3-0.2-0.6-0.3-0.8c-0.2-0.3-0.4-0.3-0.4-0.3l0,0l0,0C47.7,8.3,47.7,8.3,47.5,8.3z"/>
		<path class="st4" d="M47.7,14.3c0,0-0.1,0-0.1,0c-0.3,0-0.6-0.3-0.9-0.6c-0.3-0.4-0.3-0.8-0.2-1.2c0.2-0.8,1-0.9,1.5-0.8
			c0.3,0,0.7,0.1,0.9,0.5c0.2,0.3,0.3,0.6,0.4,1c0,0.2,0,0.5-0.2,0.7C48.6,14.1,48,14.3,47.7,14.3z M47.6,12.1
			c-0.2,0-0.6,0.1-0.7,0.4c-0.1,0.4,0.1,0.7,0.2,0.8c0.2,0.3,0.4,0.4,0.5,0.4c0.2,0,0.7-0.1,1-0.3c0.1-0.1,0.1-0.2,0.1-0.2
			c0-0.3-0.2-0.6-0.3-0.8c-0.2-0.3-0.4-0.3-0.4-0.3l0,0l0,0C47.8,12.2,47.7,12.1,47.6,12.1z"/>
		<path class="st4" d="M51.2,15.2c0,0-0.1,0-0.1,0c-0.3,0-0.6-0.3-0.9-0.6c-0.3-0.4-0.3-0.8-0.2-1.2c0.2-0.8,1-0.9,1.5-0.8
			c0.3,0,0.7,0.1,0.9,0.5c0.2,0.3,0.3,0.6,0.4,1c0,0.2,0,0.5-0.2,0.7C52.2,15,51.6,15.2,51.2,15.2z M51.2,13c-0.2,0-0.6,0.1-0.7,0.4
			c-0.1,0.4,0.1,0.7,0.2,0.8c0.2,0.3,0.4,0.4,0.5,0.4c0.2,0,0.7-0.1,1-0.3c0.1-0.1,0.1-0.2,0.1-0.2c0-0.3-0.2-0.6-0.3-0.8
			c-0.2-0.3-0.4-0.3-0.4-0.3l0,0l0,0C51.4,13,51.3,13,51.2,13z"/>
		<path class="st4" d="M49.4,6.5c0,0-0.1,0-0.1,0c-0.3,0-0.6-0.3-0.9-0.6C48.1,5.5,48,5,48.1,4.6c0.2-0.8,1-0.9,1.5-0.8
			c0.3,0,0.7,0.1,0.9,0.5c0.2,0.3,0.3,0.6,0.4,1c0,0.2,0,0.5-0.2,0.7C50.3,6.3,49.8,6.5,49.4,6.5z M49.3,4.3c-0.2,0-0.6,0.1-0.7,0.4
			c-0.1,0.4,0.1,0.7,0.2,0.8C49,5.8,49.2,6,49.3,6c0.2,0,0.7-0.1,1-0.3c0.1-0.1,0.1-0.2,0.1-0.2c0-0.3-0.2-0.6-0.3-0.8
			c-0.2-0.3-0.4-0.3-0.4-0.3l0,0l0,0C49.6,4.3,49.5,4.3,49.3,4.3z"/>
		<path class="st4" d="M51,3.8c0,0-0.1,0-0.1,0c-0.3,0-0.6-0.3-0.9-0.6c-0.3-0.4-0.3-0.8-0.2-1.2c0.2-0.8,1-0.9,1.5-0.8
			C52,1,52.4,1.8,52.5,2.6c0,0.2,0,0.5-0.2,0.7C52,3.6,51.4,3.8,51,3.8z M51,1.6c-0.2,0-0.6,0.1-0.7,0.4c-0.1,0.4,0.1,0.7,0.2,0.8
			c0.2,0.3,0.4,0.4,0.5,0.4c0.2,0,0.7-0.1,1-0.3C52.1,2.8,52,2.7,52,2.7c-0.1-0.4-0.3-1.1-0.7-1.1l0,0l0,0C51.2,1.6,51.1,1.6,51,1.6
			z"/>
		<path class="st4" d="M45.5,7.5c0,0-0.1,0-0.1,0c-0.3,0-0.6-0.3-0.9-0.6c-0.3-0.4-0.3-0.8-0.2-1.2c0.2-0.8,1-0.9,1.5-0.8
			c0.7-0.1,1.1,0.7,1.3,1.5c0,0.2,0,0.5-0.2,0.7C46.4,7.4,45.8,7.5,45.5,7.5z M45.4,5.4c-0.2,0-0.6,0.1-0.7,0.4
			c-0.1,0.4,0.1,0.7,0.2,0.8C45,6.9,45.3,7,45.4,7c0.2,0,0.7-0.1,1-0.3c0.1-0.1,0.1-0.2,0.1-0.2c-0.1-0.5-0.4-1.1-0.7-1.1l0,0l0,0
			C45.6,5.4,45.6,5.4,45.4,5.4z"/>
		<path class="st4" d="M42.3,9.7c0,0-0.1,0-0.1,0c-0.3,0-0.6-0.3-0.9-0.6c-0.3-0.4-0.3-0.8-0.2-1.2c0.2-0.8,1-0.9,1.5-0.8
			c0.7-0.1,1.1,0.7,1.3,1.5c0,0.2,0,0.5-0.2,0.7C43.3,9.5,42.7,9.7,42.3,9.7z M42.3,7.5c-0.2,0-0.6,0.1-0.7,0.4
			c-0.1,0.4,0.1,0.7,0.2,0.8c0.2,0.3,0.4,0.4,0.5,0.4c0.2,0,0.7-0.1,1-0.3c0.1-0.1,0.1-0.2,0.1-0.2c-0.1-0.4-0.3-1.1-0.7-1.1l0,0
			l0,0C42.5,7.5,42.4,7.5,42.3,7.5z"/>
		<path class="st4" d="M53.9,5.4c0,0-0.1,0-0.1,0c-0.3,0-0.6-0.3-0.9-0.6c-0.3-0.4-0.3-0.8-0.2-1.2c0.2-0.8,1-0.9,1.5-0.8
			c0.3,0,0.7,0.1,0.9,0.5c0.2,0.3,0.3,0.6,0.4,1c0,0.2,0,0.5-0.2,0.7C54.8,5.2,54.3,5.4,53.9,5.4z M53.9,3.2c-0.2,0-0.6,0.1-0.7,0.4
			C53,4,53.2,4.3,53.3,4.4c0.2,0.3,0.4,0.4,0.5,0.4c0.2,0,0.7-0.1,1-0.3c0.1-0.1,0.1-0.2,0.1-0.2c0-0.3-0.2-0.6-0.3-0.8
			c-0.2-0.3-0.4-0.3-0.4-0.3l0,0l0,0C54.1,3.2,54,3.2,53.9,3.2z"/>
		<path class="st4" d="M53.5,10.2c-0.1,0-0.3,0-0.4-0.1c-0.5-0.2-0.9-0.5-1-1c0-0.1-0.3-0.8,0.2-1.4c0.4-0.5,1.1-0.5,2,0.1
			c0.2,0.1,0.4,0.4,0.4,0.7c0,0.5-0.3,1.1-0.6,1.4C53.9,10.2,53.7,10.2,53.5,10.2z M53,7.9c-0.2,0-0.3,0-0.4,0.2
			C52.3,8.5,52.5,9,52.5,9l0,0c0.1,0.3,0.4,0.5,0.7,0.6c0.2,0.1,0.4,0.1,0.5,0c0.3-0.2,0.5-0.7,0.4-1c0-0.2-0.1-0.3-0.2-0.3
			C53.7,8.1,53.4,7.9,53,7.9z"/>
		<path class="st4" d="M50.4,11.8c-0.1,0-0.3,0-0.4-0.1c-0.5-0.2-0.9-0.5-1-1c0-0.1-0.3-0.8,0.2-1.4c0.4-0.5,1.1-0.5,2,0.1
			c0.2,0.1,0.4,0.4,0.4,0.7c0,0.5-0.3,1.1-0.6,1.4C50.8,11.8,50.6,11.8,50.4,11.8z M50,9.6c-0.2,0-0.3,0-0.4,0.2
			c-0.3,0.4-0.1,0.9-0.1,0.9l0,0c0.1,0.3,0.4,0.5,0.7,0.6c0.2,0.1,0.4,0.1,0.5,0c0.3-0.2,0.5-0.7,0.4-1c0-0.2-0.1-0.3-0.2-0.3
			C50.7,9.8,50.3,9.6,50,9.6z"/>
		<path class="st4" d="M53.7,13.1c-0.1,0-0.3,0-0.4-0.1c-0.5-0.2-0.9-0.5-1-1c0-0.1-0.3-0.8,0.2-1.4c0.4-0.5,1.1-0.5,2,0.1
			c0.2,0.1,0.4,0.4,0.4,0.7c0,0.5-0.3,1.1-0.6,1.4C54.1,13.1,53.9,13.1,53.7,13.1z M53.3,10.9c-0.2,0-0.3,0-0.4,0.2
			c-0.3,0.4-0.1,0.9-0.1,0.9l0,0c0.1,0.3,0.4,0.5,0.7,0.6c0.2,0.1,0.4,0.1,0.5,0c0.3-0.2,0.5-0.7,0.4-1c0-0.2-0.1-0.3-0.2-0.3
			C54,11.1,53.6,10.9,53.3,10.9z"/>
		<path class="st4" d="M55.9,15.3c-0.1,0-0.3,0-0.4-0.1c-0.5-0.2-0.9-0.5-1-1c0-0.1-0.3-0.8,0.2-1.4c0.4-0.5,1.1-0.5,2,0.1
			c0.2,0.1,0.4,0.4,0.4,0.7c0,0.5-0.3,1.1-0.6,1.4C56.3,15.3,56.1,15.3,55.9,15.3z M55.4,13.1c-0.2,0-0.3,0-0.4,0.2
			c-0.3,0.4-0.1,0.9-0.1,0.9l0,0c0.1,0.3,0.4,0.5,0.7,0.6c0.2,0.1,0.4,0.1,0.5,0c0.3-0.2,0.5-0.7,0.4-1c0-0.2-0.1-0.3-0.2-0.3
			C56.2,13.3,55.8,13.1,55.4,13.1z"/>
		<path class="st4" d="M59.7,9.7c-0.1,0-0.3,0-0.4-0.1c-0.5-0.2-0.9-0.5-1-1c0-0.1-0.3-0.8,0.2-1.4c0.4-0.5,1.1-0.5,2,0.1
			c0.2,0.1,0.4,0.4,0.4,0.7c0,0.5-0.3,1.1-0.6,1.4C60.1,9.6,59.9,9.7,59.7,9.7z M59.3,7.4c-0.2,0-0.3,0-0.4,0.2
			c-0.3,0.4-0.1,0.9-0.1,0.9l0,0c0.1,0.3,0.4,0.5,0.7,0.6c0.2,0.1,0.4,0.1,0.5,0c0.3-0.2,0.5-0.7,0.4-1c0-0.2-0.1-0.3-0.2-0.3
			C60,7.6,59.6,7.4,59.3,7.4z"/>
		<path class="st4" d="M57.7,6c-0.1,0-0.3,0-0.4-0.1c-0.5-0.2-0.9-0.5-1-1c0-0.1-0.3-0.8,0.2-1.4c0.4-0.5,1.1-0.5,2,0.1
			c0.2,0.1,0.4,0.4,0.4,0.7c0,0.5-0.3,1.1-0.6,1.4C58.1,5.9,57.9,6,57.7,6z M57.2,3.7c-0.2,0-0.3,0-0.4,0.2
			c-0.3,0.4-0.1,0.9-0.1,0.9l0,0c0.1,0.3,0.4,0.5,0.7,0.6c0.2,0.1,0.4,0.1,0.5,0c0.3-0.2,0.5-0.7,0.4-1c0-0.2-0.1-0.3-0.2-0.3
			C58,3.9,57.6,3.7,57.2,3.7z"/>
		<path class="st4" d="M46.2,5.9c-0.1,0-0.3,0-0.4-0.1c-0.5-0.2-0.9-0.5-1-1c0-0.1-0.3-0.8,0.2-1.4C45.4,3,46.2,3,47,3.5
			c0.2,0.1,0.4,0.4,0.4,0.7c0,0.5-0.3,1.1-0.6,1.4C46.6,5.8,46.4,5.9,46.2,5.9z M45.8,3.6c-0.2,0-0.3,0-0.4,0.2
			c-0.3,0.4-0.1,0.9-0.1,0.9l0,0C45.4,5,45.7,5.2,46,5.3c0.2,0.1,0.4,0.1,0.5,0c0.3-0.2,0.5-0.7,0.4-1c0-0.2-0.1-0.3-0.2-0.3
			C46.5,3.8,46.1,3.6,45.8,3.6z"/>
		<path class="st4" d="M55.9,8.8c-0.1,0-0.3,0-0.4-0.1c-0.5-0.2-0.9-0.5-1-1c0-0.1-0.3-0.8,0.2-1.4c0.4-0.5,1.1-0.5,2,0.1
			c0.2,0.1,0.4,0.4,0.4,0.7c0,0.5-0.3,1.1-0.6,1.4C56.3,8.7,56.1,8.8,55.9,8.8z M55.5,6.5c-0.2,0-0.3,0-0.4,0.2
			C54.7,7.1,55,7.6,55,7.6l0,0c0.1,0.3,0.4,0.5,0.7,0.6c0.2,0.1,0.4,0.1,0.5,0c0.3-0.2,0.5-0.7,0.4-1c0-0.2-0.1-0.3-0.2-0.3
			C56.2,6.7,55.8,6.5,55.5,6.5z"/>
	</g>
	<g style="clip-path:url(#SVGID_00000119830892456494605400000001365966732292402357_);">
		<path class="st4" d="M4.3,36.3c0,0-0.1,0-0.1,0c-0.3,0-0.6-0.3-0.9-0.6C3,35.3,2.9,34.8,3,34.4c0.2-0.8,1-0.9,1.5-0.8
			c0.3,0,0.7,0.1,0.9,0.5c0.2,0.3,0.3,0.6,0.4,1c0,0.2,0,0.5-0.2,0.7C5.2,36.1,4.6,36.3,4.3,36.3z M4.2,34.1c-0.2,0-0.6,0.1-0.7,0.4
			c-0.1,0.4,0.1,0.7,0.2,0.8c0.2,0.3,0.4,0.4,0.5,0.4c0.2,0,0.7-0.1,1-0.3c0.1-0.1,0.1-0.2,0.1-0.2c0-0.3-0.2-0.6-0.3-0.8
			c-0.2-0.3-0.4-0.3-0.4-0.3l0,0l0,0C4.4,34.1,4.3,34.1,4.2,34.1z"/>
		<path class="st4" d="M-0.1,38.5c0,0-0.1,0-0.1,0c-0.3,0-0.6-0.3-0.9-0.6c-0.3-0.4-0.3-0.8-0.2-1.2c0.2-0.8,1-0.9,1.5-0.8
			c0.3,0,0.7,0.1,0.9,0.5c0.2,0.3,0.3,0.6,0.4,1c0,0.2,0,0.5-0.2,0.7C0.8,38.3,0.3,38.5-0.1,38.5z M-0.2,36.3
			c-0.2,0-0.6,0.1-0.7,0.4c-0.1,0.4,0.1,0.7,0.2,0.8c0.2,0.3,0.4,0.4,0.5,0.4c0.2,0,0.7-0.1,1-0.3c0.1-0.1,0.1-0.2,0.1-0.2
			c0-0.3-0.2-0.6-0.3-0.8c-0.2-0.3-0.4-0.3-0.4-0.3l0,0l0,0C0.1,36.3,0,36.3-0.2,36.3z"/>
		<path class="st4" d="M0,42.3c0,0-0.1,0-0.1,0c-0.3,0-0.6-0.3-0.9-0.6c-0.3-0.4-0.3-0.8-0.2-1.2c0.2-0.8,1-0.9,1.5-0.8
			c0.7-0.1,1.1,0.7,1.3,1.5c0,0.2,0,0.5-0.2,0.7C0.9,42.1,0.3,42.3,0,42.3z M-0.1,40.1c-0.2,0-0.6,0.1-0.7,0.4
			c-0.1,0.4,0.1,0.7,0.2,0.8c0.2,0.3,0.4,0.4,0.5,0.4c0.2,0,0.7-0.1,1-0.3C1,41.4,1,41.3,1,41.2c-0.1-0.4-0.3-1.1-0.7-1.1l0,0l0,0
			C0.1,40.2,0,40.1-0.1,40.1z"/>
		<path class="st4" d="M3.5,43.2c0,0-0.1,0-0.1,0c-0.3,0-0.6-0.3-0.9-0.6c-0.3-0.4-0.3-0.8-0.2-1.2c0.2-0.8,1-0.9,1.5-0.8
			c0.7-0.1,1.1,0.7,1.3,1.5c0,0.2,0,0.5-0.2,0.7C4.5,43,3.9,43.2,3.5,43.2z M3.5,41c-0.2,0-0.6,0.1-0.7,0.4
			c-0.1,0.4,0.1,0.7,0.2,0.8c0.2,0.3,0.4,0.4,0.5,0.4c0.2,0,0.7-0.1,1-0.3c0.1-0.1,0.1-0.2,0.1-0.2c-0.1-0.4-0.3-1.1-0.7-1.1l0,0
			l0,0C3.7,41.1,3.6,41,3.5,41z"/>
		<path class="st4" d="M1.7,34.5c0,0-0.1,0-0.1,0c-0.3,0-0.6-0.3-0.9-0.6c-0.3-0.4-0.3-0.8-0.2-1.2c0.2-0.8,1-0.9,1.5-0.8
			c0.3,0,0.7,0.1,0.9,0.5c0.2,0.3,0.3,0.6,0.4,1c0,0.2,0,0.5-0.2,0.7C2.6,34.3,2.1,34.5,1.7,34.5z M1.7,32.3c-0.2,0-0.6,0.1-0.7,0.4
			c-0.1,0.4,0.1,0.7,0.2,0.8C1.3,33.8,1.5,34,1.6,34c0.2,0,0.7-0.1,1-0.3c0.1-0.1,0.1-0.2,0.1-0.2c0-0.3-0.2-0.6-0.3-0.8
			C2.2,32.3,2,32.3,2,32.3l0,0l0,0C1.9,32.3,1.8,32.3,1.7,32.3z"/>
		<path class="st4" d="M3.3,31.8c0,0-0.1,0-0.1,0c-0.3,0-0.6-0.3-0.9-0.6c-0.3-0.4-0.3-0.8-0.2-1.2c0.2-0.8,1-0.9,1.5-0.8
			c0.3,0,0.7,0.1,0.9,0.5c0.2,0.3,0.3,0.6,0.4,1c0,0.2,0,0.5-0.2,0.7C4.3,31.6,3.7,31.8,3.3,31.8z M3.3,29.6c-0.2,0-0.6,0.1-0.7,0.4
			c-0.1,0.4,0.1,0.7,0.2,0.8c0.2,0.3,0.4,0.4,0.5,0.4c0.2,0,0.7-0.1,1-0.3c0.1-0.1,0.1-0.2,0.1-0.2c0-0.3-0.2-0.6-0.3-0.8
			c-0.2-0.3-0.4-0.3-0.4-0.3l0,0l0,0C3.5,29.6,3.4,29.6,3.3,29.6z"/>
		<path class="st4" d="M6.2,33.4c0,0-0.1,0-0.1,0c-0.3,0-0.6-0.3-0.9-0.6c-0.3-0.4-0.3-0.8-0.2-1.2c0.2-0.8,1-0.9,1.5-0.8
			c0.3,0,0.7,0.1,0.9,0.5c0.2,0.3,0.3,0.6,0.4,1c0,0.2,0,0.5-0.2,0.7C7.1,33.2,6.6,33.4,6.2,33.4z M6.2,31.2c-0.2,0-0.6,0.1-0.7,0.4
			c-0.1,0.4,0.1,0.7,0.2,0.8c0.2,0.3,0.4,0.4,0.5,0.4c0.2,0,0.7-0.1,1-0.3c0.1-0.1,0.1-0.2,0.1-0.2c0-0.3-0.2-0.6-0.3-0.8
			c-0.2-0.3-0.4-0.3-0.4-0.3l0,0l0,0C6.4,31.2,6.3,31.2,6.2,31.2z"/>
		<path class="st4" d="M5.8,38.2c-0.1,0-0.3,0-0.4-0.1c-0.5-0.2-0.9-0.5-1-1c0-0.1-0.3-0.8,0.2-1.4c0.4-0.5,1.1-0.5,2,0.1
			C6.8,36,6.9,36.3,7,36.6c0,0.5-0.3,1.1-0.6,1.4C6.2,38.2,6,38.2,5.8,38.2z M5.3,35.9c-0.2,0-0.3,0-0.4,0.2C4.6,36.5,4.8,37,4.8,37
			l0,0c0.1,0.3,0.4,0.5,0.7,0.6c0.2,0.1,0.4,0.1,0.5,0c0.3-0.2,0.5-0.7,0.4-1c0-0.2-0.1-0.3-0.2-0.3C6.1,36.1,5.7,35.9,5.3,35.9z"/>
		<path class="st4" d="M2.7,39.8c-0.1,0-0.3,0-0.4-0.1c-0.5-0.2-0.9-0.5-1-1c0-0.1-0.3-0.8,0.2-1.4c0.4-0.5,1.1-0.5,2,0.1
			c0.2,0.1,0.4,0.4,0.4,0.7c0,0.5-0.3,1.1-0.6,1.4C3.1,39.8,2.9,39.8,2.7,39.8z M2.3,37.6c-0.2,0-0.3,0-0.4,0.2
			c-0.3,0.4-0.1,0.9-0.1,0.9l0,0c0.1,0.3,0.4,0.5,0.7,0.6c0.2,0.1,0.4,0.1,0.5,0c0.3-0.2,0.5-0.7,0.4-1c0-0.2-0.1-0.3-0.2-0.3
			C3,37.8,2.6,37.6,2.3,37.6z"/>
		<path class="st4" d="M6,41.2c-0.1,0-0.3,0-0.4-0.1c-0.5-0.2-0.9-0.5-1-1c0-0.1-0.3-0.8,0.2-1.4c0.4-0.5,1.1-0.5,2,0.1
			C7,39,7.2,39.2,7.2,39.5c0,0.5-0.3,1.1-0.6,1.4C6.4,41.1,6.2,41.2,6,41.2z M5.6,38.9c-0.2,0-0.3,0-0.4,0.2
			c-0.3,0.4-0.1,0.9-0.1,0.9l0,0c0.1,0.3,0.4,0.5,0.7,0.6c0.2,0.1,0.4,0.1,0.5,0c0.3-0.2,0.5-0.7,0.4-1c0-0.2-0.1-0.3-0.2-0.3
			C6.3,39.1,5.9,38.9,5.6,38.9z"/>
		<path class="st4" d="M8.2,43.3c-0.1,0-0.3,0-0.4-0.1c-0.5-0.2-0.9-0.5-1-1c0-0.1-0.3-0.8,0.2-1.4c0.4-0.5,1.1-0.5,2,0.1
			c0.2,0.1,0.4,0.4,0.4,0.7c0,0.5-0.3,1.1-0.6,1.4C8.6,43.3,8.4,43.3,8.2,43.3z M7.7,41.1c-0.2,0-0.3,0-0.4,0.2
			c-0.3,0.4-0.1,0.9-0.1,0.9l0,0c0.1,0.3,0.4,0.5,0.7,0.6c0.2,0.1,0.4,0.1,0.5,0c0.3-0.2,0.5-0.7,0.4-1c0-0.2-0.1-0.3-0.2-0.3
			C8.5,41.3,8.1,41.1,7.7,41.1z"/>
		<path class="st4" d="M12,37.7c-0.1,0-0.3,0-0.4-0.1c-0.5-0.2-0.9-0.5-1-1c0-0.1-0.3-0.8,0.2-1.4c0.4-0.5,1.1-0.5,2,0.1
			c0.2,0.1,0.4,0.4,0.4,0.7c0,0.5-0.3,1.1-0.6,1.4C12.4,37.6,12.2,37.7,12,37.7z M11.6,35.4c-0.2,0-0.3,0-0.4,0.2
			c-0.3,0.4-0.1,0.9-0.1,0.9l0,0c0.1,0.3,0.4,0.5,0.7,0.6c0.2,0.1,0.4,0.1,0.5,0c0.3-0.2,0.5-0.7,0.4-1c0-0.2-0.1-0.3-0.2-0.3
			C12.3,35.6,11.9,35.4,11.6,35.4z"/>
		<path class="st4" d="M10,34c-0.1,0-0.3,0-0.4-0.1c-0.5-0.2-0.9-0.5-1-1c0-0.1-0.3-0.8,0.2-1.4c0.4-0.5,1.1-0.5,2,0.1
			c0.2,0.1,0.4,0.4,0.4,0.7c0,0.5-0.3,1.1-0.6,1.4C10.4,33.9,10.2,34,10,34z M9.5,31.7c-0.2,0-0.3,0-0.4,0.2C8.8,32.3,9,32.8,9,32.8
			l0,0c0.1,0.3,0.4,0.5,0.7,0.6c0.2,0.1,0.4,0.1,0.5,0c0.3-0.2,0.5-0.7,0.4-1c0-0.2-0.1-0.3-0.2-0.3C10.3,31.9,9.9,31.7,9.5,31.7z"
			/>
		<path class="st4" d="M8.2,36.8c-0.1,0-0.3,0-0.4-0.1c-0.5-0.2-0.9-0.5-1-1c0-0.1-0.3-0.8,0.2-1.4c0.4-0.5,1.1-0.5,2,0.1
			c0.2,0.1,0.4,0.4,0.4,0.7c0,0.5-0.3,1.1-0.6,1.4C8.6,36.7,8.4,36.8,8.2,36.8z M7.8,34.5c-0.2,0-0.3,0-0.4,0.2
			c-0.3,0.4-0.1,0.9-0.1,0.9l0,0c0.1,0.3,0.4,0.5,0.7,0.6c0.2,0.1,0.4,0.1,0.5,0c0.3-0.2,0.5-0.7,0.4-1c0-0.2-0.1-0.3-0.2-0.3
			C8.5,34.7,8.1,34.5,7.8,34.5z"/>
	</g>
</g>
</svg>
