<?xml version="1.0" encoding="utf-8"?>
<!-- Generator: Adobe Illustrator 26.1.0, SVG Export Plug-In . SVG Version: 6.00 Build 0)  -->
<svg version="1.1" id="Layer_1" xmlns="http://www.w3.org/2000/svg" xmlns:xlink="http://www.w3.org/1999/xlink" x="0px" y="0px"
	 viewBox="0 0 68 60" style="enable-background:new 0 0 68 60;" xml:space="preserve">
<style type="text/css">
	.st0{fill:#FCE899;}
	.st1{fill:#008E60;}
	.st2{fill:#F7C600;}
	.st3{fill:#FAEE8C;}
	.st4{fill:#FFFFFF;}
	.st5{fill:#F39F00;}
	.st6{fill:#FFF1E7;}
	.st7{fill:#FFB7A1;}
	.st8{fill:#FA7463;}
	.st9{fill:#007F4F;}
	.st10{fill:#FF3008;}
	.st11{fill:#FF807B;}
	.st12{fill:#FF706B;}
	.st13{fill:#FFD7C7;}
	.st14{fill:#007947;}
	.st15{fill:#62C0C3;}
	.st16{fill:#E7E5D9;}
	.st17{fill:#00858C;}
	.st18{fill:#C5C4AD;}
	.st19{fill:#FF4F2D;}
	.st20{fill:#F9DB4B;}
	.st21{fill:#FFE900;}
	.st22{fill:#F8CC00;}
	.st23{fill:#EECA00;}
	.st24{fill:#E3B300;}
	.st25{fill:#FFFBE8;}
	.st26{fill:#FB8677;}
	.st27{fill:#FFB1AE;}
	.st28{fill:#FF5534;}
	.st29{fill:#409C7A;}
	.st30{fill:#BCE9EA;}
	.st31{fill:#029999;}
	.st32{fill:#BCBBA4;}
	.st33{fill:#8CD7D9;}
	.st34{fill:none;stroke:#F9BEAA;stroke-width:0.5;stroke-miterlimit:10;}
	.st35{fill:#075B46;}
	.st36{fill:#68E1DE;}
	.st37{fill:#E8FCFB;}
	.st38{fill:#17A3A9;}
	.st39{fill:#00838A;}
	.st40{fill:#008344;}
	.st41{fill:#FD7B2F;}
	.st42{fill:#FBAC6B;}
	.st43{fill:#E54E03;}
	.st44{fill:#FE8D4B;}
	.st45{fill:#017946;}
	.st46{fill:#BD8800;}
	.st47{fill:#86CED1;}
	.st48{fill:#058C60;}
	.st49{fill:#E85658;}
	.st50{fill:#FDAFAC;}
	.st51{fill:#EF9595;}
	.st52{fill:#D5A600;}
	.st53{fill:#007F3A;}
	.st54{fill:#FF838B;}
	.st55{fill:#FDC1BE;}
	.st56{fill:#954C00;}
	.st57{fill:#FFB8A2;}
	.st58{fill:#F9BEAA;}
	.st59{fill:#A16C00;}
	.st60{fill:#C7C6B7;}
	.st61{fill:#DFDED5;}
	.st62{fill:#FF7168;}
	.st63{fill:#FADB5C;}
	.st64{fill:#002F10;}
	.st65{fill:#C4AB80;}
	.st66{clip-path:url(#SVGID_00000039827175537193015460000006110626985452986520_);fill:#FDEFB5;}
	.st67{clip-path:url(#SVGID_00000039827175537193015460000006110626985452986520_);}
	.st68{clip-path:url(#SVGID_00000039827175537193015460000006110626985452986520_);fill:#4ADEDB;}
	.st69{fill:#FF2D00;}
	.st70{clip-path:url(#SVGID_00000168801303898369726570000013814081103092906889_);fill:#FDEFB5;}
	.st71{clip-path:url(#SVGID_00000168801303898369726570000013814081103092906889_);}
	.st72{clip-path:url(#SVGID_00000057837681953947372850000007602324921833926545_);fill:#FDEFB5;}
	.st73{clip-path:url(#SVGID_00000057837681953947372850000007602324921833926545_);}
	.st74{clip-path:url(#SVGID_00000057837681953947372850000007602324921833926545_);fill:#F7C600;}
	.st75{clip-path:url(#SVGID_00000022543057728678722290000018000154057889267102_);fill:#FDEFB5;}
	.st76{clip-path:url(#SVGID_00000022543057728678722290000018000154057889267102_);}
	.st77{clip-path:url(#SVGID_00000022543057728678722290000018000154057889267102_);fill:#007947;}
	.st78{clip-path:url(#SVGID_00000022543057728678722290000018000154057889267102_);fill:#F7C600;}
	.st79{clip-path:url(#SVGID_00000022543057728678722290000018000154057889267102_);fill:#FFFFFF;}
	.st80{clip-path:url(#SVGID_00000080184760074258605180000000150348294041011587_);fill:#FDEFB5;}
	.st81{clip-path:url(#SVGID_00000080887572821292196760000014490247413744212352_);}
	.st82{clip-path:url(#SVGID_00000052815755807762075520000002962473542390311566_);fill:#FDEFB5;}
	.st83{clip-path:url(#SVGID_00000052815755807762075520000002962473542390311566_);}
	.st84{fill:#452700;}
	.st85{fill:#643B00;}
	.st86{fill:#C6C5B1;}
	.st87{fill:#0F2A1D;}
	.st88{fill:#E8C500;}
	.st89{fill:#006873;}
	.st90{clip-path:url(#SVGID_00000097474705863425090400000008850207324894889353_);fill:#FDEFB5;}
	.st91{clip-path:url(#SVGID_00000097474705863425090400000008850207324894889353_);}
	.st92{clip-path:url(#SVGID_00000040571172978202097090000000576316600541995966_);fill:#FDEFB5;}
	.st93{clip-path:url(#SVGID_00000040571172978202097090000000576316600541995966_);}
	.st94{fill:#388E90;}
	.st95{clip-path:url(#SVGID_00000139282226582397779780000005581362701500787884_);}
	.st96{fill:#FCEDB4;}
	.st97{clip-path:url(#SVGID_00000139282226582397779780000005581362701500787884_);fill:#017946;}
	.st98{clip-path:url(#SVGID_00000139282226582397779780000005581362701500787884_);fill:#BD8800;}
	.st99{clip-path:url(#SVGID_00000139282226582397779780000005581362701500787884_);fill:#058C60;}
	.st100{clip-path:url(#SVGID_00000139282226582397779780000005581362701500787884_);fill:#F7C600;}
	.st101{clip-path:url(#SVGID_00000139282226582397779780000005581362701500787884_);fill:#FF5534;}
	.st102{clip-path:url(#SVGID_00000139282226582397779780000005581362701500787884_);fill:#D5A600;}
	.st103{clip-path:url(#SVGID_00000120548461406428863140000010972388283261687217_);}
	.st104{fill:#FDEFB5;}
	.st105{clip-path:url(#SVGID_00000024002196640504225890000013945117917422012578_);fill:none;}
	.st106{clip-path:url(#SVGID_00000024002196640504225890000013945117917422012578_);fill:#FDEFB5;}
	.st107{clip-path:url(#SVGID_00000024002196640504225890000013945117917422012578_);}
	.st108{clip-path:url(#SVGID_00000024002196640504225890000013945117917422012578_);fill:#C4AB80;}
	.st109{clip-path:url(#SVGID_00000024002196640504225890000013945117917422012578_);fill:#FF3008;}
	.st110{clip-path:url(#SVGID_00000174591196268629207050000003444130957223389097_);fill:#FDEFB5;}
	.st111{clip-path:url(#SVGID_00000174591196268629207050000003444130957223389097_);}
	.st112{fill:#4A2500;}
	.st113{clip-path:url(#SVGID_00000115496726090985500170000007768464566226152332_);fill:#FDEFB5;}
	.st114{clip-path:url(#SVGID_00000115496726090985500170000007768464566226152332_);}
	.st115{fill:#24372B;}
	.st116{clip-path:url(#SVGID_00000110454476473922232760000007565383868604741560_);fill:#FDEFB5;}
	.st117{clip-path:url(#SVGID_00000110454476473922232760000007565383868604741560_);}
	.st118{fill:#93D4D6;}
	.st119{fill:#A8A799;}
	.st120{fill:#037A4F;}
	.st121{fill:#B17C52;}
	.st122{fill:#C38C61;}
	.st123{fill:#DBB18E;}
	.st124{fill:#C7956E;}
	.st125{fill:#017575;}
	.st126{clip-path:url(#SVGID_00000176731531030309117670000014068849975497212564_);fill:#FDEFB5;}
	.st127{clip-path:url(#SVGID_00000176731531030309117670000014068849975497212564_);}
	.st128{fill:#CF7D2A;}
	.st129{fill:#91DADA;}
	.st130{fill:#BEE2CD;}
	.st131{fill:#FF0000;}
	.st132{fill:#E6CB7E;}
	.st133{fill:#D5B45E;}
	.st134{fill:none;stroke:#C7C6B5;stroke-width:0.75;stroke-miterlimit:10;}
	.st135{fill:#FF9E9E;}
	.st136{fill:#BD834E;}
	.st137{clip-path:url(#SVGID_00000175322084607981975940000009321370214965325995_);fill:#FDEFB5;}
	.st138{clip-path:url(#SVGID_00000175322084607981975940000009321370214965325995_);}
</style>
<g>
	<defs>
		<circle id="SVGID_00000021825948470533362030000011883715002370650759_" cx="34.1" cy="30" r="30"/>
	</defs>
	<use xlink:href="#SVGID_00000021825948470533362030000011883715002370650759_"  style="overflow:visible;fill:#FBEF8D;"/>
	<clipPath id="SVGID_00000054223670359529091800000003772440742641575331_">
		<use xlink:href="#SVGID_00000021825948470533362030000011883715002370650759_"  style="overflow:visible;"/>
	</clipPath>
	
		<circle style="clip-path:url(#SVGID_00000054223670359529091800000003772440742641575331_);fill:#FDEFB5;" cx="34.1" cy="30" r="30"/>
	<g style="clip-path:url(#SVGID_00000054223670359529091800000003772440742641575331_);">
		<path class="st1" d="M57.7,33.7l0.6,26.9l-25.7,0.8l-0.8-25.7c0,0,12.2-11.1,13.1-10.6C45.8,25.5,57.7,33.7,57.7,33.7z"/>
		<path class="st8" d="M16.7,28.2c0.6-0.3,0.9-1.5,1.4-1.3c0.5,0.2,1.5,1,1.8,0.9s1.6-1.8,2-1.6c0.4,0.2,0.9,1,1.3,1.1
			c0.4,0.1,1.7-1,2.4-0.5c0.7,0.5,0.7,1.6,1.2,1.6s3-0.6,3.1,0c0.1,0.6,0.1,1.8,0.5,1.9s1.8,0.2,2.1,0.6s0.1,1.6,0.4,1.9
			s2.2,1.3,2.2,1.3l-0.4,2.3c0,0,1.3,0.5,1.5,1c0.2,0.5-0.6,1.4-0.5,1.7c0.1,0.3,1,2,1,2.4c0,0.3-0.9,1.2-0.9,1.6s0.5,1.5,0.5,2
			s-1.4,1.3-1.5,1.6c-0.1,0.3,0.4,2,0.1,2.3c-0.2,0.3-2,0.6-2,1c0,0.4-0.1,2.1-0.5,2.3c-0.3,0.3-1.9-0.4-2.2,0.1
			c-0.3,0.5-0.6,2.1-1,2.2c-0.3,0.1-1.9-0.8-2.2-0.3c-0.2,0.5-1,1.7-1.6,1.7c-0.6-0.1-2.1-0.6-2.1-0.6s-1.5,1-2,1S20,55.3,20,55.3
			s-2.2,1.2-2.6,0.8s-1-1.3-1.1-1.6s-1.9,0.8-2.3,0.3c-0.4-0.5-0.7-1.8-0.8-2.2s-2.1,0-2.2-0.5c-0.2-0.5-0.4-1.6-0.5-2
			s-1.6-0.6-1.8-1.1c-0.2-0.5,0.3-1.6,0.1-2.2c-0.2-0.5-1.6-0.8-1.7-1.5c-0.1-0.7,0.6-1.6,0.6-1.9c0.1-0.3-1-1.8-1-2.2
			c0-0.4,1.1-1.7,1.1-1.7s-0.8-1.4-0.6-2s1.3-1.2,1.5-1.5s-0.2-2,0.2-2.4s1.6-0.5,1.9-0.8s-0.2-1.6,0.4-2s1.8-0.1,2.1-0.5
			c0.2-0.3,0.3-2.1,1-2.2C14.8,28,16.5,28.3,16.7,28.2z"/>
		
			<rect x="14.7" y="40" transform="matrix(0.3524 -0.9359 0.9359 0.3524 -23.3547 46.9591)" class="st4" width="15.1" height="0.6"/>
		<path class="st4" d="M26.5,46.4c-0.1,0-0.1,0-0.2,0c-0.8,0-1.4-0.5-1.7-1.2c-0.4-0.9-0.2-2,0.4-2.7c0.4-0.5,1-0.7,1.7-0.5
			c0.8,0.2,1.5,0.8,1.6,1.5c0.2,0.9,0.1,1.7-0.3,2.2C27.8,46.1,27.3,46.4,26.5,46.4z M26.3,42.6c-0.2,0-0.5,0.1-0.8,0.3h0
			c-0.4,0.5-0.6,1.4-0.3,2c0.1,0.3,0.5,0.7,1.2,0.8c0.5,0,1-0.1,1.2-0.4c0.3-0.4,0.4-1,0.2-1.7c-0.1-0.5-0.6-0.9-1.2-1
			C26.5,42.6,26.4,42.6,26.3,42.6z"/>
		<path class="st4" d="M17.9,39.5c-0.1,0-0.1,0-0.2,0c-0.8,0-1.4-0.5-1.7-1.2c-0.4-0.9-0.2-2,0.4-2.7l0,0c0.4-0.5,1-0.7,1.7-0.5
			c0.8,0.2,1.5,0.8,1.6,1.5c0.2,0.9,0.1,1.7-0.3,2.2C19.2,39.2,18.7,39.5,17.9,39.5z M17.6,35.7c-0.2,0-0.5,0.1-0.8,0.3h0
			c-0.4,0.5-0.6,1.4-0.3,2c0.1,0.3,0.5,0.7,1.2,0.8c0.5,0,1-0.1,1.2-0.4c0.3-0.4,0.4-1,0.2-1.7c-0.1-0.5-0.6-0.9-1.2-1
			C17.9,35.7,17.8,35.7,17.6,35.7z"/>
	</g>
	<g style="clip-path:url(#SVGID_00000054223670359529091800000003772440742641575331_);">
		<path class="st4" d="M24.4,12.1c-0.5,0-1.1-0.1-1.7-0.3c-2.4-0.8-3.6-2.1-4.1-2.8l-0.1-0.2c-0.3-0.4-0.7-0.7-1-1.1
			c-1.3-1.4-2.2-2.4-1.8-3.2c0.7-1.4,7.1,1,7.1,1c3.5,1.3,5,2.9,4.8,4.9c0,0.3-0.3,0.7-0.7,0.9C26.4,11.8,25.4,12.1,24.4,12.1z
			 M16.8,4.7c-0.4,0-0.6,0.1-0.6,0.2c-0.3,0.5,0.6,1.4,1.7,2.6c0.3,0.3,0.6,0.7,1,1.1l0.1,0.2c0.6,0.7,1.6,1.9,3.9,2.6
			c1.5,0.5,3,0.2,3.8-0.3c0.3-0.2,0.5-0.4,0.5-0.6c0.1-0.6,0.3-2.5-4.5-4.3C20.6,5.3,17.9,4.7,16.8,4.7z"/>
		<path class="st4" d="M19.6,17.4c-0.4,0-1-0.2-1.5-0.6c-1.3-1-2.8-3.3-3.1-6.9c-0.2-2.1,0.6-5.1,0.6-5.2c0-0.1,0.1-0.1,0.1-0.2
			c0.1,0,0.1,0,0.2,0c0.2,0.1,3.8,1.4,5.4,6.7c0.1,0.3,1,3.4,0,5.1c-0.3,0.6-0.8,0.9-1.5,1l0,0C19.8,17.4,19.7,17.4,19.6,17.4z
			 M19.8,17.1L19.8,17.1L19.8,17.1z M16.1,5.1c-0.2,0.8-0.7,3.1-0.5,4.7c0.3,3.4,1.7,5.6,2.9,6.5c0.5,0.4,1,0.5,1.3,0.5l0,0
			c0.5-0.1,0.9-0.3,1.1-0.8c0.7-1.2,0.3-3.5,0-4.7C19.6,7.1,16.9,5.5,16.1,5.1z"/>
		<path class="st4" d="M12.2,18.7c-0.4,0-0.7-0.1-1.1-0.4c-1.4-0.9-1.5-5.4,1.3-9.9c1.2-2,3.7-3.9,3.8-4c0.1,0,0.1-0.1,0.2,0
			c0.1,0,0.1,0.1,0.2,0.1c0.1,0.2,1.8,4-0.4,9.7c-0.1,0.4-1.5,3.8-3.4,4.4C12.6,18.7,12.4,18.7,12.2,18.7z M16.2,5
			c-0.7,0.6-2.5,2.1-3.4,3.7c-2.8,4.5-2.5,8.5-1.4,9.3l0,0c0.4,0.3,0.8,0.3,1.2,0.2c1.4-0.4,2.6-2.8,3.1-4.1C17.5,9.4,16.6,6,16.2,5
			z"/>
	</g>
	<g style="clip-path:url(#SVGID_00000054223670359529091800000003772440742641575331_);">
		<path class="st4" d="M63.6,30c-0.3,0-0.7-0.2-1-0.5c-0.7-0.7-1.3-2.3-1-3.9c0.3-2.4,1.4-3.7,1.9-4.3l0.1-0.1
			c0.3-0.4,0.6-0.7,0.8-1.1c1.1-1.5,1.9-2.4,2.7-2.2c1.4,0.4,0.2,6.8,0.2,6.9C66.8,28.2,65.5,29.9,63.6,30L63.6,30
			C63.7,30,63.6,30,63.6,30z M63.7,29.7L63.7,29.7L63.7,29.7z M67,18.3c-0.5,0-1.2,0.9-2.1,2c-0.3,0.3-0.5,0.7-0.8,1.1L64,21.5
			c-0.5,0.6-1.5,1.8-1.8,4.1c-0.2,1.4,0.3,2.9,0.9,3.5c0.2,0.2,0.4,0.4,0.6,0.4l0,0c0.6,0,2.4-0.1,3.3-4.9c0.5-2.7,0.6-6.1,0.1-6.3
			C67.1,18.3,67,18.3,67,18.3z"/>
		<path class="st4" d="M58.4,25.2c-0.4,0-0.8-0.1-1.2-0.2c-0.6-0.2-1-0.6-1.2-1.2l0,0c-0.2-0.5-0.1-1.1,0.3-1.7c0.7-1.4,2.7-3.1,6-4
			c2-0.5,4.9-0.3,5-0.2c0.1,0,0.1,0,0.2,0.1c0,0.1,0.1,0.1,0,0.2c0,0.2-0.7,3.7-5.4,6.1C61.8,24.3,60,25.2,58.4,25.2z M56.5,23.6
			c0.2,0.5,0.5,0.8,0.9,0.9c1.3,0.5,3.4-0.2,4.4-0.7c3.8-1.9,4.8-4.6,5.1-5.5c-0.8-0.1-3-0.2-4.5,0.2c-3.2,0.8-5,2.5-5.7,3.8
			C56.5,22.8,56.4,23.3,56.5,23.6L56.5,23.6z"/>
		<path class="st4" d="M61.6,20.2c-1,0-2.1-0.1-3.2-0.3c-0.4-0.1-3.8-0.8-4.7-2.5c-0.3-0.5-0.3-1,0-1.6v0c0.7-1.4,4.8-2.3,9.5-0.4
			c2.1,0.8,4.3,2.8,4.4,2.9c0.1,0.1,0.1,0.1,0.1,0.2s0,0.1-0.1,0.2C67.5,18.7,65.4,20.2,61.6,20.2z M54.2,15.9
			c-0.2,0.4-0.2,0.8,0,1.1c0.6,1.2,3,2,4.3,2.3c4.6,0.9,7.6-0.4,8.5-0.9c-0.6-0.5-2.4-2-4-2.6C58.5,13.9,54.7,14.8,54.2,15.9
			L54.2,15.9z"/>
	</g>
	<path style="clip-path:url(#SVGID_00000054223670359529091800000003772440742641575331_);fill:#007947;" d="M44.4,29.9
		c-0.1,0-0.2-0.1-0.2-0.2c0-0.1-0.5-4.2-1.4-8.4c-1,0-2.2-0.2-3.6-0.7c-1.6-0.6-4.8-3.4-5.1-6.1c-0.1-1.3,0.5-2.4,1.9-3.2
		c0.9-0.5,1.7-0.5,2.5-0.1c2.2,1.1,3.7,5.4,4.7,9.6c3-0.3,4.4-2.6,5.4-4.3c0.1-0.1,0.2-0.2,0.3-0.1c0.1,0.1,0.2,0.2,0.1,0.3
		c-1,1.7-2.5,4.2-5.7,4.6c1,4.2,1.4,8.1,1.4,8.4C44.6,29.7,44.5,29.9,44.4,29.9C44.4,29.9,44.4,29.9,44.4,29.9z M37.3,11.4
		c-0.4,0-0.7,0.1-1.1,0.3c-1.2,0.7-1.7,1.6-1.6,2.7c0.2,2.4,3.2,5.1,4.7,5.7c1.3,0.5,2.3,0.6,3.3,0.6c-1-4-2.4-8.1-4.4-9.1
		C37.9,11.4,37.6,11.4,37.3,11.4z"/>
	<g style="clip-path:url(#SVGID_00000054223670359529091800000003772440742641575331_);">
		<path class="st4" d="M45.5,51.5C45.5,51.5,45.5,51.5,45.5,51.5c-0.1,0-0.2-0.1-0.2-0.1c0-0.1,0-0.2,0-0.3c0.1-0.1,2.4-2.9,4.2-3.1
			c0.3,0,0.5,0.1,0.5,0.3c0.2,0.6-0.6,1.7-1.9,2.4l0,0C46.9,51.5,45.7,51.5,45.5,51.5z M49.6,48.5c-1.2,0.1-2.8,1.6-3.5,2.4
			c0.5-0.1,1.2-0.2,1.9-0.6l0,0C49.2,49.7,49.7,48.7,49.6,48.5z"/>
		<path class="st4" d="M40.7,57c-0.1,0-0.2,0-0.2-0.1c-0.1-0.1,0-0.3,0.1-0.3c7.2-4,5.6-12.6,5.6-12.7c0-0.1,0.1-0.3,0.2-0.3
			c0.1,0,0.3,0.1,0.3,0.2c0,0.1,1.7,9-5.9,13.2C40.7,57,40.7,57,40.7,57z"/>
	</g>
	<path style="clip-path:url(#SVGID_00000054223670359529091800000003772440742641575331_);fill:#F7C600;" d="M43,37.8
		c0,0-3.2-1.7-3.3,0.6c-0.1,1.9,2.9,5.1,5.5,5.3c2.6,0.2,3.9-1.7,4.3-4.2c0.3-1.8,0-4.5-1.9-5c-1.1-0.3-1.6,1.1-1.6,1.1
		s-1.9-0.9-2.7-0.1C42.4,36.3,43,37.8,43,37.8z"/>
	<path style="clip-path:url(#SVGID_00000054223670359529091800000003772440742641575331_);fill:#FFFFFF;" d="M44.3,40.1
		C44.3,40.1,44.3,40.1,44.3,40.1c-0.8-0.1-1.4-1.8-1.5-2.3c0-0.1,0-0.2,0.1-0.3c0.1-0.1,0.2-0.1,0.3,0c1.1,0.5,1.7,1,1.8,1.5
		c0.1,0.3,0,0.5-0.1,0.7C44.7,40,44.5,40.1,44.3,40.1z M43.5,38.3c0.3,0.7,0.6,1.3,0.8,1.3c0,0,0.1,0,0.1-0.1
		c0.1-0.1,0.1-0.2,0.1-0.3C44.4,38.9,44.1,38.6,43.5,38.3z"/>
	<path style="clip-path:url(#SVGID_00000054223670359529091800000003772440742641575331_);fill:#FFFFFF;" d="M46.7,37.5
		c-0.1,0-0.1,0-0.2,0c-0.3-0.1-0.6-0.5-0.7-1c-0.1-0.3-0.1-0.5,0-0.8c-0.1-0.1-0.1-0.2,0-0.3c0,0,0.1-0.1,0.1-0.1
		c0.1-0.5,0.4-0.7,0.4-0.7c0.1-0.1,0.3-0.1,0.4,0c0.1,0.1,0.1,0.3,0,0.4c0,0-0.2,0.2-0.3,0.6c0.4,0.3,1,0.9,1,1.4
		c0,0.1,0,0.3-0.1,0.3C47.1,37.5,46.9,37.5,46.7,37.5z M46.3,36.2c0,0.1,0,0.2,0,0.2c0.1,0.4,0.2,0.6,0.3,0.6c0.1,0,0.2-0.1,0.3-0.1
		C46.9,36.8,46.7,36.5,46.3,36.2z"/>
</g>
</svg>
