<?xml version="1.0" encoding="utf-8"?>
<!-- Generator: Adobe Illustrator 26.1.0, SVG Export Plug-In . SVG Version: 6.00 Build 0)  -->
<svg version="1.1" id="Layer_1" xmlns="http://www.w3.org/2000/svg" xmlns:xlink="http://www.w3.org/1999/xlink" x="0px" y="0px"
	 viewBox="0 0 68 60" style="enable-background:new 0 0 68 60;" xml:space="preserve">
<style type="text/css">
	.st0{fill:#FCE899;}
	.st1{fill:#008E60;}
	.st2{fill:#F7C600;}
	.st3{fill:#FAEE8C;}
	.st4{fill:#FFFFFF;}
	.st5{fill:#F39F00;}
	.st6{fill:#FFF1E7;}
	.st7{fill:#FFB7A1;}
	.st8{fill:#FA7463;}
	.st9{fill:#007F4F;}
	.st10{fill:#FF3008;}
	.st11{fill:#FF807B;}
	.st12{fill:#FF706B;}
	.st13{fill:#FFD7C7;}
	.st14{fill:#007947;}
	.st15{fill:#62C0C3;}
	.st16{fill:#E7E5D9;}
	.st17{fill:#00858C;}
	.st18{fill:#C5C4AD;}
	.st19{fill:#FF4F2D;}
	.st20{fill:#F9DB4B;}
	.st21{fill:#FFE900;}
	.st22{fill:#F8CC00;}
	.st23{fill:#EECA00;}
	.st24{fill:#E3B300;}
	.st25{fill:#FFFBE8;}
	.st26{fill:#FB8677;}
	.st27{fill:#FFB1AE;}
	.st28{fill:#FF5534;}
	.st29{fill:#409C7A;}
	.st30{fill:#BCE9EA;}
	.st31{fill:#029999;}
	.st32{fill:#BCBBA4;}
	.st33{fill:#8CD7D9;}
	.st34{fill:none;stroke:#F9BEAA;stroke-width:0.5;stroke-miterlimit:10;}
	.st35{fill:#075B46;}
	.st36{fill:#68E1DE;}
	.st37{fill:#E8FCFB;}
	.st38{fill:#17A3A9;}
	.st39{fill:#00838A;}
	.st40{fill:#008344;}
	.st41{fill:#FD7B2F;}
	.st42{fill:#FBAC6B;}
	.st43{fill:#E54E03;}
	.st44{fill:#FE8D4B;}
	.st45{fill:#017946;}
	.st46{fill:#BD8800;}
	.st47{fill:#86CED1;}
	.st48{fill:#058C60;}
	.st49{fill:#E85658;}
	.st50{fill:#FDAFAC;}
	.st51{fill:#EF9595;}
	.st52{fill:#D5A600;}
	.st53{fill:#007F3A;}
	.st54{fill:#FF838B;}
	.st55{fill:#FDC1BE;}
	.st56{fill:#954C00;}
	.st57{fill:#FFB8A2;}
	.st58{fill:#F9BEAA;}
	.st59{fill:#A16C00;}
	.st60{fill:#C7C6B7;}
	.st61{fill:#DFDED5;}
	.st62{fill:#FF7168;}
	.st63{fill:#FADB5C;}
	.st64{fill:#002F10;}
	.st65{fill:#C4AB80;}
	.st66{clip-path:url(#SVGID_00000135650524466090739290000001513194731897270688_);fill:#FDEFB5;}
	.st67{clip-path:url(#SVGID_00000135650524466090739290000001513194731897270688_);}
	.st68{clip-path:url(#SVGID_00000135650524466090739290000001513194731897270688_);fill:#4ADEDB;}
	.st69{fill:#FF2D00;}
	.st70{clip-path:url(#SVGID_00000117657899290458638030000004469897660376585603_);fill:#FDEFB5;}
	.st71{clip-path:url(#SVGID_00000117657899290458638030000004469897660376585603_);}
	.st72{clip-path:url(#SVGID_00000093899181763075297350000006133059394721677216_);fill:#FDEFB5;}
	.st73{clip-path:url(#SVGID_00000093899181763075297350000006133059394721677216_);}
	.st74{clip-path:url(#SVGID_00000093899181763075297350000006133059394721677216_);fill:#F7C600;}
	.st75{clip-path:url(#SVGID_00000044173555897358712460000004181595589519850135_);fill:#FDEFB5;}
	.st76{clip-path:url(#SVGID_00000044173555897358712460000004181595589519850135_);}
	.st77{clip-path:url(#SVGID_00000044173555897358712460000004181595589519850135_);fill:#007947;}
	.st78{clip-path:url(#SVGID_00000044173555897358712460000004181595589519850135_);fill:#F7C600;}
	.st79{clip-path:url(#SVGID_00000044173555897358712460000004181595589519850135_);fill:#FFFFFF;}
	.st80{clip-path:url(#SVGID_00000109020962914221227120000011315075532162622902_);fill:#FDEFB5;}
	.st81{clip-path:url(#SVGID_00000000910818302892146020000005803521229550138031_);}
	.st82{clip-path:url(#SVGID_00000062874814674674662310000009677704661678165381_);fill:#FDEFB5;}
	.st83{clip-path:url(#SVGID_00000062874814674674662310000009677704661678165381_);}
	.st84{fill:#452700;}
	.st85{fill:#643B00;}
	.st86{fill:#C6C5B1;}
	.st87{fill:#0F2A1D;}
	.st88{fill:#E8C500;}
	.st89{fill:#006873;}
	.st90{clip-path:url(#SVGID_00000086667878583827358580000011223788087650187941_);fill:#FDEFB5;}
	.st91{clip-path:url(#SVGID_00000086667878583827358580000011223788087650187941_);}
	.st92{clip-path:url(#SVGID_00000046319897033314629260000003525995223395921327_);fill:#FDEFB5;}
	.st93{clip-path:url(#SVGID_00000046319897033314629260000003525995223395921327_);}
	.st94{fill:#388E90;}
	.st95{clip-path:url(#SVGID_00000008120575266678787650000008422695581447900048_);}
	.st96{fill:#FCEDB4;}
	.st97{clip-path:url(#SVGID_00000008120575266678787650000008422695581447900048_);fill:#017946;}
	.st98{clip-path:url(#SVGID_00000008120575266678787650000008422695581447900048_);fill:#BD8800;}
	.st99{clip-path:url(#SVGID_00000008120575266678787650000008422695581447900048_);fill:#058C60;}
	.st100{clip-path:url(#SVGID_00000008120575266678787650000008422695581447900048_);fill:#F7C600;}
	.st101{clip-path:url(#SVGID_00000008120575266678787650000008422695581447900048_);fill:#FF5534;}
	.st102{clip-path:url(#SVGID_00000008120575266678787650000008422695581447900048_);fill:#D5A600;}
	.st103{clip-path:url(#SVGID_00000065068897704164670210000014914313218618402176_);}
	.st104{fill:#FDEFB5;}
	.st105{clip-path:url(#SVGID_00000000194482517014225170000000474822968410388371_);fill:none;}
	.st106{clip-path:url(#SVGID_00000000194482517014225170000000474822968410388371_);fill:#FDEFB5;}
	.st107{clip-path:url(#SVGID_00000000194482517014225170000000474822968410388371_);}
	.st108{clip-path:url(#SVGID_00000000194482517014225170000000474822968410388371_);fill:#C4AB80;}
	.st109{clip-path:url(#SVGID_00000000194482517014225170000000474822968410388371_);fill:#FF3008;}
	.st110{clip-path:url(#SVGID_00000155831688301427589970000004134250096250098819_);fill:#FDEFB5;}
	.st111{clip-path:url(#SVGID_00000155831688301427589970000004134250096250098819_);}
	.st112{fill:#4A2500;}
	.st113{clip-path:url(#SVGID_00000087412749123934506820000015702252188219199659_);fill:#FDEFB5;}
	.st114{clip-path:url(#SVGID_00000087412749123934506820000015702252188219199659_);}
	.st115{fill:#24372B;}
	.st116{clip-path:url(#SVGID_00000024714411847496415500000015539792547938412428_);fill:#FDEFB5;}
	.st117{clip-path:url(#SVGID_00000024714411847496415500000015539792547938412428_);}
	.st118{fill:#93D4D6;}
	.st119{fill:#A8A799;}
	.st120{fill:#037A4F;}
	.st121{fill:#B17C52;}
	.st122{fill:#C38C61;}
	.st123{fill:#DBB18E;}
	.st124{fill:#C7956E;}
	.st125{fill:#017575;}
	.st126{clip-path:url(#SVGID_00000168836976022981599330000004215939903899019165_);fill:#FDEFB5;}
	.st127{clip-path:url(#SVGID_00000168836976022981599330000004215939903899019165_);}
	.st128{fill:#CF7D2A;}
	.st129{fill:#91DADA;}
	.st130{fill:#BEE2CD;}
	.st131{fill:#FF0000;}
	.st132{fill:#E6CB7E;}
	.st133{fill:#D5B45E;}
	.st134{fill:none;stroke:#C7C6B5;stroke-width:0.75;stroke-miterlimit:10;}
	.st135{fill:#FF9E9E;}
	.st136{fill:#BD834E;}
	.st137{clip-path:url(#SVGID_00000103977277623020724440000017568454273874348732_);fill:#FDEFB5;}
	.st138{clip-path:url(#SVGID_00000103977277623020724440000017568454273874348732_);}
</style>
<g>
	<defs>
		<circle id="SVGID_00000091003364578811465370000013704465930575651749_" cx="33.9" cy="30" r="30"/>
	</defs>
	<clipPath id="SVGID_00000137817392125693832800000004359295043147626163_">
		<use xlink:href="#SVGID_00000091003364578811465370000013704465930575651749_"  style="overflow:visible;"/>
	</clipPath>
	
		<circle style="clip-path:url(#SVGID_00000137817392125693832800000004359295043147626163_);fill:#FDEFB5;" cx="33.9" cy="30" r="30"/>
	<g style="clip-path:url(#SVGID_00000137817392125693832800000004359295043147626163_);">
		<g>
			<path class="st45" d="M49.2,39.3C49.2,39.3,49.2,39.3,49.2,39.3l-40.2-1c-0.1,0-0.2,0-0.2-0.1c0-0.1-0.1-0.1,0-0.2
				c0,0,0.7-2.2,1.4-5.2c0.6-2.8,2-3,3.4-3.2c0.2,0,0.4-0.1,0.6-0.1c1.3-0.2,22.9-0.3,30.7-0.3c2,0,3,3.7,3,3.8l1.5,6
				c0,0.1,0,0.2,0,0.2C49.4,39.2,49.3,39.3,49.2,39.3z M9.4,37.8l39.5,1l-1.4-5.6c-0.2-1-1.2-3.4-2.5-3.5
				c-7.6-0.1-29.4,0.1-30.7,0.3c-0.2,0-0.4,0.1-0.6,0.1c-1.4,0.2-2.4,0.3-3,2.8C10.2,35.2,9.6,37.1,9.4,37.8z"/>
			<path class="st1" d="M49.2,39c0,0-1,12.7-1.8,13.2c-0.8,0.4-35.3,1.2-36.4,0.1S9.1,39.6,9.1,39.6L49.2,39z"/>
			<polygon class="st29" points="51,37.2 51.2,39.1 6.9,40 7,37.6 			"/>
			<path class="st29" d="M36.2,50.2l-0.5,0c0.1-3.3,0.2-8.8,0.1-9.2l0.5-0.1C36.5,41.3,36.3,48.1,36.2,50.2z"/>
			<path class="st115" d="M40,49.9c-0.2-1.1-0.1-7.4,0.1-9.4l1,0.1c-0.3,2.1-0.3,8.2-0.1,9.1L40,49.9z"/>
			<path class="st115" d="M44.3,49.8l-1,0c0.1-3.3,0.2-8.6,0.2-9.1l1-0.3C44.6,40.8,44.5,45.7,44.3,49.8z"/>
			<path class="st29" d="M32.5,50.3c-0.1-0.4,0.2-7.3,0.3-9.4l0.5,0c-0.2,3.3-0.4,8.8-0.3,9.2L32.5,50.3z"/>
			<path class="st29" d="M25.6,50.3c-0.2-0.4-0.3-7.3-0.3-9.4l0.5,0c0,3.3,0.2,8.8,0.3,9.2L25.6,50.3z"/>
			<path class="st29" d="M18.1,50.6c-0.2-0.4-0.3-7.3-0.3-9.4l0.5,0c0,3.3,0.2,8.8,0.3,9.2L18.1,50.6z"/>
			<path class="st29" d="M29.6,50.3l-0.5-0.1c0.1-0.5,0.1-5.6,0.1-9h0.5C29.7,42.1,29.7,49.6,29.6,50.3z"/>
			<path class="st29" d="M14.5,50.3L14,50.2c0.1-0.5,0.1-5.6,0.1-9h0.5C14.6,42.1,14.6,49.6,14.5,50.3z"/>
			<path class="st29" d="M22.1,50.4l-0.5-0.1c0.1-0.5,0.1-5.6,0.1-9h0.5C22.2,42.2,22.2,49.7,22.1,50.4z"/>
		</g>
		<g>
			<path class="st4" d="M47.3,43.3L47,43.1c-0.3-0.2-1.8-1.2-2-1.7c-0.3-0.5-0.1-1.4,0.1-2.2c0-0.2,0.1-0.4,0.1-0.6
				c0.1-0.8,1.1-6,1.1-6l0.8-4c-0.1-0.3-0.5-1.1-0.8-2.3c-1.6-5.7,3.1-13,3.6-13.7c0.5-0.5,1.9-0.5,2.4-0.3c0.2,0.1,0.2,0.3,0.2,0.4
				c-0.2,0.6-4.7,27.8-4.8,28c-0.1,0.8-0.3,2.2-0.3,2.2L47.3,43.3z M46.8,32.6c0,0-1,5.2-1.1,6c0,0.2-0.1,0.4-0.1,0.6
				c-0.1,0.7-0.3,1.6-0.2,1.9c0.1,0.3,0.9,0.9,1.6,1.3c0.1-0.5,0.2-1.3,0.3-1.8c0-0.2,4.4-25.9,4.8-28c-0.3-0.1-1.4-0.1-1.7,0.2
				c-0.5,0.5-5,7.8-3.5,13.2c0.4,1.3,0.8,2.3,0.8,2.3l0,0.1L46.8,32.6z M52,12.6C52,12.6,52,12.6,52,12.6C52,12.6,52,12.6,52,12.6z"
				/>
			<path class="st4" d="M43.4,49c-0.1,0-0.2,0-0.3-0.1c-0.3-0.2-2.5-20.4-2.5-20.6c-0.1-1-0.4-2.4-0.5-2.9c0,0,0-0.1,0-0.1
				c-0.2-0.2-0.9-0.9-1.3-1.4c-0.5-0.6-0.7-1.4-0.8-1.9l0-0.1c-0.1-0.5-0.7-6.6-0.7-7.2c0-0.2,0-0.5,0-0.8c0-0.6,0-1,0-1.2
				c0.1-0.2,0.3-0.3,0.6-0.3c0.3,0.1,0.4,0.3,0.4,0.5c0,0.3,0.5,5.2,0.7,6c0.1,0.6,0.3,1.6,0.3,2c0.2,0,0.3-0.1,0.4-0.1
				c0-0.1-0.2-1.8-0.3-3.1c-0.2-1.8-0.3-3-0.3-3.2c0-0.2,0-0.4,0-0.7c0-0.8-0.1-1.3,0-1.6c0.1-0.4,0.7-0.3,0.7-0.3
				c0.3,0,0.3,0.2,0.3,0.3c0.1,0.6,0.8,5.8,0.9,6.1c0.1,0.3,0.3,1.5,0.4,2c0.1,0,0.1,0,0.2,0c0,0,0,0,0-0.1c0-0.2-0.1-1-0.2-1.7
				c-0.1-0.8-0.2-1.6-0.2-2c0-0.3-0.1-0.9-0.2-1.5c-0.2-1.5-0.3-2.5-0.2-2.8c0-0.1,0.1-0.2,0.2-0.3c0.2-0.1,0.4,0,0.5,0
				c0.4,0.2,1.3,7.3,1.6,9.5v0l0.1,0.4c0.1,0.8,0.2,1.2-0.1,2c-0.2,0.5-0.4,0.9-0.6,1.2c-0.1,0.2-0.2,0.3-0.2,0.4
				c0,0.4,1.1,7.4,1.9,13c1.3,8.2,1.5,9.7,1.4,9.9c-0.1,0.4-0.7,0.8-1,0.8c-0.2,0-0.4,0-0.7,0.1C43.7,49,43.5,49,43.4,49z
				 M37.8,12.8c-0.1,0.1,0,0.7,0,1c0,0.3,0,0.6,0,0.9c0,0.6,0.6,6.7,0.7,7.1l0,0.1c0.1,0.5,0.3,1.2,0.7,1.7c0.5,0.5,1.3,1.4,1.3,1.4
				l0.1,0.1l0,0.1c0,0,0,0.1,0,0.2c0.1,0.5,0.4,1.9,0.5,2.9c0.1,1.1,2.1,18.5,2.4,20.3c0.1,0,0.3,0,0.5-0.1c0.2,0,0.5-0.1,0.7-0.1
				c0.1,0,0.5-0.2,0.5-0.4c0-0.3-0.7-5-1.4-9.7c-1.6-10.5-2-13-1.9-13.2c0-0.1,0.1-0.3,0.2-0.5c0.1-0.3,0.3-0.7,0.5-1.2
				c0.2-0.7,0.2-1,0.1-1.7l-0.1-0.4c-0.1-1.2-1-7.9-1.3-9c0,0.5,0.1,1.6,0.2,2.4c0.1,0.6,0.1,1.2,0.2,1.5c0,0.4,0.1,1.2,0.2,2
				c0.1,0.8,0.2,1.5,0.2,1.8c0,0.2-0.1,0.4-0.2,0.5c-0.3,0.2-0.7,0.2-0.7,0.2l-0.2,0l0-0.2c0,0-0.3-1.7-0.4-2.1
				c-0.1-0.4-0.7-4.9-0.9-6c0,0-0.1,0-0.1,0c0,0.2,0,0.9,0,1.4c0,0.3,0,0.6,0,0.7c0,0.2,0.2,1.8,0.3,3.2c0.2,2.1,0.3,3.1,0.3,3.2
				c0,0.5-0.8,0.5-1.1,0.5l-0.2,0l0-0.2c0,0-0.2-1.5-0.3-2.3C38.3,18.3,37.7,13.1,37.8,12.8z"/>
			<path class="st19" d="M53.7,32.2c0.2,0.7-2.7,23.1-2.9,24.1c-0.1,0.5-13,1.1-13.3,0.3C37.1,55.8,35,31.7,35,31.7
				C35.6,32.1,53.4,31.6,53.7,32.2z"/>
			<path class="st28" d="M50.8,56.3c-1.5-1.1-4.7-2.3-8.7-1.8s-4.5,2.2-4.5,2.2S44.1,57.7,50.8,56.3z"/>
		</g>
		<g>
			<g>
				<polygon class="st15" points="54.5,51.4 25.3,52.3 23.7,49.3 55,48.3 				"/>
				<polygon class="st30" points="57,47.2 57.2,48.6 21.9,49.4 21.8,48.3 				"/>
			</g>
			<g>
				<polygon class="st30" points="57.1,51.3 57.2,52.7 22.1,51.5 22,50 				"/>
				<polygon class="st15" points="54.3,55.2 25.2,54 23.8,50.8 55.1,52.2 				"/>
			</g>
			<g>
				<polygon class="st30" points="56.9,53.6 57,55 21.9,55.3 21.7,53.6 				"/>
				<path class="st15" d="M53.5,57.2c-0.4,0.2-28,0.2-28,0.2l-2-2.8h31.4C54.9,54.6,54,56.9,53.5,57.2z"/>
			</g>
		</g>
	</g>
	<g style="clip-path:url(#SVGID_00000137817392125693832800000004359295043147626163_);">
		<path class="st4" d="M21.7,8.7c0,0-0.1,0-0.1,0c-0.1-0.1-0.2-0.2-0.1-0.3l1.5-2.7c1.1-1.9,1-2.5,0.4-3.1c-0.2-0.2-0.4-0.3-0.5-0.3
			c-0.2,0-0.6,0.3-1.2,1.4c-0.7,1.4-0.7,3.9-0.7,3.9c0,0.1-0.1,0.3-0.2,0.3c0,0,0,0,0,0c-0.1,0-0.2-0.1-0.2-0.2c0-0.1,0-2.6,0.7-4.1
			c0.5-1.1,1.1-1.6,1.6-1.7c0.3,0,0.7,0.1,1,0.4c0.8,0.9,0.7,1.7-0.4,3.7l-1.5,2.7C21.9,8.7,21.8,8.7,21.7,8.7z"/>
		<path class="st4" d="M20.1,9.6c0,0-0.1,0-0.1,0c-0.1-0.1-3.3-1.5-4.9-2.5c-1.2-0.7-1.9-1.4-2-2.1c-0.1-0.3,0-0.6,0.2-0.8
			c0.6-0.9,1.8-0.7,3.6,0.4c1.8,1.2,3.7,3.5,3.8,3.6c0.1,0.1,0.1,0.3,0,0.4s-0.3,0.1-0.4,0c0,0-1.9-2.4-3.6-3.5
			c-1.5-1-2.5-1.1-2.9-0.6c-0.1,0.1-0.1,0.3-0.1,0.4c0.1,0.3,0.4,0.9,1.8,1.7c1.5,0.9,4.8,2.4,4.8,2.5c0.1,0.1,0.2,0.2,0.1,0.3
			C20.3,9.6,20.2,9.6,20.1,9.6z"/>
		<path class="st4" d="M13.6,15.1c-0.4,0-0.8-0.1-1-0.3c-0.3-0.2-0.4-0.5-0.4-0.9c0-0.7,0.7-1.5,2-2.4c2.1-1.3,5.5-1.9,5.9-2
			c0.1,0,0.3,0.1,0.3,0.2c0,0.1-0.1,0.3-0.2,0.3c-0.4,0.1-3.7,0.6-5.7,1.9c-1.1,0.7-1.7,1.4-1.7,2c0,0.2,0.1,0.3,0.2,0.5
			c0.5,0.5,1.9,0.1,3.5-0.8c1.5-0.9,3.8-3.1,3.8-3.1c0.1-0.1,0.3-0.1,0.4,0c0.1,0.1,0.1,0.3,0,0.4c-0.1,0.1-2.3,2.2-3.9,3.2
			C15.5,14.8,14.4,15.1,13.6,15.1z"/>
		<path class="st4" d="M22.6,9.7c-0.1,0-0.1,0-0.1,0c-0.1,0-0.2-0.1-0.2-0.3c0-0.1,0.1-0.2,0.3-0.2c0,0,2.4,0.1,4-1
			c0.8-0.6,1.6-1.1,1.6-1.4c0-0.1,0-0.2-0.2-0.3c-0.4-0.4-2,0-3.3,0.8c-1.3,0.8-2.2,1.6-2.2,1.7c-0.1,0.1-0.3,0.1-0.4,0
			c-0.1-0.1-0.1-0.3,0-0.4c0,0,1-0.9,2.3-1.7c1.2-0.7,3.3-1.5,4-0.7c0.1,0.2,0.3,0.4,0.3,0.7c-0.1,0.5-0.6,0.9-1.8,1.8
			C25.2,9.6,23.1,9.7,22.6,9.7z"/>
		<path class="st4" d="M20.3,18.9c-0.4,0-0.8-0.2-1.2-0.6c-0.7-0.8-0.2-3.2,0.1-4.2c0.3-1.2,1.1-3.3,1.2-3.4c0-0.1,0.2-0.2,0.3-0.1
			c0.1,0,0.2,0.2,0.1,0.3c0,0-0.8,2.2-1.1,3.3c-0.5,1.8-0.6,3.3-0.2,3.7c0.3,0.3,0.6,0.5,0.8,0.5c0.2,0,0.3-0.1,0.5-0.3
			c0.3-0.5,0.7-1.9,0.7-4c0-1.9-0.1-2.6-0.1-2.6c0-0.1,0.1-0.3,0.2-0.3c0.1,0,0.3,0.1,0.3,0.2c0,0,0.1,0.7,0.1,2.7
			c0,1.8-0.2,3.5-0.7,4.3C21,18.8,20.6,18.9,20.3,18.9C20.4,18.9,20.3,18.9,20.3,18.9z"/>
		<path class="st4" d="M27.9,13.6c-1.1,0-2.7-0.6-3.7-1c-1.6-0.8-2.4-1.5-2.5-1.5c-0.1-0.1-0.1-0.2,0-0.4c0.1-0.1,0.2-0.1,0.4,0
			c0,0,0.8,0.7,2.3,1.5c1.7,0.8,3.8,1.2,4.1,0.8c0.3-0.3,0.4-0.6,0.3-0.8c0-0.2-0.2-0.3-0.4-0.5c-0.7-0.5-3.8-1.3-4.6-1.4
			C23,10,22.4,10,22.4,10c-0.1,0-0.2-0.1-0.2-0.3c0-0.1,0.1-0.3,0.3-0.2c0,0,0.6,0,1.5,0.2c0.9,0.1,4,1,4.8,1.5
			c0.4,0.3,0.6,0.5,0.7,0.9c0.1,0.5-0.2,0.9-0.5,1.2C28.8,13.5,28.4,13.6,27.9,13.6z"/>
		<path class="st4" d="M21.2,11.2c-0.6,0-1.1-0.3-1.2-0.7c-0.1-0.5-0.2-1,0.1-1.4c0.3-0.4,0.9-0.8,1.4-0.7c0,0,0,0,0,0
			c0.5,0.1,0.9,0.4,1,1c0.1,0.6,0,1-0.4,1.3l-0.1,0.1C21.9,11,21.7,11.2,21.2,11.2z M21.4,8.8c-0.2,0-0.7,0.2-0.8,0.5
			c-0.2,0.2-0.2,0.5,0,1c0.1,0.3,0.5,0.4,0.7,0.4c0.3,0,0.3-0.1,0.5-0.2l0.1-0.1c0.2-0.2,0.3-0.5,0.2-0.9C22,9.1,21.8,8.9,21.4,8.8
			L21.4,8.8C21.4,8.8,21.4,8.8,21.4,8.8z"/>
	</g>
	<g style="clip-path:url(#SVGID_00000137817392125693832800000004359295043147626163_);">
		<path class="st4" d="M65.3,19.8C65.2,19.8,65.2,19.8,65.3,19.8c-0.2,0-0.3-0.2-0.2-0.3l0.7-2.7c0.5-2,0.4-2.5-0.3-2.9
			c-0.3-0.2-0.5-0.1-0.5-0.1c-0.2,0.1-0.5,0.4-0.8,1.5c-0.3,1.4,0.2,3.6,0.2,3.6c0,0.1,0,0.3-0.2,0.3c-0.1,0-0.3,0-0.3-0.2
			c0-0.1-0.6-2.4-0.2-3.9c0.3-1.1,0.6-1.7,1.1-1.9c0.3-0.1,0.6-0.1,1,0.2c0.9,0.6,1,1.4,0.5,3.4l-0.7,2.7
			C65.5,19.8,65.4,19.8,65.3,19.8z"/>
		<path class="st4" d="M64.1,20.9C64,20.9,64,20.9,64.1,20.9c-0.2,0-3.3-0.7-5-1.2c-1.3-0.4-2-0.9-2.3-1.4c-0.1-0.3-0.1-0.5,0-0.8
			c0.4-0.9,1.5-1,3.4-0.4c1.9,0.7,4.1,2.4,4.2,2.5c0.1,0.1,0.1,0.2,0,0.4c-0.1,0.1-0.2,0.1-0.4,0c0,0-2.2-1.7-4-2.4
			c-1.5-0.5-2.5-0.5-2.7,0.1c-0.1,0.1-0.1,0.3,0,0.4c0.1,0.2,0.5,0.7,2,1.2c1.6,0.5,4.8,1.2,4.9,1.2c0.1,0,0.2,0.2,0.2,0.3
			C64.3,20.9,64.2,20.9,64.1,20.9z"/>
		<path class="st4" d="M59,27.3c-0.2,0-0.4,0-0.6-0.1c-0.3-0.2-0.5-0.4-0.5-0.7c-0.1-0.7,0.3-1.6,1.3-2.5c1.6-1.6,4.5-2.9,4.9-3
			c0.1-0.1,0.3,0,0.3,0.1c0.1,0.1,0,0.3-0.1,0.3c-0.3,0.1-3.2,1.3-4.7,2.9c-0.8,0.8-1.2,1.6-1.2,2.1c0,0.2,0.1,0.3,0.3,0.4
			c0.6,0.3,1.7-0.3,2.9-1.5c1.2-1.2,2.7-3.6,2.8-3.6c0.1-0.1,0.2-0.1,0.3-0.1c0.1,0.1,0.1,0.2,0.1,0.3c-0.1,0.1-1.6,2.5-2.8,3.7
			C60.8,26.7,59.7,27.3,59,27.3z"/>
		<path class="st4" d="M66.1,20.5c-0.1,0-0.2-0.1-0.2-0.2c0-0.1,0.1-0.3,0.2-0.3c0,0,2.2-0.4,3.3-1.7c0.6-0.7,1.2-1.3,1.1-1.6
			c0,0,0-0.1-0.2-0.2c-0.4-0.3-1.8,0.4-2.8,1.4c-1,1-1.6,1.9-1.6,2c-0.1,0.1-0.2,0.1-0.3,0.1c-0.1-0.1-0.1-0.2-0.1-0.3
			c0,0,0.7-1,1.7-2c0.9-0.9,2.6-2,3.4-1.4c0.2,0.1,0.4,0.3,0.4,0.6c0.1,0.5-0.3,1-1.2,2C68.5,20.1,66.3,20.5,66.1,20.5
			C66.1,20.5,66.1,20.5,66.1,20.5z"/>
		<path class="st4" d="M66,29.3c-0.3,0-0.6-0.1-1-0.3c-0.8-0.6-0.8-2.9-0.8-3.8c0-1.1,0.3-3.2,0.3-3.3c0-0.1,0.1-0.2,0.3-0.2
			c0.1,0,0.2,0.1,0.2,0.3c0,0-0.3,2.2-0.3,3.2c0,1.7,0.2,3.1,0.6,3.4c0.3,0.2,0.6,0.3,0.8,0.2c0.2-0.1,0.3-0.2,0.3-0.4
			c0.2-0.6,0.2-1.9-0.3-3.7c-0.4-1.7-0.7-2.3-0.7-2.3c0-0.1,0-0.3,0.1-0.3c0.1,0,0.3,0,0.3,0.1c0,0,0.2,0.6,0.7,2.4
			c0.4,1.6,0.5,3.2,0.2,4c-0.2,0.5-0.4,0.6-0.7,0.7C66.2,29.3,66.1,29.3,66,29.3z"/>
		<path class="st4" d="M70.7,23c-0.8,0-1.7-0.1-2.3-0.3c-1.6-0.4-2.5-0.8-2.5-0.9c-0.1-0.1-0.2-0.2-0.1-0.3c0.1-0.1,0.2-0.2,0.3-0.1
			c0,0,0.9,0.5,2.4,0.8c1.8,0.4,3.7,0.3,3.9-0.2c0.2-0.3,0.2-0.6,0.1-0.8c-0.1-0.1-0.2-0.3-0.5-0.4c-0.8-0.3-3.7-0.4-4.5-0.3
			c-0.8,0.1-1.4,0.2-1.4,0.2c-0.1,0-0.3-0.1-0.3-0.2c0-0.1,0.1-0.3,0.2-0.3c0,0,0.6-0.1,1.4-0.2c0.9-0.1,3.8,0,4.7,0.3
			c0.4,0.1,0.7,0.4,0.8,0.6c0.2,0.4,0,0.9-0.2,1.2C72.6,22.8,71.7,23,70.7,23z"/>
		<path class="st4" d="M65,22.2c-0.4,0-0.7-0.2-0.9-0.5c-0.2-0.4-0.4-0.8-0.2-1.3c0.2-0.4,0.7-0.9,1.1-0.9l0,0
			c0.5,0,0.9,0.2,1.1,0.7c0.2,0.5,0.2,0.9,0,1.3l-0.1,0.1c-0.1,0.2-0.2,0.5-0.7,0.6C65.3,22.2,65.1,22.2,65,22.2z M65.1,20
			c-0.2,0-0.6,0.3-0.7,0.6c-0.1,0.2,0,0.5,0.2,0.9c0.1,0.3,0.6,0.2,0.7,0.2c0.2-0.1,0.3-0.1,0.4-0.3l0.1-0.1c0.1-0.3,0.2-0.5,0-0.9
			C65.6,20.1,65.4,19.9,65.1,20L65.1,20z M65.1,19.7L65.1,19.7L65.1,19.7z"/>
	</g>
</g>
</svg>
