<?xml version="1.0" encoding="utf-8"?>
<!-- Generator: Adobe Illustrator 26.1.0, SVG Export Plug-In . SVG Version: 6.00 Build 0)  -->
<svg version="1.1" id="Layer_1" xmlns="http://www.w3.org/2000/svg" xmlns:xlink="http://www.w3.org/1999/xlink" x="0px" y="0px"
	 viewBox="0 0 68 60" style="enable-background:new 0 0 68 60;" xml:space="preserve">
<style type="text/css">
	.st0{fill:#FCE899;}
	.st1{fill:#008E60;}
	.st2{fill:#F7C600;}
	.st3{fill:#FAEE8C;}
	.st4{fill:#FFFFFF;}
	.st5{fill:#F39F00;}
	.st6{fill:#FFF1E7;}
	.st7{fill:#FFB7A1;}
	.st8{fill:#FA7463;}
	.st9{fill:#007F4F;}
	.st10{fill:#FF3008;}
	.st11{fill:#FF807B;}
	.st12{fill:#FF706B;}
	.st13{fill:#FFD7C7;}
	.st14{fill:#007947;}
	.st15{fill:#62C0C3;}
	.st16{fill:#E7E5D9;}
	.st17{fill:#00858C;}
	.st18{fill:#C5C4AD;}
	.st19{fill:#FF4F2D;}
	.st20{fill:#F9DB4B;}
	.st21{fill:#FFE900;}
	.st22{fill:#F8CC00;}
	.st23{fill:#EECA00;}
	.st24{fill:#E3B300;}
	.st25{fill:#FFFBE8;}
	.st26{fill:#FB8677;}
	.st27{fill:#FFB1AE;}
	.st28{fill:#FF5534;}
	.st29{fill:#409C7A;}
	.st30{fill:#BCE9EA;}
	.st31{fill:#029999;}
	.st32{fill:#BCBBA4;}
	.st33{fill:#8CD7D9;}
	.st34{fill:none;stroke:#F9BEAA;stroke-width:0.5;stroke-miterlimit:10;}
	.st35{fill:#075B46;}
	.st36{fill:#68E1DE;}
	.st37{fill:#E8FCFB;}
	.st38{fill:#17A3A9;}
	.st39{fill:#00838A;}
	.st40{fill:#008344;}
	.st41{fill:#FD7B2F;}
	.st42{fill:#FBAC6B;}
	.st43{fill:#E54E03;}
	.st44{fill:#FE8D4B;}
	.st45{fill:#017946;}
	.st46{fill:#BD8800;}
	.st47{fill:#86CED1;}
	.st48{fill:#058C60;}
	.st49{fill:#E85658;}
	.st50{fill:#FDAFAC;}
	.st51{fill:#EF9595;}
	.st52{fill:#D5A600;}
	.st53{fill:#007F3A;}
	.st54{fill:#FF838B;}
	.st55{fill:#FDC1BE;}
	.st56{fill:#954C00;}
	.st57{fill:#FFB8A2;}
	.st58{fill:#F9BEAA;}
	.st59{fill:#A16C00;}
	.st60{fill:#C7C6B7;}
	.st61{fill:#DFDED5;}
	.st62{fill:#FF7168;}
	.st63{fill:#FADB5C;}
	.st64{fill:#002F10;}
	.st65{fill:#C4AB80;}
	.st66{clip-path:url(#SVGID_00000021812550173095473790000006107955129076254103_);fill:#FDEFB5;}
	.st67{clip-path:url(#SVGID_00000021812550173095473790000006107955129076254103_);}
	.st68{clip-path:url(#SVGID_00000021812550173095473790000006107955129076254103_);fill:#4ADEDB;}
	.st69{fill:#FF2D00;}
	.st70{clip-path:url(#SVGID_00000087376025344796922180000013475391410716359299_);fill:#FDEFB5;}
	.st71{clip-path:url(#SVGID_00000087376025344796922180000013475391410716359299_);}
	.st72{clip-path:url(#SVGID_00000039129430857486380790000004570983106733244563_);fill:#FDEFB5;}
	.st73{clip-path:url(#SVGID_00000039129430857486380790000004570983106733244563_);}
	.st74{clip-path:url(#SVGID_00000039129430857486380790000004570983106733244563_);fill:#F7C600;}
	.st75{clip-path:url(#SVGID_00000000199452592157074770000004005418484335796101_);fill:#FDEFB5;}
	.st76{clip-path:url(#SVGID_00000000199452592157074770000004005418484335796101_);}
	.st77{clip-path:url(#SVGID_00000000199452592157074770000004005418484335796101_);fill:#007947;}
	.st78{clip-path:url(#SVGID_00000000199452592157074770000004005418484335796101_);fill:#F7C600;}
	.st79{clip-path:url(#SVGID_00000000199452592157074770000004005418484335796101_);fill:#FFFFFF;}
	.st80{clip-path:url(#SVGID_00000108268405610395432250000006917203626208927656_);fill:#FDEFB5;}
	.st81{clip-path:url(#SVGID_00000160164031364260312110000010482028269704029356_);}
	.st82{clip-path:url(#SVGID_00000131341874834120213450000011374101062117303987_);fill:#FDEFB5;}
	.st83{clip-path:url(#SVGID_00000131341874834120213450000011374101062117303987_);}
	.st84{fill:#452700;}
	.st85{fill:#643B00;}
	.st86{fill:#C6C5B1;}
	.st87{fill:#0F2A1D;}
	.st88{fill:#E8C500;}
	.st89{fill:#006873;}
	.st90{clip-path:url(#SVGID_00000038400429198468419400000012459454495178919836_);fill:#FDEFB5;}
	.st91{clip-path:url(#SVGID_00000038400429198468419400000012459454495178919836_);}
	.st92{clip-path:url(#SVGID_00000039108375408207372030000008664505692032586160_);fill:#FDEFB5;}
	.st93{clip-path:url(#SVGID_00000039108375408207372030000008664505692032586160_);}
	.st94{fill:#388E90;}
	.st95{clip-path:url(#SVGID_00000018954035530267006740000007986196824792655784_);}
	.st96{fill:#FCEDB4;}
	.st97{clip-path:url(#SVGID_00000018954035530267006740000007986196824792655784_);fill:#017946;}
	.st98{clip-path:url(#SVGID_00000018954035530267006740000007986196824792655784_);fill:#BD8800;}
	.st99{clip-path:url(#SVGID_00000018954035530267006740000007986196824792655784_);fill:#058C60;}
	.st100{clip-path:url(#SVGID_00000018954035530267006740000007986196824792655784_);fill:#F7C600;}
	.st101{clip-path:url(#SVGID_00000018954035530267006740000007986196824792655784_);fill:#FF5534;}
	.st102{clip-path:url(#SVGID_00000018954035530267006740000007986196824792655784_);fill:#D5A600;}
	.st103{clip-path:url(#SVGID_00000169551097723818220130000017751248370487307696_);}
	.st104{fill:#FDEFB5;}
	.st105{clip-path:url(#SVGID_00000026145333430505459680000008967189697417674144_);fill:none;}
	.st106{clip-path:url(#SVGID_00000026145333430505459680000008967189697417674144_);fill:#FDEFB5;}
	.st107{clip-path:url(#SVGID_00000026145333430505459680000008967189697417674144_);}
	.st108{clip-path:url(#SVGID_00000026145333430505459680000008967189697417674144_);fill:#C4AB80;}
	.st109{clip-path:url(#SVGID_00000026145333430505459680000008967189697417674144_);fill:#FF3008;}
	.st110{clip-path:url(#SVGID_00000176727161984528065650000000081251883428025503_);fill:#FDEFB5;}
	.st111{clip-path:url(#SVGID_00000176727161984528065650000000081251883428025503_);}
	.st112{fill:#4A2500;}
	.st113{clip-path:url(#SVGID_00000044145707862404017850000002105520318644649659_);fill:#FDEFB5;}
	.st114{clip-path:url(#SVGID_00000044145707862404017850000002105520318644649659_);}
	.st115{fill:#24372B;}
	.st116{clip-path:url(#SVGID_00000126307419679312198420000008261936724323783583_);fill:#FDEFB5;}
	.st117{clip-path:url(#SVGID_00000126307419679312198420000008261936724323783583_);}
	.st118{fill:#93D4D6;}
	.st119{fill:#A8A799;}
	.st120{fill:#037A4F;}
	.st121{fill:#B17C52;}
	.st122{fill:#C38C61;}
	.st123{fill:#DBB18E;}
	.st124{fill:#C7956E;}
	.st125{fill:#017575;}
	.st126{clip-path:url(#SVGID_00000139252094092001596810000006264320413560408503_);fill:#FDEFB5;}
	.st127{clip-path:url(#SVGID_00000139252094092001596810000006264320413560408503_);}
	.st128{fill:#CF7D2A;}
	.st129{fill:#91DADA;}
	.st130{fill:#BEE2CD;}
	.st131{fill:#FF0000;}
	.st132{fill:#E6CB7E;}
	.st133{fill:#D5B45E;}
	.st134{fill:none;stroke:#C7C6B5;stroke-width:0.75;stroke-miterlimit:10;}
	.st135{fill:#FF9E9E;}
	.st136{fill:#BD834E;}
	.st137{clip-path:url(#SVGID_00000050651604513620683030000007114154735888651692_);fill:#FDEFB5;}
	.st138{clip-path:url(#SVGID_00000050651604513620683030000007114154735888651692_);}
</style>
<g>
	<defs>
		<circle id="SVGID_00000041272525677912607220000002037669255624073387_" cx="33.9" cy="29.9" r="30"/>
	</defs>
	<clipPath id="SVGID_00000135685500184162956010000015777620526042433202_">
		<use xlink:href="#SVGID_00000041272525677912607220000002037669255624073387_"  style="overflow:visible;"/>
	</clipPath>
	
		<circle style="clip-path:url(#SVGID_00000135685500184162956010000015777620526042433202_);fill:#FDEFB5;" cx="33.9" cy="29.9" r="30"/>
	<g style="clip-path:url(#SVGID_00000135685500184162956010000015777620526042433202_);">
		<g>
			<g>
				<g>
					<polygon class="st32" points="39.3,46 39.4,47.7 42.7,47.7 42.8,46 					"/>
					<polygon class="st32" points="30.5,46.2 30.6,47.9 33.9,47.8 33.9,46.1 					"/>
					<path class="st4" d="M42,14.4c0,0,3.8,0,3.9,0.4c0.2,0.8-0.7,9.5-1.5,9.7c-0.8,0.3-2.6,0.2-2.6,0.2L41.7,26
						c0,0,3.6,0.1,4.2-0.4c0.5-0.4,1.5-10.5,1.6-11.2c0.1-0.4,0-1.2-1.6-1.3C44.3,13,42.1,13,42.1,13L42,14.4z"/>
					<path class="st4" d="M29.6,12.9c0,0,0.4,11.7,0.7,13.9c0.1,0.8,0.9,4.5,0.9,4.5l10.5-0.1c0,0,0.8-3.7,1-4.7
						c0.5-3.2,0.6-13.5,0.6-13.5L29.6,12.9z"/>
					<path class="st26" d="M30.1,46.1c0,0,14,0.1,14-0.1c0,0-1-8.1-1.3-9.5c-0.3-1.3-1.2-3.4-1.4-3.6l-10.4-0.1
						c-0.5,0-1.7,4.3-1.7,4.3l-1.1,8.1C28.2,46.1,30.1,46.1,30.1,46.1z"/>
					<polygon class="st28" points="31.1,30.7 30.9,33.2 41.5,33.2 41.4,30.7 					"/>
					<path class="st27" d="M31.1,31.6l10.4-0.1l0-0.9l-10.3,0l0,0.7C31.1,31.5,31.1,31.6,31.1,31.6z"/>
				</g>
				<path class="st28" d="M29.4,13.1c0,0,5.5,2,8.5,1.6c3-0.4,5.1-1.5,5.1-1.5s-4-1.6-7.5-1.4C32,12,29.4,13.1,29.4,13.1z"/>
				<path class="st26" d="M39.4,13.3h-6.1l-0.1-0.3c-0.3-1.3-0.2-2,0.3-2.2c0.3-0.1,5.2-0.2,5.7,0c0.4,0.2,0.5,0.9,0.2,2.1
					L39.4,13.3z M33.7,12.8H39c0.2-1.4,0-1.5,0-1.5c-0.4-0.1-4-0.1-5.1,0l0,0.1l-0.4,0.1C33.5,11.7,33.5,12.1,33.7,12.8z"/>
			</g>
		</g>
		<g>
			<path class="st33" d="M26.4,32.1C26.1,31.2,22.2,21.6,22,20c-0.3-2,0.8-3.7,0.8-3.8l0.4,0.3c0,0-1,1.7-0.7,3.5
				c0.2,1.5,3.9,10.7,4.4,12L26.4,32.1z"/>
			<path class="st33" d="M26.2,32.3c0-0.1-3.6-7.3-4.2-8.3c-0.5-0.9-1.9-3.3-1.6-5.3c0.2-1.3,1.1-2.2,2.5-2.5l0.2,0.5l0,0
				c-1.2,0.3-2,1-2.1,2.1c-0.3,1.8,1.1,4.1,1.6,5c0.6,1,4,8,4.2,8.3L26.2,32.3z"/>
			<path class="st33" d="M27.1,31.8c0-0.1-1.4-10.5-1.7-12.2c-0.2-1.5-1.5-2.3-2.3-2.8l-0.2-0.2l0.3-0.4l0.2,0.1
				c0.8,0.5,2.3,1.4,2.6,3.2c0.3,1.8,1.6,12.2,1.7,12.3L27.1,31.8z"/>
			<path class="st33" d="M27.5,32.1c0-0.1-0.3-7.4-0.4-9.5c0-2.4-0.1-3.9-1-5.2c-0.8-1.2-2.2-1-2.7-0.9c-0.1,0-0.2,0-0.2,0l0-0.5
				l0,0.2l0-0.2c0,0,0.1,0,0.1,0c0.5-0.1,2.2-0.4,3.2,1.1c1,1.4,1.1,3,1.1,5.5c0,2.1,0.3,9.4,0.4,9.4L27.5,32.1z"/>
			
				<rect x="24.9" y="16.1" transform="matrix(0.9676 -0.2523 0.2523 0.9676 -5.3578 7.1374)" class="st33" width="0.5" height="16.7"/>
			<path class="st32" d="M26.1,32.1c0,0,3.2,12.4,3.4,13.1c0.2,0.7,0.7,1.5,1.4,1.3c0.7-0.2,0.8-1,0.5-1.9c-0.3-1.1-3.5-13-3.5-13
				L26.1,32.1z"/>
		</g>
		<g>
			<g>
				<path class="st29" d="M25.4,25.9c-1.6-1-4.9-0.6-5.6-0.4c-3.1,1-8.8,3.3-9.2,3.5c-1.4,0.6-4.2,1.9-4.2,1.9l0.4,3.9
					c0,0,5,0.9,8.7,1.4c3.7,0.5,7.3,0.8,9.3-0.3s3.3-2.3,3.4-4.3c0.1-1.8-0.1-2.6-0.6-3.6C26.8,26.6,25.4,25.9,25.4,25.9z"/>
				<polygon class="st29" points="26.7,47 22,47.5 19.3,36 22.5,34.9 26.3,33.7 				"/>
				<path class="st14" d="M22.3,34.3c-1.2,0-2.2-0.5-2.9-1.6c-0.6-0.9-1.1-2.4-0.4-3.8c0.7-1.5,2.3-2,3.1-2c1.1-0.1,2,0.2,2.8,0.9
					c0.8,0.7,1,1.5,1.1,1.8c0.3,1.1,0.1,2.2-0.4,3.1c-0.6,1-1.7,1.5-2.5,1.7l0-0.2l0,0.3C22.8,34.2,22.6,34.3,22.3,34.3z M23,33.7
					l0.1,0.2L23,33.7c0.7-0.1,1.7-0.6,2.2-1.4c0.5-0.8,0.6-1.7,0.3-2.7c-0.1-0.3-0.3-1-0.9-1.5c-0.6-0.5-1.4-0.8-2.4-0.7
					c-0.5,0-2.1,0.4-2.7,1.7c-0.6,1.2-0.1,2.6,0.4,3.3C20.6,33.5,21.6,33.9,23,33.7z"/>
				<path class="st14" d="M7,35l-0.3-0.4c0.8-0.5,1.2-1,1.2-1.6c0-0.9-1.1-1.7-1.1-1.7L7,30.9c0.1,0.1,1.3,0.9,1.3,2.1
					C8.4,33.8,7.9,34.4,7,35z"/>
				
					<rect x="19" y="30.1" transform="matrix(0.9931 -0.1171 0.1171 0.9931 -3.4008 2.8334)" class="st14" width="6.8" height="0.5"/>
				<polygon class="st14" points="19.8,32.8 19.8,32.3 25.4,31.7 25.4,32.2 				"/>
				<polygon class="st14" points="19.5,28.9 19.5,28.4 24.6,27.6 24.6,28.1 				"/>
			</g>
			<polygon class="st35" points="24,47.4 24.2,48.9 25.1,48.8 25,47.2 			"/>
		</g>
		<g>
			<g>
				<path class="st2" d="M46.7,27.9c0,0,0.1-1.2,0.6-1.5c0.5-0.4,1.5-0.4,1.6-0.8c0.1-0.3,0-0.5-0.1-0.9c0-0.4,0.2-1,0.5-1.2
					c0.2-0.2,0.5-0.4,1-0.3c0.4,0.1,0.6,0.3,0.8,0.8c0.1,0.4,0,1-0.1,1.2c-0.3,0.4-0.4,0.4-0.5,0.8c-0.2,0.5,1.1,0.9,1.2,1.8
					c0,0.6-0.1,1.4-0.1,1.4L46.7,27.9z"/>
				<path class="st15" d="M46.1,29.3l5.2,1.2c0,0,1.3,1.3,0.9,3.4c-0.6,3-3.2,14.2-3.7,15.1c-0.5,0.9-0.9,1.8-2.2,1.7
					s-3.3-0.5-4.9-1.1c-1.5-0.5-1.5-1.9-1.3-3.3c0.2-1.4,3-13.1,3.2-14.5C43.4,30.4,45.5,29,46.1,29.3z"/>
				<path class="st15" d="M45.6,27.5l-0.3,1.2c-0.1,0.3,0,0.7,0.3,0.8l5.8,1.4c0.3,0.1,0.6,0,0.7-0.3l0.3-1.7
					c0.1-0.3-0.3-0.4-0.6-0.5l-5.5-1.4C46.1,27.1,45.7,27.2,45.6,27.5z"/>
				<path class="st36" d="M51.5,29c0,0,0.1-0.3,0.1-0.6l-4.8-1.2c-0.1,0.3-0.1,0.6-0.1,0.6L51.5,29z"/>
				<path class="st31" d="M51.3,30.5l-5.2-1.2c-0.2-0.1-0.4,0-0.7,0.1c0,0.1,0.1,0.1,0.2,0.1l5.8,1.4c0.1,0,0.3,0,0.4,0
					C51.5,30.7,51.3,30.5,51.3,30.5z"/>
			</g>
		</g>
		<g>
			<g>
				<polygon class="st2" points="18.2,40.3 16.3,63.9 54.2,64.2 51.2,40.3 				"/>
			</g>
			<path class="st25" d="M34.9,56.7c-4.7,0-6.3-3.8-6.3-7.3c0-2.6-0.3-6.7-0.3-6.8l0.5,0c0,0,0.3,4.2,0.3,6.8c0,1.6,0.4,6.8,5.8,6.8
				c4,0,5.1-3.2,5.2-5.8c0.1-1.8,0.2-7.7,0.2-7.8l0.5,0c0,0.1-0.1,6-0.2,7.8C40.4,54.5,38.4,56.7,34.9,56.7z"/>
		</g>
	</g>
</g>
</svg>
