<?xml version="1.0" encoding="utf-8"?>
<!-- Generator: Adobe Illustrator 26.1.0, SVG Export Plug-In . SVG Version: 6.00 Build 0)  -->
<svg version="1.1" id="Layer_1" xmlns="http://www.w3.org/2000/svg" xmlns:xlink="http://www.w3.org/1999/xlink" x="0px" y="0px"
	 viewBox="0 0 68 60" style="enable-background:new 0 0 68 60;" xml:space="preserve">
<style type="text/css">
	.st0{fill:#FCE899;}
	.st1{fill:#008E60;}
	.st2{fill:#F7C600;}
	.st3{fill:#FAEE8C;}
	.st4{fill:#FFFFFF;}
	.st5{fill:#F39F00;}
	.st6{fill:#FFF1E7;}
	.st7{fill:#FFB7A1;}
	.st8{fill:#FA7463;}
	.st9{fill:#007F4F;}
	.st10{fill:#FF3008;}
	.st11{fill:#FF807B;}
	.st12{fill:#FF706B;}
	.st13{fill:#FFD7C7;}
	.st14{fill:#007947;}
	.st15{fill:#62C0C3;}
	.st16{fill:#E7E5D9;}
	.st17{fill:#00858C;}
	.st18{fill:#C5C4AD;}
	.st19{fill:#FF4F2D;}
	.st20{fill:#F9DB4B;}
	.st21{fill:#FFE900;}
	.st22{fill:#F8CC00;}
	.st23{fill:#EECA00;}
	.st24{fill:#E3B300;}
	.st25{fill:#FFFBE8;}
	.st26{fill:#FB8677;}
	.st27{fill:#FFB1AE;}
	.st28{fill:#FF5534;}
	.st29{fill:#409C7A;}
	.st30{fill:#BCE9EA;}
	.st31{fill:#029999;}
	.st32{fill:#BCBBA4;}
	.st33{fill:#8CD7D9;}
	.st34{fill:none;stroke:#F9BEAA;stroke-width:0.5;stroke-miterlimit:10;}
	.st35{fill:#075B46;}
	.st36{fill:#68E1DE;}
	.st37{fill:#E8FCFB;}
	.st38{fill:#17A3A9;}
	.st39{fill:#00838A;}
	.st40{fill:#008344;}
	.st41{fill:#FD7B2F;}
	.st42{fill:#FBAC6B;}
	.st43{fill:#E54E03;}
	.st44{fill:#FE8D4B;}
	.st45{fill:#017946;}
	.st46{fill:#BD8800;}
	.st47{fill:#86CED1;}
	.st48{fill:#058C60;}
	.st49{fill:#E85658;}
	.st50{fill:#FDAFAC;}
	.st51{fill:#EF9595;}
	.st52{fill:#D5A600;}
	.st53{fill:#007F3A;}
	.st54{fill:#FF838B;}
	.st55{fill:#FDC1BE;}
	.st56{fill:#954C00;}
	.st57{fill:#FFB8A2;}
	.st58{fill:#F9BEAA;}
	.st59{fill:#A16C00;}
	.st60{fill:#C7C6B7;}
	.st61{fill:#DFDED5;}
	.st62{fill:#FF7168;}
	.st63{fill:#FADB5C;}
	.st64{fill:#002F10;}
	.st65{fill:#C4AB80;}
	.st66{clip-path:url(#SVGID_00000164480255976632661060000011547605494541489342_);fill:#FDEFB5;}
	.st67{clip-path:url(#SVGID_00000164480255976632661060000011547605494541489342_);}
	.st68{clip-path:url(#SVGID_00000164480255976632661060000011547605494541489342_);fill:#4ADEDB;}
	.st69{fill:#FF2D00;}
	.st70{clip-path:url(#SVGID_00000034065577720966161960000002632726248555553214_);fill:#FDEFB5;}
	.st71{clip-path:url(#SVGID_00000034065577720966161960000002632726248555553214_);}
	.st72{clip-path:url(#SVGID_00000072980223419595490350000013814824886912664477_);fill:#FDEFB5;}
	.st73{clip-path:url(#SVGID_00000072980223419595490350000013814824886912664477_);}
	.st74{clip-path:url(#SVGID_00000072980223419595490350000013814824886912664477_);fill:#F7C600;}
	.st75{clip-path:url(#SVGID_00000121995659573402773060000014738847008983446687_);fill:#FDEFB5;}
	.st76{clip-path:url(#SVGID_00000121995659573402773060000014738847008983446687_);}
	.st77{clip-path:url(#SVGID_00000121995659573402773060000014738847008983446687_);fill:#007947;}
	.st78{clip-path:url(#SVGID_00000121995659573402773060000014738847008983446687_);fill:#F7C600;}
	.st79{clip-path:url(#SVGID_00000121995659573402773060000014738847008983446687_);fill:#FFFFFF;}
	.st80{clip-path:url(#SVGID_00000121263699267293352460000010906514082932671643_);fill:#FDEFB5;}
	.st81{clip-path:url(#SVGID_00000137841754750466822440000016982998906997855115_);}
	.st82{clip-path:url(#SVGID_00000170978434947811277130000005960425375930415767_);fill:#FDEFB5;}
	.st83{clip-path:url(#SVGID_00000170978434947811277130000005960425375930415767_);}
	.st84{fill:#452700;}
	.st85{fill:#643B00;}
	.st86{fill:#C6C5B1;}
	.st87{fill:#0F2A1D;}
	.st88{fill:#E8C500;}
	.st89{fill:#006873;}
	.st90{clip-path:url(#SVGID_00000183946767136429549530000006910590151175881094_);fill:#FDEFB5;}
	.st91{clip-path:url(#SVGID_00000183946767136429549530000006910590151175881094_);}
	.st92{clip-path:url(#SVGID_00000073712435706815670960000003641212936668021175_);fill:#FDEFB5;}
	.st93{clip-path:url(#SVGID_00000073712435706815670960000003641212936668021175_);}
	.st94{fill:#388E90;}
	.st95{clip-path:url(#SVGID_00000039813362755905581620000016399356504964506555_);}
	.st96{fill:#FCEDB4;}
	.st97{clip-path:url(#SVGID_00000039813362755905581620000016399356504964506555_);fill:#017946;}
	.st98{clip-path:url(#SVGID_00000039813362755905581620000016399356504964506555_);fill:#BD8800;}
	.st99{clip-path:url(#SVGID_00000039813362755905581620000016399356504964506555_);fill:#058C60;}
	.st100{clip-path:url(#SVGID_00000039813362755905581620000016399356504964506555_);fill:#F7C600;}
	.st101{clip-path:url(#SVGID_00000039813362755905581620000016399356504964506555_);fill:#FF5534;}
	.st102{clip-path:url(#SVGID_00000039813362755905581620000016399356504964506555_);fill:#D5A600;}
	.st103{clip-path:url(#SVGID_00000141431143892648612740000013993630300713463940_);}
	.st104{fill:#FDEFB5;}
	.st105{clip-path:url(#SVGID_00000116197941383636397060000016577126361190529189_);fill:none;}
	.st106{clip-path:url(#SVGID_00000116197941383636397060000016577126361190529189_);fill:#FDEFB5;}
	.st107{clip-path:url(#SVGID_00000116197941383636397060000016577126361190529189_);}
	.st108{clip-path:url(#SVGID_00000116197941383636397060000016577126361190529189_);fill:#C4AB80;}
	.st109{clip-path:url(#SVGID_00000116197941383636397060000016577126361190529189_);fill:#FF3008;}
	.st110{clip-path:url(#SVGID_00000035516802094506348440000003489845681049055413_);fill:#FDEFB5;}
	.st111{clip-path:url(#SVGID_00000035516802094506348440000003489845681049055413_);}
	.st112{fill:#4A2500;}
	.st113{clip-path:url(#SVGID_00000049221408043585682340000006876824581117950381_);fill:#FDEFB5;}
	.st114{clip-path:url(#SVGID_00000049221408043585682340000006876824581117950381_);}
	.st115{fill:#24372B;}
	.st116{clip-path:url(#SVGID_00000106835040567840911560000013128604596732525744_);fill:#FDEFB5;}
	.st117{clip-path:url(#SVGID_00000106835040567840911560000013128604596732525744_);}
	.st118{fill:#93D4D6;}
	.st119{fill:#A8A799;}
	.st120{fill:#037A4F;}
	.st121{fill:#B17C52;}
	.st122{fill:#C38C61;}
	.st123{fill:#DBB18E;}
	.st124{fill:#C7956E;}
	.st125{fill:#017575;}
	.st126{clip-path:url(#SVGID_00000044886135365932953520000016028946525056732555_);fill:#FDEFB5;}
	.st127{clip-path:url(#SVGID_00000044886135365932953520000016028946525056732555_);}
	.st128{fill:#CF7D2A;}
	.st129{fill:#91DADA;}
	.st130{fill:#BEE2CD;}
	.st131{fill:#FF0000;}
	.st132{fill:#E6CB7E;}
	.st133{fill:#D5B45E;}
	.st134{fill:none;stroke:#C7C6B5;stroke-width:0.75;stroke-miterlimit:10;}
	.st135{fill:#FF9E9E;}
	.st136{fill:#BD834E;}
	.st137{clip-path:url(#SVGID_00000128469423014657021740000011281257053432293013_);fill:#FDEFB5;}
	.st138{clip-path:url(#SVGID_00000128469423014657021740000011281257053432293013_);}
</style>
<g>
	<g>
		<defs>
			<circle id="SVGID_00000163048514066254443220000016995198243895634564_" cx="34.1" cy="30" r="30"/>
		</defs>
		<clipPath id="SVGID_00000092441866013300367190000002789102965084730503_">
			<use xlink:href="#SVGID_00000163048514066254443220000016995198243895634564_"  style="overflow:visible;"/>
		</clipPath>
		<g style="clip-path:url(#SVGID_00000092441866013300367190000002789102965084730503_);">
			<circle class="st96" cx="34.1" cy="30" r="30"/>
		</g>
		<path style="clip-path:url(#SVGID_00000092441866013300367190000002789102965084730503_);fill:#017946;" d="M29,44.1
			c-0.1,0-0.2-0.1-0.2-0.2c-2.1-8.8-7.3-12.6-7.3-12.6c-0.1-0.1-0.1-0.2-0.1-0.3c0.1-0.1,0.2-0.1,0.3-0.1c0.1,0,5.3,3.9,7.5,12.9
			C29.2,43.9,29.2,44.1,29,44.1C29,44.1,29,44.1,29,44.1z"/>
		<path style="clip-path:url(#SVGID_00000092441866013300367190000002789102965084730503_);fill:#017946;" d="M37.6,59.9
			c-0.1,0-0.2-0.1-0.2-0.2l-5-33.2c0-0.1,0.1-0.3,0.2-0.3c0.1,0,0.3,0.1,0.3,0.2l5,33.2C37.9,59.8,37.8,59.9,37.6,59.9
			C37.6,59.9,37.6,59.9,37.6,59.9z"/>
		<path style="clip-path:url(#SVGID_00000092441866013300367190000002789102965084730503_);fill:#017946;" d="M35.7,48.2
			C35.7,48.2,35.7,48.2,35.7,48.2c-0.2,0-0.3-0.1-0.2-0.3c1.5-11.1,6.7-16.1,6.8-16.2c0.1-0.1,0.3-0.1,0.4,0c0.1,0.1,0.1,0.3,0,0.4
			c-0.1,0-5.1,5-6.6,15.9C36,48.1,35.9,48.2,35.7,48.2z"/>
		<path style="clip-path:url(#SVGID_00000092441866013300367190000002789102965084730503_);fill:#BD8800;" d="M23.8,41.5
			c0,2.4,7.5,31.5,7.5,31.5h3.8l8-31.7L23.8,41.5z"/>
		<path style="clip-path:url(#SVGID_00000092441866013300367190000002789102965084730503_);fill:#017946;" d="M41.6,40.1
			c-0.8,0-3.3,0-3.6-0.5l-0.1-0.1c0-0.1-0.1-0.2,0-0.2l0.1-0.2c0.3-0.7,3.6-4.3,8.7-4.8c2-0.2,5.7,0.1,6.2,0.8
			c0.1,0.1,0.2,0.4,0,0.7c-0.4,1-3,3.2-7.2,3.9C44.5,40,43.1,40.1,41.6,40.1L41.6,40.1C41.6,40.1,41.6,40.1,41.6,40.1z M38.4,39.3
			L38.4,39.3c0.2,0.1,1.4,0.3,3.2,0.3c0,0,0,0,0,0l0,0c1.5,0,2.9-0.1,4-0.3c4-0.7,6.5-2.9,6.8-3.7c0-0.1,0-0.2,0-0.2
			c-0.3-0.4-3.3-0.9-5.7-0.6C41.9,35.3,38.7,38.7,38.4,39.3L38.4,39.3z"/>
		<g style="clip-path:url(#SVGID_00000092441866013300367190000002789102965084730503_);">
			<path class="st15" d="M23.6,34c0,0,6.1-4,5.1-9.1c-1-5.2-2.8-6-4.1-5.5c-2.4,0.9-2.4,6.1-2.4,6.1s-3.1-5.2-5.8-4.3
				s-0.3,6.4-0.3,6.4s-6.4-1.5-6.1,1.5c0.3,3,5.1,5.9,7.8,6.1C21.8,35.6,23.6,34,23.6,34z"/>
			<path class="st47" d="M23.2,34c0-0.1-2.5-5.1-7.1-6.1l0.1-0.5c4.8,1.1,7.3,6.2,7.4,6.4L23.2,34z"/>
			<path class="st47" d="M23.2,34c-2-3.1-1.2-8.3-1.2-8.5l0.5,0.1c0,0.1-0.8,5.2,1.1,8.1L23.2,34z"/>
		</g>
		<path style="clip-path:url(#SVGID_00000092441866013300367190000002789102965084730503_);fill:#058C60;" d="M17.8,33.2
			c4.4,5.8,12.1,3.3,12.1,3.8S26.8,31.6,17.8,33.2z"/>
		<path style="clip-path:url(#SVGID_00000092441866013300367190000002789102965084730503_);fill:#058C60;" d="M19.2,17.1
			c0-0.2,0.3-0.3,0.6-0.2c8.2,3.3,9.2,11,9,11.4C28.6,28.7,19.6,27.7,19.2,17.1z"/>
		<g style="clip-path:url(#SVGID_00000092441866013300367190000002789102965084730503_);">
			<path class="st26" d="M36.6,16.8c0,0,2.5-0.8,4.1,0.7c1.6,1.6,0,3.2,0,3.2s2.3,1.5,2,3.9c-0.3,2.4-2.3,3.2-2.3,3.2
				s0.9,1.4-0.4,2.6c-1.3,1.1-3.1,0.4-3.1,0.4s-2.2,1.9-4.5,1.5s-3.6-3.1-3.6-3.1S27,30.9,25,28.6s-0.3-3.8-0.3-3.8
				s-3.3-3.9-1.3-6.2s5.3-1.8,5.3-1.8s2.2-3,4-2.9C36,13.9,36.6,16.8,36.6,16.8z"/>
			<path class="st49" d="M32.1,26.1c-1.6,0-2.5-0.8-2.5-0.8l0.3-0.4c0.1,0.1,1.5,1.3,4,0.4c2.4-0.9,2.9-2.6,2.9-2.6l0.5,0.1
				c0,0.1-0.5,2-3.2,3C33.3,26,32.6,26.1,32.1,26.1z"/>
			<path class="st49" d="M32.5,26.1c-0.1,0-0.2-0.1-0.2-0.2c-0.1-2.6-2.4-3.6-2.5-3.7c-0.1-0.1-0.2-0.2-0.1-0.3
				c0.1-0.1,0.2-0.2,0.3-0.1c0.1,0,2.6,1.2,2.8,4.1C32.8,25.9,32.7,26.1,32.5,26.1C32.5,26.1,32.5,26.1,32.5,26.1z"/>
			<path class="st49" d="M34.7,25.1c-0.1,0-0.2-0.1-0.2-0.2c-1-3.1,0.1-5.3,0.2-5.4c0.1-0.1,0.2-0.2,0.3-0.1
				c0.1,0.1,0.2,0.2,0.1,0.3c0,0-1,2-0.1,5C34.9,24.9,34.9,25,34.7,25.1C34.7,25.1,34.7,25.1,34.7,25.1z"/>
			<path class="st49" d="M30.2,21.6c0,0.3-0.4,0.5-0.8,0.5c-0.4,0-0.5-0.3-0.5-0.6c0-0.3,0.4-0.5,0.7-0.5C30,21,30.2,21.3,30.2,21.6
				z"/>
			<path class="st49" d="M35.6,19.3c0,0.3-0.3,0.6-0.7,0.6s-0.7-0.3-0.7-0.6c0-0.3,0.3-0.6,0.7-0.6S35.6,19,35.6,19.3z"/>
			<path class="st49" d="M32.3,19.3c0,0.4-0.3,0.7-0.7,0.7s-0.7-0.3-0.7-0.7s0.4-0.6,0.8-0.6C32,18.8,32.3,19,32.3,19.3z"/>
			<path class="st49" d="M33.6,25.7c-0.1,0-0.2-0.1-0.2-0.2c-0.2-3-1.3-4.6-1.7-5.2c-0.2-0.2-0.2-0.3-0.2-0.4c0-0.1,0.1-0.2,0.2-0.2
				c0.1,0,0.2,0.1,0.2,0.2c0,0,0.1,0.1,0.1,0.2c0.5,0.7,1.7,2.4,1.8,5.5C33.8,25.5,33.7,25.7,33.6,25.7
				C33.6,25.7,33.6,25.7,33.6,25.7z M31.9,19.8L31.9,19.8L31.9,19.8z"/>
		</g>
		<g style="clip-path:url(#SVGID_00000092441866013300367190000002789102965084730503_);">
			<g>
				<g>
					<path class="st50" d="M45.4,16.5c-3.7,0.9-6.3,3.3-6.5,7.5c-0.2,4.2,2.4,7.9,5.4,8.6c3.3,0.8,9.9-0.9,11.2-4.2
						c0.6-1.7,1.3-6-1.1-8.7C52.1,17.1,47.3,16.1,45.4,16.5z"/>
				</g>
				<path class="st51" d="M45.7,26.8l-0.5-0.1c1.3-4.2-2.6-8.9-2.6-8.9l0.4-0.3C43.1,17.6,47.1,22.4,45.7,26.8z"/>
				<path class="st51" d="M41.2,29l-0.3-0.4c6.4-4.5,14.9-3.3,15-3.3l-0.1,0.5C55.7,25.7,47.5,24.6,41.2,29z"/>
				<path class="st51" d="M45.6,22.9l-0.3-0.4c0,0,3.9-3.6,9.7-2.2l-0.1,0.5C49.3,19.5,45.7,22.9,45.6,22.9z"/>
				<path class="st51" d="M48.7,21c0-0.1-0.5-1.6-2.1-1.8c-0.8-0.1-1.9,0.5-2.1,0.6l-0.1-0.2l0,0L44.3,20l-0.2-0.3
					c0.1-0.4,1.7-1.1,2.6-0.9c1.9,0.2,2.5,2,2.5,2.1L48.7,21z"/>
				<path class="st28" d="M38.9,24c-0.1,2.1,0.5,4.1,1.5,5.7c0.5-1-0.1-2-0.1-2s2-0.8,2.3-3.2c0.3-2.4-2-3.9-2-3.9s1-1,0.7-2.1
					C40,19.9,39.1,21.6,38.9,24z"/>
			</g>
			<path class="st48" d="M42.6,32.2c0,0-0.7-5.3-4.9-7.6c0,0,0,0,0,0C37.6,28.2,39.3,30,42.6,32.2z"/>
			<path class="st48" d="M42.3,32c0,0,6.7,3.3,12.6,0C50.7,29.1,47.4,29.7,42.3,32z"/>
		</g>
		<path style="clip-path:url(#SVGID_00000092441866013300367190000002789102965084730503_);fill:#F7C600;" d="M28,41.4
			c0,0-0.8,3.8,1.4,4.6c2.2,0.8,5.3-2.3,5.3-2.3s2.1,3,4.6,1.6c1.4-0.8,2.8-1.7,2.4-3.9c-0.4-2.2-2.1-3.4-2.1-3.4s2-2.1,0.6-4.7
			s-6.4-0.9-6.4-0.9s-1.1-2.3-4-2.3S27,33.7,27,33.7s-3.7,2.5-3.2,4.4C24.5,41.1,28,41.4,28,41.4z"/>
		<path style="clip-path:url(#SVGID_00000092441866013300367190000002789102965084730503_);fill:#FF5534;" d="M29.8,30.1
			c-0.2,0-0.3,0-0.5,0c0.6,0.8,1.6,2,3.1,2.2c0.5,0.1,0.9,0,1.3,0C33.4,31.7,32.3,30.1,29.8,30.1z"/>
		<path style="clip-path:url(#SVGID_00000092441866013300367190000002789102965084730503_);fill:#D5A600;" d="M32.6,39.8l-0.1-0.4
			C31.9,37.5,28.1,37,28,37l0.1-0.5c0.2,0,3.7,0.5,4.7,2.4c1.5-1.5,3.4-3.2,7.5-2.6l-0.1,0.5c-4.1-0.6-5.9,1.2-7.3,2.6L32.6,39.8z"
			/>
		<path style="clip-path:url(#SVGID_00000092441866013300367190000002789102965084730503_);fill:#D5A600;" d="M32.7,39l-0.4-0.2
			c0.7-1.4-1.4-3.7-1.4-3.7l0.4-0.3C31.3,34.8,33.5,37.2,32.7,39z"/>
		<path style="clip-path:url(#SVGID_00000092441866013300367190000002789102965084730503_);fill:#D5A600;" d="M33,39.3l-0.5-0.1
			c0.4-2.7,2.3-3.9,2.3-3.9l0.3,0.4C35.1,35.7,33.4,36.8,33,39.3z"/>
		<path style="clip-path:url(#SVGID_00000092441866013300367190000002789102965084730503_);fill:#D5A600;" d="M31.7,34.7
			c0,0.4-0.3,0.7-0.7,0.7s-0.7-0.3-0.7-0.7c0-0.4,0.4-0.7,0.7-0.7S31.7,34.3,31.7,34.7z"/>
		<path style="clip-path:url(#SVGID_00000092441866013300367190000002789102965084730503_);fill:#D5A600;" d="M36,35.3
			c0,0.4-0.5,0.6-0.9,0.6s-0.7-0.3-0.7-0.7c0-0.4,0.3-0.7,0.7-0.7S36,34.9,36,35.3z"/>
		<g style="clip-path:url(#SVGID_00000092441866013300367190000002789102965084730503_);">
			<path class="st4" d="M52.4,44.7c-0.4,0-0.7-0.3-0.9-0.6c-0.2-0.3-0.5-0.9-0.5-1.3c-0.1-0.7,0-1,0.3-1.5c0.2-0.4,0.5-0.5,0.8-0.4
				c0.3,0.1,0.6,0.4,0.9,0.7c0.6,0.8,0.6,2.1,0.1,2.7c-0.2,0.2-0.4,0.4-0.6,0.4C52.5,44.7,52.4,44.7,52.4,44.7z M51.9,41.3
				c0,0-0.1,0-0.1,0.1c-0.2,0.4-0.3,0.7-0.2,1.3c0,0.3,0.2,0.8,0.4,1c0.3,0.3,0.4,0.4,0.6,0.4l0,0c0,0,0.1,0,0.3-0.2
				c0.3-0.4,0.3-1.5-0.2-2.1C52.4,41.6,52.2,41.4,51.9,41.3C51.9,41.4,51.9,41.3,51.9,41.3z"/>
			<path class="st4" d="M53.1,44.8c-0.1,0-0.2,0-0.3,0c-0.3-0.1-0.5-0.2-0.6-0.4c-0.3-0.4-0.1-0.9,0.1-1.2c0.2-0.3,0.6-0.8,1-1
				c0.6-0.3,1-0.4,1.5-0.4c0.4,0,0.7,0.2,0.7,0.6c0,0.3-0.1,0.7-0.3,1.1C54.8,44.2,53.9,44.8,53.1,44.8z M54.7,42.3
				c-0.5,0-0.7,0-1.2,0.3c-0.3,0.2-0.6,0.5-0.8,0.8c-0.2,0.4-0.2,0.6-0.1,0.7l0,0c0,0,0.1,0.1,0.3,0.2c0.5,0.1,1.5-0.4,1.8-1
				c0.2-0.3,0.2-0.6,0.2-0.8C55,42.4,55,42.3,54.7,42.3z"/>
		</g>
		<g style="clip-path:url(#SVGID_00000092441866013300367190000002789102965084730503_);">
			<path class="st4" d="M12.4,45.9c-0.1,0-0.1,0-0.2,0c-0.5-0.1-0.7-0.6-0.8-0.9c-0.1-0.4-0.1-1,0-1.4c0.2-0.7,0.4-1,0.8-1.3
				c0.3-0.3,0.6-0.3,0.9-0.1c0.3,0.2,0.5,0.6,0.6,1c0.2,0.9-0.2,2.2-0.8,2.5C12.7,45.9,12.5,45.9,12.4,45.9z M12.8,42.5
				c0,0-0.1,0-0.2,0.1c-0.4,0.3-0.5,0.6-0.7,1.1c-0.1,0.3-0.1,0.8,0,1.1c0.1,0.4,0.2,0.5,0.4,0.6l0,0c0,0,0.1,0,0.3-0.1
				c0.5-0.3,0.8-1.3,0.6-2C13.2,43,13,42.7,12.8,42.5C12.8,42.6,12.8,42.5,12.8,42.5z"/>
			<path class="st4" d="M13.4,46.3c-0.4,0-0.7-0.1-1-0.2c-0.3-0.2-0.4-0.4-0.4-0.6c-0.1-0.5,0.2-0.8,0.5-1.1
				c0.3-0.3,0.8-0.5,1.3-0.6c0.7-0.1,1,0,1.6,0.2c0.4,0.1,0.5,0.4,0.5,0.8c-0.1,0.3-0.3,0.7-0.7,1C14.7,46.1,14,46.3,13.4,46.3z
				 M14.3,44.3c-0.1,0-0.3,0-0.5,0c-0.4,0.1-0.8,0.3-1,0.5c-0.3,0.3-0.4,0.4-0.3,0.6l0,0c0,0,0,0.1,0.2,0.2c0.4,0.3,1.5,0.2,2-0.3
				c0.3-0.2,0.4-0.5,0.5-0.7c0-0.1,0-0.1-0.1-0.2C14.8,44.4,14.6,44.3,14.3,44.3z"/>
		</g>
		<g style="clip-path:url(#SVGID_00000092441866013300367190000002789102965084730503_);">
			<path class="st4" d="M19.9,5.6c-0.1,0-0.2,0-0.2,0c-0.5-0.1-0.6-0.6-0.7-1c-0.1-0.4,0-1,0.1-1.4c0.3-0.6,0.5-0.9,1-1.2
				c0.3-0.2,0.7-0.2,0.9,0c0.2,0.2,0.4,0.6,0.5,1.1c0.1,0.9-0.4,2.1-1.1,2.4C20.2,5.6,20,5.6,19.9,5.6z M20.5,2.3c0,0-0.1,0-0.2,0.1
				c-0.4,0.3-0.6,0.5-0.8,1c-0.1,0.3-0.2,0.8-0.1,1.1c0.1,0.4,0.2,0.6,0.3,0.6l0,0c0,0,0.1,0,0.3-0.1c0.5-0.2,0.9-1.2,0.8-1.9
				C20.9,2.8,20.8,2.5,20.5,2.3C20.6,2.3,20.6,2.3,20.5,2.3z"/>
			<path class="st4" d="M21.1,6.1c-0.5,0-0.9-0.1-1.2-0.4c-0.2-0.2-0.3-0.4-0.4-0.6c-0.1-0.5,0.3-0.8,0.6-1c0.3-0.2,0.9-0.4,1.3-0.5
				c0.7,0,1,0.1,1.5,0.3c0.4,0.2,0.5,0.5,0.4,0.8c-0.1,0.3-0.4,0.6-0.8,0.9C22.1,6,21.6,6.1,21.1,6.1z M21.6,4.2c-0.1,0-0.1,0-0.2,0
				c-0.3,0-0.8,0.2-1,0.3C20.1,4.8,20,4.9,20,5.1l0,0c0,0,0,0.1,0.2,0.3c0.4,0.4,1.5,0.3,2.1-0.1c0.3-0.2,0.5-0.4,0.6-0.6
				c0-0.1,0-0.1-0.1-0.2C22.3,4.3,22.1,4.2,21.6,4.2z"/>
		</g>
		<g style="clip-path:url(#SVGID_00000092441866013300367190000002789102965084730503_);">
			<path class="st4" d="M45.7,16.5c-0.1,0-0.1,0-0.2,0c-0.5-0.1-0.7-0.6-0.8-0.9c-0.1-0.4-0.1-1,0-1.4c0.2-0.7,0.4-1,0.8-1.3
				c0.3-0.3,0.6-0.3,0.9-0.1c0.3,0.2,0.5,0.6,0.6,1c0.2,0.9-0.2,2.2-0.8,2.5C46,16.5,45.8,16.5,45.7,16.5z M46.1,13.2
				c0,0-0.1,0-0.2,0.1c-0.4,0.3-0.5,0.6-0.7,1.1c-0.1,0.3-0.1,0.8,0,1.1c0.1,0.4,0.2,0.5,0.4,0.6l0,0c0,0,0.1,0,0.3-0.1
				c0.5-0.3,0.8-1.3,0.6-2C46.5,13.6,46.3,13.4,46.1,13.2C46.1,13.2,46.1,13.2,46.1,13.2z"/>
			<path class="st4" d="M46.7,17c-0.4,0-0.7-0.1-1-0.2c-0.3-0.2-0.4-0.4-0.4-0.6c-0.1-0.5,0.2-0.8,0.5-1.1c0.3-0.3,0.8-0.5,1.3-0.6
				c0.7-0.1,1,0,1.6,0.2c0.4,0.1,0.5,0.4,0.5,0.8c-0.1,0.3-0.3,0.7-0.7,1C48,16.8,47.3,17,46.7,17z M47.6,14.9c-0.1,0-0.3,0-0.5,0
				c-0.3,0.1-0.8,0.3-1,0.5c-0.3,0.3-0.4,0.4-0.3,0.6l0,0c0,0,0,0.1,0.2,0.2c0.4,0.3,1.5,0.2,2-0.3c0.3-0.2,0.4-0.5,0.5-0.7
				c0-0.1,0-0.1-0.2-0.2C48.1,15,47.9,14.9,47.6,14.9z"/>
		</g>
	</g>
</g>
</svg>
