<?xml version="1.0" encoding="utf-8"?>
<!-- Generator: Adobe Illustrator 26.1.0, SVG Export Plug-In . SVG Version: 6.00 Build 0)  -->
<svg version="1.1" id="Layer_1" xmlns="http://www.w3.org/2000/svg" xmlns:xlink="http://www.w3.org/1999/xlink" x="0px" y="0px"
	 viewBox="0 0 68 60" style="enable-background:new 0 0 68 60;" xml:space="preserve">
<style type="text/css">
	.st0{fill:#FCE899;}
	.st1{fill:#008E60;}
	.st2{fill:#F7C600;}
	.st3{fill:#FAEE8C;}
	.st4{fill:#FFFFFF;}
	.st5{fill:#F39F00;}
	.st6{fill:#FFF1E7;}
	.st7{fill:#FFB7A1;}
	.st8{fill:#FA7463;}
	.st9{fill:#007F4F;}
	.st10{fill:#FF3008;}
	.st11{fill:#FF807B;}
	.st12{fill:#FF706B;}
	.st13{fill:#FFD7C7;}
	.st14{fill:#007947;}
	.st15{fill:#62C0C3;}
	.st16{fill:#E7E5D9;}
	.st17{fill:#00858C;}
	.st18{fill:#C5C4AD;}
	.st19{fill:#FF4F2D;}
	.st20{fill:#F9DB4B;}
	.st21{fill:#FFE900;}
	.st22{fill:#F8CC00;}
	.st23{fill:#EECA00;}
	.st24{fill:#E3B300;}
	.st25{fill:#FFFBE8;}
	.st26{fill:#FB8677;}
	.st27{fill:#FFB1AE;}
	.st28{fill:#FF5534;}
	.st29{fill:#409C7A;}
	.st30{fill:#BCE9EA;}
	.st31{fill:#029999;}
	.st32{fill:#BCBBA4;}
	.st33{fill:#8CD7D9;}
	.st34{fill:none;stroke:#F9BEAA;stroke-width:0.5;stroke-miterlimit:10;}
	.st35{fill:#075B46;}
	.st36{fill:#68E1DE;}
	.st37{fill:#E8FCFB;}
	.st38{fill:#17A3A9;}
	.st39{fill:#00838A;}
	.st40{fill:#008344;}
	.st41{fill:#FD7B2F;}
	.st42{fill:#FBAC6B;}
	.st43{fill:#E54E03;}
	.st44{fill:#FE8D4B;}
	.st45{fill:#017946;}
	.st46{fill:#BD8800;}
	.st47{fill:#86CED1;}
	.st48{fill:#058C60;}
	.st49{fill:#E85658;}
	.st50{fill:#FDAFAC;}
	.st51{fill:#EF9595;}
	.st52{fill:#D5A600;}
	.st53{fill:#007F3A;}
	.st54{fill:#FF838B;}
	.st55{fill:#FDC1BE;}
	.st56{fill:#954C00;}
	.st57{fill:#FFB8A2;}
	.st58{fill:#F9BEAA;}
	.st59{fill:#A16C00;}
	.st60{fill:#C7C6B7;}
	.st61{fill:#DFDED5;}
	.st62{fill:#FF7168;}
	.st63{fill:#FADB5C;}
	.st64{fill:#002F10;}
	.st65{fill:#C4AB80;}
	.st66{clip-path:url(#SVGID_00000021808717597338051810000013967888406830417341_);fill:#FDEFB5;}
	.st67{clip-path:url(#SVGID_00000021808717597338051810000013967888406830417341_);}
	.st68{clip-path:url(#SVGID_00000021808717597338051810000013967888406830417341_);fill:#4ADEDB;}
	.st69{fill:#FF2D00;}
	.st70{clip-path:url(#SVGID_00000021115241693264232930000001246386653700580258_);fill:#FDEFB5;}
	.st71{clip-path:url(#SVGID_00000021115241693264232930000001246386653700580258_);}
	.st72{clip-path:url(#SVGID_00000105426785679954521690000012209775834491294391_);fill:#FDEFB5;}
	.st73{clip-path:url(#SVGID_00000105426785679954521690000012209775834491294391_);}
	.st74{clip-path:url(#SVGID_00000105426785679954521690000012209775834491294391_);fill:#F7C600;}
	.st75{clip-path:url(#SVGID_00000002381772493505946980000016074631529722202003_);fill:#FDEFB5;}
	.st76{clip-path:url(#SVGID_00000002381772493505946980000016074631529722202003_);}
	.st77{clip-path:url(#SVGID_00000002381772493505946980000016074631529722202003_);fill:#007947;}
	.st78{clip-path:url(#SVGID_00000002381772493505946980000016074631529722202003_);fill:#F7C600;}
	.st79{clip-path:url(#SVGID_00000002381772493505946980000016074631529722202003_);fill:#FFFFFF;}
	.st80{clip-path:url(#SVGID_00000031182706644163462210000014941956266908977572_);fill:#FDEFB5;}
	.st81{clip-path:url(#SVGID_00000034781057633500580980000013498701207618513073_);}
	.st82{clip-path:url(#SVGID_00000152969454808385717500000009202933399623735955_);fill:#FDEFB5;}
	.st83{clip-path:url(#SVGID_00000152969454808385717500000009202933399623735955_);}
	.st84{fill:#452700;}
	.st85{fill:#643B00;}
	.st86{fill:#C6C5B1;}
	.st87{fill:#0F2A1D;}
	.st88{fill:#E8C500;}
	.st89{fill:#006873;}
	.st90{clip-path:url(#SVGID_00000165937840561843698000000007343651343524692639_);fill:#FDEFB5;}
	.st91{clip-path:url(#SVGID_00000165937840561843698000000007343651343524692639_);}
	.st92{clip-path:url(#SVGID_00000025440818264102618470000005137182663426338453_);fill:#FDEFB5;}
	.st93{clip-path:url(#SVGID_00000025440818264102618470000005137182663426338453_);}
	.st94{fill:#388E90;}
	.st95{clip-path:url(#SVGID_00000026880484934583818090000011855718520211032453_);}
	.st96{fill:#FCEDB4;}
	.st97{clip-path:url(#SVGID_00000026880484934583818090000011855718520211032453_);fill:#017946;}
	.st98{clip-path:url(#SVGID_00000026880484934583818090000011855718520211032453_);fill:#BD8800;}
	.st99{clip-path:url(#SVGID_00000026880484934583818090000011855718520211032453_);fill:#058C60;}
	.st100{clip-path:url(#SVGID_00000026880484934583818090000011855718520211032453_);fill:#F7C600;}
	.st101{clip-path:url(#SVGID_00000026880484934583818090000011855718520211032453_);fill:#FF5534;}
	.st102{clip-path:url(#SVGID_00000026880484934583818090000011855718520211032453_);fill:#D5A600;}
	.st103{clip-path:url(#SVGID_00000080929236804832755920000015492358381326793393_);}
	.st104{fill:#FDEFB5;}
	.st105{clip-path:url(#SVGID_00000124131821199058739420000010413359180528583597_);fill:none;}
	.st106{clip-path:url(#SVGID_00000124131821199058739420000010413359180528583597_);fill:#FDEFB5;}
	.st107{clip-path:url(#SVGID_00000124131821199058739420000010413359180528583597_);}
	.st108{clip-path:url(#SVGID_00000124131821199058739420000010413359180528583597_);fill:#C4AB80;}
	.st109{clip-path:url(#SVGID_00000124131821199058739420000010413359180528583597_);fill:#FF3008;}
	.st110{clip-path:url(#SVGID_00000122678256095747474330000013986081521439138233_);fill:#FDEFB5;}
	.st111{clip-path:url(#SVGID_00000122678256095747474330000013986081521439138233_);}
	.st112{fill:#4A2500;}
	.st113{clip-path:url(#SVGID_00000108280629663557103960000010597978347516896900_);fill:#FDEFB5;}
	.st114{clip-path:url(#SVGID_00000108280629663557103960000010597978347516896900_);}
	.st115{fill:#24372B;}
	.st116{clip-path:url(#SVGID_00000157278254808470334210000003055984360834406306_);fill:#FDEFB5;}
	.st117{clip-path:url(#SVGID_00000157278254808470334210000003055984360834406306_);}
	.st118{fill:#93D4D6;}
	.st119{fill:#A8A799;}
	.st120{fill:#037A4F;}
	.st121{fill:#B17C52;}
	.st122{fill:#C38C61;}
	.st123{fill:#DBB18E;}
	.st124{fill:#C7956E;}
	.st125{fill:#017575;}
	.st126{clip-path:url(#SVGID_00000001647265029137873190000002568383795252416896_);fill:#FDEFB5;}
	.st127{clip-path:url(#SVGID_00000001647265029137873190000002568383795252416896_);}
	.st128{fill:#CF7D2A;}
	.st129{fill:#91DADA;}
	.st130{fill:#BEE2CD;}
	.st131{fill:#FF0000;}
	.st132{fill:#E6CB7E;}
	.st133{fill:#D5B45E;}
	.st134{fill:none;stroke:#C7C6B5;stroke-width:0.75;stroke-miterlimit:10;}
	.st135{fill:#FF9E9E;}
	.st136{fill:#BD834E;}
	.st137{clip-path:url(#SVGID_00000064318537156774003320000002144647135970342843_);fill:#FDEFB5;}
	.st138{clip-path:url(#SVGID_00000064318537156774003320000002144647135970342843_);}
</style>
<g>
	<g>
		<g>
			<defs>
				<circle id="SVGID_00000094608672492066922680000016582560593838709389_" cx="33.9" cy="30" r="30"/>
			</defs>
			<clipPath id="SVGID_00000115488143100251962050000017964173211359943868_">
				<use xlink:href="#SVGID_00000094608672492066922680000016582560593838709389_"  style="overflow:visible;"/>
			</clipPath>
			
				<circle style="clip-path:url(#SVGID_00000115488143100251962050000017964173211359943868_);fill:#FDEFB5;" cx="33.9" cy="30" r="30"/>
		</g>
	</g>
	<g>
		<g>
			<defs>
				<circle id="SVGID_00000108310034848494515590000006670361075495807908_" cx="33.9" cy="30" r="30"/>
			</defs>
			<clipPath id="SVGID_00000176756464489252718000000008842488061372175543_">
				<use xlink:href="#SVGID_00000108310034848494515590000006670361075495807908_"  style="overflow:visible;"/>
			</clipPath>
			<g style="clip-path:url(#SVGID_00000176756464489252718000000008842488061372175543_);">
				<path class="st15" d="M12.5,16.2c0,0,0.3,1.3,0.2,1.7c-0.2,0.3-0.2,0.3-0.2,0.3s0-0.3-0.7-0.8s-0.8-0.9-1-0.8s-0.1,2.7-0.8,4.5
					S8.5,25.1,8.8,26c0.3,0.9-0.3,2.3-0.1,2.6c0.2,0.3,0.8,2.4,0.8,3.2c0.1,0.8,0.5,1.5,0.7,2.3c0.2,0.8,0,1.6,0.3,1.9
					c0.3,0.3,1.7,1.6,1.7,1.6l1.3,2.3l2.5,0.2l3.7,2.8l2.9,0.3l-0.1-0.8c0,0,1.8-0.3,1.9,0.2c0.1,0.5,1.3,1.8,1.3,1.8s0,1.1,0.5,1.5
					c0.5,0.3,1.5,1.1,1.5,1.1s0.5-1.6,0.9-1.4c0.5,0.2,0.8,0.3,1.2,0.7c0.3,0.3,0.8,1,1.1,1.8c0.3,0.8,0.9,1,0.9,1
					c0.2,0.5,0.2,1,0.3,1.3c0.3,0.3,0.8,0.5,1.1,0.6s0.8,0.2,1,0.2c0.2,0-0.3-0.8-0.3-1.1c0-0.3,0.1-0.6,0.1-0.9s0.1-0.6,0.3-0.8
					c0.2-0.2,0.3-0.3,0.7-0.6s0.6-0.3,0.9-0.5c0.3-0.3,0.9-0.7,0.9-0.9c-0.1-0.2-0.2-0.6,0.2-0.5c0.3,0.2,0.9-0.2,1.1-0.3
					s0.8,0,1.1,0.1c0.3,0.1,0.4-0.3,0.8-0.3s0.5,0.2,0.7,0.3c0.3,0.2,0.7,0.6,0.8,0.4c0.2-0.2,0.6-0.2,0.6-0.3
					c0-0.1,0.1-0.5,0.3-0.3c0.3,0.3,0.8,0.5,0.8,0.3c0-0.3-0.9-0.7-0.7-0.9c0.3-0.3,0.5-0.5,0.3-0.5c-0.3,0-1.3-0.2-1-0.3
					s1.1-0.1,1.5-0.2c0.4-0.1,0.7-0.4,1.2-0.3c0.5,0.1,1.2-0.1,1.3-0.1c0.5,0.1,0.9,0.2,1.1,0.5c0.2,0.3,0.6,0.3,0.6,0.3
					c0.4-0.3,0.8-0.7,1.1-0.6c0.3,0.2,0.8,0.8,1.2,0.9c0.3,0.2,0.6,1,0.6,1c0,0.4,0.3,1.3,0.3,1.4c0.1,0.2-0.1-0.1,0.1,0.2
					c0.2,0.3,0.9,1,0.9,1c0.3,0.3,0.9,1,0.9,1c0.3,0.3,0.7,0.4,0.9,0.3c0.3-0.2,0.3-0.2,0.3-0.2s0.2-0.7,0.1-1.2
					c-0.1-0.5-0.3-1.3-0.7-1.8c-0.3-0.5-0.3-1.2-0.8-1.8c-0.5-0.7-1.2-1.9-1.2-2.5s0-1.6,0.3-2.1c0.3-0.5,0.9-1.1,1.2-1.4
					c0.3-0.3,0.3-1.1,0.7-1.3c0.3-0.2,0.6-0.6,0.7-0.8c0.2-0.3,0.3-0.6,0.6-0.8c0.3-0.2,0.5-0.3,0.4-0.5s-0.5-0.5-0.2-0.7
					c0.3-0.2,0.8-0.2,0.7-0.5c-0.2-0.3-1.2-0.1-0.8-0.3c0.3-0.3,0.7-0.2,0.6-0.5c-0.1-0.3-0.1-0.7-0.3-0.8s-0.7-0.1-0.6-0.3
					c0.1-0.3-0.1-0.8-0.3-1c-0.2-0.3-0.3-0.4-0.2-0.7c0.1-0.3-0.3-1.2-0.1-1.3c0.3-0.2,0.3,0.8,0.4,1c0.2,0.3,0.3,0.5,0.5,0.5
					c0.3-0.1,0.1,0.4,0,0.7c-0.1,0.3,0.1,0.7,0.2,0.4c0.1-0.3,0.3-1.1,0.3-1.4c0.1-0.3-0.2-0.6-0.3-0.9c-0.3-0.3-0.7-0.9-0.3-0.8
					c0.3,0.2,0.7,0.7,0.8,0.3c0.2-0.3,0.3-0.6,0.3-1.1s-0.4-0.8-0.3-1.1c0.2-0.3,0.5-0.9,0.8-1.1c0.3-0.2,0.8-0.5,1.1-0.6
					c0.3-0.2,0.5-0.5,0.8-0.6c0.3-0.2,0.3-0.4,0.1-0.7c-0.2-0.3-0.6-0.3-0.5-0.6s-0.3-0.7-0.1-1c0.2-0.3,0.2-1,0.4-1.2
					c0.3-0.2,0.6-0.6,0.8-0.8c0.2-0.3,0.3-0.5,0.7-0.7c0.3-0.2,0.7-0.5,0.6-0.8c-0.1-0.3-0.3-0.4-0.3-0.4s-0.1-0.3-0.3-0.4
					c-0.2-0.1-0.5-0.2-0.5-0.2s-0.3-1.4-0.6-1.8c-0.3-0.3-0.3-0.3-0.6-0.2c-0.3,0.2-0.5,0.1-0.6,0.3c-0.2,0.2-0.5,0.9-0.4,1.3
					c0.1,0.4-0.1,1.1-0.1,1.4s-0.3,0.3-0.5,0.7c-0.3,0.3-0.5,0.4-0.8,0.5c-0.3,0.1-2,0.6-2.2,0.8c-0.2,0.2-0.7,1.1-1,1.3
					c-0.3,0.2-0.6,0.2-0.5,0.4c0.1,0.3-0.1,0.3-0.5,0.3c-0.5,0.1-1.2,0.6-1.3,0.9c-0.2,0.3-0.5,0.7-0.2,0.7c0.3-0.1,0.7-0.1,0.6,0.1
					c-0.1,0.2-0.8,0.2-1,0.5c-0.3,0.3-0.3,0.2-0.7,0.3c-0.5,0.2-0.7,0.3-0.9,0.8c-0.3,0.3-0.4,0.6-0.7,0.6c-0.3,0-0.5-0.1-0.3-0.4
					c0.3-0.3,0.3-0.6,0.3-0.9s0.3-0.5,0.3-1c-0.1-0.5-0.1-0.7-0.1-1.1s-0.3-1.3,0-1.3c0.3,0.1,0.5,0.5,0.8,0.5
					c0.3,0,0.7,0.1,0.6-0.3c-0.1-0.4-0.7-1.2-0.7-1.2s-0.3-0.3-0.7-0.3s-2,0.3-2.3,0.2c-0.3-0.1-0.3-0.6-0.6-0.7
					c-0.3-0.1-0.3-0.3-0.4-0.7s-0.3-0.6-0.7-0.7c-0.3-0.2-0.5-0.9-0.8-0.8s-0.3,0.5-0.7,0.2c-0.3-0.3-0.6-0.1-0.8,0.2
					c-0.3,0.3-0.3,0.6-0.6,0.8c-0.3,0.3-0.7,0.4-0.9,0.3c-0.3-0.1-0.6-0.3-0.9-0.2c-0.3,0.2-0.5,0.3-0.8,0.2
					c-0.3-0.2-0.5-0.3-0.8-0.3c-0.3,0-0.5,0-0.9-0.1c-0.4-0.1-0.6-0.1-0.7-0.3c-0.1-0.2-0.1-0.9-0.3-0.8c-0.2,0.2-0.3,0.6-0.3,0.6
					s-7.1,0-11.6-0.7C19.2,17.4,12.5,16.2,12.5,16.2z"/>
				<g>
					<path class="st28" d="M10.2,31.3c-0.1,0-3.5-4.4-3.3-6.6c0.3-1.9,2.3-3,4-2.5c1.7,0.5,2.5,2,2.3,3.3
						C12.8,27.7,10.3,31.3,10.2,31.3z"/>
				</g>
				<g>
					<path class="st28" d="M47.7,27.5c-0.1,0-3.4-4.3-3.2-6.5c0.3-1.9,2.2-2.9,3.9-2.5c1.7,0.4,2.4,2,2.2,3.3
						C50.2,23.9,47.8,27.5,47.7,27.5z"/>
				</g>
				<path class="st28" d="M12.1,33l-0.4-0.8c0.1,0,1.1-0.7,3-1.5l0.3,0.8C13.2,32.3,12.1,32.9,12.1,33z M18.1,30.3l-0.3-0.8
					c1.1-0.3,2.2-0.7,3.3-1l0.3,0.8C20.3,29.6,19.2,29.9,18.1,30.3z M46.6,29.6c-0.8-0.3-1.6-0.4-2.3-0.7l0.2-0.8
					c0.8,0.2,1.6,0.4,2.4,0.7L46.6,29.6z M24.5,28.6l-0.2-0.8c1.1-0.3,2.3-0.4,3.3-0.5l0.1,0.8C26.7,28.2,25.6,28.3,24.5,28.6z
					 M41,28.2c-1.1-0.2-2.2-0.3-3.3-0.4l0.1-0.8c1.1,0.1,2.3,0.3,3.3,0.4L41,28.2z M31.1,27.7l-0.1-0.8c1.1-0.1,2.3-0.1,3.3-0.1v0.8
					C33.3,27.7,32.2,27.7,31.1,27.7z"/>
			</g>
			<g style="clip-path:url(#SVGID_00000176756464489252718000000008842488061372175543_);">
				<path class="st4" d="M30.1,3.6c-0.5,0-1.1-0.1-1.6-0.3c-2.3-0.8-3.4-2.1-3.9-2.8l-0.1-0.2c-0.3-0.4-0.6-0.7-0.9-1.1
					C22.3-2,21.5-3,21.9-3.8c0.6-1.4,6.8,1,6.8,1C32-1.5,33.5,0.1,33.3,2l0,0c0,0.4-0.3,0.7-0.7,1C32,3.4,31.1,3.6,30.1,3.6z
					 M22.9-3.7c-0.3,0-0.5,0-0.6,0.2c-0.3,0.5,0.5,1.4,1.6,2.7c0.3,0.3,0.6,0.7,0.9,1.1L25,0.3c0.5,0.7,1.5,1.9,3.7,2.6
					c1.4,0.5,2.8,0.2,3.6-0.3c0.3-0.2,0.5-0.4,0.5-0.6l0,0c0.1-0.6,0.3-2.5-4.3-4.3C26.5-3.1,24-3.7,22.9-3.7z"/>
				<path class="st4" d="M25.6,8.9c-0.4,0-0.8-0.2-1.3-0.5c-1.3-0.9-2.7-3.3-3-6.9c-0.2-2.1,0.6-5.1,0.6-5.2c0-0.1,0.1-0.1,0.1-0.2
					c0.1,0,0.1,0,0.2,0c0.1,0.1,3.6,1.4,5.1,6.7c0.1,0.3,1,3.5-0.1,5.1c-0.3,0.5-0.8,0.8-1.4,1C25.8,8.9,25.7,8.9,25.6,8.9z
					 M22.3-3.3c-0.2,0.8-0.6,3.1-0.5,4.7c0.3,3.5,1.7,5.7,2.8,6.6c0.4,0.3,0.8,0.5,1.2,0.4l0,0c0.5-0.1,0.8-0.3,1-0.7
					c0.7-1.2,0.4-3.6,0-4.7C25.6-1.3,23.1-2.9,22.3-3.3z"/>
				<path class="st4" d="M18.6,10.2c-0.4,0-0.7-0.1-1-0.4l0,0c-1.3-0.9-1.5-5.4,1.2-9.9c1.2-2,3.5-3.9,3.6-4c0.1,0,0.1-0.1,0.2-0.1
					c0.1,0,0.1,0.1,0.2,0.1c0.1,0.2,1.7,4-0.4,9.7c-0.1,0.4-1.5,3.8-3.3,4.4C18.9,10.2,18.7,10.2,18.6,10.2z M17.8,9.5
					c0.4,0.3,0.7,0.3,1.1,0.2c1.3-0.4,2.5-2.8,3-4.1c1.7-4.6,0.8-8,0.5-9c-0.7,0.6-2.3,2.1-3.2,3.7C16.5,4.7,16.8,8.7,17.8,9.5
					L17.8,9.5z"/>
			</g>
			<g style="clip-path:url(#SVGID_00000176756464489252718000000008842488061372175543_);">
				<path class="st4" d="M60.2,47.4c-2.7,0-4.2-0.7-4.7-2.2c0,0,0,0,0,0c-0.1-0.3,0-0.6,0.2-1c0.5-0.9,1.9-1.8,3.6-2.1
					c2.4-0.3,3.9,0.3,4.7,0.6l0.2,0.1c0.4,0.2,0.9,0.3,1.2,0.5c1.8,0.7,2.8,1.1,2.8,2c-0.1,1.4-6.5,2-6.6,2
					C61.1,47.3,60.6,47.4,60.2,47.4z M56,45c0.2,0.5,0.7,2.1,5.6,1.8c2.7-0.2,6.1-1.1,6.1-1.5c0-0.5-1-0.9-2.5-1.5
					c-0.4-0.1-0.8-0.3-1.2-0.5l-0.2-0.1c-0.7-0.3-2.1-0.9-4.4-0.6c-1.5,0.2-2.8,1.1-3.2,1.8C56,44.7,55.9,44.9,56,45L56,45z"/>
				<path class="st4" d="M67.6,45.5c-1,0-4-0.3-6.9-3.4c-0.2-0.2-2.2-2.4-2-4.2c0.1-0.6,0.4-1.1,0.9-1.5c0.4-0.3,1-0.4,1.8-0.2
					c1.5,0.3,3.6,1.6,5.3,4.4c1,1.7,1.5,4.4,1.5,4.5c0,0.1,0,0.1,0,0.2c0,0.1-0.1,0.1-0.2,0.1C67.9,45.5,67.8,45.5,67.6,45.5z
					 M60.6,36.7c-0.3,0-0.6,0.1-0.8,0.2l0,0c-0.4,0.3-0.6,0.6-0.7,1.1c-0.1,1.3,1.1,3,1.8,3.8c2.8,2.9,5.7,3.2,6.6,3.2
					c-0.1-0.7-0.6-2.8-1.4-4c-1.6-2.6-3.6-3.9-5-4.2C61,36.8,60.8,36.7,60.6,36.7z M59.7,36.7L59.7,36.7L59.7,36.7z"/>
				<path class="st4" d="M67.6,45.8c-0.1,0-0.1,0-0.2-0.1c-0.1-0.1-3.1-2.5-3.5-8.1c0-0.4-0.2-3.7,1.2-4.9c0.4-0.4,0.9-0.5,1.6-0.5
					c1.6,0.2,3.4,3.8,2.8,8.7c-0.3,2.1-1.7,4.7-1.7,4.8C67.7,45.8,67.7,45.8,67.6,45.8C67.6,45.8,67.6,45.8,67.6,45.8z M66.4,32.7
					c-0.3,0-0.6,0.1-0.9,0.3c-1,0.9-1.1,3.3-1.1,4.5c0.3,4.5,2.3,6.9,3,7.6c0.4-0.7,1.3-2.7,1.5-4.3c0.7-4.7-1.1-7.9-2.4-8.1l0,0
					C66.6,32.7,66.5,32.7,66.4,32.7z"/>
			</g>
			<g style="clip-path:url(#SVGID_00000176756464489252718000000008842488061372175543_);">
				<path class="st4" d="M12.6,59.4c-1.5,0-5.5-3.6-5.5-3.6c-2.6-2.4-3.4-4.4-2.5-5.9l0,0c0.1-0.3,0.5-0.4,0.9-0.5
					c1-0.2,2.7,0.2,3.9,1.3c1.8,1.6,2.4,3.1,2.7,3.9l0.1,0.2c0.2,0.4,0.3,0.9,0.5,1.2c0.7,1.8,1.1,2.8,0.4,3.4
					C12.9,59.3,12.8,59.4,12.6,59.4z M6,49.7c-0.2,0-0.3,0-0.4,0c-0.3,0-0.5,0.1-0.5,0.3c0,0,0,0,0,0c-0.3,0.5-1.1,2,2.4,5.3
					c2,1.9,4.9,3.8,5.2,3.5c0.4-0.3,0-1.4-0.6-2.8c-0.1-0.4-0.3-0.8-0.5-1.3l-0.1-0.2c-0.3-0.8-0.8-2.2-2.5-3.7
					C8.1,50.1,6.9,49.7,6,49.7z M4.8,49.9L4.8,49.9L4.8,49.9z"/>
				<path class="st4" d="M12.8,59.3c-0.1,0-0.1,0-0.2-0.1c-0.1-0.1-2.8-2.6-2.4-7.6c0-0.3,0.3-3.2,1.8-4.2c0.5-0.4,1.1-0.5,1.7-0.3
					l0,0c0.5,0.1,1,0.5,1.3,1.2c0.7,1.3,1.2,3.8,0.3,6.9c-0.6,1.9-2.3,4-2.3,4.1C13,59.3,12.9,59.3,12.8,59.3
					C12.9,59.3,12.9,59.3,12.8,59.3z M13.2,47.4c-0.3,0-0.6,0.1-0.9,0.3c-1,0.8-1.5,2.8-1.6,3.9c-0.3,4,1.4,6.4,2,7
					c0.4-0.6,1.6-2.3,2.1-3.7c0.9-2.9,0.5-5.3-0.2-6.5c-0.3-0.5-0.7-0.9-1-1l0,0C13.5,47.5,13.4,47.4,13.2,47.4z"/>
				<path class="st4" d="M12.4,59.3c-0.1,0-0.1,0-0.1,0c-0.1,0-0.1-0.1-0.1-0.2c0-0.2-0.2-4,3.7-8c0.3-0.3,2.6-2.6,4.5-2.4
					c0.6,0.1,1,0.3,1.4,0.8l0,0c0.9,1.3-0.5,5.1-4.6,7.9C15.4,58.5,12.6,59.2,12.4,59.3C12.4,59.3,12.4,59.3,12.4,59.3z M20.1,49.1
					c-1.3,0-3.1,1.4-3.9,2.3c-3.2,3.2-3.5,6.3-3.6,7.3c0.8-0.2,2.9-0.8,4.2-1.8c3.9-2.7,5.1-6.2,4.4-7.2l0,0c-0.3-0.4-0.6-0.6-1-0.6
					C20.3,49.1,20.2,49.1,20.1,49.1z"/>
			</g>
		</g>
	</g>
</g>
</svg>
