<svg xmlns="http://www.w3.org/2000/svg" viewBox="0 0 217 217"><defs><style>.cls-1{fill:#006247;}</style></defs><g id="Oracle"><path class="cls-1" d="M196.16,196.16H20.84V20.84H196.16ZM34.34,182.66H182.66V34.34H34.34Z"/><polygon class="cls-1" points="62.03 78.93 48.53 78.93 48.53 48.26 79.39 48.26 79.39 61.76 62.03 61.76 62.03 78.93"/><polygon class="cls-1" points="172.53 79.03 159.03 79.03 159.03 61.67 141.86 61.67 141.86 48.17 172.53 48.17 172.53 79.03"/><polygon class="cls-1" points="172.53 171.46 141.68 171.46 141.68 157.96 159.03 157.96 159.03 140.79 172.53 140.79 172.53 171.46"/><polygon class="cls-1" points="79.2 171.56 48.53 171.56 48.53 140.7 62.03 140.7 62.03 158.06 79.2 158.06 79.2 171.56"/><rect class="cls-1" x="75.39" y="75.23" width="66.22" height="13.5"/><rect class="cls-1" x="75.39" y="101.75" width="66.22" height="13.5"/><rect class="cls-1" x="75.39" y="128.27" width="66.22" height="13.5"/></g></svg>