<svg xmlns="http://www.w3.org/2000/svg" viewBox="0 0 217 217"><defs><style>.cls-1{fill:#006247;}</style></defs><g id="Oracle"><path class="cls-1" d="M60,202.6a50,50,0,1,1,14.11-97.91L151.9,26.87a23.94,23.94,0,0,1,33.85,33.85l-77.82,77.82A50,50,0,0,1,60,202.6Zm0-86.44a36.48,36.48,0,1,0,33.92,23.06l-1.63-4.12L176.2,51.18a10.43,10.43,0,1,0-14.75-14.76L77.52,120.34l-4.12-1.62A36.45,36.45,0,0,0,60,116.16Z"/><path class="cls-1" d="M59.93,175.6a23.29,23.29,0,1,1,23.3-23.29H69.73a9.8,9.8,0,1,0-9.8,9.79Z"/><rect class="cls-1" x="42.59" y="21.13" width="13.5" height="63.31"/><rect class="cls-1" x="17.69" y="46.03" width="63.31" height="13.5" transform="translate(-18.25 27.25) rotate(-26.24)"/><rect class="cls-1" x="42.59" y="21.13" width="13.5" height="63.31" transform="translate(-19.82 73.7) rotate(-63.76)"/><path class="cls-1" d="M169.87,168.85h-13.5a11.82,11.82,0,0,0-23.63,0h-13.5a25.32,25.32,0,0,1,50.63,0Z"/><path class="cls-1" d="M181.68,194.17a25.35,25.35,0,0,1-25.31-25.32h13.5a11.82,11.82,0,1,0,23.63,0H207A25.35,25.35,0,0,1,181.68,194.17Z"/></g></svg>