<svg xmlns="http://www.w3.org/2000/svg" viewBox="0 0 217 217"><defs><style>.cls-1{fill:#006247;}</style></defs><g id="Oracle"><rect class="cls-1" x="101.75" y="16.35" width="13.5" height="184.31"/><polygon class="cls-1" points="108.78 63.12 82.21 36.55 91.76 27 108.78 44.03 125.24 27.57 134.79 37.12 108.78 63.12"/><polygon class="cls-1" points="125.24 195.64 108.22 178.62 91.76 195.07 82.21 185.53 108.22 159.53 134.79 186.09 125.24 195.64"/><rect class="cls-1" x="17.57" y="100.27" width="184.31" height="13.5" transform="translate(-39.79 73.27) rotate(-31.57)"/><polygon class="cls-1" points="184.3 92.06 148.53 83.51 157.27 46.96 170.4 50.1 164.8 73.52 187.44 78.93 184.3 92.06"/><polygon class="cls-1" points="57.36 170.04 44.23 166.9 49.83 143.48 27.19 138.07 30.33 124.94 66.09 133.49 57.36 170.04"/><rect class="cls-1" x="100.53" y="14.87" width="13.5" height="184.31" transform="matrix(0.52, -0.85, 0.85, 0.52, -40.06, 142.41)"/><polygon class="cls-1" points="32.7 92.06 29.56 78.93 52.2 73.52 46.6 50.1 59.73 46.96 68.47 83.51 32.7 92.06"/><polygon class="cls-1" points="159.64 170.04 150.91 133.49 186.67 124.94 189.81 138.07 167.17 143.48 172.77 166.9 159.64 170.04"/></g></svg>