<svg width="32" height="32" viewBox="0 0 32 32" fill="none" xmlns="http://www.w3.org/2000/svg">
<g clip-path="url(#clip0_25_324)">
<path d="M28 0H4C2.93913 0 1.92172 0.421427 1.17157 1.17157C0.421427 1.92172 0 2.93913 0 4L0 28C0 29.0609 0.421427 30.0783 1.17157 30.8284C1.92172 31.5786 2.93913 32 4 32H28C29.0609 32 30.0783 31.5786 30.8284 30.8284C31.5786 30.0783 32 29.0609 32 28V4C32 2.93913 31.5786 1.92172 30.8284 1.17157C30.0783 0.421427 29.0609 0 28 0V0ZM29.335 28C29.3337 28.3537 29.1926 28.6925 28.9425 28.9425C28.6925 29.1926 28.3537 29.3337 28 29.335H4C3.64634 29.3337 3.30754 29.1926 3.05747 28.9425C2.80739 28.6925 2.66632 28.3537 2.665 28V4C2.66632 3.64634 2.80739 3.30754 3.05747 3.05747C3.30754 2.80739 3.64634 2.66632 4 2.665H28C28.3537 2.66632 28.6925 2.80739 28.9425 3.05747C29.1926 3.30754 29.3337 3.64634 29.335 4V28Z" fill="#06C167"/>
<path d="M23.5399 21.6551L17.8849 16.0001L23.5399 10.3451C23.6753 10.2241 23.7846 10.0767 23.8611 9.912C23.9376 9.74728 23.9797 9.56867 23.9848 9.38712C23.9899 9.20557 23.9579 9.02489 23.8908 8.85613C23.8236 8.68737 23.7228 8.53409 23.5943 8.40566C23.4659 8.27723 23.3126 8.17636 23.1439 8.10922C22.9751 8.04208 22.7944 8.01008 22.6129 8.01517C22.4313 8.02027 22.2527 8.06236 22.088 8.13887C21.9233 8.21538 21.7759 8.32469 21.6549 8.46012L15.9999 14.1151L10.3449 8.46012C10.2239 8.32469 10.0765 8.21538 9.91176 8.13887C9.74703 8.06236 9.56843 8.02027 9.38688 8.01517C9.20533 8.01008 9.02464 8.04208 8.85588 8.10922C8.68713 8.17636 8.53384 8.27723 8.40542 8.40566C8.27699 8.53409 8.17612 8.68737 8.10898 8.85613C8.04183 9.02489 8.00983 9.20557 8.01493 9.38712C8.02003 9.56867 8.06212 9.74728 8.13863 9.912C8.21513 10.0767 8.32445 10.2241 8.45988 10.3451L14.1149 16.0001L8.45988 21.6551C8.32445 21.7761 8.21513 21.9235 8.13863 22.0882C8.06212 22.253 8.02003 22.4316 8.01493 22.6131C8.00983 22.7947 8.04183 22.9754 8.10898 23.1441C8.17612 23.3129 8.27699 23.4662 8.40542 23.5946C8.53384 23.723 8.68713 23.8239 8.85588 23.891C9.02464 23.9582 9.20533 23.9902 9.38688 23.9851C9.56843 23.98 9.74703 23.9379 9.91176 23.8614C10.0765 23.7849 10.2239 23.6756 10.3449 23.5401L15.9999 17.8851L21.6549 23.5401C21.9092 23.7674 22.2409 23.8887 22.5819 23.8791C22.9228 23.8695 23.2472 23.7298 23.4884 23.4886C23.7296 23.2474 23.8693 22.9231 23.8789 22.5821C23.8885 22.2412 23.7672 21.9095 23.5399 21.6551Z" fill="#06C167"/>
</g>
<defs>
<clipPath id="clip0_25_324">
<rect width="32" height="32" fill="white"/>
</clipPath>
</defs>
</svg>
