<svg width="81" height="45" viewBox="0 0 81 45" fill="none" xmlns="http://www.w3.org/2000/svg">
<path d="M73.2222 0H7.7778C3.48224 0 0 3.48224 0 7.7778V37.2222C0 41.5178 3.48224 45 7.7778 45H73.2222C77.5178 45 81 41.5178 81 37.2222V7.7778C81 3.48224 77.5178 0 73.2222 0Z" fill="#FFB3C7"/>
<path d="M73.4292 26.3628C73.1759 26.3637 72.9254 26.4146 72.6918 26.5125C72.4583 26.6104 72.2463 26.7534 72.0681 26.9333C71.8899 27.1132 71.7489 27.3264 71.6532 27.5609C71.5575 27.7953 71.5089 28.0464 71.5104 28.2996C71.5089 28.5528 71.5575 28.8038 71.6532 29.0383C71.7489 29.2728 71.8899 29.486 72.0681 29.6659C72.2463 29.8458 72.4583 29.9888 72.6918 30.0867C72.9254 30.1846 73.1759 30.2355 73.4292 30.2364C74.4876 30.2364 75.348 29.3688 75.348 28.2996C75.3494 28.0464 75.3009 27.7953 75.2052 27.5609C75.1094 27.3264 74.9685 27.1132 74.7902 26.9333C74.612 26.7534 74.4001 26.6104 74.1665 26.5125C73.933 26.4146 73.6824 26.3637 73.4292 26.3628ZM67.1148 24.867C67.1148 23.4018 65.8746 22.2156 64.3446 22.2156C62.8146 22.2156 61.5744 23.4036 61.5744 24.867C61.5744 26.3304 62.8164 27.5166 64.3464 27.5166C65.8764 27.5166 67.1148 26.3304 67.1148 24.867ZM67.1256 19.7136H70.182V30.0186H67.1256V29.3598C66.2345 29.9749 65.1771 30.3039 64.0944 30.303C61.119 30.303 58.707 27.8694 58.707 24.867C58.707 21.8646 61.119 19.431 64.0944 19.431C65.2194 19.431 66.2616 19.7784 67.1256 20.3742V19.7136ZM42.66 21.0564V19.7154H39.5298V30.0186H42.6672V25.2072C42.6672 23.5836 44.4096 22.7124 45.6192 22.7124H45.6552V19.7154C44.4132 19.7154 43.2738 20.2518 42.66 21.0564ZM34.8624 24.867C34.8624 23.4018 33.6222 22.2156 32.0922 22.2156C30.5622 22.2156 29.322 23.4036 29.322 24.867C29.322 26.3304 30.564 27.5166 32.094 27.5166C33.624 27.5166 34.8624 26.3304 34.8624 24.867ZM34.8732 19.7136H37.9314V30.0186H34.8732V29.3598C34.0092 29.9538 32.967 30.303 31.842 30.303C28.8666 30.303 26.4546 27.8694 26.4546 24.867C26.4546 21.8646 28.8666 19.431 31.842 19.431C32.967 19.431 34.0092 19.7784 34.8732 20.3742V19.7136ZM53.2746 19.4382C52.0542 19.4382 50.8986 19.8198 50.1246 20.8746V19.7154H47.0808V30.0186H50.1624V24.6042C50.1624 23.0382 51.2028 22.2696 52.4574 22.2696C53.8002 22.2696 54.5742 23.0796 54.5742 24.5826V30.0186H57.627V23.4666C57.627 21.069 55.737 19.4382 53.2746 19.4382ZM22.0014 30.0186H25.2018V15.1236H22.0014V30.0186ZM7.94336 30.0222H11.3328V15.12H7.94516L7.94336 30.0222ZM19.7982 15.12C19.7982 18.3456 18.5526 21.348 16.3314 23.5782L21.015 30.0222H16.83L11.7414 23.0202L13.0554 22.0266C14.1251 21.2221 14.9918 20.1785 15.5862 18.9793C16.1807 17.7801 16.4864 16.4584 16.479 15.12H19.7946H19.7982Z" fill="#0A0B09"/>
</svg>
