<svg width="126" height="28" viewBox="0 0 126 28" fill="none" xmlns="http://www.w3.org/2000/svg">
<path d="M26.8961 27.3701H32.9766V0.146565H26.8961V27.3701ZM65.4068 11.6546V9.23726H65.3055H59.9848H59.6809V27.4183H65.4068V17.8925C65.4068 15.1362 68.65 13.9275 70.9302 14.5078H70.9807V9.23726C68.65 9.18858 66.5217 10.1559 65.4068 11.6546ZM45.8474 23.1631C42.8577 23.1631 40.4761 20.9873 40.4761 18.2793C40.4761 15.5717 42.9083 13.3955 45.8474 13.3955C48.8371 13.3955 51.2186 15.5717 51.2186 18.2793C51.2186 20.9873 48.7863 23.1631 45.8474 23.1631ZM51.1679 10.446C49.5464 9.33394 47.5195 8.70526 45.3406 8.70526C39.7668 8.70526 35.3076 13.0089 35.3076 18.2795C35.3076 23.5499 39.8174 27.8535 45.3406 27.8535C47.5195 27.8535 49.4957 27.1765 51.1679 26.1127V27.3701H56.1339V9.18891H51.1679V10.446ZM85.2703 8.70526C82.9899 8.70526 80.811 9.38211 79.3923 11.2198V9.18859H79.291H73.9704H73.6664V27.3701H79.3923V17.4088C79.3923 14.6528 81.318 13.2988 83.6997 13.2988C86.1825 13.2988 87.652 14.7497 87.652 17.3605V27.3212H93.3782V15.7649C93.378 11.6066 89.8306 8.70526 85.2703 8.70526ZM122.261 20.9389C120.285 20.9389 118.663 22.4861 118.663 24.3719C118.663 26.2577 120.285 27.805 122.261 27.805C124.237 27.805 125.859 26.2577 125.859 24.3719C125.859 22.4377 124.237 20.9389 122.261 20.9389ZM105.894 23.1631C102.904 23.1631 100.523 20.9873 100.523 18.2793C100.523 15.5717 102.955 13.3955 105.894 13.3955C108.884 13.3955 111.265 15.5717 111.265 18.2793C111.316 20.9873 108.883 23.1631 105.894 23.1631ZM111.265 10.446C109.644 9.33394 107.617 8.70526 105.438 8.70526C99.8637 8.70526 95.4047 13.0089 95.4047 18.2795C95.4047 23.5499 99.9145 27.8535 105.438 27.8535C107.617 27.8535 109.593 27.1765 111.265 26.1127V27.3701H116.231V9.18891H111.265V10.446ZM119.829 9.52722H120.082C120.234 9.52722 120.335 9.62415 120.335 9.72075C120.335 9.86585 120.285 9.91436 120.082 9.91436H119.829V9.52722ZM119.829 10.1559H120.082L120.335 10.6877H120.589L120.335 10.1559C120.487 10.1075 120.589 9.96237 120.589 9.76917C120.589 9.52722 120.386 9.33369 120.082 9.33369H119.575V10.6877H119.829V10.1559H119.829ZM0.141113 27.3701H6.4752V0.146565H0.141113V27.3701ZM22.7409 0.146484H16.6097C16.5083 6.28754 12.7585 11.6065 7.38723 14.2176L16.8629 27.3701H24.5651L15.9507 15.4263C20.2072 11.413 22.6396 5.9975 22.7409 0.146484ZM120.031 8.94729C120.639 8.94729 121.146 9.43062 121.146 10.0109C121.146 10.5911 120.639 11.0748 120.031 11.0748C119.424 11.0748 118.916 10.5911 118.916 10.0109C118.916 9.43062 119.424 8.94729 120.031 8.94729ZM120.031 11.3164C120.791 11.3164 121.4 10.7362 121.4 10.0108C121.4 9.28544 120.791 8.70518 120.031 8.70518C119.271 8.70518 118.663 9.28544 118.663 10.0108C118.663 10.7362 119.271 11.3164 120.031 11.3164Z" fill="black"/>
</svg>
