<svg width="106" height="40" viewBox="0 0 106 40" fill="none" xmlns="http://www.w3.org/2000/svg">
<path d="M55.7385 13.6916C54.8552 12.9496 53.3358 12.5786 51.1805 12.5786H46.3398V27.5422H49.9615V22.8429H51.5868C53.5478 22.8429 54.9965 22.4012 55.9152 21.5356C56.9575 20.5639 57.4698 19.2742 57.4698 17.6489C57.4698 15.9882 56.8868 14.6632 55.7385 13.6916ZM51.4808 19.4509H49.9438V15.9529H51.3218C53.0002 15.9529 53.8305 16.5359 53.8305 17.7196C53.8482 18.8679 53.0532 19.4509 51.4808 19.4509ZM63.6532 12.5609H59.8902V27.5245H68.0345V24.1325H63.6532V12.5609ZM75.4368 12.5609L69.5008 27.5245H73.5642L74.3415 25.3516H79.5002L80.2068 27.5245H84.3232L78.4402 12.5609H75.4368ZM75.3838 22.3306L76.9385 17.2072L78.4755 22.3306H75.3838Z" fill="#111111"/>
<mask id="mask0_8_1576" style="mask-type:alpha" maskUnits="userSpaceOnUse" x="0" y="0" width="106" height="40">
<path d="M0 39.9443H106V0H0V39.9443Z" fill="white"/>
</mask>
<g mask="url(#mask0_8_1576)">
<path d="M86.2133 27.5247H89.994V12.561H86.2133V27.5247ZM104.64 15.37C104.163 14.681 103.544 14.098 102.838 13.6387C101.689 12.9143 100.135 12.561 98.1737 12.561H93.1917V27.5247H99.004C101.106 27.5247 102.802 26.8357 104.074 25.4577C105.346 24.0797 105.982 22.26 105.982 19.981C106 18.179 105.541 16.642 104.64 15.37ZM98.5976 24.1327H96.99V15.953H98.633C99.7813 15.953 100.682 16.3064 101.301 17.0307C101.919 17.755 102.237 18.7797 102.237 20.1047C102.219 22.79 101.018 24.1327 98.5976 24.1327ZM15.6703 1.52588e-05L3.42733 3.19768L0.0529999 15.5113L4.293 19.8397L0 24.0973L3.18 36.464L15.37 39.8737L19.663 35.616L23.8853 39.9443L36.1283 36.7467L39.5027 24.433L35.2803 20.1047L39.5733 15.847L36.3933 3.48035L24.2033 0.0706835L19.9103 4.32835L15.6703 1.52588e-05ZM8.162 5.56502L14.6103 3.86902L17.437 6.76635L13.3207 10.8474L8.162 5.56502ZM22.313 6.81935L25.175 3.97502L31.588 5.77701L26.341 10.9887C26.3587 10.971 22.313 6.81935 22.313 6.81935ZM3.922 14.5043L5.70633 8.02068L10.865 13.303L6.74867 17.384L3.922 14.5043ZM28.779 13.462L34.026 8.25035L35.7043 14.7693L32.8423 17.6137C32.8247 17.6137 28.779 13.462 28.779 13.462ZM15.741 13.356L19.8573 9.27502L23.903 13.4267L19.7867 17.5077L15.741 13.356ZM9.169 19.875L13.2853 15.794L17.331 19.9457L13.2147 24.0267L9.169 19.875ZM22.207 19.981L26.3233 15.9L30.369 20.0517L26.2527 24.1327C26.2527 24.1503 22.207 19.981 22.207 19.981ZM3.85133 25.175L6.71333 22.3307L10.759 26.4823L5.52967 31.694C5.512 31.694 3.85133 25.175 3.85133 25.175ZM15.635 26.5177L19.7513 22.4367L23.797 26.5884L19.6807 30.6693L15.635 26.5177ZM28.673 26.6237L32.7893 22.5427L35.616 25.44L33.8493 31.9237C33.8317 31.9237 28.673 26.6237 28.673 26.6237ZM7.93233 34.1674L13.1617 28.9557L17.2073 33.1073L14.3453 35.9517L7.93233 34.1674ZM22.101 33.1603L26.2173 29.0793L31.376 34.3617L24.9277 36.0577L22.101 33.1603Z" fill="#111111"/>
</g>
</svg>
