<svg id="Сгруппировать_5736" data-name="Сгруппировать 5736" xmlns="http://www.w3.org/2000/svg" width="225.912" height="52.321" viewBox="0 0 225.912 52.321">
  <g id="Сгруппировать_19" data-name="Сгруппировать 19" transform="translate(0 0)">
    <g id="Сгруппировать_18" data-name="Сгруппировать 18">
      <path id="Контур_39" data-name="Контур 39" d="M208.652,117.607,215.807,130l-21.464-12.392h14.309m2.142-3.71H180.556l45.388,26.24-15.15-26.24Z" transform="translate(-165.469 -113.896)" fill="#006247"/>
      <path id="Контур_40" data-name="Контур 40" d="M216.235,232.209l-7.126,12.342H194.858l21.377-12.342m10.1-10.1h0Zm0,0-45.264,26.133h30.176l15.088-26.133Z" transform="translate(-165.856 -195.925)" fill="#006247"/>
      <path id="Контур_41" data-name="Контур 41" d="M129.554,127.7l.116,24.709-7.191-12.321,7.075-12.388m-11.346,12.408L133.315,166.2l-.02-52.3Z" transform="translate(-118.208 -113.891)" fill="#006247"/>
    </g>
  </g>
  <path id="Контур_42" data-name="Контур 42" d="M428.242,174.377c0,7.962-6.386,14.071-14.821,14.071s-14.82-6.07-14.82-14.071c0-8.041,6.385-13.993,14.82-13.993S428.242,166.375,428.242,174.377Zm-23.256,0a8.58,8.58,0,0,0,8.514,8.632,8.593,8.593,0,1,0-8.514-8.632Z" transform="translate(-330.751 -149.133)"/>
  <path id="Контур_43" data-name="Контур 43" d="M551.727,188.79l-4.375-7.883h-6.346v7.883h-6.228V161.2H546.76c7.213,0,11.313,3.469,11.313,9.578,0,4.257-1.813,7.332-5.164,8.908l5.873,9.105ZM541.006,175.7h5.755c3.429,0,5.4-1.577,5.4-4.73,0-3.075-1.971-4.612-5.4-4.612h-5.755Z" transform="translate(-433.975 -149.751)"/>
  <path id="Контур_44" data-name="Контур 44" d="M657.789,183.43H645.018l-2.168,5.361h-6.424L648.408,161.2h6.425l11.786,27.591h-6.661Zm-2.01-5.006L651.443,167.7l-4.375,10.721Z" transform="translate(-511.025 -149.751)"/>
  <path id="Контур_45" data-name="Контур 45" d="M773.374,165.784a8.495,8.495,0,0,0,0,16.988,10.649,10.649,0,0,0,7.174-3.232l3.665,3.981a16.153,16.153,0,0,1-11.155,4.927c-8.238,0-14.466-6.109-14.466-14.111,0-7.962,6.346-13.954,14.7-13.954a15.7,15.7,0,0,1,10.879,4.572l-3.626,4.415A9.987,9.987,0,0,0,773.374,165.784Z" transform="translate(-603.63 -149.133)"/>
  <path id="Контур_46" data-name="Контур 46" d="M882.751,161.2v22.152h11.825v5.44H876.524V161.2Z" transform="translate(-693.024 -149.751)"/>
  <path id="Контур_47" data-name="Контур 47" d="M984.19,161.2v5.163H969.408v5.991h13.323v5.164H969.408v6.109h15.215v5.163H963.181V161.2Z" transform="translate(-758.712 -149.751)"/>
</svg>
