<svg width="96" height="32" viewBox="0 0 96 32" fill="none" xmlns="http://www.w3.org/2000/svg">
<path fill-rule="evenodd" clip-rule="evenodd" d="M18.1736 28.2041H18.3637C18.7439 28.2041 18.9815 28.3923 18.887 28.8158C18.8394 29.287 18.5543 29.7105 18.0316 29.7105C17.6989 29.7105 17.6989 29.5688 17.7934 29.3811L18.1736 28.2041ZM18.0786 29.8987C18.5062 29.8987 18.8394 29.8511 19.0765 29.6629C19.3616 29.4747 19.5042 29.1929 19.5042 28.9094C19.5992 28.3918 19.2666 28.1559 18.9815 28.1094V28.0618C19.5517 28.0153 19.8369 27.6383 19.9319 27.2618C19.9319 27.026 19.8844 26.7907 19.7418 26.65C19.5992 26.5083 19.3141 26.4607 18.8864 26.4607H17.7929L17.6978 26.65H17.9354C18.078 26.6966 18.078 26.7442 17.983 26.9319L17.1751 29.4736C17.1276 29.6153 17.0801 29.7094 16.9369 29.7094L16.7469 29.7559L16.6993 29.8977H18.0786V29.8987ZM18.2211 27.9688L18.6013 26.8394C18.6488 26.6976 18.6963 26.6976 18.8864 26.6976C19.2191 26.6976 19.3616 26.8394 19.3141 27.2153C19.3141 27.4511 19.1716 27.6388 19.029 27.7806C18.8864 27.9223 18.6963 27.9688 18.4587 27.9688H18.2211ZM20.5027 28.7693C20.6453 28.2041 21.026 27.6388 21.3106 27.6388C21.4531 27.6388 21.5006 27.7329 21.5006 27.8747C21.4537 28.2506 21.121 28.6282 20.5027 28.7693ZM21.5012 29.0982C21.2636 29.4276 21.026 29.6635 20.7403 29.6635C20.4552 29.6635 20.4077 29.3816 20.4552 29.0982V28.9576C21.168 28.8158 21.5012 28.6747 21.7388 28.4399C21.8814 28.2982 21.9289 28.1105 21.9764 27.9688C22.0239 27.6394 21.7863 27.4035 21.4537 27.4035C21.026 27.4035 20.6928 27.6394 20.4077 27.9688C20.1225 28.2982 19.9319 28.7223 19.8844 29.1458C19.7893 29.8052 20.1695 29.9929 20.4546 29.9929C20.7873 29.9929 21.215 29.8046 21.5951 29.1929L21.5012 29.0982ZM23.6402 29.1929C23.26 29.8511 22.8323 29.9929 22.4997 29.9929C22.167 29.9929 21.8819 29.757 21.9764 29.1458C22.0715 28.3458 22.6423 27.4035 23.4976 27.4035C23.8778 27.4035 24.1154 27.5929 24.0679 27.8747C24.0204 28.0629 23.8303 28.2041 23.6877 28.2041C23.5927 28.2041 23.5452 28.11 23.5452 27.9682C23.5452 27.6864 23.4976 27.6388 23.3551 27.6388C23.07 27.6388 22.6423 28.4394 22.5472 29.0977C22.4997 29.4271 22.5472 29.6629 22.7848 29.6629C23.07 29.6629 23.3551 29.3335 23.5457 29.0511L23.6402 29.1929ZM25.6842 27.6388C25.7792 27.6388 25.8267 27.6388 25.8743 27.6864C25.7792 28.0624 25.5416 28.58 25.2565 28.9576C25.0183 29.3811 24.7813 29.6169 24.5906 29.6169C24.4956 29.6169 24.4481 29.5217 24.4956 29.3811C24.5431 28.8158 25.1139 27.6388 25.6842 27.6388ZM26.0168 27.4511L25.9693 27.4987C25.9218 27.4511 25.7792 27.4035 25.6842 27.4035C24.6382 27.4035 23.9729 28.7223 23.9253 29.3811C23.8778 29.7105 23.9253 29.9929 24.258 29.9929C24.7332 29.9929 25.1609 29.3811 25.446 28.8634L25.4935 28.91L25.3035 29.3811C25.1609 29.757 25.2084 29.9929 25.446 29.9929C25.8262 29.9929 26.1594 29.6169 26.3495 29.1929L26.2544 29.1453C26.1594 29.3335 25.9218 29.6629 25.8267 29.6629C25.7317 29.6629 25.7317 29.5212 25.8267 29.3811L26.492 27.4511H26.0168ZM28.2509 28.8634C27.9182 29.4752 27.443 29.9929 27.0148 29.9929C26.6346 29.9929 26.6821 29.6635 26.8247 29.2394L27.2529 27.9682C27.348 27.8265 27.348 27.7324 27.2529 27.7324L26.9678 27.6859L27.0153 27.5442L27.9663 27.4025L28.0138 27.4501L27.3485 29.2864C27.2535 29.5212 27.2535 29.6159 27.396 29.6159C27.6342 29.6159 28.1094 28.9565 28.299 28.533C28.4415 28.2501 28.5371 27.9677 28.7747 27.4501L29.2975 27.4025L28.5846 29.38C28.5371 29.5206 28.5371 29.6159 28.5846 29.6159C28.7272 29.6159 28.9173 29.333 29.0598 29.1447L29.1549 29.1923C28.9173 29.6158 28.6316 29.9923 28.2514 29.9923C28.0138 29.9923 27.9663 29.8041 28.0613 29.4271L28.299 28.8629H28.2509V28.8634ZM29.2494 29.4752C29.2494 29.3335 29.3919 29.1934 29.5345 29.1934C29.6296 29.1934 29.6771 29.2399 29.6771 29.334C29.7721 29.6634 29.8672 29.7576 30.0097 29.7576C30.1998 29.7576 30.2949 29.6635 30.3424 29.4758C30.3424 29.2399 30.1998 29.0522 30.0572 28.9105C29.8672 28.7223 29.7246 28.487 29.7721 28.2046C29.8196 27.7811 30.1523 27.4041 30.6275 27.4041C31.1027 27.4041 31.2453 27.687 31.1978 27.8276C31.1978 28.0169 31.0077 28.1105 30.9126 28.1105C30.8176 28.1105 30.8176 28.0629 30.7701 27.9688C30.7226 27.733 30.6275 27.6394 30.4849 27.6394C30.3899 27.6394 30.2473 27.7335 30.2473 27.9223C30.1998 28.0629 30.2949 28.2506 30.4849 28.4399C30.7225 28.6747 30.8651 28.91 30.8176 29.1934C30.7701 29.6169 30.4374 29.9934 29.9147 29.9934C29.3919 29.9929 29.2019 29.7111 29.2494 29.4752ZM31.8636 28.7693C32.0062 28.2041 32.3864 27.6388 32.6715 27.6388C32.814 27.6388 32.8616 27.7329 32.814 27.8747C32.7671 28.2506 32.4814 28.6282 31.8636 28.7693ZM32.8621 29.0982C32.6245 29.4276 32.3394 29.6635 32.0542 29.6635C31.8166 29.6635 31.7691 29.3816 31.8166 29.0982V28.9576C32.5295 28.8158 32.8627 28.6747 33.0527 28.4399C33.2428 28.2982 33.2903 28.1105 33.3379 27.9688C33.3379 27.6394 33.1478 27.4035 32.7676 27.4035C32.3874 27.4035 32.0067 27.6394 31.7216 27.9688C31.4365 28.2982 31.2939 28.7223 31.2458 29.1458C31.1508 29.8052 31.484 29.9929 31.8161 29.9929C32.1487 29.9929 32.577 29.8046 32.9566 29.1929L32.8621 29.0982ZM34.1452 29.4752C34.1452 29.3335 34.2878 29.1934 34.4303 29.1934C34.5254 29.1934 34.5729 29.2399 34.5729 29.334C34.6679 29.6634 34.763 29.7576 34.9055 29.7576C35.0956 29.7576 35.1907 29.6635 35.2382 29.4758C35.2382 29.2399 35.0956 29.0522 34.9531 28.9105C34.763 28.7223 34.6204 28.487 34.6679 28.2046C34.7155 27.7811 35.0481 27.4041 35.5233 27.4041C35.9985 27.4041 36.1411 27.687 36.0936 27.8276C36.0936 28.0169 35.9029 28.1105 35.8084 28.1105C35.7139 28.1105 35.7134 28.0629 35.6659 27.9688C35.5708 27.733 35.5233 27.6394 35.3807 27.6394C35.2382 27.6394 35.1431 27.7335 35.1431 27.9223C35.0956 28.0629 35.1907 28.2506 35.3807 28.4399C35.6184 28.6747 35.7609 28.91 35.7134 29.1934C35.6184 29.6169 35.3332 29.9934 34.7624 29.9934C34.2878 29.9929 34.0977 29.7111 34.1452 29.4752ZM37.6629 27.6388C37.853 27.6388 37.9005 27.8271 37.853 28.0624C37.8054 28.4394 37.4253 29.757 36.902 29.757C36.7119 29.757 36.6169 29.6164 36.6644 29.3335C36.7119 29.0041 36.8545 28.5335 37.0445 28.2041C37.2346 27.8747 37.4253 27.6388 37.6629 27.6388ZM36.855 29.9929C37.3783 29.9929 37.7104 29.7111 37.9955 29.3335C38.2337 29.0041 38.3757 28.58 38.3757 28.3458C38.4707 27.5923 38.043 27.4035 37.6629 27.4035C37.0926 27.4035 36.7594 27.7329 36.5224 28.0629C36.2842 28.4399 36.1897 28.8634 36.1422 29.0517C36.0466 29.6169 36.2842 29.9929 36.855 29.9929ZM40.8954 29.6169L41.4657 28.0629C41.5132 27.8271 41.5132 27.7811 41.3706 27.7811C41.133 27.7811 40.6098 28.4405 40.4672 28.864C40.2848 29.2138 40.1261 29.5752 39.992 29.9458L39.4692 29.9934L40.1821 27.9693C40.2296 27.8276 40.2296 27.7335 40.1821 27.7335L39.8969 27.687L39.9445 27.5453L40.8954 27.4035V27.4511L40.4672 28.4864H40.5147C40.8474 27.8747 41.3226 27.4035 41.7027 27.4035C42.0354 27.4035 42.0829 27.6864 41.8934 28.157L41.7508 28.4864C42.131 27.8747 42.6062 27.4035 42.9864 27.4035C43.3665 27.4035 43.3665 27.733 43.2245 28.157L42.7493 29.3816C42.6543 29.5223 42.6543 29.6175 42.7493 29.6175C42.8444 29.6175 43.082 29.3346 43.177 29.1463L43.272 29.1939C43.082 29.6175 42.7493 29.9939 42.3691 29.9939C42.131 29.9939 42.0365 29.8057 42.1791 29.4287L42.7018 28.064C42.7968 27.8757 42.7968 27.7822 42.6543 27.7822C42.3691 27.7822 41.8939 28.4415 41.7033 28.8175C41.5607 29.1469 41.4657 29.4292 41.2756 29.9469L40.7529 29.9945L40.8954 29.6169ZM45.221 28.8634C44.8408 29.4752 44.4131 29.9929 43.9374 29.9929C43.6047 29.9929 43.6047 29.6635 43.7473 29.2394L44.2225 27.9682C44.27 27.8265 44.27 27.7324 44.175 27.7324L43.9374 27.6859L43.9849 27.5442L44.9358 27.4025V27.4501L44.27 29.2864C44.175 29.5212 44.175 29.6159 44.3175 29.6159C44.6026 29.6159 45.0303 28.9565 45.268 28.533C45.4105 28.2501 45.5056 27.9677 45.6956 27.4501L46.2189 27.4025L45.5056 29.38C45.458 29.5206 45.458 29.6159 45.5531 29.6159C45.6481 29.6159 45.8382 29.333 45.9808 29.1447L46.0758 29.1923C45.8857 29.6158 45.5531 29.9923 45.1729 29.9923C44.9353 29.9923 44.8878 29.8041 45.0303 29.4271L45.221 28.8634ZM48.0253 29.1929C47.6451 29.8511 47.2174 29.9929 46.8848 29.9929C46.5521 29.9929 46.267 29.757 46.3615 29.1458C46.4565 28.3458 47.0273 27.4035 47.8827 27.4035C48.2629 27.4035 48.5005 27.5929 48.4524 27.8747C48.4055 28.0629 48.1679 28.2041 48.0723 28.2041C47.9772 28.2041 47.9297 28.11 47.9297 27.9682C47.9297 27.6864 47.8822 27.6388 47.7396 27.6388C47.4545 27.6388 47.0268 28.4394 46.9317 29.0977C46.8842 29.4271 46.9318 29.6629 47.1694 29.6629C47.4545 29.6629 47.7396 29.3335 47.9302 29.0511L48.0253 29.1929ZM49.3564 26.7453C49.4045 26.6035 49.4045 26.5559 49.3084 26.5094H49.0713L49.1183 26.3677L50.0217 26.2271H50.0687L49.2608 28.4859H49.3078C49.6405 27.9217 50.1162 27.403 50.5445 27.403C50.8771 27.403 50.9241 27.7324 50.7826 28.1565L50.2599 29.3811C50.2118 29.5217 50.2118 29.6169 50.3069 29.6169C50.4019 29.6169 50.5915 29.334 50.7346 29.1458L50.8296 29.1934C50.6395 29.6169 50.3069 29.9934 49.9272 29.9934C49.6891 29.9934 49.5946 29.7576 49.7361 29.3816L50.2599 28.0629C50.3549 27.8747 50.3069 27.7811 50.2118 27.7811C49.9272 27.7811 49.4509 28.3929 49.2614 28.864C49.1183 29.1458 49.0232 29.4282 48.8337 29.9458L48.3104 29.9934L49.3564 26.7453ZM53.3499 29.1929C53.1117 29.6164 52.8271 29.9929 52.4464 29.9929C52.1618 29.9929 52.1138 29.757 52.2083 29.4276L52.7791 27.9688C52.8271 27.8271 52.8271 27.7329 52.7321 27.7329L52.4464 27.6864L52.5415 27.5447L53.4449 27.403L53.4919 27.4506L52.7791 29.3806C52.7321 29.5212 52.684 29.6164 52.7791 29.6164C52.8741 29.6164 53.1117 29.3335 53.2068 29.1453L53.3499 29.1929ZM53.1117 26.7453C53.1117 26.5559 53.2548 26.3217 53.4914 26.3217C53.6825 26.3217 53.777 26.4624 53.777 26.6511C53.729 26.9329 53.5869 27.0747 53.3493 27.0747C53.3099 27.0731 53.2714 27.0626 53.2367 27.044C53.202 27.0255 53.1721 26.9993 53.1492 26.9675C53.1262 26.9357 53.111 26.8992 53.1045 26.8607C53.098 26.8221 53.1005 26.7827 53.1117 26.7453ZM53.3969 29.4752C53.4449 29.3335 53.588 29.1934 53.7295 29.1934C53.8246 29.1934 53.8726 29.2399 53.8726 29.334C53.9677 29.6634 54.0627 29.7576 54.2053 29.7576C54.3473 29.7576 54.4899 29.6635 54.5379 29.4758C54.5379 29.2399 54.3948 29.0522 54.2522 28.9105C54.0622 28.7223 53.9196 28.487 53.9677 28.2046C54.0157 27.7811 54.3473 27.4041 54.823 27.4041C55.2988 27.4041 55.4408 27.687 55.3939 27.8276C55.3939 28.0169 55.2027 28.1105 55.1082 28.1105C55.0137 28.1105 54.9662 28.0629 54.9662 27.9688C54.8711 27.733 54.8231 27.6394 54.6805 27.6394C54.5385 27.6394 54.4434 27.7335 54.3959 27.9223C54.3959 28.0629 54.4909 28.2506 54.6805 28.4399C54.8717 28.6747 55.0131 28.91 54.9662 29.1934C54.9181 29.6169 54.6335 29.9934 54.0627 29.9934C53.5875 29.9929 53.3969 29.7111 53.3969 29.4752ZM57.0101 27.9688C57.0571 27.8271 57.0571 27.7329 56.9621 27.7329L56.7239 27.6864L56.772 27.5447L57.6274 27.403L57.6743 27.4506L57.3898 28.2041C57.6743 27.7329 58.0075 27.4035 58.2932 27.4035C58.4352 27.4035 58.4833 27.4987 58.4833 27.6864C58.4352 27.8747 58.2932 28.0624 58.1506 28.0624C58.1026 28.0624 58.0075 28.0158 57.9606 27.9682C57.9125 27.9217 57.8655 27.9217 57.8174 27.9217C57.6743 27.9217 57.4848 28.2977 57.2466 28.8629C57.1046 29.1923 57.0096 29.6164 56.867 29.9447L56.3443 29.9923L57.0101 27.9688ZM59.5288 29.1929C59.2906 29.6164 59.006 29.9929 58.6264 29.9929C58.3407 29.9929 58.2938 29.757 58.4352 29.4276L58.958 27.9688C59.006 27.8271 59.006 27.7329 58.911 27.7329L58.6728 27.6864L58.7209 27.5447L59.6233 27.403L59.6713 27.4506L58.9574 29.3806C58.9104 29.5212 58.8624 29.6164 58.9574 29.6164C59.0536 29.6164 59.2901 29.3335 59.4332 29.1453L59.5288 29.1929ZM59.2912 26.7453C59.3392 26.5559 59.4343 26.3217 59.6719 26.3217C59.862 26.3217 59.9565 26.4624 59.9565 26.6511C59.9095 26.9329 59.7664 27.0747 59.5768 27.0747C59.3862 27.0747 59.2442 26.9335 59.2912 26.7453ZM60.4328 29.6169C60.3377 29.6169 60.2897 29.5217 60.2897 29.334C60.3847 28.8164 60.9074 27.6394 61.4782 27.6394C61.5733 27.6394 61.6683 27.687 61.7164 27.7335C61.5785 28.1722 61.3695 28.5858 61.0975 28.9581C60.8605 29.3335 60.6223 29.6169 60.4328 29.6169ZM62.7613 26.2276H62.7133L61.8109 26.3682L61.7628 26.51H62.001C62.096 26.5565 62.096 26.6041 62.049 26.7458L61.8109 27.4993H61.7628C61.7158 27.4517 61.5727 27.4041 61.4302 27.4041C60.4328 27.4041 59.8139 28.7228 59.7189 29.334C59.6719 29.6634 59.7189 29.9934 60.0996 29.9934C60.6223 29.9934 61.05 29.3816 61.3351 28.864L61.145 29.4282C61.0019 29.8052 61.097 29.9934 61.3351 29.9934C61.7159 29.9934 62.001 29.6175 62.2386 29.1934L62.1435 29.1458C62.0004 29.334 61.8109 29.6169 61.6678 29.6169C61.6208 29.6169 61.6208 29.5217 61.6678 29.3811L62.7613 26.2276ZM63.7123 29.1929C63.4741 29.6164 63.1896 29.9929 62.8088 29.9929C62.5243 29.9929 62.4773 29.757 62.5718 29.4276L63.1415 27.9688C63.1896 27.8271 63.1896 27.7329 63.0945 27.7329L62.8088 27.6864L62.905 27.5447L63.8073 27.403L63.8554 27.4506L63.1415 29.3806C63.0945 29.5212 63.0465 29.6164 63.1415 29.6164C63.2365 29.6164 63.4741 29.3335 63.5692 29.1453L63.7123 29.1929ZM63.4741 26.7453C63.4741 26.5559 63.6173 26.3217 63.8549 26.3217C64.0449 26.3217 64.1394 26.4624 64.1394 26.6511C64.0914 26.9329 63.9494 27.0747 63.7118 27.0747C63.6724 27.073 63.6339 27.0624 63.5993 27.0438C63.5647 27.0252 63.5348 26.9991 63.5119 26.9673C63.489 26.9356 63.4737 26.8991 63.4671 26.8606C63.4606 26.8221 63.463 26.7827 63.4741 26.7453ZM64.6158 27.9688C64.6627 27.8271 64.6627 27.7329 64.5677 27.7329L64.2831 27.6864L64.3301 27.5447L65.2805 27.403L65.3286 27.4506L64.9009 28.5335C65.2335 27.9217 65.7563 27.403 66.1845 27.403C66.5172 27.403 66.5172 27.7324 66.3746 28.1565L65.8999 29.3811C65.8519 29.5217 65.8049 29.6169 65.8999 29.6169C65.995 29.6169 66.2326 29.334 66.3276 29.1458L66.4696 29.1934C66.2326 29.6169 65.9469 29.9934 65.5192 29.9934C65.2811 29.9934 65.2346 29.7576 65.3291 29.4282L65.8519 28.0634C65.9469 27.9228 65.9469 27.7816 65.8049 27.7816C65.5667 27.7816 65.044 28.441 64.8534 28.8645C64.7113 29.1463 64.6163 29.4287 64.4257 29.9463L63.856 29.9939L64.6158 27.9688ZM68.1329 27.6388C68.2279 27.6388 68.371 27.6864 68.371 28.0158C68.323 28.2977 68.1329 28.8158 67.7522 28.8158C67.5621 28.8158 67.5151 28.6741 67.5151 28.4399C67.5621 28.1105 67.8002 27.6388 68.1329 27.6388ZM69.1784 27.7806L69.3684 27.4035L69.3215 27.357L68.6556 27.5453C68.5606 27.4987 68.323 27.4035 68.1329 27.4035C67.3245 27.4035 67.0393 27.9688 66.9924 28.3458C66.9443 28.7217 67.1344 28.91 67.277 28.9576C67.0869 29.0517 66.8012 29.1458 66.7542 29.3811C66.7542 29.5693 66.8493 29.7105 67.0869 29.757V29.8046C66.8012 29.8511 66.373 29.9929 66.326 30.4164C66.2779 30.8399 66.6586 31.1223 67.2283 31.1223C67.8942 31.1223 68.3699 30.8405 68.465 30.2752C68.512 29.8517 68.2749 29.6169 67.7511 29.4752C67.4195 29.3811 67.3234 29.3335 67.3234 29.1934C67.3234 29.0982 67.4195 29.0517 67.4665 29.0041C67.6096 29.0517 67.6566 29.0517 67.7511 29.0517C68.3699 29.0517 68.7976 28.6747 68.8446 28.157C68.8927 28.0164 68.8446 27.9223 68.7976 27.8276L69.1784 27.7806ZM67.3725 30.934C67.0399 30.934 66.8017 30.7458 66.8498 30.3688C66.8968 30.0405 67.1825 29.8987 67.2775 29.8987C67.5621 29.9453 67.9903 30.0405 67.9433 30.4164C67.8953 30.7929 67.6102 30.934 67.3725 30.934ZM71.5555 27.6388C71.7456 27.6388 71.7937 27.8271 71.7456 28.0624C71.6986 28.4394 71.3179 29.757 70.7952 29.757C70.6051 29.757 70.5106 29.6164 70.557 29.3335C70.6051 29.0041 70.7471 28.5335 70.9378 28.2041C71.1278 27.8747 71.3174 27.6388 71.5555 27.6388ZM70.7946 29.9929C71.2704 29.9929 71.65 29.7111 71.8882 29.3335C72.1263 29.0041 72.2678 28.58 72.2678 28.3458C72.3628 27.5923 71.9832 27.4035 71.555 27.4035C71.0322 27.4035 70.6515 27.7329 70.4145 28.0629C70.1763 28.4399 70.0818 28.8634 70.0338 29.0517C69.9873 29.6169 70.1774 29.9929 70.7946 29.9929ZM73.1237 27.9688C73.1718 27.8271 73.1718 27.7329 73.0768 27.7329L72.7911 27.6864L72.8872 27.5447L73.8377 27.403V27.4506L73.41 28.5335C73.7426 27.9217 74.2653 27.403 74.6936 27.403C75.0262 27.403 75.0732 27.7324 74.8837 28.1565L74.4079 29.3811C74.3609 29.5217 74.3129 29.6169 74.4079 29.6169C74.503 29.6169 74.7406 29.334 74.8356 29.1458L74.9787 29.1934C74.7406 29.6169 74.456 29.9934 74.0753 29.9934C73.7907 29.9934 73.7437 29.7576 73.8382 29.4282L74.4079 28.0634C74.456 27.9228 74.456 27.7816 74.3129 27.7816C74.0747 27.7816 73.552 28.441 73.3624 28.8645C73.2193 29.1463 73.1243 29.4287 72.9347 29.9463L72.412 29.9939L73.1237 27.9688ZM77.1653 29.5693C77.4968 29.0517 77.783 28.534 77.8781 28.2046C77.9731 28.0164 78.0212 27.7335 78.0212 27.5453C78.1632 27.4511 78.3058 27.4035 78.4489 27.4035C78.4958 27.4987 78.4958 27.5929 78.4958 27.6864C78.4489 27.8747 78.1632 28.3923 77.83 28.8634C77.4974 29.3811 77.1652 29.8987 77.0691 30.087C76.5944 30.7929 76.3563 31.1223 75.9767 31.1223C75.7385 31.1223 75.5959 30.9816 75.644 30.8405C75.644 30.6522 75.786 30.4645 75.9286 30.4645C76.0236 30.4645 76.0717 30.5111 76.1187 30.6052C76.1668 30.7469 76.2137 30.7934 76.2618 30.7934C76.3568 30.7934 76.4519 30.6993 76.5464 30.4651C76.6414 30.2758 76.6414 30.0881 76.6895 29.9463C76.7376 29.4763 76.7376 28.4875 76.7376 28.111C76.7376 27.8752 76.7376 27.7816 76.6414 27.7816H76.3568V27.6399L77.2603 27.4041L77.3073 27.4517C77.3067 27.7329 77.2598 28.8158 77.1653 29.5693ZM79.9215 27.6388C80.1596 27.6388 80.1597 27.8271 80.1597 28.0624C80.1116 28.4394 79.6839 29.757 79.1611 29.757C78.9711 29.757 78.8766 29.6164 78.923 29.3335C78.9711 29.0041 79.1131 28.5335 79.3037 28.2041C79.4938 27.8747 79.6839 27.6388 79.9215 27.6388ZM79.1611 29.9929C79.6839 29.9929 80.0165 29.7111 80.2547 29.3335C80.4928 29.0041 80.6343 28.58 80.6824 28.3458C80.7774 27.5923 80.3497 27.4035 79.9215 27.4035C79.3988 27.4035 79.018 27.7329 78.781 28.0629C78.5428 28.4399 78.4483 28.8634 78.4003 29.0517C78.3522 29.6169 78.5434 29.9929 79.1611 29.9929ZM82.4888 28.8634C82.1561 29.4752 81.6809 29.9929 81.2051 29.9929C80.8725 29.9929 80.8725 29.6635 81.015 29.2394L81.4897 27.9682C81.5378 27.8265 81.5378 27.7324 81.4427 27.7324L81.2046 27.6859L81.2526 27.5442L82.2031 27.4025V27.4501L81.5372 29.2864C81.4422 29.5212 81.4422 29.6159 81.5842 29.6159C81.8699 29.6159 82.2981 28.9565 82.5357 28.533C82.6777 28.2501 82.7728 27.9677 82.9634 27.4501L83.4862 27.4025L82.7722 29.38C82.7253 29.5206 82.7253 29.6159 82.8203 29.6159C82.9154 29.6159 83.153 29.333 83.248 29.1447L83.3911 29.1923C83.153 29.6158 82.8203 29.9923 82.4396 29.9923C82.2495 29.9923 82.155 29.8041 82.2976 29.4271L82.4888 28.8634ZM84.2476 27.9688C84.2946 27.8271 84.2946 27.7329 84.1995 27.7329L83.9614 27.6864L84.0094 27.5447L84.8648 27.403V27.4506L84.6267 28.2041C84.9112 27.7329 85.2445 27.4035 85.4821 27.4035C85.6252 27.4035 85.7202 27.4987 85.6721 27.6864C85.6721 27.8747 85.5301 28.0624 85.3876 28.0624C85.2925 28.0624 85.2445 28.0158 85.1975 27.9682C85.1494 27.9217 85.1024 27.9217 85.0544 27.9217C84.9113 27.9217 84.6747 28.2977 84.4836 28.8629C84.3415 29.1923 84.199 29.6164 84.1039 29.9447L83.5812 29.9923L84.2476 27.9688ZM87.8122 29.2394C87.5277 29.6629 87.1945 29.9929 86.8148 29.9929C86.5767 29.9929 86.4822 29.8046 86.6237 29.4276L87.2425 27.6864H86.8618L86.9569 27.4982H87.2895L87.4326 27.1688L88.0504 26.7453L88.0985 26.7918L87.8128 27.4987H88.3355L88.2886 27.687H87.7658L87.1469 29.4282C87.1469 29.5223 87.1 29.6175 87.195 29.6175C87.3381 29.6175 87.5746 29.3816 87.7178 29.1463L87.8122 29.2394ZM89.3335 29.1929C89.0953 29.6164 88.8108 29.9929 88.43 29.9929C88.1454 29.9929 88.0985 29.757 88.2399 29.4276L88.7627 27.9688C88.8107 27.8271 88.8107 27.7329 88.7157 27.7329L88.4775 27.6864L88.5256 27.5447L89.428 27.403L89.4761 27.4506L88.7621 29.3806C88.7152 29.5212 88.6671 29.6164 88.7621 29.6164C88.8572 29.6164 89.0948 29.3335 89.1898 29.1453L89.3335 29.1929ZM89.0953 26.7453C89.0953 26.5559 89.2384 26.3217 89.4761 26.3217C89.6661 26.3217 89.7606 26.4624 89.7606 26.6511C89.7137 26.9329 89.5705 27.0747 89.3329 27.0747C89.2936 27.073 89.2551 27.0624 89.2205 27.0438C89.1858 27.0252 89.156 26.9991 89.133 26.9673C89.1101 26.9356 89.0948 26.8991 89.0883 26.8606C89.0818 26.8221 89.0842 26.7827 89.0953 26.7453ZM90.1889 27.9688C90.2369 27.8271 90.2369 27.7329 90.1408 27.7329L89.9037 27.6864L89.9507 27.5447L90.8542 27.403V27.4506L90.5696 28.2041C90.8542 27.7329 91.1874 27.4035 91.472 27.4035C91.6151 27.4035 91.662 27.4987 91.662 27.6864C91.6151 27.8747 91.52 28.0624 91.3305 28.0624C91.2824 28.0624 91.2343 28.0158 91.1393 27.9682C91.1393 27.9217 91.0923 27.9217 90.9973 27.9217C90.8542 27.9217 90.6646 28.2977 90.4265 28.8629C90.321 29.2306 90.1939 29.5918 90.0458 29.9447L89.523 29.9923L90.1889 27.9688ZM92.1384 28.7693C92.2815 28.2041 92.6611 27.6388 92.9462 27.6388C93.0423 27.6388 93.1374 27.7329 93.0893 27.8747C93.0418 28.2506 92.7092 28.6282 92.1384 28.7693ZM93.1368 29.0982C92.8987 29.4276 92.6141 29.6635 92.3284 29.6635C92.0903 29.6635 92.0438 29.3816 92.0438 29.0982C92.0908 29.0517 92.0908 29.0041 92.0908 28.9576C92.8047 28.8158 93.1374 28.6747 93.3275 28.4399C93.5176 28.2982 93.5656 28.1105 93.5656 27.9688C93.6126 27.6394 93.4225 27.4035 93.0429 27.4035C92.6152 27.4035 92.282 27.6394 91.9963 27.9688C91.7117 28.2982 91.5686 28.7223 91.4736 29.1458C91.3785 29.8052 91.7593 29.9929 92.0444 29.9929C92.424 29.9929 92.8523 29.8046 93.233 29.1929L93.1368 29.0982ZM93.3734 29.4752C93.4214 29.3335 93.5645 29.1934 93.706 29.1934C93.801 29.1934 93.8491 29.2399 93.8491 29.334C93.9442 29.6634 94.0392 29.7576 94.1818 29.7576C94.3243 29.7576 94.4663 29.6635 94.5144 29.4758C94.5144 29.2399 94.3713 29.0522 94.2287 28.9105C94.0387 28.7223 93.8972 28.487 93.9442 28.2046C93.9922 27.7811 94.3249 27.4041 94.7995 27.4041C95.2753 27.4041 95.4173 27.687 95.3704 27.8276C95.3704 28.0169 95.1803 28.1105 95.0847 28.1105C94.9896 28.1105 94.9427 28.0629 94.9427 27.9688C94.8476 27.733 94.7995 27.6394 94.657 27.6394C94.515 27.6394 94.4199 27.7335 94.3724 27.9223C94.3724 28.0629 94.4674 28.2506 94.657 28.4399C94.8951 28.6747 94.9896 28.91 94.9896 29.1934C94.8946 29.6169 94.61 29.9934 94.0392 29.9934C93.5645 29.9929 93.3734 29.7111 93.3734 29.4752ZM95.2759 29.6169C95.3228 29.3811 95.5129 29.1934 95.7036 29.1934C95.9406 29.1934 96.0362 29.334 95.9881 29.5693C95.9401 29.8046 95.75 29.9929 95.5604 29.9929C95.3709 29.9929 95.2759 29.8046 95.2759 29.6169ZM1.82129 25.2388H95.3709V9.61035H1.82129V25.2388Z" fill="#4791B8"/>
<path fill-rule="evenodd" clip-rule="evenodd" d="M77.9726 22.1787H1.82129V23.1198H77.6399L77.9726 22.1787Z" fill="#5AB9EA"/>
<path fill-rule="evenodd" clip-rule="evenodd" d="M30.0103 13.2341L27.4911 16.9994C27.4911 16.9994 27.6812 15.0229 27.6812 14.5517C27.7287 14.1752 27.6812 13.2335 26.7777 13.2335H22.8323L20.2656 20.2005H23.3556L25.2095 15.164L24.8293 20.2005H27.5861L30.9612 15.2582L29.1074 20.2005H32.1973L34.8121 13.2341H30.0103ZM46.8378 20.0604C46.6477 20.1069 45.5066 20.3422 44.223 20.3422C42.0365 20.4363 40.0875 19.5416 40.0875 17.9881C40.04 15.2111 42.8443 13.7047 44.9358 13.3282C45.8387 13.1399 47.6451 12.9046 49.4045 13.3282L48.3579 15.7758C48.0733 15.117 47.313 15.117 46.9803 15.117C46.267 15.0699 45.6017 15.3052 45.174 15.4935C44.128 15.964 43.2251 17.4705 44.6982 18.0823C45.5061 18.4117 46.5526 18.1299 47.6456 17.9881L46.8378 20.0604ZM78.4958 20.2005H75.1212L77.6885 13.2341H81.1106L78.4958 20.2005ZM37.5684 20.2005H34.1932L36.7599 13.2341H40.1826L37.5684 20.2005ZM55.9641 13.2341L55.0617 15.7287H53.3023L54.2528 13.2341H51.0202L48.4065 20.2005H51.6391L52.5414 17.847H54.2528L53.3974 20.2005H56.6299L59.2447 13.2341H55.9641ZM71.603 17.8946L73.3154 13.2341H69.9878L67.4211 20.2005H74.0747L74.9306 17.8946H71.603ZM89.5241 13.2341L87.7177 18.0357C87.7658 17.5646 87.8608 15.6346 87.9078 14.5517C87.9559 14.0811 87.8608 13.7517 87.6232 13.5164C87.3386 13.2341 87.0054 13.2341 87.0054 13.2341H83.0601L80.4453 20.2005H83.3452L85.1516 15.2582L84.9615 20.2005H89.7622L92.377 13.2341H89.5241ZM62.4773 18.3181L62.7618 17.5646H66.4696L67.0879 15.8234H63.3796L63.6647 15.0699H67.5626L68.2285 13.2341H61.1456L58.5308 20.2005H65.7568L66.4226 18.3181H62.4773Z" fill="#5AB9EA"/>
<path fill-rule="evenodd" clip-rule="evenodd" d="M20.5492 16.4359C20.7392 16.1065 20.5016 15.4942 20.0734 15.0236C19.6932 14.5525 19.1705 14.4118 19.123 14.1766C19.6457 13.1407 19.0754 12.2466 18.2676 11.8696C18.2917 11.6201 18.2522 11.3687 18.1525 11.1383C18.0529 10.908 17.8963 10.7061 17.6973 10.5514C17.8874 10.1278 18.125 8.95137 17.2221 8.24494C17.6023 6.78557 16.081 5.9385 15.2732 5.89145C14.893 5.60909 14.3703 5.42031 13.6569 5.37325C14.1802 4.62031 14.0371 3.63153 13.4193 3.06682C13.4668 2.26681 12.8966 1.51333 12.0881 1.23043C11.803 0.571603 10.2818 0.66572 10.1392 1.27749C9.23631 1.6069 8.71303 2.54862 8.80807 3.44275C8.28479 4.00746 8.28479 4.94918 8.80807 5.60801C8.33231 5.56095 7.66701 5.70213 7.23931 5.89036H7.19179C6.81162 5.70213 6.4309 5.60801 6.00321 5.70213C5.90817 5.60801 5.62304 5.51389 5.43295 5.46683C5.28807 5.22195 5.07281 5.02535 4.81463 4.90212C4.71958 4.47859 4.38693 4.14863 4.05428 4.008C4.1018 3.67858 3.95924 3.30157 3.8642 3.11387C3.67411 2.83152 3.72163 2.36039 3.76915 2.26681C4.00676 2.03097 3.81668 1.79568 3.72163 1.7021C3.24587 1.23097 2.77066 1.46681 2.62809 1.7021C2.15288 0.855037 1.63014 0.666261 1.34447 0.760379C0.916773 0.430965 0.298448 0.666262 0.298448 1.04274C0.0133188 1.23097 -0.177313 1.32509 0.250926 2.07857C0.155883 3.63206 0.345969 4.10266 1.39199 4.94972C1.05934 5.27914 0.916773 5.9385 1.2019 6.45615C1.10686 7.2091 1.53455 7.96259 2.05784 8.33852C2.2004 9.42142 3.24587 10.0332 3.95869 10.1744C4.43445 10.8803 5.09975 11.2102 5.76506 11.2567C5.81258 11.5861 5.90762 11.8685 6.09771 12.1508C5.95514 12.7632 5.95514 13.3279 6.14523 13.8455C5.67001 14.3637 5.47993 15.1637 5.71753 15.9637C5.14728 16.6231 4.95665 17.706 5.33736 18.5996C5.33736 18.5996 5.1948 18.8354 5.09976 19.0707C4.71958 19.2589 4.33887 19.6825 4.14933 20.2477C3.95869 20.6713 4.05428 21.2354 4.14933 21.7066C3.531 22.2242 3.15083 23.5429 4.24437 24.5782C4.00676 25.3317 3.48348 25.9906 2.86625 26.7906C2.43855 27.3558 2.34296 27.6376 2.86625 28.297C3.24642 28.8146 3.95924 29.2382 4.57757 29.2382C5.71808 29.2858 6.52649 29.0499 6.62153 28.2029C6.71658 27.7317 6.38393 26.744 6.38393 26.5082C6.33641 26.2724 6.43145 25.8964 6.66906 25.2836C7.71453 25.0488 8.23781 24.2959 8.33231 23.5424C9.0932 23.1189 9.66346 22.2237 9.37833 21.2349C9.52089 21.0942 9.56841 20.9531 9.66346 20.7172C9.66346 21.1408 9.94858 21.4242 10.0911 21.706C9.66345 22.7889 10.2337 23.7766 10.899 24.2001C9.7585 25.8483 10.9941 26.6488 11.3273 26.9777C11.7549 27.3547 11.8025 28.0606 12.4678 28.2965C13.038 28.4847 14.8444 28.2965 15.177 27.543C15.2721 27.3547 15.3671 27.1194 15.2721 26.9777C15.2721 26.4135 14.9394 26.0365 14.3217 25.6601C13.6083 25.283 13.6083 25.3772 13.2756 24.3413C14.3692 23.8237 14.5593 22.6001 14.5117 22.129C15.2721 21.1878 15.2246 20.3867 14.7969 19.8691C14.9394 19.4456 14.8919 19.1156 14.7969 18.7873C15.4627 18.222 15.7478 17.3749 15.5102 16.4797C15.8904 15.915 15.9854 15.3033 15.8429 14.5974C16.1755 15.115 16.6983 15.3033 17.2691 15.3033C17.2691 15.3033 17.3166 15.4444 17.3641 15.5391C17.174 15.8685 17.2691 16.2445 17.6968 16.5279C17.7443 16.7161 17.8393 16.8097 17.9344 16.9038C17.9344 17.0455 18.3145 17.6573 18.7422 17.3273C18.7898 17.3273 19.2655 16.9979 19.2655 16.9979C19.6932 17.3295 20.6436 17.0472 20.5492 16.4359Z" fill="#4791B8"/>
<path fill-rule="evenodd" clip-rule="evenodd" d="M16.129 13.3281C17.3175 13.234 18.4585 11.9158 17.365 10.8799C17.2225 11.1157 16.8898 11.351 16.6522 11.4446C16.6047 11.9628 16.2721 12.3864 16.082 12.6217C16.0815 12.8105 16.129 13.2811 16.129 13.3281Z" fill="#5AB9EA"/>
<path fill-rule="evenodd" clip-rule="evenodd" d="M18.0779 12.34C17.7928 13.0935 17.032 13.517 16.1292 13.6582C15.9866 14.27 16.795 15.2117 18.0304 14.647C18.9338 14.27 19.2664 12.8577 18.0779 12.34ZM17.7453 15.6823C17.6503 15.7764 17.6503 16.0117 17.7928 16.1524C17.7928 16.1059 17.8879 15.8235 17.9354 15.7288C17.8879 15.6353 17.7928 15.6353 17.7453 15.6823ZM18.5056 16.2465C18.4581 16.1059 18.5056 15.9176 18.268 15.8706C18.0304 15.7764 18.0304 16.5299 18.173 16.4823C18.268 16.3882 18.363 16.2941 18.5056 16.2465ZM18.8388 16.3417C18.5061 16.4358 18.2686 16.67 18.4111 16.8594C18.4586 16.9535 18.5061 16.9535 18.6962 16.8118C18.8151 16.7449 18.9266 16.6659 19.0288 16.5759C18.9808 16.4358 18.8388 16.3417 18.8388 16.3417ZM19.1239 14.8818C19.0288 14.8347 18.8388 14.6935 18.7437 14.5524C18.5061 14.7882 17.9829 15.0706 17.7453 15.1171C17.7928 15.1171 17.8403 15.3524 17.8879 15.4465C17.9829 15.4465 18.0779 15.5406 18.173 15.6347C18.268 15.5877 18.6006 15.6347 18.6962 15.9641C18.8388 16.0583 19.1239 16.2 19.2189 16.2936C19.599 16.7647 19.8841 16.7171 19.9797 16.623C20.3123 16.3871 19.8372 16.1518 19.5996 15.823C19.457 15.6818 19.0763 15.1641 19.0763 15.023C19.0763 14.9759 19.1714 15.023 19.267 15.1171C19.267 15.1641 19.7896 15.7764 20.0748 16.0117C19.8366 15.2112 19.1239 14.8818 19.1239 14.8818ZM11.6139 13.7989C16.1292 13.7518 16.6999 11.1159 16.0817 10.0801C14.7037 11.4924 10.0928 12.2924 7.81147 10.5036C7.38382 10.9742 6.81306 11.1154 6.33789 11.2095C6.48044 12.5277 8.90437 13.8459 11.6139 13.7989Z" fill="#5AB9EA"/>
<path fill-rule="evenodd" clip-rule="evenodd" d="M8.57169 8.19832C8.66672 9.09245 8.28658 9.89301 8.09651 10.1754C8.52417 10.5048 9.38003 11.1171 11.3288 11.1642C14.276 11.2112 17.4127 9.79943 15.654 7.3983C14.8937 8.38656 11.1382 9.23363 8.57169 8.19832ZM4.67417 7.91542C5.38693 7.25658 5.43499 6.40896 5.10182 5.79719C5.00679 5.70307 4.91175 5.56189 4.7692 5.46777C4.62665 6.69187 2.8685 7.63306 1.72754 6.8325C2.1552 8.5748 3.91389 8.62186 4.67417 7.91542Z" fill="#5AB9EA"/>
<path fill-rule="evenodd" clip-rule="evenodd" d="M6.09971 9.0926C7.14563 7.91558 6.09971 6.12732 5.62399 6.0332C5.95661 7.77494 4.19849 9.13966 2.62988 8.48083C3.01002 9.5632 4.86372 10.4573 6.09971 9.0926Z" fill="#5AB9EA"/>
<path fill-rule="evenodd" clip-rule="evenodd" d="M4.67383 10.1753C5.57666 11.117 8.00114 11.07 8.14369 8.85712C8.23872 7.35067 7.57348 6.5036 6.5281 6.2207C7.763 8.52824 6.28996 10.1283 4.67383 10.1753ZM6.57507 12.5288C6.14741 15.0711 9.56921 15.8711 11.6135 15.8241C15.0834 15.6829 15.8437 14.0353 15.6536 13.047C13.4673 14.7417 8.80893 14.5535 6.57507 12.5288Z" fill="#5AB9EA"/>
<path fill-rule="evenodd" clip-rule="evenodd" d="M8.33274 17.8951C10.1864 18.271 11.66 17.424 11.66 16.2004C10.7572 16.2004 7.85757 16.1528 6.47903 14.2705C5.52868 15.5887 6.66909 17.424 8.33274 17.8951Z" fill="#5AB9EA"/>
<path fill-rule="evenodd" clip-rule="evenodd" d="M10.852 17.9409C9.18831 18.7891 6.90693 18.1768 6.05108 16.4355C4.81508 18.3645 6.85887 20.1068 8.38052 20.0127C10.2342 19.9185 10.7569 18.7415 10.852 17.9409Z" fill="#5AB9EA"/>
<path fill-rule="evenodd" clip-rule="evenodd" d="M5.71946 18.9775C5.14925 20.0129 5.86201 21.1424 6.62229 21.4253C8.23842 22.0371 9.33132 21.0017 9.23683 20.2482C7.95332 20.5306 6.62229 20.1541 5.71946 18.9775ZM4.43594 22.1312C3.67512 22.743 4.19836 24.3913 5.33877 24.7673C6.95491 25.3325 7.66767 24.2496 7.7627 23.6843C7.33505 23.7784 5.48187 24.1555 4.43594 22.1312Z" fill="#5AB9EA"/>
<path fill-rule="evenodd" clip-rule="evenodd" d="M6.52627 21.7069C5.67095 21.2834 5.14772 20.624 5.1002 19.7305C3.8642 20.954 4.91013 22.8839 6.05055 23.2599C8.33193 24.0604 9.14027 22.1305 8.9502 21.5652C8.04737 22.1781 6.95392 21.9422 6.52627 21.7069ZM14.7014 27.308L14.7965 27.3556C14.6064 27.7315 13.2279 28.0615 12.6577 27.8256C11.9919 27.4973 12.1344 27.1197 11.7068 26.7438C10.7564 25.8492 10.899 25.4727 11.0415 25.0016C11.089 24.7657 11.1841 24.6246 11.3741 24.3898C12.0394 24.6246 12.3245 24.578 12.8952 24.4363C12.8952 24.4839 12.8952 24.6246 12.9428 24.6722C12.5151 24.7198 12.135 24.8139 12.135 24.8139L12.2775 25.1433C12.2775 25.1433 12.6101 25.0492 13.0383 25.0016C13.0383 25.0016 13.0859 25.2374 13.1334 25.331C12.7532 25.331 12.4201 25.4727 12.4201 25.4727L12.5151 25.7545C12.5151 25.7545 13.0383 25.6128 13.4179 25.6604C13.7981 25.9898 15.3192 26.3663 14.5589 27.1668C14.2738 27.4486 13.5605 27.5427 12.9903 27.5427V27.6368C13.0853 27.7791 14.1312 27.8256 14.7014 27.308ZM13.9887 22.4599C13.5239 22.8026 12.9506 22.9693 12.3725 22.9299C11.5648 22.9299 10.9945 22.6016 10.5188 22.0829C10.2337 23.4952 11.1365 24.1545 12.1344 24.201C13.9412 24.2962 13.9887 22.6481 13.9887 22.4599Z" fill="#5AB9EA"/>
<path fill-rule="evenodd" clip-rule="evenodd" d="M12.3273 22.6023C14.2761 22.6488 14.8463 21.0482 14.4667 20.3423C13.3733 21.66 10.8543 21.3776 10.3316 19.7305C9.66581 20.9075 10.7587 22.6023 12.3273 22.6023Z" fill="#5AB9EA"/>
<path fill-rule="evenodd" clip-rule="evenodd" d="M12.6115 20.8595C13.5619 20.8595 14.6078 20.2001 14.3702 19.0231C13.2767 19.73 11.8987 19.6824 10.9479 18.9766C10.8528 19.1172 10.7097 19.3525 10.6152 19.4466C10.7578 20.3418 11.6612 20.8595 12.6115 20.8595Z" fill="#5AB9EA"/>
<path fill-rule="evenodd" clip-rule="evenodd" d="M11.4234 17.5645C11.3759 17.6121 11.3284 17.6586 11.2809 17.6586C11.2809 17.988 11.1859 18.4121 11.0908 18.694C12.4219 19.8245 15.2259 19.1175 15.0364 16.8115C14.085 17.7527 12.5639 17.9886 11.4234 17.5645Z" fill="#5AB9EA"/>
<path fill-rule="evenodd" clip-rule="evenodd" d="M12.0388 16.1993C12.0388 16.6228 11.8963 16.9993 11.6587 17.3287C13.3698 17.8464 15.5087 16.9528 15.4136 14.9281C14.8429 15.4458 13.7975 16.1052 12.0388 16.1993ZM3.43545 6.64301C4.71896 6.0783 4.62393 4.76064 3.8631 4.43068C3.67303 4.61892 3.72055 5.04245 3.72055 5.13657C3.72055 5.32481 3.38793 5.46599 3.34041 5.37187C3.24538 5.23069 3.53048 5.08951 3.38793 4.76009C3.2929 4.47774 3.62552 4.33656 3.62552 3.86543C3.62552 3.58307 3.38793 3.15954 3.38793 3.06542C3.24538 2.78307 3.24538 2.26541 3.43545 2.02958C3.2929 1.8884 3.10283 1.74722 2.96027 2.02958C2.72269 2.35899 2.81772 2.78307 2.96027 3.11248C2.96027 3.15954 2.72269 3.11248 2.62765 3.48895L2.53262 3.63013H2.43758C2.39007 3.34778 2.4851 3.2066 2.58014 3.01836C2.53262 2.9713 2.43758 2.73601 2.43758 2.31247C2.24697 1.74776 1.81931 1.22957 1.53421 1.18251C1.7718 1.55898 2.19945 2.35953 2.24697 2.45365C2.342 2.68949 2.15193 2.73601 2.15193 2.73601C1.81931 2.07718 1.48669 1.46486 1.20104 1.18251C1.01097 1.04133 0.820902 0.947214 0.725868 1.08839C0.820902 1.08839 0.915937 1.18251 1.01097 1.27663C1.29608 1.6531 1.91435 2.87664 1.91435 2.87664C1.91435 2.87664 1.86683 2.9237 1.77179 2.9237C1.67676 2.9237 1.58173 2.73547 1.43917 2.40605C1.24856 2.12369 0.963454 1.65256 0.820902 1.51192C0.67835 1.32369 0.583316 1.37075 0.488281 1.46487C0.583316 1.60604 0.67835 1.79428 0.67835 1.93546C0.916483 1.84134 1.20159 2.07664 1.24856 2.31193C1.24856 2.50017 1.34359 3.11194 1.48669 3.30018C1.43917 3.30018 1.29662 3.3943 1.29662 3.3943C1.15407 3.25312 1.05849 2.59429 1.01152 2.35845C1.01152 2.26433 0.964 2.17021 0.821448 2.12315C0.726414 2.12315 0.726414 2.17021 0.726414 2.21727C0.631379 3.53547 0.726414 3.86489 1.91489 4.75955C2.00993 4.80661 2.10496 4.99485 2.2 5.18309C2.29503 5.32427 2.43813 5.55957 2.72323 5.51251L2.81827 5.60662C2.58068 5.84192 2.20054 5.70074 2.10551 5.60662C2.05799 5.5125 1.86792 5.23015 1.86792 5.23015C1.01152 6.07884 2.15248 7.25532 3.43545 6.64301ZM4.76648 24.8604C4.2913 25.8967 3.81613 26.3668 3.29344 27.1203C2.9133 27.5914 3.05531 27.8262 3.29344 28.1556C3.76861 28.6732 4.57696 28.9561 5.19413 28.7684V28.7208C4.43386 28.7684 3.81613 28.485 3.48296 28.015L3.53048 27.9674C4.38579 28.6267 5.52676 28.4385 5.95441 28.2032C6.09696 28.1556 6.14448 28.015 6.14448 27.8738C6.09696 27.4978 5.90689 26.885 5.85938 26.555C5.81186 26.3203 5.90689 25.8026 6.14448 25.2374C5.76489 25.2839 5.00461 25.1898 4.76648 24.8604ZM15.8413 6.97296C16.459 7.3965 16.5541 8.24411 16.5541 8.57352C17.1723 7.3965 16.2689 6.69061 15.7938 6.54943C15.8888 6.73767 15.8888 6.9259 15.8413 6.97296ZM16.7447 10.8329C17.9326 10.1741 17.1723 8.76176 16.9823 8.66764C16.9347 8.80882 16.7922 9.18529 16.3645 9.65642C16.6016 9.93824 16.7447 10.3618 16.7447 10.8329ZM8.47392 7.77297C9.32923 8.14945 10.2326 8.29062 11.1354 8.29062C13.6069 8.29062 15.3186 7.58474 15.4612 6.87885C15.5562 6.26654 14.4152 5.89006 13.2267 5.79594C13.0367 5.98418 12.7991 6.0783 12.7041 6.0783C12.6565 6.0783 12.5615 6.03124 12.6565 5.98418C12.8466 5.89006 13.0367 5.70182 12.8466 5.37241C12.9892 5.37241 13.4168 5.18417 13.4649 4.43122C13.4649 3.81945 13.1798 3.44244 12.8947 3.2542C12.8947 3.2542 12.7996 3.16008 12.8947 3.16008C12.9897 2.40659 12.467 1.79482 11.5636 1.60659V1.51246C11.6112 1.51246 11.6112 1.46541 11.6112 1.46541C11.5636 1.27717 10.8979 1.18305 10.6127 1.41835C10.5652 1.46541 10.7553 1.55952 10.8028 1.55952C10.8979 1.55952 10.9454 1.65364 10.8503 1.65364C10.2801 1.60658 9.32923 2.07772 9.32923 3.34832C9.37675 3.34832 9.66186 3.30126 9.75689 3.30126C9.85192 3.34832 9.80441 3.44244 9.75689 3.44244C8.85406 3.4895 8.52089 5.04299 9.70937 5.56065C9.70937 5.56065 9.80441 5.60771 9.70937 5.65477C9.56682 5.74888 9.47124 5.93712 9.66186 6.0783C9.75689 6.0783 9.80441 6.17242 9.75689 6.21948C9.75689 6.31359 9.61434 6.31359 9.5193 6.21948C8.90158 5.93712 8.18827 6.0783 7.61806 6.26653C8.04627 6.59649 8.33137 7.1612 8.47392 7.77297Z" fill="#5AB9EA"/>
<path fill-rule="evenodd" clip-rule="evenodd" d="M2.2961 3.81955C2.24858 3.86661 2.10603 3.72543 1.96348 3.63131C1.82093 3.58425 1.63086 3.58426 1.63086 3.5372C1.63086 3.5372 1.77341 3.49013 1.91596 3.49013C2.011 3.49013 2.10603 3.5372 2.20107 3.5372C2.24858 3.63132 2.34362 3.77249 2.2961 3.81955ZM5.43334 26.5551C5.14823 26.461 4.72003 26.4145 4.48244 26.4145V26.0851C4.76755 26.1316 5.1952 26.1792 5.52837 26.2733L5.43334 26.5551ZM5.62286 25.9439C5.1952 25.8033 5.10017 25.8033 4.62499 25.7557V25.4739C5.14769 25.4739 5.29024 25.4739 5.71789 25.6145L5.62286 25.9439ZM12.3725 4.47892C12.325 4.47892 12.2775 4.47892 12.2299 4.52598C11.3746 4.3848 11.1365 4.57304 10.6613 4.57304C10.6613 4.52598 10.6613 4.43186 10.5663 4.43186C10.5663 4.47892 10.5188 4.52598 10.5188 4.52598C10.3762 4.71422 10.3287 4.80834 10.3762 4.8554C10.4237 4.90246 10.5188 4.80834 10.5663 4.76128C10.6138 4.76128 10.8039 4.76128 10.994 4.8554C11.1365 4.94951 11.4216 5.32599 11.7067 5.18481C11.9443 5.09069 12.1344 4.71368 12.2769 4.71368C12.372 4.71368 12.467 4.76074 12.467 4.71368C12.5151 4.71422 12.42 4.43186 12.3725 4.47892ZM11.7073 5.04363C11.4222 5.13775 11.2796 4.80834 11.042 4.71422C11.2796 4.66716 11.7073 4.6201 12.0879 4.66716C11.9924 4.71422 11.7548 4.99657 11.7073 5.04363ZM12.0399 2.31365C11.7548 2.36071 11.5642 2.73719 11.5642 3.20778C11.6117 3.49014 11.7067 3.77249 11.8968 3.91421C11.9918 3.96127 12.0869 4.00833 12.1819 4.00833C12.467 3.96127 12.7046 3.58479 12.6571 3.1142C12.6571 2.83185 12.5145 2.54949 12.372 2.45483C12.3303 2.40881 12.279 2.37234 12.2216 2.34795C12.1643 2.32357 12.1023 2.31187 12.0399 2.31365Z" fill="#4791B8"/>
<path fill-rule="evenodd" clip-rule="evenodd" d="M12.4224 3.63148C12.4699 3.53735 12.5174 3.3491 12.5174 3.11378C12.4699 2.87792 12.4224 2.69021 12.2799 2.54902C12.2323 2.50195 12.1373 2.50195 12.0898 2.50195C11.8522 2.50195 11.7096 2.8314 11.7572 3.20845V3.30257C11.8047 3.06726 11.8997 2.879 12.0898 2.83194C12.2799 2.83194 12.4224 3.0678 12.4224 3.35018V3.63148Z" fill="#5AB9EA"/>
<path fill-rule="evenodd" clip-rule="evenodd" d="M10.7112 2.36151C10.4261 2.40857 10.1885 2.78504 10.1885 3.25564C10.1885 3.53799 10.2835 3.77383 10.4736 3.96207C10.5686 4.00913 10.6636 4.05619 10.8062 4.05619C11.0913 4.05619 11.3294 3.63265 11.3294 3.16206C11.3294 2.8797 11.2344 2.64387 11.0443 2.50269C11.0025 2.45664 10.951 2.42016 10.8934 2.39578C10.8359 2.3714 10.7737 2.35971 10.7112 2.36151Z" fill="#4791B8"/>
<path fill-rule="evenodd" clip-rule="evenodd" d="M11.0919 3.58518C11.1394 3.44399 11.1869 3.3028 11.1869 3.1616C11.1394 2.92574 11.0919 2.73802 10.9493 2.59683C10.9018 2.54977 10.8068 2.5027 10.7112 2.54977C10.5211 2.54977 10.3311 2.87922 10.3311 3.25573C10.3311 3.39692 10.3786 3.53811 10.4736 3.63224V3.6793V3.63224C10.4261 3.58518 10.4261 3.53811 10.4261 3.44399C10.4261 3.1616 10.5686 2.92574 10.7587 2.92574C10.9488 2.92574 11.0913 3.1616 11.0913 3.44399L11.0919 3.58518Z" fill="#5AB9EA"/>
</svg>
