<svg width="89" height="36" viewBox="0 0 89 36" fill="none" xmlns="http://www.w3.org/2000/svg">
<g clip-path="url(#clip0)">
<path d="M4.59517 32.7526L5.06582 32.6446C8.2551 31.9002 11.3809 31.2846 17.3436 31.2846C21.9561 31.2846 29.6214 32.2084 40.7769 34.1082C46.5848 35.0981 52.8189 35.5987 59.3062 35.5987C76.4924 35.5987 84.2594 31.464 87.9915 29.4772L88.8658 29.0131V4.7427L87.018 5.61248C86.4212 5.89371 85.6 6.20801 84.6561 6.52754C84.6561 4.73835 84.6561 0.138672 84.6561 0.138672L82.8083 1.00846C79.3354 2.64442 70.9803 5.07877 62.2058 5.07877C52.5031 5.07877 44.8744 4.43274 38.194 3.04492C29.6475 1.27052 23.0558 0.546139 15.4401 0.546139C12.9929 0.546139 3.87223 1.91393 0.710787 4.02963L0.135742 4.41446V29.6609C0.135742 29.6609 1.04659 29.1298 2.01225 28.7179C2.95094 28.3174 4.19412 27.9831 4.59517 27.9152V32.7526Z" fill="#5AB9EA"/>
<path d="M87.5798 6.79492C86.8901 7.11967 85.8584 7.5069 84.6437 7.90501V25.8405C79.6493 28.7424 70.5477 30.6291 61.5897 30.6291C50.1428 30.6291 44.2836 29.6966 38.5357 28.6919C30.1458 27.2257 22.0786 26.3847 16.9824 26.3847C13.4124 26.3847 9.1239 26.8202 5.91211 27.4512V31.2603C8.7421 30.6465 12.0897 29.9761 17.3521 29.9761C23.086 29.9761 32.5991 31.397 40.9934 32.8275C47.465 33.9289 53.6809 34.3076 59.3061 34.3076C76.4626 34.3076 84.0252 30.125 87.5798 28.2348V6.79492Z" fill="#4791B8"/>
<path d="M1.43066 5.10491C4.23107 3.233 13.0099 1.84082 15.4397 1.84082C23.8914 1.84082 30.611 2.79331 37.93 4.31348C44.4869 5.67431 52.1564 6.37345 62.2054 6.37345C71.6297 6.37345 80.1832 3.67703 83.3594 2.18125V25.0542C78.8121 27.6958 69.2573 29.4676 60.7178 29.4676C50.4278 29.4676 44.1458 28.5003 37.6542 27.3946C29.259 25.9649 22.1393 25.2562 16.4053 25.2562C11.1708 25.2562 3.9553 26.288 1.43066 27.5582C1.43066 27.7446 1.43066 5.10491 1.43066 5.10491Z" fill="#4791B8"/>
<path d="M66.8322 10.9367C65.7665 10.9367 64.6199 11.4808 63.7987 12.1129C63.8001 12.0955 63.79 12.0746 63.79 12.0572C63.7948 11.6149 63.6003 11.177 63.0992 11.177H60.8634C60.8095 12.1582 60.7721 12.8661 60.2892 15.7645C59.6559 19.5745 59.4671 20.439 59.2227 21.3515H62.5842C62.6564 20.3276 62.7878 19.3228 62.9452 18.3085L63.6456 13.7811C64.1214 13.2396 64.6565 12.8399 65.4116 12.8399C66.0745 12.8399 66.533 13.1351 66.533 13.8403C66.533 13.9822 66.5129 14.1233 66.4912 14.2617L65.7674 18.3468C65.6865 18.8562 65.5551 19.4334 65.5551 19.941C65.5551 21.052 66.1615 21.4063 67.1994 21.4063C67.6161 21.4063 68.1233 21.4063 68.5408 21.3549C68.5225 21.24 68.466 21.0667 68.466 20.9509C68.466 20.365 68.5165 19.8008 68.6139 19.2244L69.5343 14.2225C69.5883 13.8986 69.6144 13.5686 69.6144 13.2404C69.6144 11.5975 68.312 10.9366 66.8322 10.9366V10.9367ZM77.6894 10.9366C76.6236 10.9366 75.477 11.4808 74.6549 12.1129C74.6577 12.0955 74.6654 12.0572 74.6654 12.038C74.6689 11.5975 74.4583 11.1769 73.9546 11.1769H71.7197C71.6666 12.1582 71.6614 12.3201 71.1359 15.835C70.6114 19.3498 70.3269 20.331 70.0798 21.3514H73.4413C73.5135 20.3275 73.6458 19.3228 73.8015 18.3085L74.5036 13.7811C74.9794 13.2395 75.5136 12.8399 76.2678 12.8399C76.9316 12.8399 77.3875 13.1351 77.3875 13.8403C77.3875 13.9822 77.3709 14.1232 77.3492 14.2617L76.6237 18.3468C76.5419 18.8561 76.4123 19.4334 76.4123 19.941C76.4123 21.0519 77.0186 21.4063 78.0565 21.4063C78.4749 21.4063 78.9995 21.3889 79.4145 21.3366C79.3988 21.22 79.3406 21.0667 79.3406 20.9509C79.3406 20.365 79.3719 19.8008 79.4719 19.2244L80.3923 14.2225C80.4454 13.8986 80.4706 13.5686 80.4706 13.2404C80.4706 11.5975 79.17 10.9366 77.6894 10.9366H77.6894ZM45.3729 10.8966C44.2845 10.8966 42.9387 11.4251 42.1523 12.1791C41.8278 11.2779 40.9065 10.8966 40.0078 10.8966C38.9508 10.8966 37.7007 11.4564 36.889 12.1138C36.8918 12.0955 36.8977 12.0755 36.8977 12.0581C36.9056 11.6184 36.7054 11.1778 36.207 11.1778H33.9712C33.9294 12.4115 33.7902 13.0436 33.3857 15.6077C32.868 18.891 32.4861 20.802 32.2217 21.3514H35.5049C35.538 20.392 35.6711 19.436 35.825 18.4878L36.7759 13.5599C37.1596 13.1629 37.7581 12.7999 38.3271 12.7999C38.8177 12.7999 39.2858 13.1203 39.2858 13.647C39.2858 14.1528 39.1805 14.7588 39.1022 15.2568C38.7742 17.322 38.3297 19.2862 37.9364 21.3419L41.0605 21.3515C41.1196 20.3937 41.2301 19.4378 41.3815 18.4879L42.3123 13.5809C42.6864 13.1795 43.2049 12.8408 43.7713 12.8408C44.2645 12.8408 44.7517 13.1699 44.7517 13.701C44.7517 13.8612 44.7524 14.0214 44.73 14.1816L43.8861 18.9711C43.8383 19.3072 43.8252 19.6459 43.8252 19.9854C43.8252 21.1033 44.4699 21.4142 45.4869 21.4142C45.9236 21.4142 46.3769 21.4162 46.8101 21.3611C46.7884 21.247 46.7552 21.0581 46.7552 20.9405C46.7552 20.3607 46.8248 19.8392 46.9031 19.2672L47.6261 15.0723C47.7139 14.4324 47.8792 13.8012 47.8792 13.1517C47.8792 11.6655 46.7692 10.8967 45.3729 10.8967L45.3729 10.8966ZM33.0664 11.1161C32.7497 10.9663 32.701 10.9324 32.3478 10.9324C31.0411 10.9324 30.4843 11.6724 29.63 12.4882C29.7109 11.9885 29.4926 11.177 28.8706 11.177H26.8114C26.8757 11.5418 26.8914 11.911 26.8914 12.2784C26.8914 12.8913 26.7104 14.4968 26.5095 15.7401C26.1058 18.238 25.8231 20.0951 25.4307 21.3515H28.6052C28.6444 20.3938 28.7557 18.9276 29.2568 16.2765C29.5509 14.7241 30.4139 13.2579 31.644 13.2579C31.992 13.2579 32.3904 13.3206 32.688 13.5043L33.0664 11.1161ZM22.1231 10.8967C20.9861 10.8967 19.9421 11.3799 19.08 12.099C19.2488 11.2493 19.7186 9.05784 19.7186 8.56592C19.7186 8.13147 19.4793 7.90945 19.0609 7.90945H16.7189C16.6624 8.86979 16.5693 9.82664 16.3979 10.7739L15.0373 18.3477C14.8572 19.3499 14.7119 20.3781 14.417 21.3515H17.7394C17.9029 18.7569 18.4275 16.2042 18.8416 13.641C19.3036 13.2065 19.8873 12.8408 20.5415 12.8408C21.0844 12.8408 21.6429 13.1891 21.6429 13.782C21.6429 13.93 21.6255 14.0763 21.6037 14.2234L20.8825 18.945C20.8312 19.282 20.7512 19.6163 20.7512 19.9585C20.7512 21.0685 21.3567 21.4238 22.3937 21.4238C22.8121 21.4238 23.3019 21.4046 23.716 21.3515C23.6934 21.2157 23.6612 21.1025 23.6612 20.985C23.6612 20.3999 23.7177 19.8183 23.809 19.2402L24.6477 13.9823C24.6903 13.7176 24.7242 13.4486 24.7242 13.1813C24.7242 11.6907 23.5063 10.8967 22.1231 10.8967H22.1231ZM54.7179 18.299C54.3317 18.8553 53.4087 19.6502 52.6927 19.6502C51.9123 19.6502 51.7688 18.6977 51.7688 18.1048C51.7688 16.5629 52.6266 12.5875 54.6309 12.5875C55.0859 12.5875 55.4104 12.5875 55.8028 12.793L54.7179 18.299ZM58.0751 16.2225C58.6467 13.1369 58.7024 12.8644 59.2304 11.1039C58.1891 11.0525 57.2704 11.143 56.5544 11.4095C55.9594 11.1788 55.3434 10.8967 54.6927 10.8967C50.998 10.8967 48.5238 14.7929 48.5238 18.1849C48.5238 20.1274 49.4051 21.5526 51.4704 21.5526C52.5691 21.5526 53.9002 20.857 54.5822 20.1726L54.5788 20.3206C54.5788 20.9806 54.7919 21.3515 55.601 21.3515H57.6741C57.5914 20.9919 57.554 20.6219 57.554 20.251C57.554 19.8192 57.5836 18.8806 58.0751 16.2225H58.0751ZM12.463 9.11269C13.145 9.11269 13.6983 9.35909 14.2525 9.7892L14.9685 8.17064C14.0655 7.61778 12.7823 7.16504 11.5278 7.16504C9.64605 7.16504 7.6173 8.3709 7.6173 10.464C7.6173 11.2832 8.13406 12.4551 8.8222 12.9027C5.726 13.7524 4.19922 15.8159 4.19922 17.6886C4.19922 20.2963 6.14097 21.8077 9.45814 21.8077C11.9106 21.8077 14.3534 20.5827 14.0698 17.7148C13.1172 18.6655 12.1446 19.4413 10.4821 19.4413C8.83699 19.4413 7.75215 18.4783 7.75215 17.2916C7.75215 14.7589 10.7352 14.0754 12.8501 14.1956L13.3408 12.4647C13.1711 12.4813 13.0685 12.4864 12.9667 12.4864C11.7601 12.4864 10.6865 11.8169 10.6865 10.6755C10.6865 9.64115 11.5339 9.11266 12.463 9.11266" fill="#5AB9EA"/>
</g>
<defs>
<clipPath id="clip0">
<rect width="89" height="35.7302" fill="white" transform="translate(0 0.00195312)"/>
</clipPath>
</defs>
</svg>
