<svg width="78" height="16" viewBox="0 0 78 16" fill="none" xmlns="http://www.w3.org/2000/svg">
<g clip-path="url(#clip0)">
<path d="M42.1963 14.0587H52.4249V12.7991H43.9498V8.76842H50.3156V7.4939H43.9498V3.78043H52.4249V2.52539H42.1963V14.0587Z" fill="#4791B8"/>
<path d="M47.4577 0.603516L46.0322 1.88499L50.5072 0.603516H47.4577Z" fill="#4791B8"/>
<path d="M69.352 12.7991V2.52539H67.7705V14.0587H77.9991V12.7991H69.352Z" fill="#4791B8"/>
<path d="M59.6003 2.52539L53.7051 14.0587H55.6978L57.2059 11.0735H64.2763L65.7973 14.0587H67.7694L61.8695 2.52539H59.6003ZM57.9521 9.62789L60.7301 4.11906L63.5406 9.62789H57.9521Z" fill="#4791B8"/>
<path d="M37.326 9.23602C40.0095 8.53098 40.2702 6.56501 40.2566 5.86217C40.0964 3.80181 38.6866 2.52539 36.1532 2.52539H28.7705V14.0587H30.4535V9.22063H35.2598L38.7957 14.0587H40.917C40.9169 14.0587 38.3724 10.8026 37.326 9.23602ZM35.9234 7.85791H30.4535V3.89051H36.114C37.4173 3.89051 38.1504 4.48956 38.4145 5.25054C38.5892 5.77217 38.4772 6.45693 38.1881 6.92312C37.7151 7.69389 36.8164 7.85791 35.9234 7.85791Z" fill="#4791B8"/>
<path d="M19.1804 0.603516C14.6171 0.603516 11.5068 3.96502 11.5068 8.03361C11.5068 12.3168 14.9426 15.3405 19.1804 15.3405C23.4154 15.3405 26.8498 12.36 26.8498 8.03361C26.8498 3.96502 23.701 0.603516 19.1804 0.603516ZM19.1256 13.8813C15.9685 13.8813 13.3672 11.2307 13.3672 8.03758C13.3672 4.84884 15.8457 2.07123 19.248 2.07123C22.566 2.07123 25.0051 4.84884 25.0051 8.03758C25.0051 11.2306 22.2814 13.8813 19.1256 13.8813Z" fill="#4791B8"/>
<path d="M7.03223 7.01056H8.16768L10.2287 2.52539H8.57017L7.03223 7.01056Z" fill="#4791B8"/>
<path d="M1.58243 12.7991V2.52539H0V14.0587H10.2286V12.7991H1.58243Z" fill="#4791B8"/>
</g>
<defs>
<clipPath id="clip0">
<rect width="78" height="14.737" fill="white" transform="translate(0 0.603516)"/>
</clipPath>
</defs>
</svg>
