<svg width="51" height="33" viewBox="0 0 51 33" fill="none" xmlns="http://www.w3.org/2000/svg">
<g clip-path="url(#clip0)">
<path d="M33.8677 8.25327H4.53452C2.23232 8.25327 0.353516 6.39889 0.353516 4.12663C0.353516 1.85437 2.23232 0 4.53452 0H33.8677V1.55402V6.68619V8.25327Z" fill="#7171AB"/>
<path d="M13.8888 4.12652C13.8888 4.57053 13.955 5.00147 14.1005 5.4063H4.87851C4.05819 5.4063 3.40987 4.74029 3.43633 3.91758C3.46279 3.1471 4.13757 2.54639 4.9182 2.54639H14.2064C13.9947 3.04263 13.8888 3.56499 13.8888 4.12652Z" fill="#F1CC32"/>
<path d="M48.2622 0.783691V7.48294H21.0195C19.1407 7.48294 17.6191 5.98116 17.6191 4.13985C17.6191 3.60443 17.7515 3.10819 17.9631 2.66418C18.1219 2.33771 18.3468 2.03735 18.6115 1.77617C19.2333 1.1624 20.0669 0.783691 20.993 0.783691H48.2622Z" fill="white"/>
<path d="M48.2624 0.783691V4.81891L47.7067 3.81337C47.3097 3.09513 46.5556 2.65112 45.722 2.65112H17.9766C18.1353 2.32465 18.3603 2.02429 18.6249 1.76311C19.2335 1.1624 20.0671 0.783691 20.9932 0.783691H48.2624Z" fill="#FBF5DE"/>
<path d="M48.2622 4.81891V7.46988H21.0195C19.1407 7.46988 17.6191 5.9681 17.6191 4.12679C17.6191 3.1996 18.0028 2.36383 18.6115 1.76311C19.2333 1.1624 20.0669 0.783691 20.993 0.783691L21.5223 1.17546C21.5223 1.17546 19.8287 1.959 19.8287 3.43466C19.8287 5.21068 22.7131 4.81891 24.2214 4.81891H48.2622Z" fill="#EAD7A1"/>
<path d="M49.5586 8.25327H21.1252C18.8627 8.25327 16.9309 6.51642 16.8383 4.28334C16.7589 1.93273 18.6642 0 21.0193 0H49.5586C49.9953 0 50.3525 0.352592 50.3525 0.783538C50.3525 1.21448 49.9953 1.56708 49.5586 1.56708H21.0987C19.7492 1.56708 18.5584 2.55956 18.4261 3.89157C18.2805 5.41947 19.4978 6.71231 21.0193 6.71231H49.5586C49.9953 6.71231 50.3525 7.0649 50.3525 7.49584C50.3525 7.90067 49.9953 8.25327 49.5586 8.25327Z" fill="#8582BB"/>
<path d="M33.8677 32.9998H4.53452C2.23232 32.9998 0.353516 31.1455 0.353516 28.8732C0.353516 26.601 2.23232 24.7466 4.53452 24.7466H33.8677V26.3006V31.4328V32.9998Z" fill="#7171AB"/>
<path d="M13.8888 28.8731C13.8888 29.3171 13.955 29.7481 14.1005 30.1529H4.87851C4.05819 30.1529 3.40987 29.4869 3.43633 28.6642C3.46279 27.8937 4.13757 27.293 4.9182 27.293H14.2064C13.9947 27.7762 13.8888 28.3116 13.8888 28.8731Z" fill="#F1CC32"/>
<path d="M48.2622 25.5171V32.2163H21.0195C19.1407 32.2163 17.6191 30.7146 17.6191 28.8732C17.6191 28.3378 17.7515 27.8416 17.9631 27.3976C18.1219 27.0711 18.3468 26.7707 18.6115 26.5096C19.2201 25.9089 20.0536 25.5432 20.9798 25.5301H48.2622V25.5171Z" fill="white"/>
<path d="M48.2624 25.5171V29.5523L47.7067 28.5468C47.3097 27.8285 46.5556 27.3845 45.722 27.3845H17.9766C18.1353 27.058 18.3603 26.7577 18.6249 26.4965C19.2335 25.8958 20.0671 25.5301 20.9932 25.5171H48.2624Z" fill="#FBF5DE"/>
<path d="M48.2622 29.5655V32.2165H21.0195C19.1407 32.2165 17.6191 30.7147 17.6191 28.8734C17.6191 27.9462 18.0028 27.1104 18.6115 26.5097C19.2201 25.909 20.0536 25.5433 20.9798 25.5303L21.5091 25.922C21.5091 25.922 19.8155 26.7056 19.8155 28.1812C19.8155 29.9573 22.6999 29.5655 24.2082 29.5655H48.2622Z" fill="#EAD7A1"/>
<path d="M49.5595 32.9998H21.126C18.8635 32.9998 16.9318 31.263 16.8392 29.0299C16.7466 26.6793 18.6518 24.7466 21.0202 24.7466H49.5595C49.9961 24.7466 50.3533 25.0992 50.3533 25.5301C50.3533 25.9611 49.9961 26.3137 49.5595 26.3137H21.0996C19.75 26.3137 18.5592 27.3061 18.4269 28.6382C18.2814 30.1661 19.4986 31.4589 21.0202 31.4589H49.5595C49.9961 31.4589 50.3533 31.8115 50.3533 32.2424C50.3533 32.6473 49.9961 32.9998 49.5595 32.9998Z" fill="#8582BB"/>
<path d="M16.8398 16.5066H46.0672C48.237 16.5066 50.1291 14.9003 50.3275 12.7586C50.5525 10.3166 48.5943 8.24023 46.1598 8.24023H16.8398V9.79425V14.9264V16.5066Z" fill="#B34655"/>
<path d="M36.8171 12.3799C36.8171 12.8239 36.7509 13.2549 36.6054 13.6597H45.8142C46.6345 13.6597 47.2828 12.9937 47.2564 12.171C47.2299 11.4005 46.5551 10.7998 45.7745 10.7998H36.4863C36.7113 11.296 36.8171 11.8184 36.8171 12.3799Z" fill="#F1CC32"/>
<path d="M2.44336 9.03662V15.7359H29.5934C31.3134 15.7359 32.835 14.4953 33.0467 12.8107C33.1393 12.1185 33.007 11.4786 32.7291 10.9171C32.5704 10.5906 32.3455 10.2903 32.0808 10.0291C31.4722 9.42839 30.6387 9.06274 29.7125 9.04968H2.44336V9.03662Z" fill="white"/>
<path d="M2.44336 9.03662V13.0718L2.99906 12.0663C3.39599 11.3481 4.15016 10.9041 4.98371 10.9041H32.7291C32.5704 10.5776 32.3455 10.2772 32.0808 10.016C31.4722 9.41533 30.6387 9.04968 29.7125 9.03662H2.44336Z" fill="#FBF5DE"/>
<path d="M2.44336 13.0722V15.7232H29.5934C31.3134 15.7232 32.8218 14.5087 33.0467 12.8241C33.1922 11.7271 32.7953 10.7085 32.0808 10.0033C31.4722 9.40264 30.6387 9.03698 29.7125 9.02393L29.1832 9.41569C29.1832 9.41569 30.8768 10.1992 30.8768 11.6749C30.8768 13.4509 27.9924 13.0591 26.4841 13.0591H2.44336V13.0722Z" fill="#EAD7A1"/>
<path d="M1.14738 16.5066H29.5941C31.7639 16.5066 33.656 14.9003 33.8544 12.7586C34.0794 10.3166 32.1212 8.24023 29.6867 8.24023H1.14738C0.710753 8.25329 0.353516 8.60589 0.353516 9.03683C0.353516 9.46778 0.710753 9.82037 1.14738 9.82037H29.6205C30.9039 9.82037 32.055 10.7084 32.2535 11.962C32.5181 13.5683 31.2612 14.9656 29.6867 14.9656H1.14738C0.710753 14.9656 0.353516 15.3182 0.353516 15.7491C0.353516 16.154 0.710753 16.5066 1.14738 16.5066Z" fill="#CB585D"/>
<path d="M16.8398 24.76H46.0672C48.237 24.76 50.1291 23.1537 50.3275 21.0121C50.5525 18.57 48.5943 16.4937 46.1598 16.4937H16.8398V18.0477V23.1798V24.76Z" fill="#41669F"/>
<path d="M36.8171 20.6334C36.8171 21.0774 36.7509 21.5083 36.6054 21.9131H45.8142C46.6345 21.9131 47.2828 21.2471 47.2564 20.4244C47.2299 19.6539 46.5551 19.0532 45.7745 19.0532H36.4863C36.7113 19.5495 36.8171 20.0718 36.8171 20.6334Z" fill="#F1CC32"/>
<path d="M2.44336 17.29V23.9893H29.5934C31.3134 23.9893 32.835 22.7487 33.0467 21.0641C33.1393 20.372 33.007 19.7321 32.7291 19.1705C32.5704 18.8441 32.3455 18.5437 32.0808 18.2825C31.4722 17.6818 30.6387 17.3162 29.7125 17.3031H2.44336V17.29Z" fill="white"/>
<path d="M2.44336 17.29V21.3253L2.99906 20.3197C3.39599 19.6015 4.15016 19.1575 4.98371 19.1575H32.7291C32.5704 18.831 32.3455 18.5306 32.0808 18.2695C31.4722 17.6687 30.6387 17.3031 29.7125 17.29H2.44336Z" fill="#FBF5DE"/>
<path d="M2.44336 21.3256V23.9766H29.5934C31.3134 23.9766 32.8218 22.7621 33.0467 21.0775C33.1922 19.9805 32.7953 18.962 32.0808 18.2568C31.4722 17.6561 30.6387 17.2904 29.7125 17.2773L29.1832 17.6691C29.1832 17.6691 30.8768 18.4527 30.8768 19.9283C30.8768 21.7043 27.9924 21.3126 26.4841 21.3126H2.44336V21.3256Z" fill="#EAD7A1"/>
<path d="M1.14738 24.76H29.5941C31.7639 24.76 33.656 23.1537 33.8544 21.0121C34.0794 18.57 32.1212 16.4937 29.6867 16.4937H1.14738C0.710753 16.4937 0.353516 16.8462 0.353516 17.2772C0.353516 17.7081 0.710753 18.0607 1.14738 18.0607H29.6205C30.9039 18.0607 32.055 18.9487 32.2535 20.2024C32.5181 21.8087 31.2612 23.206 29.6867 23.206H1.14738C0.710753 23.206 0.353516 23.5586 0.353516 23.9895C0.353516 24.4204 0.710753 24.76 1.14738 24.76Z" fill="#5884C1"/>
</g>
<defs>
<clipPath id="clip0">
<rect width="50" height="33" fill="white" transform="translate(0.353516)"/>
</clipPath>
</defs>
</svg>
