<svg width="368" height="249" viewBox="0 0 368 249" fill="none" xmlns="http://www.w3.org/2000/svg">
<g clip-path="url(#clip0)">
<path d="M338.472 50.1061V218.586C338.472 225.059 333.227 230.308 326.761 230.308H40.953C34.4869 230.308 29.2422 225.059 29.2422 218.586V50.1061C29.2422 43.6337 34.4869 38.3838 40.953 38.3838H326.761C333.227 38.3838 338.472 43.6337 338.472 50.1061Z" fill="#1B3431"/>
<path d="M324.736 58.834V199.358C324.736 203.49 321.164 206.844 316.755 206.844H50.9658C48.6079 206.844 46.4917 205.883 45.0287 204.36C43.7551 203.039 42.9844 201.28 42.9844 199.358V58.834C42.9844 54.7021 46.5636 51.3481 50.9723 51.3481H316.762C318.238 51.3481 319.616 51.7208 320.798 52.3811C323.149 53.6756 324.736 56.0815 324.736 58.834Z" fill="#EFE3DF"/>
<path d="M367.354 223.64V224.706C367.354 230.021 365.649 234.931 362.762 238.926C358.353 245.025 351.182 249 343.083 249H24.6242C16.5253 249 9.3538 245.032 4.9451 238.926C2.05821 234.931 0.353516 230.021 0.353516 224.706V223.64H367.354Z" fill="#414F50"/>
<path d="M186.564 236.317C186.564 238.259 184.996 239.828 183.056 239.828C181.116 239.828 179.549 238.259 179.549 236.317C179.549 234.375 181.116 232.806 183.056 232.806C184.996 232.806 186.564 234.382 186.564 236.317Z" fill="#1B3431"/>
<path d="M174.174 236.317C174.174 238.259 172.606 239.828 170.667 239.828C168.727 239.828 167.159 238.259 167.159 236.317C167.159 234.375 168.727 232.806 170.667 232.806C172.6 232.806 174.174 234.382 174.174 236.317Z" fill="#1B3431"/>
<path d="M198.954 236.317C198.954 238.259 197.387 239.828 195.447 239.828C193.507 239.828 191.939 238.259 191.939 236.317C191.939 234.375 193.507 232.806 195.447 232.806C197.387 232.806 198.954 234.382 198.954 236.317Z" fill="#1B3431"/>
<path d="M321.986 236.317C321.986 238.259 320.419 239.828 318.479 239.828C316.539 239.828 314.972 238.259 314.972 236.317C314.972 234.375 316.539 232.806 318.479 232.806C320.412 232.806 321.986 234.382 321.986 236.317Z" fill="#D76751"/>
<path d="M334.376 236.317C334.376 238.259 332.809 239.828 330.869 239.828C328.929 239.828 327.361 238.259 327.361 236.317C327.361 234.375 328.929 232.806 330.869 232.806C332.809 232.806 334.376 234.382 334.376 236.317Z" fill="#F5BF69"/>
<path d="M142.725 223.64V223.882C142.725 225.804 144.011 227.367 145.598 227.367H220.52C222.107 227.367 223.394 225.811 223.394 223.882V223.64H142.725Z" fill="#647A7A"/>
<path d="M324.736 59.3376V68.1898H42.9775V59.3376C42.9775 57.6312 43.5066 56.0556 44.421 54.7611C45.8579 52.6951 48.2549 51.3418 50.9655 51.3418H316.755C319.465 51.3418 321.862 52.6951 323.299 54.7611C324.201 56.0621 324.736 57.6377 324.736 59.3376Z" fill="white"/>
<path d="M302.052 60.2006C302.052 61.3709 301.105 62.3189 299.943 62.3189C298.774 62.3189 297.833 61.3709 297.833 60.2006C297.833 59.0304 298.78 58.0889 299.943 58.0889C301.112 58.0824 302.052 59.0304 302.052 60.2006Z" fill="#468280"/>
<path d="M308.904 60.2006C308.904 61.3709 307.957 62.3189 306.787 62.3189C305.618 62.3189 304.678 61.3709 304.678 60.2006C304.678 59.0304 305.625 58.0889 306.787 58.0889C307.957 58.0824 308.904 59.0304 308.904 60.2006Z" fill="#78B1DE"/>
<path d="M315.416 60.2006C315.416 61.3709 314.469 62.3189 313.306 62.3189C312.137 62.3189 311.196 61.3709 311.196 60.2006C311.196 59.0304 312.143 58.0889 313.306 58.0889C314.475 58.0824 315.416 59.0304 315.416 60.2006Z" fill="#E2534D"/>
<path d="M287.174 62.4367H72.5586C71.383 62.4367 70.4229 61.4757 70.4229 60.2989V60.1027C70.4229 58.9259 71.383 57.9648 72.5586 57.9648H287.174C288.35 57.9648 289.31 58.9259 289.31 60.1027V60.2989C289.31 61.4757 288.35 62.4367 287.174 62.4367Z" fill="#E9CEC2"/>
<path d="M56.3277 60.2003V62.2728C56.3277 62.567 56.0142 62.7501 55.7595 62.5997L53.9699 61.5667L52.1803 60.5337C51.9256 60.3899 51.9256 60.0238 52.1803 59.8734L53.9699 58.8404L55.7595 57.8075C56.0142 57.6636 56.3277 57.8467 56.3277 58.1344V60.2003Z" fill="#1B3431"/>
<path d="M59.4756 60.2003V62.2728C59.4756 62.567 59.7891 62.7501 60.0438 62.5997L61.8334 61.5667L63.623 60.5337C63.8778 60.3899 63.8778 60.0238 63.623 59.8734L61.8334 58.8404L60.0438 57.8075C59.7891 57.6636 59.4756 57.8467 59.4756 58.1344V60.2003Z" fill="#1B3431"/>
<path d="M286.756 190.198H91.6954C89.0502 190.198 86.9014 188.047 86.9014 185.4V80.0097C86.9014 77.3619 89.0502 75.2109 91.6954 75.2109H286.756C289.401 75.2109 291.55 77.3619 291.55 80.0097V185.393C291.55 188.047 289.401 190.198 286.756 190.198Z" fill="white"/>
<path d="M251.806 155.875C251.786 156.64 251.989 157.365 252.348 157.98C252.524 158.281 252.707 158.575 252.871 158.876L255.738 164.054L257.619 160.66C258.115 159.758 258.657 158.882 259.186 157.999C259.539 157.405 259.742 156.712 259.742 155.973C259.742 153.691 257.815 151.854 255.503 152.011C253.478 152.148 251.858 153.841 251.806 155.875ZM254.099 155.502C254.099 154.574 254.85 153.828 255.771 153.828C256.691 153.828 257.443 154.58 257.443 155.502C257.443 156.424 256.691 157.176 255.771 157.176C254.85 157.176 254.099 156.424 254.099 155.502Z" fill="#E9CEC2"/>
<path d="M235.876 158.143C235.876 161.432 238.547 164.099 241.826 164.099C245.105 164.099 247.776 161.425 247.776 158.143C247.776 154.855 245.105 152.188 241.826 152.188C238.547 152.188 235.876 154.855 235.876 158.143ZM239.22 160.34C239.024 159.693 238.92 158.993 238.9 158.255H241.591V160.34H239.22ZM240.624 163.485C239.109 163.145 237.829 162.184 237.058 160.817H238.874C239.122 161.524 239.468 162.164 239.906 162.713C240.128 163.001 240.363 163.256 240.624 163.485ZM241.591 160.817V163.609C241.408 163.504 240.84 163.132 240.272 162.4C239.906 161.929 239.605 161.399 239.383 160.811H241.591V160.817ZM239.514 155.208C240.148 153.802 241.082 152.933 241.382 152.678C241.454 152.671 241.526 152.665 241.597 152.665V155.208H239.514ZM237.208 155.208C237.973 154.012 239.174 153.149 240.539 152.815C240.272 153.103 240.017 153.41 239.788 153.744C239.468 154.201 239.2 154.691 238.985 155.208H237.208ZM238.9 157.777C238.926 157.065 239.07 156.365 239.311 155.692H241.584V157.777H238.9ZM236.366 157.777C236.412 157.045 236.607 156.346 236.934 155.692H238.802C238.573 156.372 238.443 157.071 238.417 157.777H236.366ZM238.423 158.255C238.436 158.987 238.541 159.693 238.724 160.34H236.823C236.536 159.68 236.379 158.98 236.366 158.255H238.423ZM245.183 158.255H247.299C247.286 158.98 247.13 159.68 246.842 160.34H244.883C245.066 159.686 245.17 158.987 245.183 158.255ZM242.068 155.208V152.665C242.12 152.665 242.166 152.671 242.218 152.671C242.427 152.848 242.923 153.299 243.426 154.025C243.681 154.397 243.91 154.79 244.092 155.201H242.068V155.208ZM244.288 155.685C244.537 156.359 244.674 157.065 244.7 157.771H242.068V155.685H244.288ZM244.615 155.208C244.399 154.698 244.132 154.201 243.812 153.744C243.577 153.404 243.315 153.09 243.041 152.796C244.439 153.116 245.667 153.985 246.444 155.201H244.615V155.208ZM244.706 158.255C244.687 158.993 244.582 159.699 244.386 160.34H242.068V158.255H244.706ZM245.183 157.777C245.157 157.071 245.026 156.365 244.798 155.692H246.725C247.051 156.346 247.247 157.052 247.293 157.777H245.183ZM246.601 160.817C245.83 162.184 244.491 163.171 242.963 163.498C243.224 163.263 243.472 163.001 243.694 162.713C244.132 162.158 244.478 161.517 244.726 160.817H246.601ZM244.223 160.817C243.563 162.537 242.433 163.354 242.068 163.576V160.817H244.223Z" fill="#E9CEC2"/>
<path d="M269.604 156.058C269.604 155.541 269.108 155.273 268.487 155.273C267.769 155.273 267.109 155.705 266.757 156.404L263.798 154.92C264.647 153.325 266.326 152.227 268.984 152.227C271.596 152.227 273.543 153.325 273.543 155.404C273.543 157.954 270.884 158.398 270.884 159.68H267.455C267.455 157.673 269.604 157.071 269.604 156.058ZM266.972 162.314C266.972 161.196 267.867 160.353 269.167 160.353C270.466 160.353 271.361 161.203 271.361 162.314C271.361 163.413 270.46 164.315 269.167 164.315C267.873 164.315 266.972 163.413 266.972 162.314Z" fill="#E9CEC2"/>
<path d="M143.358 159.883H95.9858C94.7448 159.883 93.7324 158.876 93.7324 157.627V132.986C93.7324 131.744 94.7383 130.73 95.9858 130.73H143.358C144.599 130.73 145.611 131.737 145.611 132.986V157.627C145.605 158.876 144.599 159.883 143.358 159.883Z" fill="#EFE3DF"/>
<path d="M276.599 114.118H229.227C227.986 114.118 226.974 113.111 226.974 111.862V87.2209C226.974 85.9787 227.979 84.9653 229.227 84.9653H276.599C277.84 84.9653 278.853 85.9722 278.853 87.2209V111.862C278.846 113.111 277.84 114.118 276.599 114.118Z" fill="#EFE3DF"/>
<path d="M277.658 133.992H228.091C227.431 133.992 226.902 133.456 226.902 132.802V132.691C226.902 132.031 227.438 131.501 228.091 131.501H277.658C278.318 131.501 278.847 132.038 278.847 132.691V132.802C278.847 133.456 278.318 133.992 277.658 133.992Z" fill="#EFE3DF"/>
<path d="M277.658 123.434H228.091C227.431 123.434 226.902 122.898 226.902 122.244V122.133C226.902 121.472 227.438 120.943 228.091 120.943H277.658C278.318 120.943 278.847 121.479 278.847 122.133V122.244C278.847 122.898 278.318 123.434 277.658 123.434Z" fill="#EFE3DF"/>
<path d="M277.658 144.545H228.091C227.431 144.545 226.902 144.009 226.902 143.355V143.244C226.902 142.583 227.438 142.054 228.091 142.054H277.658C278.318 142.054 278.847 142.59 278.847 143.244V143.355C278.847 144.015 278.318 144.545 277.658 144.545Z" fill="#EFE3DF"/>
<path d="M144.418 109.312H94.8508C94.1911 109.312 93.6621 108.776 93.6621 108.122V108.011C93.6621 107.351 94.1977 106.821 94.8508 106.821H144.418C145.077 106.821 145.606 107.357 145.606 108.011V108.122C145.606 108.776 145.077 109.312 144.418 109.312Z" fill="#EFE3DF"/>
<path d="M144.418 98.7536H94.8508C94.1911 98.7536 93.6621 98.2175 93.6621 97.5637V97.4526C93.6621 96.7923 94.1977 96.2627 94.8508 96.2627H144.418C145.077 96.2627 145.606 96.7988 145.606 97.4526V97.5637C145.606 98.2175 145.077 98.7536 144.418 98.7536Z" fill="#EFE3DF"/>
<path d="M144.418 119.864H94.8508C94.1911 119.864 93.6621 119.328 93.6621 118.675V118.563C93.6621 117.903 94.1977 117.374 94.8508 117.374H144.418C145.077 117.374 145.606 117.91 145.606 118.563V118.675C145.606 119.335 145.077 119.864 144.418 119.864Z" fill="#EFE3DF"/>
<path d="M86.9014 172.337H291.55V189.133C291.55 189.721 291.073 190.192 290.485 190.192H87.966C87.3782 190.192 86.9014 189.714 86.9014 189.133V172.337Z" fill="#1B3431"/>
<path d="M276.881 178.96V177.443H278.775V176.096H276.208C275.836 176.096 275.535 176.397 275.535 176.77V178.96H276.881Z" fill="white"/>
<path d="M276.881 181.653H275.535V183.955C275.535 184.327 275.836 184.628 276.208 184.628H278.775V183.281H276.881V181.653Z" fill="white"/>
<path d="M282.706 178.96H284.052V176.77C284.052 176.397 283.751 176.096 283.379 176.096H280.91V177.443H282.706V178.96Z" fill="white"/>
<path d="M282.706 181.653V183.281H280.91V184.628H283.379C283.751 184.628 284.052 184.327 284.052 183.955V181.653H282.706Z" fill="white"/>
<path d="M291.55 168.983H86.9014V172.343H291.55V168.983Z" fill="#EFE3DF"/>
<path d="M137.364 58.7031C137.364 58.7031 134.934 64.2276 130.421 64.1622C126.777 64.1099 124.399 59.978 123.615 58.3958C123.426 58.0166 123.335 57.7813 123.335 57.7813C123.335 57.7813 123.073 57.742 122.695 57.6374C121.806 57.3955 120.265 56.8006 119.925 55.5388C119.442 53.7409 122.943 53.5055 122.943 53.5055C122.943 53.5055 121.669 51.5965 122.361 50.6289C123.041 49.6743 125.32 50.0274 125.32 50.0274C125.32 50.0274 123.335 47.8568 124.478 46.7127C126.208 44.9867 128.096 47.8634 128.266 48.0399C128.155 47.8176 125.888 43.8164 127.73 43.6791C129.337 43.5549 131.342 45.8497 132.511 47.9157C132.701 48.2426 132.799 48.4322 132.799 48.4322C132.799 48.4322 132.916 48.3864 133.112 48.3145C134.053 47.9876 136.874 47.1834 138.102 48.8963C139.585 50.9688 137.364 58.7031 137.364 58.7031Z" fill="#F49D8B"/>
<path d="M132.022 61.1024C131.904 61.1285 131.78 61.0893 131.695 60.9912C131.565 60.8474 131.578 60.6251 131.721 60.5009C132.492 59.8144 132.884 59.0103 132.884 58.1081C132.884 55.8002 130.382 53.5643 130.356 53.5381C130.212 53.4139 130.199 53.1916 130.324 53.0478C130.454 52.9039 130.67 52.8909 130.813 53.0151C130.924 53.1131 133.576 55.4864 133.576 58.1015C133.576 59.2064 133.106 60.1871 132.178 61.0174C132.139 61.0632 132.08 61.0893 132.022 61.1024Z" fill="#D37363"/>
<path d="M131.218 52.0276C131.113 52.4264 130.865 52.701 130.506 52.8252C130.428 52.8513 130.349 52.871 130.258 52.8775C130.068 52.9036 129.846 52.8906 129.618 52.8579C129.755 53.0082 129.872 53.1652 129.957 53.3221C130.042 53.479 130.101 53.6293 130.114 53.7862C130.134 54.0085 130.088 54.3224 129.748 54.5969C129.023 55.1723 127.697 55.1461 126.652 55.0023C127.266 55.6168 127.75 56.3687 127.808 57.0029C127.848 57.4148 127.71 57.7613 127.41 57.9966C127.208 58.1601 126.901 58.2712 126.541 58.3431C125.647 58.5262 124.425 58.4673 123.615 58.3954C123.426 58.0162 123.334 57.7809 123.334 57.7809C123.334 57.7809 123.073 57.7416 122.688 57.637C122.747 57.6109 122.812 57.5978 122.884 57.6109C124.17 57.7874 126.417 57.8985 126.979 57.454C127.051 57.3951 127.136 57.2971 127.116 57.0617C127.051 56.3556 126.058 55.1919 125.078 54.6623C124.922 54.5773 124.856 54.3943 124.922 54.2308C124.987 54.0608 125.17 53.9758 125.333 54.0216C126.162 54.2504 128.488 54.7015 129.311 54.0478C129.428 53.9497 129.422 53.8843 129.415 53.8451C129.402 53.6751 129.252 53.4724 129.023 53.2436C128.566 52.7925 127.795 52.2825 127.221 51.9753C127.155 51.9426 127.103 51.8903 127.077 51.8249C127.025 51.7268 127.025 51.6091 127.077 51.5045C127.168 51.3346 127.377 51.2692 127.547 51.3607C127.658 51.4196 127.88 51.5438 128.155 51.7138C128.703 51.923 129.239 52.0995 129.663 52.1649C129.918 52.2041 130.127 52.2041 130.277 52.1583C130.369 52.1256 130.48 52.0668 130.539 51.8445C130.617 51.5699 130.571 51.1646 130.441 50.7265C130.401 50.5892 130.454 50.4454 130.565 50.3539L130.571 50.3473C130.761 50.2035 131.041 50.295 131.107 50.5239C131.277 51.073 131.329 51.6026 131.218 52.0276Z" fill="#D37363"/>
<path d="M130.382 45.0781C130.872 45.588 131.29 46.0522 131.662 46.6472C132.021 47.229 132.269 47.5363 132.518 47.9221C132.55 47.8894 132.485 47.9547 132.518 47.9221L133.132 18.7502C133.145 18.3057 132.479 18.2664 132.446 18.7175L130.382 45.0781C130.382 45.0781 130.375 45.0716 130.382 45.0781Z" fill="#414F50"/>
<path d="M132.068 61.8017C129.449 62.6712 129.096 61.4356 129.096 61.4356L129.625 54.682C129.664 54.6558 129.71 54.6231 129.749 54.597C130.089 54.3224 130.134 54.0021 130.115 53.7863C130.102 53.6294 130.043 53.479 129.958 53.3221C129.906 53.224 129.834 53.1194 129.756 53.0214L129.769 52.8775C129.945 52.8906 130.115 52.8972 130.258 52.8775C130.35 52.8645 130.428 52.8514 130.507 52.8252C130.748 52.7468 130.938 52.5964 131.062 52.3872C131.264 52.7206 131.565 52.956 131.957 53.0998C132.061 53.1391 132.166 53.1717 132.283 53.1914L132.068 61.8017Z" fill="#414F50"/>
<path d="M136.619 52.224C136.541 52.2632 135.326 52.8777 134.026 53.1393C133.308 53.2831 132.556 53.3223 131.956 53.1C131.459 52.917 131.113 52.577 130.917 52.0932C130.218 50.3803 131.616 48.7458 132.511 47.9155C132.7 48.2424 132.798 48.432 132.798 48.432C132.798 48.432 132.916 48.3863 133.112 48.3143C132.347 48.9877 130.989 50.4391 131.557 51.8251C131.675 52.1259 131.89 52.322 132.197 52.4397C133.353 52.8712 135.554 51.9755 136.306 51.5963C136.475 51.5113 136.684 51.5767 136.776 51.7467C136.861 51.9232 136.789 52.1324 136.619 52.224Z" fill="#D37363"/>
<path d="M173.005 54.5057V54.4926C173.005 54.4926 173.012 54.4796 173.005 54.4926L172.986 54.5253L172.947 54.6038L172.855 54.7934L172.653 55.2118C172.581 55.3556 172.509 55.4995 172.437 55.6433C172.365 55.7871 172.287 55.9375 172.209 56.0813C171.902 56.6697 171.582 57.2712 171.248 57.8662C170.569 59.0495 169.87 60.2394 169.113 61.39C168.355 62.5407 167.584 63.6783 166.755 64.7766C166.337 65.3193 165.925 65.8685 165.488 66.3915C165.07 66.9341 164.626 67.4441 164.188 67.9671C163.293 68.987 162.379 69.9873 161.425 70.9287C161.197 71.1706 160.948 71.3995 160.707 71.6283C160.465 71.8571 160.23 72.099 159.982 72.3148C159.485 72.7593 158.996 73.217 158.486 73.6354C157.487 74.5115 156.429 75.2895 155.371 76.074C154.293 76.8193 153.209 77.545 152.079 78.1923C151.798 78.3557 151.517 78.5257 151.236 78.6826L150.374 79.1337L149.943 79.3626L149.839 79.4214L149.891 79.3952L149.963 79.3626C150.061 79.3168 150.165 79.2776 150.27 79.2449C150.707 79.0749 151.217 78.9964 151.674 78.9899C151.791 78.9899 151.883 78.9834 151.994 78.9899C152.046 78.9964 152.098 78.9964 152.151 79.003L152.281 79.016C152.366 79.0226 152.458 79.0422 152.536 79.0618C152.601 79.0683 152.667 79.088 152.732 79.1076C152.765 79.1141 152.804 79.1337 152.823 79.1337C152.849 79.1403 152.869 79.1468 152.895 79.1533C152.941 79.1664 152.987 79.1926 153.026 79.2056C153.052 79.2122 153.078 79.2253 153.104 79.2383L153.137 79.2579C153.143 79.2579 153.15 79.2579 153.15 79.2645C153.241 79.3233 153.052 79.2383 152.791 79.0357C152.529 78.833 152.183 78.5257 151.818 78.1596C151.452 77.7935 151.066 77.362 150.675 76.8978C149.891 75.9694 149.094 74.8972 148.31 73.7727C147.526 72.6417 146.756 71.4518 145.998 70.2227C145.234 69.0001 144.489 67.7383 143.758 66.4569C143.026 65.1755 142.301 63.881 141.596 62.5669C141.237 61.9131 140.884 61.2593 140.544 60.599L139.538 58.6965L126.567 64.0509L126.789 64.6916L127.005 65.2866L127.436 66.4634C127.73 67.2414 128.03 68.0129 128.337 68.7778C128.958 70.3076 129.611 71.831 130.303 73.3477C131.002 74.858 131.733 76.3682 132.517 77.8785C132.916 78.6303 133.314 79.3822 133.739 80.134C134.163 80.8859 134.607 81.6377 135.064 82.3896C135.992 83.8933 136.991 85.397 138.167 86.9203C138.755 87.6787 139.388 88.4501 140.094 89.2216C140.806 89.9996 141.589 90.7776 142.536 91.5752C143.49 92.3663 144.6 93.1835 146.103 93.9223L146.383 94.0596C146.481 94.1054 146.586 94.1511 146.69 94.1904C146.899 94.2754 147.102 94.3669 147.311 94.4453C147.526 94.5303 147.768 94.6088 147.997 94.6807L148.343 94.7918C148.46 94.8245 148.591 94.8572 148.722 94.8899C148.976 94.9553 149.238 95.0141 149.492 95.0664C149.767 95.1187 150.048 95.158 150.328 95.1972C150.472 95.2168 150.609 95.2299 150.753 95.2495C150.903 95.2626 151.053 95.2691 151.204 95.2756C151.504 95.2887 151.798 95.3018 152.111 95.2887C153.352 95.2626 154.633 95.0207 155.821 94.6022C156.109 94.4976 156.39 94.38 156.67 94.2557L156.879 94.1642L157.069 94.0792L157.219 94.0008L157.833 93.687L159.054 93.0528C159.459 92.8305 159.851 92.6017 160.25 92.3728C161.85 91.4706 163.372 90.4573 164.867 89.4112C166.337 88.339 167.78 87.221 169.132 86.0181C170.504 84.8413 171.791 83.5729 173.038 82.285L173.952 81.3043C174.259 80.9774 174.547 80.6374 174.841 80.304C175.135 79.9706 175.429 79.6306 175.709 79.2906L176.559 78.2642C178.792 75.4922 180.765 72.5567 182.502 69.497C183.364 67.9606 184.181 66.4046 184.919 64.7897C185.291 63.979 185.65 63.1683 185.99 62.325C186.075 62.1157 186.16 61.9065 186.238 61.6908C186.323 61.4816 186.401 61.2593 186.486 61.0435C186.565 60.8278 186.65 60.599 186.734 60.3701L187.009 59.5529L173.005 54.5057Z" fill="#78B1DE"/>
<path d="M134.098 64.2211C134.007 64.7506 134.366 65.2475 134.888 65.339C135.417 65.4305 135.914 65.071 136.005 64.5479C136.097 64.0184 135.738 63.5215 135.215 63.43C134.686 63.3384 134.19 63.6915 134.098 64.2211Z" fill="#4E88AF"/>
<path d="M149.428 85.3773C149.604 85.423 149.8 85.3446 149.892 85.1746C151.42 82.3568 152.302 78.5583 152.335 78.3948C152.387 78.1726 152.25 77.9503 152.021 77.898C151.799 77.8457 151.577 77.9895 151.525 78.2118C151.518 78.251 150.636 82.0626 149.16 84.7823C149.049 84.985 149.128 85.2334 149.324 85.3446C149.363 85.3576 149.395 85.3707 149.428 85.3773Z" fill="#4E88AF"/>
<path d="M152.739 83.1348C152.798 83.1479 152.863 83.1544 152.928 83.1413C153.15 83.0956 153.294 82.8733 153.248 82.651C153.222 82.5268 152.595 79.6043 152.184 78.6694C152.092 78.4602 151.844 78.3687 151.635 78.4602C151.426 78.5518 151.335 78.8002 151.426 79.0094C151.805 79.8593 152.432 82.7948 152.438 82.8275C152.471 82.9779 152.589 83.0956 152.739 83.1348Z" fill="#4E88AF"/>
<path d="M129.213 71.2622C129.317 71.2883 129.435 71.2752 129.533 71.2164C133.778 68.6209 142.752 65.11 142.844 65.0774C143.059 64.9924 143.164 64.757 143.079 64.5413C142.994 64.3255 142.759 64.2209 142.543 64.3059C142.452 64.3386 133.406 67.8821 129.102 70.5103C128.906 70.628 128.847 70.883 128.965 71.0791C129.017 71.1706 129.108 71.236 129.213 71.2622Z" fill="#4E88AF"/>
<path d="M133.21 69.144C133.302 69.1701 133.4 69.1636 133.491 69.1178C133.7 69.0197 133.785 68.7713 133.687 68.5686L130.892 62.665C130.794 62.4558 130.545 62.3708 130.343 62.4688C130.134 62.5669 130.049 62.8153 130.147 63.018L132.942 68.9217C132.995 69.0328 133.099 69.1113 133.21 69.144Z" fill="#4E88AF"/>
<path d="M217.04 149.965C216.948 150.324 216.85 150.677 216.746 151.024C216.739 151.037 216.739 151.05 216.733 151.063C216.589 151.527 216.426 151.978 216.256 152.403C214.702 156.189 202.749 156.725 190.979 155.385C181.855 154.345 172.842 152.174 168.884 149.52C165.174 147.029 173.129 124.121 173.129 124.121L217.758 133.587C217.765 133.587 218.751 143.12 217.04 149.965Z" fill="#1B3431"/>
<path d="M186.036 190.061H163.888C164.691 177.796 165.932 164.027 167.441 149.566C167.48 149.18 167.519 148.794 167.565 148.408C167.696 147.127 167.839 145.833 167.976 144.538C168.016 144.192 168.048 143.845 168.087 143.499L172.385 145.486L173.437 145.976L190.301 153.789L190.124 155.273L186.036 190.061Z" fill="#1B3431"/>
<path d="M183.39 190.061H182.286L186.819 155.947C186.858 155.646 187.133 155.437 187.433 155.476C187.734 155.515 187.943 155.79 187.903 156.09L183.39 190.061Z" fill="#414F50"/>
<path d="M178.203 136.137C178.151 136.418 177.06 142.021 173.436 145.983C172.704 146.787 171.868 147.52 170.921 148.128C170.176 148.605 169.399 148.978 168.589 149.252C168.217 149.383 167.832 149.488 167.446 149.573C167.485 149.187 167.525 148.801 167.57 148.415C167.753 148.37 167.936 148.317 168.119 148.258C168.896 148.003 169.634 147.657 170.333 147.206C171.091 146.715 171.777 146.134 172.384 145.499C175.996 141.734 177.113 136.006 177.126 135.941C177.178 135.647 177.465 135.451 177.766 135.503C178.06 135.549 178.256 135.837 178.203 136.137Z" fill="#414F50"/>
<path d="M187.198 152.998C187.184 153.24 187.38 153.449 187.629 153.462C187.629 153.462 187.629 153.462 187.635 153.462C187.89 153.475 188.099 153.286 188.112 153.044C188.197 151.39 188.295 149.697 188.406 148.01C188.425 147.709 188.445 147.415 188.465 147.114C188.837 141.59 189.301 136.17 189.653 132.339C189.679 132.031 189.712 131.731 189.738 131.443C189.817 130.606 189.888 129.861 189.947 129.227C189.647 129.181 189.34 129.128 189.046 129.076C188.987 129.704 188.915 130.462 188.837 131.306C188.811 131.593 188.785 131.894 188.752 132.201C188.406 135.993 187.942 141.374 187.57 146.859C187.55 147.16 187.531 147.467 187.505 147.768C187.387 149.527 187.282 151.285 187.198 152.998Z" fill="#414F50"/>
<path d="M185.905 147.167C186.049 147.232 186.689 147.533 187.498 147.781C187.779 147.866 188.086 147.951 188.4 148.01C188.687 148.062 188.975 148.108 189.262 148.121C189.817 148.154 190.346 148.095 190.797 147.886C191.352 147.624 191.711 147.14 191.835 146.493C192.168 144.787 192.88 137.752 193.357 132.777C193.39 132.469 193.416 132.175 193.442 131.881C193.52 131.083 193.586 130.358 193.645 129.743C193.344 129.704 193.037 129.671 192.737 129.625C192.678 130.247 192.613 130.979 192.534 131.783C192.508 132.071 192.475 132.371 192.449 132.679C191.972 137.641 191.261 144.669 190.934 146.317C190.862 146.696 190.686 146.944 190.385 147.088C189.902 147.317 189.177 147.271 188.459 147.108C188.152 147.042 187.845 146.951 187.557 146.859C187.035 146.689 186.578 146.5 186.303 146.362C186.075 146.251 185.8 146.343 185.689 146.559C185.585 146.787 185.683 147.055 185.905 147.167Z" fill="#414F50"/>
<path d="M216.746 151.004C216.746 151.011 216.746 151.011 216.746 151.017C216.746 151.03 216.746 151.043 216.74 151.056C216.707 151.409 216.674 151.776 216.635 152.142C215.642 162.596 214.114 178.319 212.795 190.061H190.908L190.986 148.114C190.986 148.114 197.087 145.212 203.631 142.995C203.984 142.878 204.343 142.76 204.696 142.642C205.368 142.426 206.048 142.211 206.72 142.015C207.08 141.91 207.439 141.812 207.791 141.714C211.828 140.615 215.57 140.073 217.667 140.955C217.667 140.955 217.34 144.512 216.831 149.958C216.811 150.305 216.779 150.651 216.746 151.004Z" fill="#1B3431"/>
<path d="M209.659 190.061C210.92 175.75 212.468 154.077 212.487 153.796C212.507 153.495 212.768 153.266 213.075 153.286C213.376 153.305 213.604 153.567 213.585 153.874C213.565 154.149 212.024 175.724 210.763 190.061H209.659Z" fill="#414F50"/>
<path d="M216.746 151.004C216.746 151.011 216.746 151.011 216.746 151.017C216.746 151.03 216.746 151.043 216.74 151.056C216.707 151.409 216.674 151.776 216.635 152.142C215.081 152.403 213.559 152.266 212.089 151.723C209.287 150.703 207.086 148.402 205.492 146.107C204.735 145.022 204.121 143.937 203.638 142.995C202.821 141.394 202.384 140.197 202.338 140.066C202.24 139.779 202.39 139.465 202.671 139.367C202.958 139.262 203.272 139.413 203.37 139.7C203.383 139.733 203.833 140.982 204.702 142.642C205.159 143.525 205.741 144.519 206.433 145.512C207.922 147.65 209.94 149.775 212.461 150.697C213.84 151.2 215.277 151.305 216.746 151.004Z" fill="#414F50"/>
<path d="M224.44 100.878C224.361 102.042 224.263 103.212 224.146 104.376C223.545 110.228 221.304 129.795 219.286 135.274C211.854 138.883 203.519 140.19 195.584 139.844C194.068 139.779 192.573 139.648 191.097 139.471C189.79 139.308 188.504 139.105 187.237 138.857C178.981 137.262 171.757 133.934 167.283 129.73C169.399 121.518 171.875 106.632 172.802 100.244C172.979 99.0544 173.129 97.8972 173.266 96.7597C173.403 95.6548 173.521 94.5826 173.632 93.53C173.749 92.3335 173.86 91.1698 173.945 90.0388C174.037 88.8227 174.109 87.6525 174.167 86.5149C174.226 85.3054 174.265 84.1351 174.291 83.0041C174.618 67.6271 171.809 60.0366 172.554 56.3558C173.671 50.8118 178.792 50.8902 183.461 49.1446C183.736 49.0465 184.004 48.9354 184.271 48.8177C184.454 48.7393 184.631 48.6543 184.807 48.5758C186.407 47.8109 187.896 46.7321 189.078 45.0127L202.781 45.0388C202.781 45.0388 203.898 45.9541 205.884 46.9675C206.067 47.0656 206.263 47.1571 206.465 47.2552C206.955 47.4905 207.497 47.7194 208.085 47.9482C209.509 48.4908 211.22 48.9942 213.238 49.3146C219.378 50.3083 222.905 56.8462 223.551 67.4505C223.878 72.805 224.224 77.8522 224.453 82.7229C224.466 83.0433 224.485 83.3702 224.498 83.6905C224.753 89.6138 224.825 95.2625 224.44 100.878Z" fill="white"/>
<path d="M186.57 108.665L188.915 114.359L189.967 116.922L192.945 124.16L194.395 121.368L194.904 120.381L196.067 118.145L196.583 117.158L197.746 114.922L198.255 113.934L199.418 111.698L199.934 110.711L201.024 108.613L201.005 108.384L200.835 106.71L200.456 102.931L200.293 101.258L199.914 97.4722L199.744 95.805L199.372 92.0196L199.202 90.3525L198.823 86.5671L198.66 84.8934L198.281 81.1145L198.118 79.4408L197.739 75.662L197.569 73.9883L197.197 70.2029L197.027 68.5357L196.648 64.7503L196.485 63.0832L196.302 61.2591L196.093 59.1735L193.206 59.0493L193.121 59.7031L192.945 61.0237L192.886 61.4291L192.54 64.0246L192.364 65.3518L191.959 68.3527L191.782 69.6798L191.384 72.6807L191.208 74.0013L190.803 77.0022L190.626 78.3294L190.228 81.3303L190.045 82.6509L189.647 85.6518L189.47 86.9789L189.065 89.9798L188.889 91.307L188.491 94.3079L188.314 95.6285L187.909 98.6294L187.733 99.9565L187.335 102.957L187.158 104.285L186.753 107.285L186.577 108.606L186.57 108.665Z" fill="#E2534D"/>
<path d="M192.887 61.4291L194.598 64.4757L196.303 61.2591L196.094 59.1735L193.207 59.0493L193.122 59.7031L192.946 61.0237L192.887 61.4291Z" fill="#BA4131"/>
<path d="M224.44 100.879C224.361 102.042 224.263 103.213 224.146 104.376C223.545 110.228 221.305 129.795 219.286 135.274C211.854 138.883 203.52 140.191 195.584 139.844L191.41 133.241L187.237 138.857C178.981 137.262 171.757 133.934 167.283 129.73C168.048 126.755 168.864 122.905 169.635 118.897C169.818 117.936 170 116.962 170.183 115.994C171.313 109.855 172.293 103.762 172.802 100.244C172.979 99.0545 173.129 97.8973 173.266 96.7597C173.403 95.6548 173.521 94.5826 173.632 93.53C173.749 92.3336 173.86 91.1699 173.945 90.0388C174.037 88.8228 174.109 87.6525 174.167 86.5149C174.226 85.3054 174.265 84.1352 174.292 83.0041C174.618 67.6271 171.81 60.0367 172.554 56.3559C173.671 50.8118 178.792 50.8903 183.462 49.1447C183.54 49.1839 183.618 49.2231 183.697 49.2623L193.879 94.3603L207.837 48.0071C207.837 48.0071 207.928 47.9875 208.092 47.9482C209.515 48.4909 211.227 48.9943 213.245 49.3147C219.384 50.3084 222.911 56.8462 223.558 67.4506C223.885 72.8051 224.231 77.8523 224.459 82.723C224.472 83.0434 224.492 83.3702 224.505 83.6906C224.753 89.6139 224.825 95.2626 224.44 100.879Z" fill="#78B1DE"/>
<path d="M215.786 137.438C215.982 137.438 216.171 137.314 216.243 137.118C222.944 119.263 222.84 85.2595 222.84 84.9195C222.84 84.6515 222.618 84.4292 222.35 84.4292C222.082 84.4292 221.86 84.6515 221.86 84.9195C221.86 85.2595 221.971 119.08 215.329 136.771C215.231 137.026 215.361 137.307 215.616 137.405C215.675 137.431 215.727 137.438 215.786 137.438Z" fill="#4E88AF"/>
<path d="M181.744 115.262C177.871 116.838 172.94 118.125 169.635 118.897C169.818 117.936 170.001 116.962 170.184 115.994C175.245 114.752 181.117 112.889 181.117 112.889L181.744 115.262Z" fill="#4E88AF"/>
<path d="M202.397 114.797C202.397 114.797 212.37 120.793 216.936 122.505L215.544 124.938C215.544 124.938 206.871 120.995 201.234 116.961L202.397 114.797Z" fill="#4E88AF"/>
<path d="M183.683 49.2625C183.683 49.2625 180.13 47.4123 177.518 50.982L179.804 65.7575L184.964 68.8303L181.463 70.9224L185.375 88.1038L193.859 94.3671L183.683 49.2625Z" fill="#4E88AF"/>
<path d="M205.818 47.9483C205.818 47.9483 209.58 45.5555 212.187 49.1317L208.967 65.8162L203.794 68.8694L207.288 70.9746L203.304 88.1364L193.859 94.367L205.818 47.9483Z" fill="#4E88AF"/>
<path d="M190.973 128.664C191.018 129.233 191.521 129.658 192.09 129.612C192.658 129.567 193.082 129.063 193.037 128.494C192.991 127.926 192.488 127.501 191.92 127.546C191.352 127.599 190.927 128.096 190.973 128.664Z" fill="#4E88AF"/>
<path d="M191.41 121.002C191.456 121.571 191.959 121.995 192.527 121.95C193.095 121.904 193.52 121.401 193.474 120.832C193.428 120.263 192.926 119.838 192.357 119.884C191.789 119.93 191.364 120.433 191.41 121.002Z" fill="#4E88AF"/>
<path d="M191.848 113.333C191.893 113.902 192.396 114.327 192.965 114.281C193.533 114.235 193.957 113.732 193.912 113.163C193.866 112.594 193.363 112.169 192.795 112.215C192.227 112.267 191.802 112.764 191.848 113.333Z" fill="#4E88AF"/>
<path d="M192.285 105.671C192.331 106.239 192.834 106.664 193.402 106.619C193.97 106.573 194.395 106.069 194.349 105.501C194.303 104.932 193.801 104.507 193.232 104.553C192.664 104.598 192.24 105.102 192.285 105.671Z" fill="#4E88AF"/>
<path d="M192.73 98.0017C192.775 98.5705 193.278 98.9955 193.846 98.9497C194.415 98.9039 194.839 98.4005 194.794 97.8317C194.748 97.2629 194.245 96.838 193.677 96.8837C193.102 96.936 192.677 97.4329 192.73 98.0017Z" fill="#4E88AF"/>
<path d="M174.664 83.5532C174.389 83.8082 173.939 83.6121 173.939 83.2329C173.939 79.8528 173.814 76.2243 173.566 72.4062C173.553 72.2297 173.547 72.0924 173.54 71.9943C173.527 71.7524 173.71 71.5432 173.952 71.5236C174.2 71.5105 174.402 71.6936 174.422 71.9355C174.428 72.0336 174.435 72.1709 174.448 72.3474C174.696 76.1785 174.82 79.8267 174.82 83.2198C174.82 83.344 174.768 83.4617 174.677 83.5402C174.67 83.5467 174.664 83.5532 174.664 83.5532Z" fill="#4E88AF"/>
<path d="M204.212 29.139C204.212 29.139 207.347 26.8965 208.085 23.3726C208.738 20.2672 206.125 20.2672 206.125 20.2672C206.125 20.2672 208.261 16.8936 206.981 14.3766C205.381 11.2188 202.174 11.8268 202.174 11.8268C202.174 11.8268 203.036 6.8123 195.061 7.21765C187.086 7.623 182.338 7.93027 181.045 11.3757C179.751 14.8277 183.004 15.8345 183.004 15.8345C183.004 15.8345 179.784 17.7959 181.358 19.8357C182.932 21.8755 184.898 21.274 184.898 21.274L204.212 29.139Z" fill="#1B3431"/>
<path d="M188.111 27.7532C188.111 27.7532 187.125 24.0266 184.101 24.7261C181.077 25.4191 180.496 35.3567 186.191 35.3174L188.111 27.7532Z" fill="#D37363"/>
<path d="M202.435 46.1047C202.435 46.1047 203.147 47.36 197.596 48.8964C194.669 49.7071 191.123 48.9356 189.359 47.8961C188.641 47.4711 188.23 47.1508 188.23 47.1508C189.131 42.9339 188.406 40.201 188.197 39.5473C188.164 39.4492 188.145 39.3969 188.145 39.3969L202.599 32.1987L202.435 46.1047Z" fill="#F49D8B"/>
<path d="M200.548 37.8804C200.548 37.8804 197.067 47.4452 189.353 47.8963C188.635 47.4714 188.223 47.151 188.223 47.151C189.124 42.9341 188.399 40.2013 188.19 39.5475L200.548 37.8804Z" fill="#1B3431"/>
<path d="M194.937 42.8684C188.974 43.9667 184.258 41.3581 183.742 36.2455C183.618 35.0099 183.566 33.2316 183.566 31.3683C183.566 31.3487 183.566 31.3291 183.566 31.3095C183.566 30.9172 183.566 30.5184 183.566 30.1196C183.566 29.8319 183.572 29.5443 183.572 29.2566C183.611 25.9419 183.736 22.9411 183.736 22.9411C184.676 14.723 192.847 11.7352 199.333 14.9322C205.818 18.1227 203.206 28.1125 203.14 33.0028C203.069 37.8996 200.051 41.9269 194.937 42.8684Z" fill="#F49D8B"/>
<path d="M193.761 33.1074C193.761 33.1074 192.918 35.8337 190.691 36.2783C188.157 36.7817 187.582 33.6043 187.582 33.6043L193.761 33.1074Z" fill="white"/>
<path d="M195.361 25.0069C197.046 25.3665 197.523 23.5621 196.001 22.6206C195.309 22.1891 194.545 21.823 193.761 21.8165C191.54 21.8034 191.469 23.3725 192.585 24.0067C193.121 24.3139 194.395 24.8043 195.361 25.0069Z" fill="#1B3431"/>
<path d="M185.787 24.1117C184.069 24.262 183.814 22.4118 185.441 21.66C186.179 21.32 186.982 21.0454 187.759 21.1369C189.967 21.3919 189.843 22.9545 188.661 23.4513C188.092 23.6932 186.773 24.0201 185.787 24.1117Z" fill="#1B3431"/>
<path d="M184.238 31.4597C184.003 31.4401 183.781 31.4139 183.565 31.3747C183.565 31.3551 183.565 31.3355 183.565 31.3159C183.565 30.9236 183.565 30.5248 183.565 30.126C183.565 29.8383 183.572 29.5506 183.572 29.263C183.833 29.2499 184.114 29.2499 184.401 29.2761C185.897 29.3872 187.073 29.9691 187.027 30.5771C186.981 31.1786 185.734 31.5774 184.238 31.4597Z" fill="#D37363"/>
<path d="M184.794 31.0024C186.799 31.3946 188.752 30.0871 189.143 28.08C189.535 26.0728 188.229 24.118 186.224 23.7258C184.219 23.3335 182.266 24.6411 181.874 26.6482C181.476 28.6553 182.788 30.6036 184.794 31.0024ZM186.119 24.2553C187.831 24.5888 188.948 26.2559 188.614 27.9688C188.281 29.6817 186.616 30.7997 184.905 30.4663C183.193 30.1328 182.076 28.4657 182.41 26.7528C182.743 25.0399 184.408 23.9219 186.119 24.2553Z" fill="white"/>
<path d="M189.255 31.9765C189.209 31.9699 189.164 31.9568 189.124 31.9307C187.779 31.0023 187.524 30.5185 187.485 30.427C187.452 30.342 187.459 30.2505 187.511 30.172L189.457 27.2431C189.464 27.2365 189.471 27.2234 189.477 27.2169C189.895 26.7266 189.973 25.7067 190.026 24.5233C190.032 24.3729 190.156 24.2618 190.307 24.2683C190.457 24.2749 190.568 24.3991 190.561 24.5495C190.502 25.8243 190.411 26.9292 189.895 27.5503L188.053 30.3224C188.19 30.4989 188.556 30.8912 189.431 31.4927C189.555 31.5776 189.582 31.7411 189.497 31.8653C189.438 31.9372 189.346 31.983 189.255 31.9765Z" fill="#1B3431"/>
<path d="M199.868 30.3484C199.822 30.9499 198.575 31.3487 197.072 31.2376C195.577 31.1264 194.401 30.5446 194.447 29.9365C194.492 29.3351 195.74 28.9363 197.242 29.0474C198.738 29.1585 199.914 29.7404 199.868 30.3484Z" fill="#D37363"/>
<path d="M193.618 31.2441C195.623 31.6363 197.576 30.3288 197.968 28.3217C198.36 26.3145 197.053 24.3597 195.048 23.9675C193.043 23.5752 191.09 24.8828 190.698 26.8899C190.3 28.897 191.613 30.8518 193.618 31.2441ZM194.944 24.497C196.655 24.8305 197.772 26.4976 197.439 28.2105C197.106 29.9234 195.44 31.0414 193.729 30.708C192.018 30.3745 190.901 28.7074 191.234 26.9945C191.567 25.2816 193.232 24.1636 194.944 24.497Z" fill="white"/>
<path d="M188.909 27.6417C189.066 27.6679 189.203 27.5698 189.229 27.4195C189.235 27.3933 189.359 26.7199 189.869 26.7461C190.437 26.7722 190.653 27.4064 190.653 27.4129C190.698 27.5568 190.855 27.6352 190.992 27.5894C191.136 27.5437 191.214 27.3868 191.169 27.2495C191.156 27.2102 190.836 26.2557 189.895 26.21C189.105 26.1707 188.759 26.9291 188.687 27.3345C188.667 27.4718 188.759 27.6091 188.909 27.6417Z" fill="white"/>
<path d="M197.641 27.1577C197.752 27.1773 197.87 27.1315 197.929 27.0204C199.398 24.3791 202.135 25.6801 202.246 25.7324C202.383 25.7978 202.546 25.7455 202.612 25.6082C202.677 25.4709 202.625 25.3075 202.488 25.2421C202.455 25.229 199.176 23.6534 197.452 26.7523C197.38 26.8831 197.426 27.0465 197.556 27.125C197.583 27.1381 197.609 27.1511 197.641 27.1577Z" fill="white"/>
<path d="M183.729 23.5102C183.547 21.8038 183.396 18.6329 186.146 15.4621C190.261 10.7287 198.654 10.9902 202.004 15.8086C205.355 20.627 203.709 24.8112 203.709 24.8112C203.709 24.8112 202.357 25.3015 201.704 27.9428L199.921 27.8709C199.921 27.8709 199.248 25.6611 199.953 22.0588C200.659 18.4564 194.304 14.8475 189.993 15.6648C185.676 16.482 184.304 20.4047 184.304 20.4047C184.304 20.4047 183.821 21.843 183.729 23.5102Z" fill="#1B3431"/>
<path d="M197.647 17.7371C197.647 17.7371 194.643 16.5603 193.193 17.1291C191.743 17.7044 189.64 18.4498 188.053 17.3056C186.472 16.1615 184.65 19.5481 184.65 19.5481C184.65 19.5481 186.662 13.5202 191.632 14.7755C196.609 16.0373 196.589 15.5666 197.647 17.7371Z" fill="#1B3431"/>
<path d="M189.933 37.4156C189.822 37.3829 189.75 37.3568 189.737 37.3502C189.6 37.2914 189.535 37.1345 189.594 37.0037C189.652 36.8664 189.803 36.801 189.94 36.8599C189.979 36.873 190.874 37.226 191.618 36.5918C191.729 36.4938 191.899 36.5068 191.997 36.6245C192.095 36.7357 192.082 36.9057 191.964 37.0037C191.194 37.651 190.319 37.5202 189.933 37.4156Z" fill="#D37363"/>
<path d="M202.004 26.2821C202.004 26.2821 203.728 23.5493 206.524 24.9092C209.313 26.2691 207.634 36.0824 202.095 34.7552L202.004 26.2821Z" fill="#F49D8B"/>
<path d="M203.232 31.2769C203.212 31.2769 203.193 31.2704 203.173 31.2639C203.029 31.2246 202.951 31.0743 202.997 30.9304C203.036 30.8128 203.911 27.9753 206.504 27.5831C206.648 27.5634 206.785 27.6615 206.811 27.8053C206.831 27.9492 206.733 28.0865 206.589 28.1126C204.329 28.4591 203.519 31.0612 203.513 31.0873C203.473 31.2116 203.356 31.29 203.232 31.2769Z" fill="#1B3431"/>
<path d="M205.636 30.4073C205.57 30.4008 205.505 30.3746 205.459 30.3158C205.453 30.3093 204.956 29.747 204.356 29.1782C204.251 29.0802 204.245 28.9102 204.343 28.799C204.44 28.6944 204.61 28.6879 204.721 28.786C205.335 29.3678 205.838 29.9301 205.858 29.9562C205.956 30.0674 205.943 30.2373 205.832 30.3354C205.779 30.3943 205.708 30.4139 205.636 30.4073Z" fill="#1B3431"/>
<path d="M194.67 27.5437C194.663 28.1386 194.382 28.6159 194.043 28.6093C193.703 28.6028 193.435 28.119 193.442 27.5306C193.448 26.9356 193.729 26.4584 194.069 26.4649C194.409 26.4649 194.676 26.9487 194.67 27.5437Z" fill="#1B3431"/>
<path d="M187.753 27.5637C187.746 28.1586 187.465 28.6359 187.126 28.6294C186.786 28.6228 186.518 28.139 186.525 27.5506C186.531 26.9557 186.812 26.4784 187.152 26.4849C187.492 26.4849 187.759 26.9687 187.753 27.5637Z" fill="#1B3431"/>
<path d="M202.644 42.6592C202.644 42.6592 204.708 43.2868 205.818 47.9483C204.381 52.1913 200.339 55.7479 194.656 56.794L194.669 48.4517C194.676 48.4517 199.685 47.2095 202.644 42.6592Z" fill="white"/>
<path d="M188.517 43.8359C188.517 43.8359 185.107 44.6074 183.683 49.2623C187.341 53.7342 189.294 55.4144 194.663 56.7939L194.676 48.4516C194.676 48.4516 191.456 48.3993 188.517 43.8359Z" fill="white"/>
<path d="M198.516 55.5844L194.649 61.305L190.972 55.5648L194.669 50.7856L198.516 55.5844Z" fill="#E2534D"/>
<path d="M186.89 61.4292C186.799 61.4292 186.701 61.3965 186.622 61.3377C186.426 61.1873 186.394 60.9127 186.537 60.7166L194.323 50.511C194.401 50.4064 194.525 50.341 194.662 50.3345C194.793 50.3345 194.924 50.3868 195.009 50.4848L202.696 59.324C202.859 59.5071 202.84 59.7882 202.65 59.9451C202.468 60.1085 202.187 60.0889 202.03 59.8993L194.695 51.4851L187.243 61.2592C187.151 61.3703 187.021 61.4357 186.89 61.4292Z" fill="#E9CEC2"/>
<path d="M194.669 51.2301C194.421 51.2301 194.225 51.0274 194.231 50.7855L194.251 48.8438C194.251 48.6019 194.454 48.4058 194.695 48.4058C194.937 48.4058 195.133 48.6084 195.133 48.8503L195.113 50.7921C195.113 51.034 194.911 51.2301 194.669 51.2301Z" fill="#E9CEC2"/>
<path d="M217.275 133.045C216.308 132.777 214.891 133.79 213.61 134.13C211.919 134.574 209.528 135.771 208.353 136.797C207.641 137.418 204.088 141.478 202.487 143.244C202.122 143.649 202.122 144.296 202.527 144.662C203.049 145.14 204.153 145.127 206.282 143.165C206.38 143.087 207.033 142.518 207.099 142.459C208.052 141.694 208.986 141.524 208.986 141.524C208.986 141.524 207.804 142.59 205.779 144.519C207.987 148.363 211.586 152.03 216.373 151.069C217.183 149.919 218.032 147.931 218.261 147.519C219.169 145.872 221.977 141.642 222.781 139.321C223.323 137.745 220.338 133.888 217.275 133.045Z" fill="#F49D8B"/>
<path d="M219.241 52.8188L219.678 53.1719L220.025 53.4596L220.671 54.0087C221.089 54.3683 221.494 54.7279 221.893 55.0875C222.683 55.8132 223.447 56.5454 224.198 57.2842C225.694 58.7617 227.124 60.2851 228.509 61.8476C231.259 64.9858 233.806 68.3004 236.105 71.8178C238.417 75.3286 240.468 79.0421 242.231 82.9256C243.1 84.8738 243.897 86.8613 244.602 88.8946C244.962 89.908 245.282 90.9344 245.595 91.9674C245.745 92.4839 245.896 93.0004 246.039 93.5234L246.144 93.9157L246.196 94.1118L246.3 94.5172C246.47 95.2102 246.568 95.8509 246.621 96.4262C246.673 97.0081 246.692 97.5376 246.692 98.028C246.686 98.5248 246.66 98.976 246.627 99.4075C246.549 100.264 246.425 101.022 246.287 101.728C246 103.134 245.641 104.337 245.262 105.468C244.883 106.599 244.472 107.652 244.047 108.665C243.623 109.678 243.185 110.646 242.728 111.601C241.82 113.496 240.873 115.294 239.9 117.053C238.927 118.812 237.921 120.518 236.895 122.198C234.851 125.559 232.709 128.808 230.521 132.005C229.417 133.6 228.3 135.176 227.17 136.745C226.602 137.53 226.034 138.314 225.459 139.092L224.584 140.256L223.676 141.446L211.873 133.123L212.579 131.992L213.297 130.822L214.741 128.475C215.694 126.906 216.635 125.323 217.556 123.735C219.411 120.57 221.2 117.38 222.892 114.196C223.734 112.601 224.544 111.006 225.315 109.423C226.086 107.841 226.804 106.259 227.444 104.716C228.078 103.173 228.646 101.656 229.025 100.316C229.214 99.6559 229.351 99.0348 229.41 98.5837C229.443 98.3614 229.449 98.1849 229.443 98.1064C229.443 98.0672 229.436 98.0476 229.43 98.0737C229.423 98.0868 229.417 98.1522 229.423 98.2633C229.43 98.3679 229.449 98.5445 229.502 98.7798L229.521 98.8713L229.528 98.891C229.528 98.8975 229.528 98.8844 229.521 98.8779L229.508 98.8452L229.463 98.7014L229.371 98.4137C229.254 98.028 229.116 97.6488 228.986 97.2696C228.718 96.5112 228.437 95.7528 228.137 95.0009C227.536 93.4972 226.856 92.0132 226.125 90.5487C224.662 87.6197 222.931 84.7889 221.017 82.0495C220.057 80.6831 219.045 79.3494 217.993 78.0418C216.942 76.7342 215.845 75.4528 214.708 74.2172C213.578 72.975 212.409 71.759 211.214 70.6083C210.613 70.033 210.012 69.4707 209.405 68.9281C209.104 68.6535 208.804 68.392 208.51 68.137L208.079 67.7709L207.765 67.5159L219.241 52.8188Z" fill="#78B1DE"/>
<path d="M229.828 98.8647C229.626 98.8647 229.443 98.7274 229.397 98.5182C229.345 98.2829 229.495 98.041 229.73 97.9887C229.887 97.956 233.545 97.1322 236.595 97.008C236.837 97.0014 237.046 97.1845 237.052 97.4329C237.065 97.6748 236.876 97.884 236.628 97.8906C233.656 98.0148 229.959 98.8451 229.92 98.8516C229.894 98.8582 229.861 98.8647 229.828 98.8647Z" fill="#4E88AF"/>
<path d="M230.089 98.8125C229.959 98.8125 229.828 98.7537 229.737 98.636C229.587 98.4399 229.626 98.1653 229.822 98.0149C231.304 96.8839 233.388 95.6155 233.479 95.5632C233.688 95.439 233.956 95.5044 234.087 95.7136C234.211 95.9228 234.146 96.1909 233.937 96.3216C233.917 96.3347 231.807 97.6161 230.357 98.721C230.272 98.7798 230.181 98.8125 230.089 98.8125Z" fill="#4E88AF"/>
<path d="M224.446 88.62C224.302 88.62 224.158 88.5481 224.073 88.4173C223.995 88.2931 216.131 76.087 211.043 71.6935C210.86 71.5366 210.841 71.2555 210.997 71.0724C211.154 70.8894 211.435 70.8698 211.618 71.0267C216.804 75.5051 224.485 87.4366 224.811 87.9401C224.942 88.1427 224.883 88.4173 224.681 88.5481C224.609 88.5939 224.524 88.62 224.446 88.62Z" fill="#4E88AF"/>
<path d="M214.034 74.4984C214.014 74.4984 213.988 74.4984 213.969 74.4919L210.18 73.91C209.939 73.8708 209.775 73.6485 209.808 73.4066C209.847 73.1647 210.069 73.0013 210.311 73.0339L214.099 73.6158C214.341 73.655 214.504 73.8773 214.471 74.1192C214.432 74.3415 214.243 74.4984 214.034 74.4984Z" fill="#4E88AF"/>
<path d="M227.627 135.863C227.542 135.863 227.457 135.836 227.379 135.784L215.687 127.716C215.485 127.579 215.439 127.305 215.576 127.102C215.714 126.899 215.988 126.853 216.19 126.991L227.882 135.058C228.084 135.196 228.13 135.47 227.993 135.673C227.901 135.797 227.764 135.863 227.627 135.863Z" fill="#4E88AF"/>
<path d="M220.579 139.19C220.494 139.19 220.409 139.164 220.337 139.118C220.135 138.981 220.076 138.707 220.213 138.504L223.825 133.064C223.962 132.862 224.237 132.803 224.439 132.94C224.642 133.078 224.7 133.352 224.563 133.555L220.951 138.994C220.86 139.118 220.723 139.19 220.579 139.19Z" fill="#4E88AF"/>
<path d="M218.633 134.646C218.894 135.156 219.515 135.352 220.024 135.091C220.534 134.829 220.73 134.208 220.468 133.698C220.207 133.188 219.587 132.992 219.077 133.254C218.574 133.515 218.372 134.143 218.633 134.646Z" fill="#4E88AF"/>
</g>
<defs>
<clipPath id="clip0">
<rect width="367" height="249" fill="white" transform="translate(0.353516)"/>
</clipPath>
</defs>
</svg>
