<svg width="304" height="8" viewBox="0 0 304 8" fill="none" xmlns="http://www.w3.org/2000/svg">
<path d="M303.354 4.26127C303.549 4.06601 303.549 3.74942 303.354 3.55416L300.172 0.372181C299.976 0.176919 299.66 0.176919 299.464 0.372181C299.269 0.567443 299.269 0.884026 299.464 1.07929L302.293 3.90771L299.464 6.73614C299.269 6.9314 299.269 7.24799 299.464 7.44325C299.66 7.63851 299.976 7.63851 300.172 7.44325L303.354 4.26127ZM3 4.40771H303V3.40771H3V4.40771Z" fill="white"/>
<path d="M0.646447 3.55416C0.451184 3.74942 0.451184 4.06601 0.646447 4.26127L3.82843 7.44325C4.02369 7.63851 4.34027 7.63851 4.53553 7.44325C4.7308 7.24799 4.7308 6.9314 4.53553 6.73614L1.70711 3.90771L4.53553 1.07929C4.7308 0.884026 4.7308 0.567443 4.53553 0.372181C4.34027 0.176919 4.02369 0.176919 3.82843 0.372181L0.646447 3.55416ZM301 3.40771L1 3.40771V4.40771L301 4.40771V3.40771Z" fill="white"/>
</svg>
