<?xml version="1.0" encoding="utf-8"?>
<!-- Generator: Adobe Illustrator 25.2.1, SVG Export Plug-In . SVG Version: 6.00 Build 0)  -->
<svg version="1.1" id="Режим_изоляции"
	 xmlns="http://www.w3.org/2000/svg" xmlns:xlink="http://www.w3.org/1999/xlink" x="0px" y="0px" viewBox="0 0 2000 2000"
	 style="enable-background:new 0 0 2000 2000;" xml:space="preserve">
<style type="text/css">
	.st0{fill:#E5E5FF;}
	.st1{opacity:0.4;fill:#E5E5FF;}
	.st2{fill:#CBCBFF;}
	.st3{fill:#9192FF;}
	.st4{fill:#B7B7FF;}
	.st5{fill:#FFFFFF;}
	.st6{fill:#E0E0FF;}
	.st7{opacity:0.6;fill:#B7B7FF;}
	.st8{fill:#5254CF;}
	.st9{opacity:0.6;fill:#1B1B43;}
	.st10{clip-path:url(#SVGID_1_);}
	.st11{fill:#FFBC96;}
	.st12{fill:#1B1B43;}
	.st13{fill:#D28572;}
	.st14{fill:#656590;}
	.st15{fill:#FFB147;}
	.st16{opacity:0.2;fill:#1B1B43;}
	.st17{fill:#FFF5E8;}
	.st18{opacity:0.4;fill:#FE5B52;}
</style>
<g>
	<g>
		<path class="st0" d="M1628.6,1549.4l-2.1-1.3c121.1-197,184.3-375,187.6-529.1c3.5-159.3-58.3-256.7-110.7-310.4
			c-50.4-51.5-116.3-87.4-185.6-101c-65-12.7-128.6-4.6-174.6,22.2l-1.3-2.2c46.4-27.1,110.7-35.3,176.3-22.4
			c69.8,13.7,136.2,49.8,186.9,101.7c52.8,54,114.9,152,111.4,312.2C1813.2,1173.6,1749.9,1352,1628.6,1549.4z"/>
		<path class="st1" d="M1725.7,851.3c-56.6-122.6-166.5-218.4-303.2-235c-109.1-13.3-218.7-15.1-328.3-21.7
			c-115.6-7.1-228.8-28.5-343-47.3c-73.3-12.1-137.6,5.8-208.7,31.5c-97.1,35.2-191,149-233.3,240c-102,219.3-45.7,495.1,44.2,708.7
			c4.4,10.5,34.8,93.8,43.9,93.8c0,0,1189.3,0,1189.3,0c71.7-105.2,130.5-220.9,163.2-340.4
			C1788.5,1138.8,1788.1,986.6,1725.7,851.3z"/>
		<path class="st0" d="M278.8,1291.6c-46.7-145.6-67.3-272.2-61.1-376.3c5.1-86.6,28.7-158.5,70.1-213.8
			c94.8-126.6,253.2-124.1,254.8-124l-0.1,2.5c-1.5,0-158.7-2.5-252.7,123.1c-41.1,54.8-64.5,126.3-69.6,212.4
			c-6.1,103.8,14.4,230.1,61,375.4L278.8,1291.6z"/>
	</g>
	<g>
		<g>
			<path class="st0" d="M1421.7,1308.7H568.3c-17,0-30.8-13.8-30.8-30.8V447.7c0-17,13.8-30.8,30.8-30.8h853.4
				c17,0,30.8,13.8,30.8,30.8v830.1C1452.5,1294.9,1438.7,1308.7,1421.7,1308.7z"/>
			<path class="st2" d="M1421.7,1309.9H568.3c-17.7,0-32.1-14.4-32.1-32.1V447.7c0-17.7,14.4-32.1,32.1-32.1h853.4
				c17.7,0,32.1,14.4,32.1,32.1v830.1C1453.8,1295.5,1439.4,1309.9,1421.7,1309.9z M568.3,418.2c-16.3,0-29.6,13.3-29.6,29.6v830.1
				c0,16.3,13.3,29.6,29.6,29.6h853.4c16.3,0,29.6-13.3,29.6-29.6V447.7c0-16.3-13.3-29.6-29.6-29.6H568.3z"/>
		</g>
		<g>
			<rect x="1152.5" y="520.8" class="st3" width="195" height="14.2"/>
			<rect x="1091.2" y="582.1" class="st4" width="310.7" height="14.2"/>
			<rect x="1091.2" y="624.2" class="st4" width="279.8" height="14.2"/>
			<rect x="1091.2" y="666.2" class="st2" width="247.7" height="14.2"/>
			<rect x="1091.2" y="708.3" class="st2" width="310.7" height="14.2"/>
			<rect x="1091.2" y="750.4" class="st2" width="229.3" height="14.2"/>
		</g>
		<g>
			<rect x="603.5" y="981.2" class="st4" width="298.2" height="14.2"/>
			<rect x="604.3" y="1020" class="st2" width="771" height="14.2"/>
		</g>
		<g>
			<rect x="603.9" y="520.8" class="st5" width="359.1" height="380"/>
			<g>
				<rect x="636.4" y="771.9" class="st4" width="25" height="87.4"/>
				<rect x="681.3" y="784.2" class="st6" width="25" height="75.1"/>
				<rect x="726.1" y="736.6" class="st4" width="25" height="122.7"/>
				<rect x="771" y="745.4" class="st6" width="25" height="113.9"/>
				<rect x="815.9" y="706" class="st4" width="25" height="153.2"/>
				<rect x="860.7" y="684.8" class="st6" width="25" height="174.5"/>
				<rect x="905.6" y="665.9" class="st4" width="25" height="193.4"/>
				<polygon class="st4" points="689.4,724 642.2,705.1 643.1,702.8 688.9,721.2 735.6,682.5 779.2,683.5 910.4,602.5 911.7,604.6 
					779.8,686 736.5,685 				"/>
			</g>
			<g>
				<rect x="631.9" y="596.1" class="st4" width="51.2" height="21.3"/>
				<rect x="700" y="608.3" class="st4" width="47.9" height="2.5"/>
			</g>
		</g>
		<g>
			<circle class="st5" cx="1314.1" cy="870.9" r="55.9"/>
			<g>
				<path class="st5" d="M1154.8,926.8c-30.9,0-55.9-25-55.9-55.9c0-27.9,20.5-51.1,47.3-55.3c2.8-0.4,5.7-0.7,8.7-0.7
					c16.5,0,31.4,7.2,41.6,18.6c8.9,9.9,14.3,23,14.3,37.3C1210.7,901.8,1185.6,926.8,1154.8,926.8z"/>
				<path class="st4" d="M1154.8,870.9l-8.7-55.3c2.8-0.4,5.7-0.7,8.7-0.7c16.5,0,31.4,7.2,41.6,18.6L1154.8,870.9z"/>
			</g>
		</g>
		<g>
			<g>
				<rect x="610" y="1087.5" class="st5" width="767.4" height="147.5"/>
			</g>
			<g>
				<path class="st4" d="M1379.6,1237.2H610.4v-149.4h769.2V1237.2z M612.3,1235.3h765.5v-145.6H612.3V1235.3z"/>
				<rect x="611.3" y="1205.8" class="st4" width="767.4" height="1.9"/>
				<rect x="611.3" y="1176.3" class="st4" width="767.4" height="1.9"/>
				<rect x="611.3" y="1146.8" class="st4" width="767.4" height="1.9"/>
				<rect x="611.3" y="1117.3" class="st4" width="767.4" height="1.9"/>
				<rect x="1249.9" y="1088.8" class="st4" width="1.9" height="147.5"/>
				<rect x="1122" y="1088.8" class="st4" width="1.9" height="147.5"/>
				<rect x="994.1" y="1088.8" class="st4" width="1.9" height="147.5"/>
				<rect x="866.2" y="1088.8" class="st4" width="1.9" height="147.5"/>
				<rect x="738.3" y="1088.8" class="st4" width="1.9" height="147.5"/>
			</g>
			<path class="st3" d="M632.4,1212.9c11.2-15.5,13.6-35.6,23.5-51.9c4.9-8,11.3-15.9,20.2-19.5c15.4-6.2,19.3,13.7,19.6,24.7
				c0.5,16.2-2.2,33.7,11.2,45.9c4.5,4.1,10.4,6.5,16.4,4.9c7.2-1.9,11.7-8.5,15.3-14.6c10.2-17.4,16.7-37.3,23.8-56.2
				c3.6-9.5,8.2-21.7,17.6-27c13.4-7.6,14.9,9.2,14.8,18.1c0,9.7,0.1,19.4,0.1,29.1c0,4.7-0.9,14.4,4.6,17c3.2,1.5,5.8-1.4,7.6-3.7
				c1.6-2,2.7-4.4,4.2-6.5c1.5-1.9,2.8-3.1,5.5-3.3c2.4-0.2,3.6-0.2,5.3,2c0.9,1.3,1.4,3,1.7,4.5c1.9,7.3-0.1,15.5,4.1,22.2
				c2.3,3.7,7.2,7.5,11.9,6.7c9.4-1.5,11.7-16.7,12.9-24.1c1.5-9.8,2.9-19.6,5.6-29.2c2.7-9.6,6.3-21.2,13.6-28.4
				c2.8-2.7,6.6-5.5,10.8-5c6,0.7,7.9,7.5,9.4,12.4c3.3,11,5.3,22.6,5.3,34.1c0,8-2.3,17.9,3,24.8c2.8,3.7,7.7,5.8,12.3,4.7
				c6.8-1.7,8.4-8.2,9.8-14.2c0.3-1.2,0.5-2.4,0.9-3.5c1.3-3.4,1.8-3.7,5.5-3.9c4-0.2,4.1,0.8,4.8,4.1c0.6,3.3,0.3,6.7,1.3,10
				c1.3,4.2,4.2,8,9,6.6c4.4-1.3,6.8-6.1,8.3-10.1c4.2-11.5,3.8-24.3,4.5-36.4c0.4-8,1.1-16.6,4.8-23.9c2.4-4.7,9.5-12.4,15-7.4
				c7.1,6.5,6.4,22.3,6.6,31c0.4,18.7-2.8,37.5-0.2,56.2c1,7,3,17.4,10.7,20c10.7,3.7,18.6-8,21.5-16.6c2.3-6.8,2.8-13.9,4.4-20.8
				c0.8-3.6,2.1-10.3,7.1-8.2c4.3,1.8,6.1,7.9,9.8,10.6c12.2,8.9,19.6-8.4,21.1-17.8c2.1-13.7-0.1-28.7,5.1-41.8
				c1.3-3.3,3.3-6.8,6.4-8.8c7.4-4.9,14.8,1.9,17,8.8c1.7,5.3,1.4,11.2,1.5,16.6c0.1,5.9,0.3,11.8,0.4,17.8
				c0.2,9.8-0.7,19.8-0.1,29.5c0.4,6.8,3,13,8.9,16.8c14.7,9.6,31.9-5.4,41.3-15.9c10.7-11.9,17.8-26.1,23.3-41
				c2.8-7.5,5.6-15.2,9.9-22c2.4-3.7,9.1-12.7,14.5-10.2c3.6,1.6,4.7,8,5.5,11.4c1.3,5.6,1.9,11.3,2.4,17.1
				c0.9,10.9,0.9,21.8,1.1,32.7c0.2,9.2,1,23.2,11.2,26.9c16,5.8,23.7-17.1,28.1-27.7c3.7-8.8,8.2-20.7,16.7-25.9
				c7.3-4.4,12.3,2.4,15,8.5c2.6,5.8,3.9,12.3,4,18.7c0.1,4.4-0.3,10,4.6,12.2c10.6,4.7,20.3-12.9,24.4-19.8
				c3.8-6.3,6.6-12.9,9.8-19.6c4-8.3,17-24.2,22.4-8.3c2,6,1.3,12.5,0.9,18.7c-0.5,7.1-1,14.1-0.7,21.2c0.3,8.2,1.7,26,14.1,24.1
				c7.5-1.1,15.2-9.4,20.8-14.1c8.2-6.8,15.9-14.2,23.3-21.9c1.1-1.2-0.7-2.9-1.8-1.8c-7.3,7.8-15.1,15.1-23.3,21.9
				c-4.4,3.7-8.9,7.4-13.6,10.6c-6.2,4.2-12.2,2.3-14.7-4.1c-4.8-12.5-1.9-28-1.2-41c0.4-7.7-0.6-25.5-12.4-23.3
				c-7.1,1.3-12,8.9-15,14.9c-3.4,6.7-6.1,13.6-9.9,20.1c-3.8,6.4-8.1,14.1-14.3,18.4c-4.7,3.3-10.2,1.7-10.8-4.6
				c-0.2-2.9,0.1-5.8-0.3-8.7c-1-8.4-4.2-22.3-13.3-25.7c-12.6-4.7-21.8,16.5-25.4,24.8c-3.7,8.5-6.5,19.4-13.3,26
				c-4.8,4.7-12.6,6.3-17.5,0.9c-3.6-4-4.5-10.2-5-15.3c-1.9-19.8,1-40.2-4.6-59.6c-1.6-5.6-4.7-12.5-11.6-10
				c-11.6,4.1-16.9,19.2-20.8,29.5c-6.3,16.6-13.3,32.5-25.6,45.7c-7.1,7.6-17.4,17-28.5,16.8c-14.6-0.3-16.4-14.8-16-26
				c0.4-10.9,0-21.8-0.3-32.7c-0.2-8.8,1-19.3-3.3-27.3c-2.8-5.1-8.6-9.2-14.7-8.1c-5.1,0.9-9,5.7-11,10.2
				c-5.6,12-4.1,26.4-5.4,39.2c-0.7,7.3-2,19.9-10.6,22.4c-10.8,3.2-11.1-13-20.2-13.3c-9.6-0.3-9.7,22.7-11.3,28.8
				c-2,7.5-5.9,16.4-14.5,18c-5.3,1-8.8-2.3-10.8-6.8c-4.7-10.3-4.1-23.3-3.8-34.4c0.2-8.3,1-16.5,1.1-24.7c0.2-8.9,1.9-47.1-15-43
				c-11.7,2.8-14.7,18-15.8,28c-1.4,13.4-0.2,27.1-4,40.2c-1,3.4-2.3,7.3-5.2,9.6c-3,2.4-6.5,0.3-8-2.7c-1-2.1-0.9-4.7-1.1-7
				c-0.3-3.8-0.8-9.5-5-11.1c-4.9-1.8-8.9,3.2-10.4,7.2c-1.8,5-1.2,11.5-6.3,14.8c-5.1,3.3-11,0.2-13.5-4.7
				c-2.6-5.1-1.6-11.3-1.4-16.8c0.3-5.6,0-11.2-0.6-16.7c-1.1-9.4-2.8-19.7-6.7-28.5c-5.3-12-17.2-8.8-24.3-0.2
				c-12,14.7-15,36.9-17.6,55c-0.8,5.8-1.9,11.8-4.5,17.1c-1.3,2.7-3.2,5.9-6.5,6.5c-5.4,0.9-9.9-5.3-11.1-9.8
				c-1.9-7.2-0.1-32.8-15.1-24.9c-4.7,2.4-5.1,8.3-9.1,11.2c-6.2,4.6-6.6-5.5-6.6-9.5c-0.1-5.9-0.1-11.7-0.2-17.6
				c-0.1-7.9,0.5-16.1-0.4-23.9c-0.6-5-2.1-10.8-7.3-12.9c-14-5.6-24.4,17-28.2,26.5c-8,20.1-14.3,41.6-25.6,60.1
				c-6.2,10.2-16.6,17.8-27.2,8.3c-7.5-6.8-10.3-16.9-10.5-26.7c-0.3-12.8,3.6-38.6-11.7-45.2c-13.3-5.8-27.5,12.6-33.1,22.1
				c-9.6,16.2-12.1,35.9-23.1,51.2C629.3,1212.9,631.5,1214.2,632.4,1212.9L632.4,1212.9z"/>
		</g>
	</g>
	<g>
		<g>
			<path class="st6" d="M1377.9,1621.2H1189c-7.2,0-13.1-5.9-13.1-13.1v-124.4c0-7.2,5.9-13.1,13.1-13.1h188.9
				c7.2,0,13.1,5.9,13.1,13.1v124.4C1391,1615.4,1385.1,1621.2,1377.9,1621.2z"/>
			<rect x="1180.6" y="1535.9" class="st4" width="205.7" height="2.4"/>
			<path class="st4" d="M1283.4,1557.7c-9.5,0-17.3-7.7-17.3-17.3v-4.6h34.5v4.6C1300.7,1550,1293,1557.7,1283.4,1557.7z
				 M1268.5,1538.3v2.2c0,8.2,6.7,14.9,14.9,14.9s14.9-6.7,14.9-14.9v-2.2H1268.5z"/>
			<path class="st4" d="M1324.1,1478.3h-2.4v-30.9c0-4.2-3.4-7.5-7.5-7.5h-61.5c-4.2,0-7.5,3.4-7.5,7.5v30.9h-2.4v-30.9
				c0-5.5,4.5-9.9,9.9-9.9h61.5c5.5,0,9.9,4.5,9.9,9.9V1478.3z"/>
			<rect x="1238.2" y="1470.6" class="st4" width="11.6" height="12.5"/>
		</g>
		<rect x="1317.1" y="1470.6" class="st4" width="11.6" height="12.5"/>
	</g>
	<g>
		<rect x="625.8" y="1493.4" class="st6" width="153.4" height="127.8"/>
		<rect x="614.5" y="1484.4" class="st4" width="175.9" height="26.8"/>
		<path class="st7" d="M779.2,1621.2H625.8v-110.4C625.8,1510.8,687.9,1604.2,779.2,1621.2z"/>
	</g>
	<g>
		<g>
			<path class="st5" d="M1630.7,528.8c-52.5,0-95.1,42.6-95.1,95.1c0,32.7,16.6,61.6,41.7,78.7l-3.7,43.8l35.7-29.9
				c6.9,1.6,14,2.4,21.3,2.4c52.5,0,95.1-42.6,95.1-95.1S1683.2,528.8,1630.7,528.8z"/>
			<path class="st8" d="M1572.2,749.3l3.8-46.1c-26.1-18-41.7-47.6-41.7-79.3c0-53.1,43.2-96.3,96.3-96.3s96.3,43.2,96.3,96.3
				s-43.2,96.3-96.3,96.3c-7,0-14.1-0.8-21-2.3L1572.2,749.3z M1630.7,530.1c-51.7,0-93.8,42.1-93.8,93.8
				c0,31.1,15.4,60.2,41.2,77.7l0.6,0.4l-3.5,41.5l33.9-28.3l0.6,0.1c6.9,1.6,14,2.4,21,2.4c51.7,0,93.8-42.1,93.8-93.8
				S1682.4,530.1,1630.7,530.1z"/>
		</g>
		<g>
			<g>
				<g>
					<rect x="1618.6" y="643.9" class="st5" width="28.3" height="29.3"/>
					<path class="st8" d="M1648.1,674.5h-30.8v-31.8h30.8V674.5z M1619.8,672h25.8v-26.8h-25.8V672z"/>
				</g>
				<g>
					<path class="st5" d="M1655.6,623.7c0-13-10.9-23.5-24-22.9c-12,0.5-21.7,10.6-21.9,22.6c-0.1,4.3,1.1,8.3,3,11.7
						c3.6,6.2,5.8,13,5.8,20.2v5.2h28.3V655c0-7,2.2-13.8,5.7-19.9C1654.5,631.8,1655.6,627.8,1655.6,623.7z"/>
					<path class="st8" d="M1648.1,661.7h-30.8v-6.5c0-6.6-1.9-13.1-5.6-19.6c-2.2-3.7-3.3-8-3.2-12.3c0.2-12.6,10.5-23.3,23-23.9
						c6.7-0.3,13,2.1,17.8,6.7c4.8,4.6,7.5,10.8,7.5,17.5c0,4.3-1.1,8.4-3.3,12.1c-3.7,6.3-5.5,12.8-5.5,19.3V661.7z M1619.8,659.2
						h25.8V655c0-6.9,2-13.8,5.9-20.5c1.9-3.3,2.9-7,2.9-10.9c0-6-2.4-11.6-6.7-15.7c-4.3-4.1-10-6.3-16-6
						c-11.3,0.5-20.5,10.1-20.7,21.4c0,3.9,0.9,7.7,2.9,11.1c3.9,6.8,5.9,13.8,5.9,20.8V659.2z"/>
				</g>
				<g>
					<path class="st5" d="M1627.5,621c-1.8,2.5-4.8,3.5-6.7,2.2c-1.9-1.3-2-4.5-0.2-7c1.8-2.5,4.8-3.5,6.7-2.2
						C1629.2,615.3,1629.2,618.4,1627.5,621z"/>
					<path class="st8" d="M1622.8,625c-1,0-1.9-0.3-2.7-0.8c-1.2-0.9-2-2.3-2-4c-0.1-1.6,0.5-3.3,1.5-4.7c1-1.4,2.4-2.5,3.9-3
						c1.6-0.5,3.2-0.3,4.5,0.5c1.2,0.9,2,2.3,2,4c0.1,1.6-0.5,3.3-1.5,4.7l0,0c-1,1.4-2.4,2.5-3.9,3
						C1624,624.9,1623.4,625,1622.8,625z M1625.3,614.6c-0.3,0-0.7,0.1-1,0.2c-1,0.3-2,1.1-2.6,2.1c-0.7,1-1.1,2.2-1,3.2
						c0,0.9,0.4,1.7,1,2.1c0.6,0.4,1.4,0.5,2.3,0.2c1-0.3,1.9-1.1,2.6-2.1l0,0c0.7-1,1.1-2.2,1-3.2c0-0.9-0.4-1.7-1-2.1
						C1626.2,614.7,1625.8,614.6,1625.3,614.6z"/>
				</g>
			</g>
			<g>
				
					<rect x="1593.8" y="581" transform="matrix(0.6218 -0.7832 0.7832 0.6218 141.0611 1472.3253)" class="st8" width="2.5" height="18.2"/>
				
					<rect x="1629.7" y="559.6" transform="matrix(0.9995 -3.200236e-02 3.200236e-02 0.9995 -17.465 52.4875)" class="st8" width="2.5" height="24.4"/>
				
					<rect x="1657.1" y="585.4" transform="matrix(0.7168 -0.6973 0.6973 0.7168 63.1283 1328.697)" class="st8" width="20.6" height="2.5"/>
			</g>
		</g>
	</g>
	<g>
		<g>
			<path class="st5" d="M437.6,648.9c0-46.2-37.4-83.6-83.6-83.6c-46.2,0-83.6,37.4-83.6,83.6s37.4,83.6,83.6,83.6
				c7.6,0,14.9-1,21.9-2.9l29,24.3l-3-36.5C423.5,702.3,437.6,677.3,437.6,648.9z"/>
			<path class="st8" d="M406.4,756.8L375.6,731c-7.1,1.9-14.3,2.8-21.6,2.8c-46.8,0-84.8-38.1-84.8-84.8c0-46.8,38.1-84.8,84.8-84.8
				c46.8,0,84.8,38.1,84.8,84.8c0,27.4-13.3,53.2-35.6,69.1L406.4,756.8z M376.2,728.2l27.2,22.8l-2.8-34.2l0.6-0.4
				c22-15.4,35.2-40.7,35.2-67.5c0-45.4-36.9-82.3-82.3-82.3c-45.4,0-82.3,36.9-82.3,82.3c0,45.4,36.9,82.3,82.3,82.3
				c7.3,0,14.5-1,21.6-2.9L376.2,728.2z"/>
		</g>
		<polygon class="st8" points="352.9,675 329.2,651.3 331,649.6 352.1,670.7 376.6,614.9 378.9,615.9 		"/>
	</g>
	<g>
		<g>
			<path class="st8" d="M808.7,758.5l-22.4,13.1L547.9,911.3c-7.3,4.3-15.9,3.3-19.3-2.3l0,0c-3.4-5.6-0.4-13.7,6.8-18.2L768,742.8
				l22.4-14.2L808.7,758.5z"/>
			<path class="st9" d="M808.7,758.5l-22.4,13.1c-4.4-4.2-8.2-9-11.5-14.3c-2.8-4.6-5.1-9.5-6.8-14.5l22.4-14.2L808.7,758.5z"/>
		</g>
		<path class="st5" d="M777.2,766c-3.5,2.2-8.1,1-10.3-2.5c-2.2-3.5-1-8.1,2.5-10.3c3.5-2.2,8.1-1,10.3,2.5
			C781.8,759.2,780.7,763.8,777.2,766z"/>
		<circle class="st8" cx="890.2" cy="688.2" r="118.7"/>
		<g>
			<defs>
				<circle id="SVGID_3_" cx="890.2" cy="688.2" r="96.2"/>
			</defs>
			<use xlink:href="#SVGID_3_"  style="overflow:visible;fill:#FFFFFF;"/>
			<clipPath id="SVGID_1_">
				<use xlink:href="#SVGID_3_"  style="overflow:visible;"/>
			</clipPath>
			<g class="st10">
				<rect x="820.9" y="720.8" class="st4" width="30.2" height="185.2"/>
				<rect x="875.1" y="696.3" class="st6" width="30.2" height="210.8"/>
				<rect x="929.3" y="670.1" class="st4" width="30.2" height="233.7"/>
			</g>
			<g class="st10">
				
					<rect x="784.6" y="656.8" transform="matrix(0.9525 -0.3047 0.3047 0.9525 -159.9186 292.4689)" class="st4" width="145.1" height="3.8"/>
				<path class="st4" d="M917.2,652.7l-3.1-2.2l9.1-12.8l-13.2-4.5l1.2-3.5l14.6,5c0.8,0.2,1.4,0.9,1.7,1.7c0.3,0.9,0.1,1.8-0.5,2.5
					L917.2,652.7z M924.6,638.2c0,0,0.1,0,0.1,0L924.6,638.2z M924,636.5C924,636.6,924,636.6,924,636.5L924,636.5z"/>
			</g>
		</g>
	</g>
	<g>
		<g>
			<g>
				<path class="st11" d="M652.7,1571.5c-15.1,0.2-36.8,0.6-50.8,0.8c0.1-6.8,0.4-13.5,0.7-19.7c0.7-15.4,1.5-27.3,1.5-27.3
					l43.3-0.3c0,0-0.2,4.3,0,10.8C647.8,1545.3,648.9,1559.6,652.7,1571.5z"/>
				<path class="st12" d="M669.5,1592.7c-8.3-2.6-13.5-11-16.8-21.2c-15.1,0.2-36.8,0.6-50.8,0.8c-0.4,15.9-0.2,32,1.3,41
					c0.7,3.9,4,6.8,8,6.8h74.4c6.1,0,11.3-5.1,10.7-11.1C695.5,1601.8,687,1598.1,669.5,1592.7z"/>
				<path class="st13" d="M647.5,1535.8l-44.8,16.8c0.7-15.4,1.5-27.3,1.5-27.3l43.3-0.3C647.5,1525,647.3,1529.3,647.5,1535.8z"/>
				<path class="st14" d="M625,1619.4c-1.6-7.5-4.7-12.8-9.4-15.6c-6.1-3.7-12.7-1.8-12.8-1.8l-0.7-2.4c0.3-0.1,7.7-2.2,14.8,2.1
					c5.3,3.2,8.8,9,10.6,17.2L625,1619.4z"/>
			</g>
			<g>
				<path class="st11" d="M430.5,1516.9c0,0-4.8,11.1-8.2,24.9c-1.6,6.6-3,13.7-3.3,20.5c-14.2-5.1-34.6-12.5-47.8-17.2
					c6.1-15.1,12.7-29.8,16.2-37.6l0.1-0.2c1.5-3.4,2.5-5.4,2.5-5.4L430.5,1516.9z"/>
				<path class="st12" d="M427.1,1588c-6.9-5.3-8.7-15.1-8.2-25.7c-14.2-5.1-34.6-12.5-47.8-17.2c-6,14.8-11.5,29.8-13.3,38.8
					c-0.8,3.9,1.4,7.8,5.1,9.2l69.6,26.3c5.7,2.1,12.4-0.7,13.9-6.6C448.2,1605.7,441.5,1599.2,427.1,1588z"/>
				<path class="st13" d="M430.5,1516.9c0,0-4.8,11.1-8.2,24.9l-36.3-30.5l1.4-3.8l0.1-0.2c1.5-3.4,2.5-5.4,2.5-5.4L430.5,1516.9z"
					/>
				<path class="st14" d="M374,1596.8l-2.2-1.2c9.3-17.9-7.1-26.7-7.8-27.1l1.2-2.2C365.4,1566.5,384.5,1576.8,374,1596.8z"/>
			</g>
			<path class="st8" d="M668.8,1533.8l-79.6,6.2l-16.7-284.2l-24.7-93.4l-32.2-122.2l-1.7-6.4l-7.8-29.4l-1.2-4.4l15.2-1.4l82.3-7.4
				l5,22.5v0l49.3,222.8c1.6,7.2,2.5,14.7,2.8,22.1L668.8,1533.8z"/>
			<path class="st8" d="M554.2,1099.2l-6.3,63.2l-10.3,102.3c-1.2,11.8-3.8,23.4-7.8,34.5L445,1533.8l-71.2-27.5l66.2-240
				c17.1-98.8,14.2-174.6,18.7-222.7c0.3-3,0.6-5.9,0.9-8.6c1.8-14.7,4.5-26.4,9.2-34.9l37.4,4.4l26.3,3.1l5.7,24.2l1.2,4.9
				L554.2,1099.2z"/>
			<path class="st9" d="M607.5,1013.8l0.9,9.6c0,0-111.7,30-149.7,20.2c0.3-3,0.6-5.9,0.9-8.6c1.8-14.7,4.5-26.4,9.2-34.9l37.4,4.4
				l-1.2-4.4l15.2-1.4l82.3-7.4L607.5,1013.8z"/>
			<polygon class="st12" points="571.3,1257.2 534,1109.7 503.4,1099.9 504.1,1097.6 536,1107.8 536.2,1108.4 573.7,1256.6 			"/>
			<path class="st12" d="M628.6,1263.7l-0.9-2.3c19.6-7.4,30.3-14.2,30.4-14.3l1.4,2.1C659,1249.5,648.5,1256.2,628.6,1263.7z"/>
			<path class="st12" d="M533,1288.7c-0.2,0-19.1-1.9-37.7-6.9l0.6-2.4c18.4,4.9,37.1,6.8,37.3,6.8L533,1288.7z"/>
			
				<rect x="415" y="1460.5" transform="matrix(0.3452 -0.9385 0.9385 0.3452 -1134.4487 1372.2922)" class="st12" width="2.5" height="77.2"/>
			
				<rect x="588" y="1515.3" transform="matrix(0.9975 -7.028105e-02 7.028105e-02 0.9975 -105.0332 47.8734)" class="st12" width="79.6" height="2.5"/>
		</g>
		<path class="st15" d="M499.4,819.2l-33.8,13.6c-9.8,4-17.7,11.7-21.8,21.4l-28.4,67.9c-5.7,13.6-1.9,29.3,9.4,38.9l0,0
			c9.3,7.9,22.1,10.1,33.5,5.9l24-8.8L499.4,819.2z"/>
		<g>
			<path class="st11" d="M733.3,757.4c-6.3,3.1-13.6,16.4-10.8,21.2c2.3,3.9,7.5-1.4,9.3-3.2c3.2-3.3,11.5-12.3,6.9-17.3
				C737.1,756.5,735.2,756.5,733.3,757.4z"/>
			<path class="st11" d="M718,762.3c-5.2,4.7-8.7,19.5-4.7,23.3c3.2,3.2,6.9-3.4,8.1-5.6c2.2-4.1,7.7-14.9,2-18.6
				C721.4,760.3,719.6,760.8,718,762.3z"/>
			<path class="st11" d="M707.8,769.7c-5.3,4.5-9,18.5-5.2,22.1c3.1,2.9,6.9-3.3,8.1-5.4c2.2-3.9,8-14.2,2.4-17.5
				C711.3,767.7,709.5,768.2,707.8,769.7z"/>
			<path class="st11" d="M698.1,773.1c-5.3,4.5-9,18.5-5.2,22.1c3.1,2.9,6.9-3.3,8.1-5.4c2.2-3.9,8-14.2,2.4-17.5
				C701.6,771.2,699.8,771.7,698.1,773.1z"/>
		</g>
		<path class="st15" d="M499.4,819.6l-35.2,60.5c0,0,9.2,100,2.5,112.3c-6.7,12.3-21.7,21.9-12.5,28.9c9.2,7,81.7,19.3,160,0.9
			c21.7-6.1,6.7-17.5,1.7-22.8s-11.7-137.7-11.7-137.7l-45-41.1l-33.3-9L499.4,819.6z"/>
		<path class="st16" d="M558.4,820.6c-6.2,10.9-79.8,22.2-59.1-1.5l21.2-4.5L558.4,820.6z"/>
		<g>
			<path class="st15" d="M653.8,891.9l-29-43.1c-6.7-10.9-17.7-18.6-30.3-21.1l-35.3-7.1l20.8,78.1c0,0,32.5,45.6,61.9,56.2
				c26.4,9.5,61.3-6.1,80.6-109.2l-43.7-6L653.8,891.9z"/>
			<path class="st11" d="M746.5,784.6c-4.4-0.6-19.6,22.3-19.6,22.3l-24.5,8.3c-9,3.1-16.3,9.6-20.5,18.1l-3.1,6.5l43.7,6
				c0.7-3.8,1.4-7.8,2.1-11.9C739.6,820.4,756.2,785.8,746.5,784.6z"/>
		</g>
		<g>
			<path class="st13" d="M565.2,724l8.9,12.3c1.5,2.1,0.6,4.9-1.9,5.9l-9.5,3.7l-6.7-14.8L565.2,724z"/>
			<path class="st11" d="M507.9,791.4c2.2-22.6,1.3-45.2,1.3-45.2l40.4,2.9c-0.4,4.5-0.4,9.1-0.2,13.8c0.3,7.4,1.1,14.8,2.2,22.1
				c0.6,4,1.4,7.9,2.1,11.6L507.9,791.4z"/>
			<path class="st13" d="M551.6,785.1c-17.1-7.1-23.7-22.4-23.7-22.4l21.4,0.3C549.6,770.4,550.5,777.8,551.6,785.1z"/>
			<path class="st17" d="M507.8,791.4l-8.5,27.8c19.5,4.7,39.5,4.9,59.8,1.5l-5.4-23.9L507.8,791.4z"/>
			<path class="st11" d="M564.2,703.3l4.2,55.9c0.4,2.4-1.1,4.6-3.2,6.5c-3.5,3.3-8.4,4.8-13.2,4.6l-28.6-1.2l-20.4-22.9l15.8-48.8
				l28.8-0.4L564.2,703.3z"/>
			<path class="st12" d="M517.2,736.6c0,0,7.5,23.4-8.4,35.3c-17.2-5.6-49.1-57.8-9.4-74.4c0,0,10.9-27.8,40.6-17.5
				c26.2,9.1,33.1,25,33.1,25s-18.4,13.8-40,0.9C533.1,705.9,535.3,733.8,517.2,736.6z"/>
			<path class="st11" d="M527.8,727c4.7,5.8,4.2,13.9-1,18.1c-5.2,4.2-13.3,3-17.9-2.8c-4.7-5.8-4.2-13.9,1-18.1
				C515.1,720,523.1,721.2,527.8,727z"/>
			<path class="st12" d="M522,740.4c-0.1-0.4-2.6-9.9-9.3-8.5l-0.4-1.8c6.8-1.5,10.5,5.8,11.5,9.9L522,740.4z"/>
			
				<ellipse transform="matrix(0.2298 -0.9732 0.9732 0.2298 -295.2668 1103.5815)" class="st18" cx="549.6" cy="738.3" rx="8.3" ry="8.3"/>
		</g>
		<path class="st12" d="M463.3,1026.5c-7.6-1.8-11.9-4.6-13.1-8.6c-2-6.5,4.7-13.9,10.6-20.5c0.9-1,1.8-2,2.6-3
			c1.6-1.9,2.8-4.1,3.3-6.5c5.5-26-3.6-106.9-3.7-107.7l2.5-0.3c0.4,3.3,9.2,82.1,3.7,108.5c-0.6,2.8-1.9,5.4-3.8,7.6
			c-0.8,1-1.7,2-2.7,3c-5.2,5.8-11.7,12.9-10.1,18.1c0.9,3,4.7,5.4,11.3,6.9L463.3,1026.5z"/>
		<path class="st12" d="M608.4,1024.6l-0.1-2.5c8.5-0.4,13.8-2.4,15.1-5.9c1.4-3.5-1.1-8.7-6.8-14.3c-1.4-1.4-2.5-3.3-2.9-5.4
			c-4.5-20.2-9.3-87-9.3-87.7l2.5-0.2c0,0.7,4.8,67.3,9.3,87.3c0.4,1.6,1.1,3,2.2,4.1c6.5,6.4,9.1,12.5,7.3,17
			C624,1021.6,618.1,1024.1,608.4,1024.6z"/>
		<polygon class="st12" points="649.2,903 647,902 678,838.5 722.7,844.6 722.3,847.1 679.5,841.2 		"/>
	</g>
	<g>
		<path class="st12" d="M1401.2,747.1c-14.8-9-18.1-34.6-4.4-42.3c13.8-7.7,22.5-0.8,22.5-0.8s46.1-16.8,63.5,26
			c13.1,32.3,2.7,49.2,14.2,65.4c13.1,18.5,34,35.2,6.7,67.7l-63.8-15.6l-16.7-78.5L1401.2,747.1z"/>
		<g>
			<g>
				<path class="st11" d="M1621.9,1467l-46.9,20.6c0,0,6.7,17.4,12.5,37.6l48.2-15.4L1621.9,1467z"/>
				<path class="st12" d="M1635.7,1509.9l-48.2,15.4c6.6,23.2,11.9,50.1,4.4,58.9c-9.8,11.4-18.3,20.9-20.4,28.8
					c-1.2,4.7,3.6,8.6,7.9,6.4l62.3-31.4c10.3-5.2,14.8-17.6,10.1-28.2L1635.7,1509.9z"/>
				
					<rect x="1590.9" y="1533.5" transform="matrix(0.9544 -0.2986 0.2986 0.9544 -384.5552 552.8)" class="st14" width="51.5" height="2.5"/>
				<path class="st14" d="M1582.8,1596.6l-0.5-2.4c11.9-2.5,18.9-6.9,20.6-13c2.9-10.1-9.1-21.8-9.2-21.9l1.7-1.8
					c0.5,0.5,13.1,12.9,9.8,24.4C1603.2,1588.9,1595.7,1593.9,1582.8,1596.6z"/>
			</g>
			<g>
				<path class="st11" d="M1440.8,1512.5l-54.2,5c0,0,1.4,19.2-0.3,38.5l52.1-0.8L1440.8,1512.5z"/>
				<path class="st12" d="M1386.4,1556c-1.5,17.1-5.4,34.2-14.7,38.1c-20,8.3-35.8,14.2-34.2,25.8h76.9c11.6,0,21.1-9,21.7-20.6
					l2.4-44.2L1386.4,1556z"/>
				
					<rect x="1410.4" y="1544.6" transform="matrix(1.664769e-02 -0.9999 0.9999 1.664769e-02 -181.1998 2954.9255)" class="st14" width="2.5" height="50"/>
				<path class="st14" d="M1370.4,1603.6c-3.3,0-7.2-0.5-11.6-1.5l0.5-2.4c11,2.5,18.4,1.7,21.5-2.2c4.1-5.2-0.1-14.4-0.1-14.5
					l2.3-1.1c0.2,0.4,4.9,10.8-0.2,17.1C1380.4,1602.1,1376.2,1603.6,1370.4,1603.6z"/>
			</g>
			<path class="st8" d="M1440.1,1525.3c-0.7,0.2-1.2,0.4-1.8,0.5c-10.8,2.5-46.6,0-46.6,0c-1.6-0.3-3.2-0.8-4.7-1.3
				c-33.5-12.2-31.2-70.8-26.2-122c4.6-47-15-286.7-1.4-368.1l84.8-18.6l0.5,14.3l1,29.2l1.8,51.6c0,0,3.2,49.9,7.6,112.4
				c6.6,93.8,15.7,215.9,20.7,240.9C1483.8,1503.9,1453.7,1521.4,1440.1,1525.3z"/>
			<path class="st8" d="M1632,1473.4c-1.9,2.2-3.9,4.1-6.2,5.8c-11.4,8.8-26.8,12-40.3,15.6c-2.4,0.7-4.8,1.1-7.4,1.4
				c-12.6,1.6-26.3-1.3-32.2-12c-30.1-54.8-64-163.7-90.9-261c-19.7-71-35.5-135.9-43.4-169c-3.5-14.6-5.4-23-5.4-23l38.4-1.2
				l65.3-2c1.8,8.8,3.8,18.1,6.1,27.7c22.3,95.2,66.2,226,83.4,276.1c10.3,30,25.9,56.7,32.8,88.1
				C1636,1436.6,1644.5,1459,1632,1473.4z"/>
			<path class="st9" d="M1516.1,1055.8c-26.7,4.4-50.2,5-70.4,3.4c-12.7-0.9-24.1-2.8-34.1-5c-34.2-7.5-52.3-19.9-52.3-19.9
				l84.8-18.6l0.5,14.3l65.3-2C1511.8,1036.9,1513.8,1046.2,1516.1,1055.8z"/>
			<polygon class="st12" points="1453.9,1223.6 1427.7,1131 1400.8,1121.2 1401.7,1118.8 1429.8,1129 1430,1129.7 1456.3,1222.9 			
				"/>
			<path class="st12" d="M1614.4,1484.8l-2.2-1.2c12.6-21.9-12.7-89.4-44.7-174.9c-31.1-83-69.8-186.3-83.8-278.5l2.5-0.4
				c14,91.9,52.6,195.1,83.7,278C1602.1,1393.9,1627.6,1461.9,1614.4,1484.8z"/>
		</g>
		<g>
			<path class="st11" d="M1377.6,955.7c-3,21.1-7.6,48.7-7.6,48.7h-49.4l12-66.1l3-16.4c0,0,42.5,10,44.4,10
				C1380.7,931.9,1379.4,942.5,1377.6,955.7z"/>
			<path class="st13" d="M1377.6,955.7l-2.2,5l-42.7-22.3l3-16.4c0,0,42.5,10,44.4,10C1380.7,931.9,1379.4,942.5,1377.6,955.7z"/>
			<path class="st12" d="M1366.9,940.6c0,0,8.1,47.5-7.5,93.8c0,0,77.5,23.8,150.6-6.2l-16.9-106.9l5.6-54.4l-111.9,1.2l-38.1,12.5
				L1366.9,940.6z"/>
			<path class="st12" d="M1530.4,860.8c-4.9-14.1-16.3-25-30.6-29.3l-21-6.3c-8.5,12.3-23.6,28-45.6,28c-25.9,0-42.2-14.9-51.1-27
				l-14.5,3.5c-15.6,3.8-27.7,16.1-31.3,31.7l-16.2,70.3l46.9,9l1.2-53.8l121.9-5.6l3.1,40c0,0,35.2-15.4,58.5,0.4L1530.4,860.8z"/>
			<path class="st11" d="M1583.8,856.2c-6.8,13.2-15.8,70.4-20,115c-1.4,14.7-5.5,26.2-11.3,34.6c-8.5,12.5-20.5,18.1-32.2,16.9
				c-4.5-0.5-8.9-1.9-13.1-4.4c-20.1-11.9-17.5-62.9-15.3-85.8c0.7-6.9,1.3-11.3,1.3-11.3c11.9-6.5,30.6-7.5,30.6-7.5
				c0.2-2.6,0.5-5.2,0.9-7.8c2.5-23,6.4-49.2,9.8-66.5c3.8-19.4,11.2-12.2,11.2-12.2c3.8-6.9,9.4-1,9.4-1c5-11,11.2-0.6,11.2-0.6
				c7.8-11.2,12.1,5.6,12.1,5.6s24.2-20,28.4-14.2C1608.8,820,1593.3,837.5,1583.8,856.2z"/>
			<g>
				<rect x="1286.9" y="991.8" class="st5" width="105" height="12.6"/>
				<path class="st8" d="M1331.8,1004.5h-108.3c-5.2,0-9.9-3-12.1-7.8l-42.2-91.6c-1.4-3,0.8-6.5,4.2-6.5H1275
					c4.9,0,9.4,2.9,11.5,7.4L1331.8,1004.5z"/>
			</g>
			<path class="st11" d="M1367.5,1004.4c-1.3,4.9-3.1,9.4-5.5,13.5c-5.8,9.8-15.1,16.5-29.4,18.3c-4.9,0.7-10.4,0.7-16.5,0.1
				c-49.6-4.9-64-32.1-64-32.1s-5.5-11.5,6.2-8.9c0,0,2.2-7.3,11.2,0.3c0,0-1.1-9.1,7.8-0.8c0,0-1.2-9.2,8.4-1.2
				c9.7,8,17.2,10.3,28.9,10.8C1326.4,1004.8,1367.5,1004.4,1367.5,1004.4z"/>
			<g>
				
					<rect x="1364.1" y="886.8" transform="matrix(0.9983 -5.804152e-02 5.804152e-02 0.9983 -50.7338 80.7852)" class="st8" width="2.5" height="53.8"/>
				<path class="st8" d="M1427.7,872.5c-5.9,0-11.1-0.7-15.5-1.7c-14.9-3.4-23.5-10.4-23.9-10.7l1.6-1.9c0.3,0.3,34.1,27.4,82.7-1.8
					l1.3,2.1C1456.2,869.3,1440.3,872.5,1427.7,872.5z"/>
				
					<rect x="1490.9" y="896.6" transform="matrix(0.9971 -7.604917e-02 7.604917e-02 0.9971 -64.8042 116.1119)" class="st8" width="2.5" height="24.7"/>
				<path class="st8" d="M1454.2,933.5c-8,0-14.7-6-15.6-14l-2-17.8l34.4-2.3l-1,19.2c-0.4,8.2-7.2,14.8-15.5,14.9
					C1454.3,933.5,1454.3,933.5,1454.2,933.5z M1439.3,904.1l1.7,15.2c0.8,6.8,6.5,11.8,13.4,11.8c6.9-0.1,12.6-5.6,13-12.5
					l0.9-16.3L1439.3,904.1z"/>
			</g>
			
				<rect x="1487.3" y="944" transform="matrix(0.1416 -0.9899 0.9899 0.1416 368.2889 2315.219)" class="st13" width="63.4" height="2.5"/>
			<g>
				
					<rect x="1566.2" y="825.5" transform="matrix(0.9839 -0.1789 0.1789 0.9839 -123.3358 293.7476)" class="st13" width="1.9" height="10.5"/>
				
					<rect x="1555" y="825.9" transform="matrix(0.9839 -0.1789 0.1789 0.9839 -123.5732 291.7402)" class="st13" width="1.9" height="10.5"/>
				
					<rect x="1545.6" y="826.5" transform="matrix(0.9839 -0.1789 0.1789 0.9839 -123.8362 290.0732)" class="st13" width="1.9" height="10.5"/>
				
					<rect x="1577.7" y="824.1" transform="matrix(0.9369 -0.3497 0.3497 0.9369 -191.4185 604.6281)" class="st13" width="1.9" height="16.7"/>
			</g>
			<path class="st13" d="M1523.7,913.7l-32.1,18.7c0.7-6.9,1.3-11.3,1.3-11.3C1504.8,914.6,1523.7,913.7,1523.7,913.7z"/>
			<path class="st18" d="M1552.4,1005.9c-8.5,12.5-20.5,18.1-32.2,16.9c-0.1-0.8-0.2-1.7-0.2-2.5c0-10.7,8.7-19.4,19.4-19.4
				C1544.4,1000.8,1549,1002.7,1552.4,1005.9z"/>
			<path class="st18" d="M1362,1017.8c-5.8,9.8-15.1,16.5-29.4,18.3c-0.1-0.6-0.1-1.2-0.1-1.8c0-10.7,8.7-19.4,19.4-19.4
				C1355.6,1015,1359.1,1016,1362,1017.8z"/>
			<path class="st13" d="M1289.7,1007.9c-4.9-1-11.1-8.6-13.2-12.6l1.7-0.9c2.1,4.1,8,10.9,11.9,11.6L1289.7,1007.9z"/>
			<path class="st13" d="M1278,1009.2c-4.2-4.3-8.1-9.7-9.6-13.4l1.7-0.7c1.5,3.5,5.2,8.6,9.2,12.8L1278,1009.2z"/>
			<path class="st13" d="M1266.4,1008.9c-4.2-4.3-8.1-9.7-9.6-13.4l1.7-0.7c1.5,3.5,5.2,8.6,9.2,12.8L1266.4,1008.9z"/>
		</g>
		<g>
			<path class="st11" d="M1478.7,825.1c-8.5,12.3-23.6,28-45.6,28c-25.9,0-42.2-14.9-51.1-27l26.7-6.5c0.7-4.8,1.2-9.5,1.6-13.9
				c0.4-3.5,0.7-6.8,0.9-10c0.4-5.2,0.7-9.9,1-13.8c0.3-5.5,0.5-9.6,0.6-11.9c0-1.3,0-2,0-2l37.5-15c0,0-1.2,48.8,10,66.6
				L1478.7,825.1z"/>
			<path class="st13" d="M1442.7,786c0,0-10,11.7-32.3,19.6c0.4-3.5,0.7-6.8,0.9-10c0.4-5.2,0.7-9.9,1-13.8L1442.7,786z"/>
			<path class="st11" d="M1402.9,722.5c0,0-19.2,52.1-5.4,61.7c12.2,8.5,28.3,9.6,44.2,5.4l10.4-35.4l-6.2-34.6L1402.9,722.5z"/>
			<path class="st12" d="M1446.7,754.6c0,0-13.5,5.2-19.2-13.8c-4.6-15.4-24.6-18.3-24.6-18.3l8.1-7.5l38.5-1l14.2,17.3l-4.8,22.5
				L1446.7,754.6z"/>
			<ellipse transform="matrix(0.5 -0.866 0.866 0.5 69.2091 1638.207)" class="st11" cx="1453.3" cy="759.2" rx="15.8" ry="12.5"/>
			<path class="st12" d="M1448.9,765.9l-1.9,0c0-0.1,0.2-11.8,11.8-13.1l0.2,1.9C1449.2,755.8,1448.9,765.5,1448.9,765.9z"/>
			<g>
				<circle class="st12" cx="1400.4" cy="747.8" r="2.1"/>
				<path class="st12" d="M1417.1,750.7c0,1.4-1.2,2.6-2.6,2.6c-1.4,0-2.6-1.2-2.6-2.6c0-1.4,1.2-2.6,2.6-2.6
					C1415.9,748.1,1417.1,749.3,1417.1,750.7z"/>
				<path class="st12" d="M1405,742.9h-6.4c-0.9,0-1.6-0.7-1.6-1.6l0,0c0-0.9,0.7-1.6,1.6-1.6h6.4c0.9,0,1.6,0.7,1.6,1.6l0,0
					C1406.7,742.2,1405.9,742.9,1405,742.9z"/>
				<path class="st12" d="M1421.1,747.4l-7.1-3c-0.8-0.3-1.2-1.3-0.9-2.1l0,0c0.3-0.8,1.3-1.2,2.1-0.9l7.1,3
					c0.8,0.3,1.2,1.3,0.9,2.1l0,0C1422.8,747.3,1421.9,747.7,1421.1,747.4z"/>
				<path class="st12" d="M1399.4,764c-0.4,0-0.7-0.2-0.9-0.6c-1.2-3-1.3-5.4-0.1-6.9c1.2-1.7,3.4-1.9,4.5-1.9l2.4-4.6
					c0.2-0.5,0.8-0.6,1.3-0.4c0.5,0.2,0.6,0.8,0.4,1.3l-2.9,5.7l-0.6-0.1c0,0-2.5-0.2-3.5,1.1c-0.7,1-0.6,2.7,0.3,5.1
					c0.2,0.5,0,1-0.5,1.2C1399.6,764,1399.5,764,1399.4,764z"/>
				<g>
					<path class="st12" d="M1399.8,772.1c3.6,5.1,8.2,2.9,11.4,0.3C1406.9,772.7,1402.9,772.5,1399.8,772.1z"/>
					<path class="st5" d="M1411.2,772.4c1.8-1.5,3.1-3.2,3.5-3.6c0-0.1,0-0.1-0.1-0.1c-9.3,0.6-15.6-0.1-16.6-0.2
						c-0.1,0-0.1,0.1-0.1,0.1c0.6,1.5,1.2,2.6,1.9,3.6C1402.9,772.5,1406.9,772.7,1411.2,772.4z"/>
				</g>
				<path class="st18" d="M1433.2,762.2c0,3.6-2.9,6.5-6.5,6.5c-3.6,0-6.5-2.9-6.5-6.5c0-3.6,2.9-6.5,6.5-6.5
					C1430.3,755.7,1433.2,758.6,1433.2,762.2z"/>
			</g>
		</g>
	</g>
</g>
</svg>
