<?xml version="1.0" encoding="utf-8"?>
<!-- Generator: Adobe Illustrator 25.2.1, SVG Export Plug-In . SVG Version: 6.00 Build 0)  -->
<svg version="1.1" id="Режим_изоляции"
	 xmlns="http://www.w3.org/2000/svg" xmlns:xlink="http://www.w3.org/1999/xlink" x="0px" y="0px" viewBox="0 0 550 450"
	 style="enable-background:new 0 0 550 450;" xml:space="preserve">
<style type="text/css">
	.st0{fill:#4183C4;}
	.st1{fill:#FCFCFC;}
	.st2{opacity:0.24;}
	.st3{fill:#0C0C0C;}
	.st4{fill:#FFFFFF;}
	.st5{fill:#BD79C6;}
	.st6{fill:#565684;}
	.st7{fill:#B79C7E;}
	.st8{fill:#C4B9FF;}
	.st9{fill:#F4BEAB;}
	.st10{fill:#925D9B;}
	.st11{fill:#9760A0;}
	.st12{fill:#EFEAEA;}
	.st13{fill:#D6D4D4;}
	.st14{fill:#FFCCB6;}
	.st15{fill:#F4E6E6;}
	.st16{fill:#DDA794;}
	.st17{fill:#D1B48F;}
	.st18{fill:#8C85C9;}
	.st19{fill:#7E4C87;}
	.st20{fill:#2F6591;}
	.st21{fill:#9B95D1;}
	.st22{fill:#9E63A8;}
	.st23{fill:#8380C1;}
	.st24{fill:#A099E0;}
	.st25{fill:#333232;}
	.st26{fill:#76497F;}
	.st27{fill:#2B2B2B;}
	.st28{fill:#9BB2BA;}
	.st29{fill:#BFD4DD;}
	.st30{opacity:0.65;}
	.st31{fill:#52767F;}
	.st32{fill:#8988E5;}
	.st33{fill:#C5C3F4;}
	.st34{fill:#6867A5;}
	.st35{fill:#794E82;}
	.st36{fill:#F0F0FF;}
	.st37{fill:#D58AE2;}
	.st38{fill:#754A7C;}
	.st39{fill:#FFE8C7;}
</style>
<g>
	<g>
		<g>
			<g>
				<g>
					<rect x="390.4" y="150.1" class="st0" width="20.7" height="72.5"/>
				</g>
				<g>
					<path class="st1" d="M402.3,188.9h-2.9c-1.1,0-2-0.9-2-2v-29.5c0-1.1,0.9-2,2-2h2.9c1.1,0,2,0.9,2,2v29.5
						C404.3,188,403.4,188.9,402.3,188.9z"/>
				</g>
				<g class="st2">
					<circle class="st3" cx="400.8" cy="211.8" r="3.9"/>
					<path class="st4" d="M400.8,216.1c-2.4,0-4.4-2-4.4-4.4s2-4.4,4.4-4.4s4.4,2,4.4,4.4S403.2,216.1,400.8,216.1z M400.8,208.4
						c-1.9,0-3.4,1.5-3.4,3.4c0,1.9,1.5,3.4,3.4,3.4c1.9,0,3.4-1.5,3.4-3.4C404.2,209.9,402.7,208.4,400.8,208.4z"/>
				</g>
			</g>
			<g>
				<g>
					<rect x="411" y="150.1" class="st5" width="20.7" height="72.5"/>
				</g>
				<g>
					<path class="st1" d="M422.8,188.9H420c-1.1,0-2.1-0.9-2.1-2.1v-29.4c0-1.1,0.9-2.1,2.1-2.1h2.8c1.1,0,2.1,0.9,2.1,2.1v29.4
						C424.9,188,424,188.9,422.8,188.9z"/>
				</g>
				<g class="st2">
					<circle class="st3" cx="421.4" cy="211.8" r="3.9"/>
					<path class="st4" d="M421.4,216.1c-2.4,0-4.4-2-4.4-4.4s2-4.4,4.4-4.4c2.4,0,4.4,2,4.4,4.4S423.8,216.1,421.4,216.1z
						 M421.4,208.4c-1.9,0-3.4,1.5-3.4,3.4c0,1.9,1.5,3.4,3.4,3.4s3.4-1.5,3.4-3.4C424.8,209.9,423.2,208.4,421.4,208.4z"/>
				</g>
			</g>
		</g>
		<g class="st2">
			<path class="st6" d="M520.8,417.7c0,4.5-140.2,9-255.3,8.5c-115.1-0.5-225.2-4.7-225.2-9.3c0-4.5,108.2-10.9,223.3-10.4
				C378.7,407.2,520.8,413.2,520.8,417.7z"/>
		</g>
		<g>
			<g>
				<polygon class="st7" points="247.7,277.7 307.1,409.3 292.4,409.3 235.5,281.6 				"/>
			</g>
		</g>
		<g>
			<g>
				<polygon class="st7" points="176.2,288.1 121,410.5 135.7,410.5 190,288.5 				"/>
			</g>
		</g>
		<g>
			<g>
				<path class="st8" d="M175.2,137.6c-16.7,5.3-20.1,13.9-24.4,27.7c-3.4,10.8-11,111.4,13.1,128.3c9.5,6.7,60.1,5.3,85.7,4.1
					c8.9-0.4,24,1.1,26.5-13.2l2-46.1c0,0-52.7-30.8-56.2-38.3c-3.5-7.5,0.4-51.2,0.4-51.2S208.9,126.8,175.2,137.6z"/>
			</g>
		</g>
		<g>
			<path class="st9" d="M257.3,393.1c10.6-28,56.1-106.3,47.6-120.5c-2.3-3.9-16.4-7-17.9-6.1c-1.6,0.9-43.7,128.4-43.7,128.4
				S256.1,396.4,257.3,393.1z"/>
		</g>
		<g>
			<path class="st10" d="M284,414.8c-8,3.1-25,0.6-29.3-3.2c-0.8-0.7-1.5-1.2-2.1-1.5c-0.4-0.2-0.7-0.3-1-0.4
				c-0.9-0.2-1.5,0-1.9,0.3c-0.7,0.5-0.8,1.3-0.8,1.3l-10.9-0.4l0.1-1.3l0-1l0.4-11.5c4.7-16.2,28.4,4.4,28.4,4.4l5.5,0.7
				C272.1,402.2,292.5,411.6,284,414.8z"/>
		</g>
		<g>
			<path class="st9" d="M239.7,391.7c0,0,14.9,15.8,23.4,15.4c10.9-0.5,11.8-3.1,8.6-5.2c-3.3-2.1-14.2-5.9-14.4-8.3
				c-0.2-1.8,1.1-6.6,1.1-6.6S241.6,388.5,239.7,391.7z"/>
		</g>
		<g>
			<path class="st11" d="M250,157.3c-1.2,6.9-3.3,20.7-20.3,15.1c-11-3.6-18.1-5.8-21.8-8.8c-2-1.6-3.1-3.4-3.1-5.9
				c-0.3-6.8-11.1-66.1-10.9-68.9c0.1-1,0.6-4.3,1.3-8.1c1.2-6.9,2.7-15.4,2.7-15.4s1.2-16.7,13.6-16.4c2.3,0,4.4,0.5,6.5,1.3
				c0.2,0.1,0.3,0.1,0.5,0.2c0.1,0,0.2,0.1,0.3,0.1c8.9,3.8,15.3,12.7,18,21.9c3.4,11.6-0.5,49.3,4.2,58.4
				C246.7,142.2,251.8,146.9,250,157.3z"/>
		</g>
		<g class="st2">
			<path class="st3" d="M237.4,170.5l-0.9-0.4c0.6-1.4,1.4-3,2.2-4.7c3.8-7.6,8.5-17,1.5-24.2c-6.7-7-6.9-26.3-7.2-43.3
				c-0.1-6.3-0.2-12.3-0.6-17.1c-1.8-21.1-16.7-24.6-16.9-24.6l0.2-1c0.2,0,15.8,3.7,17.7,25.5c0.4,4.8,0.5,10.8,0.6,17.1
				c0.2,16.9,0.4,36,6.9,42.7c7.4,7.7,2.4,17.9-1.3,25.4C238.8,167.5,238,169.1,237.4,170.5z"/>
		</g>
		<g>
			<path class="st12" d="M239.5,143.8c0,0,36.1,56.5,37.7,63.5c1.6,7-22.7,7.6-22.7,7.6l-22.9-21L239.5,143.8z"/>
		</g>
		<g>
			<path class="st13" d="M251.6,209.3c0,0,0.6-9.3,15.3-11.3c7.5-1,10.5,6.3,9.6,9.3s-9.1,8.2-9.6,8.2c-0.6,0-15.3-2-15.3-2V209.3z"
				/>
		</g>
		<g class="st2">
			<path class="st3" d="M229.8,135.7c7.8-48.9-12.4-74.7-26.7-65.1c-14.3,9.6-10.2,61.2-9.7,62.4s21.6,26.7,23.8,25.7
				C219.4,157.8,228.7,142.6,229.8,135.7z"/>
		</g>
		<g>
			<path class="st5" d="M232,389.5c0,0-20.1,14.9-22.4,23.1c-2.2,8.3,2.8,10.3,8.7,8.7c5.9-1.5,22.5-10.2,26.1-24.3
				c0.9-3.5-4.4-7-4.4-7L232,389.5z"/>
		</g>
		<g>
			<path class="st14" d="M287.1,266.5c-0.7-1.6-11.5-7.3-15.7-5.6c-5.5,2.2-23.8,25.9-27.9,57.3C238.5,355.1,232,390,232,390
				s-17.5,16.3-15.7,21c1.8,4.6,14.1-1.5,20.3-5.8c2.9-2,5.2-6.5,6.6-9.7C256.2,365.3,287.7,268.1,287.1,266.5z"/>
		</g>
		<g>
			<path class="st5" d="M213.1,150.8c-0.1,2.5-1.9,7.7-5.2,12.9c-5.7,8.9-16.7,21.3-31.3,16.8c-8.3-2.6-13.9-5.8-17.3-9.7
				c-0.3-0.4-0.6-0.7-0.9-1.1c-2.7-3.5-3.8-7.6-3.8-12.2c0-0.6,0-1.3,0-1.9c0-0.7,0.1-1.5,0.2-2.2c1.2-11.4,14.2-17.6,19.1-28.6
				c4.3-9.7-1.1-37.4,5.2-57.7c3.6-11.6,13.5-24.7,26.8-25h0c0.8,0,1.6,0,2.3,0.1c3.4,0.5,5.9,2.2,7.7,4.3c0.2,0.3,0.5,0.6,0.7,0.9
				c0.6,0.9,1.2,1.8,1.6,2.7c0.1,0.1,0.1,0.3,0.2,0.5c0,0.1,0.1,0.2,0.1,0.3c-2.6,2.5-4.6,5.5-5.7,8.9c-0.2,0.6-0.3,1.1-0.4,1.6
				c-0.5,3.6,1.6,6.9,4.6,9.1c1.9,1.4,4.1,2.4,6.3,3c0.7,4-4.6,8-4.5,9.1C219.2,85.2,213.4,144,213.1,150.8z"/>
		</g>
		<g class="st2">
			<path class="st3" d="M196,106.1c4.4,16.3-1.8,30.7-5.7,33.1c-0.3,0.2,21-1.4,22.6-7.5C217.2,115.5,194.2,99.3,196,106.1z"/>
		</g>
		<g>
			<path class="st0" d="M240.9,248.9c0,11.2-5.4,21.1-13.7,27.2c-5.7,4.2-12.7,6.8-20.4,6.8h-0.2c-3.8,0-7.4-0.7-10.8-1.8
				c-13.4-4.6-23-17.2-23-32.2c0-6.3,1.7-12.2,4.7-17.2c5.9-10,16.8-16.8,29.3-16.8c11.9,0,22.3,6.1,28.4,15.3
				C238.8,235.6,240.9,242,240.9,248.9z"/>
		</g>
		<g>
			<path class="st14" d="M202.5,114c0,0,2.5,22.5-9.9,24.5h35.7c0,0-13.9-3.6-8.8-26.1C219.5,112.5,208.3,107.6,202.5,114z"/>
		</g>
		<g>
			<path class="st4" d="M239.5,225.4l-53.9,1.1c0,0-0.3-1.6-0.8-4.4c-2.7-15.1-11.3-65.1-7.2-75.2c0,0,0,0,0,0
				c0.2-0.6,0.6-1.1,0.9-1.4c0,0,0.1-0.1,0.1-0.1c0.3-0.2,0.6-0.5,0.9-0.7c6.8-5.2,13-6.2,13-6.2h35.7c0,0,6.4,2.2,10.6,4.2
				c1.7,0.8,4.9,15.7,10.7,33.2C253.4,187.7,239.5,225.4,239.5,225.4z"/>
		</g>
		<g>
			<path class="st15" d="M198.7,137.2l17.8,23.3l11.7-22c0,0,10.1,2.4,11.2,5c0.7,1.6-22.5,22.5-22.5,22.5l-34.8-23.4
				C182.3,142.6,188,135.6,198.7,137.2z"/>
		</g>
		<g>
			<path class="st16" d="M260.8,207.3c-3.8,2.9-7.8,6.3-7.3,8.2l27.9,0.3c0,0,0.8-4.2-4.8-8.5C271.9,203.7,265.5,203.8,260.8,207.3z
				"/>
		</g>
		<g>
			<path class="st0" d="M305,272.6c0,0-19.5-4.9-39,7.5c0,0,0,0,0,0c-4.2,2.7-11.1,6.2-15.1,10.8l-5.9-1.1l-0.8-0.1l-37.5-6.7
				l-10.8-1.8l6.8-8.8l32.6-42c0,0,42.1,16.6,63,35.3c0.3,0.3,0.6,0.5,0.9,0.8C301.4,268.5,303.4,270.6,305,272.6z"/>
		</g>
		<g class="st2">
			<path class="st3" d="M266,280.1C266,280.1,266,280.1,266,280.1c-4.3,2.7-11.1,6.2-15.2,10.8l-44.2-7.9c-3.8,0-7.4-0.7-10.8-1.8
				c-13.4-4.6-23-17.2-23-32.2c0-6.3,1.7-12.2,4.7-17.2c2.5,0,4.4-0.1,4.4-0.1s-2.3,32.5,20.7,40.7C225.7,280.6,266,280.1,266,280.1
				z"/>
		</g>
		<g>
			<g>
				<polygon class="st17" points="338,236.5 338,415.3 326.7,415.3 317.9,245.5 317.5,238.3 				"/>
			</g>
		</g>
		<g class="st2">
			<g>
				<polygon points="338,238.3 338,245.5 317.9,245.5 317.5,238.3 				"/>
			</g>
		</g>
		<g>
			<g>
				<polygon class="st17" points="73.3,238.3 72.9,245.5 64,417 52.8,417 52.8,238.3 				"/>
			</g>
		</g>
		<g>
			<g>
				<polygon class="st17" points="436.3,238.3 436.3,417 425.1,417 416.2,245.5 415.9,238.3 				"/>
			</g>
		</g>
		<g>
			<g>
				<g>
					<circle class="st8" cx="94" cy="66.4" r="30.1"/>
				</g>
			</g>
			<g>
				<g>
					<path class="st18" d="M94,92.9c-14.6,0-26.4-11.9-26.4-26.4C67.6,51.9,79.4,40,94,40c14.6,0,26.4,11.9,26.4,26.4
						C120.4,81,108.5,92.9,94,92.9z M94,41.1c-14,0-25.3,11.4-25.3,25.3S80,91.8,94,91.8s25.3-11.4,25.3-25.3S107.9,41.1,94,41.1z"
						/>
				</g>
			</g>
			<g>
				<g>
					<g>
						<path class="st18" d="M96.3,66.6c0,1.2-1,2.2-2.2,2.2c-1.2,0-2.2-1-2.2-2.2c0-1.2,1-2.2,2.2-2.2
							C95.4,64.4,96.3,65.4,96.3,66.6z"/>
					</g>
				</g>
				<g>
					<g>
						<path class="st18" d="M94.8,67.4c-0.3,0-0.6-0.1-0.8-0.4c-0.4-0.5-0.3-1.1,0.1-1.5l8.5-7.2c0.5-0.4,1.1-0.3,1.5,0.1
							c0.4,0.5,0.3,1.1-0.1,1.5l-8.5,7.2C95.3,67.3,95,67.4,94.8,67.4z"/>
					</g>
				</g>
				<g>
					<g>
						<path class="st18" d="M93.7,68c-0.1,0-0.1,0-0.2,0l-12.2-2.5c-0.6-0.1-1-0.7-0.9-1.3c0.1-0.6,0.7-1,1.3-0.9l12.2,2.5
							c0.6,0.1,1,0.7,0.9,1.3C94.7,67.6,94.2,68,93.7,68z"/>
					</g>
				</g>
			</g>
		</g>
		<g>
			<g>
				<g>
					<path class="st5" d="M348.8,108.8h-36.2c-1.8,0-3.3-1.5-3.3-3.3V88.6c0-1.8,1.5-3.3,3.3-3.3h36.2c1.8,0,3.3,1.5,3.3,3.3v16.9
						C352.1,107.3,350.6,108.8,348.8,108.8z"/>
				</g>
			</g>
			<g>
				<g>
					<g>
						<path class="st19" d="M347.3,92.6h-31.9c-0.3,0-0.6-0.3-0.6-0.6s0.3-0.6,0.6-0.6h31.9c0.3,0,0.6,0.3,0.6,0.6
							S347.6,92.6,347.3,92.6z"/>
					</g>
				</g>
				<g>
					<g>
						<path class="st19" d="M339.6,97.6h-23.7c-0.3,0-0.6-0.3-0.6-0.6c0-0.3,0.3-0.6,0.6-0.6h23.7c0.3,0,0.6,0.3,0.6,0.6
							C340.2,97.4,339.9,97.6,339.6,97.6z"/>
					</g>
				</g>
				<g>
					<g>
						<path class="st19" d="M340.1,102.6h-24.7c-0.3,0-0.6-0.3-0.6-0.6c0-0.3,0.3-0.6,0.6-0.6h24.7c0.3,0,0.6,0.3,0.6,0.6
							C340.7,102.4,340.5,102.6,340.1,102.6z"/>
					</g>
				</g>
			</g>
		</g>
		<g>
			<g>
				<g>
					<path class="st0" d="M395.5,117.4h-19.6c-3.3,0-6.1-2.7-6.1-6.1v-9.5c0-3.3,2.7-6.1,6.1-6.1h19.6c3.3,0,6.1,2.7,6.1,6.1v9.5
						C401.5,114.7,398.8,117.4,395.5,117.4z"/>
				</g>
			</g>
			<g>
				<g>
					<g>
						<path class="st20" d="M396.8,102.2h-21.9c-0.3,0-0.6-0.3-0.6-0.6c0-0.3,0.3-0.6,0.6-0.6h21.9c0.3,0,0.6,0.3,0.6,0.6
							C397.4,101.9,397.2,102.2,396.8,102.2z"/>
					</g>
				</g>
				<g>
					<g>
						<path class="st20" d="M391.6,107.2h-16.3c-0.3,0-0.6-0.3-0.6-0.6c0-0.3,0.3-0.6,0.6-0.6h16.3c0.3,0,0.6,0.3,0.6,0.6
							C392.2,106.9,391.9,107.2,391.6,107.2z"/>
					</g>
				</g>
				<g>
					<g>
						<path class="st20" d="M392,112.2h-17c-0.3,0-0.6-0.3-0.6-0.6c0-0.3,0.3-0.6,0.6-0.6h17c0.3,0,0.6,0.3,0.6,0.6
							C392.5,111.9,392.3,112.2,392,112.2z"/>
					</g>
				</g>
			</g>
		</g>
		<g>
			<g>
				<g>
					<path class="st8" d="M351,147.5h-23c-2.4,0-4.4-2-4.4-4.4v-12.9c0-2.4,2-4.4,4.4-4.4h23c2.4,0,4.4,2,4.4,4.4v12.9
						C355.4,145.5,353.4,147.5,351,147.5z"/>
				</g>
			</g>
			<g>
				<g>
					<g>
						<path class="st21" d="M351.1,132h-21.9c-0.3,0-0.6-0.3-0.6-0.6c0-0.3,0.3-0.6,0.6-0.6h21.9c0.3,0,0.6,0.3,0.6,0.6
							C351.7,131.8,351.4,132,351.1,132z"/>
					</g>
				</g>
				<g>
					<g>
						<path class="st21" d="M345.9,137h-16.3c-0.3,0-0.6-0.3-0.6-0.6c0-0.3,0.3-0.6,0.6-0.6h16.3c0.3,0,0.6,0.3,0.6,0.6
							C346.4,136.8,346.2,137,345.9,137z"/>
					</g>
				</g>
				<g>
					<g>
						<path class="st21" d="M346.2,142h-17c-0.3,0-0.6-0.3-0.6-0.6c0-0.3,0.3-0.6,0.6-0.6h17c0.3,0,0.6,0.3,0.6,0.6
							C346.8,141.8,346.5,142,346.2,142z"/>
					</g>
				</g>
			</g>
		</g>
		<g class="st2">
			<g>
				<polygon points="73.3,238.3 72.9,245.5 52.8,245.5 52.8,238.3 				"/>
			</g>
		</g>
		<g class="st2">
			<g>
				<polygon points="436.3,238.3 436.3,245.5 416.2,245.5 415.9,238.3 				"/>
			</g>
		</g>
		<g>
			<g>
				<polygon class="st17" points="179.5,238.3 179.2,245.5 170.3,419.4 159.1,419.4 159.1,238.3 				"/>
			</g>
		</g>
		<g class="st2">
			<g>
				<polygon points="179.5,238.3 179.2,245.5 159.1,245.5 159.1,238.3 				"/>
			</g>
		</g>
		<g>
			<g>
				<g>
					<path class="st22" d="M518.9,355.8l-6.6,45.1l-0.8,5.7c-0.8,5.7-5.7,9.9-11.5,9.9h-30c-5.9,0-10.9-4.4-11.5-10.3l-0.6-4.8
						l-5.4-45.8c-0.4-3.5,2.3-6.6,5.9-6.6H513C516.7,349,519.4,352.2,518.9,355.8z"/>
				</g>
			</g>
			<g>
				<g>
					<g>
						<g>
							<path class="st23" d="M464.2,293.1c9.5,0,15,16.9,13.7,25.2c-1.3,8.3,2,26.5,2,26.5s-14.5,4-14-24.2
								C466,313.7,456.8,293.1,464.2,293.1z"/>
						</g>
					</g>
					<g>
						<g>
							<path class="st24" d="M498.3,306.4c0,0,7.6-15,11.9-13.7c4.2,1.3,7.7,17.7,5,23.2c-2.6,5.5-9.5,31.7-16.9,30.9
								c-7.4-0.8-21.4-8.5-18.5-14.1C482.8,327,498.3,306.4,498.3,306.4z"/>
						</g>
					</g>
					<g>
						<g>
							<path class="st24" d="M481.4,357.2c-1.2-5.5-8.2-18.9-8.8-24.6c-2.6-2.5-12.6-15.2-19.9-14.5c-8.2,0.8,7.3,23.8,17.2,34.3
								C470.1,349.6,482,360.1,481.4,357.2z"/>
						</g>
					</g>
					<g>
						<g>
							<path class="st8" d="M506.3,352.3c-2.4,1.2-5.7,2-9.3,2.4c-0.7,0.1-1.4,0.2-2.1,0.2c-6.8,0.5-14.1,0.1-18-0.2
								c-1.8-0.1-3.4-0.9-4.6-2.2c-0.4-0.4-0.8-0.8-1.3-1.3c-1.3-1.3-2.4-8.4-2.7-10.2c-0.8-4.6-2.4-48.3,17.4-76.9
								c2.1-3.1,4.5-4.4,6.5-4.5c0.4,0,0.8,0,1.3,0.1c3,0.6,5.4,3.8,5.7,7.7c1.3,17.4,1.8,44.3-7,53.8c-13.4,14.4-4,20.2,0.4,15.9
								c3.5-3.4,11.5-21.3,17.3-20.4c0.4,0.1,0.7,0.2,1.1,0.4c1.1,0.6,2.1,2.1,2.9,4.5C519.3,337.5,515.3,347.6,506.3,352.3z"/>
						</g>
					</g>
				</g>
				<g>
					<g>
						<g>
							<path class="st24" d="M478.4,352.1c0,0.3-0.2,0.5-0.4,0.6c0,0-0.1,0-0.1,0c-0.3,0-0.5-0.2-0.5-0.5
								c-0.1-0.6-8.8-60.8,14.9-92.6c0.4,0,0.8,0,1.3,0.1C469.6,291,478.3,351.4,478.4,352.1z"/>
						</g>
					</g>
				</g>
				<g>
					<g>
						<path class="st24" d="M510.9,317.1c-0.6,7.2-3.1,28.7-13.9,37.6c-2.1,1.8-4.6,3-7.4,3.6l-0.2-1c2-0.4,3.9-1.2,5.5-2.3
							c11.7-7.9,14.4-31.2,15-38.1C510.2,316.8,510.6,316.9,510.9,317.1z"/>
					</g>
				</g>
				<g>
					<g>
						<path class="st24" d="M479.3,293.1c-0.1,0-0.3,0-0.4-0.1c-0.2-0.2-0.2-0.5,0-0.7l13.4-14.7c0.2-0.2,0.5-0.2,0.7,0
							c0.2,0.2,0.2,0.5,0,0.7l-13.4,14.7C479.5,293.1,479.4,293.1,479.3,293.1z"/>
					</g>
				</g>
				<g>
					<g>
						<path class="st24" d="M477.1,314.3c-0.1,0-0.3,0-0.4-0.1c-0.2-0.2-0.2-0.5,0-0.7l12.4-13.7c0.2-0.2,0.5-0.2,0.7,0
							c0.2,0.2,0.2,0.5,0,0.7l-12.4,13.7C477.4,314.2,477.2,314.3,477.1,314.3z"/>
					</g>
				</g>
				<g>
					<g>
						<path class="st24" d="M476.3,333.4c-0.2,0-0.4-0.1-0.5-0.3c-1.7-2.8-6-10-6.2-10.3c-0.2-0.2-0.1-0.6,0.1-0.7
							c0.2-0.2,0.6-0.1,0.7,0.1c0.3,0.4,6,9.9,6.2,10.3c0.2,0.3,0.1,0.6-0.2,0.7C476.5,333.4,476.4,333.4,476.3,333.4z"/>
					</g>
				</g>
				<g>
					<g>
						<path class="st24" d="M504.3,344c-0.2,0-0.4-0.1-0.5-0.3l-3.7-9.8c-0.1-0.3,0-0.6,0.3-0.7c0.3-0.1,0.6,0,0.7,0.3l3.7,9.8
							c0.1,0.3,0,0.6-0.3,0.7C504.4,343.9,504.4,344,504.3,344z"/>
					</g>
				</g>
				<g>
					<g>
						<path class="st24" d="M478.5,349.6c-0.1,0-0.2,0-0.3-0.1c-0.2-0.2-0.3-0.5-0.1-0.7c0.2-0.3,4.5-6.4,6.7-8.4
							c0.2-0.2,0.6-0.2,0.7,0.1c0.2,0.2,0.2,0.6-0.1,0.7c-2.2,1.9-6.5,8.1-6.6,8.2C478.8,349.5,478.7,349.6,478.5,349.6z"/>
					</g>
				</g>
			</g>
			<g>
				<g>
					<path class="st5" d="M518.9,355.8l-1,7.1l-0.1,1.1l-4.8,32.9c-0.7,4.6-4.1,8.5-8.6,9.5c-1,0.2-1.9,0.3-3,0.3h-32.9
						c-5.7-0.1-10.4-4.5-11.1-10.2l-3.8-32.5l-0.1-1.1l-0.9-7.3c-0.4-3.5,2.3-6.6,5.9-6.6H513C516.7,349,519.4,352.2,518.9,355.8z"
						/>
				</g>
			</g>
			<g>
				<g>
					<g>
						<polygon class="st22" points="517.8,362.9 517.7,363.9 453.4,363.9 453.3,362.9 						"/>
					</g>
				</g>
			</g>
		</g>
		<g>
			<polygon class="st14" points="194.5,137 216.5,160.6 228.2,138.6 214.5,135.7 			"/>
		</g>
		<g class="st2">
			<path class="st25" d="M202.5,114c0,0,14.9,1.4,17.4-1.3c0,0-1.1,2.8-1.7,3.7c-1,1.5-5.4,2.1-7.8,2
				C205.3,118.1,202.5,114,202.5,114z"/>
		</g>
		<g>
			<path class="st14" d="M230.2,88.9c0,15.4-7.7,27.9-18.9,27.9c-11.2,0-20.3-12.5-20.3-27.9c0-15.4,9.1-27.9,20.3-27.9
				C222.5,61,230.2,73.5,230.2,88.9z"/>
		</g>
		<g>
			<path class="st16" d="M212.4,99.1c-0.1,0-0.1,0-0.2,0c-0.2-0.1-0.3-0.3-0.2-0.5c0.3-0.7,2.4-2.4,3.6-3.2
				c-0.8-0.4-1.6-1.1-2.3-2.2c-1.3-1.8-2.4-4.7-1.7-7.3c0.1-0.2,0.3-0.3,0.5-0.3c0.2,0.1,0.3,0.3,0.3,0.5c-0.6,2.3,0.4,4.9,1.6,6.6
				c0.9,1.2,1.9,2.1,2.6,2.1c0.2,0,0.3,0.1,0.3,0.3c0,0.2,0,0.3-0.1,0.4c-1.4,1-3.7,2.8-3.9,3.4C212.7,99,212.5,99.1,212.4,99.1z"/>
		</g>
		<g>
			<path class="st16" d="M212,105.5c-2.5,0-4.4-0.9-4.8-1.2c-0.2-0.1-0.3-0.3-0.2-0.5c0.1-0.2,0.3-0.3,0.5-0.3
				c0.1,0,0.2,0.1,0.2,0.2c0.5,0.4,4.8,2.4,9.3-0.3c0.2-0.1,0.4,0,0.5,0.1c0.1,0.2,0,0.4-0.1,0.5C215.4,105.1,213.6,105.5,212,105.5
				z"/>
		</g>
		<g>
			<g>
				<g>
					<path class="st26" d="M194.2,82.1c-0.7,0.2,1.5-2.5,7.3-2.9c1.7-0.1,4.6,0.1,5.2,0.8c0.5,0.6,0.3,2.1-2.8,1.8
						C201.7,81.6,197.7,81.2,194.2,82.1z"/>
				</g>
			</g>
		</g>
		<g>
			<g>
				<g>
					<g>
						<path class="st27" d="M201,87.3c-0.2,1.2,0.3,2.2,1,2.3c0.7,0.1,1.5-0.8,1.6-1.9c0.2-1.2-0.3-2.2-1-2.3
							C201.9,85.3,201.2,86.1,201,87.3z"/>
					</g>
				</g>
			</g>
			<g>
				<g>
					<g>
						<polygon class="st27" points="198.3,85.5 204.3,85.1 204.2,86.9 198.3,86.1 						"/>
					</g>
				</g>
			</g>
		</g>
		<g>
			<g>
				<g>
					<path class="st26" d="M228.1,82.4c0.7,0.2-1.2-2.8-7-3.2c-1.7-0.1-3.2-0.2-4.1,0.3c-1.4,0.9,0.1,2.6,2,2.3
						C221.1,81.5,224.6,81.5,228.1,82.4z"/>
				</g>
			</g>
		</g>
		<g>
			<g>
				<g>
					<g>
						<path class="st27" d="M223.9,87.6c0.1,1.2-0.4,2.2-1.1,2.3c-0.7,0.1-1.4-0.8-1.5-2c-0.1-1.2,0.4-2.2,1.1-2.3
							C223.1,85.5,223.8,86.4,223.9,87.6z"/>
					</g>
				</g>
			</g>
			<g>
				<g>
					<g>
						<polygon class="st27" points="225.9,86 220,84.9 219.9,86.7 225.8,86.5 						"/>
					</g>
				</g>
			</g>
		</g>
		<g>
			<path class="st16" d="M212.2,108.4c-1.1,0-1.9-0.6-1.9-0.6c-0.2-0.1-0.2-0.4,0-0.5c0.1-0.2,0.4-0.2,0.5,0l0,0c0,0,1.2,1,3.1,0
				c0.2-0.1,0.4,0,0.5,0.1c0.1,0.2,0,0.4-0.1,0.5C213.5,108.2,212.8,108.4,212.2,108.4z"/>
		</g>
		<g>
			<path class="st12" d="M185,168.2c0,0,5.8,25.9,1.1,32.4c-2.2,3.1,0.9,7.8,10.5,4.7c9.6-3.2,32.2-5.1,34-1.2c0,0,4-11.8-21.2-5.3
				c-10.3,2.6-17.6,2-17.9-3.7C191.4,189.3,185,168.2,185,168.2z"/>
		</g>
		<g>
			<path class="st4" d="M177.6,146.9c0,0-27.4,48.7-23.9,75.2h73.1c0,0,8.4-20.8,0.5-23.2s-40.1,10.7-41.2,3.8s8-23.1,4.8-33.4
				C187.9,159,177.6,146.9,177.6,146.9z"/>
		</g>
		<g>
			<path class="st14" d="M230.4,203.4c0,0,6.8-1.7,15.6,1.2c7.4,2.4,15.7,11.1,15.7,11.1l-14.1-0.3c0,0,0,0.5-4.3,0.5
				s-12.9,0.7-12.9,0.7V203.4z"/>
		</g>
		<g>
			<g>
				<g>
					<rect x="88.9" y="208.8" class="st28" width="64.9" height="13.3"/>
				</g>
			</g>
			<g>
				<g>
					<rect x="146.5" y="208.8" class="st29" width="56.4" height="13.3"/>
				</g>
			</g>
			<g class="st30">
				<g>
					<rect x="88.9" y="211.3" class="st31" width="114" height="1.1"/>
				</g>
			</g>
			<g class="st30">
				<g>
					<rect x="88.9" y="214.9" class="st31" width="114" height="1.1"/>
				</g>
			</g>
			<g class="st30">
				<g>
					<rect x="88.9" y="218.6" class="st31" width="114" height="1.1"/>
				</g>
			</g>
		</g>
		<g>
			<g>
				<g>
					<g>
						<rect x="221.7" y="215.4" class="st32" width="59.1" height="6.6"/>
					</g>
				</g>
				<g>
					<g>
						<polygon class="st32" points="299.1,160.1 265.3,222.1 361.9,222.1 392.8,162.3 						"/>
					</g>
				</g>
				<g>
					<g>
						<polygon class="st33" points="302.8,160.2 269,222.1 365.6,222.1 396.6,162.3 						"/>
					</g>
				</g>
			</g>
			<g>
				<g>
					<path class="st34" d="M260.4,220.5h-7c-0.5,0-0.9-0.4-0.9-0.9v-1.3c0-0.5,0.4-0.9,0.9-0.9h7c0.5,0,0.9,0.4,0.9,0.9v1.3
						C261.3,220.1,260.9,220.5,260.4,220.5z"/>
				</g>
			</g>
			<g>
				<g>
					<path class="st34" d="M245.5,220.5h-6.9c-0.5,0-0.9-0.4-0.9-0.9v-1.2c0-0.5,0.4-0.9,0.9-0.9h6.9c0.5,0,0.9,0.4,0.9,0.9v1.2
						C246.4,220,246,220.5,245.5,220.5z"/>
				</g>
			</g>
		</g>
		<g>
			<path class="st1" d="M205,94.4c-3.1,0-5.4-1-5.4-2.4c0-1.4,2.3-2.4,5.4-2.4c3.1,0,5.4,1,5.4,2.4C210.4,93.4,208.1,94.4,205,94.4z
				 M205,90.3c-2.7,0-4.7,0.9-4.7,1.7s2,1.7,4.7,1.7c2.7,0,4.7-0.9,4.7-1.7S207.7,90.3,205,90.3z"/>
		</g>
		<g>
			<path class="st1" d="M220.8,94.4c-3.1,0-5.5-1-5.5-2.4c0-1.4,2.4-2.4,5.5-2.4c3.1,0,5.5,1,5.5,2.4
				C226.3,93.4,224,94.4,220.8,94.4z M220.8,90.3c-2.7,0-4.7,0.9-4.7,1.7s2,1.7,4.7,1.7c2.7,0,4.7-0.9,4.7-1.7
				S223.5,90.3,220.8,90.3z"/>
		</g>
		<g>
			<path class="st1" d="M210.3,92.3l-0.6-0.5c0,0,2.8-3,6.3-0.1l-0.5,0.6C212.6,89.8,210.4,92.2,210.3,92.3z"/>
		</g>
		<g>
			<path class="st35" d="M218.7,50.5l-4.6,10.7h-0.2l-1.4,0l-3.4-0.1l1.1-1.4l7.8-9.6l0.2-0.3c0.1,0.1,0.1,0.3,0.2,0.5
				C218.5,50.4,218.6,50.5,218.7,50.5z"/>
		</g>
		<g>
			<path class="st14" d="M229.5,88.2c0.2-0.5,2.6-1.3,3.1,0.7c1.2,5.4-3.9,10-3.9,10S228.6,90.1,229.5,88.2z"/>
		</g>
		<g>
			<path class="st36" d="M346.6,192.7h-14.2c-1.1,0-2-0.9-2-2v-0.9c0-1.1,0.9-2,2-2h14.2c1.1,0,2,0.9,2,2v0.9
				C348.6,191.8,347.7,192.7,346.6,192.7z"/>
		</g>
		<g>
			<g>
				<path class="st12" d="M191.2,170.3c0,1.8-0.1,3.8-0.4,5.9c0,0.3-0.2,0.4-0.5,0.4h-0.1c-0.3,0-0.5-0.3-0.4-0.6
					c0.4-3.4,0.4-6.4,0.3-9.1c-0.8-14.6-8-19.9-11.5-21.6c0.3-0.2,0.6-0.5,0.9-0.7C183.7,146.9,191.5,153.3,191.2,170.3z"/>
			</g>
		</g>
		<g>
			<path class="st16" d="M231.3,92.7c0,0-0.1,0-0.1,0c-0.1-0.1-0.2-0.2-0.1-0.3c0.7-1.6,0.6-2.3,0.4-2.6c-0.2-0.3-0.6-0.3-0.7-0.3
				c-0.1,0-0.3-0.1-0.3-0.2c0-0.1,0.1-0.3,0.2-0.3c0,0,0.7,0,1.1,0.5c0.4,0.6,0.3,1.7-0.3,3.1C231.5,92.6,231.4,92.7,231.3,92.7z"/>
		</g>
		<g>
			<path class="st16" d="M229.6,96.9c0,0-0.1,0-0.1,0c-0.1-0.1-0.2-0.2-0.1-0.3l1.3-2.3c0.1-0.1,0.2-0.2,0.3-0.1
				c0.1,0.1,0.2,0.2,0.1,0.3l-1.3,2.3C229.8,96.8,229.7,96.9,229.6,96.9z"/>
		</g>
		<g class="st2">
			<g>
				<path class="st3" d="M299.2,266.4c-31.4-2.2-47.9,14.7-54.2,23.4l-0.8-0.1c6.2-8.6,22.7-25.9,54.2-24.1
					C298.6,265.9,298.9,266.2,299.2,266.4z"/>
			</g>
		</g>
		<g class="st2">
			<path class="st3" d="M214.4,61.3c-19.5,15.7-17.9,46.3-17.7,47.2L191,97.1c0,0,10.6-40.1,10.9-40.1c0.2,0.2,3.5,3,7,4.2l0.1,0.1
				l3.4,0.1l1.4,0C214.1,61.3,214.4,61.3,214.4,61.3z"/>
		</g>
		<g>
			<path class="st5" d="M212.1,56.2c0,0-16.6,24.5-17.3,39.4c-0.6,12.3,4.7,18.2-0.3,17.7c-4.3-0.4-15.5-25.4-15.5-25.4
				s9.5-29.3,10-29.5C189.5,58.2,212.5,53.4,212.1,56.2z"/>
		</g>
		<g class="st2">
			<g>
				<path class="st3" d="M208.1,42.1c-10.2,4-20.5,12-24.4,27.8c-2.5,10-1.8,19.9-1,29.5c1.1,14.2,2.1,27.7-8.8,37.8
					c-1.8,1.6-3.4,3.1-4.9,4.6c-7.1,6.5-11.8,10.9-14.5,15.6c0-0.6,0-1.3,0-1.9c2.9-4.4,7.4-8.6,13.8-14.4c1.5-1.4,3.2-2.9,4.9-4.6
					c10.5-9.9,9.6-22.5,8.5-37c-0.7-9.6-1.5-19.6,1-29.8c3.8-15.3,13.3-23.4,23.1-27.7h0C206.6,41.9,207.4,42,208.1,42.1z"/>
			</g>
		</g>
		<g class="st2">
			<g>
				<path class="st3" d="M189.7,76c-2.6,10.2-1.5,19.8-0.4,29.1c1.5,13.1,2.9,25.5-7.9,35.5c-1.8,1.6-3.4,3.1-4.9,4.6
					c-11.5,10.6-16.7,15.4-17.3,25.5c-0.3-0.4-0.6-0.7-0.9-1.1c0.9-9.9,6.5-15,17.5-25.2c1.5-1.4,3.2-2.9,4.9-4.6
					c10.4-9.7,9.1-21.3,7.6-34.7c-1.1-9.4-2.1-19,0.5-29.5c5-20.1,15.8-27,27-29.4c0.2,0.3,0.5,0.6,0.7,0.9
					C205.4,49.6,194.7,56.2,189.7,76z"/>
			</g>
		</g>
		<g>
			<g>
				<g>
					<path class="st37" d="M115,218.1c-5-0.1-10.3-7.3-10.2-12.1c0.1-4.9,5-9.6,9.9-9.4c4.2,0.1,7.1,4.2,7,9.8
						C121.5,213.8,119,218.2,115,218.1z M114.6,199.9c-2.7-0.1-6.3,2.9-6.4,6.1c-0.1,3.3,4.2,8.6,6.9,8.7c1.9,0,3.1-4.2,3.2-8.4
						C118.3,203.9,117.6,200,114.6,199.9z"/>
				</g>
			</g>
			<g>
				<g>
					<path class="st37" d="M133.3,222.6c-1.8,2.6-6.2,1.3-10.8,1.7c-9.3,0.7-9.3-3.4-9.8-10.2c-0.7-8.3,0.1-17.8,0.1-17.8l0.6,0
						l22.2-0.5C135.7,195.9,136.6,217.8,133.3,222.6z"/>
				</g>
			</g>
			<g>
				<g>
					<path class="st38" d="M135.7,195.9c0,0.6-5.1,1.2-11.4,1.3c-6.3,0.1-11.4-0.2-11.4-0.8c0-0.6,5.1-1.2,11.4-1.3
						C130.5,194.9,135.7,195.3,135.7,195.9z"/>
				</g>
			</g>
			<g>
				<g>
					<path class="st8" d="M125.3,189.4c-0.1,0-0.1,0-0.2,0c-0.3-0.1-0.4-0.4-0.3-0.7c1.5-4.1,0.1-5.9-1.2-7.6
						c-0.8-1.1-1.7-2.1-1.6-3.7c0.1-4.9,4.9-6.3,4.9-6.3c0.3-0.1,0.6,0.1,0.7,0.4c0.1,0.3-0.1,0.6-0.4,0.7c-0.2,0-4,1.3-4.1,5.3
						c0,1.1,0.6,2,1.4,3c1.4,1.7,3.1,3.9,1.4,8.6C125.8,189.3,125.5,189.4,125.3,189.4z"/>
				</g>
			</g>
		</g>
		<g>
			<g>
				<rect x="75.1" y="222.1" class="st39" width="372.4" height="16.2"/>
			</g>
		</g>
		<g>
			<g>
				<rect x="46.1" y="222.1" class="st17" width="138.2" height="16.2"/>
			</g>
		</g>
	</g>
</g>
</svg>
