<?xml version="1.0" encoding="utf-8"?>
<!-- Generator: Adobe Illustrator 25.2.1, SVG Export Plug-In . SVG Version: 6.00 Build 0)  -->
<svg version="1.1" id="_x2014_лой_x5F_1" xmlns="http://www.w3.org/2000/svg" xmlns:xlink="http://www.w3.org/1999/xlink"
	 x="0px" y="0px" viewBox="0 0 2500 1900" style="enable-background:new 0 0 2500 1900;" xml:space="preserve">
<style type="text/css">
	.st0{fill:#F7F0DC;}
	.st1{fill:#B799BF;}
	.st2{fill:#43291E;}
	.st3{fill:#F6E6AF;}
	.st4{fill:#EFACA0;}
	.st5{opacity:0.42;fill:#4D4D4D;}
	.st6{fill:#FFFFFF;}
	.st7{fill:#632673;}
	.st8{fill:#F55A46;}
	.st9{opacity:0.46;fill:#4D4D4D;}
	.st10{fill:#CE7C5F;}
	.st11{fill:#F29799;}
	.st12{fill:#512068;}
	.st13{clip-path:url(#SVGID_1_);}
	.st14{fill:#82B73D;}
	.st15{fill:#BC7157;}
</style>
<g>
	<ellipse class="st0" cx="1313.5" cy="1750.5" rx="853.5" ry="47.5"/>
	<g>
		<rect x="1962" y="1060" class="st1" width="37" height="674"/>
		<rect x="1738" y="1060" class="st2" width="37" height="674"/>
	</g>
	<g>
		<rect x="794" y="1060" class="st1" width="37" height="674"/>
		<rect x="570" y="1060" class="st2" width="37" height="674"/>
	</g>
	<rect x="512" y="1041" class="st2" width="1311" height="31"/>
	<rect x="733" y="1041" class="st1" width="1311" height="31"/>
	<g>
		<rect x="1022" y="919" class="st1" width="340" height="99"/>
		<path class="st1" d="M1692.8,928H620.9c-45.2,0-81.9-36.7-81.9-81.9V317c0-45.2,36.7-81.9,81.9-81.9h1071.9
			c45.2,0,81.9,36.7,81.9,81.9v529.1C1774.7,891.3,1738.1,928,1692.8,928z"/>
		<rect x="973" y="1001" class="st1" width="374" height="41"/>
		<path class="st1" d="M1741.4,928H652.9c-40.7,0-73.6-33-73.6-73.6V308.7c0-40.7,33-73.6,73.6-73.6h1088.5
			c40.7,0,73.6,33,73.6,73.6v545.7C1815,895,1782,928,1741.4,928z"/>
		<path class="st3" d="M1779.1,328.8v505.4c0,40.7-33,73.6-73.6,73.6H688.7c-40.7,0-73.6-33-73.6-73.6V328.8
			c0-5.6,0.6-11.2,1.9-16.5c7.5-32.7,36.8-57.2,71.8-57.2h1016.7C1746.1,255.2,1779.1,288.2,1779.1,328.8z"/>
		<rect x="1017" y="1001" class="st1" width="374" height="41"/>
		<rect x="1008" y="254" class="st0" width="18" height="654"/>
		<rect x="1418" y="255" class="st0" width="13" height="651"/>
		<g>
			<path class="st2" d="M747,371.4c0,0,10,29.1-2.9,39.6c-12.9,10.5-38.6,3.8-44.8,26.7c-6.2,22.9,9.5,49.6,53.4,53.4
				c43.9,3.8,54.8-52.9,54.8-52.9L747,371.4z"/>
			<path class="st2" d="M877.7,369.1c0,1.4-4.8,17.2,2.4,34.3c7.2,17.2,23.4,6.2,31.5,19.1c8.1,12.9-11,22.9-17.6,30
				c-6.7,7.2,28.6,8.6,25.3,30.5c-3.3,21.9-40.5,24.8-65.3,18.1c-24.8-6.7-16.2-58.2-16.2-58.2l26.2-69.1L877.7,369.1z"/>
			<path class="st4" d="M893.4,516.8c0,0-52.9,31-71.5,31.5c-18.6,0.5-74.8-36.2-74.8-36.2s22.9-9.5,27.7-18.1
				c2-3.6,3.5-10.4,4.6-17.1c1.5-9.2,2.1-18.2,2.1-18.2l13.9,0.1l52.8,0.4c0,0,4.8,32.9,14.8,42
				C872.9,510.2,893.4,516.8,893.4,516.8z"/>
			<path class="st5" d="M824.6,474.1c0,0-16.9,10.8-45.3,2.7c1.5-9.2,2.1-18.2,2.1-18.2l13.9,0.1L824.6,474.1z"/>
			<path class="st4" d="M874.9,381.2c0,0,2.4-25.4-1.4-36.2c-18.2-51.7-59.6-46.9-59.6-46.9c-39.1-2.4-58.6,34.3-62,45.3
				c-3.3,11-1.4,36.2-1.4,36.2l-1.4,1.1c-3.5,2.6-5.3,7-4.5,11.3c0.6,3.5,1,4.6,2.1,9.1c2.4,10,11.4,9.1,11.4,9.1
				s8.1,27.7,11.9,34.3c3.8,6.7,15.3,20,22.4,24.8c9.3,6.2,21.5,5.7,21.5,5.7s8.6-0.3,19.1-4.1c10.5-3.8,20-18.3,23.8-25
				c3.8-6.7,12.9-33.4,12.9-33.4s8.1,1,10.5-9.1c1.2-5.1,2.7-7.8,3.3-11.4c0.6-3.5-3.1-6.8-6-8.9L874.9,381.2z"/>
			<path class="st2" d="M768,348.6c0,0,18.6-5.7,27.7,4.8c9.1,10.5,32.9,45.8,77.7,25.7c0,0,9.5-4.8,9.5-33.4
				c0-28.6-53.4-70.1-87.2-46.7C795.7,299,766.6,330.9,768,348.6z"/>
			<path class="st2" d="M797.7,300c0,0-45.8-14.3-56.3,22.4c-10.5,36.7,9.1,57.2,9.1,57.2h6.7c0,0,10.5-34.8,24.3-35.8
				C795.2,342.8,797.7,300,797.7,300z"/>
			<path class="st0" d="M774.2,329.7l-0.9-0.3c7.2-20.8,21.9-30.7,22.1-30.8l0.5,0.8C795.8,299.5,781.3,309.2,774.2,329.7z"/>
			<path class="st2" d="M763.4,347.2c1.2-0.1,2.3-0.2,3.4-0.2c1.1,0,2.3-0.1,3.4,0c2.3,0,4.6,0.2,6.9,0.5c2.3,0.4,4.7,0.8,7,2
				c0.3,0.1,0.6,0.3,0.9,0.5c0.3,0.2,0.6,0.4,0.9,0.5c0.3,0.2,0.5,0.4,0.7,0.6c0.2,0.2,0.5,0.4,0.7,0.6c0.9,0.7,1.8,1.5,2.6,2.3
				c3.2,3.2,5.9,6.7,8.6,10.2c2.7,3.5,5.3,6.9,8.1,10.1c2.8,3.2,5.9,6.2,9.4,8.7c3.4,2.5,7.3,4.5,11.3,5.9c4.1,1.4,8.4,2.1,12.7,2.3
				c4.3,0.2,8.7-0.2,13-0.9c-4.3,0.9-8.6,1.5-13,1.6c-4.4,0.1-8.8-0.4-13.1-1.6c-4.3-1.2-8.4-3.1-12.1-5.5
				c-3.7-2.4-7.1-5.4-10.2-8.5c-3.1-3.1-6-6.5-8.8-9.8c-2.8-3.3-5.7-6.6-8.8-9.3c-0.8-0.7-1.6-1.3-2.4-1.9c-0.2-0.2-0.4-0.3-0.6-0.4
				c-0.2-0.1-0.4-0.3-0.6-0.4c-0.2-0.1-0.3-0.2-0.5-0.3c-0.2-0.1-0.4-0.2-0.6-0.3c-1.6-0.7-3.6-1-5.6-1.2c-2-0.2-4.1-0.2-6.2-0.1
				c-1,0-2.1,0.1-3.1,0.2c-1,0.1-2.1,0.2-3.1,0.4L763.4,347.2z"/>
			<path class="st2" d="M810.6,427.5c-3.1,0-6.6-0.8-8.1-2.8c-0.8-1-1.4-2.8,0.2-5.6c4.2-7,5.2-28.2,5.2-28.4l1,0
				c0,0.9-1,21.7-5.3,28.8c-1.1,1.8-1.2,3.3-0.3,4.5c1.9,2.5,8,2.9,11.2,1.9l0.3,0.9C813.5,427.3,812.1,427.5,810.6,427.5z"/>
			<path class="st2" d="M789.5,388.6c0,2.1-2.1,3.8-4.8,3.8s-4.8-1.7-4.8-3.8c0-2.1,2.1-3.8,4.8-3.8S789.5,386.5,789.5,388.6z"/>
			<path class="st2" d="M840.5,390c0,2.1-2.1,3.8-4.8,3.8s-4.8-1.7-4.8-3.8c0-2.1,2.1-3.8,4.8-3.8S840.5,387.9,840.5,390z"/>
			<path class="st6" d="M801.4,439.6c0,0,24.3,1.9,34.3-4.3c0,0,1,12.4-8.1,15.7C818.6,454.4,804.3,451.5,801.4,439.6z"/>
			<path class="st7" d="M747,512.1c0,0-58.3,19.7-64.1,56.9c0,0,140,25,258-2c0,0-12.6-43.7-63-55.7
				C878,511.3,819.5,549.3,747,512.1z"/>
			<path class="st3" d="M701.1,549.5c-3.1,0-3.1,4.8,0,4.8C704.2,554.3,704.2,549.5,701.1,549.5z"/>
			<path class="st3" d="M720.1,531.6c-3.1,0-3.1,4.8,0,4.8C723.2,536.4,723.2,531.6,720.1,531.6z"/>
			<path class="st3" d="M735.5,556.1c-3.1,0-3.1,4.8,0,4.8C738.5,560.9,738.5,556.1,735.5,556.1z"/>
			<path class="st3" d="M747.2,529.7c-0.1-0.4-0.3-0.8-0.6-1.1c-0.2-0.1-0.3-0.2-0.5-0.4c-0.4-0.2-0.8-0.3-1.2-0.3h-0.4
				c-0.3,0-0.6,0.1-0.9,0.2c-0.3,0.1-0.6,0.3-0.8,0.5c-0.2,0.2-0.4,0.5-0.5,0.8c-0.1,0.3-0.2,0.6-0.2,0.9c0,0.2,0.1,0.4,0.1,0.6
				c0.1,0.4,0.3,0.8,0.6,1.1c0.2,0.1,0.3,0.2,0.5,0.4c0.4,0.2,0.8,0.3,1.2,0.3h0.4c0.3,0,0.6-0.1,0.9-0.2c0.3-0.1,0.6-0.3,0.8-0.5
				c0.2-0.2,0.4-0.5,0.5-0.8c0.1-0.3,0.2-0.6,0.2-0.9C747.3,530.2,747.3,530,747.2,529.7z"/>
			<path class="st3" d="M774.3,536c-0.1-0.4-0.3-0.8-0.6-1.1c-0.2-0.1-0.3-0.2-0.5-0.4c-0.4-0.2-0.8-0.3-1.2-0.3h-0.4
				c-0.3,0-0.6,0.1-0.9,0.2c-0.3,0.1-0.6,0.3-0.8,0.5c-0.2,0.2-0.4,0.5-0.5,0.8c-0.1,0.3-0.2,0.6-0.2,0.9c0,0.2,0.1,0.4,0.1,0.6
				c0.1,0.4,0.3,0.8,0.6,1.1c0.2,0.1,0.3,0.2,0.5,0.4c0.4,0.2,0.8,0.3,1.2,0.3h0.4c0.3,0,0.6-0.1,0.9-0.2c0.3-0.1,0.6-0.3,0.8-0.5
				c0.2-0.2,0.4-0.5,0.5-0.8c0.1-0.3,0.2-0.6,0.2-0.9C774.3,536.4,774.3,536.2,774.3,536z"/>
			<path class="st3" d="M773.9,562.6c-0.1-0.4-0.3-0.8-0.6-1.1c-0.1-0.1-0.2-0.2-0.4-0.4c-0.2-0.2-0.5-0.4-0.8-0.5
				c-0.3-0.1-0.6-0.2-0.9-0.2c-0.3,0-0.6,0.1-0.9,0.2c-0.3,0.1-0.6,0.3-0.8,0.5c-0.1,0.2-0.2,0.3-0.4,0.5c-0.2,0.4-0.3,0.8-0.3,1.2
				c0,0.2,0.1,0.4,0.1,0.6c0.1,0.4,0.3,0.8,0.6,1.1c0.1,0.1,0.2,0.2,0.4,0.4c0.2,0.2,0.5,0.4,0.8,0.5c0.3,0.1,0.6,0.2,0.9,0.2
				c0.3,0,0.6-0.1,0.9-0.2c0.3-0.1,0.6-0.3,0.8-0.5c0.1-0.2,0.2-0.3,0.4-0.5c0.2-0.4,0.3-0.8,0.3-1.2
				C774,563,773.9,562.8,773.9,562.6z"/>
			<path class="st3" d="M809.8,540.4c-0.5-0.4-1-0.7-1.7-0.7h-0.7c-0.6,0-1.3,0.3-1.7,0.7c-0.2,0.2-0.4,0.5-0.5,0.8
				c-0.1,0.3-0.2,0.6-0.2,0.9c0,0.6,0.2,1.3,0.7,1.7c0.5,0.4,1,0.7,1.7,0.7h0.7c0.6,0,1.3-0.3,1.7-0.7c0.2-0.2,0.4-0.5,0.5-0.8
				c0.1-0.3,0.2-0.6,0.2-0.9C810.5,541.4,810.3,540.8,809.8,540.4z"/>
			<path class="st3" d="M810.7,563.8c-3.1,0-3.1,4.8,0,4.8C813.7,568.5,813.8,563.8,810.7,563.8z"/>
			<path class="st3" d="M846.1,564.5c-3.1,0-3.1,4.8,0,4.8C849.2,569.3,849.2,564.5,846.1,564.5z"/>
			<path class="st3" d="M845.7,533.5c-3.1,0-3.1,4.8,0,4.8C848.8,538.2,848.8,533.5,845.7,533.5z"/>
			<path class="st3" d="M879.7,530.2c-3.1,0-3.1,4.8,0,4.8C882.8,535,882.8,530.2,879.7,530.2z"/>
			<path class="st3" d="M892.8,556.1c-3.1,0-3.1,4.8,0,4.8C895.9,560.9,895.9,556.1,892.8,556.1z"/>
			<path class="st3" d="M912.2,543.3c-3.1,0-3.1,4.8,0,4.8C915.3,548.1,915.3,543.3,912.2,543.3z"/>
			<path class="st3" d="M770.2,342.6c2-1.3,4.3-2.3,6.6-3c2.3-0.7,4.7-1.2,7.2-1.2c1.2,0,2.5,0,3.7,0.3c0.6,0.1,1.2,0.2,1.8,0.4
				l0.9,0.3c0.3,0.1,0.6,0.2,0.9,0.3c2.3,0.8,4.5,2.1,6.5,3.6c0.5,0.4,0.9,0.8,1.4,1.2l1.3,1.3l1.2,1.4l1.2,1.4l4.6,5.6
				c3.1,3.7,6.3,7.3,9.8,10.6c3.5,3.2,7.3,6.1,11.6,8.3c4.2,2.3,8.8,3.8,13.5,4.7c4.7,0.8,9.5,1,14.3,0.7c4.8-0.3,9.6-1.2,14.3-2.2
				c-4.6,1.4-9.4,2.4-14.2,2.9c-4.8,0.5-9.7,0.4-14.6-0.3c-2.4-0.4-4.8-0.9-7.1-1.7c-2.3-0.8-4.6-1.7-6.8-2.8
				c-4.4-2.2-8.3-5.2-11.9-8.5c-3.6-3.3-6.8-7-9.8-10.7l-4.5-5.7l-1.1-1.4l-1.2-1.3l-1.2-1.3l-1.3-1.2c-1.8-1.5-3.9-2.7-6.1-3.6
				c-0.3-0.1-0.6-0.2-0.8-0.3l-0.8-0.3c-0.6-0.1-1.1-0.3-1.7-0.4c-1.2-0.2-2.3-0.3-3.5-0.4c-2.4-0.1-4.8,0.3-7.1,0.9
				c-1.2,0.3-2.3,0.7-3.4,1.1C772.3,341.5,771.2,342,770.2,342.6z"/>
			<path class="st3" d="M708.8,434.6c-1.9,7.4-1.6,15.4,1.1,22.5c1.3,3.5,3.3,6.8,5.8,9.6c2.5,2.8,5.4,5.2,8.6,7.2
				c3.3,1.9,6.7,3.4,10.3,4.6c0.4,0.2,0.9,0.3,1.3,0.4l1.4,0.4l1.4,0.4c0.5,0.1,0.9,0.3,1.4,0.4l2.8,0.6l1.4,0.3
				c0.5,0.1,0.9,0.2,1.4,0.3l2.8,0.5c0.5,0.1,0.9,0.2,1.4,0.3l1.4,0.2l2.8,0.4c0.5,0.1,0.9,0.1,1.4,0.2l1.4,0.1l2.8,0.3
				c1,0.1,1.9,0.2,2.9,0.3c1.9,0.2,3.8,0.3,5.7,0.5v0.2c-1.9,0.1-3.8,0.1-5.8,0.2c-1,0-1.9,0-2.9,0l-2.9-0.1
				c-3.9-0.2-7.7-0.6-11.5-1.2c-0.5-0.1-1-0.1-1.4-0.2l-1.4-0.3l-2.8-0.6c-0.5-0.1-0.9-0.2-1.4-0.4l-1.4-0.4l-1.4-0.4
				c-0.5-0.1-0.9-0.3-1.4-0.5l-2.7-1.1c-0.9-0.3-1.8-0.8-2.7-1.2c-1.8-0.8-3.4-1.8-5.1-2.8c-3.3-2.1-6.3-4.7-8.8-7.7
				c-2.5-3-4.4-6.5-5.7-10.1c-2.5-7.4-2.5-15.4-0.3-22.8L708.8,434.6z"/>
			<path class="st3" d="M868.4,498.5c4.6-0.1,9.2-0.3,13.7-0.7c4.5-0.4,9-0.9,13.4-1.9c1.1-0.2,2.2-0.5,3.2-0.8
				c1.1-0.3,2.1-0.7,3.1-1.1c2-0.8,4-1.8,5.7-3.1c1.7-1.3,3.1-2.9,4.1-4.9c1-1.9,1.4-4.2,1.6-6.5c0.5,2.3,0.5,4.7-0.3,7
				c-0.7,2.3-2.2,4.4-4,6.1c-1.8,1.7-3.9,2.9-6.1,3.9c-2.2,1-4.5,1.7-6.8,2.2c-4.6,1-9.3,1.4-13.9,1.4
				C877.5,500,872.9,499.5,868.4,498.5z"/>
		</g>
		
			<rect x="1013.5" y="172.5" transform="matrix(-1.836970e-16 1 -1 -1.836970e-16 1598.4786 -444.4787)" class="st0" width="16" height="809"/>
		<g>
			<path class="st4" d="M1255.6,870.1c-18.1,10.5-76.8,22.1-84.4-50.2l2.8-3.2c0,0,2-0.8,5.2-6c0.3-0.5,0.5-1.2,0.7-2
				c1.5-6.6,0.2-23.1-0.5-29.5c-0.2-1.6-0.3-2.6-0.3-2.6l89.5,7.6c0,0-1.8,24.2,4.2,32.6S1273.7,859.7,1255.6,870.1z"/>
			<path class="st8" d="M1174,816.6c0,0,4.4,57.5,50.2,55.5c45.8-2,48.6-55.5,48.6-55.5s78.8,16.9,88,36.2c9.2,19.3,8,52.7,8,52.7
				h-284.6c0,0-3.4-33.1,6.8-50.7C1107.2,827.1,1174,816.6,1174,816.6z"/>
			<path class="st4" d="M1284.1,728.6c-5.8,35.4-13.8,82.6-58.8,83c-2,0-4.1-0.1-6.3-0.2c-17.4-1.4-30.1-12.5-39.1-28.1
				c-17.8-30.7-21.3-78.4-18.3-102.2c4.4-35.8,22.1-42.2,22.1-42.2c41-28.9,68.1-7.1,78.8,3.6
				C1277.7,657.9,1290.1,691.6,1284.1,728.6z"/>
			<path class="st4" d="M1282.9,704.9c0,0,10,0,11.3,2.4c1.2,2.4,2.8,23.7-2.4,26.5c-3.6,2-13.7,3.6-13.7,3.6L1282.9,704.9z"/>
			<path class="st4" d="M1163.1,707.3c0,0-10,0-11.3,2.4c-1.2,2.4-2.8,23.7,2.4,26.5c3.6,2,13.7,3.6,13.7,3.6L1163.1,707.3z"/>
			<path class="st2" d="M1266.8,689.6c0,0-24.1,32.2-51.5,2.8c0,0-51.1,41-64.3-2.4c-13.3-43.4-4.8-56.3,18.5-53.9l10,0.8
				c0,0,0-21.7,21.7-21.3c21.7,0.4,22.5,6.4,22.5,6.4s43.8-12.5,53.5,6.4c9.6,18.9-1.6,22.9-1.6,22.9s12.1,7.2,13.7,19.3
				c1.6,12.1-4,14.1-4,14.1L1266.8,689.6z"/>
			<path class="st2" d="M1284.9,686.8l-16.1,4c0,0,6.4,37,1.2,54.7l12.2-5.6c0,0-3.3-27.7,4.3-35.8L1284.9,686.8z"/>
			<path class="st2" d="M1169.1,705.7c0,0-2,17.7,0.4,33.8h-6c0,0-6.1-37.4-4.5-40.2C1160.7,696.4,1169.1,705.7,1169.1,705.7z"/>
			<path class="st2" d="M1212.1,763.5c-1.1,0-2.1-0.1-2.9-0.4c-1.4-0.4-2.3-1.2-2.6-2.2c-0.8-2.7,0.9-6.4,3-11
				c1.2-2.6,2.5-5.4,3.5-8.5c2.8-8.3,2.8-17.9,2.8-18h0.8c0,0.1,0,9.8-2.8,18.2c-1,3.1-2.3,6-3.5,8.6c-2,4.3-3.6,8.1-2.9,10.5
				c0.2,0.8,0.9,1.3,2.1,1.7c3.4,1,10.1-0.5,12.2-2.3l0.5,0.6C1220.3,762.2,1215.8,763.5,1212.1,763.5z"/>
			<path class="st2" d="M1249.1,728.3c0,2.2-2.8,3.9-6.3,3.9s-6.3-1.7-6.3-3.9c0-2.2,2.8-3.9,6.3-3.9S1249.1,726.2,1249.1,728.3z"/>
			<path class="st2" d="M1197.8,728.3c0,2.2-2.8,3.9-6.3,3.9s-6.3-1.7-6.3-3.9c0-2.2,2.8-3.9,6.3-3.9S1197.8,726.2,1197.8,728.3z"/>
			<path class="st6" d="M1203.9,778.1c0,0,13.9,21.4,32.1,4.1C1236,782.2,1214.7,775,1203.9,778.1z"/>
			<path class="st9" d="M1225.9,812.1c0,0-26.2,13.1-46-3.5c1.3-5.4,0.6-17.5-0.1-25.2c9,15.5,21.7,26.7,39.1,28.1
				c2.2,0.2,4.3,0.2,6.3,0.2L1225.9,812.1z"/>
			<path class="st2" d="M1201.7,706.4c-8.7-0.8-17.3,2.2-23.7,8.1c-1.9,1.8,0.9,4.6,2.8,2.8c5.7-5.2,13.2-7.6,20.9-6.9
				C1204.3,710.7,1204.3,706.6,1201.7,706.4z"/>
			<path class="st2" d="M1256.9,720c-5.8-6.8-13.5-11.8-22.1-14.3c-2.5-0.7-3.5,3.1-1.1,3.9c8,2.4,15,7,20.4,13.3
				C1255.7,724.8,1258.6,722,1256.9,720z"/>
			<path class="st2" d="M1224.8,636.3C1224.8,636.3,1224.8,636.3,1224.8,636.3c-0.2,0-0.5-0.1-0.5-0.5c-0.1-0.7,0.6-4.4,2.1-9.1
				c-0.6-12.2-12.5-23.7-12.7-23.8l0.6-0.6c0.1,0.1,11.1,10.7,12.7,22.4c2.9-8.7,8-19.6,15-21.7l0.2,0.8
				c-5.8,1.7-10.1,9.9-12.8,16.5c-0.9,2.2-1.6,4.4-2.3,6.4c0.1,1.4,0,2.8-0.3,4.1c-0.1,0.7-0.3,1.4-0.5,2
				C1225.4,636,1225.1,636.3,1224.8,636.3z M1226.2,629.9c-0.4,1.4-0.6,2.6-0.8,3.5c0.1-0.2,0.2-0.5,0.2-0.8
				c0.2-0.6,0.3-1.3,0.5-1.9C1226.1,630.4,1226.2,630.2,1226.2,629.9z"/>
			<path class="st10" d="M1153.1,678c0.9,7,4,13.6,9,18.4c1.2,1.2,2.6,2.2,4,3.2l1.1,0.7l1.1,0.6c0.4,0.2,0.8,0.4,1.1,0.6l0.6,0.3
				l0.6,0.2c0.8,0.3,1.6,0.5,2.4,0.6c0.8,0.1,1.6,0.2,2.5,0.2c0.8,0,1.7,0,2.5-0.1c0.8-0.1,1.7-0.2,2.5-0.4c3.3-0.7,6.5-2,9.7-3.5
				c3.1-1.5,6.1-3.2,9.1-5.1c2.9-1.9,5.8-3.8,8.6-5.9c2.8-2.1,5.6-4.3,8.2-6.5l1.4-1.2l0.4,1.7c0.1,0.3,0.2,0.7,0.3,1.1
				c0.1,0.4,0.3,0.7,0.4,1.1c0.3,0.7,0.6,1.5,1,2.2c0.7,1.4,1.6,2.7,2.6,4c2,2.5,4.5,4.5,7.4,6.1c1.4,0.8,2.9,1.4,4.5,1.9
				c0.8,0.2,1.5,0.5,2.3,0.7l1.2,0.3l1.2,0.2c3.2,0.6,6.5,0.8,9.9,0.7c-3.3,0.4-6.6,0.5-10,0.1l-1.2-0.2l-1.2-0.2
				c-0.8-0.1-1.6-0.4-2.5-0.6c-1.6-0.5-3.2-1-4.8-1.8c-1.5-0.7-3-1.6-4.4-2.7c-1.4-1-2.6-2.2-3.8-3.5c-1.1-1.3-2.1-2.7-3-4.2
				c-0.4-0.8-0.8-1.5-1.1-2.3c-0.2-0.4-0.3-0.8-0.5-1.2c-0.1-0.4-0.3-0.8-0.4-1.3l1.8,0.6c-5.3,4.8-10.9,9.1-16.9,12.9
				c-3,1.9-6.1,3.7-9.4,5.2c-1.6,0.8-3.3,1.5-5,2.1c-1.7,0.6-3.5,1.1-5.2,1.4c-0.9,0.2-1.8,0.3-2.7,0.4c-0.9,0.1-1.8,0.1-2.8,0.1
				c-0.9,0-1.9-0.1-2.8-0.3c-0.9-0.2-1.8-0.5-2.7-0.8l-0.6-0.3l-0.6-0.3c-0.4-0.2-0.8-0.4-1.2-0.7l-1.2-0.7l-1.1-0.8
				c-1.5-1-2.9-2.2-4.1-3.6c-1.2-1.3-2.4-2.7-3.3-4.3c-1-1.5-1.8-3.1-2.4-4.8c-0.7-1.7-1.2-3.4-1.6-5.1
				C1153.3,681.5,1153.1,679.7,1153.1,678z"/>
			<path class="st1" d="M1168.9,824.5c-0.1,0.2-0.1,0.4-0.1,0.7c0,0.2,0,0.5,0,0.7c0,0.5,0,0.9,0.1,1.4c0.1,0.9,0.2,1.8,0.3,2.7
				c0.3,1.8,0.6,3.6,1.1,5.3c0.9,3.5,2,6.9,3.4,10.3c2.8,6.6,6.7,12.8,11.7,17.9c1.2,1.3,2.6,2.5,3.9,3.6c1.4,1.1,2.8,2.2,4.3,3.2
				c1.5,1,3,1.9,4.6,2.7c1.6,0.8,3.2,1.6,4.8,2.2c3.3,1.3,6.7,2.3,10.2,3c3.5,0.7,7,1.1,10.6,1.3c7.1,0.4,14.2-0.6,20.7-3.3
				c1.6-0.6,3.2-1.4,4.8-2.3c1.5-0.8,3-1.8,4.4-2.9c1.4-1,2.8-2.2,4.1-3.4c1.3-1.2,2.5-2.5,3.7-3.8c4.7-5.4,8.3-11.7,11.1-18.3
				c1.4-3.3,2.6-6.7,3.6-10.2c0.5-1.7,1-3.5,1.4-5.3c0.4-1.8,0.8-3.6,1.1-5.4c-0.2,3.6-0.8,7.3-1.6,10.8c-0.8,3.6-1.8,7.1-3,10.6
				c-1.2,3.5-2.7,6.8-4.5,10.1c-1.8,3.3-3.8,6.4-6.2,9.3c-4.7,5.8-10.8,10.6-17.7,13.5c-7,2.9-14.6,4-22,3.7
				c-3.7-0.2-7.4-0.6-11.1-1.4c-0.9-0.2-1.8-0.4-2.7-0.6l-1.4-0.4l-1.3-0.4c-0.4-0.1-0.9-0.3-1.3-0.4l-1.3-0.4
				c-0.9-0.3-1.8-0.6-2.6-1c-6.9-2.9-13.2-7.2-18.3-12.8c-2.5-2.8-4.7-5.8-6.6-9c-1.9-3.2-3.4-6.6-4.7-10c-1.2-3.5-2.2-7-2.8-10.6
				c-0.3-1.8-0.6-3.6-0.7-5.5c-0.1-0.9-0.1-1.8-0.1-2.7c0-0.5,0-0.9,0-1.4c0-0.2,0-0.5,0.1-0.7
				C1168.8,824.9,1168.8,824.7,1168.9,824.5z"/>
		</g>
		<g>
			<path class="st11" d="M879.5,818.4l-46.8,37.3l-59-38.1l13.8-7.5l0.4-4l2-18.7l0.7-6.4l72.4,5.9c0,0,0.4,22,3.9,25.6
				S879.5,818.4,879.5,818.4z"/>
			<path class="st12" d="M776.4,815.6l52.7,19.3l47.6-17.7c0,0,79.8,13.4,89.3,39.3c9.4,26,11,49.9,11,49.9H680.9
				C680.9,906.4,654.5,838.8,776.4,815.6z"/>
			<path class="st11" d="M887.7,742.4c-1.6,2.3-5.8,4-9,4.9c-2.1,10.2-5,21.6-8.7,29.3c-8.3,17.3-22.8,29.5-27.5,31.9
				c-3.5,1.7-10.5,2.8-14,3.3c0,0,0,0,0,0c-0.5,0.1-0.9,0.1-1.2,0.2v0.1c0,0-0.2,0-0.5-0.1c-0.3,0-0.5,0.1-0.5,0.1l0-0.1
				c-2.8-0.3-11.3-1.5-15.2-3.4c-4.7-2.4-19.3-14.6-27.5-31.9c-0.6-1.3-1.2-2.7-1.8-4.1c-3-7.2-5.7-16.1-8-24.3
				c-2.3-0.5-10-2.4-12.3-5.8c-2.8-3.9-4.3-26-2.4-28.3c1.5-1.8,6.8-0.4,9.1,0.4c0.2-10.8,0.6-27.6,1.4-37
				c1.1-14,11.1-43.8,49.2-46.2c0,0,52.6-2.9,62.1,45.5c1.8,9.4,1.9,26.5,1.8,37.2c2.6-0.7,6.1-1.3,7.2,0.2
				C892,716.5,890.5,738.5,887.7,742.4z"/>
			<polygon class="st3" points="829.1,834.8 849.6,860.4 876.7,817.1 866.9,809.7 			"/>
			<polygon class="st3" points="829.1,834.8 815.4,860.4 773.7,817.5 786.3,807.3 			"/>
			<rect x="827.9" y="842.3" class="st3" width="0.8" height="56.6"/>
			<circle class="st3" cx="838.4" cy="863.7" r="3.7"/>
			<circle class="st3" cx="838.4" cy="893.6" r="3.7"/>
			<path class="st8" d="M823.6,681.1c0,0,40.5,14.9,49.5,14.9l-3.1,46.4l11-12.6l2-15.7c0,0,13-11.8,10.6-23.6
				c-2.4-11.8-7.9-13-7.9-13s18.1-20.4,2.4-33.8c-15.7-13.4-20.4-7.1-20.4-7.1s-4.7-11.4-8.7-9c-3.9,2.4-3.9,2.4-3.9,2.4
				s-5.5-9.4-21.2-10.2c-15.7-0.8-19.3,7.1-19.3,7.1s-24.4-5.9-35,5.5c-10.6,11.4-8.3,19.7-8.3,19.7s-12.6,8.3-13.8,15.3
				c-1.2,7.1,5.9,16.1,5.9,16.1s-6.3,3.1-5.9,8.3c0.4,5.1,10.6,22.8,10.6,22.8l4.7,23.2l7.1,3.1l-3.9-40.5
				C776,700.4,804.7,696,823.6,681.1z"/>
			<path class="st9" d="M828.5,811.8c-0.3,0.2-12.9,10.4-40.6-5.7l2-18.7c8,11.5,17.6,19.3,21.3,21.1c3.9,2,12.4,3.1,15.2,3.4l0,0.1
				c0,0,0.2,0,0.5-0.1c0.3,0,0.5,0.1,0.5,0.1v-0.1C827.6,811.9,828,811.8,828.5,811.8z"/>
			<path class="st2" d="M821.4,765.5c-3.8,0-6.9-1-8-2.9c-1.1-1.9,0.1-4.4,1.6-7.7c0.9-2,1.9-4.2,2.7-6.8c1.9-6.6,3.5-21,3.5-21.2
				l0.8,0.1c0,0.1-1.6,14.7-3.6,21.3c-0.8,2.6-1.8,4.9-2.7,6.9c-1.4,3-2.5,5.4-1.6,7c1.5,2.6,8.1,3.3,14.5,1.4l0.2,0.8
				C826.3,765.2,823.7,765.5,821.4,765.5z"/>
			<path class="st2" d="M806.3,726.3c0,1.7-2.4,3-5.3,3c-2.9,0-5.3-1.3-5.3-3c0-1.7,2.4-3,5.3-3
				C803.9,723.3,806.3,724.7,806.3,726.3z"/>
			<path class="st2" d="M849.6,726.3c0,1.7-2.4,3-5.3,3c-2.9,0-5.3-1.3-5.3-3c0-1.7,2.4-3,5.3-3
				C847.2,723.3,849.6,724.7,849.6,726.3z"/>
			<path class="st6" d="M812.6,780.6c0,0,6.7,19.3,22,16.1c15.3-3.1,13.4-25.2,13.4-25.2L812.6,780.6z"/>
			<path class="st2" d="M809.6,709.7c-6.9,1.7-13.8,3.4-20.7,5.1c-1.5,0.4-0.8,2.6,0.6,2.3l20.7-5.1
				C811.7,711.7,811.1,709.4,809.6,709.7z"/>
			<path class="st2" d="M860,715.1c-6.3-1.9-12.6-3.7-18.9-5.6l-5.4-1.6c-1.5-0.4-2.1,1.8-0.6,2.3c6.3,1.9,12.6,3.7,18.9,5.6
				l5.4,1.6C860.9,717.8,861.5,715.6,860,715.1z"/>
			<path class="st2" d="M776,700.4c4.1-1.2,8.3-2.5,12.4-3.8c2-0.7,4.1-1.3,6.1-2.1c2-0.7,4.1-1.4,6.1-2.2c4-1.6,8-3.2,11.8-5.1
				c1.9-1,3.8-2,5.5-3.1c1.8-1.1,3.5-2.4,4.9-3.8l0.6-0.6l0.7,0.3c3.9,1.8,7.9,3.4,11.9,4.9c4,1.6,8.1,3,12.1,4.4
				c2,0.7,4.1,1.4,6.2,2c2.1,0.7,4.1,1.2,6.2,1.8c4.2,1.1,8.4,2.1,12.6,2.8c-4.3-0.2-8.6-0.9-12.9-1.7c-4.3-0.9-8.5-1.9-12.6-3.2
				c-4.2-1.2-8.3-2.6-12.4-4.1c-2-0.7-4.1-1.5-6.1-2.4c-2-0.8-4-1.6-6-2.5l1.3-0.2c-1.6,1.6-3.5,2.9-5.3,4c-1.9,1.2-3.8,2.2-5.8,3.2
				c-4,1.9-8,3.5-12.1,4.8c-4.1,1.4-8.3,2.6-12.5,3.7C784.5,698.7,780.3,699.7,776,700.4z"/>
			<path class="st8" d="M817.5,632.9c-0.4,0-0.9-0.2-1.3-1.1c-1.7-3.4-13.2-12.4-17.5-15.6l1.4-1.9c1.3,1,10.5,7.9,15.4,13
				c-1.4-5.5-4-15-5.9-21.6l2.3-0.6c0,0.1,1.9,6.6,3.6,13.1c1,3.8,1.8,6.9,2.4,9.1c1,4.2,1.2,5.1,0,5.6
				C817.9,632.8,817.7,632.9,817.5,632.9z"/>
			<path class="st3" d="M772.5,659.1c-0.8,0.9-1.5,2-2,3.1c-0.5,1.1-0.9,2.3-1.1,3.5c-0.4,2.4,0,4.9,1.1,7c0.5,1.1,1.2,2.1,2,3
				c0.4,0.5,0.8,0.9,1.2,1.3c0.4,0.4,0.8,0.8,1.3,1.1c0.5,0.3,1,0.5,1.5,0.7c0.5,0.2,1.1,0.3,1.7,0.4c0.6,0.1,1.2,0.1,1.7,0.1
				c0.6,0,1.2-0.1,1.8-0.2c2.3-0.4,4.6-1.2,6.8-2.2c2.2-1,4.3-2.2,6.4-3.5c4.1-2.6,8.1-5.6,11.8-8.8l0.9-0.8l0.8,0.9
				c0.3,0.3,0.7,0.7,1,1c0.4,0.3,0.7,0.7,1.1,1c0.8,0.6,1.6,1.2,2.5,1.7c1.7,1,3.6,1.8,5.5,2.1c1,0.2,1.9,0.2,2.9,0.2
				c1-0.1,1.9-0.2,2.9-0.5c1.9-0.5,3.7-1.4,5.3-2.6l0.9-0.7l0.7,0.9c0.3,0.4,0.7,0.9,1.1,1.4c0.4,0.5,0.8,0.9,1.2,1.4
				c0.8,0.9,1.7,1.8,2.6,2.6c1.8,1.7,3.7,3.2,5.7,4.6c4,2.8,8.4,5.1,13,6.8c4.6,1.7,9.5,2.8,14.4,3.4c4.9,0.6,9.9,0.6,14.9,0.3
				c-4.9,0.8-10,1-15,0.7l-0.9-0.1c-0.3,0-0.6-0.1-0.9-0.1l-1.9-0.2c-0.6-0.1-1.2-0.2-1.9-0.3l-0.9-0.1c-0.3,0-0.6-0.1-0.9-0.2
				l-1.9-0.4l-1.8-0.4c-0.6-0.1-1.2-0.3-1.8-0.5c-0.6-0.2-1.2-0.3-1.8-0.6c-2.4-0.8-4.8-1.7-7.1-2.8c-2.3-1.1-4.5-2.4-6.6-3.8
				c-2.1-1.4-4.1-3-6-4.7c-0.9-0.9-1.9-1.7-2.7-2.7c-0.4-0.5-0.9-0.9-1.3-1.4c-0.4-0.5-0.8-1-1.2-1.6l1.6,0.3c-1.8,1.3-3.8,2.4-6,3
				c-1.1,0.3-2.2,0.5-3.4,0.6c-1.1,0.1-2.3,0-3.4-0.2c-2.3-0.4-4.4-1.3-6.3-2.4c-1-0.6-1.9-1.2-2.7-1.9c-0.4-0.4-0.9-0.7-1.3-1.1
				c-0.4-0.4-0.8-0.8-1.2-1.2l1.6,0.1c-1.9,1.7-3.9,3.2-5.9,4.7c-2,1.5-4.1,2.9-6.3,4.2c-2.2,1.3-4.4,2.5-6.7,3.5
				c-2.3,1-4.8,1.8-7.4,2.2c-1.3,0.2-2.6,0.2-3.9,0c-0.7-0.1-1.3-0.3-1.9-0.5c-0.6-0.2-1.2-0.6-1.8-0.9c-0.6-0.4-1.1-0.8-1.5-1.3
				c-0.4-0.5-0.8-1-1.2-1.5c-0.8-1-1.4-2.1-2-3.3c-1-2.4-1.3-5.1-0.7-7.5c0.3-1.2,0.8-2.4,1.4-3.5
				C770.9,661,771.6,659.9,772.5,659.1z"/>
			<path class="st3" d="M820.7,637.2c0,1.2,0.2,2.5,0.5,3.7c0.3,1.2,0.7,2.3,1.3,3.4c0.6,1.1,1.3,2,2.1,2.9c0.8,0.8,1.8,1.5,2.8,2.1
				c1,0.6,2.1,0.9,3.3,1.2l0.9,0.2c0.3,0,0.6,0.1,0.9,0.1c0.6,0.1,1.2,0.1,1.8,0.1c2.4,0.1,4.8-0.2,7.1-0.7l0.7-0.1l0.5,0.7
				c0.9,1.2,1.8,2.5,2.8,3.7c1,1.2,2,2.4,3.1,3.5c2.1,2.2,4.4,4.4,6.8,6.2c1.2,0.9,2.5,1.8,3.8,2.6c1.3,0.8,2.6,1.5,4,2
				c1.4,0.5,2.8,1,4.3,1.2c1.5,0.2,2.9,0.3,4.4,0.2c3-0.2,5.9-1.1,8.4-2.6c1.2-0.8,2.4-1.7,3.4-2.8c1-1.1,1.8-2.4,2.4-3.7
				c1.2-2.7,1.6-5.8,0.9-8.8c-0.3-1.5-0.9-2.9-1.7-4.3c-0.8-1.3-1.8-2.6-2.9-3.6c2.6,1.8,4.6,4.5,5.6,7.6c0.5,1.6,0.7,3.2,0.6,4.9
				c-0.1,1.6-0.4,3.3-1,4.9c-1.1,3.1-3.4,5.9-6.1,7.8c-1.4,1-2.9,1.7-4.5,2.2c-1.6,0.5-3.2,0.9-4.9,1c-1.7,0.2-3.4,0.1-5-0.2
				c-1.7-0.3-3.3-0.7-4.8-1.3c-3.1-1.2-5.9-2.9-8.5-4.9c-1.3-1-2.5-2-3.7-3.2c-1.2-1.1-2.3-2.3-3.4-3.5c-1.1-1.2-2.1-2.4-3.1-3.7
				c-1-1.3-1.9-2.5-2.8-3.9l1.2,0.5c-2.5,0.4-5.1,0.6-7.7,0.3c-2.6-0.2-5.2-0.9-7.4-2.3c-2.2-1.4-3.9-3.5-4.9-5.9
				C820.8,642.3,820.4,639.7,820.7,637.2z"/>
		</g>
		<g>
			<path class="st8" d="M1148.2,370.2c0,0-16.2,6.7-19.4,21.8c-3.2,15,17.8,34.8,12.3,44.3c-5.5,9.5-36,8.3-38.8,21.4
				c-2.8,13.1,6.7,11.5,3.6,25.3c-3.2,13.8-34,34.8-2,55c32,20.2,102.4-2.4,108-53c5.5-50.6-54.2-114.7-54.2-114.7H1148.2z"/>
			<path class="st8" d="M1237.2,465.5c0,0-0.8,22.9,37.2,38s74-13.4,74-13.4s29.7,0.4,29.7-23.3c0-23.7-21.4-25.7-21.4-25.7
				s2-25.7-17.4-32.4c-19.4-6.7-49.8-34.8-51-45.1C1287,353.2,1220.6,398.3,1237.2,465.5z"/>
			<path class="st11" d="M1268.8,483.3c0,0-2,47.5-39.6,45.1c-37.6-2.4-49.9-15.1-53.6-46.9c0,0,6.6-4.9,8.5-14
				c0.6-2.6,0.6-6.4,0.3-10.4c-0.5-6.7-1.7-14.2-2.5-18.3c-0.4-2-0.6-3.3-0.6-3.3l73,2c0,0-3.8,25.3-2.2,30.8
				C1253.8,473.8,1268.8,483.3,1268.8,483.3z"/>
			<path class="st1" d="M1077.8,566c0,0-4.7-37.6,9.1-51c13.8-13.4,89.8-35.6,89.8-35.6s7,43.2,39.6,44.7c52.6,2.4,49-43.5,49-43.5
				s74.8,18.6,84.6,34.4c9.9,15.8,13.8,48.6,13.8,48.6L1077.8,566z"/>
			<path class="st11" d="M1270,409.8c-8.3,21.4-12.7,26.5-23.7,34.8c-6.1,4.6-13.8,8.2-19.3,10.6c-2.6,1.1-5.3,1.6-8,1.6
				c-2.4,0-4.8-0.4-7.2-1.2c-6.7-2.4-16.4-6.4-23.1-11.4c-5-3.7-8.6-6.8-11.8-11c-4-5.2-7.4-12-11.9-23.8c-0.5-1.3-1-2.6-1.4-4
				c-0.1,0-0.2,0.1-0.3,0.1c-6.3,0.8-15.4-15.8-13.8-22.5c1.2-5.2,6.7-5.9,9.1-6c-1.4-16.8-0.9-33.7,0.5-42.3
				c2.4-14.6,22.9-61.7,59.3-55v0.1c35.3-4.9,55.2,40.9,57.6,55.3c1.5,9.3,2.1,28.3,0.1,46.3c2.7,0.3,6.7,1.5,7.8,5.9
				C1285.4,393.9,1276.3,410.6,1270,409.8z"/>
			<path class="st8" d="M1202.8,338.6c0,0,3.2-8.3,12.7-12.7c12.4-5.7,17.4,23.7,26.5,37.6c9.1,13.8,38.4,0.8,45.1,5.5
				c6.7,4.7,5.9-18.6,1.2-40.7c-4.7-22.1-38.4-47.5-54.6-49S1196.8,315.2,1202.8,338.6z"/>
			<path class="st8" d="M1202.8,338.6c0,0-9.5-13.1-22.9-10.7c-13.4,2.4-22,42.3-22,42.3h-9.7c0,0-1.6-113.9,84.2-90.2L1202.8,338.6
				z"/>
			<path class="st2" d="M1202.8,338.6c0.8-2.1,1.8-4.1,2.9-6.1c1.1-2,2.5-3.9,4.1-5.6c1.7-1.7,3.6-3.4,6.4-4.3
				c1.4-0.4,3.1-0.5,4.7,0c0.4,0.1,0.8,0.3,1.2,0.4c0.4,0.2,0.7,0.4,1.1,0.5l0.9,0.6c0.3,0.2,0.5,0.4,0.8,0.6
				c2.1,1.7,3.6,3.6,4.9,5.6c1.4,1.9,2.5,3.9,3.7,5.9c2.2,4,4.1,8.1,5.8,12.3c0.8,2.1,1.6,4.2,2.4,6.2l1.1,3.1l0.6,1.5l0.3,0.7
				c0,0.1,0.1,0.3,0.2,0.4c0.6,1.3,1.8,2.6,3.2,3.6c1.4,1,3.1,1.9,4.9,2.5c3.7,1.3,7.9,1.7,12.1,1.8c4.3,0.1,8.7-0.3,13.2-0.6
				c-2,0.9-4.1,1.9-6.2,2.6c-1.1,0.4-2.1,0.7-3.2,1.1l-3.3,0.8c-4.5,0.9-9.3,1.3-14.1,0.4c-2.4-0.5-4.9-1.4-7.2-2.7
				c-2.3-1.4-4.4-3.2-5.9-5.8c-0.2-0.3-0.4-0.7-0.6-1l-0.4-0.9l-0.7-1.6l-1.3-3.1c-0.8-2-1.6-4.1-2.5-6.1c-1.6-4-3.3-8-5.1-11.8
				c-0.9-1.9-1.9-3.8-2.9-5.6c-1-1.8-2.1-3.5-3.3-4.8c-0.3-0.3-0.6-0.6-0.8-0.8c-0.1-0.1-0.2-0.2-0.4-0.3c-0.1-0.1-0.2-0.1-0.4-0.2
				c-0.5-0.3-1.1-0.4-1.8-0.3c-1.5,0.1-3.3,1-5,2.1C1208.9,332.1,1205.8,335.3,1202.8,338.6z"/>
			<path class="st8" d="M1293.7,348.2C1293.7,348.2,1293.7,348.2,1293.7,348.2L1293.7,348.2l-0.1,0.4l-0.2,0.9
				c-0.1,0.6-0.1,1.3-0.2,1.9c0,0.7,0,1.4,0.1,2.1l0.3,2.1c0.1,0.7,0.3,1.4,0.5,2.2l0.3,1.1c0.1,0.4,0.3,0.7,0.4,1.1l0.8,2.2
				c0.2,0.7,0.6,1.4,1,2.1l1,2.1c0.4,0.7,0.8,1.4,1.2,2.1l1.2,2.1c0.4,0.7,0.9,1.3,1.4,2l1.5,2c0.5,0.7,0.9,1.3,1.5,1.9l3.3,3.7
				l0.8,0.9l0.9,0.9l1.8,1.7c1.2,1.1,2.4,2.4,3.7,3.4l3.9,3.2c1.3,1.1,2.6,2.2,4,3.1l4.2,3c1.4,1,2.8,2,4.2,2.9l8.7,5.5l-9.4-4.3
				c-1.6-0.7-3.1-1.5-4.6-2.3l-4.6-2.4c-1.6-0.8-3-1.7-4.5-2.6l-4.4-2.7c-1.5-0.9-2.8-2-4.3-3l-2.1-1.5l-1.1-0.8l-1-0.9l-4-3.5
				c-0.7-0.6-1.3-1.2-1.9-1.9l-1.9-1.9c-0.6-0.7-1.3-1.3-1.9-2l-1.7-2.1c-0.6-0.7-1.2-1.4-1.7-2.2l-1.5-2.3
				c-0.5-0.8-1.1-1.5-1.5-2.4l-1.3-2.5c-0.2-0.4-0.4-0.8-0.6-1.3l-0.5-1.4c-0.3-0.9-0.7-1.8-1-2.8l-0.8-2.9c-0.2-1-0.3-2-0.5-3
				c-0.1-1-0.2-2.1-0.2-3.2l0.1-1.7l0.1-0.9l0.1-0.5l0.2-0.7L1293.7,348.2z"/>
			<path class="st8" d="M1154.3,362.2c-1.2,0.6-2.6,1.4-3.9,2.1c-1.3,0.7-2.6,1.5-3.9,2.3c-2.6,1.6-5.1,3.3-7.6,5.1
				c-2.4,1.8-4.7,3.7-6.9,5.7c-2.1,2-4,4.2-5.3,6.5c-0.7,1.1-1.1,2.3-1.4,3.4c-0.3,1.2-0.4,2.4-0.4,3.8c0.1,2.6,0.8,5.5,1.8,8.3
				c2,5.7,5,11.2,7.4,17.4c0.6,1.6,1.1,3.2,1.5,4.9c0.4,1.7,0.6,3.5,0.5,5.4c0,0.2,0,0.5-0.1,0.7l-0.2,0.8c-0.1,0.5-0.3,1-0.5,1.5
				c-0.2,0.5-0.5,0.9-0.8,1.4c-0.3,0.4-0.6,0.8-1,1.2c-1.4,1.4-3.1,2.2-4.6,2.9c-3.2,1.3-6.3,1.9-9.5,2.6c-3.1,0.7-6.2,1.3-9.2,2.1
				c-3,0.8-5.9,1.9-8.4,3.5c-1.2,0.8-2.4,1.8-3.2,3c-0.4,0.6-0.8,1.3-1.2,1.9c-0.4,0.7-0.7,1.4-1.1,2c-2.6,5.6-2.9,12.3-0.8,18.3
				c-2.5-5.8-2.7-12.7-0.4-18.8c0.3-0.7,0.6-1.5,1-2.2c0.4-0.7,0.8-1.4,1.2-2.1c0.9-1.4,2.1-2.7,3.4-3.7c2.7-2,5.7-3.3,8.8-4.4
				c3.1-1.1,6.1-1.9,9.2-2.7c3-0.9,6-1.7,8.7-3c1.3-0.6,2.5-1.4,3.2-2.3c0.8-0.9,1.1-1.8,1.1-3c0-2.5-1-5.4-2.2-8.1
				c-2.5-5.5-6-10.9-8.6-17c-1.3-3.1-2.4-6.4-2.8-10.1c-0.2-1.8-0.1-3.8,0.2-5.7c0.3-1.9,1-3.8,1.8-5.5c1.7-3.3,3.8-6.1,6.1-8.6
				c2.3-2.5,4.7-4.8,7.3-6.9c2.5-2.1,5.2-4.1,7.8-6c1.3-0.9,2.7-1.9,4.1-2.8c1.4-0.9,2.7-1.8,4.3-2.7L1154.3,362.2z"/>
			<path class="st2" d="M1213.2,412.2c-3.6,0-6.8-0.9-8.6-2.7c-2.2-2.2-0.7-5.2,0.8-8.3c1-2,2.1-4.3,2.7-6.9
				c1.5-6.5,1.2-20.8,1.1-21l3-0.1c0,0.6,0.4,14.9-1.2,21.7c-0.7,2.9-1.9,5.5-2.9,7.5c-1.1,2.2-2.1,4.3-1.4,4.9
				c1.9,1.9,7.1,2.7,12.7,0.8l0.9,2.8C1218,411.8,1215.5,412.2,1213.2,412.2z"/>
			<path class="st2" d="M1242.5,374.8c0,1.7-2.8,3.2-6.3,3.2c-3.5,0-6.3-1.4-6.3-3.2c0-1.7,2.8-3.2,6.3-3.2
				C1239.7,371.6,1242.5,373,1242.5,374.8z"/>
			<path class="st2" d="M1194.9,375c0,1.7-2.8,3.2-6.3,3.2c-3.5,0-6.3-1.4-6.3-3.2c0-1.7,2.8-3.2,6.3-3.2
				C1192,371.8,1194.9,373.2,1194.9,375z"/>
			<path class="st6" d="M1203.2,430.3c0,0,14.2,19.4,26.5,13.8s11.1-23.7,11.1-23.7L1203.2,430.3z"/>
			<path class="st2" d="M1197.9,358.8c-7.6-0.4-15.3,1.2-22.2,4.4c-0.6,0.3-0.7,1.1-0.4,1.6c0.3,0.6,1,0.7,1.6,0.4
				c6.5-3,13.8-4.4,21-4.1c0.6,0,1.2-0.6,1.2-1.2C1199,359.3,1198.5,358.8,1197.9,358.8z"/>
			<path class="st2" d="M1238.1,360.7c-5-2.3-10.6-3.3-16.1-2.7c-0.6,0.1-1.2,0.5-1.2,1.2c0,0.6,0.5,1.3,1.2,1.2
				c5.1-0.6,10.2,0.2,14.9,2.3c0.6,0.3,1.3,0.2,1.6-0.4C1238.9,361.8,1238.7,361,1238.1,360.7z"/>
			<path class="st3" d="M1273.1,354.2c-6.9,0-15.3-1.5-22-7.4c-6.7-5.9-9.1-15.6-11.4-24.9c-2.3-9.3-4.5-18-10.6-21.6
				c-11.7-7-22.7,9.1-22.8,9.3l-1.7-1.1c0.1-0.2,12.1-17.8,25.5-9.9c6.8,4,9.1,13.2,11.5,22.9c2.3,9.1,4.6,18.5,10.8,23.9
				c12.5,11,32.5,5.4,32.7,5.3l0.6,1.9C1285.3,352.7,1280,354.2,1273.1,354.2z"/>
			<path class="st3" d="M1113.1,496.8l-1.1-1.7c0.1-0.1,10.4-7.2,7.5-16.3l-0.3-0.8c-2.4-7.6-5.2-16.2-2.2-21.3
				c1.1-1.9,3-3.2,5.6-3.7c1.5-0.3,3.1-0.6,4.8-0.9c9.1-1.6,21.6-3.8,24.1-10.4c1.3-3.3-1.2-8.2-3.5-13c-3.2-6.5-6.6-13.3-2.2-18.2
				l1.5,1.3c-3.5,3.9-0.4,10,2.5,15.9c2.7,5.4,5.2,10.5,3.6,14.6c-2.9,7.6-15.5,9.8-25.7,11.6c-1.7,0.3-3.3,0.6-4.7,0.9
				c-2,0.4-3.4,1.3-4.3,2.8c-2.5,4.3,0.2,12.8,2.4,19.7l0.3,0.8C1124.8,488.8,1113.6,496.5,1113.1,496.8z"/>
			<path class="st3" d="M1156.2,361.1l-1.8-0.8c0.7-1.5,16.1-37.6,25.1-40.9c9.2-3.3,21.9,9.6,22.4,10.1l-1.4,1.4
				c-0.1-0.1-12.3-12.5-20.3-9.6C1173.4,323.8,1160.6,350.9,1156.2,361.1z"/>
			<path class="st5" d="M1219.7,457.3c0,0-21.2,2.3-35.2-0.2c-0.5-6.7-1.7-14.2-2.5-18.3c2,1.8,4.1,3.5,6.7,5.4
				c6.6,5,16.4,9,23.1,11.4c2.3,0.8,4.7,1.2,7.2,1.2L1219.7,457.3z"/>
		</g>
		<path class="st1" d="M1736,325h-270c-7.7,0-14-6.3-14-14l0,0c0-7.7,6.3-14,14-14h270c7.7,0,14,6.3,14,14l0,0
			C1750,318.7,1743.7,325,1736,325z"/>
		<path class="st0" d="M1690.8,456H1448v-78h242.8c13.4,0,24.2,10.8,24.2,24.2v29.6C1715,445.2,1704.1,456,1690.8,456z"/>
		<path class="st0" d="M1766,574h-237.1c-16.5,0-29.9-13.4-29.9-29.9v-18.2c0-16.5,13.4-29.9,29.9-29.9H1766V574z"/>
		<path class="st0" d="M1677.6,697H1438v-78h239.6c15.1,0,27.4,12.3,27.4,27.4v23.3C1705,684.7,1692.7,697,1677.6,697z"/>
		<path class="st0" d="M1766,810h-237.5c-16.3,0-29.5-13.2-29.5-29.5v-18.9c0-16.3,13.2-29.5,29.5-29.5H1766V810z"/>
		<rect x="1464" y="397" class="st1" width="173" height="8"/>
		<rect x="1449" y="635" class="st1" width="173" height="8"/>
		<rect x="1464" y="425" class="st1" width="42.2" height="8"/>
		<rect x="1553.1" y="425" class="st1" width="83.9" height="8"/>
		<rect x="1649" y="425" class="st1" width="38.8" height="8"/>
		<rect x="1643.7" y="397" class="st1" width="38.6" height="8"/>
		<rect x="1545" y="514" class="st1" width="209" height="8"/>
		<rect x="1529" y="543" class="st1" width="59.2" height="7"/>
		<rect x="1600.2" y="543" class="st1" width="56.5" height="7"/>
		<rect x="1677.2" y="543" class="st1" width="75.8" height="7"/>
		<rect x="1450" y="664" class="st1" width="113" height="7"/>
		<rect x="1575" y="664" class="st1" width="58.6" height="7"/>
		<rect x="1549" y="757" class="st1" width="100" height="8"/>
		<rect x="1654" y="757" class="st1" width="100" height="8"/>
		<rect x="1548" y="779" class="st1" width="205" height="9"/>
		<rect x="1021" y="928" class="st2" width="340" height="20"/>
	</g>
	<g>
		<path class="st0" d="M637.3,231H457.7c-19.2,0-34.7,15.5-34.7,34.7v82.6c0,19.2,15.5,34.7,34.7,34.7h158l36.3,27v-30.3
			c11.8-5.5,20-17.5,20-31.4v-82.6C672,246.5,656.4,231,637.3,231z"/>
		<rect x="460" y="283" class="st6" width="134" height="14"/>
		<rect x="602" y="283" class="st6" width="19.6" height="14"/>
		<rect x="461.5" y="313" class="st6" width="110.4" height="14"/>
		<rect x="578.5" y="313" class="st6" width="41.5" height="14"/>
	</g>
	<g>
		<path class="st0" d="M667,706.6l-149.1-3.2c-10.9-0.2-19.8,8.5-19.8,19.4v60.7c0,10.7,8.7,19.4,19.4,19.4h106.2l25.4,39v-39h17.6
			c10.7,0,19.4-8.7,19.4-19.4V726C686,715.5,677.5,706.8,667,706.6z"/>
		<g>
			<rect x="522" y="735" class="st6" width="100" height="8"/>
			<rect x="629" y="735" class="st6" width="30.1" height="8"/>
			<rect x="522.1" y="760.4" class="st6" width="119.9" height="6.6"/>
		</g>
	</g>
	<g>
		<path class="st0" d="M1322.7,143.9l209.4-4.5c15.3-0.3,27.9,12,27.9,27.3V252c0,15.1-12.2,27.3-27.3,27.3h-149.1l-35.7,54.8v-54.8
			h-24.7c-15.1,0-27.3-12.2-27.3-27.3v-80.8C1296,156.3,1307.8,144.2,1322.7,143.9z"/>
		<rect x="1335" y="188" class="st6" width="192" height="11"/>
		<rect x="1335" y="218" class="st6" width="45.6" height="11"/>
		<rect x="1430.6" y="218" class="st6" width="96.4" height="11"/>
	</g>
	<g>
		<path class="st6" d="M1310.2,531.5l149.1-3.2c10.9-0.2,19.8,8.5,19.8,19.4v60.7c0,10.7-8.7,19.4-19.4,19.4h-106.2l-25.4,39v-39
			h-17.6c-10.7,0-19.4-8.7-19.4-19.4v-57.6C1291.2,540.4,1299.6,531.7,1310.2,531.5z"/>
		<rect x="1323" y="557" class="st1" width="127" height="9"/>
		<rect x="1323" y="585" class="st1" width="127" height="9"/>
	</g>
	<rect x="733.5" y="1069" class="st2" width="1311" height="5"/>
	<g>
		<polygon class="st0" points="1214.4,950.3 1212,969.8 1210.2,984.3 1201.5,1054 1139.5,1052 1123.5,949 		"/>
		<g>
			<g>
				<path class="st11" d="M1246.2,1013.1c-3.7,5.6-28.8,3.7-28.8-1.9c0-5.6-2.8-11.1-4.6-13.9c-0.4-0.7-1.4-1.5-2.6-2.3l1.8-14.5
					l13.8,6.6l12.1,12.1L1246.2,1013.1z"/>
				<path class="st12" d="M1706.8,1141.6l-11.1-11.1l-170.8-6.5c0,0-273.8,95.6-285,120.7c0,0-20.4,23.2-19.5,77
					s-3.7,92.8,83.5,323.9l84.5-14.9c0,0,22.3-185.6-6.5-264.5c64.7,2.9,245.7,3.5,285.9-17.6
					C1757.8,1301.3,1730,1159.3,1706.8,1141.6z"/>
				<polygon class="st1" points="1657.3,1368.7 1612.1,1760.8 1641.8,1760.8 1714.2,1368.7 				"/>
				<polygon class="st11" points="1304,1645.7 1319.7,1709.7 1383.8,1691.1 1388.4,1630.8 				"/>
				<path class="st12" d="M1695.7,1130.5h104.9c0,0,59.4,152.2-26,203.3c-53.3,31.8-106.7-0.9-106.7-0.9L1695.7,1130.5z"/>
				<path class="st12" d="M1495.2,1356.1c0,0,38.1,93.7,101.2,179.1l73.3-28.8l-42.7-177.3C1627,1329.1,1535.1,1308.7,1495.2,1356.1
					z"/>
				<path class="st11" d="M1252.4,1013.1c-11.1-0.9-21.3-6.3-21.3-6.3s-14.9-7.2-20.4-7.2c-3.2,0-13.8-0.9-23.1-0.6l-22.4-1.9
					l-17.3-4.1c0,0-11.2-2-12.2,0c-1,2-1,5.1,6.1,8.2c4.4,1.9,8.4,4.1,12.9,6.1l-17.5-4.1c0,0-11.5-2.1-12.6,0c-1,2.1-1,5.2,6.3,8.4
					c7.3,3.1,13.6,7.3,23.1,9.4c3.5,0.8,7.5,1.7,11,2.6c-0.1,0.7-0.1,1.4-0.2,2.1l-5.6-0.5l-17.8-4.2c0,0-11.5-2.1-12.6,0
					c-1,2.1-1,5.2,6.3,8.4c4.5,1.9,8.6,4.3,13.3,6.3c-3.3-0.5-8.7-1-9.3,0.4c-1,2-1,5,6,8s13,7,22,9c3.8,0.8,8.1,1.9,11.8,2.8
					c1,0.6,2.1,1,3.2,1.2c6.7,1.6,40.5,12.6,52.4,4.7c6-2.6,13.8-2.9,19.3-2.7c3.9,0.2,7.2-2.8,7.3-6.6
					C1261.3,1039.5,1260.7,1013.8,1252.4,1013.1z"/>
				<path class="st0" d="M1535.1,926.3c-11.1,20.9-58.5,69.6-58.5,69.6l-1.8-16.9l-1.9-17.4l2.4-5.2l60.7-130.3
					C1536,826.1,1566.6,866.9,1535.1,926.3z"/>
				<path class="st0" d="M1833,718.4c0,0,118.8,171.7,129.9,233.9s-36.2,88.2-67.8,91s-89.1,1.9-89.1,1.9L1833,718.4z"/>
				<polygon class="st11" points="1596.3,1535.2 1625.1,1590.9 1684.5,1560.3 1669.7,1506.4 				"/>
				<path class="st5" d="M1534.2,846.5c0,0-12.4,76.2-59.4,132.5l-1.9-17.4l2.4-5.2C1501.5,920.9,1526.4,877.7,1534.2,846.5z"/>
				<path class="st11" d="M1710.5,632.1c0,0-1.9,12.1,4.6,20.4c6.5,8.4,37.1,22.3,37.1,22.3s-90.6,13.3-131.6-4l-1.1-16.4
					L1710.5,632.1z"/>
				<path class="st0" d="M1658.5,1275.4l-100.3-2.8l1-20.6l101.4,6.6L1658.5,1275.4z M1560.3,1270.6l96.5,2.7l1.6-12.9l-97.2-6.4
					L1560.3,1270.6z"/>
				<path class="st0" d="M1534.2,846.5c-9.7,39.3-45.9,96-75.2,136.5c-18,25-16,28-51,44c-53.8,17.6-150,36-150,36s-22.9-26.2-8-55
					c4-7.8,103-92,103-92c16-39,54.9-121.5,75.4-166.1c20.4-44.6,54.8-49.2,54.8-49.2C1588.9,702.6,1539.3,825.6,1534.2,846.5z"/>
				<path class="st7" d="M1867.4,870.6c-2.8,79.8-55.7,174.5-52.9,190.3c2.2,12.6,1.5,79,1.1,105.3c-0.1,7.5-3.8,14.6-10.1,18.9
					c-88.6,61.2-328-33.6-328-43.4c0-10.2,3.7-0.9,2.8-36.2c-0.8-30-3-67-4.7-91.2c-1-15.5-1.8-25.7-1.8-25.7
					c136.4-151.3,5.6-287.7,5.6-287.7l22.9-5.9l106.1-27.5c82.6,15.8,136.4,0,136.4,0l88.2,51.1
					C1833,718.4,1870.2,790.8,1867.4,870.6z"/>
				<path class="st8" d="M1535.1,926.3c-18.8,47.7-45.9,76-59.4,87.9c-1-15.5-1.8-25.7-1.8-25.7c136.4-151.3,5.6-287.7,5.6-287.7
					l22.9-5.9C1567.5,766.5,1559.4,864.7,1535.1,926.3z"/>
				<g>
					<defs>
						<path id="SVGID_3_" d="M1867.4,870.6c-2.8,79.8-55.7,174.5-52.9,190.3c2.2,12.6,1.5,79,1.1,105.3c-0.1,7.5-3.8,14.6-10.1,18.9
							c-88.6,61.2-328-33.6-328-43.4c0-10.2,3.7-0.9,2.8-36.2c-0.8-30-3-67-4.7-91.2c-1-15.5-1.8-25.7-1.8-25.7
							c136.4-151.3,5.6-287.7,5.6-287.7l22.9-5.9l106.1-27.5c82.6,15.8,136.4,0,136.4,0l88.2,51.1
							C1833,718.4,1870.2,790.8,1867.4,870.6z"/>
					</defs>
					<clipPath id="SVGID_1_">
						<use xlink:href="#SVGID_3_"  style="overflow:visible;"/>
					</clipPath>
					<g class="st13">
						<path class="st14" d="M1737.9,1155.1c-4.8,0-9.7-0.1-14.6-0.2c-38.8-1-80.5-6-123.8-14.7c-73.8-14.9-127.6-36.1-128.1-36.3
							l1-2.6c0.5,0.2,54.2,21.3,127.7,36.1c67.8,13.7,166.9,24.9,253.9,0l0.8,2.7C1820,1150.1,1780.7,1155.1,1737.9,1155.1z"/>
						<path class="st14" d="M1740.7,1097.6c-4.8,0-9.7-0.1-14.6-0.2c-38.8-1-80.5-6-123.8-14.7c-73.8-14.9-127.6-36.1-128.1-36.3
							l1-2.6c0.5,0.2,54.2,21.3,127.7,36.1c67.8,13.7,166.9,24.9,253.9,0l0.8,2.7C1822.8,1092.6,1783.5,1097.6,1740.7,1097.6z"/>
						<path class="st14" d="M1743.5,1040c-4.8,0-9.7-0.1-14.6-0.2c-38.8-1-80.5-6-123.8-14.7c-73.8-14.9-127.6-36.1-128.1-36.3
							l1-2.6c0.5,0.2,54.2,21.3,127.7,36.1c67.8,13.7,166.9,24.9,253.9,0l0.8,2.7C1825.6,1035,1786.3,1040,1743.5,1040z"/>
						<path class="st14" d="M1746.3,982.5c-4.8,0-9.7-0.1-14.6-0.2c-38.8-1-80.5-6-123.8-14.7c-73.8-14.9-127.6-36.1-128.1-36.3
							l1-2.6c0.5,0.2,54.2,21.3,127.7,36.1c67.8,13.7,166.9,24.9,253.9,0l0.8,2.7C1828.4,977.5,1789.1,982.5,1746.3,982.5z"/>
						<path class="st14" d="M1749,925c-4.8,0-9.7-0.1-14.6-0.2c-38.8-1-80.5-6-123.8-14.7c-73.8-14.9-127.6-36.1-128.1-36.3l1-2.6
							c0.5,0.2,54.2,21.3,127.7,36.1c67.8,13.7,166.9,24.9,253.9,0l0.8,2.7C1831.1,919.9,1791.9,925,1749,925z"/>
						<path class="st14" d="M1751.8,867.4c-4.8,0-9.7-0.1-14.6-0.2c-38.8-1-80.5-6-123.8-14.7c-73.8-14.9-127.6-36.1-128.1-36.3
							l1-2.6c0.5,0.2,54.2,21.3,127.7,36.1c67.8,13.7,166.9,24.9,253.9,0l0.8,2.7C1833.9,862.4,1794.7,867.4,1751.8,867.4z"/>
						<path class="st14" d="M1754.6,809.9c-4.8,0-9.7-0.1-14.6-0.2c-38.8-1-80.5-6-123.8-14.7c-73.8-14.9-127.6-36.1-128.1-36.3
							l1-2.6c0.5,0.2,54.2,21.3,127.7,36.1c67.8,13.7,166.9,24.9,253.9,0l0.8,2.7C1836.7,804.8,1797.5,809.9,1754.6,809.9z"/>
						<path class="st14" d="M1757.4,752.3c-4.8,0-9.7-0.1-14.6-0.2c-38.8-1-80.5-6-123.8-14.7c-73.8-14.9-127.6-36.1-128.1-36.3
							l1-2.6c0.5,0.2,54.2,21.3,127.7,36.1c67.8,13.7,166.9,24.9,253.9,0l0.8,2.7C1839.5,747.3,1800.2,752.3,1757.4,752.3z"/>
						<path class="st14" d="M1760.2,694.8c-4.8,0-9.7-0.1-14.6-0.2c-38.8-1-80.5-6-123.8-14.7c-73.8-14.9-127.6-36.1-128.1-36.3
							l1-2.6c0.5,0.2,54.2,21.3,127.7,36.1c67.8,13.7,166.9,24.9,253.9,0l0.8,2.7C1842.3,689.7,1803,694.8,1760.2,694.8z"/>
						<path class="st14" d="M1541.6,1183.1c-2.4-27.2,9-71.3,22.2-122.4c17.1-65.9,36.4-140.7,30.7-198.7
							c-10.1-101.5-65.1-186-65.7-186.9l2.3-1.5c0.6,0.8,56,85.9,66.1,188.1c5.8,58.6-13.6,133.6-30.8,199.7
							c-13.2,50.8-24.5,94.7-22.1,121.5L1541.6,1183.1z"/>
						<path class="st14" d="M1624.2,1211.8c-0.1-1-5.5-105.4-0.9-136.7c1-7.1,4.1-21.2,8-39c13.5-61.6,38.6-176.1,29.9-233.7
							c-11.1-73.2-58.6-150.8-59.1-151.6l2.4-1.5c0.5,0.8,48.3,78.8,59.5,152.6c8.8,58-16.4,172.9-29.9,234.7
							c-3.9,17.7-7,31.8-8,38.8c-4.6,31.1,0.9,135.1,0.9,136.2L1624.2,1211.8z"/>
						<path class="st14" d="M1719.9,1249.4c-0.1-0.3-12.3-28-21.5-101.6c-5.3-42.2,5.9-108,17.7-177.8
							c8.8-51.9,17.8-105.5,19.5-148.2c1.9-50.5-13.7-94.7-27.2-123c-14.6-30.6-29.9-49.5-30-49.7l2.2-1.8
							c0.2,0.2,15.6,19.3,30.3,50.2c13.6,28.5,29.4,73.2,27.5,124.3c-1.6,42.9-10.7,96.6-19.5,148.6c-11.8,69.5-22.9,135.2-17.6,177
							c9.1,73.1,21.1,100.5,21.2,100.8L1719.9,1249.4z"/>
						<path class="st14" d="M1770.9,1180.4c-12.5-73.9-5.3-130,4.8-207.7c4.9-37.8,10.4-80.7,14.7-133.3c6.7-82.4-5.4-132-16.7-159
							c-12.2-29.2-26.2-39.2-26.3-39.3l1.6-2.3c0.6,0.4,14.6,10.3,27.2,40.2c11.5,27.3,23.8,77.4,17,160.7
							c-4.3,52.6-9.8,95.6-14.7,133.4c-10,77.5-17.3,133.4-4.8,206.9L1770.9,1180.4z"/>
						<path class="st14" d="M1834.6,1031.5l-2.7-0.7c18-72.9,13.9-162.3,7.2-224.5c-7.2-67.4-18.9-118.2-19-118.7l2.7-0.6
							c0.1,0.5,11.8,51.5,19,119C1848.5,868.4,1852.7,958.2,1834.6,1031.5z"/>
						<path class="st14" d="M1485,1195.2c-6-43.6,4.2-82.7,17.2-132.3c3.2-12.1,6.5-24.6,9.7-38.1c16.4-67.4-1.2-117.8-1.4-118.3
							l2.6-0.9c0.2,0.5,18.1,51.6,1.5,119.9c-3.3,13.5-6.6,26-9.7,38.1c-12.9,49.3-23.1,88.2-17.2,131.2L1485,1195.2z"/>
					</g>
				</g>
				<path class="st11" d="M1711.4,462.2c-26-18.6-59.4-33.4-104-9.3c0,0-25.1,7.4-34.3,41.8c-3.3,12.2-5,32.2-5.1,54.1
					c-0.7,0.7-1.1,1.7-1.2,2.9c-0.5,9.3-4.1,18.1-10.2,25.1c-1.8,2.1-1.9,5.9,0.9,7.3c3.9,1.9,7.7,3.7,11.6,5.6
					c0.1,0,0.1,0.1,0.2,0.1c1.9,25.9,5.7,49.3,11.2,59.9c13,25.1,114.2,9.3,129.9-17.6S1737.4,480.8,1711.4,462.2z"/>
				<path class="st2" d="M1736.5,443.6c-20.4-14.9-48.3-0.9-48.3-0.9s0.9-9.3-22.3-19.5s-33.7,9.1-33.7,9.1
					c-28.1-25.3-115.8-10.9-100,54c10.4,42.9,33,47,47.1,44.8c7.9-1.2,15.2,4.5,16,12.5c1.2,11.4,2,26.3,2.4,36
					c0.3,6.4-0.3,12.8-1.8,19l-4.4,18.7c0,0-17.1-15.2-20.6-16.9c-3.5-1.7-9.1,4.8-9.1,10.4s5.6,12.1,5.6,12.1s-5.6,6.5-3.7,11.1
					c1.9,4.6,6.5,10.2,6.5,10.2s-2.8,8.4-0.9,15.8c1.9,7.4,11.6,14.9,11.6,14.9s24.6-5.6,32.9-16.7c5.2-7,3.9-32.4,2.2-50.5
					c-1.6-16.7,1-33.5,7.7-49c0.2-0.5,0.3-0.8,0.3-0.8s2.8,2.8,14.9,18.6c12.1,15.8,24.1,12.1,24.1,12.1s7.4,16.7,27.8,26.9
					c20.4,10.2,49.2-2.8,55.7-28.8c2.8-11.2,0.2-22.7-3.6-32c6.8-7.7,6.7-21.2,5.6-30.7c1.1-0.7,2.3-1.5,3.6-2.3
					C1770.8,509.5,1777,473.1,1736.5,443.6z"/>
				<path class="st2" d="M1577.3,551.3c0,3.3-1,6-2.3,6s-2.3-2.7-2.3-6c0-3.3,1-6,2.3-6S1577.3,548,1577.3,551.3z"/>
				<path class="st2" d="M1587.6,541.2c-3.3-4.7-8.4-7.8-14.1-8.5c-0.7-0.1-1.4,0.7-1.4,1.4c0,0.8,0.6,1.3,1.4,1.4
					c4.6,0.6,9,3.2,11.7,7.1c0.4,0.6,1.2,0.9,1.9,0.5C1587.7,542.8,1588,541.8,1587.6,541.2z"/>
				<path class="st2" d="M1687.8,451l-1.9-0.6c3.6-13.5-1.8-33.6-1.9-33.8l1.9-0.5c0.2,0.7,4,14.8,3,27.6
					c5.5-11.2,17.7-33.1,31.8-39.4l0.8,1.8C1703.6,414.1,1687.9,450.6,1687.8,451z"/>
				<polygon class="st1" points="1652,1244.7 1654,1353.9 1678,1353.9 1679.9,1244.7 				"/>
				<polygon class="st1" points="1499.5,1385.4 1454.3,1777.5 1484,1777.5 1556.4,1385.4 				"/>
				<polygon class="st1" points="1858.1,1244.7 1860.1,1353.9 1884.1,1353.9 1885.9,1244.7 				"/>
				<path class="st15" d="M1609.3,428.8c-6.2,0.9-12.4,2-18.4,3.4c-3,0.7-6,1.5-9,2.4c-1.5,0.5-2.9,0.9-4.4,1.4
					c-1.4,0.5-2.9,1-4.3,1.6c-5.6,2.3-11.1,5-15.7,8.7c-2.3,1.8-4.4,3.8-6.2,6.1c-1.8,2.3-3.2,4.7-4.2,7.3l-0.7,2
					c-0.2,0.7-0.4,1.4-0.6,2.1c-0.3,1.4-0.8,2.9-0.9,4.4c-0.5,2.9-0.8,5.9-0.8,8.8c0,2.9,0.3,5.9,0.9,8.8c0.3,1.4,0.6,2.9,1.1,4.3
					l0.7,2.1c0.2,0.7,0.6,1.4,0.8,2.1c2.3,5.5,5.7,10.5,10,15c4.2,4.5,9.2,8.2,14.6,11.4c-6-2-11.6-5.2-16.6-9.3
					c-2.5-2.1-4.8-4.4-6.8-6.9l-1.5-1.9c-0.5-0.6-0.9-1.4-1.4-2l-1.3-2.1l-1.1-2.2c-3.1-5.9-4.6-12.5-4.9-19.1
					c-0.1-3.3,0.1-6.6,0.6-9.9c0.2-1.7,0.6-3.2,1-4.8c0.2-0.8,0.3-1.6,0.6-2.4l0.8-2.4c1.3-3.2,3.1-6.2,5.2-8.8
					c2.2-2.6,4.7-4.9,7.4-6.9c2.7-2,5.6-3.6,8.5-5c1.5-0.7,3-1.4,4.5-2c1.5-0.6,3-1.1,4.6-1.6c6.1-2,12.4-3.2,18.7-4
					C1596.7,428.6,1603,428.3,1609.3,428.8z"/>
				<path class="st15" d="M1620.9,465.4c1.4-2.6,3.1-5,5.1-7.3c1.9-2.2,4.1-4.3,6.5-6.1c4.7-3.6,10.5-6.2,16.5-7
					c3-0.4,6.1-0.5,9.1-0.1c3,0.4,6,1,8.9,2c5.8,1.9,11.1,4.7,16.1,8.1l-1.8,0.1c3.3-2.7,6.8-4.8,10.6-6.6c3.8-1.7,7.8-3,11.9-3.6
					c4.1-0.6,8.4-0.5,12.5,0.6c2,0.5,4,1.2,5.9,2.1c1.9,0.9,3.7,2,5.4,3.2c3.4,2.3,6.4,5.3,9.1,8.4l1.9,2.4c0.6,0.8,1.2,1.7,1.7,2.5
					l0.9,1.3c0.3,0.4,0.5,0.9,0.8,1.3c0.5,0.9,1,1.8,1.5,2.7c1.9,3.6,3.4,7.4,4.7,11.2c1.3,3.8,2.3,7.8,2.8,11.8
					c-1.9-7.8-4.9-15.3-9-22.2c-4.1-6.8-9.3-13-15.9-17.2c-1.6-1.1-3.3-2.1-5-2.9c-1.8-0.8-3.6-1.4-5.5-1.8c-3.7-0.9-7.6-1-11.4-0.4
					c-3.8,0.6-7.5,1.8-11.1,3.4c-3.5,1.6-7,3.7-9.9,6.1l-0.9,0.7l-0.9-0.6c-4.8-3.3-9.9-6.1-15.3-8c-0.7-0.2-1.4-0.5-2-0.7l-2.1-0.5
					c-0.7-0.2-1.4-0.3-2.1-0.5c-0.7-0.1-1.4-0.3-2.1-0.4c-2.8-0.4-5.7-0.4-8.5-0.2c-5.7,0.5-11.2,2.7-16,5.9
					C1628.4,456.3,1624.2,460.6,1620.9,465.4z"/>
				<path class="st15" d="M1615.4,523.9c-0.4-1.9-0.5-3.8-0.2-5.7c0.3-1.9,1.2-3.8,2.9-5.1c1.6-1.3,3.8-1.6,5.7-1.6
					c2,0,3.9,0.5,5.8,1c1.9,0.5,3.7,1.2,5.5,2.1c1.7,0.9,3.4,1.9,5,3.2c1.5,1.2,3,2.6,4.2,4.2c1.2,1.6,2.3,3.2,3.1,5.2l-2.5,0.2
					c0.4-2.3,1.1-4.4,2.1-6.4c1-2,2.5-3.9,4.4-5.3c1.9-1.4,4.2-2.3,6.5-2.5c0.3,0,0.6-0.1,0.9-0.1l0.9,0c0.6,0,1.1,0,1.7,0
					c1.2,0.1,2.3,0.3,3.4,0.7c2.2,0.7,4.2,1.9,6,3.3c1.7,1.4,3.2,3.1,4.5,4.9c1.3,1.8,2.4,3.7,3.3,5.6c1,2,1.8,3.9,2.4,6.1l-2.7,0.4
					c0-0.8,0.1-1.4,0.3-2c0.1-0.3,0.2-0.6,0.3-1c0.1-0.3,0.3-0.6,0.5-0.9c0.7-1.2,1.9-2.3,3.2-2.8c0.3-0.1,0.7-0.2,1-0.3l1-0.1
					c0.3-0.1,0.7,0,1,0l1,0.1c0.6,0.1,1.2,0.3,1.8,0.4c0.6,0.2,1.2,0.4,1.7,0.6c0.6,0.2,1.1,0.5,1.7,0.7c0.5,0.3,1.1,0.5,1.6,0.8
					l1.5,1c0.3,0.2,0.5,0.3,0.8,0.5l0.7,0.6l1.4,1.1c0.4,0.4,0.8,0.8,1.3,1.2c0.4,0.4,0.9,0.8,1.2,1.3l1.1,1.3
					c3,3.6,5.4,7.6,7.4,11.8c2,4.1,3.8,8.4,5.1,12.8c-1.8-4.2-3.8-8.3-6.1-12.3c-2.3-3.9-4.9-7.7-7.9-11l-1.1-1.2
					c-0.4-0.4-0.8-0.8-1.2-1.1c-0.4-0.4-0.8-0.8-1.2-1.1l-1.3-1l-0.7-0.5c-0.2-0.2-0.5-0.3-0.7-0.4l-1.4-0.8c-0.5-0.3-1-0.4-1.5-0.7
					c-0.5-0.2-1-0.5-1.5-0.6c-2-0.7-4.2-1.1-5.8-0.5c-0.8,0.3-1.4,0.9-1.8,1.6c-0.1,0.2-0.2,0.4-0.3,0.6c-0.1,0.2-0.2,0.4-0.2,0.7
					c-0.1,0.4-0.2,1-0.2,1.3l0,8.4l-2.8-7.9c-1.3-3.7-3.1-7.5-5.5-10.7c-2.4-3.2-5.4-6-9-7.1c-0.9-0.3-1.8-0.5-2.7-0.6
					c-0.5,0-1,0-1.4,0l-0.7,0c-0.2,0-0.5,0.1-0.7,0.1c-1.9,0.2-3.6,0.9-5.1,1.9c-3,2.1-4.9,6-5.6,9.7l-0.9,4.8l-1.6-4.5
					c-0.3-0.7-0.7-1.6-1.1-2.3c-0.4-0.8-0.9-1.5-1.4-2.3c-1.1-1.5-2.3-2.8-3.7-4c-2.7-2.4-6-4.2-9.5-5.4c-1.8-0.6-3.5-1.1-5.3-1.3
					c-1.8-0.1-3.6,0.1-5.1,1c-1.5,1-2.4,2.6-2.9,4.4C1615.3,520.1,1615.2,522,1615.4,523.9z"/>
				<path class="st2" d="M1478,1141.2c13.5,6,27.2,11.7,41,17.1c13.8,5.4,27.6,10.5,41.6,15.3c14,4.8,28,9.3,42.2,13.4
					c14.2,4.1,28.5,7.8,42.9,10.8c14.4,3.1,28.9,5.6,43.6,7.2c7.3,0.8,14.6,1.4,22,1.7c7.3,0.2,14.7,0.3,22-0.1
					c1.8-0.1,3.7-0.2,5.5-0.3l5.5-0.5l5.5-0.7c1.8-0.2,3.6-0.6,5.4-0.8c7.2-1.2,14.4-2.9,21.3-5.3c13.9-4.6,27-12,37.8-22.2l-3.9,4
					c-1.4,1.3-2.7,2.5-4.1,3.7c-1.4,1.2-2.9,2.3-4.4,3.5c-1.5,1.1-3.1,2.1-4.6,3.2c-6.2,4.1-13,7.4-20,10.1
					c-14,5.3-28.9,8.1-43.8,9.2c-14.9,1.2-29.9,0.6-44.7-0.8c-7.4-0.7-14.8-1.7-22.2-2.9c-7.4-1.2-14.7-2.5-22-4.1
					c-7.3-1.6-14.5-3.3-21.7-5.2c-7.2-1.9-14.4-3.8-21.5-6c-14.2-4.3-28.3-9-42.2-14.2c-13.9-5.2-27.7-10.8-41.2-16.8
					C1504.5,1154.5,1491.1,1148.2,1478,1141.2z"/>
				<polygon class="st1" points="1584.7,954.6 1601.4,1248.9 1912.4,1254.4 1949.1,955.1 				"/>
				<polygon class="st1" points="1611.7,954.6 1628.4,1248.9 1939.3,1254.4 1976,955.1 				"/>
				<polygon class="st1" points="1933.3,1349.6 1933.3,1391.3 1446.9,1391.3 1446.9,1357 1614.9,1354.4 				"/>
				<g>
					<polygon class="st2" points="1231.6,1791.4 1229.7,1776.5 1232.5,1759.8 1260.3,1739.4 1302.1,1709.7 1307.7,1693.9 
						1318.8,1692.1 1318.8,1698.6 1334.6,1703.2 1365.2,1693 1375.4,1685.6 1387.5,1685.6 1397.7,1691.1 1408.8,1718.1 
						1418.1,1740.3 1411.6,1752.4 1250.1,1790.5 					"/>
					
						<rect x="1232.1" y="1762.6" transform="matrix(0.9742 -0.2255 0.2255 0.9742 -363.5827 343.2492)" class="st1" width="177.2" height="1"/>
					
						<rect x="1289.8" y="1719.7" transform="matrix(0.1315 -0.9913 0.9913 0.1315 -577.0179 2783.7776)" class="st1" width="20.8" height="3"/>
					
						<rect x="1280" y="1725.2" transform="matrix(0.1204 -0.9927 0.9927 0.1204 -581.4928 2797.1045)" class="st1" width="15.3" height="3"/>
					
						<rect x="1270" y="1732.1" transform="matrix(0.1185 -0.993 0.993 0.1185 -597.177 2794.5083)" class="st1" width="10.8" height="3"/>
				</g>
				<path class="st2" d="M1601,1741.3c0,0,21.3,1.9,33.4,1.9s26-9.3,26-9.3l18.6-13l22.3-55.7l11.1-81.7l-23.2-26l-17.6-12.1
					l-25.1,3.7l-19.5,20.4l-9.3,26l-16.7,105.8V1741.3z"/>
				<path class="st1" d="M1605.2,1732.1l-1-0.2c1.2-5.2,28.9-127.4,36.3-140.3l0.1-0.1l16.1-15.4l0.1,0l32.5-7.9l19.8,10.8l-0.5,0.9
					l-19.5-10.6l-32,7.8l-15.8,15.2C1633.9,1605.3,1605.5,1730.8,1605.2,1732.1z"/>
				<g>
					<path class="st0" d="M1312.3,1621.8c0,0-0.6-2-1.7-5.8l1.9-0.6c1.1,3.7,1.7,5.8,1.7,5.8L1312.3,1621.8z"/>
					<path class="st0" d="M1307.3,1604.3c-1-3.5-2.1-7.4-3.3-11.8l1.9-0.5c1.2,4.3,2.3,8.3,3.3,11.8L1307.3,1604.3z M1300.8,1580.7
						c-1-3.7-2.1-7.7-3.2-11.8l1.9-0.5c1.1,4.1,2.2,8.1,3.2,11.8L1300.8,1580.7z M1294.5,1557.1c-1-3.8-2-7.8-3.1-11.8l1.9-0.5
						c1,4,2.1,8,3.1,11.8L1294.5,1557.1z M1288.4,1533.5c-1-3.9-2-7.8-3-11.8l1.9-0.5c1,4,2,8,3,11.8L1288.4,1533.5z M1282.5,1509.8
						c-1-3.9-1.9-7.9-2.9-11.9l1.9-0.5c0.9,4,1.9,8,2.9,11.9L1282.5,1509.8z M1276.9,1486c-0.9-3.9-1.8-7.9-2.7-11.9l2-0.4
						c0.9,4,1.8,7.9,2.7,11.9L1276.9,1486z M1271.5,1462.2c-0.9-4-1.7-8-2.6-12l2-0.4c0.8,4,1.7,8,2.6,12L1271.5,1462.2z
						 M1266.5,1438.2c-0.8-4-1.6-8-2.4-12l2-0.4c0.8,4,1.5,8,2.3,12L1266.5,1438.2z M1261.9,1414.2c-0.7-4.1-1.4-8.1-2.1-12l2-0.3
						c0.6,3.9,1.3,7.9,2.1,12L1261.9,1414.2z M1257.9,1390.1c-0.6-4.1-1.2-8.2-1.7-12.1l2-0.3c0.5,3.9,1.1,8,1.7,12.1L1257.9,1390.1
						z M1254.7,1365.9c-0.5-4.2-0.8-8.3-1.1-12.2l2-0.2c0.3,3.8,0.7,7.9,1.1,12.1L1254.7,1365.9z M1253,1341.4
						c-0.1-2-0.1-3.9-0.1-5.8c0-2.3,0-4.4,0.1-6.5l2,0.1c-0.1,2-0.1,4.1-0.1,6.4c0,1.8,0,3.8,0.1,5.7L1253,1341.4z M1256.2,1317.3
						l-2-0.4c0.8-4.3,1.9-7.8,3.3-10.5c0.2-0.4,0.5-0.9,0.8-1.3l1.7,1.1c-0.2,0.4-0.5,0.8-0.7,1.2
						C1258,1309.8,1257,1313.2,1256.2,1317.3z M1268.1,1297.6l-1.2-1.6c2.9-2.3,6.3-4.6,10.3-6.9l1,1.7
						C1274.2,1293.1,1270.9,1295.4,1268.1,1297.6z M1288.9,1285.3l-0.9-1.8c3.5-1.6,7.2-3.3,11.2-4.9l0.8,1.9
						C1296,1282,1292.3,1283.7,1288.9,1285.3z M1311.4,1276l-0.7-1.9c3.6-1.3,7.5-2.7,11.6-4l0.6,1.9
						C1318.9,1273.4,1315,1274.7,1311.4,1276z M1334.5,1268.3l-0.6-1.9c3.8-1.2,7.7-2.3,11.7-3.5l0.6,1.9
						C1342.2,1266,1338.3,1267.2,1334.5,1268.3z M1357.9,1261.6l-0.5-1.9c3.8-1,7.8-2.1,11.8-3.1l0.5,1.9
						C1365.7,1259.5,1361.8,1260.6,1357.9,1261.6z M1381.6,1255.6l-0.5-1.9c4-1,7.9-1.9,11.9-2.8l0.5,1.9
						C1389.5,1253.7,1385.5,1254.6,1381.6,1255.6z M1405.4,1250l-0.4-2c4-0.9,8-1.8,11.9-2.6l0.4,2
						C1413.3,1248.3,1409.3,1249.2,1405.4,1250z M1429.2,1245l-0.4-2c4-0.8,8-1.6,12-2.4l0.4,2
						C1437.3,1243.3,1433.3,1244.1,1429.2,1245z M1453.2,1240.2l-0.4-2c4.1-0.8,8.1-1.5,12-2.2l0.4,2
						C1461.3,1238.7,1457.3,1239.4,1453.2,1240.2z M1477.2,1235.8l-0.3-2c4.2-0.7,8.2-1.4,12-2.1l0.3,2
						C1485.4,1234.4,1481.4,1235.1,1477.2,1235.8z M1501.3,1231.7l-0.3-2c4.5-0.7,8.5-1.4,12.1-2l0.3,2
						C1509.8,1230.3,1505.8,1230.9,1501.3,1231.7z"/>
					<path class="st0" d="M1524.7,1228l-0.3-2c3.8-0.6,5.9-0.9,5.9-0.9l0.3,2C1530.6,1227.1,1528.5,1227.4,1524.7,1228z"/>
				</g>
				<path class="st0" d="M1810.8,1279.1h-77.1l-2.1-16.8l79.2-3.8V1279.1z M1735.5,1277.1h73.3v-16.5l-74.9,3.6L1735.5,1277.1z"/>
				<polygon class="st1" points="1614.9,1354.4 1614.9,1391.3 1446.9,1391.3 1446.9,1357 				"/>
				<polygon class="st1" points="1709.8,1392.8 1755,1784.9 1725.3,1784.9 1653,1392.8 				"/>
				<polygon class="st1" points="1895.5,1392.8 1940.7,1784.9 1911,1784.9 1838.6,1392.8 				"/>
				<polygon class="st2" points="1640.8,1237.3 1629.3,970.9 1956.5,970.9 1956.5,972.9 1631.4,972.9 1642.8,1237.2 				"/>
				<polygon class="st2" points="1628,1383.9 1626,1383.9 1626,1362.9 1911,1362.9 1911,1364.9 1628,1364.9 				"/>
				<path class="st5" d="M1376.4,1367.2l-73.3-21.3c0,0,64.8,2.8,93.7,19.5L1376.4,1367.2z"/>
			</g>
			<rect x="1447" y="1388.5" class="st2" width="486" height="5"/>
		</g>
	</g>
	<rect x="886" y="1332" class="st0" width="169" height="68"/>
	<rect x="968" y="1269" class="st0" width="169" height="68"/>
	<g>
		<rect x="1879" y="441" class="st6" width="160" height="18"/>
		<rect x="1879" y="487" class="st6" width="277" height="16"/>
		<rect x="2057" y="441" class="st6" width="99.9" height="18"/>
	</g>
</g>
</svg>
