<svg xmlns="http://www.w3.org/2000/svg" width="270.322" height="52.974" viewBox="0 0 270.322 52.974">
  <g id="Сгруппировать_2" data-name="Сгруппировать 2" transform="translate(-108.329 -114.31)">
    <path id="Контур_1" data-name="Контур 1" d="M415.672,179.376c0,8.221-6.106,13.968-14.926,13.968H389.133V165.408h11.853C409.646,165.408,415.672,171.115,415.672,179.376Zm-6.425.04c0-5.148-3.592-8.7-8.381-8.7h-5.428v17.32h5.707C405.814,188.036,409.247,184.524,409.247,179.416Z" transform="translate(-212.006 -38.579)" fill="#fff"/>
    <path id="Контур_2" data-name="Контур 2" d="M520.518,169.9a8.6,8.6,0,0,0,0,17.2,10.779,10.779,0,0,0,7.263-3.273l3.711,4.031a16.355,16.355,0,0,1-11.294,4.988c-8.341,0-14.646-6.186-14.646-14.287,0-8.061,6.425-14.127,14.886-14.127a15.9,15.9,0,0,1,11.015,4.629l-3.671,4.47A10.112,10.112,0,0,0,520.518,169.9Z" transform="translate(-299.902 -37.842)" fill="#fff"/>
    <path id="Контур_3" data-name="Контур 3" d="M655.639,178.479h5.467v10.735a20.68,20.68,0,0,1-11.334,3.631c-8.461,0-14.886-6.146-14.886-14.247,0-8.062,6.545-14.167,15.245-14.167a17.607,17.607,0,0,1,11.214,4.07l-3.552,4.51a11.691,11.691,0,0,0-7.662-3.113,8.72,8.72,0,1,0,.04,17.44,12.723,12.723,0,0,0,5.468-1.516Z" transform="translate(-397.55 -37.842)" fill="#fff"/>
    <path id="Контур_4" data-name="Контур 4" d="M776.057,193.344l-4.43-7.982H765.2v7.982H758.9V165.408h12.132c7.3,0,11.454,3.512,11.454,9.7,0,4.31-1.836,7.423-5.228,9.019l5.947,9.219ZM765.2,180.094h5.826c3.472,0,5.467-1.6,5.467-4.789,0-3.113-2-4.669-5.467-4.669H765.2Z" transform="translate(-491.176 -38.579)" fill="#fff"/>
    <path id="Контур_5" data-name="Контур 5" d="M895.44,178.6c0,8.061-6.465,14.247-15.005,14.247S865.429,186.7,865.429,178.6c0-8.141,6.465-14.167,15.006-14.167S895.44,170.5,895.44,178.6Zm-23.546,0a8.687,8.687,0,0,0,8.62,8.74,8.7,8.7,0,1,0-8.62-8.74Z" transform="translate(-571.608 -37.842)" fill="#fff"/>
    <path id="Контур_6" data-name="Контур 6" d="M1012.181,187.547c3.752,0,6.226-2.434,6.226-6.465V164.839h6.306v16.243c0,7.383-4.829,11.972-12.531,11.972-7.742,0-12.69-4.589-12.69-11.972V164.839h6.305v16.243C1005.8,185.112,1008.43,187.547,1012.181,187.547Z" transform="translate(-672.825 -38.149)" fill="#fff"/>
    <path id="Контур_7" data-name="Контур 7" d="M1140.713,175.106c0,6.5-4.07,10.256-11.174,10.256h-5.547v7.982h-6.305V165.408h11.852C1136.642,165.408,1140.713,168.92,1140.713,175.106Zm-5.986.2c0-3.113-2-4.669-5.508-4.669h-5.228v9.458h5.228C1132.731,180.094,1134.727,178.5,1134.727,175.305Z" transform="translate(-762.062 -38.579)" fill="#fff"/>
    <g id="Сгруппировать_2-2" data-name="Сгруппировать 2" transform="translate(108.329 114.31)">
      <path id="Контур_8" data-name="Контур 8" d="M199.124,118.073l7.244,12.547-21.732-12.547h14.488m2.169-3.757H170.677l45.954,26.567-15.339-26.567Z" transform="translate(-155.402 -114.315)" fill="#fff"/>
      <path id="Контур_9" data-name="Контур 9" d="M206.8,232.754l-7.215,12.5H185.151l21.644-12.5m10.222-10.222h0Zm0,0-45.829,26.459h30.553l15.276-26.459Z" transform="translate(-155.787 -196.017)" fill="#fff"/>
      <path id="Контур_10" data-name="Контур 10" d="M119.817,128.29l.118,25.017-7.281-12.475,7.163-12.543m-11.488,12.563,15.3,26.414L123.6,114.31Z" transform="translate(-108.329 -114.31)" fill="#fff"/>
    </g>
  </g>
</svg>
