<svg width="80" height="65" viewBox="0 0 80 65" fill="none" xmlns="http://www.w3.org/2000/svg">
<path d="M24.4231 52.3226H32.3398V48.3643H36.2981C38.4752 48.3643 40.2565 46.583 40.2565 44.4059V32.5309C40.2565 30.3538 38.4752 28.5726 36.2981 28.5726H24.4231V24.6143H40.2565V16.6976H32.3398V12.7393H24.4231V16.6976H20.4648C18.2877 16.6976 16.5065 18.4788 16.5065 20.6559V32.5309C16.5065 34.708 18.2877 36.4893 20.4648 36.4893H32.3398V40.4476H16.5065V48.3643H24.4231V52.3226ZM71.9231 0.864258H8.58979C4.19604 0.864258 0.71271 4.38717 0.71271 8.78092L0.673126 56.2809C0.673126 60.6747 4.19604 64.1976 8.58979 64.1976H71.9231C76.3169 64.1976 79.8398 60.6747 79.8398 56.2809V8.78092C79.8398 4.38717 76.3169 0.864258 71.9231 0.864258ZM71.9231 56.2809H8.58979V8.78092H71.9231V56.2809ZM48.1731 24.6143L56.0898 16.6976L64.0065 24.6143H48.1731ZM64.0065 41.4372L56.0898 49.3538L48.1731 41.4372" fill="white"/>
</svg>
