<svg width="53" height="90" viewBox="0 0 53 90" fill="none" xmlns="http://www.w3.org/2000/svg">
<path d="M39.684 48.3473C40.2445 47.1349 41.7977 46.0117 43.1372 45.8613C44.4767 45.7109 45.6975 44.4985 45.8495 43.1732C46.011 41.8574 47.1415 40.3159 48.3623 39.7567C48.9772 39.4471 49.4777 38.9533 49.7925 38.3457C50.1072 37.7382 50.2201 37.0478 50.115 36.3731C49.8395 35.0666 50.438 33.2573 51.426 32.3597C51.916 31.876 52.2383 31.2511 52.3467 30.5747C52.4551 29.8984 52.344 29.2054 52.0292 28.5955C51.7035 27.9396 51.5341 27.2185 51.5341 26.4878C51.5341 25.757 51.7035 25.0359 52.0292 24.38C52.3447 23.7703 52.4563 23.0772 52.3478 22.4006C52.2394 21.7241 51.9166 21.0991 51.426 20.6158C50.438 19.7088 49.8442 17.9042 50.115 16.6024C50.2214 15.9263 50.1093 15.2342 49.7945 14.6248C49.4798 14.0155 48.9785 13.5201 48.3623 13.2094C47.7096 12.8649 47.1444 12.3785 46.7092 11.7867C46.274 11.195 45.98 10.5133 45.8495 9.7929C45.7412 9.11932 45.4206 8.49677 44.9336 8.01407C44.4466 7.53136 43.8179 7.21314 43.1372 7.1048C42.4089 6.97816 41.7192 6.68885 41.1209 6.25888C40.5225 5.82891 40.0311 5.2696 39.684 4.62348C39.3706 4.01399 38.8695 3.51888 38.253 3.20969C37.6365 2.90051 36.9366 2.79327 36.2545 2.90348C35.5224 3.00499 34.7766 2.94009 34.0738 2.71372C33.3709 2.48734 32.7294 2.10544 32.198 1.59703C31.2812 0.610138 29.5712 0.346968 28.398 1.00019C27.2247 1.65342 25.301 1.65342 24.1325 1.00019C23.5179 0.684003 22.8172 0.570459 22.1327 0.676139C21.4482 0.781819 20.8158 1.10119 20.3277 1.58763C19.7968 2.09662 19.1553 2.47891 18.4523 2.70533C17.7493 2.93174 17.0033 2.9963 16.2712 2.89408C15.59 2.78564 14.8915 2.89428 14.2768 3.2043C13.662 3.51432 13.1628 4.00967 12.8512 4.61878C12.286 5.82185 10.7327 6.94502 9.39325 7.0954C8.71136 7.20379 8.08151 7.52252 7.59359 8.0061C7.10566 8.48967 6.78461 9.11338 6.67625 9.7882C6.54739 10.5086 6.25407 11.1903 5.81863 11.7816C5.38318 12.3728 4.8171 12.8579 4.1635 13.2C3.54941 13.5123 3.0507 14.0085 2.73851 14.6178C2.42632 15.2271 2.3166 15.9184 2.425 16.593C2.68625 17.8948 2.0925 19.7041 1.1045 20.6064C0.116498 21.5087 -0.159001 23.2005 0.501249 24.3706C1.1615 25.5267 1.1615 27.43 0.501249 28.5861C0.186148 29.1967 0.0747925 29.8905 0.18318 30.5676C0.291568 31.2448 0.61412 31.8706 1.1045 32.355C2.09725 33.2479 2.68625 35.0572 2.425 36.3684C2.3165 37.0418 2.42627 37.7318 2.73858 38.3397C3.05088 38.9475 3.54969 39.4419 4.1635 39.752C5.389 40.3112 6.51475 41.8527 6.6715 43.1685C6.833 44.4938 8.049 45.7062 9.3885 45.8566C10.728 46.007 12.2812 47.1349 12.8465 48.3426C13.1605 48.9494 13.6603 49.4425 14.2745 49.7514C14.8888 50.0603 15.586 50.1692 16.2665 50.0626C17.587 49.8042 19.4157 50.3869 20.323 51.3691C20.8123 51.8532 21.4439 52.1717 22.1274 52.2789C22.8109 52.3861 23.5111 52.2766 24.1277 51.9659C25.2962 51.3127 27.22 51.3127 28.3932 51.9659C29.5665 52.6192 31.2765 52.3466 32.1932 51.3691C33.11 50.3822 34.9292 49.8042 36.2497 50.0626C36.9319 50.1713 37.6312 50.064 38.248 49.7559C38.8648 49.4479 39.3674 48.9549 39.684 48.3473ZM26.2652 42.4542C21.982 42.4542 17.8742 40.7708 14.8455 37.7743C11.8168 34.7778 10.1152 30.7137 10.1152 26.476C10.1152 22.2383 11.8168 18.1742 14.8455 15.1777C17.8742 12.1812 21.982 10.4978 26.2652 10.4978C30.5485 10.4978 34.6563 12.1812 37.685 15.1777C40.7137 18.1742 42.4152 22.2383 42.4152 26.476C42.4152 30.7137 40.7137 34.7778 37.685 37.7743C34.6563 40.7708 30.5485 42.4542 26.2652 42.4542ZM7.1465 51.9001L1.24225 85.0267L16.1002 82.8461L29.31 89.9235L35.1905 56.9286C30.4423 58.3021 25.4361 58.5628 20.5685 57.69C15.7008 56.8172 11.1054 54.8349 7.1465 51.9001ZM45.08 52.1257C43.5966 53.1924 42.0233 54.1311 40.3775 54.9313L36.8245 74.8382L52.8272 66.2476L45.08 52.1257Z" fill="white"/>
</svg>
