<svg width="52" height="264" viewBox="0 0 52 264" fill="none" xmlns="http://www.w3.org/2000/svg">
<path d="M50 1C-60.25 105.554 50 263 50 263" stroke="#686868"/>
<path d="M50.4042 263.36C50.6764 263.406 50.9346 263.223 50.9808 262.951L51.7344 258.515C51.7806 258.242 51.5974 257.984 51.3252 257.938C51.0529 257.892 50.7948 258.075 50.7485 258.347L50.0787 262.291L46.1352 261.621C45.8629 261.575 45.6047 261.758 45.5585 262.03C45.5123 262.302 45.6955 262.56 45.9677 262.607L50.4042 263.36ZM49.5014 262.341L50.0801 263.157L50.8957 262.578L50.3169 261.762L49.5014 262.341Z" fill="white"/>
</svg>
