<svg width="10" height="10" viewBox="0 0 10 10" fill="none" xmlns="http://www.w3.org/2000/svg">
<path d="M2.45478 9.26726C2.45478 9.16326 2.43478 9.11126 2.39478 9.11126L2.11878 9.24326C2.11878 9.18726 2.08678 9.14726 2.02278 9.12326L1.92678 9.11126C1.86278 9.11126 1.78278 9.13926 1.68678 9.19526C1.67078 9.15526 1.65078 9.11526 1.62678 9.07526C1.60278 9.03526 1.58278 8.99926 1.56678 8.96726C1.46278 8.76726 1.35878 8.54726 1.25478 8.30726C1.15878 8.05926 1.06678 7.82326 0.978777 7.59926C0.898777 7.37526 0.834777 7.19926 0.786777 7.07126C0.754777 6.96726 0.718777 6.81126 0.678777 6.60326C0.638777 6.39526 0.598777 6.13126 0.558777 5.81126C0.646777 5.86726 0.714777 5.89526 0.762777 5.89526C0.818777 5.89526 0.870777 5.81126 0.918777 5.64326C0.942777 5.67526 0.986777 5.69126 1.05078 5.69126C1.09878 5.69126 1.13478 5.67526 1.15878 5.64326L1.35078 5.35526L1.56678 5.42726H1.57878C1.59478 5.42726 1.61078 5.41926 1.62678 5.40326C1.64278 5.38726 1.66678 5.37126 1.69878 5.35526C1.76278 5.31526 1.81078 5.29526 1.84278 5.29526L1.87878 5.30726C2.07878 5.40326 2.20678 5.57926 2.26278 5.83526C2.40678 6.44326 2.55078 6.74726 2.69478 6.74726C2.83878 6.74726 3.00678 6.59526 3.19878 6.29126C3.29478 6.13926 3.39078 5.96326 3.48678 5.76326C3.59078 5.56326 3.69478 5.33926 3.79878 5.09126C3.81478 5.18726 3.83078 5.23526 3.84678 5.23526C3.88678 5.23526 3.95478 5.13526 4.05078 4.93526C4.15478 4.73526 4.31878 4.45926 4.54278 4.10726C4.67078 3.89126 4.83078 3.64726 5.02278 3.37526C5.22278 3.10326 5.43478 2.82326 5.65878 2.53526C5.88278 2.24726 6.09878 1.97526 6.30678 1.71926C6.52278 1.46326 6.71478 1.24326 6.88278 1.05926C7.05078 0.875257 7.17478 0.755257 7.25478 0.699258C7.55878 0.491257 7.79878 0.291257 7.97478 0.0992575C7.96678 0.155257 7.95478 0.207257 7.93878 0.255258C7.93078 0.295258 7.92678 0.323257 7.92678 0.339257C7.92678 0.371257 7.94278 0.387257 7.97478 0.387257L8.31078 0.219257V0.267257C8.31078 0.331258 8.32678 0.363258 8.35878 0.363258C8.38278 0.363258 8.43078 0.327258 8.50278 0.255258C8.57478 0.183258 8.61478 0.131258 8.62278 0.0992575L8.59878 0.267257L9.00678 0.0272577L8.91078 0.243258C9.03878 0.155257 9.13078 0.111257 9.18678 0.111257C9.21878 0.111257 9.24278 0.131257 9.25878 0.171257C9.27478 0.203257 9.28278 0.235257 9.28278 0.267257C9.28278 0.315257 9.26278 0.371257 9.22278 0.435257C9.18278 0.499258 9.13078 0.575258 9.06678 0.663257C9.01878 0.727257 8.93878 0.823257 8.82678 0.951257C8.72278 1.07126 8.56278 1.25126 8.34678 1.49126C8.13078 1.72326 7.84278 2.04726 7.48278 2.46326C7.38678 2.56726 7.23878 2.75126 7.03878 3.01526C6.83878 3.27126 6.61078 3.57126 6.35478 3.91526C6.10678 4.25126 5.85878 4.59126 5.61078 4.93526C5.36278 5.27926 5.14278 5.59126 4.95078 5.87126C4.75878 6.14326 4.62278 6.34726 4.54278 6.48326L3.79878 7.74326C3.63878 8.01526 3.50678 8.23926 3.40278 8.41526C3.29878 8.58326 3.21878 8.69926 3.16278 8.76326C3.04278 8.90726 2.91078 9.03526 2.76678 9.14726L2.65878 9.08726L2.56278 9.14726L2.45478 9.26726Z" fill="white"/>
</svg>
