<svg id="Сгруппировать_114" data-name="Сгруппировать 114" xmlns="http://www.w3.org/2000/svg" width="204.208" height="74.958" viewBox="0 0 204.208 74.958">
  <path id="Контур_103" data-name="Контур 103" d="M0,0H1.612V4.831H7.783V0H9.341V11.273H7.783V6.119H1.612v5.153H0Z" transform="translate(2.914 63.352)" fill="#fff"/>
  <path id="Контур_104" data-name="Контур 104" d="M3.541,2.681c0,2.845-1.718,4.348-4.67,4.348-3.006,0-4.831-1.342-4.831-4.348V-4.513h1.61V2.681A2.884,2.884,0,0,0-1.13,5.794,2.827,2.827,0,0,0,1.983,2.681V-4.513H3.541Z" transform="translate(33.677 67.865)" fill="#fff"/>
  <path id="Контур_105" data-name="Контур 105" d="M2.121,4.421C-1.423,4.636-3.57,1.63-3.57-1.324c0-3.274,1.879-6.119,5.636-6.119,2.577,0,4.618,1.074,5.047,3.759H5.557C5.235-5.4,3.785-6.208,2.066-6.208c-2.9,0-4.079,2.415-4.079,4.831,0,2.361,1.5,4.616,4.348,4.562,1.449-.053,2.63-.322,3.221-1.288A4.182,4.182,0,0,0,5.825-.571H2.066V-1.859H7.221v4.24c-1.344,1.664-2.954,1.934-5.1,2.04" transform="translate(54.584 70.527)" fill="#fff"/>
  <path id="Контур_106" data-name="Контур 106" d="M2.1,3.941c2.845,0,4.081-2.416,4.081-4.67S4.946-5.4,2.1-5.4c-2.9,0-4.079,2.415-4.079,4.67S-.8,3.941,2.1,3.941m0-10.576c3.759,0,5.638,2.845,5.638,5.906s-1.879,5.9-5.638,5.9-5.636-2.844-5.636-5.9S-1.657-6.635,2.1-6.635" transform="translate(78.977 69.719)" fill="#fff"/>
  <path id="Контур_107" data-name="Контур 107" d="M.58,1.8H3.695c1.771,0,2.523-.591,2.523-1.773C6.218-1.528,5.09-1.8,3.695-1.8H.58Zm0,5.208H4.5a1.991,1.991,0,0,0,2.2-2.04c0-1.449-1.234-1.879-2.576-1.879H.58ZM-.977-3.031H3.265a7.865,7.865,0,0,1,3.113.376,2.707,2.707,0,0,1,1.4,2.362A2.635,2.635,0,0,1,6.056,2.283,2.628,2.628,0,0,1,8.311,5.022a3.3,3.3,0,0,1-3.6,3.22H-.977Z" transform="translate(117.753 66.383)" fill="#fff"/>
  <path id="Контур_108" data-name="Контур 108" d="M2.1,3.941c2.9,0,4.081-2.416,4.081-4.67S5-5.4,2.1-5.4C-.745-5.4-1.98-2.985-1.98-.729S-.745,3.941,2.1,3.941m0-10.576c3.757,0,5.691,2.845,5.691,5.906s-1.934,5.9-5.691,5.9-5.636-2.844-5.636-5.9S-1.657-6.635,2.1-6.635" transform="translate(143.665 69.719)" fill="#fff"/>
  <path id="Контур_109" data-name="Контур 109" d="M2.78,1.341C2.619-.323,1.493-1.022-.117-1.022c-1.344,0-2.632.483-2.632,1.932,0,1.4,1.879,1.612,3.759,2.04,1.878.376,3.757,1.02,3.757,3.274,0,2.362-2.469,3.33-4.616,3.33-2.63,0-4.831-1.235-4.831-3.974h1.449C-3.232,7.46-1.568,8.319.2,8.319c1.447,0,3.006-.429,3.006-2.094,0-1.556-1.879-1.771-3.759-2.2-1.879-.376-3.811-.913-3.811-3.006,0-2.255,2.147-3.276,4.294-3.276,2.415,0,4.24,1.074,4.348,3.6Z" transform="translate(170.31 65.34)" fill="#fff"/>
  <path id="Контур_110" data-name="Контур 110" d="M2.8,1.341C2.585-.323,1.459-1.022-.153-1.022c-1.288,0-2.63.483-2.63,1.932,0,1.4,1.879,1.612,3.813,2.04,1.878.376,3.757,1.02,3.757,3.274,0,2.362-2.469,3.33-4.616,3.33-2.632,0-4.886-1.235-4.886-3.974h1.5c0,1.879,1.664,2.738,3.435,2.738,1.4,0,3.006-.429,3.006-2.094,0-1.556-1.932-1.771-3.811-2.2-1.879-.376-3.757-.913-3.757-3.006,0-2.255,2.093-3.276,4.294-3.276,2.362,0,4.242,1.074,4.294,3.6Z" transform="translate(195.736 65.34)" fill="#fff"/>
  <path id="Контур_111" data-name="Контур 111" d="M6.247.88V21.172H13.6a6.768,6.768,0,0,0,1.02-.161c4.294-.375,7.033-5.528,7.3-9.287C22.353,7.7,19.882,1.041,13.709.88c-1.825-.054-7.461,0-7.461,0m0,22.654V47.853H12.9a11.109,11.109,0,0,0,7.139-2.469,12.662,12.662,0,0,0,4.67-11.22,11.532,11.532,0,0,0-10.361-10.63ZM21.923-1.482a15.936,15.936,0,0,1,9.449,3.65c2.844,2.63,3.7,6.6,3,10.415-.912,6.389-8.858,9.073-8.858,9.073,6.658.8,11.65,5.8,12.4,11.166a13.8,13.8,0,0,1-5.636,13.206c-4.4,3.274-10.844,4.348-14.335,4.348H-10.5V48.121c3.65.054,4.081.054,4.081-1.4-.054-5.475,0-43.7,0-44.718C-6.422.826-7.013.773-10.5.773a20.431,20.431,0,0,1,.053-2.255Z" transform="translate(10.518 2.884)" fill="#fff"/>
  <path id="Контур_112" data-name="Контур 112" d="M8.134,1.563C4.591,3.925,2.122,9.348.941,13.855c-1.878,6.819-1.5,14.872.376,23.138C3.25,45.26,8.565,48.16,11.73,48.858,17.636,50.2,21.5,46.763,23.6,43.6c4.079-6.174,5.1-18.9,3.811-26.2C26.226,10.636,24.4,5.911,20.858,2.744A11,11,0,0,0,8.134,1.563m31.835,32.1a25.912,25.912,0,0,1-13.1,14.977c-7.461,4.026-18.144,4.67-25.607.215-4.616-2.738-16.373-10.039-14.816-27.271.322-3.7,2.2-12.991,12.562-19.969A27.9,27.9,0,0,1,25.8.059C40.613,6.824,43.726,23.52,39.969,33.665" transform="translate(68.218 2.631)" fill="#fff"/>
  <path id="Контур_113" data-name="Контур 113" d="M12.858,1.374c.054,3.865,0,11.864,0,11.864l-1.879.054C9.852,8.3,7.435,4,3.3,2.018-.67.086-6.683-.881-10.6,2.556a5.485,5.485,0,0,0-1.825,6.5c1.4,3.489,5.262,4.564,8.268,5.906,2.469.966,7.731,2.684,7.731,2.684,5.85,2.039,12.347,6.013,14.118,12.615a18.757,18.757,0,0,1,.161,8.965c-1.449,6.443-5.584,8-7.946,9.61-1.181.8-12.239,5.047-25.552.7-2.738-.913-5.906-1.988-5.906-1.988V33.1s1.449.053,2.04.053a34.761,34.761,0,0,0,3.65,7.892c4.509,6.55,10.9,8.536,17.929,7.033C4.859,47.434,7.918,45.5,8.723,42.6c1.02-3.274.7-8.7-9.18-12.347C-7.6,26.98-16.561,25.64-20.8,17.694c-1.664-4.455-1.181-12.186,4.3-15.943C-10.977-2.008-5.61-2.867.886-2.008A36.757,36.757,0,0,1,12.858,1.374" transform="translate(138.867 2.443)" fill="#fff"/>
  <path id="Контур_114" data-name="Контур 114" d="M12.857,1.374c.054,3.865,0,11.864,0,11.864l-1.879.054C9.851,8.3,7.434,4,3.3,2.018-.671.086-6.683-.881-10.6,2.556a5.485,5.485,0,0,0-1.825,6.5c1.4,3.489,5.262,4.564,8.268,5.906,2.469.966,7.729,2.684,7.729,2.684,5.853,2.039,12.347,6.013,14.12,12.615a18.757,18.757,0,0,1,.161,8.965c-1.449,6.443-5.584,8-7.946,9.61-1.18.8-12.239,5.047-25.552.7-2.738-.913-5.906-1.988-5.906-1.988V33.1s1.449.053,2.039.053a34.843,34.843,0,0,0,3.652,7.892c4.509,6.55,10.9,8.536,17.929,7.033C4.859,47.434,7.917,45.5,8.724,42.6c1.019-3.274.7-8.7-9.181-12.347C-7.6,26.98-16.561,25.64-20.8,17.694c-1.664-4.455-1.18-12.186,4.348-15.943C-10.979-2.008-5.609-2.867.832-2.008A36.738,36.738,0,0,1,12.857,1.374" transform="translate(185.894 2.443)" fill="#fff"/>
</svg>
