<svg xmlns="http://www.w3.org/2000/svg" xmlns:xlink="http://www.w3.org/1999/xlink" width="260" height="43.954" viewBox="0 0 260 43.954">
  <defs>
    <linearGradient id="linear-gradient" x1="0.559" y1="0.669" x2="0.164" y2="0.211" gradientUnits="objectBoundingBox">
      <stop offset="0" stop-color="#f42607"/>
      <stop offset="1" stop-color="#ff5c7e"/>
    </linearGradient>
    <linearGradient id="linear-gradient-2" x1="1.288" y1="0.5" x2="-0.158" y2="0.5" gradientUnits="objectBoundingBox">
      <stop offset="0" stop-color="#ff8f00"/>
      <stop offset="1" stop-color="#ffe0a9"/>
    </linearGradient>
    <linearGradient id="linear-gradient-3" x1="1.176" y1="0.5" x2="-0.046" y2="0.5" gradientUnits="objectBoundingBox">
      <stop offset="0" stop-color="#ffb900"/>
      <stop offset="1" stop-color="#ffeaa8"/>
    </linearGradient>
    <linearGradient id="linear-gradient-4" x1="0.925" y1="0.604" x2="0.201" y2="0.427" gradientUnits="objectBoundingBox">
      <stop offset="0" stop-color="#ffab00"/>
      <stop offset="1" stop-color="#ffe78f"/>
    </linearGradient>
    <linearGradient id="linear-gradient-5" x1="0.81" y1="0.701" x2="0.314" y2="0.136" xlink:href="#linear-gradient"/>
  </defs>
  <g id="Сгруппировать_1" data-name="Сгруппировать 1" transform="translate(0 0)">
    <path id="BeautyDiary" d="M180.981,34l4.766-10.453L178.03,8.208h4.41l5.383,11.326,4.994-11.326H197L185.1,34ZM95.987,34l4.767-10.453L93.036,8.208h4.41l5.384,11.326,4.993-11.326h4.183L100.105,34ZM60.9,19.029V8.269h3.859v9.808c0,2.493,1.167,4.363,3.827,4.363,2.432,0,3.989-1.771,3.989-4.429V8.269h3.858V25.787H72.671V23.424a6.477,6.477,0,0,1-5.286,2.723C63.04,26.148,60.9,23.031,60.9,19.029Zm-38.913-1.9a8.749,8.749,0,0,1,8.723-8.954c5.384,0,8.432,3.718,8.432,8.922a9.06,9.06,0,0,1-.066,1.2H25.943A4.9,4.9,0,0,0,31,22.785,4.8,4.8,0,0,0,35.671,20.1l2.789,1.843a8.235,8.235,0,0,1-7.394,4.17A8.857,8.857,0,0,1,21.986,17.129Zm126.307,3.879v-.194c0-4.009,4.183-5.269,7.2-5.269h2.14c1.167,0,1.622-.614,1.622-1.454,0-1.325-1.135-2.586-3.406-2.586a4.58,4.58,0,0,0-4.313,2.748l-2.951-1.681c1.1-2.36,3.308-4.4,7.362-4.4,2.918,0,5.35,1.035,6.485,3.524a7.37,7.37,0,0,1,.583,3.1V25.792h-3.793v-2.36a5.763,5.763,0,0,1-5.091,2.651C150.758,26.083,148.293,23.981,148.293,21.008Zm-106.267,0v-.194c0-4.009,4.183-5.269,7.2-5.269h2.14c1.167,0,1.622-.614,1.622-1.454,0-1.325-1.135-2.586-3.4-2.586a4.58,4.58,0,0,0-4.314,2.748l-2.95-1.681c1.1-2.36,3.307-4.4,7.361-4.4,2.918,0,5.351,1.035,6.485,3.524a7.37,7.37,0,0,1,.583,3.1V25.792H52.955v-2.36a5.762,5.762,0,0,1-5.091,2.651C44.492,26.083,42.026,23.981,42.026,21.008Zm40.925-.868V11.765H79.772V8.251h3.179V2.831H86.81v5.42h4.248v3.514H86.81v7.751c0,2.168,1.07,2.923,2.983,2.923a6.079,6.079,0,0,0,1.232-.131v3.317a6.549,6.549,0,0,1-2.075.361C85.221,25.986,82.951,24.016,82.951,20.14Zm84.409,5.652V8.37h3.762v2.773a5.379,5.379,0,0,1,4.767-2.937,4.643,4.643,0,0,1,.94.1v3.981a7.527,7.527,0,0,0-1.1-.1c-2.95,0-4.507,1.761-4.507,4.764v8.842Zm-26.688,0V8.206h3.859V25.792Zm-25.391,0V0h8.041c9.761,0,13.555,7.543,13.555,12.912,0,5.929-4.118,12.88-13.49,12.88ZM0,25.792V0H9.7c4.865,0,8.172,2.536,8.172,6.786A6.175,6.175,0,0,1,14.2,12.352a6.394,6.394,0,0,1,4.831,6.225c0,4.151-2.951,7.214-9.014,7.214ZM140.056,2.939a2.53,2.53,0,1,1,5.059,0,2.529,2.529,0,0,1-5.059,0Z" transform="translate(63 9)" fill="#ff003c"/>
    <g id="heart">
      <path id="Fill_3" data-name="Fill 3" d="M3.607,3.639a12.591,12.591,0,0,0,0,17.644h0l.217.219,4.853,4.9,9.06-2.007L32.451,39.235,44.417,27.164,21.1,3.639A12.275,12.275,0,0,0,12.352,0h0A12.274,12.274,0,0,0,3.607,3.639" transform="translate(0 0.166)" fill="url(#linear-gradient)"/>
      <path id="Fill_6" data-name="Fill 6" d="M3.149,21.507l6.241,6.3,3.192-.463L13.854,3.059,2.47,0c-3.418,7.242-3.377,16.246.68,21.507" transform="translate(6.26 3.537)" fill="url(#linear-gradient-2)"/>
      <path id="Fill_9" data-name="Fill 9" d="M.179,25.571,2.4,27.808,7.31,29.146,17.993,7.351,8.733,0C2.445,7.352-.826,17.267.179,25.571" transform="translate(10.073 0.773)" fill="url(#linear-gradient-3)"/>
      <path id="Fill_12" data-name="Fill 12" d="M0,25.066l8.31,2.55L24.543,9.644,17.657,0C9.146,5.614,1.486,17.764,0,25.066" transform="translate(12.961 0)" fill="url(#linear-gradient-4)"/>
      <path id="Path" d="M10.87,21.5S5.648,27.379,0,21.682L15.931,37.753l1.776,1.792,1.971,1.985.626.631.934.942a2.419,2.419,0,0,0,3.4-.028l1.531-1.544h0l2.216-2.236.058-.059,2.662-2.685L46.244,21.283a12.591,12.591,0,0,0,0-17.644,12.327,12.327,0,0,0-17.49,0Z" transform="translate(4.002 0.166)" fill="url(#linear-gradient-5)"/>
    </g>
  </g>
</svg>
