<svg xmlns="http://www.w3.org/2000/svg" width="264.832" height="51.891" viewBox="0 0 264.832 51.891">
  <g id="Сгруппировать_5738" data-name="Сгруппировать 5738" transform="translate(-111.248 -98.891)">
    <g id="Сгруппировать_17" data-name="Сгруппировать 17" transform="translate(111.248 98.891)">
      <g id="Сгруппировать_14" data-name="Сгруппировать 14">
        <path id="Контур_28" data-name="Контур 28" d="M198.461,117.577l7.1,12.29-21.287-12.29h14.192m2.125-3.68H170.6l45.014,26.024L200.586,113.9Z" transform="translate(-155.633 -113.896)" fill="#1d7eff"/>
        <path id="Контур_29" data-name="Контур 29" d="M205.987,232.126l-7.067,12.241H184.786l21.2-12.241M216,222.113h0Zm0,0-44.892,25.918h29.928L216,222.113Z" transform="translate(-156.022 -196.141)" fill="#1d7eff"/>
        <path id="Контур_30" data-name="Контур 30" d="M119.5,127.585l.115,24.506-7.132-12.219,7.016-12.286m-11.253,12.306,14.983,25.874-.02-51.874Z" transform="translate(-108.248 -113.891)" fill="#1d7eff"/>
      </g>
      <g id="Сгруппировать_15" data-name="Сгруппировать 15" transform="translate(67.499 12.267)">
        <path id="Контур_31" data-name="Контур 31" d="M415.493,179.5c0,8.051-5.98,13.679-14.617,13.679H389.5V165.82h11.608C409.591,165.82,415.493,171.409,415.493,179.5Zm-6.292.039c0-5.042-3.517-8.52-8.208-8.52h-5.315V187.98h5.589C405.839,187.98,409.2,184.541,409.2,179.538Z" transform="translate(-389.503 -165.624)"/>
        <path id="Контур_32" data-name="Контур 32" d="M518.321,170.36a8.423,8.423,0,0,0,0,16.845,10.557,10.557,0,0,0,7.113-3.2l3.635,3.947a16.013,16.013,0,0,1-11.06,4.886c-8.169,0-14.343-6.058-14.343-13.992,0-7.9,6.292-13.836,14.578-13.836a15.57,15.57,0,0,1,10.787,4.534l-3.6,4.377A9.9,9.9,0,0,0,518.321,170.36Z" transform="translate(-476.267 -165.005)"/>
        <path id="Контур_33" data-name="Контур 33" d="M667.1,179.5c0,8.051-5.98,13.679-14.617,13.679H641.111V165.82h11.608C661.2,165.82,667.1,171.409,667.1,179.5Zm-6.292.039c0-5.042-3.517-8.52-8.207-8.52h-5.315V187.98h5.589C657.448,187.98,660.809,184.541,660.809,179.538Z" transform="translate(-580.727 -165.624)"/>
        <path id="Контур_34" data-name="Контур 34" d="M766.008,165.82v27.358h-6.175V165.82Z" transform="translate(-670.957 -165.624)"/>
        <path id="Контур_35" data-name="Контур 35" d="M814.583,193.178l-4.338-7.817h-6.293v7.817h-6.175V165.82h11.881c7.152,0,11.216,3.439,11.216,9.5,0,4.221-1.8,7.27-5.12,8.833l5.824,9.028ZM803.953,180.2h5.707c3.4,0,5.354-1.563,5.354-4.69,0-3.048-1.955-4.573-5.354-4.573h-5.707Z" transform="translate(-699.795 -165.624)"/>
        <path id="Контур_36" data-name="Контур 36" d="M930,165.82v5.12H915.345v5.941h13.21V182h-13.21v6.058h15.086v5.12H909.17V165.82Z" transform="translate(-784.454 -165.624)"/>
        <path id="Контур_37" data-name="Контур 37" d="M1017.956,170.36a8.423,8.423,0,0,0,0,16.845,10.557,10.557,0,0,0,7.114-3.2l3.635,3.947a16.015,16.015,0,0,1-11.061,4.886c-8.168,0-14.343-6.058-14.343-13.992,0-7.9,6.292-13.836,14.578-13.836a15.57,15.57,0,0,1,10.787,4.534l-3.6,4.377A9.9,9.9,0,0,0,1017.956,170.36Z" transform="translate(-855.994 -165.005)"/>
        <path id="Контур_38" data-name="Контур 38" d="M1139.347,165.82v5.237h-8.364v22.121h-6.175V171.057h-8.325V165.82Z" transform="translate(-942.014 -165.624)"/>
      </g>
    </g>
  </g>
</svg>
