<svg width="166" height="150" viewBox="0 0 166 150" fill="none" xmlns="http://www.w3.org/2000/svg">
<path d="M164.835 65.8004C164.129 64.407 161.978 63.8199 160.637 63.3748C156.349 61.9362 151.766 61.7104 147.478 60.3751C144.082 59.3171 140.975 57.9946 139.031 54.8659C137.912 53.0817 137.23 51.0567 137.041 48.9567C136.893 47.0988 137.041 45.3054 136.752 43.4475C136.516 42.3048 136.081 41.2129 135.468 40.222C135.429 39.1962 135.417 38.1705 135.436 37.1448C135.436 36.3836 135.481 35.6095 135.539 34.8224C136.158 32.9273 136.894 31.0723 137.74 29.2681C139.204 26.2103 142.182 23.9331 144.853 21.9848C150.501 17.8691 157.402 14.8887 161.94 9.38592C163.545 7.4506 165.541 3.99929 164.238 1.48983C163.179 -0.555154 160.098 -0.0584231 158.352 0.483465C156.727 0.991408 155.234 1.85506 153.98 3.01228C152.568 4.3412 151.862 6.30232 150.642 7.79896C149.076 9.73428 146.477 9.62461 144.256 10.0504C143.087 10.2762 142.4 11.1535 141.688 12.0631C140.558 13.4759 139.666 15.0628 138.479 16.4563C137.54 17.6474 136.309 18.5715 134.906 19.1373C133.503 19.703 131.978 19.8907 130.48 19.6818C127.971 19.3722 124.864 18.3916 124.183 21.572C116.243 19.7721 107.411 24.3975 100.253 19.3657C95.0541 15.708 96.37 8.66985 96.0362 3.18001C96.0362 3.08324 95.8115 3.10904 95.7602 3.10904C93.4943 3.32838 91.7997 4.25733 91.1385 6.53456C90.8496 7.54737 90.7662 8.61179 90.4581 9.62461C90.2885 10.2206 89.9626 10.7598 89.5145 11.1858C89.0574 11.5515 88.5043 11.7756 87.9226 11.8309C87.7621 11.8631 87.4604 10.7019 87.3962 10.5407C85.6952 6.34747 80.008 14.0436 78.6407 15.0564L78.3198 15.2628C78.3326 15.16 78.3326 15.056 78.3198 14.9532C78.2363 14.0694 77.4276 13.1533 76.8755 12.534C75.9576 11.5019 74.1282 10.1471 72.7353 11.1729C70.0842 13.1082 73.1333 16.5659 74.7252 18.0432C75.0782 18.3787 76.484 19.1206 76.1438 19.7076C75.5799 20.6439 74.7778 21.4122 73.8201 21.9332C72.1126 22.8686 69.9109 22.7848 68.043 23.1589C66.5476 23.4365 65.1509 24.1039 63.9926 25.0942C61.2838 22.5138 60.7318 19.1528 61.6754 15.5789C61.6754 15.4435 61.4635 15.4628 61.3993 15.4693C59.0436 15.6692 57.2591 16.7079 57.2591 19.2754C57.2591 22.0945 59.1206 24.6878 58.9537 27.5005C58.8446 29.3777 56.3091 29.5003 55.1023 28.623C53.8956 27.7456 53.1766 26.3586 52.4449 25.1781C51.3472 23.417 50.0057 20.9785 47.6178 21.1397C47.5023 21.1397 47.1235 21.2043 47.1556 21.3913C47.7269 24.9523 50.6219 27.107 52.355 30.0551C52.7578 30.7541 52.9328 31.5622 52.8557 32.3662C52.7786 33.1702 52.4531 33.9298 51.9249 34.5386C51.0199 35.5708 49.9671 36.1836 49.3573 37.4803C48.4394 39.4156 48.0735 41.667 47.5472 43.7184C46.9925 45.6646 46.253 47.5526 45.3391 49.3567C44.7549 50.6017 43.4775 51.3952 42.5853 52.408C41.785 53.3804 41.3915 54.6269 41.4877 55.8851L41.2758 56.2464C39.3501 59.6719 35.9224 60.8524 32.2893 61.7298C24.8946 63.5103 16.8837 63.5812 9.28362 63.3941C7.70455 63.3619 0.149404 62.4394 0.0017675 64.9876C-0.0945173 66.7358 3.76971 68.4647 5.06635 68.6389C8.45557 69.0904 11.787 67.4583 14.8874 66.3036C17.9878 65.1488 20.857 65.1553 24.0344 65.2198C27.6169 65.2456 31.1881 65.6259 34.6964 66.3552C37.1356 66.8971 40.8137 67.8325 41.7573 70.5161C41.8919 70.9818 41.9328 71.4699 41.8777 71.9517C41.8226 72.4335 41.6726 72.8994 41.4363 73.3223C40.6083 73.89 39.7995 74.4771 38.9907 75.0448L38.3488 75.4899C37.5551 75.5572 36.7677 75.6844 35.993 75.8705C34.369 76.3672 32.5974 78.8638 34.3433 80.3024C35.5052 81.2636 38.1498 79.4637 39.1319 78.9734C40.114 78.4832 41.738 79.3541 42.9448 80.1604C43.0367 80.3151 43.1161 80.4769 43.1823 80.6443C43.5089 81.3801 43.5411 82.2141 43.2721 82.9731C43.1784 83.1649 43.0449 83.3343 42.8806 83.4698C42.3606 83.5989 41.8471 83.7085 41.3785 83.844C40.7082 84.03 40.0483 84.2517 39.4015 84.5085L39.5299 84.4246C39.7481 84.2827 39.4336 84.1407 39.2795 84.244L38.1947 84.96C37.8526 85.0943 37.5238 85.2606 37.2126 85.4568C36.8407 85.6975 36.5128 86.0008 36.2434 86.3535C35.7012 86.7876 35.2043 87.2761 34.7606 87.8114C33.7913 89.0113 33.5345 91.1595 35.2035 91.9723C36.8724 92.7852 38.7403 91.3272 40.2552 90.8305C41.4001 90.5585 42.591 90.5475 43.7407 90.7982C44.7357 90.9531 45.2171 91.4433 45.3005 92.1401C45.2568 92.4174 45.2354 92.6979 45.2363 92.9787C45.1978 93.1271 45.1529 93.2883 45.0951 93.4496C45.0374 93.6109 45.1657 93.6302 45.2877 93.6109C45.3524 94.0922 45.4978 94.559 45.7178 94.9914C46.6164 96.7461 48.7604 97.617 50.2752 98.7201C51.3411 99.4329 52.1369 100.486 52.534 101.709C52.9312 102.932 52.9065 104.254 52.4641 105.461C50.5384 110.88 42.7586 110.996 40.3322 115.983C39.4914 117.699 39.6069 120.796 41.4941 121.789C42.9512 122.537 45.0438 121.841 46.4303 121.273C48.1901 120.531 49.8576 119.585 51.3986 118.454C52.477 117.673 53.9662 116.706 54.3449 115.345C54.8327 113.596 54.0239 111.667 54.929 110.003C55.1555 109.624 55.4925 109.324 55.8945 109.144C56.2964 108.964 56.7437 108.912 57.1757 108.997C58.1321 109.642 58.7355 111.222 59.1334 112.087C59.6855 113.261 60.2183 114.867 61.3737 115.59C62.5291 116.312 63.6267 115.274 64.3906 114.39L64.5511 114.325C64.5599 114.863 64.5213 115.401 64.4355 115.932C64.3392 117.112 64.2173 118.286 64.1338 119.473C64.0119 121.17 63.5946 123.95 64.7757 125.402C65.9568 126.853 68.1393 124.647 68.6271 123.653C69.1792 122.537 69.2177 121.209 69.4809 120.009C69.5959 119.407 69.8389 118.837 70.1934 118.338C70.4215 118.231 70.6576 118.143 70.8994 118.073C73.9292 117.164 73.0177 120.299 72.7866 122.015C72.7032 122.66 73.2552 123.105 73.2616 123.802C73.2681 124.499 72.9856 125.279 73.1461 126.015C73.4863 127.589 77.0745 125.737 77.5559 125.286C79.4367 123.499 77.5559 120.067 80.5536 119.189C81.4137 118.931 80.8104 120.66 80.7141 121.125C80.4956 122.045 80.2191 122.95 79.886 123.834C79.2468 125.535 78.5205 127.202 77.71 128.827C74.8728 134.775 70.3667 142.052 72.838 148.858C72.8559 148.899 72.8856 148.934 72.9233 148.958C72.961 148.982 73.0051 148.994 73.0498 148.993C77.5431 149.471 79.2698 144.477 80.2326 141.007C80.9388 138.205 81.5023 135.37 81.9208 132.511C82.1327 131.279 82.3445 130.046 82.6077 128.827C82.7168 128.33 82.8452 127.84 82.9864 127.35C83.179 126.705 83.4999 126.589 84.0519 126.253C84.9174 125.639 85.6528 124.859 86.2151 123.957C86.4932 123.55 86.7955 123.16 87.1202 122.789C87.8584 121.996 88.7442 123.292 89.1358 123.815C89.8483 124.75 90.4196 125.486 90.3104 126.634C90.2334 127.472 90.1307 128.311 90.0665 129.15C90.0023 129.988 89.6942 132.279 90.8047 132.562C92.1976 132.917 93.597 131.15 94.4956 129.93C94.624 130.575 94.8294 131.182 94.9129 131.833C94.9129 131.988 95.1953 131.982 95.298 131.956C98.0004 131.227 98.8349 127.273 99.5987 125.002C100.066 123.414 100.696 121.879 101.479 120.421C101.657 120.123 101.873 119.85 102.121 119.609C102.561 119.523 103.015 119.545 103.444 119.673C104.652 120.11 105.817 120.661 106.923 121.318C107.833 121.791 108.828 122.074 109.85 122.15C110.358 122.39 110.903 122.541 111.461 122.595C111.564 122.595 112.18 122.402 111.942 122.318C112.225 122.415 113.38 121.518 113.682 121.344C114.889 120.647 116.108 119.97 117.328 119.286C119.003 118.344 120.537 117.628 121.699 116.061C123.529 113.57 124.909 110.358 127.399 108.474C128.844 107.39 130.692 109.668 131.687 110.493C132.56 111.325 133.696 111.823 134.897 111.9C136.437 111.9 136.489 110.951 136.347 109.655C136.039 106.81 135.205 104.016 134.749 101.191C134.44 99.5609 134.313 97.9013 134.37 96.2429C134.807 94.6173 135.434 93.0495 136.238 91.5724L136.469 91.1917C138.487 89.3875 140.705 87.8245 143.081 86.5341C146.438 84.5988 149.994 84.1149 153.602 82.8892C155.027 82.4054 157.235 81.3087 156.086 79.4702C155.606 78.7579 155.019 78.1246 154.346 77.5929C153.704 77.0252 151.779 76.3027 152.863 75.477C154.25 74.4319 154.725 72.8191 155.604 71.3999C155.739 71.1806 155.354 71.1806 155.245 71.2064C153.402 71.6358 151.465 71.3452 149.827 70.3935C149.69 70.3353 149.565 70.2501 149.461 70.143C149.357 70.0358 149.275 69.9089 149.22 69.7696C149.165 69.6303 149.138 69.4814 149.141 69.3316C149.144 69.1817 149.176 69.034 149.237 68.8969C150.494 68.3695 151.849 68.1209 153.21 68.1679C154.25 68.1357 155.328 68.2066 156.42 68.2647C158.448 69.0066 160.541 69.7871 162.563 68.9937C163.686 68.5163 165.612 67.3035 164.835 65.8004Z" fill="#009EE0"/>
<path d="M108.044 52.92L111.676 49.2875L115.211 52.8225L111.579 56.455C115.168 60.9479 116.901 66.6447 116.422 72.3753C115.942 78.106 113.286 83.4355 109 87.2693C104.714 91.1031 99.1223 93.1502 93.3739 92.9902C87.6254 92.8302 82.1564 90.4752 78.0901 86.4088C74.0238 82.3425 71.6687 76.8735 71.5087 71.125C71.3487 65.3766 73.3958 59.785 77.2296 55.4988C81.0634 51.2125 86.393 48.5569 92.1236 48.0773C97.8542 47.5977 103.551 49.3306 108.044 52.92ZM93.9989 88C96.2971 88 98.5727 87.5474 100.696 86.6679C102.819 85.7884 104.748 84.4994 106.373 82.8744C107.998 81.2493 109.287 79.3202 110.167 77.197C111.046 75.0738 111.499 72.7981 111.499 70.5C111.499 68.2019 111.046 65.9262 110.167 63.803C109.287 61.6798 107.998 59.7507 106.373 58.1256C104.748 56.5006 102.819 55.2116 100.696 54.3321C98.5727 53.4527 96.2971 53 93.9989 53C89.3576 53 84.9064 54.8437 81.6246 58.1256C78.3427 61.4075 76.4989 65.8587 76.4989 70.5C76.4989 75.1413 78.3427 79.5925 81.6246 82.8744C84.9064 86.1563 89.3576 88 93.9989 88ZM91.4989 58H96.4989V73H91.4989V58ZM83.9989 40.5H103.999V45.5H83.9989V40.5Z" fill="white"/>
</svg>
