<svg width="154" height="152" viewBox="0 0 154 152" fill="none" xmlns="http://www.w3.org/2000/svg">
<g clip-path="url(#clip0_1_729)">
<path d="M54.1315 3.56728C54.9335 3.56728 55.8647 3.41693 56.3064 2.6652C56.5176 2.10089 56.5029 1.47626 56.2657 0.922553C56.2306 0.808984 56.1601 0.709777 56.0647 0.63962C55.9692 0.569463 55.8538 0.532085 55.7355 0.533019C55.7351 0.430425 55.7037 0.330376 55.6454 0.246155C55.5872 0.161934 55.5048 0.0975253 55.4093 0.0614791C55.2221 -0.00294317 55.0202 -0.0100565 54.829 0.0410405C54.6378 0.0921375 54.466 0.199145 54.3354 0.348504C53.5266 1.16174 52.8877 2.05015 53.4246 3.18458C53.4868 3.31557 53.5888 3.42327 53.7159 3.49208C53.8429 3.56088 53.9885 3.58722 54.1315 3.56728Z" fill="#FFEC00"/>
<path d="M147.641 48.8695C148.203 49.1236 148.833 49.1843 149.432 49.0422C150.032 48.9001 150.568 48.5632 150.958 48.0836C151.096 47.8998 151.196 47.6902 151.252 47.4671C151.307 47.2439 151.318 47.0118 151.283 46.7844C151.249 46.5569 151.169 46.3388 151.049 46.1429C150.929 45.947 150.771 45.7773 150.584 45.6439C150.584 45.309 150.156 45.2133 149.905 45.2201H149.769C149.614 45.2069 149.459 45.2279 149.313 45.2817C148.399 45.4783 147.559 45.9335 146.894 46.5938C146.73 46.7468 146.604 46.9352 146.523 47.1449C146.443 47.3545 146.412 47.5797 146.431 47.8034C146.486 48.3843 147.193 48.6986 147.641 48.8695Z" fill="#FFEC00"/>
<path d="M153.995 84.6586C151.698 81.1664 147.321 79.7381 143.12 79.4784C143.718 79.0684 143.406 78.221 142.576 78.5012C138.125 79.991 133.061 77.7768 133.061 72.6104C133.102 66.7127 139.28 67.895 142.998 68.6399C144.065 68.8517 152.731 69.5556 149.795 66.4667C146.858 63.3777 138.716 63.9381 135.127 64.9154C134.047 65.2161 129.771 66.0703 132.082 63.7468C132.64 63.2384 133.029 62.5706 133.197 61.8333C133.319 61.3276 132.613 60.5075 132.279 60.241C129.459 58.0268 132.279 55.8878 134.251 54.5962C134.611 54.3638 134.604 54.1178 134.427 53.9128C137.574 52.8808 141.904 53.1132 143.732 50.3796C145.03 48.4251 142.237 47.441 140.83 47.482C139.172 47.5885 137.531 47.8772 135.936 48.3431C135.447 48.4661 134.957 48.6028 134.454 48.719L133.523 49.0607L132.701 49.3819C131.02 50.4525 129.45 50.0584 127.991 48.1996C128.317 47.9604 128.324 47.7486 128.174 47.6051C130.451 45.7941 134.631 43.7507 134.291 41.6049C134.257 41.4135 133.768 41.4955 133.666 41.516C132.451 41.6896 131.296 42.1588 130.302 42.8828C127.807 44.8237 122.594 47.5914 122.635 42.6436C122.635 40.3474 124.096 38.4681 125.625 36.951C126.625 35.9601 128.188 34.3814 127.162 32.96C125.061 30.0419 121.085 35.7755 119.427 33.5477C118.904 32.8643 118.842 31.5727 118.523 30.7594C117.986 29.3517 116.701 28.1421 116.069 26.7206C114.907 24.0964 119.094 22.9073 117.313 20.037C116.45 18.6361 114.785 18.9573 113.799 19.996C112.814 21.0348 112.549 22.7296 112.202 23.9665C111.855 25.2035 110.659 28.0669 110.34 25.1215C110.231 24.0827 111.155 19.1145 109.157 19.2853C106.69 19.504 105.079 23.0713 103.251 22.9209C102.075 22.2376 101.993 21.0348 100.817 20.3787C99.0639 19.3946 95.6927 19.5792 95.1966 17.3308C94.4081 13.7498 98.7037 10.7634 96.9841 6.98425C96.787 6.56055 95.8694 6.92958 95.6248 7.11409C91.7642 10.0253 94.0139 17.0984 91.2885 20.7819C90.2418 22.1966 89.4873 18.1782 89.5077 17.9185C89.6574 17.0569 89.9467 16.2258 90.3641 15.4583C91.0438 13.8728 91.3292 13.0528 90.9486 11.358C90.6496 10.0322 89.5893 9.43079 88.4134 10.3124C86.6531 11.6792 86.5715 15.1508 86.3744 17.1463C86.0754 20.8776 81.9634 19.791 79.5777 18.2875C77.6474 17.0848 76.7299 14.4811 76.125 12.301C75.6968 10.8522 75.4453 8.65173 73.5558 8.88408C71.2993 9.17794 70.9867 12.5881 71.3809 14.2487C71.6849 15.2373 72.0573 16.2032 72.4955 17.1395C73.5286 19.7568 73.0393 23.0576 67.7378 21.7045C64.9104 20.9801 64.6657 17.7067 64.1628 15.3695C63.7889 13.6815 61.9878 10.7907 59.8808 11.358C58.4739 11.7338 58.8409 13.0323 59.0992 14.1872C59.8672 17.6042 60.4585 19.873 58.8341 23.2216C57.8622 25.2103 54.8988 26.5088 53.757 24.0485C53.5072 23.3498 53.3474 22.6217 53.2812 21.8822C53.1931 20.6737 52.7159 19.527 51.9219 18.6156C51.3459 18.1168 50.6369 17.7992 49.8829 17.702C49.129 17.6048 48.3632 17.7324 47.6807 18.0689C46.369 18.7933 47.4768 20.9733 47.871 21.889C48.9177 24.2946 51.1131 25.9894 50.2567 28.7229C49.1896 32.1399 43.3376 32.9736 40.4082 34.5113C39.9461 34.7573 38.9062 35.386 38.7294 36.0489C38.4372 37.115 38.9809 38.4749 37.3701 38.2563C37.0803 38.2653 36.7975 38.3476 36.5477 38.4954C33.095 37.7164 30.0636 35.6594 26.9371 33.9714C25.3399 33.1103 23.3689 32.1399 21.4998 32.4406C17.1499 33.124 20.8881 37.4088 23.0766 38.2904C26.9303 39.8691 34.1077 39.8622 34.665 45.2542C35.1544 49.8124 31.0016 51.1519 28.3101 53.6257C25.6186 56.0996 26.2711 59.1817 25.6322 62.5098C24.701 67.2936 19.821 65.2434 16.7964 66.6102C15.3827 67.2389 13.4321 68.756 14.4516 70.5397C15.1312 71.722 17.8839 71.0522 18.8626 70.895C20.9764 70.5465 22.5872 70.075 24.3408 71.9201C25.7953 73.4441 26.4954 75.9111 26.6381 77.9545C26.91 81.802 24.3408 80.2097 22.5601 81.8157C21.3231 82.9432 21.0308 85.2326 22.9203 85.6836C24.2796 86.0185 25.8633 85.4513 27.2566 84.9251C30.6549 84.7269 30.3423 87.9525 31.7764 91.0278C32.4561 92.5449 33.9717 93.7613 35.0184 95.0393C36.8332 97.2398 35.603 98.9688 35.1816 101.279C35.1642 101.609 35.2446 101.938 35.4128 102.222C35.5809 102.507 35.8292 102.735 36.1263 102.878C37.608 103.595 38.845 101.983 39.7829 104.443C40.1092 105.276 39.8237 106.862 40.6937 107.443C42.3521 108.543 44.3979 108.468 46.2398 109.179C48.5099 110.053 50.9431 112.596 52.0306 114.776C52.2241 115.261 52.5475 115.684 52.9649 115.996C53.3824 116.308 53.8776 116.499 54.3959 116.546C55.7552 116.696 57.7467 116.033 57.4068 118.316C57.1893 119.799 56.6864 121.118 57.0942 122.6C57.1961 122.997 57.9166 122.799 58.1545 122.71C59.0523 122.367 59.8728 121.846 60.5673 121.179C60.9955 120.735 61.4169 120.291 61.8383 119.812C62.6879 118.903 66.3309 117.393 65.6648 119.423C65.1279 121.049 63.8365 123.414 65.9707 124.63C67.9621 125.771 69.8992 124.767 71.7275 123.332C74.4462 121.883 77.0833 120.475 80.1079 122.368C82.9489 124.138 78.2116 131.211 77.5795 133.364C77.1037 134.99 77.0561 138.79 79.6185 137.567C81.9905 136.432 83.0169 132.25 83.4654 129.926C84.0568 127.043 84.0024 123.68 86.5715 121.774C87.7331 120.972 88.9691 120.286 90.2622 119.723C94.0071 117.953 93.5586 120.407 95.0878 121.726C96.2433 122.703 99.0299 121.569 99.1115 120.12C99.1659 119.238 98.0376 118.391 98.7648 117.482C99.6348 116.395 102.109 113.805 103.584 115.821C104.44 116.997 105.548 118.186 106.982 118.227C107.227 118.227 108.165 118.117 108.226 117.776C108.307 117.25 108.389 116.73 108.45 116.204C112.188 115.801 111.645 119.108 113.826 121.329C114.293 121.737 114.884 121.973 115.502 121.998C116.119 122.023 116.727 121.835 117.225 121.466C120.943 119.095 109.884 109.035 115.947 108.98C116.164 108.98 117.266 108.844 117.198 108.461C116.962 107.577 116.978 106.644 117.245 105.769C117.605 104.709 120.195 105.721 120.847 105.939C122.071 106.349 123.226 106.917 124.456 107.306C125.262 107.532 126.105 107.587 126.933 107.47C127.762 107.352 128.557 107.064 129.269 106.623C131.906 104.73 124.511 99.1806 122.934 97.3491C125.456 96.6657 125.653 94.8479 125.843 91.923C130.24 91.1439 128.562 86.3465 131.049 83.2098C132.789 81.0434 136.262 82.0207 138.526 82.1778C141.842 82.417 144.452 82.8612 147.361 84.433C149.496 85.5675 151.222 85.916 153.478 85.0276C153.553 85.0139 154.09 84.8089 153.995 84.6586Z" fill="#FFEC00"/>
<path d="M134.373 109.541H134.196H134.088C133.933 109.5 133.783 109.445 133.639 109.377C133.419 109.311 133.187 109.293 132.959 109.322C132.654 109.361 132.363 109.474 132.11 109.65C131.974 109.714 131.864 109.821 131.795 109.954C131.726 110.088 131.703 110.24 131.729 110.388C131.718 111.026 131.875 111.656 132.185 112.213C132.742 113.163 133.979 113.101 134.903 112.766C135.301 112.64 135.659 112.412 135.944 112.106C136.228 111.799 136.429 111.424 136.528 111.017C136.616 109.882 135.196 109.616 134.373 109.541Z" fill="#FFEC00"/>
<path d="M11.2907 87.03C10.7291 86.8336 10.1385 86.7342 9.54394 86.7361C9.48522 86.7294 9.42594 86.7294 9.36722 86.7361C9.23845 86.7265 9.10906 86.7427 8.98661 86.7839C8.88818 86.7356 8.78009 86.7105 8.67056 86.7105C8.56103 86.7105 8.45294 86.7356 8.35451 86.7839L6.90001 87.2486C5.60628 87.4188 4.36897 87.8865 3.28416 88.6154C0.98687 89.6747 -0.909413 91.0141 0.463523 92.2579C1.9588 93.6247 4.31726 92.5449 5.84652 91.8274C7.79718 90.9048 10.4275 89.4833 11.5626 87.5357C11.7053 87.3101 11.5558 87.112 11.2907 87.03Z" fill="#FFEC00"/>
<path d="M32.072 111.051C32.2284 110.661 31.5827 110.415 31.0865 110.566C30.5292 110.279 29.2718 110.983 29.9447 111.441C28.7738 112.448 27.9446 113.798 27.5726 115.302C27.3347 115.404 27.1512 115.541 27.1512 115.712C27.1388 115.891 27.168 116.071 27.2364 116.237C27.3048 116.403 27.4106 116.55 27.5454 116.668C27.572 116.881 27.6152 117.091 27.6746 117.297C27.8105 117.735 28.4562 117.646 28.7688 117.509C29.4706 117.183 30.0975 116.714 30.6099 116.131C31.1223 115.549 31.5091 114.866 31.7458 114.126C32.0172 113.367 32.2086 112.582 32.3167 111.782C32.3539 111.65 32.3505 111.509 32.3068 111.379C32.2632 111.248 32.1813 111.134 32.072 111.051Z" fill="#FFEC00"/>
<path d="M45.8404 111.393C45.8121 111.369 45.7799 111.351 45.7453 111.338C45.888 110.846 44.9773 110.552 44.4879 110.955C42.9737 112.117 41.7996 113.668 41.0896 115.445C41.065 115.505 41.0532 115.569 41.0548 115.633C41.0565 115.697 41.0716 115.76 41.0992 115.818C41.1267 115.877 41.1662 115.928 41.2149 115.97C41.2636 116.011 41.3204 116.042 41.3818 116.06C43.8762 117.14 48.6815 113.696 45.8404 111.393Z" fill="#FFEC00"/>
<path d="M55.0052 138.578C54.3431 138.583 53.6964 138.78 53.1429 139.145C52.8371 139.275 52.6128 139.439 52.7079 139.542C52.5608 139.71 52.4352 139.896 52.3341 140.095C51.9176 141.209 51.755 142.402 51.8583 143.587C51.8598 143.635 51.873 143.682 51.8967 143.724C51.9204 143.765 51.9539 143.801 51.9943 143.826C51.9774 144.227 52.0209 144.628 52.1234 145.015C52.239 145.425 53.4148 144.974 53.5779 144.769C54.6659 143.285 55.2369 141.481 55.2023 139.637C55.2023 139.501 55.2023 139.364 55.2023 139.227C55.289 139.176 55.3633 139.106 55.4198 139.022C55.6169 138.728 55.2567 138.564 55.0052 138.578Z" fill="#FFEC00"/>
<path d="M80.3993 142.433C80.1886 142.023 79.1555 142.105 78.938 142.624C78.0477 144.749 75.6688 149.718 77.6603 151.768C77.8272 151.914 78.0407 151.994 78.2618 151.994C78.4828 151.994 78.6964 151.914 78.8633 151.768C81.113 149.902 83.0908 145.173 80.9023 142.617C80.8352 142.554 80.7561 142.505 80.6696 142.473C80.5832 142.441 80.4912 142.428 80.3993 142.433Z" fill="#FFEC00"/>
<path d="M95.75 94.5C93.4294 94.5 91.2038 93.5781 89.5628 91.9372C87.9219 90.2962 87 88.0706 87 85.75C87 83.4294 87.9219 81.2038 89.5628 79.5628C91.2038 77.9219 93.4294 77 95.75 77C98.0706 77 100.296 77.9219 101.937 79.5628C103.578 81.2038 104.5 83.4294 104.5 85.75C104.5 88.0706 103.578 90.2962 101.937 91.9372C100.296 93.5781 98.0706 94.5 95.75 94.5ZM95.75 89.5C96.7446 89.5 97.6984 89.1049 98.4016 88.4016C99.1049 87.6984 99.5 86.7446 99.5 85.75C99.5 84.7554 99.1049 83.8016 98.4016 83.0984C97.6984 82.3951 96.7446 82 95.75 82C94.7554 82 93.8016 82.3951 93.0984 83.0984C92.3951 83.8016 92 84.7554 92 85.75C92 86.7446 92.3951 87.6984 93.0984 88.4016C93.8016 89.1049 94.7554 89.5 95.75 89.5ZM68.25 67C67.1009 67 65.9631 66.7737 64.9015 66.3339C63.8399 65.8942 62.8753 65.2497 62.0628 64.4372C61.2503 63.6247 60.6058 62.6601 60.1661 61.5985C59.7263 60.5369 59.5 59.3991 59.5 58.25C59.5 57.1009 59.7263 55.9631 60.1661 54.9015C60.6058 53.8399 61.2503 52.8753 62.0628 52.0628C62.8753 51.2503 63.8399 50.6058 64.9015 50.1661C65.9631 49.7263 67.1009 49.5 68.25 49.5C70.5706 49.5 72.7962 50.4219 74.4372 52.0628C76.0781 53.7038 77 55.9294 77 58.25C77 60.5706 76.0781 62.7962 74.4372 64.4372C72.7962 66.0781 70.5706 67 68.25 67ZM68.25 62C69.2446 62 70.1984 61.6049 70.9017 60.9017C71.6049 60.1984 72 59.2446 72 58.25C72 57.2554 71.6049 56.3016 70.9017 55.5983C70.1984 54.8951 69.2446 54.5 68.25 54.5C67.2554 54.5 66.3016 54.8951 65.5983 55.5983C64.8951 56.3016 64.5 57.2554 64.5 58.25C64.5 59.2446 64.8951 60.1984 65.5983 60.9017C66.3016 61.6049 67.2554 62 68.25 62ZM99.6775 50.7875L103.213 54.3225L64.325 93.2125L60.79 89.6775L99.675 50.7875H99.6775Z" fill="white"/>
</g>
<defs>
<clipPath id="clip0_1_729">
<rect width="154" height="152" fill="white"/>
</clipPath>
</defs>
</svg>
