<svg width="131" height="140" viewBox="0 0 131 140" fill="none" xmlns="http://www.w3.org/2000/svg">
<path d="M121.943 80.9055C120.857 80.4192 119.721 80.0719 118.623 79.6425C116.967 78.9669 116.607 77.3314 117.066 75.6138C117.897 72.5259 122.129 71.7492 122.923 68.7814C123.277 67.4363 122.96 65.7567 122.762 64.4243C122.514 62.4606 121.98 60.5453 121.179 58.7411C120.409 57.2108 119.395 55.8215 118.176 54.6303C116.886 53.3042 114.82 53.6641 113.597 52.3254C112.239 50.8289 113.206 48.6693 114.696 47.9052C115.62 47.4316 116.706 47.179 117.519 46.5033C119.113 45.1962 118.474 41.8179 116.408 41.3001C113.306 40.5171 110.718 43.9522 107.573 43.2703C103 42.2662 107.424 34.7392 108.392 32.5354C109.682 29.5738 111.345 26.5554 111.786 23.3097C111.824 22.874 111.777 22.435 111.648 22.0178C111.519 21.6006 111.31 21.2136 111.033 20.879C110.756 20.5444 110.417 20.2689 110.035 20.0684C109.653 19.8678 109.236 19.7461 108.807 19.7104C106.903 19.5714 105.165 20.6954 103.682 21.7752C101.641 23.2718 99.8354 25.0778 97.8127 26.6059C95.9886 27.9888 93.9348 28.9108 92.8986 26.2081L92.8242 25.9618C93.8852 25.9618 94.2823 25.9176 94.9462 24.6989C95.5108 23.6949 95.8272 21.6931 94.5801 21.0238C92.4767 19.8872 91.2482 20.6765 90.5967 22.8235C90.0321 24.7179 86.8739 22.7414 86.694 21.2764C86.4706 19.6472 87.5502 17.7212 88.09 16.2562C88.9525 13.8946 90.2617 11.2993 90.3113 8.75446C90.3609 6.07075 87.5192 6.27913 85.695 6.79693C82.9029 7.58626 83.1387 10.6362 83.2876 12.9853C83.4179 15.0944 83.2504 16.8183 81.1842 17.8602C79.3228 18.801 77.7717 16.332 76.9403 15.0565C75.6993 13.1621 74.6011 10.4468 71.9083 11.2677C71.3268 11.4964 70.8241 11.8938 70.4626 12.4106C69.1658 14.0272 67.6333 13.9956 66.0014 12.8969C64.3696 11.7981 61.3231 12.4296 59.6913 13.1621C57.7617 14.0272 56.5518 16.2499 54.7958 17.4371C54.0451 17.9486 51.2778 19.7735 50.4154 18.7C49.9376 18.1254 50.1486 16.8877 50.1486 16.212C50.1486 14.1724 49.4909 13.0547 47.828 11.8802C46.4568 10.9204 44.9801 11.4508 44.0618 12.7137C42.4734 14.8923 42.4051 18.1443 41.3628 20.6007C40.2335 23.2529 37.9254 23.9159 35.5366 25.1094C35.4683 25.1473 35.2574 25.2609 35.3132 25.3809C35.4807 25.7093 35.6421 26.0629 35.8282 26.3723C36.051 26.6899 36.2581 27.0187 36.4487 27.3574L35.8716 27.7994C35.2799 28.2837 34.6581 28.7288 34.0102 29.1318C33.4485 29.1691 32.8843 29.1245 32.335 28.9992C30.7094 28.6329 29.2326 27.6542 27.8056 26.7322C26.4157 24.8378 25.1748 22.6909 22.7984 22.312C21.7436 22.1478 19.3734 21.9142 18.8274 23.2276C18.2814 24.541 20.0684 26.2713 20.7261 27.0922C21.2783 27.7741 21.8491 28.4372 22.4199 29.1002C23.2514 30.5526 24.6908 32.0997 25.8573 33.5205C26.8314 35.3706 27.8056 38.7995 24.362 37.8712C22.8294 37.4671 20.2855 34.6508 18.5917 35.7874C18.2246 36.073 17.9367 36.4506 17.7562 36.8834C17.5756 37.3162 17.5086 37.7894 17.5617 38.2564C17.8161 39.6646 19.5844 40.0056 20.5523 40.7823C22.4137 42.3167 19.4851 44.2238 18.6909 45.3099C18.0394 46.2255 18.2008 47.7473 18.3621 48.8145C18.3952 49.049 18.4577 49.2782 18.5482 49.4965C18.2552 50.4729 17.8157 51.3973 17.2453 52.237C14.7634 55.5522 10.3209 54.2261 7.22473 56.2721C5.04069 57.7181 5.9838 60.7997 8.19886 61.4627C9.49563 61.8479 11.1709 61.6206 12.1947 62.6562C13.2184 63.6918 12.4242 65.0557 11.5742 65.8135C9.60732 67.4869 6.83384 68.2636 4.5195 69.2992C2.98695 69.9875 0.660201 70.922 0.0955768 72.7217C-0.469047 74.5214 1.5909 76.0242 3.04899 76.2642C5.7232 76.7062 8.72626 74.5087 10.9103 73.2774C12.3868 72.3818 13.953 71.6494 15.5824 71.0925C16.4349 70.8036 17.3484 70.7556 18.2256 70.9536C18.5172 71.0294 18.3125 72.3239 18.4241 72.6712C18.8833 74.1109 18.3435 76.1063 18.0643 77.5271C17.7363 79.4424 17.1821 81.3103 16.4138 83.0903C15.9423 84.1259 14.6207 84.6311 13.7148 85.1931C12.663 85.7984 11.679 86.5183 10.78 87.3401C8.72005 89.3481 12.2567 89.8659 13.5907 89.9228C14.9395 90.0578 16.2998 89.8405 17.5431 89.2913C18.5668 88.7988 19.1997 87.6432 20.4406 88.0978C22.4882 88.8429 24.3744 90.971 25.7953 92.5181C27.365 94.2356 29.5181 97.2856 28.668 99.7862C27.7497 102.552 25.0817 104.465 24.3248 107.364C23.8036 109.372 25.1562 111.86 27.514 111.355C28.6742 111.108 29.5367 110.294 30.4115 109.53C30.9 109.062 31.449 108.665 32.0434 108.349C32.9865 107.888 35.0092 108.93 35.0402 110.073C35.0009 110.835 34.8417 111.585 34.5687 112.296C34.4324 112.436 34.306 112.586 34.1902 112.744C34.1095 112.851 34.1902 112.927 34.3019 112.946H34.4011C34.345 113.22 34.3201 113.5 34.3267 113.779C34.3887 115.124 35.5676 115.585 36.7155 115.75C36.8049 115.758 36.8948 115.74 36.975 115.699C37.0551 115.658 37.1221 115.594 37.1684 115.516C37.4296 116.761 37.4716 118.044 37.2925 119.305C37.1312 120.94 36.4425 123.637 37.8509 124.912C39.2594 126.188 42.3369 124.988 43.6771 124.104C45.4578 122.923 45.8922 120.896 46.2396 118.913C46.4258 117.884 46.6367 116.728 47.9335 116.855C50.0865 117.057 52.4381 118.553 54.1754 119.734C57.8051 122.203 60.895 125.588 65.2631 126.737C67.1865 127.242 71.201 126.2 69.4823 123.485C69.0957 122.978 68.6814 122.493 68.2413 122.033C67.4347 121.003 68.8618 119.507 69.5567 118.793C71.1885 117.252 74.6073 121.079 75.8048 121.951C77.1512 122.891 78.6341 123.738 79.751 124.975C80.539 125.853 80.601 127.122 80.7437 128.246C81.1532 131.404 81.4635 136.26 84.5906 138.009C86.4148 139.032 89.697 139.865 90.7518 137.377C92.03 134.359 89.7529 131.366 88.7105 128.657C88.8346 128.587 88.909 128.486 88.8594 128.366C87.5006 125.342 87.6185 121.982 86.6381 118.85C89.0145 118.635 91.7756 121.414 93.5687 122.595C95.0765 123.592 96.9007 124.603 98.7062 123.858C100.512 123.112 100.841 120.94 100.301 119.324C99.5749 117.145 97.7383 115.535 97.1985 113.268C96.336 109.53 102.007 107.976 104.601 107.402C107.194 106.827 110.067 106.353 112.145 104.478C114.224 102.603 115.806 99.8052 114.869 96.9888C113.97 94.2735 111.469 92.7833 113.107 89.6765C113.269 89.3797 112.797 89.3355 112.536 89.4807C112.845 88.7887 113.298 88.1727 113.862 87.6746C114.426 87.1766 115.089 86.8084 115.806 86.5949L116.65 86.2476C119.299 87.1885 121.682 86.4371 123.748 84.4227C125.423 82.8062 123.345 81.5306 121.943 80.9055Z" fill="#E30079"/>
<path d="M28.8787 21.6933C30.25 21.5355 30.9449 20.6009 31.4351 19.3569C31.6336 18.8726 31.7264 18.3502 31.7072 17.8258C31.6879 17.3014 31.5569 16.7875 31.3234 16.3196C31.3915 16.3654 31.4619 16.4075 31.5343 16.4459C31.7391 16.5532 32.4278 16.2438 32.1548 16.0986C29.9211 14.9556 29.6729 12.4992 28.432 10.5543C27.3338 8.83675 25.4041 7.36544 23.3504 7.21389C19.2057 6.91079 20.5335 13.0928 21.6689 15.1261C22.8788 17.3678 25.8136 22.047 28.8787 21.6933Z" fill="#E30079"/>
<path d="M72.7278 6.71492C74.6247 7.10889 76.5978 6.75691 78.25 5.72984C80.1114 4.46691 79.1372 2.72407 77.6295 1.6127C77.5678 1.58541 77.5013 1.57133 77.4341 1.57133C77.3668 1.57133 77.3003 1.58541 77.2386 1.6127C76.524 1.204 75.7191 0.986721 74.8995 0.981235C74.1373 0.972534 73.3863 1.1681 72.722 1.54829C72.0576 1.92847 71.5033 2.47989 71.1146 3.14716C70.1156 4.89631 70.8726 6.30447 72.7278 6.71492Z" fill="#E30079"/>
<path d="M63.4299 10.952C64.2575 11.1335 65.12 11.0486 65.8982 10.7092C66.6763 10.3698 67.3315 9.79266 67.7732 9.05757C68.7349 7.23264 66.5322 6.27913 65.1424 6.24756C64.95 6.24756 64.5902 6.45594 64.6398 6.5696C64.2234 6.63909 63.8265 6.79916 63.4764 7.03891C63.1263 7.27865 62.831 7.59242 62.6109 7.95882C61.9532 9.05126 62.1455 10.5541 63.4299 10.952Z" fill="#E30079"/>
<path d="M109.043 12.6569C110.551 12.2022 111.879 10.7625 110.942 9.13332C110.83 8.93791 110.69 8.76113 110.526 8.6092C110.536 8.60653 110.547 8.60653 110.557 8.6092C110.793 8.78601 111.463 8.44502 111.14 8.19244C109.124 6.65798 106.319 6.92951 105.165 9.40485C104.989 9.77908 104.886 10.1843 104.861 10.5983C104.788 10.7545 104.73 10.9173 104.687 11.0845C104.16 13.3641 107.895 12.9979 109.043 12.6569Z" fill="#E30079"/>
<path d="M121.949 54.2765C123.366 54.1311 124.679 53.4561 125.635 52.3821C125.767 52.2429 125.868 52.0761 125.931 51.8934C125.993 51.7106 126.016 51.5162 125.998 51.3235C125.98 51.1308 125.921 50.9445 125.825 50.7773C125.729 50.6101 125.598 50.4661 125.443 50.3551C125.474 50.3236 125.486 50.2983 125.443 50.273C125.001 49.8539 124.453 49.5694 123.86 49.4521H123.805C123.174 49.3466 122.526 49.4322 121.943 49.6984C121.494 49.8943 121.089 50.1828 120.755 50.5458C120.421 50.9088 120.164 51.3384 120.001 51.8075C119.844 52.0658 119.733 52.35 119.672 52.6473C119.374 54.106 120.826 54.4091 121.949 54.2765Z" fill="#E30079"/>
<path d="M129.607 114.6C128.881 113.906 127.597 114.013 126.703 114.133C126.622 114.141 126.544 114.171 126.476 114.218C126.409 114.266 126.355 114.33 126.318 114.404C126.185 114.435 126.054 114.477 125.928 114.531C125.493 114.72 125.118 115.026 124.84 115.415C124.563 115.804 124.394 116.262 124.352 116.741C124.352 116.804 124.352 116.842 124.426 116.873C126.033 117.789 128.608 118.136 129.768 116.293C129.953 116.041 130.039 115.728 130.009 115.415C129.979 115.102 129.836 114.811 129.607 114.6Z" fill="#E30079"/>
<path d="M110.065 115.409C109.359 114.378 108.373 113.58 107.228 113.111C106.083 112.643 104.828 112.524 103.618 112.769C100.689 113.457 101.285 117.486 102.898 119.229C104.406 120.864 107.062 120.416 108.749 119.368C110.437 118.32 110.611 116.842 109.854 115.579C109.984 115.535 110.089 115.459 110.065 115.409Z" fill="#E30079"/>
<path d="M58.7694 124.767C54.7923 126.03 56.7033 130.898 54.209 133.304C53.148 134.327 49.3818 136.461 51.9505 137.914C58.1986 141.463 59.6691 130.905 58.9928 126.213C59.0611 125.783 59.1293 125.348 59.1914 124.912C59.2224 124.672 58.8811 124.697 58.7694 124.767Z" fill="#E30079"/>
<path d="M30.8585 126.232L30.7592 126.188C30.6899 126.148 30.6172 126.114 30.5421 126.087L30.4676 126.03L30.2132 125.922C30.1501 125.906 30.084 125.906 30.0209 125.922C29.3204 125.838 28.6108 125.966 27.9823 126.292C27.3538 126.618 26.8345 127.127 26.4904 127.754C25.4729 129.446 25.6156 132.805 28.0478 132.989C28.9474 132.989 29.8332 132.763 30.6258 132.33C31.4184 131.897 32.0931 131.27 32.5896 130.507C33.8554 128.625 32.5151 127.072 30.8585 126.232Z" fill="#E30079"/>
<path d="M17.5006 91.2993C17.2028 91.3814 17.1594 91.634 17.2835 91.7729C16.6441 92.0226 16.0656 92.4105 15.5879 92.9098C15.1101 93.4091 14.7445 94.0079 14.5162 94.665C14.5044 94.696 14.499 94.7292 14.5002 94.7624C14.5013 94.7957 14.5091 94.8283 14.523 94.8584C14.5369 94.8885 14.5567 94.9154 14.5811 94.9375C14.6055 94.9596 14.6341 94.9765 14.6651 94.9871C17.4944 95.7511 20.4292 95.3407 21.788 92.417C21.8091 92.3691 21.8131 92.3152 21.7996 92.2646C21.786 92.2139 21.7556 92.1696 21.7136 92.1392C20.3299 90.8194 19.2379 90.851 17.5006 91.2993Z" fill="#E30079"/>
<path d="M19.0084 101.144C18.5102 101.044 17.997 101.053 17.5021 101.168C17.0072 101.283 16.5417 101.503 16.1356 101.813C16.2629 101.541 16.3587 101.255 16.421 100.961C16.4893 100.62 15.7323 100.733 15.6703 101.036C15.36 102.577 13.7592 103.985 12.7727 105.109C11.581 106.368 10.4799 107.712 9.47801 109.132C7.97028 111.449 10.9299 112.018 12.5493 110.9C15.2238 108.951 17.628 106.645 19.6971 104.042C20.3051 103.297 20.0942 101.403 19.0084 101.144Z" fill="#E30079"/>
<path d="M9.7549 40.8139C10.9958 41.117 14.2161 41.5969 14.0982 39.4309C14.0051 38.0607 12.6835 37.4671 11.2564 37.3282C9.86038 36.7472 7.99278 36.5325 7.03105 37.3913C4.9649 39.2036 8.44572 40.4981 9.7549 40.8139Z" fill="#E30079"/>
<path d="M82.6025 76.1475L83.0425 76.59L83.4875 76.1475C84.0098 75.6252 84.6299 75.2108 85.3124 74.9281C85.9949 74.6455 86.7263 74.5 87.465 74.5C88.2037 74.5 88.9351 74.6455 89.6176 74.9281C90.3001 75.2108 90.9202 75.6252 91.4425 76.1475C91.9648 76.6698 92.3792 77.2899 92.6619 77.9724C92.9445 78.6549 93.09 79.3863 93.09 80.125C93.09 80.8637 92.9445 81.5951 92.6619 82.2776C92.3792 82.9601 91.9648 83.5802 91.4425 84.1025L83.0425 92.5L74.6475 84.1025C73.5926 83.0476 73 81.6169 73 80.125C73 78.6331 73.5926 77.2024 74.6475 76.1475C75.7024 75.0926 77.1331 74.5 78.625 74.5C80.1169 74.5 81.5476 75.0926 82.6025 76.1475ZM68 72V77C64.0218 77 60.2064 78.5803 57.3934 81.3934C54.5804 84.2064 53 88.0218 53 92H48C48.0001 86.8039 50.0223 81.8119 53.6387 78.0807C57.255 74.3496 62.1815 72.1724 67.375 72.01L68 72ZM68 39.5C76.2875 39.5 83 46.2125 83 54.5C83.0014 58.3813 81.4977 62.112 78.8052 64.9075C76.1127 67.7031 72.4411 69.3457 68.5625 69.49L68 69.5C59.7125 69.5 53 62.7875 53 54.5C52.9986 50.6187 54.5023 46.888 57.1948 44.0925C59.8873 41.2969 63.5589 39.6543 67.4375 39.51L68 39.5ZM68 44.5C62.475 44.5 58 48.975 58 54.5C58 60.025 62.475 64.5 68 64.5C73.525 64.5 78 60.025 78 54.5C78 48.975 73.525 44.5 68 44.5Z" fill="white"/>
</svg>
