<svg width="130" height="138" viewBox="0 0 130 138" fill="none" xmlns="http://www.w3.org/2000/svg">
<g clip-path="url(#clip0_1_747)">
<path d="M121.943 79.9055C120.857 79.4192 119.721 79.0719 118.623 78.6425C116.967 77.9669 116.607 76.3314 117.066 74.6138C117.897 71.5259 122.129 70.7492 122.923 67.7814C123.277 66.4363 122.96 64.7567 122.762 63.4243C122.514 61.4606 121.98 59.5453 121.179 57.7411C120.409 56.2108 119.395 54.8215 118.176 53.6303C116.886 52.3042 114.82 52.6641 113.597 51.3254C112.239 49.8289 113.206 47.6693 114.696 46.9052C115.62 46.4316 116.706 46.179 117.519 45.5033C119.113 44.1962 118.474 40.8179 116.408 40.3001C113.306 39.5171 110.718 42.9522 107.573 42.2703C103 41.2662 107.424 33.7392 108.392 31.5354C109.682 28.5738 111.345 25.5554 111.786 22.3097C111.824 21.874 111.777 21.435 111.648 21.0178C111.519 20.6006 111.31 20.2136 111.033 19.879C110.756 19.5444 110.417 19.2689 110.035 19.0684C109.653 18.8678 109.236 18.7461 108.807 18.7104C106.903 18.5714 105.165 19.6954 103.682 20.7752C101.641 22.2718 99.8354 24.0778 97.8127 25.6059C95.9886 26.9888 93.9348 27.9108 92.8986 25.2081L92.8242 24.9618C93.8852 24.9618 94.2823 24.9176 94.9462 23.6989C95.5108 22.6949 95.8272 20.6931 94.5801 20.0238C92.4767 18.8872 91.2482 19.6765 90.5967 21.8235C90.0321 23.7179 86.8739 21.7414 86.694 20.2764C86.4706 18.6472 87.5502 16.7212 88.09 15.2562C88.9525 12.8946 90.2617 10.2993 90.3113 7.75446C90.3609 5.07075 87.5192 5.27913 85.695 5.79693C82.9029 6.58626 83.1387 9.63622 83.2876 11.9853C83.4179 14.0944 83.2504 15.8183 81.1842 16.8602C79.3228 17.801 77.7717 15.332 76.9403 14.0565C75.6993 12.1621 74.6011 9.44679 71.9083 10.2677C71.3268 10.4964 70.8241 10.8938 70.4626 11.4106C69.1658 13.0272 67.6333 12.9956 66.0014 11.8969C64.3696 10.7981 61.3231 11.4296 59.6913 12.1621C57.7617 13.0272 56.5518 15.2499 54.7958 16.4371C54.0451 16.9486 51.2778 18.7735 50.4154 17.7C49.9376 17.1254 50.1486 15.8877 50.1486 15.212C50.1486 13.1724 49.4909 12.0547 47.828 10.8802C46.4568 9.92038 44.9801 10.4508 44.0618 11.7137C42.4734 13.8923 42.4051 17.1443 41.3628 19.6007C40.2335 22.2529 37.9254 22.9159 35.5366 24.1094C35.4683 24.1473 35.2574 24.2609 35.3132 24.3809C35.4807 24.7093 35.6421 25.0629 35.8282 25.3723C36.051 25.6899 36.2581 26.0187 36.4487 26.3574L35.8716 26.7994C35.2799 27.2837 34.6581 27.7288 34.0102 28.1318C33.4485 28.1691 32.8843 28.1245 32.335 27.9992C30.7094 27.6329 29.2326 26.6542 27.8056 25.7322C26.4157 23.8378 25.1748 21.6909 22.7984 21.312C21.7436 21.1478 19.3734 20.9142 18.8274 22.2276C18.2814 23.541 20.0684 25.2713 20.7261 26.0922C21.2783 26.7741 21.8491 27.4372 22.4199 28.1002C23.2514 29.5526 24.6908 31.0997 25.8573 32.5205C26.8314 34.3706 27.8056 37.7995 24.362 36.8712C22.8294 36.4671 20.2855 33.6508 18.5917 34.7874C18.2246 35.073 17.9367 35.4506 17.7562 35.8834C17.5756 36.3162 17.5086 36.7894 17.5617 37.2564C17.8161 38.6646 19.5844 39.0056 20.5523 39.7823C22.4137 41.3167 19.4851 43.2238 18.6909 44.3099C18.0394 45.2255 18.2008 46.7473 18.3621 47.8145C18.3952 48.049 18.4577 48.2782 18.5482 48.4965C18.2552 49.4729 17.8157 50.3973 17.2453 51.237C14.7634 54.5522 10.3209 53.2261 7.22473 55.2721C5.04069 56.7181 5.9838 59.7997 8.19886 60.4627C9.49563 60.8479 11.1709 60.6206 12.1947 61.6562C13.2184 62.6918 12.4242 64.0557 11.5742 64.8135C9.60732 66.4869 6.83384 67.2636 4.5195 68.2992C2.98695 68.9875 0.660201 69.922 0.0955768 71.7217C-0.469047 73.5214 1.5909 75.0242 3.04899 75.2642C5.7232 75.7062 8.72626 73.5087 10.9103 72.2774C12.3868 71.3818 13.953 70.6494 15.5824 70.0925C16.4349 69.8036 17.3484 69.7556 18.2256 69.9536C18.5172 70.0294 18.3125 71.3239 18.4241 71.6712C18.8833 73.1109 18.3435 75.1063 18.0643 76.5271C17.7363 78.4424 17.1821 80.3103 16.4138 82.0903C15.9423 83.1259 14.6207 83.6311 13.7148 84.1931C12.663 84.7984 11.679 85.5183 10.78 86.3401C8.72005 88.3481 12.2567 88.8659 13.5907 88.9228C14.9395 89.0578 16.2998 88.8405 17.5431 88.2913C18.5668 87.7988 19.1997 86.6432 20.4406 87.0978C22.4882 87.8429 24.3744 89.971 25.7953 91.5181C27.365 93.2356 29.5181 96.2856 28.668 98.7862C27.7497 101.552 25.0817 103.465 24.3248 106.364C23.8036 108.372 25.1562 110.86 27.514 110.355C28.6742 110.108 29.5367 109.294 30.4115 108.53C30.9 108.062 31.449 107.665 32.0434 107.349C32.9865 106.888 35.0092 107.93 35.0402 109.073C35.0009 109.835 34.8417 110.585 34.5687 111.296C34.4324 111.436 34.306 111.586 34.1902 111.744C34.1095 111.851 34.1902 111.927 34.3019 111.946H34.4011C34.345 112.22 34.3201 112.5 34.3267 112.779C34.3887 114.124 35.5676 114.585 36.7155 114.75C36.8049 114.758 36.8948 114.74 36.975 114.699C37.0551 114.658 37.1221 114.594 37.1684 114.516C37.4296 115.761 37.4716 117.044 37.2925 118.305C37.1312 119.94 36.4425 122.637 37.8509 123.912C39.2594 125.188 42.3369 123.988 43.6771 123.104C45.4578 121.923 45.8922 119.896 46.2396 117.913C46.4258 116.884 46.6367 115.728 47.9335 115.855C50.0865 116.057 52.4381 117.553 54.1754 118.734C57.8051 121.203 60.895 124.588 65.2631 125.737C67.1865 126.242 71.201 125.2 69.4823 122.485C69.0957 121.978 68.6814 121.493 68.2413 121.033C67.4347 120.003 68.8618 118.507 69.5567 117.793C71.1885 116.252 74.6073 120.079 75.8048 120.951C77.1512 121.891 78.6341 122.738 79.751 123.975C80.539 124.853 80.601 126.122 80.7437 127.246C81.1532 130.404 81.4635 135.26 84.5906 137.009C86.4148 138.032 89.697 138.865 90.7518 136.377C92.03 133.359 89.7529 130.366 88.7105 127.657C88.8346 127.587 88.909 127.486 88.8594 127.366C87.5006 124.342 87.6185 120.982 86.6381 117.85C89.0145 117.635 91.7756 120.414 93.5687 121.595C95.0765 122.592 96.9007 123.603 98.7062 122.858C100.512 122.112 100.841 119.94 100.301 118.324C99.5749 116.145 97.7383 114.535 97.1985 112.268C96.336 108.53 102.007 106.976 104.601 106.402C107.194 105.827 110.067 105.353 112.145 103.478C114.224 101.603 115.806 98.8052 114.869 95.9888C113.97 93.2735 111.469 91.7833 113.107 88.6765C113.269 88.3797 112.797 88.3355 112.536 88.4807C112.845 87.7887 113.298 87.1727 113.862 86.6746C114.426 86.1766 115.089 85.8084 115.806 85.5949L116.65 85.2476C119.299 86.1885 121.682 85.4371 123.748 83.4227C125.423 81.8062 123.345 80.5306 121.943 79.9055Z" fill="black"/>
<path d="M28.8787 20.6933C30.25 20.5355 30.9449 19.6009 31.4351 18.3569C31.6336 17.8726 31.7264 17.3502 31.7072 16.8258C31.6879 16.3014 31.5569 15.7875 31.3234 15.3196C31.3915 15.3654 31.4619 15.4075 31.5343 15.4459C31.7391 15.5532 32.4278 15.2438 32.1548 15.0986C29.9211 13.9556 29.6729 11.4992 28.432 9.55433C27.3338 7.83675 25.4041 6.36544 23.3504 6.21389C19.2057 5.91079 20.5335 12.0928 21.6689 14.1261C22.8788 16.3678 25.8136 21.047 28.8787 20.6933Z" fill="black"/>
<path d="M72.7278 5.71492C74.6247 6.10889 76.5978 5.75691 78.25 4.72984C80.1114 3.46691 79.1372 1.72407 77.6295 0.612699C77.5678 0.585409 77.5013 0.571327 77.4341 0.571327C77.3668 0.571327 77.3003 0.585409 77.2386 0.612699C76.524 0.204002 75.7191 -0.0132787 74.8995 -0.0187648C74.1373 -0.0274657 73.3863 0.1681 72.722 0.548287C72.0576 0.928474 71.5033 1.47989 71.1146 2.14716C70.1156 3.89631 70.8726 5.30447 72.7278 5.71492Z" fill="black"/>
<path d="M63.4299 9.95196C64.2575 10.1335 65.12 10.0486 65.8982 9.70925C66.6763 9.36985 67.3315 8.79266 67.7732 8.05757C68.7349 6.23264 66.5322 5.27913 65.1424 5.24756C64.95 5.24756 64.5902 5.45594 64.6398 5.5696C64.2234 5.63909 63.8265 5.79916 63.4764 6.03891C63.1263 6.27865 62.831 6.59242 62.6109 6.95882C61.9532 8.05126 62.1455 9.55414 63.4299 9.95196Z" fill="black"/>
<path d="M109.043 11.6569C110.551 11.2022 111.879 9.76249 110.942 8.13332C110.83 7.93791 110.69 7.76113 110.526 7.6092C110.536 7.60653 110.547 7.60653 110.557 7.6092C110.793 7.78601 111.463 7.44502 111.14 7.19244C109.124 5.65798 106.319 5.92951 105.165 8.40485C104.989 8.77908 104.886 9.1843 104.861 9.59831C104.788 9.75449 104.73 9.91729 104.687 10.0845C104.16 12.3641 107.895 11.9979 109.043 11.6569Z" fill="black"/>
<path d="M121.949 53.2765C123.366 53.1311 124.679 52.4561 125.635 51.3821C125.767 51.2429 125.868 51.0761 125.931 50.8934C125.993 50.7106 126.016 50.5162 125.998 50.3235C125.98 50.1308 125.921 49.9445 125.825 49.7773C125.729 49.6101 125.598 49.4661 125.443 49.3551C125.474 49.3236 125.486 49.2983 125.443 49.273C125.001 48.8539 124.453 48.5694 123.86 48.4521H123.805C123.174 48.3466 122.526 48.4322 121.943 48.6984C121.494 48.8943 121.089 49.1828 120.755 49.5458C120.421 49.9088 120.164 50.3384 120.001 50.8075C119.844 51.0658 119.733 51.35 119.672 51.6473C119.374 53.106 120.826 53.4091 121.949 53.2765Z" fill="black"/>
<path d="M129.607 113.6C128.881 112.906 127.597 113.013 126.703 113.133C126.622 113.141 126.544 113.171 126.476 113.218C126.409 113.266 126.355 113.33 126.318 113.404C126.185 113.435 126.054 113.477 125.928 113.531C125.493 113.72 125.118 114.026 124.84 114.415C124.563 114.804 124.394 115.262 124.352 115.741C124.352 115.804 124.352 115.842 124.426 115.873C126.033 116.789 128.608 117.136 129.768 115.293C129.953 115.041 130.039 114.728 130.009 114.415C129.979 114.102 129.836 113.811 129.607 113.6Z" fill="black"/>
<path d="M110.065 114.409C109.359 113.378 108.373 112.58 107.228 112.111C106.083 111.643 104.828 111.524 103.618 111.769C100.689 112.457 101.285 116.486 102.898 118.229C104.406 119.864 107.062 119.416 108.749 118.368C110.437 117.32 110.611 115.842 109.854 114.579C109.984 114.535 110.089 114.459 110.065 114.409Z" fill="black"/>
<path d="M58.7694 123.767C54.7923 125.03 56.7033 129.898 54.209 132.304C53.148 133.327 49.3818 135.461 51.9505 136.914C58.1986 140.463 59.6691 129.905 58.9928 125.213C59.0611 124.783 59.1293 124.348 59.1914 123.912C59.2224 123.672 58.8811 123.697 58.7694 123.767Z" fill="black"/>
<path d="M30.8585 125.232L30.7592 125.188C30.6898 125.148 30.6172 125.114 30.542 125.087L30.4676 125.03L30.2132 124.922C30.15 124.906 30.084 124.906 30.0209 124.922C29.3203 124.838 28.6108 124.966 27.9823 125.292C27.3537 125.618 26.8345 126.127 26.4904 126.754C25.4728 128.446 25.6155 131.805 28.0478 131.989C28.9474 131.989 29.8331 131.763 30.6257 131.33C31.4184 130.897 32.0931 130.27 32.5896 129.507C33.8553 127.625 32.5151 126.072 30.8585 125.232Z" fill="black"/>
<path d="M17.5006 90.2993C17.2028 90.3814 17.1594 90.634 17.2835 90.7729C16.6441 91.0226 16.0656 91.4105 15.5879 91.9098C15.1101 92.4091 14.7445 93.0079 14.5162 93.665C14.5044 93.696 14.499 93.7292 14.5002 93.7624C14.5013 93.7957 14.5091 93.8283 14.523 93.8584C14.5369 93.8885 14.5567 93.9154 14.5811 93.9375C14.6055 93.9596 14.6341 93.9765 14.6651 93.9871C17.4944 94.7511 20.4292 94.3407 21.788 91.417C21.8091 91.3691 21.8131 91.3152 21.7996 91.2646C21.786 91.2139 21.7556 91.1696 21.7136 91.1392C20.3299 89.8194 19.2379 89.851 17.5006 90.2993Z" fill="black"/>
<path d="M19.0084 100.144C18.5102 100.044 17.997 100.053 17.5021 100.168C17.0072 100.283 16.5417 100.503 16.1356 100.813C16.2629 100.541 16.3587 100.255 16.421 99.9607C16.4893 99.6197 15.7323 99.7334 15.6703 100.036C15.36 101.577 13.7592 102.985 12.7727 104.109C11.581 105.368 10.4799 106.712 9.47801 108.132C7.97028 110.449 10.9299 111.018 12.5493 109.9C15.2238 107.951 17.628 105.645 19.6971 103.042C20.3051 102.297 20.0942 100.403 19.0084 100.144Z" fill="black"/>
<path d="M9.7549 39.8139C10.9958 40.117 14.2161 40.5969 14.0982 38.4309C14.0051 37.0607 12.6835 36.4671 11.2564 36.3282C9.86038 35.7472 7.99278 35.5325 7.03105 36.3913C4.9649 38.2036 8.44572 39.4981 9.7549 39.8139Z" fill="black"/>
<path d="M80.0936 48.2532C81.6277 46.715 83.7101 45.8491 85.8826 45.8462C88.055 45.8433 90.1397 46.7035 91.678 48.2376C93.2162 49.7717 94.0821 51.854 94.085 54.0265C94.0879 56.199 93.2277 58.2837 91.6936 59.822L68.353 83.2313C67.8612 83.7251 67.2655 84.1031 66.6092 84.3376L54.2061 88.7626C53.7878 88.9119 53.3358 88.9394 52.9025 88.8417C52.4693 88.744 52.0727 88.5253 51.759 88.2109C51.4452 87.8965 51.2273 87.4995 51.1305 87.066C51.0338 86.6326 51.0621 86.1805 51.2124 85.7626L55.6686 73.3782C55.9015 72.7312 56.2738 72.1434 56.7592 71.6563L80.0936 48.2532ZM89.4749 50.4532C89.004 49.9825 88.4449 49.6092 87.8296 49.3548C87.2144 49.1003 86.555 48.9696 85.8892 48.9702C85.2234 48.9708 84.5642 49.1026 83.9494 49.3582C83.3346 49.6137 82.7762 49.9879 82.3061 50.4595L79.8624 52.9095L87.028 60.0751L89.4811 57.6157C90.4298 56.665 90.9622 55.3763 90.961 54.0332C90.9598 52.69 90.4253 51.4023 89.4749 50.4532ZM84.8217 62.2876L77.6561 55.122L58.9717 73.8626C58.8102 74.0253 58.6864 74.2216 58.6092 74.4376L54.7124 85.2626L65.5561 81.3938C65.776 81.3161 65.9756 81.1901 66.1405 81.0251L84.8217 62.2876ZM75.678 48.2501H52.6874C52.273 48.2501 51.8755 48.4147 51.5825 48.7077C51.2895 49.0008 51.1249 49.3982 51.1249 49.8126C51.1249 50.227 51.2895 50.6244 51.5825 50.9174C51.8755 51.2105 52.273 51.3751 52.6874 51.3751H72.5624L75.678 48.2501ZM69.4467 54.5001H52.6874C52.273 54.5001 51.8755 54.6647 51.5825 54.9577C51.2895 55.2508 51.1249 55.6482 51.1249 56.0626C51.1249 56.477 51.2895 56.8744 51.5825 57.1674C51.8755 57.4605 52.273 57.6251 52.6874 57.6251H66.3311L69.4467 54.5001ZM63.2186 60.7501H52.6874C52.273 60.7501 51.8755 60.9147 51.5825 61.2077C51.2895 61.5008 51.1249 61.8982 51.1249 62.3126C51.1249 62.727 51.2895 63.1244 51.5825 63.4174C51.8755 63.7105 52.273 63.8751 52.6874 63.8751H60.103L63.2186 60.7501Z" fill="white"/>
</g>
<defs>
<clipPath id="clip0_1_747">
<rect width="130" height="138" fill="white"/>
</clipPath>
</defs>
</svg>
