<svg xmlns="http://www.w3.org/2000/svg" width="79.682" height="141.29" viewBox="0 0 79.682 141.29">
  <g id="Сгруппировать_462" data-name="Сгруппировать 462" transform="translate(-66.121 -33.08)">
    <path id="Контур_355" data-name="Контур 355" d="M139.982,33.08H72.4V55L66.121,174.37H145.8l-5.82-120.528Zm-56.4,10.867h45.493v7.511H83.582ZM134.006,163.5h-56.1L82.863,62.324h17.188V72.989l10.876,5.832v-16.5l18.645.018Z"/>
    <g id="Group_318" data-name="Group 318" transform="translate(88.854 89.131)">
      <path id="Path_316" data-name="Path 316" d="M98.816,145.306c.742-1.345,1.265-2.239,1.723-3.164a1.591,1.591,0,0,0,.159-1.009c-.838-3.215,1.14-5.457,2.73-7.8.221-.326.964-.428,1.46-.417,2.479.048,4.956.179,7.435.255,1.146.036,3.093,1.694,2.822,2.531-.961,2.982-2.056,5.9-4.831,7.763-.541.364-1.035.8-1.55,1.2l.241.664c1.22-.313,2.863-.239,3.574-1.017,1.625-1.776,2.743-4.006,4.17-5.976a14.382,14.382,0,0,1,2.552-2.7,6.474,6.474,0,0,1,2.107-.694c.521,4.424-2.352,7.078-4.378,10.275,1.871.369,3.26.617,3.782-1.489.127-.527.789-.918,1.185-1.387a4.327,4.327,0,0,0,.7-.957c.854-1.893,1.638-3.819,2.515-5.7.5-1.065,1.245-2.022,1.664-3.111.465-1.213.521-2.361-.989-3.147a2.18,2.18,0,0,1-.872-1.91,7.866,7.866,0,0,0-1.071-9.006c1.87-2.347.766-5.361-2.4-6.626.057.359.094.652.151.942.578,2.9-.013,3.55-2.9,3.744-1.525.1-3.013.671-4.537.9a18.719,18.719,0,0,1-4.376.31A2.553,2.553,0,0,1,108,116.33a39.458,39.458,0,0,1-.558-5.042.766.766,0,0,1,.5-.773l2.418-.9a.808.808,0,0,1,.99.369l2.362,4.3.544-.231a3.75,3.75,0,0,1-.339-1.643c.246-1.259.855-2.45,1.085-3.71.1-.57-.353-1.239-.531-1.792l1.336-.682a.241.241,0,0,0,.079-.362c-.421-.544-.793-1.2-1.347-1.449-1.5-.677-3.116-1.1-4.654-1.618.288-.756,1.055-2.5,1.225-3.265a.206.206,0,0,0-.165-.239.2.2,0,0,0-.116.012A19.428,19.428,0,0,0,107,101.032l1.413-8.146a.156.156,0,0,0-.255-.148c-3.064,2.572-3.936,6-4.85,9.642-2.543-3.437-5.249-6.206-9.584-7.562a.139.139,0,0,0-.172.092.142.142,0,0,0,.02.119l6.407,9a32.287,32.287,0,0,0-4.789,1.982.237.237,0,0,0-.028.421l2.988,1.722c-3.534,4.74-3.527,10.154-2.765,15.67-1.241.157-2.219.334-3.2.391-1.669.1-2.154.934-1.746,2.482.934,3.544,1.8,7.109,2.8,10.634a10.518,10.518,0,0,0,1.435,2.347c1.5-2.637.255-4.616-.608-6.7a35.982,35.982,0,0,1-1.205-4.212,6.812,6.812,0,0,1,2.552.756c1.258.574,3.106.812,3.637,1.779.627,1.139.128,2.9.094,4.4a12.433,12.433,0,0,1-.153,1.293c-.391,3.017-1.123,5.907-3.695,8.542Z" transform="translate(-90.302 -92.701)"/>
    </g>
  </g>
</svg>
