<svg xmlns="http://www.w3.org/2000/svg" xmlns:xlink="http://www.w3.org/1999/xlink" width="1196.875" height="558.922" viewBox="0 0 1196.875 558.922">
  <defs>
    <clipPath id="clip-path">
      <path id="Контур_244" data-name="Контур 244" d="M6960.75,2598.094H8120.9l-320.352,558.922H6924.023Z" transform="translate(-6995)" fill="none" stroke="#707070" stroke-width="1"/>
    </clipPath>
    <linearGradient id="linear-gradient" x1="0.5" y1="0.092" x2="0.5" y2="0.992" gradientUnits="objectBoundingBox">
      <stop offset="0.293" stop-color="#fff" stop-opacity="0"/>
      <stop offset="1" stop-color="#bdb39e"/>
    </linearGradient>
  </defs>
  <g id="Группа_масок_16" data-name="Группа масок 16" transform="translate(1125.898 3157.016) rotate(180)" clip-path="url(#clip-path)">
    <g id="Сгруппировать_5775" data-name="Сгруппировать 5775">
      <path id="Контур_243" data-name="Контур 243" d="M912.077,250.946h0Zm-15.545,31.786,6.432,11.141-19.3-11.141h12.864m1.926-3.335H871.274l40.8,23.589L898.458,279.4ZM903,312.015l-6.406,11.095H883.783L903,312.015m9.076-9.077h0Zm0,0-40.692,23.494h27.128l13.564-23.494Zm-44.167-11.13.105,22.214-6.465-11.077,6.36-11.137m-10.2,11.155,13.582,23.454-.019-47.022Zm38.822,31.761,6.432,11.141-19.3-11.141h12.864m1.926-3.335H871.274l40.8,23.589-13.619-23.589ZM903,364.007l-6.406,11.1H883.783L903,364.007m9.076-9.077h0Zm0,0-40.692,23.494h27.128l13.564-23.494ZM867.91,343.8l.105,22.214-6.465-11.077,6.36-11.137m-10.2,11.155,13.582,23.454-.019-47.022Zm54.367,51.967h0Zm-15.545,31.786,6.432,11.141-19.3-11.141h12.864m1.926-3.335H871.274l40.8,23.589-13.619-23.589Zm13.619,23.542h0Zm0,51.992h0Zm-15.545,31.786,6.432,11.14-19.3-11.14h12.864m1.926-3.336H871.274l40.8,23.59-13.619-23.59ZM903,571.975l-6.406,11.1H883.783L903,571.975m9.076-9.076h0Zm0,0-40.692,23.494h27.128L912.077,562.9Zm-44.167-11.13.105,22.213-6.465-11.076,6.36-11.137m-10.2,11.155,13.582,23.453-.019-47.021Zm54.367,51.967h0Zm45.254-441.94h0Zm-9.076,61.068-6.406,11.1H929.037l19.218-11.1m9.076-9.076h0Zm0,0-40.692,23.494h27.128l13.564-23.494Zm-15.545,31.786,6.432,11.14-19.3-11.14h12.864m1.926-3.336H916.528l40.8,23.59-13.619-23.59Zm4.543,32.618-6.406,11.1H929.037l19.218-11.1m9.076-9.076h0Zm0,0-40.692,23.494h27.128l13.564-23.494ZM913.164,265.8l.1,22.213L906.8,276.942l6.36-11.137m-10.2,11.155,13.582,23.454-.019-47.022Zm38.822,31.761,6.432,11.141-19.3-11.141h12.864m1.926-3.336H916.528l40.8,23.59-13.619-23.59ZM948.255,338l-6.406,11.1H929.037L948.255,338m9.076-9.076h0Zm0,0-40.692,23.494h27.128l13.564-23.494ZM913.164,317.8l.1,22.213L906.8,328.934l6.36-11.137m-10.2,11.155,13.582,23.454-.019-47.022Zm38.822,31.761,6.432,11.141-19.3-11.141h12.864m1.926-3.336H916.528l40.8,23.59-13.619-23.59Zm4.543,32.618-6.406,11.1H929.037l19.218-11.1m9.076-9.076h0Zm0,0-40.692,23.494h27.128l13.564-23.494Zm-44.167-11.13.1,22.213L906.8,380.926l6.36-11.137m-10.2,11.155L916.546,404.4l-.019-47.022ZM941.786,412.7l6.432,11.141-19.3-11.141h12.864m1.926-3.336H916.528l40.8,23.59-13.619-23.59Zm4.543,32.618-6.406,11.1H929.037l19.218-11.1m9.076-9.076h0Zm0,0L916.639,456.4h27.128l13.564-23.494Zm-44.167-11.13.1,22.214L906.8,432.918l6.36-11.137m3.382,34.609-.019-47.022-13.563,23.568M941.786,464.7l6.432,11.141-19.3-11.141h12.864m1.926-3.336H916.528l40.8,23.59-13.619-23.59Zm4.543,32.618-6.406,11.1H929.037l19.218-11.1m9.076-9.076h0Zm0,0L916.639,508.4h27.128L957.331,484.9Zm-15.545,31.786,6.432,11.141-19.3-11.141h12.864m1.926-3.336H916.528l40.8,23.59-13.619-23.59Zm4.543,32.618-6.406,11.1H929.037l19.218-11.1m9.076-9.076h0Zm0,0-40.692,23.494h27.128L957.331,536.9Zm-44.167-11.13.1,22.214L906.8,536.9l6.36-11.137m-10.2,11.155,13.582,23.454-.019-47.022Zm38.822,31.761,6.432,11.141-19.3-11.141h12.864m1.926-3.336H916.528l40.8,23.59-13.619-23.59Zm13.619,23.542h0Zm0,51.992h0Zm29.746-514.123,6.432,11.141-19.3-11.141h12.864M989,123.42H961.819l40.8,23.59L989,123.42Zm4.543,32.618-6.406,11.1H974.328l19.218-11.1m9.076-9.076h0Zm0,0L961.93,170.456h27.128l13.564-23.494Zm-44.167-11.13.1,22.214-6.465-11.077,6.36-11.137m-10.2,11.155,13.582,23.454-.019-47.022Zm38.822,31.761,6.432,11.141-19.3-11.141h12.864M989,175.412H961.819l40.8,23.59L989,175.412Zm4.543,32.618-6.406,11.1H974.328l19.218-11.1m9.076-9.076h0Zm0,0L961.93,222.448h27.128l13.564-23.494Zm-44.167-11.13.1,22.214-6.465-11.077,6.36-11.137m-10.2,11.155,13.582,23.454-.019-47.022Zm38.822,31.761,6.432,11.141-19.3-11.141h12.864M989,227.4H961.819l40.8,23.589L989,227.4Zm4.543,32.618-6.406,11.1H974.328l19.218-11.1m9.076-9.077h0Zm0,0L961.93,274.44h27.128l13.564-23.494Zm-44.167-11.13.1,22.214-6.465-11.077,6.36-11.137m-10.2,11.155,13.582,23.454-.019-47.022Zm38.822,31.761,6.432,11.141-19.3-11.141h12.864M989,279.4H961.819l40.8,23.589L989,279.4Zm4.543,32.618L987.14,323.11H974.328l19.218-11.095m9.076-9.077h0Zm0,0L961.93,326.432h27.128l13.564-23.494Zm-44.167-11.13.1,22.214-6.465-11.077,6.36-11.137m-10.2,11.155,13.582,23.454-.019-47.022Zm38.822,31.761,6.432,11.141-19.3-11.141h12.864M989,331.389H961.819l40.8,23.589L989,331.389Zm4.543,32.618-6.406,11.1H974.328l19.218-11.1m9.076-9.077h0Zm0,0L961.93,378.424h27.128l13.564-23.494ZM958.455,343.8l.1,22.214-6.465-11.077,6.36-11.137m-10.2,11.155,13.582,23.454-.019-47.022Zm38.822,31.761,6.432,11.141-19.3-11.141h12.864M989,383.381H961.819l40.8,23.589L989,383.381ZM993.546,416l-6.406,11.1H974.328L993.546,416m9.076-9.077h0Zm0,0L961.93,430.416h27.128l13.564-23.494Zm-44.167-11.129.1,22.213-6.465-11.077,6.36-11.136m-10.2,11.155L961.837,430.4l-.019-47.021Zm38.822,31.76,6.432,11.141-19.3-11.141h12.864M989,435.373H961.819l40.8,23.589L989,435.373Zm4.543,32.618-6.406,11.1H974.328l19.218-11.1m9.076-9.076h0Zm0,0L961.93,482.408h27.128l13.564-23.493Zm-44.167-11.13.1,22.213-6.465-11.077,6.36-11.136m-10.2,11.155,13.582,23.453-.019-47.021ZM987.077,490.7l6.432,11.14-19.3-11.14h12.864M989,487.365H961.819l40.8,23.59L989,487.365Zm4.543,32.618-6.406,11.1H974.328l19.218-11.1m9.076-9.076h0Zm0,0L961.93,534.4h27.128l13.564-23.494Zm-44.167-11.13.1,22.213-6.465-11.076,6.36-11.137m-10.2,11.155,13.582,23.453-.019-47.021Zm38.822,31.761,6.432,11.14-19.3-11.14h12.864M989,539.357H961.819l40.8,23.59L989,539.357Zm4.543,32.618-6.406,11.1H974.328l19.218-11.1m9.076-9.076h0Zm0,0L961.93,586.393h27.128l13.564-23.494Zm-44.167-11.13.1,22.213-6.465-11.076,6.36-11.137m-10.2,11.155,13.582,23.453-.019-47.021Zm45.291,61.043-6.406,11.1H974.328l19.218-11.1m9.076-9.076h0Zm0,0L961.93,638.385h27.128l13.564-23.494Zm29.709-462.146,6.432,11.14-19.3-11.14h12.864m1.926-3.336h-27.184l40.8,23.59-13.619-23.59Zm4.543,32.618-6.406,11.1h-12.812l19.218-11.1m9.076-9.076h0Zm0,0-40.692,23.494h27.128l13.564-23.494Zm-44.167-11.13.105,22.213-6.465-11.076,6.36-11.137m-10.2,11.155,13.582,23.453-.019-47.021Zm38.822,31.761,6.432,11.14-19.3-11.14h12.864m1.926-3.336h-27.184l40.8,23.59-13.619-23.59Zm4.543,32.618-6.406,11.1h-12.812l19.218-11.1m9.076-9.076h0Zm0,0-40.692,23.494h27.128l13.564-23.494Zm-44.167-11.13.105,22.213-6.465-11.076,6.36-11.137m-10.2,11.155,13.582,23.454-.019-47.022Zm38.822,31.761,6.432,11.14-19.3-11.14h12.864m1.926-3.336h-27.184l40.8,23.59-13.619-23.59Zm4.543,32.618-6.406,11.1h-12.812l19.218-11.1m9.076-9.076h0Zm0,0-40.692,23.494h27.128l13.564-23.494Zm-44.167-11.13.105,22.213-6.465-11.076,6.36-11.137m-10.2,11.155,13.582,23.454-.019-47.022Zm38.822,31.761,6.432,11.141-19.3-11.141h12.864m1.926-3.336h-27.184l40.8,23.59-13.619-23.59ZM1038.8,338l-6.406,11.1h-12.812L1038.8,338m9.076-9.076h0Zm0,0-40.692,23.494h27.128l13.564-23.494Zm-44.167-11.13.105,22.213-6.465-11.076,6.36-11.137m-10.2,11.155,13.582,23.454-.019-47.022Zm38.822,31.761,6.432,11.141-19.3-11.141h12.864m1.926-3.336h-27.184l40.8,23.59-13.619-23.59Zm4.543,32.618-6.406,11.1h-12.812l19.218-11.1m9.076-9.076h0Zm0,0-40.692,23.494h27.128l13.564-23.494Zm-44.167-11.13.105,22.213-6.465-11.076,6.36-11.137m-10.2,11.155,13.582,23.454-.019-47.022Zm38.822,31.761,6.432,11.141-19.3-11.141h12.864m1.926-3.336h-27.184l40.8,23.59-13.619-23.59Zm4.543,32.618-6.406,11.1h-12.812l19.218-11.1m9.076-9.076h0Zm0,0L1007.184,456.4h27.128l13.564-23.494Zm-44.167-11.13.105,22.214-6.465-11.077,6.36-11.137m-10.2,11.155,13.582,23.454-.019-47.022Zm38.822,31.761,6.432,11.141-19.3-11.141h12.864m1.926-3.336h-27.184l40.8,23.59-13.619-23.59Zm4.543,32.618-6.406,11.1h-12.812l19.218-11.1m9.076-9.076h0Zm0,0L1007.184,508.4h27.128l13.564-23.494Zm-44.167-11.13.105,22.214-6.465-11.077,6.36-11.137m-10.2,11.155,13.582,23.454-.019-47.022Zm38.822,31.761,6.432,11.141-19.3-11.141h12.864m1.926-3.336h-27.184l40.8,23.59-13.619-23.59Zm4.543,32.618-6.406,11.1h-12.812l19.218-11.1m9.076-9.076h0Zm0,0-40.692,23.494h27.128l13.564-23.494Zm-44.167-11.13.105,22.214L997.349,536.9l6.36-11.137m-10.2,11.155,13.582,23.454-.019-47.022Zm38.822,31.761,6.432,11.141-19.3-11.141h12.864m1.926-3.336h-27.184l40.8,23.59-13.619-23.59Zm4.543,32.618-6.406,11.1h-12.812l19.218-11.1m9.076-9.076h0Zm0,0-40.692,23.494h27.128l13.564-23.494Zm-44.167-11.13.105,22.214-6.465-11.077,6.36-11.137m-10.2,11.155,13.582,23.454-.019-47.022Zm38.822,31.761,6.432,11.141-19.3-11.141h12.864m1.926-3.336h-27.184l40.8,23.59-13.619-23.59Zm4.543,32.618-6.406,11.1h-12.812l19.218-11.1m9.076-9.076h0Zm0,0-40.692,23.494h27.128l13.564-23.494Zm-44.167-11.13.105,22.214-6.465-11.077,6.36-11.137m-10.2,11.155,13.582,23.454-.019-47.022ZM903,727.951l-6.406,11.1H883.783L903,727.951m9.076-9.076h0Zm0,0-40.692,23.494h27.128l13.564-23.494Zm-15.545,31.786,6.432,11.141-19.3-11.141h12.864m1.926-3.336H871.274l40.8,23.59-13.619-23.59ZM903,779.943l-6.406,11.1H883.783L903,779.943m9.076-9.076h0Zm0,0-40.692,23.494h27.128l13.564-23.494Zm-44.167-11.13.105,22.213-6.465-11.076,6.36-11.137m-10.2,11.155,13.582,23.454-.019-47.022Zm99.621-78.021h0Zm-15.545,31.786,6.432,11.141-19.3-11.141h12.864m1.926-3.335H916.528l40.8,23.589-13.619-23.589Zm4.543,32.618-6.406,11.095H929.037l19.218-11.095m9.076-9.077h0Zm0,0-40.692,23.494h27.128l13.564-23.494Zm-44.167-11.13.1,22.214L906.8,744.87l6.36-11.137m-10.2,11.155,13.582,23.454-.019-47.022Zm38.822,31.761,6.432,11.141-19.3-11.141h12.864m1.926-3.335H916.528l40.8,23.589-13.619-23.589Zm13.619,23.541h0Zm0,51.992h0Zm0,51.993h0Zm29.746-254.163,6.432,11.14-19.3-11.14h12.864M989,643.341H961.819l40.8,23.59L989,643.341Zm4.543,32.618-6.406,11.1H974.328l19.218-11.1m9.076-9.076h0Zm0,0L961.93,690.377h27.128l13.564-23.494Zm-44.167-11.13.1,22.213-6.465-11.076,6.36-11.137m-10.2,11.155,13.582,23.454-.019-47.022Zm38.822,31.761,6.432,11.141-19.3-11.141h12.864M989,695.333H961.819l40.8,23.59L989,695.333Zm4.543,32.618-6.406,11.1H974.328l19.218-11.1m9.076-9.076h0Zm0,0L961.93,742.369h27.128l13.564-23.494Zm-44.167-11.13.1,22.213-6.465-11.076,6.36-11.137m-10.2,11.155,13.582,23.454-.019-47.022Zm38.822,31.761,6.432,11.141-19.3-11.141h12.864M989,747.325H961.819l40.8,23.59L989,747.325Zm4.543,32.618-6.406,11.1H974.328l19.218-11.1m9.076-9.076h0Zm0,0L961.93,794.361h27.128l13.564-23.494Zm-44.167-11.13.1,22.213-6.465-11.076,6.36-11.137m-10.2,11.155,13.582,23.454-.019-47.022Zm38.822,31.761,6.432,11.141-19.3-11.141h12.864M989,799.317H961.819l40.8,23.59L989,799.317Zm4.543,32.618-6.406,11.1H974.328l19.218-11.1m9.076-9.076h0Zm0,0L961.93,846.353h27.128l13.564-23.494Zm-44.167-11.13.1,22.214-6.465-11.077,6.36-11.137m-10.2,11.155,13.582,23.454-.019-47.022Zm38.822,31.761,6.432,11.141-19.3-11.141h12.864M989,851.309H961.819l40.8,23.59L989,851.309Zm4.543,32.618-6.406,11.1H974.328l19.218-11.1m9.076-9.076h0Zm0,0L961.93,898.345h27.128l13.564-23.494Zm-44.167-11.13.1,22.214-6.465-11.077,6.36-11.137m-10.2,11.155,13.582,23.454-.019-47.022Zm38.822,31.761,6.432,11.141-19.3-11.141h12.864M989,903.3H961.819l40.8,23.59L989,903.3Zm13.619,23.542h0Zm29.709-254.178,6.432,11.141-19.3-11.141h12.864m1.926-3.335h-27.184l40.8,23.589-13.619-23.589Zm4.543,32.618-6.406,11.1h-12.812l19.218-11.1m9.076-9.077h0Zm0,0-40.692,23.494h27.128l13.564-23.494Zm-44.167-11.13.105,22.214-6.465-11.077,6.36-11.137m-10.2,11.155,13.582,23.454-.019-47.022Zm38.822,31.761,6.432,11.141-19.3-11.141h12.864m1.926-3.335h-27.184l40.8,23.589-13.619-23.589Zm4.543,32.618-6.406,11.095h-12.812L1038.8,753.94m9.076-9.077h0Zm0,0-40.692,23.494h27.128l13.564-23.494Zm-44.167-11.13.105,22.214-6.465-11.077,6.36-11.137m-10.2,11.155,13.582,23.454-.019-47.022Zm38.822,31.761,6.432,11.141-19.3-11.141h12.864m1.926-3.335h-27.184l40.8,23.589-13.619-23.589Zm4.543,32.618-6.406,11.095h-12.812l19.218-11.095m9.076-9.077h0Zm0,0-40.692,23.494h27.128l13.564-23.494Zm-44.167-11.13.105,22.214-6.465-11.077,6.36-11.137m-10.2,11.155,13.582,23.454-.019-47.022Zm38.822,31.761,6.432,11.141-19.3-11.141h12.864m1.926-3.335h-27.184l40.8,23.589-13.619-23.589Zm4.543,32.618-6.406,11.095h-12.812l19.218-11.095m9.076-9.077h0Zm0,0-40.692,23.494h27.128l13.564-23.494Zm-44.167-11.13.105,22.214-6.465-11.077,6.36-11.137m-10.2,11.156,13.582,23.453-.019-47.021Zm38.822,31.76,6.432,11.141-19.3-11.141h12.864m1.926-3.335h-27.184l40.8,23.589L1034.257,877.3Zm4.543,32.618-6.406,11.095h-12.812l19.218-11.095m9.076-9.076h0Zm0,0-40.692,23.493h27.128l13.564-23.493Zm-44.167-11.13.105,22.213-6.465-11.077,6.36-11.136m-10.2,11.155,13.582,23.453-.019-47.021Zm85-774.109,6.433,11.141-19.3-11.141h12.864m1.926-3.336h-27.184l40.8,23.59-13.62-23.59Zm4.544,32.618-6.406,11.1h-12.812l19.218-11.1m9.076-9.076h0Zm0,0-40.693,23.494h27.129l13.564-23.494Zm-44.167-11.13.1,22.214-6.464-11.077,6.36-11.137m-10.2,11.155,13.581,23.454-.018-47.022Zm38.821,31.761,6.433,11.141-19.3-11.141h12.864m1.926-3.336h-27.184l40.8,23.59-13.62-23.59Zm4.544,32.618-6.406,11.1h-12.812l19.218-11.1m9.076-9.076h0Zm0,0-40.693,23.494h27.129l13.564-23.494Zm-44.167-11.13.1,22.214-6.464-11.077,6.36-11.137m-10.2,11.155,13.581,23.454-.018-47.022Zm38.821,31.761,6.433,11.141-19.3-11.141h12.864m1.926-3.335h-27.184l40.8,23.589-13.62-23.589Zm4.544,32.618-6.406,11.1h-12.812l19.218-11.1m9.076-9.077h0Zm0,0-40.693,23.494h27.129l13.564-23.494Zm-44.167-11.13.1,22.214-6.464-11.077,6.36-11.137m-10.2,11.155,13.581,23.454-.018-47.022Zm38.821,31.761,6.433,11.141-19.3-11.141h12.864m1.926-3.335h-27.184l40.8,23.589-13.62-23.589Zm4.544,32.618-6.406,11.095h-12.812l19.218-11.095m9.076-9.077h0Zm0,0-40.693,23.494h27.129l13.564-23.494Zm-44.167-11.13.1,22.214-6.464-11.077,6.36-11.137m-10.2,11.155,13.581,23.454-.018-47.022Zm38.821,31.761,6.433,11.141-19.3-11.141h12.864m1.926-3.335h-27.184l40.8,23.589-13.62-23.589Zm4.544,32.618-6.406,11.1h-12.812l19.218-11.1m9.076-9.077h0Zm0,0-40.693,23.494h27.129l13.564-23.494ZM1049.89,343.8l.1,22.214-6.464-11.077,6.36-11.137m-10.2,11.155,13.581,23.454-.018-47.022Zm38.821,31.761,6.433,11.141-19.3-11.141h12.864m1.926-3.335h-27.184l40.8,23.589-13.62-23.589ZM1084.981,416l-6.406,11.1h-12.812l19.218-11.1m9.076-9.077h0Zm0,0-40.693,23.494h27.129l13.564-23.494Zm-44.167-11.129.1,22.213-6.464-11.077,6.36-11.136m-10.2,11.155,13.581,23.453-.018-47.021Zm38.821,31.76,6.433,11.141-19.3-11.141h12.864m1.926-3.335h-27.184l40.8,23.589-13.62-23.589Zm4.544,32.618-6.406,11.1h-12.812l19.218-11.1m9.076-9.076h0Zm0,0-40.693,23.493h27.129l13.564-23.493Zm-44.167-11.13.1,22.213-6.464-11.077,6.36-11.136m-10.2,11.155,13.581,23.453-.018-47.021Zm38.821,31.761,6.433,11.14-19.3-11.14h12.864m1.926-3.336h-27.184l40.8,23.59-13.62-23.59Zm4.544,32.618-6.406,11.1h-12.812l19.218-11.1m9.076-9.076h0Zm0,0L1053.364,534.4h27.129l13.564-23.494Zm-44.167-11.13.1,22.213-6.464-11.076,6.36-11.137m-10.2,11.155,13.581,23.453-.018-47.021Zm38.821,31.761,6.433,11.14-19.3-11.14h12.864m1.926-3.336h-27.184l40.8,23.59-13.62-23.59Zm4.544,32.618-6.406,11.1h-12.812l19.218-11.1m9.076-9.076h0Zm0,0-40.693,23.494h27.129l13.564-23.494Zm-44.167-11.13.1,22.213-6.464-11.076,6.36-11.137m-10.2,11.155,13.581,23.453-.018-47.021Zm38.821,31.761,6.433,11.14-19.3-11.14h12.864m1.926-3.336h-27.184l40.8,23.59-13.62-23.59Zm4.544,32.618-6.406,11.1h-12.812l19.218-11.1m9.076-9.076h0Zm0,0-40.693,23.494h27.129l13.564-23.494Zm-44.167-11.13.1,22.213L1043.53,614.9l6.36-11.137m-10.2,11.155,13.581,23.454-.018-47.022Zm84.076-462.171,6.432,11.14-19.3-11.14h12.865m1.925-3.336h-27.184l40.8,23.59-13.62-23.59Zm4.544,32.618-6.406,11.1h-12.812l19.218-11.1m9.076-9.076h0Zm0,0-40.693,23.494h27.129l13.564-23.494Zm-44.167-11.13.1,22.213-6.464-11.076,6.36-11.137m-10.2,11.155,13.581,23.453-.018-47.021Zm38.822,31.761,6.432,11.14-19.3-11.14h12.865m1.925-3.336h-27.184l40.8,23.59-13.62-23.59Zm4.544,32.618-6.406,11.1h-12.812l19.218-11.1m9.076-9.076h0Zm0,0-40.693,23.494h27.129l13.564-23.494Zm-44.167-11.13.1,22.213-6.464-11.076,6.36-11.137m-10.2,11.155,13.581,23.454-.018-47.022Zm38.822,31.761,6.432,11.14-19.3-11.14h12.865m1.925-3.336h-27.184l40.8,23.59-13.62-23.59Zm4.544,32.618-6.406,11.1h-12.812l19.218-11.1m9.076-9.076h0Zm0,0-40.693,23.494h27.129l13.564-23.494Zm-44.167-11.13.1,22.213-6.464-11.076,6.36-11.137m-10.2,11.155,13.581,23.454-.018-47.022Zm38.822,31.761,6.432,11.141-19.3-11.141h12.865m1.925-3.336h-27.184l40.8,23.59-13.62-23.59ZM1130.235,338l-6.406,11.1h-12.812l19.218-11.1m9.076-9.076h0Zm0,0-40.693,23.494h27.129l13.564-23.494Zm-44.167-11.13.1,22.213-6.464-11.076,6.36-11.137m-10.2,11.155,13.581,23.454-.018-47.022Zm38.822,31.761,6.432,11.141-19.3-11.141h12.865m1.925-3.336h-27.184l40.8,23.59-13.62-23.59Zm4.544,32.618-6.406,11.1h-12.812l19.218-11.1m9.076-9.076h0Zm0,0-40.693,23.494h27.129l13.564-23.494Zm-44.167-11.13.1,22.213-6.464-11.076,6.36-11.137m-10.2,11.155,13.581,23.454-.018-47.022Zm38.822,31.761,6.432,11.141L1110.9,412.7h12.865m1.925-3.336h-27.184l40.8,23.59-13.62-23.59Zm4.544,32.618-6.406,11.1h-12.812l19.218-11.1m9.076-9.076h0Zm0,0L1098.618,456.4h27.129l13.564-23.494Zm-44.167-11.13.1,22.214-6.464-11.077,6.36-11.137m-10.2,11.155,13.581,23.454-.018-47.022Zm38.822,31.761,6.432,11.141L1110.9,464.7h12.865m1.925-3.336h-27.184l40.8,23.59-13.62-23.59Zm4.544,32.618-6.406,11.1h-12.812l19.218-11.1m9.076-9.076h0Zm0,0L1098.618,508.4h27.129l13.564-23.494Zm-44.167-11.13.1,22.214-6.464-11.077,6.36-11.137m-10.2,11.155,13.581,23.454-.018-47.022Zm38.822,31.761,6.432,11.141-19.3-11.141h12.865m1.925-3.336h-27.184l40.8,23.59-13.62-23.59Zm4.544,32.618-6.406,11.1h-12.812l19.218-11.1m9.076-9.076h0Zm0,0-40.693,23.494h27.129l13.564-23.494Zm-44.167-11.13.1,22.214-6.464-11.077,6.36-11.137m-10.2,11.155,13.581,23.454-.018-47.022Zm38.822,31.761,6.432,11.141-19.3-11.141h12.865m1.925-3.336h-27.184l40.8,23.59-13.62-23.59Zm4.544,32.618-6.406,11.1h-12.812l19.218-11.1m9.076-9.076h0Zm0,0-40.693,23.494h27.129l13.564-23.494Zm-44.167-11.13.1,22.214-6.464-11.077,6.36-11.137m-10.2,11.155,13.581,23.454-.018-47.022Zm38.822,31.761,6.432,11.141-19.3-11.141h12.865m1.925-3.336h-27.184l40.8,23.59-13.62-23.59Zm4.544,32.618-6.406,11.1h-12.812l19.218-11.1m9.076-9.076h0Zm0,0-40.693,23.494h27.129l13.564-23.494Zm-44.167-11.13.1,22.214-6.464-11.077,6.36-11.137m-10.2,11.155,13.581,23.454-.018-47.022Zm84.113-514.148,6.432,11.141-19.3-11.141h12.865m1.925-3.336H1143.8l40.8,23.59-13.62-23.59Zm4.544,32.618-6.406,11.1h-12.812l19.218-11.1m9.076-9.076h0Zm0,0-40.693,23.494h27.129l13.564-23.494Zm-44.167-11.13.1,22.214-6.464-11.077,6.36-11.137m-10.2,11.155,13.581,23.454-.018-47.022Zm38.822,31.761,6.432,11.141-19.3-11.141h12.865m1.925-3.336H1143.8L1184.6,199l-13.62-23.59Zm4.544,32.618-6.406,11.1h-12.812l19.218-11.1m9.076-9.076h0Zm0,0-40.693,23.494h27.129l13.564-23.494Zm-44.167-11.13.1,22.214-6.464-11.077,6.36-11.137m-10.2,11.155,13.581,23.454-.018-47.022Zm38.822,31.761,6.432,11.141-19.3-11.141h12.865m1.925-3.335H1143.8l40.8,23.589-13.62-23.589Zm4.544,32.618-6.406,11.1h-12.812l19.218-11.1m9.076-9.077h0Zm0,0-40.693,23.494h27.129l13.564-23.494Zm-44.167-11.13.1,22.214-6.464-11.077,6.36-11.137m-10.2,11.155,13.581,23.454L1143.8,227.4Zm38.822,31.761,6.432,11.141-19.3-11.141h12.865m1.925-3.335H1143.8l40.8,23.589-13.62-23.589Zm4.544,32.618-6.406,11.095h-12.812l19.218-11.095m9.076-9.077h0Zm0,0-40.693,23.494h27.129l13.564-23.494Zm-44.167-11.13.1,22.214-6.464-11.077,6.36-11.137m-10.2,11.155,13.581,23.454-.018-47.022Zm38.822,31.761,6.432,11.141-19.3-11.141h12.865m1.925-3.335H1143.8l40.8,23.589-13.62-23.589Zm4.544,32.618-6.406,11.1h-12.812l19.218-11.1m9.076-9.077h0Zm0,0-40.693,23.494h27.129L1184.6,354.93Zm-44.167-11.13.1,22.214-6.464-11.077,6.36-11.137m-10.2,11.155,13.581,23.454-.018-47.022Zm38.822,31.761,6.432,11.141-19.3-11.141h12.865m1.925-3.335H1143.8l40.8,23.589-13.62-23.589ZM1175.526,416l-6.406,11.1h-12.812l19.218-11.1m9.076-9.077h0Zm0,0-40.693,23.494h27.129l13.564-23.494Zm-44.167-11.129.1,22.213-6.464-11.077,6.36-11.136m-10.2,11.155,13.581,23.453-.018-47.021Zm38.822,31.76,6.432,11.141-19.3-11.141h12.865m1.925-3.335H1143.8l40.8,23.589-13.62-23.589Zm4.544,32.618-6.406,11.1h-12.812l19.218-11.1m9.076-9.076h0Zm0,0-40.693,23.493h27.129l13.564-23.493Zm-44.167-11.13.1,22.213-6.464-11.077,6.36-11.136m-10.2,11.155,13.581,23.453-.018-47.021Zm38.822,31.761,6.432,11.14-19.3-11.14h12.865m1.925-3.336H1143.8l40.8,23.59-13.62-23.59Zm4.544,32.618-6.406,11.1h-12.812l19.218-11.1m9.076-9.076h0Zm0,0L1143.909,534.4h27.129l13.564-23.494Zm-44.167-11.13.1,22.213-6.464-11.076,6.36-11.137m-10.2,11.155,13.581,23.453-.018-47.021Zm38.822,31.761,6.432,11.14-19.3-11.14h12.865m1.925-3.336H1143.8l40.8,23.59-13.62-23.59Zm4.544,32.618-6.406,11.1h-12.812l19.218-11.1m9.076-9.076h0Zm0,0-40.693,23.494h27.129L1184.6,562.9Zm-44.167-11.13.1,22.213-6.464-11.076,6.36-11.137m-10.2,11.155,13.581,23.453-.018-47.021Zm38.822,31.761,6.432,11.14-19.3-11.14h12.865m1.925-3.336H1143.8l40.8,23.59-13.62-23.59Zm4.544,32.618-6.406,11.1h-12.812l19.218-11.1m9.076-9.076h0Zm0,0-40.693,23.494h27.129l13.564-23.494Zm-44.167-11.13.1,22.213-6.464-11.076,6.36-11.137m-10.2,11.155,13.581,23.454-.018-47.022Zm84.076-462.171,6.432,11.14-19.3-11.14h12.865m1.925-3.336h-27.184l40.8,23.59-13.62-23.59Zm4.544,32.618-6.406,11.1h-12.812l19.218-11.1m9.076-9.076h0Zm0,0-40.693,23.494h27.129l13.564-23.494Zm-44.167-11.13.1,22.213-6.464-11.076,6.36-11.137m-10.2,11.155,13.581,23.453-.018-47.021Zm38.822,31.761,6.432,11.14-19.3-11.14h12.865m1.925-3.336h-27.184l40.8,23.59-13.62-23.59Zm4.544,32.618-6.406,11.1h-12.812l19.218-11.1m9.076-9.076h0Zm0,0-40.693,23.494h27.129l13.564-23.494Zm-44.167-11.13.1,22.213-6.464-11.076,6.36-11.137m-10.2,11.155,13.581,23.454-.018-47.022Zm38.822,31.761,6.432,11.14-19.3-11.14h12.865m1.925-3.336h-27.184l40.8,23.59-13.62-23.59Zm4.544,32.618-6.406,11.1h-12.812l19.218-11.1m9.076-9.076h0Zm0,0-40.693,23.494h27.129l13.564-23.494Zm-44.167-11.13.1,22.213-6.464-11.076,6.36-11.137m-10.2,11.155,13.581,23.454-.018-47.022Zm38.822,31.761,6.432,11.141-19.3-11.141h12.865m1.925-3.336h-27.184l40.8,23.59-13.62-23.59ZM1220.78,338l-6.406,11.1h-12.812L1220.78,338m9.076-9.076h0Zm0,0-40.693,23.494h27.129l13.564-23.494Zm-44.167-11.13.1,22.213-6.464-11.076,6.36-11.137m-10.2,11.155,13.581,23.454-.018-47.022Zm38.822,31.761,6.432,11.141-19.3-11.141h12.865m1.925-3.336h-27.184l40.8,23.59-13.62-23.59Zm4.544,32.618-6.406,11.1h-12.812l19.218-11.1m9.076-9.076h0Zm0,0-40.693,23.494h27.129l13.564-23.494Zm-44.167-11.13.1,22.213-6.464-11.076,6.36-11.137m-10.2,11.155L1189.07,404.4l-.018-47.022Zm38.822,31.761,6.432,11.141-19.3-11.141h12.865m1.925-3.336h-27.184l40.8,23.59-13.62-23.59Zm4.544,32.618-6.406,11.1h-12.812l19.218-11.1m9.076-9.076h0Zm0,0L1189.163,456.4h27.129l13.564-23.494Zm-44.167-11.13.1,22.214-6.464-11.077,6.36-11.137m-10.2,11.155,13.581,23.454-.018-47.022Zm38.822,31.761,6.432,11.141-19.3-11.141h12.865m1.925-3.336h-27.184l40.8,23.59-13.62-23.59Zm4.544,32.618-6.406,11.1h-12.812l19.218-11.1m9.076-9.076h0Zm0,0L1189.163,508.4h27.129l13.564-23.494Zm-44.167-11.13.1,22.214-6.464-11.077,6.36-11.137m-10.2,11.155,13.581,23.454-.018-47.022Zm38.822,31.761,6.432,11.141-19.3-11.141h12.865m1.925-3.336h-27.184l40.8,23.59-13.62-23.59Zm4.544,32.618-6.406,11.1h-12.812l19.218-11.1m9.076-9.076h0Zm0,0-40.693,23.494h27.129l13.564-23.494Zm-44.167-11.13.1,22.214-6.464-11.077,6.36-11.137m-10.2,11.155,13.581,23.454-.018-47.022Zm38.822,31.761,6.432,11.141-19.3-11.141h12.865m1.925-3.336h-27.184l40.8,23.59-13.62-23.59Zm4.544,32.618-6.406,11.1h-12.812l19.218-11.1m9.076-9.076h0Zm0,0-40.693,23.494h27.129l13.564-23.494Zm-44.167-11.13.1,22.214-6.464-11.077,6.36-11.137m-10.2,11.155,13.581,23.454-.018-47.022Zm38.822,31.761,6.432,11.141-19.3-11.141h12.865m1.925-3.336h-27.184l40.8,23.59-13.62-23.59Zm4.544,32.618-6.406,11.1h-12.812l19.218-11.1m9.076-9.076h0Zm0,0-40.693,23.494h27.129l13.564-23.494Zm-44.167-11.13.1,22.214-6.464-11.077,6.36-11.137m-10.2,11.155,13.581,23.454-.018-47.022Zm-96.978,5.773,6.433,11.14-19.3-11.14h12.864m1.926-3.336h-27.184l40.8,23.59-13.62-23.59Zm4.544,32.618-6.406,11.1h-12.812l19.218-11.1m9.076-9.076h0Zm0,0-40.693,23.494h27.129l13.564-23.494Zm-44.167-11.13.1,22.213-6.464-11.076,6.36-11.137m-10.2,11.155,13.581,23.454-.018-47.022Zm38.821,31.761,6.433,11.141-19.3-11.141h12.864m1.926-3.336h-27.184l40.8,23.59-13.62-23.59Zm4.544,32.618-6.406,11.1h-12.812l19.218-11.1m9.076-9.076h0Zm0,0-40.693,23.494h27.129l13.564-23.494Zm-44.167-11.13.1,22.213-6.464-11.076,6.36-11.137m-10.2,11.155,13.581,23.454-.018-47.022Zm38.821,31.761,6.433,11.141-19.3-11.141h12.864m1.926-3.336h-27.184l40.8,23.59-13.62-23.59Zm4.544,32.618-6.406,11.1h-12.812l19.218-11.1m9.076-9.076h0Zm0,0-40.693,23.494h27.129l13.564-23.494Zm-44.167-11.13.1,22.213-6.464-11.076,6.36-11.137m-10.2,11.155,13.581,23.454-.018-47.022Zm38.821,31.761,6.433,11.141-19.3-11.141h12.864m1.926-3.336h-27.184l40.8,23.59-13.62-23.59Zm4.544,32.618-6.406,11.1h-12.812l19.218-11.1m9.076-9.076h0Zm0,0-40.693,23.494h27.129l13.564-23.494Zm-44.167-11.13.1,22.214-6.464-11.077,6.36-11.137m-10.2,11.155,13.581,23.454-.018-47.022Zm38.821,31.761,6.433,11.141-19.3-11.141h12.864m1.926-3.336h-27.184l40.8,23.59-13.62-23.59Zm4.544,32.618-6.406,11.1h-12.812l19.218-11.1m9.076-9.076h0Zm0,0-40.693,23.494h27.129l13.564-23.494Zm-44.167-11.13.1,22.214-6.464-11.077,6.36-11.137m-10.2,11.155,13.581,23.454-.018-47.022Zm38.821,31.761,6.433,11.141-19.3-11.141h12.864m1.926-3.336h-27.184l40.8,23.59-13.62-23.59Zm13.62,23.542h0Zm29.709-254.178,6.432,11.141-19.3-11.141h12.865m1.925-3.335h-27.184l40.8,23.589-13.62-23.589Zm4.544,32.618-6.406,11.1h-12.812l19.218-11.1m9.076-9.077h0Zm0,0-40.693,23.494h27.129l13.564-23.494Zm-44.167-11.13.1,22.214-6.464-11.077,6.36-11.137m-10.2,11.155,13.581,23.454-.018-47.022Zm38.822,31.761L1130.2,735.8l-19.3-11.141h12.865m1.925-3.335h-27.184l40.8,23.589-13.62-23.589Zm4.544,32.618-6.406,11.095h-12.812l19.218-11.095m9.076-9.077h0Zm0,0-40.693,23.494h27.129l13.564-23.494Zm-44.167-11.13.1,22.214-6.464-11.077,6.36-11.137m-10.2,11.155,13.581,23.454-.018-47.022Zm38.822,31.761,6.432,11.141-19.3-11.141h12.865m1.925-3.335h-27.184l40.8,23.589-13.62-23.589Zm4.544,32.618-6.406,11.095h-12.812l19.218-11.095m9.076-9.077h0Zm0,0-40.693,23.494h27.129l13.564-23.494Zm-44.167-11.13.1,22.214-6.464-11.077,6.36-11.137m-10.2,11.155,13.581,23.454-.018-47.022Zm38.822,31.761,6.432,11.141-19.3-11.141h12.865m1.925-3.335h-27.184l40.8,23.589-13.62-23.589Zm4.544,32.618-6.406,11.095h-12.812l19.218-11.095m9.076-9.077h0Zm0,0-40.693,23.494h27.129l13.564-23.494Zm-44.167-11.13.1,22.214-6.464-11.077,6.36-11.137m-10.2,11.156,13.581,23.453-.018-47.021Zm38.822,31.76,6.432,11.141-19.3-11.141h12.865m1.925-3.335h-27.184l40.8,23.589-13.62-23.589Zm4.544,32.618-6.406,11.095h-12.812l19.218-11.095m9.076-9.076h0Zm0,0-40.693,23.493h27.129l13.564-23.493Zm-44.167-11.13.1,22.213-6.464-11.077,6.36-11.136m-10.2,11.155,13.581,23.453-.018-47.021Zm84.113-254.188,6.432,11.14-19.3-11.14h12.865m1.925-3.336H1143.8l40.8,23.59-13.62-23.59Zm4.544,32.618-6.406,11.1h-12.812l19.218-11.1m9.076-9.076h0Zm0,0-40.693,23.494h27.129l13.564-23.494Zm-44.167-11.13.1,22.213-6.464-11.076,6.36-11.137m-10.2,11.155,13.581,23.454-.018-47.022Zm38.822,31.761,6.432,11.141-19.3-11.141h12.865m1.925-3.336H1143.8l40.8,23.59-13.62-23.59Zm4.544,32.618-6.406,11.1h-12.812l19.218-11.1m9.076-9.076h0Zm0,0-40.693,23.494h27.129l13.564-23.494Zm-44.167-11.13.1,22.213-6.464-11.076,6.36-11.137m-10.2,11.155,13.581,23.454-.018-47.022Zm38.822,31.761,6.432,11.141-19.3-11.141h12.865m1.925-3.336H1143.8l40.8,23.59-13.62-23.59Zm4.544,32.618-6.406,11.1h-12.812l19.218-11.1m9.076-9.076h0Zm0,0-40.693,23.494h27.129l13.564-23.494Zm-44.167-11.13.1,22.213-6.464-11.076,6.36-11.137m-10.2,11.155,13.581,23.454-.018-47.022Zm38.822,31.761,6.432,11.141-19.3-11.141h12.865m1.925-3.336H1143.8l40.8,23.59-13.62-23.59Zm4.544,32.618-6.406,11.1h-12.812l19.218-11.1m9.076-9.076h0Zm0,0-40.693,23.494h27.129l13.564-23.494Zm-44.167-11.13.1,22.214-6.464-11.077,6.36-11.137m-10.2,11.155,13.581,23.454-.018-47.022Zm38.822,31.761,6.432,11.141-19.3-11.141h12.865m1.925-3.336H1143.8l40.8,23.59-13.62-23.59Zm4.544,32.618-6.406,11.1h-12.812l19.218-11.1m9.076-9.076h0Zm0,0-40.693,23.494h27.129l13.564-23.494Zm-44.167-11.13.1,22.214-6.464-11.077,6.36-11.137m-10.2,11.155,13.581,23.454-.018-47.022Zm38.822,31.761,6.432,11.141-19.3-11.141h12.865m1.925-3.336H1143.8l40.8,23.59-13.62-23.59Zm13.62,23.542h0Zm29.709-254.178,6.432,11.141-19.3-11.141h12.865m1.925-3.335h-27.184l40.8,23.589-13.62-23.589Zm4.544,32.618-6.406,11.1h-12.812l19.218-11.1m9.076-9.077h0Zm0,0-40.693,23.494h27.129l13.564-23.494Zm-44.167-11.13.1,22.214-6.464-11.077,6.36-11.137m-10.2,11.155,13.581,23.454-.018-47.022Zm38.822,31.761,6.432,11.141-19.3-11.141h12.865m1.925-3.335h-27.184l40.8,23.589-13.62-23.589Zm4.544,32.618-6.406,11.095h-12.812l19.218-11.095m9.076-9.077h0Zm0,0-40.693,23.494h27.129l13.564-23.494Zm-44.167-11.13.1,22.214-6.464-11.077,6.36-11.137m-10.2,11.155,13.581,23.454-.018-47.022Zm38.822,31.761,6.432,11.141-19.3-11.141h12.865m1.925-3.335h-27.184l40.8,23.589-13.62-23.589Zm4.544,32.618-6.406,11.095h-12.812l19.218-11.095m9.076-9.077h0Zm0,0-40.693,23.494h27.129l13.564-23.494Zm-44.167-11.13.1,22.214-6.464-11.077,6.36-11.137m-10.2,11.155,13.581,23.454-.018-47.022Zm38.822,31.761,6.432,11.141-19.3-11.141h12.865m1.925-3.335h-27.184l40.8,23.589-13.62-23.589Zm4.544,32.618-6.406,11.095h-12.812l19.218-11.095m9.076-9.077h0Zm0,0-40.693,23.494h27.129l13.564-23.494Zm-44.167-11.13.1,22.214-6.464-11.077,6.36-11.137m-10.2,11.156,13.581,23.453-.018-47.021Zm38.822,31.76,6.432,11.141-19.3-11.141h12.865m1.925-3.335h-27.184l40.8,23.589-13.62-23.589Zm4.544,32.618-6.406,11.095h-12.812l19.218-11.095m9.076-9.076h0Zm0,0-40.693,23.493h27.129l13.564-23.493Zm-44.167-11.13.1,22.213-6.464-11.077,6.36-11.136m-10.2,11.155,13.581,23.453-.018-47.021ZM-66.572,250.946h0Zm15.546,31.786h12.864l-19.3,11.141,6.432-11.141m-1.926-3.335-13.619,23.589,40.8-23.589Zm-4.543,32.618,19.218,11.095H-51.089l-6.406-11.095m-9.077-9.077h0Zm0,0,13.564,23.494h27.128l-40.692-23.494Zm44.167-11.13,6.36,11.137-6.465,11.077.105-22.214m-3.363-12.413-.018,47.022L-12.2,302.963Zm-25.259,55.329h12.864l-19.3,11.141,6.432-11.141m-1.926-3.335-13.619,23.589,40.8-23.589Zm-4.543,32.618,19.218,11.1H-51.089l-6.406-11.1m-9.077-9.077h0Zm0,0,13.564,23.494h27.128L-66.571,354.93ZM-22.4,343.8l6.36,11.137-6.465,11.077L-22.4,343.8m-3.363-12.413-.018,47.022L-12.2,354.955Zm-40.8,75.535h0Zm15.546,31.786h12.864l-19.3,11.141,6.432-11.141m-1.926-3.335-13.619,23.589,40.8-23.589Zm-13.62,23.542h0Zm0,51.992h0Zm15.546,31.786h12.864l-19.3,11.14,6.432-11.14m-1.926-3.336-13.619,23.59,40.8-23.59Zm-4.543,32.618,19.218,11.1H-51.089l-6.406-11.1m-9.077-9.076h0Zm0,0,13.564,23.494h27.128L-66.571,562.9Zm44.167-11.13,6.36,11.137-6.465,11.076.105-22.213m-3.363-12.413-.018,47.021L-12.2,562.924Zm-40.8,75.535h0Zm-45.254-441.94h0Zm9.077,61.068,19.218,11.1H-96.343l-6.406-11.1m-9.077-9.076h0Zm0,0,13.564,23.494h27.128l-40.692-23.494Zm15.545,31.786h12.864l-19.3,11.14,6.432-11.14m-1.926-3.336-13.619,23.59,40.8-23.59Zm-4.543,32.618,19.218,11.1H-96.343l-6.406-11.1m-9.077-9.076h0Zm0,0,13.564,23.494h27.128l-40.692-23.494Zm44.167-11.13,6.36,11.137-6.465,11.076.105-22.213m-3.363-12.413-.018,47.022,13.581-23.454ZM-96.28,308.721h12.864l-19.3,11.141,6.432-11.141m-1.926-3.336-13.619,23.59,40.8-23.59ZM-102.749,338l19.218,11.1H-96.343l-6.406-11.1m-9.077-9.076h0Zm0,0,13.564,23.494h27.128l-40.692-23.494Zm44.167-11.13,6.36,11.137-6.465,11.076.105-22.213m-3.363-12.413-.018,47.022,13.581-23.454ZM-96.28,360.713h12.864l-19.3,11.141,6.432-11.141m-1.926-3.336-13.619,23.59,40.8-23.59Zm-4.543,32.618,19.218,11.1H-96.343l-6.406-11.1m-9.077-9.076h0Zm0,0,13.564,23.494h27.128l-40.692-23.494Zm44.167-11.13,6.36,11.137L-67.763,392l.105-22.213m-3.363-12.413-.018,47.022,13.581-23.454ZM-96.28,412.7h12.864l-19.3,11.141L-96.28,412.7m-1.926-3.336-13.619,23.59,40.8-23.59Zm-4.543,32.618,19.218,11.1H-96.343l-6.406-11.1m-9.077-9.076h0Zm0,0L-98.261,456.4h27.128l-40.692-23.494Zm44.167-11.13,6.36,11.137-6.465,11.077.105-22.214m10.2,11.155-13.563-23.568-.018,47.022M-96.28,464.7h12.864l-19.3,11.141L-96.28,464.7m-1.926-3.336-13.619,23.59,40.8-23.59Zm-4.543,32.618,19.218,11.1H-96.343l-6.406-11.1m-9.077-9.076h0Zm0,0L-98.261,508.4h27.128L-111.825,484.9Zm15.545,31.786h12.864l-19.3,11.141,6.432-11.141m-1.926-3.336-13.619,23.59,40.8-23.59Zm-4.543,32.618,19.218,11.1H-96.343l-6.406-11.1m-9.077-9.076h0Zm0,0,13.564,23.494h27.128L-111.825,536.9Zm44.167-11.13L-61.3,536.9l-6.465,11.077.105-22.214m-3.363-12.413-.018,47.022,13.581-23.454ZM-96.28,568.681h12.864l-19.3,11.141,6.432-11.141m-1.926-3.336-13.619,23.59,40.8-23.59Zm-13.62,23.542h0Zm0,51.992h0Zm-29.745-514.123h12.864L-148,137.9l6.432-11.141m-1.926-3.336-13.619,23.59,40.8-23.59Zm-4.543,32.618,19.218,11.1h-12.812l-6.406-11.1m-9.077-9.076h0Zm0,0,13.564,23.494h27.128l-40.692-23.494Zm44.167-11.13,6.36,11.137-6.465,11.077.105-22.214m-3.363-12.413-.018,47.022,13.581-23.454Zm-25.259,55.329h12.864L-148,189.889l6.432-11.141m-1.926-3.336L-157.116,199l40.8-23.59Zm-4.543,32.618,19.218,11.1h-12.812l-6.406-11.1m-9.077-9.076h0Zm0,0,13.564,23.494h27.128l-40.692-23.494Zm44.167-11.13,6.36,11.137-6.465,11.077.105-22.214m-3.363-12.413-.018,47.022,13.581-23.454Zm-25.259,55.329h12.864L-148,241.881l6.432-11.141M-143.5,227.4l-13.619,23.589,40.8-23.589Zm-4.543,32.618,19.218,11.1h-12.812l-6.406-11.1m-9.077-9.077h0Zm0,0,13.564,23.494h27.128l-40.692-23.494Zm44.167-11.13,6.36,11.137-6.465,11.077.105-22.214m-3.363-12.413-.018,47.022,13.581-23.454Zm-25.259,55.329h12.864L-148,293.873l6.432-11.141M-143.5,279.4l-13.619,23.589,40.8-23.589Zm-4.543,32.618,19.218,11.095h-12.812l-6.406-11.095m-9.077-9.077h0Zm0,0,13.564,23.494h27.128l-40.692-23.494Zm44.167-11.13,6.36,11.137-6.465,11.077.105-22.214m-3.363-12.413-.018,47.022,13.581-23.454Zm-25.259,55.329h12.864L-148,345.865l6.432-11.141m-1.926-3.335-13.619,23.589,40.8-23.589Zm-4.543,32.618,19.218,11.1h-12.812l-6.406-11.1m-9.077-9.077h0Zm0,0,13.564,23.494h27.128l-40.692-23.494Zm44.167-11.13,6.36,11.137-6.465,11.077.105-22.214m-3.363-12.413-.018,47.022,13.581-23.454Zm-25.259,55.329h12.864L-148,397.857l6.432-11.141m-1.926-3.335-13.619,23.589,40.8-23.589ZM-148.04,416l19.218,11.1h-12.812L-148.04,416m-9.077-9.077h0Zm0,0,13.564,23.494h27.128l-40.692-23.494Zm44.167-11.129,6.36,11.136-6.465,11.077.105-22.213m-3.363-12.413-.018,47.021,13.581-23.453Zm-25.259,55.328h12.864L-148,449.849l6.432-11.141m-1.926-3.335-13.619,23.589,40.8-23.589Zm-4.543,32.618,19.218,11.1h-12.812l-6.406-11.1m-9.077-9.076h0Zm0,0,13.564,23.493h27.128l-40.692-23.493Zm44.167-11.13,6.36,11.136L-113.054,470l.105-22.213m-3.363-12.413-.018,47.021,13.581-23.453ZM-141.571,490.7h12.864l-19.3,11.14,6.432-11.14m-1.926-3.336-13.619,23.59,40.8-23.59Zm-4.543,32.618,19.218,11.1h-12.812l-6.406-11.1m-9.077-9.076h0Zm0,0,13.564,23.494h27.128l-40.692-23.494Zm44.167-11.13,6.36,11.137-6.465,11.076.105-22.213m-3.363-12.413-.018,47.021,13.581-23.453Zm-25.259,55.329h12.864l-19.3,11.14,6.432-11.14m-1.926-3.336-13.619,23.59,40.8-23.59Zm-4.543,32.618,19.218,11.1h-12.812l-6.406-11.1m-9.077-9.076h0Zm0,0,13.564,23.494h27.128L-157.116,562.9Zm44.167-11.13,6.36,11.137-6.465,11.076.105-22.213m-3.363-12.413-.018,47.021,13.581-23.453Zm-31.728,84.611,19.218,11.1h-12.812l-6.406-11.1m-9.077-9.076h0Zm0,0,13.564,23.494h27.128l-40.692-23.494Zm-29.709-462.146h12.864l-19.3,11.14,6.432-11.14m-1.926-3.336L-202.37,173l40.8-23.59Zm-4.543,32.618,19.218,11.1h-12.812l-6.406-11.1m-9.077-9.076h0Zm0,0,13.564,23.494h27.128l-40.692-23.494Zm44.167-11.13,6.36,11.137-6.465,11.076.1-22.213m-3.363-12.413-.018,47.021L-148,172.976Zm-25.259,55.329h12.864l-19.3,11.14,6.432-11.14m-1.926-3.336-13.619,23.59,40.8-23.59Zm-4.543,32.618,19.218,11.1h-12.812l-6.406-11.1m-9.077-9.076h0Zm0,0,13.564,23.494h27.128l-40.692-23.494Zm44.167-11.13,6.36,11.137-6.465,11.076.1-22.213m-3.363-12.413-.018,47.022L-148,224.968Zm-25.259,55.329h12.864l-19.3,11.14,6.432-11.14m-1.926-3.336-13.619,23.59,40.8-23.59Zm-4.543,32.618,19.218,11.1h-12.812l-6.406-11.1m-9.077-9.076h0Zm0,0,13.564,23.494h27.128l-40.692-23.494ZM-158.2,265.8l6.36,11.137-6.465,11.076.1-22.213m-3.363-12.413-.018,47.022L-148,276.96Zm-25.259,55.329h12.864l-19.3,11.141,6.432-11.141m-1.926-3.336-13.619,23.59,40.8-23.59ZM-193.294,338l19.218,11.1h-12.812l-6.406-11.1m-9.077-9.076h0Zm0,0,13.564,23.494h27.128l-40.692-23.494ZM-158.2,317.8l6.36,11.137-6.465,11.076.1-22.213m-3.363-12.413-.018,47.022L-148,328.952Zm-25.259,55.329h12.864l-19.3,11.141,6.432-11.141m-1.926-3.336-13.619,23.59,40.8-23.59Zm-4.543,32.618,19.218,11.1h-12.812l-6.406-11.1m-9.077-9.076h0Zm0,0,13.564,23.494h27.128l-40.692-23.494Zm44.167-11.13,6.36,11.137L-158.308,392l.1-22.213m-3.363-12.413-.018,47.022L-148,380.944ZM-186.825,412.7h12.864l-19.3,11.141,6.432-11.141m-1.926-3.336-13.619,23.59,40.8-23.59Zm-4.543,32.618,19.218,11.1h-12.812l-6.406-11.1m-9.077-9.076h0Zm0,0,13.564,23.494h27.128l-40.692-23.494Zm44.167-11.13,6.36,11.137-6.465,11.077.1-22.214m-3.363-12.413-.018,47.022L-148,432.936ZM-186.825,464.7h12.864l-19.3,11.141,6.432-11.141m-1.926-3.336-13.619,23.59,40.8-23.59Zm-4.543,32.618,19.218,11.1h-12.812l-6.406-11.1m-9.077-9.076h0Zm0,0,13.564,23.494h27.128L-202.37,484.9Zm44.167-11.13,6.36,11.137-6.465,11.077.1-22.214m-3.363-12.413-.018,47.022L-148,484.928Zm-25.259,55.329h12.864l-19.3,11.141,6.432-11.141m-1.926-3.336-13.619,23.59,40.8-23.59Zm-4.543,32.618,19.218,11.1h-12.812l-6.406-11.1m-9.077-9.076h0Zm0,0,13.564,23.494h27.128L-202.37,536.9Zm44.167-11.13,6.36,11.137-6.465,11.077.1-22.214m-3.363-12.413-.018,47.022L-148,536.92Zm-25.259,55.329h12.864l-19.3,11.141,6.432-11.141m-1.926-3.336-13.619,23.59,40.8-23.59Zm-4.543,32.618,19.218,11.1h-12.812l-6.406-11.1m-9.077-9.076h0Zm0,0,13.564,23.494h27.128l-40.692-23.494Zm44.167-11.13,6.36,11.137-6.465,11.077.1-22.214m-3.363-12.413-.018,47.022L-148,588.912Zm-25.259,55.329h12.864l-19.3,11.141,6.432-11.141m-1.926-3.336-13.619,23.59,40.8-23.59Zm-4.543,32.618,19.218,11.1h-12.812l-6.406-11.1m-9.077-9.076h0Zm0,0,13.564,23.494h27.128l-40.692-23.494Zm44.167-11.13,6.36,11.137-6.465,11.077.1-22.214m-3.363-12.413-.018,47.022L-148,640.9ZM-57.495,727.951l19.218,11.1H-51.089l-6.406-11.1m-9.077-9.076h0Zm0,0,13.564,23.494h27.128l-40.692-23.494Zm15.545,31.786h12.864l-19.3,11.141,6.432-11.141m-1.926-3.336-13.619,23.59,40.8-23.59Zm-4.543,32.618,19.218,11.1H-51.089l-6.406-11.1m-9.077-9.076h0Zm0,0,13.564,23.494h27.128l-40.692-23.494Zm44.167-11.13,6.36,11.137-6.465,11.076.105-22.213m-3.363-12.413-.018,47.022L-12.2,770.892Zm-86.059-54.453h0Zm15.546,31.786h12.864l-19.3,11.141,6.432-11.141m-1.926-3.335-13.619,23.589,40.8-23.589Zm-4.543,32.618,19.218,11.095H-96.343l-6.406-11.095m-9.077-9.077h0Zm0,0,13.564,23.494h27.128l-40.692-23.494Zm44.167-11.13,6.36,11.137-6.465,11.077.105-22.214m-3.363-12.413-.018,47.022,13.581-23.454ZM-96.28,776.649h12.864l-19.3,11.141,6.432-11.141m-1.926-3.335L-111.825,796.9l40.8-23.589Zm-13.62,23.541h0Zm0,51.992h0Zm0,51.993h0Zm-29.745-254.163h12.864l-19.3,11.14,6.432-11.14m-1.926-3.336-13.619,23.59,40.8-23.59Zm-4.543,32.618,19.218,11.1h-12.812l-6.406-11.1m-9.077-9.076h0Zm0,0,13.564,23.494h27.128l-40.692-23.494Zm44.167-11.13,6.36,11.137-6.465,11.076.105-22.213m-3.363-12.413-.018,47.022,13.581-23.454Zm-25.259,55.329h12.864L-148,709.81l6.432-11.141m-1.926-3.336-13.619,23.59,40.8-23.59Zm-4.543,32.618,19.218,11.1h-12.812l-6.406-11.1m-9.077-9.076h0Zm0,0,13.564,23.494h27.128l-40.692-23.494Zm44.167-11.13,6.36,11.137-6.465,11.076.105-22.213m-3.363-12.413-.018,47.022,13.581-23.454Zm-25.259,55.329h12.864L-148,761.8l6.432-11.141m-1.926-3.336-13.619,23.59,40.8-23.59Zm-4.543,32.618,19.218,11.1h-12.812l-6.406-11.1m-9.077-9.076h0Zm0,0,13.564,23.494h27.128l-40.692-23.494Zm44.167-11.13,6.36,11.137-6.465,11.076.105-22.213m-3.363-12.413-.018,47.022,13.581-23.454Zm-25.259,55.329h12.864L-148,813.794l6.432-11.141m-1.926-3.336-13.619,23.59,40.8-23.59Zm-4.543,32.618,19.218,11.1h-12.812l-6.406-11.1m-9.077-9.076h0Zm0,0,13.564,23.494h27.128l-40.692-23.494Zm44.167-11.13,6.36,11.137-6.465,11.077.105-22.214m-3.363-12.413-.018,47.022,13.581-23.454Zm-25.259,55.329h12.864L-148,865.786l6.432-11.141m-1.926-3.336-13.619,23.59,40.8-23.59Zm-4.543,32.618,19.218,11.1h-12.812l-6.406-11.1m-9.077-9.076h0Zm0,0,13.564,23.494h27.128l-40.692-23.494Zm44.167-11.13,6.36,11.137-6.465,11.077.105-22.214m-3.363-12.413-.018,47.022,13.581-23.454Zm-25.259,55.329h12.864L-148,917.778l6.432-11.141M-143.5,903.3l-13.619,23.59,40.8-23.59Zm-13.62,23.542h0Zm-29.708-254.178h12.864l-19.3,11.141,6.432-11.141m-1.926-3.335-13.619,23.589,40.8-23.589Zm-4.543,32.618,19.218,11.1h-12.812l-6.406-11.1m-9.077-9.077h0Zm0,0,13.564,23.494h27.128l-40.692-23.494Zm44.167-11.13,6.36,11.137-6.465,11.077.1-22.214m-3.363-12.413-.018,47.022L-148,692.9Zm-25.259,55.329h12.864l-19.3,11.141,6.432-11.141m-1.926-3.335-13.619,23.589,40.8-23.589Zm-4.543,32.618,19.218,11.095h-12.812l-6.406-11.095m-9.077-9.077h0Zm0,0,13.564,23.494h27.128l-40.692-23.494Zm44.167-11.13,6.36,11.137-6.465,11.077.1-22.214m-3.363-12.413-.018,47.022L-148,744.888Zm-25.259,55.329h12.864l-19.3,11.141,6.432-11.141m-1.926-3.335L-202.37,796.9l40.8-23.589Zm-4.543,32.618,19.218,11.095h-12.812l-6.406-11.095m-9.077-9.077h0Zm0,0,13.564,23.494h27.128l-40.692-23.494Zm44.167-11.13,6.36,11.137-6.465,11.077.1-22.214m-3.363-12.413-.018,47.022L-148,796.88Zm-25.259,55.329h12.864l-19.3,11.141,6.432-11.141m-1.926-3.335L-202.37,848.9l40.8-23.589Zm-4.543,32.618,19.218,11.095h-12.812l-6.406-11.095m-9.077-9.077h0Zm0,0,13.564,23.494h27.128l-40.692-23.494Zm44.167-11.13,6.36,11.137-6.465,11.077.1-22.214m-3.363-12.412-.018,47.021L-148,848.873Zm-25.259,55.328h12.864l-19.3,11.141,6.432-11.141m-1.926-3.335-13.619,23.589,40.8-23.589Zm-4.543,32.618,19.218,11.095h-12.812l-6.406-11.095m-9.077-9.076h0Zm0,0,13.564,23.493h27.128L-202.37,900.84Zm44.167-11.13,6.36,11.136-6.465,11.077.1-22.213m-3.363-12.413-.018,47.021L-148,900.865Zm-71.439-750.541h12.864l-19.3,11.141,6.432-11.141m-1.926-3.336-13.62,23.59,40.8-23.59Zm-4.543,32.618,19.218,11.1h-12.812l-6.406-11.1m-9.078-9.076h0Zm0,0,13.565,23.494h27.128l-40.693-23.494Zm44.167-11.13,6.361,11.137-6.465,11.077.1-22.214m-3.362-12.413-.019,47.022,13.582-23.454Zm-25.259,55.329h12.864l-19.3,11.141,6.432-11.141m-1.926-3.336L-248.551,199l40.8-23.59Zm-4.543,32.618,19.218,11.1h-12.812l-6.406-11.1m-9.078-9.076h0Zm0,0,13.565,23.494h27.128l-40.693-23.494Zm44.167-11.13,6.361,11.137-6.465,11.077.1-22.214m-3.362-12.413-.019,47.022,13.582-23.454Zm-25.259,55.329h12.864l-19.3,11.141,6.432-11.141m-1.926-3.335-13.62,23.589,40.8-23.589Zm-4.543,32.618,19.218,11.1h-12.812l-6.406-11.1m-9.078-9.077h0Zm0,0,13.565,23.494h27.128l-40.693-23.494Zm44.167-11.13,6.361,11.137-6.465,11.077.1-22.214m-3.362-12.413-.019,47.022,13.582-23.454Zm-25.259,55.329h12.864l-19.3,11.141,6.432-11.141m-1.926-3.335-13.62,23.589,40.8-23.589Zm-4.543,32.618,19.218,11.095h-12.812l-6.406-11.095m-9.078-9.077h0Zm0,0,13.565,23.494h27.128l-40.693-23.494Zm44.167-11.13,6.361,11.137-6.465,11.077.1-22.214m-3.362-12.413-.019,47.022,13.582-23.454Zm-25.259,55.329h12.864l-19.3,11.141,6.432-11.141m-1.926-3.335-13.62,23.589,40.8-23.589Zm-4.543,32.618,19.218,11.1h-12.812l-6.406-11.1m-9.078-9.077h0Zm0,0,13.565,23.494h27.128l-40.693-23.494Zm44.167-11.13,6.361,11.137-6.465,11.077.1-22.214m-3.362-12.413-.019,47.022,13.582-23.454Zm-25.259,55.329h12.864l-19.3,11.141,6.432-11.141m-1.926-3.335-13.62,23.589,40.8-23.589ZM-239.474,416l19.218,11.1h-12.812l-6.406-11.1m-9.078-9.077h0Zm0,0,13.565,23.494h27.128l-40.693-23.494Zm44.167-11.129,6.361,11.136-6.465,11.077.1-22.213m-3.362-12.413-.019,47.021,13.582-23.453Zm-25.259,55.328h12.864l-19.3,11.141,6.432-11.141m-1.926-3.335-13.62,23.589,40.8-23.589Zm-4.543,32.618,19.218,11.1h-12.812l-6.406-11.1m-9.078-9.076h0Zm0,0,13.565,23.493h27.128l-40.693-23.493Zm44.167-11.13,6.361,11.136L-204.488,470l.1-22.213m-3.362-12.413-.019,47.021,13.582-23.453ZM-233.005,490.7h12.864l-19.3,11.14,6.432-11.14m-1.926-3.336-13.62,23.59,40.8-23.59Zm-4.543,32.618,19.218,11.1h-12.812l-6.406-11.1m-9.078-9.076h0Zm0,0,13.565,23.494h27.128l-40.693-23.494Zm44.167-11.13,6.361,11.137-6.465,11.076.1-22.213m-3.362-12.413-.019,47.021,13.582-23.453Zm-25.259,55.329h12.864l-19.3,11.14,6.432-11.14m-1.926-3.336-13.62,23.59,40.8-23.59Zm-4.543,32.618,19.218,11.1h-12.812l-6.406-11.1m-9.078-9.076h0Zm0,0,13.565,23.494h27.128L-248.551,562.9Zm44.167-11.13,6.361,11.137-6.465,11.076.1-22.213m-3.362-12.413-.019,47.021,13.582-23.453Zm-25.259,55.329h12.864l-19.3,11.14,6.432-11.14m-1.926-3.336-13.62,23.59,40.8-23.59Zm-4.543,32.618,19.218,11.1h-12.812l-6.406-11.1m-9.078-9.076h0Zm0,0,13.565,23.494h27.128l-40.693-23.494Zm44.167-11.13,6.361,11.137-6.465,11.076.1-22.213m-3.362-12.413-.019,47.022,13.582-23.454Zm-70.513-438.6h12.864l-19.3,11.14,6.432-11.14m-1.926-3.336L-293.8,173l40.8-23.59Zm-4.543,32.618,19.218,11.1h-12.812l-6.406-11.1m-9.078-9.076h0Zm0,0,13.565,23.494h27.128L-293.8,172.951Zm44.167-11.13,6.361,11.137-6.465,11.076.1-22.213M-253,149.408l-.019,47.021,13.582-23.453Zm-25.259,55.329h12.864l-19.3,11.14,6.432-11.14m-1.926-3.336-13.62,23.59L-253,201.4Zm-4.543,32.618,19.218,11.1h-12.812l-6.406-11.1m-9.078-9.076h0Zm0,0,13.565,23.494h27.128L-293.8,224.943Zm44.167-11.13,6.361,11.137-6.465,11.076.1-22.213M-253,201.4l-.019,47.022,13.582-23.454Zm-25.259,55.329h12.864l-19.3,11.14,6.432-11.14m-1.926-3.336-13.62,23.59,40.8-23.59Zm-4.543,32.618,19.218,11.1h-12.812l-6.406-11.1m-9.078-9.076h0Zm0,0,13.565,23.494h27.128L-293.8,276.935Zm44.167-11.13,6.361,11.137-6.465,11.076.1-22.213M-253,253.392l-.019,47.022,13.582-23.454Zm-25.259,55.329h12.864l-19.3,11.141,6.432-11.141m-1.926-3.336-13.62,23.59,40.8-23.59ZM-284.728,338l19.218,11.1h-12.812l-6.406-11.1m-9.078-9.076h0Zm0,0,13.565,23.494h27.128L-293.8,328.927Zm44.167-11.13,6.361,11.137-6.465,11.076.1-22.213M-253,305.384l-.019,47.022,13.582-23.454Zm-25.259,55.329h12.864l-19.3,11.141,6.432-11.141m-1.926-3.336-13.62,23.59,40.8-23.59Zm-4.543,32.618,19.218,11.1h-12.812l-6.406-11.1m-9.078-9.076h0Zm0,0,13.565,23.494h27.128L-293.8,380.919Zm44.167-11.13,6.361,11.137L-249.742,392l.1-22.213M-253,357.376l-.019,47.022,13.582-23.454ZM-278.259,412.7h12.864l-19.3,11.141,6.432-11.141m-1.926-3.336-13.62,23.59,40.8-23.59Zm-4.543,32.618,19.218,11.1h-12.812l-6.406-11.1m-9.078-9.076h0Zm0,0L-280.24,456.4h27.128L-293.8,432.911Zm44.167-11.13,6.361,11.137-6.465,11.077.1-22.214M-253,409.368l-.019,47.022,13.582-23.454ZM-278.259,464.7h12.864l-19.3,11.141,6.432-11.141m-1.926-3.336-13.62,23.59,40.8-23.59Zm-4.543,32.618,19.218,11.1h-12.812l-6.406-11.1m-9.078-9.076h0Zm0,0L-280.24,508.4h27.128L-293.8,484.9Zm44.167-11.13,6.361,11.137-6.465,11.077.1-22.214M-253,461.36l-.019,47.022,13.582-23.454Zm-25.259,55.329h12.864l-19.3,11.141,6.432-11.141m-1.926-3.336-13.62,23.59,40.8-23.59Zm-4.543,32.618,19.218,11.1h-12.812l-6.406-11.1m-9.078-9.076h0Zm0,0,13.565,23.494h27.128L-293.8,536.9Zm44.167-11.13,6.361,11.137-6.465,11.077.1-22.214M-253,513.352l-.019,47.022,13.582-23.454Zm-25.259,55.329h12.864l-19.3,11.141,6.432-11.141m-1.926-3.336-13.62,23.59,40.8-23.59Zm-4.543,32.618,19.218,11.1h-12.812l-6.406-11.1m-9.078-9.076h0Zm0,0,13.565,23.494h27.128L-293.8,588.887Zm44.167-11.13,6.361,11.137-6.465,11.077.1-22.214M-253,565.344l-.019,47.022,13.582-23.454Zm-25.259,55.329h12.864l-19.3,11.141,6.432-11.141m-1.926-3.336-13.62,23.59,40.8-23.59Zm-4.543,32.618,19.218,11.1h-12.812l-6.406-11.1m-9.078-9.076h0Zm0,0,13.565,23.494h27.128L-293.8,640.879Zm44.167-11.13,6.361,11.137-6.465,11.077.1-22.214M-253,617.336l-.019,47.022,13.582-23.454Zm-70.55-490.58h12.864l-19.3,11.141,6.432-11.141m-1.926-3.336-13.62,23.59,40.8-23.59Zm-4.543,32.618,19.218,11.1h-12.812l-6.406-11.1m-9.078-9.076h0Zm0,0,13.565,23.494H-298.4L-339.1,146.962Zm44.167-11.13,6.361,11.137-6.465,11.077.1-22.214m-3.363-12.413-.018,47.022,13.582-23.454Zm-25.258,55.329h12.864l-19.3,11.141,6.432-11.141m-1.926-3.336L-339.1,199l40.8-23.59Zm-4.543,32.618,19.218,11.1h-12.812l-6.406-11.1m-9.078-9.076h0Zm0,0,13.565,23.494H-298.4L-339.1,198.954Zm44.167-11.13,6.361,11.137-6.465,11.077.1-22.214m-3.363-12.413-.018,47.022,13.582-23.454ZM-323.55,230.74h12.864l-19.3,11.141,6.432-11.141m-1.926-3.335-13.62,23.589,40.8-23.589Zm-4.543,32.618,19.218,11.1h-12.812l-6.406-11.1m-9.078-9.077h0Zm0,0,13.565,23.494H-298.4L-339.1,250.946Zm44.167-11.13,6.361,11.137-6.465,11.077.1-22.214m-3.363-12.413-.018,47.022,13.582-23.454Zm-25.258,55.329h12.864l-19.3,11.141,6.432-11.141m-1.926-3.335-13.62,23.589,40.8-23.589Zm-4.543,32.618L-310.8,323.11h-12.812l-6.406-11.095m-9.078-9.077h0Zm0,0,13.565,23.494H-298.4L-339.1,302.938Zm44.167-11.13,6.361,11.137-6.465,11.077.1-22.214m-3.363-12.413-.018,47.022,13.582-23.454Zm-25.258,55.329h12.864l-19.3,11.141,6.432-11.141m-1.926-3.335-13.62,23.589,40.8-23.589Zm-4.543,32.618,19.218,11.1h-12.812l-6.406-11.1m-9.078-9.077h0Zm0,0,13.565,23.494H-298.4L-339.1,354.93Zm44.167-11.13,6.361,11.137-6.465,11.077.1-22.214m-3.363-12.413-.018,47.022,13.582-23.454Zm-25.258,55.329h12.864l-19.3,11.141,6.432-11.141m-1.926-3.335L-339.1,406.97l40.8-23.589ZM-330.019,416l19.218,11.1h-12.812l-6.406-11.1m-9.078-9.077h0Zm0,0,13.565,23.494H-298.4L-339.1,406.922Zm44.167-11.129,6.361,11.136-6.465,11.077.1-22.213m-3.363-12.413-.018,47.021,13.582-23.453Zm-25.258,55.328h12.864l-19.3,11.141,6.432-11.141m-1.926-3.335-13.62,23.589,40.8-23.589Zm-4.543,32.618,19.218,11.1h-12.812l-6.406-11.1m-9.078-9.076h0Zm0,0,13.565,23.493H-298.4L-339.1,458.915Zm44.167-11.13,6.361,11.136L-295.033,470l.1-22.213m-3.363-12.413-.018,47.021,13.582-23.453ZM-323.55,490.7h12.864l-19.3,11.14,6.432-11.14m-1.926-3.336-13.62,23.59,40.8-23.59Zm-4.543,32.618,19.218,11.1h-12.812l-6.406-11.1m-9.078-9.076h0Zm0,0,13.565,23.494H-298.4L-339.1,510.907Zm44.167-11.13,6.361,11.137-6.465,11.076.1-22.213m-3.363-12.413-.018,47.021,13.582-23.453Zm-25.258,55.329h12.864l-19.3,11.14,6.432-11.14m-1.926-3.336-13.62,23.59,40.8-23.59Zm-4.543,32.618,19.218,11.1h-12.812l-6.406-11.1M-339.1,562.9h0Zm0,0,13.565,23.494H-298.4L-339.1,562.9Zm44.167-11.13,6.361,11.137-6.465,11.076.1-22.213m-3.363-12.413-.018,47.021,13.582-23.453Zm-25.258,55.329h12.864l-19.3,11.14,6.432-11.14m-1.926-3.336-13.62,23.59,40.8-23.59Zm-4.543,32.618,19.218,11.1h-12.812l-6.406-11.1m-9.078-9.076h0Zm0,0,13.565,23.494H-298.4L-339.1,614.891Zm44.167-11.13,6.361,11.137-6.465,11.076.1-22.213m-3.363-12.413-.018,47.022,13.582-23.454Zm-70.512-438.6h12.864l-19.3,11.14,6.432-11.14m-1.926-3.336L-384.35,173l40.8-23.59Zm-4.543,32.618,19.218,11.1h-12.812l-6.406-11.1m-9.078-9.076h0Zm0,0,13.565,23.494h27.128l-40.693-23.494Zm44.167-11.13,6.361,11.137-6.465,11.076.1-22.213m-3.363-12.413-.018,47.021,13.582-23.453ZM-368.8,204.737h12.864l-19.3,11.14,6.432-11.14m-1.926-3.336-13.62,23.59,40.8-23.59Zm-4.543,32.618,19.218,11.1h-12.812l-6.406-11.1m-9.078-9.076h0Zm0,0,13.565,23.494h27.128l-40.693-23.494Zm44.167-11.13,6.361,11.137-6.465,11.076.1-22.213m-3.363-12.413-.018,47.022,13.582-23.454ZM-368.8,256.729h12.864l-19.3,11.14,6.432-11.14m-1.926-3.336-13.62,23.59,40.8-23.59Zm-4.543,32.618,19.218,11.1h-12.812l-6.406-11.1m-9.078-9.076h0Zm0,0,13.565,23.494h27.128l-40.693-23.494Zm44.167-11.13,6.361,11.137-6.465,11.076.1-22.213m-3.363-12.413-.018,47.022,13.582-23.454ZM-368.8,308.721h12.864l-19.3,11.141,6.432-11.141m-1.926-3.336-13.62,23.59,40.8-23.59ZM-375.273,338l19.218,11.1h-12.812l-6.406-11.1m-9.078-9.076h0Zm0,0,13.565,23.494h27.128l-40.693-23.494Zm44.167-11.13,6.361,11.137-6.465,11.076.1-22.213m-3.363-12.413-.018,47.022,13.582-23.454ZM-368.8,360.713h12.864l-19.3,11.141,6.432-11.141m-1.926-3.336-13.62,23.59,40.8-23.59Zm-4.543,32.618,19.218,11.1h-12.812l-6.406-11.1m-9.078-9.076h0Zm0,0,13.565,23.494h27.128l-40.693-23.494Zm44.167-11.13,6.361,11.137L-340.287,392l.1-22.213m-3.363-12.413-.018,47.022,13.582-23.454ZM-368.8,412.7h12.864l-19.3,11.141L-368.8,412.7m-1.926-3.336-13.62,23.59,40.8-23.59Zm-4.543,32.618,19.218,11.1h-12.812l-6.406-11.1m-9.078-9.076h0Zm0,0,13.565,23.494h27.128l-40.693-23.494Zm44.167-11.13,6.361,11.137-6.465,11.077.1-22.214m-3.363-12.413-.018,47.022,13.582-23.454ZM-368.8,464.7h12.864l-19.3,11.141L-368.8,464.7m-1.926-3.336-13.62,23.59,40.8-23.59Zm-4.543,32.618,19.218,11.1h-12.812l-6.406-11.1m-9.078-9.076h0Zm0,0,13.565,23.494h27.128L-384.35,484.9Zm44.167-11.13,6.361,11.137-6.465,11.077.1-22.214m-3.363-12.413-.018,47.022,13.582-23.454ZM-368.8,516.689h12.864l-19.3,11.141,6.432-11.141m-1.926-3.336-13.62,23.59,40.8-23.59Zm-4.543,32.618,19.218,11.1h-12.812l-6.406-11.1m-9.078-9.076h0Zm0,0,13.565,23.494h27.128L-384.35,536.9Zm44.167-11.13,6.361,11.137-6.465,11.077.1-22.214m-3.363-12.413-.018,47.022,13.582-23.454ZM-368.8,568.681h12.864l-19.3,11.141,6.432-11.141m-1.926-3.336-13.62,23.59,40.8-23.59Zm-4.543,32.618,19.218,11.1h-12.812l-6.406-11.1m-9.078-9.076h0Zm0,0,13.565,23.494h27.128l-40.693-23.494Zm44.167-11.13,6.361,11.137-6.465,11.077.1-22.214m-3.363-12.413-.018,47.022,13.582-23.454ZM-368.8,620.673h12.864l-19.3,11.141,6.432-11.141m-1.926-3.336-13.62,23.59,40.8-23.59Zm-4.543,32.618,19.218,11.1h-12.812l-6.406-11.1m-9.078-9.076h0Zm0,0,13.565,23.494h27.128l-40.693-23.494Zm44.167-11.13,6.361,11.137-6.465,11.077.1-22.214m-3.363-12.413-.018,47.022,13.582-23.454Zm110.541,29.341h12.864l-19.3,11.14,6.432-11.14m-1.926-3.336-13.62,23.59,40.8-23.59Zm-4.543,32.618,19.218,11.1h-12.812l-6.406-11.1m-9.078-9.076h0Zm0,0,13.565,23.494h27.128l-40.693-23.494Zm44.167-11.13,6.361,11.137-6.465,11.076.1-22.213m-3.362-12.413-.019,47.022,13.582-23.454Zm-25.259,55.329h12.864l-19.3,11.141,6.432-11.141m-1.926-3.336-13.62,23.59,40.8-23.59Zm-4.543,32.618,19.218,11.1h-12.812l-6.406-11.1m-9.078-9.076h0Zm0,0,13.565,23.494h27.128l-40.693-23.494Zm44.167-11.13,6.361,11.137-6.465,11.076.1-22.213m-3.362-12.413-.019,47.022,13.582-23.454Zm-25.259,55.329h12.864l-19.3,11.141,6.432-11.141m-1.926-3.336-13.62,23.59,40.8-23.59Zm-4.543,32.618,19.218,11.1h-12.812l-6.406-11.1m-9.078-9.076h0Zm0,0,13.565,23.494h27.128l-40.693-23.494Zm44.167-11.13,6.361,11.137-6.465,11.076.1-22.213m-3.362-12.413-.019,47.022,13.582-23.454Zm-25.259,55.329h12.864l-19.3,11.141,6.432-11.141m-1.926-3.336-13.62,23.59,40.8-23.59Zm-4.543,32.618,19.218,11.1h-12.812l-6.406-11.1m-9.078-9.076h0Zm0,0,13.565,23.494h27.128l-40.693-23.494Zm44.167-11.13,6.361,11.137-6.465,11.077.1-22.214m-3.362-12.413-.019,47.022,13.582-23.454Zm-25.259,55.329h12.864l-19.3,11.141,6.432-11.141m-1.926-3.336-13.62,23.59,40.8-23.59Zm-4.543,32.618,19.218,11.1h-12.812l-6.406-11.1m-9.078-9.076h0Zm0,0,13.565,23.494h27.128l-40.693-23.494Zm44.167-11.13,6.361,11.137-6.465,11.077.1-22.214m-3.362-12.413-.019,47.022,13.582-23.454Zm-25.259,55.329h12.864l-19.3,11.141,6.432-11.141m-1.926-3.336-13.62,23.59,40.8-23.59Zm-13.621,23.542h0Zm-29.707-254.178h12.864l-19.3,11.141,6.432-11.141m-1.926-3.335-13.62,23.589L-253,669.33Zm-4.543,32.618,19.218,11.1h-12.812l-6.406-11.1m-9.078-9.077h0Zm0,0,13.565,23.494h27.128L-293.8,692.871Zm44.167-11.13,6.361,11.137-6.465,11.077.1-22.214M-253,669.328l-.019,47.022,13.582-23.454Zm-25.259,55.329h12.864l-19.3,11.141,6.432-11.141m-1.926-3.335-13.62,23.589,40.8-23.589Zm-4.543,32.618,19.218,11.095h-12.812l-6.406-11.095m-9.078-9.077h0Zm0,0,13.565,23.494h27.128L-293.8,744.863Zm44.167-11.13,6.361,11.137-6.465,11.077.1-22.214M-253,721.32l-.019,47.022,13.582-23.454Zm-25.259,55.329h12.864l-19.3,11.141,6.432-11.141m-1.926-3.335L-293.8,796.9l40.8-23.589Zm-4.543,32.618,19.218,11.095h-12.812l-6.406-11.095m-9.078-9.077h0Zm0,0,13.565,23.494h27.128L-293.8,796.855Zm44.167-11.13,6.361,11.137-6.465,11.077.1-22.214M-253,773.312l-.019,47.022,13.582-23.454Zm-25.259,55.329h12.864l-19.3,11.141,6.432-11.141m-1.926-3.335L-293.8,848.9l40.8-23.589Zm-4.543,32.618,19.218,11.095h-12.812l-6.406-11.095m-9.078-9.077h0Zm0,0,13.565,23.494h27.128L-293.8,848.847Zm44.167-11.13,6.361,11.137-6.465,11.077.1-22.214M-253,825.3l-.019,47.021,13.582-23.453Zm-25.259,55.328h12.864l-19.3,11.141,6.432-11.141m-1.926-3.335-13.62,23.589L-253,877.3Zm-4.543,32.618,19.218,11.095h-12.812l-6.406-11.095m-9.078-9.076h0Zm0,0,13.565,23.493h27.128L-293.8,900.84Zm44.167-11.13,6.361,11.136-6.465,11.077.1-22.213M-253,877.3l-.019,47.021,13.582-23.453Zm-70.55-230.62h12.864l-19.3,11.14,6.432-11.14m-1.926-3.336-13.62,23.59,40.8-23.59Zm-4.543,32.618,19.218,11.1h-12.812l-6.406-11.1m-9.078-9.076h0Zm0,0,13.565,23.494H-298.4L-339.1,666.883Zm44.167-11.13,6.361,11.137-6.465,11.076.1-22.213m-3.363-12.413-.018,47.022,13.582-23.454Zm-25.258,55.329h12.864l-19.3,11.141,6.432-11.141m-1.926-3.336-13.62,23.59,40.8-23.59Zm-4.543,32.618,19.218,11.1h-12.812l-6.406-11.1m-9.078-9.076h0Zm0,0,13.565,23.494H-298.4L-339.1,718.875Zm44.167-11.13,6.361,11.137-6.465,11.076.1-22.213m-3.363-12.413-.018,47.022,13.582-23.454Zm-25.258,55.329h12.864l-19.3,11.141,6.432-11.141m-1.926-3.336-13.62,23.59,40.8-23.59Zm-4.543,32.618,19.218,11.1h-12.812l-6.406-11.1m-9.078-9.076h0Zm0,0,13.565,23.494H-298.4L-339.1,770.867Zm44.167-11.13,6.361,11.137-6.465,11.076.1-22.213m-3.363-12.413-.018,47.022,13.582-23.454Zm-25.258,55.329h12.864l-19.3,11.141,6.432-11.141m-1.926-3.336-13.62,23.59,40.8-23.59Zm-4.543,32.618,19.218,11.1h-12.812l-6.406-11.1m-9.078-9.076h0Zm0,0,13.565,23.494H-298.4L-339.1,822.859Zm44.167-11.13,6.361,11.137-6.465,11.077.1-22.214m-3.363-12.413-.018,47.022,13.582-23.454Zm-25.258,55.329h12.864l-19.3,11.141,6.432-11.141m-1.926-3.336L-339.1,874.9l40.8-23.59Zm-4.543,32.618,19.218,11.1h-12.812l-6.406-11.1m-9.078-9.076h0Zm0,0,13.565,23.494H-298.4L-339.1,874.851Zm44.167-11.13,6.361,11.137-6.465,11.077.1-22.214m-3.363-12.413-.018,47.022,13.582-23.454Zm-25.258,55.329h12.864l-19.3,11.141,6.432-11.141m-1.926-3.336-13.62,23.59,40.8-23.59ZM-339.1,926.843h0ZM-368.8,672.665h12.864l-19.3,11.141,6.432-11.141m-1.926-3.335-13.62,23.589,40.8-23.589Zm-4.543,32.618,19.218,11.1h-12.812l-6.406-11.1m-9.078-9.077h0Zm0,0,13.565,23.494h27.128l-40.693-23.494Zm44.167-11.13,6.361,11.137-6.465,11.077.1-22.214m-3.363-12.413-.018,47.022,13.582-23.454ZM-368.8,724.657h12.864l-19.3,11.141,6.432-11.141m-1.926-3.335-13.62,23.589,40.8-23.589Zm-4.543,32.618,19.218,11.095h-12.812l-6.406-11.095m-9.078-9.077h0Zm0,0,13.565,23.494h27.128l-40.693-23.494Zm44.167-11.13,6.361,11.137-6.465,11.077.1-22.214m-3.363-12.413-.018,47.022,13.582-23.454ZM-368.8,776.649h12.864l-19.3,11.141,6.432-11.141m-1.926-3.335L-384.35,796.9l40.8-23.589Zm-4.543,32.618,19.218,11.095h-12.812l-6.406-11.095m-9.078-9.077h0Zm0,0,13.565,23.494h27.128l-40.693-23.494Zm44.167-11.13,6.361,11.137-6.465,11.077.1-22.214m-3.363-12.413-.018,47.022,13.582-23.454ZM-368.8,828.641h12.864l-19.3,11.141,6.432-11.141m-1.926-3.335L-384.35,848.9l40.8-23.589Zm-4.543,32.618,19.218,11.095h-12.812l-6.406-11.095m-9.078-9.077h0Zm0,0,13.565,23.494h27.128l-40.693-23.494Zm44.167-11.13,6.361,11.137-6.465,11.077.1-22.214m-3.363-12.412-.018,47.021,13.582-23.453ZM-368.8,880.633h12.864l-19.3,11.141,6.432-11.141m-1.926-3.335-13.62,23.589,40.8-23.589Zm-4.543,32.618,19.218,11.095h-12.812l-6.406-11.095m-9.078-9.076h0Zm0,0,13.565,23.493h27.128L-384.35,900.84Zm44.167-11.13,6.361,11.136-6.465,11.077.1-22.213m-3.363-12.413-.018,47.021,13.582-23.453Z" transform="translate(359.529 2303.964)" fill="url(#linear-gradient)"/>
    </g>
  </g>
</svg>
