<svg id="Сгруппировать_1" data-name="Сгруппировать 1" xmlns="http://www.w3.org/2000/svg" width="153.2" height="59.157" viewBox="0 0 153.2 59.157">
  <path id="Контур_1" data-name="Контур 1" d="M23.307,39.44H35.344v4.733c2.218-2.878,5.385-5.5,10.2-5.5,4.561,0,8.046,2.047,9.883,5.629,2.977-3.454,6.463-5.629,11.468-5.629,7.285,0,11.719,4.606,11.719,12.665V74.045H66.577V55.239c0-3.774-1.837-5.757-4.687-5.757s-4.943,1.983-4.943,5.757V74.045H44.91V55.239c0-3.774-1.837-5.757-4.688-5.757s-4.878,1.983-4.878,5.757V74.045H23.307Z" transform="translate(-23.307 -25.25)" fill="#91c84a"/>
  <path id="Контур_2" data-name="Контур 2" d="M82.611,30.25l12.544-5V32.4l-12.544,5Zm.253,9.19H94.9v34.6H82.864Z" transform="translate(-23.307 -25.25)" fill="#91c84a"/>
  <path id="Контур_3" data-name="Контур 3" d="M99.083,80.441l3.865-8.059a23.489,23.489,0,0,0,11.974,3.262c6.018,0,9-3.007,9-8.508V65.793c-2.407,2.815-5.575,5.181-10.58,5.181-8.426,0-15.2-6.14-15.2-16.055v-.128c0-9.978,6.9-16.119,14.825-16.119a13.715,13.715,0,0,1,10.771,4.861V39.44h12.037V65.729c0,6.333-1.394,10.746-4.435,13.817-3.1,3.134-7.92,4.861-15.079,4.861A36.425,36.425,0,0,1,99.083,80.441Zm24.835-25.522v-.128c0-3.838-2.914-6.652-6.969-6.652a6.66,6.66,0,0,0-7.032,6.716v.128c0,3.838,2.914,6.652,7.032,6.652A6.643,6.643,0,0,0,123.918,54.919Z" transform="translate(-23.307 -25.25)" fill="#91c84a"/>
  <path id="Контур_4" data-name="Контур 4" d="M138.62,56.9v-.128c0-9.85,7.984-18.1,19.007-18.1,10.96,0,18.88,8.124,18.88,17.974v.128c0,9.851-7.984,18.1-19.007,18.1C146.54,74.876,138.62,66.753,138.62,56.9Zm26.166,0v-.128c0-4.222-3.041-7.8-7.286-7.8-4.371,0-7.159,3.519-7.159,7.676v.128c0,4.222,3.041,7.8,7.286,7.8C162,64.578,164.786,61.06,164.786,56.9Z" transform="translate(-23.307 -25.25)" fill="#91c84a"/>
</svg>
