<?xml version="1.0" standalone="no"?>
<!DOCTYPE svg PUBLIC "-//W3C//DTD SVG 20010904//EN"
 "http://www.w3.org/TR/2001/REC-SVG-20010904/DTD/svg10.dtd">
<svg version="1.0" xmlns="http://www.w3.org/2000/svg"
 width="471.000000pt" height="544.000000pt" viewBox="0 0 471.000000 544.000000"
 preserveAspectRatio="xMidYMid meet">

<g transform="translate(0.000000,544.000000) scale(0.100000,-0.100000)"
fill="#000000" stroke="none">
<path d="M2075 5423 c-450 -36 -794 -113 -1114 -248 -214 -90 -375 -198 -509
-340 -231 -244 -361 -562 -419 -1030 -23 -178 -26 -942 -5 -1120 59 -510 186
-824 434 -1081 107 -111 226 -198 370 -270 l107 -54 3 -557 3 -558 24 -58 c26
-65 64 -97 117 -97 44 0 157 59 234 123 36 29 244 240 462 469 l397 415 278 6
c519 10 924 91 1313 262 329 145 527 336 685 660 160 327 235 672 251 1155 29
872 -209 1574 -646 1901 -276 207 -820 372 -1375 419 -109 9 -513 11 -610 3z
m582 -374 c384 -31 731 -116 997 -243 240 -114 359 -234 477 -480 177 -371
245 -937 183 -1506 -58 -525 -237 -917 -498 -1091 -165 -110 -456 -217 -747
-274 -263 -51 -362 -59 -714 -60 l-330 0 -355 -373 -355 -372 -3 444 -2 444
-53 18 c-92 30 -257 104 -325 145 -264 160 -432 422 -501 780 -41 216 -46 298
-46 754 0 365 3 461 18 565 43 305 126 536 251 698 56 74 166 177 239 225 236
156 704 289 1149 326 151 12 468 13 615 0z"/>
<path d="M2243 4419 c-22 -22 -15 -73 12 -99 20 -18 41 -24 117 -31 230 -21
416 -91 586 -219 238 -179 370 -426 392 -732 10 -133 25 -182 58 -193 60 -18
87 53 79 208 -30 578 -513 1040 -1122 1073 -84 5 -113 3 -122 -7z"/>
<path d="M1439 4391 c-101 -31 -359 -251 -395 -337 -17 -41 -18 -102 -2 -180
14 -69 181 -411 283 -579 287 -472 665 -856 1100 -1115 130 -78 471 -248 548
-274 140 -47 266 13 413 199 144 181 169 246 121 328 -53 90 -305 296 -467
381 -178 93 -222 85 -341 -63 -119 -149 -166 -159 -335 -71 -270 140 -440 302
-550 525 -44 89 -54 119 -54 160 0 63 7 73 141 210 124 127 133 148 103 241
-22 72 -105 204 -211 336 -178 223 -248 270 -354 239z"/>
<path d="M2345 4097 c-15 -23 -15 -28 0 -56 16 -32 60 -61 93 -61 46 0 195
-45 272 -83 197 -96 329 -297 349 -533 7 -85 11 -98 36 -124 35 -37 69 -39 91
-5 28 42 15 205 -25 325 -46 135 -99 220 -205 325 -73 72 -108 99 -176 133
-105 52 -240 91 -341 99 -74 6 -77 5 -94 -20z"/>
<path d="M2450 3833 c-65 -25 -20 -120 67 -143 130 -35 212 -124 258 -283 24
-83 76 -123 124 -98 30 17 34 46 16 136 -36 192 -142 312 -328 370 -77 25
-108 29 -137 18z"/>
</g>
</svg>
