<svg width="56" height="184" viewBox="0 0 56 184" fill="none" xmlns="http://www.w3.org/2000/svg">
<path d="M4 179C118.75 107.967 4 1 4 1" stroke="#686868"/>
<path d="M2.37318 179.525C2.30171 179.792 2.46 180.066 2.72673 180.137L7.0734 181.302C7.34013 181.373 7.6143 181.215 7.68577 180.948C7.75724 180.682 7.59895 180.407 7.33222 180.336L3.46852 179.301L4.50379 175.437C4.57526 175.17 4.41697 174.896 4.15024 174.825C3.8835 174.753 3.60934 174.911 3.53787 175.178L2.37318 179.525ZM3.47217 178.721L2.60614 179.221L3.10614 180.087L3.97217 179.587L3.47217 178.721Z" fill="white"/>
</svg>
