<svg width="138" height="138" viewBox="0 0 138 138" fill="none" xmlns="http://www.w3.org/2000/svg">
<circle cx="1.5" cy="136.5" r="1.5" fill="white"/>
<circle cx="28.5" cy="136.5" r="1.5" fill="white"/>
<circle cx="55.5" cy="136.5" r="1.5" fill="white"/>
<circle cx="82.5" cy="136.5" r="1.5" fill="white"/>
<circle cx="109.5" cy="136.5" r="1.5" fill="white"/>
<circle cx="136.5" cy="136.5" r="1.5" fill="white"/>
<circle cx="1.5" cy="82.5" r="1.5" fill="white"/>
<circle cx="28.5" cy="82.5" r="1.5" fill="white"/>
<circle cx="55.5" cy="82.5" r="1.5" fill="white"/>
<circle cx="82.5" cy="82.5" r="1.5" fill="white"/>
<circle cx="109.5" cy="82.5" r="1.5" fill="white"/>
<circle cx="136.5" cy="82.5" r="1.5" fill="white"/>
<circle cx="1.5" cy="28.5" r="1.5" fill="white"/>
<circle cx="28.5" cy="28.5" r="1.5" fill="white"/>
<circle cx="55.5" cy="28.5" r="1.5" fill="white"/>
<circle cx="82.5" cy="28.5" r="1.5" fill="white"/>
<circle cx="109.5" cy="28.5" r="1.5" fill="white"/>
<circle cx="136.5" cy="28.5" r="1.5" fill="white"/>
<circle cx="1.5" cy="109.5" r="1.5" fill="white"/>
<circle cx="28.5" cy="109.5" r="1.5" fill="white"/>
<circle cx="55.5" cy="109.5" r="1.5" fill="white"/>
<circle cx="82.5" cy="109.5" r="1.5" fill="white"/>
<circle cx="109.5" cy="109.5" r="1.5" fill="white"/>
<circle cx="136.5" cy="109.5" r="1.5" fill="white"/>
<circle cx="1.5" cy="55.5" r="1.5" fill="white"/>
<circle cx="28.5" cy="55.5" r="1.5" fill="white"/>
<circle cx="55.5" cy="55.5" r="1.5" fill="white"/>
<circle cx="82.5" cy="55.5" r="1.5" fill="white"/>
<circle cx="109.5" cy="55.5" r="1.5" fill="white"/>
<circle cx="136.5" cy="55.5" r="1.5" fill="white"/>
<circle cx="1.5" cy="1.5" r="1.5" fill="white"/>
<circle cx="28.5" cy="1.5" r="1.5" fill="white"/>
<circle cx="55.5" cy="1.5" r="1.5" fill="white"/>
<circle cx="82.5" cy="1.5" r="1.5" fill="white"/>
<circle cx="109.5" cy="1.5" r="1.5" fill="white"/>
<circle cx="136.5" cy="1.5" r="1.5" fill="white"/>
</svg>
