<svg width="138" height="138" viewBox="0 0 138 138" fill="none" xmlns="http://www.w3.org/2000/svg">
<g opacity="0.2">
<circle cx="1.5" cy="136.5" r="1.5" fill="url(#paint0_linear)"/>
<circle cx="28.5" cy="136.5" r="1.5" fill="url(#paint1_linear)"/>
<circle cx="55.5" cy="136.5" r="1.5" fill="url(#paint2_linear)"/>
<circle cx="82.5" cy="136.5" r="1.5" fill="url(#paint3_linear)"/>
<circle cx="109.5" cy="136.5" r="1.5" fill="url(#paint4_linear)"/>
<circle cx="136.5" cy="136.5" r="1.5" fill="url(#paint5_linear)"/>
<circle cx="1.5" cy="82.5" r="1.5" fill="url(#paint6_linear)"/>
<circle cx="28.5" cy="82.5" r="1.5" fill="url(#paint7_linear)"/>
<circle cx="55.5" cy="82.5" r="1.5" fill="url(#paint8_linear)"/>
<circle cx="82.5" cy="82.5" r="1.5" fill="url(#paint9_linear)"/>
<circle cx="109.5" cy="82.5" r="1.5" fill="url(#paint10_linear)"/>
<circle cx="136.5" cy="82.5" r="1.5" fill="url(#paint11_linear)"/>
<circle cx="1.5" cy="28.5" r="1.5" fill="url(#paint12_linear)"/>
<circle cx="28.5" cy="28.5" r="1.5" fill="url(#paint13_linear)"/>
<circle cx="55.5" cy="28.5" r="1.5" fill="url(#paint14_linear)"/>
<circle cx="82.5" cy="28.5" r="1.5" fill="url(#paint15_linear)"/>
<circle cx="109.5" cy="28.5" r="1.5" fill="url(#paint16_linear)"/>
<circle cx="136.5" cy="28.5" r="1.5" fill="url(#paint17_linear)"/>
<circle cx="1.5" cy="109.5" r="1.5" fill="url(#paint18_linear)"/>
<circle cx="28.5" cy="109.5" r="1.5" fill="url(#paint19_linear)"/>
<circle cx="55.5" cy="109.5" r="1.5" fill="url(#paint20_linear)"/>
<circle cx="82.5" cy="109.5" r="1.5" fill="url(#paint21_linear)"/>
<circle cx="109.5" cy="109.5" r="1.5" fill="url(#paint22_linear)"/>
<circle cx="136.5" cy="109.5" r="1.5" fill="url(#paint23_linear)"/>
<circle cx="1.5" cy="55.5" r="1.5" fill="url(#paint24_linear)"/>
<circle cx="28.5" cy="55.5" r="1.5" fill="url(#paint25_linear)"/>
<circle cx="55.5" cy="55.5" r="1.5" fill="url(#paint26_linear)"/>
<circle cx="82.5" cy="55.5" r="1.5" fill="url(#paint27_linear)"/>
<circle cx="109.5" cy="55.5" r="1.5" fill="url(#paint28_linear)"/>
<circle cx="136.5" cy="55.5" r="1.5" fill="url(#paint29_linear)"/>
<circle cx="1.5" cy="1.5" r="1.5" fill="url(#paint30_linear)"/>
<circle cx="28.5" cy="1.5" r="1.5" fill="url(#paint31_linear)"/>
<circle cx="55.5" cy="1.5" r="1.5" fill="url(#paint32_linear)"/>
<circle cx="82.5" cy="1.5" r="1.5" fill="url(#paint33_linear)"/>
<circle cx="109.5" cy="1.5" r="1.5" fill="url(#paint34_linear)"/>
<circle cx="136.5" cy="1.5" r="1.5" fill="url(#paint35_linear)"/>
</g>
<defs>
<linearGradient id="paint0_linear" x1="0.0183566" y1="135.165" x2="2.9957" y2="135.187" gradientUnits="userSpaceOnUse">
<stop stop-color="#303030"/>
<stop offset="1" stop-color="#1B1C1B"/>
</linearGradient>
<linearGradient id="paint1_linear" x1="27.0184" y1="135.165" x2="29.9957" y2="135.187" gradientUnits="userSpaceOnUse">
<stop stop-color="#303030"/>
<stop offset="1" stop-color="#1B1C1B"/>
</linearGradient>
<linearGradient id="paint2_linear" x1="54.0184" y1="135.165" x2="56.9957" y2="135.187" gradientUnits="userSpaceOnUse">
<stop stop-color="#303030"/>
<stop offset="1" stop-color="#1B1C1B"/>
</linearGradient>
<linearGradient id="paint3_linear" x1="81.0184" y1="135.165" x2="83.9957" y2="135.187" gradientUnits="userSpaceOnUse">
<stop stop-color="#303030"/>
<stop offset="1" stop-color="#1B1C1B"/>
</linearGradient>
<linearGradient id="paint4_linear" x1="108.018" y1="135.165" x2="110.996" y2="135.187" gradientUnits="userSpaceOnUse">
<stop stop-color="#303030"/>
<stop offset="1" stop-color="#1B1C1B"/>
</linearGradient>
<linearGradient id="paint5_linear" x1="135.018" y1="135.165" x2="137.996" y2="135.187" gradientUnits="userSpaceOnUse">
<stop stop-color="#303030"/>
<stop offset="1" stop-color="#1B1C1B"/>
</linearGradient>
<linearGradient id="paint6_linear" x1="0.0183566" y1="81.165" x2="2.9957" y2="81.1868" gradientUnits="userSpaceOnUse">
<stop stop-color="#303030"/>
<stop offset="1" stop-color="#1B1C1B"/>
</linearGradient>
<linearGradient id="paint7_linear" x1="27.0184" y1="81.165" x2="29.9957" y2="81.1868" gradientUnits="userSpaceOnUse">
<stop stop-color="#303030"/>
<stop offset="1" stop-color="#1B1C1B"/>
</linearGradient>
<linearGradient id="paint8_linear" x1="54.0184" y1="81.165" x2="56.9957" y2="81.1868" gradientUnits="userSpaceOnUse">
<stop stop-color="#303030"/>
<stop offset="1" stop-color="#1B1C1B"/>
</linearGradient>
<linearGradient id="paint9_linear" x1="81.0184" y1="81.165" x2="83.9957" y2="81.1868" gradientUnits="userSpaceOnUse">
<stop stop-color="#303030"/>
<stop offset="1" stop-color="#1B1C1B"/>
</linearGradient>
<linearGradient id="paint10_linear" x1="108.018" y1="81.165" x2="110.996" y2="81.1868" gradientUnits="userSpaceOnUse">
<stop stop-color="#303030"/>
<stop offset="1" stop-color="#1B1C1B"/>
</linearGradient>
<linearGradient id="paint11_linear" x1="135.018" y1="81.165" x2="137.996" y2="81.1868" gradientUnits="userSpaceOnUse">
<stop stop-color="#303030"/>
<stop offset="1" stop-color="#1B1C1B"/>
</linearGradient>
<linearGradient id="paint12_linear" x1="0.0183566" y1="27.165" x2="2.9957" y2="27.1868" gradientUnits="userSpaceOnUse">
<stop stop-color="#303030"/>
<stop offset="1" stop-color="#1B1C1B"/>
</linearGradient>
<linearGradient id="paint13_linear" x1="27.0184" y1="27.165" x2="29.9957" y2="27.1868" gradientUnits="userSpaceOnUse">
<stop stop-color="#303030"/>
<stop offset="1" stop-color="#1B1C1B"/>
</linearGradient>
<linearGradient id="paint14_linear" x1="54.0184" y1="27.165" x2="56.9957" y2="27.1868" gradientUnits="userSpaceOnUse">
<stop stop-color="#303030"/>
<stop offset="1" stop-color="#1B1C1B"/>
</linearGradient>
<linearGradient id="paint15_linear" x1="81.0184" y1="27.165" x2="83.9957" y2="27.1868" gradientUnits="userSpaceOnUse">
<stop stop-color="#303030"/>
<stop offset="1" stop-color="#1B1C1B"/>
</linearGradient>
<linearGradient id="paint16_linear" x1="108.018" y1="27.165" x2="110.996" y2="27.1868" gradientUnits="userSpaceOnUse">
<stop stop-color="#303030"/>
<stop offset="1" stop-color="#1B1C1B"/>
</linearGradient>
<linearGradient id="paint17_linear" x1="135.018" y1="27.165" x2="137.996" y2="27.1868" gradientUnits="userSpaceOnUse">
<stop stop-color="#303030"/>
<stop offset="1" stop-color="#1B1C1B"/>
</linearGradient>
<linearGradient id="paint18_linear" x1="0.0183566" y1="108.165" x2="2.9957" y2="108.187" gradientUnits="userSpaceOnUse">
<stop stop-color="#303030"/>
<stop offset="1" stop-color="#1B1C1B"/>
</linearGradient>
<linearGradient id="paint19_linear" x1="27.0184" y1="108.165" x2="29.9957" y2="108.187" gradientUnits="userSpaceOnUse">
<stop stop-color="#303030"/>
<stop offset="1" stop-color="#1B1C1B"/>
</linearGradient>
<linearGradient id="paint20_linear" x1="54.0184" y1="108.165" x2="56.9957" y2="108.187" gradientUnits="userSpaceOnUse">
<stop stop-color="#303030"/>
<stop offset="1" stop-color="#1B1C1B"/>
</linearGradient>
<linearGradient id="paint21_linear" x1="81.0184" y1="108.165" x2="83.9957" y2="108.187" gradientUnits="userSpaceOnUse">
<stop stop-color="#303030"/>
<stop offset="1" stop-color="#1B1C1B"/>
</linearGradient>
<linearGradient id="paint22_linear" x1="108.018" y1="108.165" x2="110.996" y2="108.187" gradientUnits="userSpaceOnUse">
<stop stop-color="#303030"/>
<stop offset="1" stop-color="#1B1C1B"/>
</linearGradient>
<linearGradient id="paint23_linear" x1="135.018" y1="108.165" x2="137.996" y2="108.187" gradientUnits="userSpaceOnUse">
<stop stop-color="#303030"/>
<stop offset="1" stop-color="#1B1C1B"/>
</linearGradient>
<linearGradient id="paint24_linear" x1="0.0183566" y1="54.165" x2="2.9957" y2="54.1868" gradientUnits="userSpaceOnUse">
<stop stop-color="#303030"/>
<stop offset="1" stop-color="#1B1C1B"/>
</linearGradient>
<linearGradient id="paint25_linear" x1="27.0184" y1="54.165" x2="29.9957" y2="54.1868" gradientUnits="userSpaceOnUse">
<stop stop-color="#303030"/>
<stop offset="1" stop-color="#1B1C1B"/>
</linearGradient>
<linearGradient id="paint26_linear" x1="54.0184" y1="54.165" x2="56.9957" y2="54.1868" gradientUnits="userSpaceOnUse">
<stop stop-color="#303030"/>
<stop offset="1" stop-color="#1B1C1B"/>
</linearGradient>
<linearGradient id="paint27_linear" x1="81.0184" y1="54.165" x2="83.9957" y2="54.1868" gradientUnits="userSpaceOnUse">
<stop stop-color="#303030"/>
<stop offset="1" stop-color="#1B1C1B"/>
</linearGradient>
<linearGradient id="paint28_linear" x1="108.018" y1="54.165" x2="110.996" y2="54.1868" gradientUnits="userSpaceOnUse">
<stop stop-color="#303030"/>
<stop offset="1" stop-color="#1B1C1B"/>
</linearGradient>
<linearGradient id="paint29_linear" x1="135.018" y1="54.165" x2="137.996" y2="54.1868" gradientUnits="userSpaceOnUse">
<stop stop-color="#303030"/>
<stop offset="1" stop-color="#1B1C1B"/>
</linearGradient>
<linearGradient id="paint30_linear" x1="0.0183566" y1="0.165008" x2="2.9957" y2="0.186821" gradientUnits="userSpaceOnUse">
<stop stop-color="#303030"/>
<stop offset="1" stop-color="#1B1C1B"/>
</linearGradient>
<linearGradient id="paint31_linear" x1="27.0184" y1="0.165008" x2="29.9957" y2="0.186821" gradientUnits="userSpaceOnUse">
<stop stop-color="#303030"/>
<stop offset="1" stop-color="#1B1C1B"/>
</linearGradient>
<linearGradient id="paint32_linear" x1="54.0184" y1="0.165008" x2="56.9957" y2="0.186821" gradientUnits="userSpaceOnUse">
<stop stop-color="#303030"/>
<stop offset="1" stop-color="#1B1C1B"/>
</linearGradient>
<linearGradient id="paint33_linear" x1="81.0184" y1="0.165008" x2="83.9957" y2="0.186821" gradientUnits="userSpaceOnUse">
<stop stop-color="#303030"/>
<stop offset="1" stop-color="#1B1C1B"/>
</linearGradient>
<linearGradient id="paint34_linear" x1="108.018" y1="0.165008" x2="110.996" y2="0.186821" gradientUnits="userSpaceOnUse">
<stop stop-color="#303030"/>
<stop offset="1" stop-color="#1B1C1B"/>
</linearGradient>
<linearGradient id="paint35_linear" x1="135.018" y1="0.165008" x2="137.996" y2="0.186821" gradientUnits="userSpaceOnUse">
<stop stop-color="#303030"/>
<stop offset="1" stop-color="#1B1C1B"/>
</linearGradient>
</defs>
</svg>
