<svg width="48" height="48" viewBox="0 0 48 48" fill="none" xmlns="http://www.w3.org/2000/svg">
<path d="M35.9619 0H12C5.40952 0 0 5.40952 0 12.0381V36C0 42.5905 5.40952 48 12 48H35.9619C42.5905 48 48 42.5905 48 35.9619V12.0381C48 5.40952 42.5905 0 35.9619 0ZM30.4381 24H25.9048V38.8571H20.1905V24H17.1429V17.9048H19.8095V15.3143C19.8095 12.8762 21.0286 9.02857 26.1714 9.02857H30.8571V14.0952H27.5429C27.0095 14.0952 26.2857 14.4381 26.2857 15.619V17.9048H30.9714L30.4381 24Z" fill="#FFA62B"/>
</svg>
