<svg width="352" height="250" viewBox="0 0 352 250" fill="none" xmlns="http://www.w3.org/2000/svg">
<path d="M305.201 40.4148C289.601 51.8137 271.485 59.5854 252.615 62.6942C246.073 63.7304 239.531 64.2488 232.989 64.2488C216.383 64.2488 199.777 60.8806 184.68 54.1448L178.139 51.2955L171.597 54.1448C156.249 60.8806 139.894 64.2488 123.288 64.2488C115.237 64.2488 107.185 63.4716 99.1335 61.6582C80.0112 57.7722 62.1469 49.2229 46.7988 37.0468L0 0L20.1287 59.5855C36.2316 107.254 81.2692 155.441 123.539 175.13C138.636 196.114 146.184 233.679 167.823 245.596L175.623 250L183.422 245.596C204.809 233.679 213.364 196.632 228.209 175.906C270.227 157.254 314.259 110.104 331.116 63.4715L352 5.95868L305.201 40.4148ZM217.641 115.026C207.325 117.098 198.267 117.098 190.971 116.58C190.216 129.793 188.958 143.783 186.945 158.29C184.178 178.498 180.655 196.891 176.881 213.471C172.855 196.891 169.333 178.239 166.817 158.29C164.804 143.524 163.545 129.534 162.791 116.58C155.494 117.098 146.436 117.098 136.12 115.026C112.72 110.362 96.366 97.9275 88.063 90.6736C99.8886 92.7461 113.224 94.5597 127.817 95.3369C146.688 96.3732 163.546 95.3367 178.139 93.7823C191.726 95.3367 207.577 96.1141 225.441 95.3369C240.286 94.5597 253.621 93.0052 265.195 90.6736C257.395 98.1865 241.041 110.622 217.641 115.026Z" fill="white"/>
</svg>
