<svg width="48" height="48" viewBox="0 0 48 48" fill="none" xmlns="http://www.w3.org/2000/svg">
<path d="M28.2188 24C28.2188 26.3298 26.3298 28.2188 24 28.2188C21.6702 28.2188 19.7812 26.3298 19.7812 24C19.7812 21.6702 21.6702 19.7812 24 19.7812C26.3298 19.7812 28.2188 21.6702 28.2188 24Z" fill="#FFA62B"/>
<path d="M31.125 11.25H16.875C13.7732 11.25 11.25 13.7732 11.25 16.875V31.125C11.25 34.2268 13.7732 36.75 16.875 36.75H31.125C34.2268 36.75 36.75 34.2268 36.75 31.125V16.875C36.75 13.7732 34.2268 11.25 31.125 11.25ZM24 31.0312C20.1229 31.0312 16.9688 27.8771 16.9688 24C16.9688 20.1229 20.1229 16.9688 24 16.9688C27.8771 16.9688 31.0312 20.1229 31.0312 24C31.0312 27.8771 27.8771 31.0312 24 31.0312ZM32.0625 17.3438C31.2858 17.3438 30.6562 16.7142 30.6562 15.9375C30.6562 15.1608 31.2858 14.5312 32.0625 14.5312C32.8392 14.5312 33.4688 15.1608 33.4688 15.9375C33.4688 16.7142 32.8392 17.3438 32.0625 17.3438Z" fill="#FFA62B"/>
<path d="M35.3438 0H12.6562C5.67773 0 0 5.67773 0 12.6562V35.3438C0 42.3223 5.67773 48 12.6562 48H35.3438C42.3223 48 48 42.3223 48 35.3438V12.6562C48 5.67773 42.3223 0 35.3438 0ZM39.5625 31.125C39.5625 35.7773 35.7773 39.5625 31.125 39.5625H16.875C12.2227 39.5625 8.4375 35.7773 8.4375 31.125V16.875C8.4375 12.2227 12.2227 8.4375 16.875 8.4375H31.125C35.7773 8.4375 39.5625 12.2227 39.5625 16.875V31.125Z" fill="#FFA62B"/>
</svg>
