<svg width="48" height="48" viewBox="0 0 48 48" fill="none" xmlns="http://www.w3.org/2000/svg">
<path d="M20.9143 19.2764V28.0383L28.9905 23.6954L20.9143 19.2764Z" fill="#FFA62B"/>
<path d="M35.9619 0H12C5.40952 0 0 5.40952 0 12.0381V36C0 42.5905 5.40952 48 12 48H35.9619C42.5905 48 48 42.5905 48 35.9619V12.0381C48 5.40952 42.5905 0 35.9619 0ZM38.8571 25.181C38.8571 27.6952 38.6286 30.2476 38.6286 30.2476C38.6286 30.2476 38.3619 32.381 37.4857 33.3333C36.3429 34.5905 35.0857 34.5905 34.5143 34.6667C30.3238 34.9714 24.0381 35.0095 24.0381 35.0095C24.0381 35.0095 16.2286 34.8952 13.8286 34.6667C13.181 34.5524 11.6571 34.5905 10.5143 33.3333C9.6 32.381 9.37143 30.2476 9.37143 30.2476C9.37143 30.2476 9.14286 27.6952 9.14286 25.181V22.819C9.14286 20.3048 9.37143 17.7524 9.37143 17.7524C9.37143 17.7524 9.6381 15.619 10.5143 14.6667C11.6571 13.4095 12.9143 13.3714 13.4857 13.2952C17.7143 12.9905 24 12.9524 24 12.9524C24 12.9524 30.2857 12.9905 34.4762 13.2952C35.0476 13.3714 36.3429 13.4095 37.4857 14.6286C38.4 15.581 38.6286 17.7524 38.6286 17.7524C38.6286 17.7524 38.8571 20.3048 38.8571 22.819V25.181Z" fill="#FFA62B"/>
</svg>
