<svg xmlns="http://www.w3.org/2000/svg" width="218" height="98.788" viewBox="0 0 218 98.788"><g transform="translate(-2.8 -4.3)"><path d="M99.773,10.956c.151-.151.151-.3.3-.3L69.062,4.3a6.069,6.069,0,0,1,1.513,3.631,6.353,6.353,0,0,1-3.177,6.2l31.316,2.723a4.662,4.662,0,0,1,1.059-5.9M10.062,74.5l9.38-49.621H41.68l4.841-6.051H14.449L2.8,80.547H97.655L92.814,74.5ZM65.583,14.739c-.3,0-.454.151-.756.151a6.068,6.068,0,0,1-5.9-2.874A4.313,4.313,0,0,1,57.716,9.9l-10.439,18H60.137ZM64.524,11.41A2.8,2.8,0,0,0,67.1,8.233a2.89,2.89,0,0,0-5.749.605,2.8,2.8,0,0,0,3.177,2.572M37.444,69.352h37.67L58.624,30.623H48.034L17.021,69.352h9.531l6.808-8.623h0l3.933-4.992,8.926-11.2v.151l2.421-3.026h5.295l8.018,19.062H43.042Zm95.914-50.529-5.144,6.051h85.324L204.159,74.5H113.086L99.168,57.249a19.835,19.835,0,0,0,7.413-4.236,15.263,15.263,0,0,0,4.69-8.623c.908-4.841-.151-8.623-3.328-11.044-2.723-2.118-6.505-3.328-11.5-3.328H67.1l3.328,7.715H96.142c5.749,0,8.018,2.118,7.262,6.505a6.762,6.762,0,0,1-3.48,4.841,11.793,11.793,0,0,1-6.2,1.513H75.87L79.2,58.308h9.077l13.01,16.036,4.841,6.051H209.151L220.8,18.672H133.358Zm-32.526-1.664,5.144,4.69,1.059-1.059,4.992,3.631c.151-.151.454-.3.605-.454a2.089,2.089,0,0,0,.454-.605l-3.631-4.992,1.059-.908-4.539-5.144a3.561,3.561,0,0,0-4.992,0,3.26,3.26,0,0,0-.151,4.841m1.362-3.328a1.6,1.6,0,1,1,0,2.269,1.645,1.645,0,0,1,0-2.269M183.13,69.352l5.9-31.316h17.1l1.513-7.715H167.851l-1.513,7.715h14.977l-5.9,31.316ZM117.473,31.531h2.269V29.262h-2.269Zm-5.6-.908h4.085V27.3h2.723v-3.48H115.2v2.723h-3.328Zm13.464,7.262h22.39a10.1,10.1,0,0,1,4.539.908q2.269,1.135,1.815,3.177a4.485,4.485,0,0,1-3.026,3.177,13.1,13.1,0,0,1-4.841.908H118.532l-4.387,23.3h26.626c6.959,0,12.254-2.269,15.582-6.656a10.907,10.907,0,0,0,2.269-4.841,8.053,8.053,0,0,0-2.269-7.715,12.646,12.646,0,0,0,5.144-8.018,10.083,10.083,0,0,0-.605-5.6c-1.967-4.236-6.2-6.354-12.859-6.354H127.609l-.908,5.144H124.13l-.454,2.723h1.664ZM151.209,57.7c-.3,1.362-1.21,2.269-3.177,3.026a15.232,15.232,0,0,1-4.69.756H123.525l1.513-7.715h19.818a11.053,11.053,0,0,1,4.539.908c1.362.756,2.118,1.815,1.815,3.026m-29.2-24.811h1.815V30.926H121.86l.151,1.967-2.421-.151v2.421h2.421Z" transform="translate(0)" fill="#fff"/><g transform="translate(75.114 87.204)"><path d="M50.6,74.834V59.1h6.354c3.177,0,4.992,2.118,4.992,4.69s-1.815,4.69-4.992,4.69H52.567v6.2H50.6ZM59.677,63.79A2.9,2.9,0,0,0,56.5,60.764H52.415v6.051H56.5A2.9,2.9,0,0,0,59.677,63.79Z" transform="translate(-50.6 -59.1)" fill="#fff"/><path d="M75.277,74.834l-3.933-6.2H68.167v6.2H66.2V59.1h6.354c2.874,0,4.992,1.815,4.992,4.69a4.282,4.282,0,0,1-4.085,4.539L77.7,74.682H75.277Zm.151-11.044a2.9,2.9,0,0,0-3.177-3.026H68.167v6.051h4.085A2.9,2.9,0,0,0,75.428,63.79Z" transform="translate(-42.6 -59.1)" fill="#fff"/><path d="M82.2,74.834V59.1H92.487v1.815H84.167v4.992h8.169v1.815H84.167v5.446h8.321v1.815H82.2Z" transform="translate(-34.394 -59.1)" fill="#fff"/><path d="M97.6,74.834V59.1h10.287v1.815H99.567v4.992h8.169v1.815H99.567v7.11H97.6Z" transform="translate(-26.497 -59.1)" fill="#fff"/><path d="M123.859,74.834l-1.362-3.48h-7.867l-1.362,3.48H111L117.354,59.1h2.421l6.354,15.734Zm-5.295-13.767-3.328,8.472h6.656Z" transform="translate(-19.625 -59.1)" fill="#fff"/><path d="M128.9,74.834V59.1h6.959c2.723,0,4.387,1.664,4.387,3.933a3.662,3.662,0,0,1-2.723,3.631,3.949,3.949,0,0,1,3.026,3.933c0,2.572-1.664,4.236-4.539,4.236Zm9.38-11.5a2.5,2.5,0,0,0-2.723-2.572h-4.69v4.992h4.69A2.263,2.263,0,0,0,138.28,63.336Zm.3,6.959a2.747,2.747,0,0,0-2.874-2.723h-4.841v5.446h4.841A2.586,2.586,0,0,0,138.582,70.3Z" transform="translate(-10.445 -59.1)" fill="#fff"/></g></g></svg>