<svg xmlns="http://www.w3.org/2000/svg" width="412.256" height="60.399" viewBox="0 0 412.256 60.399">
  <g id="Сгруппировать_22" data-name="Сгруппировать 22" transform="translate(-105.595 -113.891)">
    <g id="Сгруппировать_21" data-name="Сгруппировать 21" transform="translate(105.595 113.891)">
      <path id="Контур_48" data-name="Контур 48" d="M200.377,118.18l8.259,14.306L183.858,118.18h16.518m2.473-4.283H167.943l52.4,30.291L202.85,113.9Z" transform="translate(-150.527 -113.895)" fill="#fff"/>
      <path id="Контур_49" data-name="Контур 49" d="M209.052,233.767l-8.226,14.248H184.375l24.677-14.248m11.655-11.654h0Zm0,0-52.252,30.168h34.835l17.418-30.168Z" transform="translate(-150.895 -191.882)" fill="#fff"/>
      <path id="Контур_50" data-name="Контур 50" d="M118.693,129.83l.134,28.524-8.3-14.223,8.167-14.3m-13.1,14.324,17.439,30.116-.023-60.38Z" transform="translate(-105.595 -113.891)" fill="#fff"/>
    </g>
    <path id="Контур_51" data-name="Контур 51" d="M403.813,167.2a9.879,9.879,0,0,0,0,19.758,12.383,12.383,0,0,0,8.343-3.759l4.264,4.63a18.788,18.788,0,0,1-12.973,5.73c-9.581,0-16.824-7.105-16.824-16.411,0-9.26,7.38-16.228,17.1-16.228a18.262,18.262,0,0,1,12.652,5.318l-4.218,5.134A11.616,11.616,0,0,0,403.813,167.2Z" transform="translate(-202.524 -33.893)" fill="#fff"/>
    <path id="Контур_52" data-name="Контур 52" d="M525.148,193.831l-5.088-9.168h-7.381v9.168h-7.243V161.742h13.936c8.389,0,13.156,4.034,13.156,11.139,0,4.951-2.109,8.527-6.005,10.361l6.83,10.589Zm-12.469-15.219h6.693c3.988,0,6.28-1.834,6.28-5.5,0-3.576-2.292-5.364-6.28-5.364h-6.693Z" transform="translate(-288.148 -34.484)" fill="#fff"/>
    <path id="Контур_53" data-name="Контур 53" d="M635.969,187.6H621.116l-2.521,6.234h-7.472l13.936-32.089h7.472l13.707,32.089H638.49Zm-2.338-5.822-5.042-12.469L623.5,181.775Z" transform="translate(-364.313 -34.484)" fill="#fff"/>
    <path id="Контур_54" data-name="Контур 54" d="M768.947,161.742V166.6L751.023,187.78h18.2l-.046,6.051H741.259v-4.9l17.97-21.133H741.855v-6.051Z" transform="translate(-458.096 -34.484)" fill="#fff"/>
    <path id="Контур_55" data-name="Контур 55" d="M865.078,183.471v10.361h-7.243V183.655l-11.873-21.913h7.289l8.205,14.394,8.023-14.394h7.289Z" transform="translate(-533.551 -34.484)" fill="#fff"/>
    <path id="Контур_56" data-name="Контур 56" d="M999.018,177.057h6.28v12.332a23.747,23.747,0,0,1-13.019,4.171c-9.718,0-17.1-7.059-17.1-16.365,0-9.26,7.518-16.274,17.512-16.274a20.223,20.223,0,0,1,12.882,4.676l-4.08,5.18a13.429,13.429,0,0,0-8.8-3.575,10.017,10.017,0,1,0,.046,20.033,14.612,14.612,0,0,0,6.28-1.742Z" transform="translate(-626.673 -33.893)" fill="#fff"/>
    <path id="Контур_57" data-name="Контур 57" d="M1128.633,177.2c0,9.26-7.426,16.365-17.237,16.365S1094.16,186.5,1094.16,177.2c0-9.352,7.427-16.274,17.236-16.274S1128.633,167.889,1128.633,177.2Zm-27.046,0a9.978,9.978,0,0,0,9.9,10.039,9.994,9.994,0,1,0-9.9-10.039Z" transform="translate(-712.417 -33.893)" fill="#fff"/>
    <path id="Контур_58" data-name="Контур 58" d="M1239.956,187.6H1225.1l-2.521,6.234h-7.472l13.936-32.089h7.472l13.706,32.089h-7.747Zm-2.338-5.822-5.042-12.469-5.089,12.469Z" transform="translate(-799.58 -34.484)" fill="#fff"/>
    <path id="Контур_59" data-name="Контур 59" d="M1353.029,161.742v6.143h-9.811v25.946h-7.243V167.885h-9.764v-6.143Z" transform="translate(-879.646 -34.484)" fill="#fff"/>
    <path id="Контур_60" data-name="Контур 60" d="M1447.072,166.813a5.007,5.007,0,0,0,0,9.983,7.014,7.014,0,0,0,4.619-2.24l3.318,3.54a11.718,11.718,0,0,1-8.214,3.733,9.836,9.836,0,0,1-10.232-9.983c0-5.642,4.425-9.818,10.426-9.818a11.4,11.4,0,0,1,8.02,3.429l-3.318,3.927A6.313,6.313,0,0,0,1447.072,166.813Z" transform="translate(-959.173 -34.69)" fill="#fff"/>
    <path id="Контур_61" data-name="Контур 61" d="M1526.9,171.873c0,5.7-4.48,9.956-10.563,9.956s-10.564-4.231-10.564-9.956c0-5.7,4.48-9.845,10.564-9.845S1526.9,166.2,1526.9,171.873Zm-15.237.028a4.932,4.932,0,0,0,4.756,5.116c2.545,0,4.59-2.184,4.59-5.116a4.753,4.753,0,0,0-4.59-5.061A4.865,4.865,0,0,0,1511.662,171.9Z" transform="translate(-1009.048 -34.69)" fill="#fff"/>
  </g>
</svg>
