<svg width="55" height="26" viewBox="0 0 55 26" fill="none" xmlns="http://www.w3.org/2000/svg">
<g clip-path="url(#clip0)">
<path d="M16.8016 7.70907H12.6012C9.61892 7.70907 7.20069 10.0954 7.20069 13.0382C7.20069 15.9811 9.61892 18.3674 12.6012 18.3674H17.2997C17.6897 18.3674 18.0017 18.0595 18.0017 17.6746V5.44122C18.0077 2.77071 20.2039 0.603516 22.9102 0.609437C24.6684 0.609437 26.2885 1.53908 27.1586 3.04309L32.4031 12.0968V5.44122C32.4091 2.77071 34.6053 0.603516 37.3116 0.609437C39.0697 0.609437 40.6899 1.53908 41.56 3.04309L46.8045 12.0968V0.603516H49.8048L50.4048 1.19565L51.0049 0.603516H54.0052V20.6353C53.9992 23.3058 51.803 25.473 49.0967 25.467C47.3385 25.467 45.7184 24.5374 44.8483 23.0334L39.6038 13.9797V20.6353C39.5978 23.3058 37.4016 25.473 34.6953 25.467C32.9372 25.467 31.317 24.5374 30.4469 23.0334L25.2024 13.9797V20.6353C25.2024 23.3058 23.0062 25.473 20.2999 25.473H12.6012C5.64054 25.473 0 19.9069 0 13.0382C0 6.16954 5.64054 0.603516 12.6012 0.603516H16.8016V3.56416L16.2016 4.15629L16.8016 4.74842V7.70907Z" fill="#4791B8"/>
<path d="M20.5874 22.2824H12.8562C7.54141 22.2824 3.21484 18.0755 3.21484 12.9077C3.21484 7.73997 7.54141 3.53309 12.8562 3.53309H17.0743V4.70493H12.8562C8.20425 4.70493 4.42002 8.38448 4.42002 12.9077C4.42002 17.431 8.20425 21.1106 12.8562 21.1106H20.5874C20.9791 21.1106 21.2924 20.8059 21.2924 20.425V5.39045C21.2924 4.89242 21.4913 4.42955 21.8528 4.078C22.2144 3.72645 22.6904 3.53895 23.2026 3.53895C23.2026 3.53895 23.2026 3.53895 23.2086 3.53895C23.8896 3.53895 24.5223 3.89636 24.8597 4.47056L34.4408 20.7707C34.5312 20.9289 34.6879 21.0403 34.8687 21.0871C35.0494 21.134 35.2423 21.1106 35.405 21.0168C35.6219 20.8938 35.7545 20.6653 35.7605 20.425V5.39045C35.7605 4.89242 35.9594 4.42955 36.3209 4.078C36.6825 3.72645 37.1585 3.53895 37.6707 3.53895C37.6707 3.53895 37.6707 3.53895 37.6767 3.53895C38.3576 3.53895 38.9904 3.89636 39.3278 4.47056L48.9089 20.7707C48.9993 20.9289 49.156 21.0403 49.3368 21.0871C49.5175 21.134 49.7104 21.1106 49.8731 21.0168C50.09 20.8938 50.2226 20.6653 50.2286 20.425V0.603516H51.4338V20.425C51.4338 21.0871 51.0662 21.7023 50.4756 22.0305C50.0358 22.2765 49.5175 22.341 49.0234 22.218C48.5293 22.0891 48.1195 21.7844 47.8665 21.3508L38.2853 5.05062C38.1588 4.83969 37.9298 4.71079 37.6767 4.71079C37.4899 4.71079 37.3152 4.7811 37.1766 4.91C37.044 5.0389 36.9717 5.20881 36.9717 5.39631V20.4309C36.9717 21.093 36.6041 21.7082 36.0136 22.0363C35.5737 22.2824 35.0555 22.3469 34.5614 22.2238C34.0672 22.0949 33.6575 21.7902 33.4044 21.3567L23.8233 5.05648C23.6967 4.84555 23.4678 4.71664 23.2147 4.71664C23.0279 4.71664 22.8531 4.78695 22.7145 4.91586C22.582 5.04476 22.5096 5.21467 22.5096 5.40217V20.4368C22.4976 21.4504 21.6419 22.2824 20.5874 22.2824Z" fill="#5AB9EA"/>
</g>
<defs>
<clipPath id="clip0">
<rect width="54.0052" height="24.8695" fill="white" transform="translate(0 0.603516)"/>
</clipPath>
</defs>
</svg>
