<svg width="567" height="405" viewBox="0 0 567 405" fill="none" xmlns="http://www.w3.org/2000/svg">
<path d="M415.251 346.196L409.727 404.253H470.339L476.104 385.218L481.225 404.253H537.591L533.104 344.245L415.251 346.196Z" fill="#454F6B"/>
<path d="M475.591 369.506C495.843 368.421 515.635 362.729 533.831 354.059L533.101 344.256L415.247 346.197L414.248 356.714C432.771 366.546 454.426 370.638 475.591 369.506Z" fill="#422C4F"/>
<path d="M421.769 161.246C414.803 162.046 408.559 165.872 404.725 171.696L382.59 205.34L401.488 235.901L420.942 212.469L421.769 161.246Z" fill="#7CA566"/>
<path d="M421.344 187.485C414.705 200.201 410.141 213.972 407.941 228.125L420.94 212.478L421.344 187.485Z" fill="#638674"/>
<path d="M437.437 132.131C436.64 134.587 436.14 137.261 436.871 139.735C437.601 142.21 439.858 144.399 442.462 144.323C443.922 144.275 445.296 143.561 446.747 143.533C449.37 143.466 451.464 145.541 453.501 147.178C458.381 151.118 464.722 153.241 471.015 153.05C477.308 152.85 483.505 150.338 488.126 146.103C490.556 143.876 492.805 141.058 496.052 140.43C497.839 140.078 499.789 140.44 501.432 139.65C503.44 138.679 504.295 136.29 504.631 134.101C505.986 125.193 501.384 115.675 493.535 111.126C489.115 108.566 483.927 107.548 478.816 107.528C471.966 107.509 465.116 109.27 459.14 112.582C456.412 114.095 453.847 115.942 450.917 117.074C448.303 118.083 445.508 117.912 442.904 118.797C440.896 119.482 440.252 120.71 439.974 122.728C439.532 126.049 438.475 128.943 437.437 132.131Z" fill="#654059"/>
<path d="M433.929 128.247C439.335 128.247 443.718 123.905 443.718 118.549C443.718 113.193 439.335 108.851 433.929 108.851C428.522 108.851 424.139 113.193 424.139 118.549C424.139 123.905 428.522 128.247 433.929 128.247Z" fill="#F2C9AD"/>
<path d="M438.998 118.548C438.998 121.318 436.73 123.554 433.944 123.554C431.148 123.554 428.891 121.308 428.891 118.548C428.891 115.788 431.158 113.542 433.944 113.542C436.73 113.533 438.998 115.779 438.998 118.548Z" fill="#EBA58E"/>
<path d="M504.431 121.586C509.837 121.586 514.22 117.244 514.22 111.888C514.22 106.532 509.837 102.189 504.431 102.189C499.024 102.189 494.641 106.532 494.641 111.888C494.641 117.244 499.024 121.586 504.431 121.586Z" fill="#F2C9AD"/>
<path d="M509.49 111.887C509.49 114.657 507.222 116.893 504.436 116.893C501.641 116.893 499.383 114.647 499.383 111.887C499.383 109.127 501.65 106.881 504.436 106.881C507.222 106.871 509.49 109.117 509.49 111.887Z" fill="#EBA58E"/>
<path d="M439.764 115.416C435.085 106.86 430.272 97.6853 425.593 89.1291C423.393 85.1127 421.125 80.7062 421.932 76.2044C422.509 73.0066 424.613 70.2275 427.197 68.2098C427.697 67.8196 428.225 67.4484 428.754 67.1058C433.077 64.3076 436.094 59.9582 437.477 55.0282C438.323 52.0207 439.591 49.213 441.743 47.0906C444.491 44.3782 448.391 42.8554 452.272 42.9791C453.531 43.0172 454.77 43.2361 455.971 43.5977C460.093 44.8636 464.58 44.7589 468.624 43.2646C472.659 41.7704 477.434 41.9798 481.239 44.0546C483.189 45.1205 484.813 46.5767 486.235 48.2613C489.501 52.1539 493.949 54.8664 498.964 55.8276C500.261 56.0751 501.51 56.5414 502.577 57.2077C505.737 59.1587 507.765 62.585 508.677 66.1635C509.59 69.7421 509.494 73.5015 509.206 77.1752C508.389 87.5302 503.047 102.577 499.262 112.256L439.764 115.416Z" fill="#654059"/>
<path d="M460.54 146.786C464.047 149.422 468.476 151.154 472.838 150.564C476.585 150.06 479.938 147.89 482.541 145.187C483.483 144.206 484.347 143.15 485.154 142.056V136.06H456.813L456.582 143.179C457.802 144.482 459.109 145.71 460.54 146.786Z" fill="#422C4F"/>
<path d="M485.149 155.008V142.045C484.342 143.139 483.486 144.196 482.535 145.176C479.932 147.889 476.569 150.049 472.832 150.554C468.47 151.144 464.041 149.411 460.535 146.775C459.103 145.7 457.796 144.472 456.576 143.168L456.163 155.988L448.641 158.71L450.668 160.651C462.715 172.158 482.286 170.264 491.874 156.683L485.149 155.008Z" fill="#F2C9AD"/>
<path d="M498.795 103.797L494.712 86.3233C493.578 81.4884 489.101 78.1573 484.096 78.4429C479.772 78.6903 475.766 76.2253 474.056 72.2851L472.25 68.126C472.24 74.141 466.975 79.6801 460.923 80.0513C457.531 80.2607 454.063 79.0615 450.787 79.9657C448.058 80.7175 445.906 82.878 444.532 85.324C443.158 87.7795 442.467 90.5395 441.794 93.2615C440.91 96.802 440.026 100.352 439.143 103.892L439.767 115.409C440.641 131.683 454.668 144.17 471.097 143.295C487.525 142.429 500.13 128.533 499.246 112.258L498.795 103.797Z" fill="#F2C9AD"/>
<path d="M455.365 86.5586C451.685 87.2343 448.88 89.7755 447.766 92.8782C453.29 91.2412 458.997 90.1943 464.752 89.7565C462.58 87.2439 459.045 85.8734 455.365 86.5586Z" fill="#654059"/>
<path d="M457.166 102.187C458.821 102.187 460.163 100.857 460.163 99.2175C460.163 97.5775 458.821 96.248 457.166 96.248C455.511 96.248 454.17 97.5775 454.17 99.2175C454.17 100.857 455.511 102.187 457.166 102.187Z" fill="#422C4F"/>
<path d="M487.039 86.5586C490.718 87.2343 493.524 89.7755 494.638 92.8782C489.114 91.2412 483.407 90.1943 477.652 89.7565C479.824 87.2439 483.359 85.8734 487.039 86.5586Z" fill="#654059"/>
<path d="M485.235 102.187C486.89 102.187 488.231 100.857 488.231 99.2175C488.231 97.5775 486.89 96.248 485.235 96.248C483.58 96.248 482.238 97.5775 482.238 99.2175C482.238 100.857 483.58 102.187 485.235 102.187Z" fill="#422C4F"/>
<path d="M477.182 112.817C473.877 112.913 470.563 113.008 467.258 113.103C467.825 113.826 468.372 114.673 469.083 115.263C469.794 115.853 470.649 116.31 471.581 116.377C472.657 116.453 473.714 115.996 474.569 115.339C475.405 114.683 476.519 113.664 477.182 112.817Z" fill="#EBA58E"/>
<path d="M483.875 119.861C475.536 121.708 466.841 121.955 458.406 120.575C458.56 123.012 459.684 125.534 461.327 127.361C462.499 128.665 463.796 129.874 465.333 130.721C468.859 132.672 473.432 132.424 476.91 130.388C480.388 128.36 483.107 123.792 483.875 119.861Z" fill="white"/>
<path d="M520.934 162.31C530.637 164.632 538.736 171.237 542.906 180.231L563.206 224.011L533.423 245.492L525.055 225.315L520.934 162.31Z" fill="#7CA566"/>
<path d="M532.509 219.91C532.019 214.199 531.318 208.432 529.204 203.102C527.811 199.59 525.726 196.268 522.988 193.68L525.064 225.325L533.335 245.283C533.489 236.813 533.23 228.352 532.509 219.91Z" fill="#638674"/>
<path d="M560.174 368.351L563.614 351.552C563.988 349.725 564.2 347.879 564.238 346.013L565.977 271.406C566.217 261.213 564.766 251.048 561.702 241.322L557.532 228.111L535.156 244.253L542.074 259.585L545.677 346.194L538.827 354.027C537.164 355.921 535.935 358.138 535.205 360.546L531.631 372.3C531.275 373.461 531.765 374.718 532.812 375.336C533.879 375.965 535.243 375.793 536.108 374.918L544.476 366.428L541.286 377.992L559.482 371.054C559.742 370.149 559.992 369.264 560.174 368.351Z" fill="#F2C9AD"/>
<path d="M541.28 377.973L531.02 393.296L536.467 392.126C547.515 389.756 556.277 381.609 559.467 371.025L541.28 377.973Z" fill="#EBA58E"/>
<path d="M535.148 244.253L557.524 228.111L558.658 231.699L538.905 252.581L535.148 244.253Z" fill="#422C4F"/>
<path d="M448.636 158.732L421.765 161.244L419.737 287.236L409.727 350.422L436.012 355.352C463.172 360.444 491.111 359.74 517.963 353.277L536.294 348.861L528.925 284.657L520.922 162.31L491.86 156.686C482.281 170.276 462.702 172.161 450.654 160.654L448.636 158.732Z" fill="#7CA566"/>
<path d="M489.742 166.849C486.888 168.629 483.468 170.304 479.664 171.417C475.869 172.531 471.69 173.083 467.568 172.826C463.446 172.559 459.373 171.503 455.741 169.914C452.11 168.343 448.93 166.249 446.326 164.127C448.123 166.954 450.957 169.847 454.627 172.026C458.278 174.225 462.755 175.71 467.366 175.995C471.978 176.281 476.599 175.377 480.509 173.644C484.419 171.941 487.599 169.428 489.742 166.849Z" fill="#638674"/>
<path d="M509.34 248.206C502.769 246.436 495.457 244.104 488.05 240.868C480.643 237.651 473.159 233.549 466.184 228.705C459.218 223.841 452.772 218.274 447.2 212.468C441.608 206.672 436.91 200.657 432.99 195.137C434.96 201.58 438.428 208.747 443.472 215.552C448.487 222.366 455.03 228.771 462.466 233.958C469.911 239.126 478.231 243.038 486.398 245.389C494.573 247.768 502.557 248.568 509.34 248.206Z" fill="#638674"/>
<path d="M512.021 214.941C509.6 216.959 506.746 219.062 503.48 220.88C500.223 222.708 496.582 224.249 492.806 225.334C489.021 226.41 485.111 227.029 481.373 227.2C477.636 227.381 474.081 227.114 470.959 226.686C473.784 228.066 477.386 229.113 481.335 229.427C485.284 229.751 489.568 229.351 493.642 228.19C497.715 227.019 501.558 225.106 504.719 222.746C507.89 220.385 510.368 217.597 512.021 214.941Z" fill="#638674"/>
<path d="M518.419 334.889C511.425 335.964 503.489 337.239 495.034 338.315C486.59 339.4 477.626 340.276 468.643 340.799C459.66 341.303 450.648 341.456 442.136 341.342C433.615 341.237 425.583 340.875 418.512 340.599C425.131 343.045 433.086 345.091 441.742 346.329C450.389 347.566 459.737 347.985 469.037 347.461C478.337 346.928 487.57 345.444 496.014 343.226C504.459 341.018 512.116 338.077 518.419 334.889Z" fill="#638674"/>
<path d="M514.74 311.275C507.285 314.825 497.869 319.594 488.204 323.819C478.549 328.093 468.673 331.814 461.016 334.907C469.259 334.355 479.904 331.766 489.799 327.379C499.724 323.039 508.793 316.957 514.74 311.275Z" fill="#638674"/>
<path d="M425.354 308.43C428.466 310.628 432.328 312.798 436.681 314.616C441.033 316.443 445.865 317.919 450.803 318.88C455.742 319.832 460.785 320.269 465.512 320.203C470.239 320.146 474.639 319.575 478.357 318.699C470.739 318.099 461.045 317.224 451.505 315.349C441.955 313.531 432.636 310.714 425.354 308.43Z" fill="#638674"/>
<path d="M234.856 146.251C237.728 144.747 240.092 142.492 242.157 139.903V132.365L214.939 135.535V143.101C216.89 145.042 219.253 146.527 221.828 147.365C226.094 148.754 230.859 148.345 234.856 146.251Z" fill="#422C4F"/>
<path d="M234.856 146.253C230.859 148.347 226.094 148.756 221.828 147.367C219.263 146.529 216.899 145.045 214.939 143.103V159.33L218.11 160.311C225.998 162.757 234.5 162.404 242.167 159.33V139.905C240.092 142.494 237.728 144.75 234.856 146.253Z" fill="#EBA58E"/>
<path d="M214.939 159.331L232.233 178.442L242.157 159.331C234.5 162.405 225.998 162.757 218.1 160.311L214.939 159.331Z" fill="#E58064"/>
<path d="M183.403 300.512L182.039 313.36H283.877L282.359 300.512H183.403Z" fill="#5195A8"/>
<path d="M192.979 133.241C198.019 133.241 202.106 129.193 202.106 124.2C202.106 119.206 198.019 115.158 192.979 115.158C187.938 115.158 183.852 119.206 183.852 124.2C183.852 129.193 187.938 133.241 192.979 133.241Z" fill="#EBA58E"/>
<path d="M198.041 124.2C198.041 126.969 195.773 129.206 192.987 129.206C190.191 129.206 187.934 126.96 187.934 124.2C187.934 121.43 190.201 119.193 192.987 119.193C195.773 119.184 198.041 121.43 198.041 124.2Z" fill="#E78882"/>
<path d="M259.375 122.06C264.416 122.06 268.502 118.012 268.502 113.018C268.502 108.025 264.416 103.977 259.375 103.977C254.334 103.977 250.248 108.025 250.248 113.018C250.248 118.012 254.334 122.06 259.375 122.06Z" fill="#EBA58E"/>
<path d="M264.435 113.017C264.435 115.787 262.168 118.023 259.382 118.023C256.586 118.023 254.328 115.777 254.328 113.017C254.328 110.257 256.595 108.011 259.382 108.011C262.168 108.001 264.435 110.247 264.435 113.017Z" fill="#E78882"/>
<path d="M198.11 120.792L186.764 95.5421C183.651 88.6134 184.727 80.5331 189.55 74.6418C191.645 72.0912 193.72 69.5595 195.718 67.2658C198.831 63.6873 202.021 60.0421 206.142 57.6818C210.35 55.2644 215.404 54.3317 220.198 55.0931C224.992 55.8545 229.517 58.2814 232.755 61.8695C235.925 59.7376 239.864 57.0156 243.64 57.6437C246.714 58.1577 249.126 60.4514 251.326 62.6404L255.687 66.9708C260.174 71.425 262.086 77.8207 260.77 83.9784L254.41 113.673L198.11 120.792Z" fill="#8C404C"/>
<path d="M248.089 91.6033C242.18 90.3661 236.618 86.245 233.053 81.4102C226.05 91.5081 213.377 98.2655 201.013 98.2655L198.111 120.793C201.493 134.251 214.425 143.54 228.759 142.084C243.573 140.58 254.564 128.122 254.42 113.655L248.089 91.6033Z" fill="#EBA58E"/>
<path d="M213.069 99.6043C210.052 100.642 207.881 102.993 206.949 105.791L221.735 100.708C219.266 99.0809 216.095 98.5669 213.069 99.6043Z" fill="#8C404C"/>
<path d="M217.063 113.018C218.458 113.018 219.589 111.897 219.589 110.515C219.589 109.132 218.458 108.012 217.063 108.012C215.668 108.012 214.537 109.132 214.537 110.515C214.537 111.897 215.668 113.018 217.063 113.018Z" fill="#422C4F"/>
<path d="M241.416 95.5627C244.606 95.7626 247.334 97.4472 248.987 99.8931L233.365 98.9224C235.296 96.6953 238.227 95.3628 241.416 95.5627Z" fill="#8C404C"/>
<path d="M238.639 110.944C240.034 110.944 241.165 109.823 241.165 108.441C241.165 107.058 240.034 105.938 238.639 105.938C237.244 105.938 236.113 107.058 236.113 108.441C236.113 109.823 237.244 110.944 238.639 110.944Z" fill="#422C4F"/>
<path d="M233.02 118.67C230.6 118.908 228.18 119.146 225.76 119.374C226.317 120.764 227.998 121.792 229.505 121.725C231.023 121.658 232.588 120.107 233.02 118.67Z" fill="#E78882"/>
<path d="M239.436 123.408C233.642 125.968 227.398 127.491 221.066 127.891C221.95 130.803 224.823 133.135 227.82 133.801C230.818 134.467 234.142 133.411 236.188 131.146C237.918 129.242 239.099 125.94 239.436 123.408Z" fill="white"/>
<path d="M201.197 77.4085C205.703 77.5418 211.006 77.1611 216.3 76.828C221.594 76.4758 226.897 76.1713 231.355 75.4575C227.541 73.0971 221.747 71.7552 215.993 72.1549C210.238 72.4975 204.675 74.5819 201.197 77.4085Z" fill="#A04A5A"/>
<path d="M210.979 65.2077C214.005 66.3118 217.56 67.4443 221.009 68.8529C224.467 70.2425 227.801 71.889 230.75 73.2024C229.415 70.2996 226.206 67.2921 222.286 65.7407C218.395 64.1418 213.986 64.0561 210.979 65.2077Z" fill="#A04A5A"/>
<path d="M250.843 69.6463C248.432 68.4946 244.839 68.1806 241.486 69.0181C238.113 69.8271 235.097 71.7687 233.502 73.9006C236.125 73.339 239.122 72.4634 242.168 71.7306C245.194 70.9787 248.259 70.3601 250.843 69.6463Z" fill="#A04A5A"/>
<path d="M250.253 79.5808C248.687 77.6678 245.958 75.907 242.941 74.9839C239.925 74.0416 236.668 73.956 234.285 74.6507C236.543 75.6786 239.348 76.5828 242.163 77.4584C244.969 78.3245 247.793 79.162 250.253 79.5808Z" fill="#A04A5A"/>
<path d="M240.157 404.25L236.132 359.937C235.959 358.081 234.393 356.663 232.51 356.663C230.694 356.663 229.157 357.986 228.907 359.765L222.624 404.25H170.504L175.509 346.003C176.489 334.649 179.592 323.58 184.675 313.358H280.335L281.19 315.386C284.563 323.352 286.772 331.746 287.762 340.331L295.15 404.25H240.157Z" fill="#984058"/>
<path d="M229.83 313.357L229.35 356.662L231.54 355.158C236.382 351.827 239.274 346.364 239.274 340.52V313.357H229.83Z" fill="#472948"/>
<path d="M201.969 313.357L196.685 338.341L193.082 393.542L201.969 338.817V313.357Z" fill="#472948"/>
<path d="M263.455 313.357L268.739 338.341L272.342 393.542L263.455 338.817V313.357Z" fill="#472948"/>
<path d="M281.201 315.385L280.346 313.357H184.686C183.792 315.156 182.985 316.984 182.217 318.83H282.575C282.133 317.669 281.682 316.527 281.201 315.385Z" fill="#472948"/>
<path d="M177.955 156.8L102.652 152.27L104.535 178.452L178.916 199.752L177.955 156.8Z" fill="#6CA8BF"/>
<path d="M388.709 43.8931L367.256 35.4512L362.414 46.3962L383.877 54.8286L388.709 43.8931Z" fill="#5195A8"/>
<path d="M416.601 10.3135L419.416 6.4209L411.548 2.66151C402.623 -1.60229 391.93 0.415402 385.224 7.64865L383.148 9.88524L407.503 21.0968C410.789 17.7276 413.844 14.13 416.601 10.3135Z" fill="#E78882"/>
<path d="M383.156 9.88327L378.276 15.1464L375.076 9.34077C372.905 5.39104 368.726 2.93555 364.182 2.93555L373.309 31.6496L371.32 37.0555L386.077 42.8611L388.719 36.2465L392.033 34.029C397.644 30.2601 402.822 25.9201 407.52 21.1043L383.156 9.88327Z" fill="#EBA58E"/>
<path d="M251.958 154.601L248.643 154.858C245.828 155.076 243.35 156.79 242.168 159.331L232.244 178.442L214.95 159.331L213.644 157.884C212.068 156.142 209.791 155.2 207.437 155.324L202.807 155.552L233.723 189.729L251.958 154.601Z" fill="#5195A8"/>
<path d="M384.483 58.2549L383.878 54.8287L362.425 46.3867C357.554 47.7953 353.548 51.2596 351.492 55.8566L328.155 108.003L264.439 153.62L251.969 154.6L233.725 189.729L202.808 155.552L177.963 156.789V273.349C177.963 274.738 177.8 276.118 177.483 277.47L176.436 281.857C174.831 288.596 177.281 295.639 182.738 299.969L183.411 300.502H282.367L284.355 298.532C290.014 292.926 291.282 284.303 287.468 277.337C286.219 275.043 285.479 272.511 285.316 269.913L280.436 191.699L350.886 131.806L382.898 68.9145C384.57 65.6214 385.127 61.8811 384.483 58.2549Z" fill="#6CA8BF"/>
<path d="M239.339 237.143C246.487 231.908 252.886 225.693 257.997 219.174C263.127 212.673 266.951 205.888 269.43 199.739C265.126 204.822 260.13 210.465 254.423 216.033C248.726 221.601 242.337 227.092 235.554 232.06C228.752 237.009 221.575 241.435 214.524 245.185C207.472 248.944 200.554 251.999 194.377 254.569C201.044 254.046 208.711 252.428 216.503 249.487C224.294 246.584 232.182 242.368 239.339 237.143Z" fill="#5195A8"/>
<path d="M214.893 223.525C219.475 224.096 224.125 224.162 228.439 223.753C232.762 223.353 236.74 222.497 240.054 221.383C233.05 221.469 224.135 221.383 215.306 220.241C206.476 219.156 197.82 217.034 191.057 215.216C193.987 217.11 197.628 218.928 201.711 220.384C205.794 221.849 210.31 222.944 214.893 223.525Z" fill="#5195A8"/>
<path d="M236.294 276.719C221.355 278.251 206.732 282.153 196.279 286.836C207.693 285.646 222.248 283.6 236.87 282.096C251.483 280.545 266.144 279.526 277.567 278.337C266.355 275.919 251.233 275.12 236.294 276.719Z" fill="#5195A8"/>
<path d="M280.789 186.235C294.191 170.465 311.139 142.826 318.892 124.02C306.47 138.448 290.81 163.46 282.288 182.209C283.902 177.298 285.122 171.683 285.996 166.029C287.149 158.416 287.668 150.697 286.986 144.358C283.306 149.583 280.51 157.169 279.319 165.03C278.137 172.72 278.522 180.61 280.366 186.625C280.337 186.701 280.299 186.787 280.27 186.863C280.309 186.815 280.357 186.768 280.395 186.72C280.424 186.825 280.453 186.93 280.482 187.025C280.578 186.768 280.683 186.492 280.789 186.235Z" fill="#5195A8"/>
<path d="M63.6221 330.642L63.1033 332.146C57.5695 348.192 56.4838 365.419 59.9425 382.026L64.5829 404.25H110.621L114.858 367.132L121.583 404.25H168.342L173.233 372.614C175.999 354.74 173.55 336.457 166.181 319.906L63.6221 330.642Z" fill="#454F6B"/>
<path d="M135.157 345.279C147.272 341.234 158.868 335.685 169.619 328.833C168.629 325.816 167.486 322.837 166.179 319.915L63.6207 330.641L63.1019 332.145C61.363 337.18 60.066 342.329 59.2109 347.535C83.6521 355.32 110.754 353.426 135.157 345.279Z" fill="#422C4F"/>
<path d="M114.869 367.133C104.099 367.38 93.7329 367.704 82.9727 367.951C87.344 370.473 93.2333 371.891 98.9305 371.768C104.608 371.634 110.748 369.845 114.869 367.133Z" fill="#422C4F"/>
<path d="M114.869 367.161C125.274 364.41 135.314 361.84 145.718 359.09C142.221 362.668 136.956 365.638 131.451 367.094C125.946 368.55 119.577 368.569 114.869 367.161Z" fill="#422C4F"/>
<path d="M177.95 248.164L154.893 218.022L172.416 201.633L177.95 209.018V248.164Z" fill="#F2C9AD"/>
<path d="M172.416 201.633L154.893 218.022L160.964 225.959L174.03 203.784L172.416 201.633Z" fill="#422C4F"/>
<path d="M94.9729 184.531L73.8751 189.47C63.2205 191.964 53.3922 197.151 45.3604 204.517L39.6152 209.781L61.0685 227.169L60.3191 239.237C59.9828 244.567 62.1637 249.754 66.218 253.285C69.6863 256.311 71.8095 260.575 72.1073 265.143C73.1738 281.39 71.1082 297.684 66.0067 313.159L57.6194 338.589L60.6746 339.379C95.5301 348.411 132.576 343.643 163.944 326.084L170.516 322.41L165.27 311.874C157.584 296.427 153.126 279.591 152.166 262.393L151.829 256.445C151.628 252.914 152.531 249.411 154.414 246.404L155.884 244.053C158.324 240.141 159.092 235.421 158.016 230.947L154.904 218.032L174.435 199.759L158.535 184.074C152.8 178.411 144.605 175.927 136.65 177.431L125.764 179.487C119.328 187.005 108.817 189.699 99.5075 186.225L94.9729 184.531Z" fill="#E68799"/>
<path d="M126.787 186.074C124.539 187.321 121.926 188.558 119.024 189.491C116.132 190.433 112.981 191.08 109.782 191.337C106.583 191.585 103.364 191.433 100.357 190.947C97.3499 190.471 94.5638 189.662 92.1523 188.777C94.1603 190.357 96.8503 191.804 99.9439 192.717C103.037 193.641 106.525 194.021 109.964 193.755C113.404 193.479 116.795 192.565 119.697 191.176C122.627 189.796 125.048 187.949 126.787 186.074Z" fill="#E36B85"/>
<path d="M137.318 249.517C134.253 247.375 130.247 245.462 125.674 244.301C121.11 243.131 116.009 242.731 110.984 243.311C105.96 243.892 101.079 245.434 96.9191 247.604C92.7399 249.764 89.2813 252.534 86.793 255.313C90.0403 253.448 93.8256 251.544 98.0144 250.031C102.194 248.508 106.767 247.366 111.407 246.833C116.047 246.3 120.765 246.376 125.184 246.919C129.603 247.432 133.725 248.432 137.318 249.517Z" fill="#E36B85"/>
<path d="M116.01 214.646C111.225 211.144 104.202 207.613 96.7567 205.31C89.3206 202.978 81.529 201.893 75.582 202.045C81.2792 203.749 88.648 205.71 95.9112 207.984C103.184 210.23 110.351 212.8 116.01 214.646Z" fill="#E36B85"/>
<path d="M134.439 196.582C130.682 196.934 125.859 198.114 121.296 199.961C116.723 201.788 112.428 204.263 109.488 206.604C113.024 205.29 117.482 203.406 121.968 201.607C126.455 199.789 130.97 198.076 134.439 196.582Z" fill="#E36B85"/>
<path d="M156.312 313.188C150.365 316.052 143.582 319.174 136.194 321.953C128.816 324.751 120.851 327.226 112.733 329.101C104.615 330.956 96.3623 332.213 88.4938 332.927C80.6254 333.65 73.1413 333.812 66.541 333.84C72.8146 335.867 80.4044 337.285 88.6187 337.6C96.8234 337.923 105.624 337.124 114.165 335.173C122.696 333.203 130.949 330.071 138.174 326.198C145.398 322.334 151.585 317.746 156.312 313.188Z" fill="#E36B85"/>
<path d="M144.737 299.495C139.366 303.702 132.564 309.127 125.349 314C118.163 318.911 110.602 323.251 104.703 326.696C111.39 325.259 119.777 321.728 127.194 316.655C134.63 311.639 140.981 305.158 144.737 299.495Z" fill="#E36B85"/>
<path d="M61.9281 205.215C59.5174 211.059 59.2197 220.652 61.2654 226.629C63.6856 220.785 63.9833 211.192 61.9281 205.215Z" fill="#E36B85"/>
<path d="M55.8301 212.305C55.9549 216.759 58.5192 223.031 61.5637 226.305C61.4388 221.851 58.8649 215.579 55.8301 212.305Z" fill="#E36B85"/>
<path d="M154.791 196.061C152.543 202.114 152.601 211.917 154.906 217.951C157.163 211.888 157.105 202.095 154.791 196.061Z" fill="#E36B85"/>
<path d="M160.769 200.895C157.407 204.892 154.757 212.344 154.862 217.541C158.233 213.543 160.875 206.091 160.769 200.895Z" fill="#E36B85"/>
<path d="M73.8077 300.691L64.2676 305.269L24.08 269.103L61.0683 227.169L41.9304 211.665L3.14551 260.423C-1.90796 266.771 -0.745468 275.984 5.72029 280.914L53.6418 317.442C56.7354 319.802 60.7993 320.516 64.527 319.364L68.1874 318.232L80.456 299.901C78.2847 299.444 75.9405 299.663 73.8077 300.691Z" fill="#F2C9AD"/>
<path d="M86.9026 304.193C85.3559 301.918 83.0117 300.443 80.4657 299.9L68.1875 318.231C73.5868 322.314 80.6963 323.427 87.0948 321.2L96.289 317.993L86.9026 304.193Z" fill="#EBA58E"/>
<path d="M41.9318 211.654L61.0696 227.158L47.5425 242.5L40.2793 213.729L41.9318 211.654Z" fill="#422C4F"/>
<path d="M24.0773 269.101L10.627 266.246L13.9607 265.237C17.8325 264.057 22.0117 265.656 24.0773 269.101Z" fill="#EBA58E"/>
<path d="M59.9473 169.17L40.8766 185.311C37.735 187.976 36.3228 192.135 37.2066 196.142L42.4907 192.021L54.6632 209.79L76.5968 190.118L59.9473 169.17Z" fill="#6CA8BF"/>
<path d="M23.2298 228.35L24.1137 230.967C27.3033 240.37 34.8451 247.698 44.414 250.658L52.2536 253.085L49.2946 229.777L22.5957 224.752C22.6245 225.961 22.8359 227.169 23.2298 228.35Z" fill="#E78882"/>
<path d="M54.6596 209.77L42.4871 192.001L35.2623 197.645C33.4946 199.025 32.0919 200.805 31.1696 202.832L23.6855 219.287C22.8977 221.01 22.5422 222.875 22.5902 224.731L49.2891 229.757L48.7222 225.312L51.8062 230.232C53.7469 233.335 57.4361 234.915 61.0581 234.192L54.6596 209.77Z" fill="#EBA58E"/>
<path d="M120.722 161.861C120.559 162.661 120.367 163.441 120.136 164.222C119.233 167.201 117.657 170.065 115.198 172.007C111.047 175.271 104.985 175.328 100.124 173.244C97.232 172.007 94.7149 170.122 92.4668 167.924L94.9743 184.522L99.509 186.216C108.819 189.69 119.329 186.997 125.766 179.478L120.722 161.861Z" fill="#F2C9AD"/>
<path d="M115.195 172.007C117.655 170.075 119.231 167.2 120.134 164.221C120.374 163.441 120.556 162.651 120.72 161.861L119.99 159.301L91.9648 164.65L92.4644 167.933C94.7222 170.122 97.2393 172.016 100.121 173.253C104.983 175.328 111.045 175.271 115.195 172.007Z" fill="#422C4F"/>
<path d="M103.331 154.887C98.6231 155.895 94.3863 158.713 91.456 162.491C86.5563 168.801 86.0567 177.195 80.2346 182.953C76.4013 186.751 70.5408 188.911 65.4009 187.217C64.027 186.77 62.7684 186.066 61.6348 185.19C63.1816 188.521 65.2471 191.595 68.0237 193.994C72.0107 197.458 77.583 199.371 82.7325 198.162C86.5755 197.268 89.9092 194.698 92.0901 191.443C94.271 188.188 95.3374 184.276 95.5199 180.374C95.8178 174.102 93.9443 167.954 92.0805 161.958C98.3253 159.379 105.636 156.704 112.717 155.296C109.7 154.373 106.424 154.22 103.331 154.887Z" fill="#422C4F"/>
<path d="M137.517 174.472C141.821 174.872 146.087 172.473 148.595 168.981C150.016 167.01 150.92 164.736 151.448 162.366C151.083 156.979 149.43 151.526 147.298 146.538C143.426 137.516 138.036 129.036 135.778 119.49C133.54 109.992 134.376 99.4367 129.063 91.2231C126.776 87.6922 123.491 84.875 119.897 82.667C105.102 73.5969 84.3309 75.4908 71.457 87.0926C58.5832 98.6848 59.2845 114.817 61.8112 131.872C63.2716 141.685 59.0155 151.364 57.901 161.214C57.1613 167.753 57.8338 174.444 59.8609 180.716C60.3509 182.238 60.9466 183.742 61.6287 185.208C62.7624 186.083 64.0305 186.788 65.3948 187.235C70.5443 188.92 76.3952 186.769 80.2286 182.971C86.041 177.213 86.5502 168.819 91.45 162.509C94.3802 158.73 98.6267 155.913 103.325 154.904C106.418 154.238 109.685 154.39 112.701 155.333C115.219 154.838 117.717 154.495 120.118 154.381C120.051 156.161 119.984 157.969 119.974 159.768C122.309 162.052 124.24 164.802 126.354 167.324C129.274 170.77 132.983 174.053 137.517 174.472Z" fill="#654059"/>
<path d="M148.593 168.978C146.076 172.461 141.82 174.869 137.516 174.469C132.991 174.051 129.272 170.767 126.371 167.293C124.257 164.771 122.336 162.021 119.992 159.736C119.963 164.581 120.338 169.406 122.173 173.86C124.69 179.961 130.733 185.157 137.352 184.539C142.704 184.034 147.142 179.866 149.361 175.021C151.196 171.034 151.744 166.722 151.446 162.363C150.927 164.733 150.015 167.008 148.593 168.978Z" fill="#422C4F"/>
<path d="M125.948 125.019C115.131 122.897 105.369 116.13 99.4609 106.812C95.4739 119.356 85.8281 129.987 73.7324 135.365L75.0006 144.644C77.0854 159.92 90.5741 170.732 105.12 168.78C119.665 166.829 129.763 152.858 127.668 137.582L125.948 125.019Z" fill="#F2C9AD"/>
<path d="M88.1322 126.922C85.4326 127.931 83.5303 130.11 82.7617 132.661L95.9814 127.702C93.7141 126.294 90.8319 125.903 88.1322 126.922Z" fill="#654059"/>
<path d="M96.3751 133.48C95.8467 132.785 94.9725 132.157 93.9061 131.833C92.8396 131.5 91.5715 131.462 90.3898 131.814C89.2081 132.166 88.1705 132.88 87.4595 133.746C86.7486 134.603 86.3643 135.602 86.3066 136.468C87.5268 135.231 89.1312 134.089 90.9182 133.566C92.6955 133.023 94.665 133.109 96.3751 133.48Z" fill="#422C4F"/>
<path d="M114.171 123.192C117.043 123.515 119.426 125.152 120.809 127.437L106.754 125.876C108.608 123.953 111.308 122.878 114.171 123.192Z" fill="#654059"/>
<path d="M107.826 131.564C108.162 130.765 108.854 129.937 109.805 129.356C110.756 128.766 111.977 128.424 113.206 128.471C114.436 128.519 115.627 128.957 116.53 129.623C117.443 130.279 118.058 131.155 118.327 131.983C116.828 131.079 114.993 130.375 113.139 130.299C111.275 130.222 109.392 130.784 107.826 131.564Z" fill="#422C4F"/>
<path d="M107.567 143.104C104.945 143.636 102.313 144.169 99.6914 144.702C100.565 146.006 102.457 146.996 104.004 146.701C105.559 146.416 107.221 144.636 107.567 143.104Z" fill="#EBA58E"/>
<path d="M115.024 147.395C108.212 151.297 100.372 153.419 92.5039 153.495C93.8778 155.361 95.2708 157.236 97.1154 158.635C98.9697 160.034 101.208 161.014 103.533 161.052C106.713 161.1 109.759 159.339 111.68 156.826C113.611 154.323 114.879 150.545 115.024 147.395Z" fill="white"/>
<path d="M76.127 116.196C80.114 114.977 84.6103 111.979 88.1169 108.068C91.6525 104.175 94.1504 99.4165 94.9286 95.3525C91.6428 97.9127 88.1746 101.491 84.8408 105.165C81.5263 108.858 78.327 112.665 76.127 116.196Z" fill="#754E6A"/>
<path d="M72.752 102.53C76.0857 102.625 80.2361 101.53 83.9253 99.5221C87.6242 97.533 90.7946 94.6587 92.5143 91.832C89.3343 92.8409 85.7507 94.5921 82.244 96.4765C78.7469 98.3705 75.3267 100.426 72.752 102.53Z" fill="#754E6A"/>
<path d="M119.045 104.557C116.384 102.739 113.021 100.94 109.668 99.1317C106.315 97.3329 102.962 95.5151 99.9746 94.2969C101.406 97.1616 104.413 100.15 108.045 102.092C111.676 104.062 115.846 104.928 119.045 104.557Z" fill="#754E6A"/>
<path d="M119.663 94.0106C114.84 91.4124 106.578 90.2512 101.207 91.4219C106.04 94.0201 114.302 95.1813 119.663 94.0106Z" fill="#754E6A"/>
<path d="M376.344 196.322C384.328 197.664 390.889 203.299 393.368 210.932L414.427 275.745L442.289 246.241L444.614 254.112C445.555 257.3 448.111 259.775 451.358 260.632L460.543 263.058L421.96 302.384C414.283 310.208 400.968 307.2 397.47 296.864L375.518 231.975L376.344 196.322Z" fill="#F4D071"/>
<path d="M460.555 263.049L453.513 250.2L442.301 246.231L444.626 254.102C445.567 257.291 448.123 259.765 451.37 260.622L460.555 263.049Z" fill="#ECA85E"/>
<path d="M464.301 221.923L465.003 224.721C465.858 228.09 465.647 231.64 464.417 234.886L460.612 244.936C458.451 250.646 455.319 255.948 451.36 260.611C448.123 259.755 445.567 257.28 444.616 254.092L442.291 246.221L447.095 230.831L464.301 221.923Z" fill="#BD6C67"/>
<path d="M447.105 230.851C444.818 221.505 447.672 211.664 454.608 204.935L458.961 200.719L464.312 221.933L447.105 230.851Z" fill="#A64F5A"/>
<path d="M391.13 238.056L377.305 207.705L376.113 206.325L375.518 231.956L393.349 284.654L395.501 272.557C397.576 260.889 396.049 248.868 391.13 238.056Z" fill="#ECA85E"/>
<path d="M275.035 331.324L274.43 334.903C271.615 351.615 271.586 368.671 274.343 385.393L277.447 404.237H325.263L330.383 374.096L334.409 404.237H384.156L386.942 391.674C390.775 374.362 389.814 356.336 384.156 339.519L275.035 331.324Z" fill="#3E4870"/>
<path d="M301.668 369.51C303.119 364.742 305.242 359.793 306.702 355.024C324.207 361.772 343.969 363.381 361.81 357.546C362.54 361.353 363.463 365.684 364.193 369.5C371.917 368.406 379.718 365.132 385.05 359.507C386.165 358.336 387.183 357.08 388.106 355.767C387.26 350.275 385.944 344.841 384.157 339.52L275.027 331.316L274.422 334.895C273.451 340.672 272.817 346.487 272.51 352.321C279.85 361.163 290.331 367.397 301.668 369.51Z" fill="#422C4F"/>
<path d="M354.259 177.983C352.299 180.029 349.484 181.247 346.63 181.285C343.777 181.323 340.866 179.943 338.858 177.945C334.208 181.952 327.531 183.522 321.565 182.009C315.599 180.495 310.622 175.642 308.489 169.912C302.465 171.225 295.74 168.227 292.733 162.888C289.726 157.549 290.715 150.477 295.01 146.09C290.091 142.673 287.555 136.201 288.88 130.396C290.197 124.59 295.289 119.812 301.207 118.813C297.796 113.845 298.267 105.489 301.706 100.54C305.155 95.5904 311.794 93.0683 317.693 94.4674C318.404 89.899 321.017 85.4544 325.321 83.6651C329.625 81.8758 334.842 82.4564 338.627 85.1498C342.182 80.7718 347.754 78.2878 353.384 78.9635C359.014 79.6297 364.183 83.332 366.594 88.4143C371.177 87.2912 376.625 89.052 380.006 92.3069C383.398 95.5619 384.935 100.587 383.955 105.155C388.634 106.564 392.592 110.504 393.87 115.187C395.138 119.86 393.812 125.152 390.469 128.692C394.244 131.871 396.829 136.944 396.003 141.779C395.176 146.613 391.641 150.906 387.029 152.676C390.402 156.883 391.641 163.259 389.008 167.961C386.376 172.653 380.746 175.518 375.366 174.899C374.021 178.62 370.524 181.58 366.604 182.313C362.684 183.046 356.881 180.962 354.259 177.983Z" fill="#422C4F"/>
<path d="M332.621 183.819C335.907 186.836 340.297 188.949 344.755 188.521C348.521 188.159 351.932 186.018 354.516 183.286C355.198 182.563 355.823 181.801 356.418 181.012V174.644L329.998 173.103V181.021C330.805 182.001 331.67 182.944 332.621 183.819Z" fill="#422C4F"/>
<path d="M356.409 192.363V181.009C355.813 181.799 355.189 182.56 354.507 183.283C351.922 186.024 348.512 188.156 344.745 188.518C340.288 188.946 335.897 186.833 332.611 183.816C331.66 182.941 330.796 181.999 329.988 181.009V190.583L321.227 191.773L324.407 194.619C335.138 204.212 351.519 203.955 361.943 194.038L356.409 192.363Z" fill="#BD6C67"/>
<path d="M343.442 103.023C328.714 103.023 316.781 114.844 316.781 129.434V139.047C316.781 124.457 328.714 112.636 343.442 112.636C358.17 112.636 370.102 124.457 370.102 139.047V129.434C370.102 114.844 358.17 103.023 343.442 103.023Z" fill="#E36B85"/>
<path d="M328.41 132.404C332.608 133.794 337.316 133.604 341.313 131.729C345.309 129.854 348.528 126.408 350.103 122.316C350.103 126.085 351.89 130.387 354.907 132.68C357.924 134.974 362.045 135.783 365.725 134.803C365.85 138.248 367.541 141.56 370.096 143.92V139.048C370.096 124.457 358.164 112.637 343.436 112.637C328.708 112.637 316.775 124.457 316.775 139.048V142.988C322.088 141.646 326.7 137.582 328.41 132.404Z" fill="#422C4F"/>
<path d="M365.725 134.8C362.045 135.781 357.933 134.972 354.907 132.678C351.89 130.384 350.103 126.082 350.103 122.313C348.528 126.406 345.309 129.851 341.313 131.726C337.316 133.601 332.599 133.782 328.41 132.402C326.7 137.579 322.088 141.653 316.775 142.995V155.843C316.775 170.434 328.708 182.254 343.436 182.254C358.164 182.254 370.096 170.434 370.096 155.843V143.918C367.541 141.558 365.85 138.246 365.725 134.8Z" fill="#BD6C67"/>
<path d="M332.632 136.057C329.539 136.095 326.82 137.599 325.119 139.883L340.251 139.693C338.483 137.447 335.726 136.019 332.632 136.057Z" fill="#422C4F"/>
<path d="M335.051 145.707C335.051 147.002 333.995 148.058 332.679 148.058C331.373 148.058 330.307 147.011 330.307 145.707C330.307 144.413 331.363 143.356 332.679 143.356C333.985 143.366 335.051 144.413 335.051 145.707Z" fill="#422C4F"/>
<path d="M358.416 136.057C361.509 136.095 364.228 137.599 365.929 139.883L350.797 139.693C352.565 137.447 355.322 136.019 358.416 136.057Z" fill="#422C4F"/>
<path d="M356 145.707C356 147.002 357.056 148.058 358.372 148.058C359.688 148.058 360.744 147.011 360.744 145.707C360.744 144.413 359.688 143.356 358.372 143.356C357.056 143.356 356 144.413 356 145.707Z" fill="#422C4F"/>
<path d="M351.233 155.005C347.025 154.52 342.769 154.529 338.561 155.043C340.069 157.604 342.99 159.164 345.574 158.612C347.611 158.184 349.551 156.442 351.233 155.005Z" fill="#A64F5A"/>
<path d="M358.888 161.488C349.838 162.658 340.615 162.573 331.584 161.24C332.564 163.953 333.995 166.751 336.176 168.654C338.357 170.558 341.163 171.814 344.074 171.957C347.225 172.119 350.357 170.977 352.883 169.111C355.42 167.265 357.38 164.229 358.888 161.488Z" fill="white"/>
<path d="M301.404 190.345C293.814 189.926 286.907 194.628 284.572 201.795L262.494 269.74L234.633 240.236L232.308 248.106C231.366 251.295 228.811 253.769 225.564 254.626L216.379 257.053L254.962 296.379C262.638 304.202 275.954 301.195 279.451 290.859L301.404 225.969V190.345Z" fill="#F4D071"/>
<path d="M301.404 205.61L298.358 209.779L282.631 235.428C278.605 242.005 276.847 249.695 277.625 257.347L280.671 287.241L301.404 225.959V205.61Z" fill="#ECA85E"/>
<path d="M216.379 257.043L223.421 244.194L234.633 240.226L232.308 248.096C231.366 251.285 228.811 253.759 225.564 254.616L216.379 257.043Z" fill="#ECA85E"/>
<path d="M212.635 215.917L211.933 218.715C211.078 222.084 211.29 225.634 212.519 228.88L216.324 238.94C218.486 244.65 221.618 249.951 225.576 254.615C228.813 253.758 231.369 251.284 232.32 248.095L234.645 240.225L229.841 224.835L212.635 215.917Z" fill="#BD6C67"/>
<path d="M229.834 224.845C232.12 215.499 229.267 205.658 222.33 198.929L217.978 194.713L212.627 215.927L229.834 224.845Z" fill="#A64F5A"/>
<path d="M321.225 191.773L316.527 217.48C313.606 233.441 312.549 249.677 313.356 265.886C314.25 283.826 312.847 301.795 309.187 319.383L303.451 346.926C322.868 354.293 344.1 355.559 364.266 350.553L365.399 350.267L361.797 318.793C359.866 301.919 360.164 284.863 362.69 268.065C364.852 253.684 365.38 239.104 364.275 224.609L361.941 194.029C351.517 203.946 335.136 204.203 324.405 194.61L321.225 191.773Z" fill="#6BC5FF"/>
<path d="M355.778 204.668C353.308 205.762 350.417 206.733 347.275 207.257C344.143 207.79 340.761 207.856 337.476 207.342C334.19 206.819 331.01 205.705 328.195 204.24C325.37 202.774 322.93 200.956 320.932 199.157C322.267 201.489 324.381 203.916 327.186 205.867C329.972 207.818 333.431 209.284 337.072 209.855C340.713 210.426 344.46 210.112 347.717 209.112C351.003 208.123 353.779 206.467 355.778 204.668Z" fill="#5DABFF"/>
<path d="M371.83 275.098C368.045 271.786 363.039 268.54 357.169 266.17C351.318 263.781 344.632 262.23 337.858 261.868C331.047 261.469 324.36 262.449 318.298 263.563C312.216 264.705 306.644 265.942 301.639 266.741C306.654 267.531 312.572 267.465 318.73 267.113C324.898 266.779 331.306 266.256 337.599 266.627C343.921 266.96 350.194 268.017 356.007 269.549C361.838 271.072 367.171 273.118 371.83 275.098Z" fill="#5DABFF"/>
<path d="M341.636 243.308C338.668 238.387 333.71 232.62 327.917 227.775C322.143 222.902 315.581 219.019 310.201 216.916C314.649 220.59 320.491 225.101 326.14 229.86C331.799 234.59 337.255 239.558 341.636 243.308Z" fill="#5DABFF"/>
<path d="M371.64 341.689C365.741 342.708 359.045 343.574 351.935 343.764C344.826 343.974 337.313 343.526 329.925 342.327C322.537 341.109 315.274 339.139 308.616 336.674C301.939 334.228 295.876 331.277 290.631 328.432C294.714 332.753 300.248 337.073 306.867 340.528C313.468 344.002 321.125 346.591 329.003 347.885C336.89 349.17 344.97 349.151 352.349 347.961C359.727 346.81 366.375 344.488 371.64 341.689Z" fill="#5DABFF"/>
<path d="M376.751 326.512C369.498 328.606 360.236 331.204 350.773 332.869C341.319 334.592 331.731 335.372 324.189 335.924C327.859 336.81 332.202 337.4 336.871 337.504C341.54 337.619 346.517 337.247 351.407 336.372C356.297 335.496 361.091 334.116 365.424 332.393C369.767 330.671 373.629 328.606 376.751 326.512Z" fill="#5DABFF"/>
<path d="M321.224 191.772L316.526 217.479C313.605 233.439 312.548 249.676 313.355 265.884C314.249 283.825 312.846 301.793 309.186 319.382L302.211 352.854L294.4 350.237C284.831 347.03 276.905 340.244 272.332 331.326L270.189 327.157L283.14 284.291C285.148 277.657 285.436 270.624 283.986 263.848L283.419 261.211C281.689 253.14 282.583 244.737 285.984 237.208L298.368 209.77L301.413 190.335L321.224 191.772Z" fill="#F4D071"/>
<path d="M299.475 351.941L297.083 362.534L293.797 361.677C282.96 358.86 273.881 351.532 268.895 341.596L272.315 331.336C276.897 340.254 284.814 347.04 294.383 350.247L299.475 351.941Z" fill="#DF8D6D"/>
<path d="M361.933 194.026L364.268 224.606C365.372 239.101 364.844 253.682 362.682 268.062C360.165 284.861 359.858 301.916 361.789 318.79L365.93 354.995L371.031 354.319C378.15 353.377 384.626 349.769 389.141 344.249L390.275 342.86L385.634 302.363C384.664 293.902 385.346 285.346 387.633 277.142C391.014 265.045 390.861 252.254 387.21 240.243L377.314 207.712L376.354 196.32L361.933 194.026Z" fill="#F4D071"/>
<path d="M367.865 354.74L368.509 365.228L372.746 364.229C379.98 362.535 386.235 358.061 390.145 351.799L390.279 351.58L389.146 344.242C384.63 349.772 378.145 353.369 371.036 354.312L367.865 354.74Z" fill="#DF8D6D"/>
</svg>
