<svg width="175" height="274" viewBox="0 0 175 274" fill="none" xmlns="http://www.w3.org/2000/svg">
<path d="M54.8759 274H0.353516C0.353516 274 2.2403 267.765 5.52829 265.89C8.81628 264.001 24.1186 253.947 27.4205 251.905C34.7179 250.808 42.9587 252.461 46.2467 256.697C49.5485 260.946 54.8759 274 54.8759 274Z" fill="#313145"/>
<path d="M119.832 274H174.354C174.354 274 172.468 267.765 169.18 265.89C165.878 264.001 150.589 253.947 147.287 251.905C139.99 250.808 131.749 252.461 128.461 256.697C125.173 260.946 119.832 274 119.832 274Z" fill="#313145"/>
<path d="M147.286 251.905C147.286 251.905 134.662 254.683 130.042 257.599C125.422 260.515 124.923 264.834 119.831 273.583C120.067 271.153 114.129 224.172 113.394 215.423C112.672 206.674 108.219 173.066 108.219 173.066C108.219 173.066 99.673 172.608 89.4206 172.191C88.283 172.149 87.1176 172.094 85.9384 172.052C78.0999 171.747 69.7343 171.497 63.6577 171.497C62.6172 172.858 58.7465 232.963 58.7465 232.963L54.8759 274C54.8759 274 46.8154 264.473 43.3748 259.654C39.9204 254.835 37.992 254.002 27.4204 251.905C26.9487 241.226 31.0275 161.025 33.2195 157.359C39.0741 148.457 67.1538 141.722 67.1538 141.722L85.9384 141.402L88.8934 141.347L109.898 140.986C109.898 140.986 130.292 150.221 137.825 157.276C145.344 164.331 147.286 251.905 147.286 251.905Z" fill="#424862"/>
<path d="M115.447 159.165C115.447 159.165 108.774 164.581 108.233 173.066C108.233 173.066 78.8351 171.497 63.6714 171.497C63.6714 171.497 61.313 161.289 55.9023 159.165C75.4361 159.165 115.447 159.165 115.447 159.165Z" fill="#313145"/>
<path d="M89.4217 172.191C88.2841 172.149 87.1187 172.094 85.9395 172.052V141.402L88.8945 141.347L89.4217 172.191Z" fill="#313145"/>
<path d="M58.1217 60.2995C57.3032 60.0217 50.6023 64.2852 47.7721 69.3124C44.942 74.3397 34.7589 98.0595 34.634 100.504C34.5092 102.948 43.9015 106.698 50.089 103.726C56.2765 100.768 58.968 92.2546 61.5484 85.5469C64.1289 78.8393 65.4607 62.7437 58.1217 60.2995Z" fill="#B34655"/>
<path d="M114.808 60.2995C115.627 60.0217 122.327 64.2852 125.158 69.3124C127.988 74.3397 138.171 98.0595 138.296 100.504C138.42 102.948 129.028 106.698 122.841 103.726C116.653 100.768 113.962 92.2546 111.381 85.5469C108.815 78.8393 107.469 62.7437 114.808 60.2995Z" fill="#B34655"/>
<path d="M113.435 141.18C113.199 141.18 59.9392 142.749 59.9392 142.749C59.9392 142.749 57.0674 66.7848 59.8975 62.313C59.9114 62.2992 59.9253 62.2714 59.9392 62.2575C60.7299 61.1882 62.6722 60.0911 64.7671 59.1328C68.069 57.633 71.7038 56.522 71.7038 56.522C71.7038 56.522 78.2104 63.7435 86.7703 63.5907C95.3163 63.4379 102.544 57.383 102.544 57.383C102.544 57.383 105.153 57.8274 107.955 58.7301C109.648 59.2717 111.409 59.98 112.714 60.8549C113.116 61.1187 113.463 61.3965 113.754 61.702C116.654 64.6184 113.671 141.18 113.435 141.18Z" fill="#5884C1"/>
<path d="M107.942 58.7438C101.394 63.4933 94.2626 69.9926 86.8958 70.6314C79.5013 71.2703 71.9264 64.2154 64.7539 59.1465C68.0558 57.6466 71.6906 56.5356 71.6906 56.5356C71.6906 56.5356 78.1972 63.7571 86.7571 63.6044C95.3031 63.4516 102.531 57.3967 102.531 57.3967C102.531 57.3967 105.139 57.8411 107.942 58.7438Z" fill="#41669F"/>
<path d="M84.0921 75.3812V141.763C84.0921 143.013 83.0933 144.041 81.8447 144.083L60.0079 144.721C58.6206 144.763 57.5107 143.583 57.6356 142.208L57.8853 139.139C57.8853 139.139 53.8065 136.944 53.3348 132.695C52.8632 128.459 56.9419 119.502 56.9419 119.502C56.9419 119.502 53.6539 63.8824 56.4286 61.1187C59.231 58.3135 67.0001 56.6886 70.9124 57.0081C74.8386 57.3136 82.9961 65.0072 84.0921 75.3812Z" fill="#B34655"/>
<path d="M121.038 132.709C120.567 136.944 116.488 139.153 116.488 139.153L116.738 142.222C116.849 143.597 115.739 144.777 114.365 144.735L92.5424 144.097C91.2938 144.055 90.2949 143.027 90.2949 141.777V75.3952C91.3909 65.0351 99.5485 57.3276 103.475 57.022C107.401 56.7026 115.003 59.7856 116.946 61.466C119.887 64.0213 117.445 119.543 117.445 119.543C117.445 119.543 121.51 128.459 121.038 132.709Z" fill="#B34655"/>
<path d="M57.8863 139.152C57.8863 139.152 72.9944 135.875 84.0931 135.194V141.777C84.0931 143.027 83.0942 144.055 81.8456 144.096L60.0089 144.721C58.6216 144.763 57.5117 143.582 57.6366 142.208L57.8863 139.152Z" fill="#9F374B"/>
<path d="M114.365 144.721L92.5424 144.082C91.2938 144.041 90.2949 143.013 90.2949 141.763V135.125C101.324 135.639 116.502 139.152 116.502 139.152L116.751 142.221C116.849 143.596 115.739 144.763 114.365 144.721Z" fill="#9F374B"/>
<path d="M70.9129 41.0237C66.8203 42.2458 66.3763 48.0924 69.0262 51.3698C71.676 54.6473 82.0255 64.3824 87.0061 64.3824C91.9866 64.3824 106.998 50.2311 106.998 45.6899C106.998 41.1487 104.611 40.9542 102.336 40.1349C98.7846 38.8711 75.949 39.5099 70.9129 41.0237Z" fill="#9F374B"/>
<path d="M103.779 59.0494C103.779 59.0494 96.0928 65.9654 86.2843 65.9654C76.4758 65.9654 71.1484 58.2717 71.1484 58.2717C71.1484 58.2717 76.9475 56.3136 78.5985 54.0361C79.3476 53.0084 80.0413 48.856 80.1661 46.5785C80.3049 43.8149 80.1661 41.1624 80.1661 41.1624L92.9574 40.9263C92.9574 40.9263 93.1239 43.176 93.4707 45.8563C93.8592 48.9393 94.4696 52.5779 95.3159 53.9666C96.8836 56.5358 103.779 59.0494 103.779 59.0494Z" fill="#C0735E"/>
<path d="M93.4567 45.8285C91.2509 46.9534 88.4484 48.1477 86.2981 48.2171C84.2725 48.2866 81.9834 47.4394 80.166 46.5506C80.3047 43.787 80.166 41.1345 80.166 41.1345L92.9573 40.8984C92.9573 40.8984 93.1238 43.1621 93.4567 45.8285Z" fill="#39393B"/>
<path d="M111.701 56.2164C111.382 58.4106 98.6739 64.7017 95.5385 66.8959C92.4031 69.0901 90.0447 75.6867 90.0447 75.6867C90.0447 75.6867 89.573 65.9515 90.6689 62.9657C91.7649 59.9799 101.338 50.2448 103.058 48.3561C104.778 46.4674 105.888 42.8567 101.338 42.0234C97.9386 41.3985 75.6025 41.9123 72.6197 42.8567C69.6369 43.801 68.5409 46.3146 70.2196 48.4116C71.7179 50.0781 82.664 60.2993 83.6074 63.4379C84.5508 66.5765 84.7034 76.1588 84.0791 75.3811C83.4548 74.5895 80.7772 68.7846 78.7517 66.1182C76.7123 63.4518 63.6852 58.8967 62.4366 55.9109C61.8956 54.6193 62.3256 53.1056 62.9916 51.8141C63.8517 50.1476 65.1142 48.8422 65.1142 48.8422C65.1142 48.8422 63.824 43.5094 64.809 41.7179C67.0564 37.5794 77.9887 36.8989 87.0896 36.8989C100.602 36.8989 106.332 38.4682 108.746 40.9818C110.23 42.5234 108.593 48.2033 108.593 48.2033C108.593 48.2033 109.634 49.9532 110.522 51.8974C111.215 53.4945 111.854 55.2304 111.701 56.2164Z" fill="#CB585D"/>
<path d="M79.224 62.3409C78.9605 62.1882 66.5438 55.2861 62.9922 51.8142C63.8523 50.1477 65.1148 48.8423 65.1148 48.8423C65.1148 48.8423 65.7391 51.2032 69.8179 54.0223C73.8273 56.7998 79.0576 62.1743 79.224 62.3409Z" fill="#B34655"/>
<path d="M110.494 51.8977C109.356 53.3281 107.705 55.0363 105.43 56.5361C100.408 59.8274 96.6483 62.1883 93.0273 65.1741C93.9707 62.0355 97.5778 59.8413 101.657 56.2167C105.735 52.6059 108.566 48.2036 108.566 48.2036C108.566 48.2036 109.606 49.9534 110.494 51.8977Z" fill="#B34655"/>
<path d="M66.8352 24.0947C66.752 23.928 65.767 20.0257 66.2803 15.6928C66.9878 9.72116 69.4989 7.37417 71.7464 5.06885C68.611 6.0132 68.0283 5.63824 68.3474 4.86054C68.6665 4.06895 73.0505 2.29135 76.0888 1.19424C79.127 0.0971324 84.3573 -0.486142 87.6453 0.513757C90.9471 1.51366 92.8201 3.18015 92.8201 3.18015C92.8201 3.18015 96.5381 1.45811 101.394 3.97174C106.263 6.48537 108.344 12.9708 108.192 13.4986C108.039 14.0263 106.513 12.9292 106.513 12.9292C106.513 12.9292 108.969 17.4287 106.36 22.8726C103.752 28.3165 92.7091 32.9271 85.1203 33.191C77.5593 33.441 70.0261 30.7468 66.8352 24.0947Z" fill="#424862"/>
<path d="M103.24 24.0254C103.393 23.7893 104.96 19.8592 105.043 16.8733C105.127 13.8875 102.685 10.5962 102.685 10.5962C102.685 10.5962 105.279 11.6933 105.279 10.9156C105.279 10.124 98.7727 3.45804 93.9864 5.65226C90.1434 3.52748 85.2045 -0.0832648 77.4354 3.69413C74.3694 4.944 79.0031 4.31907 79.0031 4.31907C79.0031 4.31907 71.8583 6.98546 69.8189 14.0542C67.7795 21.1229 70.9149 25.2892 72.1358 27.6084C73.3428 29.9137 95.8593 35.0937 103.24 24.0254Z" fill="#313145"/>
<path d="M100.965 23.0124C100.785 23.8595 100.535 24.9844 100.243 26.276C99.1336 31.1644 97.4133 38.2053 96.4422 39.5802C94.93 41.7327 89.5055 44.8435 86.4533 45.1629C84.9411 45.3157 77.8796 42.9409 75.7292 39.1636C74.1615 36.4138 72.6077 28.8452 71.8724 24.9289C71.803 24.5817 71.7475 24.2623 71.7059 23.9845C71.4978 22.8319 72.0111 21.6653 73.01 21.0682C76.2703 19.1378 82.9572 18.124 82.9572 18.124C82.9572 18.124 81.0288 19.3322 81.1814 19.8461C81.334 20.3738 87.7158 18.1657 89.6026 17.1797C91.4894 16.1798 93.3623 11.1108 93.3623 11.1108C93.3623 11.1108 93.723 13.3606 94.5693 15.5548C95.4017 17.7491 99.0087 21.2626 99.4388 21.2626C99.8411 21.2626 99.203 19.5128 99.1752 19.4294L100.174 20.3738C100.868 21.0404 101.173 22.0403 100.965 23.0124Z" fill="#C0735E"/>
<path opacity="0.1" d="M100.965 23.0117C100.785 23.8588 100.535 24.9837 100.243 26.2752C99.9937 25.1087 99.7163 23.9838 99.4666 23.7199C98.9116 23.095 96.567 21.0535 95.1519 19.7064C93.7369 18.3732 93.3484 14.9986 93.3484 14.9986C93.3484 14.9986 92.405 17.8177 90.6847 18.9982C88.9644 20.1786 81.5838 22.4562 80.1132 22.7339C78.6704 23.0117 79.586 20.9702 79.6276 20.8869C79.5582 20.9008 78.3513 21.2479 75.313 22.6089C73.7453 23.3172 72.6354 24.1782 71.8724 24.9142C71.803 24.5671 71.7475 24.2476 71.7059 23.9699C71.4978 22.8172 72.0111 21.6507 73.01 21.0535C76.2703 19.1232 82.9572 18.1094 82.9572 18.1094C82.9572 18.1094 81.0288 19.3176 81.1814 19.8314C81.334 20.3591 87.7158 18.151 89.6026 17.165C91.4894 16.1651 93.3623 11.0962 93.3623 11.0962C93.3623 11.0962 93.723 13.346 94.5693 15.5402C95.4017 17.7344 99.0087 21.2479 99.4388 21.2479C99.8411 21.2479 99.203 19.4981 99.1752 19.4148L100.174 20.3591C100.868 21.0396 101.173 22.0395 100.965 23.0117Z" fill="black"/>
<path d="M85.037 24.5253C84.6069 24.3725 84.2878 33.8715 84.8427 34.6215C85.3977 35.3714 87.9365 35.6075 87.8672 35.3297C87.7839 35.052 86.022 34.5798 85.7445 34.1909C85.467 33.8021 85.467 24.6919 85.037 24.5253Z" fill="#39393B"/>
<path d="M82.0549 37.9546C81.9717 38.2324 84.2608 39.4961 86.9939 39.2462C89.9766 38.9684 92.0576 36.0243 92.016 35.5938C91.2252 35.9132 89.0749 37.7185 86.8829 38.0657C84.677 38.4268 82.1382 37.6769 82.0549 37.9546Z" fill="#39393B"/>
<path d="M90.1415 26.6918C88.5183 28.7472 92.2502 30.7053 92.9439 28.275C92.9578 28.2195 92.9717 28.1778 92.9855 28.1222C93.2769 26.5668 91.182 25.3725 90.1415 26.6918Z" fill="#303450"/>
<path d="M91.9455 24.6644C92.8611 24.8727 94.1652 25.6088 94.1652 25.6088C94.1652 25.6088 93.2635 23.6645 91.8484 23.5534C90.2529 23.4145 89.3789 25.0255 89.3789 25.0255C89.3789 25.0255 91.0298 24.4561 91.9455 24.6644Z" fill="#303450"/>
<path d="M81.957 26.6918C83.5802 28.7472 79.8483 30.7053 79.1546 28.275C79.1407 28.2195 79.1268 28.1778 79.113 28.1222C78.8355 26.5668 80.9304 25.3725 81.957 26.6918Z" fill="#303450"/>
<path d="M80.167 24.6644C79.2514 24.8727 77.9473 25.6088 77.9473 25.6088C77.9473 25.6088 78.849 23.6645 80.2641 23.5534C81.8596 23.4145 82.7336 25.0255 82.7336 25.0255C82.7336 25.0255 81.0826 24.4561 80.167 24.6644Z" fill="#303450"/>
<path d="M80.1804 21.6367C77.3364 21.6367 75.0195 23.9559 75.0195 26.8029C75.0195 29.6498 77.3364 31.969 80.1804 31.969C83.0245 31.969 85.3413 29.6498 85.3413 26.8029C85.3413 23.9559 83.0384 21.6367 80.1804 21.6367ZM80.1804 30.8858C77.9329 30.8858 76.1017 29.0665 76.1017 26.8029C76.1017 24.5531 77.9191 22.7199 80.1804 22.7199C82.4279 22.7199 84.2592 24.5392 84.2592 26.8029C84.2592 29.0526 82.4279 30.8858 80.1804 30.8858Z" fill="#424862"/>
<path d="M75.9636 25.3307L71.7183 22.9281C71.3715 22.7337 70.9553 22.9698 70.9414 23.3725C70.9414 23.567 71.0385 23.7475 71.205 23.8447L75.4364 26.1778L75.9636 25.3307Z" fill="#424862"/>
<path d="M95.7754 26.1778L100.021 23.7753C100.367 23.5809 100.784 23.817 100.798 24.2197C100.798 24.4141 100.7 24.5947 100.534 24.6919L96.3026 27.025L95.7754 26.1778Z" fill="#424862"/>
<path d="M91.4734 21.6367C88.6294 21.6367 86.3125 23.9559 86.3125 26.8029C86.3125 29.6498 88.6294 31.969 91.4734 31.969C94.3174 31.969 96.6343 29.6498 96.6343 26.8029C96.6343 23.9559 94.3313 21.6367 91.4734 21.6367ZM91.4734 30.8858C89.2259 30.8858 87.3946 29.0665 87.3946 26.8029C87.3946 24.5531 89.212 22.7199 91.4734 22.7199C93.7209 22.7199 95.5522 24.5392 95.5522 26.8029C95.5522 29.0526 93.7209 30.8858 91.4734 30.8858Z" fill="#424862"/>
<path d="M84.8282 27.0806H86.8676V26.1641H84.6895L84.8282 27.0806Z" fill="#424862"/>
<path d="M99.9654 25.8863C101.422 22.8588 103.919 19.8174 106.555 21.3034C109.025 22.6783 108.276 27.0667 104.877 30.0942C101.269 33.2883 98.3145 32.7189 98.3145 32.7189C98.3145 32.7189 98.5087 28.9137 99.9654 25.8863Z" fill="#C0735E"/>
<path opacity="0.1" d="M105.459 27.2472C105.459 27.2472 107.554 24.2614 105.916 23.1782C104.266 22.095 102.046 24.7475 101.144 26.8861C103.031 27.1222 102.573 30.1497 99.6596 30.6358C99.4099 31.344 99.1602 31.5801 99.1602 31.5801C99.1602 31.5801 102.573 31.5523 103.336 28.6776C103.78 26.9972 102.143 26.539 102.143 26.539C102.143 26.539 103.835 23.9142 104.848 24.2892C106.208 24.803 105.459 27.2472 105.459 27.2472Z" fill="black"/>
<path d="M72.7596 25.8863C71.3029 22.8588 68.8057 19.8174 66.1697 21.3034C63.7003 22.6783 64.4494 27.0667 67.8484 30.0942C71.4555 33.2883 74.4105 32.7189 74.4105 32.7189C74.4105 32.7189 74.2163 28.9137 72.7596 25.8863Z" fill="#C0735E"/>
<path opacity="0.1" d="M67.2648 27.2472C67.2648 27.2472 65.1699 24.2614 66.8069 23.1782C68.4579 22.095 70.6776 24.7475 71.5794 26.8861C69.6926 27.1222 70.1504 30.1497 73.0638 30.6358C73.3135 31.344 73.5633 31.5801 73.5633 31.5801C73.5633 31.5801 70.1504 31.5523 69.3874 28.6776C68.9434 26.9972 70.5805 26.539 70.5805 26.539C70.5805 26.539 68.8879 23.9142 67.8752 24.2892C66.5017 24.803 67.2648 27.2472 67.2648 27.2472Z" fill="black"/>
<path d="M124.493 93.4908C124.673 93.5047 122.328 81.492 121.524 80.131C120.719 78.77 115.78 78.9506 114.851 78.7145C113.921 78.4645 112.381 75.437 110.827 75.687C109.287 75.937 109.842 79.4644 111.452 80.4504C113.061 81.4364 118.194 82.5474 118.194 82.5474C118.194 82.5474 120.844 93.2963 124.493 93.4908Z" fill="#AF604E"/>
<path d="M48.4379 93.4909C48.2575 93.5048 51.1016 82.0893 51.8785 80.7284C52.9745 78.798 56.9562 78.423 57.8857 78.1731C58.8152 77.9231 60.5632 75.4233 62.1032 75.6733C63.6431 75.9233 63.0882 79.4507 61.4789 80.4367C59.8696 81.4227 54.7364 82.5337 54.7364 82.5337C54.7364 82.5337 52.0866 93.2965 48.4379 93.4909Z" fill="#AF604E"/>
<path d="M57.8867 77.2145V71.9234C57.8867 71.9234 62.6453 68.7015 70.4005 68.6182C77.9338 68.5487 87.8116 75.6036 87.8116 75.6036C87.8116 75.6036 93.8743 70.618 100.436 69.8681C107.345 69.0765 111.022 70.1875 113.852 72.3817C113.852 74.4232 113.824 76.784 113.824 76.784L87.6451 87.9357L57.8867 77.2145Z" fill="white"/>
<path d="M57.8867 77.2143V76.1033C57.8867 75.2562 58.4139 74.4924 59.2047 74.2007C61.0221 73.5341 64.6847 72.5065 69.9288 72.3954C77.6979 72.2426 83.1502 75.8256 85.3838 77.742C87.6174 79.6585 89.0741 78.6031 90.4892 77.1865C91.9043 75.77 97.079 73.423 100.769 73.1869C104.099 72.9786 108.4 73.0203 112.548 74.4785C113.505 74.8118 114.06 75.8117 113.852 76.7977V76.8116C113.852 76.8116 90.0175 87.4077 89.7123 87.491C89.3932 87.5744 63.4361 80.7417 63.4361 80.7417L57.8867 77.2143Z" fill="#DD9C35"/>
<path d="M113.852 76.7981C113.852 76.7981 113.727 92.7687 113.727 112.558C108.927 108.767 99.6179 107.559 92.2511 111.156C91.7516 111.406 91.2522 111.67 90.7666 111.961C89.7678 112.558 88.6163 112.878 87.4509 112.878H87.2428C86.0774 112.878 84.9398 112.544 83.9271 111.975L83.7051 111.85C72.537 105.642 57.8867 111.267 57.8867 111.267V77.2147C67.0293 72.854 77.6285 73.9511 83.7051 78.3396C84.2323 78.7145 84.7178 79.1173 85.1757 79.5478C85.8416 80.1727 86.7295 80.506 87.6451 80.506C88.4498 80.506 89.2544 80.2422 89.8787 79.7422C90.6557 79.1312 91.4464 78.5895 92.2511 78.1174C102.226 72.2569 113.852 76.7981 113.852 76.7981Z" fill="#F1CC32"/>
<path d="M92.2511 78.1172V111.156C91.7516 111.405 91.2522 111.669 90.7666 111.961C89.7677 112.558 88.6163 112.878 87.4509 112.878H87.2428C86.0774 112.878 84.9398 112.544 83.9271 111.975L83.7051 111.85V78.3394C84.2323 78.7143 84.7178 79.1171 85.1757 79.5476C85.8416 80.1725 86.7295 80.5058 87.6451 80.5058C88.4498 80.5058 89.2544 80.242 89.8787 79.742C90.6418 79.1171 91.4464 78.5894 92.2511 78.1172Z" fill="#DD9C35"/>
<path d="M128.654 93.3239C129.056 93.3795 134.564 94.5599 135.965 95.6292C137.366 96.6986 139.905 105.489 139.739 106.642C139.572 107.795 132.677 110.586 128.487 110.336C124.298 110.086 120.607 106.059 119.941 103.267C119.289 100.476 122.661 92.5046 128.654 93.3239Z" fill="#B34655"/>
<path d="M123.188 91.602C123.354 91.352 124.867 89.9216 125.879 90.3383C126.046 90.4077 126.226 90.5327 126.42 90.6716C127.489 91.5048 128.682 92.2131 130 92.5047C130.25 92.5603 130.485 92.6852 130.68 92.9491C131.443 93.9629 132.192 96.7404 132.358 98.6708C132.525 100.615 129.917 103.892 128.238 104.74C126.559 105.587 119.706 105.128 118.804 104.67C118.485 104.503 116.889 101.448 118.055 98.2541C119.234 95.06 123.188 91.602 123.188 91.602Z" fill="#9F374B"/>
<path d="M126.768 99.9066C124.881 101.795 121.024 101.059 118.555 100.073C116.085 99.0872 114.615 95.6292 114.282 94.8099C113.949 93.9905 111.507 94.2683 109.981 94.1572C108.261 94.0322 105.541 94.6571 105.333 93.6711C105 92.1018 107.636 91.7824 109.523 91.6158C111.049 91.4769 112.728 91.5324 114.615 91.0464C113.879 90.3937 107.525 90.3381 107.525 90.3381C107.525 90.3381 106.457 90.3659 106.124 89.5465C105.791 88.7272 106.318 87.6856 106.318 87.6856C106.318 87.6856 106.083 87.4356 105.958 87.0746C105.805 86.644 105.805 86.0469 106.568 85.5469C108.705 84.1582 112.312 84.3665 114.129 84.4498C114.878 84.4915 115.447 84.5331 115.877 84.5609C116.307 84.5887 116.446 83.9776 116.044 83.811C114.67 83.2416 112.159 82.1862 111.008 82.1306C109.454 82.0473 106.832 82.1862 106.207 82.2139C105.361 82.2417 105.125 81.7834 105.652 81.1585C106.97 79.6031 110.744 79.5198 113.047 79.8392C115.35 80.1725 120.414 81.589 120.983 83.2416C121.551 84.8803 123.993 91.463 124.16 92.0324C124.326 92.6018 125.88 94.671 126.948 95.5737C128.003 96.4486 128.655 98.0179 126.768 99.9066Z" fill="#C0735E"/>
<path opacity="0.1" d="M116.334 87.6025C116.334 87.6025 110.951 87.283 109.009 87.3664C107.067 87.4497 106.318 87.6441 106.318 87.6441C106.318 87.6441 106.082 87.3941 105.957 87.0331C107.719 86.4915 110.188 86.3387 111.756 86.5748C113.463 86.8525 116.334 87.6025 116.334 87.6025Z" fill="black"/>
<path d="M44.2762 93.3239C43.8739 93.3795 38.3662 94.5599 36.965 95.6292C35.5637 96.6986 33.0249 105.489 33.1914 106.642C33.3579 107.795 40.2529 110.586 44.4427 110.336C48.6325 110.086 52.3228 106.059 52.9887 103.267C53.6408 100.476 50.2695 92.5046 44.2762 93.3239Z" fill="#B34655"/>
<path d="M49.7424 91.602C49.5759 91.352 48.0637 89.9216 47.0509 90.3383C46.8844 90.4077 46.7041 90.5327 46.5099 90.6716C45.4416 91.5048 44.2485 92.2131 42.9305 92.5047C42.6808 92.5603 42.445 92.6852 42.2507 92.9491C41.4877 93.9629 40.7385 96.7404 40.572 98.6708C40.4056 100.615 43.0138 103.892 44.6924 104.74C46.3711 105.587 53.2246 105.128 54.1263 104.67C54.4454 104.503 56.0409 101.448 54.8755 98.2541C53.6963 95.06 49.7424 91.602 49.7424 91.602Z" fill="#9F374B"/>
<path d="M46.1636 99.9068C48.0503 101.796 51.9071 101.059 54.3766 100.073C56.8461 99.0875 58.3166 95.6295 58.6496 94.8101C58.9826 93.9907 62.6729 93.9074 63.0891 93.8241C63.5053 93.7408 67.4037 94.6574 67.6118 93.6575C67.9448 92.0882 65.3088 91.7687 63.422 91.6021C61.896 91.4632 60.2173 91.5188 58.3305 91.0327C59.0658 90.38 65.4198 90.3245 65.4198 90.3245C65.4198 90.3245 66.4881 90.3522 66.821 89.5329C67.154 88.7135 66.6268 87.6719 66.6268 87.6719C66.6268 87.6719 66.8626 87.422 66.9875 87.0609C67.1401 86.6304 67.1401 86.0332 66.3771 85.5333C64.2406 84.1445 60.6335 84.3528 58.8161 84.4362C58.0669 84.4778 57.4981 84.5195 57.068 84.5473C56.638 84.575 56.4992 83.964 56.9016 83.7973C58.275 83.2279 60.7861 82.1725 61.9376 82.1169C63.4914 82.0336 66.1135 82.1725 66.7378 82.2003C67.5841 82.228 67.8199 81.7698 67.2927 81.1448C65.9748 79.5894 62.2012 79.5061 59.8982 79.8255C57.5952 80.1588 52.5314 81.5753 51.9626 83.2279C51.3938 84.8667 48.9521 91.4493 48.7856 92.0187C48.6191 92.5881 47.0653 94.6573 45.9971 95.56C44.9288 96.4627 44.2768 98.0181 46.1636 99.9068Z" fill="#C0735E"/>
<path opacity="0.1" d="M56.6094 87.6025C56.6094 87.6025 61.9922 87.283 63.9345 87.3664C65.8768 87.4497 66.626 87.6441 66.626 87.6441C66.626 87.6441 66.8618 87.3941 66.9867 87.0331C65.2247 86.4915 62.7553 86.3387 61.1876 86.5748C59.4812 86.8525 56.6094 87.6025 56.6094 87.6025Z" fill="black"/>
</svg>
