<svg width="219" height="322" viewBox="0 0 219 322" fill="none" xmlns="http://www.w3.org/2000/svg">
<path d="M153.883 78.4302L154.043 79.1902L154.163 79.8002L154.373 80.9502C154.503 81.7002 154.623 82.4302 154.733 83.1602C154.943 84.6202 155.123 86.0502 155.283 87.4802C155.593 90.3402 155.823 93.1702 155.953 96.0102C156.083 98.8402 156.123 101.67 156.093 104.5C156.053 107.33 155.933 110.15 155.743 112.97C155.543 115.79 155.253 118.61 154.903 121.42C154.703 122.82 154.523 124.23 154.293 125.63C154.183 126.33 154.073 127.03 153.953 127.73L153.563 129.82C153.443 130.52 153.283 131.21 153.143 131.91C152.993 132.6 152.863 133.3 152.693 133.99C152.373 135.37 152.063 136.76 151.693 138.14C151.513 138.83 151.343 139.52 151.153 140.2L150.573 142.25L150.423 142.76L150.353 143.02L150.203 143.54C150.053 144.03 149.903 144.45 149.733 144.88C149.573 145.28 149.403 145.69 149.233 146.05C149.063 146.43 148.883 146.76 148.703 147.1L148.443 147.57C148.353 147.73 148.263 147.88 148.173 148.02L147.903 148.46L147.643 148.87C147.463 149.15 147.293 149.39 147.113 149.64C146.413 150.62 145.723 151.44 145.053 152.19C144.383 152.94 143.733 153.6 143.083 154.22C141.793 155.46 140.543 156.51 139.313 157.5C136.853 159.46 134.443 161.11 132.033 162.65C127.233 165.72 122.463 168.37 117.663 170.86C112.873 173.35 108.053 175.65 103.213 177.85C100.783 178.94 98.3528 180.01 95.9128 181.05C94.6928 181.57 93.4728 182.09 92.2428 182.6L90.3828 183.35L88.4728 184.11L80.0928 165.17L81.7228 164.34L83.3928 163.47L86.7428 161.72C88.9728 160.54 91.2028 159.35 93.4028 158.13C97.8228 155.72 102.193 153.23 106.443 150.69C108.563 149.42 110.653 148.11 112.693 146.8C114.733 145.49 116.723 144.15 118.603 142.79C120.483 141.43 122.273 140.05 123.793 138.71C124.553 138.04 125.243 137.38 125.793 136.8C126.333 136.22 126.743 135.68 126.823 135.5C126.823 135.49 126.843 135.46 126.833 135.46C126.823 135.47 126.823 135.47 126.813 135.48L126.783 135.51C126.773 135.53 126.763 135.54 126.753 135.56C126.713 135.61 126.703 135.65 126.653 135.74C126.623 135.81 126.563 135.91 126.523 136.02C126.463 136.15 126.423 136.27 126.363 136.45L126.323 136.57C126.313 136.61 126.323 136.57 126.323 136.56L126.333 136.51L126.383 136.3L126.483 135.87L126.873 134.17C127.003 133.6 127.113 133.03 127.233 132.46C127.483 131.32 127.673 130.17 127.883 129.02C127.993 128.45 128.073 127.87 128.163 127.29C128.253 126.71 128.353 126.14 128.423 125.56C128.763 123.25 129.023 120.92 129.233 118.58C129.433 116.24 129.563 113.9 129.663 111.55C129.743 109.2 129.763 106.85 129.723 104.51C129.693 102.16 129.593 99.8202 129.433 97.4802C129.283 95.1502 129.073 92.8302 128.793 90.5402C128.653 89.4002 128.493 88.2702 128.323 87.1702C128.243 86.6202 128.153 86.0802 128.063 85.5502L127.923 84.7902L127.813 84.2502L153.883 78.4302Z" fill="#9D582C"/>
<path d="M126.023 84.8804L121.263 120.98C128.373 124.96 135.113 127.81 141.313 128.94L126.023 84.8804Z" fill="#A92F4B"/>
<path d="M136.123 140.68C136.023 140.68 135.913 140.66 135.823 140.6C132.123 138.59 127.033 136.9 126.983 136.88C126.653 136.77 126.473 136.41 126.583 136.08C126.693 135.75 127.053 135.57 127.383 135.68C127.593 135.75 132.633 137.42 136.433 139.49C136.743 139.66 136.853 140.04 136.683 140.35C136.573 140.57 136.353 140.68 136.123 140.68Z" fill="#7C3215"/>
<path d="M127.533 137.04C127.213 137.04 126.943 136.8 126.903 136.48C126.863 136.13 127.113 135.82 127.463 135.78C130.093 135.49 133.543 135.47 133.683 135.47C134.033 135.47 134.313 135.75 134.313 136.1C134.313 136.45 134.033 136.73 133.683 136.74C133.643 136.74 130.153 136.76 127.593 137.04C127.583 137.04 127.553 137.04 127.533 137.04Z" fill="#7C3215"/>
<path d="M59.0632 285.25L52.4932 295.97L39.9932 290.44L45.6632 278.91L59.0632 285.25Z" fill="#EA9B7A"/>
<path d="M0.372884 296.53L47.6829 317.47C48.3129 316.99 48.9129 316.16 49.4729 315.12C51.5429 311.25 53.0929 304.3 54.2529 299.99C54.3829 299.49 54.5129 299.02 54.6429 298.6C54.8529 297.89 55.0529 297.3 55.2329 296.89C56.6829 293.6 53.5329 292.88 53.5329 292.88C46.6629 295.46 44.3629 286.02 40.1729 286.92C40.1729 286.92 38.3729 287.29 33.1229 289.01C27.8729 290.73 20.4929 290.13 14.0529 290C5.73288 289.83 2.44288 291.88 1.16288 293.72C0.132884 295.19 0.372884 296.53 0.372884 296.53Z" fill="#FAAF3A"/>
<path d="M0.373209 296.53L47.6832 317.47C48.3132 316.99 48.9132 316.16 49.4732 315.12L1.15321 293.73C0.133209 295.19 0.373209 296.53 0.373209 296.53Z" fill="#C77E2E"/>
<path d="M42.8635 315.33L44.2735 315.95C43.5835 313.73 43.3535 310.69 45.0835 307.25C47.3835 302.68 51.5835 300.77 54.2535 299.99C54.3835 299.49 54.5135 299.02 54.6435 298.6C51.8335 299.28 46.7335 301.22 43.9835 306.7C42.3235 309.98 42.3135 312.98 42.8635 315.33Z" fill="#C77E2E"/>
<path d="M32.6833 292.16C33.0333 292.31 33.4533 292.22 33.7033 291.9C33.9933 291.53 33.9233 290.99 33.5533 290.7L30.9233 288.66C30.5533 288.37 30.0133 288.44 29.7233 288.81C29.4333 289.18 29.5033 289.72 29.8733 290.01L32.5033 292.05C32.5533 292.1 32.6133 292.14 32.6833 292.16Z" fill="white"/>
<path d="M36.7028 291C37.0528 291.15 37.4728 291.06 37.7228 290.74C38.0128 290.37 37.9428 289.83 37.5728 289.54L34.9428 287.5C34.5728 287.21 34.0328 287.28 33.7428 287.65C33.4528 288.02 33.5228 288.56 33.8928 288.85L36.5228 290.89C36.5828 290.94 36.6428 290.98 36.7028 291Z" fill="white"/>
<path d="M28.9636 292.57C29.3136 292.72 29.7336 292.63 29.9836 292.31C30.2736 291.94 30.2036 291.4 29.8336 291.11L27.2036 289.07C26.8336 288.78 26.2936 288.85 26.0036 289.22C25.7136 289.59 25.7836 290.13 26.1536 290.42L28.7836 292.46C28.8436 292.51 28.9036 292.55 28.9636 292.57Z" fill="white"/>
<path d="M25.2731 292.92C25.6231 293.07 26.0431 292.98 26.2931 292.66C26.5831 292.29 26.5131 291.75 26.1431 291.46L23.5131 289.42C23.1431 289.13 22.6031 289.2 22.3131 289.57C22.0231 289.94 22.0931 290.48 22.4631 290.77L25.0931 292.81C25.1531 292.85 25.2131 292.89 25.2731 292.92Z" fill="white"/>
<path d="M21.3835 293.02C21.7335 293.17 22.1535 293.08 22.4035 292.76C22.6935 292.39 22.6235 291.85 22.2535 291.56L19.6235 289.52C19.2535 289.23 18.7135 289.3 18.4235 289.67C18.1335 290.04 18.2035 290.58 18.5735 290.87L21.2035 292.91C21.2535 292.95 21.3135 292.99 21.3835 293.02Z" fill="white"/>
<path d="M17.3132 292.77C17.6632 292.92 18.0832 292.83 18.3332 292.51C18.6232 292.14 18.5532 291.6 18.1832 291.31L15.5532 289.27C15.1832 288.98 14.6432 289.05 14.3532 289.42C14.0632 289.79 14.1332 290.33 14.5032 290.62L17.1332 292.66C17.1832 292.71 17.2432 292.75 17.3132 292.77Z" fill="white"/>
<path d="M88.4334 181.78C92.8234 177.46 127.463 167.8 150.463 174.22C153.103 179.29 156.453 192.14 148.213 204.03C117.983 208.97 101.113 219.14 101.113 219.14C101.113 219.14 90.3834 243.91 84.0134 253C77.6434 262.09 63.0334 290.96 63.0334 290.96L41.0234 281.56C41.0334 281.56 76.4834 193.54 88.4334 181.78Z" fill="#39393B"/>
<path d="M65.3936 285.52C65.3136 285.52 65.2336 285.5 65.1536 285.47L43.6136 276.52C43.2936 276.39 43.1336 276.01 43.2736 275.69C43.4036 275.37 43.7736 275.21 44.1036 275.35L65.6436 284.3C65.9636 284.43 66.1236 284.81 65.9836 285.13C65.8836 285.37 65.6436 285.52 65.3936 285.52Z" fill="#585859"/>
<path d="M61.7736 283.71C61.6936 283.71 61.6136 283.7 61.5436 283.67C61.2136 283.54 61.0636 283.17 61.1836 282.85C61.2236 282.74 65.7336 271.49 76.2436 255.54C86.6836 239.7 97.6036 212.91 97.7136 212.64C97.8436 212.32 98.2136 212.16 98.5436 212.29C98.8636 212.42 99.0236 212.79 98.8936 213.12C98.7836 213.39 87.8236 240.29 77.3136 256.24C66.8736 272.08 62.4136 283.21 62.3736 283.32C62.2636 283.55 62.0236 283.71 61.7736 283.71Z" fill="#585859"/>
<path d="M114.613 287.14L112.943 299.6H99.2734L99.7934 286.77L114.613 287.14Z" fill="#EA9B7A"/>
<path d="M65.5134 321.21H117.253C117.633 320.51 117.843 319.52 117.933 318.34C118.253 313.96 116.863 306.98 116.173 302.58C116.093 302.07 116.023 301.59 115.963 301.15C115.863 300.41 115.813 299.8 115.813 299.35C115.813 295.76 112.633 296.37 112.633 296.37C107.393 301.5 101.473 293.8 98.0134 296.33C98.0134 296.33 96.5234 297.4 92.4134 301.09C88.3034 304.79 81.3234 307.22 75.3734 309.71C67.6934 312.92 65.5234 316.12 65.0934 318.33C64.7534 320.08 65.5134 321.21 65.5134 321.21Z" fill="#FAAF3A"/>
<path d="M65.5134 321.21H117.253C117.633 320.51 117.843 319.52 117.933 318.34H65.0934C64.7534 320.08 65.5134 321.21 65.5134 321.21Z" fill="#C77E2E"/>
<path d="M111.973 321.21H113.513C111.983 319.46 110.543 316.77 110.733 312.93C110.983 307.82 114.053 304.37 116.183 302.58C116.103 302.07 116.033 301.59 115.973 301.15C113.673 302.91 109.803 306.75 109.503 312.87C109.313 316.53 110.523 319.27 111.973 321.21Z" fill="#C77E2E"/>
<path d="M93.2839 304.14C93.6639 304.14 94.0139 303.88 94.1139 303.49C94.2239 303.03 93.9539 302.57 93.4939 302.46L90.2639 301.66C89.8039 301.55 89.3439 301.82 89.2339 302.28C89.1239 302.74 89.4039 303.2 89.8539 303.31L93.0839 304.11C93.1439 304.13 93.2139 304.14 93.2839 304.14Z" fill="white"/>
<path d="M96.4939 301.45C96.8739 301.45 97.2239 301.19 97.3239 300.8C97.4339 300.34 97.1639 299.88 96.7039 299.77L93.4739 298.97C93.0139 298.86 92.5538 299.14 92.4438 299.59C92.3338 300.05 92.6139 300.51 93.0639 300.62L96.2939 301.42C96.3639 301.44 96.4239 301.45 96.4939 301.45Z" fill="white"/>
<path d="M90.053 306.02C90.433 306.02 90.783 305.76 90.883 305.37C90.993 304.91 90.723 304.45 90.263 304.34L87.033 303.54C86.573 303.43 86.113 303.7 86.003 304.16C85.893 304.62 86.163 305.08 86.623 305.19L89.853 305.99C89.913 306.01 89.983 306.02 90.053 306.02Z" fill="white"/>
<path d="M86.823 307.82C87.203 307.82 87.553 307.56 87.653 307.17C87.763 306.71 87.493 306.25 87.033 306.14L83.8029 305.34C83.3429 305.23 82.8829 305.51 82.7729 305.96C82.6629 306.42 82.943 306.88 83.393 306.99L86.6229 307.79C86.6829 307.82 86.753 307.82 86.823 307.82Z" fill="white"/>
<path d="M83.2937 309.49C83.6737 309.49 84.0237 309.23 84.1237 308.84C84.2337 308.38 83.9537 307.92 83.5037 307.81L80.2737 307.01C79.8137 306.9 79.3537 307.17 79.2437 307.63C79.1337 308.09 79.4137 308.55 79.8637 308.66L83.0937 309.46C83.1637 309.49 83.2337 309.49 83.2937 309.49Z" fill="white"/>
<path d="M79.4733 310.92C79.8533 310.92 80.2033 310.66 80.3033 310.27C80.4133 309.81 80.1433 309.35 79.6833 309.24L76.4533 308.44C75.9933 308.33 75.5333 308.6 75.4233 309.06C75.3133 309.52 75.5933 309.98 76.0433 310.09L79.2733 310.89C79.3433 310.91 79.4033 310.92 79.4733 310.92Z" fill="white"/>
<path d="M218.264 184.03C218.244 184.24 218.214 184.44 218.194 184.63C218.084 184.71 217.984 184.79 217.884 184.87C209.854 191.03 200.484 195.13 190.914 197.46C190.574 197.54 190.244 197.62 189.904 197.7C188.264 198.08 186.614 198.41 184.964 198.68C182.734 199.05 180.504 199.34 178.294 199.53C176.334 199.7 174.384 199.81 172.464 199.84C164.184 199.99 156.334 198.91 149.694 196.8C149.444 196.72 149.184 196.64 148.934 196.55C147.174 195.96 145.514 195.3 143.954 194.57C143.714 194.46 143.474 194.35 143.244 194.23C142.274 193.76 141.344 193.25 140.464 192.72C140.604 189.53 140.644 185.71 140.614 181.63C140.614 181.29 140.614 180.95 140.604 180.61C140.544 174.93 140.374 168.8 140.154 163.2C140.134 162.93 140.124 162.67 140.124 162.41C140.004 159.48 139.864 156.7 139.744 154.23C139.724 153.97 139.714 153.7 139.704 153.45C139.594 151.36 139.484 149.49 139.384 147.96C139.354 147.57 139.334 147.19 139.304 146.8C139.284 146.5 139.264 146.2 139.244 145.91C139.164 144.83 139.074 143.78 138.984 142.74C138.844 141.08 138.684 139.47 138.514 137.91C138.314 136.13 138.104 134.39 137.884 132.72C137.634 130.92 137.384 129.18 137.114 127.51C136.824 125.72 136.524 124 136.204 122.35C135.094 116.53 133.844 111.53 132.594 107.21C132.504 106.91 132.424 106.63 132.334 106.33C131.824 104.61 131.324 103.02 130.834 101.52C130.724 101.19 130.614 100.87 130.514 100.54C127.734 92.2901 125.434 87.3101 125.394 83.9701C125.314 77.0201 130.394 74.7901 135.694 71.9901C135.944 71.8601 136.194 71.7301 136.444 71.5901C137.334 71.1101 138.234 70.6001 139.094 70.0501C139.464 69.8201 139.824 69.5801 140.174 69.3301C140.424 69.1601 140.654 68.9801 140.884 68.8101C142.984 67.1901 144.824 65.1601 146.024 62.2801L166.054 58.0601C166.054 58.0601 167.974 59.0501 171.184 59.9101C171.484 59.9901 171.794 60.0701 172.124 60.1501C172.504 60.2401 172.894 60.3301 173.304 60.4101C173.554 60.4601 173.824 60.5101 174.084 60.5601C174.284 60.6001 174.494 60.6401 174.704 60.6701C176.624 60.9701 178.844 61.1601 181.354 61.1101C181.604 61.1001 181.864 61.1001 182.114 61.0901C182.294 61.0801 182.474 61.0701 182.654 61.0701C184.354 60.9801 185.973 61.2001 187.534 61.7001C187.833 61.7901 188.124 61.9001 188.414 62.0201C194.924 64.6201 200.044 72.4001 203.354 84.3501C204.274 87.6701 205.184 90.9101 206.064 94.0701C206.164 94.4201 206.254 94.7601 206.354 95.1001C206.544 95.7901 206.734 96.4801 206.924 97.1701C206.994 97.4201 207.064 97.6701 207.134 97.9201C207.814 100.37 208.474 102.79 209.114 105.18C209.184 105.43 209.254 105.69 209.314 105.94C209.354 106.08 209.384 106.21 209.424 106.34L209.784 107.74C212.004 116.29 213.854 124.53 215.044 132.84C215.294 134.57 215.514 136.3 215.694 138.04C215.744 138.46 215.794 138.94 215.844 139.46C215.854 139.56 215.864 139.65 215.874 139.75C215.894 139.93 215.914 140.11 215.934 140.3C215.944 140.39 215.954 140.49 215.964 140.58C216.284 143.73 216.694 148.09 217.104 152.9C217.124 153.15 217.154 153.41 217.174 153.67C218.094 164.85 218.924 178.17 218.264 184.03Z" fill="#DF615C"/>
<path d="M157.303 74.05C165.303 72.36 169.623 62.36 169.803 61.92C169.923 61.63 169.793 61.29 169.503 61.17C169.213 61.05 168.873 61.18 168.753 61.47C168.713 61.57 164.323 71.76 156.603 73.01C149.013 74.24 145.993 68.66 145.863 68.42C145.713 68.14 145.373 68.03 145.093 68.18C144.813 68.33 144.703 68.67 144.853 68.95C144.883 69.02 148.363 75.51 156.793 74.14C156.963 74.12 157.133 74.08 157.303 74.05Z" fill="#A92F4B"/>
<path d="M165.423 180.49C172.943 178.91 180.713 175.04 188.483 168.97C199.143 160.64 206.143 150.98 206.213 150.88C206.393 150.62 206.343 150.27 206.083 150.08C205.823 149.9 205.463 149.95 205.283 150.21C205.213 150.31 198.293 159.85 187.763 168.08C178.103 175.63 163.323 183.59 147.803 178.63C147.503 178.53 147.183 178.7 147.083 179C146.983 179.3 147.153 179.62 147.453 179.72C153.173 181.55 159.213 181.8 165.423 180.49Z" fill="#A92F4B"/>
<path d="M160.924 174.75C172.644 172.08 178.934 154.4 179.204 153.65C179.304 153.35 179.154 153.03 178.854 152.92C178.554 152.82 178.234 152.97 178.124 153.27C178.064 153.45 171.774 171.1 160.684 173.63C160.374 173.7 160.184 174.01 160.254 174.32C160.314 174.62 160.614 174.81 160.924 174.75Z" fill="#A92F4B"/>
<path d="M139.283 146.79C140.733 145.79 142.103 144.55 143.183 143.14C145.793 139.74 146.143 136.26 144.173 133.34C143.773 132.76 143.413 132.22 143.073 131.73C139.043 125.85 138.623 125.24 138.973 115.57C139.083 112.53 138.223 110.13 136.423 108.47C135.213 107.34 133.733 106.69 132.313 106.31C132.403 106.6 132.483 106.89 132.573 107.19C133.753 107.55 134.933 108.13 135.903 109.03C137.533 110.54 138.303 112.74 138.203 115.55C137.843 125.47 138.363 126.23 142.433 132.17C142.773 132.67 143.133 133.2 143.533 133.78C145.933 137.31 143.963 140.87 142.573 142.68C141.643 143.89 140.473 144.99 139.223 145.9C139.243 146.19 139.273 146.49 139.283 146.79Z" fill="#A92F4B"/>
<path d="M215.953 140.56C214.393 141.47 212.883 142.04 211.443 142.35C207.553 143.17 204.183 141.99 202.013 139.81C199.423 137.2 198.413 132.71 201.503 129.19C204.483 125.78 203.203 123.97 201.583 121.67C199.983 119.41 197.993 116.59 200.063 111.64C201.253 108.79 203.083 106.84 205.503 105.86C206.713 105.37 207.943 105.17 209.103 105.14C209.173 105.39 209.243 105.65 209.303 105.9C208.173 105.91 206.963 106.09 205.783 106.57C203.563 107.47 201.873 109.28 200.763 111.93C198.853 116.49 200.563 118.89 202.203 121.22C203.873 123.59 205.453 125.83 202.073 129.68C199.583 132.52 199.773 136.46 202.553 139.25C205.353 142.07 210.343 143.05 215.863 139.7C215.883 139.88 215.903 140.06 215.923 140.25C215.943 140.37 215.953 140.47 215.953 140.56Z" fill="#A92F4B"/>
<path d="M163.724 143.44C165.654 146.76 169.834 148.35 173.654 147.24C174.234 147.07 174.844 146.85 175.454 146.59C180.364 144.49 186.024 139.54 188.194 133.78C189.864 129.34 189.354 124.79 186.704 120.64C182.784 114.5 180.514 108.79 180.134 104.15C179.904 101.4 178.014 99.2702 175.324 98.7202C172.614 98.1702 170.034 99.3902 168.744 101.83C168.674 101.96 168.604 102.09 168.534 102.22C165.234 108.66 167.204 113.32 168.944 117.43C170.764 121.73 172.334 125.44 167.364 130.26C162.834 134.64 161.474 139.57 163.724 143.44ZM167.894 130.8C173.254 125.61 171.494 121.48 169.644 117.12C167.884 112.97 166.074 108.69 169.214 102.56C169.284 102.43 169.344 102.3 169.414 102.18C170.014 101.05 170.924 100.22 172.004 99.7602C172.964 99.3502 174.054 99.2302 175.164 99.4602C177.524 99.9502 179.174 101.81 179.374 104.21C179.604 106.91 180.394 109.86 181.764 113.05C182.844 115.58 184.284 118.24 186.064 121.04C188.614 125.04 189.084 129.23 187.484 133.51C185.134 139.77 178.494 145.03 173.444 146.5C169.944 147.52 166.144 146.07 164.384 143.05C162.324 139.51 163.634 134.93 167.894 130.8Z" fill="#A92F4B"/>
<path d="M130.483 100.52C130.593 100.84 130.693 101.16 130.803 101.49C133.473 102.56 135.933 102.52 137.893 102.1C138.893 101.89 139.763 101.58 140.473 101.28C145.363 99.1701 148.683 94.6401 148.603 91.9001C148.573 90.8701 148.053 90.1201 147.143 89.7901C141.883 87.8701 139.743 84.4001 138.943 76.5101C138.723 74.3701 137.873 72.7101 136.403 71.5601C136.153 71.6901 135.903 71.8201 135.653 71.9601C135.713 72.0001 135.773 72.0501 135.843 72.1001C137.193 73.1101 137.973 74.6201 138.173 76.5901C139.003 84.8401 141.283 88.4801 146.873 90.5101C147.493 90.7401 147.803 91.2001 147.823 91.9201C147.893 94.4101 144.633 98.6401 140.153 100.58C138.093 101.48 134.503 102.38 130.483 100.52Z" fill="#A92F4B"/>
<path d="M157.633 101.79C158.573 102.81 160.093 103.19 161.603 102.88C162.103 102.77 162.603 102.59 163.073 102.33C165.493 100.99 166.393 98.1899 165.483 94.8499C164.533 91.3699 166.343 89.6999 168.093 88.0899C169.633 86.6799 171.213 85.2199 169.963 82.7199C169.003 80.7999 167.223 79.8999 164.843 80.1199C162.033 80.3899 159.573 82.1099 158.253 84.7299C156.013 89.1599 153.873 97.7099 157.633 101.79ZM158.933 85.0699C159.993 82.9599 161.943 81.4499 164.133 80.9899C164.393 80.9399 164.653 80.8999 164.913 80.8699C166.993 80.6699 168.463 81.4099 169.283 83.0499C170.283 85.0399 169.143 86.0799 167.573 87.5199C165.833 89.1199 163.673 91.1099 164.743 95.0399C165.553 98.0199 164.793 100.49 162.703 101.65C161.133 102.52 159.193 102.36 158.193 101.27C154.693 97.4799 156.793 89.3199 158.933 85.0699Z" fill="#A92F4B"/>
<path d="M146.383 128.86C146.813 130.88 147.623 132.52 149.023 133.34C151.123 134.57 153.183 135.05 154.703 134.73C155.363 134.59 155.913 134.3 156.333 133.86C157.573 132.53 157.163 130.14 155.213 127.3C152.953 124.01 154.933 121.92 157.043 119.7C158.833 117.81 160.693 115.86 159.653 113.19C158.903 111.27 157.183 110.38 154.673 110.6C150.463 110.98 146.993 114.36 146.423 118.65C145.973 121.98 145.753 125.85 146.383 128.86ZM147.173 118.76C147.413 116.95 148.213 115.32 149.373 114.05C150.543 112.78 152.073 111.87 153.783 111.51C154.093 111.44 154.403 111.4 154.733 111.37C156.923 111.18 158.303 111.86 158.933 113.47C159.803 115.69 158.193 117.39 156.493 119.18C154.373 121.41 151.973 123.94 154.583 127.74C156.313 130.25 156.753 132.3 155.773 133.34C154.683 134.51 152.073 134.24 149.413 132.68C146.973 131.24 146.173 126.3 147.173 118.76Z" fill="#A92F4B"/>
<path d="M140.144 163.19C143.214 162.08 144.244 163.62 145.734 165.85C147.074 167.84 148.734 170.32 152.464 171.2C153.734 171.5 154.954 171.49 156.104 171.25C159.114 170.62 161.574 168.37 162.754 165.85C164.344 162.46 163.644 159.07 160.914 157.02C159.724 156.13 159.104 155.28 158.984 154.43C158.824 153.23 159.724 152.07 160.684 150.84C162.014 149.13 163.524 147.2 162.364 144.72C161.454 142.77 159.744 141.61 157.544 141.44C153.884 141.17 149.784 143.65 147.094 147.74C144.794 151.24 141.884 152.77 139.674 153.43C139.684 153.68 139.704 153.95 139.714 154.21C142.084 153.53 145.254 151.92 147.724 148.16C149.764 145.06 152.634 142.94 155.434 142.35C156.124 142.2 156.814 142.15 157.484 142.2C159.394 142.34 160.874 143.35 161.664 145.04C162.614 147.09 161.374 148.68 160.064 150.36C159.054 151.66 158.004 153 158.204 154.52C158.344 155.58 159.074 156.59 160.424 157.62C163.314 159.8 163.154 163.13 162.034 165.52C160.534 168.72 156.814 171.44 152.614 170.45C149.174 169.64 147.664 167.4 146.344 165.42C144.854 163.19 143.554 161.25 140.084 162.39C140.124 162.66 140.134 162.92 140.144 163.19Z" fill="#A92F4B"/>
<path d="M179.023 153.92C179.283 155.25 180.083 156.16 181.263 156.48C181.893 156.65 182.593 156.65 183.333 156.5C184.983 156.15 186.793 155.03 188.273 153.35C189.793 151.63 191.313 151.85 193.413 152.15C195.453 152.44 197.993 152.81 201.233 151.34C204.833 149.7 205.433 146.3 204.473 143.83C203.593 141.6 201.223 139.66 198.083 140.7C195.833 141.44 194.373 142.59 193.073 143.59C191.093 145.13 189.393 146.46 185.483 146.22C183.543 146.1 181.983 146.62 180.873 147.76C178.713 149.97 179.003 153.72 179.013 153.87C179.023 153.9 179.023 153.91 179.023 153.92ZM179.773 153.79C179.753 153.5 179.573 150.18 181.423 148.29C182.373 147.32 183.723 146.88 185.433 146.98C189.623 147.23 191.523 145.76 193.533 144.19C194.843 143.17 196.193 142.12 198.323 141.41C200.993 140.53 203.013 142.19 203.753 144.1C204.593 146.24 204.063 149.2 200.913 150.63C197.873 152.01 195.553 151.68 193.513 151.38C192.333 151.21 191.253 151.06 190.213 151.28C189.343 151.46 188.513 151.91 187.693 152.83C185.763 155.01 183.193 156.21 181.453 155.74C180.573 155.5 179.983 154.83 179.773 153.79Z" fill="#A92F4B"/>
<path d="M212.503 172.32C209.883 176.66 210.983 181.49 213.583 183.66C214.833 184.7 216.313 185.11 217.883 184.87C217.983 184.79 218.083 184.71 218.193 184.63C218.223 184.44 218.243 184.24 218.273 184.03C216.733 184.4 215.293 184.09 214.073 183.07C211.733 181.11 210.743 176.7 213.163 172.72C215.613 168.68 213.683 167.43 211.643 166.11C209.773 164.89 207.823 163.64 208.123 160.01C208.273 158.22 208.993 156.78 210.283 155.73C211.403 154.82 212.833 154.29 214.233 153.99C215.273 153.77 216.303 153.68 217.183 153.65C217.163 153.39 217.143 153.14 217.123 152.88C214.953 152.96 211.923 153.41 209.803 155.14C208.353 156.32 207.533 157.94 207.373 159.95C207.043 164.03 209.373 165.54 211.243 166.75C213.233 168.05 214.563 168.92 212.503 172.32Z" fill="#A92F4B"/>
<path d="M148.934 196.54C149.184 196.63 149.434 196.71 149.694 196.79C149.724 195.61 150.004 193.08 151.754 191.38C153.214 189.97 155.394 189.41 158.234 189.72C162.004 190.14 163.714 191.7 165.214 193.08C167.744 195.4 169.504 196.5 176.104 192.19C178.614 190.55 180.944 189.59 182.974 189.16C186.254 188.47 188.774 189.15 190.094 190.51C191.714 192.18 191.634 194.83 189.904 197.69C190.244 197.61 190.574 197.53 190.914 197.45C192.484 194.51 192.404 191.78 190.654 189.97C188.304 187.55 182.624 187.01 175.694 191.54C169.264 195.75 167.934 194.53 165.734 192.51C164.224 191.12 162.334 189.39 158.314 188.95C155.234 188.61 152.844 189.24 151.214 190.83C149.374 192.64 148.994 195.17 148.934 196.54Z" fill="#A92F4B"/>
<path d="M191.863 184.24C192.823 186.29 195.983 187.98 198.933 187.36C199.063 187.33 199.193 187.3 199.313 187.26C203.813 185.99 206.403 182.34 206.603 176.99C206.753 172.85 206.373 168.79 202.543 167.03C202.523 167.02 202.503 167.01 202.473 167.01C202.293 166.97 198.053 165.94 195.413 167.73C194.303 168.48 193.643 169.62 193.453 171.1C193.103 173.72 193.903 175.33 194.473 176.5C195.193 177.94 195.513 178.6 193.313 180.1C191.683 181.23 191.153 182.74 191.863 184.24ZM193.743 180.75C196.363 178.96 195.983 177.85 195.163 176.18C194.603 175.04 193.893 173.61 194.203 171.22C194.373 169.96 194.923 169 195.843 168.37C198.093 166.84 201.863 167.66 202.253 167.75C204.993 169.02 206.033 171.7 205.833 176.96C205.703 180.49 204.423 185.02 199.103 186.53C196.453 187.27 193.403 185.74 192.553 183.92C192.003 182.75 192.423 181.65 193.743 180.75Z" fill="#A92F4B"/>
<path d="M143.244 194.22C143.474 194.34 143.714 194.45 143.954 194.56C145.554 192.69 146.214 190.65 145.904 188.52C145.404 185.06 142.514 182.16 140.604 180.6C140.614 180.94 140.614 181.28 140.614 181.62C142.394 183.19 144.734 185.73 145.154 188.63C145.434 190.57 144.814 192.42 143.314 194.15C143.294 194.17 143.264 194.2 143.244 194.22Z" fill="#A92F4B"/>
<path d="M128.514 27.8201C128.514 27.8201 117.164 25.4201 116.894 21.0901C116.654 17.0901 121.374 17.5101 121.374 17.5101C121.374 17.5101 115.864 8.47007 119.024 6.70007C122.184 4.92007 126.174 9.99007 126.174 9.99007C126.174 9.99007 123.284 -0.729932 127.144 0.0400683C131.004 0.810068 131.504 6.70007 131.504 6.70007C131.504 6.70007 144.334 2.13007 151.624 4.32007C156.594 5.81007 157.764 10.5901 157.764 10.5901C157.764 10.5901 160.714 8.83007 162.814 9.91007C164.904 10.9901 162.994 14.6701 162.994 14.6701C162.994 14.6701 166.234 17.1601 165.244 21.1201C164.254 25.0801 161.424 32.9001 161.424 32.9001L128.514 27.8201Z" fill="#39393B"/>
<path d="M144.533 59.3201L145.633 64.5401C146.343 64.9001 147.053 65.2001 147.753 65.4401C157.953 68.9701 166.303 60.1801 166.303 60.1801L162.493 42.1001L146.673 57.2701L144.533 59.3201Z" fill="#9D582C"/>
<path d="M144.533 59.3202L145.633 64.5402C146.343 64.9002 147.053 65.2002 147.753 65.4402C154.823 60.7602 158.733 51.4902 158.733 51.4902L146.683 57.2702L144.533 59.3202Z" fill="#39393B"/>
<path d="M134.494 17.0903C134.494 17.0903 122.144 20.9303 129.474 33.1603C129.474 33.1503 135.514 20.4703 134.494 17.0903Z" fill="#39393B"/>
<path d="M133.143 37.5799C133.143 37.5799 129.443 34.6999 128.503 38.5599C127.563 42.4099 130.343 49.2199 134.613 47.1199L133.143 37.5799Z" fill="#9D582C"/>
<path d="M132.574 50.5201C132.574 50.5201 134.834 61.3101 146.044 58.9201C157.184 56.5501 162.934 46.2001 163.244 45.7101C163.254 45.7001 163.254 45.7001 163.254 45.7001L162.894 43.4101L161.044 31.5101L160.054 25.1501C160.054 25.1501 159.094 13.5301 147.904 13.7301C139.724 13.8801 132.634 16.7401 129.774 21.6201C128.724 23.4201 128.244 25.5001 128.504 27.8201L130.534 39.1901L131.034 41.9801L132.574 50.5201Z" fill="#9D582C"/>
<path d="M155.443 32.9102C155.443 32.9102 153.793 39.5302 150.143 39.2302C146.493 38.9202 142.443 39.3402 139.623 41.4502C139.623 41.4502 133.973 40.6102 131.303 43.4202C129.513 45.3102 133.723 59.3702 141.533 59.8702C149.343 60.3802 158.733 55.6902 159.663 48.2302C160.593 40.7702 159.193 34.8802 159.193 34.8802L155.443 32.9102Z" fill="#39393B"/>
<path d="M137.323 44.6002C137.323 44.6002 143.633 43.9502 146.723 42.1802C146.723 42.1802 148.103 48.3402 142.773 48.8702C138.493 49.3002 137.323 44.6002 137.323 44.6002Z" fill="white"/>
<path d="M145.464 37.4903C145.634 38.2703 147.384 38.5703 149.374 38.1503C151.364 37.7303 152.854 36.7503 152.684 35.9703C152.514 35.1803 150.764 34.8903 148.774 35.3103C146.784 35.7303 145.304 36.7003 145.464 37.4903Z" fill="#7B3215"/>
<path d="M131.044 41.97C131.324 41.94 131.624 41.89 131.924 41.83C133.914 41.41 135.404 40.43 135.234 39.65C135.064 38.87 133.314 38.57 131.324 38.99C131.054 39.05 130.794 39.11 130.544 39.19L131.044 41.97Z" fill="#7B3215"/>
<path d="M144.674 33.1401C144.904 34.2201 145.574 34.9901 146.174 34.8601C146.774 34.7301 147.084 33.7601 146.854 32.6801C146.624 31.6001 145.954 30.8301 145.354 30.9601C144.754 31.0901 144.444 32.0601 144.674 33.1401Z" fill="#39393B"/>
<path d="M134.004 35.3901C134.234 36.4701 134.904 37.2401 135.504 37.1101C136.104 36.9801 136.414 36.0101 136.184 34.9301C135.954 33.8501 135.284 33.0801 134.684 33.2101C134.084 33.3301 133.784 34.3101 134.004 35.3901Z" fill="#39393B"/>
<path d="M140.634 39.6602C140.884 39.6102 141.034 39.3702 140.984 39.1202C140.934 38.8702 140.694 38.7202 140.444 38.7702C138.814 39.1102 137.874 38.4202 137.534 38.0902C138.534 34.0702 139.514 30.0202 139.524 29.9802C139.584 29.7402 139.434 29.4902 139.194 29.4302C138.954 29.3702 138.704 29.5202 138.644 29.7602C138.634 29.8002 137.614 34.0002 136.594 38.1002C136.564 38.2302 136.594 38.3702 136.674 38.4802C136.734 38.5702 138.004 40.2202 140.634 39.6602Z" fill="#39393B"/>
<path d="M149.034 27.06C148.544 25.97 147.144 24.04 143.474 24.64C143.024 24.71 142.684 25.09 142.664 25.54C142.634 26.11 143.084 26.59 143.654 26.58C144.654 26.55 146.164 26.78 147.304 28.19C147.654 28.63 148.324 28.65 148.724 28.26L148.814 28.17C149.114 27.88 149.204 27.44 149.034 27.06Z" fill="#39393B"/>
<path d="M130.374 30.99C130.384 29.8 130.874 27.46 134.484 26.53C134.924 26.42 135.384 26.63 135.594 27.03C135.854 27.54 135.634 28.16 135.104 28.38C134.174 28.76 132.884 29.58 132.414 31.32C132.264 31.86 131.674 32.15 131.144 31.96L131.024 31.92C130.634 31.78 130.374 31.4 130.374 30.99Z" fill="#39393B"/>
<path d="M158.813 42.0703C158.893 42.1803 161.003 45.1703 163.243 45.7103C163.253 45.7003 163.253 45.7003 163.253 45.7003L162.893 43.4103C162.893 43.4003 161.063 43.4703 158.813 42.0703Z" fill="#39393B"/>
<path d="M159.204 34.1703C159.204 34.1703 162.294 27.4703 166.414 31.3603C169.804 34.5603 166.944 45.3703 161.084 43.1103L159.204 34.1703Z" fill="#9D582C"/>
<path d="M161.313 41.2302C161.533 41.1802 161.693 40.9702 161.673 40.7402C161.233 36.2602 164.583 33.9502 164.723 33.8602C164.933 33.7202 164.983 33.4402 164.843 33.2302C164.703 33.0202 164.423 32.9702 164.213 33.1002C164.053 33.2102 160.263 35.7902 160.763 40.8202C160.783 41.0702 161.013 41.2502 161.263 41.2302C161.273 41.2402 161.293 41.2302 161.313 41.2302Z" fill="#39393B"/>
<path d="M164.884 37.6699C165.014 37.6399 165.124 37.5599 165.194 37.4299C165.304 37.2099 165.224 36.9299 164.994 36.8199C164.784 36.7099 162.934 35.7899 161.674 36.4199C161.454 36.5299 161.354 36.7999 161.464 37.0299C161.574 37.2499 161.844 37.3499 162.074 37.2399C162.794 36.8799 164.164 37.4199 164.584 37.6399C164.684 37.6799 164.784 37.6899 164.884 37.6699Z" fill="#39393B"/>
<path d="M129.783 21.6201C129.943 21.9801 130.173 22.2701 130.473 22.4801C133.133 24.3101 138.113 22.4101 142.573 19.9301C147.033 17.4501 151.113 20.2101 151.113 20.2101C150.753 25.0601 155.323 24.4801 155.093 28.1501C154.863 31.8201 156.193 36.3101 156.193 36.3101L158.913 35.3501C159.173 33.6001 160.263 32.2601 161.033 31.5101L160.043 25.1501C160.043 25.1501 159.083 13.5301 147.893 13.7301C139.733 13.8801 132.633 16.7301 129.783 21.6201Z" fill="#39393B"/>
<path d="M213.333 174.57C213.333 174.57 224.013 216.7 168.643 216.7C139.073 216.7 125.013 213.85 125.013 213.85C125.013 213.85 124.303 239.96 122.923 250.98C121.543 262 116.673 289.44 116.673 289.44L93.3832 291.24C93.3832 291.24 89.6632 195.64 103.933 186.84C118.203 178.04 138.733 177.78 173.973 174.39C173.973 174.39 205.613 169.04 213.333 174.57Z" fill="#39393B"/>
<path d="M113.484 281.8C113.434 281.8 113.384 281.79 113.334 281.78C112.994 281.7 112.784 281.36 112.864 281.02C116.084 267.57 117.364 248.31 118.384 232.83C119.394 217.57 120.004 209.54 121.584 208.14C123.334 206.6 128.514 207.15 137.104 208.06C147.754 209.19 163.834 210.9 181.184 208.91C189.804 207.92 196.404 204.55 200.814 198.88C208.724 188.71 206.914 174.44 206.894 174.3C206.844 173.95 207.094 173.63 207.434 173.59C207.784 173.54 208.104 173.79 208.144 174.13C208.224 174.73 210.054 189.06 201.814 199.65C197.184 205.6 190.294 209.14 181.324 210.17C163.834 212.17 147.664 210.46 136.964 209.32C129.574 208.53 123.744 207.91 122.414 209.09C122.114 209.36 121.514 210.67 120.904 216.46C120.444 220.74 120.074 226.38 119.644 232.92C118.614 248.45 117.334 267.77 114.084 281.32C114.034 281.6 113.774 281.8 113.484 281.8Z" fill="#585859"/>
<path d="M93.633 283.7C93.303 283.7 93.023 283.44 93.003 283.1C92.983 282.75 93.253 282.45 93.593 282.43L117.413 280.99C117.763 280.97 118.063 281.24 118.083 281.58C118.103 281.93 117.833 282.23 117.493 282.25L93.673 283.69C93.663 283.7 93.643 283.7 93.633 283.7Z" fill="#585859"/>
<path d="M157.713 186.63H87.9433C87.7833 186.63 87.6533 186.5 87.6533 186.34V177.75C87.6533 177.59 87.7833 177.46 87.9433 177.46H157.713C157.873 177.46 158.003 177.59 158.003 177.75V186.34C157.993 186.5 157.863 186.63 157.713 186.63Z" fill="#CED3E6"/>
<path d="M80.3135 186.63C77.6635 186.63 75.3535 184.85 74.6635 182.29L61.5035 133.02C60.7035 130.01 62.9735 127.05 66.0835 127.05H97.5835C99.7035 127.05 101.573 128.46 102.153 130.51L117.913 186.62H80.3135V186.63Z" fill="white"/>
<path d="M102.153 130.52L117.783 186.17H121.383L105.753 130.52C105.173 128.47 103.313 127.06 101.183 127.06H97.583C99.713 127.05 101.573 128.47 102.153 130.52Z" fill="#CED3E6"/>
<path d="M93.2532 157.64C93.9732 160.73 92.0432 163.24 88.9432 163.24C85.8532 163.24 82.7632 160.73 82.0432 157.64C81.3232 154.55 83.2532 152.04 86.3532 152.04C89.4532 152.04 92.5332 154.55 93.2532 157.64Z" fill="#CED3E6"/>
<path d="M136.213 166.55C136.213 166.55 121.933 167.53 117.373 171.9L120.153 181.78C120.153 181.78 128.693 178.29 131.053 178.63C133.423 178.97 134.833 182.85 142.743 180.49L136.213 166.55Z" fill="#9D582C"/>
<path d="M136.293 165.9L137.903 165.24L139.573 164.54C140.693 164.07 141.803 163.58 142.923 163.08C145.153 162.09 147.363 161.07 149.563 160.01C153.953 157.9 158.263 155.66 162.413 153.29C166.563 150.91 170.583 148.39 174.243 145.69C175.153 145.01 176.053 144.33 176.913 143.64C177.773 142.94 178.603 142.24 179.403 141.53C180.973 140.11 182.413 138.65 183.543 137.23C184.103 136.53 184.603 135.82 184.973 135.2C185.303 134.63 185.623 134 185.903 133.29C186.463 131.88 186.903 130.21 187.203 128.38C187.793 124.7 187.813 120.45 187.433 116.1C187.053 111.74 186.283 107.24 185.273 102.77C184.763 100.53 184.183 98.2897 183.553 96.0797C183.233 94.9697 182.903 93.8697 182.563 92.7897C182.393 92.2497 182.213 91.7097 182.043 91.1797L181.783 90.4097L181.653 90.0397L181.593 89.8697L181.563 89.7897L181.553 89.7597C178.543 83.4797 181.193 75.9397 187.473 72.9297C193.753 69.9197 201.293 72.5697 204.303 78.8497C204.593 79.4597 204.833 80.0797 205.023 80.6997L205.403 82.0097L205.503 82.3597L205.583 82.6397L205.733 83.1797L206.003 84.2197C206.173 84.9097 206.343 85.5797 206.503 86.2597C206.823 87.6097 207.123 88.9497 207.393 90.2897C207.953 92.9797 208.433 95.6697 208.843 98.3897C209.653 103.83 210.203 109.36 210.273 115.08C210.313 117.94 210.213 120.85 209.953 123.81C209.683 126.78 209.223 129.81 208.473 132.91C207.713 136.01 206.643 139.18 205.063 142.34C204.263 143.92 203.333 145.48 202.243 146.99C201.183 148.45 200.103 149.71 198.993 150.9C196.773 153.26 194.483 155.22 192.173 157.01C189.863 158.78 187.523 160.37 185.173 161.85C180.473 164.79 175.723 167.29 170.933 169.58C166.143 171.86 161.313 173.92 156.453 175.83C154.023 176.78 151.583 177.7 149.123 178.58C147.893 179.02 146.663 179.45 145.423 179.87L143.553 180.5L141.603 181.13C137.373 182.49 132.833 180.17 131.463 175.94C130.163 171.91 132.203 167.61 136.063 166.02L136.293 165.9Z" fill="#9D582C"/>
<path d="M194.713 138.78C194.663 138.78 194.613 138.77 194.573 138.76C189.703 137.3 184.263 137.52 184.213 137.53C183.933 137.54 183.703 137.33 183.693 137.05C183.683 136.77 183.893 136.54 184.173 136.53C184.403 136.52 189.833 136.29 194.873 137.8C195.133 137.88 195.283 138.16 195.213 138.42C195.133 138.64 194.933 138.78 194.713 138.78Z" fill="#7C3215"/>
<path d="M185.443 137.52C185.303 137.52 185.163 137.46 185.063 137.35C184.883 137.14 184.903 136.83 185.113 136.64C186.933 135.07 189.213 134.38 189.313 134.35C189.573 134.27 189.853 134.42 189.933 134.69C190.013 134.95 189.863 135.23 189.593 135.31C189.573 135.32 187.413 135.97 185.763 137.39C185.673 137.48 185.553 137.52 185.443 137.52Z" fill="#7C3215"/>
<path d="M212.513 106.94L202.163 109.78L201.403 109.99L194.253 111.95L193.383 112.19L184.183 114.71L183.473 111.45L183.313 110.67L181.653 103.01L181.483 102.24L178.353 87.7898C177.503 84.4498 176.943 80.2698 177.413 76.8598C178.103 71.8098 182.533 65.2598 190.703 64.8198C192.163 64.7398 193.533 64.9598 194.813 65.4298C195.073 65.5098 195.333 65.6198 195.583 65.7298C198.053 66.8498 200.193 68.9098 202.033 71.5598C202.183 71.7698 202.323 71.9798 202.453 72.1998C205.953 77.5198 208.343 84.9598 209.943 91.9198C210.013 92.1898 210.073 92.4598 210.133 92.7298C210.873 96.0398 211.433 99.2298 211.853 101.99C211.923 102.42 211.983 102.84 212.033 103.25C212.233 104.62 212.393 105.86 212.513 106.94Z" fill="#DF615C"/>
<path d="M211.853 101.99C210.623 100.87 208.963 100.09 206.403 100.55C203.363 101.09 200.973 100.11 200.013 97.9198C199.283 96.2798 199.623 94.3598 200.793 93.4598C203.133 91.6598 206.723 91.8098 210.133 92.7298C210.073 92.4598 210.013 92.1898 209.943 91.9198C206.443 91.0298 202.783 90.9698 200.323 92.8498C199.223 93.6998 198.713 95.1798 198.893 96.7098C198.953 97.2198 199.093 97.7298 199.303 98.2298C200.423 100.76 203.133 101.91 206.543 101.3C209.293 100.8 210.813 101.87 212.033 103.25C211.983 102.84 211.923 102.42 211.853 101.99Z" fill="#A92F4B"/>
<path d="M201.043 79.3597C198.923 76.2897 200.513 74.2597 202.453 72.1997C202.323 71.9797 202.183 71.7697 202.033 71.5597C199.983 73.7097 197.913 76.1797 200.413 79.7997C202.143 82.3097 202.573 84.3497 201.603 85.3997C200.513 86.5697 197.893 86.2997 195.243 84.7397C192.803 83.2997 192.013 78.3597 193.003 70.8197C193.243 69.0097 194.043 67.3797 195.203 66.1097C195.323 65.9797 195.453 65.8497 195.583 65.7297C195.333 65.6197 195.073 65.5097 194.813 65.4297C193.443 66.8397 192.523 68.6697 192.243 70.7097C191.813 74.0397 191.583 77.9097 192.213 80.9097C192.643 82.9297 193.453 84.5697 194.853 85.3997C196.953 86.6297 199.023 87.1097 200.533 86.7897C201.193 86.6497 201.753 86.3597 202.163 85.9197C203.403 84.5897 202.993 82.1997 201.043 79.3597Z" fill="#A92F4B"/>
<path d="M181.673 102.34C179.973 92.2296 177.823 82.7696 177.803 82.6696C177.753 82.4696 177.553 82.3396 177.353 82.3896C177.153 82.4396 177.023 82.6396 177.073 82.8396C177.093 82.9396 179.233 92.3496 180.923 102.41C181.033 102.8 181.673 102.82 181.673 102.34Z" fill="#A92F4B"/>
<path d="M178.933 90.1397C178.863 90.1397 178.793 90.1197 178.733 90.0797L174.833 87.5797C174.663 87.4697 174.603 87.2397 174.723 87.0597C174.833 86.8797 175.063 86.8297 175.243 86.9497L179.143 89.4497C179.313 89.5597 179.373 89.7897 179.253 89.9697C179.183 90.0797 179.063 90.1397 178.933 90.1397Z" fill="#A92F4B"/>
<path d="M153.663 91.2202C152.343 91.2202 151.133 90.7402 150.053 89.7902C143.883 84.3602 143.913 64.6202 143.913 63.7802C143.913 63.3902 144.233 63.0702 144.633 63.0702C145.033 63.0702 145.353 63.3902 145.343 63.7902C145.343 63.9902 145.313 83.7102 150.993 88.7102C151.963 89.5602 153.023 89.9002 154.213 89.7402C161.803 88.7402 165.253 66.6502 165.943 58.2202C165.973 57.8302 166.323 57.5302 166.713 57.5602C167.103 57.5902 167.403 57.9402 167.373 58.3302C167.363 58.4102 166.713 66.1902 164.863 74.0402C162.313 84.8202 158.793 90.5802 154.403 91.1602C154.153 91.2102 153.903 91.2202 153.663 91.2202Z" fill="white"/>
</svg>
