<svg width="210" height="251" viewBox="0 0 210 251" fill="none" xmlns="http://www.w3.org/2000/svg">
<path d="M101.573 79.9301L98.7427 83.8901L95.9627 87.8401C94.1127 90.4801 92.2827 93.1301 90.4627 95.7901C86.8227 101.12 83.2427 106.5 79.7527 112.04C78.0127 114.82 76.2927 117.62 74.6127 120.57C73.7727 122.05 72.9427 123.55 72.1327 125.16C71.7227 125.96 71.3227 126.8 70.9227 127.7C70.5227 128.6 70.1227 129.55 69.7227 130.75L69.6827 130.86L69.6427 130.98L69.5627 131.23L69.4127 131.73L69.2627 132.31C69.2127 132.5 69.1627 132.72 69.1427 132.85C69.0827 133.15 69.0227 133.47 68.9627 133.81C68.9027 134.16 68.8527 134.54 68.8027 135C68.7627 135.47 68.7227 135.99 68.7527 136.75L68.7727 137.06L68.7827 137.22L68.8027 137.4C68.8127 137.52 68.8227 137.63 68.8427 137.76C68.8627 137.9 68.8827 138.04 68.9027 138.18C69.0127 138.78 69.1527 139.51 69.6127 140.55C69.7327 140.83 69.8527 141.06 70.0327 141.39C70.1227 141.54 70.2127 141.7 70.3027 141.84C70.3427 141.91 70.4027 142 70.4627 142.08L70.6427 142.33C70.7727 142.5 70.8927 142.66 71.0327 142.82C71.1827 143 71.3427 143.18 71.5127 143.34C71.5927 143.42 71.6827 143.51 71.7627 143.59C71.8527 143.67 71.9527 143.76 72.0527 143.85C72.2527 144.02 72.4527 144.18 72.6627 144.33C73.0927 144.64 73.5727 144.93 74.0527 145.16C74.2927 145.28 74.5427 145.38 74.7927 145.48C75.0427 145.58 75.2727 145.65 75.5227 145.72C75.6427 145.75 75.7627 145.79 75.8927 145.82C76.0227 145.85 76.1427 145.88 76.2427 145.9C76.4627 145.94 76.6927 145.98 76.9227 146.01C77.0327 146.02 77.1627 146.04 77.2527 146.05L77.5527 146.07C77.7527 146.08 77.9527 146.09 78.1527 146.08C78.3327 146.08 78.4927 146.07 78.6627 146.06L78.9127 146.04L79.1527 146.02C79.2927 146 79.4327 145.98 79.5827 145.96C79.7227 145.94 79.8727 145.91 79.9827 145.89C80.1027 145.87 80.2127 145.84 80.3327 145.81C80.4427 145.78 80.5727 145.75 80.6627 145.72C80.8527 145.67 81.0627 145.6 81.2327 145.54C81.9327 145.3 82.3727 145.07 82.7727 144.86C82.9727 144.75 83.1327 144.66 83.3027 144.56L83.5227 144.42L83.7227 144.29L83.9127 144.16L84.0827 144.04C84.2027 143.96 84.2927 143.89 84.4027 143.81C84.7927 143.51 85.1027 143.25 85.3827 143.01C85.9327 142.52 86.3527 142.1 86.7527 141.7C87.5227 140.89 88.1627 140.16 88.7627 139.44C89.9527 138 91.0027 136.63 92.0227 135.24C92.5327 134.55 93.0227 133.86 93.5127 133.17L94.2427 132.13L94.9927 131.04C97.7127 127.07 96.6927 121.65 92.7327 118.94C88.7827 116.24 83.4027 117.23 80.6727 121.15L80.5727 121.29L79.9627 122.17L79.3127 123.08C78.8827 123.69 78.4427 124.29 77.9927 124.88C77.1127 126.06 76.2127 127.21 75.3627 128.22C74.9427 128.72 74.5227 129.19 74.1827 129.53C74.0227 129.7 73.8727 129.83 73.8227 129.87C73.8027 129.89 73.8027 129.88 73.8727 129.83L73.9527 129.77L74.0727 129.69L74.1527 129.64L74.2427 129.58C74.3227 129.53 74.3927 129.49 74.5127 129.43C74.7327 129.31 75.0027 129.18 75.5027 129C75.6227 128.96 75.7827 128.91 75.9227 128.87L76.1827 128.8C76.2727 128.78 76.3727 128.76 76.4627 128.74C76.5427 128.72 76.6727 128.7 76.7927 128.68C76.9127 128.66 77.0227 128.64 77.1427 128.63L77.3427 128.61L77.5627 128.59C77.7127 128.58 77.8427 128.58 78.0027 128.57C78.1727 128.57 78.3527 128.57 78.5227 128.58L78.7827 128.6L79.0727 128.63C79.2727 128.65 79.4727 128.69 79.6727 128.73L79.9927 128.8C80.1027 128.83 80.2127 128.86 80.3227 128.89C80.5427 128.95 80.7527 129.02 80.9827 129.11C81.2127 129.2 81.4327 129.29 81.6527 129.4C82.0927 129.61 82.5227 129.87 82.9127 130.15C83.1027 130.29 83.2927 130.43 83.4627 130.59C83.5527 130.67 83.6427 130.75 83.7227 130.82C83.8027 130.89 83.8727 130.97 83.9527 131.04C84.1027 131.19 84.2427 131.35 84.3827 131.51C84.5127 131.66 84.6227 131.8 84.7327 131.95C84.7827 132.02 84.8427 132.1 84.8927 132.17L85.0327 132.38C85.1127 132.51 85.1927 132.64 85.2727 132.77C85.4327 133.06 85.5227 133.25 85.6327 133.48C86.0027 134.34 86.1027 134.88 86.1727 135.28C86.1927 135.37 86.2027 135.46 86.2127 135.55L86.2327 135.76L86.2427 135.95L86.2527 136.11C86.2627 136.47 86.2527 136.6 86.2427 136.67C86.2327 136.73 86.2327 136.72 86.2427 136.68C86.2527 136.64 86.2627 136.56 86.2827 136.47C86.2927 136.4 86.2927 136.43 86.2927 136.43C86.2927 136.43 86.2927 136.44 86.2927 136.43C86.3027 136.4 86.3127 136.38 86.3227 136.35L86.3327 136.31V136.29L86.3427 136.26C86.4427 135.95 86.6527 135.42 86.9027 134.87C87.1527 134.31 87.4427 133.71 87.7627 133.1C88.3927 131.87 89.1027 130.57 89.8427 129.28C91.3227 126.68 92.9427 124.05 94.6027 121.43C97.9227 116.18 101.423 110.95 104.993 105.75C106.773 103.15 108.573 100.56 110.393 97.9801L113.123 94.1201L115.863 90.3001L115.923 90.2201C118.763 86.2501 117.853 80.7301 113.893 77.8901C109.923 75.0501 104.403 75.9601 101.563 79.9201L101.573 79.9301Z" fill="#EEBA9B"/>
<path d="M100.631 161.62C100.281 163.82 100.291 165.5 100.951 166.48C101.891 167.89 109.511 169.37 119.131 170.3C119.731 170.36 120.341 170.42 120.951 170.47C122.981 170.65 125.081 170.8 127.211 170.92C127.711 170.95 128.201 170.98 128.701 171C144.931 171.82 162.431 170.87 163.471 165.87C165.481 156.21 159.731 141.62 161.061 126.57C161.591 120.5 166.671 108.53 167.131 101.01C167.841 89.5502 168.041 78.8202 166.431 76.1102C165.301 74.2102 160.401 72.5402 155.121 71.2502C153.491 70.8502 151.821 70.4802 150.211 70.1602C144.731 69.0502 139.991 68.4102 139.991 68.4102C139.991 68.4102 125.901 69.1401 116.321 71.5901C114.571 72.0401 112.971 72.5402 111.641 73.1102C111.441 73.1902 111.251 73.2802 111.061 73.3702C110.401 73.6802 109.791 73.9702 109.221 74.2402C100.101 78.6502 101.351 79.4802 102.051 84.8902C103.081 92.8502 103.921 92.3702 101.811 99.3002C101.641 99.8602 101.451 100.47 101.241 101.14C100.721 102.78 100.071 104.78 99.2813 107.24C98.6013 109.33 98.2513 111.07 98.1513 112.54C98.1313 112.83 98.1213 113.1 98.1213 113.36C98.0713 121.62 106.461 120.95 106.461 131.37C106.461 137.74 105.001 144.26 103.521 149.96C103.451 150.23 103.381 150.5 103.311 150.77C102.451 154.03 101.611 157 101.061 159.51C100.881 160.24 100.741 160.95 100.631 161.62Z" fill="#5A918E"/>
<path d="M146.521 89.8C146.661 92.89 149.841 94.2 152.311 94.76C152.171 94.45 152.041 94.13 151.911 93.8C149.801 93.24 147.451 92.09 147.351 89.77C147.241 87.39 148.911 86.07 150.421 85.37C150.421 85.07 150.431 84.78 150.441 84.48C148.631 85.24 146.391 86.8 146.521 89.8Z" fill="#285B5C"/>
<path d="M142.303 80.4598C143.743 80.4598 145.463 80.0898 147.173 78.8298C148.103 78.1398 148.643 77.2298 148.753 76.1298C149.073 73.0298 145.923 69.4798 145.793 69.3298C145.643 69.1598 145.383 69.1498 145.213 69.2998C145.043 69.4498 145.033 69.7098 145.183 69.8798C145.213 69.9098 148.223 73.3098 147.933 76.0398C147.843 76.9098 147.433 77.5998 146.683 78.1498C143.023 80.8498 139.273 79.0198 139.123 78.9398C138.923 78.8398 138.673 78.9198 138.563 79.1198C138.463 79.3198 138.543 79.5698 138.743 79.6698C138.853 79.7398 140.303 80.4598 142.303 80.4598Z" fill="#285B5C"/>
<path d="M119.023 83.6198C120.563 83.6198 121.773 83.4598 121.883 83.4398C122.113 83.4098 122.263 83.1998 122.233 82.9698C122.203 82.7398 121.993 82.5898 121.763 82.6198C121.703 82.6298 115.913 83.3898 113.663 81.5598C113.143 81.1398 112.873 80.6298 112.833 79.9898C112.553 76.0498 117.773 73.0798 117.833 73.0498C118.033 72.9398 118.103 72.6898 117.993 72.4898C117.883 72.2898 117.633 72.2198 117.433 72.3298C117.203 72.4598 111.703 75.5898 112.013 80.0498C112.073 80.9098 112.453 81.6398 113.153 82.1998C114.573 83.3598 117.063 83.6198 119.023 83.6198Z" fill="#285B5C"/>
<path d="M158.692 156.62C158.712 156.62 158.722 156.62 158.742 156.62C158.972 156.59 159.132 156.39 159.112 156.16C159.092 155.98 157.122 138.08 156.942 127.93C156.762 117.82 161.422 99.5701 161.472 99.3801C161.532 99.1601 161.392 98.9301 161.172 98.8801C160.952 98.8201 160.722 98.9601 160.672 99.1801C160.622 99.3601 155.942 117.72 156.112 127.95C156.292 138.14 158.272 156.08 158.292 156.26C158.312 156.47 158.482 156.62 158.692 156.62Z" fill="#285B5C"/>
<path d="M118.111 150.68C126.291 150.68 133.581 147.54 138.791 144.43C146.401 139.89 151.331 134.45 151.381 134.39C151.531 134.22 151.521 133.96 151.351 133.81C151.181 133.66 150.921 133.67 150.771 133.84C150.721 133.89 145.861 139.26 138.361 143.73C131.461 147.84 120.841 152.02 109.441 148.57C109.221 148.5 108.991 148.63 108.921 148.85C108.851 149.07 108.981 149.3 109.201 149.37C112.231 150.29 115.231 150.68 118.111 150.68Z" fill="#285B5C"/>
<path d="M121.933 157.94C125.443 157.94 128.753 157.19 131.353 156.34C136.323 154.72 139.893 152.42 139.923 152.4C140.113 152.28 140.173 152.02 140.043 151.83C139.923 151.64 139.663 151.58 139.473 151.71C139.333 151.8 125.543 160.62 114.003 155.54C113.793 155.45 113.553 155.54 113.453 155.75C113.363 155.96 113.453 156.2 113.663 156.29C116.393 157.49 119.233 157.94 121.933 157.94Z" fill="#285B5C"/>
<path d="M122.462 95.9901C127.082 95.9901 131.122 94.4401 134.172 92.7401C139.712 89.6501 143.132 85.5401 143.272 85.3601C143.422 85.1801 143.392 84.9201 143.212 84.7801C143.032 84.6301 142.772 84.6601 142.632 84.8401C142.602 84.8801 139.152 89.0201 133.742 92.0301C126.542 96.0401 119.452 96.2401 112.682 92.6301C112.482 92.5201 112.232 92.6001 112.122 92.8001C112.012 93.0001 112.092 93.2501 112.292 93.3601C115.862 95.2701 119.292 95.9901 122.462 95.9901Z" fill="#285B5C"/>
<path d="M167.131 101.01C167.841 89.55 168.041 78.82 166.431 76.11C165.301 74.21 160.401 72.54 155.121 71.25C143.591 87.1 155.471 108.88 167.131 101.01Z" fill="#EEBA9B"/>
<path d="M101.801 99.2802C108.011 92.3202 109.101 80.4402 109.211 74.2202C100.091 78.6302 101.341 79.4602 102.041 84.8702C103.061 92.8402 103.901 92.3602 101.801 99.2802Z" fill="#EEBA9B"/>
<path d="M116.322 71.57C117.382 77.23 118.302 87.85 127.212 87.85C135.882 87.85 147.272 73.77 150.212 70.14C144.732 69.03 139.512 66.98 139.512 66.98C139.512 66.98 125.902 69.13 116.322 71.57Z" fill="#EEBA9B"/>
<path d="M106.602 90.6598C107.712 91.5298 108.862 92.7498 109.142 94.1798C109.392 95.4598 108.892 96.7598 107.672 98.0498C106.462 99.3398 105.362 100.36 104.482 101.19C101.562 103.92 100.232 105.17 102.212 108.77C102.652 109.57 102.682 110.3 102.282 110.94C101.662 111.95 100.072 112.59 98.3318 112.54C98.2718 112.54 98.1918 112.53 98.1218 112.53C98.1018 112.82 98.0918 113.09 98.0918 113.35C98.1618 113.35 98.2318 113.36 98.3118 113.36C98.3918 113.36 98.4818 113.36 98.5618 113.36C100.522 113.36 102.242 112.59 102.992 111.37C103.372 110.74 103.682 109.71 102.942 108.37C101.272 105.34 102.142 104.52 105.042 101.79C105.932 100.96 107.032 99.9198 108.262 98.6198C109.672 97.1198 110.242 95.5798 109.942 94.0198C109.592 92.2298 108.162 90.7898 106.872 89.8198L106.602 90.6598Z" fill="#285B5C"/>
<path d="M150.082 111.64C147.172 111.59 145.582 110.69 144.172 109.89C142.532 108.96 141.122 108.15 137.892 108.74C137.772 108.76 137.642 108.78 137.522 108.8C133.512 109.4 130.872 106.65 130.332 103.61C129.822 100.78 131.112 97.3501 135.132 96.5201C137.222 96.0901 139.212 96.6901 141.072 98.3001C145.602 102.25 147.462 101.96 149.812 101.6C150.662 101.47 151.552 101.33 152.632 101.37C154.482 101.43 155.732 103.22 155.672 105.71C155.602 108.67 153.692 111.63 150.192 111.63C150.152 111.64 150.112 111.64 150.082 111.64ZM149.932 102.42C147.472 102.8 145.342 103.13 140.522 98.9301C138.872 97.4901 137.112 96.9501 135.292 97.3301C131.792 98.0501 130.682 100.93 131.142 103.47C131.602 106.03 133.752 108.53 137.402 107.98C137.512 107.96 137.632 107.94 137.742 107.92C141.262 107.28 142.872 108.19 144.582 109.16C145.962 109.95 147.392 110.76 150.092 110.81C150.122 110.81 150.152 110.81 150.182 110.81C153.152 110.81 154.772 108.25 154.842 105.69C154.882 103.99 154.212 102.25 152.602 102.2C152.492 102.2 152.382 102.19 152.282 102.19C151.412 102.19 150.662 102.31 149.932 102.42Z" fill="#285B5C"/>
<path d="M104.961 123.52C102.771 121.37 101.811 118.96 102.181 116.57C102.201 116.42 102.311 116.29 102.451 116.24C102.491 116.23 106.361 114.81 107.051 109.14C107.491 105.5 110.501 103.2 113.301 102.54C116.211 101.85 118.841 102.78 120.331 105.03C123.521 109.84 124.641 110.53 133.701 113.23C137.681 114.42 140.021 117.44 139.801 121.11C139.581 124.87 136.451 129.16 129.971 130.29C128.581 130.53 127.101 130.65 125.581 130.65C117.991 130.66 109.311 127.79 104.961 123.52ZM113.481 103.34C110.971 103.93 108.261 105.99 107.861 109.24C107.211 114.65 103.891 116.5 102.951 116.92C102.711 119 103.571 121.02 105.521 122.93C110.491 127.81 121.841 130.87 129.811 129.49C135.851 128.44 138.761 124.51 138.961 121.07C139.151 117.8 137.041 115.1 133.451 114.03C124.551 111.38 123.041 110.65 119.621 105.49C118.611 103.97 116.991 103.14 115.111 103.14C114.601 103.14 114.051 103.21 113.481 103.34Z" fill="#285B5C"/>
<path d="M112.003 136.32C111.993 136.14 112.103 135.98 112.263 135.92C112.783 135.71 125.113 130.83 129.083 132.22C129.243 132.27 129.343 132.42 129.363 132.58C129.383 132.87 129.853 139.77 126.493 143.51C125.183 144.97 123.453 145.75 121.373 145.81C121.243 145.81 121.123 145.82 120.993 145.82C112.533 145.81 112.013 136.41 112.003 136.32ZM112.853 136.57C112.923 137.25 113.183 139.02 114.063 140.76C115.533 143.67 117.983 145.09 121.343 144.98C123.193 144.92 124.723 144.24 125.873 142.95C128.633 139.88 128.593 134.24 128.543 132.92C124.923 132.01 114.693 135.86 112.853 136.57Z" fill="#285B5C"/>
<path d="M143.622 162.48C141.092 162.3 139.472 161.2 139.192 159.45C138.852 157.32 140.622 155.01 143.492 153.83C146.212 152.72 146.222 150.66 146.242 148.48C146.252 146.91 146.262 145.28 147.402 144.14C148.892 142.65 151.602 142.33 153.442 143.42C155.002 144.34 155.562 146.01 154.972 147.99C153.712 152.27 156.572 153.78 156.692 153.84C156.802 153.9 156.882 154 156.912 154.13C156.942 154.25 156.902 154.38 156.822 154.48C156.532 154.82 149.932 162.49 144.072 162.49C143.932 162.5 143.772 162.49 143.622 162.48ZM154.192 147.76C154.662 146.15 154.252 144.86 153.032 144.13C151.492 143.22 149.232 143.48 147.992 144.72C147.092 145.62 147.082 147.01 147.072 148.48C147.062 150.73 147.042 153.27 143.812 154.59C141.002 155.74 139.772 157.83 140.012 159.31C140.222 160.65 141.562 161.5 143.682 161.65C148.572 161.99 154.482 155.84 155.892 154.29C154.972 153.61 153.052 151.63 154.192 147.76Z" fill="#285B5C"/>
<path d="M100.631 161.62C100.931 162.65 101.351 163.53 101.861 164.22C102.681 165.34 103.721 165.96 104.761 165.96C104.901 165.96 105.041 165.95 105.181 165.93C106.801 165.67 108.201 163.95 109.121 161.1C110.281 157.51 110.131 154.69 108.681 152.71C107.221 150.72 104.841 150.13 103.501 149.95C103.431 150.22 103.361 150.49 103.291 150.76C104.471 150.9 106.721 151.42 108.021 153.2C109.301 154.95 109.401 157.52 108.331 160.84C107.511 163.39 106.341 164.91 105.041 165.11C104.161 165.25 103.271 164.76 102.521 163.73C101.781 162.72 101.231 161.25 101.041 159.49C100.881 160.24 100.741 160.95 100.631 161.62Z" fill="#285B5C"/>
<path d="M117.031 168.42C117.041 168.43 117.041 168.44 117.051 168.44C117.121 168.52 117.891 169.39 119.131 170.3C119.731 170.36 120.341 170.42 120.951 170.47C119.101 169.46 117.821 168.06 117.691 167.91C117.581 167.75 116.411 166.03 117.061 164.5C117.611 163.19 119.321 162.32 122.131 161.92C129.611 160.85 131.391 165.43 131.661 166.31C130.331 168.6 128.841 170.14 127.211 170.92C127.711 170.95 128.201 170.98 128.701 171C130.071 170.04 131.331 168.56 132.461 166.58C132.511 166.49 132.531 166.39 132.511 166.29C132.501 166.23 131.001 159.83 122.011 161.11C118.881 161.55 116.961 162.59 116.291 164.19C115.431 166.22 116.961 168.33 117.031 168.42Z" fill="#285B5C"/>
<path d="M95.302 175.35C94.962 166.01 93.382 156.8 92.082 147.56C98.302 150.26 104.432 152.72 109.852 155.99C109.852 155.99 109.852 155.99 109.862 155.99C113.212 158.01 116.222 159.79 118.422 161.03C121.782 162.92 126.082 163.1 130.292 162.52C138.492 161.39 146.362 157.35 146.362 157.35C146.362 157.35 172.772 145.38 177.722 145.78C181.572 146.09 160.852 167.72 143.712 176.58C142.002 177.81 139.292 179.09 135.232 180.38C118.462 185.72 102.712 180.9 95.372 177.88C95.352 177.04 95.332 176.2 95.302 175.35Z" fill="#D76751"/>
<path d="M47.2322 215.97L44.9922 230.13L31.7422 231.05L33.1222 213.65L47.2322 215.97Z" fill="#F49D8B"/>
<path d="M0.82272 250.88L48.2327 250.84C48.5827 250.2 48.7727 249.29 48.8527 248.21C49.1427 244.2 47.8627 237.8 47.2327 233.77C47.1527 233.3 47.0927 232.86 47.0427 232.46C46.9527 231.79 46.9027 231.22 46.9027 230.81C46.9027 227.52 43.9827 228.08 43.9827 228.08C39.1927 232.79 33.7527 225.74 30.5827 228.06C30.5827 228.06 29.2127 229.04 25.4527 232.43C21.6927 235.82 15.2927 238.06 9.84272 240.35C2.81272 243.3 0.81272 246.24 0.43272 248.26C0.12272 249.85 0.82272 250.88 0.82272 250.88Z" fill="#F5BF69"/>
<path d="M0.82272 250.88L48.2327 250.84C48.5827 250.2 48.7727 249.29 48.8527 248.21L0.43272 248.25C0.12272 249.85 0.82272 250.88 0.82272 250.88Z" fill="#ED9033"/>
<path d="M29.8726 230.06C29.8726 230.06 29.0226 227.99 27.1426 228.65C25.2626 229.31 25.4526 232.41 25.4526 232.41C25.4526 232.41 26.5826 235.24 29.8726 230.06Z" fill="white"/>
<path d="M30.4633 239.38C30.8933 239.38 31.2433 239.03 31.2433 238.6C31.2433 233.89 28.2933 231.34 28.1633 231.24C27.8333 230.96 27.3433 231 27.0633 231.33C26.7833 231.66 26.8233 232.15 27.1533 232.43C27.2633 232.52 29.6733 234.65 29.6733 238.6C29.6833 239.03 30.0333 239.38 30.4633 239.38Z" fill="white"/>
<path d="M20.6036 233.25C20.7836 233.25 20.9736 233.18 21.1236 233.05C22.1136 232.17 25.0236 232 26.6336 232.1C27.0636 232.13 27.4336 231.8 27.4636 231.37C27.4936 230.94 27.1636 230.57 26.7336 230.54C26.2436 230.51 21.8836 230.28 20.0936 231.88C19.7736 232.17 19.7436 232.66 20.0236 232.98C20.1736 233.16 20.3836 233.25 20.6036 233.25Z" fill="white"/>
<path d="M27.4745 230.63L27.8745 231.03C27.8445 231.03 27.8345 231.02 27.8345 231.02L27.8245 231.07L27.5045 232.68C27.5145 232.68 27.5745 232.7 27.6845 232.71C27.9245 232.74 28.4145 232.79 29.1845 232.79C29.2845 232.79 29.3945 232.79 29.4945 232.79C30.3445 232.77 31.4845 232.7 32.9545 232.5C34.4945 232.29 35.7945 231.77 36.6845 231.05C37.2345 230.61 37.6245 230.09 37.8245 229.52C37.8445 229.47 37.8545 229.42 37.8745 229.37C38.1145 228.52 37.8945 227.66 37.2545 226.99C36.6145 226.31 35.7845 225.96 34.8045 225.95C34.7845 225.95 34.7645 225.95 34.7445 225.95C33.8245 225.95 32.8545 226.25 31.9145 226.7C30.7245 227.27 29.5945 228.07 28.7245 228.76C28.6445 228.83 28.5545 228.89 28.4845 228.96C28.0845 229.29 27.7545 229.59 27.5045 229.81C27.2845 230.01 27.1345 230.16 27.0645 230.23L27.4745 230.63ZM29.1645 231.1C28.9445 231.1 28.7645 231.1 28.5945 231.09C28.9245 230.78 29.3545 230.41 29.8445 230.03C30.4445 229.56 31.1245 229.07 31.8245 228.66C32.4245 228.31 33.0445 228.01 33.6245 227.83C34.0145 227.71 34.3845 227.64 34.7245 227.64H34.7645C35.2845 227.65 35.6845 227.81 36.0145 228.16C36.2145 228.37 36.2945 228.58 36.2545 228.82C36.2445 228.87 36.2345 228.92 36.2145 228.97C35.9645 229.7 34.7745 230.56 32.7045 230.84C32.3545 230.89 32.0345 230.93 31.7245 230.96C30.6345 231.06 29.7945 231.1 29.1645 231.1Z" fill="white"/>
<path d="M26.1933 231.94L26.9133 230.41C25.3533 229.67 23.8633 227.73 23.9533 226.56C23.9733 226.28 24.0933 225.92 24.8333 225.71C25.3433 225.56 25.5933 225.69 25.7633 225.81C26.5833 226.44 26.8433 228.58 26.8133 229.78L28.5033 229.82C28.5133 229.42 28.5533 225.83 26.8033 224.47C26.3334 224.11 25.5333 223.74 24.3733 224.08C22.6733 224.57 22.3233 225.76 22.2733 226.42C22.1033 228.5 24.2033 231 26.1933 231.94Z" fill="white"/>
<path d="M43.3933 250.84H44.8033C43.3933 249.24 42.0833 246.77 42.2433 243.25C42.4633 238.57 45.2733 235.4 47.2233 233.76C47.1433 233.29 47.0833 232.85 47.0333 232.45C44.9333 234.06 41.3833 237.59 41.1133 243.2C40.9633 246.56 42.0633 249.06 43.3933 250.84Z" fill="#ED9033"/>
<path d="M26.2517 235.21C26.6017 235.21 26.9217 234.97 27.0117 234.62C27.1117 234.2 26.8618 233.78 26.4418 233.67L23.4817 232.94C23.0617 232.84 22.6418 233.09 22.5318 233.51C22.4318 233.93 22.6817 234.35 23.1017 234.46L26.0617 235.19C26.1317 235.21 26.1917 235.21 26.2517 235.21Z" fill="white"/>
<path d="M23.2928 236.94C23.6428 236.94 23.9628 236.7 24.0528 236.35C24.1528 235.93 23.9028 235.51 23.4828 235.4L20.5228 234.67C20.1028 234.57 19.6828 234.82 19.5728 235.24C19.4728 235.66 19.7228 236.08 20.1428 236.19L23.1028 236.92C23.1728 236.93 23.2328 236.94 23.2928 236.94Z" fill="white"/>
<path d="M20.3318 238.6C20.6818 238.6 21.0018 238.36 21.0918 238.01C21.1918 237.59 20.9418 237.17 20.5218 237.06L17.5618 236.33C17.1418 236.23 16.7218 236.48 16.6118 236.9C16.5118 237.32 16.7618 237.74 17.1818 237.85L20.1418 238.58C20.2118 238.59 20.2718 238.6 20.3318 238.6Z" fill="white"/>
<path d="M17.1131 240.13C17.4631 240.13 17.7831 239.89 17.8731 239.54C17.9731 239.12 17.7231 238.7 17.3031 238.59L14.3431 237.86C13.9231 237.76 13.5031 238.01 13.3931 238.43C13.2931 238.85 13.5431 239.27 13.9631 239.38L16.9231 240.11C16.9831 240.12 17.0431 240.13 17.1131 240.13Z" fill="white"/>
<path d="M13.6131 241.44C13.9631 241.44 14.2831 241.2 14.3731 240.85C14.4731 240.43 14.2231 240.01 13.8031 239.9L10.8431 239.17C10.4231 239.07 10.0031 239.32 9.89308 239.74C9.79308 240.16 10.0431 240.58 10.4631 240.69L13.4231 241.42C13.4831 241.43 13.5431 241.44 13.6131 241.44Z" fill="white"/>
<path d="M114.672 158.88C98.6522 150.4 70.5022 133.49 58.6422 131.09C37.9622 126.9 31.2422 219.19 31.2422 219.19L47.8322 220.81C47.8322 220.81 63.3522 181.03 64.5822 165.69C64.5822 165.69 86.1722 186.43 129.892 187.3L114.672 158.88Z" fill="#D76751"/>
<path d="M49.9326 216.62C49.9326 216.62 49.6526 219.73 47.5326 221.66L30.3326 219.95C30.3326 219.95 29.9526 216.03 30.8226 214.45L49.9326 216.62Z" fill="#BA4131"/>
<path d="M46.2025 217.1C46.4125 217.1 46.6025 216.97 46.6625 216.76C46.7025 216.62 50.8525 203.01 54.7525 191.03C58.1925 180.45 61.8225 160.89 62.6725 156.19C66.7725 161.09 72.1925 165.53 78.7925 169.39C84.3526 172.65 90.7626 175.51 97.8326 177.9C109.873 181.96 119.823 183.26 119.923 183.27C120.193 183.3 120.433 183.12 120.463 182.85C120.493 182.59 120.313 182.34 120.043 182.31C119.943 182.3 110.073 181.01 98.1225 176.97C87.1225 173.26 72.0525 166.39 62.7525 154.76C62.6325 154.61 62.4425 154.55 62.2525 154.59C62.0725 154.64 61.9325 154.79 61.8925 154.98C61.8525 155.22 57.7125 178.77 53.8225 190.73C49.9225 202.72 45.7725 216.34 45.7325 216.48C45.6525 216.74 45.8025 217.01 46.0525 217.08C46.1125 217.09 46.1525 217.1 46.2025 217.1Z" fill="#BA4131"/>
<path d="M87.0127 160.57L160.383 168.47C160.543 168.49 160.693 168.37 160.713 168.21C160.963 165.93 159.313 163.89 157.033 163.64L87.4927 156.15C87.3327 156.13 87.1826 156.25 87.1626 156.41L86.7527 160.24C86.7227 160.4 86.8427 160.55 87.0127 160.57Z" fill="#414F50"/>
<path d="M66.8729 117.39L71.8629 157.11C71.9929 158.17 72.8429 159 73.9029 159.11L130.313 165.18C131.793 165.34 133.023 164.08 132.843 162.61L127.853 122.89C127.723 121.83 126.873 121 125.813 120.89L69.4029 114.82C67.9329 114.66 66.6929 115.92 66.8729 117.39Z" fill="#1B3431"/>
<path d="M103.532 140.73C103.082 144.2 96.7224 147.92 96.7224 147.92C96.7224 147.92 90.3524 142.83 89.8924 139.26C89.3924 135.39 93.8224 134.7 96.7024 137.89C99.5824 135.32 104.012 136.97 103.532 140.73Z" fill="#414F50"/>
<path d="M123.582 120.65L128.672 165L130.312 165.18C131.792 165.34 133.022 164.08 132.842 162.61L127.852 122.89C127.722 121.83 126.872 121 125.812 120.89L123.582 120.65Z" fill="#414F50"/>
<path d="M100.094 193.14C100.094 193.14 106.124 192.18 107.994 190.2L111.914 202.74L97.5039 205.7C97.5039 205.7 97.6839 195.13 100.094 193.14Z" fill="#F49D8B"/>
<path d="M64.9434 223.77L83.5734 182.42C84.2734 182.36 85.1434 182.55 86.1134 182.91C89.7234 184.23 94.8034 187.86 98.0834 189.99C98.4634 190.24 98.8234 190.47 99.1534 190.67C99.7034 191.01 100.173 191.28 100.533 191.44C103.403 192.73 101.923 193.67 101.923 193.67C95.9334 196.01 99.7934 204.9 96.5334 206.76C96.5334 206.76 95.1434 207.57 90.7134 209.52C86.2834 211.47 81.8134 216.18 77.6834 220.03C72.3534 225.01 69.0134 225.6 67.0934 225.14C65.5734 224.78 64.9434 223.77 64.9434 223.77Z" fill="#F5BF69"/>
<path d="M97.5436 204.43C97.5436 204.43 99.1936 205.56 98.2636 207.09C97.3336 208.61 94.6436 207.86 94.6436 207.86C94.6436 207.86 92.3936 206.33 97.5436 204.43Z" fill="white"/>
<path d="M89.4939 202.16C89.5739 201.78 89.9439 201.54 90.3239 201.62C94.4439 202.51 96.1239 205.57 96.1939 205.7C96.3739 206.04 96.2439 206.47 95.9039 206.65C95.5639 206.83 95.1439 206.7 94.9539 206.36C94.8939 206.25 93.4839 203.73 90.0239 202.99C89.6539 202.91 89.4139 202.54 89.4939 202.16Z" fill="white"/>
<path d="M93.0031 211.95C93.0331 211.79 93.1331 211.64 93.2731 211.53C94.2331 210.83 94.9231 208.31 95.1431 206.88C95.2031 206.5 95.5531 206.23 95.9431 206.29C96.3231 206.35 96.5931 206.7 96.5331 207.09C96.4731 207.53 95.8431 211.39 94.1131 212.66C93.8031 212.89 93.3631 212.82 93.1331 212.51C93.0031 212.34 92.9631 212.14 93.0031 211.95Z" fill="white"/>
<path d="M96.8845 206.86C96.9545 206.81 97.1145 206.71 97.3345 206.55C97.5845 206.38 97.9045 206.14 98.2645 205.85C98.3345 205.79 98.4045 205.74 98.4845 205.67C99.2645 205.04 100.174 204.2 100.894 203.27C101.464 202.53 101.904 201.74 102.084 200.93C102.084 200.91 102.094 200.89 102.094 200.88C102.264 200.02 102.114 199.23 101.644 198.54C101.174 197.85 100.464 197.5 99.6745 197.55C99.6245 197.55 99.5845 197.56 99.5345 197.56C98.9945 197.63 98.4645 197.88 97.9745 198.27C97.1745 198.92 96.4745 199.96 96.0045 201.27C95.5545 202.52 95.2745 203.51 95.0945 204.25C95.0745 204.34 95.0545 204.44 95.0345 204.52C94.8845 205.19 94.8345 205.63 94.8245 205.85C94.8145 205.95 94.8145 206 94.8145 206.01L96.2845 206.03H96.3245C96.3245 206.03 96.3245 206.02 96.3245 205.99L96.6045 206.42L96.8845 206.86ZM97.1345 202.62C97.2245 202.36 97.3145 202.08 97.4245 201.79C98.0645 200.03 99.0345 199.15 99.7245 199.07C99.7745 199.06 99.8145 199.06 99.8645 199.06C100.074 199.07 100.244 199.18 100.394 199.39C100.634 199.74 100.704 200.12 100.614 200.58L100.604 200.61C100.534 200.91 100.404 201.23 100.234 201.54C99.9645 202.02 99.5945 202.5 99.1645 202.96C98.6745 203.5 98.1145 204.01 97.5845 204.44C97.1545 204.8 96.7445 205.1 96.4145 205.34C96.4345 205.2 96.4745 205.03 96.5145 204.84C96.6245 204.3 96.8145 203.57 97.1345 202.62Z" fill="white"/>
<path d="M95.2148 207.3L96.6948 206.96C97.0448 208.46 98.4648 210.14 99.5148 210.27C99.7648 210.3 100.105 210.26 100.425 209.66C100.645 209.24 100.585 209 100.505 208.83C100.105 208 98.2848 207.37 97.2248 207.17L97.5048 205.68C97.8648 205.75 101.015 206.39 101.875 208.18C102.105 208.66 102.275 209.43 101.765 210.38C101.015 211.78 99.9148 211.86 99.3248 211.78C97.4548 211.53 95.6648 209.22 95.2148 207.3Z" fill="white"/>
<path d="M64.9434 223.77L83.5734 182.42C84.2734 182.36 85.1434 182.55 86.1134 182.91L67.0834 225.14C65.5734 224.78 64.9434 223.77 64.9434 223.77Z" fill="#ED9033"/>
<path d="M81.6738 186.64L82.2238 185.41C83.0738 187.27 84.7038 189.38 87.8438 190.62C92.0238 192.26 95.8738 191.05 98.0838 189.99C98.4638 190.24 98.8238 190.47 99.1538 190.67C96.9238 191.87 92.4538 193.58 87.4538 191.62C84.4538 190.44 82.6938 188.49 81.6738 186.64Z" fill="#ED9033"/>
<path d="M88.584 207.72C88.724 207.41 89.054 207.23 89.404 207.29C89.814 207.36 90.084 207.75 90.004 208.16L89.484 211.03C89.414 211.44 89.024 211.71 88.614 211.63C88.204 211.56 87.934 211.17 88.014 210.76L88.534 207.89C88.544 207.83 88.564 207.77 88.584 207.72Z" fill="white"/>
<path d="M91.8926 206.12C92.0326 205.81 92.3626 205.63 92.7126 205.69C93.1226 205.76 93.3926 206.15 93.3126 206.56L92.7926 209.43C92.7226 209.84 92.3326 210.11 91.9226 210.03C91.5126 209.96 91.2426 209.57 91.3226 209.16L91.8426 206.29C91.8426 206.23 91.8626 206.17 91.8926 206.12Z" fill="white"/>
<path d="M85.9239 209.62C86.0639 209.31 86.3939 209.13 86.7439 209.19C87.1539 209.26 87.4239 209.65 87.3439 210.06L86.8239 212.93C86.7539 213.34 86.3639 213.61 85.9539 213.53C85.5439 213.46 85.2739 213.07 85.3539 212.66L85.8739 209.79C85.8739 209.74 85.8939 209.68 85.9239 209.62Z" fill="white"/>
<path d="M83.3126 211.56C83.4526 211.25 83.7826 211.07 84.1326 211.13C84.5426 211.2 84.8126 211.59 84.7326 212L84.2126 214.87C84.1426 215.28 83.7526 215.55 83.3426 215.47C82.9326 215.4 82.6626 215.01 82.7426 214.6L83.2626 211.73C83.2726 211.67 83.2826 211.61 83.3126 211.56Z" fill="white"/>
<path d="M80.7032 213.77C80.8432 213.46 81.1732 213.28 81.5232 213.34C81.9332 213.41 82.2032 213.8 82.1232 214.21L81.6032 217.08C81.5332 217.49 81.1432 217.76 80.7332 217.68C80.3232 217.61 80.0532 217.22 80.1332 216.81L80.6532 213.94C80.6632 213.88 80.6832 213.82 80.7032 213.77Z" fill="white"/>
<path d="M78.1934 216.31C78.3334 216 78.6634 215.82 79.0134 215.88C79.4234 215.95 79.6934 216.34 79.6134 216.75L79.0934 219.62C79.0234 220.03 78.6334 220.3 78.2234 220.22C77.8134 220.15 77.5434 219.76 77.6234 219.35L78.1434 216.48C78.1534 216.42 78.1734 216.37 78.1934 216.31Z" fill="white"/>
<path d="M177.713 145.78C177.713 145.78 194.433 136.76 204.113 143.73C221.823 156.48 191.773 181.01 157.413 192.99C123.043 204.97 111.893 203.33 111.893 203.33C111.893 203.33 104.423 201.28 107.073 189.17C107.073 189.17 126.883 181.64 137.193 173.75C147.483 165.87 154.513 156.21 177.713 145.78Z" fill="#D76751"/>
<path d="M116.004 186.16C116.084 186.16 116.164 186.14 116.244 186.1C116.414 186 133.474 176.4 140.514 170.63C146.174 165.98 158.594 157.27 158.714 157.18C158.934 157.03 158.984 156.73 158.834 156.51C158.684 156.29 158.374 156.24 158.164 156.39C158.034 156.48 145.594 165.22 139.904 169.89C132.934 175.61 115.944 185.17 115.774 185.27C115.544 185.4 115.454 185.7 115.594 185.93C115.664 186.07 115.834 186.16 116.004 186.16Z" fill="#BA4131"/>
<path d="M108.404 192.7C115.614 190.97 130.304 184.23 147.694 174.68C160.704 167.54 175.704 158.41 177.904 155.24C179.094 153.53 179.394 152.13 178.794 151.08C177.904 149.51 175.324 149.35 174.144 149.36C173.844 149.36 173.604 149.62 173.624 149.92C173.644 150.19 173.874 150.41 174.144 150.4C175.304 150.39 177.304 150.59 177.884 151.59C178.354 152.42 177.684 153.7 177.044 154.63C175.264 157.18 162.714 165.23 147.184 173.75C133.814 181.09 116.544 189.66 108.154 191.67L108.404 192.7Z" fill="#BA4131"/>
<path d="M109.753 187.58C110.563 193.94 112.213 199.72 115.803 204.16C115.803 204.16 112.723 206.38 109.913 204.79C107.763 203.58 103.623 193.64 105.203 188.34C107.013 187.35 108.563 187 109.753 187.58Z" fill="#BA4131"/>
<path d="M186.882 133.39C186.782 131.9 186.612 130.51 186.412 129.16C186.022 126.46 185.502 123.95 184.922 121.48C184.352 119.02 183.712 116.62 183.032 114.27C182.362 111.91 181.622 109.6 180.882 107.3C179.362 102.71 177.732 98.2201 175.982 93.7801C175.092 91.5701 174.212 89.3601 173.272 87.1701C172.802 86.0801 172.332 84.9801 171.842 83.8901L171.102 82.2501L170.722 81.4301L170.322 80.5801C168.032 75.7601 162.392 73.3601 157.292 75.2501C151.902 77.2401 149.142 83.2301 151.142 88.6301L151.192 88.7601L153.522 95.0501C154.292 97.1701 155.092 99.2901 155.852 101.42C157.382 105.67 158.892 109.91 160.292 114.14C161.702 118.36 163.012 122.58 164.102 126.67C164.372 127.69 164.622 128.7 164.852 129.7C165.092 130.7 165.302 131.67 165.472 132.61C165.562 133.08 165.642 133.54 165.712 133.99C165.032 134.18 164.332 134.37 163.612 134.56C161.582 135.08 159.452 135.56 157.282 136.01C155.122 136.47 152.912 136.89 150.702 137.32C146.262 138.16 141.772 138.94 137.252 139.72L130.472 140.89L129.982 140.98C130.612 146.25 131.502 151.5 131.932 156.79C134.272 156.78 136.602 156.73 138.942 156.67C143.672 156.53 148.402 156.29 153.162 155.9C155.552 155.71 157.942 155.48 160.362 155.2C162.782 154.92 165.222 154.59 167.732 154.15C168.992 153.93 170.272 153.68 171.592 153.38C172.922 153.08 174.292 152.74 175.832 152.23C176.612 151.97 177.422 151.68 178.382 151.25C178.852 151.04 179.382 150.78 179.962 150.45C180.552 150.11 181.212 149.71 182.022 149.07C182.232 148.9 182.422 148.74 182.662 148.52L183.002 148.2C183.122 148.08 183.252 147.95 183.372 147.82L183.552 147.62L183.642 147.52L183.742 147.4C183.882 147.24 184.012 147.08 184.142 146.91C184.262 146.76 184.422 146.54 184.562 146.34L184.772 146.03C184.842 145.93 184.902 145.83 184.982 145.7C185.132 145.45 185.272 145.2 185.402 144.95L185.502 144.76L185.602 144.54C185.672 144.39 185.732 144.24 185.802 144.09C185.862 143.94 185.922 143.79 185.982 143.63C186.042 143.47 186.102 143.29 186.152 143.12C186.202 142.95 186.252 142.77 186.302 142.59L186.372 142.32L186.412 142.16L186.582 141.31C186.612 141.17 186.642 141.02 186.662 140.89L186.722 140.5C186.762 140.24 186.802 139.97 186.822 139.72L186.892 139L186.922 138.64L186.942 138.3C187.042 136.46 186.982 134.88 186.882 133.39Z" fill="#EEBA9B"/>
<path d="M176.992 138.19C176.872 138.19 176.742 138.15 176.652 138.05C172.792 134.43 166.402 134.38 166.332 134.38C166.052 134.38 165.832 134.16 165.832 133.88C165.832 133.6 166.052 133.38 166.332 133.38C166.612 133.38 173.172 133.42 177.332 137.32C177.532 137.51 177.542 137.83 177.352 138.03C177.252 138.14 177.122 138.19 176.992 138.19Z" fill="#D37363"/>
<path d="M168.243 134.53C168.073 134.53 167.903 134.44 167.803 134.28C167.663 134.04 167.753 133.73 167.993 133.6C170.533 132.16 175.333 132.85 175.543 132.88C175.813 132.92 176.003 133.18 175.963 133.45C175.923 133.72 175.673 133.91 175.393 133.87C175.343 133.86 170.733 133.19 168.493 134.47C168.413 134.51 168.323 134.53 168.243 134.53Z" fill="#D37363"/>
<path d="M138.632 59.8698L119.332 62.6298C106.792 61.3798 102.802 56.3898 100.752 45.8498C99.7225 40.5498 100.402 35.8698 101.412 32.3898C101.672 28.4298 102.582 25.0098 104.452 22.7498C112.922 12.5398 120.382 12.9398 120.382 12.9398C124.172 11.1998 136.692 10.0098 144.952 20.0398C145.212 20.2598 150.252 25.5998 151.412 36.7998C152.532 47.4798 145.402 61.1198 138.632 59.8698Z" fill="#39393B"/>
<path d="M127.852 15.7398C127.852 15.7398 125.842 -2.0602 141.642 0.1998C151.962 1.6698 158.352 15.6598 148.912 22.0098C139.472 28.3598 127.852 15.7398 127.852 15.7398Z" fill="#39393B"/>
<path d="M147.323 23.8396C147.403 23.8396 147.483 23.8196 147.563 23.7796C147.803 23.6496 147.893 23.3396 147.763 23.0996C144.103 16.4496 138.883 13.5096 135.153 12.2096C131.103 10.8096 127.953 10.9796 127.823 10.9796C127.543 10.9996 127.333 11.2296 127.353 11.5096C127.373 11.7896 127.603 11.9996 127.883 11.9796C128.003 11.9696 140.193 11.4096 146.883 23.5796C146.983 23.7396 147.153 23.8396 147.323 23.8396Z" fill="#EBB12B"/>
<path d="M137.122 55.8497C137.122 55.8497 149.432 48.9597 147.012 34.6197C144.592 20.2797 135.152 11.6497 120.682 15.8097C120.682 15.8097 122.082 57.2597 137.122 55.8497Z" fill="#39393B"/>
<path d="M102.883 29.4795C102.883 29.4795 101.623 41.7895 103.873 43.5695C106.113 45.3495 108.313 40.4795 108.313 40.4795C108.313 40.4795 105.253 29.6195 102.883 29.4795Z" fill="#39393B"/>
<path d="M108.552 44.6892C108.552 44.6892 104.882 41.4692 103.662 45.4192C102.442 49.3692 104.912 56.6392 109.482 54.7092L108.552 44.6892Z" fill="#D46A43"/>
<path d="M104.031 53.8096C104.531 54.2696 105.091 54.6696 105.701 54.9996C108.011 56.2396 111.021 56.3896 114.641 54.4896C114.641 54.4896 119.271 48.4696 112.431 37.8496C112.431 37.8496 106.161 36.1996 102.571 39.9896C102.171 40.4096 101.811 40.8896 101.491 41.4496C101.291 41.7896 101.121 42.1596 100.961 42.5596C99.6912 45.7896 100.871 50.9396 104.031 53.8096Z" fill="#21B573"/>
<path d="M104.192 38.6995C103.902 37.2795 103.612 35.5195 103.422 33.5695C103.512 33.6095 103.602 33.6395 103.702 33.6395C104.092 33.6695 104.472 33.5095 104.852 33.2295C105.022 35.0495 105.282 36.6995 105.542 38.0695L104.192 38.6995Z" fill="white"/>
<path d="M104.032 53.8093C104.532 54.2693 105.092 54.6693 105.702 54.9993C102.532 48.4293 102.442 42.4293 102.572 39.9893C102.172 40.4093 101.812 40.8893 101.492 41.4493C101.492 44.2093 101.902 48.7493 104.032 53.8093Z" fill="#217C58"/>
<path d="M119.252 62.4496L120.762 72.6295C120.762 72.6295 126.992 80.6195 141.412 67.5895C139.772 63.4495 137.252 58.1196 137.902 54.0396C137.902 54.0396 136.852 55.0095 135.032 56.1595C134.662 56.3995 134.262 56.6496 133.842 56.8996C130.102 59.1796 124.382 62.0896 119.252 62.4496Z" fill="#EDB99C"/>
<path d="M119.252 62.4494L119.962 67.2094C124.172 65.5894 131.452 62.0794 135.042 56.1494C134.672 56.3894 134.272 56.6394 133.852 56.8894C130.102 59.1794 124.382 62.0894 119.252 62.4494Z" fill="#39393B"/>
<path d="M105.423 45.1394C105.583 46.1894 105.733 47.1794 105.893 48.1194C107.053 55.1394 108.113 58.9194 110.063 60.4194C119.933 67.9894 137.333 54.6094 137.893 54.1794C137.903 54.1694 137.903 54.1694 137.903 54.1694C137.963 53.3494 138.003 52.5394 138.023 51.7494C138.253 44.9894 137.423 38.8694 135.883 33.1594C135.293 26.9894 130.803 21.8294 124.733 20.5894C118.443 19.3094 113.483 22.7294 110.413 24.1894C105.783 26.4094 103.663 33.1394 104.963 42.0794C105.123 43.1494 105.273 44.1794 105.423 45.1394Z" fill="#EDB99C"/>
<path d="M118.492 34.2592C117.072 33.7692 117.362 31.6792 118.862 31.5792C121.412 31.4092 125.512 31.4792 125.852 33.5392C126.352 36.5492 121.592 35.2992 118.582 34.2892C118.552 34.2792 118.522 34.2692 118.492 34.2592Z" fill="#39393B"/>
<path d="M110.962 35.1492C112.062 34.1292 110.952 32.3292 109.542 32.8492C107.142 33.7292 103.412 35.4392 103.932 37.4592C104.682 40.4192 108.542 37.3492 110.892 35.2192C110.922 35.1892 110.942 35.1692 110.962 35.1492Z" fill="#39393B"/>
<path d="M114.851 48.9296C114.941 48.8896 115.001 48.8096 115.041 48.7196C115.101 48.5296 115.001 48.3196 114.811 48.2596L112.401 47.4696L113.831 46.0196C113.911 45.9396 113.951 45.8296 113.931 45.7196L113.491 41.7296C113.471 41.5296 113.291 41.3796 113.081 41.4096C112.881 41.4296 112.731 41.6096 112.761 41.8096L113.191 45.6196L111.471 47.3596C111.381 47.4496 111.341 47.5796 111.371 47.6996C111.401 47.8196 111.491 47.9196 111.611 47.9596L114.581 48.9396C114.671 48.9796 114.761 48.9696 114.851 48.9296Z" fill="#39393B"/>
<path d="M121.092 45.1094C121.212 45.9394 123.022 46.3494 125.122 46.0394C127.222 45.7294 128.832 44.7994 128.702 43.9694C128.582 43.1394 126.772 42.7294 124.672 43.0394C122.572 43.3594 120.972 44.2894 121.092 45.1094Z" fill="#E6A086"/>
<path d="M105.422 46.1093C105.582 47.1593 105.732 48.1493 105.892 49.0893C107.812 48.7293 109.222 47.8593 109.102 47.0893C108.992 46.2993 107.372 45.8893 105.422 46.1093Z" fill="#E6A086"/>
<path d="M133.502 50.1196C133.572 50.2396 135.582 53.4796 137.892 54.1796C137.902 54.1696 137.902 54.1696 137.902 54.1696C137.962 53.3496 138.002 52.5396 138.022 51.7496C137.942 51.7396 135.722 51.6896 133.502 50.1196Z" fill="#39393B"/>
<path d="M134.412 41.9093C134.412 41.9093 138.052 35.1293 142.092 39.4293C145.422 42.9693 141.822 54.2693 135.692 51.2493L134.412 41.9093Z" fill="#EDB99C"/>
<path d="M136.161 49.3995C136.401 49.3595 136.571 49.1595 136.561 48.9095C136.381 44.2095 140.011 42.0295 140.161 41.9395C140.381 41.8095 140.461 41.5195 140.331 41.2895C140.201 41.0595 139.911 40.9895 139.681 41.1195C139.511 41.2195 135.401 43.6695 135.611 48.9495C135.621 49.2095 135.841 49.4095 136.101 49.3995C136.121 49.3995 136.141 49.3995 136.161 49.3995Z" fill="#39393B"/>
<path d="M140.102 45.9196C140.242 45.8996 140.362 45.8196 140.442 45.6896C140.572 45.4696 140.502 45.1796 140.272 45.0396C140.062 44.9196 138.192 43.8396 136.842 44.4096C136.602 44.5096 136.492 44.7896 136.592 45.0296C136.692 45.2696 136.972 45.3796 137.212 45.2796C137.992 44.9496 139.372 45.5996 139.792 45.8496C139.892 45.9096 140.002 45.9296 140.102 45.9196Z" fill="#39393B"/>
<path d="M114.223 44.1293C112.863 40.5693 114.653 36.5693 118.213 35.2093C121.773 33.8493 125.773 35.6393 127.133 39.1993C128.493 42.7593 126.703 46.7593 123.143 48.1193C119.583 49.4793 115.583 47.6893 114.223 44.1293ZM115.163 43.7693C116.323 46.8093 119.743 48.3393 122.783 47.1793C125.823 46.0193 127.353 42.5993 126.193 39.5593C125.033 36.5193 121.613 34.9893 118.573 36.1493C115.533 37.3093 114.003 40.7293 115.163 43.7693Z" fill="white"/>
<path d="M126.911 40.1194C126.971 40.1194 127.031 40.0994 127.091 40.0694C130.831 38.3594 134.341 39.6594 134.381 39.6794C134.641 39.7794 134.931 39.6494 135.031 39.3894C135.131 39.1294 135.002 38.8394 134.741 38.7394C134.582 38.6794 130.792 37.2694 126.672 39.1594C126.422 39.2794 126.312 39.5794 126.422 39.8294C126.522 40.0194 126.711 40.1294 126.911 40.1194Z" fill="white"/>
<path d="M98.9222 45.8592C97.5622 42.2992 99.3521 38.2992 102.912 36.9392C106.472 35.5792 110.472 37.3692 111.832 40.9292C113.192 44.4892 111.402 48.4892 107.842 49.8492C104.292 51.2092 100.282 49.4192 98.9222 45.8592ZM99.8721 45.4992C101.032 48.5392 104.452 50.0692 107.492 48.9092C110.532 47.7492 112.062 44.3292 110.902 41.2892C109.742 38.2492 106.322 36.7192 103.282 37.8792C100.232 39.0392 98.7021 42.4592 99.8721 45.4992Z" fill="white"/>
<path d="M114.542 41.1995C114.622 41.1595 114.682 41.0995 114.732 41.0195C114.882 40.7795 114.812 40.4695 114.572 40.3195C114.502 40.2795 112.822 39.2495 111.072 40.5895C110.852 40.7595 110.812 41.0795 110.982 41.2995C111.152 41.5195 111.472 41.5595 111.692 41.3895C112.892 40.4695 114.032 41.1695 114.042 41.1695C114.202 41.2795 114.392 41.2795 114.542 41.1995Z" fill="white"/>
<path d="M123.293 42.1293C123.253 42.0993 123.053 41.9493 122.723 41.7693C121.743 41.2393 119.253 40.2393 117.233 42.5493C117.143 42.6493 117.103 42.7793 117.113 42.9193C117.123 43.0593 117.193 43.1993 117.303 43.2993C117.403 43.3893 117.533 43.4293 117.663 43.4293C117.813 43.4293 117.953 43.3693 118.053 43.2593C120.043 40.9893 122.553 42.8693 122.663 42.9493C122.893 43.1293 123.233 43.0993 123.403 42.8693C123.483 42.7593 123.523 42.6293 123.503 42.4993C123.483 42.3593 123.413 42.2193 123.293 42.1293Z" fill="#1B3431"/>
<path d="M111.733 43.9793C110.753 43.4493 108.263 42.4493 106.243 44.7593C106.153 44.8593 106.113 44.9893 106.123 45.1293C106.133 45.2693 106.203 45.4093 106.313 45.5093C106.413 45.5993 106.543 45.6393 106.673 45.6393C106.823 45.6393 106.963 45.5793 107.063 45.4693C109.053 43.1993 111.563 45.0793 111.673 45.1593C111.913 45.3393 112.243 45.3093 112.413 45.0793C112.493 44.9693 112.533 44.8393 112.513 44.6993C112.493 44.5593 112.423 44.4193 112.313 44.3393C112.313 44.3493 112.103 44.1893 111.733 43.9793Z" fill="#1B3431"/>
<path d="M122.472 52.2393C122.472 52.2393 121.232 56.2593 117.942 56.9193C114.202 57.6593 113.352 52.9793 113.352 52.9793L122.472 52.2393Z" fill="white"/>
<path d="M116.791 58.9793C116.621 58.9293 116.511 58.8893 116.491 58.8793C116.281 58.7893 116.181 58.5493 116.271 58.3493C116.361 58.1393 116.591 58.0393 116.801 58.1293C116.861 58.1493 118.231 58.6893 119.371 57.7193C119.541 57.5693 119.801 57.5893 119.951 57.7693C120.101 57.9393 120.081 58.1993 119.901 58.3493C118.731 59.3493 117.381 59.1393 116.791 58.9793Z" fill="#D37363"/>
<path d="M110.842 17.9897C106.642 19.8797 103.342 23.3797 101.872 27.7397C100.952 30.4697 100.182 34.0797 104.022 33.6097C114.502 32.3397 120.112 21.4597 120.112 21.4597C120.112 21.4597 122.152 31.4797 130.382 30.2597C138.612 29.0297 138.352 22.8297 133.672 19.3197C129.862 16.4497 120.152 13.7897 110.842 17.9897Z" fill="#39393B"/>
<path d="M130.062 29.0996C130.062 29.0996 134.742 34.1296 133.062 39.5396C131.383 44.9496 131.272 49.2896 133.022 52.1996C133.022 52.1996 133.473 46.4996 135.562 42.1796C137.273 38.6296 138.872 35.9296 137.632 31.8396C136.792 29.0396 134.733 26.3396 130.062 29.0996Z" fill="#39393B"/>
<path d="M137.672 53.6497C141.302 54.5297 144.112 54.0197 146.192 52.7097C146.522 52.4997 146.832 52.2697 147.132 52.0297C151.492 48.3797 151.812 40.8097 149.142 37.0997C148.202 35.7897 147.112 34.9097 145.962 34.3497C145.612 34.1697 145.262 34.0297 144.912 33.9197C140.402 32.4397 135.512 35.1497 135.512 35.1497C130.402 49.2097 137.672 53.6497 137.672 53.6497Z" fill="#21B573"/>
<path d="M124.902 59.7999C135.512 57.6299 140.022 49.9899 140.232 49.6199C140.402 49.3299 140.302 48.9499 140.002 48.7799C139.712 48.6099 139.332 48.7099 139.162 49.0099C139.092 49.1299 133.582 58.3899 120.722 59.0899C120.382 59.1099 120.122 59.3999 120.142 59.7399C120.162 60.0799 120.452 60.3399 120.792 60.3199C122.252 60.2399 123.622 60.0599 124.902 59.7999Z" fill="white"/>
<path d="M117.342 60.1597C117.562 61.2197 118.602 61.9097 119.662 61.6897C120.722 61.4697 121.412 60.4297 121.192 59.3697C120.972 58.3097 119.932 57.6197 118.872 57.8397C117.812 58.0597 117.122 59.0897 117.342 60.1597Z" fill="#243434"/>
<path d="M146.191 52.7094C146.521 52.4994 146.831 52.2694 147.131 52.0294C143.771 44.4294 144.911 37.7894 145.971 34.3494C145.621 34.1694 145.271 34.0294 144.921 33.9194C143.781 37.5594 142.551 44.6494 146.191 52.7094Z" fill="#217C58"/>
<path d="M103.123 24.8896C104.013 23.2196 105.003 22.1096 105.493 21.5596C105.903 20.3696 106.343 19.2496 107.003 18.2096C109.223 14.6896 112.733 12.5296 117.453 11.7996C122.543 11.0096 126.963 12.0196 130.583 14.7896C131.713 15.6496 132.713 16.6596 133.613 17.7396C134.853 19.2496 135.883 20.9196 136.723 22.5896C139.643 28.4296 140.343 34.4296 140.353 34.5096L141.743 34.3596C141.683 33.7896 140.113 20.3096 131.443 13.6696C127.513 10.6596 122.733 9.55965 117.243 10.4096C112.103 11.1996 108.263 13.5796 105.823 17.4596C104.403 19.6996 103.563 22.2696 103.123 24.8896Z" fill="white"/>
</svg>
