<svg width="86" height="62" viewBox="0 0 86 62" fill="none" xmlns="http://www.w3.org/2000/svg">
<path d="M34.1162 42.3746L57.3549 30.051L34.1162 17.6411V42.3746Z" fill="white"/>
<g opacity="0.6">
<path d="M85.1412 13.3578C85.1412 13.3578 84.2992 7.29079 81.7227 4.61922C78.4558 1.11172 74.7848 1.09448 73.1093 0.887649C61.0689 0 43.0168 0 43.0168 0H42.9832C42.9832 0 24.9311 0 12.8907 0.887649C11.2152 1.09448 7.54415 1.11172 4.27727 4.61922C1.7008 7.29079 0.858821 13.3578 0.858821 13.3578C0.858821 13.3578 0 20.4763 0 27.6033V34.2822C0 41.4093 0.858821 48.5277 0.858821 48.5277C0.858821 48.5277 1.7008 54.5947 4.27727 57.2663C7.55257 60.7738 11.8467 60.6618 13.758 61.0324C20.637 61.7046 43 61.92 43 61.92C43 61.92 61.0689 61.8941 73.1093 60.9979C74.7932 60.791 78.4558 60.7738 81.7227 57.2663C84.2992 54.5947 85.1412 48.5277 85.1412 48.5277C85.1412 48.5277 86 41.4007 86 34.2822V27.6033C86 20.4763 85.1412 13.3578 85.1412 13.3578ZM34.1171 42.3745V17.641L57.3558 30.0508L34.1171 42.3745Z" fill="black"/>
</g>
</svg>
