<svg width="92" height="86" viewBox="0 0 92 86" fill="none" xmlns="http://www.w3.org/2000/svg">
<g clip-path="url(#clip0_1_14354)">
<path d="M24.2436 59.8062C24.1152 59.5699 23.9169 59.3792 23.6757 59.2602C23.4346 59.1413 23.1625 59.0999 22.8969 59.1418C20.2483 59.5907 12.6215 59.8286 12.0289 47.9551C11.3152 33.5587 28.7686 8.97225 54.392 13.8384C74.9788 17.7618 59.6083 37.3475 72.218 42.2899C79.598 45.1809 86.2687 60.0082 69.8792 72.8872C61.0089 79.8722 38.2584 86.0266 24.2436 59.8062Z" fill="url(#paint0_linear_1_14354)"/>
<path d="M1.34668 63.2168C1.08032 63.2168 0.819988 63.1379 0.598522 62.9899C0.377057 62.8419 0.204422 62.6316 0.102492 62.3855C0.000562561 62.1394 -0.0260786 61.8686 0.0258846 61.6074C0.0778478 61.3462 0.206059 61.1062 0.3944 60.9179C0.582741 60.7296 0.82274 60.6013 1.08398 60.5493C1.34521 60.4974 1.61597 60.524 1.86205 60.6259C2.10813 60.7279 2.31844 60.9005 2.46642 61.122C2.6144 61.3434 2.69339 61.6038 2.69339 61.8701C2.69339 62.2273 2.55151 62.5698 2.29896 62.8224C2.0464 63.0749 1.70385 63.2168 1.34668 63.2168ZM1.34668 61.4212C1.22762 61.4212 1.11347 61.4685 1.02929 61.5527C0.945103 61.6369 0.897774 61.7511 0.897774 61.8701C0.897774 61.9892 0.945103 62.1034 1.02929 62.1876C1.11347 62.2717 1.22762 62.319 1.34668 62.319C1.46573 62.319 1.57994 62.2717 1.66412 62.1876C1.74831 62.1034 1.79558 61.9892 1.79558 61.8701C1.79558 61.7511 1.74831 61.6369 1.66412 61.5527C1.57994 61.4685 1.46573 61.4212 1.34668 61.4212Z" fill="url(#paint1_linear_1_14354)"/>
<path d="M89.7842 31.7325C89.5179 31.7325 89.2575 31.6535 89.0361 31.5055C88.8146 31.3576 88.642 31.1472 88.54 30.9011C88.4381 30.655 88.4114 30.3843 88.4634 30.123C88.5153 29.8618 88.6436 29.6219 88.8319 29.4335C89.0203 29.2452 89.2603 29.1169 89.5215 29.0649C89.7828 29.013 90.0535 29.0396 90.2996 29.1416C90.5457 29.2435 90.756 29.4161 90.904 29.6376C91.0519 29.8591 91.1309 30.1194 91.1309 30.3858C91.1309 30.743 90.9891 31.0855 90.7365 31.338C90.4839 31.5906 90.1414 31.7325 89.7842 31.7325ZM89.7842 29.9369C89.6954 29.9369 89.6087 29.9632 89.5348 30.0125C89.461 30.0618 89.4035 30.132 89.3695 30.214C89.3355 30.296 89.3267 30.3863 89.344 30.4734C89.3613 30.5604 89.4041 30.6404 89.4668 30.7032C89.5296 30.766 89.6096 30.8087 89.6967 30.826C89.7837 30.8434 89.874 30.8345 89.956 30.8005C90.038 30.7665 90.1082 30.709 90.1575 30.6352C90.2068 30.5614 90.2331 30.4746 90.2331 30.3858C90.2319 30.2675 90.1841 30.1545 90.1001 30.0713C90.016 29.988 89.9025 29.9413 89.7842 29.9413V29.9369Z" fill="url(#paint2_linear_1_14354)"/>
<path d="M35.9685 2.1364C35.9685 2.01735 35.9213 1.90315 35.8371 1.81896C35.7529 1.73477 35.6387 1.6875 35.5196 1.6875H35.0348C34.9158 1.6875 34.8016 1.73477 34.7174 1.81896C34.6332 1.90315 34.5859 2.01735 34.5859 2.1364C34.5859 2.25546 34.6332 2.36966 34.7174 2.45385C34.8016 2.53803 34.9158 2.58531 35.0348 2.58531H35.5196C35.6387 2.58531 35.7529 2.53803 35.8371 2.45385C35.9213 2.36966 35.9685 2.25546 35.9685 2.1364Z" fill="url(#paint3_linear_1_14354)"/>
<path d="M36.2458 1.835C36.3648 1.835 36.479 1.78772 36.5632 1.70354C36.6474 1.61935 36.6947 1.50515 36.6947 1.38609V0.901295C36.6856 0.788569 36.6344 0.683434 36.5512 0.606866C36.4679 0.530299 36.3589 0.487921 36.2458 0.488284C36.1327 0.487921 36.0237 0.530299 35.9404 0.606866C35.8572 0.683434 35.8059 0.788569 35.7969 0.901295V1.38609C35.7969 1.50515 35.8442 1.61935 35.9284 1.70354C36.0126 1.78772 36.1267 1.835 36.2458 1.835Z" fill="url(#paint4_linear_1_14354)"/>
<path d="M37.4572 1.6875H36.9723C36.8533 1.6875 36.7391 1.73477 36.655 1.81896C36.5708 1.90315 36.5234 2.01735 36.5234 2.1364C36.5234 2.25546 36.5708 2.36966 36.655 2.45385C36.7391 2.53803 36.8533 2.58531 36.9723 2.58531H37.4572C37.5762 2.58531 37.6904 2.53803 37.7746 2.45385C37.8588 2.36966 37.9061 2.25546 37.9061 2.1364C37.9061 2.01735 37.8588 1.90315 37.7746 1.81896C37.6904 1.73477 37.5762 1.6875 37.4572 1.6875Z" fill="url(#paint5_linear_1_14354)"/>
<path d="M36.2458 2.39258C36.1267 2.39258 36.0126 2.43991 35.9284 2.52409C35.8442 2.60828 35.7969 2.72243 35.7969 2.84148V3.32184C35.8048 3.43537 35.8556 3.54161 35.939 3.61912C36.0223 3.69662 36.132 3.73957 36.2458 3.73929C36.3596 3.73957 36.4693 3.69662 36.5526 3.61912C36.6359 3.54161 36.6867 3.43537 36.6947 3.32184V2.84148C36.6947 2.72243 36.6474 2.60828 36.5632 2.52409C36.479 2.43991 36.3648 2.39258 36.2458 2.39258Z" fill="url(#paint6_linear_1_14354)"/>
<path d="M63.3435 83.863C63.3435 83.7439 63.2963 83.6297 63.2121 83.5455C63.1279 83.4613 63.0137 83.4141 62.8946 83.4141H62.4098C62.2908 83.4141 62.1766 83.4613 62.0924 83.5455C62.0082 83.6297 61.9609 83.7439 61.9609 83.863C61.9609 83.982 62.0082 84.0962 62.0924 84.1804C62.1766 84.2645 62.2908 84.3119 62.4098 84.3119H62.8946C63.0137 84.3119 63.1279 84.2645 63.2121 84.1804C63.2963 84.0962 63.3435 83.982 63.3435 83.863Z" fill="url(#paint7_linear_1_14354)"/>
<path d="M63.6208 83.5851C63.7398 83.5851 63.854 83.5379 63.9382 83.4537C64.0224 83.3695 64.0697 83.2553 64.0697 83.1362V82.6559C64.0697 82.5369 64.0224 82.4227 63.9382 82.3385C63.854 82.2543 63.7398 82.207 63.6208 82.207C63.5017 82.207 63.3876 82.2543 63.3034 82.3385C63.2192 82.4227 63.1719 82.5369 63.1719 82.6559V83.1362C63.1719 83.2553 63.2192 83.3695 63.3034 83.4537C63.3876 83.5379 63.5017 83.5851 63.6208 83.5851Z" fill="url(#paint8_linear_1_14354)"/>
<path d="M64.8353 83.4141H64.3505C64.2377 83.4231 64.1326 83.4744 64.056 83.5576C63.9795 83.6408 63.9371 83.7499 63.9375 83.863C63.9371 83.9761 63.9795 84.0851 64.056 84.1683C64.1326 84.2515 64.2377 84.3028 64.3505 84.3119H64.8353C64.9544 84.3119 65.0685 84.2645 65.1527 84.1804C65.2369 84.0962 65.2842 83.982 65.2842 83.863C65.2842 83.7439 65.2369 83.6297 65.1527 83.5455C65.0685 83.4613 64.9544 83.4141 64.8353 83.4141Z" fill="url(#paint9_linear_1_14354)"/>
<path d="M63.6208 84.1426C63.5017 84.1426 63.3876 84.1899 63.3034 84.274C63.2192 84.3582 63.1719 84.4724 63.1719 84.5915V85.0763C63.1719 85.1953 63.2192 85.3095 63.3034 85.3937C63.3876 85.4779 63.5017 85.5252 63.6208 85.5252C63.7398 85.5252 63.854 85.4779 63.9382 85.3937C64.0224 85.3095 64.0697 85.1953 64.0697 85.0763V84.5915C64.0697 84.4724 64.0224 84.3582 63.9382 84.274C63.854 84.1899 63.7398 84.1426 63.6208 84.1426Z" fill="url(#paint10_linear_1_14354)"/>
<path d="M71.0744 23.7407C71.1133 23.6968 71.1676 23.6695 71.2261 23.6645C71.2846 23.6595 71.3428 23.6771 71.3886 23.7137L73.9159 25.6037C73.9521 25.6311 73.9953 25.6477 74.0405 25.6514C74.0858 25.6551 74.1311 25.6458 74.1712 25.6245C74.2113 25.6033 74.2445 25.571 74.2669 25.5315C74.2893 25.4921 74.2999 25.4469 74.2975 25.4016L73.9833 17.3932C73.9798 17.3297 73.9515 17.2701 73.9044 17.2273C73.8574 17.1844 73.7954 17.1618 73.7319 17.1642L65.7324 17.5009C65.6869 17.5036 65.643 17.5191 65.6058 17.5456C65.5687 17.5721 65.5398 17.6085 65.5224 17.6507C65.5051 17.6929 65.5 17.7392 65.5077 17.7842C65.5155 17.8291 65.5358 17.871 65.5663 17.9049L67.968 20.4817C67.9909 20.5042 68.0091 20.5311 68.0215 20.5608C68.034 20.5905 68.0404 20.6223 68.0404 20.6545C68.0404 20.6867 68.034 20.7185 68.0215 20.7482C68.0091 20.7779 67.9909 20.8048 67.968 20.8273L68.0712 20.7375C68.0712 20.7375 49.5404 41.4141 19.1406 39.9012C19.1092 39.9012 52.0049 47.0254 71.0744 23.7407Z" fill="white"/>
<path d="M48.8516 38.0132C48.8516 38.0132 68.5091 29.6501 70.7805 17.2917L73.7298 17.166L74.2954 25.4034L71.3865 23.7155C71.3865 23.7155 62.4085 35.0369 48.8516 38.0132Z" fill="url(#paint11_linear_1_14354)"/>
<path d="M25.6224 49.2031H20.837C20.1676 49.2031 19.625 49.7458 19.625 50.4152V63.9362C19.625 64.6056 20.1676 65.1482 20.837 65.1482H25.6224C26.2918 65.1482 26.8344 64.6056 26.8344 63.9362V50.4152C26.8344 49.7458 26.2918 49.2031 25.6224 49.2031Z" fill="white"/>
<path d="M25.4191 53.5762H21.0243C20.4888 53.5762 20.0547 54.0103 20.0547 54.5458V64.1838C20.0547 64.7193 20.4888 65.1534 21.0243 65.1534H25.4191C25.9546 65.1534 26.3887 64.7193 26.3887 64.1838V54.5458C26.3887 54.0103 25.9546 53.5762 25.4191 53.5762Z" fill="url(#paint12_linear_1_14354)"/>
<path d="M37.2045 46.7578H32.5987C31.8797 46.7578 31.2969 47.3407 31.2969 48.0596V63.8476C31.2969 64.5666 31.8797 65.1494 32.5987 65.1494H37.2045C37.9234 65.1494 38.5063 64.5666 38.5063 63.8476V48.0596C38.5063 47.3407 37.9234 46.7578 37.2045 46.7578Z" fill="white"/>
<path d="M36.8985 46.7578H32.7012C32.1111 46.7578 31.6328 47.2361 31.6328 47.8262V59.8119C31.6328 60.402 32.1111 60.8803 32.7012 60.8803H36.8985C37.4885 60.8803 37.9669 60.402 37.9669 59.8119V47.8262C37.9669 47.2361 37.4885 46.7578 36.8985 46.7578Z" fill="url(#paint13_linear_1_14354)"/>
<path d="M49.1927 44.0547H44.4074C43.738 44.0547 43.1953 44.5973 43.1953 45.2667V63.9411C43.1953 64.6105 43.738 65.1532 44.4074 65.1532H49.1927C49.8621 65.1532 50.4047 64.6105 50.4047 63.9411V45.2667C50.4047 44.5973 49.8621 44.0547 49.1927 44.0547Z" fill="white"/>
<path d="M48.9334 48.418H44.6194C44.0616 48.418 43.6094 48.8702 43.6094 49.428V64.1431C43.6094 64.7009 44.0616 65.1531 44.6194 65.1531H48.9334C49.4912 65.1531 49.9434 64.7009 49.9434 64.1431V49.428C49.9434 48.8702 49.4912 48.418 48.9334 48.418Z" fill="url(#paint14_linear_1_14354)"/>
<path d="M61.2005 40.4551H56.4152C55.7458 40.4551 55.2031 40.9977 55.2031 41.6671V63.9373C55.2031 64.6066 55.7458 65.1493 56.4152 65.1493H61.2005C61.8699 65.1493 62.4125 64.6066 62.4125 63.9373V41.6671C62.4125 40.9977 61.8699 40.4551 61.2005 40.4551Z" fill="white"/>
<path d="M60.942 40.4551H56.7044C56.1341 40.4551 55.6719 40.9173 55.6719 41.4876V59.8477C55.6719 60.418 56.1341 60.8802 56.7044 60.8802H60.942C61.5122 60.8802 61.9745 60.418 61.9745 59.8477V41.4876C61.9745 40.9173 61.5122 40.4551 60.942 40.4551Z" fill="url(#paint15_linear_1_14354)"/>
<path d="M73.2083 33.9941H68.423C67.7536 33.9941 67.2109 34.5368 67.2109 35.2062V63.936C67.2109 64.6054 67.7536 65.1481 68.423 65.1481H73.2083C73.8777 65.1481 74.4203 64.6054 74.4203 63.936V35.2062C74.4203 34.5368 73.8777 33.9941 73.2083 33.9941Z" fill="white"/>
<path d="M72.9187 38.8906H68.6586C68.0835 38.8906 67.6172 39.3569 67.6172 39.9321V64.1056C67.6172 64.6808 68.0835 65.147 68.6586 65.147H72.9187C73.4939 65.147 73.9602 64.6808 73.9602 64.1056V39.9321C73.9602 39.3569 73.4939 38.8906 72.9187 38.8906Z" fill="url(#paint16_linear_1_14354)"/>
<path d="M20.8328 48.7539C20.6147 48.7539 20.3987 48.7969 20.1972 48.8803C19.9957 48.9638 19.8125 49.0862 19.6583 49.2404C19.5041 49.3946 19.3818 49.5777 19.2983 49.7792C19.2148 49.9807 19.1719 50.1968 19.1719 50.4149V63.9359C19.1719 64.154 19.2148 64.37 19.2983 64.5715C19.3818 64.773 19.5041 64.9561 19.6583 65.1103C19.8125 65.2645 19.9957 65.3869 20.1972 65.4704C20.3987 65.5538 20.6147 65.5968 20.8328 65.5968H25.6181C26.0586 65.5968 26.4811 65.4218 26.7926 65.1103C27.104 64.7988 27.2791 64.3764 27.2791 63.9359V50.4149C27.2791 49.9744 27.104 49.5519 26.7926 49.2404C26.4811 48.9289 26.0586 48.7539 25.6181 48.7539H20.8328ZM26.3812 50.4149V63.9359C26.3812 64.1383 26.3008 64.3323 26.1577 64.4755C26.0146 64.6186 25.8205 64.699 25.6181 64.699H20.8328C20.6304 64.699 20.4363 64.6186 20.2932 64.4755C20.1501 64.3323 20.0697 64.1383 20.0697 63.9359V50.4149C20.0697 50.3147 20.0894 50.2154 20.1278 50.1228C20.1661 50.0302 20.2223 49.9461 20.2932 49.8752C20.3641 49.8044 20.4482 49.7482 20.5408 49.7098C20.6334 49.6714 20.7326 49.6517 20.8328 49.6517H25.6181C25.7183 49.6517 25.8176 49.6714 25.9101 49.7098C26.0027 49.7482 26.0869 49.8044 26.1577 49.8752C26.2286 49.9461 26.2848 50.0302 26.3232 50.1228C26.3615 50.2154 26.3812 50.3147 26.3812 50.4149Z" fill="url(#paint17_linear_1_14354)"/>
<path d="M32.3953 46.3086C31.9548 46.3086 31.5323 46.4836 31.2208 46.7951C30.9093 47.1066 30.7344 47.529 30.7344 47.9695V63.9371C30.7344 64.3776 30.9093 64.8 31.2208 65.1115C31.5323 65.423 31.9548 65.598 32.3953 65.598H37.1806C37.6211 65.598 38.0436 65.423 38.3551 65.1115C38.6665 64.8 38.8416 64.3776 38.8416 63.9371V47.9695C38.8416 47.529 38.6665 47.1066 38.3551 46.7951C38.0436 46.4836 37.6211 46.3086 37.1806 46.3086H32.3953ZM37.9437 47.9695V63.9371C37.9437 64.1395 37.8633 64.3335 37.7202 64.4767C37.5771 64.6198 37.383 64.7002 37.1806 64.7002H32.3953C32.1929 64.7002 31.9988 64.6198 31.8557 64.4767C31.7126 64.3335 31.6322 64.1395 31.6322 63.9371V47.9695C31.6322 47.8693 31.6519 47.7701 31.6903 47.6775C31.7286 47.5849 31.7848 47.5008 31.8557 47.4299C31.9266 47.3591 32.0107 47.3028 32.1033 47.2645C32.1959 47.2261 32.2951 47.2064 32.3953 47.2064H37.1806C37.383 47.2064 37.5771 47.2868 37.7202 47.4299C37.8633 47.573 37.9437 47.7671 37.9437 47.9695Z" fill="url(#paint18_linear_1_14354)"/>
<path d="M44.4031 43.6016C43.9626 43.6016 43.5401 43.7766 43.2286 44.0881C42.9171 44.3995 42.7422 44.822 42.7422 45.2625V63.9369C42.7422 64.3774 42.9171 64.7999 43.2286 65.1114C43.5401 65.4229 43.9626 65.5979 44.4031 65.5979H49.1884C49.6289 65.5979 50.0514 65.4229 50.3629 65.1114C50.6744 64.7999 50.8494 64.3774 50.8494 63.9369V45.2625C50.8494 44.822 50.6744 44.3995 50.3629 44.0881C50.0514 43.7766 49.6289 43.6016 49.1884 43.6016H44.4031ZM49.9516 45.2625V63.9369C49.9516 64.1393 49.8711 64.3334 49.728 64.4765C49.5849 64.6196 49.3908 64.7001 49.1884 64.7001H44.4031C44.2007 64.7001 44.0066 64.6196 43.8635 64.4765C43.7203 64.3334 43.64 64.1393 43.64 63.9369V45.2625C43.64 45.0601 43.7203 44.866 43.8635 44.7229C44.0066 44.5798 44.2007 44.4994 44.4031 44.4994H49.1884C49.3905 44.5005 49.5839 44.5813 49.7267 44.7242C49.8696 44.8671 49.9504 45.0605 49.9516 45.2625Z" fill="url(#paint19_linear_1_14354)"/>
<path d="M56.4109 40.0039C55.9704 40.0039 55.5479 40.1789 55.2364 40.4904C54.925 40.8019 54.75 41.2244 54.75 41.6649V63.935C54.75 64.3755 54.925 64.7979 55.2364 65.1094C55.5479 65.4209 55.9704 65.5959 56.4109 65.5959H61.1963C61.6368 65.5959 62.0592 65.4209 62.3707 65.1094C62.6822 64.7979 62.8572 64.3755 62.8572 63.935V41.6649C62.8572 41.2244 62.6822 40.8019 62.3707 40.4904C62.0592 40.1789 61.6368 40.0039 61.1963 40.0039H56.4109ZM61.9594 41.6649V63.935C61.9594 64.0352 61.9396 64.1344 61.9013 64.227C61.8629 64.3196 61.8067 64.4037 61.7359 64.4746C61.665 64.5455 61.5809 64.6017 61.4883 64.64C61.3957 64.6784 61.2965 64.6981 61.1963 64.6981H56.4109C56.2085 64.6981 56.0144 64.6177 55.8713 64.4746C55.7282 64.3315 55.6478 64.1374 55.6478 63.935V41.6649C55.6478 41.4625 55.7282 41.2684 55.8713 41.1252C56.0144 40.9821 56.2085 40.9017 56.4109 40.9017H61.1963C61.2969 40.9011 61.3965 40.9205 61.4896 40.9585C61.5828 40.9966 61.6674 41.0527 61.7388 41.1236C61.8101 41.1946 61.8667 41.2789 61.9053 41.3718C61.944 41.4647 61.9639 41.5643 61.9639 41.6649H61.9594Z" fill="url(#paint20_linear_1_14354)"/>
<path d="M73.2119 33.5586H68.4266C68.2085 33.5586 67.9925 33.6015 67.791 33.685C67.5895 33.7685 67.4064 33.8909 67.2521 34.0451C67.0979 34.1993 66.9756 34.3824 66.8921 34.5839C66.8086 34.7854 66.7656 35.0014 66.7656 35.2195V63.9494C66.7656 64.3899 66.9406 64.8124 67.2521 65.1239C67.5636 65.4354 67.9861 65.6104 68.4266 65.6104H73.2119C73.6524 65.6104 74.0749 65.4354 74.3864 65.1239C74.6979 64.8124 74.8729 64.3899 74.8729 63.9494V35.2195C74.8729 35.0014 74.8299 34.7854 74.7464 34.5839C74.663 34.3824 74.5406 34.1993 74.3864 34.0451C74.2321 33.8909 74.0491 33.7685 73.8475 33.685C73.646 33.6015 73.4301 33.5586 73.2119 33.5586ZM73.9751 63.9494C73.9751 64.1518 73.8947 64.3459 73.7515 64.489C73.6084 64.6322 73.4143 64.7126 73.2119 64.7126H68.4266C68.2242 64.7126 68.0301 64.6322 67.887 64.489C67.7438 64.3459 67.6634 64.1518 67.6634 63.9494V35.2195C67.6634 35.0171 67.7438 34.823 67.887 34.6799C68.0301 34.5368 68.2242 34.4564 68.4266 34.4564H73.2119C73.4143 34.4564 73.6084 34.5368 73.7515 34.6799C73.8947 34.823 73.9751 35.0171 73.9751 35.2195V63.9494Z" fill="url(#paint21_linear_1_14354)"/>
<path d="M19.0164 40.3319C22.9029 41.0469 26.8485 41.3911 30.8001 41.3599C33.1993 41.3619 35.5968 41.236 37.9826 40.9828C47.7014 39.9458 61.3256 36.1885 71.2778 24.1893L73.6436 25.9535C73.7476 26.032 73.8719 26.0793 74.0018 26.0898C74.1317 26.1003 74.2619 26.0737 74.3773 26.013C74.4926 25.9522 74.5882 25.8599 74.6531 25.7469C74.7179 25.6338 74.7492 25.5046 74.7434 25.3744L74.4292 17.366C74.4263 17.2752 74.4053 17.1858 74.3675 17.1032C74.3297 17.0206 74.2757 16.9464 74.2088 16.885C74.1419 16.8235 74.0634 16.776 73.9779 16.7453C73.8924 16.7146 73.8016 16.7012 73.7109 16.706L65.7114 17.0427C65.5802 17.049 65.4534 17.0927 65.3461 17.1684C65.2387 17.2442 65.1552 17.349 65.1052 17.4705C65.0553 17.5921 65.0411 17.7253 65.0641 17.8547C65.0872 17.984 65.1467 18.1042 65.2356 18.2009L67.5115 20.6474C65.4196 22.8381 47.3108 40.8481 19.1286 39.443C19.0096 39.443 18.8954 39.4904 18.8112 39.5746C18.727 39.6587 18.6797 39.7729 18.6797 39.892C18.6785 39.9924 18.7111 40.0903 18.7721 40.17C18.8331 40.2498 18.9192 40.3068 19.0164 40.3319ZM68.3959 21.029C68.4609 20.9283 68.4981 20.8121 68.5036 20.6923C68.5122 20.5041 68.4461 20.3202 68.3196 20.1806L66.2322 17.936L73.5672 17.6263L73.859 24.9839L71.6819 23.3588C71.5438 23.2524 71.3697 23.2036 71.1964 23.2229C71.0231 23.2421 70.864 23.3279 70.7526 23.4621C61.0024 35.3535 47.5308 39.0749 37.9422 40.1029C34.0054 40.5161 30.0401 40.5867 26.0911 40.3139C52.2308 38.7158 68.2163 21.231 68.3869 21.038L68.3959 21.029ZM67.6103 20.5801C67.6224 20.551 67.6408 20.525 67.6641 20.5038L67.6103 20.5801Z" fill="url(#paint22_linear_1_14354)"/>
<path d="M78.2318 68.0527H15.7129V16.8102C15.7129 16.6912 15.6656 16.577 15.5814 16.4928C15.4972 16.4087 15.383 16.3613 15.264 16.3613C15.1449 16.3613 15.0308 16.4087 14.9466 16.4928C14.8624 16.577 14.8151 16.6912 14.8151 16.8102V68.0527H13.3786C13.2595 68.0527 13.1453 68.1 13.0611 68.1842C12.977 68.2684 12.9297 68.3825 12.9297 68.5016C12.9297 68.6206 12.977 68.7348 13.0611 68.819C13.1453 68.9032 13.2595 68.9505 13.3786 68.9505H14.8151V70.369C14.8151 70.4881 14.8624 70.6023 14.9466 70.6865C15.0308 70.7706 15.1449 70.8179 15.264 70.8179C15.383 70.8179 15.4972 70.7706 15.5814 70.6865C15.6656 70.6023 15.7129 70.4881 15.7129 70.369V68.955H78.2318C78.3508 68.955 78.465 68.9077 78.5492 68.8235C78.6334 68.7393 78.6807 68.6251 78.6807 68.5061C78.6807 68.387 78.6334 68.2728 78.5492 68.1887C78.465 68.1045 78.3508 68.0571 78.2318 68.0571V68.0527Z" fill="url(#paint23_linear_1_14354)"/>
</g>
<defs>
<linearGradient id="paint0_linear_1_14354" x1="26.946" y1="68.1333" x2="71.9217" y2="23.1576" gradientUnits="userSpaceOnUse">
<stop stop-color="#EFDF5E"/>
<stop offset="1" stop-color="#E4AF46"/>
</linearGradient>
<linearGradient id="paint1_linear_1_14354" x1="0.395031" y1="62.8218" x2="2.29387" y2="60.923" gradientUnits="userSpaceOnUse">
<stop stop-color="#753126"/>
<stop offset="1" stop-color="#A32F00"/>
</linearGradient>
<linearGradient id="paint2_linear_1_14354" x1="4067.26" y1="3579.13" x2="4078.68" y2="3567.74" gradientUnits="userSpaceOnUse">
<stop stop-color="#753126"/>
<stop offset="1" stop-color="#A32F00"/>
</linearGradient>
<linearGradient id="paint3_linear_1_14354" x1="1910.71" y1="1127.47" x2="1912.31" y2="1125" gradientUnits="userSpaceOnUse">
<stop stop-color="#753126"/>
<stop offset="1" stop-color="#A32F00"/>
</linearGradient>
<linearGradient id="paint4_linear_1_14354" x1="1256.03" y1="1686.29" x2="1258.41" y2="1684.7" gradientUnits="userSpaceOnUse">
<stop stop-color="#753126"/>
<stop offset="1" stop-color="#A32F00"/>
</linearGradient>
<linearGradient id="paint5_linear_1_14354" x1="1918.77" y1="1127.45" x2="1920.34" y2="1125.03" gradientUnits="userSpaceOnUse">
<stop stop-color="#753126"/>
<stop offset="1" stop-color="#A32F00"/>
</linearGradient>
<linearGradient id="paint6_linear_1_14354" x1="1256.03" y1="1693.89" x2="1258.41" y2="1692.31" gradientUnits="userSpaceOnUse">
<stop stop-color="#753126"/>
<stop offset="1" stop-color="#A32F00"/>
</linearGradient>
<linearGradient id="paint7_linear_1_14354" x1="2022.41" y1="1372.7" x2="2024.02" y2="1370.23" gradientUnits="userSpaceOnUse">
<stop stop-color="#753126"/>
<stop offset="1" stop-color="#A32F00"/>
</linearGradient>
<linearGradient id="paint8_linear_1_14354" x1="1338.16" y1="2058.28" x2="1340.57" y2="2056.72" gradientUnits="userSpaceOnUse">
<stop stop-color="#753126"/>
<stop offset="1" stop-color="#A32F00"/>
</linearGradient>
<linearGradient id="paint9_linear_1_14354" x1="1979.4" y1="1372.68" x2="1980.98" y2="1370.3" gradientUnits="userSpaceOnUse">
<stop stop-color="#753126"/>
<stop offset="1" stop-color="#A32F00"/>
</linearGradient>
<linearGradient id="paint10_linear_1_14354" x1="1338.16" y1="2072.52" x2="1340.58" y2="2070.95" gradientUnits="userSpaceOnUse">
<stop stop-color="#753126"/>
<stop offset="1" stop-color="#A32F00"/>
</linearGradient>
<linearGradient id="paint11_linear_1_14354" x1="52.0612" y1="41.2183" x2="74.9239" y2="18.3557" gradientUnits="userSpaceOnUse">
<stop stop-color="#D8571E"/>
<stop offset="1" stop-color="#D8801E"/>
</linearGradient>
<linearGradient id="paint12_linear_1_14354" x1="288.555" y1="1680.06" x2="470.724" y2="1580.45" gradientUnits="userSpaceOnUse">
<stop stop-color="#D8571E"/>
<stop offset="1" stop-color="#D8801E"/>
</linearGradient>
<linearGradient id="paint13_linear_1_14354" x1="454.937" y1="1875.62" x2="680.527" y2="1774.44" gradientUnits="userSpaceOnUse">
<stop stop-color="#D8571E"/>
<stop offset="1" stop-color="#D8801E"/>
</linearGradient>
<linearGradient id="paint14_linear_1_14354" x1="626.468" y1="2351.01" x2="896.505" y2="2248.8" gradientUnits="userSpaceOnUse">
<stop stop-color="#D8571E"/>
<stop offset="1" stop-color="#D8801E"/>
</linearGradient>
<linearGradient id="paint15_linear_1_14354" x1="792.007" y1="2613.82" x2="1119.12" y2="2512.91" gradientUnits="userSpaceOnUse">
<stop stop-color="#D8571E"/>
<stop offset="1" stop-color="#D8801E"/>
</linearGradient>
<linearGradient id="paint16_linear_1_14354" x1="956.972" y1="3511.82" x2="1375.89" y2="3410.59" gradientUnits="userSpaceOnUse">
<stop stop-color="#D8571E"/>
<stop offset="1" stop-color="#D8801E"/>
</linearGradient>
<linearGradient id="paint17_linear_1_14354" x1="10706.6" y1="23433.8" x2="11043.9" y2="23271.4" gradientUnits="userSpaceOnUse">
<stop stop-color="#753126"/>
<stop offset="1" stop-color="#A32F00"/>
</linearGradient>
<linearGradient id="paint18_linear_1_14354" x1="10915.9" y1="26801.9" x2="11306.6" y2="26637.7" gradientUnits="userSpaceOnUse">
<stop stop-color="#753126"/>
<stop offset="1" stop-color="#A32F00"/>
</linearGradient>
<linearGradient id="paint19_linear_1_14354" x1="11132.6" y1="30520.6" x2="11580.3" y2="30355.6" gradientUnits="userSpaceOnUse">
<stop stop-color="#753126"/>
<stop offset="1" stop-color="#A32F00"/>
</linearGradient>
<linearGradient id="paint20_linear_1_14354" x1="11345.3" y1="35447.8" x2="11866.5" y2="35282.7" gradientUnits="userSpaceOnUse">
<stop stop-color="#753126"/>
<stop offset="1" stop-color="#A32F00"/>
</linearGradient>
<linearGradient id="paint21_linear_1_14354" x1="11545.2" y1="44263.4" x2="12193.7" y2="44099.3" gradientUnits="userSpaceOnUse">
<stop stop-color="#753126"/>
<stop offset="1" stop-color="#A32F00"/>
</linearGradient>
<linearGradient id="paint22_linear_1_14354" x1="75365.3" y1="33563.4" x2="76959" y2="29939.6" gradientUnits="userSpaceOnUse">
<stop stop-color="#753126"/>
<stop offset="1" stop-color="#A32F00"/>
</linearGradient>
<linearGradient id="paint23_linear_1_14354" x1="86594.5" y1="76796.3" x2="90535" y2="72038.5" gradientUnits="userSpaceOnUse">
<stop stop-color="#753126"/>
<stop offset="1" stop-color="#A32F00"/>
</linearGradient>
<clipPath id="clip0_1_14354">
<rect width="91.1275" height="85" fill="white" transform="translate(0 0.488281)"/>
</clipPath>
</defs>
</svg>
