<svg width="85" height="86" viewBox="0 0 85 86" fill="none" xmlns="http://www.w3.org/2000/svg">
<g clip-path="url(#clip0_1_14317)">
<path d="M22.6164 55.8177C22.4981 55.5961 22.3133 55.4171 22.0879 55.3059C21.8626 55.1948 21.6081 55.1571 21.3602 55.198C18.8856 55.6168 11.7758 55.8387 11.2231 44.7594C10.5531 31.3353 26.8329 8.3978 50.7376 12.9367C69.9359 16.6005 55.6031 34.8693 67.3607 39.4752C74.2487 42.1717 80.4708 56.0062 65.1834 68.0192C56.9095 74.5345 35.693 80.2709 22.6164 55.8177Z" fill="url(#paint0_linear_1_14317)"/>
<path d="M12.1858 19.3502C11.9374 19.3502 11.6945 19.2765 11.488 19.1385C11.2814 19.0005 11.1204 18.8043 11.0253 18.5748C10.9302 18.3452 10.9054 18.0927 10.9538 17.849C11.0023 17.6053 11.1219 17.3815 11.2976 17.2058C11.4733 17.0301 11.6971 16.9105 11.9408 16.862C12.1845 16.8136 12.437 16.8384 12.6666 16.9335C12.8961 17.0286 13.0923 17.1896 13.2303 17.3962C13.3683 17.6028 13.442 17.8456 13.442 18.0941C13.442 18.4272 13.3097 18.7467 13.0741 18.9823C12.8385 19.2179 12.519 19.3502 12.1858 19.3502ZM12.1858 17.6753C12.0748 17.6753 11.9683 17.7195 11.8898 17.798C11.8112 17.8765 11.7671 17.983 11.7671 18.0941C11.7671 18.2051 11.8112 18.3116 11.8898 18.3901C11.9683 18.4687 12.0748 18.5128 12.1858 18.5128C12.2969 18.5128 12.4034 18.4687 12.4819 18.3901C12.5604 18.3116 12.6046 18.2051 12.6046 18.0941C12.6046 17.983 12.5604 17.8765 12.4819 17.798C12.4034 17.7195 12.2969 17.6753 12.1858 17.6753Z" fill="url(#paint1_linear_1_14317)"/>
<path d="M76.3187 31.778C76.0702 31.778 75.8273 31.7043 75.6208 31.5662C75.4142 31.4282 75.2532 31.232 75.1581 31.0025C75.063 30.7729 75.0382 30.5204 75.0866 30.2767C75.1351 30.033 75.2547 29.8092 75.4304 29.6336C75.6061 29.4579 75.8299 29.3382 76.0736 29.2898C76.3173 29.2413 76.5698 29.2662 76.7994 29.3612C77.0289 29.4563 77.2251 29.6173 77.3631 29.8239C77.5011 30.0305 77.5748 30.2734 77.5748 30.5218C77.5748 30.855 77.4425 31.1744 77.2069 31.41C76.9713 31.6456 76.6518 31.778 76.3187 31.778ZM76.3187 30.1031C76.2359 30.1031 76.1549 30.1276 76.086 30.1736C76.0172 30.2196 75.9635 30.285 75.9318 30.3616C75.9001 30.4381 75.8918 30.5223 75.908 30.6035C75.9242 30.6847 75.964 30.7593 76.0226 30.8178C76.0812 30.8764 76.1557 30.9163 76.237 30.9324C76.3182 30.9486 76.4024 30.9403 76.4789 30.9086C76.5554 30.8769 76.6208 30.8233 76.6668 30.7544C76.7128 30.6856 76.7374 30.6046 76.7374 30.5218C76.7352 30.4122 76.6901 30.3078 76.6118 30.2311C76.5335 30.1544 76.4283 30.1114 76.3187 30.1114V30.1031Z" fill="url(#paint2_linear_1_14317)"/>
<path d="M31.1702 85.5084C30.9218 85.5084 30.6789 85.4347 30.4723 85.2967C30.2658 85.1587 30.1048 84.9625 30.0097 84.733C29.9146 84.5034 29.8897 84.2508 29.9382 84.0072C29.9867 83.7635 30.1063 83.5397 30.282 83.364C30.4577 83.1883 30.6815 83.0687 30.9252 83.0202C31.1688 82.9718 31.4214 82.9967 31.6509 83.0917C31.8805 83.1868 32.0767 83.3478 32.2147 83.5544C32.3527 83.7609 32.4264 84.0038 32.4264 84.2523C32.4264 84.5854 32.294 84.9049 32.0585 85.1405C31.8229 85.3761 31.5034 85.5084 31.1702 85.5084ZM31.1702 83.8335C31.0874 83.8335 31.0064 83.8581 30.9376 83.9041C30.8687 83.9501 30.8151 84.0155 30.7834 84.092C30.7517 84.1685 30.7434 84.2527 30.7596 84.3339C30.7757 84.4152 30.8156 84.4898 30.8741 84.5484C30.9327 84.6069 31.0073 84.6468 31.0885 84.6629C31.1698 84.6791 31.2539 84.6708 31.3305 84.6391C31.407 84.6074 31.4724 84.5537 31.5184 84.4849C31.5644 84.416 31.5889 84.3351 31.5889 84.2523C31.5889 84.1412 31.5448 84.0347 31.4663 83.9562C31.3878 83.8776 31.2813 83.8335 31.1702 83.8335Z" fill="url(#paint3_linear_1_14317)"/>
<path d="M49.0865 1.9988C49.0865 1.88775 49.0424 1.78125 48.9639 1.70272C48.8854 1.6242 48.7789 1.58008 48.6678 1.58008H48.2156C48.1045 1.58008 47.998 1.6242 47.9195 1.70272C47.841 1.78125 47.7969 1.88775 47.7969 1.9988C47.7969 2.10985 47.841 2.21635 47.9195 2.29487C47.998 2.3734 48.1045 2.41752 48.2156 2.41752H48.6678C48.7789 2.41752 48.8854 2.3734 48.9639 2.29487C49.0424 2.21635 49.0865 2.10985 49.0865 1.9988Z" fill="url(#paint4_linear_1_14317)"/>
<path d="M49.3406 1.76397C49.4516 1.76397 49.5582 1.71985 49.6367 1.64133C49.7152 1.5628 49.7593 1.4563 49.7593 1.34525V0.893029C49.7509 0.787883 49.7031 0.689791 49.6254 0.618372C49.5478 0.546953 49.4461 0.507477 49.3406 0.507815C49.2351 0.507477 49.1334 0.546953 49.0558 0.618372C48.9781 0.689791 48.9303 0.787883 48.9219 0.893029V1.34525C48.9219 1.4563 48.966 1.5628 49.0445 1.64133C49.123 1.71985 49.2295 1.76397 49.3406 1.76397Z" fill="url(#paint5_linear_1_14317)"/>
<path d="M50.4602 1.58008H50.0415C49.9363 1.58852 49.8382 1.63634 49.7668 1.71397C49.6954 1.7916 49.6559 1.89331 49.6563 1.9988C49.6559 2.10428 49.6954 2.206 49.7668 2.28363C49.8382 2.36126 49.9363 2.40908 50.0415 2.41752H50.4602C50.5712 2.41752 50.6777 2.3734 50.7563 2.29487C50.8348 2.21635 50.8789 2.10985 50.8789 1.9988C50.8789 1.88775 50.8348 1.78125 50.7563 1.70272C50.6777 1.6242 50.5712 1.58008 50.4602 1.58008Z" fill="url(#paint6_linear_1_14317)"/>
<path d="M49.3406 2.25781C49.2295 2.25781 49.123 2.30193 49.0445 2.38046C48.966 2.45898 48.9219 2.56548 48.9219 2.67653V3.12876C48.9303 3.2339 48.9781 3.33199 49.0558 3.40341C49.1334 3.47483 49.2351 3.51431 49.3406 3.51397C49.4461 3.51431 49.5478 3.47483 49.6254 3.40341C49.7031 3.33199 49.7509 3.2339 49.7593 3.12876V2.67653C49.7593 2.56548 49.7152 2.45898 49.6367 2.38046C49.5582 2.30193 49.4516 2.25781 49.3406 2.25781Z" fill="url(#paint7_linear_1_14317)"/>
<path d="M1.28966 54.7957C1.28966 54.6846 1.24554 54.5781 1.16702 54.4996C1.08849 54.421 0.981994 54.377 0.870943 54.377H0.418719C0.307668 54.377 0.201171 54.421 0.122646 54.4996C0.044121 54.5781 0 54.6846 0 54.7957C0 54.9067 0.044121 55.0132 0.122646 55.0917C0.201171 55.1703 0.307668 55.2144 0.418719 55.2144H0.870943C0.981994 55.2144 1.08849 55.1703 1.16702 55.0917C1.24554 55.0132 1.28966 54.9067 1.28966 54.7957Z" fill="url(#paint8_linear_1_14317)"/>
<path d="M1.55153 54.5235C1.66258 54.5235 1.76908 54.4794 1.8476 54.4008C1.92613 54.3223 1.97025 54.2158 1.97025 54.1047V53.686C1.96181 53.5809 1.914 53.4828 1.83637 53.4114C1.75874 53.34 1.65702 53.3004 1.55153 53.3008C1.44605 53.3004 1.34432 53.34 1.26669 53.4114C1.18906 53.4828 1.14125 53.5809 1.13281 53.686V54.1047C1.13281 54.2158 1.17692 54.3223 1.25545 54.4008C1.33397 54.4794 1.44048 54.5235 1.55153 54.5235Z" fill="url(#paint9_linear_1_14317)"/>
<path d="M2.67563 54.377H2.22341C2.11236 54.377 2.00586 54.421 1.92733 54.4996C1.84881 54.5781 1.80469 54.6846 1.80469 54.7957C1.80469 54.9067 1.84881 55.0132 1.92733 55.0917C2.00586 55.1703 2.11236 55.2144 2.22341 55.2144H2.67563C2.78668 55.2144 2.89318 55.1703 2.9717 55.0917C3.05023 55.0132 3.09435 54.9067 3.09435 54.7957C3.09435 54.6846 3.05023 54.5781 2.9717 54.4996C2.89318 54.421 2.78668 54.377 2.67563 54.377Z" fill="url(#paint10_linear_1_14317)"/>
<path d="M1.55153 55.0547C1.44048 55.0547 1.33397 55.0988 1.25545 55.1773C1.17692 55.2558 1.13281 55.3624 1.13281 55.4734V55.9214C1.14024 56.0273 1.18761 56.1265 1.26535 56.1987C1.34308 56.271 1.44538 56.3111 1.55153 56.3108C1.65769 56.3111 1.75998 56.271 1.83771 56.1987C1.91545 56.1265 1.96282 56.0273 1.97025 55.9214V55.4734C1.97025 55.3624 1.92613 55.2558 1.8476 55.1773C1.76908 55.0988 1.66258 55.0547 1.55153 55.0547Z" fill="url(#paint11_linear_1_14317)"/>
<path d="M83.1917 67.2683C83.1917 67.1573 83.1476 67.0508 83.0691 66.9723C82.9906 66.8938 82.8841 66.8496 82.773 66.8496H82.325C82.2139 66.8496 82.1074 66.8938 82.0289 66.9723C81.9504 67.0508 81.9062 67.1573 81.9062 67.2683C81.9062 67.3794 81.9504 67.4859 82.0289 67.5644C82.1074 67.6429 82.2139 67.687 82.325 67.687H82.773C82.8841 67.687 82.9906 67.6429 83.0691 67.5644C83.1476 67.4859 83.1917 67.3794 83.1917 67.2683Z" fill="url(#paint12_linear_1_14317)"/>
<path d="M83.45 67.0084C83.561 67.0084 83.6675 66.9643 83.7461 66.8858C83.8246 66.8072 83.8687 66.7007 83.8687 66.5897V66.1375C83.8687 66.0264 83.8246 65.9199 83.7461 65.8414C83.6675 65.7628 83.561 65.7188 83.45 65.7188C83.3389 65.7188 83.2324 65.7628 83.1539 65.8414C83.0754 65.9199 83.0312 66.0264 83.0312 66.1375V66.5897C83.0312 66.7007 83.0754 66.8072 83.1539 66.8858C83.2324 66.9643 83.3389 67.0084 83.45 67.0084Z" fill="url(#paint13_linear_1_14317)"/>
<path d="M84.5819 66.8496H84.1297C84.0186 66.8496 83.9121 66.8938 83.8336 66.9723C83.7551 67.0508 83.7109 67.1573 83.7109 67.2683C83.7109 67.3794 83.7551 67.4859 83.8336 67.5644C83.9121 67.6429 84.0186 67.687 84.1297 67.687H84.5819C84.6929 67.687 84.7994 67.6429 84.8779 67.5644C84.9565 67.4859 85.0006 67.3794 85.0006 67.2683C85.0006 67.1573 84.9565 67.0508 84.8779 66.9723C84.7994 66.8938 84.6929 66.8496 84.5819 66.8496Z" fill="url(#paint14_linear_1_14317)"/>
<path d="M83.45 67.5273C83.3389 67.5273 83.2324 67.5714 83.1539 67.65C83.0754 67.7285 83.0312 67.835 83.0312 67.9461V68.3941C83.0312 68.5051 83.0754 68.6116 83.1539 68.6902C83.2324 68.7687 83.3389 68.8128 83.45 68.8128C83.561 68.8128 83.6675 68.7687 83.7461 68.6902C83.8246 68.6116 83.8687 68.5051 83.8687 68.3941V67.9461C83.8687 67.835 83.8246 67.7285 83.7461 67.65C83.6675 67.5714 83.561 67.5273 83.45 67.5273Z" fill="url(#paint15_linear_1_14317)"/>
<path d="M24.9453 68.5859V71.3495C24.9453 71.3495 27.7089 75.0552 43.369 74.7872C43.369 74.7872 60.0549 74.8751 61.7926 70.7507L61.7465 68.5859H24.9453Z" fill="white"/>
<path d="M43.381 72.3483C53.5584 72.3483 61.8088 70.5411 61.8088 68.3118C61.8088 66.0826 53.5584 64.2754 43.381 64.2754C33.2035 64.2754 24.9531 66.0826 24.9531 68.3118C24.9531 70.5411 33.2035 72.3483 43.381 72.3483Z" fill="white"/>
<path d="M55.9383 71.2713V73.7083C55.9383 73.7083 31.3637 77.2465 24.9531 70.9615V68.5957C24.9531 68.5957 28.6881 74.6923 55.9383 71.2713Z" fill="url(#paint16_linear_1_14317)"/>
<path d="M52.3637 71.5482C52.3637 71.5482 30.4605 71.992 30.5903 68.1566C30.5903 68.1566 30.3056 66.7915 34.3253 65.125C34.3253 65.125 27.3829 65.4181 25.5322 67.4573C25.5322 67.4573 25.1344 67.4908 25.0297 68.0393C24.925 68.5878 25.1428 70.8321 35.2506 71.9334C45.3585 73.0346 52.3637 71.5482 52.3637 71.5482Z" fill="url(#paint17_linear_1_14317)"/>
<path d="M49.1016 12.5344C45.3723 11.3844 41.3831 11.3844 37.6538 12.5344C27.278 15.7627 22.7181 28.027 27.4832 37.7832L41.8494 67.2317C41.9897 67.518 42.2075 67.7593 42.478 67.928C42.7485 68.0967 43.061 68.1862 43.3798 68.1862C43.6987 68.1862 44.0111 68.0967 44.2817 67.928C44.5522 67.7593 44.77 67.518 44.9102 67.2317L59.2765 37.7748C64.0373 28.0144 59.4775 15.7627 49.1016 12.5344ZM43.3777 37.7748C41.6121 37.7748 39.8862 37.2512 38.4181 36.2703C36.9501 35.2894 35.8058 33.8952 35.1302 32.264C34.4545 30.6327 34.2777 28.8378 34.6222 27.1061C34.9666 25.3744 35.8169 23.7838 37.0653 22.5353C38.3138 21.2868 39.9045 20.4366 41.6362 20.0921C43.3678 19.7477 45.1628 19.9245 46.794 20.6001C48.4252 21.2758 49.8194 22.42 50.8004 23.8881C51.7813 25.3561 52.3048 27.0821 52.3048 28.8477C52.3048 31.2153 51.3643 33.4859 49.6901 35.1601C48.016 36.8342 45.7453 37.7748 43.3777 37.7748Z" fill="white"/>
<path d="M43.6257 42.3843C50.8662 42.3843 56.7358 36.5147 56.7358 29.2742C56.7358 22.0337 50.8662 16.1641 43.6257 16.1641C36.3852 16.1641 30.5156 22.0337 30.5156 29.2742C30.5156 36.5147 36.3852 42.3843 43.6257 42.3843Z" fill="white"/>
<path d="M30.564 17.4082C30.564 17.4082 23.7221 28.8518 34.7176 43.0087L42.8869 53.5981C42.9478 53.6766 43.0249 53.7411 43.1129 53.7872C43.2009 53.8334 43.2977 53.8601 43.3969 53.8657C43.4961 53.8713 43.5954 53.8555 43.6879 53.8194C43.7805 53.7834 43.8643 53.7279 43.9337 53.6568L57.7179 39.9311L44.1346 67.9853C44.1346 67.9853 42.9664 69.321 40.8351 64.958C39.3654 61.939 32.042 47.9287 28.0391 39.1607C26.9653 36.8137 26.1456 34.3585 25.5938 31.8373L25.6482 27.0513L26.9337 22.0602L30.564 17.4082Z" fill="url(#paint18_linear_1_14317)"/>
<path d="M37.6094 40.924L49.3838 33.8058L47.7633 30.6905L50.7195 28.957L55.0658 35.6817C55.0658 35.6817 49.6224 46.5433 37.6094 40.924Z" fill="url(#paint19_linear_1_14317)"/>
<path d="M44.1769 16.1758L45.8183 19.4083L42.4937 21.3051L40.6053 19.3078L31.3516 24.6339C31.3516 24.6339 33.9937 16.5819 44.1769 16.1758Z" fill="url(#paint20_linear_1_14317)"/>
<path d="M40.0207 34.764C43.0524 34.764 45.5101 32.3063 45.5101 29.2746C45.5101 26.2428 43.0524 23.7852 40.0207 23.7852C36.9889 23.7852 34.5312 26.2428 34.5312 29.2746C34.5312 32.3063 36.9889 34.764 40.0207 34.764Z" fill="url(#paint21_linear_1_14317)"/>
<path d="M40.3114 33.167L43.1168 27.9079C43.1287 27.8861 43.135 27.8617 43.1351 27.8368C43.1353 27.812 43.1293 27.7875 43.1177 27.7655C43.1061 27.7436 43.0892 27.7248 43.0686 27.7109C43.048 27.697 43.0243 27.6885 42.9996 27.686L37.0789 26.9909C37.0471 26.9879 37.0152 26.9951 36.9878 27.0114C36.9604 27.0277 36.9388 27.0523 36.9263 27.0816C36.9137 27.1109 36.9107 27.1435 36.9179 27.1746C36.925 27.2057 36.9418 27.2337 36.9659 27.2547L39.6666 29.5032C39.6975 29.5298 39.717 29.5673 39.721 29.6079L40.0267 33.1084C40.0288 33.1413 40.0417 33.1727 40.0634 33.1976C40.0851 33.2225 40.1144 33.2396 40.1467 33.2462C40.1791 33.2529 40.2127 33.2487 40.2424 33.2344C40.2722 33.2201 40.2964 33.1964 40.3114 33.167Z" fill="white"/>
<path d="M46.9824 63.9344L59.6487 37.9738C60.861 35.4923 61.5216 32.7778 61.5853 30.0167C61.6489 27.2556 61.1139 24.5135 60.0172 21.9788C59.0481 19.6495 57.5795 17.5613 55.715 15.8618C53.8505 14.1623 51.6356 12.8928 49.2267 12.1431C45.4166 10.9705 41.342 10.9705 37.5319 12.1431C35.1231 12.8928 32.9082 14.1623 31.0437 15.8618C29.1792 17.5613 27.7106 19.6495 26.7415 21.9788C25.6452 24.5135 25.1102 27.2553 25.173 30.0162C25.2359 32.7771 25.8952 35.4917 27.1058 37.9738L39.7763 63.9344C31.8625 64.2862 24.5391 65.7936 24.5391 68.3059V70.7512C24.5391 73.6445 34.2492 75.2064 43.3814 75.2064C52.5137 75.2064 62.2238 73.6445 62.2238 70.7512V68.3059C62.2322 65.7936 54.8962 64.2862 46.9824 63.9344ZM27.8511 37.597C26.6922 35.2246 26.0607 32.6294 26 29.9897C25.9393 27.3501 26.4508 24.7286 27.4994 22.3054C28.4213 20.0869 29.819 18.0979 31.5938 16.4787C33.3685 14.8594 35.4771 13.6496 37.7706 12.9344C41.4176 11.8068 45.3201 11.8068 48.9671 12.9344C51.2644 13.6461 53.3769 14.8546 55.1548 16.4741C56.9328 18.0935 58.3326 20.0844 59.2551 22.3054C60.3043 24.7283 60.8166 27.3496 60.7566 29.9892C60.6966 32.6289 60.0658 35.2243 58.9075 37.597L46.078 63.8968L45.6593 64.7342L44.5245 67.0581C44.4186 67.2736 44.2543 67.4552 44.0504 67.5821C43.8465 67.7091 43.6111 67.7764 43.371 67.7764C43.1308 67.7764 42.8954 67.7091 42.6915 67.5821C42.4876 67.4552 42.3234 67.2736 42.2174 67.0581L41.0827 64.7342L40.6639 63.8968L27.8511 37.597ZM40.1657 64.751L41.4637 67.414C41.6355 67.7727 41.9059 68.0751 42.2433 68.2856C42.5807 68.4962 42.9711 68.6064 43.3689 68.6032C43.7666 68.6064 44.157 68.4962 44.4944 68.2856C44.8318 68.0751 45.1022 67.7727 45.274 67.414L46.5763 64.751C55.8258 65.1027 61.3864 66.9451 61.3864 68.3059C61.3864 69.8175 54.5319 71.9236 43.3814 71.9236C32.2309 71.9236 25.3765 69.83 25.3765 68.3059C25.3765 66.9492 30.9287 65.1069 40.174 64.751H40.1657ZM43.3772 74.3815C32.2226 74.3815 25.3723 72.2879 25.3723 70.7638V69.7086C27.9139 71.7101 35.8403 72.7736 43.3772 72.7736C50.9142 72.7736 58.8447 71.7101 61.3822 69.7086V70.7638C61.3947 72.2628 54.5403 74.3689 43.3856 74.3689L43.3772 74.3815Z" fill="url(#paint22_linear_1_14317)"/>
<path d="M57.1592 29.2732C57.16 26.5971 56.3672 23.9809 54.8809 21.7555C53.3947 19.53 51.2818 17.7953 48.8096 16.7709C46.3373 15.7464 43.6168 15.4781 40.9921 16C38.3674 16.5219 35.9564 17.8104 34.0641 19.7027C32.1718 21.595 30.8832 24.006 30.3613 26.6307C29.8394 29.2555 30.1077 31.976 31.1322 34.4482C32.1567 36.9205 33.8913 39.0334 36.1168 40.5196C38.3422 42.0058 40.9585 42.7987 43.6346 42.7979C47.2202 42.7934 50.6576 41.3671 53.193 38.8317C55.7284 36.2963 57.1548 32.8588 57.1592 29.2732ZM43.6346 41.9604C41.8691 41.9615 40.1231 41.5921 38.5094 40.876L49.4338 34.3607C49.569 34.2742 49.6667 34.1402 49.7078 33.9851C49.7489 33.8301 49.7303 33.6653 49.6558 33.5232L48.1651 30.9649L50.7654 29.4407L54.5757 35.7215C53.4513 37.6252 51.8491 39.2023 49.9279 40.2965C48.0067 41.3908 45.833 41.9644 43.622 41.9604H43.6346ZM56.3218 29.2732C56.3212 30.0927 56.2412 30.9103 56.0831 31.7144L52.4193 25.4336C52.2883 25.2115 52.0748 25.0502 51.8253 24.9851C51.5757 24.9199 51.3106 24.9562 51.0878 25.0861L45.8329 28.172C45.5931 26.9018 44.9429 25.7456 43.9821 24.8809L49.3292 21.7907C49.5552 21.6582 49.7194 21.4413 49.7856 21.1878C49.8175 21.063 49.8239 20.933 49.8045 20.8057C49.785 20.6784 49.7402 20.5562 49.6725 20.4466L47.7213 17.256C50.2287 18.1125 52.4058 19.7313 53.9479 21.886C55.4899 24.0407 56.32 26.6236 56.3218 29.2732ZM35.9846 33.586L32.6097 35.5833C31.9503 34.4336 31.4755 33.1873 31.2028 31.8902L34.2008 30.2447C34.4117 31.5243 35.0387 32.6988 35.9846 33.586ZM34.9671 29.2732C34.9663 28.2702 35.2629 27.2894 35.8196 26.455C36.3763 25.6205 37.1679 24.97 38.0944 24.5856C39.0209 24.2011 40.0406 24.1001 41.0244 24.2953C42.0083 24.4905 42.9122 24.9731 43.6218 25.6821C44.3314 26.391 44.8147 27.2945 45.0107 28.2783C45.2067 29.262 45.1066 30.2818 44.7229 31.2086C44.3392 32.1354 43.6893 32.9275 42.8553 33.4849C42.0214 34.0423 41.0408 34.3398 40.0378 34.3398C38.694 34.3387 37.4055 33.8046 36.455 32.8548C35.5044 31.905 34.9693 30.617 34.9671 29.2732ZM43.6388 16.5819H43.957L45.4058 19.0649C45.4191 19.0985 45.4191 19.1359 45.4058 19.1695C45.4014 19.1864 45.3935 19.2022 45.3827 19.2159C45.3719 19.2296 45.3584 19.2409 45.343 19.2491L42.5082 20.8654C42.4934 20.8744 42.477 20.8803 42.4599 20.8829C42.4427 20.8854 42.4253 20.8846 42.4085 20.8803C42.3917 20.876 42.376 20.8684 42.3622 20.8579C42.3484 20.8474 42.3368 20.8343 42.3282 20.8193L41.4279 19.3454C41.2981 19.1289 41.0884 18.9721 40.8441 18.9087C40.5998 18.8453 40.3403 18.8803 40.1215 19.0062L32.371 23.4112C33.4439 21.354 35.0598 19.6298 37.0432 18.4259C39.0266 17.222 41.3018 16.5843 43.622 16.5819H43.6388ZM31.7974 24.7176L40.5444 19.7432C40.5746 19.7261 40.6102 19.7213 40.6437 19.7299C40.6773 19.7385 40.7062 19.7598 40.7245 19.7892L41.6247 21.2631C41.7554 21.4799 41.9658 21.6368 42.2108 21.7002C42.4558 21.7636 42.7159 21.7285 42.9353 21.6023L45.77 19.9861C45.8816 19.9222 45.9795 19.837 46.0581 19.7352C46.1366 19.6335 46.1943 19.5172 46.2278 19.393C46.2612 19.2689 46.2698 19.1394 46.2531 19.0119C46.2363 18.8845 46.1946 18.7616 46.1301 18.6503L44.9619 16.653C45.4976 16.7094 46.0291 16.8003 46.5531 16.9252L48.9607 20.8905C48.9704 20.9054 48.9769 20.9222 48.9798 20.9398C48.9828 20.9573 48.982 20.9753 48.9777 20.9926C48.9734 21.0099 48.9656 21.0261 48.9547 21.0402C48.9439 21.0544 48.9302 21.0661 48.9146 21.0747L43.2703 24.3365C42.3802 23.7514 41.3483 23.4182 40.2841 23.3722C39.2199 23.3262 38.1631 23.5692 37.2258 24.0754C36.2886 24.5816 35.5058 25.3321 34.9607 26.2472C34.4156 27.1624 34.1284 28.208 34.1296 29.2732C34.1296 29.2732 34.1296 29.3025 34.1296 29.3193L31.0646 30.9942C30.986 30.4211 30.9454 29.8433 30.9432 29.2649C30.9386 27.7103 31.2225 26.1685 31.7806 24.7176H31.7974ZM33.0535 36.2826L36.6796 34.1346C37.5655 34.7456 38.6017 35.1027 39.6759 35.1672C40.7502 35.2317 41.8216 35.0011 42.7742 34.5004C43.7268 33.9997 44.5243 33.248 45.0804 32.3267C45.6365 31.4053 45.93 30.3494 45.9292 29.2732C45.9292 29.2146 45.9292 29.156 45.9292 29.0974L51.5107 25.8188C51.5256 25.8091 51.5424 25.8026 51.56 25.7997C51.5775 25.7967 51.5955 25.7974 51.6128 25.8018C51.6301 25.8061 51.6463 25.8139 51.6604 25.8248C51.6746 25.8356 51.6863 25.8493 51.6949 25.8649L55.7984 32.8826C55.5987 33.5529 55.3438 34.2056 55.0363 34.8338L51.3725 28.8085C51.2868 28.6725 51.1522 28.5745 50.9964 28.5348C50.8406 28.495 50.6755 28.5166 50.5351 28.5949L47.5789 30.3242C47.4415 30.4086 47.3416 30.5424 47.2996 30.698C47.2576 30.8537 47.2766 31.0195 47.3528 31.1616L48.8435 33.7242L37.6301 40.4237C35.7882 39.4377 34.2156 38.016 33.0494 36.2826H33.0535Z" fill="url(#paint23_linear_1_14317)"/>
<path d="M40.1847 33.6566C40.2873 33.6563 40.3878 33.6281 40.4756 33.575C40.5634 33.5219 40.6351 33.4458 40.683 33.3551L43.4884 28.096C43.5329 28.0138 43.5565 27.9219 43.5571 27.8285C43.5577 27.735 43.5353 27.6428 43.4919 27.56C43.4484 27.4773 43.3853 27.4065 43.308 27.3539C43.2307 27.3013 43.1416 27.2686 43.0487 27.2586L37.1322 26.5593C37.011 26.5475 36.8891 26.575 36.7846 26.6376C36.6801 26.7002 36.5985 26.7947 36.5516 26.9071C36.5048 27.0195 36.4952 27.144 36.5243 27.2623C36.5535 27.3806 36.6198 27.4864 36.7135 27.5642L39.3305 29.7416L39.6236 33.129C39.6333 33.2524 39.6832 33.3692 39.7656 33.4615C39.848 33.5538 39.9585 33.6164 40.08 33.6399C40.1142 33.6489 40.1493 33.6545 40.1847 33.6566ZM37.9278 27.5014L42.563 28.0458L40.3689 32.166L40.1386 29.5615C40.1249 29.4105 40.0528 29.2708 39.9376 29.1721L37.9278 27.5014Z" fill="url(#paint24_linear_1_14317)"/>
</g>
<defs>
<linearGradient id="paint0_linear_1_14317" x1="25.1371" y1="63.585" x2="67.0886" y2="21.6335" gradientUnits="userSpaceOnUse">
<stop stop-color="#EFDF5E"/>
<stop offset="1" stop-color="#E4AF46"/>
</linearGradient>
<linearGradient id="paint1_linear_1_14317" x1="11.2982" y1="18.9776" x2="13.0693" y2="17.2064" gradientUnits="userSpaceOnUse">
<stop stop-color="#753126"/>
<stop offset="1" stop-color="#A32F00"/>
</linearGradient>
<linearGradient id="paint2_linear_1_14317" x1="1450.94" y1="2613.98" x2="1461.56" y2="2603.32" gradientUnits="userSpaceOnUse">
<stop stop-color="#753126"/>
<stop offset="1" stop-color="#A32F00"/>
</linearGradient>
<linearGradient id="paint3_linear_1_14317" x1="1134.88" y1="2989.92" x2="1145.51" y2="2979.29" gradientUnits="userSpaceOnUse">
<stop stop-color="#753126"/>
<stop offset="1" stop-color="#A32F00"/>
</linearGradient>
<linearGradient id="paint4_linear_1_14317" x1="669.668" y1="805.136" x2="671.16" y2="802.839" gradientUnits="userSpaceOnUse">
<stop stop-color="#753126"/>
<stop offset="1" stop-color="#A32F00"/>
</linearGradient>
<linearGradient id="paint5_linear_1_14317" x1="454.561" y1="1203.16" x2="456.776" y2="1201.68" gradientUnits="userSpaceOnUse">
<stop stop-color="#753126"/>
<stop offset="1" stop-color="#A32F00"/>
</linearGradient>
<linearGradient id="paint6_linear_1_14317" x1="644.57" y1="805.119" x2="646.072" y2="802.938" gradientUnits="userSpaceOnUse">
<stop stop-color="#753126"/>
<stop offset="1" stop-color="#A32F00"/>
</linearGradient>
<linearGradient id="paint7_linear_1_14317" x1="454.561" y1="1210.23" x2="456.776" y2="1208.75" gradientUnits="userSpaceOnUse">
<stop stop-color="#753126"/>
<stop offset="1" stop-color="#A32F00"/>
</linearGradient>
<linearGradient id="paint8_linear_1_14317" x1="474.66" y1="963.527" x2="476.163" y2="961.225" gradientUnits="userSpaceOnUse">
<stop stop-color="#753126"/>
<stop offset="1" stop-color="#A32F00"/>
</linearGradient>
<linearGradient id="paint9_linear_1_14317" x1="311.178" y1="1378.07" x2="313.359" y2="1376.56" gradientUnits="userSpaceOnUse">
<stop stop-color="#753126"/>
<stop offset="1" stop-color="#A32F00"/>
</linearGradient>
<linearGradient id="paint10_linear_1_14317" x1="482.113" y1="963.511" x2="483.575" y2="961.26" gradientUnits="userSpaceOnUse">
<stop stop-color="#753126"/>
<stop offset="1" stop-color="#A32F00"/>
</linearGradient>
<linearGradient id="paint11_linear_1_14317" x1="311.178" y1="1421.39" x2="313.392" y2="1419.92" gradientUnits="userSpaceOnUse">
<stop stop-color="#753126"/>
<stop offset="1" stop-color="#A32F00"/>
</linearGradient>
<linearGradient id="paint12_linear_1_14317" x1="806.474" y1="1000.93" x2="807.967" y2="998.638" gradientUnits="userSpaceOnUse">
<stop stop-color="#753126"/>
<stop offset="1" stop-color="#A32F00"/>
</linearGradient>
<linearGradient id="paint13_linear_1_14317" x1="556.884" y1="1501.43" x2="559.139" y2="1499.96" gradientUnits="userSpaceOnUse">
<stop stop-color="#753126"/>
<stop offset="1" stop-color="#A32F00"/>
</linearGradient>
<linearGradient id="paint14_linear_1_14317" x1="816.275" y1="1000.91" x2="817.747" y2="998.659" gradientUnits="userSpaceOnUse">
<stop stop-color="#753126"/>
<stop offset="1" stop-color="#A32F00"/>
</linearGradient>
<linearGradient id="paint15_linear_1_14317" x1="556.884" y1="1504.03" x2="559.13" y2="1502.56" gradientUnits="userSpaceOnUse">
<stop stop-color="#753126"/>
<stop offset="1" stop-color="#A32F00"/>
</linearGradient>
<linearGradient id="paint16_linear_1_14317" x1="32.7874" y1="78.7957" x2="48.1292" y2="63.4538" gradientUnits="userSpaceOnUse">
<stop stop-color="#D8571E"/>
<stop offset="1" stop-color="#D8801E"/>
</linearGradient>
<linearGradient id="paint17_linear_1_14317" x1="12189.2" y1="8256.2" x2="12293.1" y2="7862.15" gradientUnits="userSpaceOnUse">
<stop stop-color="#D8571E"/>
<stop offset="1" stop-color="#D8801E"/>
</linearGradient>
<linearGradient id="paint18_linear_1_14317" x1="13940.5" y1="54813.2" x2="16287.9" y2="53327.6" gradientUnits="userSpaceOnUse">
<stop stop-color="#D8571E"/>
<stop offset="1" stop-color="#D8801E"/>
</linearGradient>
<linearGradient id="paint19_linear_1_14317" x1="8155.19" y1="14413.9" x2="8549.27" y2="13907.2" gradientUnits="userSpaceOnUse">
<stop stop-color="#D8571E"/>
<stop offset="1" stop-color="#D8801E"/>
</linearGradient>
<linearGradient id="paint20_linear_1_14317" x1="6497.99" y1="8620.21" x2="6685.36" y2="8299.74" gradientUnits="userSpaceOnUse">
<stop stop-color="#D8571E"/>
<stop offset="1" stop-color="#D8801E"/>
</linearGradient>
<linearGradient id="paint21_linear_1_14317" x1="982.113" y1="880.353" x2="1185.66" y2="676.806" gradientUnits="userSpaceOnUse">
<stop stop-color="#D8571E"/>
<stop offset="1" stop-color="#D8801E"/>
</linearGradient>
<linearGradient id="paint22_linear_1_14317" x1="15827.3" y1="71462.1" x2="21617.6" y2="68049.6" gradientUnits="userSpaceOnUse">
<stop stop-color="#753126"/>
<stop offset="1" stop-color="#A32F00"/>
</linearGradient>
<linearGradient id="paint23_linear_1_14317" x1="12174.4" y1="28332.4" x2="13410.1" y2="27096.6" gradientUnits="userSpaceOnUse">
<stop stop-color="#753126"/>
<stop offset="1" stop-color="#A32F00"/>
</linearGradient>
<linearGradient id="paint24_linear_1_14317" x1="3258.54" y1="7327.9" x2="3340.54" y2="7246.41" gradientUnits="userSpaceOnUse">
<stop stop-color="#753126"/>
<stop offset="1" stop-color="#A32F00"/>
</linearGradient>
<clipPath id="clip0_1_14317">
<rect width="85" height="85" fill="white" transform="translate(0 0.488281)"/>
</clipPath>
</defs>
</svg>
