<svg width="85" height="86" viewBox="0 0 85 86" fill="none" xmlns="http://www.w3.org/2000/svg">
<g clip-path="url(#clip0_1_14267)">
<path d="M22.5461 55.8134C22.4281 55.5916 22.2432 55.4128 22.0177 55.3022C21.7921 55.1917 21.5375 55.1552 21.2899 55.1979C18.8195 55.6166 11.7054 55.8385 11.1527 44.7592C10.4828 31.3309 26.7668 8.39763 50.6673 12.9575C69.8697 16.6213 55.5328 34.8858 67.2946 39.4959C74.1784 42.1925 80.4005 56.0227 65.1131 68.0358C56.8392 74.5385 35.6227 80.2749 22.5461 55.8134Z" fill="url(#paint0_linear_1_14267)"/>
<path d="M1.26398 50.2076C1.01554 50.2076 0.772682 50.1339 0.566108 49.9959C0.359534 49.8579 0.198507 49.6617 0.103432 49.4322C0.00835618 49.2027 -0.0165191 48.9501 0.03195 48.7064C0.0804191 48.4628 0.20006 48.2389 0.375737 48.0632C0.551414 47.8876 0.775249 47.7679 1.01892 47.7194C1.26259 47.671 1.51517 47.6959 1.7447 47.791C1.97423 47.886 2.1704 48.047 2.30843 48.2536C2.44646 48.4601 2.52014 48.703 2.52014 48.9515C2.52014 49.2846 2.3878 49.6041 2.15223 49.8397C1.91665 50.0753 1.59714 50.2076 1.26398 50.2076ZM1.26398 48.5328C1.15293 48.5328 1.04643 48.5769 0.967909 48.6554C0.889384 48.734 0.845263 48.8404 0.845263 48.9515C0.845263 49.0625 0.889384 49.169 0.967909 49.2476C1.04643 49.3261 1.15293 49.3702 1.26398 49.3702C1.37503 49.3702 1.48153 49.3261 1.56006 49.2476C1.63858 49.169 1.6827 49.0625 1.6827 48.9515C1.6827 48.8404 1.63858 48.734 1.56006 48.6554C1.48153 48.5769 1.37503 48.5328 1.26398 48.5328Z" fill="url(#paint1_linear_1_14267)"/>
<path d="M51.7874 2.99668C51.5389 2.99668 51.2961 2.92302 51.0895 2.78499C50.8829 2.64696 50.7219 2.45077 50.6269 2.22124C50.5318 1.99171 50.5069 1.73913 50.5554 1.49546C50.6039 1.25179 50.7235 1.02798 50.8992 0.8523C51.0749 0.676623 51.2987 0.556982 51.5423 0.508512C51.786 0.460043 52.0386 0.484919 52.2681 0.579994C52.4976 0.67507 52.6938 0.836071 52.8319 1.04265C52.9699 1.24922 53.0436 1.49207 53.0436 1.74052C53.0436 2.07367 52.9112 2.39319 52.6756 2.62876C52.4401 2.86434 52.1205 2.99668 51.7874 2.99668ZM51.7874 1.3218C51.7046 1.3218 51.6236 1.34635 51.5548 1.39236C51.4859 1.43837 51.4322 1.50377 51.4005 1.58028C51.3689 1.65679 51.3606 1.741 51.3767 1.82222C51.3929 1.90345 51.4328 1.97803 51.4913 2.03659C51.5499 2.09515 51.6245 2.13503 51.7057 2.15119C51.7869 2.16734 51.8711 2.15906 51.9476 2.12737C52.0241 2.09568 52.0895 2.04202 52.1356 1.97316C52.1816 1.9043 52.2061 1.82333 52.2061 1.74052C52.205 1.6302 52.1604 1.52478 52.082 1.44715C52.0036 1.36953 51.8977 1.32599 51.7874 1.32599V1.3218Z" fill="url(#paint2_linear_1_14267)"/>
<path d="M83.7484 74.0358C83.4999 74.0358 83.2571 73.9621 83.0505 73.8241C82.8439 73.686 82.6829 73.4899 82.5878 73.2603C82.4927 73.0308 82.4679 72.7782 82.5163 72.5345C82.5648 72.2908 82.6844 72.067 82.8601 71.8914C83.0358 71.7157 83.2596 71.596 83.5033 71.5476C83.747 71.4991 83.9995 71.524 84.2291 71.6191C84.4586 71.7142 84.6548 71.8751 84.7928 72.0817C84.9308 72.2883 85.0045 72.5312 85.0045 72.7796C85.0045 73.1128 84.8722 73.4323 84.6366 73.6679C84.401 73.9034 84.0815 74.0358 83.7484 74.0358ZM83.7484 72.3609C83.6373 72.3609 83.5308 72.405 83.4523 72.4835C83.3738 72.562 83.3296 72.6686 83.3296 72.7796C83.3296 72.8907 83.3738 72.9971 83.4523 73.0757C83.5308 73.1542 83.6373 73.1983 83.7484 73.1983C83.8594 73.1983 83.9659 73.1542 84.0444 73.0757C84.1229 72.9971 84.1671 72.8907 84.1671 72.7796C84.1671 72.6686 84.1229 72.562 84.0444 72.4835C83.9659 72.405 83.8594 72.3609 83.7484 72.3609Z" fill="url(#paint3_linear_1_14267)"/>
<path d="M13.4068 12.4382C13.4068 12.3272 13.3627 12.2207 13.2842 12.1422C13.2057 12.0637 13.0992 12.0195 12.9881 12.0195H12.5359C12.4249 12.0195 12.3184 12.0637 12.2398 12.1422C12.1613 12.2207 12.1172 12.3272 12.1172 12.4382C12.1172 12.5493 12.1613 12.6558 12.2398 12.7343C12.3184 12.8129 12.4249 12.857 12.5359 12.857H12.9881C13.0992 12.857 13.2057 12.8129 13.2842 12.7343C13.3627 12.6558 13.4068 12.5493 13.4068 12.4382Z" fill="url(#paint4_linear_1_14267)"/>
<path d="M13.6687 12.18C13.7798 12.18 13.8863 12.1359 13.9648 12.0574C14.0433 11.9788 14.0874 11.8723 14.0874 11.7613V11.3091C14.079 11.2039 14.0312 11.1058 13.9535 11.0344C13.8759 10.963 13.7742 10.9235 13.6687 10.9238C13.5632 10.9235 13.4615 10.963 13.3839 11.0344C13.3063 11.1058 13.2584 11.2039 13.25 11.3091V11.7613C13.25 11.8723 13.2941 11.9788 13.3726 12.0574C13.4512 12.1359 13.5577 12.18 13.6687 12.18Z" fill="url(#paint5_linear_1_14267)"/>
<path d="M14.8006 12.0195H14.3484C14.2374 12.0195 14.1309 12.0637 14.0523 12.1422C13.9738 12.2207 13.9297 12.3272 13.9297 12.4382C13.9297 12.5493 13.9738 12.6558 14.0523 12.7343C14.1309 12.8129 14.2374 12.857 14.3484 12.857H14.8006C14.9117 12.857 15.0182 12.8129 15.0967 12.7343C15.1752 12.6558 15.2193 12.5493 15.2193 12.4382C15.2193 12.3272 15.1752 12.2207 15.0967 12.1422C15.0182 12.0637 14.9117 12.0195 14.8006 12.0195Z" fill="url(#paint6_linear_1_14267)"/>
<path d="M13.6687 12.6875C13.5577 12.6875 13.4512 12.7316 13.3726 12.8101C13.2941 12.8887 13.25 12.9952 13.25 13.1062V13.5543C13.2574 13.6601 13.3048 13.7593 13.3825 13.8316C13.4603 13.9039 13.5626 13.9439 13.6687 13.9437C13.7749 13.9439 13.8772 13.9039 13.9549 13.8316C14.0326 13.7593 14.08 13.6601 14.0874 13.5543V13.1062C14.0874 12.9952 14.0433 12.8887 13.9648 12.8101C13.8863 12.7316 13.7798 12.6875 13.6687 12.6875Z" fill="url(#paint7_linear_1_14267)"/>
<path d="M76.4146 27.0613C76.4146 26.9502 76.3705 26.8437 76.292 26.7652C76.2135 26.6867 76.107 26.6426 75.9959 26.6426H75.5437C75.4327 26.6426 75.3261 26.6867 75.2476 26.7652C75.1691 26.8437 75.125 26.9502 75.125 27.0613C75.125 27.1723 75.1691 27.2788 75.2476 27.3574C75.3261 27.4359 75.4327 27.48 75.5437 27.48H75.9959C76.107 27.48 76.2135 27.4359 76.292 27.3574C76.3705 27.2788 76.4146 27.1723 76.4146 27.0613Z" fill="url(#paint8_linear_1_14267)"/>
<path d="M76.6765 26.8014C76.7876 26.8014 76.8941 26.7573 76.9726 26.6787C77.0511 26.6002 77.0952 26.4937 77.0952 26.3827V25.9304C77.0952 25.8194 77.0511 25.7129 76.9726 25.6344C76.8941 25.5558 76.7876 25.5117 76.6765 25.5117C76.5655 25.5117 76.459 25.5558 76.3805 25.6344C76.3019 25.7129 76.2578 25.8194 76.2578 25.9304V26.3827C76.2578 26.4937 76.3019 26.6002 76.3805 26.6787C76.459 26.7573 76.5655 26.8014 76.6765 26.8014Z" fill="url(#paint9_linear_1_14267)"/>
<path d="M77.8062 26.6426H77.354C77.2488 26.651 77.1508 26.6988 77.0793 26.7764C77.0079 26.8541 76.9684 26.9558 76.9688 27.0613C76.9684 27.1668 77.0079 27.2685 77.0793 27.3461C77.1508 27.4238 77.2488 27.4716 77.354 27.48H77.8062C77.9172 27.48 78.0237 27.4359 78.1023 27.3574C78.1808 27.2788 78.2249 27.1723 78.2249 27.0613C78.2249 26.9502 78.1808 26.8437 78.1023 26.7652C78.0237 26.6867 77.9172 26.6426 77.8062 26.6426Z" fill="url(#paint10_linear_1_14267)"/>
<path d="M76.6765 27.3418C76.5655 27.3418 76.459 27.3859 76.3805 27.4644C76.3019 27.543 76.2578 27.6495 76.2578 27.7605V28.1792C76.2578 28.2903 76.3019 28.3968 76.3805 28.4753C76.459 28.5538 76.5655 28.598 76.6765 28.598C76.7876 28.598 76.8941 28.5538 76.9726 28.4753C77.0511 28.3968 77.0952 28.2903 77.0952 28.1792V27.7605C77.0952 27.6495 77.0511 27.543 76.9726 27.4644C76.8941 27.3859 76.7876 27.3418 76.6765 27.3418Z" fill="url(#paint11_linear_1_14267)"/>
<path d="M32.399 83.9734C32.399 83.8624 32.3549 83.7558 32.2764 83.6773C32.1979 83.5988 32.0913 83.5547 31.9803 83.5547H31.5281C31.417 83.5547 31.3105 83.5988 31.232 83.6773C31.1535 83.7558 31.1094 83.8624 31.1094 83.9734C31.1094 84.0845 31.1535 84.191 31.232 84.2695C31.3105 84.348 31.417 84.3921 31.5281 84.3921H31.9803C32.0913 84.3921 32.1979 84.348 32.2764 84.2695C32.3549 84.191 32.399 84.0845 32.399 83.9734Z" fill="url(#paint12_linear_1_14267)"/>
<path d="M32.6687 83.7171C32.7798 83.7171 32.8863 83.6729 32.9648 83.5944C33.0433 83.5159 33.0874 83.4094 33.0874 83.2984V82.8462C33.079 82.741 33.0312 82.6429 32.9535 82.5715C32.8759 82.5001 32.7742 82.4606 32.6687 82.4609C32.5632 82.4606 32.4615 82.5001 32.3839 82.5715C32.3063 82.6429 32.2584 82.741 32.25 82.8462V83.2984C32.25 83.4094 32.2941 83.5159 32.3726 83.5944C32.4512 83.6729 32.5577 83.7171 32.6687 83.7171Z" fill="url(#paint13_linear_1_14267)"/>
<path d="M33.7828 83.5547H33.3306C33.2254 83.5631 33.1273 83.6109 33.0559 83.6886C32.9845 83.7662 32.945 83.8679 32.9453 83.9734C32.945 84.0789 32.9845 84.1806 33.0559 84.2583C33.1273 84.3359 33.2254 84.3837 33.3306 84.3921H33.7828C33.8938 84.3921 34.0003 84.348 34.0789 84.2695C34.1574 84.191 34.2015 84.0845 34.2015 83.9734C34.2015 83.8624 34.1574 83.7558 34.0789 83.6773C34.0003 83.5988 33.8938 83.5547 33.7828 83.5547Z" fill="url(#paint14_linear_1_14267)"/>
<path d="M32.6687 84.2324C32.5577 84.2324 32.4512 84.2765 32.3726 84.355C32.2941 84.4336 32.25 84.5401 32.25 84.6511V85.1243C32.2584 85.2294 32.3063 85.3275 32.3839 85.3989C32.4615 85.4703 32.5632 85.5099 32.6687 85.5095C32.7742 85.5099 32.8759 85.4703 32.9535 85.3989C33.0312 85.3275 33.079 85.2294 33.0874 85.1243V84.6721C33.0903 84.6154 33.0815 84.5587 33.0618 84.5054C33.042 84.4522 33.0116 84.4035 32.9725 84.3624C32.9333 84.3212 32.8862 84.2885 32.8339 84.2662C32.7817 84.2438 32.7255 84.2324 32.6687 84.2324Z" fill="url(#paint15_linear_1_14267)"/>
<path d="M23.3772 24.3134C23.338 24.2784 23.2873 24.259 23.2348 24.259C23.1823 24.259 23.1316 24.2784 23.0924 24.3134C18.7084 28.2838 15.979 33.7585 15.4468 39.6491C14.9146 45.5398 16.6186 51.415 20.22 56.1068L19.7301 55.4703C16.0414 50.663 14.1708 44.7064 14.449 38.6533C14.7271 32.6002 17.136 26.8403 21.2501 22.3915C21.2833 22.354 21.3017 22.3055 21.3017 22.2554C21.3017 22.2053 21.2833 22.1569 21.2501 22.1193L19.9143 20.4821C19.8885 20.4511 19.8722 20.4133 19.8673 20.3732C19.8624 20.3332 19.8693 20.2925 19.887 20.2562C19.9047 20.22 19.9325 20.1896 19.967 20.1687C20.0016 20.1479 20.0415 20.1375 20.0818 20.1388L25.0772 20.277C25.1047 20.2775 25.1318 20.2835 25.157 20.2945C25.1822 20.3055 25.2049 20.3214 25.224 20.3412C25.243 20.3611 25.258 20.3844 25.268 20.4101C25.278 20.4357 25.2829 20.463 25.2823 20.4905L25.1316 25.4733C25.1311 25.5138 25.1188 25.5532 25.0963 25.5869C25.0738 25.6206 25.042 25.647 25.0047 25.6629C24.9675 25.6789 24.9264 25.6837 24.8865 25.6768C24.8466 25.6699 24.8096 25.6516 24.7799 25.624L23.3772 24.3134Z" fill="white"/>
<path d="M42.0414 15.7266C45.9557 15.7268 49.8166 16.6352 53.3204 18.3803C56.8242 20.1253 59.8754 22.6595 62.2339 25.7835C64.5925 28.9075 66.1941 32.536 66.9128 36.3838C67.6315 40.2316 67.4478 44.1937 66.3759 47.9584C65.3041 51.7231 63.3734 55.1878 60.7358 58.08C58.0982 60.9722 54.8255 63.2131 51.1752 64.6263C47.5249 66.0395 43.5965 66.5866 39.699 66.2245C35.8014 65.8623 32.041 64.6009 28.7136 62.5394C28.6894 62.5245 28.6685 62.5049 28.6521 62.4817C28.6356 62.4586 28.6239 62.4324 28.6177 62.4048C28.6115 62.3771 28.6108 62.3485 28.6157 62.3205C28.6207 62.2926 28.6312 62.2659 28.6466 62.2421L30.3507 59.6921C30.3723 59.659 30.384 59.6204 30.3846 59.5809C30.3851 59.5414 30.3745 59.5026 30.3539 59.4689C30.3333 59.4352 30.3037 59.4079 30.2683 59.3904C30.2329 59.3728 30.1932 59.3657 30.1539 59.3697L23.2241 60.2071C23.1694 60.2154 23.1198 60.2443 23.0856 60.2879C23.0514 60.3314 23.035 60.3864 23.0399 60.4416L23.8774 67.3756C23.8823 67.415 23.8984 67.4521 23.9237 67.4827C23.949 67.5133 23.9825 67.5361 24.0202 67.5483C24.058 67.5606 24.0984 67.562 24.1369 67.5521C24.1754 67.5423 24.2102 67.5217 24.2374 67.4928L26.1468 65.5207C26.1817 65.4844 26.2287 65.4622 26.2789 65.4584C26.3291 65.4545 26.3789 65.4692 26.419 65.4997C29.9252 68.1078 34.0004 69.8462 38.3095 70.5721C42.6186 71.298 47.0384 70.9906 51.2055 69.6751C55.3726 68.3597 59.1679 66.0738 62.2793 63.0055C65.3906 59.9372 67.7292 56.174 69.1025 52.0257C70.4759 47.8773 70.8449 43.4622 70.1791 39.1434C69.5133 34.8246 67.8318 30.7256 65.2728 27.1834C62.7139 23.6412 59.3507 20.7571 55.4597 18.7683C51.5687 16.7794 47.2612 15.7427 42.8914 15.7433L42.0414 15.7266Z" fill="white"/>
<path d="M52.7723 57.4978C62.3375 51.962 65.6039 39.7202 60.0681 30.1551C54.5323 20.59 42.2906 17.3236 32.7255 22.8594C23.1603 28.3952 19.8939 40.6369 25.4297 50.202C30.9655 59.7671 43.2072 63.0336 52.7723 57.4978Z" fill="url(#paint16_linear_1_14267)"/>
<path d="M43.8545 57.4981C54.1036 57.4981 62.4121 49.1896 62.4121 38.9405C62.4121 28.6914 54.1036 20.3828 43.8545 20.3828C33.6054 20.3828 25.2969 28.6914 25.2969 38.9405C25.2969 49.1896 33.6054 57.4981 43.8545 57.4981Z" fill="white"/>
<path d="M32.6691 68.568C38.46 69.6692 58.1356 71.8047 64.9817 51.8569C64.9817 51.8569 76.4295 29.1163 50.5233 17.1367C50.5233 17.1367 70.9987 21.4453 70.5799 44.5712C70.5799 44.5712 69.5541 66.5037 48.7437 70.3099C48.7437 70.3099 39.8334 72.2234 32.5477 68.97C32.4944 68.9539 32.4497 68.9172 32.4234 68.8682C32.397 68.8191 32.3913 68.7616 32.4074 68.7083C32.4235 68.655 32.4601 68.6102 32.5092 68.5839C32.5583 68.5576 32.6158 68.5519 32.6691 68.568Z" fill="url(#paint17_linear_1_14267)"/>
<path d="M15.7164 31.7877C15.7164 31.7877 19.9329 24.1252 24.9575 20.5116C24.9895 20.4888 25.0272 20.4754 25.0664 20.473C25.1056 20.4707 25.1447 20.4794 25.1792 20.4981C25.2137 20.5169 25.2423 20.545 25.2615 20.5793C25.2808 20.6135 25.2901 20.6524 25.2883 20.6917L25.1417 25.5195C25.1402 25.5577 25.1283 25.5947 25.1073 25.6266C25.0862 25.6585 25.0569 25.684 25.0224 25.7004C24.9879 25.7168 24.9495 25.7234 24.9115 25.7196C24.8735 25.7157 24.8373 25.7016 24.8067 25.6786L22.889 24.2215C22.8518 24.1894 22.8042 24.1717 22.755 24.1717C22.7058 24.1717 22.6583 24.1894 22.621 24.2215C19.8012 27.0682 17.7031 30.5481 16.502 34.3707C15.3009 38.1934 15.0315 42.2479 15.7164 46.1959C15.7164 46.1959 12.8565 40.6688 15.7164 31.7877Z" fill="url(#paint18_linear_1_14267)"/>
<path d="M42.5938 38.9435L50.7462 30.7869C50.9075 30.6281 51.1249 30.5391 51.3512 30.5391C51.5776 30.5391 51.795 30.6281 51.9563 30.7869C52.1151 30.9482 52.2041 31.1655 52.2041 31.3919C52.2041 31.6183 52.1151 31.8356 51.9563 31.997L43.9713 39.9903L42.5938 38.9435Z" fill="url(#paint19_linear_1_14267)"/>
<path d="M43.7184 41.2507L35.344 38.3196C35.1306 38.2429 34.956 38.0852 34.858 37.8806C34.7601 37.6761 34.7466 37.4412 34.8206 37.2268C34.8974 37.0134 35.0551 36.8388 35.2596 36.7409C35.4642 36.6429 35.699 36.6295 35.9134 36.7034L44.0701 39.58L43.7184 41.2507Z" fill="url(#paint20_linear_1_14267)"/>
<path d="M42.7552 42.272C43.923 42.272 44.8697 41.3253 44.8697 40.1575C44.8697 38.9897 43.923 38.043 42.7552 38.043C41.5873 38.043 40.6406 38.9897 40.6406 40.1575C40.6406 41.3253 41.5873 42.272 42.7552 42.272Z" fill="url(#paint21_linear_1_14267)"/>
<path d="M42.7574 60.5852C46.7982 60.5852 50.7481 59.3869 54.1078 57.142C57.4675 54.897 60.0859 51.7061 61.6321 47.9729C63.1782 44.2397 63.5825 40.1318 62.7939 36.1688C62.0053 32.2058 60.0592 28.5656 57.2016 25.7087C54.3441 22.8518 50.7036 20.9064 46.7404 20.1186C42.7772 19.3308 38.6695 19.736 34.9366 21.2829C31.2037 22.8297 28.0134 25.4489 25.7691 28.809C23.5248 32.1691 22.3273 36.1193 22.3281 40.1601C22.3348 45.5758 24.4894 50.7678 28.3193 54.5969C32.1492 58.4261 37.3417 60.5797 42.7574 60.5852ZM42.7574 20.5682C46.6324 20.5682 50.4202 21.7172 53.6421 23.87C56.864 26.0228 59.3751 29.0826 60.858 32.6626C62.3408 36.2425 62.7288 40.1818 61.9729 43.9823C61.2169 47.7827 59.351 51.2737 56.611 54.0136C53.871 56.7536 50.3801 58.6195 46.5796 59.3755C42.7792 60.1315 38.8399 59.7434 35.26 58.2606C31.68 56.7777 28.6202 54.2666 26.4674 51.0447C24.3146 47.8228 23.1656 44.035 23.1656 40.1601C23.1711 34.9657 25.237 29.9856 28.91 26.3126C32.583 22.6396 37.5631 20.5737 42.7574 20.5682Z" fill="url(#paint22_linear_1_14267)"/>
<path d="M42.7579 57.9064C46.2702 57.9064 49.7037 56.8648 52.6241 54.9134C55.5444 52.9619 57.8205 50.1883 59.1644 46.9432C60.5084 43.6981 60.8598 40.1274 60.1742 36.6826C59.4887 33.2378 57.797 30.0736 55.3131 27.5903C52.8292 25.107 49.6647 23.4161 46.2197 22.7313C42.7747 22.0466 39.2041 22.3989 35.9593 23.7436C32.7146 25.0883 29.9415 27.365 27.9907 30.2858C26.04 33.2066 24.9992 36.6403 25 40.1527C25.0055 44.8603 26.8784 49.3734 30.2075 52.7018C33.5367 56.0302 38.0503 57.902 42.7579 57.9064ZM42.7579 23.2323C46.1044 23.2323 49.3758 24.2246 52.1584 26.0839C54.9409 27.9431 57.1097 30.5857 58.3903 33.6775C59.671 36.7693 60.0061 40.1715 59.3532 43.4537C58.7003 46.736 57.0888 49.7509 54.7224 52.1173C52.3561 54.4836 49.3411 56.0951 46.0589 56.748C42.7766 57.4009 39.3745 57.0658 36.2827 55.7851C33.1909 54.5045 30.5483 52.3357 28.689 49.5532C26.8298 46.7706 25.8374 43.4992 25.8374 40.1527C25.8441 35.6679 27.6292 31.3689 30.8012 28.1984C33.9732 25.028 38.2731 23.2451 42.7579 23.2407V23.2323Z" fill="url(#paint23_linear_1_14267)"/>
<path d="M62.9728 23.6597C60.371 20.9991 57.2623 18.8872 53.8303 17.4488C50.3983 16.0104 46.7127 15.2747 42.9915 15.2853C42.7068 15.2853 42.4178 15.2853 42.1541 15.2853H42.1038C41.9928 15.2853 41.8862 15.3294 41.8077 15.4079C41.7292 15.4864 41.6851 15.5929 41.6851 15.704C41.6851 15.815 41.7292 15.9215 41.8077 16.0001C41.8862 16.0786 41.9928 16.1227 42.1038 16.1227H42.1541C45.45 16.1279 48.7121 16.7876 51.7511 18.0635C54.7901 19.3394 57.5455 21.2062 59.8573 23.5554C62.1692 25.9046 63.9915 28.6896 65.2184 31.7486C66.4454 34.8077 67.0527 38.08 67.005 41.3757C66.8166 54.5779 55.9257 65.5693 42.7193 65.8833C37.9559 66.0048 33.258 64.7532 29.1863 62.2781L30.7732 59.904C30.8398 59.804 30.8763 59.687 30.8784 59.5669C30.8804 59.4469 30.848 59.3287 30.785 59.2265C30.722 59.1242 30.631 59.0422 30.5228 58.9901C30.4146 58.938 30.2937 58.918 30.1745 58.9325L23.2489 59.77C23.0843 59.7913 22.9344 59.8753 22.8301 60.0045C22.7785 60.0693 22.7405 60.1439 22.7182 60.2237C22.6959 60.3035 22.6898 60.387 22.7003 60.4692L23.5378 67.3991C23.5514 67.5174 23.5983 67.6294 23.6731 67.722C23.748 67.8146 23.8476 67.8841 23.9604 67.9223C24.0732 67.9605 24.1945 67.9658 24.3102 67.9376C24.4259 67.9095 24.5312 67.8491 24.6139 67.7633L26.3935 65.921C31.1821 69.4677 36.9864 71.3765 42.9454 71.3643C43.3348 71.3643 43.7243 71.3643 44.1178 71.3643C49.5389 71.1435 54.7792 69.3538 59.2029 66.2125C63.6265 63.0713 67.0433 58.7135 69.0384 53.6681C71.0335 48.6227 71.5211 43.1067 70.4422 37.7896C69.3633 32.4724 66.7641 27.5828 62.9602 23.7141L62.9728 23.6597ZM44.1304 70.4725C37.9062 70.7494 31.7785 68.8597 26.7912 65.1254C26.6837 65.0451 26.5528 65.0024 26.4186 65.004C26.3344 65.0032 26.2509 65.0196 26.1732 65.0519C26.0955 65.0843 26.0251 65.1321 25.9664 65.1924L24.3627 66.8673L23.5964 60.5865L29.8772 59.8412L28.4242 62.0102C28.3782 62.0813 28.3467 62.1608 28.3316 62.2442C28.3165 62.3276 28.3181 62.4131 28.3363 62.4958C28.3516 62.5812 28.3845 62.6625 28.4327 62.7346C28.481 62.8066 28.5437 62.8679 28.6169 62.9145C33.9671 66.2243 40.3446 67.4589 46.5435 66.3848C52.7423 65.3107 58.3327 62.0024 62.2574 57.0855C66.1821 52.1686 68.1692 45.9841 67.8427 39.7013C67.5162 33.4186 64.8988 27.4733 60.4856 22.9897C59.3862 21.8748 58.1895 20.8602 56.9097 19.9582C58.9188 21.1603 60.7663 22.6138 62.4075 24.2835C66.0852 28.0396 68.5951 32.7812 69.6334 37.9344C70.6716 43.0876 70.1937 48.4312 68.2574 53.3184C66.3212 58.2055 63.0097 62.4265 58.7238 65.4703C54.438 68.5141 49.3617 70.2502 44.1095 70.4683L44.1304 70.4725Z" fill="url(#paint24_linear_1_14267)"/>
<path d="M20.5581 55.846C17.0674 51.2545 15.4093 45.5288 15.9061 39.7826C16.403 34.0363 19.0193 28.6803 23.2463 24.7561L24.5024 25.9285C24.5907 26.0105 24.7007 26.0654 24.8194 26.0866C24.938 26.1078 25.0602 26.0944 25.1714 26.048C25.2827 26.0017 25.3782 25.9243 25.4467 25.8252C25.5152 25.726 25.5537 25.6093 25.5576 25.4888L25.7084 20.5019C25.7106 20.4194 25.6965 20.3373 25.667 20.2602C25.6375 20.1832 25.5931 20.1127 25.5363 20.0528C25.4795 19.9929 25.4115 19.9448 25.3361 19.9112C25.2608 19.8776 25.1795 19.8592 25.097 19.8571L20.1017 19.7189C19.9814 19.7165 19.8628 19.7482 19.7598 19.8105C19.6568 19.8728 19.5735 19.9629 19.5197 20.0706C19.4659 20.1785 19.4448 20.2998 19.459 20.4195C19.4731 20.5393 19.5219 20.6523 19.5993 20.7447L20.8177 22.2396C16.6694 26.7594 14.2518 32.5998 13.9921 38.7292C13.7324 44.8586 15.6471 50.8826 19.3983 55.7371L19.8798 56.361C19.9175 56.414 19.967 56.4575 20.0244 56.488C20.0818 56.5185 20.1456 56.5352 20.2106 56.5369C20.3216 56.5369 20.4281 56.4928 20.5066 56.4142C20.5852 56.3357 20.6293 56.2292 20.6293 56.1181C20.626 56.028 20.5937 55.9414 20.5372 55.8711L20.5581 55.846ZM21.563 22.6667C21.6701 22.5552 21.7323 22.4081 21.7378 22.2536C21.7432 22.099 21.6914 21.948 21.5923 21.8292L20.5455 20.5438L24.8709 20.661L24.7411 24.978L23.6692 23.9898C23.5532 23.8885 23.4045 23.8327 23.2505 23.8327C23.0965 23.8327 22.9477 23.8885 22.8318 23.9898C20.2279 26.3573 18.1773 29.2691 16.8255 32.5183C15.4737 35.7676 14.8539 39.2746 15.0101 42.7903C14.5741 39.1613 14.9345 35.4809 16.0662 32.0054C17.1979 28.53 19.0738 25.3431 21.563 22.6667Z" fill="url(#paint25_linear_1_14267)"/>
<path d="M31.0605 40.5796C31.1716 40.5796 31.2781 40.5355 31.3566 40.457C31.4351 40.3785 31.4792 40.272 31.4792 40.1609C31.4792 40.0499 31.4351 39.9433 31.3566 39.8648C31.2781 39.7863 31.1716 39.7422 31.0605 39.7422H27.3172C27.2061 39.7422 27.0996 39.7863 27.0211 39.8648C26.9426 39.9433 26.8984 40.0499 26.8984 40.1609C26.8984 40.272 26.9426 40.3785 27.0211 40.457C27.0996 40.5355 27.2061 40.5796 27.3172 40.5796H31.0605Z" fill="url(#paint26_linear_1_14267)"/>
<path d="M35.2079 38.692L40.2325 40.4674C40.2803 40.9031 40.4412 41.3187 40.6992 41.6729C40.9572 42.0272 41.3035 42.3077 41.7035 42.4868C42.1035 42.6658 42.5434 42.7372 42.9795 42.6936C43.4156 42.6501 43.8327 42.4932 44.1894 42.2386L50.6084 49.428C50.6468 49.4729 50.6943 49.5092 50.7477 49.5344C50.8011 49.5597 50.8592 49.5734 50.9183 49.5746C50.9984 49.5737 51.0765 49.5498 51.1435 49.5058C51.2105 49.4618 51.2634 49.3995 51.296 49.3264C51.3286 49.2532 51.3396 49.1722 51.3275 49.093C51.3155 49.0138 51.281 48.9397 51.2281 48.8795L44.8133 41.6524C45.0509 41.3308 45.2083 40.957 45.2724 40.5623C45.3365 40.1676 45.3054 39.7632 45.1818 39.3829L52.2707 32.294C52.3889 32.1755 52.4827 32.0349 52.5466 31.8802C52.6104 31.7255 52.6432 31.5597 52.643 31.3923C52.6428 31.2249 52.6096 31.0592 52.5454 30.9046C52.4812 30.7501 52.3871 30.6097 52.2686 30.4914C52.1501 30.3732 52.0095 30.2795 51.8548 30.2156C51.7001 30.1517 51.5343 30.1189 51.3669 30.1191C51.1995 30.1193 51.0338 30.1525 50.8792 30.2168C50.7247 30.281 50.5843 30.375 50.466 30.4935L43.2808 37.6787C43.1128 37.6434 42.9417 37.6252 42.77 37.6243C42.2297 37.6249 41.7041 37.7997 41.271 38.1226L36.0663 36.2886C35.9085 36.2336 35.7414 36.2103 35.5746 36.2199C35.4077 36.2294 35.2444 36.2718 35.0939 36.3445C34.9434 36.4172 34.8087 36.5188 34.6976 36.6436C34.5864 36.7683 34.5008 36.9138 34.4458 37.0716C34.3909 37.2294 34.3675 37.3965 34.3771 37.5634C34.3867 37.7302 34.429 37.8935 34.5017 38.044C34.5744 38.1945 34.6761 38.3292 34.8009 38.4404C34.9256 38.5516 35.071 38.6371 35.2288 38.692H35.2079ZM51.0481 31.0839C51.1302 31.0023 51.2415 30.9566 51.3573 30.957C51.4731 30.9574 51.584 31.0038 51.6657 31.086C51.7473 31.1682 51.7929 31.2795 51.7925 31.3953C51.7921 31.5111 51.7458 31.622 51.6636 31.7037L44.7589 38.6083C44.578 38.3769 44.3584 38.1786 44.1099 38.0221L51.0481 31.0839ZM44.4532 40.1618C44.4524 40.4979 44.3517 40.8261 44.1639 41.1049C43.9761 41.3837 43.7097 41.6003 43.3985 41.7274C43.0874 41.8545 42.7455 41.8862 42.4163 41.8186C42.087 41.751 41.7853 41.587 41.5494 41.3476C41.3135 41.1082 41.1541 40.8041 41.0914 40.4739C41.0287 40.1436 41.0655 39.8022 41.1972 39.493C41.3289 39.1838 41.5495 38.9206 41.831 38.737C42.1125 38.5534 42.4423 38.4576 42.7784 38.4618C43.2252 38.4673 43.6518 38.649 43.9654 38.9673C44.2791 39.2856 44.4544 39.7149 44.4532 40.1618ZM35.2163 37.3438C35.2335 37.2885 35.262 37.2373 35.2999 37.1936C35.3379 37.1499 35.3845 37.1145 35.4369 37.0897C35.4892 37.0649 35.5461 37.0513 35.604 37.0496C35.6619 37.0479 35.7195 37.0583 35.7732 37.08L40.6303 38.7883C40.4694 39.037 40.3532 39.312 40.287 39.6007L35.4843 37.9007C35.4301 37.8825 35.3803 37.8534 35.3378 37.8153C35.2953 37.7771 35.2611 37.7306 35.2372 37.6787C35.1867 37.5741 35.1792 37.4539 35.2163 37.3438Z" fill="url(#paint27_linear_1_14267)"/>
<path d="M34.6415 26.7991L35.5711 28.4112C35.6067 28.4747 35.6583 28.5277 35.7207 28.5652C35.7831 28.6026 35.8542 28.6232 35.927 28.6247C36.038 28.6247 36.1445 28.5806 36.2231 28.5021C36.3016 28.4236 36.3457 28.3171 36.3457 28.206C36.3449 28.133 36.323 28.0618 36.2829 28.0009L35.3492 26.3888C35.3027 26.3105 35.232 26.2494 35.1478 26.2149C35.0635 26.1804 34.9703 26.1742 34.8823 26.1974C34.7942 26.2206 34.7162 26.2719 34.6599 26.3434C34.6036 26.415 34.5721 26.5029 34.5703 26.5939C34.5723 26.6681 34.594 26.7403 34.6331 26.8033L34.6415 26.7991Z" fill="url(#paint28_linear_1_14267)"/>
<path d="M31.0699 47.384C31.1463 47.3368 31.2055 47.2663 31.2388 47.1828C31.272 47.0994 31.2775 47.0074 31.2545 46.9206C31.2315 46.8338 31.1812 46.7567 31.111 46.7006C31.0408 46.6446 30.9545 46.6126 30.8647 46.6094C30.7924 46.6109 30.7218 46.6311 30.6596 46.668L29.1354 47.5473C29.072 47.583 29.0189 47.6345 28.9814 47.6969C28.944 47.7593 28.9235 47.8304 28.9219 47.9032C28.9219 48.0143 28.966 48.1208 29.0445 48.1993C29.123 48.2778 29.2295 48.3219 29.3406 48.3219C29.4129 48.3204 29.4836 48.3002 29.5458 48.2633L31.0699 47.384Z" fill="url(#paint29_linear_1_14267)"/>
<path d="M50.8748 53.519L49.9453 51.9069C49.9096 51.8435 49.8581 51.7904 49.7957 51.7529C49.7332 51.7155 49.6622 51.695 49.5894 51.6934C49.5171 51.6949 49.4464 51.7152 49.3842 51.7522C49.3221 51.7892 49.2706 51.8417 49.2347 51.9045C49.1989 51.9673 49.1799 52.0384 49.1797 52.1107C49.1795 52.183 49.198 52.2542 49.2335 52.3172L50.163 53.9293C50.1987 53.9928 50.2502 54.0458 50.3127 54.0833C50.3751 54.1207 50.4462 54.1413 50.5189 54.1429C50.63 54.1429 50.7365 54.0988 50.815 54.0202C50.8935 53.9417 50.9376 53.8352 50.9376 53.7241C50.9368 53.6511 50.915 53.5799 50.8748 53.519Z" fill="url(#paint30_linear_1_14267)"/>
<path d="M42.7625 28.8813C42.8735 28.8813 42.98 28.8372 43.0585 28.7586C43.1371 28.6801 43.1812 28.5736 43.1812 28.4626V24.7234C43.1812 24.6124 43.1371 24.5059 43.0585 24.4273C42.98 24.3488 42.8735 24.3047 42.7625 24.3047C42.6514 24.3047 42.5449 24.3488 42.4664 24.4273C42.3878 24.5059 42.3438 24.6124 42.3438 24.7234V28.4668C42.3449 28.5771 42.3894 28.6825 42.4679 28.7601C42.5463 28.8377 42.6521 28.8813 42.7625 28.8813Z" fill="url(#paint31_linear_1_14267)"/>
<path d="M29.1354 32.7827L30.6596 33.662C30.7213 33.7004 30.7921 33.7221 30.8647 33.7248C30.9558 33.723 31.0437 33.6916 31.1153 33.6353C31.1868 33.579 31.2381 33.5009 31.2613 33.4129C31.2845 33.3248 31.2784 33.2316 31.2438 33.1474C31.2093 33.0631 31.1482 32.9925 31.0699 32.946L29.5458 32.0667C29.485 32.0261 29.4137 32.0043 29.3406 32.0039C29.2295 32.0039 29.123 32.048 29.0445 32.1265C28.966 32.2051 28.9219 32.3116 28.9219 32.4226C28.9227 32.4961 28.9429 32.5681 28.9804 32.6313C29.0179 32.6945 29.0714 32.7467 29.1354 32.7827Z" fill="url(#paint32_linear_1_14267)"/>
<path d="M35.9378 51.6974C35.865 51.6989 35.794 51.7195 35.7315 51.7569C35.6691 51.7943 35.6176 51.8474 35.5819 51.9109L34.6523 53.523C34.6153 53.57 34.5887 53.6244 34.5745 53.6825C34.5603 53.7407 34.5587 53.8012 34.5698 53.86C34.5809 53.9188 34.6046 53.9745 34.6391 54.0235C34.6736 54.0724 34.7182 54.1133 34.7698 54.1435C34.8215 54.1737 34.8791 54.1925 34.9386 54.1986C34.9982 54.2047 35.0583 54.198 35.1151 54.1788C35.1718 54.1597 35.2237 54.1286 35.2674 54.0877C35.3111 54.0468 35.3455 53.997 35.3684 53.9417L36.3021 52.3296C36.3422 52.2687 36.3641 52.1974 36.3649 52.1244C36.366 52.068 36.3558 52.012 36.3347 51.9597C36.3137 51.9073 36.2822 51.8598 36.2423 51.8199C36.2025 51.78 36.1549 51.7486 36.1026 51.7275C36.0503 51.7064 35.9942 51.6962 35.9378 51.6974Z" fill="url(#paint33_linear_1_14267)"/>
<path d="M43.1812 51.8562C43.1812 51.7452 43.1371 51.6386 43.0585 51.5601C42.98 51.4816 42.8735 51.4375 42.7625 51.4375C42.6514 51.4375 42.5449 51.4816 42.4664 51.5601C42.3878 51.6386 42.3438 51.7452 42.3438 51.8562V55.5995C42.3438 55.7106 42.3878 55.8171 42.4664 55.8956C42.5449 55.9742 42.6514 56.0183 42.7625 56.0183C42.8735 56.0183 42.98 55.9742 43.0585 55.8956C43.1371 55.8171 43.1812 55.7106 43.1812 55.5995V51.8562Z" fill="url(#paint34_linear_1_14267)"/>
<path d="M56.3831 47.5434L54.8589 46.6641C54.7967 46.6272 54.7261 46.607 54.6538 46.6055C54.564 46.6087 54.4777 46.6407 54.4075 46.6967C54.3373 46.7528 54.287 46.8299 54.264 46.9167C54.241 47.0035 54.2465 47.0955 54.2797 47.1789C54.313 47.2623 54.3722 47.3329 54.4486 47.3801L55.9727 48.2594C56.0349 48.2963 56.1056 48.3165 56.1779 48.318C56.2889 48.318 56.3954 48.2739 56.474 48.1954C56.5525 48.1169 56.5966 48.0103 56.5966 47.8993C56.595 47.8265 56.5745 47.7555 56.537 47.6931C56.4996 47.6306 56.4465 47.579 56.3831 47.5434Z" fill="url(#paint35_linear_1_14267)"/>
<path d="M54.4422 40.5796H58.2106C58.3217 40.5796 58.4282 40.5355 58.5067 40.457C58.5852 40.3785 58.6293 40.272 58.6293 40.1609C58.6293 40.0499 58.5852 39.9433 58.5067 39.8648C58.4282 39.7863 58.3217 39.7422 58.2106 39.7422H54.4422C54.3311 39.7422 54.2246 39.7863 54.1461 39.8648C54.0676 39.9433 54.0234 40.0499 54.0234 40.1609C54.0234 40.272 54.0676 40.3785 54.1461 40.457C54.2246 40.5355 54.3311 40.5796 54.4422 40.5796Z" fill="url(#paint36_linear_1_14267)"/>
<path d="M54.6525 33.7167C54.7252 33.714 54.7959 33.6923 54.8577 33.6539L56.3819 32.7746C56.4453 32.739 56.4984 32.6874 56.5358 32.625C56.5733 32.5626 56.5938 32.4915 56.5954 32.4187C56.5954 32.3077 56.5513 32.2011 56.4728 32.1226C56.3942 32.0441 56.2877 32 56.1767 32C56.1038 32.0015 56.0328 32.0233 55.9715 32.0628L54.4474 32.9421C54.3691 32.9885 54.308 33.0593 54.2735 33.1435C54.2389 33.2277 54.2328 33.3209 54.256 33.409C54.2792 33.497 54.3305 33.5751 54.402 33.6314C54.4736 33.6877 54.5615 33.7191 54.6525 33.7209V33.7167Z" fill="url(#paint37_linear_1_14267)"/>
<path d="M49.5815 28.6217C49.6543 28.6201 49.7254 28.5995 49.7878 28.5621C49.8502 28.5246 49.9018 28.4716 49.9374 28.4081L50.867 26.796C50.9061 26.7331 50.9278 26.6608 50.9298 26.5867C50.9298 26.4756 50.8857 26.3691 50.8072 26.2906C50.7287 26.2121 50.6221 26.168 50.5111 26.168C50.4383 26.1696 50.3672 26.1901 50.3048 26.2275C50.2424 26.265 50.1908 26.3181 50.1552 26.3815L49.2256 27.9936C49.1902 28.0566 49.1717 28.1278 49.1719 28.2001C49.1721 28.2725 49.1911 28.3435 49.2269 28.4063C49.2627 28.4692 49.3143 28.5216 49.3764 28.5586C49.4386 28.5956 49.5092 28.6159 49.5815 28.6175V28.6217Z" fill="url(#paint38_linear_1_14267)"/>
</g>
<defs>
<linearGradient id="paint0_linear_1_14267" x1="25.071" y1="63.589" x2="67.0224" y2="21.6375" gradientUnits="userSpaceOnUse">
<stop stop-color="#EFDF5E"/>
<stop offset="1" stop-color="#E4AF46"/>
</linearGradient>
<linearGradient id="paint1_linear_1_14267" x1="0.367913" y1="49.8433" x2="2.1391" y2="48.0722" gradientUnits="userSpaceOnUse">
<stop stop-color="#753126"/>
<stop offset="1" stop-color="#A32F00"/>
</linearGradient>
<linearGradient id="paint2_linear_1_14267" x1="1963.78" y1="2412.24" x2="1974.43" y2="2401.62" gradientUnits="userSpaceOnUse">
<stop stop-color="#753126"/>
<stop offset="1" stop-color="#A32F00"/>
</linearGradient>
<linearGradient id="paint3_linear_1_14267" x1="2187.48" y1="2909.55" x2="2198.11" y2="2898.92" gradientUnits="userSpaceOnUse">
<stop stop-color="#753126"/>
<stop offset="1" stop-color="#A32F00"/>
</linearGradient>
<linearGradient id="paint4_linear_1_14267" x1="875.533" y1="836.375" x2="877.036" y2="834.073" gradientUnits="userSpaceOnUse">
<stop stop-color="#753126"/>
<stop offset="1" stop-color="#A32F00"/>
</linearGradient>
<linearGradient id="paint5_linear_1_14267" x1="575.732" y1="1244.79" x2="577.951" y2="1243.3" gradientUnits="userSpaceOnUse">
<stop stop-color="#753126"/>
<stop offset="1" stop-color="#A32F00"/>
</linearGradient>
<linearGradient id="paint6_linear_1_14267" x1="882.994" y1="836.359" x2="884.455" y2="834.108" gradientUnits="userSpaceOnUse">
<stop stop-color="#753126"/>
<stop offset="1" stop-color="#A32F00"/>
</linearGradient>
<linearGradient id="paint7_linear_1_14267" x1="575.732" y1="1251.87" x2="577.946" y2="1250.39" gradientUnits="userSpaceOnUse">
<stop stop-color="#753126"/>
<stop offset="1" stop-color="#A32F00"/>
</linearGradient>
<linearGradient id="paint8_linear_1_14267" x1="1132.57" y1="880.248" x2="1134.07" y2="877.951" gradientUnits="userSpaceOnUse">
<stop stop-color="#753126"/>
<stop offset="1" stop-color="#A32F00"/>
</linearGradient>
<linearGradient id="paint9_linear_1_14267" x1="764.732" y1="1337.32" x2="766.989" y2="1335.86" gradientUnits="userSpaceOnUse">
<stop stop-color="#753126"/>
<stop offset="1" stop-color="#A32F00"/>
</linearGradient>
<linearGradient id="paint10_linear_1_14267" x1="1112.48" y1="880.231" x2="1113.96" y2="878.012" gradientUnits="userSpaceOnUse">
<stop stop-color="#753126"/>
<stop offset="1" stop-color="#A32F00"/>
</linearGradient>
<linearGradient id="paint11_linear_1_14267" x1="764.732" y1="1310.39" x2="766.959" y2="1308.91" gradientUnits="userSpaceOnUse">
<stop stop-color="#753126"/>
<stop offset="1" stop-color="#A32F00"/>
</linearGradient>
<linearGradient id="paint12_linear_1_14267" x1="952.98" y1="1051.01" x2="954.472" y2="1048.71" gradientUnits="userSpaceOnUse">
<stop stop-color="#753126"/>
<stop offset="1" stop-color="#A32F00"/>
</linearGradient>
<linearGradient id="paint13_linear_1_14267" x1="632.695" y1="1530.92" x2="634.91" y2="1529.45" gradientUnits="userSpaceOnUse">
<stop stop-color="#753126"/>
<stop offset="1" stop-color="#A32F00"/>
</linearGradient>
<linearGradient id="paint14_linear_1_14267" x1="936.389" y1="1050.99" x2="937.865" y2="1048.78" gradientUnits="userSpaceOnUse">
<stop stop-color="#753126"/>
<stop offset="1" stop-color="#A32F00"/>
</linearGradient>
<linearGradient id="paint15_linear_1_14267" x1="633.075" y1="1562.27" x2="635.313" y2="1560.8" gradientUnits="userSpaceOnUse">
<stop stop-color="#753126"/>
<stop offset="1" stop-color="#A32F00"/>
</linearGradient>
<linearGradient id="paint16_linear_1_14267" x1="22.7554" y1="40.1688" x2="62.7724" y2="40.1688" gradientUnits="userSpaceOnUse">
<stop stop-color="#D8571E"/>
<stop offset="1" stop-color="#D8801E"/>
</linearGradient>
<linearGradient id="paint17_linear_1_14267" x1="27429.9" y1="56908.2" x2="30910.7" y2="56908.2" gradientUnits="userSpaceOnUse">
<stop stop-color="#D8571E"/>
<stop offset="1" stop-color="#D8801E"/>
</linearGradient>
<linearGradient id="paint18_linear_1_14267" x1="7327.96" y1="26601.1" x2="7608.69" y2="26601.1" gradientUnits="userSpaceOnUse">
<stop stop-color="#D8571E"/>
<stop offset="1" stop-color="#D8801E"/>
</linearGradient>
<linearGradient id="paint19_linear_1_14267" x1="7170.69" y1="9840.27" x2="7391.24" y2="9840.27" gradientUnits="userSpaceOnUse">
<stop stop-color="#D8571E"/>
<stop offset="1" stop-color="#D8801E"/>
</linearGradient>
<linearGradient id="paint20_linear_1_14267" x1="6756.52" y1="4845.69" x2="6962.9" y2="4845.69" gradientUnits="userSpaceOnUse">
<stop stop-color="#D8571E"/>
<stop offset="1" stop-color="#D8801E"/>
</linearGradient>
<linearGradient id="paint21_linear_1_14267" x1="451.113" y1="438.705" x2="493.827" y2="438.705" gradientUnits="userSpaceOnUse">
<stop stop-color="#D8571E"/>
<stop offset="1" stop-color="#D8801E"/>
</linearGradient>
<linearGradient id="paint22_linear_1_14267" x1="28934.3" y1="44314.6" x2="31751.9" y2="41496.6" gradientUnits="userSpaceOnUse">
<stop stop-color="#753126"/>
<stop offset="1" stop-color="#A32F00"/>
</linearGradient>
<linearGradient id="paint23_linear_1_14267" x1="25316.5" y1="38364.9" x2="27445.7" y2="36235.7" gradientUnits="userSpaceOnUse">
<stop stop-color="#753126"/>
<stop offset="1" stop-color="#A32F00"/>
</linearGradient>
<linearGradient id="paint24_linear_1_14267" x1="33680.8" y1="62577.3" x2="39199.2" y2="57823.8" gradientUnits="userSpaceOnUse">
<stop stop-color="#753126"/>
<stop offset="1" stop-color="#A32F00"/>
</linearGradient>
<linearGradient id="paint25_linear_1_14267" x1="7832.23" y1="39296.5" x2="8900.21" y2="38956" gradientUnits="userSpaceOnUse">
<stop stop-color="#753126"/>
<stop offset="1" stop-color="#A32F00"/>
</linearGradient>
<linearGradient id="paint26_linear_1_14267" x1="3264.37" y1="921.191" x2="3266.11" y2="911.66" gradientUnits="userSpaceOnUse">
<stop stop-color="#753126"/>
<stop offset="1" stop-color="#A32F00"/>
</linearGradient>
<linearGradient id="paint27_linear_1_14267" x1="13521.5" y1="20667.8" x2="14111" y2="20114.3" gradientUnits="userSpaceOnUse">
<stop stop-color="#753126"/>
<stop offset="1" stop-color="#A32F00"/>
</linearGradient>
<linearGradient id="paint28_linear_1_14267" x1="1319.21" y1="2516.75" x2="1324.34" y2="2513.01" gradientUnits="userSpaceOnUse">
<stop stop-color="#753126"/>
<stop offset="1" stop-color="#A32F00"/>
</linearGradient>
<linearGradient id="paint29_linear_1_14267" x1="1694.36" y1="1877.67" x2="1701.34" y2="1868.09" gradientUnits="userSpaceOnUse">
<stop stop-color="#753126"/>
<stop offset="1" stop-color="#A32F00"/>
</linearGradient>
<linearGradient id="paint30_linear_1_14267" x1="1382.4" y1="2700.09" x2="1387.53" y2="2696.4" gradientUnits="userSpaceOnUse">
<stop stop-color="#753126"/>
<stop offset="1" stop-color="#A32F00"/>
</linearGradient>
<linearGradient id="paint31_linear_1_14267" x1="661.329" y1="4693.12" x2="670.859" y2="4691.38" gradientUnits="userSpaceOnUse">
<stop stop-color="#753126"/>
<stop offset="1" stop-color="#A32F00"/>
</linearGradient>
<linearGradient id="paint32_linear_1_14267" x1="1701.56" y1="1810.17" x2="1705.09" y2="1805.31" gradientUnits="userSpaceOnUse">
<stop stop-color="#753126"/>
<stop offset="1" stop-color="#A32F00"/>
</linearGradient>
<linearGradient id="paint33_linear_1_14267" x1="1336.79" y1="2761.32" x2="1347.36" y2="2753.72" gradientUnits="userSpaceOnUse">
<stop stop-color="#753126"/>
<stop offset="1" stop-color="#A32F00"/>
</linearGradient>
<linearGradient id="paint34_linear_1_14267" x1="661.329" y1="5021.37" x2="670.859" y2="5019.63" gradientUnits="userSpaceOnUse">
<stop stop-color="#753126"/>
<stop offset="1" stop-color="#A32F00"/>
</linearGradient>
<linearGradient id="paint35_linear_1_14267" x1="1864.05" y1="1875.85" x2="1867.57" y2="1871" gradientUnits="userSpaceOnUse">
<stop stop-color="#753126"/>
<stop offset="1" stop-color="#A32F00"/>
</linearGradient>
<linearGradient id="paint36_linear_1_14267" x1="3607.71" y1="921.191" x2="3609.44" y2="911.641" gradientUnits="userSpaceOnUse">
<stop stop-color="#753126"/>
<stop offset="1" stop-color="#A32F00"/>
</linearGradient>
<linearGradient id="paint37_linear_1_14267" x1="1866.65" y1="1811.99" x2="1873.67" y2="1802.39" gradientUnits="userSpaceOnUse">
<stop stop-color="#753126"/>
<stop offset="1" stop-color="#A32F00"/>
</linearGradient>
<linearGradient id="paint38_linear_1_14267" x1="1380.4" y1="2532.27" x2="1390.74" y2="2524.86" gradientUnits="userSpaceOnUse">
<stop stop-color="#753126"/>
<stop offset="1" stop-color="#A32F00"/>
</linearGradient>
<clipPath id="clip0_1_14267">
<rect width="85" height="85" fill="white" transform="translate(0 0.488281)"/>
</clipPath>
</defs>
</svg>
