<svg width="12" height="14" viewBox="0 0 12 14" fill="none" xmlns="http://www.w3.org/2000/svg">
<path d="M5 3.68689L1.95372 6.67157C1.50678 7.10948 0.782145 7.10948 0.335205 6.67157C-0.111735 6.23367 -0.111735 5.52369 0.335205 5.08579L5.19074 0.328427C5.41339 0.110282 5.70495 0.000808195 5.99677 5.12161e-06L6 0L6.00323 5.12114e-06C6.29505 0.000808283 6.58661 0.110282 6.80926 0.328427L11.6648 5.08579C12.1117 5.52369 12.1117 6.23367 11.6648 6.67157C11.2179 7.10947 10.4932 7.10948 10.0463 6.67157L7 3.68689V13C7 13.5523 6.55228 14 6 14C5.44772 14 5 13.5523 5 13V3.68689Z" fill="white"/>
</svg>
