<svg width="60" height="27" viewBox="0 0 60 27" fill="none" xmlns="http://www.w3.org/2000/svg">
<path d="M23.0417 12.5506V14.3568H19.4035V16.7596H22.8143V18.5657H19.4035V23.3069H17.2921V12.5506H23.0417Z" fill="#454851"/>
<path d="M29.0936 17.2272V16.3242H31.075V23.3069H29.0936V22.4038C28.563 23.1563 27.843 23.5326 26.9334 23.5326C25.8723 23.5326 25.0061 23.1725 24.3348 22.4522C23.6743 21.7319 23.344 20.8503 23.344 19.8075C23.344 18.7539 23.6689 17.8723 24.3185 17.1627C24.9682 16.4532 25.8073 16.0984 26.836 16.0984C27.8538 16.0984 28.6063 16.4747 29.0936 17.2272ZM28.7362 18.4045C28.3681 18.0282 27.9025 17.84 27.3395 17.84C26.7764 17.84 26.3108 18.0282 25.9427 18.4045C25.5745 18.7807 25.3905 19.2484 25.3905 19.8075C25.3905 20.3665 25.5745 20.8395 25.9427 21.2266C26.3108 21.6028 26.7764 21.791 27.3395 21.791C27.9025 21.791 28.3681 21.6028 28.7362 21.2266C29.1044 20.8395 29.2885 20.3665 29.2885 19.8075C29.2885 19.2484 29.1044 18.7807 28.7362 18.4045Z" fill="#454851"/>
<path d="M32.6393 23.3069V16.3242H34.6208V17.1144C35.1622 16.4371 35.8606 16.0984 36.716 16.0984C37.7663 16.0984 38.508 16.5231 38.9411 17.3724C39.4716 16.5231 40.2242 16.0984 41.1986 16.0984C42.0216 16.0984 42.655 16.3833 43.0989 16.9531C43.3046 17.2219 43.4346 17.5014 43.4887 17.7917C43.5537 18.0819 43.5862 18.4582 43.5862 18.9205V23.3069H41.6047V19.5011C41.6047 18.8452 41.4964 18.3883 41.2799 18.1303C41.085 17.8938 40.8143 17.7755 40.4678 17.7755C39.9697 17.7755 39.607 17.9798 39.3796 18.3883C39.1955 18.6894 39.1035 19.1409 39.1035 19.7429V23.3069H37.122V19.5011C37.122 18.8452 37.0137 18.3883 36.7972 18.1303C36.6023 17.8938 36.3316 17.7755 35.9851 17.7755C35.487 17.7755 35.1243 17.9798 34.8969 18.3883C34.7128 18.6894 34.6208 19.1409 34.6208 19.7429V23.3069H32.6393Z" fill="#454851"/>
<path d="M45.146 16.3242H47.1275V23.3069H45.146V16.3242ZM45.2922 14.2116C45.0648 13.9751 44.9511 13.6956 44.9511 13.3731C44.9511 13.0505 45.0648 12.7764 45.2922 12.5506C45.5304 12.3141 45.8119 12.1958 46.1367 12.1958C46.4616 12.1958 46.7377 12.3141 46.9651 12.5506C47.2033 12.7764 47.3224 13.0505 47.3224 13.3731C47.3224 13.6956 47.2033 13.9751 46.9651 14.2116C46.7377 14.4374 46.4616 14.5503 46.1367 14.5503C45.8119 14.5503 45.5304 14.4374 45.2922 14.2116Z" fill="#454851"/>
<path d="M48.6912 11.5508H50.6727V23.3069H48.6912V11.5508Z" fill="#454851"/>
<path d="M52.0903 26.9998L54.6727 22.2587L51.327 16.3242H53.6333L55.8096 20.2912L57.7586 16.3242H60L54.3317 26.9998H52.0903Z" fill="#454851"/>
<path opacity="0.2" d="M0.459595 25.8627C4.18598 24.1588 5.17886 21.0349 5.2095 19.686L5.45387 14.6514C3.00309 16.3086 1.99182 18.4385 1.50151 19.8381L0.459595 25.8627Z" fill="#454851"/>
<path opacity="0.5" d="M11.4611 12.6273C14.0352 11.9945 15.9454 8.57042 16.5788 6.9375C13.6573 7.19106 7.15248 8.19109 4.50478 10.1628C1.85709 12.1344 1.37904 17.4957 1.47097 19.9298C2.84385 15.7431 6.27196 13.9256 7.8144 13.5402C7.95741 13.4996 8.88696 13.2602 11.4611 12.6273Z" fill="#454851"/>
<path d="M0 11.2884C0 13.041 0.245157 22.1407 0.367735 26.4715C0.582247 25.1936 1.18288 21.6458 1.86932 17.6781C2.55576 13.7104 3.43219 10.8016 7.59986 9.52365C9.57132 8.96582 14.3049 7.61892 17.4674 6.69394C20.6299 5.76896 22.5033 1.8459 23.0447 0C18.2744 1.37936 7.91243 4.38149 4.62733 5.35515C0.520958 6.57223 0 9.09767 0 11.2884Z" fill="#454851"/>
</svg>
