<svg width="13" height="21" viewBox="0 0 13 21" fill="none" xmlns="http://www.w3.org/2000/svg">
<path fill-rule="evenodd" clip-rule="evenodd" d="M6.98392 10.3431C4.04767 10.3431 1.60905 7.99718 1.60905 5.2204C1.60905 2.34785 4.04767 0.00195312 6.98392 0.00195312C10.0197 0.00195312 12.3588 2.34785 12.3588 5.2204C12.3588 7.99718 10.0197 10.3431 6.98392 10.3431ZM6.98392 3.01812C5.73973 3.01812 4.79416 4.02351 4.79416 5.2204C4.79416 6.41729 5.73973 7.3269 6.98392 7.3269C8.27788 7.3269 9.17367 6.41729 9.17367 5.2204C9.17367 4.02351 8.27788 3.01812 6.98392 3.01812ZM9.12392 14.604L12.1597 17.4287C12.7569 18.051 12.7569 18.9607 12.1597 19.5352C11.5127 20.1575 10.5174 20.1575 10.0197 19.5352L6.98392 16.6627L4.04767 19.5352C3.74905 19.8224 3.3509 19.966 2.90302 19.966C2.55465 19.966 2.1565 19.8224 1.80813 19.5352C1.21093 18.9607 1.21093 18.051 1.80813 17.4287L4.8937 14.604C3.74905 14.2689 2.70395 13.838 1.70859 13.2635C0.962099 12.8805 0.812777 11.923 1.21093 11.2048C1.70859 10.4867 2.60441 10.2952 3.40068 10.774C5.59044 12.0666 8.37742 12.0666 10.5672 10.774C11.3635 10.2952 12.309 10.4867 12.7569 11.2048C13.2048 11.923 13.0058 12.8805 12.309 13.2635C11.3635 13.838 10.2686 14.2689 9.12392 14.604Z" fill="#789384"/>
</svg>
