<svg width="21" height="12" viewBox="0 0 21 12" fill="none" xmlns="http://www.w3.org/2000/svg">
<path fill-rule="evenodd" clip-rule="evenodd" d="M3.93484 0.0632187H1.74641C1.12115 0.0632187 0.996094 0.363346 0.996094 0.688483C0.996094 1.26373 1.74641 4.13994 4.44755 7.94155C6.26082 10.5301 8.8119 11.9432 11.1254 11.9432C12.5135 11.9432 12.6885 11.6306 12.6885 11.0929V9.12955C12.6885 8.50429 12.8136 8.37924 13.2638 8.37924C13.5889 8.37924 14.1392 8.5418 15.4397 9.79233C16.9278 11.2805 17.1654 11.9432 18.0033 11.9432H20.1917C20.817 11.9432 21.1296 11.6306 20.942 11.0179C20.7545 10.3926 20.0416 9.51722 19.1038 8.45427C18.6035 7.84151 17.8282 7.20374 17.6031 6.8786C17.278 6.45342 17.353 6.26584 17.6031 5.90319C17.6031 5.90319 20.2667 2.1516 20.5419 0.863558C20.6794 0.400862 20.5419 0.0632187 19.8791 0.0632187H17.6907C17.486 0.0509802 17.2829 0.105256 17.1116 0.217944C16.9403 0.330632 16.81 0.495691 16.7403 0.688483C16.7403 0.688483 15.6148 3.38963 14.0516 5.15287C13.5389 5.66559 13.3013 5.82816 13.0262 5.82816C12.9011 5.82816 12.6885 5.66559 12.6885 5.20289V0.863558C12.6885 0.313325 12.526 0.0632187 12.0633 0.0632187H8.62432C8.27417 0.0632187 8.06158 0.313325 8.06158 0.56343C8.06158 1.08865 8.86192 1.21371 8.93695 2.68933V5.91569C8.93695 6.6285 8.8119 6.75355 8.53678 6.75355C7.78647 6.75355 5.9857 4.0274 4.91025 0.913579C4.71016 0.313325 4.49757 0.0632187 3.93484 0.0632187Z" fill="#789384"/>
</svg>
