<svg width="21" height="15" viewBox="0 0 21 15" fill="none" xmlns="http://www.w3.org/2000/svg">
<path d="M20.584 2.19117C20.3536 1.33435 19.678 0.658937 18.8213 0.428224C17.2563 0 10.9959 0 10.9959 0C10.9959 0 4.73572 0 3.17066 0.411988C2.33045 0.642457 1.63843 1.33448 1.40796 2.19117C0.996094 3.75611 0.996094 7.0016 0.996094 7.0016C0.996094 7.0016 0.996094 10.2634 1.40796 11.812C1.63867 12.6687 2.31397 13.3441 3.17078 13.5749C4.7522 14.0032 10.9961 14.0032 10.9961 14.0032C10.9961 14.0032 17.2563 14.0032 18.8213 13.5912C19.6781 13.3606 20.3536 12.6852 20.5843 11.8285C20.996 10.2634 20.996 7.01808 20.996 7.01808C20.996 7.01808 21.0125 3.75611 20.584 2.19117ZM9.0027 9.9999V4.0033L14.2085 7.0016L9.0027 9.9999Z" fill="#789384"/>
</svg>
