<svg width="84" height="42" viewBox="0 0 84 42" fill="none" xmlns="http://www.w3.org/2000/svg">
<path opacity="0.3" d="M2.27708 30.1103C2.71681 28.6002 4.96431 24.3353 8.13916 22.2422L7.74018 30.3651C7.71075 30.6686 7.66779 30.9697 7.61211 31.2648C6.73071 35.9616 3.26817 38.8061 0.743286 40.3172C0.957893 37.86 1.67449 33.8275 2.27708 30.1103Z" fill="white"/>
<g opacity="0.6">
<path d="M3.225 24.5301C3.22481 24.5311 3.22481 24.5321 3.22481 24.5331L3.22561 24.5282C3.26862 24.2877 3.31163 24.0505 3.35623 23.8174C4.26499 19.0253 6.77305 15.9454 11.4738 14.5785L25.0562 10.626C23.9794 13.4475 21.7063 17.1848 18.2212 18.858C17.9625 18.9813 17.6973 19.0949 17.4257 19.1947L10.9231 20.8855C9.93009 21.1678 8.97662 21.6538 8.08118 22.2874C5.53522 24.0897 3.46037 27.0924 2.29211 30.0613C2.56779 28.3329 2.87845 26.469 3.22402 24.5331L3.225 24.5301Z" fill="white"/>
<path d="M3.225 24.5301C3.22512 24.5295 3.22531 24.5289 3.22561 24.5282L3.225 24.5301Z" fill="white"/>
</g>
<path d="M3.22499 24.5332C3.22499 24.5315 3.22499 24.5299 3.22579 24.5283L3.22499 24.5332ZM3.35641 23.8174C4.26517 19.0253 6.77322 15.9454 11.4739 14.5785L26.1901 10.2961C26.4609 10.1946 26.7254 10.0801 26.9834 9.9533C31.0661 7.9532 33.427 3.04989 34.1948 0.172852L5.95765 8.57572C4.45154 9.17616 0.117998 10.4785 0.00012207 17.0211L0.743485 40.3172C0.985609 39.1303 1.81446 32.4305 3.22419 24.5332L3.22579 24.5283C3.2688 24.2877 3.3118 24.0505 3.35641 23.8174Z" fill="white"/>
<path d="M81.0265 36.1508C79.5398 40.3168 76.5664 41.8317 74.3363 41.8317C74.3363 41.4819 74.3363 40.5113 74.3363 39.9381C74.3363 38.6421 75.659 38.5245 76.4361 38.0445C77.2131 37.5644 77.3097 36.9083 77.3097 36.9083C77.3097 36.9083 75.4775 31.3357 74.3859 28.1977C74.3859 28.1977 73.5929 25.9254 75.0796 25.9254C75.4513 25.9254 76.5664 25.9254 76.5664 25.9254L79.1681 33.4998L81.0265 25.9254H84C84 25.9254 82.5133 31.9849 81.0265 36.1508ZM69.8761 20.6233C69.8761 20.6233 69.8761 19.1084 71.3628 19.1084C71.7345 19.1084 72.8496 19.1084 72.8496 19.1084C72.8496 19.1084 72.8496 33.4998 72.8496 35.0147C72.8496 36.5296 71.3628 36.5296 71.3628 36.5296H69.8761V20.6233ZM66.1593 23.6531H64.6726V22.1382C64.6726 22.1382 64.6726 20.6233 66.1593 20.6233C66.531 20.6233 67.646 20.6233 67.646 20.6233C67.646 20.6233 67.646 21.3807 67.646 22.1382C67.646 23.6531 66.1593 23.6531 66.1593 23.6531ZM59.469 29.7126C59.469 28.9551 59.0973 28.1977 57.9823 28.1977C56.8673 28.1977 56.4956 28.9551 56.4956 29.7126C56.4956 29.7126 56.4956 33.4998 56.4956 35.0147C56.4956 36.5296 55.0088 36.5296 55.0088 36.5296H53.5866L53.5221 29.7126C53.5221 28.9551 53.1504 28.1977 52.0354 28.1977C50.9204 28.1977 50.5487 28.9551 50.5487 29.7126C50.5487 29.7126 50.5487 33.4998 50.5487 35.0147C50.5487 36.5296 49.0619 36.5296 49.0619 36.5296H47.5778V27.4403C47.5778 27.4403 47.5778 25.9254 49.0619 25.9254C49.4336 25.9254 50.5487 25.9254 50.5487 25.9254V26.7C50.9204 26.3041 51.4256 25.9254 52.0354 25.9254C54.3728 25.9254 55.0088 26.6828 55.0088 27.4403C55.0088 26.7 56.4956 25.9254 57.9823 25.9254C60.2124 25.9254 62.4425 26.3041 62.4425 29.7126C62.4425 29.7126 62.4425 33.4998 62.4425 35.0147C62.4425 36.5296 60.9557 36.5296 60.9557 36.5296H59.469V29.7126ZM42.3717 35.3934C41.6283 36.1508 40.9368 36.5296 39.3982 36.5296C36.7965 36.5296 34.9381 34.2892 34.9381 31.2532C34.9381 28.2164 36.7965 25.9254 39.3982 25.9254C40.885 25.9254 41.6283 26.3041 42.3717 27.0615V25.9254H45.3451C45.3451 25.9254 45.3451 33.4998 45.3451 35.0147C45.3451 36.5296 43.8584 36.5296 43.8584 36.5296H42.3717V35.3934ZM40.1416 28.9551C39.0265 28.9551 37.9115 29.7126 37.9115 31.2275C37.9115 32.7424 39.0265 33.4998 40.1416 33.4998C41.2566 33.4998 42.3717 32.7424 42.3717 31.2275C42.3717 29.7126 41.2566 28.9551 40.1416 28.9551ZM28.9912 26.7H33.4513C33.4513 26.7 33.4513 26.6828 33.4513 28.1977C33.4513 29.7126 31.9646 29.7126 31.9646 29.7126H28.9912C28.9912 29.7126 28.9912 33.4998 28.9912 35.0147C28.9912 36.5296 27.5044 36.5296 27.5044 36.5296H26.0177L26.0177 22.1382C26.0177 22.1382 26.0177 20.6233 27.5044 20.6233C28.9912 20.6233 34.9381 20.6233 34.9381 20.6233C34.9381 20.6233 34.9381 20.6233 34.9381 22.1382C34.9381 23.6531 33.4513 23.6531 33.4513 23.6531H28.9912V26.7ZM66.1593 36.5296H64.671L64.6726 25.9254H67.646C67.646 25.9254 67.646 33.4998 67.646 35.0147C67.646 36.5296 66.1593 36.5296 66.1593 36.5296Z" fill="white"/>
</svg>
