<svg width="12" height="8" viewBox="0 0 12 8" fill="none" xmlns="http://www.w3.org/2000/svg">
<path d="M0.646446 3.87106C0.451184 4.06632 0.451184 4.3829 0.646446 4.57816L3.82843 7.76014C4.02369 7.95541 4.34027 7.95541 4.53553 7.76014C4.7308 7.56488 4.7308 7.2483 4.53553 7.05304L1.70711 4.22461L4.53553 1.39618C4.7308 1.20092 4.7308 0.884338 4.53553 0.689075C4.34027 0.493813 4.02369 0.493813 3.82843 0.689075L0.646446 3.87106ZM11 4.72461C11.2761 4.72461 11.5 4.50075 11.5 4.22461C11.5 3.94847 11.2761 3.72461 11 3.72461V4.72461ZM1 4.72461L11 4.72461V3.72461L1 3.72461V4.72461Z" fill="#474747"/>
</svg>
