<svg width="21" height="16" viewBox="0 0 21 16" fill="none" xmlns="http://www.w3.org/2000/svg">
<path d="M5.50483 15.2393C5.79772 15.5322 6.27259 15.5322 6.56549 15.2393L11.3385 10.4663C11.6314 10.1735 11.6314 9.69858 11.3385 9.40568C11.0456 9.11279 10.5707 9.11279 10.2778 9.40568L6.03516 13.6483L1.79252 9.40568C1.49962 9.11279 1.02475 9.11279 0.731855 9.40568C0.438962 9.69858 0.438962 10.1735 0.731855 10.4663L5.50483 15.2393ZM6.78516 14.709V1.70898H5.28516V14.709H6.78516Z" fill="#474747"/>
<path d="M15.5655 1.17865C15.2726 0.885761 14.7977 0.885761 14.5048 1.17865L9.73186 5.95162C9.43896 6.24452 9.43896 6.71939 9.73186 7.01228C10.0247 7.30518 10.4996 7.30518 10.7925 7.01228L15.0352 2.76964L19.2778 7.01229C19.5707 7.30518 20.0456 7.30518 20.3385 7.01229C20.6314 6.71939 20.6314 6.24452 20.3385 5.95163L15.5655 1.17865ZM14.2852 1.70898L14.2852 14.709L15.7852 14.709L15.7852 1.70898L14.2852 1.70898Z" fill="#474747"/>
</svg>
