<svg width="50" height="51" viewBox="0 0 50 51" fill="none" xmlns="http://www.w3.org/2000/svg">
<path d="M42.9257 50.0027C42.7343 49.992 42.547 49.9436 42.3745 49.8604C42.202 49.7771 42.0476 49.6605 41.9203 49.5175C41.793 49.3744 41.6953 49.2075 41.6327 49.0266C41.5702 48.8456 41.5441 48.6541 41.5559 48.463C41.5664 48.2718 41.6146 48.0845 41.6979 47.912C41.7812 47.7395 41.8978 47.5852 42.041 47.458C42.1843 47.3308 42.3514 47.2331 42.5326 47.1707C42.7138 47.1083 42.9056 47.0824 43.0969 47.0944C43.2882 47.1051 43.4755 47.1535 43.648 47.2368C43.8206 47.32 43.9749 47.4365 44.1022 47.5796C44.2295 47.7227 44.3273 47.8895 44.3898 48.0705C44.4523 48.2515 44.4785 48.443 44.4666 48.6341C44.4448 49.0041 44.2824 49.3519 44.0125 49.6063C43.7426 49.8606 43.3857 50.0024 43.0147 50.0027H42.9257ZM38.1845 48.3604C38.0197 48.2633 37.8757 48.1347 37.7607 47.982C37.6456 47.8293 37.5618 47.6554 37.5141 47.4703C37.4664 47.2852 37.4557 47.0925 37.4826 46.9032C37.5095 46.714 37.5735 46.5319 37.6709 46.3674C37.8691 46.0364 38.1906 45.7976 38.5648 45.703C38.939 45.6084 39.3354 45.6658 39.6673 45.8627C39.8321 45.9598 39.9762 46.0883 40.0912 46.2411C40.2062 46.3938 40.29 46.5677 40.3377 46.7528C40.3854 46.9379 40.3961 47.1306 40.3692 47.3198C40.3424 47.5091 40.2784 47.6912 40.181 47.8557C40.0521 48.0725 39.8689 48.252 39.6494 48.3765C39.4299 48.501 39.1817 48.5662 38.9294 48.5656C38.667 48.5666 38.4093 48.4956 38.1845 48.3604ZM34.4656 45.5667C34.1782 45.3094 34.0049 44.9486 33.9837 44.5637C33.9625 44.1787 34.0952 43.8011 34.3526 43.5139C34.6099 43.2265 34.9709 43.053 35.3562 43.0315C35.7415 43.01 36.1196 43.1423 36.4073 43.3992C36.6946 43.6565 36.868 44.0173 36.8892 44.4023C36.9104 44.7873 36.7777 45.1649 36.5203 45.4521C36.3842 45.6049 36.2172 45.7273 36.0304 45.811C35.8436 45.8947 35.6412 45.938 35.4364 45.938C35.0781 45.9378 34.7325 45.8057 34.4656 45.5667ZM31.2621 42.3728C31.1329 42.232 31.033 42.067 30.9679 41.8874C30.9028 41.7079 30.8738 41.5172 30.8827 41.3264C30.8916 41.1356 30.9382 40.9485 31.0198 40.7758C31.1013 40.603 31.2163 40.4481 31.3579 40.3199C31.4991 40.1913 31.6643 40.0918 31.8439 40.027C32.0236 39.9622 32.2143 39.9334 32.4052 39.9423C32.596 39.9512 32.7832 39.9976 32.956 40.0788C33.1289 40.1601 33.284 40.2745 33.4126 40.4157C33.6721 40.7008 33.8078 41.0771 33.7898 41.462C33.7718 41.8469 33.6017 42.2089 33.3167 42.4686C33.0495 42.7122 32.7008 42.847 32.3391 42.8467C32.1363 42.8479 31.9355 42.8063 31.7499 42.7247C31.5643 42.643 31.3981 42.5231 31.2621 42.3728ZM28.365 38.9513C28.246 38.8019 28.1576 38.6304 28.105 38.4469C28.0524 38.2633 28.0365 38.0711 28.0583 37.8814C28.0801 37.6917 28.1391 37.5081 28.232 37.3412C28.3249 37.1743 28.4498 37.0273 28.5996 36.9087C28.7498 36.7891 28.9222 36.7002 29.1068 36.6472C29.2914 36.5943 29.4847 36.5782 29.6756 36.6C29.8664 36.6217 30.0511 36.6809 30.2191 36.7741C30.387 36.8673 30.5349 36.9927 30.6542 37.1431C30.8942 37.4453 31.0044 37.8304 30.9604 38.2137C30.9164 38.597 30.7219 38.9473 30.4197 39.1874C30.1629 39.3908 29.845 39.5017 29.5173 39.5022C29.296 39.5037 29.0773 39.4549 28.8776 39.3595C28.678 39.264 28.5027 39.1244 28.365 38.9513ZM25.6854 35.3947C25.5742 35.2391 25.4949 35.0631 25.4519 34.8769C25.4089 34.6906 25.4032 34.4977 25.435 34.3092C25.4668 34.1207 25.5356 33.9403 25.6373 33.7784C25.739 33.6165 25.8717 33.4763 26.0278 33.3657C26.1835 33.2549 26.3595 33.1759 26.5457 33.1331C26.732 33.0903 26.9249 33.0846 27.1133 33.1164C27.3018 33.1482 27.4821 33.2168 27.644 33.3183C27.8059 33.4198 27.9462 33.5522 28.0568 33.7079C28.1679 33.8633 28.2472 34.0392 28.2902 34.2253C28.3331 34.4115 28.3389 34.6042 28.307 34.7926C28.2752 34.9809 28.2065 35.1612 28.1048 35.3229C28.0031 35.4847 27.8704 35.6247 27.7144 35.7351C27.4653 35.9147 27.1654 36.01 26.8583 36.0071C26.628 36.005 26.4016 35.9482 26.1977 35.8414C25.9937 35.7346 25.8181 35.5809 25.6854 35.393V35.3947ZM23.1753 31.7354C22.9638 31.4131 22.8888 31.0202 22.9668 30.6427C23.0448 30.2653 23.2694 29.9341 23.5914 29.7219C23.9138 29.5101 24.3072 29.4349 24.6851 29.5129C25.0631 29.5908 25.3945 29.8155 25.6066 30.1376C25.8186 30.4598 25.8939 30.8529 25.8159 31.2304C25.7378 31.608 25.5129 31.9392 25.1906 32.1511C24.9539 32.3076 24.6764 32.3909 24.3927 32.3906C24.1512 32.3904 23.9136 32.3302 23.7011 32.2156C23.4886 32.1009 23.3079 31.9353 23.1753 31.7337V31.7354ZM20.8039 27.9906C20.6031 27.661 20.5415 27.2651 20.6327 26.8901C20.7239 26.5151 20.9604 26.1916 21.2901 25.9908C21.4535 25.8915 21.6348 25.8255 21.8237 25.7963C22.0126 25.7671 22.2055 25.7754 22.3912 25.8206C22.5769 25.8659 22.7518 25.9473 22.9061 26.0601C23.0603 26.173 23.1908 26.3151 23.29 26.4783C23.3896 26.6414 23.456 26.8224 23.4855 27.0112C23.515 27.1999 23.5069 27.3926 23.4617 27.5782C23.4166 27.7638 23.3352 27.9387 23.2223 28.0928C23.1094 28.2469 22.9672 28.3773 22.8037 28.4765C22.5763 28.6151 22.3151 28.6885 22.0487 28.6886C21.7986 28.6882 21.5528 28.6237 21.3348 28.5012C21.1169 28.3786 20.9341 28.2023 20.8039 27.9889V27.9906ZM18.5626 24.1705C18.4687 24.0042 18.4085 23.821 18.3855 23.6314C18.3625 23.4418 18.3771 23.2495 18.4284 23.0656C18.4798 22.8816 18.5669 22.7096 18.6848 22.5592C18.8027 22.4089 18.9491 22.2833 19.1156 22.1895C19.282 22.0954 19.4653 22.035 19.655 22.0118C19.8447 21.9885 20.0372 22.0029 20.2214 22.054C20.4055 22.1052 20.5778 22.1922 20.7283 22.3099C20.8788 22.4277 21.0045 22.574 21.0984 22.7404C21.1923 22.9067 21.2524 23.0899 21.2755 23.2795C21.2985 23.4691 21.2839 23.6614 21.2326 23.8453C21.1812 24.0293 21.0941 24.2014 20.9762 24.3517C20.8582 24.502 20.7119 24.6276 20.5453 24.7214C20.3283 24.8449 20.0828 24.9098 19.833 24.9096C19.5746 24.9095 19.3209 24.8408 19.0977 24.7107C18.8745 24.5805 18.6898 24.3936 18.5626 24.1688V24.1705ZM16.109 20.4463C16.0207 20.2769 15.9666 20.0918 15.95 19.9016C15.9333 19.7113 15.9544 19.5197 16.012 19.3376C16.0695 19.1555 16.1625 18.9865 16.2855 18.8404C16.4085 18.6942 16.5591 18.5737 16.7288 18.4858C17.0712 18.308 17.4703 18.2734 17.8382 18.3895C18.2062 18.5056 18.5129 18.763 18.691 19.105C18.7793 19.2745 18.8332 19.4597 18.8497 19.65C18.8663 19.8403 18.8451 20.032 18.7873 20.2141C18.7296 20.3962 18.6365 20.5652 18.5133 20.7113C18.3901 20.8574 18.2393 20.9778 18.0695 21.0655C17.8635 21.1759 17.6337 21.2346 17.4 21.2366C17.1327 21.2359 16.8708 21.1617 16.6431 21.0219C16.4153 20.8822 16.2305 20.6824 16.109 20.4445V20.4463ZM12.8558 12.3357C12.7624 12.169 12.7029 11.9855 12.6805 11.7958C12.6581 11.6062 12.6733 11.4139 12.7253 11.2301C12.7773 11.0463 12.8651 10.8745 12.9835 10.7246C13.102 10.5747 13.2488 10.4495 13.4157 10.3563C13.5823 10.2629 13.7658 10.2032 13.9556 10.1808C14.1454 10.1583 14.3377 10.1735 14.5216 10.2254C14.7055 10.2774 14.8773 10.3652 15.0272 10.4836C15.177 10.6021 15.302 10.7489 15.395 10.9158C15.4884 11.0821 15.5482 11.2652 15.5708 11.4546C15.5934 11.6441 15.5784 11.8361 15.5268 12.0197C15.4751 12.2034 15.3877 12.3751 15.2696 12.525C15.1515 12.6749 15.0051 12.8 14.8385 12.8934C14.621 13.0154 14.3757 13.0796 14.1263 13.0798C13.8672 13.0797 13.6129 13.0105 13.3896 12.8794C13.1662 12.7483 12.982 12.56 12.8558 12.334V12.3357ZM10.2875 8.88853C10.0702 8.5698 9.98854 8.17788 10.0605 7.79898C10.1324 7.42009 10.352 7.08525 10.671 6.86814C10.99 6.65105 11.3823 6.56947 11.7615 6.64133C12.1407 6.7132 12.4758 6.93262 12.6931 7.25135C12.9101 7.57002 12.9918 7.96166 12.9202 8.3404C12.8486 8.71913 12.6297 9.05407 12.3113 9.27174C12.0695 9.43641 11.7838 9.52462 11.4912 9.52492C11.254 9.5242 11.0206 9.46571 10.8111 9.35452C10.6017 9.24333 10.4225 9.0828 10.2892 8.88682L10.2875 8.88853ZM7.71915 5.60391C7.45985 5.31888 7.32417 4.94281 7.34182 4.55804C7.35948 4.17327 7.52902 3.81115 7.81333 3.55102C8.09902 3.29259 8.47546 3.15762 8.86043 3.17557C9.2454 3.19352 9.60762 3.36294 9.86799 3.64683C10.1279 3.93144 10.2642 4.30748 10.2468 4.69238C10.2295 5.07729 10.06 5.43959 9.77552 5.69972C9.50795 5.94532 9.15777 6.08149 8.79443 6.08121C8.59312 6.07952 8.39435 6.03607 8.21073 5.95361C8.02711 5.87116 7.86263 5.7515 7.72772 5.60221L7.71915 5.60391ZM4.73477 3.05492C4.40319 2.8586 4.16297 2.53901 4.0667 2.16612C3.97043 1.79323 4.02595 1.39742 4.2211 1.06534C4.41792 0.733926 4.7381 0.493864 5.11159 0.397686C5.48508 0.301509 5.88149 0.357044 6.21412 0.552116C6.54605 0.748123 6.78656 1.06771 6.88287 1.44073C6.97918 1.81375 6.9234 2.20973 6.72778 2.5417C6.59928 2.76064 6.41566 2.94213 6.19518 3.06819C5.97471 3.19424 5.72504 3.26044 5.47102 3.26021C5.21441 3.25667 4.96332 3.18525 4.74333 3.05321L4.73477 3.05492Z" fill="#CA9E67"/>
<path d="M9.18773 12.4345C9.02568 12.6722 8.79673 12.8566 8.52982 12.9643C8.26292 13.072 7.97004 13.0981 7.68823 13.0395C7.40643 12.9809 7.14834 12.8401 6.94662 12.635C6.7449 12.4298 6.60861 12.1695 6.55497 11.8869C6.50133 11.6043 6.53275 11.3122 6.64527 11.0475C6.75779 10.7828 6.94636 10.5573 7.18711 10.3997C7.42787 10.2421 7.71 10.1593 7.99784 10.1618C8.28568 10.1644 8.56629 10.2522 8.80419 10.4141C9.12319 10.6312 9.34282 10.9661 9.41474 11.345C9.48667 11.7238 9.40501 12.1158 9.18773 12.4345ZM12.256 12.7869C12.0036 12.6488 11.7158 12.5885 11.4291 12.6137C11.1424 12.6389 10.8696 12.7485 10.6452 12.9287C10.4208 13.1088 10.2549 13.3514 10.1685 13.6257C10.0821 13.9 10.0791 14.1938 10.1597 14.4698C10.2404 14.7459 10.4012 14.9918 10.6218 15.1766C10.8424 15.3613 11.1129 15.4766 11.399 15.5078C11.6851 15.539 11.9741 15.4846 12.2293 15.3517C12.4846 15.2188 12.6947 15.0133 12.833 14.7611C13.0171 14.4228 13.0597 14.0255 12.9516 13.656C12.8435 13.2864 12.5934 12.9746 12.256 12.7886V12.7869ZM16.2523 14.5284C15.9022 14.3722 15.5045 14.3603 15.1457 14.4953C14.7869 14.6303 14.4958 14.9014 14.3359 15.2496C14.176 15.5978 14.1601 15.995 14.2916 16.3549C14.4231 16.7148 14.6915 17.0082 15.0383 17.1715C15.2287 17.2579 15.4354 17.3028 15.6445 17.3033C15.9762 17.303 16.2979 17.1895 16.5562 16.9816C16.8146 16.7737 16.9941 16.4838 17.065 16.16C17.1359 15.8363 17.094 15.498 16.9462 15.2013C16.7984 14.9045 16.5536 14.6671 16.2523 14.5284ZM20.6048 16.0955C20.3479 15.9657 20.0582 15.9149 19.7725 15.9496C19.4867 15.9843 19.2177 16.1028 18.9994 16.2903C18.7811 16.4778 18.6233 16.7257 18.546 17.0027C18.4687 17.2798 18.4754 17.5735 18.5652 17.8468C18.655 18.12 18.8239 18.3606 19.0506 18.5379C19.2772 18.7152 19.5513 18.8215 19.8384 18.8431C20.1254 18.8648 20.4124 18.8009 20.6631 18.6596C20.9138 18.5183 21.117 18.3058 21.2468 18.0491C21.4199 17.7053 21.4495 17.307 21.3291 16.9415C21.2088 16.5759 20.9483 16.2729 20.6048 16.0989V16.0955ZM3.48263 7.91473C3.28601 8.12496 3.15624 8.38876 3.10973 8.67272C3.06322 8.95668 3.10207 9.24805 3.22137 9.50994C3.34067 9.77183 3.53505 9.99247 3.77991 10.1439C4.02477 10.2954 4.3091 10.3709 4.59691 10.3608C4.88472 10.3507 5.16307 10.2556 5.39673 10.0874C5.63039 9.91918 5.80885 9.68551 5.90954 9.41593C6.01022 9.14635 6.0286 8.85298 5.96233 8.57296C5.89607 8.29295 5.74814 8.03888 5.53729 7.84289C5.25444 7.58145 4.87947 7.4426 4.49441 7.4567C4.10935 7.47081 3.74556 7.63672 3.48263 7.91815V7.91473ZM0.647212 2.66278C0.727002 2.71459 0.811235 2.75925 0.898913 2.79622C0.986828 2.83263 1.07797 2.86069 1.17115 2.88004C1.26476 2.89846 1.35997 2.90764 1.45538 2.90742C1.5508 2.90781 1.64602 2.89863 1.7396 2.88004C1.92642 2.84134 2.1042 2.76761 2.26354 2.66278C2.34342 2.61037 2.41747 2.54957 2.48441 2.48143C2.55235 2.41384 2.61369 2.33996 2.66762 2.26076C2.71928 2.1812 2.76342 2.09701 2.79946 2.00928C2.83668 1.92172 2.86479 1.83056 2.88336 1.73726C2.91989 1.5497 2.91989 1.35687 2.88336 1.16931C2.86479 1.07601 2.83668 0.984864 2.79946 0.897304C2.76342 0.809576 2.71928 0.725371 2.66762 0.64581C2.61369 0.566611 2.55235 0.492731 2.48441 0.425139C2.41747 0.357001 2.34342 0.296199 2.26354 0.243791C2.10461 0.138535 1.92663 0.0653108 1.7396 0.0282367C1.55199 -0.00941224 1.35876 -0.00941224 1.17115 0.0282367C1.07802 0.0470016 0.986876 0.0744917 0.898913 0.110349C0.721906 0.182642 0.56121 0.289694 0.426341 0.425139C0.358956 0.492767 0.298183 0.566649 0.244847 0.64581C0.141378 0.805592 0.0682435 0.983057 0.0291065 1.16931C-0.00970218 1.35664 -0.00970218 1.54993 0.0291065 1.73726C0.0484713 1.83036 0.0765596 1.92144 0.113003 2.00928C0.148864 2.09775 0.194214 2.18206 0.248264 2.26076C0.297658 2.33996 0.355031 2.41389 0.419485 2.48143C0.489555 2.54987 0.565788 2.61173 0.647212 2.6662V2.66278ZM45.8719 39.6643C46.0004 39.8837 46.1843 40.0656 46.405 40.192C46.6258 40.3183 46.8759 40.3847 47.1303 40.3845C47.3538 40.3842 47.5741 40.3324 47.7743 40.2333C47.9745 40.1341 48.1492 39.9903 48.2848 39.8128C48.4204 39.6354 48.5133 39.4291 48.5562 39.21C48.5992 38.9909 48.5911 38.7649 48.5326 38.5495C48.474 38.334 48.3666 38.1349 48.2187 37.9676C48.0707 37.8003 47.8862 37.6693 47.6794 37.5847C47.4726 37.5001 47.2491 37.4642 47.0262 37.4798C46.8033 37.4955 46.587 37.5621 46.3941 37.6747C46.2286 37.7711 46.0837 37.8991 45.9678 38.0515C45.8519 38.204 45.7673 38.3777 45.7188 38.5629C45.6703 38.748 45.6588 38.9409 45.6851 39.1305C45.7114 39.3201 45.7748 39.5027 45.8719 39.6677V39.6643ZM3.03061 4.82858C2.88827 4.57801 2.67473 4.37528 2.41702 4.24604C2.1593 4.11681 1.86899 4.06686 1.58286 4.10256C1.29672 4.13825 1.02762 4.25797 0.809624 4.44656C0.591627 4.63515 0.434543 4.88413 0.358245 5.16197C0.281947 5.43981 0.289869 5.73402 0.381017 6.00736C0.472165 6.28069 0.642432 6.52086 0.870268 6.69746C1.0981 6.87406 1.37327 6.97914 1.66091 6.99941C1.94855 7.01967 2.23574 6.95422 2.48613 6.81131C2.65232 6.71698 2.79825 6.59083 2.91559 6.44008C3.03293 6.28932 3.11936 6.11693 3.16993 5.93276C3.22051 5.7486 3.23423 5.55629 3.21033 5.36681C3.18642 5.17734 3.12535 4.99444 3.03061 4.82858ZM31.7958 23.1129C31.4731 22.9057 31.0817 22.8341 30.7065 22.9137C30.3313 22.9933 30.0027 23.2177 29.7922 23.538C29.5817 23.8584 29.5063 24.2488 29.5823 24.6244C29.6583 25 29.8797 25.3305 30.1983 25.5439C30.4342 25.7005 30.7112 25.7838 30.9945 25.7834C31.3081 25.7842 31.6137 25.6837 31.8656 25.4969C32.1175 25.3102 32.3022 25.0471 32.3923 24.7469C32.4824 24.4467 32.473 24.1254 32.3655 23.831C32.258 23.5365 32.0582 23.2847 31.7958 23.1129ZM45.6202 34.4568C45.4297 34.2412 45.1795 34.0869 44.9013 34.0134C44.623 33.9398 44.3292 33.9504 44.0569 34.0436C43.7847 34.1369 43.5462 34.3088 43.3717 34.5375C43.1972 34.7662 43.0945 35.0414 43.0765 35.3284C43.0586 35.6154 43.1262 35.9013 43.2709 36.15C43.4155 36.3986 43.6307 36.5987 43.8892 36.7252C44.1477 36.8516 44.4379 36.8986 44.7232 36.8603C45.0084 36.8219 45.2759 36.6999 45.4918 36.5097C45.7802 36.2536 45.9551 35.8936 45.9783 35.5087C46.0014 35.1239 45.8707 34.7456 45.615 34.4568H45.6202ZM40.3757 31.3176C40.2463 31.458 40.1459 31.6225 40.0802 31.8016C40.0145 31.9808 39.9848 32.1712 39.9927 32.3618C40.0007 32.5524 40.0462 32.7396 40.1266 32.9127C40.2069 33.0858 40.3207 33.2414 40.4613 33.3705C40.673 33.5655 40.9379 33.6933 41.2224 33.7378C41.5069 33.7824 41.7982 33.7416 42.0594 33.6206C42.3207 33.4996 42.5402 33.304 42.6901 33.0583C42.8401 32.8127 42.9137 32.5281 42.9017 32.2407C42.8897 31.9532 42.7926 31.6758 42.6228 31.4435C42.4529 31.2111 42.2179 31.0344 41.9475 30.9356C41.677 30.8367 41.3833 30.8203 41.1035 30.8883C40.8237 30.9563 40.5704 31.1057 40.3757 31.3176ZM48.3494 46.4063C48.3134 46.3186 48.2692 46.2344 48.2176 46.1548C48.1637 46.0756 48.1023 46.0017 48.0344 45.9342C47.9674 45.866 47.8934 45.8052 47.8135 45.7528C47.7341 45.7013 47.6505 45.6567 47.5635 45.6194C47.4755 45.5838 47.3843 45.5563 47.2913 45.5373C47.1031 45.4996 46.9093 45.4996 46.7211 45.5373C46.6281 45.5563 46.5369 45.5838 46.4489 45.6194C46.3619 45.6567 46.2783 45.7013 46.1989 45.7528C46.1194 45.8065 46.0449 45.8672 45.9763 45.9342C45.9118 46.0017 45.8545 46.0756 45.8051 46.1548C45.751 46.2335 45.7057 46.3179 45.6698 46.4063C45.6334 46.4942 45.6053 46.5852 45.5859 46.6783C45.5423 46.89 45.5464 47.1087 45.5978 47.3186C45.6493 47.5285 45.7469 47.7243 45.8836 47.8918C46.0202 48.0593 46.1925 48.1943 46.3878 48.2871C46.5832 48.3798 46.7968 48.4279 47.013 48.4279C47.2293 48.4279 47.4429 48.3798 47.6383 48.2871C47.8336 48.1943 48.0059 48.0593 48.1425 47.8918C48.2792 47.7243 48.3768 47.5285 48.4283 47.3186C48.4797 47.1087 48.4838 46.89 48.4402 46.6783C48.4193 46.5841 48.3871 46.4928 48.3443 46.4063H48.3494ZM50 42.9489C49.9833 42.6656 49.8839 42.3933 49.7142 42.1657C49.5445 41.9381 49.3118 41.7651 49.0448 41.668C48.7778 41.5709 48.4883 41.554 48.2118 41.6194C47.9354 41.6848 47.6841 41.8297 47.4891 42.036C47.294 42.2424 47.1636 42.5013 47.1141 42.7808C47.0645 43.0603 47.0979 43.3481 47.2101 43.6089C47.3224 43.8697 47.5085 44.0919 47.7457 44.2482C47.9828 44.4045 48.2605 44.4881 48.5446 44.4886H48.6268C49.0126 44.4657 49.3734 44.2906 49.63 44.0018C49.8865 43.7131 50.0178 43.3344 49.9949 42.9489H50ZM39.0213 28.3187C38.7179 28.1008 38.3424 28.0077 37.9723 28.0586C37.6021 28.1095 37.2657 28.3005 37.0325 28.5921C36.7993 28.8838 36.6871 29.2538 36.7192 29.6257C36.7512 29.9976 36.925 30.343 37.2046 30.5906C37.5062 30.8315 37.8911 30.9429 38.2749 30.9002C38.6586 30.8575 39.0096 30.6643 39.2507 30.363C39.4919 30.0618 39.6033 29.6771 39.5606 29.2937C39.5179 28.9104 39.3245 28.5596 39.023 28.3187H39.0213ZM24.1918 18.523C24.0245 18.4257 23.8394 18.3628 23.6474 18.3378C23.4555 18.3129 23.2604 18.3265 23.0738 18.3778C22.8871 18.4291 22.7126 18.5171 22.5604 18.6367C22.4082 18.7562 22.2814 18.9049 22.1874 19.074C22.0934 19.2431 22.0342 19.4293 22.0131 19.6216C21.992 19.8138 22.0096 20.0084 22.0647 20.1938C22.1198 20.3792 22.2114 20.5518 22.3341 20.7014C22.4568 20.8511 22.6081 20.9747 22.7793 21.0652C22.9943 21.1853 23.2366 21.2484 23.483 21.2482C23.8056 21.2487 24.1192 21.142 24.3745 20.945C24.6298 20.748 24.8124 20.4718 24.8935 20.1599C24.9747 19.8479 24.9498 19.5179 24.8228 19.2216C24.6958 18.9253 24.4738 18.6796 24.1918 18.523ZM28.034 20.747C27.7877 20.5982 27.5027 20.5259 27.2151 20.539C26.9276 20.5521 26.6504 20.65 26.4185 20.8206C26.1867 20.9911 26.0107 21.2264 25.9128 21.4969C25.8149 21.7674 25.7995 22.0607 25.8684 22.34C25.9374 22.6192 26.0877 22.8717 26.3003 23.0656C26.5129 23.2595 26.7783 23.386 27.0629 23.4292C27.3475 23.4724 27.6385 23.4303 27.8991 23.3082C28.1598 23.1861 28.3783 22.9896 28.5272 22.7434C28.6258 22.5798 28.6912 22.3983 28.7197 22.2094C28.7481 22.0205 28.739 21.8278 28.6929 21.6424C28.6468 21.457 28.5646 21.2825 28.4509 21.1288C28.3373 20.9752 28.1945 20.8454 28.0306 20.747H28.034ZM35.4616 25.6277C35.2279 25.46 34.9496 25.3653 34.662 25.3555C34.3744 25.3457 34.0903 25.4214 33.8457 25.5729C33.6012 25.7244 33.407 25.945 33.2879 26.2067C33.1687 26.4684 33.1299 26.7596 33.1763 27.0433C33.2227 27.3271 33.3523 27.5907 33.5486 27.8009C33.745 28.0111 33.9993 28.1585 34.2795 28.2243C34.5596 28.2901 34.853 28.2715 35.1225 28.1708C35.3921 28.07 35.6257 27.8917 35.7938 27.6584C35.9054 27.5031 35.9852 27.3273 36.0287 27.1412C36.0722 26.955 36.0786 26.7621 36.0474 26.5735C36.0162 26.3849 35.9481 26.2043 35.847 26.042C35.7459 25.8797 35.6138 25.7389 35.4582 25.6277H35.4616Z" fill="#936037"/>
</svg>
