<svg width="28" height="25" viewBox="0 0 28 25" fill="none" xmlns="http://www.w3.org/2000/svg">
<path d="M20.6284 25C21.4932 25 22.1943 24.33 22.1943 23.5034C22.1943 22.6769 21.4932 22.0068 20.6284 22.0068C19.7636 22.0068 19.0625 22.6769 19.0625 23.5034C19.0625 24.33 19.7636 25 20.6284 25Z" fill="#CBB04F"/>
<path d="M1.67188 1.64478H3.45758C3.807 1.64629 4.14462 1.76564 4.41098 1.98179C4.67735 2.19794 4.85536 2.49697 4.91359 2.82626L7.7844 19.1707C7.8427 19.5035 8.02215 19.8059 8.29108 20.0245C8.56001 20.2431 8.90113 20.3638 9.25417 20.3654H21.7539" stroke="#CBB04F" stroke-width="2" stroke-linecap="round" stroke-linejoin="round"/>
<path d="M9.8784 25C10.7432 25 11.4443 24.33 11.4443 23.5034C11.4443 22.6769 10.7432 22.0068 9.8784 22.0068C9.01358 22.0068 8.3125 22.6769 8.3125 23.5034C8.3125 24.33 9.01358 25 9.8784 25Z" fill="#CBB04F"/>
<path d="M20.6285 14.0422C24.505 14.0422 27.6475 10.8987 27.6475 7.0211C27.6475 3.14345 24.505 0 20.6285 0C16.7519 0 13.6094 3.14345 13.6094 7.0211C13.6094 10.8987 16.7519 14.0422 20.6285 14.0422Z" fill="#CBB04F"/>
<path fill-rule="evenodd" clip-rule="evenodd" d="M20.629 15.5346C18.3521 15.5346 16.1685 14.6702 14.5585 13.1314C12.9485 11.5927 12.044 9.50569 12.044 7.32958C12.0303 7.10221 12.0303 6.87434 12.044 6.64697H5.54688L7.44245 17.1494H21.9888C22.2901 17.1635 22.5878 17.0825 22.8361 16.9188C23.0843 16.755 23.2693 16.5178 23.3624 16.2436L23.802 14.9308C22.794 15.3228 21.7172 15.5277 20.629 15.5346Z" fill="#CBB04F"/>
</svg>
