<svg width="16" height="16" viewBox="0 0 16 16" fill="none" xmlns="http://www.w3.org/2000/svg">
<path d="M0.890625 1.4375H1.89621C2.30628 1.4375 2.65889 1.73124 2.7268 2.13063L4.35402 11.6979C4.42193 12.0973 4.77193 12.391 5.18461 12.391H12.9968" stroke="black" stroke-miterlimit="10" stroke-linecap="round" stroke-linejoin="round"/>
<path d="M4.17765 10.5191H12.3843C12.7473 10.5191 13.0712 10.2872 13.1835 9.94706L15.0354 4.37109H3.10938" stroke="black" stroke-miterlimit="10" stroke-linecap="round" stroke-linejoin="round"/>
<path d="M5.54169 15.0986C6.0307 15.0986 6.42713 14.7075 6.42713 14.2251C6.42713 13.7426 6.0307 13.3516 5.54169 13.3516C5.05267 13.3516 4.65625 13.7426 4.65625 14.2251C4.65625 14.7075 5.05267 15.0986 5.54169 15.0986Z" stroke="black" stroke-miterlimit="10" stroke-linecap="round" stroke-linejoin="round"/>
<path d="M12.1042 15.0986C12.5932 15.0986 12.9896 14.7075 12.9896 14.2251C12.9896 13.7426 12.5932 13.3516 12.1042 13.3516C11.6152 13.3516 11.2188 13.7426 11.2188 14.2251C11.2188 14.7075 11.6152 15.0986 12.1042 15.0986Z" stroke="black" stroke-miterlimit="10" stroke-linecap="round" stroke-linejoin="round"/>
</svg>
