<svg width="15" height="14" viewBox="0 0 15 14" fill="none" xmlns="http://www.w3.org/2000/svg">
<path d="M1.10156 0.5H2.01157C2.38266 0.5 2.70175 0.765822 2.7632 1.12725L4.23575 9.78512C4.29721 10.1465 4.61394 10.4124 4.98739 10.4124H12.0571" stroke="white" stroke-miterlimit="10" stroke-linecap="round" stroke-linejoin="round"/>
<path d="M4.07611 8.71595H11.5027C11.8312 8.71595 12.1243 8.50609 12.2259 8.1983L13.9018 3.15234H3.10938" stroke="white" stroke-miterlimit="10" stroke-linecap="round" stroke-linejoin="round"/>
<path d="M5.30909 12.8641C5.75162 12.8641 6.11036 12.5102 6.11036 12.0737C6.11036 11.6371 5.75162 11.2832 5.30909 11.2832C4.86656 11.2832 4.50781 11.6371 4.50781 12.0737C4.50781 12.5102 4.86656 12.8641 5.30909 12.8641Z" stroke="white" stroke-miterlimit="10" stroke-linecap="round" stroke-linejoin="round"/>
<path d="M11.2544 12.8622C11.6969 12.8622 12.0557 12.5083 12.0557 12.0717C12.0557 11.6352 11.6969 11.2812 11.2544 11.2812C10.8119 11.2812 10.4531 11.6352 10.4531 12.0717C10.4531 12.5083 10.8119 12.8622 11.2544 12.8622Z" stroke="white" stroke-miterlimit="10" stroke-linecap="round" stroke-linejoin="round"/>
</svg>
