<svg width="15" height="15" viewBox="0 0 15 15" fill="none" xmlns="http://www.w3.org/2000/svg">
<path fill-rule="evenodd" clip-rule="evenodd" d="M0.419003 12.5577C-0.139668 13.1164 -0.139668 14.0222 0.419003 14.5809C0.977674 15.1395 1.88346 15.1395 2.44213 14.5809L7.49999 9.52301L12.5582 14.5812C13.1168 15.1398 14.0226 15.1398 14.5813 14.5812C15.14 14.0225 15.14 13.1167 14.5813 12.5581L9.52312 7.49988L14.5809 2.44212C15.1396 1.88345 15.1396 0.977672 14.5809 0.419002C14.0222 -0.139668 13.1164 -0.139667 12.5578 0.419003L7.49999 5.47676L2.44254 0.419316C1.88387 -0.139354 0.978087 -0.139354 0.419416 0.419316C-0.139255 0.977986 -0.139253 1.88377 0.419417 2.44244L5.47687 7.49988L0.419003 12.5577Z" fill="#BDBDBD"/>
</svg>
