<svg width="17" height="13" viewBox="0 0 17 13" fill="none" xmlns="http://www.w3.org/2000/svg">
<path d="M2.94934 6.79483C2.67522 6.56991 2.31801 6.44788 1.94938 6.45321C1.58075 6.45854 1.22796 6.59083 0.961785 6.82355C0.695606 7.05627 0.535724 7.37221 0.51421 7.70798C0.492696 8.04376 0.61114 8.37454 0.845786 8.63397L4.08877 11.7392C4.22455 11.8691 4.3877 11.9727 4.56844 12.0437C4.74917 12.1147 4.94377 12.1516 5.14055 12.1523C5.33628 12.1534 5.53025 12.1185 5.71093 12.0498C5.89161 11.9811 6.05531 11.88 6.19233 11.7525L16.0966 2.42354C16.2309 2.29753 16.3366 2.14862 16.4078 1.98532C16.479 1.82202 16.5143 1.64752 16.5116 1.47179C16.5089 1.29606 16.4682 1.12254 16.392 0.961134C16.3158 0.799728 16.2055 0.653598 16.0674 0.531089C15.9292 0.408579 15.766 0.312088 15.587 0.247126C15.408 0.182163 15.2168 0.150001 15.0241 0.152476C14.8315 0.154952 14.6413 0.192015 14.4644 0.261551C14.2875 0.331086 14.1273 0.431733 13.993 0.557743L5.15516 8.90051L2.94934 6.79483Z" fill="#7FB800"/>
</svg>
