<svg width="23" height="17" viewBox="0 0 23 17" fill="none" xmlns="http://www.w3.org/2000/svg">
<path d="M11.4998 5.375C12.3286 5.375 13.1235 5.70424 13.7095 6.29029C14.2956 6.87634 14.6248 7.6712 14.6248 8.5C14.6248 9.3288 14.2956 10.1237 13.7095 10.7097C13.1235 11.2958 12.3286 11.625 11.4998 11.625C10.671 11.625 9.87618 11.2958 9.29013 10.7097C8.70408 10.1237 8.37484 9.3288 8.37484 8.5C8.37484 7.6712 8.70408 6.87634 9.29013 6.29029C9.87618 5.70424 10.671 5.375 11.4998 5.375V5.375ZM11.4998 0.6875C16.7082 0.6875 21.1561 3.92708 22.9582 8.5C21.1561 13.0729 16.7082 16.3125 11.4998 16.3125C6.2915 16.3125 1.84359 13.0729 0.0415039 8.5C1.84359 3.92708 6.2915 0.6875 11.4998 0.6875ZM2.31234 8.5C4.03109 12 7.58317 14.2292 11.4998 14.2292C15.4165 14.2292 18.9686 12 20.6873 8.5C18.9686 5 15.4165 2.77083 11.4998 2.77083C7.58317 2.77083 4.03109 5 2.31234 8.5Z" fill="#C8C8C8"/>
</svg>
