<svg width="16" height="16" viewBox="0 0 16 16" fill="none" xmlns="http://www.w3.org/2000/svg">
<path d="M15.5297 11.7961C15.4872 11.6682 15.2173 11.4799 14.7201 11.2315C14.5854 11.1533 14.3934 11.0469 14.1451 10.9119C13.8965 10.777 13.6708 10.6526 13.4686 10.5389C13.2659 10.4253 13.076 10.3152 12.8986 10.2089C12.8702 10.1875 12.7814 10.1255 12.6323 10.0223C12.483 9.91938 12.3571 9.84299 12.2539 9.79318C12.151 9.74367 12.0497 9.71874 11.9503 9.71874C11.8083 9.71874 11.6309 9.82001 11.4179 10.0223C11.2049 10.2248 11.0095 10.4448 10.8321 10.683C10.6546 10.921 10.4663 11.141 10.2677 11.3434C10.0687 11.5459 9.90524 11.6471 9.77756 11.6471C9.71345 11.6471 9.63353 11.6292 9.53774 11.5939C9.442 11.5584 9.36916 11.528 9.31916 11.5035C9.26961 11.4785 9.18457 11.4289 9.06375 11.3541C8.9427 11.2795 8.87539 11.2387 8.86121 11.2315C7.88826 10.6917 7.05382 10.0737 6.35774 9.37796C5.66188 8.68176 5.04389 7.84739 4.50415 6.87433C4.49706 6.86011 4.45613 6.79261 4.38161 6.67194C4.30699 6.55116 4.25725 6.46605 4.2324 6.41619C4.20754 6.36653 4.17736 6.29369 4.14191 6.19784C4.10646 6.10198 4.08866 6.02213 4.08866 5.95813C4.08866 5.83037 4.1899 5.66694 4.39232 5.46806C4.59471 5.26929 4.81493 5.08101 5.05277 4.90358C5.29079 4.72615 5.51079 4.53078 5.71326 4.31779C5.91565 4.1047 6.01684 3.92723 6.01684 3.78522C6.01684 3.68585 5.99199 3.58455 5.94233 3.4816C5.89262 3.37843 5.81628 3.25253 5.71326 3.10331C5.6102 2.95417 5.54807 2.86548 5.52673 2.83693C5.42031 2.65951 5.31035 2.46954 5.19658 2.26712C5.08281 2.06473 4.95863 1.83913 4.82363 1.59059C4.68874 1.34215 4.58228 1.15032 4.50408 1.0154C4.25564 0.518344 4.06747 0.248343 3.9396 0.20588C3.88986 0.184574 3.81523 0.173828 3.7159 0.173828C3.52404 0.173828 3.27374 0.209276 2.96482 0.280396C2.65579 0.351403 2.41262 0.425881 2.23504 0.504127C1.87993 0.653195 1.50355 1.08641 1.10578 1.80361C0.743582 2.47107 0.5625 3.13171 0.5625 3.78503C0.5625 3.97664 0.574925 4.16305 0.599776 4.34432C0.624627 4.52541 0.66903 4.72962 0.733023 4.95694C0.796903 5.18418 0.848433 5.35298 0.887389 5.46291C0.926381 5.57291 0.99918 5.76996 1.10575 6.05414C1.21217 6.33825 1.27616 6.51217 1.29746 6.57608C1.54601 7.27213 1.84075 7.89351 2.18161 8.44042C2.74243 9.34945 3.50777 10.2889 4.47717 11.2584C5.44661 12.2278 6.38587 12.9931 7.29498 13.5541C7.84181 13.8949 8.46341 14.1896 9.15935 14.4384C9.2233 14.4596 9.39722 14.5234 9.68121 14.6302C9.96532 14.7367 10.1624 14.8095 10.2724 14.8486C10.3825 14.8877 10.5513 14.9392 10.7784 15.0032C11.0059 15.0672 11.2099 15.1116 11.391 15.1367C11.5722 15.1612 11.7587 15.1738 11.9503 15.1738C12.6036 15.1738 13.2643 14.9926 13.9319 14.6305C14.649 14.2329 15.0821 13.8564 15.2312 13.501C15.3097 13.3236 15.3839 13.0804 15.455 12.7714C15.5262 12.4625 15.5616 12.2122 15.5616 12.0204C15.5618 11.9206 15.5511 11.8462 15.5297 11.7961Z" fill="#CBB04F"/>
</svg>
