<svg width="16" height="16" viewBox="0 0 16 16" fill="none" xmlns="http://www.w3.org/2000/svg">
<path d="M15.0375 11.7257C14.995 11.5979 14.7251 11.4096 14.2279 11.1612C14.0932 11.0829 13.9012 10.9766 13.6529 10.8416C13.4043 10.7066 13.1787 10.5823 12.9764 10.4686C12.7737 10.355 12.5838 10.2449 12.4064 10.1385C12.378 10.1172 12.2893 10.0552 12.1401 9.95197C11.9908 9.84906 11.8649 9.77268 11.7618 9.72287C11.6588 9.67335 11.5575 9.64843 11.4581 9.64843C11.3161 9.64843 11.1387 9.7497 10.9257 9.95197C10.7127 10.1545 10.5173 10.3745 10.3399 10.6126C10.1624 10.8507 9.97414 11.0707 9.77548 11.2731C9.57653 11.4756 9.41306 11.5768 9.28537 11.5768C9.22126 11.5768 9.14134 11.5589 9.04556 11.5236C8.94981 11.4881 8.87697 11.4577 8.82697 11.4332C8.77742 11.4082 8.69238 11.3586 8.57156 11.2838C8.45052 11.2092 8.3832 11.1684 8.36902 11.1612C7.39607 10.6213 6.56163 10.0034 5.86555 9.30764C5.16969 8.61145 4.5517 7.77708 4.01196 6.80402C4.00487 6.7898 3.96394 6.7223 3.88943 6.60163C3.8148 6.48085 3.76506 6.39573 3.74021 6.34588C3.71536 6.29622 3.68517 6.22338 3.64972 6.12752C3.61427 6.03166 3.59648 5.95181 3.59648 5.88782C3.59648 5.76006 3.69771 5.59663 3.90013 5.39775C4.10252 5.19898 4.32275 5.01069 4.56058 4.83327C4.79861 4.65584 5.01861 4.46047 5.22107 4.24748C5.42346 4.03438 5.52465 3.85692 5.52465 3.71491C5.52465 3.61554 5.4998 3.51423 5.45014 3.41129C5.40044 3.30811 5.32409 3.18222 5.22107 3.033C5.11801 2.88386 5.05588 2.79516 5.03454 2.76662C4.92812 2.58919 4.81816 2.39923 4.70439 2.1968C4.59062 1.99442 4.46644 1.76882 4.33144 1.52027C4.19655 1.27184 4.0901 1.08001 4.01189 0.945085C3.76345 0.448031 3.57528 0.178031 3.44741 0.135568C3.39767 0.114262 3.32304 0.103516 3.22371 0.103516C3.03185 0.103516 2.78155 0.138963 2.47263 0.210083C2.1636 0.281091 1.92043 0.355569 1.74285 0.433815C1.38774 0.582883 1.01136 1.01609 0.613597 1.7333C0.251395 2.40076 0.0703125 3.0614 0.0703125 3.71472C0.0703125 3.90632 0.0827379 4.09274 0.107589 4.27401C0.132439 4.45509 0.176843 4.65931 0.240835 4.88662C0.304716 5.11386 0.356246 5.28267 0.395201 5.3926C0.434194 5.5026 0.506992 5.69965 0.61356 5.98383C0.719978 6.26793 0.783971 6.44185 0.805277 6.50577C1.05382 7.20182 1.34856 7.8232 1.68942 8.3701C2.25024 9.27914 3.01558 10.2186 3.98498 11.1881C4.95443 12.1575 5.89368 12.9228 6.80279 13.4838C7.34962 13.8246 7.97122 14.1193 8.66716 14.3681C8.73111 14.3893 8.90503 14.4531 9.18903 14.5599C9.47313 14.6664 9.67026 14.7392 9.78026 14.7783C9.8903 14.8174 10.0591 14.8689 10.2862 14.9329C10.5137 14.9969 10.7178 15.0413 10.8988 15.0664C11.08 15.0909 11.2665 15.1035 11.4581 15.1035C12.1114 15.1035 12.7721 14.9223 13.4397 14.5602C14.1568 14.1625 14.5899 13.7861 14.739 13.4307C14.8175 13.2533 14.8918 13.0101 14.9628 12.701C15.034 12.3922 15.0694 12.1419 15.0694 11.9501C15.0696 11.8503 15.0589 11.7759 15.0375 11.7257Z" fill="black"/>
</svg>
