<svg width="42" height="82" viewBox="0 0 42 82" fill="none" xmlns="http://www.w3.org/2000/svg">
<path d="M15.2103 33.135H8.59531V38H4.81531V33.135H1.77031V30.125H4.81531V27.605H1.77031V24.35H4.81531V12.1H11.0803C14.0903 12.1 16.3653 12.8 17.9053 14.2C19.4453 15.5767 20.2153 17.4783 20.2153 19.905C20.2153 22.3317 19.4453 24.2217 17.9053 25.575C16.3886 26.9283 14.1136 27.605 11.0803 27.605H8.59531V30.125H15.2103V33.135ZM8.59531 15.565V24.35H11.0803C13.0403 24.35 14.417 23.9183 15.2103 23.055C16.027 22.1683 16.4353 21.095 16.4353 19.835C16.4353 18.6217 16.027 17.6067 15.2103 16.79C14.417 15.9733 13.0403 15.565 11.0803 15.565H8.59531Z" fill="white"/>
<path d="M41.3525 54.5088V57.79H33.2861V73H29.1675V54.5088H41.3525Z" fill="white"/>
<path d="M1.77734 65L20.0273 46.75L38.2773 28.5" stroke="white" stroke-width="3"/>
</svg>
