<svg width="51" height="40" viewBox="0 0 51 40" fill="none" xmlns="http://www.w3.org/2000/svg">
<path d="M32.695 20.5519C38.1868 20.5519 42.6496 16.0891 42.6496 10.5974C42.6496 5.10567 38.1868 0.655273 32.695 0.655273C27.2157 0.655273 22.7529 5.11807 22.7529 10.6098C22.7529 16.1015 27.2157 20.5519 32.695 20.5519ZM32.695 2.14287C37.3562 2.14287 41.1619 5.93624 41.1619 10.6098C41.1619 15.2833 37.3686 19.0767 32.695 19.0767C28.0215 19.0767 24.2281 15.2833 24.2281 10.6098C24.2281 5.93624 28.0339 2.14287 32.695 2.14287ZM49.2942 25.6345L34.8521 35.2295C33.4636 36.1593 31.7901 36.6551 30.1289 36.6551C29.9802 36.6551 29.819 36.6551 29.6703 36.6427L12.2902 35.6882L12.3769 34.2006L29.757 35.1551C31.257 35.2295 32.7818 34.8204 34.0339 33.9899L48.476 24.3948C48.9966 24.0477 49.1578 23.3535 48.8231 22.8205L48.1537 21.7296C47.8561 21.2461 47.2487 21.0478 46.728 21.2709L36.0173 25.6841L35.4471 24.3081L46.1578 19.8949C47.3603 19.399 48.7363 19.8453 49.4181 20.9486L50.0875 22.0271C50.8437 23.2544 50.4966 24.8287 49.2942 25.6345ZM17.3604 21.3701C19.8025 21.2213 21.8356 21.9775 23.1 23.4775C23.2364 23.6387 23.4224 23.7254 23.6331 23.7378L30.3397 24.1097C30.538 24.1221 30.7116 24.2089 30.8479 24.3453C30.9719 24.494 31.0463 24.68 31.0339 24.8783L30.9099 27.1345C30.8851 27.5436 30.5504 27.8535 30.1413 27.8287L21.9595 27.3824L21.8728 28.87L30.067 29.3163C30.1041 29.3163 30.1537 29.3163 30.1909 29.3163C31.3562 29.3163 32.3355 28.399 32.4099 27.2213L32.5339 24.9651C32.5711 24.3701 32.3727 23.7998 31.976 23.3659C31.5793 22.9196 31.0339 22.6593 30.4513 22.6345L24.0546 22.2874C22.4678 20.5767 20.0877 19.7337 17.2984 19.8949C13.753 20.1056 10.2571 21.9527 8.11249 24.6552L7.92654 23.4899C7.90175 23.2915 7.79018 23.118 7.62902 23.0064C7.46787 22.8949 7.26952 22.8453 7.07117 22.8701L0.674504 23.8618C0.265414 23.9238 -0.0073117 24.3081 0.0546715 24.7048L2.22408 38.713C2.24888 38.9113 2.36045 39.0849 2.5216 39.1964C2.64557 39.2956 2.80673 39.3452 2.95549 39.3452C2.99268 39.3452 3.02987 39.3452 3.06706 39.3328L9.46373 38.3411C9.87282 38.2791 10.1455 37.8948 10.0836 37.4981L8.28604 25.9072L8.76951 26.2296C10.567 23.4651 13.9389 21.5684 17.3604 21.3701ZM8.48439 36.9774L3.56292 37.7336L1.61665 25.2006L6.53812 24.4444L8.48439 36.9774ZM30.5628 15.4941H32.0504V13.9693H35.7446V12.4817H32.0504V11.3164H34.8397C36.5504 11.3164 37.9264 9.92796 37.9264 8.22962V8.05607C37.9264 6.34533 36.538 4.96931 34.8397 4.96931H31.3066C30.8975 4.96931 30.5628 5.30402 30.5628 5.7131V5.92385V10.5726V12.4817H29.7198V13.9693H30.5628V15.4941ZM32.0504 6.4569H34.8397C35.7198 6.4569 36.4388 7.17591 36.4388 8.05607V8.21723C36.4388 9.09739 35.7198 9.81639 34.8397 9.81639H32.0504V6.4569Z" fill="white"/>
</svg>
