<svg width="26" height="29" viewBox="0 0 26 29" fill="none" xmlns="http://www.w3.org/2000/svg">
<path d="M1.52067 14.6979L3.2154 13.7105L6.53429 19.5115L4.83957 20.4989C4.43915 20.7322 3.96329 20.7954 3.51669 20.6747C3.07008 20.5539 2.6893 20.2591 2.45812 19.855L0.871672 17.0821C0.64049 16.678 0.577841 16.1978 0.69751 15.7471C0.817178 15.2964 1.10936 14.9121 1.50978 14.6788L1.52067 14.6979Z" stroke="white" stroke-linejoin="round"/>
<path d="M17.749 4.81081L17.3828 4.16406" stroke="white" stroke-linejoin="round"/>
<path d="M17.0079 3.51627L16.2713 2.22319C16.1979 2.09594 16.1502 1.9553 16.1309 1.80937C16.1115 1.66344 16.121 1.51509 16.1586 1.37285C16.1963 1.23062 16.2615 1.09729 16.3504 0.980549C16.4393 0.863809 16.5501 0.765958 16.6766 0.692615V0.692615C16.8027 0.61856 16.9421 0.570394 17.0867 0.550876C17.2313 0.531358 17.3783 0.540876 17.5193 0.578888C17.6602 0.616901 17.7924 0.682656 17.908 0.77237C18.0237 0.862084 18.1207 0.973983 18.1934 1.10164L24.8486 12.7393C24.922 12.8666 24.9697 13.0072 24.989 13.1531C25.0084 13.299 24.999 13.4474 24.9613 13.5896C24.9236 13.7319 24.8585 13.8652 24.7696 13.9819C24.6807 14.0987 24.5698 14.1965 24.4433 14.2699C24.1883 14.4182 23.8854 14.4585 23.6011 14.3818C23.3168 14.3052 23.0742 14.1178 22.9265 13.8608L18.1323 5.45588" stroke="white" stroke-linejoin="round"/>
<path d="M16.083 1.89844C16.083 1.89844 14.0389 6.53855 3.19531 13.7164" stroke="white" stroke-linejoin="round"/>
<path d="M23.1153 14.1844C23.1153 14.1844 18.1119 13.6522 6.52734 19.537" stroke="white" stroke-linejoin="round"/>
<path d="M5.96094 15.5585L7.81324 18.7912" stroke="white" stroke-linejoin="round"/>
<path d="M5.21875 14.2656L5.58933 14.9124" stroke="white" stroke-linejoin="round"/>
<path d="M4.48438 12.9746L4.85496 13.6214" stroke="white" stroke-linejoin="round"/>
<path d="M6.52734 19.5328L7.87408 20.9358C8.09441 21.1693 8.38629 21.3211 8.70261 21.3666C9.01894 21.4121 9.34123 21.3486 9.61742 21.1865V21.1865C9.82533 21.0653 9.9993 20.8928 10.123 20.6851L12.6683 16.8191L12.4852 16.498" stroke="white" stroke-linejoin="round"/>
<path d="M13.0469 20.4803L14.3282 19.7326L13.2212 17.793" stroke="white" stroke-linejoin="round"/>
<path d="M11.4512 18.4043L17.3829 26.0308C17.4482 26.1151 17.4949 26.2126 17.5197 26.3167C17.5445 26.4208 17.5468 26.529 17.5265 26.6341C17.5063 26.7392 17.4639 26.8386 17.4023 26.9258C17.3407 27.0129 17.2612 27.0857 17.1693 27.1391L15.5916 28.0584C15.4355 28.1496 15.2516 28.1798 15.0749 28.1433C14.8982 28.1069 14.7408 28.0062 14.6328 27.8604L9.625 21.1884" stroke="white" stroke-linejoin="round"/>
<path d="M2.20312 16.4559L4.12581 15.334" stroke="white" stroke-linejoin="round"/>
<path d="M2.94531 17.7469L4.86799 16.625" stroke="white" stroke-linejoin="round"/>
<path d="M3.67969 19.0418L5.60237 17.9199" stroke="white" stroke-linejoin="round"/>
</svg>
