<svg width="19" height="19" viewBox="0 0 19 19" fill="none" xmlns="http://www.w3.org/2000/svg">
<path d="M6.49207 6.66113L6.41353 6.16734L6.49207 6.66113C6.71304 6.62599 6.90391 6.48732 7.00562 6.28801L9.51172 1.3773L12.0178 6.28801C12.1195 6.48732 12.3104 6.62599 12.5314 6.66113L12.6099 6.16734L12.5314 6.66113L17.9762 7.52708L14.0802 11.428C13.9221 11.5863 13.8492 11.8107 13.8841 12.0317L14.743 17.4776L9.82911 14.9778C9.62968 14.8764 9.39376 14.8764 9.19433 14.9778L4.28041 17.4776L5.13937 12.0317C5.17423 11.8107 5.10133 11.5863 4.94321 11.428L1.04728 7.52708L6.49207 6.66113Z" stroke="#5E5E5E" stroke-linejoin="round"/>
</svg>
