<svg width="51" height="26" viewBox="0 0 51 26" fill="none" xmlns="http://www.w3.org/2000/svg">
<path d="M25.542 25.4374H0.890895C0.801267 25.4371 0.713219 25.4136 0.635399 25.3691C0.557579 25.3247 0.492636 25.2608 0.446907 25.1837C0.399941 25.1093 0.375 25.0232 0.375 24.9353C0.375 24.8473 0.399941 24.7612 0.446907 24.6868L5.97546 12.7841C6.01647 12.6924 6.08327 12.6145 6.16773 12.5601C6.25219 12.5057 6.35065 12.477 6.45113 12.4775H20.0029C20.1046 12.4776 20.2043 12.5064 20.2903 12.5606C20.3764 12.6149 20.4453 12.6923 20.4892 12.7841L26.0177 24.6868C26.0549 24.7671 26.0713 24.8553 26.0655 24.9436C26.0597 25.0318 26.0318 25.1171 25.9845 25.1918C25.9372 25.2665 25.8719 25.3281 25.7946 25.371C25.7173 25.4139 25.6304 25.4367 25.542 25.4374V25.4374ZM1.71542 24.3803H24.707L19.6647 13.5346H6.75769L1.71542 24.3803Z" fill="black"/>
<path d="M50.193 25.4374H25.5418C25.4522 25.4371 25.3641 25.4136 25.2863 25.3691C25.2085 25.3247 25.1436 25.2608 25.0978 25.1837C25.0542 25.1081 25.0313 25.0225 25.0312 24.9353C25.0313 24.8481 25.0542 24.7624 25.0978 24.6868L30.5735 12.7841C30.6145 12.6924 30.6813 12.6145 30.7658 12.5601C30.8502 12.5057 30.9487 12.477 31.0492 12.4775H44.6327C44.7344 12.4776 44.8341 12.5064 44.9201 12.5606C45.0061 12.6149 45.0751 12.6923 45.119 12.7841L50.6581 24.6868C50.6952 24.7671 50.7116 24.8553 50.7058 24.9436C50.7 25.0318 50.6722 25.1171 50.6248 25.1918C50.5775 25.2665 50.5122 25.3281 50.4349 25.371C50.3576 25.4139 50.2708 25.4367 50.1824 25.4374H50.193ZM26.3663 24.3803H49.3579L44.3156 13.5346H31.4086L26.3663 24.3803Z" fill="black"/>
<path d="M37.8685 13.4291H13.2174C13.1289 13.4289 13.042 13.4066 12.9644 13.3641C12.8868 13.3216 12.8212 13.2604 12.7734 13.1859C12.7299 13.1084 12.707 13.0211 12.707 12.9322C12.707 12.8434 12.7299 12.756 12.7734 12.6785L18.2702 0.744071C18.3112 0.65234 18.3781 0.574523 18.4625 0.520092C18.547 0.465662 18.6455 0.43696 18.7459 0.437508H32.3294C32.4312 0.437529 32.5308 0.466331 32.6168 0.520576C32.7029 0.574821 32.7718 0.652305 32.8157 0.744071L38.3442 12.6468C38.3859 12.7249 38.4077 12.812 38.4077 12.9005C38.4077 12.989 38.3859 13.0761 38.3442 13.1542C38.2978 13.2392 38.2288 13.3098 38.1449 13.3583C38.061 13.4068 37.9654 13.4312 37.8685 13.4291ZM14.0419 12.372H37.0334L31.9912 1.5263H19.0842L14.0419 12.372Z" fill="black"/>
<path d="M18.4925 9.48665C18.4198 9.50592 18.3433 9.50592 18.2705 9.48665C18.145 9.42705 18.048 9.32043 18.0006 9.18986C17.9531 9.0593 17.9589 8.91527 18.0168 8.78897L20.2578 3.96868C20.3007 3.87611 20.3694 3.79794 20.4557 3.74354C20.5419 3.68915 20.6421 3.66088 20.7441 3.66215H25.5433C25.6834 3.66215 25.8179 3.71781 25.917 3.81693C26.0161 3.91605 26.0718 4.05051 26.0718 4.19069C26.0691 4.33002 26.0125 4.46288 25.914 4.56142C25.8155 4.65996 25.6826 4.71653 25.5433 4.71923H21.0612L18.9471 9.20125C18.902 9.28371 18.8366 9.35323 18.757 9.4032C18.6774 9.45316 18.5864 9.4819 18.4925 9.48665V9.48665Z" fill="black"/>
<path d="M6.1644 20.9874C6.09112 21.002 6.01571 21.002 5.94243 20.9874C5.81693 20.9278 5.71992 20.8212 5.67245 20.6906C5.62497 20.5601 5.63081 20.416 5.6887 20.2897L7.92971 15.4589C7.97458 15.3679 8.04377 15.2911 8.12959 15.237C8.21542 15.1829 8.31455 15.1536 8.41599 15.1523H13.2151C13.3545 15.155 13.4873 15.2116 13.5859 15.3101C13.6844 15.4087 13.741 15.5416 13.7437 15.6809C13.7437 15.8211 13.688 15.9555 13.5889 16.0546C13.4898 16.1537 13.3553 16.2094 13.2151 16.2094H8.75424L6.64007 20.7337C6.58925 20.8133 6.5188 20.8785 6.43548 20.9229C6.35216 20.9673 6.25881 20.9896 6.1644 20.9874V20.9874Z" fill="black"/>
<path d="M30.8164 20.9874C30.7431 21.002 30.6676 21.002 30.5944 20.9874C30.5313 20.959 30.4745 20.9183 30.4274 20.8676C30.3803 20.8168 30.3439 20.7572 30.3202 20.6922C30.2966 20.6271 30.2862 20.558 30.2897 20.4889C30.2932 20.4198 30.3106 20.3521 30.3407 20.2897L32.5817 15.4589C32.6256 15.3671 32.6945 15.2897 32.7806 15.2354C32.8666 15.1812 32.9662 15.1524 33.0679 15.1523H37.8671C38.0064 15.155 38.1393 15.2116 38.2378 15.3101C38.3364 15.4087 38.3929 15.5416 38.3956 15.6809C38.3956 15.8211 38.3399 15.9555 38.2408 16.0546C38.1417 16.1537 38.0073 16.2094 37.8671 16.2094H33.4062L31.292 20.7337C31.2412 20.8133 31.1708 20.8785 31.0874 20.9229C31.0041 20.9673 30.9108 20.9896 30.8164 20.9874V20.9874Z" fill="black"/>
</svg>
