<svg width="28" height="26" viewBox="0 0 28 26" fill="none" xmlns="http://www.w3.org/2000/svg">
<path d="M27.0785 25.4188H0.969373C0.860427 25.4188 0.75595 25.3755 0.678914 25.2985C0.601878 25.2215 0.558594 25.117 0.558594 25.008V21.6725C0.558594 21.5636 0.601878 21.4591 0.678914 21.382C0.75595 21.305 0.860427 21.2617 0.969373 21.2617H27.0785C27.1874 21.2617 27.2919 21.305 27.369 21.382C27.446 21.4591 27.4893 21.5636 27.4893 21.6725V25.008C27.4893 25.117 27.446 25.2215 27.369 25.2985C27.2919 25.3755 27.1874 25.4188 27.0785 25.4188ZM1.38015 24.5972H26.6677V22.0833H1.36373L1.38015 24.5972Z" fill="black"/>
<path d="M12.332 20.5387H9.16078C9.05183 20.5387 8.94736 20.4954 8.87032 20.4184C8.79328 20.3414 8.75 20.2369 8.75 20.128V11.5016C8.75 11.3927 8.79328 11.2882 8.87032 11.2111C8.94736 11.1341 9.05183 11.0908 9.16078 11.0908H12.332C12.4409 11.0908 12.5454 11.1341 12.6225 11.2111C12.6995 11.2882 12.7428 11.3927 12.7428 11.5016V20.128C12.7428 20.2369 12.6995 20.3414 12.6225 20.4184C12.5454 20.4954 12.4409 20.5387 12.332 20.5387ZM9.57156 19.7172H11.9212V11.9124H9.57978L9.57156 19.7172Z" fill="black"/>
<path d="M5.95698 20.5387H2.78578C2.67683 20.5387 2.57233 20.4954 2.4953 20.4184C2.41826 20.3414 2.375 20.2369 2.375 20.128V11.5016C2.375 11.3927 2.41826 11.2882 2.4953 11.2111C2.57233 11.1341 2.67683 11.0908 2.78578 11.0908H5.95698C6.06592 11.0908 6.1704 11.1341 6.24744 11.2111C6.32447 11.2882 6.36776 11.3927 6.36776 11.5016V20.128C6.36776 20.2369 6.32447 20.3414 6.24744 20.4184C6.1704 20.4954 6.06592 20.5387 5.95698 20.5387ZM3.19656 19.7172H5.5462V11.9124H3.19656V19.7172Z" fill="black"/>
<path d="M18.707 20.5387H15.5358C15.4268 20.5387 15.3224 20.4954 15.2453 20.4184C15.1683 20.3414 15.125 20.2369 15.125 20.128V11.5016C15.125 11.3927 15.1683 11.2882 15.2453 11.2111C15.3224 11.1341 15.4268 11.0908 15.5358 11.0908H18.707C18.8159 11.0908 18.9204 11.1341 18.9975 11.2111C19.0745 11.2882 19.1178 11.3927 19.1178 11.5016V20.128C19.1178 20.2369 19.0745 20.3414 18.9975 20.4184C18.9204 20.4954 18.8159 20.5387 18.707 20.5387ZM15.9466 19.7172H18.2962V11.9124H15.9466V19.7172Z" fill="black"/>
<path d="M25.0906 20.5387H21.903C21.794 20.5387 21.6895 20.4954 21.6125 20.4184C21.5355 20.3414 21.4922 20.2369 21.4922 20.128V11.5016C21.4922 11.3927 21.5355 11.2882 21.6125 11.2111C21.6895 11.1341 21.794 11.0908 21.903 11.0908H25.0742C25.1831 11.0908 25.2876 11.1341 25.3647 11.2111C25.4417 11.2882 25.4849 11.3927 25.4849 11.5016V20.128C25.485 20.2341 25.444 20.3362 25.3705 20.4127C25.297 20.4893 25.1967 20.5345 25.0906 20.5387ZM22.3302 19.7172H24.6798V11.9124H22.3302V19.7172Z" fill="black"/>
<path d="M27.0785 10.3759H0.969379C0.860433 10.3759 0.755956 10.3326 0.67892 10.2556C0.601884 10.1785 0.5586 10.074 0.5586 9.96509V6.63779C0.558174 6.5597 0.580481 6.48317 0.622784 6.41753C0.665087 6.35189 0.725566 6.29995 0.796858 6.26808L13.8596 0.517174C13.911 0.493002 13.9671 0.480469 14.0239 0.480469C14.0807 0.480469 14.1368 0.493002 14.1882 0.517174L27.251 6.26808C27.3223 6.29995 27.3828 6.35189 27.4251 6.41753C27.4674 6.48317 27.4897 6.5597 27.4893 6.63779V9.98153C27.485 10.0876 27.4399 10.1879 27.3633 10.2614C27.2867 10.335 27.1846 10.376 27.0785 10.3759ZM1.38016 9.55431H26.6677V6.89247L14.0239 1.28124L1.36374 6.89247L1.38016 9.55431Z" fill="black"/>
<path d="M14.0247 8.0349C13.6584 8.03652 13.2999 7.92928 12.9946 7.72679C12.6894 7.5243 12.4512 7.23569 12.3102 6.89758C12.1693 6.55948 12.132 6.18713 12.2031 5.82779C12.2742 5.46845 12.4504 5.13833 12.7094 4.87932C12.9684 4.6203 13.2985 4.44408 13.6578 4.37301C14.0172 4.30195 14.3895 4.33924 14.7276 4.48017C15.0657 4.6211 15.3544 4.85929 15.5568 5.16453C15.7593 5.46977 15.8666 5.8283 15.8649 6.19459C15.8649 6.68267 15.6711 7.15075 15.326 7.49587C14.9808 7.841 14.5127 8.0349 14.0247 8.0349ZM14.0247 5.16764C13.8212 5.16602 13.6219 5.22485 13.4519 5.3367C13.2819 5.44855 13.149 5.60837 13.0701 5.79587C12.9911 5.98337 12.9696 6.1901 13.0083 6.38985C13.0469 6.5896 13.1441 6.77337 13.2874 6.91782C13.4307 7.06226 13.6136 7.16088 13.8131 7.20118C14.0125 7.24147 14.2194 7.22162 14.4075 7.14414C14.5956 7.06666 14.7565 6.93503 14.8697 6.76598C14.983 6.59693 15.0434 6.39805 15.0434 6.19459C15.0434 5.92364 14.9363 5.66367 14.7455 5.47131C14.5547 5.27896 14.2956 5.16981 14.0247 5.16764Z" fill="black"/>
</svg>
