<svg width="26" height="26" viewBox="0 0 26 26" fill="none" xmlns="http://www.w3.org/2000/svg">
<path d="M17.627 6.54836C17.6285 6.67264 17.5942 6.79458 17.5284 6.89857C17.4627 7.00257 17.3684 7.08391 17.2578 7.1322C17.1471 7.1805 17.025 7.19355 16.9072 7.16969C16.7893 7.14583 16.681 7.08616 16.5961 6.99827C16.5112 6.91038 16.4535 6.79827 16.4304 6.6763C16.4074 6.55432 16.42 6.42798 16.4667 6.31346C16.5133 6.19893 16.5919 6.10141 16.6924 6.03335C16.7929 5.96529 16.9107 5.92979 17.0308 5.93138C17.1883 5.93345 17.3388 5.99913 17.4501 6.11439C17.5615 6.22965 17.625 6.38537 17.627 6.54836ZM9.79946 11.925C9.79945 11.801 9.76382 11.6799 9.69712 11.5769C9.63041 11.474 9.53564 11.3939 9.42484 11.3468C9.31404 11.2997 9.19222 11.2878 9.07487 11.3126C8.95752 11.3374 8.84994 11.3977 8.76579 11.4859C8.68165 11.5741 8.62475 11.6863 8.60233 11.808C8.57991 11.9298 8.59298 12.0557 8.63988 12.1697C8.68678 12.2838 8.76538 12.3808 8.8657 12.4485C8.96603 12.5162 9.08354 12.5515 9.2033 12.55C9.28327 12.5489 9.36224 12.5315 9.43564 12.4986C9.50904 12.4657 9.5754 12.4181 9.63087 12.3584C9.68633 12.2988 9.72978 12.2284 9.75873 12.1512C9.78767 12.074 9.80152 11.9917 9.79946 11.9089V11.925ZM19.369 11.0115V12.3176L24.8738 8.43937L25.4003 9.24065L19.5625 13.3593L19.369 13.0708V14.8016L24.8738 10.9233L25.4003 11.7246L19.5625 15.8352L19.369 15.5468V17.2775L24.8738 13.3993L25.4003 14.2006L19.5625 18.3192L19.369 18.0307V18.832C19.3694 18.9748 19.3365 19.1157 19.2732 19.2426C19.2098 19.3695 19.1179 19.4788 19.0051 19.5612L16.6359 21.2919C16.4921 21.4008 16.3186 21.4597 16.1404 21.4602C16.0003 21.4579 15.8625 21.4223 15.7378 21.3561C15.6614 21.3165 15.5931 21.2621 15.5365 21.1958L9.53622 25.4266C9.46088 25.4795 9.37177 25.5074 9.28073 25.5067C9.19076 25.5075 9.10234 25.4825 9.02523 25.4346L0.818347 19.9858L1.31386 19.1846L9.27299 24.457L15.2733 20.2262V18.9121L9.53622 22.9586C9.46155 23.0139 9.37251 23.0446 9.28073 23.0467C9.18954 23.0485 9.10013 23.0205 9.02523 22.9666L0.818347 17.5259L1.31386 16.7246L9.27299 21.9971L14.9559 17.9907L15.2733 18.4795V16.4522L9.53622 20.4987C9.46088 20.5516 9.37177 20.5795 9.28073 20.5788C9.19076 20.5796 9.10234 20.5547 9.02523 20.5067L0.818347 15.058L1.31386 14.2567L9.27299 19.5291L15.1417 15.3945L15.2733 15.5948V13.3673L13.2293 12.0131L13.4926 12.4137L9.49751 15.2262C9.4233 15.2824 9.33397 15.3133 9.24201 15.3144C9.15082 15.3162 9.06142 15.2881 8.98651 15.2343L4.91405 12.542C4.85087 12.4973 4.79892 12.4376 4.76256 12.3679C4.7262 12.2982 4.70646 12.2205 4.705 12.1413C4.7036 12.0625 4.72128 11.9845 4.75644 11.9145C4.7916 11.8445 4.84312 11.7848 4.9063 11.7407L7.71677 9.76151L8.23551 10.5628L6.01346 12.1654L9.23427 14.2968L12.8112 11.7727L7.51547 8.15092L1.91002 12.1012L9.27299 16.981L14.7545 13.1189L15.2733 13.9202L9.53622 17.9266C9.46155 17.9819 9.37251 18.0126 9.28073 18.0147C9.18954 18.0165 9.10013 17.9884 9.02523 17.9346L0.818347 12.4939C0.753394 12.4524 0.699529 12.3947 0.66166 12.3261C0.62379 12.2575 0.603124 12.1802 0.601562 12.1012C0.602162 12.0216 0.620671 11.9433 0.655611 11.8723C0.690551 11.8014 0.740969 11.7399 0.802871 11.6926L6.9348 7.37368C6.92731 7.30177 6.92731 7.22925 6.9348 7.15734C6.92978 6.98146 6.96757 6.80709 7.04468 6.65028C7.12179 6.49346 7.23576 6.35923 7.37611 6.25991L9.3504 4.84162C9.51911 4.72585 9.71704 4.66412 9.91947 4.66412C10.1219 4.66412 10.3198 4.72585 10.4885 4.84162L10.5427 4.8817L16.6901 0.546762C16.7668 0.493367 16.8571 0.464844 16.9495 0.464844C17.0419 0.464844 17.1322 0.493367 17.2089 0.546762L25.4157 5.98745C25.4798 6.02998 25.5329 6.08791 25.5707 6.15627C25.6084 6.22463 25.6296 6.30142 25.6325 6.38009C25.6325 6.45982 25.6143 6.53841 25.5793 6.60944C25.5443 6.68047 25.4936 6.74191 25.4312 6.78873L19.369 11.0115ZM11.3557 5.40253L12.6641 6.2679L12.6099 6.18777L16.6979 3.30317C16.7734 3.25047 16.8623 3.22231 16.9534 3.22231C17.0444 3.22231 17.1334 3.25047 17.2089 3.30317L21.2813 5.99547C21.3455 6.03976 21.3986 6.09915 21.4363 6.16879C21.474 6.23844 21.4952 6.31635 21.4981 6.39611C21.498 6.47557 21.4788 6.55376 21.4423 6.62367C21.4059 6.69359 21.3532 6.75305 21.2891 6.79675L18.4631 8.79194L17.9444 7.99065L20.1897 6.38809L16.9689 4.2567L13.4306 6.7567L18.7186 10.2583L24.2931 6.33202L16.9302 1.45221L11.3557 5.40253ZM18.4709 18.6798V11.2359L9.9543 5.62689C9.93851 5.61515 9.91956 5.60882 9.90012 5.60882C9.88067 5.60882 9.86171 5.61515 9.84591 5.62689L7.87161 7.04515C7.86605 7.05772 7.86317 7.0714 7.86317 7.08523C7.86317 7.09905 7.86605 7.11271 7.87161 7.12528C7.87076 7.14297 7.87465 7.16056 7.88285 7.17612C7.89105 7.19167 7.90324 7.20457 7.91808 7.21341L16.032 12.59C16.0962 12.6337 16.1488 12.6932 16.1853 12.7631C16.2218 12.833 16.2409 12.9112 16.2411 12.9907V20.3384L18.4709 18.6798Z" fill="black"/>
</svg>
