<svg width="33" height="26" viewBox="0 0 33 26" fill="none" xmlns="http://www.w3.org/2000/svg">
<path d="M5.94946 19.6577L6.26997 20.5632C6.14162 20.6103 6.00605 20.6347 5.86933 20.6353C5.61833 20.6349 5.37341 20.558 5.16725 20.4149C4.96109 20.2717 4.80349 20.0691 4.71548 19.834L0.813239 8.6401C0.760734 8.48914 0.738664 8.3293 0.748291 8.16976C0.757918 8.01023 0.799058 7.85418 0.869334 7.71063C0.937424 7.56486 1.03427 7.43434 1.15407 7.32694C1.27386 7.21953 1.41413 7.13746 1.56645 7.08563L20.4126 0.499094C20.5636 0.445816 20.7236 0.42283 20.8835 0.431456C21.0434 0.440082 21.2 0.480131 21.3444 0.549345C21.4887 0.618559 21.6181 0.71557 21.7249 0.834812C21.8318 0.954054 21.9141 1.0932 21.9671 1.24428L24.2427 7.74267L23.3293 8.0632L21.0616 1.56479C21.0508 1.53253 21.0337 1.50274 21.0113 1.47717C20.9888 1.4516 20.9615 1.43076 20.9309 1.41584C20.9004 1.40093 20.8671 1.39226 20.8332 1.39031C20.7992 1.38837 20.7652 1.39319 20.7331 1.40452L1.88695 7.99106C1.8536 8.00212 1.82287 8.01993 1.79668 8.04337C1.7705 8.0668 1.7494 8.09536 1.73471 8.12729C1.72098 8.15749 1.71389 8.19027 1.71389 8.22344C1.71389 8.25661 1.72098 8.28939 1.73471 8.31959L5.63696 19.5375C5.666 19.5917 5.71352 19.6336 5.77088 19.6557C5.82823 19.6778 5.89161 19.6785 5.94946 19.6577ZM19.7956 5.78754C19.8723 6.00736 19.9048 6.24021 19.891 6.47264C19.8773 6.70507 19.8176 6.93246 19.7155 7.1417C19.618 7.35361 19.4781 7.54328 19.3045 7.69902C19.1308 7.85475 18.9271 7.97323 18.7059 8.04716L17.8405 8.35165C17.6531 8.42046 17.4551 8.45573 17.2556 8.45582C16.8371 8.45422 16.4327 8.30517 16.1133 8.03488C15.7939 7.7646 15.58 7.39037 15.5092 6.97799C15.4383 6.56561 15.5152 6.14147 15.7261 5.78013C15.9371 5.41878 16.2687 5.14337 16.6626 5.00229L17.528 4.6978C17.7484 4.61934 17.9821 4.58533 18.2157 4.59772C18.4493 4.6101 18.6781 4.66864 18.889 4.76996C19.0998 4.87129 19.2885 5.01338 19.4441 5.18804C19.5997 5.3627 19.7192 5.56644 19.7956 5.78754ZM18.8902 6.10807C18.8563 6.0052 18.8019 5.91026 18.7302 5.82901C18.6586 5.74775 18.5713 5.68184 18.4735 5.63529C18.3626 5.58515 18.2426 5.55792 18.1209 5.55518C18.028 5.55529 17.9358 5.57156 17.8485 5.60326L16.9831 5.90775C16.8821 5.943 16.789 5.99779 16.7092 6.06902C16.6293 6.14024 16.5643 6.22648 16.5178 6.32284C16.4713 6.4192 16.4442 6.52377 16.4381 6.63058C16.4321 6.7374 16.4471 6.84438 16.4823 6.94539C16.5176 7.04641 16.5724 7.13951 16.6436 7.21934C16.7148 7.29918 16.8011 7.36421 16.8974 7.41071C16.9938 7.45722 17.0983 7.48427 17.2052 7.49036C17.312 7.49645 17.419 7.48145 17.52 7.4462L18.3853 7.1417C18.4873 7.10838 18.5816 7.05493 18.6625 6.98449C18.7434 6.91406 18.8094 6.8281 18.8565 6.7317C18.9035 6.6353 18.9308 6.53042 18.9366 6.42329C18.9424 6.31617 18.9266 6.20898 18.8902 6.10807ZM13.193 7.10165L14.0985 6.78914L13.9543 6.36446L13.0488 6.67697L13.193 7.10165ZM11.0777 7.84684L11.9831 7.52633L11.8389 7.10165L10.9254 7.42216L11.0777 7.84684ZM8.96228 8.58403L9.86773 8.27151L9.72349 7.83882L8.82606 8.15133L8.96228 8.58403ZM7.6001 8.58403L6.69465 8.89651L6.84689 9.32119L7.75234 9.00871L7.6001 8.58403ZM4.7235 10.0664L5.62093 9.75389L5.46869 9.32921L4.56323 9.64972L4.7235 10.0664ZM32.4318 10.7955V24.1129C32.4329 24.2857 32.3996 24.4571 32.334 24.617C32.2683 24.7769 32.1716 24.9222 32.0493 25.0444C31.9271 25.1667 31.7818 25.2634 31.6219 25.3291C31.462 25.3948 31.2906 25.428 31.1177 25.427H8.68183C8.33331 25.427 7.99906 25.2885 7.75261 25.0421C7.50617 24.7956 7.36772 24.4614 7.36772 24.1129V10.7955C7.36772 10.447 7.50617 10.1128 7.75261 9.86635C7.99906 9.61991 8.33331 9.48146 8.68183 9.48146H31.1177C31.2906 9.48039 31.462 9.51366 31.6219 9.57932C31.7818 9.64498 31.9271 9.74174 32.0493 9.86398C32.1716 9.98622 32.2683 10.1315 32.334 10.2914C32.3996 10.4513 32.4329 10.6227 32.4318 10.7955ZM8.29721 10.7955V12.6145H31.4703V10.7955C31.4703 10.702 31.4332 10.6124 31.367 10.5462C31.3009 10.4801 31.2112 10.443 31.1177 10.443H8.68183C8.63291 10.4385 8.58359 10.4443 8.53705 10.4601C8.4905 10.4758 8.44775 10.501 8.41154 10.5342C8.37533 10.5674 8.34645 10.6078 8.32676 10.6528C8.30707 10.6978 8.29701 10.7464 8.29721 10.7955ZM31.4703 24.1129V13.576H8.29721V15.8036H29.5632V16.7651H8.29721V24.1129C8.29721 24.2064 8.33436 24.2961 8.40048 24.3622C8.4666 24.4283 8.55627 24.4654 8.64978 24.4654H31.0857C31.1346 24.4699 31.1839 24.4641 31.2305 24.4484C31.277 24.4327 31.3198 24.4074 31.356 24.3742C31.3922 24.341 31.4211 24.3006 31.4407 24.2556C31.4604 24.2106 31.4705 24.162 31.4703 24.1129ZM12.8004 21.709C12.8004 22.0355 12.7036 22.3546 12.5222 22.6261C12.3409 22.8975 12.0831 23.1091 11.7814 23.234C11.4798 23.3589 11.1479 23.3916 10.8277 23.328C10.5076 23.2643 10.2134 23.107 9.9826 22.8762C9.75175 22.6454 9.59454 22.3512 9.53085 22.0311C9.46716 21.7109 9.49985 21.379 9.62479 21.0774C9.74972 20.7757 9.96128 20.5179 10.2327 20.3366C10.5042 20.1552 10.8233 20.0584 11.1498 20.0584C11.3672 20.0541 11.5834 20.0929 11.7858 20.1724C11.9882 20.252 12.1729 20.3707 12.3292 20.5219C12.4856 20.6731 12.6106 20.8536 12.6969 21.0532C12.7833 21.2528 12.8293 21.4675 12.8325 21.685L12.8004 21.709ZM11.8389 21.709C11.8493 21.6128 11.8393 21.5155 11.8097 21.4234C11.78 21.3313 11.7312 21.2465 11.6666 21.1745C11.602 21.1025 11.5229 21.0449 11.4346 21.0055C11.3462 20.9661 11.2505 20.9457 11.1538 20.9457C11.057 20.9457 10.9614 20.9661 10.873 21.0055C10.7846 21.0449 10.7056 21.1025 10.641 21.1745C10.5763 21.2465 10.5276 21.3313 10.4979 21.4234C10.4682 21.5155 10.4583 21.6128 10.4687 21.709C10.4687 21.7985 10.4863 21.887 10.5205 21.9697C10.5548 22.0523 10.6049 22.1274 10.6682 22.1906C10.7314 22.2539 10.8065 22.304 10.8891 22.3383C10.9718 22.3725 11.0603 22.3901 11.1498 22.3901C11.2416 22.3901 11.3326 22.3718 11.4172 22.3362C11.5019 22.3005 11.5786 22.2483 11.6428 22.1826C11.707 22.1169 11.7574 22.0391 11.7911 21.9536C11.8248 21.8681 11.841 21.7768 11.8389 21.685V21.709ZM14.0745 23.3516H15.3325V22.3901H14.0745V23.3516ZM18.81 20.0584H14.0745V20.9718H18.81V20.0584ZM17.3357 23.3516H21.8549V22.3901H17.3357V23.3516Z" fill="black"/>
</svg>
