<svg width="19" height="17" viewBox="0 0 19 17" fill="none" xmlns="http://www.w3.org/2000/svg">
<path d="M16.7667 5.94876C16.2034 4.39476 15.1429 3.07014 13.7498 2.1804C12.3567 1.29065 10.709 0.885538 9.06215 1.02791C7.41534 1.17027 5.86154 1.85216 4.64184 2.96778C3.42213 4.0834 2.60472 5.57036 2.31641 7.19799" stroke="white" stroke-width="1.5" stroke-miterlimit="10"/>
<path d="M18.7644 4.95117L17.1909 9.15834L14.332 5.69291L18.7644 4.95117Z" fill="white"/>
<path d="M2.76953 11.0578C3.33378 12.6105 4.39438 13.9336 5.78697 14.8223C7.17956 15.7109 8.82638 16.1154 10.4722 15.9731C12.118 15.8308 13.671 15.1496 14.8904 14.0351C16.1097 12.9206 16.9275 11.435 17.2168 9.80859" stroke="white" stroke-width="1.5" stroke-miterlimit="10"/>
<path d="M0.777344 12.0568L2.3479 7.84961L5.20673 11.315L0.777344 12.0568Z" fill="white"/>
</svg>
