<svg width="28" height="27" viewBox="0 0 28 27" fill="none" xmlns="http://www.w3.org/2000/svg">
<path d="M14.4229 13.0489C16.3824 13.0489 17.9709 11.5308 17.9709 9.65801C17.9709 7.78526 16.3824 6.26709 14.4229 6.26709C12.4635 6.26709 10.875 7.78526 10.875 9.65801C10.875 11.5308 12.4635 13.0489 14.4229 13.0489Z" fill="#CBB04F"/>
<path d="M14.4375 26C21.3411 26 26.9375 20.4036 26.9375 13.5C26.9375 6.59644 21.3411 1 14.4375 1C7.53394 1 1.9375 6.59644 1.9375 13.5C1.9375 20.4036 7.53394 26 14.4375 26Z" stroke="#CBB04F" stroke-width="2" stroke-miterlimit="10"/>
<path d="M17.0882 13.488C16.2966 13.9892 15.3681 14.2564 14.4186 14.2564C13.4691 14.2564 12.5406 13.9892 11.749 13.488C10.5266 13.8654 9.44348 14.5709 8.6291 15.5205C7.81471 16.47 7.30342 17.6235 7.15625 18.8432C7.15765 18.91 7.17321 18.9758 7.202 19.0367C7.23078 19.0976 7.27219 19.1523 7.32371 19.1974C7.37523 19.2425 7.4358 19.2772 7.50175 19.2993C7.5677 19.3215 7.63766 19.3305 7.7074 19.3261H21.1758C21.245 19.3306 21.3144 19.3214 21.3797 19.2992C21.445 19.277 21.5049 19.2422 21.5555 19.1969C21.6061 19.1516 21.6464 19.0968 21.674 19.036C21.7015 18.9751 21.7156 18.9095 21.7154 18.8432C21.5669 17.6191 21.0511 16.4622 20.23 15.5119C19.409 14.5617 18.3178 13.8589 17.0882 13.488Z" fill="#CBB04F"/>
</svg>
