<svg width="231" height="34" viewBox="0 0 231 34" fill="none" xmlns="http://www.w3.org/2000/svg">
<path d="M17.187 0.599999V12.5H1.479V0.599999H4.216V10.256H7.973V0.599999H10.71V10.256H14.45V0.599999H17.187ZM23.9642 9.032H22.5872V12.5H19.9352V3.354H22.5872V6.907H24.0152L26.4972 3.354H29.3192L26.1232 7.74L29.5402 12.5H26.4122L23.9642 9.032ZM34.8442 12.636C33.8808 12.636 33.0138 12.4377 32.2432 12.041C31.4838 11.633 30.8888 11.072 30.4582 10.358C30.0275 9.644 29.8122 8.83367 29.8122 7.927C29.8122 7.02033 30.0275 6.21 30.4582 5.496C30.8888 4.782 31.4838 4.22667 32.2432 3.83C33.0138 3.422 33.8808 3.218 34.8442 3.218C35.8075 3.218 36.6688 3.422 37.4282 3.83C38.1875 4.22667 38.7825 4.782 39.2132 5.496C39.6438 6.21 39.8592 7.02033 39.8592 7.927C39.8592 8.83367 39.6438 9.644 39.2132 10.358C38.7825 11.072 38.1875 11.633 37.4282 12.041C36.6688 12.4377 35.8075 12.636 34.8442 12.636ZM34.8442 10.46C35.5242 10.46 36.0795 10.2333 36.5102 9.78C36.9522 9.31533 37.1732 8.69767 37.1732 7.927C37.1732 7.15633 36.9522 6.54433 36.5102 6.091C36.0795 5.62633 35.5242 5.394 34.8442 5.394C34.1642 5.394 33.6032 5.62633 33.1612 6.091C32.7192 6.54433 32.4982 7.15633 32.4982 7.927C32.4982 8.69767 32.7192 9.31533 33.1612 9.78C33.6032 10.2333 34.1642 10.46 34.8442 10.46ZM50.3224 3.354V12.5H47.6704V5.53H44.7804L44.6954 7.145C44.6501 8.34633 44.5367 9.34367 44.3554 10.137C44.1741 10.9303 43.8794 11.5537 43.4714 12.007C43.0634 12.4603 42.4967 12.687 41.7714 12.687C41.3861 12.687 40.9271 12.619 40.3944 12.483L40.5304 10.307C40.7117 10.3297 40.8421 10.341 40.9214 10.341C41.3181 10.341 41.6127 10.1993 41.8054 9.916C42.0094 9.62133 42.1454 9.253 42.2134 8.811C42.2814 8.35767 42.3324 7.76267 42.3664 7.026L42.5024 3.354H50.3224ZM56.4257 3.218C57.8423 3.218 58.9303 3.558 59.6897 4.238C60.449 4.90667 60.8287 5.921 60.8287 7.281V12.5H58.3467V11.361C57.848 12.211 56.9187 12.636 55.5587 12.636C54.856 12.636 54.244 12.517 53.7227 12.279C53.2127 12.041 52.8217 11.7123 52.5497 11.293C52.2777 10.8737 52.1417 10.3977 52.1417 9.865C52.1417 9.015 52.459 8.34633 53.0937 7.859C53.7397 7.37167 54.7313 7.128 56.0687 7.128H58.1767C58.1767 6.55 58.001 6.108 57.6497 5.802C57.2983 5.48467 56.7713 5.326 56.0687 5.326C55.5813 5.326 55.0997 5.40533 54.6237 5.564C54.159 5.71133 53.7623 5.91533 53.4337 6.176L52.4817 4.323C52.9803 3.97167 53.5753 3.69967 54.2667 3.507C54.9693 3.31433 55.689 3.218 56.4257 3.218ZM56.2217 10.851C56.675 10.851 57.0773 10.749 57.4287 10.545C57.78 10.3297 58.0293 10.018 58.1767 9.61V8.675H56.3577C55.2697 8.675 54.7257 9.032 54.7257 9.746C54.7257 10.086 54.856 10.358 55.1167 10.562C55.3887 10.7547 55.757 10.851 56.2217 10.851ZM71.9759 9.032H70.5989V12.5H67.9469V3.354H70.5989V6.907H72.0269L74.5089 3.354H77.3309L74.1349 7.74L77.5519 12.5H74.4239L71.9759 9.032ZM82.2411 3.218C83.6578 3.218 84.7458 3.558 85.5051 4.238C86.2644 4.90667 86.6441 5.921 86.6441 7.281V12.5H84.1621V11.361C83.6634 12.211 82.7341 12.636 81.3741 12.636C80.6714 12.636 80.0594 12.517 79.5381 12.279C79.0281 12.041 78.6371 11.7123 78.3651 11.293C78.0931 10.8737 77.9571 10.3977 77.9571 9.865C77.9571 9.015 78.2744 8.34633 78.9091 7.859C79.5551 7.37167 80.5468 7.128 81.8841 7.128H83.9921C83.9921 6.55 83.8164 6.108 83.4651 5.802C83.1138 5.48467 82.5868 5.326 81.8841 5.326C81.3968 5.326 80.9151 5.40533 80.4391 5.564C79.9744 5.71133 79.5778 5.91533 79.2491 6.176L78.2971 4.323C78.7958 3.97167 79.3908 3.69967 80.0821 3.507C80.7848 3.31433 81.5044 3.218 82.2411 3.218ZM82.0371 10.851C82.4904 10.851 82.8928 10.749 83.2441 10.545C83.5954 10.3297 83.8448 10.018 83.9921 9.61V8.675H82.1731C81.0851 8.675 80.5411 9.032 80.5411 9.746C80.5411 10.086 80.6714 10.358 80.9321 10.562C81.2041 10.7547 81.5724 10.851 82.0371 10.851ZM94.3369 3.218C95.1869 3.218 95.9575 3.41633 96.6489 3.813C97.3515 4.19833 97.9012 4.748 98.2979 5.462C98.6945 6.16467 98.8929 6.98633 98.8929 7.927C98.8929 8.86767 98.6945 9.695 98.2979 10.409C97.9012 11.1117 97.3515 11.6613 96.6489 12.058C95.9575 12.4433 95.1869 12.636 94.3369 12.636C93.1695 12.636 92.2515 12.2677 91.5829 11.531V15.798H88.9309V3.354H91.4639V4.408C92.1212 3.61467 93.0789 3.218 94.3369 3.218ZM93.8779 10.46C94.5579 10.46 95.1132 10.2333 95.5439 9.78C95.9859 9.31533 96.2069 8.69767 96.2069 7.927C96.2069 7.15633 95.9859 6.54433 95.5439 6.091C95.1132 5.62633 94.5579 5.394 93.8779 5.394C93.1979 5.394 92.6369 5.62633 92.1949 6.091C91.7642 6.54433 91.5489 7.15633 91.5489 7.927C91.5489 8.69767 91.7642 9.31533 92.1949 9.78C92.6369 10.2333 93.1979 10.46 93.8779 10.46ZM105.699 6.278C106.889 6.28933 107.801 6.56133 108.436 7.094C109.07 7.61533 109.388 8.35767 109.388 9.321C109.388 10.3297 109.031 11.1173 108.317 11.684C107.614 12.2393 106.622 12.517 105.342 12.517L100.752 12.5V3.354H103.387V6.278H105.699ZM105.104 10.63C105.614 10.6413 106.005 10.5337 106.277 10.307C106.549 10.0803 106.685 9.74033 106.685 9.287C106.685 8.845 106.549 8.522 106.277 8.318C106.016 8.114 105.625 8.00633 105.104 7.995L103.387 7.978V10.63H105.104ZM119.936 7.961C119.936 7.995 119.919 8.233 119.885 8.675H112.966C113.09 9.24167 113.385 9.68933 113.85 10.018C114.314 10.3467 114.892 10.511 115.584 10.511C116.06 10.511 116.479 10.443 116.842 10.307C117.216 10.1597 117.561 9.933 117.879 9.627L119.29 11.157C118.428 12.143 117.17 12.636 115.516 12.636C114.484 12.636 113.572 12.4377 112.779 12.041C111.985 11.633 111.373 11.072 110.943 10.358C110.512 9.644 110.297 8.83367 110.297 7.927C110.297 7.03167 110.506 6.227 110.926 5.513C111.356 4.78767 111.94 4.22667 112.677 3.83C113.425 3.422 114.258 3.218 115.176 3.218C116.071 3.218 116.881 3.41067 117.607 3.796C118.332 4.18133 118.899 4.73667 119.307 5.462C119.726 6.176 119.936 7.009 119.936 7.961ZM115.193 5.224C114.592 5.224 114.088 5.394 113.68 5.734C113.272 6.074 113.022 6.53867 112.932 7.128H117.437C117.346 6.55 117.097 6.091 116.689 5.751C116.281 5.39967 115.782 5.224 115.193 5.224ZM127.357 3.218C128.207 3.218 128.978 3.41633 129.669 3.813C130.372 4.19833 130.922 4.748 131.318 5.462C131.715 6.16467 131.913 6.98633 131.913 7.927C131.913 8.86767 131.715 9.695 131.318 10.409C130.922 11.1117 130.372 11.6613 129.669 12.058C128.978 12.4433 128.207 12.636 127.357 12.636C126.19 12.636 125.272 12.2677 124.603 11.531V15.798H121.951V3.354H124.484V4.408C125.142 3.61467 126.099 3.218 127.357 3.218ZM126.898 10.46C127.578 10.46 128.134 10.2333 128.564 9.78C129.006 9.31533 129.227 8.69767 129.227 7.927C129.227 7.15633 129.006 6.54433 128.564 6.091C128.134 5.62633 127.578 5.394 126.898 5.394C126.218 5.394 125.657 5.62633 125.215 6.091C124.785 6.54433 124.569 7.15633 124.569 7.927C124.569 8.69767 124.785 9.31533 125.215 9.78C125.657 10.2333 126.218 10.46 126.898 10.46ZM133.772 3.354H136.407V6.924H140.385V3.354H143.037V12.5H140.385V9.083H136.407V12.5H133.772V3.354ZM149.86 12.636C148.896 12.636 148.029 12.4377 147.259 12.041C146.499 11.633 145.904 11.072 145.474 10.358C145.043 9.644 144.828 8.83367 144.828 7.927C144.828 7.02033 145.043 6.21 145.474 5.496C145.904 4.782 146.499 4.22667 147.259 3.83C148.029 3.422 148.896 3.218 149.86 3.218C150.823 3.218 151.684 3.422 152.444 3.83C153.203 4.22667 153.798 4.782 154.229 5.496C154.659 6.21 154.875 7.02033 154.875 7.927C154.875 8.83367 154.659 9.644 154.229 10.358C153.798 11.072 153.203 11.633 152.444 12.041C151.684 12.4377 150.823 12.636 149.86 12.636ZM149.86 10.46C150.54 10.46 151.095 10.2333 151.526 9.78C151.968 9.31533 152.189 8.69767 152.189 7.927C152.189 7.15633 151.968 6.54433 151.526 6.091C151.095 5.62633 150.54 5.394 149.86 5.394C149.18 5.394 148.619 5.62633 148.177 6.091C147.735 6.54433 147.514 7.15633 147.514 7.927C147.514 8.69767 147.735 9.31533 148.177 9.78C148.619 10.2333 149.18 10.46 149.86 10.46ZM164.026 5.53H159.334V12.5H156.699V3.354H164.026V5.53ZM169.333 12.636C168.37 12.636 167.503 12.4377 166.732 12.041C165.973 11.633 165.378 11.072 164.947 10.358C164.517 9.644 164.301 8.83367 164.301 7.927C164.301 7.02033 164.517 6.21 164.947 5.496C165.378 4.782 165.973 4.22667 166.732 3.83C167.503 3.422 168.37 3.218 169.333 3.218C170.297 3.218 171.158 3.422 171.917 3.83C172.677 4.22667 173.272 4.782 173.702 5.496C174.133 6.21 174.348 7.02033 174.348 7.927C174.348 8.83367 174.133 9.644 173.702 10.358C173.272 11.072 172.677 11.633 171.917 12.041C171.158 12.4377 170.297 12.636 169.333 12.636ZM169.333 10.46C170.013 10.46 170.569 10.2333 170.999 9.78C171.441 9.31533 171.662 8.69767 171.662 7.927C171.662 7.15633 171.441 6.54433 170.999 6.091C170.569 5.62633 170.013 5.394 169.333 5.394C168.653 5.394 168.092 5.62633 167.65 6.091C167.208 6.54433 166.987 7.15633 166.987 7.927C166.987 8.69767 167.208 9.31533 167.65 9.78C168.092 10.2333 168.653 10.46 169.333 10.46ZM186.376 3.218C187.226 3.218 187.997 3.41633 188.688 3.813C189.391 4.19833 189.94 4.748 190.337 5.462C190.734 6.16467 190.932 6.98633 190.932 7.927C190.932 8.86767 190.734 9.695 190.337 10.409C189.94 11.1117 189.391 11.6613 188.688 12.058C187.997 12.4433 187.226 12.636 186.376 12.636C185.209 12.636 184.291 12.2677 183.622 11.531V15.798H180.97V3.354H183.503V4.408C184.16 3.61467 185.118 3.218 186.376 3.218ZM185.917 10.46C186.597 10.46 187.152 10.2333 187.583 9.78C188.025 9.31533 188.246 8.69767 188.246 7.927C188.246 7.15633 188.025 6.54433 187.583 6.091C187.152 5.62633 186.597 5.394 185.917 5.394C185.237 5.394 184.676 5.62633 184.234 6.091C183.803 6.54433 183.588 7.15633 183.588 7.927C183.588 8.69767 183.803 9.31533 184.234 9.78C184.676 10.2333 185.237 10.46 185.917 10.46ZM197.075 12.636C196.111 12.636 195.244 12.4377 194.474 12.041C193.714 11.633 193.119 11.072 192.689 10.358C192.258 9.644 192.043 8.83367 192.043 7.927C192.043 7.02033 192.258 6.21 192.689 5.496C193.119 4.782 193.714 4.22667 194.474 3.83C195.244 3.422 196.111 3.218 197.075 3.218C198.038 3.218 198.899 3.422 199.659 3.83C200.418 4.22667 201.013 4.782 201.444 5.496C201.874 6.21 202.09 7.02033 202.09 7.927C202.09 8.83367 201.874 9.644 201.444 10.358C201.013 11.072 200.418 11.633 199.659 12.041C198.899 12.4377 198.038 12.636 197.075 12.636ZM197.075 10.46C197.755 10.46 198.31 10.2333 198.741 9.78C199.183 9.31533 199.404 8.69767 199.404 7.927C199.404 7.15633 199.183 6.54433 198.741 6.091C198.31 5.62633 197.755 5.394 197.075 5.394C196.395 5.394 195.834 5.62633 195.392 6.091C194.95 6.54433 194.729 7.15633 194.729 7.927C194.729 8.69767 194.95 9.31533 195.392 9.78C195.834 10.2333 196.395 10.46 197.075 10.46ZM208.266 12.636C207.291 12.636 206.413 12.4377 205.631 12.041C204.86 11.633 204.254 11.072 203.812 10.358C203.381 9.644 203.166 8.83367 203.166 7.927C203.166 7.02033 203.381 6.21 203.812 5.496C204.254 4.782 204.86 4.22667 205.631 3.83C206.413 3.422 207.291 3.218 208.266 3.218C209.229 3.218 210.068 3.422 210.782 3.83C211.507 4.22667 212.034 4.799 212.363 5.547L210.306 6.652C209.83 5.81333 209.144 5.394 208.249 5.394C207.557 5.394 206.985 5.62067 206.532 6.074C206.078 6.52733 205.852 7.145 205.852 7.927C205.852 8.709 206.078 9.32667 206.532 9.78C206.985 10.2333 207.557 10.46 208.249 10.46C209.155 10.46 209.841 10.0407 210.306 9.202L212.363 10.324C212.034 11.0493 211.507 11.616 210.782 12.024C210.068 12.432 209.229 12.636 208.266 12.636ZM221.625 5.53H218.531V12.5H215.896V5.53H212.802V3.354H221.625V5.53ZM226.592 3.218C228.008 3.218 229.096 3.558 229.856 4.238C230.615 4.90667 230.995 5.921 230.995 7.281V12.5H228.513V11.361C228.014 12.211 227.085 12.636 225.725 12.636C225.022 12.636 224.41 12.517 223.889 12.279C223.379 12.041 222.988 11.7123 222.716 11.293C222.444 10.8737 222.308 10.3977 222.308 9.865C222.308 9.015 222.625 8.34633 223.26 7.859C223.906 7.37167 224.897 7.128 226.235 7.128H228.343C228.343 6.55 228.167 6.108 227.816 5.802C227.464 5.48467 226.937 5.326 226.235 5.326C225.747 5.326 225.266 5.40533 224.79 5.564C224.325 5.71133 223.928 5.91533 223.6 6.176L222.648 4.323C223.146 3.97167 223.741 3.69967 224.433 3.507C225.135 3.31433 225.855 3.218 226.592 3.218ZM226.388 10.851C226.841 10.851 227.243 10.749 227.595 10.545C227.946 10.3297 228.195 10.018 228.343 9.61V8.675H226.524C225.436 8.675 224.892 9.032 224.892 9.746C224.892 10.086 225.022 10.358 225.283 10.562C225.555 10.7547 225.923 10.851 226.388 10.851ZM9.537 30.95H4.012L2.958 33.5H0.136L5.44 21.6H8.16L13.481 33.5H10.591L9.537 30.95ZM8.67 28.859L6.783 24.303L4.896 28.859H8.67ZM14.8551 24.354H17.4901V27.924H21.4681V24.354H24.1201V33.5H21.4681V30.083H17.4901V33.5H14.8551V24.354ZM26.6588 24.354H29.2938V27.924H33.2718V24.354H35.9238V33.5H33.2718V30.083H29.2938V33.5H26.6588V24.354ZM43.2735 27.278C44.4635 27.2893 45.3645 27.5557 45.9765 28.077C46.5885 28.5983 46.8945 29.3463 46.8945 30.321C46.8945 31.341 46.5488 32.1287 45.8575 32.684C45.1662 33.2393 44.1858 33.517 42.9165 33.517L38.4625 33.5V24.354H41.0975V27.278H43.2735ZM47.8805 24.354H50.5155V33.5H47.8805V24.354ZM42.6785 31.63C43.1885 31.6413 43.5795 31.5337 43.8515 31.307C44.1235 31.0803 44.2595 30.7403 44.2595 30.287C44.2595 29.845 44.1235 29.522 43.8515 29.318C43.5908 29.114 43.1998 29.0063 42.6785 28.995L41.0975 28.978V31.63H42.6785ZM64.8563 27.295C65.5477 27.533 66.086 27.907 66.4713 28.417C66.868 28.9157 67.0663 29.4993 67.0663 30.168C67.0663 30.8933 66.8283 31.5223 66.3523 32.055C65.8763 32.5877 65.2303 32.9957 64.4143 33.279C63.6097 33.5623 62.7257 33.704 61.7623 33.704C60.9463 33.704 60.1303 33.602 59.3143 33.398C58.5097 33.194 57.7447 32.8823 57.0193 32.463L57.8693 30.491C58.3907 30.8083 58.963 31.052 59.5863 31.222C60.221 31.3807 60.8387 31.46 61.4393 31.46C62.2553 31.46 62.9297 31.3127 63.4623 31.018C64.0063 30.7233 64.2783 30.3097 64.2783 29.777C64.2783 29.335 64.0913 29.0007 63.7173 28.774C63.3547 28.5473 62.856 28.434 62.2213 28.434H59.3143V26.36H62.0173C62.5727 26.36 63.0033 26.2467 63.3093 26.02C63.6267 25.7933 63.7853 25.4817 63.7853 25.085C63.7853 24.6203 63.5587 24.2577 63.1053 23.997C62.6633 23.7363 62.091 23.606 61.3883 23.606C60.867 23.606 60.3287 23.6797 59.7733 23.827C59.218 23.963 58.691 24.1727 58.1923 24.456L57.3593 22.314C58.6173 21.668 59.9773 21.345 61.4393 21.345C62.3687 21.345 63.2243 21.481 64.0063 21.753C64.7883 22.025 65.4117 22.4217 65.8763 22.943C66.341 23.4643 66.5733 24.0707 66.5733 24.762C66.5733 25.3287 66.4203 25.833 66.1143 26.275C65.8083 26.717 65.389 27.057 64.8563 27.295ZM69.0426 24.354H71.6776V27.924H75.6556V24.354H78.3076V33.5H75.6556V30.083H71.6776V33.5H69.0426V24.354ZM84.3993 24.218C85.816 24.218 86.904 24.558 87.6633 25.238C88.4226 25.9067 88.8023 26.921 88.8023 28.281V33.5H86.3203V32.361C85.8216 33.211 84.8923 33.636 83.5323 33.636C82.8296 33.636 82.2176 33.517 81.6963 33.279C81.1863 33.041 80.7953 32.7123 80.5233 32.293C80.2513 31.8737 80.1153 31.3977 80.1153 30.865C80.1153 30.015 80.4326 29.3463 81.0673 28.859C81.7133 28.3717 82.705 28.128 84.0423 28.128H86.1503C86.1503 27.55 85.9746 27.108 85.6233 26.802C85.272 26.4847 84.745 26.326 84.0423 26.326C83.555 26.326 83.0733 26.4053 82.5973 26.564C82.1326 26.7113 81.736 26.9153 81.4073 27.176L80.4553 25.323C80.954 24.9717 81.549 24.6997 82.2403 24.507C82.943 24.3143 83.6626 24.218 84.3993 24.218ZM84.1953 31.851C84.6486 31.851 85.051 31.749 85.4023 31.545C85.7536 31.3297 86.003 31.018 86.1503 30.61V29.675H84.3313C83.2433 29.675 82.6993 30.032 82.6993 30.746C82.6993 31.086 82.8296 31.358 83.0903 31.562C83.3623 31.7547 83.7306 31.851 84.1953 31.851ZM100.031 33.5V28.026L97.2941 32.616H96.1721L93.5031 28.009V33.5H91.1061V24.354H93.8771L96.8011 29.641L99.9121 24.354H102.394L102.428 33.5H100.031ZM113.859 28.961C113.859 28.995 113.842 29.233 113.808 29.675H106.889C107.014 30.2417 107.309 30.6893 107.773 31.018C108.238 31.3467 108.816 31.511 109.507 31.511C109.983 31.511 110.403 31.443 110.765 31.307C111.139 31.1597 111.485 30.933 111.802 30.627L113.213 32.157C112.352 33.143 111.094 33.636 109.439 33.636C108.408 33.636 107.496 33.4377 106.702 33.041C105.909 32.633 105.297 32.072 104.866 31.358C104.436 30.644 104.22 29.8337 104.22 28.927C104.22 28.0317 104.43 27.227 104.849 26.513C105.28 25.7877 105.864 25.2267 106.6 24.83C107.348 24.422 108.181 24.218 109.099 24.218C109.995 24.218 110.805 24.4107 111.53 24.796C112.256 25.1813 112.822 25.7367 113.23 26.462C113.65 27.176 113.859 28.009 113.859 28.961ZM109.116 26.224C108.516 26.224 108.011 26.394 107.603 26.734C107.195 27.074 106.946 27.5387 106.855 28.128H111.36C111.27 27.55 111.02 27.091 110.612 26.751C110.204 26.3997 109.706 26.224 109.116 26.224ZM115.892 24.354H118.527V27.924H122.505V24.354H125.157V33.5H122.505V30.083H118.527V33.5H115.892V24.354ZM132.048 33.636C131.073 33.636 130.195 33.4377 129.413 33.041C128.642 32.633 128.036 32.072 127.594 31.358C127.163 30.644 126.948 29.8337 126.948 28.927C126.948 28.0203 127.163 27.21 127.594 26.496C128.036 25.782 128.642 25.2267 129.413 24.83C130.195 24.422 131.073 24.218 132.048 24.218C133.011 24.218 133.85 24.422 134.564 24.83C135.289 25.2267 135.816 25.799 136.145 26.547L134.088 27.652C133.612 26.8133 132.926 26.394 132.031 26.394C131.34 26.394 130.767 26.6207 130.314 27.074C129.861 27.5273 129.634 28.145 129.634 28.927C129.634 29.709 129.861 30.3267 130.314 30.78C130.767 31.2333 131.34 31.46 132.031 31.46C132.938 31.46 133.623 31.0407 134.088 30.202L136.145 31.324C135.816 32.0493 135.289 32.616 134.564 33.024C133.85 33.432 133.011 33.636 132.048 33.636ZM141.785 30.032H140.408V33.5H137.756V24.354H140.408V27.907H141.836L144.318 24.354H147.14L143.944 28.74L147.361 33.5H144.233L141.785 30.032ZM152.665 33.636C151.702 33.636 150.835 33.4377 150.064 33.041C149.305 32.633 148.71 32.072 148.279 31.358C147.849 30.644 147.633 29.8337 147.633 28.927C147.633 28.0203 147.849 27.21 148.279 26.496C148.71 25.782 149.305 25.2267 150.064 24.83C150.835 24.422 151.702 24.218 152.665 24.218C153.629 24.218 154.49 24.422 155.249 24.83C156.009 25.2267 156.604 25.782 157.034 26.496C157.465 27.21 157.68 28.0203 157.68 28.927C157.68 29.8337 157.465 30.644 157.034 31.358C156.604 32.072 156.009 32.633 155.249 33.041C154.49 33.4377 153.629 33.636 152.665 33.636ZM152.665 31.46C153.345 31.46 153.901 31.2333 154.331 30.78C154.773 30.3153 154.994 29.6977 154.994 28.927C154.994 28.1563 154.773 27.5443 154.331 27.091C153.901 26.6263 153.345 26.394 152.665 26.394C151.985 26.394 151.424 26.6263 150.982 27.091C150.54 27.5443 150.319 28.1563 150.319 28.927C150.319 29.6977 150.54 30.3153 150.982 30.78C151.424 31.2333 151.985 31.46 152.665 31.46ZM159.504 24.354H162.139V29.794L166.593 24.354H169.024V33.5H166.389V28.06L161.952 33.5H159.504V24.354ZM164.094 23.368C162.1 23.368 161.097 22.4897 161.085 20.733H162.819C162.831 21.1297 162.938 21.4413 163.142 21.668C163.358 21.8833 163.669 21.991 164.077 21.991C164.485 21.991 164.797 21.8833 165.012 21.668C165.239 21.4413 165.352 21.1297 165.352 20.733H167.12C167.109 22.4897 166.1 23.368 164.094 23.368Z" fill="white"/>
</svg>
