<svg width="233" height="47" viewBox="0 0 233 47" fill="none" xmlns="http://www.w3.org/2000/svg">
<path d="M17.187 7.6V19.5H1.479V7.6H4.216V17.256H7.973V7.6H10.71V17.256H14.45V7.6H17.187ZM23.9642 16.032H22.5872V19.5H19.9352V10.354H22.5872V13.907H24.0152L26.4972 10.354H29.3192L26.1232 14.74L29.5402 19.5H26.4122L23.9642 16.032ZM34.8442 19.636C33.8808 19.636 33.0138 19.4377 32.2432 19.041C31.4838 18.633 30.8888 18.072 30.4582 17.358C30.0275 16.644 29.8122 15.8337 29.8122 14.927C29.8122 14.0203 30.0275 13.21 30.4582 12.496C30.8888 11.782 31.4838 11.2267 32.2432 10.83C33.0138 10.422 33.8808 10.218 34.8442 10.218C35.8075 10.218 36.6688 10.422 37.4282 10.83C38.1875 11.2267 38.7825 11.782 39.2132 12.496C39.6438 13.21 39.8592 14.0203 39.8592 14.927C39.8592 15.8337 39.6438 16.644 39.2132 17.358C38.7825 18.072 38.1875 18.633 37.4282 19.041C36.6688 19.4377 35.8075 19.636 34.8442 19.636ZM34.8442 17.46C35.5242 17.46 36.0795 17.2333 36.5102 16.78C36.9522 16.3153 37.1732 15.6977 37.1732 14.927C37.1732 14.1563 36.9522 13.5443 36.5102 13.091C36.0795 12.6263 35.5242 12.394 34.8442 12.394C34.1642 12.394 33.6032 12.6263 33.1612 13.091C32.7192 13.5443 32.4982 14.1563 32.4982 14.927C32.4982 15.6977 32.7192 16.3153 33.1612 16.78C33.6032 17.2333 34.1642 17.46 34.8442 17.46ZM50.3224 10.354V19.5H47.6704V12.53H44.7804L44.6954 14.145C44.6501 15.3463 44.5367 16.3437 44.3554 17.137C44.1741 17.9303 43.8794 18.5537 43.4714 19.007C43.0634 19.4603 42.4967 19.687 41.7714 19.687C41.3861 19.687 40.9271 19.619 40.3944 19.483L40.5304 17.307C40.7117 17.3297 40.8421 17.341 40.9214 17.341C41.3181 17.341 41.6127 17.1993 41.8054 16.916C42.0094 16.6213 42.1454 16.253 42.2134 15.811C42.2814 15.3577 42.3324 14.7627 42.3664 14.026L42.5024 10.354H50.3224ZM56.4257 10.218C57.8423 10.218 58.9303 10.558 59.6897 11.238C60.449 11.9067 60.8287 12.921 60.8287 14.281V19.5H58.3467V18.361C57.848 19.211 56.9187 19.636 55.5587 19.636C54.856 19.636 54.244 19.517 53.7227 19.279C53.2127 19.041 52.8217 18.7123 52.5497 18.293C52.2777 17.8737 52.1417 17.3977 52.1417 16.865C52.1417 16.015 52.459 15.3463 53.0937 14.859C53.7397 14.3717 54.7313 14.128 56.0687 14.128H58.1767C58.1767 13.55 58.001 13.108 57.6497 12.802C57.2983 12.4847 56.7713 12.326 56.0687 12.326C55.5813 12.326 55.0997 12.4053 54.6237 12.564C54.159 12.7113 53.7623 12.9153 53.4337 13.176L52.4817 11.323C52.9803 10.9717 53.5753 10.6997 54.2667 10.507C54.9693 10.3143 55.689 10.218 56.4257 10.218ZM56.2217 17.851C56.675 17.851 57.0773 17.749 57.4287 17.545C57.78 17.3297 58.0293 17.018 58.1767 16.61V15.675H56.3577C55.2697 15.675 54.7257 16.032 54.7257 16.746C54.7257 17.086 54.856 17.358 55.1167 17.562C55.3887 17.7547 55.757 17.851 56.2217 17.851ZM71.9759 16.032H70.5989V19.5H67.9469V10.354H70.5989V13.907H72.0269L74.5089 10.354H77.3309L74.1349 14.74L77.5519 19.5H74.4239L71.9759 16.032ZM82.2411 10.218C83.6578 10.218 84.7458 10.558 85.5051 11.238C86.2644 11.9067 86.6441 12.921 86.6441 14.281V19.5H84.1621V18.361C83.6634 19.211 82.7341 19.636 81.3741 19.636C80.6714 19.636 80.0594 19.517 79.5381 19.279C79.0281 19.041 78.6371 18.7123 78.3651 18.293C78.0931 17.8737 77.9571 17.3977 77.9571 16.865C77.9571 16.015 78.2744 15.3463 78.9091 14.859C79.5551 14.3717 80.5468 14.128 81.8841 14.128H83.9921C83.9921 13.55 83.8164 13.108 83.4651 12.802C83.1138 12.4847 82.5868 12.326 81.8841 12.326C81.3968 12.326 80.9151 12.4053 80.4391 12.564C79.9744 12.7113 79.5778 12.9153 79.2491 13.176L78.2971 11.323C78.7958 10.9717 79.3908 10.6997 80.0821 10.507C80.7848 10.3143 81.5044 10.218 82.2411 10.218ZM82.0371 17.851C82.4904 17.851 82.8928 17.749 83.2441 17.545C83.5954 17.3297 83.8448 17.018 83.9921 16.61V15.675H82.1731C81.0851 15.675 80.5411 16.032 80.5411 16.746C80.5411 17.086 80.6714 17.358 80.9321 17.562C81.2041 17.7547 81.5724 17.851 82.0371 17.851ZM94.3369 10.218C95.1869 10.218 95.9575 10.4163 96.6489 10.813C97.3515 11.1983 97.9012 11.748 98.2979 12.462C98.6945 13.1647 98.8929 13.9863 98.8929 14.927C98.8929 15.8677 98.6945 16.695 98.2979 17.409C97.9012 18.1117 97.3515 18.6613 96.6489 19.058C95.9575 19.4433 95.1869 19.636 94.3369 19.636C93.1695 19.636 92.2515 19.2677 91.5829 18.531V22.798H88.9309V10.354H91.4639V11.408C92.1212 10.6147 93.0789 10.218 94.3369 10.218ZM93.8779 17.46C94.5579 17.46 95.1132 17.2333 95.5439 16.78C95.9859 16.3153 96.2069 15.6977 96.2069 14.927C96.2069 14.1563 95.9859 13.5443 95.5439 13.091C95.1132 12.6263 94.5579 12.394 93.8779 12.394C93.1979 12.394 92.6369 12.6263 92.1949 13.091C91.7642 13.5443 91.5489 14.1563 91.5489 14.927C91.5489 15.6977 91.7642 16.3153 92.1949 16.78C92.6369 17.2333 93.1979 17.46 93.8779 17.46ZM105.699 13.278C106.889 13.2893 107.801 13.5613 108.436 14.094C109.07 14.6153 109.388 15.3577 109.388 16.321C109.388 17.3297 109.031 18.1173 108.317 18.684C107.614 19.2393 106.622 19.517 105.342 19.517L100.752 19.5V10.354H103.387V13.278H105.699ZM105.104 17.63C105.614 17.6413 106.005 17.5337 106.277 17.307C106.549 17.0803 106.685 16.7403 106.685 16.287C106.685 15.845 106.549 15.522 106.277 15.318C106.016 15.114 105.625 15.0063 105.104 14.995L103.387 14.978V17.63H105.104ZM119.936 14.961C119.936 14.995 119.919 15.233 119.885 15.675H112.966C113.09 16.2417 113.385 16.6893 113.85 17.018C114.314 17.3467 114.892 17.511 115.584 17.511C116.06 17.511 116.479 17.443 116.842 17.307C117.216 17.1597 117.561 16.933 117.879 16.627L119.29 18.157C118.428 19.143 117.17 19.636 115.516 19.636C114.484 19.636 113.572 19.4377 112.779 19.041C111.985 18.633 111.373 18.072 110.943 17.358C110.512 16.644 110.297 15.8337 110.297 14.927C110.297 14.0317 110.506 13.227 110.926 12.513C111.356 11.7877 111.94 11.2267 112.677 10.83C113.425 10.422 114.258 10.218 115.176 10.218C116.071 10.218 116.881 10.4107 117.607 10.796C118.332 11.1813 118.899 11.7367 119.307 12.462C119.726 13.176 119.936 14.009 119.936 14.961ZM115.193 12.224C114.592 12.224 114.088 12.394 113.68 12.734C113.272 13.074 113.022 13.5387 112.932 14.128H117.437C117.346 13.55 117.097 13.091 116.689 12.751C116.281 12.3997 115.782 12.224 115.193 12.224ZM127.357 10.218C128.207 10.218 128.978 10.4163 129.669 10.813C130.372 11.1983 130.922 11.748 131.318 12.462C131.715 13.1647 131.913 13.9863 131.913 14.927C131.913 15.8677 131.715 16.695 131.318 17.409C130.922 18.1117 130.372 18.6613 129.669 19.058C128.978 19.4433 128.207 19.636 127.357 19.636C126.19 19.636 125.272 19.2677 124.603 18.531V22.798H121.951V10.354H124.484V11.408C125.142 10.6147 126.099 10.218 127.357 10.218ZM126.898 17.46C127.578 17.46 128.134 17.2333 128.564 16.78C129.006 16.3153 129.227 15.6977 129.227 14.927C129.227 14.1563 129.006 13.5443 128.564 13.091C128.134 12.6263 127.578 12.394 126.898 12.394C126.218 12.394 125.657 12.6263 125.215 13.091C124.785 13.5443 124.569 14.1563 124.569 14.927C124.569 15.6977 124.785 16.3153 125.215 16.78C125.657 17.2333 126.218 17.46 126.898 17.46ZM133.772 10.354H136.407V13.924H140.385V10.354H143.037V19.5H140.385V16.083H136.407V19.5H133.772V10.354ZM149.86 19.636C148.896 19.636 148.029 19.4377 147.259 19.041C146.499 18.633 145.904 18.072 145.474 17.358C145.043 16.644 144.828 15.8337 144.828 14.927C144.828 14.0203 145.043 13.21 145.474 12.496C145.904 11.782 146.499 11.2267 147.259 10.83C148.029 10.422 148.896 10.218 149.86 10.218C150.823 10.218 151.684 10.422 152.444 10.83C153.203 11.2267 153.798 11.782 154.229 12.496C154.659 13.21 154.875 14.0203 154.875 14.927C154.875 15.8337 154.659 16.644 154.229 17.358C153.798 18.072 153.203 18.633 152.444 19.041C151.684 19.4377 150.823 19.636 149.86 19.636ZM149.86 17.46C150.54 17.46 151.095 17.2333 151.526 16.78C151.968 16.3153 152.189 15.6977 152.189 14.927C152.189 14.1563 151.968 13.5443 151.526 13.091C151.095 12.6263 150.54 12.394 149.86 12.394C149.18 12.394 148.619 12.6263 148.177 13.091C147.735 13.5443 147.514 14.1563 147.514 14.927C147.514 15.6977 147.735 16.3153 148.177 16.78C148.619 17.2333 149.18 17.46 149.86 17.46ZM164.026 12.53H159.334V19.5H156.699V10.354H164.026V12.53ZM169.333 19.636C168.37 19.636 167.503 19.4377 166.732 19.041C165.973 18.633 165.378 18.072 164.947 17.358C164.517 16.644 164.301 15.8337 164.301 14.927C164.301 14.0203 164.517 13.21 164.947 12.496C165.378 11.782 165.973 11.2267 166.732 10.83C167.503 10.422 168.37 10.218 169.333 10.218C170.297 10.218 171.158 10.422 171.917 10.83C172.677 11.2267 173.272 11.782 173.702 12.496C174.133 13.21 174.348 14.0203 174.348 14.927C174.348 15.8337 174.133 16.644 173.702 17.358C173.272 18.072 172.677 18.633 171.917 19.041C171.158 19.4377 170.297 19.636 169.333 19.636ZM169.333 17.46C170.013 17.46 170.569 17.2333 170.999 16.78C171.441 16.3153 171.662 15.6977 171.662 14.927C171.662 14.1563 171.441 13.5443 170.999 13.091C170.569 12.6263 170.013 12.394 169.333 12.394C168.653 12.394 168.092 12.6263 167.65 13.091C167.208 13.5443 166.987 14.1563 166.987 14.927C166.987 15.6977 167.208 16.3153 167.65 16.78C168.092 17.2333 168.653 17.46 169.333 17.46ZM186.376 10.218C187.226 10.218 187.997 10.4163 188.688 10.813C189.391 11.1983 189.94 11.748 190.337 12.462C190.734 13.1647 190.932 13.9863 190.932 14.927C190.932 15.8677 190.734 16.695 190.337 17.409C189.94 18.1117 189.391 18.6613 188.688 19.058C187.997 19.4433 187.226 19.636 186.376 19.636C185.209 19.636 184.291 19.2677 183.622 18.531V22.798H180.97V10.354H183.503V11.408C184.16 10.6147 185.118 10.218 186.376 10.218ZM185.917 17.46C186.597 17.46 187.152 17.2333 187.583 16.78C188.025 16.3153 188.246 15.6977 188.246 14.927C188.246 14.1563 188.025 13.5443 187.583 13.091C187.152 12.6263 186.597 12.394 185.917 12.394C185.237 12.394 184.676 12.6263 184.234 13.091C183.803 13.5443 183.588 14.1563 183.588 14.927C183.588 15.6977 183.803 16.3153 184.234 16.78C184.676 17.2333 185.237 17.46 185.917 17.46ZM197.075 19.636C196.111 19.636 195.244 19.4377 194.474 19.041C193.714 18.633 193.119 18.072 192.689 17.358C192.258 16.644 192.043 15.8337 192.043 14.927C192.043 14.0203 192.258 13.21 192.689 12.496C193.119 11.782 193.714 11.2267 194.474 10.83C195.244 10.422 196.111 10.218 197.075 10.218C198.038 10.218 198.899 10.422 199.659 10.83C200.418 11.2267 201.013 11.782 201.444 12.496C201.874 13.21 202.09 14.0203 202.09 14.927C202.09 15.8337 201.874 16.644 201.444 17.358C201.013 18.072 200.418 18.633 199.659 19.041C198.899 19.4377 198.038 19.636 197.075 19.636ZM197.075 17.46C197.755 17.46 198.31 17.2333 198.741 16.78C199.183 16.3153 199.404 15.6977 199.404 14.927C199.404 14.1563 199.183 13.5443 198.741 13.091C198.31 12.6263 197.755 12.394 197.075 12.394C196.395 12.394 195.834 12.6263 195.392 13.091C194.95 13.5443 194.729 14.1563 194.729 14.927C194.729 15.6977 194.95 16.3153 195.392 16.78C195.834 17.2333 196.395 17.46 197.075 17.46ZM208.266 19.636C207.291 19.636 206.413 19.4377 205.631 19.041C204.86 18.633 204.254 18.072 203.812 17.358C203.381 16.644 203.166 15.8337 203.166 14.927C203.166 14.0203 203.381 13.21 203.812 12.496C204.254 11.782 204.86 11.2267 205.631 10.83C206.413 10.422 207.291 10.218 208.266 10.218C209.229 10.218 210.068 10.422 210.782 10.83C211.507 11.2267 212.034 11.799 212.363 12.547L210.306 13.652C209.83 12.8133 209.144 12.394 208.249 12.394C207.557 12.394 206.985 12.6207 206.532 13.074C206.078 13.5273 205.852 14.145 205.852 14.927C205.852 15.709 206.078 16.3267 206.532 16.78C206.985 17.2333 207.557 17.46 208.249 17.46C209.155 17.46 209.841 17.0407 210.306 16.202L212.363 17.324C212.034 18.0493 211.507 18.616 210.782 19.024C210.068 19.432 209.229 19.636 208.266 19.636ZM221.625 12.53H218.531V19.5H215.896V12.53H212.802V10.354H221.625V12.53ZM226.592 10.218C228.008 10.218 229.096 10.558 229.856 11.238C230.615 11.9067 230.995 12.921 230.995 14.281V19.5H228.513V18.361C228.014 19.211 227.085 19.636 225.725 19.636C225.022 19.636 224.41 19.517 223.889 19.279C223.379 19.041 222.988 18.7123 222.716 18.293C222.444 17.8737 222.308 17.3977 222.308 16.865C222.308 16.015 222.625 15.3463 223.26 14.859C223.906 14.3717 224.897 14.128 226.235 14.128H228.343C228.343 13.55 228.167 13.108 227.816 12.802C227.464 12.4847 226.937 12.326 226.235 12.326C225.747 12.326 225.266 12.4053 224.79 12.564C224.325 12.7113 223.928 12.9153 223.6 13.176L222.648 11.323C223.146 10.9717 223.741 10.6997 224.433 10.507C225.135 10.3143 225.855 10.218 226.592 10.218ZM226.388 17.851C226.841 17.851 227.243 17.749 227.595 17.545C227.946 17.3297 228.195 17.018 228.343 16.61V15.675H226.524C225.436 15.675 224.892 16.032 224.892 16.746C224.892 17.086 225.022 17.358 225.283 17.562C225.555 17.7547 225.923 17.851 226.388 17.851ZM9.537 37.95H4.012L2.958 40.5H0.136L5.44 28.6H8.16L13.481 40.5H10.591L9.537 37.95ZM8.67 35.859L6.783 31.303L4.896 35.859H8.67ZM14.8551 31.354H17.4901V34.924H21.4681V31.354H24.1201V40.5H21.4681V37.083H17.4901V40.5H14.8551V31.354ZM26.6588 31.354H29.2938V34.924H33.2718V31.354H35.9238V40.5H33.2718V37.083H29.2938V40.5H26.6588V31.354ZM43.2735 34.278C44.4635 34.2893 45.3645 34.5557 45.9765 35.077C46.5885 35.5983 46.8945 36.3463 46.8945 37.321C46.8945 38.341 46.5488 39.1287 45.8575 39.684C45.1662 40.2393 44.1858 40.517 42.9165 40.517L38.4625 40.5V31.354H41.0975V34.278H43.2735ZM47.8805 31.354H50.5155V40.5H47.8805V31.354ZM42.6785 38.63C43.1885 38.6413 43.5795 38.5337 43.8515 38.307C44.1235 38.0803 44.2595 37.7403 44.2595 37.287C44.2595 36.845 44.1235 36.522 43.8515 36.318C43.5908 36.114 43.1998 36.0063 42.6785 35.995L41.0975 35.978V38.63H42.6785ZM64.8563 34.295C65.5477 34.533 66.086 34.907 66.4713 35.417C66.868 35.9157 67.0663 36.4993 67.0663 37.168C67.0663 37.8933 66.8283 38.5223 66.3523 39.055C65.8763 39.5877 65.2303 39.9957 64.4143 40.279C63.6097 40.5623 62.7257 40.704 61.7623 40.704C60.9463 40.704 60.1303 40.602 59.3143 40.398C58.5097 40.194 57.7447 39.8823 57.0193 39.463L57.8693 37.491C58.3907 37.8083 58.963 38.052 59.5863 38.222C60.221 38.3807 60.8387 38.46 61.4393 38.46C62.2553 38.46 62.9297 38.3127 63.4623 38.018C64.0063 37.7233 64.2783 37.3097 64.2783 36.777C64.2783 36.335 64.0913 36.0007 63.7173 35.774C63.3547 35.5473 62.856 35.434 62.2213 35.434H59.3143V33.36H62.0173C62.5727 33.36 63.0033 33.2467 63.3093 33.02C63.6267 32.7933 63.7853 32.4817 63.7853 32.085C63.7853 31.6203 63.5587 31.2577 63.1053 30.997C62.6633 30.7363 62.091 30.606 61.3883 30.606C60.867 30.606 60.3287 30.6797 59.7733 30.827C59.218 30.963 58.691 31.1727 58.1923 31.456L57.3593 29.314C58.6173 28.668 59.9773 28.345 61.4393 28.345C62.3687 28.345 63.2243 28.481 64.0063 28.753C64.7883 29.025 65.4117 29.4217 65.8763 29.943C66.341 30.4643 66.5733 31.0707 66.5733 31.762C66.5733 32.3287 66.4203 32.833 66.1143 33.275C65.8083 33.717 65.389 34.057 64.8563 34.295ZM69.0426 31.354H71.6776V34.924H75.6556V31.354H78.3076V40.5H75.6556V37.083H71.6776V40.5H69.0426V31.354ZM84.3993 31.218C85.816 31.218 86.904 31.558 87.6633 32.238C88.4226 32.9067 88.8023 33.921 88.8023 35.281V40.5H86.3203V39.361C85.8216 40.211 84.8923 40.636 83.5323 40.636C82.8296 40.636 82.2176 40.517 81.6963 40.279C81.1863 40.041 80.7953 39.7123 80.5233 39.293C80.2513 38.8737 80.1153 38.3977 80.1153 37.865C80.1153 37.015 80.4326 36.3463 81.0673 35.859C81.7133 35.3717 82.705 35.128 84.0423 35.128H86.1503C86.1503 34.55 85.9746 34.108 85.6233 33.802C85.272 33.4847 84.745 33.326 84.0423 33.326C83.555 33.326 83.0733 33.4053 82.5973 33.564C82.1326 33.7113 81.736 33.9153 81.4073 34.176L80.4553 32.323C80.954 31.9717 81.549 31.6997 82.2403 31.507C82.943 31.3143 83.6626 31.218 84.3993 31.218ZM84.1953 38.851C84.6486 38.851 85.051 38.749 85.4023 38.545C85.7536 38.3297 86.003 38.018 86.1503 37.61V36.675H84.3313C83.2433 36.675 82.6993 37.032 82.6993 37.746C82.6993 38.086 82.8296 38.358 83.0903 38.562C83.3623 38.7547 83.7306 38.851 84.1953 38.851ZM100.031 40.5V35.026L97.2941 39.616H96.1721L93.5031 35.009V40.5H91.1061V31.354H93.8771L96.8011 36.641L99.9121 31.354H102.394L102.428 40.5H100.031ZM113.859 35.961C113.859 35.995 113.842 36.233 113.808 36.675H106.889C107.014 37.2417 107.309 37.6893 107.773 38.018C108.238 38.3467 108.816 38.511 109.507 38.511C109.983 38.511 110.403 38.443 110.765 38.307C111.139 38.1597 111.485 37.933 111.802 37.627L113.213 39.157C112.352 40.143 111.094 40.636 109.439 40.636C108.408 40.636 107.496 40.4377 106.702 40.041C105.909 39.633 105.297 39.072 104.866 38.358C104.436 37.644 104.22 36.8337 104.22 35.927C104.22 35.0317 104.43 34.227 104.849 33.513C105.28 32.7877 105.864 32.2267 106.6 31.83C107.348 31.422 108.181 31.218 109.099 31.218C109.995 31.218 110.805 31.4107 111.53 31.796C112.256 32.1813 112.822 32.7367 113.23 33.462C113.65 34.176 113.859 35.009 113.859 35.961ZM109.116 33.224C108.516 33.224 108.011 33.394 107.603 33.734C107.195 34.074 106.946 34.5387 106.855 35.128H111.36C111.27 34.55 111.02 34.091 110.612 33.751C110.204 33.3997 109.706 33.224 109.116 33.224ZM115.892 31.354H118.527V34.924H122.505V31.354H125.157V40.5H122.505V37.083H118.527V40.5H115.892V31.354ZM132.048 40.636C131.073 40.636 130.195 40.4377 129.413 40.041C128.642 39.633 128.036 39.072 127.594 38.358C127.163 37.644 126.948 36.8337 126.948 35.927C126.948 35.0203 127.163 34.21 127.594 33.496C128.036 32.782 128.642 32.2267 129.413 31.83C130.195 31.422 131.073 31.218 132.048 31.218C133.011 31.218 133.85 31.422 134.564 31.83C135.289 32.2267 135.816 32.799 136.145 33.547L134.088 34.652C133.612 33.8133 132.926 33.394 132.031 33.394C131.34 33.394 130.767 33.6207 130.314 34.074C129.861 34.5273 129.634 35.145 129.634 35.927C129.634 36.709 129.861 37.3267 130.314 37.78C130.767 38.2333 131.34 38.46 132.031 38.46C132.938 38.46 133.623 38.0407 134.088 37.202L136.145 38.324C135.816 39.0493 135.289 39.616 134.564 40.024C133.85 40.432 133.011 40.636 132.048 40.636ZM141.785 37.032H140.408V40.5H137.756V31.354H140.408V34.907H141.836L144.318 31.354H147.14L143.944 35.74L147.361 40.5H144.233L141.785 37.032ZM152.665 40.636C151.702 40.636 150.835 40.4377 150.064 40.041C149.305 39.633 148.71 39.072 148.279 38.358C147.849 37.644 147.633 36.8337 147.633 35.927C147.633 35.0203 147.849 34.21 148.279 33.496C148.71 32.782 149.305 32.2267 150.064 31.83C150.835 31.422 151.702 31.218 152.665 31.218C153.629 31.218 154.49 31.422 155.249 31.83C156.009 32.2267 156.604 32.782 157.034 33.496C157.465 34.21 157.68 35.0203 157.68 35.927C157.68 36.8337 157.465 37.644 157.034 38.358C156.604 39.072 156.009 39.633 155.249 40.041C154.49 40.4377 153.629 40.636 152.665 40.636ZM152.665 38.46C153.345 38.46 153.901 38.2333 154.331 37.78C154.773 37.3153 154.994 36.6977 154.994 35.927C154.994 35.1563 154.773 34.5443 154.331 34.091C153.901 33.6263 153.345 33.394 152.665 33.394C151.985 33.394 151.424 33.6263 150.982 34.091C150.54 34.5443 150.319 35.1563 150.319 35.927C150.319 36.6977 150.54 37.3153 150.982 37.78C151.424 38.2333 151.985 38.46 152.665 38.46ZM159.504 31.354H162.139V36.794L166.593 31.354H169.024V40.5H166.389V35.06L161.952 40.5H159.504V31.354ZM164.094 30.368C162.1 30.368 161.097 29.4897 161.085 27.733H162.819C162.831 28.1297 162.938 28.4413 163.142 28.668C163.358 28.8833 163.669 28.991 164.077 28.991C164.485 28.991 164.797 28.8833 165.012 28.668C165.239 28.4413 165.352 28.1297 165.352 27.733H167.12C167.109 29.4897 166.1 30.368 164.094 30.368Z" fill="url(#paint0_linear_1401_824)"/>
<defs>
<linearGradient id="paint0_linear_1401_824" x1="233" y1="2.9196" x2="218.051" y2="84.1887" gradientUnits="userSpaceOnUse">
<stop stop-color="#C5A48B"/>
<stop offset="1" stop-color="#E6C8B1"/>
<stop offset="1" stop-color="#F2DCCB"/>
</linearGradient>
</defs>
</svg>
