<svg xmlns="http://www.w3.org/2000/svg" width="223.394" height="117.979" viewBox="0 0 223.394 117.979">
  <g id="Сгруппировать_134" data-name="Сгруппировать 134" transform="translate(0)">
    <g id="Сгруппировать_116" data-name="Сгруппировать 116" transform="translate(0)">
      <g id="Сгруппировать_87" data-name="Сгруппировать 87" transform="translate(0.045 0.042)">
        <path id="Контур_125" data-name="Контур 125" d="M70.827,19.838c.681.11,1.356.217,2.04.355.607.113,1.2.233,1.8.367.524.116,1.052.255,1.57.391.445.124.889.261,1.331.406.373.129.744.271,1.1.432a9.7,9.7,0,0,1,.873.437,5.8,5.8,0,0,1,.65.462,2.421,2.421,0,0,1,.435.486,1.435,1.435,0,0,1,.215.5,1.461,1.461,0,0,1,0,.513,1.894,1.894,0,0,1-.215.521,3.171,3.171,0,0,1-.427.547,5.431,5.431,0,0,1-.63.556,8.084,8.084,0,0,1-.83.579c-.26.161-.529.3-.8.462-4.412,2.487-11.1,3.832-11.1,3.832-.115.024-.332.033-.394.155a.129.129,0,0,0,.04.15.3.3,0,0,0,.226.011s8.557-.848,14.43-3.419a14.841,14.841,0,0,0,1.525-.768,8.816,8.816,0,0,0,1.264-.872,4.75,4.75,0,0,0,1.084-1.2c.024-.046.049-.089.078-.134a2.134,2.134,0,0,0,.289-1.041,1.839,1.839,0,0,0-.072-.472,2.177,2.177,0,0,0-.207-.456,2.443,2.443,0,0,0-.327-.448,3.745,3.745,0,0,0-.446-.438c-.183-.15-.373-.289-.571-.421-.218-.147-.453-.281-.685-.406-.263-.142-.529-.276-.8-.4-.3-.134-.6-.261-.905-.384q-.5-.191-1.014-.362-.555-.191-1.117-.354c-.4-.12-.8-.23-1.207-.34-.438-.107-.875-.218-1.309-.322-.467-.1-.934-.209-1.4-.3-.5-.107-.993-.2-1.489-.292-.528-.1-1.049-.188-1.576-.276-.548-.089-1.1-.177-1.659-.257-.577-.088-1.156-.166-1.737-.244s-1.2-.15-1.8-.218c-.363.869-.685,1.592-.878,2.024.983.12,1.956.25,2.93.386.572.072,1.144.166,1.714.255M-46.664,12.763c-3.046-.618-11.765-2.327-20.859-3.6a79.2,79.2,0,0,0-18.589-.679c-11.281,1.125-13.895,5.359-13.895,5.359-.338.442.016.692.462.531a9.645,9.645,0,0,0,1.307-.756c4.822-3.008,11.886-3.28,12.967-3.3,9.063-.19,20.282,1.916,26.69,3.257-5.812-.681-11.223-1.181-16.138-1.441-1.224-.067-2.448-.1-3.674-.1-1.532,0-3.067.035-4.6.142a43.8,43.8,0,0,0-4.72.575,25.7,25.7,0,0,0-4.425,1.2,14.241,14.241,0,0,0-3.681,2,8.924,8.924,0,0,0-2.531,2.976,8.157,8.157,0,0,0-.7,1.913,9.943,9.943,0,0,0-.185,1.074,5.117,5.117,0,0,0-.045.58c0,.316.174.446.373.151s.351-.647.523-.971a7,7,0,0,1,1.014-1.4,10.284,10.284,0,0,1,5.118-2.911c1.3-.347,2.592-.682,3.918-.9A49.3,49.3,0,0,1-82.06,15.9c2.692-.1,5.378-.054,8.072.084,2.73.128,5.456.346,8.177.63q.395.036.779.077c1.529.164,3.049.346,4.576.529q1.808.234,3.618.489,4.01.55,7.994,1.211c.512.075,1.025.159,1.537.245q4,.667,7.986,1.4c2.7.488,5.4,1,8.089,1.511,1.156.225,2.306.445,3.465.665.55.112,1.1.223,1.658.33s1.146.174,1.7.327q4.05.8,8.1,1.588c.7.132,1.4.271,2.1.4q3.983.76,7.968,1.436c2.263.386,4.532.741,6.8,1.087,1.457.332,2.225.5,2.225.5,10.539,2.436,22.278,4.482,24.029,4.753,16.628,2.617,24.807,2.616,26.981,2.648,14.352.153,20.535-2.319,24.955-3.908s6.626-3.512,6.9-4.1c.064-.139.139-.355-.054-.4a.9.9,0,0,0-.673.172c-.145.088-.281.183-.4.26a13.437,13.437,0,0,1-1.254.679c-10.423,4.814-18.291,4.65-23.39,4.753-15.943.3-39.187-4.921-44.123-5.926S-13.6,20.412-13.6,20.412c-6.272-1.58-25.054-5.855-30.45-7.082Zm105.632-.61c-2.7-.319-12.368-.488-15.183-.454-9.071.081-18.814.988-23.314,1.42S-4.152,15.433-8.89,15.967c-1.8.207-7.89.738-11.215,1.1l3.009.724c2.721-.037,3.056-.016,3.056-.016s0,0,0-.01c7.143-.145,21.734-.886,26.377-1.21,4.737-.328,24.2-1.718,24.2-1.718,11.026-.641,22.11-.368,22.11-.368Zm-.618,4.111c-1.581-.037-4.31-.1-5.968-.1-6.127,0-13.319.265-21.379.786-13.5,1.129-31.459,2.182-40.344,2.6l2.413.508s14.18.3,27.761-.606c12.347-.829,35.407-.733,37.006-.727ZM81.784,17.53c.29-.222.073-.547-.132-.681s-2.627-.95-2.627-.95a92.468,92.468,0,0,0-10.7-2.558c-.077.183-.644,1.792-.644,1.792a119.951,119.951,0,0,1,12.793,2.335c.668.172,1.041.266,1.307.062M57.839,18.721a87.223,87.223,0,0,1-4.114,12.911l.971.026c.843-1.455,4.16-8.4,5.141-10.963,7.082-18.557,5.354-30.834,5.174-32.4C63.256-27.385,54.757-31.776,49.275-32.9c-9.593-1.977-22.888,2.509-26.419,3.827-18.868,7.055-35.812,18.3-35.812,18.3-22.1,13.786-32.3,22.33-33.708,23.543l2.616.567c13.99-9.985,27.643-17.83,29.913-19.1A181.021,181.021,0,0,1,14.507-19.013c16.817-5.714,24.9-4.452,28.078-3.814C54.017-20.544,57.3-10.066,57.921-8.08c2.971,9.538,1.047,20.236,1.047,20.236l-.322,2.314c-.083.6-.19,1.2-.3,1.793Zm-136.517,34.8a1.6,1.6,0,0,0-1.714-1.589A1.788,1.788,0,0,0-82.1,53.118l-4.085,13.418-1.741,5.821-1.49,4.825-7.812-23.959a1.741,1.741,0,0,0-1.717-1.291,1.745,1.745,0,0,0-1.721,1.256l-4.186,13.087-1.932,6.138-1.548,4.769L-115.8,53.174a1.7,1.7,0,0,0-1.7-1.242,1.85,1.85,0,0,0-1.25.51,1.6,1.6,0,0,0-.486,1.157.991.991,0,0,0,.041.335l.072.349,9.039,28.979a1.7,1.7,0,0,0,1.685,1.231,1.758,1.758,0,0,0,1.725-1.269L-102.53,70.2l1.935-6.177,1.589-4.929,7.882,24.2a1.773,1.773,0,0,0,1.661,1.191,1.615,1.615,0,0,0,1.694-1.269l8.979-29.052a2.32,2.32,0,0,0,.112-.65m182.743,0a1.626,1.626,0,0,0-1.7-1.584,1.7,1.7,0,0,0-1.516.861L95.365,62.959,93.441,66.6l-1.07,1.956L83.761,52.8a1.968,1.968,0,0,0-1.557-.864,1.556,1.556,0,0,0-1.409,2.437l9.833,17.873V82.31A1.669,1.669,0,0,0,92.313,84a1.713,1.713,0,0,0,1.731-1.688l-.013-10.045,9.819-17.912a1.876,1.876,0,0,0,.215-.837m-32.9,28.794a1.648,1.648,0,0,0-1.683-1.61l-11.129.1-.046,0L58.262,69.2l-.051-.383,9.406.01a1.678,1.678,0,0,0,0-3.357l-9.258.1H58.31l-.048-10.005-.051-.322H69.485A1.662,1.662,0,0,0,71.168,53.6a1.7,1.7,0,0,0-1.683-1.663h-12.9A1.713,1.713,0,0,0,54.867,53.6V82.315A1.7,1.7,0,0,0,56.582,84h12.9a1.71,1.71,0,0,0,1.683-1.688M-53.7,55.242A1.668,1.668,0,0,0-52.01,53.6,1.7,1.7,0,0,0-53.7,51.932H-66.6A1.713,1.713,0,0,0-68.318,53.6V82.31A1.729,1.729,0,0,0-66.6,84h12.9A1.691,1.691,0,0,0-52.01,82.31,1.658,1.658,0,0,0-53.7,80.7l-10.94.1-.245,0-.051-11.642-.051-.351,9.416.01a1.662,1.662,0,0,0,1.7-1.68,1.671,1.671,0,0,0-1.7-1.677l-9.259.1h-.054l-.105-10.275v-.049Zm36.584-3.311a1.738,1.738,0,0,0-1.659,1.119l-5.735,11.826-1.93,4.044-1.239,2.526L-36.8,53.07a1.765,1.765,0,0,0-1.655-1.138A1.7,1.7,0,0,0-40.189,53.6V82.31A1.716,1.716,0,0,0-38.453,84a1.7,1.7,0,0,0,1.722-1.693l-.053-11.687-.053-5.157v-4.7l7.452,15.011a1.836,1.836,0,0,0,1.643,1.058,1.77,1.77,0,0,0,1.6-1.058l3.959-8.131,1.768-3.7,1.575-3.185V82.315A1.708,1.708,0,0,0-17.118,84a1.707,1.707,0,0,0,1.725-1.688V53.6a1.7,1.7,0,0,0-1.725-1.667M7.914,80.7l-5.968.1H1.787V68.726H7.948c3.712,0,5.926,2.146,5.926,5.737,0,3.958-2.115,6.174-5.96,6.24M1.787,55.242H7.031c3.343,0,5.262,1.868,5.268,5.128,0,3.139-1.9,5.011-5.09,5.011l-5.375.1H1.787Zm11.746,11.92a2.279,2.279,0,0,0-.783-.322s0,0-.006,0a.463.463,0,0,1-.067-.04,5.944,5.944,0,0,0,.83-.625,8.013,8.013,0,0,0,2.3-5.8c0-5.128-3.445-8.439-8.78-8.439H.072A1.688,1.688,0,0,0-1.637,53.6V82.337A1.688,1.688,0,0,0,.072,84H7.914c5.742,0,9.449-3.738,9.449-9.54a8.253,8.253,0,0,0-3.83-7.3M44,80.7l-10.93.1-.244,0-.022-11.142,0-16.071a1.688,1.688,0,0,0-1.745-1.659A1.669,1.669,0,0,0,29.352,53.6l.026,23.346v5.373A1.724,1.724,0,0,0,31.1,84H44a1.71,1.71,0,0,0,1.68-1.693A1.624,1.624,0,0,0,44,80.7" transform="translate(119.241 33.399)" fill="#fff" fill-rule="evenodd"/>
      </g>
      <path id="Контур_126" data-name="Контур 126" d="M0-94.335H223.394V-212.314H0Z" transform="translate(0 212.314)" fill="none"/>
    </g>
  </g>
</svg>
