<svg xmlns="http://www.w3.org/2000/svg" width="180" height="56.823" viewBox="0 0 180 56.823">
  <g id="Сгруппировать_35172" data-name="Сгруппировать 35172" transform="translate(-472 -1142)">
    <path id="Контур_432" data-name="Контур 432" d="M527.832,1142.324a11.924,11.924,0,0,1,4.5-.188,11.5,11.5,0,0,1,4.715,1.7q0,1.967,0,3.93a12.7,12.7,0,0,0-2.856-1.691,9.466,9.466,0,0,0-4.321-.7,4.924,4.924,0,0,0-2.03.565,2.439,2.439,0,0,0-.973.964,2.643,2.643,0,0,0-.218,1.717,2.21,2.21,0,0,0,.763,1.307,5.989,5.989,0,0,0,1.783.944q1.98.72,3.958,1.441a9.682,9.682,0,0,1,3.148,1.781,5.521,5.521,0,0,1,1.722,2.925,7.39,7.39,0,0,1-.045,3.529,5.513,5.513,0,0,1-1.711,2.679,7.617,7.617,0,0,1-3.042,1.553,12.835,12.835,0,0,1-4.645.29,12.041,12.041,0,0,1-5.492-1.884c0-1.332,0-2.663,0-3.995a11.333,11.333,0,0,0,6.89,2.588,6.546,6.546,0,0,0,3.119-.583,2.56,2.56,0,0,0,1.23-1.309,2.972,2.972,0,0,0,.037-1.987,2.773,2.773,0,0,0-1.287-1.45,19.288,19.288,0,0,0-3.153-1.3,25.015,25.015,0,0,1-3.832-1.567,6.389,6.389,0,0,1-2.315-2.1,6.484,6.484,0,0,1-.842-4.07,5.41,5.41,0,0,1,1.728-3.449,7.324,7.324,0,0,1,3.168-1.638Z" fill="#494949" fill-rule="evenodd"/>
    <path id="Контур_433" data-name="Контур 433" d="M616.419,1143.307a9.193,9.193,0,0,1,5.176-1.3,11.9,11.9,0,0,1,6.383,1.823c0,1.307,0,2.615,0,3.923a13.329,13.329,0,0,0-2.6-1.58,9.294,9.294,0,0,0-5.181-.735,3.246,3.246,0,0,0-2.4,1.448,2.53,2.53,0,0,0,.493,2.985,6.781,6.781,0,0,0,2.254,1.142c1.3.479,2.606.939,3.9,1.427a8.638,8.638,0,0,1,3.14,1.991,5.6,5.6,0,0,1,1.456,3.044,6.9,6.9,0,0,1-.356,3.692,5.659,5.659,0,0,1-2.011,2.454,8.509,8.509,0,0,1-3.483,1.355,14.165,14.165,0,0,1-5.191-.161,11.109,11.109,0,0,1-4-1.652c.006-1.331,0-2.662.005-3.994a11.6,11.6,0,0,0,5.258,2.439,10.786,10.786,0,0,0,2.538.139,5.307,5.307,0,0,0,2.479-.715,2.434,2.434,0,0,0,1.11-1.617,2.741,2.741,0,0,0-.522-2.271,4.852,4.852,0,0,0-1.764-1.163c-1.051-.448-2.141-.794-3.211-1.193a16.574,16.574,0,0,1-3.024-1.308,6.308,6.308,0,0,1-2.2-2.064,5.959,5.959,0,0,1-.833-2.864,6.063,6.063,0,0,1,.408-2.682,5.569,5.569,0,0,1,2.173-2.559Z" fill="#494949" fill-rule="evenodd"/>
    <path id="Контур_434" data-name="Контур 434" d="M640.8,1142.565a9.773,9.773,0,0,1,3.323-.562,12.094,12.094,0,0,1,6.611,1.744.187.187,0,0,1,.1.205q0,1.9,0,3.793a12.621,12.621,0,0,0-2.923-1.72,9.5,9.5,0,0,0-4.194-.672,4.96,4.96,0,0,0-2.09.575,2.385,2.385,0,0,0-1.054,1.148,2.516,2.516,0,0,0,.647,2.846,11.068,11.068,0,0,0,3.108,1.421c1.239.472,2.513.862,3.722,1.413a7.245,7.245,0,0,1,2.877,2.247,6.25,6.25,0,0,1,1.074,3.744,5.8,5.8,0,0,1-.943,3.336,6.329,6.329,0,0,1-2.721,2.215,10.3,10.3,0,0,1-3.682.825,14.7,14.7,0,0,1-4.194-.405,10.787,10.787,0,0,1-3.569-1.546c-.041-1.333-.007-2.671-.016-4.007a11.318,11.318,0,0,0,6.908,2.6,6.37,6.37,0,0,0,3.191-.626,2.548,2.548,0,0,0,1.149-1.255,3.012,3.012,0,0,0,.028-2.026,2.77,2.77,0,0,0-1.256-1.408,19.349,19.349,0,0,0-3.217-1.332,24.434,24.434,0,0,1-3.822-1.569,6.291,6.291,0,0,1-2.394-2.267,6.449,6.449,0,0,1-.762-3.458,5.516,5.516,0,0,1,1.062-3.1,6.483,6.483,0,0,1,3.035-2.157Z" fill="#494949" fill-rule="evenodd"/>
    <path id="Контур_435" data-name="Контур 435" d="M562.531,1142.018q7.681,7.322,15.356,14.65c.008-4.766,0-9.532,0-14.3h3.662q0,11.4,0,22.791-5.173-5.036-10.353-10.06c-1.67-1.612-3.321-3.243-5-4.844-.011,4.846.006,9.691-.009,14.537-1.22-.008-2.439,0-3.658,0q-.006-11.387,0-22.773Z" fill="#494949" fill-rule="evenodd"/>
    <path id="Контур_436" data-name="Контур 436" d="M472,1142.371h5.879a25.292,25.292,0,0,1,4.128.176,7.251,7.251,0,0,1,3.587,1.551,5.128,5.128,0,0,1,1.633,2.714,6.787,6.787,0,0,1-.109,3.58,4.476,4.476,0,0,1-2.534,2.812c.2.132.439.2.65.314a5.4,5.4,0,0,1,2.483,2.717,5.8,5.8,0,0,1,.4,2.782,5.991,5.991,0,0,1-1.261,3.378,6.409,6.409,0,0,1-3.516,2.084,13.564,13.564,0,0,1-3.533.313H472q0-11.21,0-22.419Zm3.7,3.3c.005,2.04-.01,4.079.008,6.117,1.5-.014,3,0,4.5-.008a4.314,4.314,0,0,0,2.688-.876,2.718,2.718,0,0,0,.851-1.889,2.729,2.729,0,0,0-2.4-3.2,11.619,11.619,0,0,0-2.334-.148c-1.106,0-2.211,0-3.316,0Zm0,9.279q0,3.27,0,6.543c1.594,0,3.188,0,4.781,0a4.826,4.826,0,0,0,2.618-.663,2.844,2.844,0,0,0,1.247-1.887,3.563,3.563,0,0,0-.385-2.481,3.012,3.012,0,0,0-1.617-1.241,5.438,5.438,0,0,0-1.864-.275c-1.593,0-3.187,0-4.78,0Z" fill="#494949" fill-rule="evenodd"/>
    <path id="Контур_437" data-name="Контур 437" d="M496.254,1142.371h3.8q0,5.789,0,11.575a16.6,16.6,0,0,0,.282,4.068,4.863,4.863,0,0,0,1.711,2.816,5.948,5.948,0,0,0,6.359-.01,4.62,4.62,0,0,0,1.557-2.311,10.342,10.342,0,0,0,.418-3.292q0-6.423,0-12.845h3.8v13.374a10.807,10.807,0,0,1-1.17,5.348,7.383,7.383,0,0,1-3.495,3.222,11.056,11.056,0,0,1-5.378.794,9.451,9.451,0,0,1-3.666-1.028,7.309,7.309,0,0,1-2.18-1.754,8.2,8.2,0,0,1-1.549-2.914,12.389,12.389,0,0,1-.485-3.738q0-6.653,0-13.3Z" fill="#494949" fill-rule="evenodd"/>
    <path id="Контур_438" data-name="Контур 438" d="M547.946,1142.367c1.264.008,2.527,0,3.791,0,.008,7.47-.009,14.941.008,22.411-1.267.022-2.535,0-3.8.01q0-11.212,0-22.424Z" fill="#494949" fill-rule="evenodd"/>
    <path id="Контур_439" data-name="Контур 439" d="M591.657,1142.365c4.516.013,9.033,0,13.55.005q0,1.69,0,3.382h-9.826q0,2.68,0,5.363,4.4,0,8.809,0,0,1.666,0,3.332h-8.809q0,3.465,0,6.929h9.824c0,1.138,0,2.276,0,3.415-4.516,0-9.033-.006-13.551,0-.016-6.059,0-12.118-.007-18.177.006-1.418-.011-2.836.009-4.253Z" fill="#494949" fill-rule="evenodd"/>
    <path id="Контур_440" data-name="Контур 440" d="M501.555,1176.057q7.623,7.213,15.25,14.426.009-7.032,0-14.065h3.629q0,11.2,0,22.405-7.635-7.319-15.242-14.665,0,7.158,0,14.313c-1.216,0-2.431,0-3.646,0q0-11.206,0-22.413Z" fill="#494949" fill-rule="evenodd"/>
    <path id="Контур_441" data-name="Контур 441" d="M533.364,1176.854a10.013,10.013,0,0,1,4.616-.8,11.922,11.922,0,0,1,5.976,1.777c.005,1.293,0,2.585,0,3.878a12.681,12.681,0,0,0-2.873-1.686,9.448,9.448,0,0,0-4.338-.667,4.814,4.814,0,0,0-2.013.594,2.31,2.31,0,0,0-1.016,1.186,2.482,2.482,0,0,0,.516,2.542,5.239,5.239,0,0,0,1.874,1.06c1.336.486,2.674.965,4.011,1.449a9.693,9.693,0,0,1,2.966,1.63,5.451,5.451,0,0,1,1.774,2.756,7.373,7.373,0,0,1,.1,3.352,5.367,5.367,0,0,1-1.581,2.8,7.237,7.237,0,0,1-3.008,1.655,12.411,12.411,0,0,1-4.265.4,13.637,13.637,0,0,1-4.326-.987,8.58,8.58,0,0,1-1.688-.921c.013-1.311,0-2.623.007-3.934a11.229,11.229,0,0,0,6.878,2.555,6.345,6.345,0,0,0,3.135-.619,2.48,2.48,0,0,0,1.2-1.411,2.921,2.921,0,0,0-.062-1.879,2.881,2.881,0,0,0-1.346-1.389,21.286,21.286,0,0,0-3.087-1.247,27.456,27.456,0,0,1-3.526-1.406,6.517,6.517,0,0,1-2.549-2.239,6.054,6.054,0,0,1-.834-3.305,5.4,5.4,0,0,1,.918-3.082,6.06,6.06,0,0,1,2.531-2.06Z" fill="#494949" fill-rule="evenodd"/>
    <path id="Контур_442" data-name="Контур 442" d="M486.993,1176.418h3.8q0,11.027,0,22.052-1.9,0-3.8,0,0-11.026,0-22.053Z" fill="#494949" fill-rule="evenodd"/>
    <path id="Контур_443" data-name="Контур 443" d="M554.837,1176.418h3.78v22.052c-1.26,0-2.52,0-3.78,0q0-11.026,0-22.053Z" fill="#494949" fill-rule="evenodd"/>
    <path id="Контур_444" data-name="Контур 444" d="M569.613,1176.418h8.74a11.168,11.168,0,0,1,6.418,1.964,9.564,9.564,0,0,1,3.381,4.539,13.3,13.3,0,0,1,.749,4.671,11.93,11.93,0,0,1-1.8,6.478,9.353,9.353,0,0,1-4.368,3.562,12.071,12.071,0,0,1-4.372.84q-4.374,0-8.747,0,0-11.025,0-22.052Zm3.762,3.316q0,7.694,0,15.389,1.793,0,3.584,0a17.345,17.345,0,0,0,2.2-.07,6.581,6.581,0,0,0,3.791-1.666,6.651,6.651,0,0,0,1.825-3.177,11.277,11.277,0,0,0,.311-3.619,9.084,9.084,0,0,0-.753-3.171,6.03,6.03,0,0,0-1.97-2.432,6.92,6.92,0,0,0-3.406-1.205c-.73-.076-1.464-.045-2.2-.051-1.128,0-2.257,0-3.385,0Z" fill="#494949" fill-rule="evenodd"/>
    <path id="Контур_445" data-name="Контур 445" d="M596.83,1176.418q6.735,0,13.472,0c.006,1.1,0,2.211,0,3.316h-9.76c0,1.767-.006,3.533,0,5.3q4.37-.008,8.74,0c0,1.085-.005,2.171,0,3.256-2.915.019-5.832,0-8.748.009v6.828h9.76q0,1.674,0,3.348-6.736,0-13.473,0,0-11.025,0-22.052Z" fill="#494949" fill-rule="evenodd"/>
    <path id="Контур_446" data-name="Контур 446" d="M621.533,1176.417h8.258a9.458,9.458,0,0,1,4,.854,5.7,5.7,0,0,1,2.408,2.127,6.723,6.723,0,0,1,.929,3.671,7.3,7.3,0,0,1-.879,3.788,4.885,4.885,0,0,1-2.186,1.932,7.823,7.823,0,0,1-2.066.6q3.984,4.539,7.969,9.076c-1.431,0-2.862,0-4.293,0q-3.867-4.47-7.729-8.944H625.3c-.006,2.983.008,5.965-.007,8.947-1.253-.007-2.506,0-3.758,0q0-11.026,0-22.054Zm3.764,3.249q0,3.365,0,6.729h4.362a4.172,4.172,0,0,0,2.77-.959,3.022,3.022,0,0,0,.919-1.776,3.6,3.6,0,0,0-.463-2.489,3.256,3.256,0,0,0-1.984-1.338,9.5,9.5,0,0,0-2.44-.167Z" fill="#494949" fill-rule="evenodd"/>
  </g>
</svg>
