<svg xmlns="http://www.w3.org/2000/svg" xmlns:xlink="http://www.w3.org/1999/xlink" width="192" height="33" viewBox="0 0 192 33">
  <defs>
    <clipPath id="clip-path">
      <rect id="Прямоугольник_989" data-name="Прямоугольник 989" width="192" height="33" transform="translate(0 -0.277)" fill="#fff"/>
    </clipPath>
  </defs>
  <g id="Forrester_Research_logo" transform="translate(0 0.277)" clip-path="url(#clip-path)">
    <path id="Контур_422" data-name="Контур 422" d="M131.709,13.626a3,3,0,1,1,3-3A3.033,3.033,0,0,1,131.709,13.626Zm0-5.673a2.674,2.674,0,1,0,2.639,2.673A2.678,2.678,0,0,0,131.709,7.953Zm.782,4.239-.814-1.338h-.557v1.338h-.359V8.965h1.044a.961.961,0,0,1,1.012.946.942.942,0,0,1-.75.913l.848,1.369h-.425Zm-.717-2.867h-.654V10.5h.654a.615.615,0,0,0,.687-.588A.636.636,0,0,0,131.774,9.325Z" transform="translate(56.557 3.025)" fill="#414141"/>
    <path id="Контур_423" data-name="Контур 423" d="M106.917,7.7c-.1,0-.134.033-1.044.065-.946.032-2.675.065-6.264.065H95.275c-3.555,0-5.312-.033-6.261-.065C88.1,7.73,88.071,7.7,87.972,7.7c-.425,0-.425.262-.425,1.077v3.161c0,.163,0,.588.359.588.392,0,.456-.131,1.077-1.4.39-.88,1.205-2.153,5.9-2.216.485.032.683.13.683.88V25.825c0,1.336,0,2.281-1.727,2.379-.719.065-1.208.1-1.208.585,0,.523.456.523.716.523.655,0,3.456-.13,4.045-.13,1.142,0,2.933.13,4.077.13.256,0,.717,0,.717-.523s-.49-.554-1.208-.585c-1.729-.1-1.729-1.044-1.729-2.447V10.044c0-.914.1-1.077,1.109-1.14,4.3.13,5.085,1.336,5.478,2.184.619,1.271.685,1.4,1.077,1.4.36,0,.36-.423.36-.585V8.74C107.339,7.959,107.339,7.7,106.917,7.7Z" transform="translate(38.447 3.055)" fill="#414141"/>
    <path id="Контур_424" data-name="Контур 424" d="M80.162,23.835c-.325,0-.39.13-1.011,1.336A4.985,4.985,0,0,1,73.968,28.1c-2.9,0-3.622-.39-3.622-2.838V19.332c0-1.041.261-1.041,1.924-1.041,2.835,0,3.781.03,4.53,2.706.163.652.39.815.651.815.428,0,.428-.49.428-.684,0-.265-.1-1.469-.1-1.732,0-.746.232-4.3.232-4.789,0-.39-.161-.49-.39-.49-.164,0-.361.065-.523.523-.621,1.826-.945,2.576-4.759,2.576-1.989,0-1.989-.262-1.989-1.372V10.858c0-1.728.128-1.957,1.856-1.957,4.89,0,5.738,1.306,6.131,2.217.619,1.271.684,1.4,1.074,1.4.359,0,.359-.423.359-.588V8.773c0-.782,0-1.077-.425-1.077-.1,0-.13.033-1.043.065-.945.032-2.706.065-6.26.065H70.378c-2.933,0-4.4-.033-5.185-.065a7.54,7.54,0,0,1-.848-.065c-.228,0-.684,0-.684.49,0,.521.49.554,1.24.588,1.727.1,1.727,1.043,1.727,2.446V25.794c0,1.4,0,2.346-1.727,2.444-.72.065-1.24.1-1.24.588,0,.52.456.52.717.52.229,0,.523-.03,1.077-.065s1.4-.068,2.837-.068h.423c.2,0,1.829.033,3.781.068,1.989.03,4.4.065,6.16.065,1.014,0,1.338-.39,1.369-1.044.1-1.271.491-3.488.491-3.943C80.555,24.127,80.455,23.835,80.162,23.835Z" transform="translate(27.938 3.055)" fill="#414141"/>
    <path id="Контур_425" data-name="Контур 425" d="M119.264,23.835c-.328,0-.392.13-1.012,1.336a4.989,4.989,0,0,1-5.185,2.933c-2.9,0-3.619-.39-3.619-2.838V19.332c0-1.041.262-1.041,1.922-1.041,2.837,0,3.784.03,4.532,2.706.161.652.392.815.651.815.425,0,.425-.49.425-.684,0-.265-.1-1.469-.1-1.732,0-.746.228-4.3.228-4.789,0-.39-.16-.49-.389-.49-.164,0-.357.065-.518.523-.622,1.826-.948,2.576-4.763,2.576-1.987,0-1.987-.262-1.987-1.372V10.858c0-1.728.13-1.957,1.858-1.957,4.892,0,5.735,1.306,6.129,2.217.622,1.271.684,1.4,1.076,1.4.359,0,.359-.423.359-.588V8.773c0-.782,0-1.077-.423-1.077-.1,0-.131.033-1.045.065-.943.032-2.706.065-6.258.065h-1.663c-2.935,0-4.4-.033-5.187-.065a7.158,7.158,0,0,1-.844-.065c-.23,0-.69,0-.69.49,0,.521.491.554,1.24.588,1.727.1,1.727,1.043,1.727,2.446V25.794c0,1.4,0,2.346-1.727,2.444-.717.065-1.24.1-1.24.588,0,.52.458.52.717.52.23,0,.523-.03,1.079-.065s1.4-.068,2.835-.068h.428c.194,0,1.82.033,3.78.068,1.989.03,4.4.065,6.163.065,1.009,0,1.335-.39,1.368-1.044.1-1.271.49-3.488.49-3.943C119.653,24.127,119.558,23.835,119.264,23.835Z" transform="translate(45.14 3.055)" fill="#414141"/>
    <path id="Контур_426" data-name="Контур 426" d="M85.04,16.138c-2.8-1.171-4.857-2.053-4.857-4.532A3.5,3.5,0,0,1,84.03,8.282c2.933.032,3.554,1.957,3.979,3.325.357,1.077.49,1.3.848,1.3.488,0,.488-.294.488-1.044,0-3.1,0-3.421-.426-3.65A13.132,13.132,0,0,0,84.325,7.4c-4.467,0-6.945,2.8-6.945,6.062,0,3.718,2.769,5.121,5.639,6.359,2.542,1.172,4.925,2.508,4.925,5.249,0,2.838-2.773,3.813-4.238,3.813-2.51,0-4.922-2.118-5.576-5.184-.063-.327-.131-.684-.423-.684-.426,0-.455.49-.455.616a22.37,22.37,0,0,0,.2,3.228c.1.877.226,1.6.619,1.859a9.511,9.511,0,0,0,5.116,1.139c4.7,0,7.566-3.257,7.566-7.17C90.713,18.715,87.028,16.988,85.04,16.138Z" transform="translate(33.916 2.925)" fill="#414141"/>
    <path id="Контур_427" data-name="Контур 427" d="M28.689,7.4c-6.748,0-11.868,4.858-11.868,11.183,0,6.716,5.672,11.278,11.77,11.278a11.73,11.73,0,0,0,11.7-11.6C40.327,12.193,35.209,7.4,28.689,7.4Zm.194,21.516c-4.63,0-7.954-5.377-7.954-11.05,0-4.989,3.1-9.487,7.368-9.487,5.476,0,7.921,5.869,7.921,10.041C36.219,23.474,33.676,28.918,28.884,28.918Z" transform="translate(7.33 2.925)" fill="#414141"/>
    <path id="Контур_428" data-name="Контур 428" d="M22.037,1.855a7.244,7.244,0,0,1-1.436.1c-1.3.032-3.911.1-9.095.1H10.433c-4.923,0-6.749-.066-8.021-.1-1.24-.065-1.3-.1-1.4-.1C.652,1.855,0,1.855,0,2.54s.75.75,1.794.848c2.477.163,2.477,1.5,2.477,3.552V27.579c0,1.662,0,2.8-2.12,2.933-.88.1-1.467.13-1.467.717,0,.619.554.619.88.619.816,0,4.336-.16,5.053-.16,1.4,0,3.685.16,5.086.16.327,0,.88,0,.88-.619,0-.652-.586-.687-1.5-.717-2.12-.13-2.12-1.271-2.12-3V19.852c0-1.4,0-1.989.815-2.186a38.079,38.079,0,0,1,4.3-.13c1.24,0,4.435,0,5.119,2.706.1.262.425,1.532.553,1.892.1.256.294.812.783.782.586-.033.586-.588.586-.948l-.2-2.346c-.1-1.142-.1-1.989-.1-2.444,0-.752.164-4.143.164-4.827,0-.49-.164-.815-.586-.85-.458-.032-.685.39-.782.814C19,14.892,18.286,16,14.246,16c-.749,0-3.717,0-4.467-.1-.651-.1-.78-.163-.78-2.835V6.093c0-2.347.848-2.444,2.542-2.444,7.76,0,8.412,1.076,9.878,4.4.2.423.39,1.011.946,1.011s.554-.782.554-.946V2.768C22.885,2.117,22.822,1.855,22.037,1.855Z" transform="translate(-0.071 0.485)" fill="#414141"/>
    <path id="Контур_429" data-name="Контур 429" d="M53.021,28.277c-.978-.13-1.436-1.012-2.153-2.219L47.511,20.13c-.782-1.437-1.2-1.665-1.662-1.927,1.174-.228,4.727-1.074,4.727-5.119,0-1.205-.523-5.41-6.618-5.41-1.044,0-5.607.13-6.553.13-.423,0-2.118-.13-2.447-.13-1.14,0-1.271,0-1.271.488s.49.521,1.24.556c1.693.1,1.693,1.043,1.693,2.447V25.8c0,1.431,0,2.346-1.693,2.478-.719.03-1.24.065-1.24.554,0,.52.458.49.719.49.619,0,3.423-.13,4.009-.13.131,0,3.489.13,4.14.13.261,0,.719.03.719-.458,0-.52-.49-.554-1.24-.585-1.727-.1-1.727-1.047-1.727-2.478v-6.2c0-.585.065-.782.652-.782,1.565,0,1.729.13,2.478,1.631l4.172,7.855c.39.717.521,1.044,1.14,1.044h4.532c.228,0,.586-.065.586-.425C53.934,28.539,53.737,28.407,53.021,28.277ZM42.066,17.911c-1.727,0-1.727-.068-1.727-1.271v-5.8c0-1.338.032-2.184,1.63-2.184,4.27,0,4.759,3.683,4.759,4.923C46.729,17.911,43.306,17.911,42.066,17.911Z" transform="translate(14.75 3.045)" fill="#414141"/>
    <path id="Контур_430" data-name="Контур 430" d="M68.054,28.277c-.976-.13-1.434-1.012-2.153-2.219L62.544,20.13c-.782-1.437-1.2-1.665-1.66-1.927,1.172-.228,4.726-1.074,4.726-5.119,0-1.205-.521-5.41-6.617-5.41-1.045,0-5.607.13-6.555.13-.423,0-2.118-.13-2.445-.13-1.142,0-1.273,0-1.273.488s.49.521,1.24.556c1.695.1,1.695,1.043,1.695,2.447V25.8c0,1.431,0,2.346-1.695,2.478-.719.03-1.24.065-1.24.554,0,.52.458.49.72.49.619,0,3.421-.13,4.007-.13.131,0,3.49.13,4.141.13.264,0,.717.03.717-.458,0-.52-.49-.554-1.238-.585-1.728-.1-1.728-1.047-1.728-2.478v-6.2c0-.585.066-.782.651-.782,1.567,0,1.729.13,2.478,1.631l4.173,7.855c.39.717.52,1.044,1.14,1.044h4.53c.229,0,.588-.065.588-.425C68.936,28.539,68.773,28.407,68.054,28.277ZM57.1,17.911c-1.729,0-1.729-.068-1.729-1.271v-5.8c0-1.338.033-2.184,1.63-2.184,4.27,0,4.762,3.683,4.762,4.923C61.73,17.911,58.34,17.911,57.1,17.911Z" transform="translate(21.364 3.045)" fill="#414141"/>
    <path id="Контур_431" data-name="Контур 431" d="M135.15,28.267c-.978-.13-1.434-1.012-2.151-2.219l-3.326-5.9c-.783-1.434-1.207-1.662-1.66-1.924,1.171-.23,4.727-1.077,4.727-5.119,0-1.205-.523-5.411-6.621-5.411-1.044,0-5.607.131-6.552.131-.425,0-2.121-.131-2.445-.131-1.142,0-1.271,0-1.271.49s.488.521,1.237.554c1.695.1,1.695,1.044,1.695,2.445V25.824c0,1.431,0,2.346-1.695,2.475-.717.036-1.237.068-1.237.557,0,.52.454.49.717.49.619,0,3.423-.132,4.007-.132.132,0,3.491.132,4.141.132.262,0,.717.03.717-.455,0-.523-.487-.554-1.238-.59-1.725-.1-1.725-1.044-1.725-2.475V19.632c0-.59.062-.785.649-.785,1.567,0,1.729.132,2.48,1.631l4.172,7.858c.39.717.521,1.041,1.14,1.041h4.532c.228,0,.586-.065.586-.425C136.064,28.529,135.9,28.4,135.15,28.267ZM124.2,17.9c-1.725,0-1.725-.068-1.725-1.271v-5.8c0-1.338.032-2.184,1.627-2.184,4.274,0,4.762,3.683,4.762,4.923C128.859,17.9,125.434,17.9,124.2,17.9Z" transform="translate(50.899 3.055)" fill="#414141"/>
  </g>
</svg>
