<svg width="62" height="62" viewBox="0 0 62 62" fill="none" xmlns="http://www.w3.org/2000/svg">
<path fill-rule="evenodd" clip-rule="evenodd" d="M30.9993 51.6666C32.4261 51.6666 33.5827 50.51 33.5827 49.0833V12.9166C33.5827 11.4899 32.4261 10.3333 30.9993 10.3333C29.5726 10.3333 28.416 11.4899 28.416 12.9166V49.0833C28.416 50.51 29.5726 51.6666 30.9993 51.6666Z" fill="white"/>
<path fill-rule="evenodd" clip-rule="evenodd" d="M29.174 50.91C30.1828 51.9188 31.8185 51.9188 32.8273 50.91L50.9107 32.8267C51.9195 31.8178 51.9195 30.1821 50.9107 29.1733C49.9018 28.1644 48.2661 28.1644 47.2573 29.1733L31.0006 45.4299L14.744 29.1733C13.7352 28.1644 12.0995 28.1644 11.0906 29.1733C10.0818 30.1821 10.0818 31.8178 11.0906 32.8267L29.174 50.91Z" fill="white"/>
</svg>
