<svg width="165" height="50" viewBox="0 0 165 50" fill="none" xmlns="http://www.w3.org/2000/svg">
<g clip-path="url(#clip0)">
<path d="M5.01896 4.48821C5.52997 4.73155 5.92421 5.16684 6.11592 5.69937C6.30763 6.2319 6.2813 6.81859 6.04265 7.33181C5.9151 7.60855 5.73106 7.85555 5.50237 8.05693C5.26179 8.26575 4.98349 8.42662 4.68246 8.53086C4.35386 8.64725 4.00736 8.705 3.65877 8.70148H0V0.739394H3.58768C3.91921 0.736249 4.24902 0.787481 4.56398 0.891053C4.84488 0.985976 5.10652 1.13044 5.33649 1.31759C5.55294 1.48977 5.72788 1.70844 5.84834 1.9574C5.97337 2.21075 6.0367 2.49007 6.03318 2.77257C6.03452 3.12176 5.9394 3.46453 5.75829 3.76309C5.57674 4.06312 5.32245 4.31251 5.01896 4.48821ZM3.95261 3.13276C3.95615 3.04049 3.94027 2.94851 3.90598 2.86279C3.87168 2.77706 3.81975 2.69949 3.75355 2.63513C3.68014 2.56821 3.59414 2.51656 3.50057 2.4832C3.407 2.44984 3.30772 2.43543 3.20853 2.44082H2.11374V3.82944H3.20853C3.30772 3.83482 3.407 3.82042 3.50057 3.78706C3.59414 3.7537 3.68014 3.70205 3.75355 3.63513C3.82012 3.57004 3.87225 3.49168 3.90654 3.40513C3.94083 3.31857 3.95653 3.22577 3.95261 3.13276ZM3.31754 6.90527C3.42065 6.90945 3.52357 6.89317 3.62037 6.85738C3.71717 6.82159 3.80592 6.76699 3.88152 6.69674C3.95006 6.62638 4.00284 6.54223 4.03635 6.44989C4.06985 6.35755 4.08331 6.25914 4.07583 6.16119C4.0789 6.06349 4.06152 5.96622 4.02479 5.87562C3.98806 5.78503 3.9328 5.70311 3.86256 5.63513C3.71266 5.50263 3.51745 5.43303 3.31754 5.44082H2.11374V6.90527H3.31754Z" fill="white"/>
<path d="M10.2326 8.89094C9.81462 8.89631 9.39899 8.8273 9.00514 8.68715C8.65393 8.56147 8.33159 8.36645 8.05727 8.11369C7.78836 7.86606 7.5779 7.56171 7.44116 7.22269C7.29431 6.85015 7.22186 6.45246 7.22789 6.05207V2.55444H9.33689V5.96203C9.32058 6.23748 9.40667 6.50924 9.5786 6.72506C9.66291 6.81692 9.76663 6.88883 9.88223 6.93556C9.99782 6.98229 10.1224 7.00267 10.2468 6.9952C10.3688 6.99959 10.4904 6.97775 10.6032 6.93114C10.716 6.88454 10.8175 6.81426 10.9009 6.72506C11.0695 6.50774 11.1537 6.23666 11.1378 5.96203V2.55444H13.2705V6.05207C13.2751 6.45278 13.201 6.85048 13.0525 7.22269C12.9158 7.56053 12.7072 7.86456 12.4412 8.11369C12.1665 8.36604 11.8443 8.56101 11.4933 8.68715C11.089 8.83124 10.6617 8.9003 10.2326 8.89094Z" fill="white"/>
<path d="M16.8674 8.891C16.4857 8.89595 16.1054 8.84322 15.7394 8.7346C15.4316 8.64092 15.145 8.48798 14.8958 8.28436C14.6664 8.09308 14.4819 7.8536 14.3555 7.58294C14.2246 7.29762 14.1582 6.98691 14.1612 6.67299H16.1944C16.1915 6.76211 16.2082 6.85078 16.2434 6.9327C16.2786 7.01461 16.3315 7.08776 16.3982 7.14692C16.5413 7.2589 16.7189 7.31755 16.9006 7.3128C17.0484 7.31646 17.1938 7.27514 17.3176 7.19431C17.3778 7.15629 17.4267 7.10282 17.4592 7.03947C17.4918 6.97612 17.5067 6.9052 17.5025 6.83412C17.4993 6.7471 17.4673 6.66359 17.4116 6.59669C17.3558 6.52979 17.2794 6.48328 17.1944 6.46446C16.9531 6.38387 16.7059 6.32208 16.4551 6.27962C16.2228 6.24171 15.9811 6.18957 15.711 6.12796C15.4562 6.06366 15.2131 5.95971 14.9906 5.81991C14.7694 5.67608 14.5845 5.48306 14.4503 5.25592C14.3011 4.97825 14.2291 4.66567 14.2418 4.35071C14.2359 4.05985 14.301 3.77193 14.4314 3.51185C14.558 3.26412 14.7376 3.0473 14.9574 2.87678C15.2046 2.69084 15.4843 2.55262 15.7821 2.4692C16.1326 2.38528 16.4932 2.35177 16.8532 2.36967C17.214 2.3643 17.5736 2.41384 17.9195 2.51659C18.2161 2.60272 18.4931 2.74601 18.7347 2.93839C18.9555 3.11623 19.1337 3.34134 19.256 3.59716C19.3819 3.86426 19.4497 4.15501 19.4551 4.45024H17.4788C17.4857 4.3682 17.4735 4.28568 17.4431 4.20918C17.4126 4.13268 17.3648 4.06432 17.3034 4.00948C17.1666 3.90871 16.9991 3.85846 16.8295 3.8673C16.6828 3.8611 16.5381 3.90268 16.4172 3.98578C16.3666 4.02546 16.3264 4.07679 16.3 4.13539C16.2736 4.19399 16.2617 4.25811 16.2655 4.32228C16.2655 4.49763 16.365 4.61611 16.5736 4.68247C16.8183 4.7539 17.0667 4.81243 17.3176 4.85782C17.5641 4.90047 17.8153 4.95735 18.0807 5.01422C18.3381 5.07493 18.5855 5.17229 18.8153 5.30332C19.041 5.44059 19.2297 5.63095 19.365 5.85782C19.523 6.14775 19.5969 6.47604 19.5783 6.80569C19.5839 7.1077 19.5173 7.40668 19.384 7.67773C19.2557 7.94055 19.0674 8.16947 18.8342 8.34597C18.5769 8.54078 18.2862 8.68694 17.9764 8.77725C17.6146 8.87108 17.2407 8.90943 16.8674 8.891Z" fill="white"/>
<path d="M20.5684 2.5545H22.6774V8.6872H20.5684V2.5545ZM21.4688 0H21.7627C21.9994 -3.31374e-06 22.2265 0.0937176 22.3944 0.260677C22.5622 0.427636 22.6572 0.654254 22.6584 0.890995C22.6572 1.12774 22.5622 1.35435 22.3944 1.52131C22.2265 1.68827 21.9994 1.78199 21.7627 1.78199H21.4688C21.3518 1.78199 21.236 1.75894 21.1279 1.71417C21.0198 1.66939 20.9215 1.60376 20.8388 1.52102C20.7561 1.43829 20.6904 1.34007 20.6457 1.23196C20.6009 1.12386 20.5778 1.008 20.5778 0.890995C20.5778 0.773988 20.6009 0.658127 20.6457 0.550026C20.6904 0.441926 20.7561 0.343703 20.8388 0.260967C20.9215 0.17823 21.0198 0.1126 21.1279 0.067823C21.236 0.0230463 21.3518 0 21.4688 0V0Z" fill="white"/>
<path d="M27.7112 2.36966C28.0358 2.36823 28.3576 2.42938 28.6591 2.54975C28.946 2.66951 29.2032 2.85069 29.4126 3.08056C29.6247 3.31342 29.786 3.58777 29.8865 3.88624C30.0044 4.22921 30.0622 4.58997 30.0572 4.95259V8.68719H27.9624V5.23695C27.9624 4.52605 27.697 4.16586 27.1709 4.16586C27.0261 4.15875 26.8816 4.18496 26.7484 4.24248C26.6153 4.29999 26.4972 4.38728 26.4031 4.49762C26.2094 4.7636 26.1139 5.08855 26.133 5.41705V8.68719H24.0098V2.55923H25.4837L25.7823 3.19904C26.0113 2.9392 26.2966 2.73498 26.6164 2.60188C26.9605 2.44712 27.3339 2.36793 27.7112 2.36966Z" fill="white"/>
<path d="M37.6495 5.56394C37.6542 5.65551 37.6542 5.74726 37.6495 5.83883C37.6495 5.92887 37.6495 6.02366 37.6163 6.12319H33.0476C33.0932 6.43137 33.2438 6.71433 33.4741 6.92413C33.7092 7.10687 34.0012 7.20085 34.2988 7.18954C34.529 7.19345 34.7567 7.1414 34.9623 7.03788C35.1574 6.94335 35.3217 6.79546 35.4362 6.61134H37.5358C37.4314 6.95138 37.2712 7.2717 37.0618 7.55921C36.862 7.83809 36.6169 8.08158 36.3367 8.27958C36.0482 8.48733 35.7281 8.64735 35.3888 8.75352C35.0335 8.85888 34.6647 8.91157 34.294 8.90992C33.8414 8.91556 33.392 8.83181 32.9718 8.66347C32.5793 8.50303 32.2208 8.26987 31.9149 7.97627C31.6163 7.68059 31.3781 7.32969 31.2135 6.94309C31.0455 6.52934 30.9618 6.08627 30.967 5.63977C30.9618 5.19327 31.0455 4.75021 31.2135 4.33646C31.374 3.94599 31.6108 3.59151 31.9102 3.2938C32.2115 2.99912 32.5694 2.76857 32.9623 2.61608C33.3876 2.44792 33.8415 2.36422 34.2988 2.36963C34.7626 2.36507 35.2229 2.45037 35.6542 2.62082C36.05 2.77544 36.4109 3.00745 36.7158 3.30328C37.0136 3.58932 37.2478 3.9349 37.4031 4.3175C37.5658 4.71291 37.6495 5.13636 37.6495 5.56394ZM34.2988 4.00944C34.0206 3.99976 33.747 4.08315 33.5215 4.24641C33.3 4.42609 33.1449 4.67464 33.0808 4.95257H35.5689C35.5042 4.6699 35.3406 4.41961 35.1078 4.24673C34.875 4.07384 34.5881 3.9897 34.2988 4.00944Z" fill="white"/>
<path d="M40.9768 8.89093C40.5966 8.89621 40.2178 8.84347 39.8535 8.73454C39.5443 8.64086 39.2561 8.48795 39.0052 8.2843C38.7758 8.09302 38.5913 7.85353 38.4649 7.58288C38.334 7.29756 38.2676 6.98685 38.2706 6.67292H40.2848C40.2814 6.76255 40.2984 6.85178 40.3346 6.93388C40.3707 7.01598 40.425 7.0888 40.4934 7.14686C40.6279 7.25437 40.7951 7.31287 40.9673 7.31273C41.1166 7.31647 41.2636 7.27518 41.3891 7.19425C41.4477 7.15495 41.4952 7.10109 41.5267 7.03795C41.5583 6.97481 41.5729 6.90455 41.5692 6.83406C41.566 6.74704 41.534 6.66353 41.4783 6.59663C41.4225 6.52973 41.3462 6.48322 41.2611 6.46439C41.0213 6.38433 40.7757 6.32254 40.5265 6.27956C40.2896 6.24164 40.0526 6.18951 39.7825 6.1279C39.5265 6.06276 39.2819 5.95887 39.0573 5.81984C38.8365 5.67709 38.6529 5.48375 38.5218 5.25586C38.3687 4.97951 38.2949 4.66627 38.3085 4.35065C38.3027 4.05978 38.3677 3.77187 38.4981 3.51179C38.6247 3.26406 38.8043 3.04724 39.0242 2.87672C39.2713 2.69078 39.551 2.55256 39.8488 2.46913C40.2131 2.38109 40.5884 2.34755 40.9625 2.36961C41.3249 2.36427 41.6861 2.4138 42.0336 2.51653C42.3286 2.60323 42.6038 2.74649 42.8441 2.93833C43.0649 3.11616 43.2431 3.34128 43.3654 3.59709C43.4957 3.86265 43.5637 4.15439 43.5644 4.45018H41.5881C41.5951 4.36814 41.5829 4.28561 41.5524 4.20912C41.522 4.13262 41.4742 4.06425 41.4128 4.00942C41.2762 3.90829 41.1086 3.858 40.9389 3.86724C40.7907 3.86103 40.6445 3.90257 40.5218 3.98572C40.4721 4.02617 40.4325 4.07764 40.4062 4.13605C40.3799 4.19446 40.3675 4.2582 40.3701 4.32221C40.3701 4.49757 40.4744 4.61605 40.6829 4.6824C40.9276 4.75437 41.176 4.81291 41.427 4.85776C41.6687 4.90041 41.9009 4.95728 42.1853 5.01416C42.443 5.07403 42.6905 5.17144 42.9199 5.30326C43.1467 5.43912 43.3357 5.62979 43.4697 5.85776C43.6276 6.14768 43.7015 6.47597 43.6829 6.80562C43.6871 7.10696 43.6222 7.40524 43.4934 7.67766C43.3641 7.93982 43.1759 8.16852 42.9436 8.34591C42.6852 8.53888 42.3948 8.68487 42.0858 8.77719C41.7239 8.87024 41.35 8.90857 40.9768 8.89093Z" fill="white"/>
<path d="M47.038 8.891C46.6579 8.89591 46.2792 8.84318 45.9148 8.7346C45.607 8.64093 45.3204 8.48798 45.0712 8.28437C44.8486 8.09111 44.6708 7.85178 44.5499 7.58295C44.4189 7.29763 44.3526 6.98692 44.3556 6.67299H46.3887C46.3848 6.76224 46.4011 6.85124 46.4363 6.93331C46.4716 7.01538 46.525 7.08841 46.5925 7.14693C46.7356 7.25891 46.9133 7.31756 47.0949 7.3128C47.2427 7.31647 47.3882 7.27515 47.512 7.19432C47.5722 7.1563 47.6211 7.10283 47.6536 7.03947C47.6861 6.97612 47.701 6.90521 47.6968 6.83413C47.6936 6.74711 47.6616 6.6636 47.6059 6.5967C47.5501 6.5298 47.4738 6.48329 47.3887 6.46446C47.1474 6.38388 46.9003 6.32208 46.6494 6.27963C46.4172 6.24171 46.1755 6.18958 45.9053 6.12797C45.6505 6.06367 45.4074 5.95972 45.1849 5.81991C44.9638 5.67609 44.7789 5.48307 44.6447 5.25593C44.4955 4.97826 44.4235 4.66567 44.4361 4.35072C44.431 4.06046 44.4943 3.77308 44.621 3.51186C44.7515 3.26531 44.9323 3.04894 45.1518 2.87678C45.3993 2.69976 45.6772 2.56964 45.9717 2.4929C46.3163 2.40191 46.6722 2.36042 47.0286 2.36968C47.3894 2.3643 47.749 2.41384 48.0949 2.51659C48.3911 2.60384 48.6678 2.74702 48.9101 2.9384C49.1294 3.11777 49.3072 3.34251 49.4314 3.59716C49.5573 3.86427 49.6251 4.15502 49.6305 4.45024H47.6541C47.66 4.36831 47.6473 4.28611 47.6169 4.20979C47.5866 4.13346 47.5393 4.06499 47.4788 4.00949C47.342 3.90871 47.1745 3.85847 47.0049 3.86731C46.8581 3.86041 46.7132 3.90205 46.5925 3.98579C46.5414 4.02523 46.5005 4.07639 46.4733 4.13496C46.4461 4.19352 46.4333 4.25776 46.4361 4.32228C46.4361 4.49764 46.5404 4.61612 46.7489 4.68247C46.9936 4.75444 47.242 4.81298 47.493 4.85783C47.7347 4.90048 47.9906 4.95735 48.256 5.01423C48.5123 5.07408 48.7582 5.1715 48.9859 5.30332C49.213 5.44044 49.4033 5.63075 49.5404 5.85783C49.6984 6.14775 49.7723 6.47604 49.7537 6.80569C49.759 7.10278 49.6945 7.39698 49.5652 7.66453C49.436 7.93209 49.2457 8.16552 49.0096 8.34598C48.7517 8.53981 48.4612 8.68587 48.1518 8.77726C47.7884 8.87142 47.4129 8.90978 47.038 8.891Z" fill="white"/>
<path d="M61.3179 4.44065C61.323 5.05255 61.2203 5.66057 61.0146 6.23686C60.831 6.76442 60.5406 7.24843 60.1615 7.65866C59.7917 8.0563 59.3407 8.36985 58.8392 8.5781C58.3 8.80082 57.7212 8.91206 57.1378 8.90511C56.5595 8.90689 55.9864 8.79581 55.4506 8.5781C54.9502 8.38339 54.4941 8.09006 54.1094 7.71554C53.726 7.34239 53.4242 6.89375 53.2231 6.398C53.0067 5.86713 52.8987 5.29828 52.9056 4.72502C52.8994 4.15073 53.0057 3.58078 53.2184 3.04729C53.4178 2.5513 53.7143 2.10014 54.0904 1.72028C54.4721 1.34186 54.9268 1.04514 55.4269 0.848238C55.9652 0.635134 56.5399 0.528892 57.1189 0.535442C57.6196 0.531297 58.1176 0.609759 58.5928 0.767669C59.0392 0.913956 59.4575 1.13512 59.8298 1.4217C60.1892 1.69881 60.4986 2.03543 60.7444 2.41696C60.9814 2.80822 61.1422 3.24079 61.2184 3.69184H58.9245C58.7826 3.35388 58.5348 3.07113 58.2184 2.88615C57.9335 2.72117 57.6151 2.62269 57.2868 2.59807C56.9585 2.57345 56.6289 2.62332 56.3226 2.74397C56.0818 2.84154 55.8651 2.99032 55.6876 3.17999C55.5068 3.37565 55.3681 3.60631 55.28 3.85772C55.1822 4.13626 55.1341 4.42982 55.1378 4.72502C55.1349 5.01705 55.183 5.30736 55.28 5.58283C55.3665 5.83111 55.5037 6.05868 55.6828 6.25108C55.8592 6.43882 56.0743 6.58598 56.3132 6.68236C56.5747 6.78959 56.8552 6.84279 57.1378 6.83876C57.5271 6.84471 57.9112 6.74829 58.2516 6.55914C58.5549 6.39459 58.7937 6.13239 58.9293 5.81506H56.953V4.44065H61.3179Z" fill="white"/>
<path d="M66.2797 2.52139V4.46452H65.4598C65.3141 4.44969 65.1668 4.46519 65.0273 4.51006C64.8879 4.55492 64.7592 4.62816 64.6494 4.72518C64.4659 4.96446 64.378 5.26351 64.403 5.56404V8.68727H62.2939V2.55456H63.7157L64.0428 3.23703C64.2449 3.00183 64.4976 2.81548 64.7821 2.692C65.0838 2.57359 65.4059 2.51562 65.73 2.52139H66.2797Z" fill="white"/>
<path d="M70.0573 8.89101C69.5866 8.89676 69.1189 8.81479 68.6781 8.6493C68.2738 8.49509 67.9034 8.26325 67.5881 7.96684C67.2802 7.676 67.0365 7.32411 66.8725 6.93366C66.702 6.51719 66.6166 6.07084 66.6213 5.62087C66.6171 5.17094 66.7025 4.72469 66.8725 4.30807C67.0389 3.91894 67.2823 3.56749 67.5881 3.2749C67.9033 2.9795 68.2738 2.74919 68.6781 2.59717C69.5666 2.26839 70.5433 2.26839 71.4317 2.59717C71.8327 2.7503 72.1998 2.98054 72.5123 3.2749C72.8166 3.56874 73.0598 3.91987 73.2279 4.30807C73.3978 4.72469 73.4832 5.17094 73.4791 5.62087C73.4837 6.07084 73.3983 6.51719 73.2279 6.93366C73.0622 7.32318 72.8187 7.67476 72.5123 7.96684C72.1969 8.26325 71.8266 8.49509 71.4222 8.6493C70.986 8.81306 70.5233 8.895 70.0573 8.89101ZM70.0573 6.99527C70.2329 7.0008 70.4077 6.96997 70.5708 6.90472C70.7339 6.83948 70.8818 6.74122 71.0052 6.61613C71.1297 6.48303 71.2265 6.3265 71.29 6.15563C71.3534 5.98477 71.3823 5.80299 71.3748 5.62087C71.3827 5.43942 71.3541 5.25823 71.2905 5.08808C71.227 4.91792 71.13 4.76226 71.0052 4.63035C70.8827 4.50369 70.7352 4.40409 70.5719 4.33797C70.4086 4.27185 70.2333 4.24068 70.0573 4.24646C69.8814 4.24184 69.7064 4.27355 69.5433 4.3396C69.3802 4.40565 69.2325 4.50463 69.1094 4.63035C68.984 4.76203 68.8862 4.91754 68.8219 5.08768C68.7576 5.25781 68.728 5.43912 68.735 5.62087C68.7285 5.80328 68.7582 5.98519 68.8224 6.15603C68.8867 6.32688 68.9843 6.48327 69.1094 6.61613C69.2342 6.74067 69.3829 6.83851 69.5467 6.9037C69.7105 6.96888 69.8858 7.00004 70.062 6.99527H70.0573Z" fill="white"/>
<path d="M77.4217 8.89094C76.999 8.89739 76.5785 8.82838 76.18 8.68715C75.8295 8.55998 75.5075 8.36513 75.2322 8.11369C74.9647 7.86578 74.7559 7.56141 74.6208 7.22269C74.4701 6.85112 74.396 6.45297 74.4028 6.05207V2.55444H76.5165V5.96203C76.5006 6.23666 76.5848 6.50774 76.7535 6.72506C76.8415 6.81319 76.9461 6.8831 77.0611 6.9308C77.1762 6.9785 77.2995 7.00306 77.4241 7.00306C77.5487 7.00306 77.672 6.9785 77.7871 6.9308C77.9021 6.8831 78.0067 6.81319 78.0947 6.72506C78.2634 6.50774 78.3476 6.23666 78.3317 5.96203V2.55444H80.4454V6.05207C80.4522 6.45297 80.3781 6.85112 80.2274 7.22269C80.0937 7.56096 79.8865 7.8653 79.6208 8.11369C79.3455 8.36513 79.0234 8.55998 78.6729 8.68715C78.2714 8.8293 77.8476 8.89832 77.4217 8.89094Z" fill="white"/>
<path d="M85.261 2.36966C85.7044 2.36451 86.1443 2.44831 86.5548 2.61611C86.9354 2.76854 87.2807 2.99761 87.569 3.28909C87.8565 3.58611 88.082 3.93731 88.2325 4.32227C88.3928 4.74287 88.4732 5.18971 88.4695 5.63981C88.4736 6.08994 88.3933 6.53686 88.2325 6.95734C88.0842 7.34343 87.8584 7.69504 87.569 7.99052C87.2797 8.28197 86.9348 8.51242 86.5548 8.66824C86.145 8.83235 85.7071 8.91446 85.2657 8.90995C84.9968 8.91215 84.7288 8.87707 84.4695 8.80568C84.2248 8.73193 83.9894 8.63015 83.7681 8.50236V10.0332H81.6875V2.5545H83.1093L83.37 3.02843C83.6266 2.81047 83.9182 2.63742 84.2325 2.51658C84.5636 2.40571 84.9121 2.35592 85.261 2.36966ZM84.9813 7.04739C85.1682 7.05032 85.3537 7.01483 85.5264 6.94312C85.6908 6.87224 85.8403 6.77093 85.9671 6.64455C86.0916 6.51812 86.1898 6.36832 86.2562 6.20379C86.3241 6.02361 86.3579 5.83235 86.3557 5.63981C86.3622 5.45446 86.3315 5.2697 86.2656 5.09636C86.1997 4.92302 86.0998 4.76458 85.9719 4.63033C85.7067 4.37406 85.3524 4.23081 84.9837 4.23081C84.615 4.23081 84.2607 4.37406 83.9956 4.63033C83.7381 4.90248 83.5984 5.26525 83.6069 5.63981C83.6009 5.82551 83.6322 6.01054 83.6989 6.18394C83.7657 6.35734 83.8665 6.51558 83.9956 6.64928C84.1247 6.7773 84.2789 6.8771 84.4486 6.94237C84.6183 7.00763 84.7997 7.03694 84.9813 7.02843V7.04739Z" fill="white"/>
<path d="M16.1137 35.763V42.18H0V13.4739H7.109V35.7488L16.1137 35.763Z" fill="white"/>
<path d="M28.607 42.8436C27.104 42.8589 25.6111 42.5954 24.2042 42.0663C22.9118 41.5741 21.7284 40.8334 20.7208 39.8862C19.7399 38.9487 18.9624 37.8194 18.4364 36.5687C17.3493 33.8765 17.3493 30.8675 18.4364 28.1753C18.9619 26.9243 19.7395 25.795 20.7208 24.8578C21.7272 23.909 22.9109 23.1681 24.2042 22.6777C27.0484 21.6348 30.1704 21.6348 33.0146 22.6777C34.3081 23.1757 35.4904 23.9247 36.4933 24.8815C37.4729 25.8201 38.2503 26.949 38.7776 28.199C39.8647 30.8912 39.8647 33.9002 38.7776 36.5924C38.2503 37.8424 37.4729 38.9713 36.4933 39.9099C35.4857 40.8571 34.3022 41.5978 33.0099 42.09C31.6013 42.6108 30.1086 42.8663 28.607 42.8436ZM28.607 36.7772C29.1739 36.7986 29.7388 36.6998 30.2648 36.4875C30.7909 36.2751 31.266 35.9539 31.6592 35.545C32.0584 35.1214 32.3689 34.6223 32.5723 34.077C32.7758 33.5317 32.8682 32.9512 32.844 32.3696C32.868 31.7874 32.7756 31.2062 32.5721 30.6601C32.3687 30.1141 32.0583 29.6141 31.6592 29.1895C31.2662 28.7865 30.7935 28.47 30.2712 28.2603C29.7488 28.0506 29.1885 27.9522 28.626 27.9715C28.063 27.9584 27.5033 28.0609 26.9815 28.2729C26.4598 28.4849 25.9871 28.8017 25.5928 29.2037C25.1898 29.6262 24.8759 30.1255 24.6699 30.6719C24.4639 31.2182 24.37 31.8004 24.3938 32.3838C24.3717 32.9642 24.4665 33.5431 24.6725 34.0861C24.8785 34.6291 25.1914 35.1252 25.5928 35.545C25.9864 35.948 26.459 36.2654 26.9809 36.4774C27.5028 36.6894 28.0628 36.7915 28.626 36.7772H28.607Z" fill="white"/>
<path d="M63.0333 22.5734V40.0094C63.0551 41.4359 62.8091 42.8538 62.3082 44.1895C61.8557 45.3803 61.1414 46.4541 60.2181 47.3317C59.2641 48.2182 58.1336 48.8933 56.9006 49.3127C55.4924 49.79 54.0129 50.0224 52.5262 49.9999C49.7142 49.9999 47.3951 49.3459 45.5688 48.0379C43.7446 46.736 42.5108 44.7642 42.1376 42.5544H48.6731C48.8031 42.8876 48.9989 43.1911 49.2489 43.4468C49.4989 43.7025 49.798 43.9051 50.1281 44.0426C50.8578 44.3833 51.6545 44.5566 52.4598 44.5497C53.5115 44.5783 54.5376 44.2228 55.3461 43.5497C55.7423 43.2049 56.0545 42.7742 56.2591 42.2905C56.4636 41.8067 56.5549 41.2827 56.5262 40.7582V40.1943C55.7886 40.6839 54.9797 41.0564 54.1281 41.2985C53.2428 41.5562 52.325 41.6855 51.403 41.6824C50.0648 41.6958 48.7373 41.4429 47.4978 40.9383C46.3322 40.4704 45.2741 39.7703 44.3876 38.8806C43.5012 37.9909 42.805 36.9302 42.3414 35.763C41.8355 34.504 41.5826 33.1576 41.5973 31.8009C41.5839 30.4627 41.8368 29.1352 42.3414 27.8957C42.8146 26.7304 43.5118 25.6693 44.3935 24.7725C45.2775 23.8792 46.3336 23.1746 47.4978 22.7014C48.7373 22.1968 50.0648 21.9439 51.403 21.9573C52.5565 21.947 53.702 22.1494 54.7821 22.5544C55.8136 22.9476 56.774 23.5063 57.6257 24.2085L58.4598 22.5734H63.0333ZM52.5309 36.1232C53.0909 36.1446 53.649 36.0471 54.1686 35.8371C54.6881 35.6272 55.1573 35.3096 55.5451 34.9052C55.9347 34.4905 56.238 34.0025 56.4373 33.4696C56.6366 32.9367 56.7281 32.3694 56.7063 31.8009C56.7267 31.2404 56.6344 30.6814 56.435 30.1572C56.2355 29.6329 55.9329 29.154 55.5451 28.7488C54.7304 27.9788 53.6519 27.5499 52.5309 27.5499C51.41 27.5499 50.3315 27.9788 49.5167 28.7488C49.1266 29.153 48.8216 29.6314 48.6197 30.1557C48.4178 30.68 48.3231 31.2394 48.3414 31.8009C48.3205 32.3697 48.4128 32.9371 48.6129 33.47C48.8131 34.0029 49.117 34.4907 49.5072 34.9052C49.896 35.311 50.3667 35.6295 50.888 35.8395C51.4093 36.0495 51.9694 36.1462 52.5309 36.1232Z" fill="white"/>
<path d="M67.2988 22.5735H74.0524V42.1801H67.2988V22.5735Z" fill="white"/>
<path d="M85.8812 42.8435C84.6632 42.8599 83.45 42.6888 82.284 42.3364C81.2972 42.0417 80.3766 41.5589 79.5731 40.9146C78.8422 40.3052 78.2534 39.5433 77.848 38.6824C77.4308 37.7713 77.2204 36.7792 77.2319 35.7772H83.7343C83.7122 36.073 83.7598 36.37 83.8734 36.6441C83.987 36.9182 84.1634 37.1618 84.3883 37.3554C84.8444 37.7125 85.4111 37.8986 85.9902 37.8814C86.4648 37.8898 86.9314 37.7579 87.3314 37.5023C87.5212 37.3796 87.6751 37.2089 87.7775 37.0074C87.8799 36.806 87.9271 36.581 87.9143 36.3554C87.9084 36.0767 87.8081 35.8083 87.63 35.5939C87.4518 35.3796 87.2062 35.232 86.9333 35.1753C86.1601 34.9149 85.3678 34.7152 84.5636 34.5781C83.8148 34.4549 83.0234 34.2937 82.194 34.1042C81.3752 33.9085 80.595 33.5769 79.8859 33.1231C79.1699 32.6576 78.5778 32.0249 78.1608 31.2795C77.6779 30.3898 77.4453 29.3858 77.4878 28.3743C77.4721 27.4486 77.6768 26.5324 78.085 25.7013C78.4952 24.9172 79.0728 24.2328 79.7769 23.6966C80.5626 23.0974 81.4553 22.6535 82.4072 22.3885C83.524 22.0671 84.6812 21.9075 85.8433 21.9146C86.9981 21.8991 88.1486 22.0589 89.2556 22.3885C90.1998 22.6636 91.0818 23.1191 91.8527 23.7298C92.5598 24.3001 93.1313 25.0205 93.5257 25.8388C93.9314 26.6907 94.148 27.6204 94.1608 28.5639H87.8385C87.8637 28.2996 87.8262 28.0331 87.7291 27.7861C87.6319 27.539 87.4778 27.3184 87.2793 27.1421C86.8446 26.8153 86.3108 26.648 85.7674 26.6682C85.2968 26.6439 84.8315 26.7774 84.4452 27.0473C84.2872 27.1757 84.1619 27.3397 84.0795 27.5259C83.9971 27.7121 83.96 27.9151 83.9712 28.1184C83.9712 28.6776 84.303 29.0663 84.9712 29.2653C85.7499 29.4975 86.5411 29.6858 87.3409 29.8293C88.1181 29.9715 88.9301 30.1405 89.7769 30.3364C90.6021 30.5278 91.3922 30.8477 92.1181 31.2843C92.8423 31.7154 93.4481 32.3195 93.8812 33.0426C94.3782 33.9548 94.6159 34.9858 94.5684 36.0236C94.5825 36.9847 94.3715 37.9358 93.9523 38.8009C93.5375 39.6412 92.9341 40.3744 92.1892 40.943C91.3686 41.5683 90.4401 42.0374 89.4499 42.3269C88.2928 42.6763 87.0899 42.8505 85.8812 42.8435Z" fill="white"/>
<path d="M120.541 22.5735H113.782V42.1896H120.541V22.5735Z" fill="white"/>
<path d="M134.63 42.8436C133.147 42.8585 131.675 42.5949 130.289 42.0664C129.013 41.5713 127.848 40.8306 126.858 39.8863C125.886 38.9483 125.119 37.8186 124.606 36.5687C124.061 35.2317 123.789 33.7992 123.806 32.3555C123.788 30.9177 124.06 29.4911 124.606 28.1611C125.114 26.9215 125.874 25.8013 126.839 24.872C127.825 23.9329 128.993 23.204 130.27 22.7299C131.664 22.2087 133.142 21.95 134.63 21.9668C135.94 21.9548 137.242 22.1631 138.483 22.5829C139.63 22.9736 140.695 23.5711 141.625 24.346C143.516 25.9367 144.731 28.1867 145.024 30.6398H138.445C138.17 29.8677 137.655 29.2036 136.976 28.7441C136.285 28.2742 135.466 28.0278 134.63 28.0379C134.083 28.017 133.537 28.1131 133.029 28.3199C132.522 28.5267 132.064 28.8393 131.687 29.237C130.913 30.1028 130.509 31.2379 130.564 32.3981C130.52 33.5558 130.93 34.685 131.706 35.545C132.387 36.2526 133.3 36.6903 134.278 36.7773C135.257 36.8644 136.233 36.5951 137.028 36.019C137.714 35.4946 138.212 34.7634 138.45 33.9337H145.085C144.909 35.2099 144.51 36.4452 143.905 37.5829C143.333 38.6561 142.562 39.6113 141.635 40.3981C140.696 41.1704 139.629 41.7734 138.483 42.1801C137.248 42.6273 135.944 42.852 134.63 42.8436Z" fill="white"/>
<path d="M155.592 42.8436C154.375 42.8592 153.161 42.6881 151.995 42.3365C151.01 42.0418 150.091 41.5589 149.289 40.9147C148.557 40.3067 147.968 39.5444 147.564 38.6824C147.145 37.7721 146.934 36.7794 146.948 35.7772H153.45C153.428 36.0731 153.476 36.3701 153.589 36.6442C153.703 36.9183 153.879 37.1619 154.104 37.3554C154.559 37.7126 155.124 37.8988 155.701 37.8815C156.176 37.8904 156.643 37.7585 157.043 37.5023C157.232 37.3797 157.386 37.2089 157.489 37.0075C157.591 36.806 157.638 36.581 157.626 36.3554C157.62 36.0767 157.519 35.8083 157.341 35.594C157.163 35.3797 156.917 35.2321 156.645 35.1753C155.871 34.9152 155.079 34.7156 154.275 34.5782C153.521 34.4549 152.73 34.2938 151.905 34.1042C151.087 33.9076 150.307 33.576 149.597 33.1232C148.881 32.6568 148.287 32.0244 147.867 31.2796C147.384 30.3899 147.152 29.3858 147.194 28.3744C147.178 27.448 147.384 26.5312 147.796 25.7014C148.206 24.917 148.784 24.2325 149.488 23.6966C150.277 23.0913 151.175 22.6425 152.133 22.3744C153.248 22.0526 154.403 21.893 155.564 21.9004C156.72 21.885 157.873 22.0448 158.981 22.3744C159.925 22.6514 160.806 23.1067 161.578 23.7156C162.283 24.2872 162.852 25.0073 163.247 25.8246C163.654 26.6758 163.871 27.6059 163.882 28.5497H157.555C157.579 28.2851 157.54 28.0185 157.442 27.7715C157.344 27.5244 157.19 27.304 156.991 27.1279C156.559 26.7987 156.026 26.631 155.483 26.654C155.011 26.6291 154.544 26.7625 154.156 27.0331C153.998 27.1613 153.873 27.3253 153.79 27.5115C153.708 27.6977 153.671 27.9009 153.683 28.1042C153.683 28.6635 154.014 29.0521 154.678 29.2511C155.457 29.4828 156.248 29.6711 157.047 29.8151C157.825 29.9573 158.637 30.1263 159.483 30.3222C160.309 30.5119 161.1 30.8319 161.825 31.2701C162.549 31.7012 163.155 32.3054 163.588 33.0284C164.086 33.9402 164.326 34.9712 164.28 36.0094C164.291 36.9703 164.08 37.9208 163.664 38.7867C163.249 39.6271 162.645 40.3602 161.901 40.9289C161.079 41.5551 160.149 42.0243 159.156 42.3128C158.002 42.6665 156.8 42.8454 155.592 42.8436Z" fill="white"/>
<path d="M108.147 36.2701C107.844 36.2962 107.54 36.2557 107.254 36.1515C106.969 36.0472 106.71 35.8818 106.495 35.6668C106.281 35.4518 106.116 35.1925 106.012 34.907C105.909 34.6214 105.869 34.3167 105.896 34.0142V27.7677H110.635V22.5544H98.9288L95.5449 26.2085V27.7677H99.1373V35.18C99.1373 37.3917 99.7503 39.1105 100.976 40.3364C102.202 41.5623 103.915 42.1769 106.114 42.18H110.763V36.2701H108.147Z" fill="white"/>
<path d="M73.46 13.4597V19.0284H67.9102V13.4597H73.46ZM74.0524 12.8625H67.2988V19.6208H74.0524V12.8625Z" fill="white"/>
<path d="M120.541 12.8625H113.782V19.6208H120.541V12.8625Z" fill="white"/>
<path d="M75.9196 12.8625H75.3271V19.6208H75.9196V12.8625Z" fill="white"/>
<path d="M77.5114 12.8625H76.9189V19.6208H77.5114V12.8625Z" fill="white"/>
<path d="M79.0993 12.8625H78.5068V19.6208H79.0993V12.8625Z" fill="white"/>
<path d="M82.2848 12.8625H81.6924V19.6208H82.2848V12.8625Z" fill="white"/>
<path d="M80.692 12.8625H80.0996V19.6208H80.692V12.8625Z" fill="white"/>
<path d="M83.8766 12.8625H83.2842V19.6208H83.8766V12.8625Z" fill="white"/>
<path d="M85.4694 12.8625H84.877V19.6208H85.4694V12.8625Z" fill="white"/>
<path d="M87.0612 12.8625H86.4688V19.6208H87.0612V12.8625Z" fill="white"/>
<path d="M88.6539 12.8625H88.0615V19.6208H88.6539V12.8625Z" fill="white"/>
<path d="M90.2418 12.8625H89.6494V19.6208H90.2418V12.8625Z" fill="white"/>
<path d="M91.8346 12.8625H91.2422V19.6208H91.8346V12.8625Z" fill="white"/>
<path d="M93.4264 12.8625H92.834V19.6208H93.4264V12.8625Z" fill="white"/>
<path d="M95.0192 12.8625H94.4268V19.6208H95.0192V12.8625Z" fill="white"/>
<path d="M96.611 12.8625H96.0186V19.6208H96.611V12.8625Z" fill="white"/>
<path d="M98.2037 12.8625H97.6113V19.6208H98.2037V12.8625Z" fill="white"/>
<path d="M99.7965 12.8625H99.2041V19.6208H99.7965V12.8625Z" fill="white"/>
<path d="M101.383 12.8625H100.791V19.6208H101.383V12.8625Z" fill="white"/>
<path d="M102.976 12.8625H102.384V19.6208H102.976V12.8625Z" fill="white"/>
<path d="M104.569 12.8625H103.977V19.6208H104.569V12.8625Z" fill="white"/>
<path d="M106.161 12.8625H105.568V19.6208H106.161V12.8625Z" fill="white"/>
<path d="M107.754 12.8625H107.161V19.6208H107.754V12.8625Z" fill="white"/>
<path d="M109.346 12.8625H108.754V19.6208H109.346V12.8625Z" fill="white"/>
<path d="M110.933 12.8625H110.341V19.6208H110.933V12.8625Z" fill="white"/>
<path d="M112.526 12.8625H111.934V19.6208H112.526V12.8625Z" fill="white"/>
</g>
<defs>
<clipPath id="clip0">
<rect width="165" height="50" fill="white"/>
</clipPath>
</defs>
</svg>
