<svg width="165" height="50" viewBox="0 0 165 50" fill="none" xmlns="http://www.w3.org/2000/svg">
<g clip-path="url(#clip0)">
<path d="M5.01896 4.48815C5.52997 4.73149 5.92421 5.16678 6.11592 5.69931C6.30763 6.23184 6.2813 6.81853 6.04265 7.33175C5.9151 7.60849 5.73106 7.85548 5.50237 8.05687C5.26179 8.26569 4.98349 8.42656 4.68246 8.5308C4.35386 8.64719 4.00736 8.70494 3.65877 8.70142H0V0.739333H3.58768C3.91921 0.736188 4.24902 0.78742 4.56398 0.890992C4.84488 0.985915 5.10652 1.13038 5.33649 1.31753C5.55294 1.48971 5.72788 1.70838 5.84834 1.95734C5.97337 2.21069 6.0367 2.49001 6.03318 2.77251C6.03452 3.1217 5.9394 3.46447 5.75829 3.76303C5.57674 4.06306 5.32245 4.31245 5.01896 4.48815ZM3.95261 3.1327C3.95615 3.04043 3.94027 2.94845 3.90598 2.86272C3.87168 2.777 3.81975 2.69943 3.75355 2.63507C3.68014 2.56815 3.59414 2.5165 3.50057 2.48314C3.407 2.44978 3.30772 2.43537 3.20853 2.44076H2.11374V3.82938H3.20853C3.30772 3.83476 3.407 3.82035 3.50057 3.78699C3.59414 3.75363 3.68014 3.70199 3.75355 3.63507C3.82012 3.56998 3.87225 3.49162 3.90654 3.40506C3.94083 3.31851 3.95653 3.22571 3.95261 3.1327ZM3.31754 6.90521C3.42065 6.90939 3.52357 6.89311 3.62037 6.85732C3.71717 6.82153 3.80592 6.76693 3.88152 6.69668C3.95006 6.62632 4.00284 6.54217 4.03635 6.44983C4.06985 6.35749 4.08331 6.25908 4.07583 6.16113C4.0789 6.06343 4.06152 5.96616 4.02479 5.87556C3.98806 5.78497 3.9328 5.70305 3.86256 5.63507C3.71266 5.50257 3.51745 5.43297 3.31754 5.44075H2.11374V6.90521H3.31754Z" fill="#13224B"/>
<path d="M10.2322 8.891C9.81419 8.89637 9.39856 8.82736 9.00471 8.68721C8.6535 8.56153 8.33116 8.36651 8.05684 8.11375C7.78793 7.86612 7.57748 7.56177 7.44073 7.22275C7.29389 6.85021 7.22143 6.45252 7.22746 6.05214V2.5545H9.33646V5.96209C9.32015 6.23754 9.40624 6.5093 9.57817 6.72512C9.66248 6.81698 9.7662 6.88889 9.8818 6.93562C9.9974 6.98235 10.122 7.00273 10.2464 6.99526C10.3684 6.99965 10.4899 6.97781 10.6028 6.9312C10.7156 6.8846 10.8171 6.81432 10.9004 6.72512C11.0691 6.5078 11.1533 6.23672 11.1374 5.96209V2.5545H13.2701V6.05214C13.2746 6.45284 13.2006 6.85054 13.0521 7.22275C12.9154 7.56059 12.7067 7.86462 12.4407 8.11375C12.1661 8.3661 11.8438 8.56107 11.4929 8.68721C11.0885 8.8313 10.6613 8.90036 10.2322 8.891Z" fill="#13224B"/>
<path d="M16.8673 8.891C16.4856 8.89595 16.1053 8.84322 15.7393 8.7346C15.4315 8.64092 15.1449 8.48798 14.8957 8.28436C14.6663 8.09308 14.4818 7.8536 14.3555 7.58294C14.2245 7.29762 14.1581 6.98691 14.1611 6.67299H16.1943C16.1914 6.76211 16.2081 6.85078 16.2433 6.9327C16.2785 7.01461 16.3314 7.08776 16.3981 7.14692C16.5412 7.2589 16.7188 7.31755 16.9005 7.3128C17.0483 7.31646 17.1937 7.27514 17.3175 7.19431C17.3777 7.15629 17.4266 7.10282 17.4592 7.03947C17.4917 6.97612 17.5066 6.9052 17.5024 6.83412C17.4992 6.7471 17.4672 6.66359 17.4115 6.59669C17.3557 6.52979 17.2793 6.48328 17.1943 6.46446C16.953 6.38387 16.7058 6.32208 16.455 6.27962C16.2228 6.24171 15.981 6.18957 15.7109 6.12796C15.4561 6.06366 15.213 5.95971 14.9905 5.81991C14.7694 5.67608 14.5844 5.48306 14.4502 5.25592C14.3011 4.97825 14.229 4.66567 14.2417 4.35071C14.2358 4.05985 14.3009 3.77193 14.4313 3.51185C14.5579 3.26412 14.7375 3.0473 14.9573 2.87678C15.2045 2.69084 15.4842 2.55262 15.782 2.4692C16.1325 2.38528 16.4931 2.35177 16.8531 2.36967C17.2139 2.3643 17.5735 2.41384 17.9194 2.51659C18.216 2.60272 18.493 2.74601 18.7346 2.93839C18.9555 3.11623 19.1336 3.34134 19.2559 3.59716C19.3818 3.86426 19.4496 4.15501 19.455 4.45024H17.4787C17.4856 4.3682 17.4734 4.28568 17.443 4.20918C17.4125 4.13268 17.3647 4.06432 17.3033 4.00948C17.1665 3.90871 16.9991 3.85846 16.8294 3.8673C16.6827 3.8611 16.538 3.90268 16.4171 3.98578C16.3665 4.02546 16.3263 4.07679 16.2999 4.13539C16.2735 4.19399 16.2616 4.25811 16.2654 4.32228C16.2654 4.49763 16.3649 4.61611 16.5735 4.68247C16.8182 4.7539 17.0666 4.81243 17.3175 4.85782C17.564 4.90047 17.8152 4.95735 18.0806 5.01422C18.338 5.07493 18.5854 5.17229 18.8152 5.30332C19.0409 5.44059 19.2296 5.63095 19.3649 5.85782C19.5229 6.14775 19.5968 6.47604 19.5782 6.80569C19.5838 7.1077 19.5172 7.40668 19.3839 7.67773C19.2556 7.94055 19.0673 8.16947 18.8341 8.34597C18.5768 8.54078 18.2861 8.68694 17.9763 8.77725C17.6145 8.87108 17.2406 8.90943 16.8673 8.891Z" fill="#13224B"/>
<path d="M20.5688 2.5545H22.6778V8.6872H20.5688V2.5545ZM21.4692 0H21.7631C21.9998 -3.31374e-06 22.2269 0.0937176 22.3948 0.260677C22.5626 0.427636 22.6576 0.654254 22.6588 0.890995C22.6576 1.12774 22.5626 1.35435 22.3948 1.52131C22.2269 1.68827 21.9998 1.78199 21.7631 1.78199H21.4692C21.3522 1.78199 21.2364 1.75894 21.1283 1.71417C21.0202 1.66939 20.9219 1.60376 20.8392 1.52102C20.7565 1.43829 20.6908 1.34007 20.6461 1.23196C20.6013 1.12386 20.5782 1.008 20.5782 0.890995C20.5782 0.773988 20.6013 0.658127 20.6461 0.550026C20.6908 0.441926 20.7565 0.343703 20.8392 0.260967C20.9219 0.17823 21.0202 0.1126 21.1283 0.067823C21.2364 0.0230463 21.3522 0 21.4692 0V0Z" fill="#13224B"/>
<path d="M27.7109 2.36966C28.0355 2.36823 28.3574 2.42938 28.6588 2.54975C28.9458 2.66951 29.203 2.85069 29.4124 3.08056C29.6244 3.31342 29.7858 3.58777 29.8863 3.88624C30.0042 4.22921 30.0619 4.58997 30.0569 4.95259V8.68719H27.9621V5.23695C27.9621 4.52605 27.6967 4.16586 27.1707 4.16586C27.0258 4.15875 26.8813 4.18496 26.7482 4.24248C26.6151 4.29999 26.497 4.38728 26.4029 4.49762C26.2092 4.7636 26.1137 5.08855 26.1327 5.41705V8.68719H24.0095V2.55923H25.4835L25.782 3.19904C26.0111 2.9392 26.2964 2.73498 26.6162 2.60188C26.9603 2.44712 27.3336 2.36793 27.7109 2.36966Z" fill="#13224B"/>
<path d="M37.6493 5.56401C37.654 5.65557 37.654 5.74732 37.6493 5.83889C37.6493 5.92893 37.6493 6.02372 37.6161 6.12325H33.0474C33.0929 6.43143 33.2436 6.71439 33.4739 6.92419C33.709 7.10693 34.001 7.20091 34.2985 7.1896C34.5287 7.19351 34.7564 7.14146 34.962 7.03794C35.1572 6.94341 35.3215 6.79552 35.436 6.6114H37.5355C37.4312 6.95144 37.271 7.27176 37.0616 7.55927C36.8617 7.83815 36.6166 8.08164 36.3365 8.27964C36.0479 8.48739 35.7279 8.64741 35.3886 8.75358C35.0333 8.85894 34.6644 8.91163 34.2938 8.90998C33.8411 8.91562 33.3918 8.83187 32.9715 8.66353C32.5791 8.50309 32.2205 8.26993 31.9147 7.97633C31.6161 7.68065 31.3779 7.32975 31.2132 6.94315C31.0453 6.5294 30.9615 6.08633 30.9668 5.63983C30.9615 5.19334 31.0453 4.75027 31.2132 4.33652C31.3737 3.94605 31.6106 3.59157 31.9099 3.29386C32.2112 2.99918 32.5691 2.76863 32.9621 2.61614C33.3873 2.44799 33.8413 2.36428 34.2985 2.36969C34.7623 2.36513 35.2226 2.45043 35.654 2.62088C36.0497 2.7755 36.4106 3.00752 36.7156 3.30334C37.0134 3.58938 37.2475 3.93496 37.4028 4.31756C37.5655 4.71297 37.6493 5.13642 37.6493 5.56401ZM34.2985 4.0095C34.0203 3.99982 33.7468 4.08321 33.5213 4.24647C33.2998 4.42616 33.1446 4.6747 33.0805 4.95263H35.5687C35.5039 4.66996 35.3404 4.41967 35.1076 4.24679C34.8747 4.0739 34.5879 3.98976 34.2985 4.0095Z" fill="#13224B"/>
<path d="M40.9763 8.89099C40.5962 8.89627 40.2174 8.84353 39.8531 8.7346C39.5438 8.64092 39.2557 8.48801 39.0048 8.28436C38.7753 8.09308 38.5909 7.85359 38.4645 7.58294C38.3335 7.29762 38.2672 6.98691 38.2702 6.67298H40.2844C40.281 6.76261 40.298 6.85184 40.3341 6.93394C40.3703 7.01604 40.4246 7.08886 40.4929 7.14692C40.6275 7.25443 40.7946 7.31293 40.9669 7.3128C41.1162 7.31653 41.2631 7.27524 41.3887 7.19431C41.4473 7.15501 41.4947 7.10115 41.5263 7.03801C41.5579 6.97487 41.5725 6.90462 41.5688 6.83412C41.5656 6.7471 41.5336 6.66359 41.4778 6.59669C41.4221 6.52979 41.3457 6.48328 41.2607 6.46445C41.0208 6.38439 40.7753 6.3226 40.5261 6.27962C40.2891 6.2417 40.0522 6.18957 39.782 6.12796C39.526 6.06282 39.2815 5.95893 39.0569 5.8199C38.8361 5.67715 38.6525 5.48381 38.5214 5.25592C38.3683 4.97958 38.2945 4.66633 38.3081 4.35071C38.3022 4.05984 38.3673 3.77193 38.4977 3.51185C38.6243 3.26412 38.8039 3.0473 39.0237 2.87678C39.2709 2.69084 39.5506 2.55262 39.8484 2.46919C40.2127 2.38116 40.588 2.34762 40.9621 2.36967C41.3245 2.36433 41.6856 2.41386 42.0332 2.51659C42.3282 2.60329 42.6034 2.74655 42.8436 2.93839C43.0645 3.11622 43.2426 3.34134 43.365 3.59716C43.4952 3.86271 43.5633 4.15445 43.564 4.45024H41.5877C41.5947 4.3682 41.5824 4.28568 41.552 4.20918C41.5216 4.13268 41.4738 4.06431 41.4124 4.00948C41.2758 3.90835 41.1081 3.85806 40.9384 3.8673C40.7903 3.86109 40.6441 3.90263 40.5214 3.98578C40.4717 4.02623 40.4321 4.0777 40.4058 4.13611C40.3795 4.19452 40.3671 4.25826 40.3697 4.32227C40.3697 4.49763 40.474 4.61611 40.6825 4.68246C40.9271 4.75443 41.1755 4.81297 41.4266 4.85782C41.6683 4.90047 41.9005 4.95735 42.1849 5.01422C42.4426 5.07409 42.6901 5.1715 42.9195 5.30332C43.1463 5.43918 43.3353 5.62985 43.4692 5.85782C43.6272 6.14774 43.7011 6.47603 43.6825 6.80569C43.6866 7.10702 43.6218 7.4053 43.4929 7.67772C43.3636 7.93988 43.1755 8.16858 42.9432 8.34597C42.6847 8.53894 42.3944 8.68493 42.0853 8.77725C41.7234 8.8703 41.3496 8.90864 40.9763 8.89099Z" fill="#13224B"/>
<path d="M47.0379 8.891C46.6578 8.89591 46.279 8.84318 45.9147 8.7346C45.6068 8.64093 45.3203 8.48798 45.0711 8.28437C44.8485 8.09111 44.6706 7.85178 44.5498 7.58295C44.4188 7.29763 44.3525 6.98692 44.3554 6.67299H46.3886C46.3847 6.76224 46.4009 6.85124 46.4362 6.93331C46.4715 7.01538 46.5249 7.08841 46.5924 7.14693C46.7355 7.25891 46.9131 7.31756 47.0948 7.3128C47.2426 7.31647 47.388 7.27515 47.5118 7.19432C47.5721 7.1563 47.621 7.10283 47.6535 7.03947C47.686 6.97612 47.7009 6.90521 47.6967 6.83413C47.6935 6.74711 47.6615 6.6636 47.6058 6.5967C47.55 6.5298 47.4736 6.48329 47.3886 6.46446C47.1473 6.38388 46.9001 6.32208 46.6493 6.27963C46.4171 6.24171 46.1754 6.18958 45.9052 6.12797C45.6504 6.06367 45.4073 5.95972 45.1848 5.81991C44.9637 5.67609 44.7787 5.48307 44.6445 5.25593C44.4954 4.97826 44.4234 4.66567 44.436 4.35072C44.4309 4.06046 44.4942 3.77308 44.6208 3.51186C44.7513 3.26531 44.9322 3.04894 45.1517 2.87678C45.3992 2.69976 45.6771 2.56964 45.9716 2.4929C46.3162 2.40191 46.6721 2.36042 47.0284 2.36968C47.3893 2.3643 47.7488 2.41384 48.0948 2.51659C48.391 2.60384 48.6677 2.74702 48.9099 2.9384C49.1292 3.11777 49.3071 3.34251 49.4313 3.59716C49.5571 3.86427 49.625 4.15502 49.6303 4.45024H47.654C47.6599 4.36831 47.6472 4.28611 47.6168 4.20979C47.5864 4.13346 47.5392 4.06499 47.4787 4.00949C47.3419 3.90871 47.1744 3.85847 47.0047 3.86731C46.858 3.86041 46.7131 3.90205 46.5924 3.98579C46.5413 4.02523 46.5004 4.07639 46.4732 4.13496C46.4459 4.19352 46.4332 4.25776 46.436 4.32228C46.436 4.49764 46.5403 4.61612 46.7488 4.68247C46.9935 4.75444 47.2419 4.81298 47.4929 4.85783C47.7346 4.90048 47.9905 4.95735 48.2559 5.01423C48.5121 5.07408 48.7581 5.1715 48.9858 5.30332C49.2129 5.44044 49.4032 5.63075 49.5403 5.85783C49.6983 6.14775 49.7721 6.47604 49.7536 6.80569C49.7589 7.10278 49.6944 7.39698 49.5651 7.66453C49.4359 7.93209 49.2455 8.16552 49.0095 8.34598C48.7516 8.53981 48.4611 8.68587 48.1517 8.77726C47.7883 8.87142 47.4128 8.90978 47.0379 8.891Z" fill="#13224B"/>
<path d="M61.3175 4.44078C61.3226 5.05267 61.2199 5.66069 61.0142 6.23699C60.8306 6.76454 60.5402 7.24856 60.1611 7.65879C59.7913 8.05642 59.3403 8.36997 58.8388 8.57822C58.2996 8.80094 57.7208 8.91218 57.1374 8.90523C56.5591 8.90701 55.986 8.79593 55.4502 8.57822C54.9498 8.38352 54.4937 8.09018 54.109 7.71566C53.7256 7.34251 53.4238 6.89387 53.2227 6.39812C53.0063 5.86725 52.8983 5.29841 52.9052 4.72514C52.899 4.15085 53.0053 3.5809 53.218 3.04741C53.4174 2.55142 53.7139 2.10026 54.09 1.7204C54.4717 1.34198 54.9264 1.04527 55.4265 0.84836C55.9648 0.635256 56.5395 0.529014 57.1185 0.535564C57.6192 0.531419 58.1172 0.609881 58.5924 0.767791C59.0388 0.914078 59.4571 1.13524 59.8294 1.42182C60.1888 1.69894 60.4982 2.03555 60.744 2.41708C60.981 2.80834 61.1418 3.24091 61.218 3.69196H58.9241C58.7822 3.354 58.5344 3.07125 58.218 2.88627C57.9331 2.72129 57.6147 2.62281 57.2864 2.59819C56.9581 2.57357 56.6285 2.62345 56.3222 2.74409C56.0814 2.84166 55.8647 2.99044 55.6872 3.18011C55.5064 3.37577 55.3677 3.60644 55.2796 3.85784C55.1818 4.13638 55.1337 4.42994 55.1374 4.72514C55.1345 5.01718 55.1826 5.30748 55.2796 5.58296C55.3661 5.83123 55.5033 6.0588 55.6824 6.2512C55.8588 6.43894 56.0739 6.5861 56.3128 6.68248C56.5743 6.78972 56.8548 6.84292 57.1374 6.83888C57.5267 6.84484 57.9108 6.74841 58.2512 6.55926C58.5545 6.39471 58.7933 6.13251 58.9289 5.81519H56.9526V4.44078H61.3175Z" fill="#13224B"/>
<path d="M66.2797 2.52133V4.46446H65.4598C65.314 4.44963 65.1668 4.46513 65.0273 4.50999C64.8878 4.55485 64.7591 4.6281 64.6493 4.72512C64.4658 4.9644 64.3779 5.26345 64.4029 5.56398V8.6872H62.2939V2.5545H63.7157L64.0427 3.23697C64.2448 3.00176 64.4976 2.81542 64.782 2.69194C65.0838 2.57353 65.4058 2.51556 65.7299 2.52133H66.2797Z" fill="#13224B"/>
<path d="M70.0569 8.89101C69.5861 8.89676 69.1184 8.81479 68.6777 8.6493C68.2733 8.49509 67.903 8.26325 67.5877 7.96684C67.2798 7.676 67.0361 7.32411 66.872 6.93366C66.7016 6.51719 66.6162 6.07084 66.6208 5.62087C66.6167 5.17094 66.7021 4.72469 66.872 4.30807C67.0384 3.91894 67.2819 3.56749 67.5877 3.2749C67.9029 2.9795 68.2733 2.74919 68.6777 2.59717C69.5661 2.26839 70.5429 2.26839 71.4313 2.59717C71.8323 2.7503 72.1994 2.98054 72.5118 3.2749C72.8162 3.56874 73.0594 3.91987 73.2275 4.30807C73.3974 4.72469 73.4828 5.17094 73.4787 5.62087C73.4833 6.07084 73.3979 6.51719 73.2275 6.93366C73.0617 7.32318 72.8182 7.67476 72.5118 7.96684C72.1965 8.26325 71.8262 8.49509 71.4218 8.6493C70.9855 8.81306 70.5228 8.895 70.0569 8.89101ZM70.0569 6.99527C70.2325 7.0008 70.4073 6.96997 70.5704 6.90472C70.7335 6.83948 70.8814 6.74122 71.0047 6.61613C71.1293 6.48303 71.2261 6.3265 71.2895 6.15563C71.353 5.98477 71.3819 5.80299 71.3744 5.62087C71.3823 5.43942 71.3536 5.25823 71.2901 5.08808C71.2266 4.91792 71.1296 4.76226 71.0047 4.63035C70.8823 4.50369 70.7347 4.40409 70.5715 4.33797C70.4082 4.27185 70.2329 4.24068 70.0569 4.24646C69.881 4.24184 69.706 4.27355 69.5429 4.3396C69.3798 4.40565 69.2321 4.50463 69.109 4.63035C68.9835 4.76203 68.8858 4.91754 68.8214 5.08768C68.7571 5.25781 68.7276 5.43912 68.7346 5.62087C68.728 5.80328 68.7577 5.98519 68.822 6.15603C68.8863 6.32688 68.9838 6.48327 69.109 6.61613C69.2337 6.74067 69.3825 6.83851 69.5463 6.9037C69.7101 6.96888 69.8854 7.00004 70.0616 6.99527H70.0569Z" fill="#13224B"/>
<path d="M77.4218 8.891C76.9991 8.89745 76.5786 8.82844 76.1801 8.68721C75.8296 8.56004 75.5075 8.36519 75.2322 8.11375C74.9648 7.86584 74.7559 7.56147 74.6208 7.22275C74.4702 6.85118 74.396 6.45303 74.4028 6.05214V2.5545H76.5166V5.96209C76.5007 6.23672 76.5849 6.5078 76.7535 6.72512C76.8416 6.81325 76.9461 6.88316 77.0612 6.93086C77.1763 6.97857 77.2996 7.00312 77.4242 7.00312C77.5487 7.00312 77.6721 6.97857 77.7871 6.93086C77.9022 6.88316 78.0067 6.81325 78.0948 6.72512C78.2634 6.5078 78.3476 6.23672 78.3317 5.96209V2.5545H80.4455V6.05214C80.4523 6.45303 80.3781 6.85118 80.2275 7.22275C80.0938 7.56102 79.8866 7.86536 79.6208 8.11375C79.3455 8.36519 79.0235 8.56004 78.673 8.68721C78.2714 8.82936 77.8477 8.89838 77.4218 8.891Z" fill="#13224B"/>
<path d="M85.2607 2.36966C85.7041 2.36451 86.144 2.44831 86.5545 2.61611C86.9351 2.76854 87.2804 2.99761 87.5687 3.28909C87.8562 3.58611 88.0817 3.93731 88.2322 4.32227C88.3925 4.74287 88.4729 5.18971 88.4692 5.63981C88.4733 6.08994 88.393 6.53686 88.2322 6.95734C88.0839 7.34343 87.8581 7.69504 87.5687 7.99052C87.2794 8.28197 86.9345 8.51242 86.5545 8.66824C86.1447 8.83235 85.7068 8.91446 85.2654 8.90995C84.9964 8.91215 84.7285 8.87707 84.4692 8.80568C84.2245 8.73193 83.9891 8.63015 83.7678 8.50236V10.0332H81.6872V2.5545H83.109L83.3697 3.02843C83.6263 2.81047 83.9179 2.63742 84.2322 2.51658C84.5633 2.40571 84.9118 2.35592 85.2607 2.36966ZM84.981 7.04739C85.1679 7.05032 85.3534 7.01483 85.5261 6.94312C85.6905 6.87224 85.84 6.77093 85.9668 6.64455C86.0913 6.51812 86.1895 6.36832 86.2559 6.20379C86.3238 6.02361 86.3576 5.83235 86.3554 5.63981C86.3619 5.45446 86.3312 5.2697 86.2653 5.09636C86.1994 4.92302 86.0995 4.76458 85.9716 4.63033C85.7064 4.37406 85.3521 4.23081 84.9834 4.23081C84.6147 4.23081 84.2604 4.37406 83.9952 4.63033C83.7378 4.90248 83.5981 5.26525 83.6066 5.63981C83.6006 5.82551 83.6319 6.01054 83.6986 6.18394C83.7654 6.35734 83.8662 6.51558 83.9952 6.64928C84.1244 6.7773 84.2786 6.8771 84.4483 6.94237C84.618 7.00763 84.7994 7.03694 84.981 7.02843V7.04739Z" fill="#13224B"/>
<path d="M16.1137 35.763V42.1801H0V13.4739H7.109V35.7488L16.1137 35.763Z" fill="#13224B"/>
<path d="M28.6066 42.8436C27.1036 42.859 25.6107 42.5954 24.2038 42.0664C22.9114 41.5741 21.728 40.8335 20.7204 39.8863C19.7395 38.9487 18.962 37.8195 18.436 36.5687C17.3489 33.8765 17.3489 30.8676 18.436 28.1754C18.9615 26.9244 19.7391 25.795 20.7204 24.8578C21.7268 23.909 22.9105 23.1682 24.2038 22.6777C27.048 21.6348 30.17 21.6348 33.0142 22.6777C34.3077 23.1758 35.49 23.9248 36.4929 24.8815C37.4725 25.8201 38.2499 26.9491 38.7772 28.1991C39.8643 30.8913 39.8643 33.9002 38.7772 36.5924C38.2499 37.8424 37.4725 38.9714 36.4929 39.91C35.4853 40.8572 34.3018 41.5978 33.0095 42.0901C31.6009 42.6108 30.1082 42.8663 28.6066 42.8436ZM28.6066 36.7773C29.1735 36.7986 29.7384 36.6999 30.2645 36.4875C30.7905 36.2752 31.2656 35.954 31.6588 35.545C32.058 35.1215 32.3685 34.6224 32.5719 34.0771C32.7754 33.5317 32.8678 32.9512 32.8436 32.3697C32.8676 31.7874 32.7752 31.2063 32.5717 30.6602C32.3683 30.1141 32.0579 29.6142 31.6588 29.1896C31.2658 28.7866 30.7931 28.4701 30.2708 28.2604C29.7484 28.0506 29.1881 27.9523 28.6256 27.9716C28.0626 27.9584 27.5029 28.061 26.9811 28.273C26.4594 28.4849 25.9867 28.8017 25.5924 29.2038C25.1894 29.6263 24.8755 30.1256 24.6695 30.6719C24.4635 31.2183 24.3696 31.8005 24.3934 32.3839C24.3714 32.9643 24.4662 33.5431 24.6721 34.0861C24.8781 34.6292 25.191 35.1253 25.5924 35.545C25.986 35.948 26.4586 36.2655 26.9805 36.4775C27.5024 36.6895 28.0624 36.7916 28.6256 36.7773H28.6066Z" fill="#13224B"/>
<path d="M63.0332 22.5735V40.0095C63.055 41.4359 62.809 42.8538 62.3081 44.1896C61.8556 45.3803 61.1413 46.4542 60.218 47.3318C59.2639 48.2183 58.1334 48.8933 56.9005 49.3128C55.4923 49.7901 54.0128 50.0225 52.5261 50C49.7141 50 47.395 49.346 45.5687 48.0379C43.7445 46.7361 42.5107 44.7643 42.1374 42.5545H48.673C48.803 42.8877 48.9988 43.1912 49.2488 43.4469C49.4988 43.7026 49.7978 43.9052 50.128 44.0427C50.8577 44.3834 51.6544 44.5566 52.4597 44.5498C53.5114 44.5784 54.5374 44.2229 55.346 43.5498C55.7422 43.205 56.0544 42.7743 56.2589 42.2905C56.4634 41.8068 56.5548 41.2827 56.5261 40.7583V40.1943C55.7885 40.684 54.9795 41.0564 54.128 41.2986C53.2426 41.5563 52.3249 41.6856 51.4028 41.6825C50.0646 41.6959 48.7371 41.4429 47.4976 40.9384C46.3321 40.4705 45.274 39.7704 44.3875 38.8807C43.5011 37.991 42.8049 36.9303 42.3412 35.763C41.8353 34.504 41.5825 33.1577 41.5972 31.801C41.5838 30.4628 41.8367 29.1353 42.3412 27.8957C42.8145 26.7305 43.5117 25.6694 44.3934 24.7725C45.2774 23.8793 46.3334 23.1747 47.4976 22.7014C48.7371 22.1969 50.0646 21.9439 51.4028 21.9574C52.5564 21.947 53.7019 22.1495 54.782 22.5545C55.8134 22.9477 56.7739 23.5063 57.6256 24.2085L58.4597 22.5735H63.0332ZM52.5308 36.1232C53.0908 36.1446 53.6489 36.0471 54.1684 35.8372C54.688 35.6273 55.1571 35.3096 55.545 34.9052C55.9346 34.4905 56.2378 34.0025 56.4372 33.4696C56.6365 32.9367 56.7279 32.3695 56.7062 31.801C56.7265 31.2404 56.6343 30.6815 56.4348 30.1572C56.2354 29.633 55.9328 29.1541 55.545 28.7488C54.7303 27.9789 53.6518 27.55 52.5308 27.55C51.4098 27.55 50.3313 27.9789 49.5166 28.7488C49.1265 29.1531 48.8214 29.6315 48.6195 30.1558C48.4177 30.68 48.323 31.2395 48.3412 31.801C48.3204 32.3698 48.4127 32.9371 48.6128 33.47C48.8129 34.0029 49.1169 34.4908 49.5071 34.9052C49.8959 35.3111 50.3666 35.6296 50.8879 35.8396C51.4092 36.0496 51.9693 36.1463 52.5308 36.1232Z" fill="#13224B"/>
<path d="M67.2986 22.5735H74.0522V42.1801H67.2986V22.5735Z" fill="#13224B"/>
<path d="M85.8815 42.8436C84.6636 42.86 83.4504 42.6889 82.2844 42.3365C81.2975 42.0418 80.377 41.559 79.5735 40.9147C78.8426 40.3053 78.2538 39.5434 77.8484 38.6825C77.4312 37.7714 77.2208 36.7793 77.2323 35.7773H83.7346C83.7125 36.0732 83.7602 36.3701 83.8738 36.6442C83.9874 36.9183 84.1637 37.162 84.3886 37.3555C84.8447 37.7126 85.4115 37.8988 85.9905 37.8815C86.4652 37.8899 86.9317 37.758 87.3318 37.5024C87.5216 37.3797 87.6755 37.209 87.7779 37.0075C87.8803 36.8061 87.9275 36.5811 87.9147 36.3555C87.9088 36.0768 87.8085 35.8084 87.6303 35.5941C87.4521 35.3797 87.2066 35.2321 86.9337 35.1754C86.1605 34.915 85.3682 34.7154 84.564 34.5782C83.8152 34.455 83.0237 34.2939 82.1943 34.1043C81.3755 33.9087 80.5953 33.577 79.8863 33.1233C79.1702 32.6577 78.5782 32.025 78.1612 31.2796C77.6782 30.3899 77.4457 29.3859 77.4882 28.3744C77.4725 27.4487 77.6772 26.5325 78.0853 25.7014C78.4956 24.9173 79.0732 24.2329 79.7773 23.6967C80.563 23.0976 81.4557 22.6536 82.4076 22.3887C83.5244 22.0672 84.6815 21.9076 85.8436 21.9147C86.9985 21.8993 88.149 22.0591 89.2559 22.3887C90.2002 22.6637 91.0822 23.1192 91.8531 23.7299C92.5602 24.3002 93.1316 25.0206 93.5261 25.8389C93.9317 26.6909 94.1484 27.6205 94.1612 28.564H87.8389C87.8641 28.2997 87.8266 28.0332 87.7294 27.7862C87.6322 27.5391 87.4781 27.3185 87.2796 27.1422C86.845 26.8154 86.3112 26.6481 85.7678 26.6683C85.2971 26.6441 84.8318 26.7775 84.4455 27.0474C84.2876 27.1758 84.1623 27.3399 84.0799 27.526C83.9975 27.7122 83.9604 27.9152 83.9716 28.1185C83.9716 28.6778 84.3033 29.0664 84.9716 29.2654C85.7503 29.4976 86.5414 29.6859 87.3412 29.8294C88.1185 29.9716 88.9305 30.1406 89.7773 30.3365C90.6025 30.5279 91.3925 30.8478 92.1185 31.2844C92.8427 31.7155 93.4485 32.3197 93.8815 33.0427C94.3786 33.9549 94.6162 34.9859 94.5687 36.0237C94.5828 36.9849 94.3718 37.936 93.9526 38.801C93.5379 39.6414 92.9345 40.3745 92.1896 40.9432C91.369 41.5684 90.4405 42.0375 89.4503 42.327C88.2932 42.6765 87.0902 42.8506 85.8815 42.8436Z" fill="#13224B"/>
<path d="M120.54 22.5735H113.782V42.1896H120.54V22.5735Z" fill="#13224B"/>
<path d="M134.63 42.8436C133.147 42.8585 131.675 42.5949 130.289 42.0664C129.014 41.5713 127.848 40.8306 126.858 39.8863C125.886 38.9483 125.119 37.8186 124.607 36.5687C124.062 35.2317 123.789 33.7992 123.806 32.3555C123.788 30.9177 124.06 29.4911 124.607 28.1611C125.114 26.9215 125.874 25.8013 126.839 24.872C127.826 23.9329 128.993 23.204 130.27 22.7299C131.664 22.2087 133.142 21.95 134.63 21.9668C135.94 21.9548 137.243 22.1631 138.483 22.5829C139.63 22.9736 140.695 23.5711 141.626 24.346C143.516 25.9367 144.731 28.1867 145.024 30.6398H138.446C138.17 29.8677 137.655 29.2036 136.976 28.7441C136.285 28.2742 135.466 28.0278 134.63 28.0379C134.083 28.017 133.537 28.1131 133.029 28.3199C132.522 28.5267 132.064 28.8393 131.687 29.237C130.913 30.1028 130.51 31.2379 130.564 32.3981C130.52 33.5558 130.93 34.685 131.706 35.545C132.387 36.2526 133.301 36.6903 134.279 36.7773C135.257 36.8644 136.233 36.5951 137.028 36.019C137.714 35.4946 138.213 34.7634 138.45 33.9337H145.085C144.909 35.2099 144.51 36.4452 143.905 37.5829C143.333 38.6561 142.563 39.6113 141.635 40.3981C140.696 41.1704 139.629 41.7734 138.483 42.1801C137.248 42.6273 135.944 42.852 134.63 42.8436Z" fill="#13224B"/>
<path d="M155.592 42.8436C154.375 42.8592 153.161 42.6882 151.995 42.3365C151.01 42.0418 150.091 41.559 149.289 40.9147C148.557 40.3067 147.968 39.5445 147.564 38.6825C147.145 37.7722 146.934 36.7795 146.948 35.7773H153.45C153.428 36.0732 153.476 36.3701 153.589 36.6442C153.703 36.9183 153.879 37.162 154.104 37.3555C154.559 37.7127 155.124 37.8989 155.701 37.8815C156.176 37.8904 156.643 37.7585 157.043 37.5024C157.232 37.3797 157.386 37.209 157.489 37.0075C157.591 36.8061 157.638 36.5811 157.626 36.3555C157.62 36.0768 157.519 35.8084 157.341 35.5941C157.163 35.3797 156.917 35.2321 156.645 35.1754C155.871 34.9153 155.079 34.7157 154.275 34.5782C153.521 34.455 152.73 34.2939 151.905 34.1043C151.087 33.9076 150.307 33.5761 149.597 33.1232C148.881 32.6569 148.287 32.0244 147.867 31.2796C147.384 30.3899 147.152 29.3859 147.194 28.3744C147.178 27.4481 147.384 26.5313 147.796 25.7014C148.206 24.917 148.784 24.2325 149.488 23.6967C150.277 23.0914 151.175 22.6426 152.133 22.3744C153.248 22.0527 154.403 21.8931 155.564 21.9005C156.72 21.8851 157.873 22.0449 158.981 22.3744C159.925 22.6515 160.806 23.1068 161.578 23.7157C162.283 24.2873 162.852 25.0074 163.246 25.8247C163.654 26.6758 163.871 27.606 163.882 28.5498H157.555C157.579 28.2852 157.54 28.0185 157.442 27.7715C157.344 27.5245 157.19 27.304 156.991 27.128C156.559 26.7987 156.026 26.631 155.483 26.6541C155.011 26.6291 154.544 26.7626 154.156 27.0332C153.998 27.1614 153.873 27.3253 153.79 27.5116C153.708 27.6978 153.671 27.901 153.682 28.1043C153.682 28.6635 154.014 29.0522 154.678 29.2512C155.457 29.4828 156.248 29.6711 157.047 29.8152C157.825 29.9574 158.637 30.1264 159.483 30.3223C160.309 30.512 161.1 30.8319 161.825 31.2702C162.549 31.7013 163.155 32.3054 163.588 33.0285C164.086 33.9403 164.326 34.9713 164.28 36.0095C164.291 36.9704 164.08 37.9208 163.664 38.7868C163.249 39.6271 162.645 40.3603 161.9 40.9289C161.079 41.5552 160.148 42.0243 159.156 42.3128C158.002 42.6666 156.8 42.8455 155.592 42.8436Z" fill="#13224B"/>
<path d="M108.147 36.2701C107.844 36.2962 107.54 36.2557 107.254 36.1515C106.969 36.0473 106.71 35.8819 106.495 35.6669C106.281 35.4519 106.116 35.1925 106.012 34.907C105.909 34.6215 105.869 34.3168 105.896 34.0142V27.7678H110.635V22.5545H98.9289L95.545 26.2085V27.7678H99.1374V35.1801C99.1374 37.3918 99.7504 39.1106 100.976 40.3365C102.202 41.5624 103.915 42.1769 106.114 42.1801H110.763V36.2701H108.147Z" fill="#13224B"/>
<path d="M73.4598 13.4597V19.0284H67.91V13.4597H73.4598ZM74.0522 12.8625H67.2986V19.6208H74.0522V12.8625Z" fill="#13224B"/>
<path d="M120.54 12.8625H113.782V19.6208H120.54V12.8625Z" fill="#13224B"/>
<path d="M75.9195 12.8625H75.3271V19.6208H75.9195V12.8625Z" fill="#13224B"/>
<path d="M77.5118 12.8625H76.9194V19.6208H77.5118V12.8625Z" fill="#13224B"/>
<path d="M79.0995 12.8625H78.5071V19.6208H79.0995V12.8625Z" fill="#13224B"/>
<path d="M82.2844 12.8625H81.692V19.6208H82.2844V12.8625Z" fill="#13224B"/>
<path d="M80.692 12.8625H80.0995V19.6208H80.692V12.8625Z" fill="#13224B"/>
<path d="M83.8768 12.8625H83.2844V19.6208H83.8768V12.8625Z" fill="#13224B"/>
<path d="M85.4692 12.8625H84.8767V19.6208H85.4692V12.8625Z" fill="#13224B"/>
<path d="M87.0616 12.8625H86.4692V19.6208H87.0616V12.8625Z" fill="#13224B"/>
<path d="M88.6541 12.8625H88.0616V19.6208H88.6541V12.8625Z" fill="#13224B"/>
<path d="M90.2418 12.8625H89.6494V19.6208H90.2418V12.8625Z" fill="#13224B"/>
<path d="M91.8341 12.8625H91.2417V19.6208H91.8341V12.8625Z" fill="#13224B"/>
<path d="M93.4266 12.8625H92.8342V19.6208H93.4266V12.8625Z" fill="#13224B"/>
<path d="M95.0189 12.8625H94.4265V19.6208H95.0189V12.8625Z" fill="#13224B"/>
<path d="M96.6114 12.8625H96.019V19.6208H96.6114V12.8625Z" fill="#13224B"/>
<path d="M98.2038 12.8625H97.6114V19.6208H98.2038V12.8625Z" fill="#13224B"/>
<path d="M99.7962 12.8625H99.2038V19.6208H99.7962V12.8625Z" fill="#13224B"/>
<path d="M101.384 12.8625H100.791V19.6208H101.384V12.8625Z" fill="#13224B"/>
<path d="M102.976 12.8625H102.384V19.6208H102.976V12.8625Z" fill="#13224B"/>
<path d="M104.569 12.8625H103.976V19.6208H104.569V12.8625Z" fill="#13224B"/>
<path d="M106.161 12.8625H105.569V19.6208H106.161V12.8625Z" fill="#13224B"/>
<path d="M107.754 12.8625H107.161V19.6208H107.754V12.8625Z" fill="#13224B"/>
<path d="M109.346 12.8625H108.754V19.6208H109.346V12.8625Z" fill="#13224B"/>
<path d="M110.934 12.8625H110.341V19.6208H110.934V12.8625Z" fill="#13224B"/>
<path d="M112.526 12.8625H111.934V19.6208H112.526V12.8625Z" fill="#13224B"/>
</g>
<defs>
<clipPath id="clip0">
<rect width="165" height="50" fill="white"/>
</clipPath>
</defs>
</svg>
