<svg xmlns="http://www.w3.org/2000/svg" width="266.991" height="52.321" viewBox="0 0 266.991 52.321">
  <g id="Сгруппировать_5733" data-name="Сгруппировать 5733" transform="translate(-108.329 -114.31)">
    <path id="Контур_3893" data-name="Контур 3893" d="M415.345,179.2c0,8.12-6.03,13.8-14.742,13.8h-11.47V165.408h11.706C409.393,165.408,415.345,171.045,415.345,179.2Zm-6.346.04c0-5.085-3.548-8.593-8.278-8.593H395.36v17.107H401C405.609,187.757,409,184.289,409,179.243Z" transform="translate(-212.854 -38.733)"/>
    <path id="Контур_3894" data-name="Контур 3894" d="M520.333,169.832a8.495,8.495,0,0,0,0,16.989,10.646,10.646,0,0,0,7.174-3.232l3.666,3.981a16.154,16.154,0,0,1-11.155,4.927c-8.238,0-14.466-6.109-14.466-14.111,0-7.962,6.346-13.953,14.7-13.953A15.7,15.7,0,0,1,531.133,169l-3.626,4.415A9.988,9.988,0,0,0,520.333,169.832Z" transform="translate(-301.101 -37.993)"/>
    <path id="Контур_3895" data-name="Контур 3895" d="M655.384,178.306h5.4v10.6a20.425,20.425,0,0,1-11.194,3.587c-8.356,0-14.7-6.07-14.7-14.071,0-7.962,6.464-13.993,15.057-13.993a17.391,17.391,0,0,1,11.076,4.02l-3.508,4.454a11.547,11.547,0,0,0-7.568-3.074,8.613,8.613,0,1,0,.04,17.225,12.565,12.565,0,0,0,5.4-1.5Z" transform="translate(-399.139 -37.993)"/>
    <path id="Контур_3896" data-name="Контур 3896" d="M775.845,193l-4.375-7.883h-6.346V193H758.9V165.408h11.983c7.213,0,11.313,3.469,11.313,9.578,0,4.257-1.813,7.331-5.164,8.908L782.9,193Zm-10.721-13.087h5.755c3.429,0,5.4-1.577,5.4-4.73,0-3.075-1.971-4.612-5.4-4.612h-5.755Z" transform="translate(-493.14 -38.733)"/>
    <path id="Контур_3897" data-name="Контур 3897" d="M895.07,178.425c0,7.962-6.386,14.071-14.821,14.071s-14.821-6.07-14.821-14.071c0-8.041,6.385-13.993,14.821-13.993S895.07,170.423,895.07,178.425Zm-23.256,0a8.58,8.58,0,0,0,8.514,8.632,8.593,8.593,0,1,0-8.514-8.632Z" transform="translate(-573.894 -37.993)"/>
    <path id="Контур_3898" data-name="Контур 3898" d="M1012.025,187.267c3.706,0,6.149-2.4,6.149-6.385V164.839h6.228v16.043c0,7.292-4.769,11.825-12.377,11.825-7.646,0-12.534-4.533-12.534-11.825V164.839h6.227v16.043A5.959,5.959,0,0,0,1012.025,187.267Z" transform="translate(-675.515 -38.302)"/>
    <path id="Контур_3899" data-name="Контур 3899" d="M1140.429,174.986c0,6.425-4.02,10.13-11.037,10.13h-5.479V193h-6.227V165.408h11.706C1136.409,165.408,1140.429,168.877,1140.429,174.986Zm-5.912.2c0-3.075-1.971-4.612-5.44-4.612h-5.164v9.342h5.164C1132.546,179.913,1134.517,178.337,1134.517,175.183Z" transform="translate(-765.109 -38.733)"/>
    <g id="Сгруппировать_5733-2" data-name="Сгруппировать 5733" transform="translate(108.329 114.31)">
      <path id="Контур_3900" data-name="Контур 3900" d="M198.773,118.026l7.155,12.392-21.464-12.392h14.309m2.142-3.71H170.677l45.388,26.24-15.15-26.24Z" transform="translate(-155.59 -114.315)"/>
      <path id="Контур_3901" data-name="Контур 3901" d="M206.357,232.628l-7.126,12.342H184.979l21.377-12.342m10.1-10.1h0Zm0,0-45.264,26.133h30.176l15.088-26.133Z" transform="translate(-155.977 -196.344)"/>
      <path id="Контур_3902" data-name="Контур 3902" d="M119.675,128.118l.116,24.709L112.6,140.506l7.075-12.388m-11.346,12.408,15.107,26.089-.02-52.3Z" transform="translate(-108.329 -114.31)"/>
    </g>
  </g>
</svg>
