<svg width="84" height="67" viewBox="0 0 84 67" fill="none" xmlns="http://www.w3.org/2000/svg">
<path d="M80.5846 6.81226H65.7408V1.61694C65.7408 1.20874 65.4069 0.874756 64.9987 0.874756H59.8033C59.3951 0.874756 59.0612 1.20874 59.0612 1.61694V6.81226H45.3307V1.61694C45.3307 1.20874 44.9967 0.874756 44.5885 0.874756H39.3932C38.985 0.874756 38.651 1.20874 38.651 1.61694V6.81226H24.9205V1.61694C24.9205 1.20874 24.5865 0.874756 24.1783 0.874756H18.983C18.5748 0.874756 18.2408 1.20874 18.2408 1.61694V6.81226H3.39709C1.755 6.81226 0.428345 8.13892 0.428345 9.78101V63.2185C0.428345 64.8606 1.755 66.1873 3.39709 66.1873H80.5846C82.2267 66.1873 83.5533 64.8606 83.5533 63.2185V9.78101C83.5533 8.13892 82.2267 6.81226 80.5846 6.81226ZM76.8737 59.5076H7.10803V13.4919H18.2408V18.6873C18.2408 19.0955 18.5748 19.4294 18.983 19.4294H24.1783C24.5865 19.4294 24.9205 19.0955 24.9205 18.6873V13.4919H38.651V18.6873C38.651 19.0955 38.985 19.4294 39.3932 19.4294H44.5885C44.9967 19.4294 45.3307 19.0955 45.3307 18.6873V13.4919H59.0612V18.6873C59.0612 19.0955 59.3951 19.4294 59.8033 19.4294H64.9987C65.4069 19.4294 65.7408 19.0955 65.7408 18.6873V13.4919H76.8737V59.5076ZM33.0846 32.0466H16.0143C15.6061 32.0466 15.2721 32.3806 15.2721 32.7888V37.2419C15.2721 37.6501 15.6061 37.9841 16.0143 37.9841H33.0846C33.4928 37.9841 33.8268 37.6501 33.8268 37.2419V32.7888C33.8268 32.3806 33.4928 32.0466 33.0846 32.0466ZM33.0846 44.6638H16.0143C15.6061 44.6638 15.2721 44.9978 15.2721 45.406V49.8591C15.2721 50.2673 15.6061 50.6013 16.0143 50.6013H33.0846C33.4928 50.6013 33.8268 50.2673 33.8268 49.8591V45.406C33.8268 44.9978 33.4928 44.6638 33.0846 44.6638ZM61.6774 28.2058L52.066 41.5374L47.1676 34.7556C46.8893 34.366 46.444 34.1433 45.9708 34.1433H40.8776C40.2745 34.1433 39.922 34.8298 40.2745 35.3215L50.86 49.9983C50.9966 50.188 51.1764 50.3424 51.3845 50.4489C51.5926 50.5555 51.823 50.611 52.0568 50.611C52.2905 50.611 52.5209 50.5555 52.729 50.4489C52.9371 50.3424 53.1169 50.188 53.2535 49.9983L68.5612 28.781C68.9137 28.2893 68.5612 27.6028 67.9581 27.6028H62.8649C62.401 27.5935 61.9557 27.8254 61.6774 28.2058Z" fill="white"/>
</svg>
