<svg width="35" height="11" viewBox="0 0 35 11" fill="none" xmlns="http://www.w3.org/2000/svg">
<path d="M2.59012 7.028V10.5H0.196117V0.602H4.07412C5.25012 0.602 6.14612 0.896 6.76212 1.484C7.37812 2.06267 7.68612 2.84667 7.68612 3.836C7.68612 4.452 7.54612 5.00267 7.26612 5.488C6.99545 5.964 6.58945 6.342 6.04812 6.622C5.50678 6.89267 4.84878 7.028 4.07412 7.028H2.59012ZM3.80812 5.11C4.76945 5.11 5.25012 4.68533 5.25012 3.836C5.25012 2.968 4.76945 2.534 3.80812 2.534H2.59012V5.11H3.80812ZM13.9461 10.5L11.8041 6.762H11.2581V10.5H8.86409V0.602H12.9521C13.7361 0.602 14.3988 0.737333 14.9401 1.008C15.4814 1.27867 15.8874 1.652 16.1581 2.128C16.4288 2.59467 16.5641 3.13133 16.5641 3.738C16.5641 4.45667 16.3634 5.068 15.9621 5.572C15.5701 6.076 14.9961 6.42133 14.2401 6.608L16.5921 10.5H13.9461ZM11.2581 5.124H12.7421C13.2181 5.124 13.5681 5.02133 13.7921 4.816C14.0161 4.60133 14.1281 4.28867 14.1281 3.878C14.1281 3.486 14.0114 3.178 13.7781 2.954C13.5541 2.73 13.2088 2.618 12.7421 2.618H11.2581V5.124ZM20.1585 2.506V4.578H23.5045V6.384H20.1585V8.582H23.9245V10.5H17.7645V0.602H23.9245V2.506H20.1585ZM27.132 0.602L29.554 8.05L31.976 0.602H34.538L31.094 10.5H28L24.57 0.602H27.132Z" fill="#303030"/>
</svg>
