<svg id="paper-plane" xmlns="http://www.w3.org/2000/svg" width="18.724" height="18.724" viewBox="0 0 18.724 18.724">
  <g id="Сгруппировать_35262" data-name="Сгруппировать 35262" transform="translate(0 0.051)">
    <g id="Сгруппировать_35261" data-name="Сгруппировать 35261">
      <path id="Контур_491" data-name="Контур 491" d="M11.7,18.734a.708.708,0,0,1-.546-.234L.234,7.58A1.089,1.089,0,0,1,0,6.878a.825.825,0,0,1,.468-.546L17.628.091a.853.853,0,0,1,.78.156.621.621,0,0,1,.156.78l-6.24,17.16a.669.669,0,0,1-.546.468C11.778,18.734,11.778,18.734,11.7,18.734ZM2.184,7.346l9.2,9.2,5.226-14.43Z" transform="translate(0 -0.061)" fill="#fff"/>
    </g>
  </g>
  <g id="Сгруппировать_35264" data-name="Сгруппировать 35264" transform="translate(3.896)">
    <g id="Сгруппировать_35263" data-name="Сгруппировать 35263">
      <path id="Контур_492" data-name="Контур 492" d="M5.779,11.7a.709.709,0,0,1-.624-.312A.763.763,0,0,1,5.311,10.3L18.571.155a.763.763,0,0,1,1.092.156A.763.763,0,0,1,19.507,1.4L6.247,11.543A1.109,1.109,0,0,1,5.779,11.7Z" transform="translate(-4.995 0.005)" fill="#fff"/>
    </g>
  </g>
  <g id="Сгруппировать_35266" data-name="Сгруппировать 35266" transform="translate(3.9 10.144)">
    <g id="Сгруппировать_35265" data-name="Сгруппировать 35265">
      <path id="Контур_493" data-name="Контур 493" d="M5.78,20.8A.737.737,0,0,1,5,20.02V13.78A.737.737,0,0,1,5.78,13a.737.737,0,0,1,.78.78v6.24A.737.737,0,0,1,5.78,20.8Z" transform="translate(-5 -13)" fill="#fff"/>
    </g>
  </g>
  <g id="Сгруппировать_35268" data-name="Сгруппировать 35268" transform="translate(3.935 12.987)">
    <g id="Сгруппировать_35267" data-name="Сгруппировать 35267">
      <path id="Контур_494" data-name="Контур 494" d="M5.79,21.6a1.109,1.109,0,0,1-.468-.156.754.754,0,0,1-.078-1.092l2.73-3.432a.774.774,0,0,1,1.17,1.014L6.336,21.368A.607.607,0,0,1,5.79,21.6Z" transform="translate(-5.045 -16.645)" fill="#fff"/>
    </g>
  </g>
</svg>
