<svg width="16" height="27" viewBox="0 0 16 27" fill="none" xmlns="http://www.w3.org/2000/svg">
<path d="M15.3355 0.0056178L11.7377 0C7.69569 0 5.08356 2.60806 5.08356 6.64474V9.7084H1.46611C1.15352 9.7084 0.900391 9.95503 0.900391 10.2592V14.6981C0.900391 15.0023 1.15381 15.2487 1.46611 15.2487H5.08356V26.4495C5.08356 26.7537 5.33669 27 5.64928 27H10.369C10.6816 27 10.9347 26.7534 10.9347 26.4495V15.2487H15.1644C15.477 15.2487 15.7301 15.0023 15.7301 14.6981L15.7318 10.2592C15.7318 10.1132 15.6721 9.97328 15.5662 9.86992C15.4602 9.76655 15.3159 9.7084 15.1658 9.7084H10.9347V7.11129C10.9347 5.86302 11.2404 5.22933 12.9113 5.22933L15.335 5.22849C15.6473 5.22849 15.9004 4.98187 15.9004 4.67794V0.556162C15.9004 0.25252 15.6475 0.00617958 15.3355 0.0056178Z" fill="black"/>
</svg>
