<svg width="28" height="28" viewBox="0 0 28 28" fill="none" xmlns="http://www.w3.org/2000/svg">
<path d="M20.4911 0H7.9371C3.85129 0 0.527344 3.32395 0.527344 7.40976V19.9639C0.527344 24.0495 3.85129 27.3735 7.9371 27.3735H20.4913C24.5769 27.3735 27.9008 24.0495 27.9008 19.9639V7.40976C27.9008 3.32395 24.5769 0 20.4911 0ZM14.2141 21.1715C10.0869 21.1715 6.72936 17.8139 6.72936 13.6867C6.72936 9.55959 10.0869 6.20202 14.2141 6.20202C18.3413 6.20202 21.6988 9.55959 21.6988 13.6867C21.6988 17.8139 18.3413 21.1715 14.2141 21.1715ZM21.8778 7.96716C20.6582 7.96716 19.6662 6.97515 19.6662 5.75551C19.6662 4.53587 20.6582 3.54365 21.8778 3.54365C23.0974 3.54365 24.0897 4.53587 24.0897 5.75551C24.0897 6.97515 23.0974 7.96716 21.8778 7.96716Z" fill="black"/>
<path d="M14.2143 7.80676C10.9722 7.80676 8.33429 10.4445 8.33429 13.6867C8.33429 16.9288 10.9722 19.5667 14.2143 19.5667C17.4566 19.5667 20.0942 16.9288 20.0942 13.6867C20.0942 10.4445 17.4566 7.80676 14.2143 7.80676Z" fill="black"/>
<path d="M21.8777 5.14865C21.5431 5.14865 21.2708 5.42098 21.2708 5.75555C21.2708 6.09011 21.5431 6.36244 21.8777 6.36244C22.2125 6.36244 22.4848 6.09032 22.4848 5.75555C22.4848 5.42077 22.2125 5.14865 21.8777 5.14865Z" fill="black"/>
</svg>
