<svg width="30" height="28" viewBox="0 0 30 28" fill="none" xmlns="http://www.w3.org/2000/svg">
<path d="M7.39342 8.89458H1.24001V27.3733H7.39342V8.89458Z" fill="black"/>
<path d="M27.5877 10.5826C26.2951 9.1716 24.5855 8.46597 22.4599 8.46597C21.6768 8.46597 20.9649 8.56231 20.3246 8.75511C19.6845 8.94778 19.1438 9.2181 18.7024 9.56621C18.2612 9.91432 17.9098 10.2375 17.649 10.5357C17.4009 10.819 17.1583 11.1489 16.9216 11.5222V8.89455H10.7866L10.8054 9.78971C10.818 10.3866 10.8242 12.2263 10.8242 15.3091C10.8242 18.3921 10.8118 22.4135 10.7869 27.3736H16.9216V17.0617C16.9216 16.4279 16.9896 15.9245 17.1267 15.5512C17.3879 14.9169 17.7822 14.3859 18.3108 13.9572C18.8394 13.528 19.4949 13.3135 20.2783 13.3135C21.3471 13.3135 22.1336 13.6833 22.6372 14.423C23.1406 15.1626 23.3923 16.1851 23.3923 17.4904V27.373H29.5271V16.7823C29.5266 14.0596 28.8807 11.9931 27.5877 10.5826Z" fill="black"/>
<path d="M4.35399 0C3.32232 0 2.4864 0.301675 1.84602 0.904436C1.2057 1.50733 0.885742 2.26847 0.885742 3.18858C0.885742 4.09583 1.19649 4.85435 1.81807 5.46332C2.43944 6.07235 3.26002 6.37703 4.27934 6.37703H4.31663C5.36096 6.37703 6.20329 6.07261 6.84341 5.46332C7.48353 4.85435 7.79735 4.09609 7.78501 3.18858C7.7726 2.26854 7.45538 1.50733 6.834 0.904436C6.21269 0.301413 5.38572 0 4.35399 0Z" fill="black"/>
</svg>
