<svg width="27" height="27" viewBox="0 0 27 27" fill="none" xmlns="http://www.w3.org/2000/svg">
<path d="M21.9627 17.1602C20.3996 17.1602 19.0208 17.9049 18.12 19.0454L9.76472 14.7725C9.87411 14.3645 9.95273 13.943 9.95273 13.4994C9.95273 13.0164 9.85935 12.5618 9.72906 12.1193L18.0474 7.86616C18.9433 9.0582 20.3578 9.83733 21.9639 9.83733C24.6847 9.83733 26.8856 7.6364 26.8856 4.91807C26.8857 2.20218 24.6847 0 21.964 0C19.2493 0 17.046 2.20218 17.046 4.91801C17.046 5.36289 17.1246 5.78561 17.2352 6.19483L8.88117 10.4677C7.97916 9.32608 6.59786 8.57891 5.03227 8.57891C2.31393 8.57891 0.114258 10.7823 0.114258 13.4994C0.114258 16.2165 2.31399 18.4186 5.03227 18.4186C6.64088 18.4186 8.05414 17.6371 8.95364 16.4438L17.2683 20.697C17.138 21.1382 17.0435 21.5965 17.0435 22.0807C17.0435 24.7978 19.2468 27 21.9615 27C24.6823 27 26.8832 24.7978 26.8832 22.0807C26.8844 19.3612 24.6835 17.1602 21.9627 17.1602Z" fill="#010002"/>
</svg>
