<svg width="39" height="39" viewBox="0 0 39 39" fill="none" xmlns="http://www.w3.org/2000/svg">
<path fill-rule="evenodd" clip-rule="evenodd" d="M39 19.5C39 30.2696 30.2696 39 19.5 39C8.73045 39 0 30.2696 0 19.5C0 8.73045 8.73045 0 19.5 0C30.2696 0 39 8.73045 39 19.5ZM29.5112 29.0759C30.0591 29.0759 30.5339 28.895 30.9375 28.5378L24.0316 21.6317C23.866 21.7504 23.7054 21.8658 23.5537 21.9755C23.0369 22.3562 22.6174 22.6533 22.2953 22.8663C21.9733 23.0796 21.5448 23.2972 21.01 23.5192C20.4748 23.7416 19.9762 23.8524 19.5136 23.8524H19.5001H19.4865C19.0239 23.8524 18.5253 23.7416 17.9902 23.5192C17.455 23.2972 17.0265 23.0796 16.7048 22.8663C16.3828 22.6533 15.9636 22.3563 15.4465 21.9755C15.3024 21.8698 15.1426 21.7539 14.9698 21.6299L8.0627 28.5378C8.46625 28.895 8.94132 29.0759 9.48918 29.0759H29.5112ZM7.31304 16.0998C7.71199 16.5442 8.17024 16.9388 8.68699 17.2833C10.6132 18.5923 12.1821 19.67 13.3998 20.5201L7.31304 26.6068V16.0998ZM30.3282 17.2833C28.4756 18.5373 26.9009 19.6169 25.6041 20.5225L31.6884 26.6071V16.0998C31.2983 16.5353 30.845 16.9296 30.3282 17.2833ZM9.48954 9.92424H29.5115C30.1009 9.92424 30.6111 10.1374 31.042 10.5634C31.4724 10.99 31.688 11.5021 31.688 12.1007C31.688 12.817 31.4656 13.5017 31.0219 14.1544C30.5775 14.8071 30.0245 15.365 29.3626 15.8273C27.1617 17.3549 25.501 18.5081 24.3733 19.2916C23.7536 19.7219 23.2926 20.0424 22.9968 20.2482C22.953 20.279 22.8844 20.3278 22.7934 20.3931C22.6954 20.4632 22.5714 20.5526 22.4186 20.6631C22.1239 20.8763 21.8791 21.0485 21.6841 21.1801C21.4888 21.3115 21.2532 21.4588 20.9767 21.6221C20.6999 21.7855 20.4393 21.9079 20.1945 21.9894C19.9496 22.0709 19.7229 22.1118 19.5144 22.1118H19.5009H19.4873C19.2788 22.1118 19.0521 22.0709 18.8073 21.9894C18.5625 21.9079 18.3016 21.7852 18.0251 21.6221C17.7483 21.4588 17.5124 21.3118 17.3177 21.1801C17.1227 21.0485 16.8779 20.8762 16.5832 20.6631C16.4302 20.5526 16.3061 20.4633 16.2081 20.3929L16.1975 20.3853C16.1118 20.324 16.0469 20.2776 16.005 20.2482C15.6253 19.9812 15.1654 19.6594 14.6321 19.2878C14.0065 18.8515 13.2785 18.3458 12.4413 17.7657C10.8905 16.6913 9.96102 16.0451 9.65279 15.8273C9.09054 15.4465 8.55998 14.923 8.06137 14.2565C7.56276 13.5897 7.31334 12.9708 7.31334 12.3996C7.31334 11.6925 7.50129 11.1029 7.8778 10.6314C8.25401 10.1601 8.79103 9.92424 9.48954 9.92424Z" fill="white"/>
</svg>
