<svg width="39" height="39" viewBox="0 0 39 39" fill="none" xmlns="http://www.w3.org/2000/svg">
<path fill-rule="evenodd" clip-rule="evenodd" d="M19.5 39C30.2696 39 39 30.2696 39 19.5C39 8.73045 30.2696 0 19.5 0C8.73045 0 0 8.73045 0 19.5C0 30.2696 8.73045 39 19.5 39ZM10.7926 16.0261C10.7926 11.1138 14.8577 7.15076 19.8078 7.31758C25.0994 7.49598 28.9699 12.4565 28.0803 17.6759C27.561 20.7238 25.6626 23.2118 23.6428 25.8589C22.3201 27.5925 20.9453 29.3943 19.8717 31.4662C19.719 31.7615 19.2937 31.7612 19.1414 31.4657C18.0581 29.3637 16.6678 27.4929 15.3339 25.6979C12.9753 22.5242 10.7926 19.5871 10.7926 16.0261ZM14.9419 16.0261C14.9419 18.5468 16.9854 20.5904 19.5061 20.5904C22.0269 20.5904 24.0704 18.5468 24.0704 16.0261C24.0704 13.5055 22.0269 11.4619 19.5061 11.4619C16.9855 11.4619 14.9419 13.5055 14.9419 16.0261Z" fill="white"/>
</svg>
