<svg width="29" height="28" viewBox="0 0 29 28" fill="none" xmlns="http://www.w3.org/2000/svg">
<path d="M6.50765 8.95752H0.354248V27.4363H6.50765V8.95752Z" fill="white"/>
<path d="M26.702 10.6454C25.4094 9.23444 23.6998 8.52881 21.5742 8.52881C20.7911 8.52881 20.0792 8.62514 19.4389 8.81794C18.7987 9.01061 18.2581 9.28094 17.8167 9.62905C17.3755 9.97716 17.0241 10.3003 16.7632 10.5985C16.5152 10.8818 16.2726 11.2117 16.0359 11.585V8.95738H9.90088L9.91969 9.85255C9.93229 10.4494 9.9385 12.2891 9.9385 15.3719C9.9385 18.4549 9.92609 22.4763 9.90114 27.4364H16.0359V17.1245C16.0359 16.4907 16.1039 15.9873 16.2409 15.6141C16.5022 14.9798 16.8965 14.4487 17.4251 14.02C17.9537 13.5908 18.6092 13.3764 19.3926 13.3764C20.4614 13.3764 21.2479 13.7462 21.7515 14.4858C22.2548 15.2254 22.5066 16.2479 22.5066 17.5532V27.4358H28.6413V16.8451C28.6409 14.1224 27.995 12.056 26.702 10.6454Z" fill="white"/>
<path d="M3.46825 0.0629883C2.43658 0.0629883 1.60066 0.364663 0.960277 0.967424C0.319962 1.57032 0 2.33146 0 3.25157C0 4.15881 0.310753 4.91734 0.932324 5.52631C1.5537 6.13534 2.37427 6.44002 3.39359 6.44002H3.43089C4.47522 6.44002 5.31754 6.1356 5.95766 5.52631C6.59778 4.91734 6.91161 4.15907 6.89926 3.25157C6.88685 2.33152 6.56963 1.57032 5.94826 0.967424C5.32695 0.364402 4.49997 0.0629883 3.46825 0.0629883Z" fill="white"/>
</svg>
