<svg width="28" height="28" viewBox="0 0 28 28" fill="none" xmlns="http://www.w3.org/2000/svg">
<path d="M19.9637 0.0629883H7.40976C3.32395 0.0629883 0 3.38694 0 7.47275V20.0269C0 24.1125 3.32395 27.4365 7.40976 27.4365H19.9639C24.0495 27.4365 27.3735 24.1125 27.3735 20.0269V7.47275C27.3735 3.38694 24.0495 0.0629883 19.9637 0.0629883V0.0629883ZM13.6867 21.2345C9.55959 21.2345 6.20202 17.8769 6.20202 13.7497C6.20202 9.62258 9.55959 6.26501 13.6867 6.26501C17.8139 6.26501 21.1715 9.62258 21.1715 13.7497C21.1715 17.8769 17.8139 21.2345 13.6867 21.2345ZM21.3505 8.03015C20.1308 8.03015 19.1388 7.03814 19.1388 5.8185C19.1388 4.59885 20.1308 3.60664 21.3505 3.60664C22.5701 3.60664 23.5623 4.59885 23.5623 5.8185C23.5623 7.03814 22.5701 8.03015 21.3505 8.03015Z" fill="white"/>
<path d="M13.6869 7.86963C10.4448 7.86963 7.80688 10.5073 7.80688 13.7496C7.80688 16.9917 10.4448 19.6296 13.6869 19.6296C16.9292 19.6296 19.5668 16.9917 19.5668 13.7496C19.5668 10.5073 16.9292 7.86963 13.6869 7.86963Z" fill="white"/>
<path d="M21.3503 5.21143C21.0157 5.21143 20.7434 5.48376 20.7434 5.81832C20.7434 6.15289 21.0157 6.42522 21.3503 6.42522C21.6851 6.42522 21.9574 6.1531 21.9574 5.81832C21.9574 5.48355 21.6851 5.21143 21.3503 5.21143Z" fill="white"/>
</svg>
