<svg width="34" height="34" viewBox="0 0 34 34" fill="none" xmlns="http://www.w3.org/2000/svg">
<path d="M28.4252 20.3007C27.6882 19.5333 26.7992 19.123 25.857 19.123C24.9225 19.123 24.0259 19.5257 23.2585 20.2931L20.8575 22.6865C20.66 22.5801 20.4624 22.4813 20.2725 22.3825C19.9989 22.2458 19.7406 22.1166 19.5203 21.9799C17.2712 20.5514 15.2274 18.6899 13.2671 16.2813C12.3173 15.0808 11.6791 14.0703 11.2156 13.0445C11.8386 12.4747 12.4161 11.882 12.9783 11.3122C13.1911 11.0994 13.4038 10.8791 13.6166 10.6664C15.2122 9.07077 15.2122 7.0041 13.6166 5.40851L11.5423 3.33424C11.3068 3.0987 11.0636 2.85556 10.8357 2.61243C10.3798 2.14135 9.90113 1.65507 9.40726 1.19919C8.67025 0.469776 7.78887 0.0822754 6.86191 0.0822754C5.93495 0.0822754 5.03838 0.469776 4.27857 1.19919C4.27098 1.20679 4.27098 1.20679 4.26338 1.21438L1.68004 3.82052C0.707491 4.79307 0.152834 5.97836 0.0312648 7.35361C-0.151088 9.57224 0.502344 11.6389 1.00382 12.9914C2.2347 16.3117 4.07343 19.3889 6.81632 22.6865C10.1443 26.6603 14.1484 29.7982 18.7225 32.0093C20.47 32.8375 22.8026 33.8176 25.4088 33.9848C25.5683 33.9924 25.7355 34 25.8874 34C27.6426 34 29.1166 33.3693 30.2715 32.1157C30.2791 32.1005 30.2943 32.0929 30.3019 32.0777C30.697 31.599 31.1529 31.1659 31.6316 30.7024C31.9583 30.3909 32.2926 30.0642 32.6193 29.7223C33.3715 28.9397 33.7666 28.0279 33.7666 27.0933C33.7666 26.1512 33.3639 25.247 32.5965 24.4872L28.4252 20.3007ZM31.1453 28.3014C31.1377 28.3014 31.1377 28.309 31.1453 28.3014C30.849 28.6205 30.545 28.9093 30.2183 29.2284C29.7244 29.6995 29.223 30.1933 28.7519 30.748C27.9845 31.5686 27.0803 31.9561 25.895 31.9561C25.7811 31.9561 25.6595 31.9561 25.5455 31.9485C23.2889 31.8041 21.1918 30.9228 19.619 30.1705C15.3185 28.0887 11.5423 25.133 8.40431 21.3872C5.81338 18.2644 4.08103 15.3771 2.93372 12.2771C2.2271 10.3852 1.96877 8.91121 2.08274 7.52077C2.15872 6.63179 2.50063 5.89478 3.13127 5.26415L5.7222 2.67321C6.09451 2.3237 6.48961 2.13375 6.87711 2.13375C7.35578 2.13375 7.74329 2.42247 7.98642 2.66561C7.99402 2.67321 8.00162 2.68081 8.00922 2.68841C8.4727 3.1215 8.91338 3.56978 9.37687 4.04846C9.6124 4.29159 9.85554 4.53473 10.0987 4.78547L12.1729 6.85974C12.9783 7.66513 12.9783 8.40974 12.1729 9.21513C11.9526 9.43547 11.7399 9.65582 11.5195 9.86856C10.8813 10.522 10.2734 11.1298 9.6124 11.7225C9.59721 11.7377 9.58201 11.7453 9.57442 11.7605C8.92098 12.4139 9.04255 13.0521 9.17932 13.4852C9.18691 13.508 9.19451 13.5308 9.20211 13.5536C9.74157 14.8605 10.5014 16.0914 11.6563 17.5578L11.6639 17.5654C13.7609 20.1487 15.972 22.1622 18.4109 23.7046C18.7225 23.9022 19.0416 24.0617 19.3455 24.2137C19.619 24.3504 19.8774 24.4796 20.0977 24.6164C20.1281 24.6316 20.1585 24.6544 20.1889 24.6696C20.4472 24.7987 20.6904 24.8595 20.9411 24.8595C21.5717 24.8595 21.9668 24.4644 22.096 24.3352L24.6945 21.7367C24.9529 21.4784 25.3632 21.1669 25.8418 21.1669C26.3129 21.1669 26.7004 21.4632 26.936 21.7215C26.9436 21.7291 26.9436 21.7291 26.9512 21.7367L31.1377 25.9232C31.9203 26.6982 31.9203 27.496 31.1453 28.3014Z" fill="#A2C2C6"/>
</svg>
