<svg width="40" height="32" viewBox="0 0 40 32" fill="none" xmlns="http://www.w3.org/2000/svg">
<path d="M9.012 0.749995C4.007 0.749995 0.185 4.208 0.185 9.486C0.185 13.308 2.096 16.038 5.008 17.312L1.095 31.69H10.104L15.382 18.586C17.384 13.581 17.748 11.852 17.748 9.486C17.748 4.299 14.108 0.749995 9.012 0.749995ZM30.488 0.749995C25.483 0.749995 21.661 4.208 21.661 9.486C21.661 13.308 23.572 16.038 26.484 17.312L22.571 31.69H31.58L36.858 18.586C38.86 13.581 39.224 11.852 39.224 9.486C39.224 4.299 35.584 0.749995 30.488 0.749995Z" fill="#A2C2C6"/>
</svg>
