<svg width="36" height="11" viewBox="0 0 36 11" fill="none" xmlns="http://www.w3.org/2000/svg">
<path d="M9.68734 10.5H7.29334L3.28934 4.424V10.5H0.895336V0.602H3.28934L7.29334 6.734V0.602H9.68734V10.5ZM13.7346 2.506V4.578H17.0806V6.384H13.7346V8.582H17.5006V10.5H11.3406V0.602H17.5006V2.506H13.7346ZM24.8662 10.5L22.7802 7.42L20.9882 10.5H18.2442L21.4082 5.404L18.1462 0.602H20.9882L23.0182 3.584L24.7682 0.602H27.4982L24.3762 5.586L27.7082 10.5H24.8662ZM35.7476 0.602V2.506H33.0596V10.5H30.6516V2.506H27.9916V0.602H35.7476Z" fill="#303030"/>
</svg>
