<svg xmlns="http://www.w3.org/2000/svg" xmlns:xlink="http://www.w3.org/1999/xlink" width="334.455" height="47.299" viewBox="0 0 334.455 47.299">
  <defs>
    <clipPath id="clip-path">
      <path id="Контур_219" data-name="Контур 219" d="M0,15.261H334.455v-47.3H0Z" transform="translate(0 32.038)" fill="#fff"/>
    </clipPath>
  </defs>
  <g id="Сгруппировать_211" data-name="Сгруппировать 211" clip-path="url(#clip-path)">
    <g id="Сгруппировать_210" data-name="Сгруппировать 210" transform="translate(0.001 0)">
      <path id="Контур_218" data-name="Контур 218" d="M34.793,5.674c-1.462,1.98-3.906,5.42-5.395,7.429-.756,1.023-2.12,2.877,2.4,2.877H55.618s3.838-5.222,7.057-9.589c4.377-5.942.378-18.3-15.27-18.3H-14.225L-24.91,2.606H33.33c2.939,0,2.9,1.119,1.463,3.068M17.3,19.562c-4.525,0-3.159-1.859-2.4-2.88,1.488-2.011,3.973-5.415,5.434-7.393C21.767,7.339,21.805,6.22,18.86,6.22H-7.774L-29.236,35.387H23.1c17.286,0,26.909-11.757,29.876-15.823,0,0-30.9,0-35.68,0M51.341,35.387h30.7L93.683,19.56l-30.7,0c-.01,0-11.644,15.823-11.644,15.823m79.215-47.3L118.78,4.083h-13.7l11.771-15.995H86.157L65.621,15.98h75.1l20.528-27.892Zm-34.81,47.3h30.69L138.08,19.563H107.39c-.01,0-11.644,15.823-11.644,15.823M-73.043,25.8v3.362h42.757l2.47-3.362Zm49.823-6.242H-73.043v3.357H-25.7ZM-73.043,35.387h38.176l2.46-3.342H-73.043Zm289.4-6.224h45.056V25.8H218.83Zm-4.577,6.224h49.633V32.044H214.236Zm11.639-15.825-2.468,3.362h40.462V19.562Zm-40.2-3.582L203.75-11.912h-32.5c-.012,0-20.548,27.892-20.548,27.892Zm-35.153,3.582s-2.243,3.066-3.334,4.543c-3.855,5.207-.446,11.282,12.134,11.282h49.29L217.8,19.563H148.066Z" transform="translate(73.043 11.912)" fill="#fff"/>
    </g>
  </g>
</svg>
