<svg xmlns="http://www.w3.org/2000/svg" viewBox="0 0 217 217"><defs><style>.cls-1{fill:#006247;}</style></defs><g id="Oracle"><path class="cls-1" d="M166.57,40.26,136.63,66.82H88.56V34.43H73a27.46,27.46,0,0,0-54.21,0H3.29V119.7H27.72v80.71H208.51V40.26ZM45.93,24.78a14.07,14.07,0,0,1,13.34,9.65H32.58A14.08,14.08,0,0,1,45.93,24.78ZM16.69,106.3V47.82H75.16V106.3ZM149.92,127V80.22h21.13v46.57L160.42,123Zm10.63,10.27,23.9,8.63V80.22h10.66V187h-154V119.7H88.56V80.22h48v66.22Zm34.56-83.58V66.82H156.82l14.84-13.16Z"/><path class="cls-1" d="M45.93,50.29a15.57,15.57,0,0,0-6.7,29.63V99.86H52.62V79.92a15.57,15.57,0,0,0-6.69-29.63Zm0,17.76a2.18,2.18,0,1,1,2.18-2.18A2.19,2.19,0,0,1,45.93,68.05Z"/></g></svg>