<svg xmlns="http://www.w3.org/2000/svg" viewBox="0 0 217 217"><defs><style>.cls-1{fill:#006247;}</style></defs><g id="Oracle"><path class="cls-1" d="M119.06,146.6,108.49,136h78.64a15.3,15.3,0,0,0,2.47-30.4,80.92,80.92,0,0,0-61.06-77,20.22,20.22,0,0,0-40.08,0,80.92,80.92,0,0,0-61.06,77A15.3,15.3,0,0,0,29.87,136H84.36a15.3,15.3,0,0,0,1.19,20.27l49.61,49.62H173.8l1.5-.06h27.13v-65H131A15.17,15.17,0,0,0,119.06,146.6ZM40.8,105.41a67.72,67.72,0,0,1,135.4,0Zm67.7-79.3c-1.5,0-3,0-4.58.13a6.81,6.81,0,0,1,9.16,0C111.53,26.15,110,26.11,108.5,26.11ZM131,171.41h16.88V158H131a1.89,1.89,0,1,1,0-3.77H167.1v38.28H140.71L95,146.83a1.89,1.89,0,0,1,2.58-2.75l21.08,21.08A15.32,15.32,0,0,0,131,171.41Zm56.14-48.78H29.87a1.91,1.91,0,0,1,0-3.82H187.13a1.91,1.91,0,0,1,0,3.82Zm-6.63,69.83V154.25H189v38.21Z"/></g></svg>