<svg width="34" height="48" viewBox="0 0 34 48" fill="none" xmlns="http://www.w3.org/2000/svg">
<path d="M29.668 6.54152H24.1488V1.11926C24.1485 0.949028 24.0807 0.785869 23.9602 0.6656C23.8397 0.545332 23.6764 0.477783 23.5062 0.477783H10.4938C10.4094 0.477735 10.3258 0.494323 10.2478 0.526598C10.1699 0.558874 10.099 0.606204 10.0393 0.665882C9.97965 0.725561 9.93232 0.796417 9.90004 0.8744C9.86777 0.952383 9.85118 1.03596 9.85123 1.12036V6.54152H4.33203C3.38286 6.54259 2.47288 6.92012 1.80171 7.59128C1.13055 8.26244 0.753022 9.17243 0.751953 10.1216V43.8962C0.752633 44.8457 1.12999 45.756 1.8012 46.4275C2.4724 47.099 3.38261 47.4767 4.33203 47.4778H29.668C30.6171 47.4767 31.5271 47.0992 32.1983 46.428C32.8694 45.7569 33.247 44.8469 33.248 43.8977V10.1216C33.247 9.17243 32.8694 8.26244 32.1983 7.59128C31.5271 6.92012 30.6171 6.54259 29.668 6.54152ZM28.291 11.4985V42.5208H5.70898V11.4985H28.291ZM11.1364 1.76294H22.8636V10.2134H11.1364V1.76294ZM31.9629 43.8962C31.9622 44.5047 31.7202 45.088 31.29 45.5182C30.8597 45.9485 30.2764 46.1905 29.668 46.1912H4.33203C3.72359 46.1905 3.14026 45.9485 2.71003 45.5182C2.27979 45.088 2.03779 44.5047 2.03711 43.8962V10.1216C2.03779 9.51315 2.27979 8.92983 2.71003 8.49959C3.14026 8.06936 3.72359 7.82735 4.33203 7.82667H9.85123V10.2134H5.06641C4.98201 10.2133 4.89843 10.2299 4.82045 10.2622C4.74246 10.2945 4.67161 10.3418 4.61193 10.4015C4.55225 10.4612 4.50492 10.532 4.47264 10.61C4.44037 10.688 4.42378 10.7716 4.42383 10.856V43.1619C4.42359 43.2464 4.44003 43.3301 4.47222 43.4083C4.50441 43.4864 4.55171 43.5575 4.61141 43.6173C4.6711 43.6771 4.74203 43.7246 4.82011 43.757C4.89818 43.7893 4.98188 43.806 5.06641 43.8059H28.9336C29.018 43.806 29.1016 43.7894 29.1796 43.7571C29.2575 43.7248 29.3284 43.6775 29.3881 43.6178C29.4478 43.5581 29.4951 43.4873 29.5274 43.4093C29.5596 43.3313 29.5762 43.2477 29.5762 43.1633V10.856C29.5762 10.7716 29.5596 10.688 29.5274 10.61C29.4951 10.532 29.4478 10.4612 29.3881 10.4015C29.3284 10.3418 29.2575 10.2945 29.1796 10.2622C29.1016 10.2299 29.018 10.2133 28.9336 10.2134H24.1488V7.82667H29.668C30.2764 7.82735 30.8597 8.06936 31.29 8.49959C31.7202 8.92983 31.9622 9.51315 31.9629 10.1216V43.8962Z" fill="white"/>
<path d="M14.9691 6.63038H16.3574V8.01871C16.3574 8.18914 16.4251 8.35258 16.5456 8.47308C16.6661 8.59359 16.8296 8.66129 17 8.66129C17.1704 8.66129 17.3339 8.59359 17.4544 8.47308C17.5749 8.35258 17.6426 8.18914 17.6426 8.01871V6.63038H19.0309C19.2013 6.63038 19.3648 6.56268 19.4853 6.44217C19.6058 6.32166 19.6735 6.15822 19.6735 5.9878C19.6735 5.81738 19.6058 5.65393 19.4853 5.53343C19.3648 5.41292 19.2013 5.34522 19.0309 5.34522H17.6426V3.95689C17.6426 3.78646 17.5749 3.62302 17.4544 3.50251C17.3339 3.38201 17.1704 3.31431 17 3.31431C16.8296 3.31431 16.6661 3.38201 16.5456 3.50251C16.4251 3.62302 16.3574 3.78646 16.3574 3.95689V5.34522H14.9691C14.7987 5.34522 14.6352 5.41292 14.5147 5.53343C14.3942 5.65393 14.3265 5.81738 14.3265 5.9878C14.3265 6.15822 14.3942 6.32166 14.5147 6.44217C14.6352 6.56268 14.7987 6.63038 14.9691 6.63038Z" fill="white"/>
<path d="M10.1127 22.2215C10.2424 22.3309 10.4101 22.3846 10.5793 22.3708C10.7484 22.3571 10.9052 22.277 11.0156 22.1481L14.596 17.9768C14.6564 17.9137 14.7032 17.839 14.7337 17.7572C14.7642 17.6754 14.7777 17.5882 14.7734 17.501C14.7691 17.4138 14.747 17.3283 14.7086 17.2499C14.6702 17.1715 14.6162 17.1018 14.5499 17.0449C14.4836 16.9881 14.4064 16.9454 14.3231 16.9193C14.2397 16.8933 14.152 16.8846 14.0651 16.8936C13.9783 16.9026 13.8942 16.9293 13.818 16.9719C13.7418 17.0145 13.675 17.0722 13.6219 17.1415L10.456 20.8284L9.15357 19.7269C9.08915 19.6723 9.01462 19.631 8.93423 19.6053C8.85384 19.5795 8.76917 19.5699 8.68505 19.5769C8.60094 19.5839 8.51902 19.6074 8.44399 19.646C8.36895 19.6847 8.30226 19.7377 8.24772 19.8021C8.19318 19.8665 8.15187 19.9411 8.12614 20.0215C8.1004 20.1019 8.09076 20.1865 8.09775 20.2706C8.10474 20.3548 8.12823 20.4367 8.16687 20.5117C8.20552 20.5868 8.25857 20.6534 8.32299 20.708L10.1127 22.2215Z" fill="white"/>
<path d="M17 18.8449H25.2617C25.4321 18.8449 25.5956 18.7772 25.7161 18.6567C25.8366 18.5362 25.9043 18.3727 25.9043 18.2023C25.9043 18.0319 25.8366 17.8684 25.7161 17.7479C25.5956 17.6274 25.4321 17.5597 25.2617 17.5597H17C16.8296 17.5597 16.6661 17.6274 16.5456 17.7479C16.4251 17.8684 16.3574 18.0319 16.3574 18.2023C16.3574 18.3727 16.4251 18.5362 16.5456 18.6567C16.6661 18.7772 16.8296 18.8449 17 18.8449Z" fill="white"/>
<path d="M17 21.7313H22.5996C22.77 21.7313 22.9335 21.6636 23.054 21.5431C23.1745 21.4226 23.2422 21.2592 23.2422 21.0888C23.2422 20.9183 23.1745 20.7549 23.054 20.6344C22.9335 20.5139 22.77 20.4462 22.5996 20.4462H17C16.8296 20.4462 16.6661 20.5139 16.5456 20.6344C16.4251 20.7549 16.3574 20.9183 16.3574 21.0888C16.3574 21.2592 16.4251 21.4226 16.5456 21.5431C16.6661 21.6636 16.8296 21.7313 17 21.7313Z" fill="white"/>
<path d="M10.1127 29.5851C10.2424 29.6946 10.4101 29.7483 10.5793 29.7346C10.7484 29.7208 10.9053 29.6407 11.0156 29.5117L14.596 25.3408C14.707 25.2115 14.7621 25.0433 14.7492 24.8734C14.7362 24.7034 14.6563 24.5456 14.527 24.4346C14.3977 24.3235 14.2295 24.2684 14.0596 24.2814C13.8896 24.2943 13.7318 24.3743 13.6208 24.5036L10.456 28.192L9.15357 27.0904C9.08915 27.0359 9.01462 26.9946 8.93423 26.9688C8.85384 26.9431 8.76917 26.9335 8.68505 26.9405C8.60094 26.9474 8.51902 26.9709 8.44399 27.0096C8.36895 27.0482 8.30226 27.1013 8.24772 27.1657C8.19318 27.2301 8.15187 27.3047 8.12614 27.385C8.1004 27.4654 8.09076 27.5501 8.09775 27.6342C8.10474 27.7183 8.12823 27.8003 8.16687 27.8753C8.20552 27.9503 8.25857 28.017 8.32299 28.0716L10.1127 29.5851Z" fill="white"/>
<path d="M17 26.2081H25.2617C25.4321 26.2081 25.5956 26.1404 25.7161 26.0199C25.8366 25.8994 25.9043 25.7359 25.9043 25.5655C25.9043 25.3951 25.8366 25.2316 25.7161 25.1111C25.5956 24.9906 25.4321 24.9229 25.2617 24.9229H17C16.8296 24.9229 16.6661 24.9906 16.5456 25.1111C16.4251 25.2316 16.3574 25.3951 16.3574 25.5655C16.3574 25.7359 16.4251 25.8994 16.5456 26.0199C16.6661 26.1404 16.8296 26.2081 17 26.2081Z" fill="white"/>
<path d="M17 29.0945H22.5996C22.77 29.0945 22.9335 29.0268 23.054 28.9063C23.1745 28.7858 23.2422 28.6224 23.2422 28.452C23.2422 28.2815 23.1745 28.1181 23.054 27.9976C22.9335 27.8771 22.77 27.8094 22.5996 27.8094H17C16.8296 27.8094 16.6661 27.8771 16.5456 27.9976C16.4251 28.1181 16.3574 28.2815 16.3574 28.452C16.3574 28.6224 16.4251 28.7858 16.5456 28.9063C16.6661 29.0268 16.8296 29.0945 17 29.0945Z" fill="white"/>
<path d="M10.1127 36.9483C10.2424 37.0577 10.4101 37.1114 10.5793 37.0976C10.7484 37.0839 10.9052 37.0038 11.0156 36.8749L14.596 32.704C14.707 32.5747 14.7621 32.4065 14.7492 32.2366C14.7362 32.0666 14.6563 31.9088 14.527 31.7978C14.3977 31.6868 14.2295 31.6317 14.0596 31.6446C13.8896 31.6576 13.7318 31.7375 13.6208 31.8668L10.456 35.5552L9.15357 34.4536C9.08946 34.3972 9.01475 34.3541 8.93379 34.3269C8.85283 34.2996 8.76725 34.2888 8.68206 34.295C8.59688 34.3013 8.51378 34.3244 8.43765 34.3632C8.36151 34.4019 8.29386 34.4554 8.23865 34.5205C8.18343 34.5857 8.14177 34.6612 8.11609 34.7427C8.0904 34.8242 8.08122 34.9099 8.08907 34.995C8.09693 35.0801 8.12166 35.1627 8.16182 35.2381C8.20199 35.3135 8.25678 35.3801 8.32299 35.434L10.1127 36.9483Z" fill="white"/>
<path d="M17 33.5717H25.2617C25.4321 33.5717 25.5956 33.504 25.7161 33.3835C25.8366 33.2629 25.9043 33.0995 25.9043 32.9291C25.9043 32.7587 25.8366 32.5952 25.7161 32.4747C25.5956 32.3542 25.4321 32.2865 25.2617 32.2865H17C16.8296 32.2865 16.6661 32.3542 16.5456 32.4747C16.4251 32.5952 16.3574 32.7587 16.3574 32.9291C16.3574 33.0995 16.4251 33.2629 16.5456 33.3835C16.6661 33.504 16.8296 33.5717 17 33.5717Z" fill="white"/>
<path d="M17 36.4581H22.5996C22.77 36.4581 22.9335 36.3904 23.054 36.2699C23.1745 36.1494 23.2422 35.986 23.2422 35.8155C23.2422 35.6451 23.1745 35.4817 23.054 35.3612C22.9335 35.2407 22.77 35.173 22.5996 35.173H17C16.8296 35.173 16.6661 35.2407 16.5456 35.3612C16.4251 35.4817 16.3574 35.6451 16.3574 35.8155C16.3574 35.986 16.4251 36.1494 16.5456 36.2699C16.6661 36.3904 16.8296 36.4581 17 36.4581Z" fill="white"/>
</svg>
