<svg width="48" height="48" viewBox="0 0 48 48" fill="none" xmlns="http://www.w3.org/2000/svg">
<path d="M17.2283 11.0017C17.2283 8.47087 15.1693 6.41187 12.6384 6.41187C10.1076 6.41187 8.04858 8.47087 8.04858 11.0017C8.04858 13.5325 10.1076 15.5916 12.6384 15.5916C15.1693 15.5916 17.2283 13.5325 17.2283 11.0017ZM12.6384 13.7556C11.1199 13.7556 9.88452 12.5202 9.88452 11.0017C9.88452 9.4832 11.1199 8.2478 12.6384 8.2478C14.1569 8.2478 15.3923 9.4832 15.3923 11.0017C15.3923 12.5202 14.1569 13.7556 12.6384 13.7556Z" fill="white"/>
<path d="M12.6384 24.7712C19.2989 24.7712 24.572 19.3414 24.572 12.8376C24.572 6.25746 19.2187 0.904053 12.6384 0.904053C6.05815 0.904053 0.704834 6.25746 0.704834 12.8376C0.704834 19.3409 5.977 24.7712 12.6384 24.7712ZM8.05317 21.8348C8.14947 19.3884 10.1687 17.4275 12.6384 17.4275C15.1081 17.4275 17.1274 19.3884 17.2237 21.8348C15.8118 22.5554 14.2378 22.9353 12.6384 22.9353C11.0391 22.9353 9.46501 22.5554 8.05317 21.8348ZM12.6384 2.73999C18.2063 2.73999 22.7361 7.2698 22.7361 12.8376C22.7361 15.9227 21.3091 18.8285 18.9344 20.7294C18.3364 17.8014 15.7406 15.5916 12.6384 15.5916C9.53624 15.5916 6.9405 17.8014 6.34245 20.7294C3.96785 18.8286 2.54077 15.9228 2.54077 12.8376C2.54077 7.2698 7.07058 2.73999 12.6384 2.73999Z" fill="white"/>
<path d="M40.3611 34.1345C40.3611 31.6037 38.3021 29.5447 35.7712 29.5447C33.2404 29.5447 31.1814 31.6037 31.1814 34.1345C31.1814 36.6654 33.2404 38.7244 35.7712 38.7244C38.3021 38.7244 40.3611 36.6654 40.3611 34.1345ZM35.7712 36.8884C34.2527 36.8884 33.0173 35.653 33.0173 34.1345C33.0173 32.616 34.2527 31.3806 35.7712 31.3806C37.2897 31.3806 38.5251 32.616 38.5251 34.1345C38.5251 35.653 37.2897 36.8884 35.7712 36.8884Z" fill="white"/>
<path d="M35.7712 24.0369C29.191 24.0369 23.8376 29.3903 23.8376 35.9705C23.8376 42.4743 29.1097 47.9041 35.7712 47.9041C42.4317 47.9041 47.7048 42.4742 47.7048 35.9705C47.7048 29.3903 42.3515 24.0369 35.7712 24.0369ZM31.186 44.9677C31.2823 42.5212 33.3015 40.5603 35.7712 40.5603C38.2409 40.5603 40.2602 42.5212 40.3565 44.9677C38.9447 45.6883 37.3706 46.0681 35.7712 46.0681C34.1719 46.0681 32.5978 45.6883 31.186 44.9677ZM42.0672 43.8622C41.4692 40.9342 38.8734 38.7244 35.7712 38.7244C32.6691 38.7244 30.0733 40.9342 29.4753 43.8622C27.1007 41.9614 25.6736 39.0556 25.6736 35.9705C25.6736 30.4026 30.2034 25.8728 35.7712 25.8728C41.3391 25.8728 45.8689 30.4026 45.8689 35.9705C45.8689 39.0555 44.4419 41.9613 42.0672 43.8622Z" fill="white"/>
<path d="M22.3689 43.6814C18.8256 43.6814 15.9431 40.7988 15.9431 37.2556V36.3376H16.8611C17.2088 36.3376 17.5266 36.1412 17.6821 35.8302C17.8376 35.5192 17.804 35.147 17.5955 34.8689L12.0876 27.5251C11.9142 27.294 11.6422 27.158 11.3533 27.158C11.0644 27.158 10.7923 27.294 10.6189 27.5251L5.11108 34.8689C4.90252 35.147 4.86883 35.5192 5.02443 35.8302C5.18002 36.1412 5.49773 36.3376 5.84546 36.3376H6.76343V37.2556C6.76343 41.8111 10.4696 45.5173 15.0251 45.5173H22.3689C22.8758 45.5173 23.2869 45.1064 23.2869 44.5994C23.2869 44.0924 22.8758 43.6814 22.3689 43.6814ZM15.0251 43.6814C11.4819 43.6814 8.59937 40.7988 8.59937 37.2556V35.4197C8.59937 34.9127 8.1883 34.5017 7.6814 34.5017L11.3533 29.6059L15.0251 34.5017C14.5182 34.5017 14.1072 34.9127 14.1072 35.4197V37.2556C14.1072 39.8481 15.3074 42.1656 17.1815 43.6814H15.0251Z" fill="white"/>
<path d="M25.918 4.83594C29.4612 4.83594 32.3438 7.71854 32.3438 11.2617V12.1797H31.4258C31.0781 12.1797 30.7603 12.3761 30.6048 12.6871C30.4492 12.9981 30.4828 13.3703 30.6914 13.6484L36.1992 20.9922C36.3726 21.2233 36.6447 21.3594 36.9336 21.3594C37.2225 21.3594 37.4946 21.2233 37.668 20.9922L43.1758 13.6484C43.3843 13.3703 43.418 12.9981 43.2624 12.6871C43.1068 12.3761 42.7891 12.1797 42.4414 12.1797H41.5234V11.2617C41.5234 6.70621 37.8172 3 33.2617 3L25.918 3C25.4111 3 25 3.41097 25 3.91797C25 4.42496 25.4111 4.83594 25.918 4.83594ZM33.2617 4.83594C36.805 4.83594 39.6875 7.71854 39.6875 11.2617V13.0977C39.6875 13.6047 40.0986 14.0156 40.6055 14.0156L36.9336 18.9114L33.2617 14.0156C33.7686 14.0156 34.1797 13.6046 34.1797 13.0977V11.2617C34.1797 8.66919 32.9794 6.35178 31.1053 4.83594H33.2617Z" fill="white"/>
</svg>
