<svg width="250" height="495" viewBox="0 0 250 495" fill="none" xmlns="http://www.w3.org/2000/svg">
<path d="M64.0569 0H10.6762C4.77988 0 0 4.97088 0 11.1028V483.897C0 490.029 4.77988 495 10.6762 495H239.324C245.22 495 250 490.029 250 483.897V11.1028C250 4.97089 245.22 0 239.324 0H190.391V0.925234H239.324C244.729 0.925234 249.11 5.48189 249.11 11.1028V483.897C249.11 489.518 244.729 494.075 239.324 494.075H10.6762C5.27124 494.075 0.88968 489.518 0.88968 483.897V11.1028C0.88968 5.48188 5.27123 0.925234 10.6762 0.925234H64.0569V0Z" fill="url(#paint0_linear_33_233)"/>
<defs>
<linearGradient id="paint0_linear_33_233" x1="114.324" y1="2.45679e-07" x2="258.184" y2="242.648" gradientUnits="userSpaceOnUse">
<stop stop-color="#F0F3FF"/>
<stop offset="1" stop-color="#3565FF" stop-opacity="0"/>
</linearGradient>
</defs>
</svg>
