<svg xmlns="http://www.w3.org/2000/svg" width="40" height="40" viewBox="0 0 40 40">
  <g id="Сгруппировать_3" data-name="Сгруппировать 3" transform="translate(-1180 -56)">
    <rect id="Rectangle" width="40" height="40" rx="8" transform="translate(1180 56)" fill="#fff" opacity="0.346"/>
    <path id="_" data-name="" d="M4.375,30V16.582H0V11.25H4.375V7.031A7.073,7.073,0,0,1,6.193,1.846,6.474,6.474,0,0,1,11.023,0,27.3,27.3,0,0,1,15,.234V4.98H12.273a2.59,2.59,0,0,0-2.1.7,3.075,3.075,0,0,0-.455,1.875V11.25h4.83l-.682,5.332H9.716V30Z" transform="translate(1197 66)" fill="#ff5648"/>
  </g>
</svg>
