<?xml version="1.0" encoding="UTF-8"?>
<svg width="549px" height="615px" viewBox="0 0 549 615" version="1.1" xmlns="http://www.w3.org/2000/svg" xmlns:xlink="http://www.w3.org/1999/xlink">
    <title>Group 7</title>
    <defs>
        <rect id="path-1" x="0.684638247" y="0.230255519" width="547" height="371"></rect>
    </defs>
    <g id="Page-1" stroke="none" stroke-width="1" fill="none" fill-rule="evenodd">
        <g id="m_Landing_BeautyDiary" transform="translate(1.000000, 1.000000)">
            <g id="block-0" transform="translate(-1.000000, -1.000000)">
                <g id="Group-7" transform="translate(0.315362, 0.769744)">
                    <g id="Path">
                        <mask id="mask-2" fill="white">
                            <use xlink:href="#path-1"></use>
                        </mask>
                        <g id="Mask"></g>
                        <path d="M464.498481,19.0306754 C541.11078,22.2739941 626.523216,58.5238926 615.230801,116.356054 C614.677128,119.191598 549.031149,204.20596 549.332056,203.806642 L423.853624,370.322146 L-13,41.1293281 C69.3115783,-68.884349 110.535907,-123.590881 110.672987,-122.990269 C122.752835,-70.0627029 179.790805,-148.48096 271.863482,-91.6590546 C311.789302,-67.0191586 336.299424,13.6034737 464.498481,19.0306754 Z" fill="#FEF5EE" fill-rule="nonzero" mask="url(#mask-2)" transform="translate(301.620925, 123.661073) scale(-1, 1) rotate(143.000000) translate(-301.620925, -123.661073) "></path>
                    </g>
                    <g id="Group" transform="translate(268.684638, 30.230256)" fill-rule="nonzero">
                        <ellipse id="Oval" fill="#FF643B" transform="translate(49.080262, 49.577629) rotate(-76.714204) translate(-49.080262, -49.577629) " cx="49.080262" cy="49.5776291" rx="40.5763571" ry="40.5091459"></ellipse>
                        <circle id="Oval" fill="#506B79" cx="49.5" cy="49.5" r="32.5"></circle>
                        <ellipse id="Oval" fill="#333333" transform="translate(29.622591, 33.229620) rotate(-54.663462) translate(-29.622591, -33.229620) " cx="29.6225907" cy="33.22962" rx="22.2416085" ry="10.6236786"></ellipse>
                        <ellipse id="Oval" fill="#333333" transform="translate(26.862029, 31.196242) rotate(-54.663462) translate(-26.862029, -31.196242) " cx="26.8620287" cy="31.1962418" rx="12.1020517" ry="5.80216288"></ellipse>
                    </g>
                    <g id="Group" transform="translate(401.684638, 294.230256)" fill-rule="nonzero">
                        <g transform="translate(0.000000, 21.000000)">
                            <path d="M43.1156044,26.7654049 C40.0857143,29.8258031 43.1424176,35.9732116 44.9389011,41.8012743 C45.0193407,42.0673958 45.0997802,42.3335174 45.1802198,42.5730268 C46.6817582,47.7091734 46.9230769,52.4727497 40.8096703,54.3888251 C38.4769231,55.1073534 36.6536264,55.0807412 35.1520879,54.5218859 C31.9345055,53.2711144 30.4865934,49.4655758 29.709011,45.5269764 C29.6553846,45.2608548 29.6017582,44.9947332 29.5749451,44.7286117 C28.8241758,40.3908299 28.7705495,36.0796602 27.9661538,34.9885618 C25.4725275,31.6354298 20.5657143,30.5443313 15.8465934,30.145149 C15.5784615,30.1185368 15.3103297,30.0919246 15.0421978,30.0919246 C11.5296703,29.8524152 8.20483516,29.9322517 6.08659341,29.7193544 C5.25538462,29.639518 4.58505495,29.5064572 4.20967033,29.2669477 C1.44791209,27.6702182 -0.160879121,23.7050067 0.214505495,21.0437909 C0.375384615,20.0059167 4.18285714,15.9342565 9.70637363,11.7029233 C9.92087912,11.5432504 10.1353846,11.3835774 10.3498901,11.2239045 C18.8228571,4.86359866 30.9424176,-1.54993146 40.0052747,1.723364 C51.5617582,5.95469715 52.4734066,17.371313 43.1156044,26.7654049 Z" id="Path" fill="#FE653B"></path>
                            <path d="M5.25538462,19.2075519 C6.43516484,20.4583234 6.27428571,28.5218073 4.18285714,29.2935599 C1.4210989,27.6968304 -0.187692308,23.7316188 0.187692308,21.070403 C0.911648352,20.2454261 4.0756044,17.9567805 5.25538462,19.2075519 Z" id="Path" fill="#F04936"></path>
                            <path d="M37.2703297,31.4491447 C39.6835165,39.9916475 28.9850549,45.3673035 35.1520879,54.5218859 C28.1806593,51.8340579 29.5481319,37.1175344 27.9661538,35.0151739 C23.4615385,28.974214 11.2079121,30.2515976 6.08659341,29.7193544 C7.7221978,26.2597739 34.5085714,21.6824826 37.2703297,31.4491447 Z" id="Path" fill="#F04936"></path>
                            <g transform="translate(35.929670, 8.828810)" fill="#F04936" id="Path">
                                <path d="M1.23340659,13.3060791 C1.09934066,13.4657521 0.858021978,13.5455885 0.643516484,13.4923642 C0.321758242,13.4125277 0.134065934,13.0931818 0.187692308,12.7738359 L2.17186813,4.31116963 C2.25230769,3.99182373 2.57406593,3.80553862 2.89582418,3.85876294 C3.21758242,3.93859941 3.40527473,4.25794531 3.35164835,4.57729121 L1.36747253,13.0399575 C1.34065934,13.1464062 1.31384615,13.2262426 1.23340659,13.3060791 Z"></path>
                                <path d="M4.53142857,11.4698402 C4.39736264,11.6295131 4.15604396,11.7093496 3.94153846,11.6561253 C3.61978022,11.5762888 3.43208791,11.2569429 3.48571429,10.937597 L5.46989011,2.47493071 C5.55032967,2.15558481 5.87208791,1.96929971 6.19384615,2.02252402 C6.5156044,2.1023605 6.7032967,2.4217064 6.64967033,2.7410523 L4.66549451,11.2037186 C4.63868132,11.3367794 4.61186813,11.4166159 4.53142857,11.4698402 Z"></path>
                                <path d="M7.82945055,9.66021343 C7.69538462,9.81988638 7.45406593,9.89972285 7.23956044,9.84649854 C6.9178022,9.76666206 6.73010989,9.44731616 6.78373626,9.12797026 L8.76791209,0.665303955 C8.84835165,0.345958057 9.17010989,0.159672949 9.49186813,0.212897266 C9.81362637,0.29273374 10.0013187,0.612079639 9.94769231,0.931425537 L7.96351648,9.39409185 C7.9367033,9.50054048 7.90989011,9.58037695 7.82945055,9.66021343 Z"></path>
                            </g>
                            <path d="M44.9389011,41.8012743 C45.0193407,42.0673958 45.0997802,42.3335174 45.1802198,42.5730268 C40.4342857,45.4737521 34.2672527,46.0326074 29.709011,45.5269764 C29.6553846,45.2608548 29.6017582,44.9947332 29.5749451,44.7286117 C34.0259341,45.3140791 40.2465934,44.781836 44.9389011,41.8012743 Z" id="Path" fill="#79C5EE"></path>
                            <path d="M10.3230769,11.2505166 C12.923956,14.337527 17.6162637,22.2945623 15.8465934,30.1717611 C15.5784615,30.145149 15.3103297,30.1185368 15.0421978,30.1185368 C16.7850549,22.5340717 12.1195604,14.6568729 9.67956044,11.7295355 C9.89406593,11.5698625 10.1085714,11.4101896 10.3230769,11.2505166 Z" id="Path" fill="#79C5EE"></path>
                            <path d="M31.9076923,32.7797526 C32.4171429,32.9926499 32.5512088,33.8442389 32.2026374,34.6692159 C31.8540659,35.4941928 31.1569231,35.9998238 30.6206593,35.7869265 C30.0843956,35.5740292 29.9771429,34.7224402 30.3257143,33.8974633 C30.6742857,33.0724864 31.3982418,32.5402432 31.9076923,32.7797526 Z" id="Path" fill="#79C5EE"></path>
                            <path d="M32.2026374,37.1441466 C32.7120879,37.3570438 32.8461538,38.2086329 32.4975824,39.0336098 C32.149011,39.8585867 31.4518681,40.3642177 30.9156044,40.1513204 C30.4061538,39.9384232 30.2720879,39.0868341 30.6206593,38.2618572 C30.9692308,37.4368803 31.6663736,36.9046371 32.2026374,37.1441466 Z" id="Path" fill="#79C5EE"></path>
                            <ellipse id="Oval" fill="#1A1A1A" transform="translate(22.053658, 10.118023) rotate(-28.515349) translate(-22.053658, -10.118023) " cx="22.0536585" cy="10.1180229" rx="13.9727442" ry="3.8923659"></ellipse>
                            <ellipse id="Oval" fill="#333333" transform="translate(20.282433, 9.663501) rotate(-28.515349) translate(-20.282433, -9.663501) " cx="20.282433" cy="9.66350058" rx="6.50455334" ry="1.81288263"></ellipse>
                        </g>
                        <path d="M74.5429346,25.9153125 C81.7956491,26.8303512 83.4451834,20.1113529 83.7855635,16.3204784 C84.1259436,12.5296038 80.9316073,11.3269816 80.9316073,11.3269816 C80.9316073,11.3269816 85.173267,12.5557478 85.9325764,7.8498346 C86.6918859,3.17006535 80.8792411,-1.74499955 76.4804829,0.607957051 C72.0817247,2.96091365 73.9930899,6.77793214 73.9930899,6.77793214 C73.9930899,6.77793214 71.6104292,3.40536101 66.9760232,4.68641516 C62.3416172,5.96746931 61.032463,11.6407091 62.6819973,15.6407353 C64.3053486,19.6930495 74.5429346,25.9153125 74.5429346,25.9153125 Z" id="Path" fill="#40312A"></path>
                        <path d="M62.3840616,19 C60.8697005,20.9153775 59.788014,22.3866094 60.0352567,22.6364413 C60.2824993,22.8862731 62.8167361,23.136105 62.9712628,22.9140322 C63.1566947,22.6919595 62.3840616,19 62.3840616,19 Z" id="Path" fill="#FD9B73"></path>
                        <path d="M77.9807339,32.8420757 C77.6434389,34.537045 70.2748398,37.4696109 71.0791587,35.128939 C71.5980741,33.6761082 71.156996,31.0663936 70.7418637,29.2907115 C70.482406,28.2145405 70.248894,27.4612209 70.248894,27.4612209 C70.248894,27.4612209 67.2132388,29.9095098 64.3851497,28.5104876 C61.5570606,27.1114653 61.4273318,19.3092257 63.0359696,16.0538085 C63.0359696,16.0538085 63.4251562,16.8878411 65.033794,17.0492667 C66.6424318,17.2106923 68.1472865,16 68.1472865,16 C68.1472865,16 68.43269,18.0178206 70.0153821,19.1747044 C71.6240199,20.3315882 76.8391199,18.7711403 77.3320896,21.2194292 C77.8250593,23.6677182 74.114814,24.2596122 74.114814,24.2596122 C74.114814,24.2596122 78.3180289,31.1202022 77.9807339,32.8420757 Z" id="Path" fill="#FEC6AB"></path>
                        <g transform="translate(60.000000, 106.000000)" id="Path">
                            <path d="M18.0406629,7.77149459 C17.6432914,8.44145102 17.06048,8.95061791 16.2922286,9.21860048 C13.6960686,10.1565395 2.17229714,7.93228414 0.37088,5.11846713 C0.158948571,4.79688804 0.0794742857,4.47530895 0.158948571,4.15372987 C0.450354286,2.67982572 3.02002286,1.6882902 5.90758857,1.07193029 C6.09302857,1.01833377 6.27846857,0.991535517 6.4904,0.96473726 C7.17917714,0.830745974 7.86795429,0.696754688 8.53024,0.589561659 C8.74217143,0.562763401 8.95410286,0.535965144 9.16603429,0.509166887 C11.6032457,0.160789543 13.72256,0.0535965144 14.4113371,0.0535965144 C16.1862629,0.107193029 16.7160914,0.0803947716 16.9015314,0.348377344 C18.8089143,2.92101004 19.1533029,5.92241484 18.0406629,7.77149459 Z" fill="#FE653B"></path>
                            <path d="M18.0406629,7.77149459 C17.6432914,8.44145102 17.06048,8.95061791 16.2922286,9.21860048 C13.6960686,10.1565395 2.17229714,7.93228414 0.37088,5.11846713 C0.37088,5.11846713 0.37088,5.11846713 0.37088,5.11846713 C11.0204343,5.84202007 15.9213486,6.80675733 18.0406629,7.77149459 Z" fill="#F04936"></path>
                            <g transform="translate(5.828114, 0.535965)" fill="#FFFFFF">
                                <path d="M5.61618286,2.27785186 C5.64267429,2.35824663 5.64267429,2.43864141 5.5632,2.49223792 C5.53670857,2.49223792 5.53670857,2.49223792 5.51021714,2.51903618 C5.45723429,2.51903618 5.37776,2.49223792 5.35126857,2.46543966 C4.42406857,0.911140745 3.49686857,0.294780829 2.70212571,0.0803947716 C2.91405714,0.0535965144 3.12598857,0.0267982572 3.33792,-2.37368123e-13 C4.05318857,0.294780829 4.84793143,0.96473726 5.61618286,2.27785186 Z"></path>
                                <path d="M3.02002286,2.78701875 C3.07300571,2.86741352 3.04651429,2.94780829 2.96704,3.00140481 C2.94054857,3.00140481 2.94054857,3.00140481 2.91405714,3.02820307 C2.86107429,3.02820307 2.7816,3.00140481 2.75510857,2.97460655 C1.82790857,1.39350938 0.874217143,0.777149459 0.0529828571,0.562763401 C0.238422857,0.509166887 0.423862857,0.48236863 0.635794286,0.455570373 C1.40404571,0.723552945 2.22528,1.42030763 3.02002286,2.78701875 Z"></path>
                            </g>
                        </g>
                        <path d="M83.9964098,84.1986093 C83.9964098,84.1986093 85.3499009,87.8537584 83.9443524,92.5570752 C82.5388039,97.2603921 79.1811046,106.935787 77.8536421,108.145211 C77.1508678,108.790237 75.9535487,109.085874 74.808287,108.97837 C74.6521149,108.951494 74.4699142,108.924618 74.3137421,108.897742 C73.4808245,108.736485 72.6999642,108.306468 72.231448,107.634565 C70.9820715,105.887619 75.3028318,78.7427618 73.0903943,61.0582905 L78.9468465,57 C78.9468465,57 88.7856862,57.2956371 88.9939156,67.1860404 C89.202145,77.0764438 83.9964098,84.1986093 83.9964098,84.1986093 Z" id="Path" fill="#5091B9"></path>
                        <path d="M74.5476386,108 C74.3747001,107.973219 74.1729385,107.946438 74,107.919657 C77.5740624,93.9132298 82.589279,67.6679164 79.3899167,58.1606856 L79.9087322,58 C83.2522099,67.9892876 78.1793472,94.0203535 74.5476386,108 Z" id="Path" fill="#FFFFFF"></path>
                        <path d="M84.8996197,57.9815558 C84.7679458,59.3253638 74.9450768,60.5110767 72.6802866,59.7732998 C70.4154964,59.0355229 64.9378643,48.6539477 64.9378643,48.6539477 C64.9378643,48.6539477 59.3812279,52.2637847 53.3769005,53.0015616 C47.372573,53.7393386 39.4984769,51.6841029 39.4984769,51.6841029 C39.4984769,51.6841029 30.6499943,53.7920369 29.0962429,50.49839 C28.0691869,48.3641067 35.600931,48.100615 35.600931,48.100615 C35.600931,48.100615 33.7574971,46.2561727 34.2841925,45.4393482 C34.8108879,44.648873 39.4984769,47.5999806 39.7354898,47.7317265 C39.7354898,47.7317265 39.7354898,47.7317265 39.7354898,47.7317265 C39.7354898,47.7317265 47.2145644,45.5447449 53.9562654,41.9876062 C60.6979664,38.4304675 67.8873585,31.1844442 77.2098669,31 C77.2098669,31.0263492 86.0320148,46.0190301 84.8996197,57.9815558 Z" id="Path" fill="#79C5EE"></path>
                        <path d="M39.7571473,52.2454071 C39.7571473,52.2454071 30.6906483,54.6396184 29.0986142,50.8986633 C28.0462527,48.4745244 35.7635704,48.175248 35.7635704,48.175248 C35.7635704,48.175248 33.8747164,46.0803131 34.414389,45.1525563 C34.9540615,44.2547271 39.7571473,47.6066228 40,47.756261 C40,47.756261 40,47.756261 40,47.756261 C39.6222292,50.9585186 39.7571473,52.2454071 39.7571473,52.2454071 Z" id="Path" fill="#FEC6AB"></path>
                        <path d="M70.5757576,29 C70.2727273,27.7951807 70,26.9518072 70,26.9518072 C70.969697,25.9277108 72,24 72,24 C72,24 71.7575758,27.3433735 70.5757576,29 Z" id="Path" fill="#FD9B73"></path>
                        <path d="M78.1123763,31 C95.1632752,64.2710822 93.6817184,79.8476323 92.0961928,81.3489866 C90.5106671,82.8235309 68.8851369,81.4830361 68.9371213,80.3838303 C69.7948647,59.1503919 66,48.962631 66,48.962631 L78.1123763,31 Z" id="Path" fill="#79C5EE"></path>
                        <path d="M71.9956585,19.9590806 C71.9956585,19.9590806 62.1996078,15.6345163 61.7149074,16.0249284 C61.2557175,16.4153404 60.8985698,18.6376859 61.0261225,19.328415 C61.1791858,20.0491757 72.250764,20.0491757 71.9956585,19.9590806 Z" id="Path" fill="#28495C"></path>
                    </g>
                    <g id="Group" transform="translate(416.684638, 501.230256)" fill="#0B416B" fill-rule="nonzero">
                        <path d="M75.5046802,73.3874896 C74.9927799,73.6707453 74.3102462,73.557443 73.8552236,73.1608851 L2.47356709,4.72631468 C1.90478895,4.15980333 1.90478895,3.25338518 2.41668928,2.68687384 C2.98546742,2.1203625 3.89551244,2.1203625 4.46429058,2.63022271 L75.8459471,71.0647931 C76.4147253,71.6313044 76.4147253,72.5377226 75.9028249,73.1042339 C75.7890693,73.2175362 75.6184359,73.3308385 75.5046802,73.3874896 Z" id="Path"></path>
                        <g transform="translate(0.569487, 0.049778)" id="Path">
                            <path d="M1.2449476,10.7958155 C0.962004966,10.9088606 0.622473801,10.9088606 0.396119692,10.6827703 C0.113177055,10.4001573 0.113177055,9.94797654 0.396119692,9.66536357 L9.05416438,0.678271128 C9.33710702,0.395658158 9.78981524,0.395658158 10.0727579,0.678271128 C10.3557005,0.960884098 10.3557005,1.41306485 10.0727579,1.69567782 L1.41471318,10.6827703 C1.35812466,10.6827703 1.30153613,10.7392929 1.2449476,10.7958155 Z"></path>
                            <path d="M4.18755103,13.5654226 C3.90460839,13.6784677 3.56507723,13.6784677 3.33872312,13.4523774 C3.05578048,13.1697644 3.05578048,12.7175837 3.33872312,12.4349707 L11.9967678,3.50440083 C12.2797104,3.22178786 12.7324187,3.22178786 13.0153613,3.50440083 C13.2983039,3.7870138 13.2983039,4.23919455 13.0153613,4.52180752 L4.35731661,13.4523774 C4.30072808,13.5089 4.24413955,13.5654226 4.18755103,13.5654226 Z"></path>
                            <path d="M7.13015445,16.3915523 C6.84721182,16.5045974 6.50768065,16.5045974 6.28132654,16.2785071 C5.9983839,15.9958941 5.9983839,15.5437134 6.28132654,15.2611004 L14.9393712,6.33053053 C15.2223139,6.04791756 15.6750221,6.04791756 15.9579647,6.33053053 C16.2409074,6.6131435 16.2409074,7.06532425 15.9579647,7.34793722 L7.29992003,16.2785071 C7.24333151,16.3350297 7.18674298,16.3915523 7.13015445,16.3915523 Z"></path>
                            <path d="M12.9587728,22.0438117 C12.6758301,22.1568568 12.336299,22.1568568 12.1099449,21.9307665 C11.8270022,21.6481535 11.8270022,21.1959728 12.1099449,20.9133598 L20.7679896,11.9827899 C21.0509322,11.700177 21.5036404,11.700177 21.786583,11.9827899 C22.0695257,12.2654029 22.0695257,12.7175837 21.786583,13.0001966 L13.1285384,21.9307665 C13.1285384,21.9872891 13.0153613,21.9872891 12.9587728,22.0438117 Z"></path>
                            <path d="M10.0161693,19.217682 C9.73322671,19.3307271 9.39369555,19.3307271 9.16734144,19.1046368 C8.8843988,18.8220238 8.8843988,18.3698431 9.16734144,18.0872301 L17.8253861,9.15666023 C18.1083288,8.87404726 18.561037,8.87404726 18.8439796,9.15666023 C19.1269223,9.4392732 19.1269223,9.89145395 18.8439796,10.1740669 L10.1859349,19.1046368 C10.1859349,19.1611594 10.1293464,19.217682 10.0161693,19.217682 Z"></path>
                            <path d="M15.9013762,24.8699414 C15.6184336,24.9829865 15.2789024,24.9829865 15.0525483,24.7568962 C14.7696057,24.4742832 14.7696057,24.0221025 15.0525483,23.7394895 L23.710593,14.8089196 C23.9935356,14.5263067 24.4462438,14.5263067 24.7291865,14.8089196 C25.0121291,15.0915326 25.0121291,15.5437134 24.7291865,15.8263263 L16.0711418,24.7568962 C16.0145533,24.8134188 15.9579647,24.8134188 15.9013762,24.8699414 Z"></path>
                            <path d="M18.8439796,27.6960711 C18.561037,27.8091162 18.2215058,27.8091162 17.9951517,27.5830259 C17.7122091,27.3004129 17.7122091,26.8482322 17.9951517,26.5656192 L26.6531964,17.5785267 C26.936139,17.2959138 27.3888473,17.2959138 27.6717899,17.5785267 C27.9547325,17.8611397 27.9547325,18.3133205 27.6717899,18.5959334 L19.0137452,27.5830259 C18.9571567,27.5830259 18.9005682,27.6395485 18.8439796,27.6960711 Z"></path>
                            <path d="M24.6725979,33.3483305 C24.3896553,33.4613757 24.0501241,33.4613757 23.82377,33.2352853 C23.5408274,32.9526723 23.5408274,32.5004916 23.82377,32.2178786 L32.4818147,23.2307861 C32.7647574,22.9481732 33.2174656,22.9481732 33.5004082,23.2307861 C33.7833509,23.5133991 33.7833509,23.9655799 33.5004082,24.2481928 L24.8989521,33.1787627 C24.8423635,33.2352853 24.785775,33.2918079 24.6725979,33.3483305 Z"></path>
                            <path d="M21.786583,30.5222008 C21.5036404,30.6352459 21.1641092,30.6352459 20.9377551,30.4091556 C20.6548125,30.1265426 20.6548125,29.6743619 20.9377551,29.3917489 L29.5957998,20.4046564 C29.8787425,20.1220435 30.3314507,20.1220435 30.6143933,20.4046564 C30.897336,20.6872694 30.897336,21.1394502 30.6143933,21.4220631 L21.9563486,30.4091556 C21.8997601,30.4091556 21.8431716,30.4656782 21.786583,30.5222008 Z"></path>
                        </g>
                    </g>
                    <g id="Group" transform="translate(93.111043, 416.952206) rotate(-330.000000) translate(-93.111043, -416.952206) translate(61.111043, 368.952206)" fill-rule="nonzero">
                        <path d="M22.2612562,29.6023665 C22.2612562,29.6023665 17.5925458,18.5268704 18.90153,16.9386861 C20.2105143,15.3505017 38.6235591,14.096672 41.4160588,16.9386861 C44.2085585,19.7807002 38.4490279,33.531033 38.4490279,33.531033 L22.2612562,29.6023665 Z" id="Path" fill="#FD7816"></path>
                        <path d="M0.992274953,92.0916684 C-1.94870108,64.8440326 5.14424111,25.9785398 31.9590226,25.9785398 C62.9257702,25.9785398 63.920512,86.3663216 62.7960212,90.6707794 C61.1957843,96.5632896 1.42477143,96.3543353 0.992274953,92.0916684 Z" id="Path" fill="#FFB03A"></path>
                        <path d="M28.1435583,17.2107842 L28.1435583,7.31831461 C28.1435583,7.31831461 23.2058606,6.04460608 23.627886,3.96421549 C24.092114,1.88382489 38.3987766,-0.493764364 45.6154116,0.440288557 C52.8320467,1.33188453 52.5366289,4.68598365 52.1990086,5.15301011 C51.8191857,5.62003658 49.9622737,3.62455988 41.7327776,3.87930159 C33.5454839,4.13404329 32.7436356,16.1493604 32.7436356,16.1493604 L28.1435583,17.2107842 Z" id="Path" fill="#FD7816"></path>
                        <path d="M11.8941601,51.3372687 C14.7421476,46.5395935 41.2666882,47.9531942 44.5397485,50.1378499 C47.8128088,52.3653419 47.9828379,70.699315 47.9828379,70.699315 C47.9828379,70.699315 10.7889709,72.926807 10.2363763,70.485133 C9.68378167,68.0434591 11.0015072,52.8793786 11.8941601,51.3372687 Z" id="Path" fill="#FE653B"></path>
                        <g transform="translate(5.563584, 34.737098)" fill="#333333" id="Path">
                            <path d="M12.7187974,12.6856348 L5.30651814,12.6856348 C7.53862498,6.86615216 10.6972667,2.05147229 15.2035956,0.209333907 C15.1193652,0.334934252 13.771678,2.55387367 12.7187974,12.6856348 Z"></path>
                            <path d="M15.2035956,44.8811898 L0.0842304467,44.1694545 C0.0842304467,44.1694545 0.210576117,29.2648803 3.95883099,16.6211123 L12.25553,17.7933821 C11.8343778,30.1022159 15.2035956,44.8811898 15.2035956,44.8811898 Z"></path>
                        </g>
                    </g>
                    <g id="Group" transform="translate(120.684638, 528.230256)" fill-rule="nonzero">
                        <path d="M39.8318527,40.3557079 C64.913897,35.3635148 95.2816206,28.2746007 95.8799994,26.6271769 C96.8274324,23.8814707 91.9406723,0.717694876 89.0983731,0.0187878458 C87.4029665,-0.3805876 57.1349727,5.65996602 32.5515774,11.2013003 C15.9964309,14.9454451 2.084124,18.4399803 1.08682602,19.6381066 C-0.359256058,21.3853742 4.42777426,43.201258 7.17034372,45.347901 C8.2673715,46.1965738 22.8279221,43.7503992 39.8318527,40.3557079 Z" id="Path" fill="#79C5EE"></path>
                        <path d="M46.7692308,11.7516208 C46.7692308,11.7516208 83.4249327,3.8403554 85.2577178,4.14659793 C87.0905029,4.45284046 90.9046773,22.9294733 90.1616563,23.7461201 C89.4186353,24.5117264 54.3975795,33.5458811 52.5647945,33.0865173 C50.7815441,32.6271535 46.7692308,11.7516208 46.7692308,11.7516208 Z" id="Path" fill="#5091B9"></path>
                        <g transform="translate(19.692308, 11.586207)" fill="#0B416B" id="Path">
                            <path d="M0.349210256,16.4855172 C0.548758974,16.8331034 0.897969231,16.982069 1.29706667,16.9324138 L61.6106667,4.81655172 C62.1095385,4.71724138 62.4088615,4.27034483 62.3090872,3.7737931 C62.2093128,3.27724138 61.7603282,2.97931034 61.2614564,3.07862069 L0.94785641,15.1944828 C0.448984615,15.2937931 0.149661538,15.7406897 0.249435897,16.2372414 C0.299323077,16.3365517 0.299323077,16.4358621 0.349210256,16.4855172 Z"></path>
                            <g transform="translate(38.413128, 0.000000)">
                                <path d="M21.6011487,8.34206897 C21.7009231,8.49103448 21.9004718,8.59034483 22.1000205,8.54068966 C22.3494564,8.49103448 22.4991179,8.24275862 22.4492308,7.99448276 L20.9027282,0.397241379 C20.852841,0.148965517 20.6034051,-6.9388939e-18 20.3539692,0.0496551724 C20.1045333,0.0993103448 19.9548718,0.347586207 20.004759,0.595862069 L21.5512615,8.19310345 C21.5512615,8.24275862 21.5512615,8.29241379 21.6011487,8.34206897 Z"></path>
                                <path d="M19.1067897,8.83862069 C19.2065641,8.98758621 19.4061128,9.08689655 19.6056615,9.03724138 C19.8550974,8.98758621 20.004759,8.73931034 19.9548718,8.49103448 L18.4083692,0.893793103 C18.3584821,0.645517241 18.1090462,0.496551724 17.8596103,0.546206897 C17.6101744,0.595862069 17.4605128,0.844137931 17.5104,1.09241379 L19.0569026,8.68965517 C19.0569026,8.73931034 19.0569026,8.78896552 19.1067897,8.83862069 Z"></path>
                                <path d="M16.6124308,9.33517241 C16.7122051,9.48413793 16.9117538,9.58344828 17.1113026,9.5337931 C17.3607385,9.48413793 17.5104,9.23586207 17.4605128,8.98758621 L15.9140103,1.39034483 C15.8641231,1.14206897 15.6146872,0.993103448 15.3652513,1.04275862 C15.1158154,1.09241379 14.9661538,1.34068966 15.016041,1.58896552 L16.5625436,9.1862069 C16.5625436,9.23586207 16.5625436,9.28551724 16.6124308,9.33517241 Z"></path>
                                <path d="M11.6237128,10.3282759 C11.7234872,10.4772414 11.9230359,10.5765517 12.1225846,10.5268966 C12.3720205,10.4772414 12.5216821,10.2289655 12.4717949,9.98068966 L10.9252923,2.38344828 C10.8754051,2.13517241 10.6259692,1.9862069 10.3765333,2.03586207 C10.1270974,2.08551724 9.9774359,2.3337931 10.0273231,2.58206897 L11.5738256,10.1793103 C11.5738256,10.2289655 11.5738256,10.2786207 11.6237128,10.3282759 Z"></path>
                                <path d="M14.1180718,9.83172414 C14.2178462,9.98068966 14.4173949,10.08 14.6169436,10.0303448 C14.8663795,9.98068966 15.016041,9.73241379 14.9661538,9.48413793 L13.4196513,1.88689655 C13.3697641,1.63862069 13.1203282,1.48965517 12.8708923,1.53931034 C12.6214564,1.58896552 12.4717949,1.83724138 12.5216821,2.08551724 L14.0681846,9.68275862 C14.0681846,9.73241379 14.0681846,9.78206897 14.1180718,9.83172414 Z"></path>
                                <path d="M9.12935385,10.8248276 C9.22912821,10.9737931 9.42867692,11.0731034 9.62822564,11.0234483 C9.87766154,10.9737931 10.0273231,10.7255172 9.9774359,10.4772414 L8.43093333,2.88 C8.38104615,2.63172414 8.13161026,2.48275862 7.88217436,2.53241379 C7.63273846,2.58206897 7.48307692,2.83034483 7.5329641,3.07862069 L9.07946667,10.6758621 C9.07946667,10.7255172 9.12935385,10.7751724 9.12935385,10.8248276 Z"></path>
                                <path d="M6.63499487,11.3213793 C6.73476923,11.4703448 6.93431795,11.5696552 7.13386667,11.52 C7.38330256,11.4703448 7.5329641,11.222069 7.48307692,10.9737931 L5.93657436,3.37655172 C5.88668718,3.12827586 5.63725128,2.97931034 5.38781538,3.02896552 C5.13837949,3.07862069 4.98871795,3.32689655 5.03860513,3.57517241 L6.58510769,11.1724138 C6.58510769,11.222069 6.63499487,11.2717241 6.63499487,11.3213793 Z"></path>
                                <path d="M1.64627692,12.3144828 C1.74605128,12.4634483 1.9456,12.5627586 2.14514872,12.5131034 C2.39458462,12.4634483 2.54424615,12.2151724 2.49435897,11.9668966 L0.94785641,4.36965517 C0.897969231,4.12137931 0.648533333,3.97241379 0.399097436,4.02206897 C0.149661538,4.07172414 -4.53720395e-13,4.32 0.0498871795,4.56827586 L1.59638974,12.1655172 C1.64627692,12.2151724 1.64627692,12.2648276 1.64627692,12.3144828 Z"></path>
                                <path d="M4.1406359,11.817931 C4.24041026,11.9668966 4.43995897,12.0662069 4.63950769,12.0165517 C4.88894359,11.9668966 5.03860513,11.7186207 4.98871795,11.4703448 L3.44221538,3.87310345 C3.39232821,3.62482759 3.14289231,3.47586207 2.89345641,3.52551724 C2.64402051,3.57517241 2.49435897,3.82344828 2.54424615,4.07172414 L4.09074872,11.6689655 C4.09074872,11.7186207 4.1406359,11.7682759 4.1406359,11.817931 Z"></path>
                            </g>
                        </g>
                        <path d="M39.3846154,40.2891235 L32.0346796,10.7586207 C15.3211271,14.5510654 1.2757019,18.0906805 0.268861385,19.3042628 C-1.19105736,21.0740703 3.64177711,43.1713815 6.41058853,45.3457165 C7.51811309,46.2053373 22.2179846,43.7276067 39.3846154,40.2891235 Z" id="Path" fill="#367394"></path>
                        <g transform="translate(6.564103, 6.620690)" fill="#333333" id="Path">
                            <path d="M28.3683389,7.41343013 L29.9166109,15.1274047 C43.7012263,12.7731397 56.8365663,10.368784 57.2361204,9.66751361 C58.0352285,8.16479129 55.038573,0.300544465 54.6889632,0.250453721 C54.4891862,0.250453721 41.7534002,3.70671506 28.3683389,7.41343013 Z"></path>
                            <path d="M1.14871795,18.784029 C1.14871795,18.784029 11.2374582,17.231216 23.0243032,15.277677 L21.9255295,8.5154265 C10.238573,11.7713249 0.149832776,14.5263158 0.149832776,14.5263158 C-0.399554069,17.6319419 1.14871795,18.784029 1.14871795,18.784029 Z"></path>
                        </g>
                    </g>
                    <g id="Group" transform="translate(58.684638, 150.230256)" fill-rule="nonzero">
                        <g transform="translate(69.690374, 124.854552)" id="Path">
                            <path d="M0.719027664,7.40288049 C0.995576765,8.12107039 1.43805533,8.72876953 2.15708299,9.17073254 C2.71018119,9.5022048 3.87168742,9.77843169 5.30974275,9.94416782 C9.67921855,10.4966216 16.8694952,10.1099039 18.5840996,8.34205189 C18.8606487,8.06582501 18.9712684,7.78959812 18.9712684,7.45812586 C18.9712684,5.96650069 16.6482559,4.5301209 13.9380747,3.31472261 C13.7721453,3.25947723 13.550906,3.14898648 13.3849765,3.0937411 C12.7212587,2.81751422 12.0575408,2.59653271 11.4491328,2.32030582 C11.2278935,2.26506045 11.0619641,2.15456969 10.8407248,2.09932432 C8.51771233,1.27064367 6.47124897,0.773435275 5.80753113,0.662944521 C4.0929267,0.331472261 3.5398285,0.220981507 3.31858922,0.441963014 C1.76991425,1.82309743 0.884957125,3.48045874 0.608408023,5.02732929 C0.387168742,5.85600994 0.442478562,6.68469059 0.719027664,7.40288049 Z" fill="#FE653B"></path>
                            <path d="M0.719027664,7.40288049 C0.995576765,8.12107039 1.43805533,8.72876953 2.15708299,9.17073254 C2.71018119,9.5022048 3.87168742,9.77843169 5.30974275,9.94416782 C9.67921855,10.4966216 16.8694952,10.1099039 18.5840996,8.34205189 C18.5840996,8.34205189 18.5840996,8.34205189 18.5840996,8.34205189 C12.1128506,7.51337124 7.74337484,7.1266536 4.75664455,7.1266536 C2.87611066,7.07140823 1.60398479,7.18189898 0.719027664,7.40288049 Z" fill="#F04936"></path>
                            <g transform="translate(7.743375, 1.657361)" fill="#FFFFFF">
                                <path d="M0.387168742,2.26506045 C0.331858922,2.32030582 0.331858922,2.43079658 0.387168742,2.48604195 C0.387168742,2.48604195 0.442478562,2.48604195 0.442478562,2.48604195 C0.497788383,2.48604195 0.553098203,2.48604195 0.608408023,2.43079658 C1.82522407,1.10490754 2.87611066,0.662944521 3.70575796,0.607699144 C3.48451868,0.552453768 3.31858922,0.441963014 3.09734994,0.386717637 C2.32301245,0.607699144 1.38274551,1.10490754 0.387168742,2.26506045 Z"></path>
                                <path d="M2.82080084,3.25947723 C2.76549101,3.31472261 2.76549101,3.42521336 2.82080084,3.48045874 C2.82080084,3.48045874 2.82080084,3.48045874 2.87611066,3.48045874 C2.93142048,3.48045874 2.9867303,3.48045874 3.04204012,3.42521336 C4.25885616,2.09932432 5.30974275,1.6573613 6.13939005,1.60211593 C5.97346059,1.54687055 5.80753113,1.4363798 5.58629185,1.38113442 C4.81195437,1.60211593 3.87168742,2.09932432 2.82080084,3.25947723 Z"></path>
                            </g>
                        </g>
                        <path d="M70.4094012,132.257432 C70.6859503,132.975622 71.1284289,133.583321 71.8474566,134.025284 C72.4005548,134.356756 73.562061,134.632983 75.0001163,134.798719 C75.1660458,133.970039 75.0554261,132.920377 74.5023279,131.981205 C73.8386101,130.765807 72.5111744,129.77139 70.4647111,129.495163 C70.4647111,129.495163 70.4094012,129.660899 70.2987816,129.881881 C70.0775423,130.710561 70.1328521,131.539242 70.4094012,132.257432 Z" id="Path" fill="#CCCCCC"></path>
                        <g transform="translate(54.203624, 124.854552)" id="Path">
                            <path d="M0.387168742,7.40288049 C0.663717844,8.12107039 1.10619641,8.72876953 1.82522407,9.17073254 C4.20354634,10.6071123 15.9292282,10.7176031 18.2522407,8.34205189 C18.5287898,8.06582501 18.6394094,7.78959812 18.6394094,7.45812586 C18.6394094,5.96650069 16.316397,4.5301209 13.6062158,3.31472261 C13.4402863,3.25947723 13.2743569,3.14898648 13.0531176,3.0937411 C12.3893997,2.81751422 11.7809917,2.59653271 11.1172739,2.32030582 C10.8960346,2.26506045 10.7301051,2.15456969 10.5088659,2.09932432 C8.1858534,1.27064367 6.13939005,0.773435275 5.47567221,0.607699144 C3.70575796,0.276226884 3.20796958,0.16573613 2.9867303,0.386717637 C0.553098203,2.54128733 -0.331858922,5.41404692 0.387168742,7.40288049 Z" fill="#FE653B"></path>
                            <path d="M0.387168742,7.40288049 C0.663717844,8.12107039 1.10619641,8.72876953 1.82522407,9.17073254 C4.20354634,10.6071123 15.9292282,10.7176031 18.2522407,8.34205189 C18.2522407,8.34205189 18.2522407,8.34205189 18.2522407,8.34205189 C7.6327552,6.9056721 2.65487137,6.9056721 0.387168742,7.40288049 Z" fill="#F04936"></path>
                            <g transform="translate(7.743375, 1.657361)" fill="#FFFFFF">
                                <path d="M0.0553098203,2.26506045 C-3.81639165e-17,2.32030582 -3.81639165e-17,2.43079658 0.0553098203,2.48604195 C0.0553098203,2.48604195 0.110619641,2.48604195 0.110619641,2.48604195 C0.165929461,2.48604195 0.221239281,2.48604195 0.276549101,2.43079658 C1.49336515,1.10490754 2.54425173,0.662944521 3.37389904,0.607699144 C3.15265976,0.552453768 2.9867303,0.441963014 2.76549101,0.386717637 C1.99115353,0.607699144 1.10619641,1.10490754 0.0553098203,2.26506045 Z"></path>
                                <path d="M2.54425173,3.25947723 C2.48894191,3.31472261 2.48894191,3.42521336 2.54425173,3.48045874 C2.54425173,3.48045874 2.54425173,3.48045874 2.59956155,3.48045874 C2.65487137,3.48045874 2.71018119,3.48045874 2.76549101,3.42521336 C3.98230706,2.09932432 5.03319365,1.6573613 5.86284095,1.60211593 C5.69691149,1.54687055 5.53098203,1.4363798 5.30974275,1.38113442 C4.53540526,1.60211593 3.59513832,2.09932432 2.54425173,3.25947723 Z"></path>
                            </g>
                        </g>
                        <path d="M68.8607263,20.4407894 C73.0089628,16.2973861 63.8828424,8.83926028 58.3518604,9.77843169 C52.8761882,10.7176031 54.9226516,16.573613 53.8164551,16.9050853 C52.7102587,17.2365576 50.3872463,15.1372332 47.8429946,20.4407894 C45.243433,25.7443456 48.1748535,32.0975639 47.8429946,36.075231 C47.5111356,40.0528982 37.9978465,43.2018846 39.5465215,49.7760845 C41.0951965,56.2950389 47.9536142,54.5824323 51.2722034,54.0852239 C54.5354828,53.6432608 62.2788577,36.5724394 63.2191246,33.2577168 C64.1040817,29.9429942 68.8607263,20.4407894 68.8607263,20.4407894 Z" id="Path" fill="#40312A"></path>
                        <path d="M56.3607069,70.3273646 C56.4713265,70.5483461 56.5819462,70.7693276 56.6925658,70.9903092 C57.1903542,71.9847259 57.6328327,72.8134066 58.0200015,73.2553696 C60.6748729,76.680583 69.247895,98.392016 69.5797539,98.9997152 C69.9116129,99.6074143 67.69922,103.806063 68.1970084,108.059957 C68.639487,112.258606 71.6262173,125.848968 72.7324137,126.78814 C73.8386101,127.782556 76.4934815,127.672066 77.1571993,125.959459 C77.8209172,124.246852 79.3142823,111.153698 78.2080859,99.6074143 C77.1571993,88.2821121 71.9580762,70.5483461 71.7921467,69.9958924 C71.7921467,69.9958924 71.7921467,69.9958924 71.7921467,69.9958924 L77.1571993,57.1237196 C77.1571993,57.1237196 81.3054358,60.990896 85.1771233,60.2174607 C89.1041205,59.4440254 90.7081053,45.4669451 90.486866,44.4172829 C90.2656267,43.3123754 88.4404027,42.7046762 88.4404027,42.7046762 L82.798801,50.9914828 C82.798801,50.9914828 78.2633957,44.4725283 75.6085243,43.3676208 C72.953653,42.2627132 68.639487,42.5941855 66.9248826,41.3787872 C65.9293058,40.6605973 65.0996585,38.7270091 64.5465603,37.1248932 C64.1593915,35.9647403 63.8828424,35.0255689 63.8275326,34.9150781 C63.8275326,34.9150781 63.8828424,34.9703235 63.9381523,34.9703235 C64.4359406,35.3570411 66.7589531,36.6829302 69.3032048,35.633268 C73.1748923,34.0863975 72.1240057,23.0373221 68.9160361,20.4407894 C68.9160361,20.4407894 67.2567415,19.3911272 65.4315174,20.4407894 C63.5509835,21.4904516 63.6616032,22.1533961 62.776646,24.639438 C61.8916889,27.12548 59.9558452,26.9597439 57.3009738,26.5730262 C54.6461025,26.1863086 53.0974275,27.9541606 54.3142435,30.3849572 C55.5863694,32.8157538 58.4624801,32.5395269 58.4624801,32.5395269 C58.4624801,32.5395269 59.2921274,40.4948612 56.637256,42.8704124 C56.637256,42.8704124 56.637256,42.8704124 56.637256,42.8704124 C49.3363597,49.2236307 53.3186668,63.6979194 56.3607069,70.3273646 Z" id="Path" fill="#FEC6AB"></path>
                        <path d="M56.3607069,70.3273646 C56.4713265,70.5483461 56.5819462,70.7693276 56.6925658,70.9903092 C57.1903542,71.9847259 57.6328327,72.8134066 58.0200015,73.2553696 C60.6748729,76.680583 69.247895,98.392016 69.5797539,98.9997152 C69.9116129,99.6074143 67.8098397,102.424929 68.1970084,108.059957 C68.4735575,112.258606 71.6262173,125.848968 72.7324137,126.78814 C73.8386101,127.782556 76.4934815,127.672066 77.1571993,125.959459 C77.8209172,124.246852 79.3142823,111.153698 78.2080859,99.6074143 C77.1571993,88.2821121 71.9580762,70.5483461 71.7921467,69.9958924 C71.7921467,69.9958924 71.7921467,69.9958924 71.7921467,69.9958924 C71.7368369,69.9958924 60.5642532,67.5650958 56.3607069,70.3273646 Z" id="Path" fill="#367394"></path>
                        <path d="M54.6461025,104.80048 C53.6505257,109.606828 55.8629185,126.622404 56.3607069,127.451084 C56.637256,127.837802 57.1903542,128.279765 58.0200015,128.445501 C58.2412408,128.500746 58.4624801,128.500746 58.6837193,128.500746 C59.402747,128.500746 60.2877041,128.169274 61.2279711,127.50633 C63.6616032,125.683232 67.8651495,91.1548717 71.6815271,70.1063831 C71.6815271,70.1063831 64.2700112,62.2615396 55.5863694,71.1007999 C47.7876847,79.0561342 56.3053971,99.3864328 56.3053971,99.3864328 C56.3053971,99.3864328 55.5863694,100.38085 54.6461025,104.80048 Z" id="Path" fill="#5091B9"></path>
                        <path d="M58.0200015,128.390256 C58.2412408,128.445501 58.4624801,128.445501 58.6837193,128.445501 C58.4071702,115.9048 58.0753113,82.0946299 62.5554068,69.1119663 L61.9469987,68.8909848 C57.4115935,81.9841391 57.7434524,115.79431 58.0200015,128.390256 Z" id="Path" fill="#FFFFFF"></path>
                        <path d="M85.1218134,60.2174607 C81.1948162,60.990896 77.1018895,57.1237196 77.1018895,57.1237196 L71.7368369,69.9958924 C66.2611647,72.7029158 58.9602684,71.0455545 56.6925658,70.9903092 C56.028848,70.9903092 55.6416792,70.9350638 55.6416792,70.9350638 C55.6416792,70.9350638 51.9912311,63.0902203 51.0509641,56.4055297 C50.7191052,54.1957146 50.7191052,52.0963903 51.2168936,50.4942744 C51.8253016,48.6159316 52.4890195,47.1795518 53.2080471,46.1298896 C53.9270748,44.9697367 54.7014123,44.141056 55.3098203,43.6438477 C56.028848,43.0361485 56.5266363,42.8704124 56.5819462,42.815167 C56.5819462,42.815167 56.5819462,42.815167 56.5819462,42.815167 C63.0531951,45.1354728 66.9248826,41.2682964 66.9248826,41.2682964 C67.4226709,41.6550141 68.1970084,41.8759956 69.0819656,42.0417317 C69.9116129,42.2074679 70.8518798,42.3179586 71.8474566,42.4284494 C73.1748923,42.5941855 74.5576378,42.815167 75.6085243,43.25713 C78.2633957,44.3620375 82.798801,50.880992 82.798801,50.880992 L88.4404027,42.6494309 C88.4404027,42.6494309 90.2103169,43.25713 90.486866,44.3620375 C90.6527955,45.5221905 88.9935009,59.4440254 85.1218134,60.2174607 Z" id="Path" fill="#FFB03A"></path>
                        <path d="M58.6837193,51.9858995 C58.5177899,52.206881 58.3518604,52.4278626 58.1306211,52.6488441 C57.1350444,53.5880155 56.1394676,54.6376776 55.3098203,55.6320944 C54.7014123,56.2950389 54.2036239,57.0132288 53.7611453,57.5656826 C52.8761882,57.178965 51.9912311,56.7922473 51.106274,56.4055297 C49.1151204,55.576849 47.1239669,54.8034138 45.0775035,54.0852239 C46.5708687,50.1628021 49.1151204,46.3508711 52.8208784,44.2515468 C53.539906,43.8095838 54.3142435,43.4781115 55.1438908,43.2018846 C55.5863694,43.0361485 56.0841578,42.9256578 56.5819462,42.815167 C56.5819462,42.815167 60.6748729,48.8369131 58.6837193,51.9858995 Z" id="Path" fill="#FFB03A"></path>
                        <path d="M73.2302021,62.316785 C71.2390485,67.454605 57.5775229,65.8524891 57.5775229,65.8524891 L55.3098203,55.6320944 L53.2080471,46.1298896 L52.8208784,44.2515468 C53.539906,43.8095838 54.3142435,43.4781115 55.1438908,43.2018846 L55.3098203,43.6438477 L58.6837193,51.9858995 L59.4580568,53.8642424 L70.5200209,51.1019735 L69.0819656,42.0417317 C69.9116129,42.2074679 70.8518798,42.3179586 71.8474566,42.4284494 C72.7324137,46.7928341 74.8894967,58.1733817 73.2302021,62.316785 Z" id="Path" fill="#28495C"></path>
                        <path d="M74.3363985,63.6979194 C74.3363985,63.6979194 79.3142823,94.7458212 78.9824234,96.0164648 C78.7058743,97.2871085 62.3894773,98.833979 61.1173514,97.6738261 C59.8452256,96.5136732 59.1815077,72.9238973 59.1815077,72.9238973 L74.3363985,63.6979194 Z" id="Path" fill="#28495C"></path>
                        <g id="Path">
                            <g transform="translate(102.323168, 0.000000)" fill="#79C5EE">
                                <path d="M34.2920886,16.13165 C34.2920886,16.13165 31.1394288,0.883926028 30.2544717,0.552453768 C29.3695146,0.220981507 26.6593334,1.76785206 26.6593334,1.76785206 L27.8761494,5.19306542 L25.4425173,2.54128733 C25.4425173,2.54128733 24.944729,3.20423185 25.0000388,3.75668562 C25.0553486,4.30913939 33.2965118,16.9603307 33.84961,16.8498399 C34.4027082,16.7945945 34.2920886,16.13165 34.2920886,16.13165 Z"></path>
                                <path d="M26.1062352,21.0484886 C26.1062352,21.0484886 22.9535754,5.80076456 22.0686183,5.4692923 C21.1836612,5.13782004 18.47348,6.68469059 18.47348,6.68469059 L19.690296,10.1099039 L17.2566639,7.45812586 C17.2566639,7.45812586 16.7588755,8.12107039 16.8141854,8.67352415 C16.8694952,9.22597792 25.1106584,21.8771692 25.6637566,21.7666784 C26.2168548,21.7114331 26.1062352,21.0484886 26.1062352,21.0484886 Z"></path>
                                <path d="M17.865072,25.9100817 C17.865072,25.9100817 14.7124122,10.6623577 13.8274551,10.3308855 C12.9424979,9.9994132 10.2323168,11.5462837 10.2323168,11.5462837 L11.4491328,14.9714971 L9.01550071,12.319719 C9.01550071,12.319719 8.51771233,12.9826635 8.57302215,13.5351173 C8.62833197,14.0875711 16.8694952,26.7387624 17.4225934,26.6282716 C17.9756916,26.5177809 17.865072,25.9100817 17.865072,25.9100817 Z"></path>
                                <path d="M9.67921855,30.8269202 C9.67921855,30.8269202 6.5265588,15.5791962 5.64160167,15.247724 C4.75664455,14.9162517 2.04646335,16.4631223 2.04646335,16.4631223 L3.2632794,19.8883356 L0.829647304,17.2365576 C0.829647304,17.2365576 0.331858922,17.8995021 0.387168742,18.4519558 C0.442478562,19.0044096 8.68364179,31.6556009 9.23673999,31.5451101 C9.78983819,31.4898648 9.67921855,30.8269202 9.67921855,30.8269202 Z"></path>
                            </g>
                            <path d="M151.051119,33.2577168 C151.051119,33.2577168 144.469251,22.5953591 141.70376,21.5456969 C138.938269,20.4960348 117.865227,30.495448 116.427172,35.8542495 C114.989116,41.2130511 122.179393,49.7760845 121.294436,51.0467281 C120.464789,52.3173718 108.351938,41.3787872 108.351938,41.3787872 C108.351938,41.3787872 107.68822,41.8207502 106.416094,42.6494309 C103.374054,44.6382644 96.958115,48.8921584 88.7169518,54.3062054 C58.0200015,74.3602771 1.99115353,110.490754 0.497788383,107.617994 C-0.774337484,105.242443 44.1372366,72.9238973 83.2965894,46.9585703 C89.7678383,42.6494309 96.1284677,38.5060276 102.046618,34.6940966 C120.741338,22.7058499 135.50906,14.1426892 138.882959,14.1426892 C149.668374,14.0875711 152.544484,32.0423185 151.051119,33.2577168 Z" fill="#FE653B"></path>
                            <path d="M106.416094,42.6494309 C103.374054,44.6382644 96.958115,48.8921584 88.7169518,54.3062054 L83.2412795,46.9033249 C89.7125285,42.5941855 96.0731579,38.4507822 101.991309,34.6388512 L106.416094,42.6494309 Z" fill="#F04936"></path>
                            <g transform="translate(113.938230, 18.783428)" fill="#FE653B">
                                <path d="M34.789877,16.0211593 C34.5686377,16.0211593 34.4027082,15.9106685 34.2367788,15.7449324 L23.5619834,1.16015291 C23.3407442,0.828680652 23.396054,0.441963014 23.7279129,0.16573613 C24.0597718,-0.0552453768 24.4469406,6.27761731e-14 24.7234897,0.331472261 L35.398285,14.9162517 C35.6195243,15.247724 35.5642145,15.6344416 35.2323555,15.9106685 C35.0664261,15.9659139 34.9558064,16.0211593 34.789877,16.0211593 Z"></path>
                                <path d="M31.8584565,17.8442567 C31.6372172,17.8442567 31.4712877,17.7337659 31.3053583,17.5680298 L20.630563,2.98325035 C20.4093237,2.65177809 20.4646335,2.26506045 20.7964924,1.98883356 C21.1283514,1.76785206 21.5155201,1.82309743 21.7920692,2.15456969 L32.4668645,16.7393492 C32.6881038,17.0708214 32.632794,17.4575391 32.3009351,17.7337659 C32.1903154,17.7890113 32.024386,17.8442567 31.8584565,17.8442567 Z"></path>
                                <path d="M28.9823458,19.6673541 C28.7611066,19.6673541 28.5951771,19.5568634 28.4292476,19.3911272 L17.7544523,4.80634778 C17.533213,4.47487552 17.5885229,4.08815788 17.9203818,3.811931 C18.2522407,3.59094949 18.6394094,3.64619487 18.9159585,3.97766713 L29.5907539,18.5624466 C29.8119931,18.8939189 29.7566833,19.2806365 29.4248244,19.5568634 C29.2588949,19.6673541 29.1482753,19.6673541 28.9823458,19.6673541 Z"></path>
                                <path d="M26.0509254,21.5456969 C25.8296861,21.5456969 25.6637566,21.4352062 25.4978272,21.2694701 L14.8230318,6.68469059 C14.6017926,6.35321833 14.6571024,5.96650069 14.9889613,5.69027381 C15.3208202,5.4692923 15.707989,5.52453768 15.9845381,5.85600994 L26.6593334,20.4407894 C26.8805727,20.7722617 26.8252628,21.1589793 26.4934039,21.4352062 C26.3827843,21.4904516 26.2168548,21.5456969 26.0509254,21.5456969 Z"></path>
                                <path d="M23.1748147,23.3687944 C22.9535754,23.3687944 22.787646,23.2583036 22.6217165,23.0925675 L11.9469212,8.50778802 C11.7256819,8.17631576 11.7809917,7.78959812 12.1128506,7.51337124 C12.4447096,7.29238973 12.8318783,7.34763511 13.1084274,7.67910737 L23.7832227,22.2638868 C24.004462,22.5953591 23.9491522,22.9820767 23.6172933,23.2583036 C23.4513638,23.313549 23.2854343,23.3687944 23.1748147,23.3687944 Z"></path>
                                <path d="M20.2433942,25.1918918 C20.0221549,25.1918918 19.8562255,25.0814011 19.690296,24.9156649 L9.01550071,10.3308855 C8.79426143,9.9994132 8.84957125,9.61269556 9.18143017,9.33646867 C9.51328909,9.11548717 9.90045783,9.17073254 10.1770069,9.5022048 L20.8518023,24.0869843 C21.0730415,24.4184565 21.0177317,24.8051742 20.6858728,25.0814011 C20.5752532,25.1918918 20.4093237,25.2471372 20.2433942,25.1918918 Z"></path>
                                <path d="M17.3672836,27.0702346 C17.1460443,27.0702346 16.9801148,26.9597439 16.8141854,26.7940077 L6.13939005,12.2092283 C5.91815077,11.877756 5.97346059,11.4910384 6.30531951,11.2148115 C6.63717844,10.99383 7.02434718,11.0490754 7.30089628,11.3805476 L17.9756916,25.9653271 C18.1969309,26.2967993 18.1416211,26.683517 17.8097621,26.9597439 C17.6438327,27.0149892 17.4779032,27.0702346 17.3672836,27.0702346 Z"></path>
                                <path d="M11.5044426,30.7716749 C11.2832033,30.7716749 11.1172739,30.6611841 10.9513444,30.495448 L0.276549101,15.9106685 C0.0553098203,15.5791962 0.110619641,15.1924786 0.442478562,14.9162517 C0.774337484,14.6952702 1.16150623,14.7505156 1.43805533,15.0819879 L12.1128506,29.6667673 C12.3340899,29.9982396 12.2787801,30.3849572 11.9469212,30.6611841 C11.8363015,30.7164295 11.6703721,30.7716749 11.5044426,30.7716749 Z"></path>
                                <path d="M14.4358631,28.8933321 C14.2146238,28.8933321 14.0486944,28.7828413 13.8827649,28.6171052 L3.20796958,14.0323257 C2.9867303,13.7008534 3.04204012,13.3141358 3.37389904,13.0379089 C3.70575796,12.8169274 4.0929267,12.8721728 4.3694758,13.203645 L15.0442711,27.7884245 C15.2655104,28.1198968 15.2102006,28.5066144 14.8783417,28.7828413 C14.7124122,28.8933321 14.6017926,28.8933321 14.4358631,28.8933321 Z"></path>
                            </g>
                        </g>
                        <path d="M67.3673611,60.5489329 C68.1970084,58.7810809 70.9624994,55.5216037 71.4602878,55.6873398 C71.9027664,55.8530759 71.4602878,58.5600994 71.4602878,58.5600994 C71.4602878,58.5600994 78.3740154,59.5545162 78.9824234,61.1566321 C79.5908314,62.758748 72.5111744,64.5818454 67.3673611,64.3056186 C62.2235478,64.0293917 67.3673611,60.5489329 67.3673611,60.5489329 Z" id="Path" fill="#FEC6AB"></path>
                        <path d="M67.1461218,60.2727061 C66.0952353,59.1677985 52.0465409,59.830743 52.0465409,59.830743 C52.0465409,59.830743 52.7102587,58.8363263 53.7058355,57.5104372 C50.8297249,56.2950389 47.8983044,55.0796406 45.0221937,54.0852239 C43.1416598,59.1125531 42.9757304,64.3056186 44.3031661,66.4049429 C47.0133473,70.6035915 66.4270942,65.7972437 67.1461218,65.1342992 C67.8651495,64.4161093 68.1970084,61.432859 67.1461218,60.2727061 Z" id="Path" fill="#FFB03A"></path>
                        <path d="M60.5642532,32.5395269 C60.6748729,32.7605084 62.0576184,36.4619487 64.4912505,37.0696478 C64.1040817,35.9094949 63.8275326,34.9703235 63.7722228,34.8598327 C61.3939005,33.7549252 60.6748729,32.6500177 60.5642532,32.5395269 Z" id="Path" fill="#FD9B73"></path>
                        <path d="M68.4735575,24.3079658 C69.7456834,25.5786094 70.8518798,29.0038228 70.4647111,29.3352951 C70.0775423,29.6667673 68.6947968,29.5010312 68.4182477,29.2800497 C68.1416986,29.0038228 68.4735575,24.3079658 68.4735575,24.3079658 Z" id="Path" fill="#FD9B73"></path>
                        <path d="M96.5156364,39.3899536 C98.5067899,43.5886023 92.8651883,43.0361485 92.8651883,43.0361485 C92.8651883,43.0361485 92.5333294,45.4116997 90.1550071,44.141056 C87.7766848,42.9256578 87.7766848,40.0528982 89.6572187,39.0584814 C91.5377526,38.1745553 95.4647498,37.2353839 96.5156364,39.3899536 Z" id="Path" fill="#FEC6AB"></path>
                    </g>
                    <g id="Group" transform="translate(429.293972, 154.657610) rotate(-30.000000) translate(-429.293972, -154.657610) translate(406.793972, 112.157610)" fill-rule="nonzero">
                        <path d="M33.532393,63.4773306 C34.6690843,63.1160775 35.8057756,63.0128623 36.8907991,63.2192926 C37.0458025,63.1160775 37.0974703,62.9612547 37.1491381,62.8580395 C37.2008058,62.7548244 36.8391313,61.9807106 36.1674501,60.7421285 C30.4323259,50.1109658 1.39503022,3.25127791 0.258338929,3.61253101 C-0.620013431,3.92217652 23.5605104,55.6845851 28.4172822,64.3546595 C28.8306245,65.0771657 29.0889635,65.4900264 29.192299,65.541634 C29.450638,65.7480643 29.8123125,65.8512795 30.2256547,65.8512795 C31.1040071,64.8191278 32.1890306,63.9417988 33.532393,63.4773306 Z" id="Path" fill="#2D4C5E"></path>
                        <path d="M38.6991716,78.3403153 C43.4009401,76.7404801 45.9326617,71.5797215 44.2792925,66.8834312 C43.0392656,63.3225078 39.7841951,61.0001665 36.2191179,60.7937361 C35.0824266,60.7421285 33.9457353,60.8969513 32.809044,61.2582044 C31.0523393,61.8774954 29.5539735,63.0128623 28.5206178,64.4062671 C26.8155809,66.7286085 26.1955674,69.8250636 27.2289232,72.766696 C28.8306245,77.4629863 33.9974031,79.9401504 38.6991716,78.3403153 Z M37.9241548,76.1211891 C34.4624132,77.3081636 30.638997,75.4502905 29.450638,71.9925822 C28.727289,69.8766712 29.1406312,67.6059374 30.3289903,65.9544947 C31.1040071,64.8707354 32.2406984,63.9934064 33.5840608,63.5289382 C34.7207521,63.1676851 35.8574434,63.0644699 36.9424669,63.2709002 C39.2675173,63.6837609 41.2825609,65.2835961 42.1092455,67.657545 C43.2459368,71.1152533 41.3858965,74.882607 37.9241548,76.1211891 Z" id="Shape" fill="#FE653B"></path>
                        <path d="M12.6069398,68.5864816 C13.743631,68.8445195 14.7769868,69.4122029 15.5520036,70.1863167 C15.7070069,70.1347091 15.8620103,70.0831016 15.9653458,70.031494 C16.0686814,69.9798864 16.172017,69.154165 16.2753526,67.7607602 C17.2053727,55.7361927 18.1870606,0.61929103 17.0503693,0.3090819 C16.1203492,0.103215172 8.4218491,56.6651292 7.85350345,66.6253933 C7.80183567,67.4511147 7.80183567,67.915583 7.85350345,68.0704057 C7.95683903,68.3800512 8.21517796,68.6380892 8.57685246,68.8961271 C9.81687932,68.3800512 11.2119095,68.2768361 12.6069398,68.5864816 Z" id="Path" fill="#506B79"></path>
                        <path d="M8.88685917,83.862327 C13.743631,85.0493014 18.6004029,82.0560615 19.788762,77.256556 C20.6671144,73.5924174 19.1687486,69.8766712 16.2753526,67.8123678 C15.3453324,67.1414692 14.3119767,66.6770009 13.1236176,66.3673554 C11.3152451,65.9028871 9.45520482,66.0577099 7.80183567,66.6770009 C5.1151108,67.7091526 2.9450638,69.9798864 2.17004701,72.9731264 C1.34336243,76.4308346 2.58338929,79.8885429 5.16677859,82.0560615 C5.63178866,82.4689222 6.14846652,82.8301753 6.71681216,83.0882132 C7.44016117,83.3978587 8.16351017,83.6558966 8.88685917,83.862327 Z M9.45520482,81.5399856 C8.68018803,81.3335553 7.95683903,81.0239098 7.3368256,80.6110491 C6.97515109,80.4046187 6.66514438,80.0949732 6.35513766,79.8369353 C4.70176852,78.2371001 3.92675173,75.8631512 4.54676516,73.4892022 C5.06344302,71.3216836 6.61347659,69.6186333 8.57685246,68.8961271 C9.81687932,68.3800512 11.2119095,68.2768361 12.6069398,68.6380892 C13.743631,68.8961271 14.7769868,69.4638105 15.5520036,70.2379243 C17.2570405,71.8377595 18.0837251,74.263316 17.5153794,76.6888725 C16.6370271,80.249796 13.020282,82.4173146 9.45520482,81.5399856 Z" id="Shape" fill="#FE653B"></path>
                        <path d="M14.6219834,31.893488 C15.3970002,32.0999184 16.2236848,31.5838425 16.4303559,30.8097287 C16.6370271,30.035615 16.1203492,29.2098936 15.3453324,29.0034632 C14.5703156,28.7970329 13.743631,29.3131088 13.5369599,30.0872225 C13.3302888,30.9129439 13.8469666,31.6870577 14.6219834,31.893488 Z" id="Path" fill="#2D4C5E"></path>
                    </g>
                    <g id="Group-2" transform="translate(315.736812, 194.851256) scale(-1, 1) rotate(-180.000000) translate(-315.736812, -194.851256) translate(283.236812, 166.351256)" fill-rule="nonzero">
                        <path d="M32.4248281,28.1312917 C8.59423213,17.1302596 -3.25803069,21.6414956 1.47442509,7.53002926 C9.95239283,-7.75381201 45.3593485,2.01914029 55.4858133,23.9578114 C60.6639739,35.1761353 64.194961,43.3597155 64.4478265,56.0444306 C62.1373486,57.4517068 56.2554241,39.1323238 32.4248281,28.1312917 Z" id="Path" fill="#FF7C3B"></path>
                        <path d="M51.2611187,39.3566846 C51.0714107,39.3563214 50.9004564,39.2436241 50.8242474,39.0749224 C50.786161,38.9999359 47.8322225,32.0273075 41.6714229,24.6365281 C36.0239569,17.8273113 26.4271627,9.25007645 12.8967493,7.03300439 C12.6500566,6.9950763 12.4788488,6.75127935 12.5163199,6.50788096 C12.5537909,6.26448257 12.8000855,6.09639685 13.0467783,6.13432494 C26.8807968,8.38943379 36.648654,17.1355515 42.4101981,24.0760854 C48.6470981,31.5793809 51.65813,38.6457606 51.6772456,38.7207109 C51.7725339,38.9456344 51.6592521,39.2263449 51.4317835,39.3195528 C51.3938781,39.3382088 51.3370019,39.3566846 51.2611187,39.3566846 Z" id="Path" fill="#FFD194" transform="translate(32.111146, 22.742833) rotate(-9.000000) translate(-32.111146, -22.742833) "></path>
                        <path d="M10.7254239,15.2258159 C10.5167451,15.2254171 10.3457546,15.0939913 10.288444,14.8878688 C10.2120903,14.644253 10.3633861,14.401072 10.6098617,14.326629 L21.1141092,11.462509 C21.3605848,11.3880659 21.6074947,11.5383652 21.6838484,11.781981 C21.7602022,12.0255967 21.6089064,12.2687777 21.3624308,12.3432208 L10.8581833,15.2073408 C10.8012709,15.2072321 10.7633655,15.2258881 10.7254239,15.2258159 Z" id="Path" fill="#FFD194" transform="translate(15.986146, 13.334593) rotate(-9.000000) translate(-15.986146, -13.334593) "></path>
                        <path d="M15.4955606,17.0008539 C15.2868819,17.0004552 15.1158913,16.8690294 15.0585808,16.6629069 C14.982227,16.4192911 15.1335228,16.1761101 15.3799984,16.101667 L26.1116059,13.0881536 C26.3580815,13.0137105 26.6049914,13.1640098 26.6813452,13.4076256 C26.7576989,13.6512414 26.6064031,13.8944224 26.3599275,13.9688654 L15.62832,16.9823788 C15.5903784,16.9823064 15.5335022,17.0009262 15.4955606,17.0008539 Z" id="Path" fill="#FFD194" transform="translate(20.869963, 15.034934) rotate(-9.000000) translate(-20.869963, -15.034934) "></path>
                        <path d="M20.5862072,19.3060768 C20.3775284,19.305678 20.2065379,19.1742522 20.1492635,18.9868583 C20.0729098,18.7432425 20.2242056,18.5000615 20.4517104,18.4255822 L31.0503775,15.336901 C31.2968531,15.262458 31.543763,15.4127572 31.6200805,15.6376445 C31.6964343,15.8812603 31.5451385,16.1244413 31.3176337,16.1989206 L20.7189666,19.2876017 C20.681025,19.2875292 20.6241488,19.3061491 20.5862072,19.3060768 Z" id="Path" fill="#FFD194" transform="translate(25.884672, 17.311869) rotate(-9.000000) translate(-25.884672, -17.311869) "></path>
                    </g>
                    <g id="Group-2" transform="translate(346.766676, 583.578094) rotate(-195.000000) translate(-346.766676, -583.578094) translate(319.266676, 559.578094)" fill-rule="nonzero">
                        <path d="M27.436393,23.8034006 C7.27204257,14.494835 -2.7567952,18.3120348 1.24759046,6.37156322 C8.42125547,-6.56091786 38.3809872,1.70850332 46.9495343,20.2719942 C51.3310548,29.7644222 54.3188132,36.68899 54.5327762,47.4222105 C52.5777565,48.6129827 47.6007434,33.1119663 27.436393,23.8034006 Z" id="Path" fill="#FFB03A"></path>
                        <path d="M43.3747927,33.30181 C43.2142706,33.3015027 43.0696169,33.2061435 43.0051324,33.0633959 C42.9729055,32.9999457 40.473419,27.1000294 35.2604348,20.846293 C30.4818097,15.084648 22.3614454,7.82698777 10.912634,5.95100372 C10.703894,5.91891072 10.5590259,5.71262099 10.5907322,5.5066685 C10.6224385,5.30071602 10.8308416,5.15848964 11.0395816,5.19058264 C22.7452896,7.09875167 31.0103995,14.4993128 35.8855523,20.3720722 C41.1629291,26.7210146 43.7107254,32.7002589 43.7269001,32.7636785 C43.8075287,32.9539983 43.7116748,33.1915226 43.5192014,33.2703908 C43.4871276,33.2861767 43.4390016,33.30181 43.3747927,33.30181 Z" id="Path" fill="#FFD194" transform="translate(27.170969, 19.243936) rotate(-9.000000) translate(-27.170969, -19.243936) "></path>
                        <path d="M9.0753587,12.8833827 C8.89878435,12.8830453 8.75410004,12.7718388 8.7056065,12.5974275 C8.64099949,12.391291 8.76901904,12.1855225 8.9775753,12.1225322 L17.8657847,9.69904607 C18.074341,9.63605577 18.2832648,9.76323206 18.3478718,9.9693685 C18.4124788,10.1755049 18.2844592,10.3812735 18.075903,10.4442638 L9.18769356,12.8677499 C9.13953692,12.8676579 9.10746312,12.8834438 9.0753587,12.8833827 Z" id="Path" fill="#FFD194" transform="translate(13.526739, 11.283117) rotate(-9.000000) translate(-13.526739, -11.283117) "></path>
                        <path d="M13.1116282,14.3853379 C12.9350539,14.3850005 12.7903696,14.2737941 12.741876,14.0993827 C12.677269,13.8932463 12.8052886,13.6874778 13.0138448,13.6244875 L22.0944358,11.0745915 C22.302992,11.0116012 22.5119158,11.1387775 22.5765228,11.344914 C22.6411298,11.5510504 22.5131103,11.7568189 22.304554,11.8198092 L13.2239631,14.3697052 C13.1918587,14.3696438 13.1437326,14.3853991 13.1116282,14.3853379 Z" id="Path" fill="#FFD194" transform="translate(17.659199, 12.721867) rotate(-9.000000) translate(-17.659199, -12.721867) "></path>
                        <path d="M17.4190984,16.3359112 C17.242524,16.3355737 17.0978397,16.2243673 17.0493768,16.0658032 C16.9847698,15.8596667 17.1127894,15.6538982 17.3052934,15.5908772 L26.2733963,12.9773778 C26.4819526,12.9143875 26.6908764,13.0415638 26.7554528,13.231853 C26.8200598,13.4379895 26.6920402,13.643758 26.4995362,13.7067789 L17.5314332,16.3202784 C17.4993288,16.3202171 17.4512028,16.3359723 17.4190984,16.3359112 Z" id="Path" fill="#FFD194" transform="translate(21.902415, 14.648505) rotate(-9.000000) translate(-21.902415, -14.648505) "></path>
                    </g>
                </g>
            </g>
        </g>
    </g>
</svg>