<svg id="heart" xmlns="http://www.w3.org/2000/svg" xmlns:xlink="http://www.w3.org/1999/xlink" width="69.811" height="56.393" viewBox="0 0 69.811 56.393">
  <defs>
    <linearGradient id="linear-gradient" x1="0.559" y1="0.669" x2="0.164" y2="0.211" gradientUnits="objectBoundingBox">
      <stop offset="0" stop-color="#f42607"/>
      <stop offset="1" stop-color="#ff5c7e"/>
    </linearGradient>
    <linearGradient id="linear-gradient-2" x1="1.288" y1="0.5" x2="-0.158" y2="0.5" gradientUnits="objectBoundingBox">
      <stop offset="0" stop-color="#ff8f00"/>
      <stop offset="1" stop-color="#ffe0a9"/>
    </linearGradient>
    <linearGradient id="linear-gradient-3" x1="1.176" y1="0.5" x2="-0.046" y2="0.5" gradientUnits="objectBoundingBox">
      <stop offset="0" stop-color="#ffb900"/>
      <stop offset="1" stop-color="#ffeaa8"/>
    </linearGradient>
    <linearGradient id="linear-gradient-4" x1="0.925" y1="0.604" x2="0.201" y2="0.427" gradientUnits="objectBoundingBox">
      <stop offset="0" stop-color="#ffab00"/>
      <stop offset="1" stop-color="#ffe78f"/>
    </linearGradient>
    <linearGradient id="linear-gradient-5" x1="0.81" y1="0.701" x2="0.314" y2="0.136" xlink:href="#linear-gradient"/>
  </defs>
  <path id="Fill_3" data-name="Fill 3" d="M4.676,4.669a16.036,16.036,0,0,0,0,22.637h0l.281.28,6.292,6.282,11.744-2.575L42.066,50.339,57.577,34.851,27.348,4.669A16,16,0,0,0,16.012,0h0A16,16,0,0,0,4.676,4.669" transform="translate(0 0.212)" fill="url(#linear-gradient)"/>
  <path id="Fill_6" data-name="Fill 6" d="M4.083,27.593l8.09,8.077,4.138-.594L17.959,3.925,3.2,0c-4.431,9.291-4.377,20.843.881,27.593" transform="translate(8.115 4.538)" fill="url(#linear-gradient-2)"/>
  <path id="Fill_9" data-name="Fill 9" d="M.233,32.807l2.874,2.87,6.369,1.716L23.324,9.431,11.321,0C3.17,9.432-1.071,22.154.233,32.807" transform="translate(13.057 0.992)" fill="url(#linear-gradient-3)"/>
  <path id="Fill_12" data-name="Fill 12" d="M0,32.159,10.772,35.43,31.815,12.373,22.888,0C11.855,7.2,1.926,22.791,0,32.159" transform="translate(16.801 0)" fill="url(#linear-gradient-4)"/>
  <path id="Path" d="M14.091,27.587s-6.77,7.54-14.091.23l20.652,20.62,2.3,2.3,2.555,2.547.811.809L27.531,55.3a3.159,3.159,0,0,0,4.413-.036l1.984-1.981h0L36.8,50.415l.076-.076,3.451-3.445L59.947,27.306A16.019,16.019,0,0,0,37.275,4.669Z" transform="translate(5.188 0.212)" fill="url(#linear-gradient-5)"/>
</svg>
