<svg xmlns="http://www.w3.org/2000/svg" width="112.298" height="121.101" viewBox="0 0 112.298 121.101">
  <g id="Сгруппировать_287" data-name="Сгруппировать 287" transform="translate(2827.377 -4464.158)">
    <path id="Контур_75" data-name="Контур 75" d="M178.982,133.275" transform="translate(-2903.037 4404.763)" fill="none" stroke="#000" stroke-miterlimit="10" stroke-width="13.5"/>
    <g id="Сгруппировать_48" data-name="Сгруппировать 48" transform="translate(-2822.877 4468.658)">
      <path id="Контур_76" data-name="Контур 76" d="M82.64,120.32a47.959,47.959,0,1,1,34.721-28.374" transform="translate(-25.14 -25.267)" fill="none" stroke="#000" stroke-miterlimit="10" stroke-width="9"/>
    </g>
    <path id="Контур_77" data-name="Контур 77" d="M128.825,166.145,147.2,185.777l19.642-19.642" transform="translate(-2885.099 4393.011)" fill="none" stroke="#000" stroke-miterlimit="10" stroke-width="9"/>
    <line id="Линия_8" data-name="Линия 8" y1="37.721" transform="translate(-2737.904 4541.067)" fill="none" stroke="#000" stroke-miterlimit="10" stroke-width="9"/>
    <g id="Сгруппировать_49" data-name="Сгруппировать 49" transform="translate(-2793.487 4488.541)">
      <path id="Контур_78" data-name="Контур 78" d="M86.035,102.1h21.092v7.232H70.893V102.1h6.253V86.879H70.893V80.551h6.253V72.943c0-10.7,5.8-16.723,16.045-16.723A19.7,19.7,0,0,1,108.106,63l-3.54,6.93c-3.164-3.767-6.78-5.725-10.472-5.725-5.2,0-8.06,3.013-8.06,8.963v7.383H99.292v6.328H86.035Z" transform="translate(-70.893 -56.22)" stroke="#000" stroke-miterlimit="10" stroke-width="1"/>
    </g>
  </g>
</svg>
