<svg width="35" height="27" viewBox="0 0 35 27" fill="none" xmlns="http://www.w3.org/2000/svg">
<path d="M30.7269 6.72886C30.7489 7.02487 30.7489 7.3192 30.7489 7.61352C30.7489 16.6208 23.8932 27 11.3641 27C7.50407 27 3.91806 25.8819 0.900391 23.94C1.44844 24.0026 1.9762 24.0246 2.54624 24.0246C5.73136 24.0246 8.66276 22.9488 11.0055 21.1135C8.00984 21.0509 5.49963 19.0888 4.63357 16.3891C5.05476 16.4517 5.47764 16.494 5.92081 16.494C6.53145 16.494 7.14547 16.4094 7.71551 16.2622C4.59128 15.6296 2.25191 12.8877 2.25191 9.57568V9.4911C3.16026 9.99687 4.21407 10.3132 5.33047 10.3555C3.49518 9.13419 2.29251 7.04517 2.29251 4.68212C2.29251 3.41686 2.62912 2.25648 3.21946 1.24496C6.57374 5.37733 11.6162 8.07869 17.2692 8.3747C17.1643 7.86725 17.1001 7.34118 17.1001 6.81343C17.1001 3.05826 20.138 0 23.9135 0C25.8756 0 27.6467 0.822077 28.8916 2.15161C30.4309 1.85559 31.9059 1.28555 33.2151 0.505763C32.7094 2.08733 31.6319 3.41686 30.2195 4.26093C31.5913 4.11208 32.9208 3.73318 34.1421 3.20543C33.2151 4.55526 32.0564 5.75793 30.7269 6.72886Z" fill="black"/>
</svg>
