<svg width="39" height="39" viewBox="0 0 39 39" fill="none" xmlns="http://www.w3.org/2000/svg">
<path fill-rule="evenodd" clip-rule="evenodd" d="M19.5 39C30.2696 39 39 30.2696 39 19.5C39 8.73045 30.2696 0 19.5 0C8.73045 0 0 8.73045 0 19.5C0 30.2696 8.73045 39 19.5 39ZM14.0668 7.3125H24.9339C25.8392 7.3125 26.5802 8.0528 26.5802 8.95886V30.0411C26.5802 30.9479 25.8392 31.6875 24.9339 31.6875H14.0668C13.1615 31.6875 12.4205 30.9465 12.4205 30.0404V8.95886C12.4205 8.0528 13.1615 7.3125 14.0668 7.3125ZM21.2386 8.49921H17.7621C17.652 8.49921 17.5629 8.58836 17.5629 8.69909C17.5629 8.80912 17.652 8.89827 17.7621 8.89827H21.2386C21.3487 8.89827 21.4378 8.80912 21.4378 8.69909C21.4378 8.58836 21.3487 8.49921 21.2386 8.49921ZM18.6772 30.0404C18.6772 30.4959 19.0456 30.8643 19.5004 30.8643C19.9551 30.8643 20.3235 30.4959 20.3235 30.0404C20.3235 29.585 19.9551 29.2173 19.5004 29.2173C19.0456 29.2173 18.6772 29.585 18.6772 30.0404ZM13.5661 28.6406H25.4346V9.92341H13.5661V28.6406Z" fill="white"/>
</svg>
