<svg width="34" height="34" viewBox="0 0 34 34" fill="none" xmlns="http://www.w3.org/2000/svg">
<path fill-rule="evenodd" clip-rule="evenodd" d="M16.56 33.12C25.7058 33.12 33.12 25.7058 33.12 16.56C33.12 7.41416 25.7058 0 16.56 0C7.41416 0 0 7.41416 0 16.56C0 25.7058 7.41416 33.12 16.56 33.12ZM8.4445 9.00005H24.8888C26.2373 9.00005 27.3333 10.0961 27.3333 11.4446V22.5556C27.3333 23.904 26.2373 25.0001 24.8888 25.0001H8.4445C7.09603 25.0001 6 23.904 6 22.5556V11.4446C6 10.0961 7.09603 9.00005 8.4445 9.00005ZM14.8888 14.7779C14.8888 13.553 13.8916 12.5556 12.6667 12.5556C11.4417 12.5556 10.4445 13.553 10.4445 14.7779C10.4445 16.0027 11.4417 17.0001 12.6667 17.0001C13.8916 17.0001 14.8888 16.0027 14.8888 14.7779ZM16 21.4446C16.368 21.4446 16.6667 21.1459 16.6667 20.7779V20.3334C16.6667 18.9849 15.5706 17.8889 14.2222 17.8889H11.1112C9.7627 17.8889 8.66667 18.9849 8.66667 20.3334V20.7779C8.66667 21.1459 8.96533 21.4446 9.33333 21.4446H16ZM19.1112 21.4446H24C24.368 21.4446 24.6667 21.1459 24.6667 20.7779C24.6667 20.4099 24.368 20.1112 24 20.1112H19.1112C18.7432 20.1112 18.4445 20.4099 18.4445 20.7779C18.4445 21.1459 18.7432 21.4446 19.1112 21.4446ZM19.1112 17.8889H24C24.368 17.8889 24.6667 17.5902 24.6667 17.2222C24.6667 16.8542 24.368 16.5556 24 16.5556H19.1112C18.7432 16.5556 18.4445 16.8542 18.4445 17.2222C18.4445 17.5902 18.7432 17.8889 19.1112 17.8889ZM19.1112 14.3334H24C24.368 14.3334 24.6667 14.0347 24.6667 13.6667C24.6667 13.2987 24.368 13.0001 24 13.0001H19.1112C18.7432 13.0001 18.4445 13.2987 18.4445 13.6667C18.4445 14.0347 18.7432 14.3334 19.1112 14.3334Z" fill="white"/>
</svg>
