<svg width="36" height="36" viewBox="0 0 36 36" fill="none" xmlns="http://www.w3.org/2000/svg">
<path d="M28.4252 22.3007C27.6882 21.5333 26.7992 21.123 25.857 21.123C24.9225 21.123 24.0259 21.5257 23.2585 22.2931L20.8575 24.6865C20.66 24.5801 20.4624 24.4813 20.2725 24.3825C19.9989 24.2458 19.7406 24.1166 19.5203 23.9799C17.2712 22.5514 15.2274 20.6899 13.2671 18.2813C12.3173 17.0808 11.6791 16.0703 11.2156 15.0445C11.8386 14.4747 12.4161 13.882 12.9783 13.3122C13.1911 13.0994 13.4038 12.8791 13.6166 12.6664C15.2122 11.0708 15.2122 9.0041 13.6166 7.40851L11.5423 5.33424C11.3068 5.0987 11.0636 4.85556 10.8357 4.61243C10.3798 4.14135 9.90113 3.65507 9.40726 3.19919C8.67025 2.46978 7.78887 2.08228 6.86191 2.08228C5.93495 2.08228 5.03838 2.46978 4.27857 3.19919C4.27098 3.20679 4.27098 3.20679 4.26338 3.21438L1.68004 5.82052C0.707491 6.79307 0.152834 7.97836 0.0312648 9.35361C-0.151088 11.5722 0.502344 13.6389 1.00382 14.9914C2.2347 18.3117 4.07343 21.3889 6.81632 24.6865C10.1443 28.6603 14.1484 31.7982 18.7225 34.0093C20.47 34.8375 22.8026 35.8176 25.4088 35.9848C25.5683 35.9924 25.7355 36 25.8874 36C27.6426 36 29.1166 35.3693 30.2715 34.1157C30.2791 34.1005 30.2943 34.0929 30.3019 34.0777C30.697 33.599 31.1529 33.1659 31.6316 32.7024C31.9583 32.3909 32.2926 32.0642 32.6193 31.7223C33.3715 30.9397 33.7666 30.0279 33.7666 29.0933C33.7666 28.1512 33.3639 27.247 32.5965 26.4872L28.4252 22.3007ZM31.1453 30.3014C31.1377 30.3014 31.1377 30.309 31.1453 30.3014C30.849 30.6205 30.545 30.9093 30.2183 31.2284C29.7244 31.6995 29.223 32.1933 28.7519 32.748C27.9845 33.5686 27.0803 33.9561 25.895 33.9561C25.7811 33.9561 25.6595 33.9561 25.5455 33.9485C23.2889 33.8041 21.1918 32.9228 19.619 32.1705C15.3185 30.0887 11.5423 27.133 8.40431 23.3872C5.81338 20.2644 4.08103 17.3771 2.93372 14.2771C2.2271 12.3852 1.96877 10.9112 2.08274 9.52077C2.15872 8.63179 2.50063 7.89478 3.13127 7.26415L5.7222 4.67321C6.09451 4.3237 6.48961 4.13375 6.87711 4.13375C7.35578 4.13375 7.74329 4.42247 7.98642 4.66561C7.99402 4.67321 8.00162 4.68081 8.00922 4.68841C8.4727 5.1215 8.91338 5.56978 9.37687 6.04846C9.6124 6.29159 9.85554 6.53473 10.0987 6.78547L12.1729 8.85974C12.9783 9.66513 12.9783 10.4097 12.1729 11.2151C11.9526 11.4355 11.7399 11.6558 11.5195 11.8686C10.8813 12.522 10.2734 13.1298 9.6124 13.7225C9.59721 13.7377 9.58201 13.7453 9.57442 13.7605C8.92098 14.4139 9.04255 15.0521 9.17932 15.4852C9.18691 15.508 9.19451 15.5308 9.20211 15.5536C9.74157 16.8605 10.5014 18.0914 11.6563 19.5578L11.6639 19.5654C13.7609 22.1487 15.972 24.1622 18.4109 25.7046C18.7225 25.9022 19.0416 26.0617 19.3455 26.2137C19.619 26.3504 19.8774 26.4796 20.0977 26.6164C20.1281 26.6316 20.1585 26.6544 20.1889 26.6696C20.4472 26.7987 20.6904 26.8595 20.9411 26.8595C21.5717 26.8595 21.9668 26.4644 22.096 26.3352L24.6945 23.7367C24.9529 23.4784 25.3632 23.1669 25.8418 23.1669C26.3129 23.1669 26.7004 23.4632 26.936 23.7215C26.9436 23.7291 26.9436 23.7291 26.9512 23.7367L31.1377 27.9232C31.9203 28.6982 31.9203 29.496 31.1453 30.3014Z" fill="#A2C2C6"/>
<path d="M19.4283 8.56338C21.419 8.89769 23.2273 9.83985 24.671 11.2835C26.1146 12.7271 27.0491 14.5354 27.3911 16.5261C27.4746 17.0276 27.9077 17.3771 28.4016 17.3771C28.4624 17.3771 28.5156 17.3695 28.5763 17.3619C29.1386 17.2707 29.5109 16.7389 29.4197 16.1766C29.0094 13.768 27.8697 11.5722 26.1298 9.83225C24.3898 8.0923 22.194 6.95259 19.7854 6.5423C19.2232 6.45112 18.6989 6.82342 18.6001 7.37808C18.5013 7.93274 18.866 8.4722 19.4283 8.56338Z" fill="#A2C2C6"/>
<path d="M35.9312 15.8804C35.2549 11.9142 33.3858 8.30511 30.5137 5.43305C27.6417 2.56098 24.0326 0.691864 20.0664 0.0156379C19.5118 -0.0831367 18.9875 0.296766 18.8887 0.851423C18.7975 1.41368 19.1699 1.93794 19.7321 2.03672C23.2728 2.63696 26.502 4.31613 29.0701 6.87668C31.6383 9.44482 33.3098 12.674 33.9101 16.2147C33.9936 16.7162 34.4267 17.0657 34.9206 17.0657C34.9814 17.0657 35.0346 17.0581 35.0954 17.0505C35.65 16.9669 36.0299 16.435 35.9312 15.8804Z" fill="#A2C2C6"/>
</svg>
