<svg width="48" height="36" viewBox="0 0 48 36" fill="none" xmlns="http://www.w3.org/2000/svg">
<path d="M43.1077 0H4.15385C1.86628 0 0 1.86425 0 4.15385V31.8462C0 34.128 1.85797 36 4.15385 36H43.1077C45.3895 36 47.2615 34.142 47.2615 31.8462V4.15385C47.2615 1.872 45.4036 0 43.1077 0ZM42.5341 2.76923L23.7188 21.5846L4.74083 2.76923H42.5341ZM2.76923 31.2727V4.71406L16.1058 17.9362L2.76923 31.2727ZM4.72735 33.2308L18.0723 19.8858L22.7483 24.5217C23.2896 25.0584 24.1631 25.0566 24.7022 24.5175L29.2615 19.9581L42.5342 33.2308H4.72735ZM44.4923 31.2726L31.2197 18L44.4923 4.72726V31.2726Z" fill="#A2C2C6"/>
</svg>
