<svg width="15" height="28" viewBox="0 0 15 28" fill="none" xmlns="http://www.w3.org/2000/svg">
<path d="M14.4351 0.0686061L10.8373 0.0629883C6.7953 0.0629883 4.18317 2.67105 4.18317 6.70772V9.77139H0.565722C0.253132 9.77139 0 10.018 0 10.3222V14.7611C0 15.0653 0.253421 15.3117 0.565722 15.3117H4.18317V26.5124C4.18317 26.8166 4.4363 27.063 4.74889 27.063H9.46863C9.78122 27.063 10.0343 26.8164 10.0343 26.5124V15.3117H14.264C14.5766 15.3117 14.8297 15.0653 14.8297 14.7611L14.8314 10.3222C14.8314 10.1762 14.7717 10.0363 14.6658 9.93291C14.5598 9.82954 14.4155 9.77139 14.2654 9.77139H10.0343V7.17428C10.0343 5.92601 10.34 5.29232 12.0109 5.29232L14.4346 5.29148C14.7469 5.29148 15 5.04486 15 4.74093V0.619151C15 0.315509 14.7472 0.0691679 14.4351 0.0686061Z" fill="white"/>
</svg>
