<svg width="30" height="42" viewBox="0 0 30 42" fill="none" xmlns="http://www.w3.org/2000/svg">
<path d="M15.0743 0.791504C6.95762 0.791504 0.354248 7.35799 0.354248 15.4292C0.354248 25.4459 13.5273 40.151 14.0881 40.7721C14.6149 41.3556 15.5347 41.3545 16.0605 40.7721C16.6213 40.151 29.7944 25.4459 29.7944 15.4292C29.7942 7.35799 23.1909 0.791504 15.0743 0.791504ZM15.0743 22.7939C10.9906 22.7939 7.66835 19.4901 7.66835 15.4292C7.66835 11.3684 10.9907 8.06467 15.0743 8.06467C19.1579 8.06467 22.4802 11.3684 22.4802 15.4293C22.4802 19.4902 19.1579 22.7939 15.0743 22.7939Z" fill="#04244D"/>
</svg>
