<svg width="43" height="33" viewBox="0 0 43 33" fill="none" xmlns="http://www.w3.org/2000/svg">
<path d="M1.22407 3.49184C7.07991 8.45109 17.3551 17.1759 20.3751 19.8963C20.7805 20.2635 21.2153 20.4502 21.6667 20.4502C22.1172 20.4502 22.5513 20.2653 22.9558 19.8998C25.9784 17.1768 36.2536 8.45109 42.1095 3.49184C42.4741 3.18367 42.5297 2.64201 42.2345 2.26526C41.5522 1.39467 40.5348 0.895508 39.4445 0.895508H3.88899C2.79874 0.895508 1.78132 1.39467 1.09907 2.26534C0.803906 2.64201 0.859489 3.18367 1.22407 3.49184Z" fill="#04244D"/>
<path d="M42.4845 6.17955C42.1694 6.03288 41.7987 6.08405 41.5365 6.30805C35.0425 11.8132 26.7544 18.8697 24.1467 21.2195C22.6831 22.5406 20.6519 22.5406 19.1849 21.2177C16.4054 18.7134 7.09804 10.8011 1.79687 6.30797C1.53296 6.08397 1.16146 6.03455 0.848957 6.17947C0.534791 6.32538 0.333374 6.63963 0.333374 6.98597V29.3401C0.333374 31.3011 1.92796 32.8957 3.88896 32.8957H39.4445C41.4055 32.8957 43 31.3011 43 29.3401V6.98597C43 6.63963 42.7986 6.32455 42.4845 6.17955Z" fill="#04244D"/>
</svg>
