<svg width="33" height="34" viewBox="0 0 33 34" fill="none" xmlns="http://www.w3.org/2000/svg">
<path d="M31.2848 24.5306L26.7919 20.0377C25.1873 18.4331 22.4595 19.075 21.8176 21.1609C21.3363 22.6052 19.7317 23.4075 18.2875 23.0865C15.0783 22.2842 10.7459 18.1122 9.94358 14.7425C9.4622 13.2983 10.425 11.6937 11.8691 11.2124C13.9551 10.5706 14.5969 7.84274 12.9923 6.23814L8.49943 1.74525C7.21575 0.622027 5.29023 0.622027 4.16701 1.74525L1.11826 4.79399C-1.93049 8.0032 1.43918 16.5076 8.98082 24.0492C16.5225 31.5909 25.0268 35.1211 28.2361 31.9118L31.2848 28.863C32.4081 27.5794 32.4081 25.6538 31.2848 24.5306Z" fill="#04244D"/>
</svg>
