<svg width="34" height="28" viewBox="0 0 34 28" fill="none" xmlns="http://www.w3.org/2000/svg">
<path d="M29.8265 6.79184C29.8485 7.08786 29.8485 7.38218 29.8485 7.67651C29.8485 16.6838 22.9928 27.063 10.4637 27.063C6.60368 27.063 3.01767 25.9449 0 24.003C0.548052 24.0656 1.07581 24.0876 1.64585 24.0876C4.83097 24.0876 7.76237 23.0118 10.1051 21.1765C7.10945 21.1139 4.59924 19.1518 3.73318 16.4521C4.15437 16.5147 4.57725 16.557 5.02042 16.557C5.63106 16.557 6.24508 16.4724 6.81512 16.3252C3.69089 15.6926 1.35152 12.9507 1.35152 9.63867V9.55409C2.25987 10.0599 3.31368 10.3762 4.43008 10.4185C2.59479 9.19718 1.39212 7.10816 1.39212 4.74511C1.39212 3.47985 1.72873 2.31947 2.31907 1.30795C5.67335 5.44032 10.7158 8.14167 16.3688 8.43769C16.2639 7.93024 16.1997 7.40417 16.1997 6.87642C16.1997 3.12125 19.2376 0.0629883 23.0131 0.0629883C24.9753 0.0629883 26.7463 0.885065 27.9912 2.2146C29.5305 1.91858 31.0055 1.34854 32.3147 0.568752C31.809 2.15032 30.7315 3.47985 29.3191 4.32392C30.6909 4.17507 32.0204 3.79617 33.2417 3.26841C32.3147 4.61824 31.1561 5.82091 29.8265 6.79184Z" fill="white"/>
</svg>
