<svg xmlns="http://www.w3.org/2000/svg" viewBox="0 0 217 217"><defs><style>.cls-1{fill:#006247;}</style></defs><g id="Oracle"><path class="cls-1" d="M163.57,52.62h-2.95a37.58,37.58,0,0,0-37.54,37.54v89.73a24.14,24.14,0,1,1-48.28,0V147.13H91.13V127.5a31.79,31.79,0,0,0,18.73-29V52.62H22.22V98.48A31.83,31.83,0,0,0,45.07,129v18.09H61.4v32.76a37.54,37.54,0,1,0,75.08,0V90.16A24.17,24.17,0,0,1,160.62,66h2.95a24.17,24.17,0,0,1,24.15,24.14V212.24h13.39V90.16A37.58,37.58,0,0,0,163.57,52.62ZM77.73,130.34v3.4H58.46v-3.4ZM35.61,66H96.46V98.48A18.48,18.48,0,0,1,78,116.94H54.08A18.49,18.49,0,0,1,35.61,98.48Z"/><polygon class="cls-1" points="110.88 34.98 91.06 34.98 91.06 4.76 77.67 4.76 77.67 34.98 58.4 34.98 58.4 4.76 45 4.76 45 34.98 21.09 34.98 21.09 48.38 110.88 48.38 110.88 34.98"/></g></svg>