<svg xmlns="http://www.w3.org/2000/svg" viewBox="0 0 217 217"><defs><style>.cls-1{fill:#006247;}</style></defs><g id="Oracle"><path class="cls-1" d="M180,82.94h0q-1.3-.09-2.61-.09a36.49,36.49,0,0,0-29.73,15.37l-15.41-1.1-5.07-71.19-6.68.48a31.13,31.13,0,0,0-3.57.46V13.93H83.09V2.74H69.69V13.93H61.53V2.74H48.13V13.93H14.34V49.42H3.14v13.4h11.2V71H3.14V84.37h11.2v32.11H26.63a32.17,32.17,0,0,0-.63,4.37l-.47,6.68,71.18,5.07,1.1,15.4a37,37,0,0,0-6.45,5.86,36.49,36.49,0,0,0,27.56,60.4q1.31,0,2.61-.09a36.48,36.48,0,0,0,14.1-68.84l-.71-10,10,.72a36.67,36.67,0,0,0,29.84,19.71A36.5,36.5,0,1,0,180,82.94Zm20.45,38a23.16,23.16,0,0,1-24.68,21.4,23.12,23.12,0,0,1-21.4-24.68,23.16,23.16,0,0,1,23.05-21.46c.54,0,1.08,0,1.63.06A23.12,23.12,0,0,1,200.4,121ZM107.49,95.36l-2.6-36.55a17.89,17.89,0,0,1,9.92-17.26l3.89,54.61Zm33.49,27-99.84-7.11a18,18,0,0,1,4.33-5.61,17.76,17.76,0,0,1,12.94-4.31l83.37,5.94a36.94,36.94,0,0,0-.8,11.09ZM27.73,71V62.82h11.2V49.42H27.73V27.33h20.4v11.2h13.4V27.33h8.16v11.2h13.4V27.33h20.4v5.58a31.27,31.27,0,0,0-12,26.85L94,94.4,59.36,91.93c-.77-.05-1.53-.08-2.26-.08a31.17,31.17,0,0,0-20.41,7.63,32.46,32.46,0,0,0-3.53,3.6H27.73V84.37h11.2V71Zm89.57,83.75q.84-.06,1.68-.06a23.13,23.13,0,0,1,23,21.45h0a23.14,23.14,0,0,1-21.4,24.69,23.1,23.1,0,1,1-3.28-46.08Zm-7.09-21.17,11.21.8.5,7a37.13,37.13,0,0,0-5.58,0,36.63,36.63,0,0,0-5.51.82Z"/></g></svg>