<svg xmlns="http://www.w3.org/2000/svg" viewBox="0 0 217 217"><defs><style>.cls-1{fill:#006247;}</style></defs><g id="Oracle"><path class="cls-1" d="M166.78,60.8H99.32L87.86,80.65v-32h37.65v-6.7A34.62,34.62,0,0,0,90.93,7.36H46.1A34.62,34.62,0,0,0,11.52,41.94v6.7H47.68v138L68,214.23l19.85-26.91V157.8l11.46,19.85h67.46l33.73-58.43ZM61.08,74.86V48.64H74.46V74.86Zm0,24V88.26H74.46V98.84Zm0,23.28v-9.88H74.46v9.88ZM68,191.66l-6.93-9.4V135.52H74.46v47.4ZM46.1,20.76H90.93A21.1,21.1,0,0,1,111,35.24H26A21.1,21.1,0,0,1,46.1,20.76Zm61,143.49L87.86,131V107.44L107.05,74.2h52l26,45-26,45Z"/><path class="cls-1" d="M133.05,93.75a25.48,25.48,0,1,0,25.48,25.47A25.5,25.5,0,0,0,133.05,93.75Zm0,37.55a12.08,12.08,0,1,1,12.08-12.08A12.09,12.09,0,0,1,133.05,131.3Z"/></g></svg>