<svg width="14" height="14" viewBox="0 0 14 14" fill="none" xmlns="http://www.w3.org/2000/svg">
<path d="M0.278417 12.3773C-0.0928053 12.7485 -0.0928059 13.3504 0.278417 13.7216C0.64964 14.0928 1.25151 14.0928 1.62273 13.7216L7 8.34432L12.3773 13.7216C12.7485 14.0928 13.3504 14.0928 13.7216 13.7216C14.0928 13.3504 14.0928 12.7485 13.7216 12.3773L8.34432 7L13.7216 1.62273C14.0928 1.25151 14.0928 0.64964 13.7216 0.278417C13.3504 -0.0928055 12.7485 -0.0928057 12.3773 0.278417L7 5.65568L1.62273 0.278417C1.25151 -0.0928052 0.64964 -0.0928055 0.278417 0.278417C-0.0928059 0.649641 -0.0928055 1.25151 0.278417 1.62273L5.65568 7L0.278417 12.3773Z" fill="#333333"/>
</svg>
