<svg width="25" height="20" viewBox="0 0 25 20" fill="none" xmlns="http://www.w3.org/2000/svg">
<path d="M5.40625 5H7.46875V7H5.40625V5Z" fill="#CDDDE0"/>
<path d="M5.40625 9H7.46875V11H5.40625V9Z" fill="#CDDDE0"/>
<path d="M5.40625 13H7.46875V15H5.40625V13Z" fill="#CDDDE0"/>
<path d="M9.53125 5H11.5938V7H9.53125V5Z" fill="#CDDDE0"/>
<path d="M9.53125 9H11.5938V11H9.53125V9Z" fill="#CDDDE0"/>
<path d="M9.53125 13H11.5938V15H9.53125V13Z" fill="#CDDDE0"/>
<path d="M13.6562 5H15.7188V7H13.6562V5Z" fill="#CDDDE0"/>
<path d="M13.6562 9H15.7188V11H13.6562V9Z" fill="#CDDDE0"/>
<path d="M13.6562 13H15.7188V15H13.6562V13Z" fill="#CDDDE0"/>
<path d="M17.7812 5H19.8438V7H17.7812V5Z" fill="#CDDDE0"/>
<path d="M17.7812 9H19.8438V11H17.7812V9Z" fill="#CDDDE0"/>
<path d="M17.7812 13H19.8438V15H17.7812V13Z" fill="#CDDDE0"/>
<path fill-rule="evenodd" clip-rule="evenodd" d="M0.25 3C0.25 1.34315 1.63512 0 3.34375 0H21.9062C23.6149 0 25 1.34315 25 3V17C25 18.6569 23.6149 20 21.9062 20H3.34375C1.63512 20 0.25 18.6569 0.25 17V3ZM3.34375 2H21.9062C22.4758 2 22.9375 2.44772 22.9375 3V17C22.9375 17.5523 22.4758 18 21.9062 18H3.34375C2.77421 18 2.3125 17.5523 2.3125 17V3C2.3125 2.44772 2.77421 2 3.34375 2Z" fill="#CDDDE0"/>
</svg>
