<svg width="20" height="20" viewBox="0 0 20 20" fill="none" xmlns="http://www.w3.org/2000/svg">
<path fill-rule="evenodd" clip-rule="evenodd" d="M20 10C20 15.5228 15.5228 20 10 20C4.47715 20 0 15.5228 0 10C0 4.47715 4.47715 0 10 0C15.5228 0 20 4.47715 20 10ZM18 10C18 14.4183 14.4183 18 10 18C8.1512 18 6.44888 17.3729 5.09417 16.3197L16.3197 5.09417C17.3729 6.44888 18 8.1512 18 10ZM4.40755 15.7205L4.27947 15.5925C4.32168 15.6356 4.36438 15.6783 4.40755 15.7205ZM3.68 14.9055L14.9055 3.68C13.5508 2.62702 11.8486 2 10 2C5.58172 2 2 5.58172 2 10C2 11.8486 2.62702 13.5508 3.68 14.9055Z" fill="#CDDDE0"/>
</svg>
