<svg width="28" height="20" viewBox="0 0 28 20" fill="none" xmlns="http://www.w3.org/2000/svg">
<path d="M27.0495 8.91366L25.1429 8.07263L23.5238 4.86142C23.0862 3.98216 22.1985 3.43421 21.2295 3.44058H18.4415V2.63778C18.4415 1.18509 17.3037 0 15.8784 0H2.55069C1.1254 0 0.000166334 1.19146 0.000166334 2.63778V14.9347C-0.0123362 15.8203 0.681557 16.5467 1.55049 16.5594C1.55674 16.5594 1.56299 16.5594 1.57549 16.5594H1.90681C1.90681 16.6231 1.90056 16.6486 1.90056 16.6868C1.89431 18.5091 3.33836 19.9936 5.12622 20C6.91409 20.0063 8.37064 18.5345 8.3769 16.7123C8.3769 16.6996 8.3769 16.6932 8.3769 16.6805C8.3769 16.6359 8.3769 16.6167 8.37064 16.553H19.1416C19.1416 16.6167 19.1416 16.6422 19.1416 16.6805C19.1354 18.5027 20.5794 19.9872 22.3673 19.9936C24.1552 20 25.6117 18.5282 25.618 16.7059C25.618 16.6932 25.618 16.6868 25.618 16.6741C25.618 16.6295 25.618 16.6104 25.618 16.5467H26.4244C27.2933 16.5467 27.9997 15.8267 27.9997 14.941C27.9997 14.9347 27.9997 14.9283 27.9997 14.9156V10.3918C28.0122 9.76743 27.6371 9.17489 27.0495 8.91366ZM5.14498 18.7321C4.04475 18.7321 3.15707 17.8273 3.15707 16.7059C3.15707 15.5846 4.04475 14.6798 5.14498 14.6798C6.24521 14.6798 7.13289 15.5846 7.13289 16.7059C7.13289 17.8209 6.23895 18.7321 5.14498 18.7321ZM17.1912 15.2978H8.07683C7.55173 14.1319 6.40149 13.3864 5.14498 13.3928C3.88222 13.3864 2.73823 14.1255 2.21312 15.2978H1.57549C1.3817 15.2978 1.25042 15.1449 1.25042 14.9474V11.6661H17.1912V15.2978ZM17.1912 2.64415V10.3918H1.25042V2.64415C1.25042 1.89869 1.81929 1.28066 2.55069 1.28066H15.8784C16.6098 1.28703 17.1975 1.89869 17.1912 2.63778V2.64415ZM18.4415 4.72124H21.2295C21.7234 4.71487 22.186 4.98885 22.4173 5.44122L23.6676 7.90697H18.4415V4.72124V4.72124ZM22.386 18.7321C21.2858 18.7321 20.3981 17.8273 20.3981 16.7059C20.3981 15.5846 21.2858 14.6798 22.386 14.6798C23.4863 14.6798 24.3739 15.5846 24.3739 16.7059C24.3739 17.8209 23.4863 18.7321 22.386 18.7321ZM26.7557 14.9474C26.7557 15.1449 26.6244 15.2978 26.4306 15.2978H25.3179C24.5615 13.6476 22.6361 12.934 21.017 13.705C20.3294 14.0299 19.773 14.597 19.4542 15.2978H18.4415V9.18126H24.5677L26.5556 10.0733C26.6807 10.137 26.7619 10.2771 26.7557 10.4173V14.9474Z" fill="#333333"/>
</svg>
