<svg width="22" height="25" viewBox="0 0 22 25" fill="none" xmlns="http://www.w3.org/2000/svg">
<path d="M21.12 25C21.12 25 20.24 25.0021 20.24 24.1525C20.24 22.0491 20.24 19.9152 20.24 19.9152C20.24 18.8169 17.2005 17.1915 15.407 16.683C15.0511 16.5822 14.9116 16.4775 14.5226 16.9462C13.7201 17.9771 12.441 18.644 11 18.644C9.55944 18.644 8.28036 17.9775 7.4778 16.947C7.02372 16.5402 6.9476 16.5826 6.59076 16.6839C4.79732 17.1928 1.76 18.8173 1.76 19.9152C1.76 19.9152 1.76 22.0491 1.76 24.1525C1.76 25.0021 0.88 25 0.88 25C0.88 25 0 25.019 0 24.1525C0 21.836 0 19.9152 0 19.9152C0 19.0157 0.56452 18.1398 1.40624 17.3729C1.40624 17.3729 2.60524 16.4733 3.12532 16.1559C4.5738 15.347 6.2414 14.8305 7.48 14.8305C7.48 14.8305 8.37364 14.8339 8.51444 15.2546C8.877 16.2398 9.85292 16.9453 11 16.9453C12.1444 16.9453 13.1186 16.2432 13.4829 15.2614C13.6686 14.8178 14.52 14.8305 14.52 14.8305C15.7586 14.8305 17.4258 15.347 18.8738 16.1555C19.7111 16.7101 20.5938 17.3729 20.5938 17.3729C21.4355 18.1398 22 19.0157 22 19.9152C22 19.9152 22 21.836 22 24.1525C22 25.019 21.12 25 21.12 25ZM11 12.7118C7.35504 12.7118 4.4 9.86609 4.4 6.35592C4.4 2.84576 7.35504 0 11 0C14.645 0 17.6 2.84576 17.6 6.35592C17.6 9.86609 14.645 12.7118 11 12.7118ZM11 1.69491C8.327 1.69491 6.16 3.78177 6.16 6.35592C6.16 8.93007 8.327 11.0169 11 11.0169C13.673 11.0169 15.84 8.93007 15.84 6.35592C15.84 3.78177 13.673 1.69491 11 1.69491Z" fill="#333333"/>
</svg>
