<svg width="17" height="17" viewBox="0 0 17 17" fill="none" xmlns="http://www.w3.org/2000/svg">
<path d="M14.9158 13.5082C14.0998 14.1132 12.9298 13.9652 12.3028 13.1752C12.0758 12.8902 11.9428 12.5442 11.9208 12.1842L11.9088 11.7442C11.0688 12.5722 9.91981 13.0382 8.72081 13.0392C6.19681 13.0012 4.17081 11.0132 4.17081 8.57618C4.17081 6.13818 6.19581 4.15318 8.71881 4.11318C9.93381 4.13218 11.0918 4.61918 11.9328 5.46918V5.47118C11.9048 5.11418 12.1808 4.80318 12.5488 4.77618C12.5618 4.77618 12.5738 4.77518 12.5858 4.77518H12.6828C13.0868 4.78318 13.4068 5.10618 13.3978 5.49718C13.3968 5.49718 13.3968 5.49718 13.3968 5.49818V11.6712C13.3588 11.8852 13.5078 12.0922 13.7308 12.1292C13.8598 12.1522 13.9908 12.1122 14.0838 12.0242C15.0978 11.0082 16.3118 6.78818 13.4538 4.34318C11.1898 2.40418 7.86981 2.15018 5.31781 3.72018C2.99381 5.37818 2.14381 8.35718 3.26181 10.9302C4.62881 14.0192 8.54681 14.9392 10.8748 14.0232C12.0538 13.5542 12.5978 15.1142 11.3738 15.6232C9.52481 16.3922 4.37581 16.3152 1.97181 12.2412C0.346809 9.49018 0.432809 4.65018 4.74381 2.14618C8.06081 0.22118 12.3108 0.75418 15.0088 3.43418C17.7478 6.23218 17.5878 11.4722 14.9158 13.5082ZM11.7568 8.42918C11.7438 6.88618 10.4408 5.64618 8.84481 5.65918C8.81881 5.65918 8.79281 5.65918 8.76681 5.65918H8.70781C6.87681 5.65918 5.86281 7.06618 5.86281 8.66418C5.86281 10.4532 7.09181 11.5832 8.70081 11.5832C10.3448 11.6192 11.7118 10.3672 11.7588 8.77918L11.7568 8.42918ZM8.72081 4.11318C8.71981 4.11318 8.71881 4.11318 8.71881 4.11318C8.71781 4.11318 8.71681 4.11318 8.71581 4.11318H8.72081Z" fill="#999999"/>
</svg>
