<svg width="22" height="24" viewBox="0 0 22 24" fill="none" xmlns="http://www.w3.org/2000/svg">
<mask id="path-1-inside-1" fill="white">
<path d="M17.875 15.5625C16.5167 15.5625 15.3098 16.2376 14.5577 17.2768L8.0828 13.8926C8.19143 13.5152 8.25 13.116 8.25 12.7031C8.25 12.1439 8.1428 11.6098 7.94869 11.121L14.7348 6.95105C15.4919 7.85995 16.6187 8.4375 17.875 8.4375C20.1495 8.4375 22 6.54497 22 4.21875C22 1.89253 20.1495 0 17.875 0C15.6005 0 13.75 1.89253 13.75 4.21875C13.75 4.75641 13.849 5.27077 14.0291 5.74406L7.22608 9.92438C6.46947 9.04228 5.3598 8.48438 4.125 8.48438C1.85048 8.48438 0 10.3769 0 12.7031C0 15.0293 1.85048 16.9219 4.125 16.9219C5.50559 16.9219 6.7298 16.2246 7.47895 15.1563L13.935 18.5306C13.8148 18.9259 13.75 19.346 13.75 19.7812C13.75 22.1075 15.6005 24 17.875 24C20.1495 24 22 22.1075 22 19.7812C22 17.455 20.1495 15.5625 17.875 15.5625ZM17.875 1.40625C19.3913 1.40625 20.625 2.66794 20.625 4.21875C20.625 5.76956 19.3913 7.03125 17.875 7.03125C16.3587 7.03125 15.125 5.76956 15.125 4.21875C15.125 2.66794 16.3587 1.40625 17.875 1.40625ZM4.125 15.5156C2.60865 15.5156 1.375 14.2539 1.375 12.7031C1.375 11.1523 2.60865 9.89062 4.125 9.89062C5.64135 9.89062 6.875 11.1523 6.875 12.7031C6.875 14.2539 5.64135 15.5156 4.125 15.5156ZM17.875 22.5938C16.3587 22.5938 15.125 21.3321 15.125 19.7812C15.125 18.2304 16.3587 16.9688 17.875 16.9688C19.3913 16.9688 20.625 18.2304 20.625 19.7812C20.625 21.3321 19.3913 22.5938 17.875 22.5938Z"/>
</mask>
<path d="M17.875 15.5625C16.5167 15.5625 15.3098 16.2376 14.5577 17.2768L8.0828 13.8926C8.19143 13.5152 8.25 13.116 8.25 12.7031C8.25 12.1439 8.1428 11.6098 7.94869 11.121L14.7348 6.95105C15.4919 7.85995 16.6187 8.4375 17.875 8.4375C20.1495 8.4375 22 6.54497 22 4.21875C22 1.89253 20.1495 0 17.875 0C15.6005 0 13.75 1.89253 13.75 4.21875C13.75 4.75641 13.849 5.27077 14.0291 5.74406L7.22608 9.92438C6.46947 9.04228 5.3598 8.48438 4.125 8.48438C1.85048 8.48438 0 10.3769 0 12.7031C0 15.0293 1.85048 16.9219 4.125 16.9219C5.50559 16.9219 6.7298 16.2246 7.47895 15.1563L13.935 18.5306C13.8148 18.9259 13.75 19.346 13.75 19.7812C13.75 22.1075 15.6005 24 17.875 24C20.1495 24 22 22.1075 22 19.7812C22 17.455 20.1495 15.5625 17.875 15.5625ZM17.875 1.40625C19.3913 1.40625 20.625 2.66794 20.625 4.21875C20.625 5.76956 19.3913 7.03125 17.875 7.03125C16.3587 7.03125 15.125 5.76956 15.125 4.21875C15.125 2.66794 16.3587 1.40625 17.875 1.40625ZM4.125 15.5156C2.60865 15.5156 1.375 14.2539 1.375 12.7031C1.375 11.1523 2.60865 9.89062 4.125 9.89062C5.64135 9.89062 6.875 11.1523 6.875 12.7031C6.875 14.2539 5.64135 15.5156 4.125 15.5156ZM17.875 22.5938C16.3587 22.5938 15.125 21.3321 15.125 19.7812C15.125 18.2304 16.3587 16.9688 17.875 16.9688C19.3913 16.9688 20.625 18.2304 20.625 19.7812C20.625 21.3321 19.3913 22.5938 17.875 22.5938Z" fill="white"/>
<path d="M14.5577 17.2768L13.6313 19.0493L15.1639 19.8503L16.1779 18.4494L14.5577 17.2768ZM8.0828 13.8926L6.16081 13.3395L5.70919 14.9087L7.15639 15.6651L8.0828 13.8926ZM7.94869 11.121L6.90162 9.41695L5.46961 10.2969L6.08986 11.859L7.94869 11.121ZM14.7348 6.95105L16.2714 5.67093L15.1631 4.34046L13.6877 5.24704L14.7348 6.95105ZM14.0291 5.74406L15.0762 7.44807L16.4874 6.58092L15.8984 5.03285L14.0291 5.74406ZM7.22608 9.92438L5.70803 11.2265L6.81912 12.5219L8.27316 11.6284L7.22608 9.92438ZM7.47895 15.1563L8.40535 13.3838L6.84944 12.5706L5.84145 14.008L7.47895 15.1563ZM13.935 18.5306L15.8485 19.1125L16.3309 17.5261L14.8614 16.7581L13.935 18.5306ZM17.875 13.5625C15.8346 13.5625 14.0412 14.5791 12.9375 16.1042L16.1779 18.4494C16.5783 17.8961 17.1988 17.5625 17.875 17.5625V13.5625ZM15.4841 15.5043L9.00921 12.1201L7.15639 15.6651L13.6313 19.0493L15.4841 15.5043ZM10.0048 14.4458C10.1644 13.8913 10.25 13.306 10.25 12.7031H6.25C6.25 12.9261 6.21848 13.1391 6.16081 13.3395L10.0048 14.4458ZM10.25 12.7031C10.25 11.8865 10.0932 11.1023 9.80753 10.3829L6.08986 11.859C6.19242 12.1173 6.25 12.4012 6.25 12.7031H10.25ZM8.99577 12.825L15.7818 8.65505L13.6877 5.24704L6.90162 9.41695L8.99577 12.825ZM13.1981 8.23116C14.3116 9.56773 15.9889 10.4375 17.875 10.4375V6.4375C17.2485 6.4375 16.6723 6.15218 16.2714 5.67093L13.1981 8.23116ZM17.875 10.4375C21.2962 10.4375 24 7.60693 24 4.21875H20C20 5.48301 19.0028 6.4375 17.875 6.4375V10.4375ZM24 4.21875C24 0.830571 21.2962 -2 17.875 -2V2C19.0028 2 20 2.95449 20 4.21875H24ZM17.875 -2C14.4538 -2 11.75 0.830571 11.75 4.21875H15.75C15.75 2.95449 16.7472 2 17.875 2V-2ZM11.75 4.21875C11.75 5.00362 11.8948 5.75875 12.1599 6.45528L15.8984 5.03285C15.8033 4.78278 15.75 4.50919 15.75 4.21875H11.75ZM12.9821 4.04006L6.17901 8.22037L8.27316 11.6284L15.0762 7.44807L12.9821 4.04006ZM8.74414 8.62226C7.63101 7.32453 5.97848 6.48438 4.125 6.48438V10.4844C4.74111 10.4844 5.30792 10.76 5.70803 11.2265L8.74414 8.62226ZM4.125 6.48438C0.703773 6.48438 -2 9.31495 -2 12.7031H2C2 11.4389 2.99718 10.4844 4.125 10.4844V6.48438ZM-2 12.7031C-2 16.0913 0.703773 18.9219 4.125 18.9219V14.9219C2.99718 14.9219 2 13.9674 2 12.7031H-2ZM4.125 18.9219C6.19898 18.9219 8.01732 17.8719 9.11644 16.3046L5.84145 14.008C5.44228 14.5772 4.8122 14.9219 4.125 14.9219V18.9219ZM6.55254 16.9288L13.0086 20.3031L14.8614 16.7581L8.40535 13.3838L6.55254 16.9288ZM12.0215 17.9487C11.8446 18.5305 11.75 19.1466 11.75 19.7812H15.75C15.75 19.5454 15.785 19.3213 15.8485 19.1125L12.0215 17.9487ZM11.75 19.7812C11.75 23.1694 14.4538 26 17.875 26V22C16.7472 22 15.75 21.0455 15.75 19.7812H11.75ZM17.875 26C21.2962 26 24 23.1694 24 19.7812H20C20 21.0455 19.0028 22 17.875 22V26ZM24 19.7812C24 16.3931 21.2962 13.5625 17.875 13.5625V17.5625C19.0028 17.5625 20 18.517 20 19.7812H24ZM17.875 3.40625C18.2446 3.40625 18.625 3.7299 18.625 4.21875H22.625C22.625 1.60598 20.5381 -0.59375 17.875 -0.59375V3.40625ZM18.625 4.21875C18.625 4.7076 18.2446 5.03125 17.875 5.03125V9.03125C20.5381 9.03125 22.625 6.83152 22.625 4.21875H18.625ZM17.875 5.03125C17.5054 5.03125 17.125 4.7076 17.125 4.21875H13.125C13.125 6.83152 15.2119 9.03125 17.875 9.03125V5.03125ZM17.125 4.21875C17.125 3.7299 17.5054 3.40625 17.875 3.40625V-0.59375C15.2119 -0.59375 13.125 1.60598 13.125 4.21875H17.125ZM4.125 13.5156C3.75535 13.5156 3.375 13.192 3.375 12.7031H-0.625C-0.625 15.3159 1.46195 17.5156 4.125 17.5156V13.5156ZM3.375 12.7031C3.375 12.2143 3.75535 11.8906 4.125 11.8906V7.89062C1.46195 7.89062 -0.625 10.0904 -0.625 12.7031H3.375ZM4.125 11.8906C4.49465 11.8906 4.875 12.2143 4.875 12.7031H8.875C8.875 10.0904 6.78805 7.89062 4.125 7.89062V11.8906ZM4.875 12.7031C4.875 13.192 4.49465 13.5156 4.125 13.5156V17.5156C6.78805 17.5156 8.875 15.3159 8.875 12.7031H4.875ZM17.875 20.5938C17.5054 20.5938 17.125 20.2701 17.125 19.7812H13.125C13.125 22.394 15.2119 24.5938 17.875 24.5938V20.5938ZM17.125 19.7812C17.125 19.2924 17.5054 18.9688 17.875 18.9688V14.9688C15.2119 14.9688 13.125 17.1685 13.125 19.7812H17.125ZM17.875 18.9688C18.2446 18.9688 18.625 19.2924 18.625 19.7812H22.625C22.625 17.1685 20.5381 14.9688 17.875 14.9688V18.9688ZM18.625 19.7812C18.625 20.2701 18.2446 20.5938 17.875 20.5938V24.5938C20.5381 24.5938 22.625 22.394 22.625 19.7812H18.625Z" fill="#999999" mask="url(#path-1-inside-1)"/>
</svg>
