<svg width="16" height="10" viewBox="0 0 16 10" fill="none" xmlns="http://www.w3.org/2000/svg">
<path d="M15.634 1.60609C15.745 1.25409 15.634 0.996094 15.104 0.996094H13.354C12.909 0.996094 12.704 1.21809 12.592 1.46509C12.592 1.46509 11.702 3.51809 10.441 4.85409C10.033 5.24109 9.847 5.36309 9.625 5.36309C9.513 5.36309 9.353 5.24109 9.353 4.89109V1.60609C9.353 1.18309 9.223 0.996094 8.852 0.996094H6.102C5.823 0.996094 5.656 1.19209 5.656 1.37709C5.656 1.77509 6.287 1.86809 6.352 2.99409V5.43509C6.352 5.96909 6.25 6.06709 6.027 6.06709C5.434 6.06709 3.99 4.00209 3.134 1.64109C2.966 1.18209 2.798 0.996094 2.351 0.996094H0.6C0.1 0.996094 0 1.21809 0 1.46509C0 1.90309 0.593 4.08209 2.763 6.96309C4.21 8.92909 6.248 9.99509 8.102 9.99509C9.215 9.99509 9.353 9.75909 9.353 9.35009V7.86409C9.353 7.39109 9.458 7.29609 9.81 7.29609C10.07 7.29609 10.515 7.41909 11.554 8.36609C12.74 9.49109 12.936 9.99509 13.604 9.99509H15.354C15.854 9.99509 16.105 9.75909 15.96 9.29109C15.803 8.82509 15.236 8.15109 14.484 7.34909C14.076 6.89109 13.464 6.40009 13.279 6.15309C13.019 5.83709 13.093 5.69809 13.279 5.41609C13.279 5.41609 15.411 2.57109 15.634 1.60609Z" fill="#999999"/>
</svg>
