<svg width="20" height="12" viewBox="0 0 20 12" fill="none" xmlns="http://www.w3.org/2000/svg">
<path fill-rule="evenodd" clip-rule="evenodd" d="M2.93874 0.00169527H0.750317C0.125053 0.00169527 0 0.301822 0 0.62696C0 1.2022 0.750317 4.07842 3.45146 7.88003C5.26473 10.4686 7.81581 11.8817 10.1293 11.8817C11.5174 11.8817 11.6924 11.5691 11.6924 11.0314V9.06803C11.6924 8.44277 11.8175 8.31771 12.2677 8.31771C12.5928 8.31771 13.1431 8.48028 14.4436 9.73081C15.9317 11.2189 16.1693 11.8817 17.0072 11.8817H19.1956C19.8209 11.8817 20.1335 11.5691 19.9459 10.9563C19.7584 10.3311 19.0456 9.45569 18.1077 8.39274C17.6074 7.77999 16.8321 7.14222 16.607 6.81708C16.2819 6.3919 16.3569 6.20432 16.607 5.84167C16.607 5.84167 19.2707 2.09008 19.5458 0.802034C19.6833 0.339339 19.5458 0.00169527 18.883 0.00169527H16.6946C16.4899 -0.0105432 16.2868 0.0437321 16.1155 0.15642C15.9442 0.269109 15.8139 0.434167 15.7442 0.62696C15.7442 0.62696 14.6187 3.3281 13.0555 5.09135C12.5428 5.60406 12.3052 5.76663 12.0301 5.76663C11.905 5.76663 11.6924 5.60406 11.6924 5.14137V0.802034C11.6924 0.251801 11.5299 0.00169527 11.0672 0.00169527H7.62823C7.27808 0.00169527 7.06549 0.251801 7.06549 0.501907C7.06549 1.02713 7.86583 1.15218 7.94086 2.62781V5.85417C7.94086 6.56697 7.81581 6.69203 7.54069 6.69203C6.79037 6.69203 4.98961 3.96587 3.91416 0.852055C3.71407 0.251801 3.50148 0.00169527 2.93874 0.00169527Z" fill="white"/>
</svg>
