<svg xmlns="http://www.w3.org/2000/svg" viewBox="0 0 217 217"><defs><style>.cls-1{fill:#006247;}</style></defs><g id="Oracle"><path class="cls-1" d="M147,122a66.92,66.92,0,1,0-24.65,24.65l58.19,58.19,24.65-24.65Zm-20.19,4.46a53.57,53.57,0,1,1,0-75.8A53.66,53.66,0,0,1,126.83,126.43Zm55.63,49.93,3.8,3.8-5.7,5.71-3.81-3.81Zm-43.3-43.31L173,166.88l-5.7,5.71-33.83-33.83Z"/><polygon class="cls-1" points="63.86 64.75 40.79 87.81 63.63 110.65 73.1 101.18 59.74 87.81 73.33 74.22 63.86 64.75"/><rect class="cls-1" x="67.01" y="82.67" width="39.75" height="13.4" transform="translate(-27.69 138.44) rotate(-68.99)"/><polygon class="cls-1" points="102.21 74.22 115.8 87.81 102.44 101.18 111.91 110.65 134.75 87.81 111.68 64.75 102.21 74.22"/></g></svg>