<svg width="106" height="106" viewBox="0 0 106 106" fill="none" xmlns="http://www.w3.org/2000/svg">
<path d="M36 104V77.7158C36 76.6527 35.4374 75.669 34.5211 75.13L6.52106 58.6594C4.52116 57.483 2 58.925 2 61.2453V101C2 102.657 3.34315 104 5 104H36ZM36 104V61.2453C36 58.925 38.5212 57.483 40.5211 58.6594L57.5 68.6471M36 104H70M70 104V77.7158C70 76.6527 69.4374 75.669 68.5211 75.13L57.5 68.6471M70 104V61.2452C70 58.925 72.5212 57.483 74.5211 58.6594L91 68.3529M70 104H101C102.657 104 104 102.657 104 101V77.7158C104 76.6527 103.437 75.669 102.521 75.13L91 68.3529M57.5 68.6471L60.7897 25.2731C60.9083 23.7088 62.2122 22.5 63.7811 22.5H84.7203C86.2886 22.5 87.5922 23.7079 87.7116 25.2717L91 68.3529M40 20.5V20C40 16.6863 37.3137 14 34 14V14C30.6863 14 28 11.3137 28 8V8C28 4.68629 25.3137 2 22 2H20C16.6863 2 14 4.68629 14 8V8C14 11.3137 11.3137 14 8 14V14C4.68629 14 2 16.6863 2 20V20.5C2 24.0899 4.91015 27 8.5 27H33.5C37.0899 27 40 24.0899 40 20.5Z" stroke="#A1A8A1" stroke-width="3"/>
</svg>
