<svg  xmlns="http://www.w3.org/2000/svg">
  <symbol id="instagram" viewBox="0 0 18 18">
    <path
      d="M9.02009 4.35938C6.44866 4.35938 4.39955 6.44866 4.39955 8.97991C4.39955 11.5513 6.44866 13.6004 9.02009 13.6004C11.5513 13.6004 13.6406 11.5513 13.6406 8.97991C13.6406 6.44866 11.5513 4.35938 9.02009 4.35938ZM9.02009 11.9933C7.37277 11.9933 6.0067 10.6674 6.0067 8.97991C6.0067 7.33259 7.33259 6.0067 9.02009 6.0067C10.6674 6.0067 11.9933 7.33259 11.9933 8.97991C11.9933 10.6674 10.6674 11.9933 9.02009 11.9933ZM14.8862 4.19866C14.8862 3.59598 14.404 3.11384 13.8013 3.11384C13.1987 3.11384 12.7165 3.59598 12.7165 4.19866C12.7165 4.80134 13.1987 5.28348 13.8013 5.28348C14.404 5.28348 14.8862 4.80134 14.8862 4.19866ZM17.9397 5.28348C17.8594 3.83705 17.5379 2.55134 16.4933 1.5067C15.4487 0.462054 14.1629 0.140625 12.7165 0.0602679C11.2299 -0.0200893 6.77009 -0.0200893 5.28348 0.0602679C3.83705 0.140625 2.59152 0.462054 1.5067 1.5067C0.462054 2.55134 0.140625 3.83705 0.0602679 5.28348C-0.0200893 6.77009 -0.0200893 11.2299 0.0602679 12.7165C0.140625 14.1629 0.462054 15.4085 1.5067 16.4933C2.59152 17.5379 3.83705 17.8594 5.28348 17.9397C6.77009 18.0201 11.2299 18.0201 12.7165 17.9397C14.1629 17.8594 15.4487 17.5379 16.4933 16.4933C17.5379 15.4085 17.8594 14.1629 17.9397 12.7165C18.0201 11.2299 18.0201 6.77009 17.9397 5.28348ZM16.0112 14.2835C15.7299 15.0871 15.0871 15.6897 14.3237 16.0112C13.1183 16.4933 10.3058 16.3728 9.02009 16.3728C7.6942 16.3728 4.8817 16.4933 3.71652 16.0112C2.91295 15.6897 2.31027 15.0871 1.98884 14.2835C1.5067 13.1183 1.62723 10.3058 1.62723 8.97991C1.62723 7.6942 1.5067 4.8817 1.98884 3.67634C2.31027 2.91295 2.91295 2.31027 3.71652 1.98884C4.8817 1.5067 7.6942 1.62723 9.02009 1.62723C10.3058 1.62723 13.1183 1.5067 14.3237 1.98884C15.0871 2.27009 15.6897 2.91295 16.0112 3.67634C16.4933 4.8817 16.3728 7.6942 16.3728 8.97991C16.3728 10.3058 16.4933 13.1183 16.0112 14.2835Z" />
  </symbol>
  <symbol id="catalog" viewBox="0 0 18 18">
    <path
      d="M1 2C1 1.44772 1.44772 1 2 1H6C6.55228 1 7 1.44772 7 2V6C7 6.55228 6.55228 7 6 7H2C1.44772 7 1 6.55228 1 6V2ZM11 2C11 1.44772 11.4477 1 12 1H16C16.5523 1 17 1.44772 17 2V6C17 6.55228 16.5523 7 16 7H12C11.4477 7 11 6.55228 11 6V2ZM1 12C1 11.4477 1.44772 11 2 11H6C6.55228 11 7 11.4477 7 12V16C7 16.5523 6.55228 17 6 17H2C1.44772 17 1 16.5523 1 16V12ZM11 12C11 11.4477 11.4477 11 12 11H16C16.5523 11 17 11.4477 17 12V16C17 16.5523 16.5523 17 16 17H12C11.4477 17 11 16.5523 11 16V12Z" />
  </symbol>
  <symbol id="cross" viewBox="0 0 20 18" width="16" height="16">
    <path
      d="M11.6584 1.41421L10.2442 0L6.00161 4.24262L1.75902 3.20673e-05L0.344807 1.41425L4.58739 5.65683L0.344727 9.8995L1.75894 11.3137L6.0016 7.07104L10.2443 11.3137L11.6585 9.89953L7.41582 5.65683L11.6584 1.41421Z" />
  </symbol>
  <symbol id="search" viewBox="0 0 18 18">
    <path
      d="M15.646 13.866L11.896 10.116C12.7398 8.866 13.1773 7.3035 12.9585 5.616C12.5523 2.741 10.2085 0.428501 7.36478 0.0535006C3.11478 -0.477749 -0.47897 3.116 0.0522799 7.366C0.42728 10.2098 2.73978 12.5535 5.61478 12.9598C7.30228 13.1785 8.86478 12.741 10.146 11.8973L13.8648 15.6473C14.3648 16.116 15.146 16.116 15.646 15.6473C16.1148 15.1473 16.1148 14.366 15.646 13.866ZM2.48978 6.491C2.48978 4.3035 4.27103 2.491 6.48978 2.491C8.67728 2.491 10.4898 4.3035 10.4898 6.491C10.4898 8.70975 8.67728 10.491 6.48978 10.491C4.27103 10.491 2.48978 8.70975 2.48978 6.491Z" />
  </symbol>
  <symbol id="vk" viewBox="0 0 18 18">
    <path
      d="M9.87109 11.2451C10.3278 11.2451 10.5146 10.9406 10.5093 10.5588C10.4861 9.12115 11.0448 8.34718 12.0535 9.35589C13.1695 10.4718 13.4004 11.2451 14.7556 11.2451H17.1555C17.7615 11.2451 18 11.0501 18 10.7441C18 10.0969 16.9343 8.95466 16.0313 8.11619C14.7669 6.94249 14.7076 6.91474 15.7966 5.5018C17.1473 3.74763 18.9142 1.49997 17.3513 1.49997H14.3657C13.7867 1.49997 13.7447 1.82621 13.5384 2.31218C12.7922 4.07236 11.374 6.35227 10.8355 6.00353C10.2723 5.6398 10.5303 4.19911 10.5731 2.05795C10.5843 1.49247 10.5813 1.10474 9.71735 0.903744C9.24562 0.794998 8.78663 0.75 8.36065 0.75C6.65597 0.75 5.48002 1.46472 6.14824 1.58921C7.32644 1.80896 7.2132 4.3581 6.93871 5.45905C6.46023 7.37597 4.66181 3.94112 3.91259 2.23044C3.73184 1.81946 3.67635 1.49997 3.03137 1.49997H0.590225C0.221241 1.49997 0 1.61996 0 1.88695C0 2.33843 2.21991 6.92674 4.33932 9.21415C6.40623 11.4453 8.44915 11.2451 9.87109 11.2451Z" />
  </symbol>
  <symbol id="phone" viewBox="0 0 17 17">
    <path
      d="M16.9688 12.0937L16.2188 15.25C16.125 15.7187 15.75 16.0312 15.2812 16.0312C7.40625 16 1 9.59375 1 1.71875C1 1.25 1.28125 0.874996 1.75 0.781246L4.90625 0.0312464C5.34375 -0.0625036 5.8125 0.187496 6 0.593746L7.46875 4C7.625 4.40625 7.53125 4.875 7.1875 5.125L5.5 6.5C6.5625 8.65625 8.3125 10.4062 10.5 11.4687L11.875 9.78125C12.125 9.46875 12.5938 9.34375 13 9.5L16.4062 10.9687C16.8125 11.1875 17.0625 11.6562 16.9688 12.0937Z" />
  </symbol>
  <symbol id="arrow_down_white" viewBox="0 0 12 7">
    <path
      d="M11.4724 1.29517L6.43627 6.12037C6.30443 6.22584 6.14623 6.30494 5.98803 6.30494C5.82983 6.30494 5.67162 6.22584 5.56615 6.12037L0.530022 1.29517C0.26635 1.05787 0.26635 0.635994 0.503654 0.398689C0.740959 0.135017 1.13647 0.135017 1.40014 0.372322L6.0144 4.80201L10.6023 0.372322C10.8396 0.135018 11.2615 0.135018 11.4988 0.39869C11.7361 0.635994 11.7361 1.05787 11.4724 1.29517Z" />
  </symbol>
  <symbol id="arrow_left_white" viewBox="0 0 11 20">
    <path
      d="M9.06489 19.6453L0.558407 10.767C0.372473 10.5346 0.233022 10.2557 0.233022 9.97676C0.233022 9.69786 0.372473 9.41896 0.558407 9.23302L9.06489 0.354666C9.48325 -0.11017 10.227 -0.11017 10.6453 0.308182C11.1102 0.726534 11.1102 1.42379 10.6918 1.88862L2.88258 10.0232L10.6918 18.1114C11.1102 18.5297 11.1102 19.2735 10.6453 19.6918C10.227 20.1102 9.48325 20.1102 9.06489 19.6453Z" />
  </symbol>
  <symbol id="arrow_right_white" viewBox="0 0 11 20">
    <path
      d="M1.93511 0.354666L10.4416 9.23302C10.6275 9.46544 10.767 9.74434 10.767 10.0232C10.767 10.3021 10.6275 10.581 10.4416 10.767L1.93511 19.6453C1.51675 20.1102 0.773018 20.1102 0.354666 19.6918C-0.110169 19.2735 -0.110169 18.5762 0.308183 18.1114L8.11742 9.97676L0.308183 1.88862C-0.110169 1.47027 -0.110169 0.726535 0.354666 0.308183C0.773018 -0.110169 1.51675 -0.110169 1.93511 0.354666Z" />
  </symbol>
  <symbol id="arrow_up_dark" viewBox="0 0 12 7">
    <path
      d="M0.527474 5.20483L5.56361 0.379631C5.69544 0.274162 5.85365 0.19506 6.01185 0.19506C6.17005 0.19506 6.32826 0.274162 6.43372 0.379631L11.4699 5.20483C11.7335 5.44213 11.7335 5.86401 11.4962 6.10131C11.2589 6.36498 10.8634 6.36498 10.5997 6.12768L5.98548 1.69799L1.39759 6.12768C1.16029 6.36498 0.738411 6.36498 0.501107 6.10131C0.263802 5.86401 0.263802 5.44213 0.527474 5.20483Z" />
  </symbol>
  <symbol id="arrow_right_red" viewBox="0 0 7 12">
    <path
      d="M1.79517 0.527352L6.62037 5.56348C6.72584 5.69532 6.80494 5.85352 6.80494 6.01173C6.80494 6.16993 6.72584 6.32813 6.62037 6.4336L1.79517 11.4697C1.55787 11.7334 1.13599 11.7334 0.89869 11.4961C0.635018 11.2588 0.635018 10.8633 0.872323 10.5996L5.30201 5.98536L0.872323 1.39747C0.635018 1.16016 0.635018 0.738289 0.89869 0.500985C1.13599 0.26368 1.55787 0.26368 1.79517 0.527352Z" />
  </symbol>
  <symbol id="view" viewBox="0 0 16 13">
    <path
      d="M7.63574 3.52734C7.71777 3.52734 7.7998 3.5 7.88184 3.5C9.33105 3.5 10.5068 4.67578 10.5068 6.125C10.5068 7.57422 9.33105 8.75 7.88184 8.75C6.40527 8.75 5.25684 7.57422 5.25684 6.125C5.25684 6.07031 5.25684 5.98828 5.25684 5.90625C5.50293 6.04297 5.80371 6.125 6.13184 6.125C7.08887 6.125 7.88184 5.35938 7.88184 4.375C7.88184 4.07422 7.77246 3.77344 7.63574 3.52734ZM13.1318 2.21484C14.417 3.39062 15.2646 4.8125 15.6748 5.79688C15.7568 6.01562 15.7568 6.26172 15.6748 6.48047C15.2646 7.4375 14.417 8.85938 13.1318 10.0625C11.8467 11.2656 10.0693 12.25 7.88184 12.25C5.66699 12.25 3.88965 11.2656 2.60449 10.0625C1.31934 8.85938 0.47168 7.4375 0.0615234 6.48047C-0.0205078 6.26172 -0.0205078 6.01562 0.0615234 5.79688C0.47168 4.8125 1.31934 3.39062 2.60449 2.21484C3.88965 1.01172 5.66699 0 7.88184 0C10.0693 0 11.8467 1.01172 13.1318 2.21484ZM7.88184 2.1875C5.69434 2.1875 3.94434 3.96484 3.94434 6.125C3.94434 8.3125 5.69434 10.0625 7.88184 10.0625C10.042 10.0625 11.8193 8.3125 11.8193 6.125C11.8193 3.96484 10.042 2.1875 7.88184 2.1875Z" />
  </symbol>
  <symbol id="file" viewBox="0 0 16 16">
    <path
      d="M12.25 2.32031C11.4688 1.57031 10.25 1.57031 9.46875 2.32031L3.71875 8.07031C2.40625 9.38281 2.40625 11.5391 3.71875 12.8516C5.03125 14.1641 7.1875 14.1641 8.5 12.8516L13.25 8.10156C13.5938 7.75781 14.125 7.75781 14.4688 8.10156C14.8125 8.44531 14.8125 8.97656 14.4688 9.32031L9.71875 14.0703C7.71875 16.0703 4.5 16.0703 2.5 14.0703C0.5 12.0703 0.5 8.85156 2.5 6.85156L8.25 1.10156C9.6875 -0.367188 12.0312 -0.367188 13.4688 1.10156C14.9375 2.53906 14.9375 4.88281 13.4688 6.32031L7.96875 11.8203C7.09375 12.7266 5.625 12.7266 4.75 11.8203C3.84375 10.9453 3.84375 9.47656 4.75 8.60156L9.25 4.10156C9.59375 3.75781 10.125 3.75781 10.4688 4.10156C10.8125 4.44531 10.8125 4.97656 10.4688 5.32031L5.96875 9.82031C5.78125 10.0391 5.78125 10.3828 5.96875 10.6016C6.1875 10.7891 6.53125 10.7891 6.75 10.6016L12.25 5.10156C13 4.32031 13 3.10156 12.25 2.32031Z"
      fill="#192040" />
  </symbol>
  <symbol id="play" viewBox="0 0 13 14">
    <path
      d="M11.2838 5.70845C11.7213 5.98976 12.0027 6.48987 12.0027 6.98998C12.0027 7.52135 11.7213 8.02146 11.2838 8.27152L2.28176 13.7727C1.8129 14.054 1.21902 14.0853 0.750166 13.804C0.281312 13.5539 0 13.0538 0 12.4912V1.48877C0 0.957398 0.281312 0.457287 0.750166 0.207231C1.21902 -0.0740809 1.8129 -0.0740809 2.28176 0.238488L11.2838 5.70845Z" />
  </symbol>
  <symbol id="home" viewBox="0 0 14 12">
    <path
      d="M11.9766 6.75L12 10.5C12 11.3438 11.3203 12 10.5 12H3C2.15625 12 1.5 11.3438 1.5 10.5V6.75H0.75C0.328125 6.75 0 6.42188 0 6C0 5.78906 0.0703125 5.60156 0.234375 5.4375L6.23437 0.210938C6.39844 0.046875 6.58594 0 6.75 0C6.91406 0 7.10156 0.0703125 7.24219 0.1875L13.2187 5.4375C13.4062 5.60156 13.5 5.78906 13.4766 6C13.4766 6.42188 13.125 6.75 12.7266 6.75H11.9766ZM5.8125 4.5C5.48437 4.5 5.25 4.75781 5.25 5.0625V6.9375C5.25 7.26562 5.48437 7.5 5.8125 7.5H7.6875C7.99219 7.5 8.25 7.26562 8.25 6.9375V5.0625C8.25 4.75781 7.99219 4.5 7.6875 4.5H5.8125Z" />
  </symbol>
  <symbol id="telegram" viewBox="0 0 18 15">
    <path fill-rule="evenodd" clip-rule="evenodd"
      d="M13.788 14.834C14.0295 15.005 14.3407 15.0478 14.6182 14.9428C14.8957 14.837 15.0997 14.6 15.1612 14.3128C15.8129 11.2499 17.3939 3.49728 17.9871 0.711095C18.0321 0.5011 17.9571 0.282855 17.7921 0.142608C17.6271 0.00236116 17.3984 -0.038138 17.1944 0.0376103C14.0497 1.20158 4.3652 4.83525 0.406789 6.29997C0.155545 6.39297 -0.00795143 6.63446 0.000298384 6.8992C0.00929818 7.1647 0.187794 7.39494 0.445038 7.47219C2.22025 8.00318 4.55044 8.74191 4.55044 8.74191C4.55044 8.74191 5.63942 12.0306 6.20716 13.703C6.27841 13.913 6.44265 14.078 6.6594 14.135C6.87539 14.1913 7.10639 14.132 7.26763 13.9798C8.17961 13.1188 9.58958 11.7876 9.58958 11.7876C9.58958 11.7876 12.2685 13.7518 13.788 14.834ZM5.53067 8.32642L6.78989 12.4798L7.06964 9.84964C7.06964 9.84964 11.9348 5.46149 14.7082 2.96029C14.7892 2.8868 14.8005 2.7638 14.733 2.67755C14.6662 2.5913 14.5432 2.57105 14.451 2.62955C11.2365 4.68225 5.53067 8.32642 5.53067 8.32642Z"
      fill="#192040" />
  </symbol>
  <symbol id="whatsapp" viewBox="0 0 18 18">
    <path
      d="M0 18L1.26525 13.3778C0.4845 12.0247 0.07425 10.491 0.075 8.91825C0.07725 4.00125 4.0785 0 8.99475 0C11.3805 0.00075 13.62 0.93 15.3045 2.616C16.9883 4.302 17.9153 6.543 17.9145 8.9265C17.9123 13.8443 13.911 17.8455 8.99475 17.8455C7.50225 17.8448 6.0315 17.4705 4.72875 16.7595L0 18ZM4.94775 15.1448C6.20475 15.891 7.40475 16.338 8.99175 16.3387C13.0777 16.3387 16.4062 13.0133 16.4085 8.925C16.41 4.8285 13.0972 1.5075 8.99775 1.506C4.90875 1.506 1.5825 4.8315 1.581 8.919C1.58025 10.5878 2.06925 11.8372 2.8905 13.1445L2.14125 15.8805L4.94775 15.1448ZM13.488 11.0468C13.4325 10.9537 13.284 10.8982 13.0605 10.7865C12.8378 10.6748 11.742 10.1355 11.5372 10.0612C11.3332 9.987 11.1847 9.9495 11.0355 10.173C10.887 10.3958 10.4595 10.8982 10.3298 11.0468C10.2 11.1953 10.0695 11.214 9.84675 11.1023C9.624 10.9905 8.9055 10.7557 8.05425 9.996C7.392 9.405 6.94425 8.67525 6.8145 8.45175C6.68475 8.229 6.801 8.10825 6.912 7.99725C7.0125 7.8975 7.13475 7.737 7.2465 7.6065C7.35975 7.4775 7.3965 7.3845 7.4715 7.23525C7.54575 7.08675 7.509 6.95625 7.45275 6.8445C7.3965 6.7335 6.951 5.63625 6.76575 5.19C6.58425 4.75575 6.4005 4.81425 6.264 4.8075L5.8365 4.8C5.688 4.8 5.4465 4.8555 5.2425 5.079C5.0385 5.3025 4.4625 5.841 4.4625 6.93825C4.4625 8.0355 5.26125 9.09525 5.37225 9.24375C5.484 9.39225 6.9435 11.6438 9.17925 12.609C9.711 12.8385 10.1265 12.9757 10.4497 13.0785C10.9837 13.248 11.4698 13.224 11.8538 13.167C12.282 13.1032 13.1723 12.6277 13.3583 12.1073C13.5443 11.586 13.5443 11.1398 13.488 11.0468Z"
      fill="#192040" />
  </symbol>
  <symbol id="ok" viewBox="0 0 15 25">
    <path
      d="M12.6215 15.6562C14.1215 14.6719 14.8246 14.1094 14.2152 12.8906C13.8871 12.2344 12.9027 11.6719 11.684 12.6562C11.684 12.6562 9.94958 14.0156 7.23083 14.0156C4.46521 14.0156 2.77771 12.6562 2.77771 12.6562C1.51208 11.625 0.574585 12.2344 0.199585 12.8906C-0.362915 14.1094 0.293334 14.6719 1.79333 15.6562C3.10583 16.5 4.88708 16.8281 6.05896 16.9219L5.07458 17.9062C3.71521 19.2656 2.44958 20.5781 1.51208 21.4688C0.199584 22.7812 2.30896 24.8906 3.66833 23.625L7.23083 20.0156C8.59021 21.4219 9.90271 22.7344 10.7933 23.625C12.1058 24.9375 14.2621 22.8281 12.9496 21.4688L8.40271 16.9219C9.57458 16.8281 11.309 16.5 12.6215 15.6562ZM1.13708 6.09375C1.13708 9.46875 3.85583 12.1875 7.23083 12.1875C10.559 12.1875 13.2777 9.46875 13.2777 6.09375C13.2777 2.71875 10.559 0 7.23083 0C3.85583 0 1.13708 2.71875 1.13708 6.09375ZM4.23083 6.09375C4.23083 4.45312 5.54333 3.09375 7.23083 3.09375C8.87146 3.09375 10.184 4.45312 10.184 6.09375C10.184 7.73438 8.87146 9.09375 7.23083 9.09375C5.54333 9.09375 4.23083 7.73438 4.23083 6.09375Z"
      fill="#F89F1F" />
  </symbol>
  <symbol id="facebook" viewBox="0 0 13 24">
    <path
      d="M12.0781 13.5L12.7344 9.1875H8.5625V6.375C8.5625 5.15625 9.125 4.03125 11 4.03125H12.9219V0.328125C12.9219 0.328125 11.1875 0 9.54688 0C6.125 0 3.875 2.10938 3.875 5.85938V9.1875H0.03125V13.5H3.875V24H8.5625V13.5H12.0781Z"
      fill="#3B5998" />
  </symbol>
  <symbol id="twitter" viewBox="0 0 24 20">
    <path
      d="M21.5156 4.82812C22.4531 4.125 23.2969 3.28125 23.9531 2.29688C23.1094 2.67188 22.125 2.95312 21.1406 3.04688C22.1719 2.4375 22.9219 1.5 23.2969 0.328125C22.3594 0.890625 21.2812 1.3125 20.2031 1.54688C19.2656 0.5625 18 0 16.5938 0C13.875 0 11.6719 2.20312 11.6719 4.92188C11.6719 5.29688 11.7188 5.67188 11.8125 6.04688C7.73438 5.8125 4.07812 3.84375 1.64062 0.890625C1.21875 1.59375 0.984375 2.4375 0.984375 3.375C0.984375 5.0625 1.82812 6.5625 3.1875 7.45312C2.39062 7.40625 1.59375 7.21875 0.9375 6.84375V6.89062C0.9375 9.28125 2.625 11.25 4.875 11.7188C4.5 11.8125 4.03125 11.9062 3.60938 11.9062C3.28125 11.9062 3 11.8594 2.67188 11.8125C3.28125 13.7812 5.10938 15.1875 7.26562 15.2344C5.57812 16.5469 3.46875 17.3438 1.17188 17.3438C0.75 17.3438 0.375 17.2969 0 17.25C2.15625 18.6562 4.73438 19.4531 7.54688 19.4531C16.5938 19.4531 21.5156 12 21.5156 5.48438C21.5156 5.25 21.5156 5.0625 21.5156 4.82812Z"
      fill="#1DA1F2" />
  </symbol>
  <symbol id="filter" viewBox="0 0 14 13">
    <path
      d="M0.0922852 0.628906C0.283691 0.246094 0.666504 0 1.104 0H12.9165C13.3267 0 13.7095 0.246094 13.9009 0.628906C14.0649 1.01172 14.0103 1.47656 13.7368 1.80469L8.76025 7.90234V11.375C8.76025 11.7305 8.56885 12.0312 8.26807 12.168C7.96729 12.3047 7.61182 12.2773 7.33838 12.0859L5.58838 10.7734C5.36963 10.6094 5.26025 10.3633 5.26025 10.0625V7.90234L0.256348 1.80469C-0.0170898 1.47656 -0.0717773 1.01172 0.0922852 0.628906Z"
      fill="#192040" />
  </symbol>
  <symbol id="i" viewBox="0 0 4 8">
    <path
      d="M3.04961 6.8H2.34961V2.95C2.33017 2.73611 2.2135 2.61944 1.99961 2.6H1.41628C1.20239 2.61944 1.08572 2.73611 1.06628 2.95C1.08572 3.16389 1.20239 3.28056 1.41628 3.3H1.64961V6.8H0.949609C0.73572 6.81944 0.619054 6.93611 0.599609 7.15C0.619054 7.36389 0.73572 7.48056 0.949609 7.5H3.04961C3.2635 7.48056 3.38017 7.36389 3.39961 7.15C3.38017 6.93611 3.2635 6.81944 3.04961 6.8ZM1.99961 1.9C2.19405 1.89028 2.35933 1.82222 2.49544 1.69583C2.62183 1.55972 2.68989 1.39444 2.69961 1.2C2.68989 1.00556 2.62183 0.840278 2.49544 0.704167C2.35933 0.577778 2.19405 0.509722 1.99961 0.5C1.80517 0.509722 1.63989 0.577778 1.50378 0.704167C1.37739 0.840278 1.30933 1.00556 1.29961 1.2C1.30933 1.39444 1.37739 1.55972 1.50378 1.69583C1.63989 1.82222 1.80517 1.89028 1.99961 1.9Z" />
  </symbol>
  <symbol id="see" viewBox="0 0 18 17">
    <path
      d="M9.5625 10.8906L7.09375 8.42188L15 0.515625C15.6875 -0.171875 16.7812 -0.171875 17.4688 0.515625C18.1562 1.20312 18.1562 2.29688 17.4688 2.98438L9.5625 10.8906ZM6.40625 9.10938L8.875 11.5781C8.9375 11.8906 9 12.1719 9 12.4844C9 14.4219 7.40625 15.9844 5.5 15.9844H1C0.4375 15.9844 0 15.5469 0 14.9844C0 14.4531 0.4375 13.9844 1 13.9844H1.125C1.6875 13.9844 2.0625 13.4219 2 12.8594C2 12.7344 2 12.6094 2 12.4844C2 10.5781 3.5625 8.98438 5.5 8.98438C5.8125 8.98438 6.09375 9.04688 6.40625 9.10938ZM6.0625 8.04688C5.875 8.01562 5.6875 7.98438 5.5 7.98438C5.46875 7.98438 5.4375 7.98438 5.40625 7.98438L1.5625 4.17188C0.78125 3.39062 0.78125 2.10938 1.5625 1.32812L2.3125 0.609375C3.09375 -0.171875 4.34375 -0.171875 5.125 0.609375L9.3125 4.79688L6.0625 8.04688ZM10 12.4844C10 12.2969 9.96875 12.1094 9.9375 11.9219L13.1875 8.67188L15.5625 11.0469C15.7812 11.2344 15.9375 11.5156 16 11.7969L16.9375 15.0469C17 15.2969 16.9375 15.5781 16.75 15.7656C16.5625 15.9844 16.2812 16.0469 16 15.9844L12.75 15.0469C12.4688 14.9531 12.2188 14.7969 12 14.6094L9.96875 12.5781C9.96875 12.5469 10 12.5156 10 12.4844Z" />
  </symbol>
</svg>