<svg xmlns="http://www.w3.org/2000/svg" viewBox="0 0 760 760" width="760" height="760" preserveAspectRatio="xMidYMid meet" style="width: 100%; height: 100%; transform: translate3d(0px, 0px, 0px);"><defs><clipPath id="__lottie_element_595"><rect width="760" height="760" x="0" y="0"></rect></clipPath></defs><g clip-path="url(#__lottie_element_595)"><g transform="matrix(0,0,0,0,344,348)" opacity="1" style="display: block;"><g opacity="1" transform="matrix(0.5035176277160645,-0.8639849424362183,0.8639849424362183,0.5035176277160645,175.41799926757812,50.81999969482422)"><path fill="rgb(209,240,246)" fill-opacity="1" d=" M189.53199768066406,-200.0659942626953 C93.1780014038086,-274.697998046875 18.399999618530273,-301.72198486328125 -127.51899719238281,-290.4679870605469 C-211.01400756835938,-280.2929992675781 -382.75,-218.68600463867188 -364.2300109863281,-98.12799835205078 C-342.7279968261719,41.84299850463867 -222.3679962158203,152.73599243164062 -97.91200256347656,210.2519989013672 C19.753000259399414,264.6300048828125 177.86700439453125,268.4540100097656 258.6289978027344,187.5709991455078 C360.0830078125,85.96700286865234 333.8810119628906,-4.489999771118164 307.72198486328125,-61.57699966430664 C290.9119873046875,-98.26300048828125 254.593994140625,-149.67100524902344 189.53199768066406,-200.0659942626953z"></path></g></g><g transform="matrix(1,0,0,1,210.61099243164062,558.18701171875)" opacity="1" style="display: block;"><g opacity="1" transform="matrix(1,0,0,1,171.48599243164062,68.98400115966797)"><path fill="rgb(168,214,223)" fill-opacity="1" d=" M34.691001892089844,66.20600128173828 C95.78600311279297,66.20600128173828 129.88800048828125,31.527999877929688 143.91099548339844,23.381999969482422 C150.218994140625,20.04199981689453 153.6959991455078,15.765999794006348 158.58900451660156,12.144000053405762 C167.06500244140625,5.873000144958496 167.13600158691406,-0.8309999704360962 168.8159942626953,-7.60699987411499 C171.23599243164062,-17.375 168.30099487304688,-26.98699951171875 159.49000549316406,-36.21900177001953 C154.0780029296875,-41.88999938964844 143.81500244140625,-45.80500030517578 133.36599731445312,-49.44499969482422 C108.57099914550781,-58.08399963378906 80.80699920654297,-62.904998779296875 50.95100021362305,-65.52100372314453 C14.267000198364258,-68.73300170898438 -21.861000061035156,-67.85800170898438 -58.25299835205078,-66.83999633789062 C-87.63899993896484,-66.01699829101562 -113.11799621582031,-61.20600128173828 -137.20399475097656,-54.45100021362305 C-148.86900329589844,-51.180999755859375 -155.2469940185547,-45.92100143432617 -160.30599975585938,-40.125999450683594 C-171.23599243164062,-27.60300064086914 -170.47000122070312,-14.654999732971191 -162.95399475097656,-1.4639999866485596 C-159.03199768066406,5.420000076293945 -155.3209991455078,12.395000457763672 -149.61599731445312,19.01799964904785 C-140.13299560546875,30.023000717163086 -113.86499786376953,68.73400115966797 -3.252000093460083,65.89399719238281 C-3.252000093460083,65.89399719238281 34.691001892089844,66.20600128173828 34.691001892089844,66.20600128173828z"></path></g></g><g transform="matrix(1,0,0,1,134.6409912109375,274.70001220703125)" opacity="1" style="display: block;"><g opacity="1" transform="matrix(1,0,0,1,241.156005859375,180.28399658203125)"><path fill="rgb(57,85,71)" fill-opacity="1" d=" M-23.320999145507812,-178.93800354003906 C-83.90499877929688,-172.5570068359375 -134.6269989013672,-160.1959991455078 -178.17300415039062,-130.57699584960938 C-222.93899536132812,-100.12699890136719 -240.906005859375,-61.316001892089844 -230.35699462890625,-11.663999557495117 C-221.02099609375,32.27299880981445 -203.5489959716797,56.72800064086914 -172.59800720214844,91.50800323486328 C-114.2490005493164,157.07899475097656 -20.832000732421875,180.03399658203125 65.86699676513672,153.3509979248047 C158.39199829101562,124.8740005493164 204.36900329589844,83.15399932861328 225.5489959716797,0.6899999976158142 C240.90699768066406,-59.10599899291992 212.68099975585938,-98.46900177001953 162.2790069580078,-130.96099853515625 C122.90399932861328,-156.343994140625 77.82099914550781,-170.4949951171875 29.882999420166016,-177.25799560546875 C10.211000442504883,-180.03399658203125 -10.29699993133545,-178.6199951171875 -23.320999145507812,-178.93800354003906z"></path></g></g><g transform="matrix(0.5150380730628967,-0.8571673035621643,0.8571673035621643,0.5150380730628967,80.35287475585938,216.0327606201172)" opacity="1" style="display: block;"><g opacity="1" transform="matrix(1,0,0,1,18.6299991607666,54.63399887084961)"><path fill="rgb(23,51,40)" fill-opacity="1" d=" M2.9609999656677246,53.88800048828125 C2.9609999656677246,53.88800048828125 18.6299991607666,54.63399887084961 18.6299991607666,54.63399887084961 C14.925999641418457,35.35900115966797 10.835000038146973,14.906000137329102 6.061999797821045,-7.817999839782715 C3.9110000133514404,-18.058000564575195 1.0240000486373901,-28.167999267578125 -1.2130000591278076,-38.37900161743164 C-3.7839999198913574,-50.10499954223633 -8.925000190734863,-58.04999923706055 -12.956999778747559,-53.17499923706055 C-15.791000366210938,-49.74700164794922 -21.577999114990234,-54.19900131225586 -16.809999465942383,-34.624000549316406 C-8.670999526977539,-1.2009999752044678 -2.568000078201294,26.92099952697754 2.9609999656677246,53.88800048828125z"></path></g><g opacity="1" transform="matrix(1,0,0,1,48.0989990234375,219.6999969482422)"><path fill="rgb(23,51,40)" fill-opacity="1" d=" M-23.39299964904785,-95.83699798583984 C-14.869000434875488,-53.41400146484375 -7.126999855041504,-11.986000061035156 5.625,44.94200134277344 C9.192999839782715,62.7859992980957 12.736000061035156,77.98200225830078 14.769000053405762,94.73500061035156 C20.621999740600586,98.85600280761719 23.634000778198242,90.3030014038086 23.378000259399414,87.43299865722656 C11.130999565124512,15.602999687194824 3.4260001182556152,-34.52399826049805 -7.922999858856201,-95.08100128173828 C-7.922999858856201,-95.08100128173828 -23.39299964904785,-95.83699798583984 -23.39299964904785,-95.83699798583984z"></path></g></g><g transform="matrix(0.6427876353263855,-0.7660444378852844,0.7660444378852844,0.6427876353263855,47.791107177734375,245.67222595214844)" opacity="1" style="display: block;"><g opacity="1" transform="matrix(1,0,0,1,30.44099998474121,54.77299880981445)"><path fill="rgb(23,51,40)" fill-opacity="1" d=" M-19.79599952697754,-20.540000915527344 C-9.574000358581543,3.2320001125335693 0.8180000185966492,26.91900062561035 11.156999588012695,50.63199996948242 C11.156999588012695,50.63199996948242 30.44099998474121,54.77299880981445 30.44099998474121,54.77299880981445 C22.406999588012695,35.939998626708984 14.145000457763672,17.23200035095215 5.315999984741211,-1.156000018119812 C-1.9600000381469727,-16.30699920654297 -9.072999954223633,-31.584999084472656 -16.356000900268555,-46.72200012207031 C-19.55500030517578,-53.37200164794922 -22.999000549316406,-55.50600051879883 -25.687999725341797,-54.558998107910156 C-26.798999786376953,-54.16699981689453 -27.950000762939453,-53.86600112915039 -28.99799919128418,-53.32899856567383 C-30.809999465942383,-52.400001525878906 -30.923999786376953,-49.433998107910156 -29.29800033569336,-44.3380012512207 C-26.724000930786133,-36.266998291015625 -23.16699981689453,-28.381000518798828 -19.79599952697754,-20.540000915527344z"></path></g><g opacity="1" transform="matrix(1,0,0,1,91.93000030517578,220.67300415039062)"><path fill="rgb(23,51,40)" fill-opacity="1" d=" M27.893999099731445,44.33000183105469 C20.516000747680664,21.780000686645508 -5.946000099182129,-50.270999908447266 -13.972000122070312,-70.14399719238281 C-17.202999114990234,-78.14299774169922 -20.60700035095215,-86.04900360107422 -23.915000915527344,-94.00800323486328 C-23.915000915527344,-94.00800323486328 -42.86600112915039,-98.10299682617188 -42.86600112915039,-98.10299682617188 C-38.84400177001953,-88.91200256347656 -34.90399932861328,-79.6780014038086 -30.860000610351562,-70.49800109863281 C-22.97599983215332,-52.599998474121094 -15.682000160217285,-33.38199996948242 -7.769999980926514,-15.496999740600586 C-2.7730000019073486,-1.5789999961853027 3.6659998893737793,14.015000343322754 11.989999771118164,34.27299880981445 C20.082000732421875,53.96799850463867 27.302000045776367,77.39700317382812 35.43000030517578,97.08000183105469 C36.584999084472656,99.87699890136719 39.86199951171875,96.19499969482422 42.52199935913086,94.86499786376953 C44.92499923706055,98.61499786376953 34.16699981689453,63.505001068115234 27.893999099731445,44.33000183105469z"></path></g></g><g transform="matrix(1,0,0,1,164.7579803466797,291.197021484375)" opacity="1" style="display: block;"><g opacity="1" transform="matrix(1,0,0,1,209.1020050048828,69.94999694824219)"><path fill="rgb(255,255,255)" fill-opacity="1" d=" M-204.43800354003906,69.6989974975586 C-203.3939971923828,55.933998107910156 -208.8520050048828,50.24700164794922 -198.40899658203125,41.39799880981445 C-187.96600341796875,32.54999923706055 -205.73899841308594,10.99899959564209 -186.052001953125,6.077000141143799 C-167.4340057373047,1.4229999780654907 -180.5540008544922,-19.74799919128418 -155.29100036621094,-20.4689998626709 C-130.197998046875,-21.184999465942383 -149.43699645996094,-35.154998779296875 -121.55400085449219,-39.801998138427734 C-93.62699890136719,-44.457000732421875 -102.35600280761719,-61.65700149536133 -76.2300033569336,-58.88399887084961 C-53.066001892089844,-56.42499923706055 -62.654998779296875,-65.76699829101562 -34.459999084472656,-67.73300170898438 C-6.264999866485596,-69.6989974975586 -17.9060001373291,-62.729000091552734 6.111999988555908,-61.74599838256836 C30.1299991607666,-60.76300048828125 34.5260009765625,-67.67400360107422 53.323001861572266,-63.74100112915039 C72.11900329589844,-59.80799865722656 73.97000122070312,-36.48400115966797 94.5479965209961,-41.797000885009766 C116.38899993896484,-47.4370002746582 119.1500015258789,-29.82900047302246 140.42799377441406,-27.834999084472656 C159.2519989013672,-26.06999969482422 153.06199645996094,-1.902999997138977 175.66900634765625,2.0869998931884766 C195.57899475097656,5.599999904632568 197.36599731445312,31.566999435424805 202.58700561523438,42.38199996948242 C207.80799865722656,53.196998596191406 208.8520050048828,68.9280014038086 208.8520050048828,68.9280014038086 C208.8520050048828,68.9280014038086 -204.43800354003906,69.6989974975586 -204.43800354003906,69.6989974975586z"></path></g></g><g transform="matrix(1,0,0,1,136.27999877929688,284.322998046875)" opacity="1" style="display: block;"><g opacity="1" transform="matrix(1,0,0,1,248.56700134277344,182.5970001220703)"><path fill="rgb(255,255,255)" fill-opacity="1" d=" M-214.9929962158203,-29.21299934387207 C-248.31700134277344,-71.96900177001953 -163.43800354003906,-126.44499969482422 -124.12799835205078,-142.51100158691406 C-26.65999984741211,-182.3470001220703 123.09300231933594,-132.98300170898438 200.5489959716797,-59.17900085449219 C248.31700134277344,-13.663000106811523 -50.10100173950195,182.3470001220703 -214.9929962158203,-29.21299934387207z"></path></g></g><g transform="matrix(1,0,0,1,375.1449890136719,435.7749938964844)" opacity="1" style="display: block;"><g opacity="1" transform="matrix(1,0,0,1,23.86400032043457,23.292999267578125)"><path fill="rgb(236,133,53)" fill-opacity="1" d=" M-23.863000869750977,23.292999267578125 C-23.863000869750977,23.292999267578125 -0.6000000238418579,20.136999130249023 8.706000328063965,15.482999801635742 C18.01300048828125,10.829999923706055 15.685999870300293,1.5240000486373901 17.238000869750977,-1.5779999494552612 C18.788000106811523,-4.681000232696533 23.86400032043457,-5.323999881744385 23.86400032043457,-5.323999881744385 C23.86400032043457,-5.323999881744385 18.01300048828125,-23.292999267578125 18.01300048828125,-23.292999267578125 C18.01300048828125,-23.292999267578125 4.828000068664551,-19.415000915527344 -1.3760000467300415,-2.3529999256134033 C-17.27400016784668,14.319999694824219 -23.863000869750977,23.292999267578125 -23.863000869750977,23.292999267578125z"></path></g></g><g transform="matrix(1,0,0,1,431.0820007324219,308.39801025390625)" opacity="1" style="display: block;"><g opacity="1" transform="matrix(1,0,0,1,15.572999954223633,9.947999954223633)"><path fill="rgb(255,255,255)" fill-opacity="1" d=" M-14.541999816894531,7.651000022888184 C-13.6899995803833,9.696999549865723 -2.7070000171661377,7.798999786376953 0.46299999952316284,6.5269999504089355 C3.634000062942505,5.254000186920166 8.991000175476074,0.12600000202655792 10.9350004196167,-1.7100000381469727 C12.876999855041504,-3.5450000762939453 15.322999954223633,-6.285999774932861 14.043000221252441,-7.992000102996826 C12.762999534606934,-9.696999549865723 2.4489998817443848,-9.428000450134277 -0.2540000081062317,-7.801000118255615 C-2.9579999446868896,-6.175000190734863 -10.105999946594238,-0.38199999928474426 -11.461999893188477,1.1640000343322754 C-12.817000389099121,2.7100000381469727 -15.322999954223633,5.771999835968018 -14.541999816894531,7.651000022888184z"></path></g></g><g transform="matrix(1,0,0,1,519.4229736328125,350.6510009765625)" opacity="1" style="display: block;"><g opacity="1" transform="matrix(1,0,0,1,16.70800018310547,7.498000144958496)"><path fill="rgb(255,255,255)" fill-opacity="1" d=" M-16.35300064086914,3.134999990463257 C-16.23900032043457,5.3480000495910645 -5.25600004196167,7.248000144958496 -1.8420000076293945,7.113999843597412 C1.5709999799728394,6.980000019073486 8.340999603271484,3.947999954223633 10.788000106811523,2.871999979019165 C13.234000205993652,1.7949999570846558 16.457000732421875,0.03400000184774399 15.824000358581543,-2.002000093460083 C15.190999984741211,-4.039000034332275 5.386000156402588,-7.248000144958496 2.2929999828338623,-6.624000072479248 C-0.7990000247955322,-5.999000072479248 -9.477999687194824,-2.943000078201294 -11.27400016784668,-1.9420000314712524 C-13.069999694824219,-0.9409999847412109 -16.457000732421875,1.1030000448226929 -16.35300064086914,3.134999990463257z"></path></g></g><g transform="matrix(1,0,0,1,448.53997802734375,311.4690246582031)" opacity="1" style="display: block;"><g opacity="1" transform="matrix(1,0,0,1,16.500999450683594,8.12600040435791)"><path fill="rgb(255,255,255)" fill-opacity="1" d=" M-15.883999824523926,5.230000019073486 C-15.484999656677246,7.409999847412109 -4.3480000495910645,7.875 -0.9810000061988831,7.300000190734863 C2.38700008392334,6.72599983215332 8.708000183105469,2.8459999561309814 10.994000434875488,1.4620000123977661 C13.281000137329102,0.07800000160932541 16.250999450683594,-2.0859999656677246 15.359000205993652,-4.0229997634887695 C14.468999862670898,-5.960999965667725 4.330999851226807,-7.875 1.3450000286102295,-6.855999946594238 C-1.6419999599456787,-5.836999893188477 -9.85200023651123,-1.684999942779541 -11.503000259399414,-0.46000000834465027 C-13.154999732971191,0.7649999856948853 -16.250999450683594,3.2290000915527344 -15.883999824523926,5.230000019073486z"></path></g></g><g transform="matrix(1,0,0,1,295.989990234375,296.3890075683594)" opacity="1" style="display: block;"><g opacity="1" transform="matrix(1,0,0,1,15.54800033569336,9.906000137329102)"><path fill="rgb(255,255,255)" fill-opacity="1" d=" M-14.032999992370605,-7.985000133514404 C-15.29800033569336,-6.164999961853027 -7.78000020980835,2.062999963760376 -4.998000144958496,4.046999931335449 C-2.2179999351501465,6.031000137329102 4.989999771118164,7.78000020980835 7.584000110626221,8.427000045776367 C10.177000045776367,9.074000358581543 13.803999900817871,9.656000137329102 14.550999641418457,7.6579999923706055 C15.29800033569336,5.659999847412109 9.51099967956543,-2.88100004196167 6.684000015258789,-4.281000137329102 C3.8559999465942383,-5.682000160217285 -4.875999927520752,-8.579999923706055 -6.9079999923706055,-8.887999534606934 C-8.940999984741211,-9.196000099182129 -12.871000289916992,-9.656000137329102 -14.032999992370605,-7.985000133514404z"></path></g></g><g transform="matrix(1,0,0,1,356.875,289.9490051269531)" opacity="1" style="display: block;"><g opacity="1" transform="matrix(1,0,0,1,13.840999603271484,12.640999794006348)"><path fill="rgb(255,255,255)" fill-opacity="1" d=" M-11.951000213623047,-11.020999908447266 C-13.590999603271484,-9.529000282287598 -8.098999977111816,0.17000000178813934 -5.830999851226807,2.7249999046325684 C-3.562999963760376,5.28000020980835 3.072000026702881,8.593999862670898 5.454999923706055,9.803999900817871 C7.839000225067139,11.013999938964844 11.244000434875488,12.390999794006348 12.418000221252441,10.611000061035156 C13.590999603271484,8.829999923706055 9.859000205993652,-0.7879999876022339 7.415999889373779,-2.7839999198913574 C4.9730000495910645,-4.78000020980835 -2.8919999599456787,-9.555999755859375 -4.804999828338623,-10.3100004196167 C-6.7170000076293945,-11.0649995803833 -10.446000099182129,-12.390999794006348 -11.951000213623047,-11.020999908447266z"></path></g></g><g transform="matrix(1,0,0,1,254.68399047851562,308.593017578125)" opacity="1" style="display: block;"><g opacity="1" transform="matrix(1,0,0,1,15.54800033569336,9.906000137329102)"><path fill="rgb(255,255,255)" fill-opacity="1" d=" M-14.032999992370605,-7.985000133514404 C-15.29800033569336,-6.164999961853027 -7.7789998054504395,2.062999963760376 -4.998000144958496,4.046999931335449 C-2.2170000076293945,6.0320000648498535 4.991000175476074,7.78000020980835 7.585000038146973,8.427000045776367 C10.178000450134277,9.074000358581543 13.805000305175781,9.656000137329102 14.550999641418457,7.6579999923706055 C15.29800033569336,5.659999847412109 9.51200008392334,-2.88100004196167 6.684000015258789,-4.281000137329102 C3.8570001125335693,-5.682000160217285 -4.875999927520752,-8.579999923706055 -6.9079999923706055,-8.887999534606934 C-8.940999984741211,-9.196000099182129 -12.871999740600586,-9.656000137329102 -14.032999992370605,-7.985000133514404z"></path></g></g><g transform="matrix(1,0,0,1,178.64199829101562,361.16400146484375)" opacity="1" style="display: block;"><g opacity="1" transform="matrix(1,0,0,1,15.54800033569336,9.906000137329102)"><path fill="rgb(255,255,255)" fill-opacity="1" d=" M-14.032999992370605,-7.985000133514404 C-15.29800033569336,-6.164999961853027 -7.7789998054504395,2.062999963760376 -4.997000217437744,4.046999931335449 C-2.2170000076293945,6.0320000648498535 4.991000175476074,7.78000020980835 7.585000038146973,8.427000045776367 C10.178000450134277,9.074000358581543 13.803999900817871,9.656000137329102 14.550999641418457,7.6579999923706055 C15.29800033569336,5.659999847412109 9.51200008392334,-2.88100004196167 6.684000015258789,-4.281000137329102 C3.8570001125335693,-5.682000160217285 -4.875999927520752,-8.579999923706055 -6.9079999923706055,-8.887999534606934 C-8.940999984741211,-9.196000099182129 -12.871999740600586,-9.656000137329102 -14.032999992370605,-7.985000133514404z"></path></g></g><g transform="matrix(1,0,0,1,392.7339782714844,292.5550231933594)" opacity="1" style="display: block;"><g opacity="1" transform="matrix(1,0,0,1,6.34499979019165,3.4570000171661377)"><path fill="rgb(255,255,255)" fill-opacity="1" d=" M6.294000148773193,2.2079999446868896 C6.482999801635742,-0.35600000619888306 6.203999996185303,-2.8929998874664307 4.386000156402588,-3.4119999408721924 C2.615999937057495,-3.9179999828338623 -2.874000072479248,-0.057999998331069946 -6.343999862670898,3.4579999446868896 C-1.3760000467300415,3.2839999198913574 2.6700000762939453,2.7799999713897705 6.294000148773193,2.2079999446868896z"></path></g></g><g transform="matrix(1,0,0,1,230.67298889160156,329.801025390625)" opacity="1" style="display: block;"><g opacity="1" transform="matrix(1,0,0,1,2.2750000953674316,4.052999973297119)"><path fill="rgb(255,255,255)" fill-opacity="1" d=" M2.2750000953674316,-3.0260000228881836 C0.8320000171661377,-3.9509999752044678 -0.6510000228881836,-4.480000019073486 -1.6009999513626099,-3.61299991607666 C-2.4600000381469727,-2.8289999961853027 -2.4240000247955322,0.7279999852180481 -1.9010000228881836,4.052999973297119 C0.3700000047683716,2.124000072479248 0.9150000214576721,-0.44600000977516174 2.2750000953674316,-3.0260000228881836z"></path></g></g><g transform="matrix(1,0,0,1,266.6659851074219,309.9070129394531)" opacity="1" style="display: block;"><g opacity="1" transform="matrix(1,0,0,1,95.01300048828125,57.435001373291016)"><path fill="rgb(201,103,29)" fill-opacity="1" d=" M19.86400032043457,-38.20000076293945 C26.34000015258789,-19.030000686645508 33.10100173950195,-27.777999877929688 46.84400177001953,-23.660999298095703 C60.5880012512207,-19.542999267578125 56.28200149536133,-17.613000869750977 63.15399932861328,-5.947000026702881 C70.0250015258789,5.718999862670898 63.84199905395508,4.34499979019165 73.46199798583984,17.382999420166016 C83.08300018310547,30.42099952697754 94.76300048828125,30.422000885009766 84.45600128173828,37.97100067138672 C74.14800262451172,45.51900100708008 87.89099884033203,57.185001373291016 71.39900207519531,51.69599914550781 C54.90800094604492,46.20500183105469 56.96900177001953,40.02899932861328 43.22600173950195,44.145999908447266 C29.482999801635742,48.26300048828125 29.482999801635742,53.75400161743164 12.303999900817871,48.95000076293945 C-4.875,44.14699935913086 -19.30500030517578,57.183998107910156 -16.55699920654297,40.71500015258789 C-13.807999610900879,24.2450008392334 -30.716999053955078,16.56800079345703 -61.638999938964844,19.99799919128418 C-92.56099700927734,23.429000854492188 -94.76399993896484,16.399999618530273 -93.38999938964844,6.105999946594238 C-92.01599884033203,-4.186999797821045 -71.02799987792969,-3.4690001010894775 -67.59200286865234,-13.076000213623047 C-64.15699768066406,-22.683000564575195 -70.8280029296875,-21.2810001373291 -55.02399826049805,-32.2599983215332 C-39.220001220703125,-43.2400016784668 -27.239999771118164,-30.274999618530273 -24.114999771118164,-42.316001892089844 C-20.2549991607666,-57.183998107910156 -7.623000144958496,-51.92399978637695 5.433000087738037,-48.49300003051758 C18.48900032043457,-45.0620002746582 19.86400032043457,-38.20000076293945 19.86400032043457,-38.20000076293945z"></path></g><g opacity="1" transform="matrix(1,0,0,1,111.8479995727539,51.55699920654297)"><path fill="rgb(239,236,201)" fill-opacity="1" d=" M1.3329999446868896,-0.7049999833106995 C-1.968000054359436,-2.615999937057495 -4.520999908447266,-1.059000015258789 -4.107999801635742,0.23100000619888306 C-3.694999933242798,1.5210000276565552 -3.9539999961853027,1.7569999694824219 -1.0420000553131104,2.187000036239624 C1.86899995803833,2.615999937057495 4.184999942779541,2.615000009536743 4.354000091552734,2.006999969482422 C4.520999908447266,1.3990000486373901 1.3329999446868896,-0.7049999833106995 1.3329999446868896,-0.7049999833106995z"></path></g><g opacity="1" transform="matrix(1,0,0,1,88.71399688720703,25.520000457763672)"><path fill="rgb(239,236,201)" fill-opacity="1" d=" M0.6779999732971191,1.4160000085830688 C2.921999931335449,-1.6679999828338623 1.6399999856948853,-4.368000030517578 0.3149999976158142,-4.0920000076293945 C-1.0110000371932983,-3.815000057220459 -1.2209999561309814,-4.0980000495910645 -1.9509999752044678,-1.246999979019165 C-2.680999994277954,1.6039999723434448 -2.921999931335449,3.9070000648498535 -2.3350000381469727,4.138000011444092 C-1.746999979019165,4.368000030517578 0.6779999732971191,1.4160000085830688 0.6779999732971191,1.4160000085830688z"></path></g><g opacity="1" transform="matrix(1,0,0,1,41.8129997253418,39.04800033569336)"><path fill="rgb(239,236,201)" fill-opacity="1" d=" M0.5130000114440918,2.305999994277954 C4.214000225067139,0.33500000834465027 4.24399995803833,-2.9519999027252197 2.8010001182556152,-3.315999984741211 C1.3580000400543213,-3.680000066757202 1.2860000133514404,-4.059999942779541 -0.8059999942779541,-1.590999960899353 C-2.8989999294281006,0.8769999742507935 -4.243000030517578,3.0390000343322754 -3.7730000019073486,3.549999952316284 C-3.302999973297119,4.059999942779541 0.5130000114440918,2.305999994277954 0.5130000114440918,2.305999994277954z"></path></g></g><g transform="matrix(1,0,0,1,361.93902587890625,308.95599365234375)" opacity="1" style="display: block;"><g opacity="1" transform="matrix(1,0,0,1,25.049999237060547,59.145999908447266)"><path fill="rgb(218,38,12)" fill-opacity="1" d=" M17.61199951171875,-51.27199935913086 C19.81100082397461,-42.404998779296875 24.799999237060547,-25.027999877929688 20.524999618530273,-4.934999942779541 C16.957000732421875,11.838000297546387 9.654000282287598,35.36399841308594 -19.086000442504883,56.0890007019043 C-24.764999389648438,58.895999908447266 -24.799999237060547,54.180999755859375 -24.799999237060547,54.180999755859375 C-24.799999237060547,54.180999755859375 -8.229999542236328,37.23400115966797 2.821000099182129,7.879000186920166 C11.98900032043457,-16.47100067138672 12.487000465393066,-52.22100067138672 12.487000465393066,-52.22100067138672 C12.487000465393066,-52.22100067138672 15.720999717712402,-58.895999908447266 17.61199951171875,-51.27199935913086z"></path></g></g><g transform="matrix(1,0,0,1,372.6839904785156,362.42498779296875)" opacity="1" style="display: block;"><g opacity="1" transform="matrix(1,0,0,1,76.34100341796875,62.58700180053711)"><path fill="rgb(222,125,44)" fill-opacity="1" d=" M-17.283000946044922,-56.6870002746582 C2.1540000438690186,-62.33700180053711 -8.793999671936035,-39.814998626708984 11.482000350952148,-51.58000183105469 C24.99799919128418,-59.422000885009766 32.57500076293945,-61.15399932861328 40.24599838256836,-51.58000183105469 C47.91699981689453,-42.00400161743164 41.525001525878906,-45.83399963378906 49.83399963378906,-36.2599983215332 C58.14500045776367,-26.684999465942383 56.8650016784668,-37.5359992980957 58.14500045776367,-19.663000106811523 C59.42300033569336,-1.7890000343322754 53.66999816894531,-4.980999946594238 61.97999954223633,5.869999885559082 C70.28900146484375,16.722000122070312 76.09100341796875,12.121999740600586 71.56800079345703,25.020000457763672 C68.81700134277344,32.8650016784668 70.177001953125,47.11800003051758 52.917999267578125,39.45800018310547 C35.659000396728516,31.79800033569336 35.77199935913086,28.21299934387207 27.461999893188477,40.97999954223633 C19.152999877929688,53.74599838256836 23.304000854492188,55.922000885009766 14.529000282287598,58.84700012207031 C4.059999942779541,62.33700180053711 -6.021999835968018,48.76499938964844 -6.416999816894531,42.25600051879883 C-7.497000217437744,24.395999908447266 -15.28600025177002,42.137001037597656 -26.152000427246094,28.731000900268555 C-37.018001556396484,15.32699966430664 -17.283000946044922,12.892000198364258 -40.29499816894531,7.145999908447266 C-63.305999755859375,1.4010000228881836 -68.41999816894531,7.146999835968018 -63.305999755859375,-4.980000019073486 C-58.19300079345703,-17.108999252319336 -76.09100341796875,-10.088000297546387 -67.78099822998047,-21.57699966430664 C-59.47100067138672,-33.06700134277344 -63.94599914550781,-26.047000885009766 -49.882999420166016,-34.34600067138672 C-35.81999969482422,-42.64400100708008 -43.49100112915039,-43.28200149536133 -34.54199981689453,-48.388999938964844 C-25.593000411987305,-53.49599838256836 -17.283000946044922,-56.6870002746582 -17.283000946044922,-56.6870002746582z"></path></g><g opacity="1" transform="matrix(1,0,0,1,87.43499755859375,96.02300262451172)"><path fill="rgb(201,103,29)" fill-opacity="1" d=" M-11.906000137329102,-2.9769999980926514 C-9.260000228881836,-0.3310000002384186 -9.92199993133545,6.946000099182129 -1.9839999675750732,9.592000007629395 C5.953000068664551,12.23799991607666 11.906000137329102,9.592000007629395 11.906000137329102,9.592000007629395 C11.906000137329102,9.592000007629395 4.630000114440918,8.267999649047852 -1.3240000009536743,1.652999997138977 C-7.2769999504089355,-4.960999965667725 -11.906000137329102,-10.253000259399414 -11.906000137329102,-12.23799991607666 C-11.906000137329102,-12.23799991607666 -11.906000137329102,-2.9769999980926514 -11.906000137329102,-2.9769999980926514z"></path></g><g opacity="1" transform="matrix(1,0,0,1,27.982999801635742,35.909000396728516)"><path fill="rgb(239,236,201)" fill-opacity="1" d=" M0.40700000524520874,-2.4779999256134033 C-3.3980000019073486,-2.2019999027252197 -4.632999897003174,0.5210000276565552 -3.566999912261963,1.3550000190734863 C-2.5,2.190000057220459 -2.5810000896453857,2.5329999923706055 0.06800000369548798,1.25 C2.7170000076293945,-0.03400000184774399 4.631999969482422,-1.3359999656677246 4.427999973297119,-1.934000015258789 C4.224999904632568,-2.5320000648498535 0.40700000524520874,-2.4779999256134033 0.40700000524520874,-2.4779999256134033z"></path></g><g opacity="1" transform="matrix(1,0,0,1,91.5770034790039,54.26300048828125)"><path fill="rgb(239,236,201)" fill-opacity="1" d=" M0.40700000524520874,-2.4779999256134033 C-3.3980000019073486,-2.2009999752044678 -4.632999897003174,0.5220000147819519 -3.566999912261963,1.3559999465942383 C-2.5,2.190000057220459 -2.5810000896453857,2.5320000648498535 0.06800000369548798,1.25 C2.7170000076293945,-0.03400000184774399 4.631999969482422,-1.3359999656677246 4.427999973297119,-1.934000015258789 C4.224999904632568,-2.5320000648498535 0.40700000524520874,-2.4779999256134033 0.40700000524520874,-2.4779999256134033z"></path></g><g opacity="1" transform="matrix(1,0,0,1,54.35200119018555,49.61000061035156)"><path fill="rgb(239,236,201)" fill-opacity="1" d=" M0.40700000524520874,-2.4790000915527344 C-3.3980000019073486,-2.2019999027252197 -4.632999897003174,0.5210000276565552 -3.566999912261963,1.3550000190734863 C-2.5,2.190000057220459 -2.5810000896453857,2.5329999923706055 0.06800000369548798,1.25 C2.7170000076293945,-0.03400000184774399 4.631999969482422,-1.3370000123977661 4.427999973297119,-1.934999942779541 C4.224999904632568,-2.5329999923706055 0.40700000524520874,-2.4790000915527344 0.40700000524520874,-2.4790000915527344z"></path></g><g opacity="1" transform="matrix(1,0,0,1,43.63800048828125,44.1150016784668)"><path fill="rgb(239,236,201)" fill-opacity="1" d=" M0.5879999995231628,1.7569999694824219 C3.5,-0.7070000171661377 2.8940000534057617,-3.634999990463257 1.5410000085830688,-3.680000066757202 C0.18799999356269836,-3.7260000705718994 0.052000001072883606,-4.051000118255615 -1.3339999914169312,-1.4539999961853027 C-2.7200000286102295,1.1430000066757202 -3.5,3.3239998817443848 -2.9839999675750732,3.687999963760376 C-2.4679999351501465,4.051000118255615 0.5879999995231628,1.7569999694824219 0.5879999995231628,1.7569999694824219z"></path></g><g opacity="1" transform="matrix(1,0,0,1,43.13999938964844,16.23200035095215)"><path fill="rgb(239,236,201)" fill-opacity="1" d=" M1.503000020980835,-0.7950000166893005 C-2.2190001010894775,-2.9489998817443848 -5.0960001945495605,-1.194000005722046 -4.63100004196167,0.25999999046325684 C-4.165999889373779,1.7139999866485596 -4.458000183105469,1.9800000190734863 -1.1759999990463257,2.4649999141693115 C2.1070001125335693,2.947999954223633 4.7179999351501465,2.9489998817443848 4.9070000648498535,2.2639999389648438 C5.0970001220703125,1.5779999494552612 1.503000020980835,-0.7950000166893005 1.503000020980835,-0.7950000166893005z"></path></g></g><g transform="matrix(1,0,0,1,242.13299560546875,339.58001708984375)" opacity="1" style="display: block;"><g opacity="1" transform="matrix(1,0,0,1,92.79000091552734,82.75800323486328)"><path fill="rgb(236,133,53)" fill-opacity="1" d=" M13.043000221252441,-72.51799774169922 C11.199999809265137,-75.75399780273438 1.8040000200271606,-82.50800323486328 -2.4489998817443848,-77.5739974975586 C-6.701000213623047,-72.63999938964844 -13.79800033569336,-79.56600189208984 -15.581000328063965,-72.50900268554688 C-17.36199951171875,-65.4520034790039 -27.040000915527344,-66.50299835205078 -26.2810001373291,-58.74800109863281 C-25.52199935913086,-50.99399948120117 -34.275001525878906,-52.29499816894531 -40.65399932861328,-44.89400100708008 C-47.03300094604492,-37.49300003051758 -43.189998626708984,-35.29199981689453 -45.45800018310547,-29.974000930786133 C-47.72600173950195,-24.655000686645508 -57.470001220703125,-31.579999923706055 -62.805999755859375,-22.12700080871582 C-68.14199829101562,-12.673999786376953 -63.323001861572266,-16.871999740600586 -62.805999755859375,-8.59000015258789 C-62.189998626708984,1.25600004196167 -78.625,-0.42399999499320984 -73.26599884033203,7.408999919891357 C-65.26699829101562,19.100000381469727 -83.53099822998047,17.961000442504883 -78.8030014038086,26.483999252319336 C-74.07499694824219,35.007999420166016 -69.93199920654297,41.983001708984375 -76.48200225830078,47.0890007019043 C-83.03299713134766,52.19499969482422 -92.53900146484375,53.43899917602539 -85.1989974975586,61.233001708984375 C-77.85900115966797,69.02899932861328 -73.33599853515625,57.72200012207031 -64.31199645996094,67.12899780273438 C-55.55699920654297,76.25599670410156 -54.87699890136719,67.31099700927734 -39.314998626708984,70.94100189208984 C-23.753999710083008,74.57099914550781 -23.011999130249023,64.12799835205078 -17.270999908447266,69.55799865722656 C-11.531000137329102,74.98600006103516 -13.559000015258789,82.50800323486328 -2.7960000038146973,79.04000091552734 C7.966000080108643,75.5719985961914 3.73799991607666,64.89399719238281 17.270999908447266,66.88800048828125 C27.033000946044922,68.32599639892578 31.57699966430664,72.74199676513672 40.2239990234375,60.02399826049805 C48.869998931884766,47.30400085449219 50.5629997253418,54.71799850463867 62.722999572753906,46.17499923706055 C74.88300323486328,37.63100051879883 61.729000091552734,36.222999572753906 71.24600219726562,23.261999130249023 C80.76399993896484,10.300000190734863 92.53900146484375,3.73799991607666 74.75,-1.1449999809265137 C56.96099853515625,-6.0289998054504395 42.89899826049805,-11.015000343322754 48.305999755859375,-21.89299964904785 C53.7130012512207,-32.77199935913086 63.220001220703125,-34.01599884033203 50.797000885009766,-43.20600128173828 C38.374000549316406,-52.39699935913086 27.885000228881836,-42.91400146484375 29.464000701904297,-57.41299819946289 C31.04400062561035,-71.91100311279297 28.91699981689453,-69.44400024414062 22.863000869750977,-74.31800079345703 C16.808000564575195,-79.19100189208984 13.043000221252441,-72.51799774169922 13.043000221252441,-72.51799774169922z"></path></g><g opacity="1" transform="matrix(1,0,0,1,51.939998626708984,51.32099914550781)"><path fill="rgb(217,118,34)" fill-opacity="1" d=" M-15.20199966430664,16.929000854492188 C-15.20199966430664,16.929000854492188 -12.265000343322754,16.58300018310547 -9.156000137329102,15.201000213623047 C-6.046000003814697,13.819999694824219 -2.7639999389648438,11.402000427246094 -2.072999954223633,7.25600004196167 C-0.6909999847412109,-1.0360000133514404 6.88100004196167,-9.086999893188477 11.041999816894531,-13.008000373840332 C15.20199966430664,-16.929000854492188 4.145999908447266,-2.4200000762939453 6.218999862670898,6.564000129699707 C8.291999816894531,15.54699993133545 -15.20199966430664,16.929000854492188 -15.20199966430664,16.929000854492188z"></path></g><g opacity="1" transform="matrix(1,0,0,1,63.22100067138672,133.56500244140625)"><path fill="rgb(217,118,34)" fill-opacity="1" d=" M12.998000144958496,1.00600004196167 C8.638999938964844,2.7119998931884766 3.0980000495910645,4.956999778747559 -1.4359999895095825,5.0289998054504395 C-5.96999979019165,5.103000164031982 -11.597000122070312,6.531000137329102 -12.295999526977539,0 C-12.996999740600586,-6.531000137329102 -8.855999946594238,1.2829999923706055 -4.045000076293945,-0.057999998331069946 C0.765999972820282,-1.3990000486373901 12.998000144958496,1.00600004196167 12.998000144958496,1.00600004196167z"></path></g><g opacity="1" transform="matrix(1,0,0,1,121.08000183105469,37.49300003051758)"><path fill="rgb(239,236,201)" fill-opacity="1" d=" M1.3329999446868896,-0.7049999833106995 C-1.968000054359436,-2.615999937057495 -4.520999908447266,-1.059000015258789 -4.107999801635742,0.23000000417232513 C-3.696000099182129,1.5199999809265137 -3.9549999237060547,1.7569999694824219 -1.0429999828338623,2.186000108718872 C1.86899995803833,2.615999937057495 4.184999942779541,2.615999937057495 4.353000164031982,2.006999969482422 C4.520999908447266,1.3990000486373901 1.3329999446868896,-0.7049999833106995 1.3329999446868896,-0.7049999833106995z"></path></g><g opacity="1" transform="matrix(1,0,0,1,64.14299774169922,81.70099639892578)"><path fill="rgb(239,236,201)" fill-opacity="1" d=" M1.684000015258789,-0.6050000190734863 C-0.8949999809265137,-3.4159998893737793 -3.7950000762939453,-2.694000005722046 -3.7880001068115234,-1.340000033378601 C-3.7790000438690186,0.014000000432133675 -4.0980000495910645,0.16300000250339508 -1.4479999542236328,1.4429999589920044 C1.2029999494552612,2.7230000495910645 3.4119999408721924,3.4159998893737793 3.755000114440918,2.885999917984009 C4.0980000495910645,2.3559999465942383 1.684000015258789,-0.6050000190734863 1.684000015258789,-0.6050000190734863z"></path></g><g opacity="1" transform="matrix(1,0,0,1,151.7209930419922,91.677001953125)"><path fill="rgb(239,236,201)" fill-opacity="1" d=" M0.6790000200271606,1.4160000085830688 C2.921999931335449,-1.6679999828338623 1.6399999856948853,-4.368000030517578 0.3140000104904175,-4.0929999351501465 C-1.0110000371932983,-3.815999984741211 -1.2200000286102295,-4.098999977111816 -1.9509999752044678,-1.246999979019165 C-2.680000066757202,1.6030000448226929 -2.9210000038146973,3.9070000648498535 -2.3340001106262207,4.138000011444092 C-1.746000051498413,4.368000030517578 0.6790000200271606,1.4160000085830688 0.6790000200271606,1.4160000085830688z"></path></g><g opacity="1" transform="matrix(1,0,0,1,134.2790069580078,109.15399932861328)"><path fill="rgb(239,236,201)" fill-opacity="1" d=" M-1.6019999980926514,-0.9629999995231628 C-2.38700008392334,2.7690000534057617 -0.1120000034570694,4.708000183105469 0.984000027179718,3.9140000343322754 C2.0810000896453857,3.11899995803833 2.38700008392334,3.2920000553131104 1.8860000371932983,0.39100000262260437 C1.3849999904632568,-2.509000062942505 0.6620000004768372,-4.708000183105469 0.03200000151991844,-4.677999973297119 C-0.5989999771118164,-4.64900016784668 -1.6019999980926514,-0.9629999995231628 -1.6019999980926514,-0.9629999995231628z"></path></g><g opacity="1" transform="matrix(1,0,0,1,60.55099868774414,99.68199920654297)"><path fill="rgb(239,236,201)" fill-opacity="1" d=" M-1.6019999980926514,-0.9629999995231628 C-2.38700008392334,2.7690000534057617 -0.1120000034570694,4.708000183105469 0.9850000143051147,3.9140000343322754 C2.0810000896453857,3.11899995803833 2.38700008392334,3.2920000553131104 1.8860000371932983,0.39100000262260437 C1.3849999904632568,-2.509000062942505 0.6629999876022339,-4.708000183105469 0.03200000151991844,-4.677999973297119 C-0.5979999899864197,-4.64900016784668 -1.6019999980926514,-0.9629999995231628 -1.6019999980926514,-0.9629999995231628z"></path></g><g opacity="1" transform="matrix(1,0,0,1,117.5510025024414,82.42400360107422)"><path fill="rgb(239,236,201)" fill-opacity="1" d=" M-1.6019999980926514,-0.9639999866485596 C-2.38700008392334,2.7679998874664307 -0.1120000034570694,4.709000110626221 0.984000027179718,3.9149999618530273 C2.0810000896453857,3.119999885559082 2.38700008392334,3.2909998893737793 1.8860000371932983,0.38999998569488525 C1.3849999904632568,-2.509999990463257 0.6620000004768372,-4.708000183105469 0.03200000151991844,-4.678999900817871 C-0.5989999771118164,-4.64900016784668 -1.6019999980926514,-0.9639999866485596 -1.6019999980926514,-0.9639999866485596z"></path></g><g opacity="1" transform="matrix(1,0,0,1,142.88900756835938,85.7509994506836)"><path fill="rgb(239,236,201)" fill-opacity="1" d=" M1.3919999599456787,-0.6880000233650208 C-1.7630000114440918,-2.8299999237060547 -4.421999931335449,-1.4600000381469727 -4.103000164031982,-0.14399999380111694 C-3.7839999198913574,1.1710000038146973 -4.059000015258789,1.3910000324249268 -1.184999942779541,2.0269999504089355 C1.6890000104904175,2.6640000343322754 3.999000072479248,2.8299999237060547 4.210000038146973,2.234999895095825 C4.421999931335449,1.6399999856948853 1.3919999599456787,-0.6880000233650208 1.3919999599456787,-0.6880000233650208z"></path></g><g opacity="1" transform="matrix(1,0,0,1,118.61799621582031,64.28500366210938)"><path fill="rgb(239,236,201)" fill-opacity="1" d=" M0.40700000524520874,-2.4779999256134033 C-3.3970000743865967,-2.2009999752044678 -4.632999897003174,0.5220000147819519 -3.566999912261963,1.3559999465942383 C-2.5,2.190000057220459 -2.5810000896453857,2.5320000648498535 0.06800000369548798,1.2489999532699585 C2.7170000076293945,-0.03500000014901161 4.631999969482422,-1.3370000123977661 4.427999973297119,-1.934999942779541 C4.22599983215332,-2.5320000648498535 0.40700000524520874,-2.4779999256134033 0.40700000524520874,-2.4779999256134033z"></path></g><g opacity="1" transform="matrix(1,0,0,1,86.16699981689453,85.53299713134766)"><path fill="rgb(239,236,201)" fill-opacity="1" d=" M0.40700000524520874,-2.4779999256134033 C-3.3970000743865967,-2.2009999752044678 -4.632999897003174,0.5220000147819519 -3.566999912261963,1.3559999465942383 C-2.5,2.190000057220459 -2.5810000896453857,2.5320000648498535 0.06800000369548798,1.25 C2.7170000076293945,-0.03400000184774399 4.631999969482422,-1.3359999656677246 4.427999973297119,-1.934000015258789 C4.22599983215332,-2.5320000648498535 0.40700000524520874,-2.4779999256134033 0.40700000524520874,-2.4779999256134033z"></path></g><g opacity="1" transform="matrix(1,0,0,1,88.33699798583984,42.18600082397461)"><path fill="rgb(239,236,201)" fill-opacity="1" d=" M1.503000020980835,-0.7950000166893005 C-2.2179999351501465,-2.9489998817443848 -5.0960001945495605,-1.194000005722046 -4.63100004196167,0.25999999046325684 C-4.164999961853027,1.7130000591278076 -4.456999778747559,1.9800000190734863 -1.1749999523162842,2.4639999866485596 C2.1070001125335693,2.947999954223633 4.7179999351501465,2.947999954223633 4.9079999923706055,2.26200008392334 C5.0970001220703125,1.5770000219345093 1.503000020980835,-0.7950000166893005 1.503000020980835,-0.7950000166893005z"></path></g><g opacity="1" transform="matrix(1,0,0,1,135.08399963378906,48.95199966430664)"><path fill="rgb(239,236,201)" fill-opacity="1" d=" M1.5019999742507935,-0.7950000166893005 C-2.2190001010894775,-2.9489998817443848 -5.0970001220703125,-1.194000005722046 -4.631999969482422,0.25999999046325684 C-4.165999889373779,1.7130000591278076 -4.458000183105469,1.9789999723434448 -1.1759999990463257,2.4639999866485596 C2.1059999465942383,2.947999954223633 4.7170000076293945,2.9489998817443848 4.906000137329102,2.2639999389648438 C5.0970001220703125,1.5770000219345093 1.5019999742507935,-0.7950000166893005 1.5019999742507935,-0.7950000166893005z"></path></g><g opacity="1" transform="matrix(1,0,0,1,103.57099914550781,103.99099731445312)"><path fill="rgb(239,236,201)" fill-opacity="1" d=" M0.5130000114440918,2.305999994277954 C4.214000225067139,0.33399999141693115 4.24399995803833,-2.9519999027252197 2.8010001182556152,-3.315999984741211 C1.3580000400543213,-3.680000066757202 1.284999966621399,-4.059999942779541 -0.8059999942779541,-1.590999960899353 C-2.8989999294281006,0.8769999742507935 -4.243000030517578,3.0380001068115234 -3.7730000019073486,3.5490000247955322 C-3.302999973297119,4.059999942779541 0.5130000114440918,2.305999994277954 0.5130000114440918,2.305999994277954z"></path></g><g opacity="1" transform="matrix(1,0,0,1,90.61900329589844,33.39799880981445)"><path fill="rgb(239,236,201)" fill-opacity="1" d=" M0.5130000114440918,2.305999994277954 C4.214000225067139,0.33500000834465027 4.24399995803833,-2.9519999027252197 2.8010001182556152,-3.315999984741211 C1.3580000400543213,-3.680000066757202 1.2860000133514404,-4.059999942779541 -0.8059999942779541,-1.590999960899353 C-2.8989999294281006,0.8769999742507935 -4.243000030517578,3.0390000343322754 -3.7730000019073486,3.549999952316284 C-3.302999973297119,4.059999942779541 0.5130000114440918,2.305999994277954 0.5130000114440918,2.305999994277954z"></path></g><g opacity="1" transform="matrix(1,0,0,1,42.7599983215332,94.697998046875)"><path fill="rgb(239,236,201)" fill-opacity="1" d=" M0.6940000057220459,1.5640000104904175 C3.3340001106262207,-1.5149999856948853 2.2039999961853027,-4.486999988555908 0.7760000228881836,-4.306000232696533 C-0.652999997138977,-4.125999927520752 -0.8500000238418579,-4.443999767303467 -1.8669999837875366,-1.4830000400543213 C-2.882999897003174,1.4769999980926514 -3.3329999446868896,3.8980000019073486 -2.7300000190734863,4.192999839782715 C-2.127000093460083,4.486999988555908 0.6940000057220459,1.5640000104904175 0.6940000057220459,1.5640000104904175z"></path></g><g opacity="1" transform="matrix(1,0,0,1,100.43800354003906,66.37899780273438)"><path fill="rgb(239,236,201)" fill-opacity="1" d=" M0.6930000185966492,1.5640000104904175 C3.3340001106262207,-1.5149999856948853 2.2039999961853027,-4.486999988555908 0.7760000228881836,-4.306000232696533 C-0.652999997138977,-4.125999927520752 -0.8500000238418579,-4.443999767303467 -1.8669999837875366,-1.4830000400543213 C-2.882999897003174,1.4769999980926514 -3.3340001106262207,3.8980000019073486 -2.7309999465942383,4.192999839782715 C-2.128000020980835,4.486999988555908 0.6930000185966492,1.5640000104904175 0.6930000185966492,1.5640000104904175z"></path></g></g><g transform="matrix(1,0,0,1,232.81500244140625,303.60302734375)" opacity="1" style="display: block;"><g opacity="1" transform="matrix(1,0,0,1,194.27699279785156,17.652999877929688)"><path fill="rgb(252,248,169)" fill-opacity="1" d=" M-7.218999862670898,-14.196999549865723 C-10.373000144958496,-12.553999900817871 -8.03600025177002,-2.1760001182556152 -3.9130001068115234,3.931999921798706 C0.210999995470047,10.039999961853027 3.813999891281128,14.954000473022461 7.120999813079834,12.968000411987305 C9.576000213623047,11.493000030517578 10.37399959564209,4.946000099182129 5.646999835968018,-3.677999973297119 C0.921999990940094,-12.303000450134277 -5.764999866485596,-14.954000473022461 -7.218999862670898,-14.196999549865723z"></path></g><g opacity="1" transform="matrix(1,0,0,1,46.79899978637695,42.78300094604492)"><path fill="rgb(252,248,169)" fill-opacity="1" d=" M2.1029999256134033,-14.590999603271484 C5.877999782562256,-14.050999641418457 5.552999973297119,-8.875 5.013999938964844,-4.669000148773193 C4.49399995803833,-0.6100000143051147 3.3519999980926514,5.942999839782715 2.6419999599456787,8.164999961853027 C1.7790000438690186,10.861000061035156 -1.3140000104904175,14.913999557495117 -3.8289999961853027,11.076000213623047 C-5.876999855041504,7.948999881744385 -5.6620001792907715,2.880000114440918 -4.368000030517578,-3.5910000801086426 C-2.1029999256134033,-14.913999557495117 2.1029999256134033,-14.590999603271484 2.1029999256134033,-14.590999603271484z"></path></g><g opacity="1" transform="matrix(1,0,0,1,14.119999885559082,82.13400268554688)"><path fill="rgb(252,248,169)" fill-opacity="1" d=" M-12.361000061035156,-7.994999885559082 C-13.869999885559082,-6.486000061035156 -9.86400032043457,-1.4980000257492065 -7.364999771118164,0.0010000000474974513 C-4.867000102996826,1.5 -0.11999999731779099,3.997999906539917 2.628000020980835,5.247000217437744 C5.375999927520752,6.495999813079834 12.371000289916992,8.494999885559082 13.119999885559082,5.995999813079834 C13.869999885559082,3.497999906539917 11.121999740600586,0 7.374000072479248,-2.499000072479248 C3.627000093460083,-4.997000217437744 -0.3700000047683716,-6.995999813079834 -2.868000030517578,-7.744999885559082 C-5.367000102996826,-8.494999885559082 -11.861000061035156,-8.494999885559082 -12.361000061035156,-7.994999885559082z"></path></g><g opacity="1" transform="matrix(1,0,0,1,96.48200225830078,8.630999565124512)"><path fill="rgb(252,248,169)" fill-opacity="1" d=" M-10.267000198364258,7.124000072479248 C-9.444999694824219,8.357000350952148 -5.6570000648498535,8.380999565124512 -2.7239999771118164,6.914999961853027 C0.20999999344348907,5.447999954223633 4.400000095367432,3.562000036239624 6.495999813079834,1.2569999694824219 C8.590999603271484,-1.0470000505447388 11.524999618530273,-5.0289998054504395 9.847999572753906,-6.704999923706055 C8.17199993133545,-8.380999565124512 5.447999954223633,-8.380999565124512 2.0950000286102295,-6.076000213623047 C-1.2569999694824219,-3.7720000743865967 -4.611000061035156,-2.305000066757202 -6.078000068664551,-0.628000020980835 C-7.544000148773193,1.0479999780654907 -11.52400016784668,5.23799991607666 -10.267000198364258,7.124000072479248z"></path></g><g opacity="1" transform="matrix(1,0,0,1,187.6739959716797,168.80999755859375)"><path fill="rgb(252,248,169)" fill-opacity="1" d=" M-8.859000205993652,10.243000030517578 C-7.630000114440918,11.963000297546387 -2.24399995803833,9.060999870300293 0.35499998927116394,6.4629998207092285 C2.9539999961853027,3.865000009536743 6.02400016784668,0.08500000089406967 7.204999923706055,-2.0409998893737793 C8.38599967956543,-4.166999816894531 10.039999961853027,-9.60099983215332 8.38599967956543,-10.781000137329102 C6.732999801635742,-11.963000297546387 4.133999824523926,-10.072999954223633 1.062999963760376,-7.474999904632568 C-2.006999969482422,-4.875999927520752 -5.315000057220459,-0.3880000114440918 -6.260000228881836,1.503000020980835 C-7.204999923706055,3.3919999599456787 -10.039999961853027,8.59000015258789 -8.859000205993652,10.243000030517578z"></path></g><g opacity="1" transform="matrix(1,0,0,1,284.29998779296875,125.3550033569336)"><path fill="rgb(252,248,169)" fill-opacity="1" d=" M-3.315000057220459,-4.7769999504089355 C-4.448999881744385,-4.374000072479248 -6.538000106811523,-3.375999927520752 -8.541000366210938,-2.3469998836517334 C-8.369999885559082,-0.48100000619888306 -7.625,0.8880000114440918 -4.254000186920166,4.189000129699707 C-3.677000045776367,4.752999782562256 -3.117000102996826,5.164999961853027 -2.552000045776367,5.61299991607666 C0.02800000086426735,4.465000152587891 3.0840001106262207,2.5439999103546143 4.413000106811523,1.7170000076293945 C6.210000038146973,0.5979999899864197 8.541000366210938,-1.1449999809265137 7.815999984741211,-2.6710000038146973 C7.090000152587891,-4.197000026702881 -0.9599999785423279,-5.61299991607666 -3.315000057220459,-4.7769999504089355z"></path></g><g opacity="1" transform="matrix(1,0,0,1,291.7179870605469,75.4209976196289)"><path fill="rgb(252,248,169)" fill-opacity="1" d=" M-8.050999641418457,-4.828999996185303 C-7.7129998207092285,-2.680000066757202 -7.1479997634887695,-0.6399999856948853 -6.486000061035156,0.2540000081062317 C-4.916999816894531,2.374000072479248 0.47200000286102295,7.857999801635742 1.8660000562667847,8.862000465393066 C3.260999917984009,9.866000175476074 6.008999824523926,11.706999778747559 7.510000228881836,10.906000137329102 C9.142999649047852,10.03499984741211 6.688000202178955,1.0499999523162842 5.376999855041504,-1.4859999418258667 C4.065000057220459,-4.021999835968018 -0.6290000081062317,-8.069999694824219 -2.311000108718872,-9.538999557495117 C-2.9170000553131104,-10.069000244140625 -3.628000020980835,-10.640999794006348 -4.349999904632568,-11.102999687194824 C-5.554999828338623,-8.815999984741211 -6.038000106811523,-6.539000034332275 -8.050999641418457,-4.828999996185303z"></path></g></g><g transform="matrix(1,0,0,1,339.8389892578125,496.7120056152344)" opacity="1" style="display: block;"><g opacity="1" transform="matrix(1,0,0,1,15.770999908447266,9.232999801635742)"><path fill="rgb(252,248,169)" fill-opacity="1" d=" M-15.409000396728516,6.650000095367432 C-15.069999694824219,8.982999801635742 -8.010000228881836,8.727999687194824 -5.0329999923706055,7.50600004196167 C-2.055999994277954,6.284999847412109 3.2909998893737793,3.7320001125335693 6.210999965667725,2.125 C9.131999969482422,0.515999972820282 15.522000312805176,-4.35699987411499 13.805000305175781,-6.670000076293945 C12.08899974822998,-8.982999801635742 7.177000045776367,-8.859999656677246 2.490999937057495,-7.192999839782715 C-2.196000099182129,-5.525000095367432 -6.605000019073486,-3.305999994277954 -8.918000221252441,-1.5889999866485596 C-11.232000350952148,0.12800000607967377 -15.520999908447266,5.877999782562256 -15.409000396728516,6.650000095367432z"></path></g></g><g transform="matrix(1,0,0,1,222.52999877929688,451.59197998046875)" opacity="1" style="display: block;"><g opacity="1" transform="matrix(1,0,0,1,14.531999588012695,6.298999786376953)"><path fill="rgb(252,248,169)" fill-opacity="1" d=" M-13.958000183105469,-3.946000099182129 C-14.281999588012695,-1.1390000581741333 -9.036999702453613,2.490999937057495 -5.73199987411499,3.4549999237060547 C-2.427999973297119,4.420000076293945 3.3389999866485596,6.048999786376953 6.224999904632568,5.329999923706055 C9.109999656677246,4.61299991607666 13.677000045776367,4.497000217437744 13.979000091552734,2.634999990463257 C14.281999588012695,0.7720000147819519 8.277000427246094,-3.3510000705718994 4.311999797821045,-4.4070000648498535 C0.6650000214576721,-5.377999782562256 -3.680000066757202,-5.736999988555908 -5.9629998207092285,-5.678999900817871 C-8.246999740600586,-5.622000217437744 -13.71500015258789,-6.048999786376953 -13.958000183105469,-3.946000099182129z"></path></g></g><g transform="matrix(1,0,0,1,480.8900146484375,388.4100036621094)" opacity="1" style="display: block;"><g opacity="1" transform="matrix(1,0,0,1,22.83300018310547,4.296999931335449)"><path fill="rgb(133,198,138)" fill-opacity="1" d=" M22.25,-3.75600004196167 C22.583999633789062,-2.9809999465942383 17.576000213623047,2.4509999752044678 17.576000213623047,2.4509999752044678 C17.576000213623047,2.4509999752044678 9.838000297546387,2.378999948501587 -0.9559999704360962,2.818000078201294 C-8.232999801635742,3.114000082015991 -19.009000778198242,3.4240000247955322 -20.79599952697754,3.734999895095825 C-22.583999633789062,4.046999931335449 -16.326000213623047,0.5709999799728394 -15.668999671936035,0.26100000739097595 C-15.01200008392334,-0.05000000074505806 -14.661999702453613,-3.1019999980926514 -6.61299991607666,-3.5739998817443848 C1.437000036239624,-4.046000003814697 22.25,-3.75600004196167 22.25,-3.75600004196167z"></path></g></g><g transform="matrix(1,0,0,1,227.52899169921875,331.7650146484375)" opacity="1" style="display: block;"><g opacity="1" transform="matrix(1,0,0,1,129.75100708007812,23.406999588012695)"><path fill="rgb(133,198,138)" fill-opacity="1" d=" M-12.262999534606934,23.156999588012695 C-11.531000137329102,21.781999588012695 11.232999801635742,-5.307000160217285 11.232999801635742,-5.307000160217285 C11.232999801635742,-5.307000160217285 14.460000038146973,-20.4060001373291 14.460000038146973,-21.7810001373291 C14.460000038146973,-23.156999588012695 11.567999839782715,-19.55699920654297 7.546000003814697,-15.022000312805176 C2.26200008392334,-9.065999984741211 -10.065999984741211,5.27400016784668 -12.262999534606934,7.107999801635742 C-14.458999633789062,8.942000389099121 -12.262999534606934,23.156999588012695 -12.262999534606934,23.156999588012695z"></path></g><g opacity="1" transform="matrix(1,0,0,1,158.70399475097656,78.74199676513672)"><path fill="rgb(133,198,138)" fill-opacity="1" d=" M21.229000091552734,-5.9679999351501465 C18.941999435424805,-5.480999946594238 16.986000061035156,-3.7100000381469727 7.791999816894531,-0.699999988079071 C2.9630000591278076,0.8809999823570251 -17.513999938964844,7.73799991607666 -19.801000595092773,8.225000381469727 C-22.08799934387207,8.711999893188477 -4.454999923706055,-7.896999835968018 -1.4019999504089355,-8.22599983215332 C2.193000078201294,-8.61299991607666 16.597999572753906,-7.738999843597412 19.341999053955078,-8.22599983215332 C22.086999893188477,-8.711999893188477 21.229000091552734,-5.9679999351501465 21.229000091552734,-5.9679999351501465z"></path></g><g opacity="1" transform="matrix(1,0,0,1,121.33499908447266,124.47599792480469)"><path fill="rgb(133,198,138)" fill-opacity="1" d=" M26.113000869750977,15.744999885559082 C24.674999237060547,16.135000228881836 9.807000160217285,14.29699993133545 9.807000160217285,14.29699993133545 C9.807000160217285,14.29699993133545 -1.430999994277954,3.63700008392334 -9.401000022888184,-2.9739999771118164 C-14.77400016784668,-7.429999828338623 -22.45199966430664,-14.059000015258789 -24.283000946044922,-15.097999572753906 C-26.113000869750977,-16.13599967956543 -14.609999656677246,-13.060999870300293 -13.517999649047852,-12.725000381469727 C-12.425999641418457,-12.388999938964844 0.671999990940094,-7.059000015258789 6.923999786376953,-2.1630001068115234 C13.177000045776367,2.7309999465942383 26.113000869750977,15.744999885559082 26.113000869750977,15.744999885559082z"></path></g><g opacity="1" transform="matrix(1,0,0,1,24.875,90.78700256347656)"><path fill="rgb(133,198,138)" fill-opacity="1" d=" M24.23699951171875,-19.756999969482422 C24.625999450683594,-18.499000549316406 20.618000030517578,-6.281000137329102 20.618000030517578,-6.281000137329102 C20.618000030517578,-6.281000137329102 4.90500020980835,1.7120000123977661 -4.938000202178955,7.508999824523926 C-11.574999809265137,11.416999816894531 -21.416000366210938,16.965999603271484 -23.020000457763672,18.361000061035156 C-24.625,19.756999969482422 -19.263999938964844,10.526000022888184 -18.69499969482422,9.654999732971191 C-18.125,8.78499984741211 -9.517000198364258,-1.4819999933242798 -2.191999912261963,-6.068999767303467 C5.132999897003174,-10.654000282287598 24.23699951171875,-19.756999969482422 24.23699951171875,-19.756999969482422z"></path></g></g><g transform="matrix(1,0,0,1,381.6059875488281,404.5409851074219)" opacity="1" style="display: block;"><g opacity="1" transform="matrix(1,0,0,1,42.2760009765625,45.84199905395508)"><path fill="rgb(218,38,12)" fill-opacity="1" d=" M-39.79999923706055,38.058998107910156 C-37.57400131225586,30.525999069213867 -35.3489990234375,10.038000106811523 -24.2189998626709,-4.423999786376953 C-13.09000015258789,-18.88599967956543 1.4859999418258667,-35.84700012207031 35.720001220703125,-44.98899841308594 C42.0260009765625,-45.590999603271484 37.20399856567383,-40.770999908447266 37.20399856567383,-40.770999908447266 C37.20399856567383,-40.770999908447266 15.687000274658203,-30.827999114990234 -5.085999965667725,-7.327000141143799 C-22.319000244140625,12.166999816894531 -35.505001068115234,45.400001525878906 -35.505001068115234,45.400001525878906 C-35.505001068115234,45.400001525878906 -42.0260009765625,45.590999603271484 -39.79999923706055,38.058998107910156z"></path></g></g></g></svg>