<svg width="250" height="174" viewBox="0 0 250 174" fill="none" xmlns="http://www.w3.org/2000/svg">
<path d="M188.813 110.824C171.437 110.824 157.301 124.961 157.301 142.337C157.301 159.714 171.437 173.85 188.813 173.85C206.193 173.85 220.326 159.714 220.326 142.337C220.326 124.961 206.19 110.824 188.813 110.824ZM188.813 158.093C180.124 158.093 173.057 151.027 173.057 142.337C173.057 133.648 180.124 126.581 188.813 126.581C197.503 126.581 204.57 133.648 204.57 142.337C204.57 151.027 197.503 158.093 188.813 158.093Z" fill="#F2F2F2"/>
<path d="M81.1455 110.824C63.769 110.824 49.6328 124.961 49.6328 142.337C49.6328 159.714 63.769 173.85 81.1455 173.85C98.522 173.85 112.658 159.714 112.658 142.337C112.658 124.961 98.522 110.824 81.1455 110.824ZM81.1455 158.093C72.4561 158.093 65.3892 151.027 65.3892 142.337C65.3892 133.648 72.4561 126.581 81.1455 126.581C89.8325 126.581 96.9018 133.648 96.9018 142.337C96.9018 151.027 89.835 158.093 81.1455 158.093Z" fill="#F2F2F2"/>
<path d="M210.032 20.6252C208.693 17.9651 205.97 16.2869 202.992 16.2869H161.5V32.0432H198.133L219.585 74.7112L233.667 67.6311L210.032 20.6252Z" fill="#F2F2F2"/>
<path d="M165.182 134.722H105.57V150.479H165.182V134.722Z" fill="#F2F2F2"/>
<path d="M57.5088 134.722H30.1982C25.8467 134.722 22.3203 138.249 22.3203 142.6C22.3203 146.952 25.8472 150.478 30.1982 150.478H57.5093C61.8608 150.478 65.3872 146.951 65.3872 142.6C65.3872 138.249 61.8603 134.722 57.5088 134.722Z" fill="#F2F2F2"/>
<path d="M248.344 86.5598L232.848 66.6018C231.359 64.6794 229.062 63.5554 226.627 63.5554H169.379V8.40844C169.379 4.05688 165.852 0.530518 161.501 0.530518H30.1982C25.8467 0.530518 22.3203 4.05737 22.3203 8.40844C22.3203 12.7595 25.8472 16.2864 30.1982 16.2864H153.623V71.4333C153.623 75.7849 157.149 79.3113 161.5 79.3113H222.769L234.242 94.0906V134.721H212.446C208.094 134.721 204.568 138.248 204.568 142.599C204.568 146.95 208.095 150.477 212.446 150.477H242.12C246.472 150.477 249.998 146.95 249.999 142.599V91.3919C249.999 89.6428 249.416 87.9412 248.344 86.5598Z" fill="#F2F2F2"/>
<path d="M56.9849 94.8059H20.7451C16.3936 94.8059 12.8672 98.3328 12.8672 102.684C12.8672 107.035 16.394 110.562 20.7451 110.562H56.9844C61.3359 110.562 64.8623 107.035 64.8623 102.684C64.8628 98.3328 61.3359 94.8059 56.9849 94.8059Z" fill="#F2F2F2"/>
<path d="M75.105 63.8181H7.87793C3.52686 63.8181 0 67.345 0 71.6965C0 76.0481 3.52686 79.5745 7.87793 79.5745H75.105C79.4565 79.5745 82.9829 76.0476 82.9829 71.6965C82.9829 67.3455 79.4565 63.8181 75.105 63.8181Z" fill="#F2F2F2"/>
<path d="M87.9722 32.8311H20.7451C16.3936 32.8311 12.8672 36.3579 12.8672 40.709C12.8672 45.0605 16.394 48.5869 20.7451 48.5869H87.9722C92.3237 48.5869 95.8501 45.0601 95.8501 40.709C95.8506 36.3579 92.3237 32.8311 87.9722 32.8311Z" fill="#F2F2F2"/>
</svg>
