<svg width="18" height="20" viewBox="0 0 18 20" fill="none" xmlns="http://www.w3.org/2000/svg">
<path fill-rule="evenodd" clip-rule="evenodd" d="M0 19.5H2V14.5H16V19.5H18V12.5H0V19.5Z" fill="white"/>
<path fill-rule="evenodd" clip-rule="evenodd" d="M9 2.5C7.34315 2.5 6 3.84315 6 5.5C6 7.15685 7.34315 8.5 9 8.5C10.6569 8.5 12 7.15685 12 5.5C12 3.84315 10.6569 2.5 9 2.5ZM4 5.5C4 2.73858 6.23858 0.5 9 0.5C11.7614 0.5 14 2.73858 14 5.5C14 8.26142 11.7614 10.5 9 10.5C6.23858 10.5 4 8.26142 4 5.5Z" fill="white"/>
</svg>
