<svg width="27" height="65" viewBox="0 0 27 65" fill="none" xmlns="http://www.w3.org/2000/svg">
<mask id="path-1-inside-1" fill="white">
<path fill-rule="evenodd" clip-rule="evenodd" d="M12.7924 0.675537C10.0302 0.675537 7.79102 2.91475 7.79102 5.67696V41.5547C3.73087 43.443 0.916016 47.5583 0.916016 52.3311C0.916016 58.8913 6.23415 64.2094 12.7944 64.2094C19.3546 64.2094 24.6728 58.8913 24.6728 52.3311C24.6728 47.5568 21.8561 43.4403 17.7939 41.5529V5.67696C17.7939 2.91475 15.5546 0.675537 12.7924 0.675537Z"/>
</mask>
<path d="M7.79102 41.5547L8.95593 44.0595L10.5534 43.3165V41.5547H7.79102ZM17.7939 41.5529H15.0314V43.3154L16.6299 44.0581L17.7939 41.5529ZM10.5534 5.67696C10.5534 4.44039 11.5559 3.43795 12.7924 3.43795V-2.08688C8.50459 -2.08688 5.0286 1.38911 5.0286 5.67696H10.5534ZM10.5534 41.5547V5.67696H5.0286V41.5547H10.5534ZM3.67843 52.3311C3.67843 48.6724 5.83374 45.5115 8.95593 44.0595L6.6261 39.0499C1.628 41.3744 -1.8464 46.4442 -1.8464 52.3311H3.67843ZM12.7944 61.447C7.75979 61.447 3.67843 57.3657 3.67843 52.3311H-1.8464C-1.8464 60.4169 4.70851 66.9718 12.7944 66.9718V61.447ZM21.9104 52.3311C21.9104 57.3657 17.829 61.447 12.7944 61.447V66.9718C20.8803 66.9718 27.4352 60.4169 27.4352 52.3311H21.9104ZM16.6299 44.0581C19.7537 45.5095 21.9104 48.6713 21.9104 52.3311H27.4352C27.4352 46.4423 23.9586 41.3712 18.9579 39.0477L16.6299 44.0581ZM15.0314 5.67696V41.5529H20.5563V5.67696H15.0314ZM12.7924 3.43795C14.029 3.43795 15.0314 4.44039 15.0314 5.67696H20.5563C20.5563 1.38911 17.0803 -2.08688 12.7924 -2.08688V3.43795Z" fill="white" mask="url(#path-1-inside-1)"/>
<path fill-rule="evenodd" clip-rule="evenodd" d="M12.7948 5.66699C12.3354 5.66699 11.9629 6.03945 11.9629 6.49891V46.5946C9.30896 46.9981 7.27539 49.2897 7.27539 52.0564C7.27539 55.1076 9.74894 57.5812 12.8002 57.5812C15.8515 57.5812 18.325 55.1076 18.325 52.0564C18.325 49.286 16.286 46.9918 13.6267 46.5929V6.49891C13.6267 6.03945 13.2543 5.66699 12.7948 5.66699Z" fill="white"/>
<path d="M15.8379 27.4707H24.9539C25.5641 27.4707 26.0588 27.9654 26.0588 28.5757C26.0588 29.1859 25.5641 29.6806 24.9539 29.6806H15.8379V27.4707Z" fill="white"/>
<path d="M15.8379 15.3167H24.9539C25.5641 15.3167 26.0588 15.8114 26.0588 16.4216C26.0588 17.0319 25.5641 17.5266 24.9539 17.5266H15.8379V15.3167Z" fill="white"/>
<path d="M15.8379 21.3933H24.9539C25.5641 21.3933 26.0588 21.888 26.0588 22.4983C26.0588 23.1085 25.5641 23.6032 24.9539 23.6032H15.8379V21.3933Z" fill="white"/>
<path d="M15.8379 9.23901H24.9539C25.5641 9.23901 26.0588 9.73372 26.0588 10.344C26.0588 10.9542 25.5641 11.4489 24.9539 11.4489H15.8379V9.23901Z" fill="white"/>
<path d="M15.8379 24.4321H22.1914C22.8017 24.4321 23.2964 24.9268 23.2964 25.5371C23.2964 26.1473 22.8017 26.6421 22.1914 26.6421H15.8379V24.4321Z" fill="white"/>
<path d="M15.8379 12.2776H22.1914C22.8017 12.2776 23.2964 12.7723 23.2964 13.3826C23.2964 13.9928 22.8017 14.4875 22.1914 14.4875H15.8379V12.2776Z" fill="white"/>
<path d="M15.8379 18.355H22.1914C22.8017 18.355 23.2964 18.8497 23.2964 19.4599C23.2964 20.0702 22.8017 20.5649 22.1914 20.5649H15.8379V18.355Z" fill="white"/>
</svg>
