<svg width="24" height="24" viewBox="0 0 24 24" fill="none" xmlns="http://www.w3.org/2000/svg">
<g clip-path="url(#clip0)">
<path d="M23.2319 11.3718H20.839L22.696 9.51476L21.8259 8.64462L19.0987 11.3718H16.5254C16.4197 10.6002 16.1163 9.86912 15.6446 9.24948L17.4645 7.42959H21.3218V6.20396H18.7008L20.3933 4.51141L19.5232 3.63596L17.8359 5.33381V2.68092H16.5944V6.53822L14.7745 8.38463C14.1561 7.91081 13.4244 7.60715 12.6522 7.50387V4.93587L15.3793 2.2087L14.5198 1.32794L12.6628 3.17966V0.797363H11.4318V3.19027L9.57482 1.32794L8.70467 2.2087L11.4318 4.93587V7.49857C10.6605 7.60492 9.92954 7.90826 9.30953 8.37933L7.49496 6.56475V2.70744H6.26401V5.36034L4.57147 3.63596L3.69602 4.51141L5.39387 6.20396H2.74097V7.4349H6.59828L8.41286 9.24948C7.94031 9.86918 7.63517 10.6 7.52679 11.3718H4.99593L2.26876 8.64462L1.388 9.51476L3.23972 11.3718H0.857422V12.6027H3.25033L1.388 14.4598L2.25815 15.3299L4.99593 12.6027H7.55332C7.66262 13.3742 7.96767 14.1049 8.43938 14.725L6.62481 16.5343H2.7675V17.7759H5.42039L3.72254 19.4737L4.57147 20.3333L6.26401 18.6407V21.2618H7.49496V17.4045L9.30953 15.5952C9.92997 16.0646 10.6609 16.3661 11.4318 16.4706V19.0333L8.70467 21.7605L9.57482 22.636L11.4318 20.7789V23.1718H12.6628V20.7789L14.5198 22.636L15.39 21.7605L12.6628 19.0333V16.4706C13.4337 16.3625 14.1641 16.0593 14.7851 15.5899L16.605 17.4045V21.2618H17.8359V18.6407L19.5338 20.3333L20.4039 19.4631L18.7008 17.7759H21.3218V16.5343H17.4645L15.6446 14.7144C16.1163 14.0948 16.4197 13.3637 16.5254 12.5921H19.0987L21.8259 15.3193L22.696 14.4491L20.839 12.5921H23.2319V11.3718ZM15.2732 11.3718H13.5329L14.7692 10.1355C15.0225 10.508 15.1959 10.929 15.2785 11.3718H15.2732ZM13.8937 9.24948L12.6575 10.4804V8.75604C13.1045 8.84209 13.5279 9.02302 13.899 9.28662L13.8937 9.24948ZM11.4265 8.7189V10.4698L10.185 9.22825C10.5635 8.98643 10.9881 8.82565 11.4318 8.75604L11.4265 8.7189ZM9.30423 10.1037L10.5458 11.3453H8.8161C8.89827 10.9106 9.06796 10.4973 9.31484 10.1302L9.30423 10.1037ZM8.77365 12.5762H10.5299L9.28831 13.8178C9.05169 13.4482 8.89115 13.0351 8.8161 12.6027L8.77365 12.5762ZM10.1638 14.6985L11.4053 13.457V15.2079C10.971 15.1276 10.5576 14.9597 10.1903 14.7144L10.1638 14.6985ZM12.6363 15.2291V13.4782L13.8725 14.7144C13.5078 14.9641 13.0963 15.1374 12.6628 15.2238L12.6363 15.2291ZM14.7586 13.839L13.5223 12.608H15.2679C15.1894 13.047 15.0194 13.4646 14.7692 13.8337L14.7586 13.839Z" fill="white"/>
</g>
<defs>
<clipPath id="clip0">
<rect width="22.3745" height="22.3745" fill="white" transform="translate(0.861328 0.797363)"/>
</clipPath>
</defs>
</svg>
