<svg width="260" height="128" viewBox="0 0 260 128" fill="none" xmlns="http://www.w3.org/2000/svg">
<path fill-rule="evenodd" clip-rule="evenodd" d="M45.2917 110.142C42.9581 110.169 40.6439 109.715 38.4918 108.806C36.3397 107.898 34.3955 106.556 32.7792 104.862C31.1191 103.21 29.8012 101.243 28.9017 99.0749C28.0022 96.9069 27.5391 94.5809 27.5391 92.2315C27.5391 89.8822 28.0022 87.5562 28.9017 85.3882C29.8012 83.2202 31.1191 81.2533 32.7792 79.6015C34.4009 77.9206 36.3481 76.5923 38.5003 75.6989C40.6525 74.8055 42.9639 74.3659 45.2917 74.4073C48.7971 74.4085 52.2238 75.4542 55.1395 77.4126C58.0552 79.3709 60.3294 82.1542 61.6754 85.4115C63.0213 88.6688 63.3787 92.2542 62.7025 95.7156C62.0263 99.1771 60.3468 102.359 57.8757 104.862C56.2475 106.56 54.291 107.904 52.1267 108.812C49.9625 109.721 47.6363 110.173 45.2917 110.142Z" fill="black"/>
<path fill-rule="evenodd" clip-rule="evenodd" d="M45.29 81.4689C43.8833 81.4423 42.4861 81.7064 41.1848 82.2447C39.8835 82.7831 38.7058 83.5843 37.7243 84.5988C36.7167 85.5975 35.9166 86.788 35.3704 88.1008C34.8242 89.4136 34.543 90.8227 34.543 92.2459C34.543 93.6692 34.8242 95.0782 35.3704 96.3911C35.9166 97.7039 36.7167 98.8944 37.7243 99.8931C38.6953 100.926 39.8695 101.745 41.1721 102.296C42.4747 102.847 43.8771 103.119 45.29 103.095C46.712 103.114 48.1228 102.839 49.4355 102.289C50.7481 101.738 51.9348 100.923 52.9225 99.8931C54.4331 98.3837 55.4624 96.4556 55.879 94.3548C56.2956 92.254 56.0806 90.076 55.2615 88.0987C54.4424 86.1215 53.0563 84.4347 51.2803 83.2538C49.5042 82.0729 47.4187 81.4515 45.29 81.4689V81.4689Z" fill="#FFEC00"/>
<path fill-rule="evenodd" clip-rule="evenodd" d="M17.7463 84.1957C15.4128 84.2222 13.0987 83.7674 10.9467 82.8592C8.79472 81.951 6.85043 80.6087 5.23381 78.9151C3.57446 77.2633 2.25713 75.2968 1.35807 73.1292C0.459018 70.9617 -0.00390625 68.6362 -0.00390625 66.2875C-0.00390625 63.9387 0.459018 61.6132 1.35807 59.4457C2.25713 57.2781 3.57446 55.3116 5.23381 53.6598C6.85719 51.9824 8.8051 50.6577 10.9572 49.7676C13.1093 48.8776 15.4199 48.441 17.7463 48.4849C20.0852 48.4396 22.4085 48.8771 24.5729 49.7704C26.7372 50.6638 28.6967 51.994 30.3303 53.679C33.6364 57.0397 35.4909 61.5777 35.4909 66.3067C35.4909 71.0357 33.6364 75.5736 30.3303 78.9343C28.7005 80.629 26.7433 81.97 24.5791 82.8748C22.4149 83.7797 20.0896 84.2292 17.7463 84.1957Z" fill="black"/>
<path fill-rule="evenodd" clip-rule="evenodd" d="M17.7473 55.5224C16.3406 55.4964 14.9436 55.7607 13.6424 56.299C12.3412 56.8373 11.1634 57.6382 10.1816 58.6523C9.17503 59.6521 8.3758 60.8432 7.8303 62.1563C7.28481 63.4695 7.00391 64.8786 7.00391 66.3019C7.00391 67.7251 7.28481 69.1342 7.8303 70.4474C8.3758 71.7605 9.17503 72.9516 10.1816 73.9514C11.153 74.9841 12.3272 75.802 13.6297 76.3533C14.9322 76.9045 16.3345 77.177 17.7473 77.1533C19.1694 77.173 20.5804 76.8989 21.8932 76.3482C23.206 75.7975 24.3926 74.9818 25.3798 73.9514C26.8896 72.4414 27.9182 70.513 28.3345 68.4122C28.7507 66.3114 28.5356 64.1334 27.7167 62.1562C26.8978 60.1789 25.5122 58.4919 23.7366 57.3104C21.961 56.1289 19.8759 55.5064 17.7473 55.5224V55.5224Z" fill="#E30079"/>
<path fill-rule="evenodd" clip-rule="evenodd" d="M67.0664 60.3372C67.0646 59.8712 67.1576 59.4097 67.3397 58.9812C67.5218 58.5527 67.7892 58.1663 68.1254 57.8458C68.4482 57.5179 68.8346 57.2605 69.2605 57.0896C69.6865 56.9186 70.1429 56.8378 70.6012 56.8521C71.0591 56.8409 71.5144 56.9234 71.9396 57.0946C72.3648 57.2658 72.751 57.5221 73.0748 57.848C73.3987 58.1738 73.6534 58.5625 73.8235 58.9904C73.9936 59.4183 74.0756 59.8765 74.0645 60.3372V106.657C74.0774 107.118 73.996 107.576 73.8253 108.004C73.6546 108.432 73.3983 108.82 73.0722 109.144C72.7545 109.482 72.3715 109.752 71.9465 109.936C71.5216 110.12 71.0638 110.215 70.6012 110.214C69.671 110.191 68.7852 109.809 68.1272 109.147C67.4692 108.485 67.0894 107.593 67.0664 106.657V60.3372Z" fill="black"/>
<path fill-rule="evenodd" clip-rule="evenodd" d="M81.984 67.3843C81.2055 67.3654 80.4572 67.0767 79.8657 66.5669C79.2742 66.0571 78.8756 65.3574 78.7373 64.5861C78.599 63.8149 78.7295 63.0192 79.1066 62.3335C79.4838 61.6478 80.0846 61.1141 80.8075 60.8225C81.5304 60.531 82.3312 60.4994 83.0746 60.7332C83.8179 60.967 84.4583 61.4518 84.8876 62.1057C85.3169 62.7596 85.5088 63.5426 85.4309 64.3224C85.3529 65.1022 85.0099 65.831 84.4598 66.3858C84.1375 66.7145 83.7513 66.9728 83.3253 67.1446C82.8993 67.3164 82.4428 67.398 81.984 67.3843V67.3843ZM78.4492 77.9838C78.4474 77.5177 78.5404 77.0563 78.7225 76.6278C78.9047 76.1993 79.1721 75.8129 79.5083 75.4923C79.831 75.1645 80.2174 74.9071 80.6434 74.7361C81.0693 74.5652 81.5257 74.4843 81.984 74.4986C82.4421 74.4868 82.8977 74.5688 83.3232 74.7397C83.7487 74.9107 84.1352 75.167 84.4592 75.493C84.7832 75.819 85.0378 76.2079 85.2077 76.6362C85.3776 77.0644 85.4591 77.5229 85.4473 77.9838V106.657C85.4562 107.591 85.0965 108.49 84.4471 109.157C83.7977 109.824 82.9119 110.204 81.984 110.214C81.0538 110.191 80.168 109.809 79.51 109.147C78.852 108.485 78.4722 107.593 78.4492 106.657V77.9838Z" fill="black"/>
<path fill-rule="evenodd" clip-rule="evenodd" d="M124.982 110.142C124.949 114.868 123.069 119.391 119.748 122.733C116.428 126.075 111.933 127.967 107.236 128C103.907 128.008 100.643 127.069 97.8198 125.292C94.9595 123.552 92.6717 121.002 91.2416 117.962C91.0336 117.546 90.9139 117.091 90.8901 116.625C90.8663 116.16 90.9389 115.695 91.1032 115.259C91.2374 114.819 91.4646 114.413 91.7693 114.069C92.0739 113.725 92.4488 113.452 92.8682 113.267C93.7017 112.841 94.6687 112.763 95.5587 113.051C96.4246 113.36 97.1345 114 97.5336 114.832C99.518 118.925 102.748 120.972 107.222 120.972C108.617 120.993 110.002 120.726 111.291 120.187C112.58 119.649 113.745 118.851 114.716 117.842C115.727 116.879 116.535 115.721 117.094 114.439C117.653 113.156 117.95 111.773 117.97 110.373V106.46C114.89 108.852 111.112 110.153 107.222 110.161C104.891 110.161 102.583 109.699 100.43 108.802C98.2768 107.904 96.3203 106.588 94.6724 104.929C93.0245 103.27 91.7175 101.301 90.826 99.1341C89.9345 96.9669 89.4759 94.6443 89.4766 92.2987C89.4727 88.7694 90.5081 85.318 92.452 82.3805C94.396 79.4429 97.1613 77.1509 100.399 75.7939C103.636 74.4368 107.201 74.0756 110.642 74.7559C114.084 75.4361 117.248 77.1273 119.735 79.6159C121.422 81.2544 122.758 83.2232 123.661 85.4012C124.563 87.5792 125.013 89.92 124.982 92.2795V110.142ZM107.236 103.095C109.366 103.095 111.447 102.458 113.217 101.265C114.986 100.073 116.363 98.378 117.174 96.3964C117.984 94.4147 118.192 92.2353 117.769 90.1348C117.347 88.0344 116.314 86.1075 114.802 84.5988C112.788 82.5945 110.069 81.4699 107.236 81.4689C105.83 81.4423 104.432 81.7064 103.131 82.2447C101.83 82.7831 100.652 83.5842 99.6707 84.5988C98.6631 85.5975 97.8629 86.7879 97.3168 88.1008C96.7706 89.4136 96.4893 90.8227 96.4893 92.2459C96.4893 93.6692 96.7706 95.0782 97.3168 96.3911C97.8629 97.7039 98.6631 98.8943 99.6707 99.8931C100.64 100.924 101.812 101.742 103.112 102.293C104.412 102.844 105.812 103.117 107.222 103.095H107.236Z" fill="black"/>
<path fill-rule="evenodd" clip-rule="evenodd" d="M136.135 106.657C136.11 107.578 135.76 108.46 135.147 109.144C134.829 109.483 134.445 109.753 134.019 109.937C133.594 110.121 133.135 110.215 132.672 110.214C132.207 110.224 131.746 110.133 131.319 109.948C130.892 109.764 130.509 109.489 130.196 109.144C129.86 108.824 129.593 108.438 129.411 108.011C129.228 107.583 129.135 107.122 129.137 106.657V92.3565C129.136 90.011 129.595 87.6883 130.486 85.5211C131.378 83.354 132.685 81.3848 134.333 79.726C135.981 78.0673 137.937 76.7514 140.09 75.8537C142.244 74.956 144.552 74.4939 146.882 74.4939C147.823 74.5097 148.726 74.8639 149.43 75.4924C150.064 76.1641 150.417 77.0551 150.417 77.9815C150.417 78.9078 150.064 79.7988 149.43 80.4705C149.101 80.8148 148.705 81.0871 148.266 81.2704C147.828 81.4538 147.357 81.5443 146.882 81.5362C145.475 81.5111 144.078 81.7763 142.777 82.3155C141.476 82.8546 140.298 83.6562 139.317 84.6709C138.293 85.6649 137.483 86.8591 136.936 88.18C136.389 89.501 136.116 90.9207 136.135 92.3517V106.657Z" fill="black"/>
<path fill-rule="evenodd" clip-rule="evenodd" d="M185.276 106.513C185.295 106.985 185.217 107.457 185.046 107.897C184.876 108.338 184.616 108.738 184.284 109.072C183.951 109.406 183.554 109.668 183.116 109.839C182.679 110.011 182.21 110.09 181.741 110.07C180.847 109.98 180.015 109.572 179.392 108.92C178.77 108.268 178.399 107.415 178.344 106.513C175.381 108.899 171.677 110.158 167.883 110.07C162.884 110.07 158.665 108.409 155.228 105.087C153.527 103.489 152.181 101.548 151.277 99.3905C150.373 97.2333 149.931 94.9084 149.98 92.5677C149.977 90.2027 150.438 87.8604 151.336 85.6749C152.233 83.4894 153.551 81.5037 155.213 79.8314C156.874 78.1592 158.848 76.8333 161.019 75.9297C163.191 75.0262 165.519 74.5627 167.869 74.5659C170.195 74.517 172.506 74.962 174.651 75.8719C176.795 76.7817 178.725 78.1359 180.314 79.8464C183.612 83.3059 185.261 87.5512 185.261 92.5821L185.276 106.513ZM167.883 103.095C169.274 103.127 170.656 102.873 171.945 102.347C173.234 101.821 174.402 101.035 175.377 100.037C176.352 99.0619 177.119 97.896 177.629 96.6114C178.139 95.3268 178.383 93.9506 178.344 92.5677C178.405 89.6901 177.34 86.9038 175.377 84.8101C174.433 83.7574 173.275 82.9205 171.983 82.3557C170.69 81.791 169.292 81.5115 167.883 81.5362C164.984 81.5723 162.214 82.7471 160.165 84.8099C158.115 86.8728 156.947 89.6602 156.911 92.5773C156.892 93.984 157.172 95.3786 157.733 96.6671C158.294 97.9557 159.123 99.1081 160.165 100.047C161.176 101.058 162.383 101.85 163.711 102.375C165.038 102.899 166.458 103.144 167.883 103.095V103.095Z" fill="black"/>
<path fill-rule="evenodd" clip-rule="evenodd" d="M205.775 74.4074C206.715 74.4253 207.618 74.7793 208.322 75.4059C208.934 76.0925 209.284 76.9754 209.31 77.8974C209.323 78.3578 209.243 78.8162 209.073 79.2439C208.903 79.6717 208.647 80.0598 208.322 80.384C207.993 80.728 207.597 81.0004 207.159 81.1845C206.72 81.3686 206.25 81.4605 205.775 81.4545H199.573V106.571C199.586 107.031 199.505 107.49 199.334 107.918C199.164 108.346 198.907 108.733 198.581 109.057C198.253 109.402 197.858 109.674 197.42 109.858C196.983 110.043 196.513 110.134 196.039 110.128C195.111 110.118 194.225 109.737 193.576 109.07C192.926 108.403 192.567 107.504 192.575 106.571V81.4689H188.664C188.201 81.4692 187.743 81.3744 187.318 81.1904C186.894 81.0063 186.511 80.7368 186.193 80.3984C185.867 80.0746 185.61 79.6867 185.44 79.2589C185.269 78.8311 185.188 78.3726 185.201 77.9118C185.223 76.9882 185.575 76.1037 186.193 75.4203C186.871 74.7981 187.747 74.4391 188.664 74.4074H192.556C192.502 69.1941 194.223 64.8305 197.718 61.3165C199.559 59.3936 201.841 57.9546 204.363 57.1257C204.883 56.7944 205.794 56.8185 207.048 57.1977C207.87 57.641 208.498 58.3746 208.813 59.2571C208.979 59.6807 209.053 60.1353 209.029 60.59C209.005 61.0447 208.884 61.4889 208.675 61.8926C208.486 62.3188 208.213 62.7022 207.873 63.0197C207.532 63.3373 207.132 63.5825 206.695 63.7407C205.167 64.2573 203.784 65.1366 202.665 66.3042C200.588 68.394 199.551 71.0967 199.554 74.4122L205.775 74.4074Z" fill="black"/>
<path fill-rule="evenodd" clip-rule="evenodd" d="M216.944 67.3843C216.166 67.3643 215.418 67.0747 214.827 66.5643C214.237 66.0539 213.839 65.3541 213.701 64.5828C213.564 63.8116 213.695 63.0163 214.073 62.3311C214.45 61.6459 215.051 61.1128 215.774 60.8218C216.497 60.5308 217.298 60.4997 218.041 60.7338C218.784 60.9679 219.424 61.4528 219.853 62.1067C220.282 62.7606 220.473 63.5434 220.395 64.323C220.317 65.1025 219.974 65.8312 219.425 66.3858C219.102 66.7151 218.715 66.9738 218.288 67.1456C217.861 67.3174 217.404 67.3987 216.944 67.3843V67.3843ZM213.414 77.9838C213.412 77.5178 213.505 77.0563 213.687 76.6278C213.869 76.1993 214.137 75.8129 214.473 75.4923C214.795 75.1651 215.181 74.908 215.606 74.7371C216.031 74.5662 216.486 74.485 216.944 74.4987C217.402 74.4861 217.859 74.5677 218.285 74.7383C218.711 74.9089 219.098 75.1651 219.422 75.4912C219.747 75.8173 220.002 76.2065 220.172 76.635C220.342 77.0636 220.424 77.5225 220.412 77.9838V106.657C220.426 107.118 220.345 107.576 220.175 108.004C220.005 108.431 219.75 108.819 219.425 109.144C219.106 109.484 218.722 109.754 218.295 109.938C217.868 110.123 217.408 110.216 216.944 110.214C216.015 110.189 215.131 109.806 214.474 109.144C213.818 108.482 213.438 107.592 213.414 106.657V77.9838Z" fill="black"/>
<path fill-rule="evenodd" clip-rule="evenodd" d="M259.983 106.513C260.003 106.986 259.925 107.457 259.755 107.898C259.584 108.339 259.325 108.739 258.992 109.074C258.66 109.408 258.262 109.669 257.824 109.841C257.386 110.013 256.918 110.091 256.448 110.07C255.556 109.978 254.725 109.569 254.104 108.918C253.483 108.266 253.111 107.414 253.056 106.513C250.091 108.899 246.386 110.159 242.59 110.07C237.597 110.07 233.379 108.409 229.935 105.087C228.235 103.489 226.889 101.548 225.984 99.3905C225.08 97.2333 224.638 94.9084 224.687 92.5676C224.684 90.2027 225.145 87.8604 226.043 85.6749C226.94 83.4894 228.258 81.5037 229.92 79.8314C231.581 78.1592 233.555 76.8333 235.726 75.9297C237.898 75.0262 240.226 74.5627 242.576 74.5658C244.903 74.5164 247.214 74.9611 249.358 75.871C251.503 76.7809 253.432 78.1354 255.022 79.8464C258.323 83.3059 259.972 87.5511 259.968 92.582L259.983 106.513ZM242.59 103.095C243.972 103.122 245.344 102.869 246.626 102.35C247.908 101.83 249.072 101.056 250.05 100.073C251.027 99.09 251.797 97.9185 252.314 96.6289C252.83 95.3392 253.083 93.9579 253.056 92.5676C253.116 89.6895 252.048 86.9033 250.084 84.8101C249.141 83.7566 247.983 82.9192 246.69 82.3544C245.398 81.7896 243.999 81.5106 242.59 81.5361C239.691 81.5722 236.922 82.7471 234.872 84.8099C232.822 86.8728 231.654 89.6602 231.619 92.5772C231.598 93.9841 231.878 95.379 232.439 96.6677C233 97.9564 233.83 99.1087 234.872 100.047C235.885 101.061 237.095 101.855 238.426 102.379C239.757 102.904 241.181 103.147 242.609 103.095H242.59Z" fill="black"/>
<path fill-rule="evenodd" clip-rule="evenodd" d="M0.0865798 66.2466C0.0862655 65.7811 0.180459 65.3204 0.363383 64.8928C0.546308 64.4652 0.814106 64.0797 1.15035 63.76C1.47215 63.4319 1.85758 63.1739 2.28268 63.0021C2.70778 62.8304 3.16346 62.7484 3.62137 62.7615C4.53858 62.7864 5.41672 63.1405 6.09715 63.76C6.71202 64.4432 7.06393 65.3252 7.08937 66.2466V106.513C7.10298 106.975 7.0219 107.434 6.85118 107.863C6.68047 108.291 6.42378 108.68 6.09715 109.005C5.77864 109.343 5.39465 109.612 4.96886 109.795C4.54306 109.979 4.08448 110.072 3.62137 110.07C3.15768 110.081 2.69711 109.991 2.2708 109.808C1.84449 109.624 1.4624 109.35 1.15035 109.005C0.80696 108.689 0.534412 108.304 0.350954 107.874C0.167496 107.445 0.0773599 106.981 0.0865798 106.513V66.2466Z" fill="black"/>
<path fill-rule="evenodd" clip-rule="evenodd" d="M73.9409 49.7521C73.9154 50.6741 73.5655 51.557 72.9535 52.2436C72.6349 52.5819 72.251 52.851 71.8252 53.0343C71.3994 53.2176 70.9408 53.3112 70.4777 53.3093C70.014 53.32 69.5534 53.2305 69.1271 53.0466C68.7008 52.8627 68.3187 52.5889 68.0067 52.2436C67.6698 51.9233 67.4017 51.537 67.2187 51.1086C67.0358 50.6801 66.9419 50.2185 66.9429 49.7521V35.4515C66.9121 33.092 67.3617 30.7511 68.2642 28.5732C69.1666 26.3952 70.5028 24.4263 72.1902 22.7879C73.8135 21.1077 75.7617 19.7801 77.9145 18.8867C80.0673 17.9934 82.3792 17.5534 84.7075 17.5937C85.6463 17.6103 86.5482 17.9645 87.25 18.5922C87.8676 19.2746 88.2229 20.1564 88.2518 21.0789C88.2263 22.0009 87.8764 22.8838 87.2643 23.5703C86.935 23.9128 86.5396 24.184 86.1024 24.3673C85.6652 24.5505 85.1954 24.642 84.7218 24.636C83.3141 24.6106 81.9161 24.8756 80.6141 25.4147C79.3121 25.9539 78.1336 26.7557 77.1513 27.7707C76.1281 28.7647 75.318 29.9589 74.7708 31.2799C74.2235 32.6008 73.9509 34.0205 73.9695 35.4515L73.9409 49.7521Z" fill="black"/>
<path fill-rule="evenodd" clip-rule="evenodd" d="M105.773 53.2421C103.44 53.2692 101.125 52.8146 98.9733 51.9064C96.8212 50.9982 94.877 49.6556 93.2607 47.9616C91.5767 46.3345 90.2422 44.3772 89.3397 42.2106C88.4372 40.044 87.9858 37.7142 88.0134 35.3651C87.9808 33.0054 88.4297 30.664 89.3323 28.4858C90.2349 26.3076 91.5719 24.3389 93.2607 22.7014C96.6003 19.3745 101.11 17.5082 105.809 17.5082C110.508 17.5082 115.018 19.3745 118.357 22.7014C120.033 24.3474 121.356 26.3217 122.243 28.5023C123.131 30.6829 123.565 33.0235 123.519 35.3795C123.519 37.725 123.061 40.0477 122.169 42.2149C121.278 44.382 119.971 46.3512 118.323 48.01C116.675 49.6687 114.718 50.9846 112.565 51.8823C110.412 52.78 108.104 53.2421 105.773 53.2421V53.2421ZM105.773 24.564C104.367 24.5386 102.97 24.8032 101.669 25.3415C100.367 25.8798 99.1896 26.6803 98.2075 27.6939C97.1997 28.6931 96.3995 29.8839 95.8533 31.1972C95.307 32.5104 95.0257 33.9199 95.0257 35.3435C95.0257 36.7672 95.307 38.1766 95.8533 39.4898C96.3995 40.8031 97.1997 41.9939 98.2075 42.9931C99.1785 44.0262 100.353 44.8445 101.655 45.3958C102.958 45.947 104.36 46.2192 105.773 46.195C107.195 46.2143 108.606 45.9402 109.919 45.3895C111.232 44.8388 112.418 44.0232 113.406 42.9931C115.399 40.9524 116.516 38.2052 116.516 35.3435C116.516 32.4818 115.399 29.7346 113.406 27.6939C111.368 25.6834 108.627 24.5593 105.773 24.564V24.564Z" fill="black"/>
<path fill-rule="evenodd" clip-rule="evenodd" d="M143.955 17.5218C144.894 17.5383 145.796 17.8925 146.497 18.5203C147.109 19.2051 147.459 20.0864 147.485 21.0069C147.502 21.4721 147.424 21.936 147.254 22.369C147.084 22.802 146.826 23.1948 146.497 23.5224C146.168 23.8653 145.773 24.1368 145.336 24.3201C144.898 24.5034 144.428 24.5946 143.955 24.5881H137.753V49.7042C137.768 50.1654 137.687 50.6247 137.517 51.0533C137.348 51.482 137.092 51.8708 136.766 52.1956C136.436 52.5389 136.04 52.8109 135.602 52.9949C135.164 53.179 134.693 53.2713 134.219 53.2661C133.755 53.2665 133.297 53.1718 132.871 52.9877C132.445 52.8037 132.061 52.5341 131.743 52.1956C131.417 51.8708 131.161 51.482 130.991 51.0533C130.821 50.6247 130.741 50.1654 130.755 49.7042V24.5641H126.844C126.382 24.569 125.925 24.4792 125.499 24.3001C125.073 24.121 124.689 23.8563 124.368 23.5224C124.042 23.1976 123.786 22.8087 123.616 22.3801C123.447 21.9514 123.366 21.4922 123.381 21.0309C123.403 20.1096 123.753 19.2271 124.368 18.5443C125.049 17.9255 125.927 17.5715 126.844 17.5458H130.732C130.684 12.3292 132.404 7.9656 135.893 4.45485C137.733 2.52293 140.014 1.07273 142.538 0.230423C143.056 -0.0896089 143.952 -0.0640063 145.224 0.307231C146.048 0.747753 146.679 1.4822 146.993 2.36664C147.157 2.79086 147.229 3.24542 147.205 3.69992C147.18 4.15442 147.059 4.59838 146.85 5.0021C146.661 5.42833 146.388 5.81171 146.048 6.12927C145.708 6.44684 145.307 6.69207 144.871 6.85029C143.344 7.36801 141.962 8.24523 140.84 9.40894C138.763 11.4956 137.726 14.1998 137.73 17.5218H143.955Z" fill="black"/>
<path fill-rule="evenodd" clip-rule="evenodd" d="M155.121 10.4794C154.663 10.4925 154.207 10.4105 153.782 10.2388C153.357 10.067 152.972 9.80902 152.65 9.48092C152.315 9.15954 152.049 8.77327 151.867 8.34546C151.686 7.91765 151.592 7.45717 151.592 6.99187C151.592 6.52657 151.686 6.06609 151.867 5.63828C152.049 5.21047 152.315 4.8242 152.65 4.50282C153.134 4.00425 153.756 3.66337 154.435 3.52427C155.114 3.38517 155.819 3.45424 156.459 3.72254C157.098 3.99085 157.643 4.44605 158.023 5.02931C158.403 5.61257 158.6 6.29705 158.589 6.99427C158.6 7.455 158.518 7.91321 158.348 8.3411C158.178 8.76899 157.923 9.15767 157.599 9.48355C157.275 9.80943 156.889 10.0657 156.464 10.2369C156.039 10.4081 155.583 10.4906 155.126 10.4794H155.121ZM151.586 21.0789C151.596 20.1452 151.974 19.2537 152.637 18.6002C153.3 17.9468 154.193 17.5848 155.121 17.5937C156.038 17.6195 156.916 17.9735 157.597 18.5922C158.209 19.2766 158.559 20.1582 158.584 21.0789V49.7521C158.59 50.2148 158.504 50.6741 158.333 51.1035C158.162 51.533 157.908 51.9242 157.587 52.2547C157.265 52.5852 156.881 52.8485 156.458 53.0295C156.035 53.2104 155.581 53.3055 155.121 53.3093C154.19 53.2873 153.304 52.9055 152.645 52.2431C151.987 51.5807 151.608 50.6887 151.586 49.7521V21.0789Z" fill="black"/>
<path fill-rule="evenodd" clip-rule="evenodd" d="M46.1528 53.2421C43.8185 53.2693 41.5035 52.8148 39.3506 51.9065C37.1978 50.9983 35.2527 49.6557 33.6355 47.9615C31.9525 46.3338 30.6186 44.3764 29.7161 42.2099C28.8137 40.0435 28.3617 37.714 28.3882 35.3651C28.3574 33.0056 28.807 30.6647 29.7095 28.4867C30.612 26.3088 31.9481 24.3399 33.6355 22.7014C35.2596 21.0232 37.2082 19.6978 39.361 18.8069C41.5139 17.916 43.8254 17.4786 46.1528 17.5217C48.4887 17.5058 50.8045 17.9566 52.966 18.8481C55.1274 19.7396 57.0915 21.0541 58.7444 22.7152C60.3973 24.3763 61.7061 26.351 62.5949 28.525C63.4837 30.6989 63.9348 33.0288 63.9221 35.3795C63.9221 40.1161 62.0527 44.6588 58.7249 48.0085C55.3971 51.3583 50.8835 53.2408 46.1766 53.2421H46.1528Z" fill="black"/>
<path fill-rule="evenodd" clip-rule="evenodd" d="M46.1555 24.5689C44.7487 24.542 43.3515 24.806 42.0501 25.3443C40.7488 25.8827 39.5711 26.684 38.5898 27.6988C37.5805 28.6965 36.7787 29.8867 36.2315 31.1996C35.6842 32.5126 35.4023 33.9221 35.4023 35.346C35.4023 36.7698 35.6842 38.1793 36.2315 39.4923C36.7787 40.8053 37.5805 41.9954 38.5898 42.9931C39.5606 44.0265 40.7348 44.8449 42.0374 45.3962C43.34 45.9475 44.7425 46.2196 46.1555 46.195C47.5776 46.2144 48.9885 45.9402 50.3012 45.3895C51.614 44.8388 52.8006 44.0232 53.7879 42.9931C55.2985 41.4837 56.3278 39.5556 56.7444 37.4548C57.161 35.354 56.9461 33.176 56.127 31.1987C55.3079 29.2215 53.9218 27.5347 52.1457 26.3538C50.3696 25.173 48.2841 24.5515 46.1555 24.5689V24.5689Z" fill="#009EE0"/>
<path fill-rule="evenodd" clip-rule="evenodd" d="M28.4922 35.2883C28.5023 34.3546 28.8802 33.4631 29.543 32.8097C30.2057 32.1562 31.0992 31.7942 32.027 31.8031C32.4844 31.7933 32.9392 31.8768 33.3638 32.0484C33.7883 32.2201 34.174 32.4765 34.4976 32.8021C34.8211 33.1277 35.0759 33.5158 35.2465 33.9431C35.4171 34.3703 35.5 34.8279 35.4902 35.2883V63.8463C35.5038 64.308 35.4227 64.7674 35.252 65.1961C35.0813 65.6248 34.8246 66.0134 34.498 66.3378C34.1804 66.676 33.7972 66.945 33.3722 67.1283C32.9472 67.3116 32.4894 67.4053 32.027 67.4035C31.0964 67.3815 30.2099 66.9997 29.5517 66.3373C28.8934 65.6749 28.514 64.7829 28.4922 63.8463V35.2883Z" fill="black"/>
</svg>
