<svg width="150" height="157" viewBox="0 0 150 157" fill="none" xmlns="http://www.w3.org/2000/svg">
<path d="M140.688 90.7941C139.436 90.2417 138.126 89.8472 136.859 89.3594C134.947 88.5918 134.532 86.7339 135.062 84.7828C136.021 81.275 140.903 80.3926 141.819 77.0211C142.228 75.4932 141.862 73.5851 141.633 72.0715C141.347 69.8408 140.732 67.665 139.808 65.6154C138.92 63.877 137.749 62.2988 136.343 60.9455C134.854 59.4391 132.471 59.848 131.06 58.3272C129.493 56.6271 130.609 54.1738 132.327 53.3058C133.394 52.7678 134.647 52.4809 135.584 51.7134C137.424 50.2285 136.687 46.3907 134.303 45.8025C130.724 44.913 127.739 48.8153 124.109 48.0406C118.834 46.9 123.938 38.3493 125.054 35.8458C126.543 32.4814 128.462 29.0526 128.97 25.3654C129.014 24.8705 128.96 24.3717 128.811 23.8978C128.662 23.4239 128.421 22.9843 128.101 22.6042C127.782 22.2241 127.391 21.9111 126.95 21.6833C126.509 21.4554 126.028 21.3172 125.534 21.2766C123.336 21.1188 121.332 22.3956 119.621 23.6223C117.266 25.3224 115.183 27.374 112.849 29.1099C110.745 30.6809 108.375 31.7282 107.18 28.658L107.094 28.3783C108.318 28.3783 108.776 28.328 109.542 26.9436C110.193 25.803 110.558 23.529 109.12 22.7687C106.693 21.4774 105.275 22.3741 104.524 24.8131C103.872 26.9651 100.229 24.7198 100.021 23.0556C99.7634 21.2049 101.009 19.017 101.632 17.3527C102.627 14.6699 104.137 11.7216 104.195 8.83072C104.252 5.78202 100.973 6.01875 98.8686 6.60697C95.6473 7.50364 95.9193 10.9684 96.0911 13.6369C96.2415 16.0328 96.0482 17.9912 93.6644 19.1748C91.5169 20.2436 89.7272 17.4388 88.768 15.9898C87.3363 13.8378 86.0693 10.7532 82.9625 11.6857C82.2916 11.9455 81.7117 12.397 81.2946 12.9841C79.7984 14.8205 78.0303 14.7847 76.1476 13.5365C74.2649 12.2883 70.7501 13.0056 68.8674 13.8378C66.6412 14.8205 65.2453 17.3456 63.2194 18.6942C62.3532 19.2752 59.1605 21.3483 58.1655 20.1288C57.6143 19.4761 57.8577 18.0701 57.8577 17.3025C57.8577 14.9855 57.0989 13.7158 55.1804 12.3816C53.5984 11.2912 51.8947 11.8938 50.8352 13.3284C49.0027 15.8033 48.9239 19.4976 47.7213 22.288C46.4185 25.3009 43.7555 26.0541 40.9995 27.4098C40.9207 27.4529 40.6774 27.582 40.7418 27.7183C40.9351 28.0913 41.1212 28.493 41.3359 28.8445C41.593 29.2053 41.832 29.5788 42.0518 29.9636L41.3861 30.4657C40.7034 31.0159 39.986 31.5215 39.2385 31.9793C38.5904 32.0217 37.9395 31.971 37.3057 31.8287C35.4302 31.4126 33.7265 30.3007 32.08 29.2534C30.4765 27.1014 29.0448 24.6624 26.3031 24.232C25.0862 24.0455 22.3517 23.7801 21.7217 25.2722C21.0918 26.7642 23.1534 28.7298 23.9122 29.6623C24.5493 30.437 25.2079 31.1902 25.8665 31.9434C26.8257 33.5933 28.4865 35.3508 29.8323 36.9648C30.9561 39.0666 32.08 42.9618 28.1071 41.9073C26.3389 41.4482 23.404 38.2489 21.4497 39.5401C21.0262 39.8645 20.6941 40.2935 20.4858 40.7852C20.2775 41.2768 20.2002 41.8143 20.2614 42.3449C20.5549 43.9446 22.595 44.3319 23.7118 45.2142C25.8593 46.9574 22.4805 49.1238 21.5642 50.3576C20.8126 51.3977 20.9987 53.1265 21.1848 54.3388C21.223 54.6052 21.2952 54.8656 21.3996 55.1135C21.0615 56.2227 20.5545 57.2729 19.8963 58.2268C17.0329 61.9928 11.9074 60.4864 8.33536 62.8106C5.81558 64.4533 6.90366 67.9539 9.45924 68.7072C10.9554 69.1447 12.8882 68.8865 14.0693 70.0629C15.2504 71.2394 14.3342 72.7888 13.3535 73.6496C11.0842 75.5506 7.88438 76.4329 5.21426 77.6094C3.44612 78.3913 0.761691 79.4529 0.110269 81.4973C-0.541152 83.5418 1.83546 85.249 3.5177 85.5216C6.60301 86.0238 10.0677 83.5274 12.5875 82.1286C14.2909 81.1113 16.098 80.2792 17.9778 79.6466C18.9613 79.3184 20.0153 79.2638 21.0273 79.4888C21.3638 79.5749 21.1276 81.0454 21.2564 81.44C21.7861 83.0755 21.1634 85.3423 20.8412 86.9563C20.4628 89.1321 19.8235 91.254 18.9371 93.2761C18.393 94.4525 16.8683 95.0264 15.8231 95.6648C14.6096 96.3525 13.4743 97.1703 12.4372 98.1038C10.0606 100.385 14.1409 100.973 15.68 101.038C17.2361 101.191 18.8056 100.944 20.2399 100.32C21.4211 99.7608 22.1512 98.4481 23.5829 98.9646C25.9452 99.811 28.1214 102.228 29.7607 103.986C31.5718 105.937 34.0558 109.402 33.0751 112.243C32.0156 115.385 28.9375 117.558 28.0641 120.851C27.4628 123.132 29.0234 125.958 31.7436 125.384C33.0822 125.104 34.0772 124.179 35.0866 123.311C35.6501 122.78 36.2836 122.329 36.9693 121.97C38.0574 121.446 40.391 122.63 40.4268 123.928C40.3815 124.793 40.1978 125.646 39.8828 126.453C39.7256 126.613 39.5797 126.783 39.4461 126.962C39.353 127.084 39.4461 127.17 39.575 127.192H39.6895C39.6248 127.503 39.596 127.821 39.6036 128.139C39.6752 129.667 41.0353 130.19 42.3596 130.377C42.4628 130.386 42.5666 130.367 42.659 130.32C42.7514 130.273 42.8288 130.201 42.8822 130.112C43.1836 131.526 43.232 132.984 43.0253 134.416C42.8392 136.273 42.0446 139.337 43.6696 140.786C45.2946 142.235 48.8452 140.872 50.3914 139.867C52.4459 138.526 52.947 136.223 53.3479 133.971C53.5626 132.802 53.806 131.489 55.3021 131.632C57.7861 131.862 60.4992 133.562 62.5036 134.903C66.6913 137.708 70.2562 141.553 75.2958 142.859C77.5149 143.433 82.1464 142.249 80.1635 139.164C79.7176 138.588 79.2396 138.037 78.7318 137.514C77.8012 136.345 79.4477 134.645 80.2494 133.835C82.1321 132.084 86.0764 136.431 87.458 137.421C89.0114 138.49 90.7223 139.451 92.0108 140.857C92.9199 141.854 92.9915 143.296 93.1562 144.573C93.6286 148.16 93.9865 153.676 97.5944 155.663C99.699 156.825 103.486 157.772 104.703 154.946C106.177 151.517 103.55 148.117 102.348 145.039C102.491 144.96 102.577 144.846 102.519 144.709C100.952 141.273 101.088 137.457 99.9567 133.899C102.698 133.655 105.884 136.811 107.953 138.153C109.692 139.286 111.797 140.434 113.88 139.588C115.963 138.741 116.342 136.273 115.72 134.437C114.882 131.962 112.763 130.133 112.14 127.558C111.145 123.311 117.688 121.546 120.681 120.894C123.673 120.241 126.987 119.703 129.385 117.572C131.783 115.442 133.609 112.264 132.528 109.065C131.49 105.98 128.605 104.287 130.495 100.758C130.681 100.421 130.137 100.371 129.836 100.536C130.193 99.7494 130.714 99.0496 131.365 98.4839C132.016 97.9181 132.782 97.4998 133.609 97.2573L134.582 96.8628C137.639 97.9316 140.388 97.078 142.772 94.7897C144.704 92.9533 142.306 91.5042 140.688 90.7941Z" fill="#009EE0"/>
<path d="M33.3188 23.5291C34.9008 23.3498 35.7026 22.2881 36.2681 20.8749C36.4972 20.3247 36.6043 19.7313 36.582 19.1355C36.5598 18.5398 36.4087 17.956 36.1393 17.4245C36.2178 17.4765 36.2991 17.5244 36.3826 17.568C36.6189 17.6899 37.4135 17.3384 37.0985 17.1735C34.5214 15.8751 34.2351 13.0846 32.8034 10.8752C31.5364 8.92403 29.3101 7.25263 26.9406 7.08047C22.1587 6.73614 23.6907 13.7589 25.0007 16.0687C26.3966 18.6153 29.7825 23.9308 33.3188 23.5291Z" fill="#009EE0"/>
<path d="M83.9071 6.51377C86.0956 6.96132 88.3721 6.56147 90.2782 5.39472C92.4257 3.96004 91.3019 1.98018 89.5623 0.717657C89.4912 0.686656 89.4144 0.670658 89.3369 0.670658C89.2593 0.670658 89.1825 0.686656 89.1114 0.717657C88.2869 0.253379 87.3583 0.00654817 86.4126 0.000315981C85.5333 -0.00956816 84.6669 0.212594 83.9004 0.644486C83.1339 1.07638 82.4944 1.70279 82.0459 2.46079C80.8934 4.44783 81.7668 6.0475 83.9071 6.51377Z" fill="#009EE0"/>
<path d="M73.1828 11.3271C74.1377 11.5333 75.1328 11.4369 76.0306 11.0514C76.9283 10.6658 77.6843 10.0101 78.1938 9.17508C79.3033 7.10196 76.7621 6.01878 75.1586 5.98291C74.9367 5.98291 74.5215 6.21963 74.5787 6.34875C74.0983 6.42769 73.6405 6.60953 73.2365 6.88188C72.8325 7.15423 72.4919 7.51067 72.2379 7.9269C71.4791 9.1679 71.701 10.8752 73.1828 11.3271Z" fill="#009EE0"/>
<path d="M125.806 13.264C127.546 12.7475 129.078 11.112 127.997 9.26122C127.868 9.03924 127.707 8.83842 127.517 8.66583C127.529 8.66279 127.541 8.66279 127.553 8.66583C127.825 8.86668 128.598 8.47932 128.226 8.19238C125.899 6.44925 122.664 6.7577 121.332 9.56968C121.13 9.99481 121.01 10.4551 120.982 10.9255C120.898 11.1029 120.831 11.2878 120.781 11.4778C120.173 14.0674 124.482 13.6513 125.806 13.264Z" fill="#009EE0"/>
<path d="M140.696 60.5438C142.33 60.3786 143.845 59.6118 144.948 58.3918C145.101 58.2336 145.217 58.0442 145.289 57.8366C145.362 57.6289 145.388 57.4081 145.367 57.1892C145.346 56.9703 145.278 56.7586 145.167 56.5687C145.057 56.3788 144.906 56.2152 144.726 56.0891C144.762 56.0533 144.776 56.0246 144.726 55.9959C144.217 55.5197 143.585 55.1966 142.901 55.0633H142.836C142.109 54.9434 141.362 55.0407 140.689 55.3431C140.17 55.5656 139.704 55.8934 139.318 56.3058C138.932 56.7182 138.636 57.2062 138.448 57.739C138.267 58.0324 138.139 58.3553 138.069 58.6931C137.725 60.3501 139.4 60.6945 140.696 60.5438Z" fill="#009EE0"/>
<path d="M149.528 129.071C148.691 128.282 147.209 128.404 146.178 128.541C146.084 128.55 145.994 128.584 145.916 128.638C145.839 128.691 145.776 128.764 145.734 128.849C145.58 128.884 145.429 128.932 145.283 128.993C144.782 129.208 144.349 129.555 144.029 129.997C143.709 130.439 143.514 130.959 143.465 131.503C143.465 131.575 143.465 131.618 143.551 131.654C145.405 132.694 148.376 133.089 149.714 130.994C149.928 130.708 150.027 130.352 149.992 129.997C149.958 129.641 149.792 129.311 149.528 129.071Z" fill="#009EE0"/>
<path d="M126.986 129.99C126.172 128.819 125.034 127.912 123.713 127.38C122.392 126.847 120.945 126.712 119.549 126.991C116.17 127.773 116.857 132.35 118.718 134.33C120.458 136.187 123.521 135.678 125.469 134.487C127.416 133.297 127.616 131.618 126.743 130.183C126.893 130.133 127.015 130.047 126.986 129.99Z" fill="#009EE0"/>
<path d="M67.8007 140.621C63.2121 142.055 65.4169 147.586 62.5392 150.319C61.3151 151.481 56.9699 153.906 59.9335 155.556C67.1421 159.587 68.8386 147.593 68.0584 142.263C68.1371 141.776 68.2158 141.281 68.2874 140.786C68.3232 140.513 67.9295 140.542 67.8007 140.621Z" fill="#009EE0"/>
<path d="M35.6019 142.285L35.4874 142.235C35.4074 142.189 35.3235 142.151 35.2369 142.12L35.151 142.055L34.8575 141.933C34.7846 141.915 34.7084 141.915 34.6355 141.933C33.8273 141.837 33.0087 141.983 32.2836 142.354C31.5584 142.724 30.9594 143.302 30.5624 144.014C29.3884 145.936 29.553 149.752 32.3591 149.96C33.3971 149.961 34.419 149.704 35.3334 149.212C36.2479 148.72 37.0263 148.009 37.5992 147.141C39.0595 145.004 37.5133 143.239 35.6019 142.285Z" fill="#009EE0"/>
<path d="M20.1885 102.602C19.8449 102.695 19.7947 102.982 19.9379 103.14C19.2003 103.423 18.5328 103.864 17.9816 104.431C17.4304 104.998 17.0086 105.679 16.7452 106.425C16.7317 106.46 16.7254 106.498 16.7267 106.536C16.7281 106.573 16.7371 106.611 16.7531 106.645C16.7692 106.679 16.792 106.709 16.8202 106.735C16.8483 106.76 16.8813 106.779 16.917 106.791C20.1813 107.659 23.5673 107.193 25.135 103.871C25.1592 103.817 25.1639 103.756 25.1483 103.698C25.1326 103.641 25.0975 103.59 25.0491 103.556C23.4527 102.056 22.1928 102.092 20.1885 102.602Z" fill="#009EE0"/>
<path d="M21.9279 113.785C21.3532 113.672 20.7611 113.681 20.1901 113.812C19.6192 113.943 19.082 114.193 18.6136 114.545C18.7604 114.236 18.8709 113.911 18.9429 113.577C19.0216 113.19 18.1483 113.319 18.0767 113.663C17.7188 115.413 15.8719 117.013 14.7337 118.29C13.3588 119.72 12.0885 121.247 10.9325 122.859C9.193 125.492 12.6076 126.138 14.476 124.868C17.5616 122.654 20.3354 120.034 22.7225 117.077C23.4241 116.231 23.1807 114.079 21.9279 113.785Z" fill="#009EE0"/>
<path d="M11.2565 45.2502C12.6881 45.5945 16.4034 46.1397 16.2674 43.6792C16.16 42.1226 14.6353 41.4483 12.9888 41.2904C11.3781 40.6305 9.22344 40.3866 8.11388 41.3622C5.73011 43.4209 9.74601 44.8915 11.2565 45.2502Z" fill="#009EE0"/>
</svg>
