<svg xmlns="http://www.w3.org/2000/svg" width="172.953" height="112.226" viewBox="0 0 172.953 112.226">
  <g id="Сгруппировать_133" data-name="Сгруппировать 133" transform="translate(0)">
    <g id="Сгруппировать_118" data-name="Сгруппировать 118" transform="translate(0 0)">
      <g id="Сгруппировать_117" data-name="Сгруппировать 117" transform="translate(0 0)">
        <path id="Контур_127" data-name="Контур 127" d="M8.071,6.293a8.868,8.868,0,0,0,5.107-8.043,8.853,8.853,0,0,0-8.845-8.843H-13.588l4.1,3.277V21.957l-4.1,3.285H5.237A9.687,9.687,0,0,0,8.071,6.293M-4.357-8.423h5.9c3.351-.212,6.513,2.483,6.513,6.68s-3.038,7.256-6.5,7.154H-4.357Zm6.8,31.516h-6.8V7.56h6.8c3.934-.108,7.336,3.322,7.336,7.992S6.235,23.3,2.44,23.093" transform="translate(13.588 60.353)" fill="#fff"/>
        <path id="Контур_128" data-name="Контур 128" d="M9.271,10.2c-.094-.386-.167-.757-.247-1.165C8.338,5.835,7.479,1.864,3.5.889L1.746.54h.567a8.863,8.863,0,0,0,8.866-8.867,8.852,8.852,0,0,0-8.866-8.843H-15.608l4.1,3.277V15.38l-4.1,3.285H-2.262l-4.1-3.285V.977H.091A9.526,9.526,0,0,1,2.882,3.321a18.8,18.8,0,0,1,1,4.715l.351,2.534c.728,4.466,1.916,6.652,2.565,7.548l.386.532h7.5l-2.426-2.026C10.553,15.2,9.824,12.56,9.271,10.2M-.456-1.166h-5.9V-15h5.9c3.338-.212,6.5,2.483,6.5,6.68S3-1.056-.456-1.166" transform="translate(47.438 66.93)" fill="#fff"/>
        <path id="Контур_129" data-name="Контур 129" d="M5.53,0C-2.936,0-9.31,7.964-9.31,18.541c0,10.68,6.1,18.14,14.84,18.14,8.37,0,14.446-7.656,14.446-18.227C19.976,7.752,13.908,0,5.53,0M5.45,34.526C0,34.663-4.189,28.478-4.189,18.519-4.189,8.676.19,2.047,5.45,2.163c5.216-.123,9.4,6.317,9.4,16.276,0,9.843-4.183,16.209-9.4,16.087" transform="translate(73.108 49.351)" fill="#fff"/>
        <path id="Контур_130" data-name="Контур 130" d="M0,0H26.417V8.2L21.565,2.149H15.772v30.4l4.1,3.279H6.527l4.116-3.279V2.149H4.83L0,8.2Z" transform="translate(86.28 0.43)" fill="#fff"/>
        <path id="Контур_131" data-name="Контур 131" d="M0,0H13.34L9.231,3.279V33.665h8.888l4.838-6.046V35.83H0l4.109-3.279V3.279Z" transform="translate(66.063 0.43)" fill="#fff"/>
        <path id="Контур_132" data-name="Контур 132" d="M0,0H9.078s5.45,17.972,7.627,25.185L24.318,0H34.679L30.555,3.279V32.551l4.124,3.279H21.324l4.1-3.279V3.8L15.744,35.83H14.556L5.813,6.892v26.03l3.642,2.914H0l3.642-2.914V2.914Z" transform="translate(0 0.43)" fill="#fff"/>
        <path id="Контур_133" data-name="Контур 133" d="M2.565,4.137H-4.319v-11.1H-2.17V2.141H2.565Z" transform="translate(38.516 107.94)" fill="#fff"/>
        <path id="Контур_134" data-name="Контур 134" d="M3.86,4.137H2.1L-4.424-3.351V4.137H-6.5v-11.1h1.683L1.783.589V-6.965H3.86Z" transform="translate(77.123 107.94)" fill="#fff"/>
        <path id="Контур_135" data-name="Контур 135" d="M3.86,4.137H2.089L-4.424-3.351V4.137H-6.5v-11.1h1.683L1.783.589V-6.965H3.86Z" transform="translate(134.91 107.94)" fill="#fff"/>
        <path id="Контур_136" data-name="Контур 136" d="M17.082,1.224,4.909,33.775H3.095l-7.184-26.8-10.025,26.8h-1.814L-24.649,1.224l-4.109-3.285h13.515l-4.1,3.285,6.3,23.518L-5.051,3.387l-.575-2.163L-9.735-2.061H3.778l-4.1,3.285,6.3,23.518,8.8-23.518L10.663-2.061H21.191Z" transform="translate(121.886 51.82)" fill="#fff"/>
        <path id="Контур_137" data-name="Контур 137" d="M9.271,1.086V34.634h-1.7L-9.4,6.2V31.094l3.65,2.914H-15.2l3.649-2.914V2.826l-4.057-4.654h7.4L7.122,23.845V1.086L3.478-1.828h9.435Z" transform="translate(160.04 51.587)" fill="#fff"/>
        <path id="Контур_138" data-name="Контур 138" d="M9.271,1.086V34.612h-1.7L-9.4,6.193V31.086L-5.751,34H-15.2l3.649-2.915V2.812l-4.057-4.64h7.4L7.122,23.845V1.086L3.478-1.828h9.435Z" transform="translate(160.04 2.258)" fill="#fff"/>
        <path id="Контур_139" data-name="Контур 139" d="M2.217,0A5.945,5.945,0,0,0-2.089,1.685a5.716,5.716,0,0,0-.029,7.992A5.953,5.953,0,0,0,2.2,11.389,6.015,6.015,0,0,0,6.6,9.661a5.66,5.66,0,0,0-.029-7.976A5.9,5.9,0,0,0,2.217,0m.014,9.675A3.927,3.927,0,0,1-1.842,5.692,3.919,3.919,0,0,1,2.231,1.705,3.91,3.91,0,0,1,6.3,5.692,3.918,3.918,0,0,1,2.231,9.677" transform="translate(53.276 100.834)" fill="#fff"/>
        <path id="Контур_140" data-name="Контур 140" d="M1.637,0H-2.756v11.1H1.651a5.9,5.9,0,0,0,4.32-1.69,5.636,5.636,0,0,0,.153-7.627A5.793,5.793,0,0,0,1.637,0M1.462,9.43H-.92V1.679h2.3c2.928,0,4.277,1.771,4.277,3.877a3.842,3.842,0,0,1-4.2,3.875" transform="translate(93.16 100.971)" fill="#fff"/>
        <path id="Контур_141" data-name="Контур 141" d="M2.221,0A5.923,5.923,0,0,0-2.085,1.685a5.69,5.69,0,0,0-.029,7.992,5.93,5.93,0,0,0,4.32,1.712A5.96,5.96,0,0,0,6.585,9.661a5.66,5.66,0,0,0-.014-7.976A5.9,5.9,0,0,0,2.221,0m.014,9.675A3.927,3.927,0,0,1-1.838,5.692,3.919,3.919,0,0,1,2.235,1.705,3.918,3.918,0,0,1,6.308,5.692,3.926,3.926,0,0,1,2.235,9.677" transform="translate(112.144 100.834)" fill="#fff"/>
        <path id="Контур_142" data-name="Контур 142" d="M5.53,0C-2.936,0-9.31,7.978-9.31,18.541c0,10.68,6.1,18.14,14.84,18.14,8.356,0,14.446-7.656,14.446-18.227C19.976,7.766,13.894,0,5.53,0M5.457,34.518c-5.448.139-9.645-6.04-9.645-16.005C-4.189,8.676.19,2.04,5.457,2.157c5.217-.124,9.4,6.315,9.4,16.26,0,9.865-4.181,16.225-9.4,16.1" transform="translate(44.761 0)" fill="#fff"/>
        <path id="Контур_143" data-name="Контур 143" d="M5.525,0C-2.927,0-9.3,7.978-9.3,18.541c0,10.68,6.083,18.14,14.826,18.14,8.37,0,14.461-7.656,14.461-18.227C19.985,7.766,13.9,0,5.525,0M5.459,34.518c-5.45.139-9.639-6.04-9.639-16.005C-4.18,8.676.177,2.04,5.459,2.157c5.216-.124,9.384,6.315,9.384,16.26,0,9.865-4.16,16.225-9.384,16.1" transform="translate(124.139 0)" fill="#fff"/>
      </g>
    </g>
  </g>
</svg>
