<svg id="Компонент_44_1" data-name="Компонент 44 – 1" xmlns="http://www.w3.org/2000/svg" width="147.142" height="145.486" viewBox="0 0 147.142 145.486">
  <g id="Сгруппировать_5780" data-name="Сгруппировать 5780" transform="translate(0 0)">
    <path id="Контур_97" data-name="Контур 97" d="M635.563,59.45A14.142,14.142,0,0,0,616.416,40.3L603.28,47.349l-6.841-6.841L564.672,72.275V45.288A13.128,13.128,0,0,0,548.6,32.458V22.747a13.157,13.157,0,0,0-25.4-4.832A13.158,13.158,0,0,0,506.194,30.5v1.954a13.127,13.127,0,0,0-16.074,12.83V155.068h74.552v-22.44l8.2-4.4,8.563,8.563L637.08,81.15l-8.563-8.563Zm-14.3-10.11a3.887,3.887,0,0,1,5.262,5.263l-5.583,10.409-8.13-8.129-1.959-1.959ZM500.375,144.813V45.288a2.909,2.909,0,0,1,5.819,0V76.22h10.255V30.5a2.909,2.909,0,1,1,5.819,0V76.22h10.255V22.747a2.909,2.909,0,1,1,5.819,0V76.22H548.6V45.288a2.91,2.91,0,0,1,5.82,0V82.531L540.8,96.151l6.841,6.841-7.046,13.136a14.165,14.165,0,0,0,12.438,20.845c.463,0,.926-.029,1.389-.075v7.915Zm54.516-18.576a3.887,3.887,0,0,1-5.263-5.262l5.583-10.409L565.3,120.655Zm26.547-3.949L555.3,96.151l41.14-41.139L622.577,81.15Z" transform="translate(-490.12 -9.582)" fill="#3575f2"/>
    <rect id="Прямоугольник_19" data-name="Прямоугольник 19" width="38.795" height="10.255" transform="translate(81.477 89.159) rotate(-44.999)" fill="#3575f2"/>
  </g>
</svg>
