<svg xmlns="http://www.w3.org/2000/svg" viewBox="0 0 217 217"><defs><style>.cls-1{fill:#006247;}</style></defs><g id="Oracle"><path class="cls-1" d="M162.75,65.63H136.21V28.3H7.46V170.82H30a25.47,25.47,0,0,0,50.72,0h55.6a25.47,25.47,0,0,0,50.72,0h22.52v-58.4ZM122.82,41.69V157.42H78.31a25.47,25.47,0,0,0-45.94,0H20.86V41.69ZM55.34,180.51a12.09,12.09,0,1,1,12.08-12.08A12.09,12.09,0,0,1,55.34,180.51ZM156,110.39V79h1.25l31.35,31.36ZM136.21,79h6.35v44.75h53.58v33.64H184.63a25.47,25.47,0,0,0-45.94,0h-2.48Zm25.45,101.48a12.09,12.09,0,1,1,12.08-12.08A12.09,12.09,0,0,1,161.66,180.51Z"/><rect class="cls-1" x="36.15" y="68.34" width="71.38" height="13.4"/><rect class="cls-1" x="36.15" y="90.61" width="71.38" height="13.4"/></g></svg>