<svg width="4" height="8" viewBox="0 0 4 8" fill="none" xmlns="http://www.w3.org/2000/svg">
<path d="M3.04961 6.8H2.34961V2.95C2.33017 2.73611 2.2135 2.61944 1.99961 2.6H1.41628C1.20239 2.61944 1.08572 2.73611 1.06628 2.95C1.08572 3.16389 1.20239 3.28056 1.41628 3.3H1.64961V6.8H0.949609C0.73572 6.81944 0.619054 6.93611 0.599609 7.15C0.619054 7.36389 0.73572 7.48056 0.949609 7.5H3.04961C3.2635 7.48056 3.38017 7.36389 3.39961 7.15C3.38017 6.93611 3.2635 6.81944 3.04961 6.8ZM1.99961 1.9C2.19405 1.89028 2.35933 1.82222 2.49544 1.69583C2.62183 1.55972 2.68989 1.39444 2.69961 1.2C2.68989 1.00556 2.62183 0.840278 2.49544 0.704167C2.35933 0.577778 2.19405 0.509722 1.99961 0.5C1.80517 0.509722 1.63989 0.577778 1.50378 0.704167C1.37739 0.840278 1.30933 1.00556 1.29961 1.2C1.30933 1.39444 1.37739 1.55972 1.50378 1.69583C1.63989 1.82222 1.80517 1.89028 1.99961 1.9Z" fill="#828299"/>
</svg>
