<svg width="15" height="25" viewBox="0 0 15 25" fill="none" xmlns="http://www.w3.org/2000/svg">
<path d="M12.6215 15.6562C14.1215 14.6719 14.8246 14.1094 14.2152 12.8906C13.8871 12.2344 12.9027 11.6719 11.684 12.6562C11.684 12.6562 9.94958 14.0156 7.23083 14.0156C4.46521 14.0156 2.77771 12.6562 2.77771 12.6562C1.51208 11.625 0.574585 12.2344 0.199585 12.8906C-0.362915 14.1094 0.293334 14.6719 1.79333 15.6562C3.10583 16.5 4.88708 16.8281 6.05896 16.9219L5.07458 17.9062C3.71521 19.2656 2.44958 20.5781 1.51208 21.4688C0.199584 22.7812 2.30896 24.8906 3.66833 23.625L7.23083 20.0156C8.59021 21.4219 9.90271 22.7344 10.7933 23.625C12.1058 24.9375 14.2621 22.8281 12.9496 21.4688L8.40271 16.9219C9.57458 16.8281 11.309 16.5 12.6215 15.6562ZM1.13708 6.09375C1.13708 9.46875 3.85583 12.1875 7.23083 12.1875C10.559 12.1875 13.2777 9.46875 13.2777 6.09375C13.2777 2.71875 10.559 0 7.23083 0C3.85583 0 1.13708 2.71875 1.13708 6.09375ZM4.23083 6.09375C4.23083 4.45312 5.54333 3.09375 7.23083 3.09375C8.87146 3.09375 10.184 4.45312 10.184 6.09375C10.184 7.73438 8.87146 9.09375 7.23083 9.09375C5.54333 9.09375 4.23083 7.73438 4.23083 6.09375Z" fill="#F89F1F"/>
</svg>
