<svg width="925" height="871" viewBox="0 0 925 871" fill="none" xmlns="http://www.w3.org/2000/svg">
<path d="M363.714 676.566V671.4H365.784V684H363.714V678.546H358.314V684H356.244V671.4H358.314V676.566H363.714ZM376.871 680.328H369.707C369.851 681 370.175 681.522 370.679 681.894C371.195 682.266 371.831 682.452 372.587 682.452C373.607 682.452 374.381 682.08 374.909 681.336L376.511 682.272C375.635 683.58 374.321 684.234 372.569 684.234C371.117 684.234 369.935 683.79 369.023 682.902C368.123 682.002 367.673 680.868 367.673 679.5C367.673 678.168 368.117 677.046 369.005 676.134C369.881 675.222 371.021 674.766 372.425 674.766C373.733 674.766 374.813 675.228 375.665 676.152C376.517 677.076 376.943 678.198 376.943 679.518C376.943 679.758 376.919 680.028 376.871 680.328ZM369.689 678.744H374.981C374.849 678.036 374.549 677.49 374.081 677.106C373.625 676.722 373.067 676.53 372.407 676.53C371.687 676.53 371.087 676.728 370.607 677.124C370.127 677.52 369.821 678.06 369.689 678.744ZM388.212 679.392C389.172 679.824 389.652 680.538 389.652 681.534C389.652 682.314 389.334 682.962 388.698 683.478C388.062 683.982 387.198 684.234 386.106 684.234C384.294 684.234 383.07 683.514 382.434 682.074L384.018 681.138C384.342 682.038 385.044 682.488 386.124 682.488C386.628 682.488 387.024 682.386 387.312 682.182C387.6 681.966 387.744 681.684 387.744 681.336C387.744 681.024 387.63 680.778 387.402 680.598C387.174 680.406 386.856 680.31 386.448 680.31H385.17V678.6H386.124C386.52 678.6 386.826 678.51 387.042 678.33C387.27 678.138 387.384 677.88 387.384 677.556C387.384 677.244 387.258 676.992 387.006 676.8C386.754 676.596 386.418 676.494 385.998 676.494C385.098 676.494 384.474 676.89 384.126 677.682L382.542 676.782C383.202 675.438 384.342 674.766 385.962 674.766C386.97 674.766 387.768 675.024 388.356 675.54C388.956 676.044 389.256 676.662 389.256 677.394C389.256 678.294 388.908 678.96 388.212 679.392ZM397.305 678.582V675H399.249V684H397.305V680.418H393.183V684H391.239V675H393.183V678.582H397.305ZM408.633 676.278V675H410.577V684H408.633V682.704C407.901 683.724 406.851 684.234 405.483 684.234C404.247 684.234 403.191 683.778 402.315 682.866C401.439 681.954 401.001 680.832 401.001 679.5C401.001 678.168 401.439 677.046 402.315 676.134C403.191 675.222 404.247 674.766 405.483 674.766C406.851 674.766 407.901 675.27 408.633 676.278ZM403.755 681.57C404.295 682.11 404.973 682.38 405.789 682.38C406.605 682.38 407.283 682.11 407.823 681.57C408.363 681.018 408.633 680.328 408.633 679.5C408.633 678.672 408.363 677.988 407.823 677.448C407.283 676.896 406.605 676.62 405.789 676.62C404.973 676.62 404.295 676.896 403.755 677.448C403.215 677.988 402.945 678.672 402.945 679.5C402.945 680.316 403.215 681.006 403.755 681.57ZM421.537 680.328H414.373C414.517 681 414.841 681.522 415.345 681.894C415.861 682.266 416.497 682.452 417.253 682.452C418.273 682.452 419.047 682.08 419.575 681.336L421.177 682.272C420.301 683.58 418.987 684.234 417.235 684.234C415.783 684.234 414.601 683.79 413.689 682.902C412.789 682.002 412.339 680.868 412.339 679.5C412.339 678.168 412.783 677.046 413.671 676.134C414.547 675.222 415.687 674.766 417.091 674.766C418.399 674.766 419.479 675.228 420.331 676.152C421.183 677.076 421.609 678.198 421.609 679.518C421.609 679.758 421.585 680.028 421.537 680.328ZM414.355 678.744H419.647C419.515 678.036 419.215 677.49 418.747 677.106C418.291 676.722 417.733 676.53 417.073 676.53C416.353 676.53 415.753 676.728 415.273 677.124C414.793 677.52 414.487 678.06 414.355 678.744ZM433.976 682.164V675H435.92V684H423.32V675H425.264V682.164H428.648V675H430.592V682.164H433.976ZM440.117 678.06H442.097C443.069 678.06 443.855 678.336 444.455 678.888C445.067 679.428 445.373 680.142 445.373 681.03C445.373 681.906 445.067 682.62 444.455 683.172C443.855 683.724 443.069 684 442.097 684H438.173V675H440.117V678.06ZM440.117 682.254H442.115C442.499 682.254 442.817 682.14 443.069 681.912C443.333 681.684 443.465 681.39 443.465 681.03C443.465 680.67 443.339 680.376 443.087 680.148C442.835 679.92 442.511 679.806 442.115 679.806H440.117V682.254ZM447.326 681.84H449.486L448.226 686.52H446.606L447.326 681.84ZM461.522 679.122V675H463.466V684H461.522V680.958C460.814 681.222 460.058 681.354 459.254 681.354C458.114 681.354 457.226 681.078 456.59 680.526C455.954 679.962 455.636 679.152 455.636 678.096V675H457.58V677.916C457.58 678.996 458.222 679.536 459.506 679.536C460.238 679.536 460.91 679.398 461.522 679.122ZM464.782 675H472.612V676.872H469.678V684H467.734V676.872H464.782V675ZM481.189 682.866C480.277 683.778 479.155 684.234 477.823 684.234C476.491 684.234 475.369 683.778 474.457 682.866C473.533 681.942 473.071 680.82 473.071 679.5C473.071 678.18 473.533 677.058 474.457 676.134C475.369 675.222 476.491 674.766 477.823 674.766C479.155 674.766 480.277 675.222 481.189 676.134C482.113 677.058 482.575 678.18 482.575 679.5C482.575 680.82 482.113 681.942 481.189 682.866ZM475.015 679.5C475.015 680.316 475.285 680.994 475.825 681.534C476.365 682.074 477.031 682.344 477.823 682.344C478.615 682.344 479.281 682.074 479.821 681.534C480.361 680.994 480.631 680.316 480.631 679.5C480.631 678.684 480.361 678.006 479.821 677.466C479.281 676.926 478.615 676.656 477.823 676.656C477.031 676.656 476.365 676.926 475.825 677.466C475.285 678.006 475.015 678.684 475.015 679.5ZM495.061 679.374C495.949 679.794 496.393 680.484 496.393 681.444C496.393 682.212 496.129 682.83 495.601 683.298C495.085 683.766 494.365 684 493.441 684H488.833V675H493.081C493.993 675 494.707 675.228 495.223 675.684C495.739 676.14 495.997 676.74 495.997 677.484C495.997 678.336 495.685 678.966 495.061 679.374ZM492.937 676.656H490.687V678.654H492.937C493.729 678.654 494.125 678.318 494.125 677.646C494.125 676.986 493.729 676.656 492.937 676.656ZM490.687 682.308H493.261C494.077 682.308 494.485 681.954 494.485 681.246C494.485 680.934 494.377 680.694 494.161 680.526C493.945 680.346 493.645 680.256 493.261 680.256H490.687V682.308ZM499.918 678.06H501.898C502.87 678.06 503.656 678.336 504.256 678.888C504.868 679.428 505.174 680.142 505.174 681.03C505.174 681.906 504.868 682.62 504.256 683.172C503.656 683.724 502.87 684 501.898 684H497.974V675H499.918V678.06ZM506.254 684V675H508.198V684H506.254ZM499.918 682.254H501.916C502.3 682.254 502.618 682.14 502.87 681.912C503.134 681.684 503.266 681.39 503.266 681.03C503.266 680.67 503.14 680.376 502.888 680.148C502.636 679.92 502.312 679.806 501.916 679.806H499.918V682.254ZM514.63 684.234C513.262 684.234 512.134 683.79 511.246 682.902C510.382 682.002 509.95 680.856 509.95 679.464C509.95 677.952 510.178 676.776 510.634 675.936C511.078 675.108 512.002 674.346 513.406 673.65C513.454 673.626 513.532 673.59 513.64 673.542C513.76 673.482 513.886 673.422 514.018 673.362C514.15 673.302 514.282 673.242 514.414 673.182C514.918 672.954 515.23 672.81 515.35 672.75C515.422 672.714 515.632 672.582 515.98 672.354C516.4 672.054 516.682 671.628 516.826 671.076L518.41 671.994C518.35 672.654 517.936 673.26 517.168 673.812C517.036 673.932 516.79 674.076 516.43 674.244L515.656 674.604L514.756 674.982C513.976 675.294 513.4 675.612 513.028 675.936C512.656 676.26 512.398 676.674 512.254 677.178C512.974 676.362 513.952 675.954 515.188 675.954C516.244 675.954 517.162 676.332 517.942 677.088C518.734 677.844 519.13 678.822 519.13 680.022C519.13 681.246 518.71 682.254 517.87 683.046C517.042 683.838 515.962 684.234 514.63 684.234ZM514.612 682.416C515.368 682.416 515.986 682.194 516.466 681.75C516.946 681.294 517.186 680.718 517.186 680.022C517.186 679.314 516.946 678.732 516.466 678.276C515.998 677.82 515.386 677.592 514.63 677.592C513.958 677.592 513.352 677.808 512.812 678.24C512.272 678.648 512.002 679.212 512.002 679.932C512.002 680.652 512.254 681.246 512.758 681.714C513.262 682.182 513.88 682.416 514.612 682.416ZM525.761 674.766C526.985 674.766 528.041 675.228 528.929 676.152C529.805 677.064 530.243 678.18 530.243 679.5C530.243 680.832 529.805 681.954 528.929 682.866C528.053 683.778 526.997 684.234 525.761 684.234C524.405 684.234 523.355 683.73 522.611 682.722V687.6H520.667V675H522.611V676.296C523.343 675.276 524.393 674.766 525.761 674.766ZM523.421 681.57C523.961 682.11 524.639 682.38 525.455 682.38C526.271 682.38 526.949 682.11 527.489 681.57C528.029 681.018 528.299 680.328 528.299 679.5C528.299 678.672 528.029 677.988 527.489 677.448C526.949 676.896 526.271 676.62 525.455 676.62C524.639 676.62 523.961 676.896 523.421 677.448C522.881 677.988 522.611 678.672 522.611 679.5C522.611 680.316 522.881 681.006 523.421 681.57ZM539.133 676.278V675H541.077V684H539.133V682.704C538.401 683.724 537.351 684.234 535.983 684.234C534.747 684.234 533.691 683.778 532.815 682.866C531.939 681.954 531.501 680.832 531.501 679.5C531.501 678.168 531.939 677.046 532.815 676.134C533.691 675.222 534.747 674.766 535.983 674.766C537.351 674.766 538.401 675.27 539.133 676.278ZM534.255 681.57C534.795 682.11 535.473 682.38 536.289 682.38C537.105 682.38 537.783 682.11 538.323 681.57C538.863 681.018 539.133 680.328 539.133 679.5C539.133 678.672 538.863 677.988 538.323 677.448C537.783 676.896 537.105 676.62 536.289 676.62C535.473 676.62 534.795 676.896 534.255 677.448C533.715 677.988 533.445 678.672 533.445 679.5C533.445 680.316 533.715 681.006 534.255 681.57ZM542.389 675H550.219V676.872H547.285V684H545.341V676.872H542.389V675ZM553.478 678.06H555.458C556.43 678.06 557.216 678.336 557.816 678.888C558.428 679.428 558.734 680.142 558.734 681.03C558.734 681.906 558.428 682.62 557.816 683.172C557.216 683.724 556.43 684 555.458 684H551.534V675H553.478V678.06ZM553.478 682.254H555.476C555.86 682.254 556.178 682.14 556.43 681.912C556.694 681.684 556.826 681.39 556.826 681.03C556.826 680.67 556.7 680.376 556.448 680.148C556.196 679.92 555.872 679.806 555.476 679.806H553.478V682.254ZM564.859 680.04H562.789C562.789 679.56 562.897 679.11 563.113 678.69C563.329 678.258 563.593 677.892 563.905 677.592C564.217 677.28 564.529 676.986 564.841 676.71C565.153 676.422 565.417 676.11 565.633 675.774C565.849 675.438 565.957 675.096 565.957 674.748C565.957 674.256 565.783 673.872 565.435 673.596C565.087 673.32 564.619 673.182 564.031 673.182C563.467 673.182 562.981 673.326 562.573 673.614C562.165 673.902 561.871 674.31 561.691 674.838L559.909 673.83C560.233 672.99 560.767 672.336 561.511 671.868C562.267 671.4 563.125 671.166 564.085 671.166C565.165 671.166 566.089 671.472 566.857 672.084C567.637 672.696 568.027 673.542 568.027 674.622C568.027 675.114 567.919 675.582 567.703 676.026C567.487 676.47 567.223 676.848 566.911 677.16C566.599 677.472 566.287 677.778 565.975 678.078C565.663 678.366 565.399 678.678 565.183 679.014C564.967 679.35 564.859 679.692 564.859 680.04ZM563.833 681.516C564.205 681.516 564.523 681.648 564.787 681.912C565.051 682.176 565.183 682.494 565.183 682.866C565.183 683.238 565.051 683.556 564.787 683.82C564.523 684.084 564.205 684.216 563.833 684.216C563.461 684.216 563.143 684.084 562.879 683.82C562.615 683.556 562.483 683.238 562.483 682.866C562.483 682.494 562.609 682.176 562.861 681.912C563.125 681.648 563.449 681.516 563.833 681.516Z" fill="white"/>
<path d="M351.989 714.512C350.869 715.632 349.499 716.192 347.877 716.192C346.256 716.192 344.885 715.632 343.765 714.512C342.645 713.371 342.085 712 342.085 710.4C342.085 708.789 342.645 707.424 343.765 706.304C344.885 705.173 346.256 704.608 347.877 704.608C349.499 704.608 350.869 705.173 351.989 706.304C353.109 707.424 353.669 708.789 353.669 710.4C353.669 712 353.109 713.371 351.989 714.512ZM343.205 710.4C343.205 711.723 343.653 712.837 344.549 713.744C345.445 714.651 346.555 715.104 347.877 715.104C349.2 715.104 350.309 714.651 351.205 713.744C352.101 712.837 352.549 711.723 352.549 710.4C352.549 709.088 352.101 707.979 351.205 707.072C350.309 706.155 349.2 705.696 347.877 705.696C346.555 705.696 345.445 706.155 344.549 707.072C343.653 707.979 343.205 709.088 343.205 710.4ZM359.153 716.192C357.947 716.192 356.945 715.792 356.145 714.992C355.345 714.171 354.945 713.173 354.945 712C354.945 710.816 355.345 709.824 356.145 709.024C356.945 708.213 357.947 707.808 359.153 707.808C359.942 707.808 360.651 708 361.281 708.384C361.91 708.757 362.369 709.264 362.657 709.904L361.793 710.4C361.579 709.92 361.233 709.541 360.753 709.264C360.283 708.976 359.75 708.832 359.153 708.832C358.267 708.832 357.521 709.141 356.913 709.76C356.305 710.368 356.001 711.115 356.001 712C356.001 712.875 356.305 713.627 356.913 714.256C357.521 714.864 358.267 715.168 359.153 715.168C359.739 715.168 360.267 715.029 360.737 714.752C361.217 714.475 361.59 714.091 361.857 713.6L362.737 714.112C362.406 714.752 361.921 715.259 361.281 715.632C360.641 716.005 359.931 716.192 359.153 716.192ZM363.137 708H369.857V709.024H367.025V716H365.969V709.024H363.137V708ZM377.711 709.568V708H378.767V716H377.711V714.432C376.975 715.605 375.898 716.192 374.479 716.192C373.338 716.192 372.362 715.787 371.551 714.976C370.751 714.165 370.351 713.173 370.351 712C370.351 710.827 370.751 709.835 371.551 709.024C372.362 708.213 373.338 707.808 374.479 707.808C375.898 707.808 376.975 708.395 377.711 709.568ZM372.319 714.256C372.927 714.864 373.674 715.168 374.559 715.168C375.444 715.168 376.191 714.864 376.799 714.256C377.407 713.627 377.711 712.875 377.711 712C377.711 711.115 377.407 710.368 376.799 709.76C376.191 709.141 375.444 708.832 374.559 708.832C373.674 708.832 372.927 709.141 372.319 709.76C371.711 710.368 371.407 711.115 371.407 712C371.407 712.875 371.711 713.627 372.319 714.256ZM386.091 711.888C386.965 712.208 387.403 712.832 387.403 713.76C387.403 714.421 387.179 714.96 386.731 715.376C386.293 715.792 385.68 716 384.891 716H381.003V708H384.571C385.339 708 385.936 708.197 386.363 708.592C386.8 708.987 387.019 709.504 387.019 710.144C387.019 710.944 386.709 711.525 386.091 711.888ZM384.571 709.024H382.059V711.456H384.571C385.499 711.456 385.963 711.04 385.963 710.208C385.963 709.835 385.84 709.547 385.595 709.344C385.36 709.131 385.019 709.024 384.571 709.024ZM382.059 714.976H384.891C385.36 714.976 385.717 714.864 385.963 714.64C386.219 714.416 386.347 714.101 386.347 713.696C386.347 713.312 386.219 713.013 385.963 712.8C385.717 712.587 385.36 712.48 384.891 712.48H382.059V714.976ZM390.059 711.04H392.251C392.987 711.04 393.616 711.275 394.139 711.744C394.661 712.203 394.923 712.795 394.923 713.52C394.923 714.256 394.661 714.853 394.139 715.312C393.637 715.771 393.008 716 392.251 716H389.003V708H390.059V711.04ZM390.059 714.976H392.251C392.709 714.976 393.093 714.843 393.403 714.576C393.712 714.299 393.867 713.947 393.867 713.52C393.867 713.093 393.712 712.747 393.403 712.48C393.093 712.203 392.709 712.064 392.251 712.064H390.059V714.976ZM394.605 708H401.325V709.024H398.493V716H397.437V709.024H394.605V708ZM405.996 707.808C407.19 707.808 408.145 708.229 408.86 709.072C409.596 709.904 409.964 710.891 409.964 712.032C409.964 712.085 409.953 712.251 409.932 712.528H402.908C403.014 713.328 403.356 713.968 403.932 714.448C404.508 714.928 405.228 715.168 406.092 715.168C407.308 715.168 408.166 714.715 408.668 713.808L409.596 714.352C409.244 714.928 408.758 715.381 408.14 715.712C407.532 716.032 406.844 716.192 406.076 716.192C404.817 716.192 403.793 715.797 403.004 715.008C402.214 714.219 401.82 713.216 401.82 712C401.82 710.795 402.209 709.797 402.988 709.008C403.766 708.208 404.769 707.808 405.996 707.808ZM405.996 708.832C405.164 708.832 404.465 709.077 403.9 709.568C403.345 710.059 403.014 710.704 402.908 711.504H408.876C408.758 710.651 408.433 709.995 407.9 709.536C407.345 709.067 406.71 708.832 405.996 708.832ZM419.771 711.888C420.699 712.24 421.163 712.88 421.163 713.808C421.163 714.48 420.902 715.045 420.379 715.504C419.878 715.963 419.142 716.192 418.171 716.192C416.55 716.192 415.494 715.552 415.003 714.272L415.899 713.744C416.241 714.693 416.998 715.168 418.171 715.168C418.779 715.168 419.254 715.04 419.595 714.784C419.937 714.517 420.107 714.171 420.107 713.744C420.107 713.36 419.969 713.056 419.691 712.832C419.414 712.597 419.041 712.48 418.571 712.48H417.403V711.456H418.251C418.71 711.456 419.067 711.344 419.323 711.12C419.59 710.885 419.723 710.565 419.723 710.16C419.723 709.776 419.563 709.461 419.243 709.216C418.934 708.96 418.523 708.832 418.011 708.832C417.019 708.832 416.353 709.232 416.011 710.032L415.131 709.52C415.665 708.379 416.625 707.808 418.011 707.808C418.865 707.808 419.537 708.032 420.027 708.48C420.529 708.917 420.779 709.456 420.779 710.096C420.779 710.917 420.443 711.515 419.771 711.888ZM429.648 709.568V708H430.704V716H429.648V714.432C428.912 715.605 427.835 716.192 426.416 716.192C425.275 716.192 424.299 715.787 423.488 714.976C422.688 714.165 422.288 713.173 422.288 712C422.288 710.827 422.688 709.835 423.488 709.024C424.299 708.213 425.275 707.808 426.416 707.808C427.835 707.808 428.912 708.395 429.648 709.568ZM424.256 714.256C424.864 714.864 425.611 715.168 426.496 715.168C427.382 715.168 428.128 714.864 428.736 714.256C429.344 713.627 429.648 712.875 429.648 712C429.648 711.115 429.344 710.368 428.736 709.76C428.128 709.141 427.382 708.832 426.496 708.832C425.611 708.832 424.864 709.141 424.256 709.76C423.648 710.368 423.344 711.115 423.344 712C423.344 712.875 423.648 713.627 424.256 714.256ZM435.452 708H438.7V716H437.644V712.928H436.268L433.804 716H432.46L434.988 712.896C434.338 712.8 433.804 712.533 433.388 712.096C432.983 711.648 432.78 711.109 432.78 710.48C432.78 709.765 433.036 709.173 433.548 708.704C434.082 708.235 434.716 708 435.452 708ZM435.452 711.936H437.644V709.024H435.452C434.994 709.024 434.61 709.163 434.3 709.44C433.991 709.707 433.836 710.053 433.836 710.48C433.836 710.907 433.991 711.259 434.3 711.536C434.61 711.803 434.994 711.936 435.452 711.936ZM446.028 711.888C446.903 712.208 447.34 712.832 447.34 713.76C447.34 714.421 447.116 714.96 446.668 715.376C446.231 715.792 445.618 716 444.828 716H440.94V708H444.508C445.276 708 445.874 708.197 446.3 708.592C446.738 708.987 446.956 709.504 446.956 710.144C446.956 710.944 446.647 711.525 446.028 711.888ZM444.508 709.024H441.996V711.456H444.508C445.436 711.456 445.9 711.04 445.9 710.208C445.9 709.835 445.778 709.547 445.532 709.344C445.298 709.131 444.956 709.024 444.508 709.024ZM441.996 714.976H444.828C445.298 714.976 445.655 714.864 445.9 714.64C446.156 714.416 446.284 714.101 446.284 713.696C446.284 713.312 446.156 713.013 445.9 712.8C445.655 712.587 445.298 712.48 444.828 712.48H441.996V714.976ZM451.116 711.84L455.404 716H453.996L449.996 712.144V716H448.94V708H449.996V711.536L453.804 708H455.244L451.116 711.84ZM459.702 714.704L462.294 708H463.414L459.99 716.736C459.67 717.547 459.222 718.171 458.646 718.608C458.081 719.056 457.451 719.253 456.758 719.2V718.208C457.718 718.325 458.449 717.771 458.95 716.544L459.158 716.048L455.574 708H456.694L459.702 714.704ZM463.733 714.64H465.013L464.053 718.24H463.093L463.733 714.64ZM476.761 711.488V708H477.817V716H476.761V712.512H472.153V716H471.097V708H472.153V711.488H476.761ZM486.93 709.568V708H487.986V716H486.93V714.432C486.194 715.605 485.116 716.192 483.698 716.192C482.556 716.192 481.58 715.787 480.77 714.976C479.97 714.165 479.57 713.173 479.57 712C479.57 710.827 479.97 709.835 480.77 709.024C481.58 708.213 482.556 707.808 483.698 707.808C485.116 707.808 486.194 708.395 486.93 709.568ZM481.538 714.256C482.146 714.864 482.892 715.168 483.778 715.168C484.663 715.168 485.41 714.864 486.018 714.256C486.626 713.627 486.93 712.875 486.93 712C486.93 711.115 486.626 710.368 486.018 709.76C485.41 709.141 484.663 708.832 483.778 708.832C482.892 708.832 482.146 709.141 481.538 709.76C480.93 710.368 480.626 711.115 480.626 712C480.626 712.875 480.93 713.627 481.538 714.256ZM499.886 714.976V708H500.942V716H490.222V708H491.278V714.976H495.054V708H496.11V714.976H499.886ZM513.799 708H515.015V716H513.959V709.616L511.159 714.16H511.031L508.231 709.616V716H507.175V708H508.391L511.095 712.384L513.799 708ZM520.949 707.808C522.143 707.808 523.098 708.229 523.813 709.072C524.549 709.904 524.917 710.891 524.917 712.032C524.917 712.085 524.906 712.251 524.885 712.528H517.861C517.967 713.328 518.309 713.968 518.885 714.448C519.461 714.928 520.181 715.168 521.045 715.168C522.261 715.168 523.119 714.715 523.621 713.808L524.549 714.352C524.197 714.928 523.711 715.381 523.093 715.712C522.485 716.032 521.797 716.192 521.029 716.192C519.77 716.192 518.746 715.797 517.957 715.008C517.167 714.219 516.773 713.216 516.773 712C516.773 710.795 517.162 709.797 517.941 709.008C518.719 708.208 519.722 707.808 520.949 707.808ZM520.949 708.832C520.117 708.832 519.418 709.077 518.853 709.568C518.298 710.059 517.967 710.704 517.861 711.504H523.829C523.711 710.651 523.386 709.995 522.853 709.536C522.298 709.067 521.663 708.832 520.949 708.832ZM532.261 711.488V708H533.317V716H532.261V712.512H527.653V716H526.597V708H527.653V711.488H532.261ZM539.246 707.808C540.44 707.808 541.395 708.229 542.11 709.072C542.846 709.904 543.214 710.891 543.214 712.032C543.214 712.085 543.203 712.251 543.182 712.528H536.158C536.264 713.328 536.606 713.968 537.182 714.448C537.758 714.928 538.478 715.168 539.342 715.168C540.558 715.168 541.416 714.715 541.918 713.808L542.846 714.352C542.494 714.928 542.008 715.381 541.39 715.712C540.782 716.032 540.094 716.192 539.326 716.192C538.067 716.192 537.043 715.797 536.254 715.008C535.464 714.219 535.07 713.216 535.07 712C535.07 710.795 535.459 709.797 536.238 709.008C537.016 708.208 538.019 707.808 539.246 707.808ZM539.246 708.832C538.414 708.832 537.715 709.077 537.15 709.568C536.595 710.059 536.264 710.704 536.158 711.504H542.126C542.008 710.651 541.683 709.995 541.15 709.536C540.595 709.067 539.96 708.832 539.246 708.832ZM551.301 708V714.976H552.421V718.144H551.365V716H544.837V718.144H543.781V714.976H544.757C545.301 714.251 545.573 713.243 545.573 711.952V708H551.301ZM546.037 714.976H550.245V709.024H546.629V711.952C546.629 713.189 546.432 714.197 546.037 714.976ZM559.778 711.84L563.362 716H562.082L558.818 712.144V716H557.762V712.144L554.498 716H553.218L556.802 711.84L553.378 708H554.658L557.762 711.552V708H558.818V711.552L561.922 708H563.202L559.778 711.84ZM567.855 707.808C569.05 707.808 570.004 708.229 570.719 709.072C571.455 709.904 571.823 710.891 571.823 712.032C571.823 712.085 571.812 712.251 571.791 712.528H564.767C564.874 713.328 565.215 713.968 565.791 714.448C566.367 714.928 567.087 715.168 567.951 715.168C569.167 715.168 570.026 714.715 570.527 713.808L571.455 714.352C571.103 714.928 570.618 715.381 569.999 715.712C569.391 716.032 568.703 716.192 567.935 716.192C566.676 716.192 565.652 715.797 564.863 715.008C564.074 714.219 563.679 713.216 563.679 712C563.679 710.795 564.068 709.797 564.847 709.008C565.626 708.208 566.628 707.808 567.855 707.808ZM567.855 708.832C567.023 708.832 566.324 709.077 565.759 709.568C565.204 710.059 564.874 710.704 564.767 711.504H570.735C570.618 710.651 570.292 709.995 569.759 709.536C569.204 709.067 568.57 708.832 567.855 708.832ZM577.791 707.808C578.932 707.808 579.903 708.213 580.703 709.024C581.513 709.835 581.919 710.827 581.919 712C581.919 713.173 581.513 714.165 580.703 714.976C579.903 715.787 578.932 716.192 577.791 716.192C576.372 716.192 575.295 715.605 574.559 714.432V719.2H573.503V708H574.559V709.568C575.295 708.395 576.372 707.808 577.791 707.808ZM575.471 714.256C576.079 714.864 576.825 715.168 577.711 715.168C578.596 715.168 579.343 714.864 579.951 714.256C580.559 713.627 580.863 712.875 580.863 712C580.863 711.115 580.559 710.368 579.951 709.76C579.343 709.141 578.596 708.832 577.711 708.832C576.825 708.832 576.079 709.141 575.471 709.76C574.863 710.368 574.559 711.115 574.559 712C574.559 712.875 574.863 713.627 575.471 714.256ZM322.34 738.192C321.135 738.192 320.132 737.792 319.332 736.992C318.532 736.171 318.132 735.173 318.132 734C318.132 732.816 318.532 731.824 319.332 731.024C320.132 730.213 321.135 729.808 322.34 729.808C323.13 729.808 323.839 730 324.468 730.384C325.098 730.757 325.556 731.264 325.844 731.904L324.98 732.4C324.767 731.92 324.42 731.541 323.94 731.264C323.471 730.976 322.938 730.832 322.34 730.832C321.455 730.832 320.708 731.141 320.1 731.76C319.492 732.368 319.188 733.115 319.188 734C319.188 734.875 319.492 735.627 320.1 736.256C320.708 736.864 321.455 737.168 322.34 737.168C322.927 737.168 323.455 737.029 323.924 736.752C324.404 736.475 324.778 736.091 325.044 735.6L325.924 736.112C325.594 736.752 325.108 737.259 324.468 737.632C323.828 738.005 323.119 738.192 322.34 738.192ZM332.528 733.888C333.403 734.208 333.84 734.832 333.84 735.76C333.84 736.421 333.616 736.96 333.168 737.376C332.731 737.792 332.118 738 331.328 738H327.44V730H331.008C331.776 730 332.374 730.197 332.8 730.592C333.238 730.987 333.456 731.504 333.456 732.144C333.456 732.944 333.147 733.525 332.528 733.888ZM331.008 731.024H328.496V733.456H331.008C331.936 733.456 332.4 733.04 332.4 732.208C332.4 731.835 332.278 731.547 332.032 731.344C331.798 731.131 331.456 731.024 331.008 731.024ZM328.496 736.976H331.328C331.798 736.976 332.155 736.864 332.4 736.64C332.656 736.416 332.784 736.101 332.784 735.696C332.784 735.312 332.656 735.013 332.4 734.8C332.155 734.587 331.798 734.48 331.328 734.48H328.496V736.976ZM337.64 730H340.888V738H339.832V734.928H338.456L335.992 738H334.648L337.176 734.896C336.525 734.8 335.992 734.533 335.576 734.096C335.17 733.648 334.968 733.109 334.968 732.48C334.968 731.765 335.224 731.173 335.736 730.704C336.269 730.235 336.904 730 337.64 730ZM337.64 733.936H339.832V731.024H337.64C337.181 731.024 336.797 731.163 336.488 731.44C336.178 731.707 336.024 732.053 336.024 732.48C336.024 732.907 336.178 733.259 336.488 733.536C336.797 733.803 337.181 733.936 337.64 733.936ZM348.888 733.84L352.472 738H351.192L347.928 734.144V738H346.872V734.144L343.608 738H342.328L345.912 733.84L342.488 730H343.768L346.872 733.552V730H347.928V733.552L351.032 730H352.312L348.888 733.84ZM356.964 729.808C358.159 729.808 359.114 730.229 359.828 731.072C360.564 731.904 360.932 732.891 360.932 734.032C360.932 734.085 360.922 734.251 360.9 734.528H353.876C353.983 735.328 354.324 735.968 354.9 736.448C355.476 736.928 356.196 737.168 357.06 737.168C358.276 737.168 359.135 736.715 359.636 735.808L360.564 736.352C360.212 736.928 359.727 737.381 359.108 737.712C358.5 738.032 357.812 738.192 357.044 738.192C355.786 738.192 354.762 737.797 353.972 737.008C353.183 736.219 352.788 735.216 352.788 734C352.788 732.795 353.178 731.797 353.956 731.008C354.735 730.208 355.738 729.808 356.964 729.808ZM356.964 730.832C356.132 730.832 355.434 731.077 354.868 731.568C354.314 732.059 353.983 732.704 353.876 733.504H359.844C359.727 732.651 359.402 731.995 358.868 731.536C358.314 731.067 357.679 730.832 356.964 730.832ZM361.34 730H368.06V731.024H365.228V738H364.172V731.024H361.34V730ZM372.762 738.192C371.557 738.192 370.554 737.792 369.754 736.992C368.954 736.171 368.554 735.173 368.554 734C368.554 732.816 368.954 731.824 369.754 731.024C370.554 730.213 371.557 729.808 372.762 729.808C373.551 729.808 374.261 730 374.89 730.384C375.519 730.757 375.978 731.264 376.266 731.904L375.402 732.4C375.189 731.92 374.842 731.541 374.362 731.264C373.893 730.976 373.359 730.832 372.762 730.832C371.877 730.832 371.13 731.141 370.522 731.76C369.914 732.368 369.61 733.115 369.61 734C369.61 734.875 369.914 735.627 370.522 736.256C371.13 736.864 371.877 737.168 372.762 737.168C373.349 737.168 373.877 737.029 374.346 736.752C374.826 736.475 375.199 736.091 375.466 735.6L376.346 736.112C376.015 736.752 375.53 737.259 374.89 737.632C374.25 738.005 373.541 738.192 372.762 738.192ZM380.218 730H383.466V738H382.41V734.928H381.034L378.57 738H377.226L379.754 734.896C379.103 734.8 378.57 734.533 378.154 734.096C377.749 733.648 377.546 733.109 377.546 732.48C377.546 731.765 377.802 731.173 378.314 730.704C378.847 730.235 379.482 730 380.218 730ZM380.218 733.936H382.41V731.024H380.218C379.759 731.024 379.375 731.163 379.066 731.44C378.757 731.707 378.602 732.053 378.602 732.48C378.602 732.907 378.757 733.259 379.066 733.536C379.375 733.803 379.759 733.936 380.218 733.936ZM393.434 738.192C392.229 738.192 391.226 737.792 390.426 736.992C389.626 736.171 389.226 735.173 389.226 734C389.226 732.816 389.626 731.824 390.426 731.024C391.226 730.213 392.229 729.808 393.434 729.808C394.223 729.808 394.933 730 395.562 730.384C396.191 730.757 396.65 731.264 396.938 731.904L396.074 732.4C395.861 731.92 395.514 731.541 395.034 731.264C394.565 730.976 394.031 730.832 393.434 730.832C392.549 730.832 391.802 731.141 391.194 731.76C390.586 732.368 390.282 733.115 390.282 734C390.282 734.875 390.586 735.627 391.194 736.256C391.802 736.864 392.549 737.168 393.434 737.168C394.021 737.168 394.549 737.029 395.018 736.752C395.498 736.475 395.871 736.091 396.138 735.6L397.018 736.112C396.687 736.752 396.202 737.259 395.562 737.632C394.922 738.005 394.213 738.192 393.434 738.192ZM408.902 732.192C409.457 732.427 409.894 732.784 410.214 733.264C410.534 733.744 410.694 734.283 410.694 734.88C410.694 735.744 410.39 736.48 409.782 737.088C409.174 737.696 408.438 738 407.574 738H402.694V726.8H407.206C408.027 726.8 408.737 727.099 409.334 727.696C409.921 728.283 410.214 728.987 410.214 729.808C410.214 730.853 409.777 731.648 408.902 732.192ZM407.206 727.856H403.814V731.76H407.206C407.718 731.76 408.161 731.573 408.534 731.2C408.907 730.805 409.094 730.341 409.094 729.808C409.094 729.285 408.907 728.827 408.534 728.432C408.161 728.048 407.718 727.856 407.206 727.856ZM403.814 736.944H407.574C408.129 736.944 408.598 736.747 408.982 736.352C409.377 735.957 409.574 735.467 409.574 734.88C409.574 734.304 409.377 733.819 408.982 733.424C408.598 733.019 408.129 732.816 407.574 732.816H403.814V736.944ZM419.336 731.568V730H420.392V738H419.336V736.432C418.6 737.605 417.523 738.192 416.104 738.192C414.963 738.192 413.987 737.787 413.176 736.976C412.376 736.165 411.976 735.173 411.976 734C411.976 732.827 412.376 731.835 413.176 731.024C413.987 730.213 414.963 729.808 416.104 729.808C417.523 729.808 418.6 730.395 419.336 731.568ZM413.944 736.256C414.552 736.864 415.299 737.168 416.184 737.168C417.069 737.168 417.816 736.864 418.424 736.256C419.032 735.627 419.336 734.875 419.336 734C419.336 733.115 419.032 732.368 418.424 731.76C417.816 731.141 417.069 730.832 416.184 730.832C415.299 730.832 414.552 731.141 413.944 731.76C413.336 732.368 413.032 733.115 413.032 734C413.032 734.875 413.336 735.627 413.944 736.256ZM429.252 730H430.468V738H429.412V731.616L426.612 736.16H426.484L423.684 731.616V738H422.628V730H423.844L426.548 734.384L429.252 730ZM433.762 736.16L438.53 730H439.426V738H438.37V731.84L433.602 738H432.706V730H433.762V736.16ZM450.747 733.888C451.622 734.208 452.059 734.832 452.059 735.76C452.059 736.421 451.835 736.96 451.387 737.376C450.95 737.792 450.336 738 449.547 738H445.659V730H449.227C449.995 730 450.592 730.197 451.019 730.592C451.456 730.987 451.675 731.504 451.675 732.144C451.675 732.944 451.366 733.525 450.747 733.888ZM449.227 731.024H446.715V733.456H449.227C450.155 733.456 450.619 733.04 450.619 732.208C450.619 731.835 450.496 731.547 450.251 731.344C450.016 731.131 449.675 731.024 449.227 731.024ZM446.715 736.976H449.547C450.016 736.976 450.374 736.864 450.619 736.64C450.875 736.416 451.003 736.101 451.003 735.696C451.003 735.312 450.875 735.013 450.619 734.8C450.374 734.587 450.016 734.48 449.547 734.48H446.715V736.976ZM461.211 738.192C460.07 738.192 459.11 737.813 458.331 737.056C457.563 736.288 457.179 735.296 457.179 734.08C457.179 732.715 457.382 731.669 457.787 730.944C458.192 730.208 459.014 729.541 460.251 728.944C460.646 728.763 460.955 728.624 461.179 728.528C461.552 728.379 461.846 728.251 462.059 728.144C462.987 727.717 463.456 727.189 463.467 726.56L464.299 727.04C464.246 727.307 464.16 727.547 464.043 727.76C463.904 727.995 463.766 728.181 463.627 728.32C463.499 728.459 463.296 728.608 463.019 728.768C462.838 728.875 462.619 728.992 462.363 729.12L461.563 729.456L460.811 729.776C460.075 730.096 459.526 730.432 459.163 730.784C458.811 731.125 458.56 731.573 458.411 732.128C458.752 731.669 459.2 731.323 459.755 731.088C460.31 730.843 460.87 730.72 461.435 730.72C462.502 730.72 463.382 731.072 464.075 731.776C464.779 732.469 465.131 733.36 465.131 734.448C465.131 735.525 464.758 736.421 464.011 737.136C463.275 737.84 462.342 738.192 461.211 738.192ZM459.131 736.352C459.686 736.875 460.379 737.136 461.211 737.136C462.043 737.136 462.726 736.885 463.259 736.384C463.803 735.872 464.075 735.227 464.075 734.448C464.075 733.659 463.819 733.013 463.307 732.512C462.806 732 462.134 731.744 461.291 731.744C460.534 731.744 459.846 731.984 459.227 732.464C458.608 732.923 458.299 733.552 458.299 734.352C458.299 735.163 458.576 735.829 459.131 736.352ZM467.257 730H472.985V738H471.929V731.024H468.313V734.592C468.313 735.925 468.057 736.843 467.545 737.344C467.043 737.845 466.35 738.064 465.465 738V737.008C466.083 737.072 466.537 736.923 466.825 736.56C467.113 736.197 467.257 735.541 467.257 734.592V730ZM476.278 736.16L481.046 730H481.942V738H480.886V731.84L476.118 738H475.222V730H476.278V736.16ZM489.935 733.84L493.519 738H492.239L488.975 734.144V738H487.919V734.144L484.655 738H483.375L486.959 733.84L483.535 730H484.815L487.919 733.552V730H488.975V733.552L492.079 730H493.359L489.935 733.84ZM501.195 731.568V730H502.251V738H501.195V736.432C500.459 737.605 499.382 738.192 497.963 738.192C496.822 738.192 495.846 737.787 495.035 736.976C494.235 736.165 493.835 735.173 493.835 734C493.835 732.827 494.235 731.835 495.035 731.024C495.846 730.213 496.822 729.808 497.963 729.808C499.382 729.808 500.459 730.395 501.195 731.568ZM495.803 736.256C496.411 736.864 497.158 737.168 498.043 737.168C498.929 737.168 499.675 736.864 500.283 736.256C500.891 735.627 501.195 734.875 501.195 734C501.195 733.115 500.891 732.368 500.283 731.76C499.675 731.141 498.929 730.832 498.043 730.832C497.158 730.832 496.411 731.141 495.803 731.76C495.195 732.368 494.891 733.115 494.891 734C494.891 734.875 495.195 735.627 495.803 736.256ZM509.927 728.72H505.767V727.792H509.927V728.72ZM505.543 736.16L510.311 730H511.207V738H510.151V731.84L505.383 738H504.487V730H505.543V736.16ZM523.104 736.976V730H524.16V738H513.44V730H514.496V736.976H518.272V730H519.328V736.976H523.104ZM530.089 729.808C531.284 729.808 532.239 730.229 532.953 731.072C533.689 731.904 534.057 732.891 534.057 734.032C534.057 734.085 534.047 734.251 534.025 734.528H527.001C527.108 735.328 527.449 735.968 528.025 736.448C528.601 736.928 529.321 737.168 530.185 737.168C531.401 737.168 532.26 736.715 532.761 735.808L533.689 736.352C533.337 736.928 532.852 737.381 532.233 737.712C531.625 738.032 530.937 738.192 530.169 738.192C528.911 738.192 527.887 737.797 527.097 737.008C526.308 736.219 525.913 735.216 525.913 734C525.913 732.795 526.303 731.797 527.081 731.008C527.86 730.208 528.863 729.808 530.089 729.808ZM530.089 730.832C529.257 730.832 528.559 731.077 527.993 731.568C527.439 732.059 527.108 732.704 527.001 733.504H532.969C532.852 732.651 532.527 731.995 531.993 731.536C531.439 731.067 530.804 730.832 530.089 730.832ZM539.433 729.808C540.628 729.808 541.583 730.229 542.297 731.072C543.033 731.904 543.401 732.891 543.401 734.032C543.401 734.085 543.391 734.251 543.369 734.528H536.345C536.452 735.328 536.793 735.968 537.369 736.448C537.945 736.928 538.665 737.168 539.529 737.168C540.745 737.168 541.604 736.715 542.105 735.808L543.033 736.352C542.681 736.928 542.196 737.381 541.577 737.712C540.969 738.032 540.281 738.192 539.513 738.192C538.255 738.192 537.231 737.797 536.441 737.008C535.652 736.219 535.257 735.216 535.257 734C535.257 732.795 535.647 731.797 536.425 731.008C537.204 730.208 538.207 729.808 539.433 729.808ZM539.433 730.832C538.601 730.832 537.903 731.077 537.337 731.568C536.783 732.059 536.452 732.704 536.345 733.504H542.313C542.196 732.651 541.871 731.995 541.337 731.536C540.783 731.067 540.148 730.832 539.433 730.832ZM554.169 733.888C555.044 734.208 555.481 734.832 555.481 735.76C555.481 736.421 555.257 736.96 554.809 737.376C554.372 737.792 553.758 738 552.969 738H549.081V730H552.649C553.417 730 554.014 730.197 554.441 730.592C554.878 730.987 555.097 731.504 555.097 732.144C555.097 732.944 554.788 733.525 554.169 733.888ZM552.649 731.024H550.137V733.456H552.649C553.577 733.456 554.041 733.04 554.041 732.208C554.041 731.835 553.918 731.547 553.673 731.344C553.438 731.131 553.097 731.024 552.649 731.024ZM550.137 736.976H552.969C553.438 736.976 553.796 736.864 554.041 736.64C554.297 736.416 554.425 736.101 554.425 735.696C554.425 735.312 554.297 735.013 554.041 734.8C553.796 734.587 553.438 734.48 552.969 734.48H550.137V736.976ZM561.369 729.808C562.51 729.808 563.481 730.213 564.281 731.024C565.092 731.835 565.497 732.827 565.497 734C565.497 735.173 565.092 736.165 564.281 736.976C563.481 737.787 562.51 738.192 561.369 738.192C559.95 738.192 558.873 737.605 558.137 736.432V741.2H557.081V730H558.137V731.568C558.873 730.395 559.95 729.808 561.369 729.808ZM559.049 736.256C559.657 736.864 560.404 737.168 561.289 737.168C562.174 737.168 562.921 736.864 563.529 736.256C564.137 735.627 564.441 734.875 564.441 734C564.441 733.115 564.137 732.368 563.529 731.76C562.921 731.141 562.174 730.832 561.289 730.832C560.404 730.832 559.657 731.141 559.049 731.76C558.441 732.368 558.137 733.115 558.137 734C558.137 734.875 558.441 735.627 559.049 736.256ZM570.949 729.808C572.143 729.808 573.098 730.229 573.813 731.072C574.549 731.904 574.917 732.891 574.917 734.032C574.917 734.085 574.906 734.251 574.885 734.528H567.861C567.967 735.328 568.309 735.968 568.885 736.448C569.461 736.928 570.181 737.168 571.045 737.168C572.261 737.168 573.119 736.715 573.621 735.808L574.549 736.352C574.197 736.928 573.711 737.381 573.093 737.712C572.485 738.032 571.797 738.192 571.029 738.192C569.77 738.192 568.746 737.797 567.957 737.008C567.167 736.219 566.773 735.216 566.773 734C566.773 732.795 567.162 731.797 567.941 731.008C568.719 730.208 569.722 729.808 570.949 729.808ZM570.949 730.832C570.117 730.832 569.418 731.077 568.853 731.568C568.298 732.059 567.967 732.704 567.861 733.504H573.829C573.711 732.651 573.386 731.995 572.853 731.536C572.298 731.067 571.663 730.832 570.949 730.832ZM583.221 730H584.437V738H583.381V731.616L580.581 736.16H580.453L577.653 731.616V738H576.597V730H577.813L580.517 734.384L583.221 730ZM589.187 730H592.435V738H591.379V734.928H590.003L587.539 738H586.195L588.723 734.896C588.072 734.8 587.539 734.533 587.123 734.096C586.717 733.648 586.515 733.109 586.515 732.48C586.515 731.765 586.771 731.173 587.283 730.704C587.816 730.235 588.451 730 589.187 730ZM589.187 733.936H591.379V731.024H589.187C588.728 731.024 588.344 731.163 588.035 731.44C587.725 731.707 587.571 732.053 587.571 732.48C587.571 732.907 587.725 733.259 588.035 733.536C588.344 733.803 588.728 733.936 589.187 733.936ZM599.731 736.16L604.499 730H605.395V738H604.339V731.84L599.571 738H598.675V730H599.731V736.16ZM318.91 758.992C318.089 759.792 317.097 760.192 315.934 760.192C314.75 760.192 313.753 759.792 312.942 758.992C312.131 758.181 311.726 757.184 311.726 756C311.726 754.816 312.131 753.824 312.942 753.024C313.753 752.213 314.75 751.808 315.934 751.808C317.107 751.808 318.099 752.213 318.91 753.024C319.731 753.824 320.142 754.816 320.142 756C320.142 757.173 319.731 758.171 318.91 758.992ZM313.694 758.256C314.302 758.864 315.049 759.168 315.934 759.168C316.819 759.168 317.566 758.864 318.174 758.256C318.782 757.627 319.086 756.875 319.086 756C319.086 755.115 318.782 754.368 318.174 753.76C317.566 753.141 316.819 752.832 315.934 752.832C315.049 752.832 314.302 753.141 313.694 753.76C313.086 754.368 312.782 755.115 312.782 756C312.782 756.875 313.086 757.627 313.694 758.256ZM320.637 752H327.357V753.024H324.525V760H323.469V753.024H320.637V752ZM333.731 755.888C334.606 756.208 335.043 756.832 335.043 757.76C335.043 758.421 334.819 758.96 334.371 759.376C333.934 759.792 333.321 760 332.531 760H328.643V752H332.211C332.979 752 333.577 752.197 334.003 752.592C334.441 752.987 334.659 753.504 334.659 754.144C334.659 754.944 334.35 755.525 333.731 755.888ZM332.211 753.024H329.699V755.456H332.211C333.139 755.456 333.603 755.04 333.603 754.208C333.603 753.835 333.481 753.547 333.235 753.344C333.001 753.131 332.659 753.024 332.211 753.024ZM329.699 758.976H332.531C333.001 758.976 333.358 758.864 333.603 758.64C333.859 758.416 333.987 758.101 333.987 757.696C333.987 757.312 333.859 757.013 333.603 756.8C333.358 756.587 333.001 756.48 332.531 756.48H329.699V758.976ZM340.339 751.808C341.534 751.808 342.489 752.229 343.203 753.072C343.939 753.904 344.307 754.891 344.307 756.032C344.307 756.085 344.297 756.251 344.275 756.528H337.251C337.358 757.328 337.699 757.968 338.275 758.448C338.851 758.928 339.571 759.168 340.435 759.168C341.651 759.168 342.51 758.715 343.011 757.808L343.939 758.352C343.587 758.928 343.102 759.381 342.483 759.712C341.875 760.032 341.187 760.192 340.419 760.192C339.161 760.192 338.137 759.797 337.347 759.008C336.558 758.219 336.163 757.216 336.163 756C336.163 754.795 336.553 753.797 337.331 753.008C338.11 752.208 339.113 751.808 340.339 751.808ZM340.339 752.832C339.507 752.832 338.809 753.077 338.243 753.568C337.689 754.059 337.358 754.704 337.251 755.504H343.219C343.102 754.651 342.777 753.995 342.243 753.536C341.689 753.067 341.054 752.832 340.339 752.832ZM344.715 752H351.435V753.024H348.603V760H347.547V753.024H344.715V752ZM353.778 758.16L358.546 752H359.442V760H358.386V753.84L353.618 760H352.722V752H353.778V758.16ZM360.715 752H367.435V753.024H364.603V760H363.547V753.024H360.715V752ZM378.386 755.488V752H379.442V760H378.386V756.512H373.778V760H372.722V752H373.778V755.488H378.386ZM388.555 753.568V752H389.611V760H388.555V758.432C387.819 759.605 386.741 760.192 385.323 760.192C384.181 760.192 383.205 759.787 382.395 758.976C381.595 758.165 381.195 757.173 381.195 756C381.195 754.827 381.595 753.835 382.395 753.024C383.205 752.213 384.181 751.808 385.323 751.808C386.741 751.808 387.819 752.395 388.555 753.568ZM383.163 758.256C383.771 758.864 384.517 759.168 385.403 759.168C386.288 759.168 387.035 758.864 387.643 758.256C388.251 757.627 388.555 756.875 388.555 756C388.555 755.115 388.251 754.368 387.643 753.76C387.035 753.141 386.288 752.832 385.403 752.832C384.517 752.832 383.771 753.141 383.163 753.76C382.555 754.368 382.251 755.115 382.251 756C382.251 756.875 382.555 757.627 383.163 758.256ZM400.935 755.888C401.809 756.208 402.247 756.832 402.247 757.76C402.247 758.421 402.023 758.96 401.575 759.376C401.137 759.792 400.524 760 399.735 760H395.847V752H399.415C400.183 752 400.78 752.197 401.207 752.592C401.644 752.987 401.863 753.504 401.863 754.144C401.863 754.944 401.553 755.525 400.935 755.888ZM399.415 753.024H396.903V755.456H399.415C400.343 755.456 400.807 755.04 400.807 754.208C400.807 753.835 400.684 753.547 400.439 753.344C400.204 753.131 399.863 753.024 399.415 753.024ZM396.903 758.976H399.735C400.204 758.976 400.561 758.864 400.807 758.64C401.063 758.416 401.191 758.101 401.191 757.696C401.191 757.312 401.063 757.013 400.807 756.8C400.561 756.587 400.204 756.48 399.735 756.48H396.903V758.976ZM407.575 760.192C406.369 760.192 405.367 759.792 404.567 758.992C403.767 758.171 403.367 757.173 403.367 756C403.367 754.816 403.767 753.824 404.567 753.024C405.367 752.213 406.369 751.808 407.575 751.808C408.364 751.808 409.073 752 409.703 752.384C410.332 752.757 410.791 753.264 411.079 753.904L410.215 754.4C410.001 753.92 409.655 753.541 409.175 753.264C408.705 752.976 408.172 752.832 407.575 752.832C406.689 752.832 405.943 753.141 405.335 753.76C404.727 754.368 404.423 755.115 404.423 756C404.423 756.875 404.727 757.627 405.335 758.256C405.943 758.864 406.689 759.168 407.575 759.168C408.161 759.168 408.689 759.029 409.159 758.752C409.639 758.475 410.012 758.091 410.279 757.6L411.159 758.112C410.828 758.752 410.343 759.259 409.703 759.632C409.063 760.005 408.353 760.192 407.575 760.192ZM416.293 751.808C417.487 751.808 418.442 752.229 419.157 753.072C419.893 753.904 420.261 754.891 420.261 756.032C420.261 756.085 420.25 756.251 420.229 756.528H413.205C413.311 757.328 413.653 757.968 414.229 758.448C414.805 758.928 415.525 759.168 416.389 759.168C417.605 759.168 418.463 758.715 418.965 757.808L419.893 758.352C419.541 758.928 419.055 759.381 418.437 759.712C417.829 760.032 417.141 760.192 416.373 760.192C415.114 760.192 414.09 759.797 413.301 759.008C412.511 758.219 412.117 757.216 412.117 756C412.117 754.795 412.506 753.797 413.285 753.008C414.063 752.208 415.066 751.808 416.293 751.808ZM416.293 752.832C415.461 752.832 414.762 753.077 414.197 753.568C413.642 754.059 413.311 754.704 413.205 755.504H419.173C419.055 754.651 418.73 753.995 418.197 753.536C417.642 753.067 417.007 752.832 416.293 752.832ZM426.996 758.16L431.764 752H432.66V760H431.604V753.84L426.836 760H425.94V752H426.996V758.16ZM440.557 755.488V752H441.613V760H440.557V756.512H435.949V760H434.893V752H435.949V755.488H440.557ZM442.887 752H449.607V753.024H446.775V760H445.719V753.024H442.887V752ZM454.277 751.808C455.472 751.808 456.426 752.229 457.141 753.072C457.877 753.904 458.245 754.891 458.245 756.032C458.245 756.085 458.234 756.251 458.213 756.528H451.189C451.296 757.328 451.637 757.968 452.213 758.448C452.789 758.928 453.509 759.168 454.373 759.168C455.589 759.168 456.448 758.715 456.949 757.808L457.877 758.352C457.525 758.928 457.04 759.381 456.421 759.712C455.813 760.032 455.125 760.192 454.357 760.192C453.098 760.192 452.074 759.797 451.285 759.008C450.496 758.219 450.101 757.216 450.101 756C450.101 754.795 450.49 753.797 451.269 753.008C452.048 752.208 453.05 751.808 454.277 751.808ZM454.277 752.832C453.445 752.832 452.746 753.077 452.181 753.568C451.626 754.059 451.296 754.704 451.189 755.504H457.157C457.04 754.651 456.714 753.995 456.181 753.536C455.626 753.067 454.992 752.832 454.277 752.832ZM464.213 751.808C465.354 751.808 466.325 752.213 467.125 753.024C467.935 753.835 468.341 754.827 468.341 756C468.341 757.173 467.935 758.165 467.125 758.976C466.325 759.787 465.354 760.192 464.213 760.192C462.794 760.192 461.717 759.605 460.981 758.432V763.2H459.925V752H460.981V753.568C461.717 752.395 462.794 751.808 464.213 751.808ZM461.893 758.256C462.501 758.864 463.247 759.168 464.133 759.168C465.018 759.168 465.765 758.864 466.373 758.256C466.981 757.627 467.285 756.875 467.285 756C467.285 755.115 466.981 754.368 466.373 753.76C465.765 753.141 465.018 752.832 464.133 752.832C463.247 752.832 462.501 753.141 461.893 753.76C461.285 754.368 460.981 755.115 460.981 756C460.981 756.875 461.285 757.627 461.893 758.256ZM473.793 751.808C474.987 751.808 475.942 752.229 476.657 753.072C477.393 753.904 477.761 754.891 477.761 756.032C477.761 756.085 477.75 756.251 477.729 756.528H470.705C470.811 757.328 471.153 757.968 471.729 758.448C472.305 758.928 473.025 759.168 473.889 759.168C475.105 759.168 475.963 758.715 476.465 757.808L477.393 758.352C477.041 758.928 476.555 759.381 475.937 759.712C475.329 760.032 474.641 760.192 473.873 760.192C472.614 760.192 471.59 759.797 470.801 759.008C470.011 758.219 469.617 757.216 469.617 756C469.617 754.795 470.006 753.797 470.785 753.008C471.563 752.208 472.566 751.808 473.793 751.808ZM473.793 752.832C472.961 752.832 472.262 753.077 471.697 753.568C471.142 754.059 470.811 754.704 470.705 755.504H476.673C476.555 754.651 476.23 753.995 475.697 753.536C475.142 753.067 474.507 752.832 473.793 752.832ZM483.168 760.192C481.963 760.192 480.96 759.792 480.16 758.992C479.36 758.171 478.96 757.173 478.96 756C478.96 754.816 479.36 753.824 480.16 753.024C480.96 752.213 481.963 751.808 483.168 751.808C483.958 751.808 484.667 752 485.296 752.384C485.926 752.757 486.384 753.264 486.672 753.904L485.808 754.4C485.595 753.92 485.248 753.541 484.768 753.264C484.299 752.976 483.766 752.832 483.168 752.832C482.283 752.832 481.536 753.141 480.928 753.76C480.32 754.368 480.016 755.115 480.016 756C480.016 756.875 480.32 757.627 480.928 758.256C481.536 758.864 482.283 759.168 483.168 759.168C483.755 759.168 484.283 759.029 484.752 758.752C485.232 758.475 485.606 758.091 485.872 757.6L486.752 758.112C486.422 758.752 485.936 759.259 485.296 759.632C484.656 760.005 483.947 760.192 483.168 760.192ZM491.124 758.704L493.716 752H494.836L491.412 760.736C491.092 761.547 490.644 762.171 490.068 762.608C489.503 763.056 488.873 763.253 488.18 763.2V762.208C489.14 762.325 489.871 761.771 490.372 760.544L490.58 760.048L486.996 752H488.116L491.124 758.704ZM502.944 751.808C504.118 751.808 505.11 752.213 505.92 753.024C506.742 753.824 507.152 754.816 507.152 756C507.152 757.173 506.742 758.171 505.92 758.992C505.099 759.792 504.107 760.192 502.944 760.192C501.878 760.192 500.95 759.845 500.16 759.152C499.382 758.437 498.939 757.557 498.832 756.512H497.168V760H496.112V752H497.168V755.488H498.832C498.95 754.432 499.392 753.557 500.16 752.864C500.939 752.16 501.867 751.808 502.944 751.808ZM500.704 758.256C501.312 758.864 502.059 759.168 502.944 759.168C503.83 759.168 504.576 758.864 505.184 758.256C505.792 757.627 506.096 756.875 506.096 756C506.096 755.115 505.792 754.368 505.184 753.76C504.576 753.141 503.83 752.832 502.944 752.832C502.059 752.832 501.312 753.141 500.704 753.76C500.096 754.368 499.792 755.115 499.792 756C499.792 756.875 500.096 757.627 500.704 758.256ZM519.629 752V758.976H520.749V762.144H519.693V760H508.909V752H509.965V758.976H513.741V752H514.797V758.976H518.573V752H519.629ZM523.403 758.16L528.171 752H529.067V760H528.011V753.84L523.243 760H522.347V752H523.403V758.16ZM534.996 751.808C536.19 751.808 537.145 752.229 537.86 753.072C538.596 753.904 538.964 754.891 538.964 756.032C538.964 756.085 538.953 756.251 538.932 756.528H531.908C532.014 757.328 532.356 757.968 532.932 758.448C533.508 758.928 534.228 759.168 535.092 759.168C536.308 759.168 537.166 758.715 537.668 757.808L538.596 758.352C538.244 758.928 537.758 759.381 537.14 759.712C536.532 760.032 535.844 760.192 535.076 760.192C533.817 760.192 532.793 759.797 532.004 759.008C531.214 758.219 530.82 757.216 530.82 756C530.82 754.795 531.209 753.797 531.988 753.008C532.766 752.208 533.769 751.808 534.996 751.808ZM534.996 752.832C534.164 752.832 533.465 753.077 532.9 753.568C532.345 754.059 532.014 754.704 531.908 755.504H537.876C537.758 754.651 537.433 753.995 536.9 753.536C536.345 753.067 535.71 752.832 534.996 752.832ZM549.731 755.888C550.606 756.208 551.043 756.832 551.043 757.76C551.043 758.421 550.819 758.96 550.371 759.376C549.934 759.792 549.321 760 548.531 760H544.643V752H548.211C548.979 752 549.577 752.197 550.003 752.592C550.441 752.987 550.659 753.504 550.659 754.144C550.659 754.944 550.35 755.525 549.731 755.888ZM548.211 753.024H545.699V755.456H548.211C549.139 755.456 549.603 755.04 549.603 754.208C549.603 753.835 549.481 753.547 549.235 753.344C549.001 753.131 548.659 753.024 548.211 753.024ZM545.699 758.976H548.531C549.001 758.976 549.358 758.864 549.603 758.64C549.859 758.416 549.987 758.101 549.987 757.696C549.987 757.312 549.859 757.013 549.603 756.8C549.358 756.587 549.001 756.48 548.531 756.48H545.699V758.976ZM559.347 758.992C558.526 759.792 557.534 760.192 556.371 760.192C555.187 760.192 554.19 759.792 553.379 758.992C552.569 758.181 552.163 757.184 552.163 756C552.163 754.816 552.569 753.824 553.379 753.024C554.19 752.213 555.187 751.808 556.371 751.808C557.545 751.808 558.537 752.213 559.347 753.024C560.169 753.824 560.579 754.816 560.579 756C560.579 757.173 560.169 758.171 559.347 758.992ZM554.131 758.256C554.739 758.864 555.486 759.168 556.371 759.168C557.257 759.168 558.003 758.864 558.611 758.256C559.219 757.627 559.523 756.875 559.523 756C559.523 755.115 559.219 754.368 558.611 753.76C558.003 753.141 557.257 752.832 556.371 752.832C555.486 752.832 554.739 753.141 554.131 753.76C553.523 754.368 553.219 755.115 553.219 756C553.219 756.875 553.523 757.627 554.131 758.256ZM562.347 752H569.067V760H568.011V753.024H563.403V760H562.347V752ZM575.588 751.808C576.729 751.808 577.7 752.213 578.5 753.024C579.31 753.835 579.716 754.827 579.716 756C579.716 757.173 579.31 758.165 578.5 758.976C577.7 759.787 576.729 760.192 575.588 760.192C574.169 760.192 573.092 759.605 572.356 758.432V763.2H571.3V752H572.356V753.568C573.092 752.395 574.169 751.808 575.588 751.808ZM573.268 758.256C573.876 758.864 574.622 759.168 575.508 759.168C576.393 759.168 577.14 758.864 577.748 758.256C578.356 757.627 578.66 756.875 578.66 756C578.66 755.115 578.356 754.368 577.748 753.76C577.14 753.141 576.393 752.832 575.508 752.832C574.622 752.832 573.876 753.141 573.268 753.76C572.66 754.368 572.356 755.115 572.356 756C572.356 756.875 572.66 757.627 573.268 758.256ZM588.176 758.992C587.354 759.792 586.362 760.192 585.2 760.192C584.016 760.192 583.018 759.792 582.208 758.992C581.397 758.181 580.992 757.184 580.992 756C580.992 754.816 581.397 753.824 582.208 753.024C583.018 752.213 584.016 751.808 585.2 751.808C586.373 751.808 587.365 752.213 588.176 753.024C588.997 753.824 589.408 754.816 589.408 756C589.408 757.173 588.997 758.171 588.176 758.992ZM582.96 758.256C583.568 758.864 584.314 759.168 585.2 759.168C586.085 759.168 586.832 758.864 587.44 758.256C588.048 757.627 588.352 756.875 588.352 756C588.352 755.115 588.048 754.368 587.44 753.76C586.832 753.141 586.085 752.832 585.2 752.832C584.314 752.832 583.568 753.141 582.96 753.76C582.352 754.368 582.048 755.115 582.048 756C582.048 756.875 582.352 757.627 582.96 758.256ZM594.903 760.192C593.697 760.192 592.695 759.792 591.895 758.992C591.095 758.171 590.695 757.173 590.695 756C590.695 754.816 591.095 753.824 591.895 753.024C592.695 752.213 593.697 751.808 594.903 751.808C595.692 751.808 596.401 752 597.031 752.384C597.66 752.757 598.119 753.264 598.407 753.904L597.543 754.4C597.329 753.92 596.983 753.541 596.503 753.264C596.033 752.976 595.5 752.832 594.903 752.832C594.017 752.832 593.271 753.141 592.663 753.76C592.055 754.368 591.751 755.115 591.751 756C591.751 756.875 592.055 757.627 592.663 758.256C593.271 758.864 594.017 759.168 594.903 759.168C595.489 759.168 596.017 759.029 596.487 758.752C596.967 758.475 597.34 758.091 597.607 757.6L598.487 758.112C598.156 758.752 597.671 759.259 597.031 759.632C596.391 760.005 595.681 760.192 594.903 760.192ZM601.059 755.04H603.251C603.987 755.04 604.616 755.275 605.139 755.744C605.661 756.203 605.923 756.795 605.923 757.52C605.923 758.256 605.661 758.853 605.139 759.312C604.637 759.771 604.008 760 603.251 760H600.003V752H601.059V755.04ZM607.043 760V752H608.099V760H607.043ZM601.059 758.976H603.251C603.709 758.976 604.093 758.843 604.403 758.576C604.712 758.299 604.867 757.947 604.867 757.52C604.867 757.093 604.712 756.747 604.403 756.48C604.093 756.203 603.709 756.064 603.251 756.064H601.059V758.976ZM611.947 759.28C611.947 759.525 611.861 759.733 611.691 759.904C611.52 760.075 611.312 760.16 611.067 760.16C610.821 760.16 610.613 760.075 610.443 759.904C610.272 759.733 610.187 759.525 610.187 759.28C610.187 759.035 610.272 758.827 610.443 758.656C610.613 758.485 610.821 758.4 611.067 758.4C611.312 758.4 611.52 758.485 611.691 758.656C611.861 758.827 611.947 759.035 611.947 759.28Z" fill="white"/>
<rect x="349.5" y="777" width="225" height="62" rx="31" fill="#FF2E51"/>
<path d="M409.98 810.528C408.86 811.648 407.489 812.208 405.868 812.208C404.247 812.208 402.871 811.648 401.74 810.528C400.62 809.397 400.06 808.021 400.06 806.4C400.06 804.779 400.62 803.408 401.74 802.288C402.871 801.157 404.247 800.592 405.868 800.592C407.489 800.592 408.86 801.157 409.98 802.288C411.111 803.408 411.676 804.779 411.676 806.4C411.676 808.021 411.111 809.397 409.98 810.528ZM403.036 809.28C403.815 810.037 404.759 810.416 405.868 810.416C406.988 810.416 407.927 810.037 408.684 809.28C409.452 808.512 409.836 807.552 409.836 806.4C409.836 805.248 409.452 804.293 408.684 803.536C407.927 802.768 406.988 802.384 405.868 802.384C404.748 802.384 403.804 802.768 403.036 803.536C402.279 804.293 401.9 805.248 401.9 806.4C401.9 807.541 402.279 808.501 403.036 809.28ZM417.018 812.208C415.813 812.208 414.805 811.803 413.994 810.992C413.194 810.171 412.794 809.173 412.794 808C412.794 806.805 413.194 805.808 413.994 805.008C414.805 804.197 415.813 803.792 417.018 803.792C417.797 803.792 418.506 803.979 419.146 804.352C419.786 804.725 420.266 805.227 420.586 805.856L419.098 806.72C418.917 806.336 418.64 806.037 418.266 805.824C417.904 805.6 417.482 805.488 417.002 805.488C416.298 805.488 415.706 805.728 415.226 806.208C414.757 806.699 414.522 807.296 414.522 808C414.522 808.704 414.757 809.301 415.226 809.792C415.706 810.272 416.298 810.512 417.002 810.512C417.472 810.512 417.893 810.405 418.266 810.192C418.65 809.968 418.938 809.664 419.13 809.28L420.618 810.128C420.277 810.768 419.781 811.275 419.13 811.648C418.49 812.021 417.786 812.208 417.018 812.208ZM420.941 804H427.901V805.664H425.293V812H423.565V805.664H420.941V804ZM435.094 805.136V804H436.822V812H435.094V810.848C434.443 811.755 433.51 812.208 432.294 812.208C431.195 812.208 430.257 811.803 429.478 810.992C428.699 810.181 428.31 809.184 428.31 808C428.31 806.816 428.699 805.819 429.478 805.008C430.257 804.197 431.195 803.792 432.294 803.792C433.51 803.792 434.443 804.24 435.094 805.136ZM430.758 809.84C431.238 810.32 431.841 810.56 432.566 810.56C433.291 810.56 433.894 810.32 434.374 809.84C434.854 809.349 435.094 808.736 435.094 808C435.094 807.264 434.854 806.656 434.374 806.176C433.894 805.685 433.291 805.44 432.566 805.44C431.841 805.44 431.238 805.685 430.758 806.176C430.278 806.656 430.038 807.264 430.038 808C430.038 808.725 430.278 809.339 430.758 809.84ZM444.372 807.888C445.161 808.261 445.556 808.875 445.556 809.728C445.556 810.411 445.321 810.96 444.852 811.376C444.393 811.792 443.753 812 442.932 812H438.836V804H442.612C443.423 804 444.057 804.203 444.516 804.608C444.975 805.013 445.204 805.547 445.204 806.208C445.204 806.965 444.927 807.525 444.372 807.888ZM442.484 805.472H440.484V807.248H442.484C443.188 807.248 443.54 806.949 443.54 806.352C443.54 805.765 443.188 805.472 442.484 805.472ZM440.484 810.496H442.772C443.497 810.496 443.86 810.181 443.86 809.552C443.86 809.275 443.764 809.061 443.572 808.912C443.38 808.752 443.113 808.672 442.772 808.672H440.484V810.496ZM448.657 809.072L452.753 804H454.081V812H452.385V806.912L448.289 812H446.961V804H448.657V809.072ZM455.238 804H462.198V805.664H459.59V812H457.862V805.664H455.238V804ZM465.095 806.72H466.855C467.719 806.72 468.418 806.965 468.951 807.456C469.495 807.936 469.767 808.571 469.767 809.36C469.767 810.139 469.495 810.773 468.951 811.264C468.418 811.755 467.719 812 466.855 812H463.367V804H465.095V806.72ZM465.095 810.448H466.871C467.213 810.448 467.495 810.347 467.719 810.144C467.954 809.941 468.071 809.68 468.071 809.36C468.071 809.04 467.959 808.779 467.735 808.576C467.511 808.373 467.223 808.272 466.871 808.272H465.095V810.448ZM479.676 807.904C480.529 808.288 480.956 808.923 480.956 809.808C480.956 810.501 480.673 811.077 480.108 811.536C479.543 811.984 478.775 812.208 477.804 812.208C476.193 812.208 475.105 811.568 474.54 810.288L475.948 809.456C476.236 810.256 476.86 810.656 477.82 810.656C478.268 810.656 478.62 810.565 478.876 810.384C479.132 810.192 479.26 809.941 479.26 809.632C479.26 809.355 479.159 809.136 478.956 808.976C478.753 808.805 478.471 808.72 478.108 808.72H476.972V807.2H477.82C478.172 807.2 478.444 807.12 478.636 806.96C478.839 806.789 478.94 806.56 478.94 806.272C478.94 805.995 478.828 805.771 478.604 805.6C478.38 805.419 478.081 805.328 477.708 805.328C476.908 805.328 476.353 805.68 476.044 806.384L474.636 805.584C475.223 804.389 476.236 803.792 477.676 803.792C478.572 803.792 479.281 804.021 479.804 804.48C480.337 804.928 480.604 805.477 480.604 806.128C480.604 806.928 480.295 807.52 479.676 807.904ZM488.703 805.136V804H490.431V812H488.703V810.848C488.053 811.755 487.119 812.208 485.903 812.208C484.805 812.208 483.866 811.803 483.087 810.992C482.309 810.181 481.919 809.184 481.919 808C481.919 806.816 482.309 805.819 483.087 805.008C483.866 804.197 484.805 803.792 485.903 803.792C487.119 803.792 488.053 804.24 488.703 805.136ZM484.367 809.84C484.847 810.32 485.45 810.56 486.175 810.56C486.901 810.56 487.503 810.32 487.983 809.84C488.463 809.349 488.703 808.736 488.703 808C488.703 807.264 488.463 806.656 487.983 806.176C487.503 805.685 486.901 805.44 486.175 805.44C485.45 805.44 484.847 805.685 484.367 806.176C483.887 806.656 483.647 807.264 483.647 808C483.647 808.725 483.887 809.339 484.367 809.84ZM495.07 804H498.638V812H496.942V809.312H495.982L493.95 812H491.918L494.078 809.152C493.523 808.971 493.075 808.651 492.734 808.192C492.403 807.733 492.238 807.221 492.238 806.656C492.238 805.92 492.499 805.296 493.022 804.784C493.544 804.261 494.227 804 495.07 804ZM495.166 807.824H496.942V805.568H495.166C494.803 805.568 494.504 805.675 494.27 805.888C494.046 806.091 493.934 806.363 493.934 806.704C493.934 807.045 494.046 807.317 494.27 807.52C494.504 807.723 494.803 807.824 495.166 807.824ZM506.185 807.888C506.974 808.261 507.369 808.875 507.369 809.728C507.369 810.411 507.134 810.96 506.665 811.376C506.206 811.792 505.566 812 504.745 812H500.649V804H504.425C505.235 804 505.87 804.203 506.329 804.608C506.787 805.013 507.017 805.547 507.017 806.208C507.017 806.965 506.739 807.525 506.185 807.888ZM504.297 805.472H502.297V807.248H504.297C505.001 807.248 505.353 806.949 505.353 806.352C505.353 805.765 505.001 805.472 504.297 805.472ZM502.297 810.496H504.585C505.31 810.496 505.673 810.181 505.673 809.552C505.673 809.275 505.577 809.061 505.385 808.912C505.193 808.752 504.926 808.672 504.585 808.672H502.297V810.496ZM512.198 807.92L515.846 812H513.782L510.502 808.304V812H508.774V804H510.502V807.536L513.606 804H515.718L512.198 807.92ZM520.196 809.824L522.244 804H524.084L521.012 812.256C520.638 813.269 520.116 814.027 519.444 814.528C518.772 815.029 517.993 815.253 517.108 815.2V813.584C518.132 813.648 518.841 813.136 519.236 812.048L519.284 811.936L515.924 804H517.764L520.196 809.824Z" fill="white"/>
<mask id="mask0_659_7921" style="mask-type:alpha" maskUnits="userSpaceOnUse" x="490" y="355" width="418" height="480">
<path d="M769.845 814.139C762.275 837.438 731.48 842.331 717.061 822.526L496.33 519.354C484.326 502.867 491.916 479.466 511.312 473.164L868.231 357.194C891.543 349.62 913.608 371.684 906.033 394.997L769.845 814.139Z" fill="#192040"/>
</mask>
<g mask="url(#mask0_659_7921)">
<rect x="472" y="339" width="500" height="500" fill="white"/>
</g>
<mask id="mask1_659_7921" style="mask-type:alpha" maskUnits="userSpaceOnUse" x="16" y="355" width="418" height="480">
<path d="M18.1719 394.927C10.6015 371.628 32.6388 349.569 55.9456 357.116L412.721 472.645C432.123 478.927 439.737 502.32 427.75 518.819L207.162 822.433C192.754 842.263 161.934 837.382 154.359 814.069L18.1719 394.927Z" fill="#192040"/>
</mask>
<g mask="url(#mask1_659_7921)">
<rect x="-48" y="349" width="500" height="500" fill="white"/>
</g>
<path d="M241.597 869.688C217.099 869.688 202.93 841.912 217.309 822.078L437.433 518.465C449.404 501.954 474.005 501.942 485.992 518.441L706.58 822.054C720.988 841.885 706.822 869.688 682.31 869.688L241.597 869.688Z" fill="#666680"/>
<mask id="mask2_659_7921" style="mask-type:alpha" maskUnits="userSpaceOnUse" x="467" y="28" width="417" height="437">
<path d="M871.405 293.652C891.224 308.052 886.362 338.851 863.07 346.445L506.527 462.687C487.137 469.009 467.228 454.559 467.228 434.165V58.8783C467.228 34.3663 495.03 20.2 514.861 34.6078L871.405 293.652Z" fill="#192040"/>
</mask>
<g mask="url(#mask2_659_7921)">
<rect x="467" y="-24" width="500" height="500" fill="white"/>
<path d="M679.245 350.106C679.245 349.612 679.638 349.22 680.122 349.22C680.606 349.22 681 349.624 681 350.106V356.318C681 357.832 679.83 361.914 679.177 364H668.87L668.84 363.939C668.452 363.142 667.77 361.742 667.43 361.163L679.245 350.106ZM679.245 350.106L679.267 352.752L679.245 350.106ZM678.745 350.106L678.745 350.11L678.767 352.752C678.767 352.753 678.767 352.753 678.767 352.754C678.766 352.98 678.587 353.161 678.356 353.161C678.124 353.161 677.944 352.979 677.944 352.752V348.614C677.944 347.863 677.333 347.228 676.567 347.228C675.804 347.228 675.189 347.847 675.189 348.614V351.564C675.189 351.791 675.009 351.972 674.777 351.972C674.546 351.972 674.366 351.791 674.366 351.564V347.426C674.366 346.674 673.755 346.04 672.988 346.04C672.226 346.04 671.611 346.659 671.611 347.426V350.386C671.611 350.613 671.431 350.794 671.199 350.794C670.967 350.794 670.788 350.613 670.788 350.386V341.886C670.788 341.134 670.177 340.5 669.41 340.5C668.648 340.5 668.032 341.119 668.032 341.886V355.04C668.032 355.207 667.932 355.357 667.767 355.421C667.592 355.479 667.405 355.424 667.298 355.304C667.298 355.304 667.298 355.303 667.298 355.303L663.777 351.301L663.766 351.288L663.754 351.277C663.499 351.022 663.145 350.884 662.794 350.884C662.434 350.884 662.08 351.02 661.822 351.277C661.48 351.618 661.466 352.064 661.531 352.4C661.595 352.737 661.752 353.064 661.899 353.316C662.921 355.114 664.043 356.82 665.032 358.32C665.061 358.365 665.09 358.409 665.119 358.454C665.832 359.54 666.498 360.556 666.998 361.414L666.999 361.416C667.328 361.978 668.006 363.369 668.398 364.173L668.421 364.219L668.558 364.5H668.87H679.177H679.545L679.654 364.149C679.982 363.101 680.441 361.55 680.818 360.068C681.189 358.61 681.5 357.149 681.5 356.318V350.106C681.5 349.354 680.889 348.72 680.122 348.72C679.36 348.72 678.745 349.339 678.745 350.106Z" fill="white" stroke="#333333"/>
</g>
<mask id="mask3_659_7921" style="mask-type:alpha" maskUnits="userSpaceOnUse" x="40" y="28" width="418" height="436">
<path d="M409.177 34.565C428.997 20.1653 456.786 34.3073 456.811 58.8056L457.186 433.82C457.206 454.213 437.311 468.683 417.916 462.381L60.9966 346.411C37.6843 338.837 32.8029 308.017 52.6336 293.609L409.177 34.565Z" fill="#192040"/>
</mask>
<g mask="url(#mask3_659_7921)">
<rect width="500" height="500" fill="white"/>
</g>
</svg>
