<svg width="18" height="17" viewBox="0 0 18 17" fill="none" xmlns="http://www.w3.org/2000/svg">
<path d="M9.5625 10.8906L7.09375 8.42188L15 0.515625C15.6875 -0.171875 16.7812 -0.171875 17.4688 0.515625C18.1562 1.20312 18.1562 2.29688 17.4688 2.98438L9.5625 10.8906ZM6.40625 9.10938L8.875 11.5781C8.9375 11.8906 9 12.1719 9 12.4844C9 14.4219 7.40625 15.9844 5.5 15.9844H1C0.4375 15.9844 0 15.5469 0 14.9844C0 14.4531 0.4375 13.9844 1 13.9844H1.125C1.6875 13.9844 2.0625 13.4219 2 12.8594C2 12.7344 2 12.6094 2 12.4844C2 10.5781 3.5625 8.98438 5.5 8.98438C5.8125 8.98438 6.09375 9.04688 6.40625 9.10938ZM6.0625 8.04688C5.875 8.01562 5.6875 7.98438 5.5 7.98438C5.46875 7.98438 5.4375 7.98438 5.40625 7.98438L1.5625 4.17188C0.78125 3.39062 0.78125 2.10938 1.5625 1.32812L2.3125 0.609375C3.09375 -0.171875 4.34375 -0.171875 5.125 0.609375L9.3125 4.79688L6.0625 8.04688ZM10 12.4844C10 12.2969 9.96875 12.1094 9.9375 11.9219L13.1875 8.67188L15.5625 11.0469C15.7812 11.2344 15.9375 11.5156 16 11.7969L16.9375 15.0469C17 15.2969 16.9375 15.5781 16.75 15.7656C16.5625 15.9844 16.2812 16.0469 16 15.9844L12.75 15.0469C12.4688 14.9531 12.2188 14.7969 12 14.6094L9.96875 12.5781C9.96875 12.5469 10 12.5156 10 12.4844Z" fill="white"/>
</svg>
