<svg width="18" height="12" viewBox="0 0 18 12" fill="none" xmlns="http://www.w3.org/2000/svg">
<path d="M9.87109 11.2451C10.3278 11.2451 10.5146 10.9406 10.5093 10.5588C10.4861 9.12115 11.0448 8.34718 12.0535 9.35589C13.1695 10.4718 13.4004 11.2451 14.7556 11.2451H17.1555C17.7615 11.2451 18 11.0501 18 10.7441C18 10.0969 16.9343 8.95466 16.0313 8.11619C14.7669 6.94249 14.7076 6.91474 15.7966 5.5018C17.1473 3.74763 18.9142 1.49997 17.3513 1.49997H14.3657C13.7867 1.49997 13.7447 1.82621 13.5384 2.31218C12.7922 4.07236 11.374 6.35227 10.8355 6.00353C10.2723 5.6398 10.5303 4.19911 10.5731 2.05795C10.5843 1.49247 10.5813 1.10474 9.71735 0.903744C9.24562 0.794998 8.78663 0.75 8.36065 0.75C6.65597 0.75 5.48002 1.46472 6.14824 1.58921C7.32644 1.80896 7.2132 4.3581 6.93871 5.45905C6.46023 7.37597 4.66181 3.94112 3.91259 2.23044C3.73184 1.81946 3.67635 1.49997 3.03137 1.49997H0.590225C0.221241 1.49997 0 1.61996 0 1.88695C0 2.33843 2.21991 6.92674 4.33932 9.21415C6.40623 11.4453 8.44915 11.2451 9.87109 11.2451Z" fill="#192040"/>
</svg>
