<svg xmlns="http://www.w3.org/2000/svg" viewBox="0 0 174.9 188.42"><defs><style>.cls-1,.cls-2{fill:none;stroke:#006247;stroke-miterlimit:10;}.cls-1{stroke-width:14.53px;}.cls-2{stroke-width:13.5px;}.cls-3{fill:#006247;}</style></defs><g id="Layer_2" data-name="Layer 2"><g id="DIrect"><path class="cls-1" d="M96.78,155.24a74.66,74.66,0,1,1,54.05-44.17"/><polyline class="cls-2" points="110.95 148.15 139.55 178.71 170.13 148.13"/><line class="cls-2" x1="139.55" y1="178.71" x2="139.55" y2="119.99"/><path class="cls-3" d="M82.05,111.43a30.21,30.21,0,1,1,30.21-30.21A30.25,30.25,0,0,1,82.05,111.43Zm0-46.92A16.71,16.71,0,1,0,98.76,81.22,16.73,16.73,0,0,0,82.05,64.51Z"/><rect class="cls-3" x="75.39" y="44.43" width="13.5" height="11.5"/><rect class="cls-3" x="75.39" y="108.04" width="13.5" height="11.5"/><rect class="cls-3" x="108.11" y="74.47" width="11.5" height="13.5"/><rect class="cls-3" x="44.5" y="74.47" width="11.5" height="13.5"/><rect class="cls-3" x="97.79" y="97.96" width="13.5" height="11.5" transform="translate(-42.71 104.3) rotate(-45)"/><rect class="cls-3" x="52.82" y="52.98" width="13.5" height="11.5" transform="translate(-24.08 59.32) rotate(-45)"/><rect class="cls-3" x="98.79" y="51.98" width="11.5" height="13.5" transform="translate(-10.91 91.12) rotate(-45)"/><rect class="cls-3" x="53.82" y="96.96" width="11.5" height="13.5" transform="translate(-55.88 72.49) rotate(-45)"/></g></g></svg>