<svg xmlns="http://www.w3.org/2000/svg" width="82.51" height="93.533" viewBox="0 0 82.51 93.533">
  <path id="Контур_368" data-name="Контур 368" d="M767.722,368.775a17.476,17.476,0,0,0,9.3,2.674A18.436,18.436,0,0,0,795.093,356.4l4.676-25.572L774.2,335.5a18.353,18.353,0,0,0-14.089,12.253,17.758,17.758,0,0,0,2.727,16.566,27.86,27.86,0,0,0-6.177,17.637v.3c-.337-.286-.679-.554-1.022-.8l-11.612-9.19a12.148,12.148,0,0,0,.224-8.435,12.47,12.47,0,0,0-9.573-8.325l-17.415-3.183,3.184,17.415a12.528,12.528,0,0,0,12.283,10.226,11.845,11.845,0,0,0,7.266-2.477l11.609,9.187.106.08a11.938,11.938,0,0,1,4.951,9.665v5.627c-8.656.216-16.813,1.95-23.041,4.9-7.488,3.551-11.612,8.564-11.612,14.116v3.3h73.016v-3.3c0-5.553-4.124-10.565-11.612-14.116a56,56,0,0,0-20.156-4.775V381.96A21.383,21.383,0,0,1,767.722,368.775Zm23.841-29.74-2.958,16.181a11.6,11.6,0,0,1-7.857,9.018,11.157,11.157,0,0,1-8.356-.421l15.164-15.328-4.689-4.639-15.414,15.581a11.139,11.139,0,0,1-1.089-9.577,11.6,11.6,0,0,1,9.018-7.856Zm-61.707,78.732a17.73,17.73,0,0,1,6.587-4.859c5.84-2.77,13.678-4.295,22.07-4.295s16.23,1.525,22.07,4.295a17.743,17.743,0,0,1,6.587,4.859Zm3.631-55.773a5.893,5.893,0,0,1,4.807,5.737l-5.348-4.233-4.094,5.172,5.574,4.412a5.575,5.575,0,0,1-3.567-.026,5.8,5.8,0,0,1-3.928-4.5l-1.467-8.024Z" transform="translate(-717.258 -330.829)" fill="#fff"/>
</svg>
