<svg xmlns="http://www.w3.org/2000/svg" width="96.26" height="83.814" viewBox="0 0 96.26 83.814">
  <path id="Контур_367" data-name="Контур 367" d="M559.833,366.177l.172-.2-.4-.338-11.354-27.189H475.627l-11.817,28.3h.839l47.289,55.518,47.411-55.518h.722ZM505.194,404.42,473.1,366.745h22.1Zm24.264-44.112,10.835-15.422h3.673l6.44,15.422Zm-10.59-15.422h13.558l-6.495,9.245Zm3.682,15.422H501.844l9.641-14.483Zm-31.731-15.422h13.559l-6.5,9.757Zm-7.947,0,11.165,15.422H473.475l6.44-15.422Zm35.7,59.7L528.6,366.745h22.28Zm3.375-37.841L511.9,404.608l-10.04-37.863Z" transform="translate(-463.81 -338.449)" fill="#fff"/>
</svg>
