<svg xmlns="http://www.w3.org/2000/svg" width="98.401" height="90.708" viewBox="0 0 98.401 90.708">
  <path id="Контур_365" data-name="Контур 365" d="M92.505,377.621a9.777,9.777,0,0,0-9.766-9.766H50.211V346.026a11.357,11.357,0,1,0-22.715,0v4.685l-4.164,17.144H-5.9v57.522H73.389A9.752,9.752,0,0,0,82,411.018a9.727,9.727,0,0,0,3.137-12.643,9.732,9.732,0,0,0,3.137-12.72A9.8,9.8,0,0,0,92.505,377.621Zm-12.824,9.766a2.9,2.9,0,0,1,0,5.793h-18.2v6.869h15.03a2.9,2.9,0,1,1,0,5.793H61.485v6.87h11.9a2.9,2.9,0,1,1,0,5.793H29.467V371.7l4.877-20.079.022-5.6a4.488,4.488,0,0,1,8.976,0v28.7h39.4a2.9,2.9,0,0,1,0,5.793H61.377v6.87ZM22.6,374.724v43.782H.974V374.724Z" transform="translate(5.896 -334.668)" fill="#fff"/>
</svg>
