<svg xmlns="http://www.w3.org/2000/svg" viewBox="0 0 133.72 203.49"><defs><style>.cls-1{fill:#006247;}</style></defs><g id="Layer_2" data-name="Layer 2"><g id="Oracle"><path class="cls-1" d="M71,121.87a9.16,9.16,0,1,0-9.16-9.16A9.18,9.18,0,0,0,71,121.87Z"/><path class="cls-1" d="M0,0V164.68a11.51,11.51,0,0,1,3-.4c.47,0,.91,0,1.35.07.42-4.6,4.34-9.34,9.12-9.69V13.5H120.22V159.09H93.15a9.61,9.61,0,0,1,2.11,12.75c-.15.26-.31.5-.47.75h38.93V0Z"/><path class="cls-1" d="M13.5,19.89,87.75,47.41V185.18l-74.25-23V19.89M0,.49V172.11l101.25,31.38V38L0,.49Z"/></g></g></svg>