<svg width="16" height="16" viewBox="0 0 16 16" fill="none" xmlns="http://www.w3.org/2000/svg">
<path d="M11.3337 15.3337H4.66699C3.53366 15.3337 2.66699 14.467 2.66699 13.3337V2.66699C2.66699 1.53366 3.53366 0.666992 4.66699 0.666992H11.3337C12.467 0.666992 13.3337 1.53366 13.3337 2.66699V13.3337C13.3337 14.467 12.467 15.3337 11.3337 15.3337ZM4.66699 2.00033C4.26699 2.00033 4.00033 2.26699 4.00033 2.66699V13.3337C4.00033 13.7337 4.26699 14.0003 4.66699 14.0003H11.3337C11.7337 14.0003 12.0003 13.7337 12.0003 13.3337V2.66699C12.0003 2.26699 11.7337 2.00033 11.3337 2.00033H4.66699Z" fill="#5AB9EA"/>
<path d="M8.00033 12.667C7.93366 12.667 7.80033 12.667 7.73366 12.6003C7.66699 12.6003 7.60033 12.5337 7.53366 12.467C7.40033 12.3337 7.33366 12.2003 7.33366 12.0003C7.33366 11.9337 7.33366 11.8003 7.40033 11.7337C7.46699 11.667 7.46699 11.6003 7.53366 11.5337C7.80033 11.267 8.20033 11.267 8.46699 11.5337C8.60033 11.667 8.66699 11.867 8.66699 12.0003C8.66699 12.2003 8.60033 12.3337 8.46699 12.467C8.33366 12.6003 8.20033 12.667 8.00033 12.667Z" fill="#5AB9EA"/>
</svg>
